<?xml version="1.0" encoding="UTF-8"?>
<svg width="80px" height="80px" viewBox="0 0 80 80" version="1.1" xmlns="http://www.w3.org/2000/svg" xmlns:xlink="http://www.w3.org/1999/xlink">
    <title>Icon-Architecture/64/Arch_Amazon-API-Gateway_64</title>
    <g id="Icon-Architecture/64/Arch_Amazon-API-Gateway_64" stroke="none" stroke-width="1" fill="none" fill-rule="evenodd">
        <g id="Icon-Architecture-BG/64/Application-Integration" fill="#E7157B">
            <rect id="Rectangle" x="0" y="0" width="80" height="80"></rect>
        </g>
        <g id="Icon-Service/64/Amazon-API-Gateway_64" transform="translate(12.000000, 12.000000)" fill="#FFFFFF">
            <path d="M22.065,43.6323642 L25,43.6323642 L25,41.6152989 L22.065,41.6152989 L22.065,43.6323642 Z M27,43.6323642 L30,43.6323642 L30,41.6152989 L27,41.6152989 L27,43.6323642 Z M15,2.62946112 L2,9.08205296 L2,49.1934132 L15,53.589607 L15,2.62946112 Z M17,15.3934502 L17,41.6152989 L20,41.6152989 L20,43.6323642 L17,43.6323642 L17,54.9914674 C17,55.3162149 16.845,55.6207917 16.584,55.8103959 C16.412,55.9354539 16.207,56 16,56 C15.894,56 15.786,55.9828549 15.682,55.9475563 L0.682,50.8756456 C0.274,50.7374767 0,50.3522172 0,49.9195567 L0,8.45373713 C0,8.07049472 0.217,7.71851683 0.559,7.54908335 L15.559,0.104095386 C15.868,-0.050210108 16.235,-0.0320565205 16.528,0.152504953 C16.821,0.336057894 17,0.659796872 17,1.00874917 L17,13.376385 L20,13.376385 L20,15.3934502 L17,15.3934502 Z M32,43.6323642 L35,43.6323642 L35,41.6152989 L32,41.6152989 L32,43.6323642 Z M32.065,15.3934502 L35,15.3934502 L35,13.376385 L32.065,13.376385 L32.065,15.3934502 Z M27.065,15.3934502 L30,15.3934502 L30,13.376385 L27.065,13.376385 L27.065,15.3934502 Z M22.065,15.3934502 L25,15.3934502 L25,13.376385 L22.065,13.376385 L22.065,15.3934502 Z M54,9.08205296 L41,2.62946112 L41,53.589607 L54,49.1934132 L54,9.08205296 Z M56,49.9195567 C56,50.3522172 55.726,50.7374767 55.318,50.8756456 L40.318,55.9475563 C40.214,55.9828549 40.106,56 40,56 C39.793,56 39.588,55.9354539 39.416,55.8103959 C39.155,55.6207917 39,55.3162149 39,54.9914674 L39,43.6323642 L37.065,43.6323642 L37.065,41.6152989 L39,41.6152989 L39,15.3934502 L37.065,15.3934502 L37.065,13.376385 L39,13.376385 L39,1.00874917 C39,0.659796872 39.179,0.336057894 39.472,0.152504953 C39.765,-0.0320565205 40.131,-0.050210108 40.441,0.104095386 L55.441,7.54908335 C55.783,7.71851683 56,8.07049472 56,8.45373713 L56,49.9195567 Z M30.934,21.8067093 L29.066,21.0825829 L24.066,34.1935072 L25.934,34.9176337 L30.934,21.8067093 Z M37.707,28.2088745 C38.098,27.8145383 38.098,27.1761371 37.707,26.7828094 L33.707,22.7486788 L32.293,24.174744 L35.586,27.4958419 L32.293,30.8169399 L33.707,32.2430051 L37.707,28.2088745 Z M22.293,32.2430051 L18.293,28.2088745 C17.902,27.8145383 17.902,27.1761371 18.293,26.7828094 L22.293,22.7486788 L23.707,24.174744 L20.414,27.4958419 L23.707,30.8169399 L22.293,32.2430051 Z" id="Amazon-API-Gateway_Icon_64_Squid"></path>
        </g>
    </g>
</svg>