<?xml version="1.0" encoding="UTF-8"?>
<svg xmlns="http://www.w3.org/2000/svg" xmlns:xlink="http://www.w3.org/1999/xlink" width="64" height="64" viewBox="0 0 64 64">
<path fill-rule="evenodd" fill="rgb(54.901963%, 30.980393%, 100%)" fill-opacity="1" d="M 55.1875 14.035156 C 54.347656 12.804688 52.933594 11.996094 51.332031 11.996094 C 49.046875 11.996094 47.148438 13.652344 46.753906 15.828125 C 45.4375 15.933594 44.066406 16 42.640625 16 C 32.492188 16 25.621094 13.359375 25.332031 10.832031 L 25.332031 10.660156 L 25.308594 10.660156 C 25.320312 8.085938 32.210938 5.332031 42.464844 5.332031 C 52.585938 5.332031 58.632812 8.042969 58.640625 10.664062 L 58.609375 10.664062 L 58.609375 10.835938 C 58.476562 12.34375 56.601562 13.433594 55.1875 14.035156 Z M 51.332031 18.660156 C 50.230469 18.660156 49.332031 17.765625 49.332031 16.660156 C 49.332031 15.558594 50.230469 14.660156 51.332031 14.660156 C 52.4375 14.660156 53.332031 15.558594 53.332031 16.660156 C 53.332031 17.765625 52.4375 18.660156 51.332031 18.660156 Z M 46 31.996094 C 44.898438 31.996094 44 31.097656 44 29.996094 C 44 28.890625 44.898438 27.996094 46 27.996094 C 47.105469 27.996094 48 28.890625 48 29.996094 C 48 31.097656 47.105469 31.996094 46 31.996094 Z M 32.667969 29.328125 C 31.5625 29.328125 30.667969 28.429688 30.667969 27.328125 C 30.667969 26.226562 31.5625 25.328125 32.667969 25.328125 C 33.769531 25.328125 34.667969 26.226562 34.667969 27.328125 C 34.667969 28.429688 33.769531 29.328125 32.667969 29.328125 Z M 29.332031 43.339844 L 29.332031 48.5 L 26.144531 49.855469 C 25.652344 50.066406 25.332031 50.550781 25.332031 51.085938 L 25.332031 55.101562 L 21.011719 58.402344 L 18.667969 57.128906 L 18.667969 35.007812 L 21.488281 33.628906 L 25.332031 36.878906 L 25.332031 40.558594 C 25.332031 41.070312 25.625 41.535156 26.085938 41.757812 Z M 16 57.128906 L 13.644531 58.402344 L 9.332031 55.105469 L 9.332031 51.222656 C 9.332031 50.6875 9.015625 50.207031 8.523438 49.996094 L 5.332031 48.636719 L 5.335938 45.871094 L 5.332031 43.339844 L 8.585938 41.757812 C 9.042969 41.535156 9.332031 41.070312 9.332031 40.558594 L 9.332031 36.40625 L 13.125 33.601562 L 16 35.007812 Z M 61.277344 11.152344 C 61.292969 10.984375 61.308594 10.824219 61.308594 10.667969 C 61.308594 5.808594 53.910156 2.667969 42.464844 2.667969 C 32.597656 2.667969 22.640625 5.140625 22.640625 10.667969 C 22.640625 10.746094 22.664062 10.820312 22.667969 10.894531 L 22.667969 27.996094 L 25.332031 27.996094 L 25.332031 14.953125 C 29.042969 17.484375 36.015625 18.667969 42.640625 18.667969 C 44.164062 18.667969 45.628906 18.59375 47.039062 18.480469 C 47.402344 19.339844 48.019531 20.0625 48.792969 20.566406 L 46.882812 25.417969 C 46.597656 25.363281 46.300781 25.328125 46 25.328125 C 43.992188 25.328125 42.292969 26.609375 41.636719 28.386719 L 37.328125 27.40625 C 37.328125 27.382812 37.332031 27.355469 37.332031 27.328125 C 37.332031 24.753906 35.238281 22.660156 32.667969 22.660156 C 30.09375 22.660156 28 24.753906 28 27.328125 C 28 28.664062 28.570312 29.863281 29.476562 30.714844 L 26.378906 34.269531 L 22.546875 31.03125 C 22.140625 30.6875 21.570312 30.617188 21.097656 30.851562 L 17.332031 32.691406 L 13.566406 30.851562 C 13.121094 30.632812 12.59375 30.679688 12.1875 30.976562 L 7.207031 34.660156 C 6.867188 34.910156 6.667969 35.3125 6.667969 35.730469 L 6.667969 39.726562 L 3.417969 41.308594 C 2.957031 41.53125 2.667969 41.996094 2.667969 42.507812 L 2.667969 49.519531 C 2.667969 50.054688 2.988281 50.535156 3.480469 50.746094 L 6.667969 52.105469 L 6.667969 55.765625 C 6.667969 56.179688 6.863281 56.574219 7.191406 56.824219 L 12.710938 61.042969 C 13.128906 61.363281 13.691406 61.40625 14.15625 61.15625 L 17.332031 59.441406 L 20.496094 61.160156 C 20.695312 61.269531 20.914062 61.320312 21.132812 61.320312 C 21.421875 61.320312 21.707031 61.230469 21.941406 61.046875 L 27.476562 56.824219 C 27.808594 56.570312 28 56.175781 28 55.761719 L 28 51.964844 L 31.191406 50.605469 C 31.679688 50.394531 32 49.914062 32 49.378906 L 32 42.507812 C 32 42 31.710938 41.535156 31.25 41.308594 L 28 39.726562 L 28 36.46875 L 31.957031 31.921875 C 32.1875 31.957031 32.425781 31.996094 32.667969 31.996094 C 34.265625 31.996094 35.671875 31.183594 36.515625 29.957031 L 41.476562 31.085938 C 41.96875 33.132812 43.804688 34.660156 46 34.660156 C 48.574219 34.660156 50.667969 32.566406 50.667969 29.996094 C 50.667969 28.6875 50.125 27.511719 49.261719 26.664062 L 51.363281 21.324219 C 53.921875 21.308594 56 19.222656 56 16.660156 C 56 16.632812 55.992188 16.613281 55.992188 16.585938 C 57.058594 16.148438 57.976562 15.679688 58.667969 15.1875 L 58.714844 53.09375 C 58.714844 55.675781 53.058594 58.425781 42.667969 58.425781 C 37.871094 58.425781 33.425781 57.824219 30.148438 56.730469 L 29.300781 59.257812 C 32.84375 60.441406 37.59375 61.09375 42.667969 61.09375 C 54.007812 61.09375 61.332031 57.953125 61.332031 53.089844 Z M 61.277344 11.152344 "/>
</svg>
