<?xml version="1.0" encoding="UTF-8"?>
<svg xmlns="http://www.w3.org/2000/svg" xmlns:xlink="http://www.w3.org/1999/xlink" width="64" height="64" viewBox="0 0 64 64">
<path fill-rule="evenodd" fill="rgb(54.901963%, 30.980393%, 100%)" fill-opacity="1" d="M 28 42.667969 L 36 42.667969 L 36 40 L 28 40 Z M 21.332031 45.332031 L 42.667969 45.332031 L 42.667969 37.332031 L 21.332031 37.332031 Z M 44 34.667969 L 20 34.667969 C 19.261719 34.667969 18.667969 35.265625 18.667969 36 L 18.667969 46.667969 C 18.667969 47.402344 19.261719 48 20 48 L 44 48 C 44.738281 48 45.332031 47.402344 45.332031 46.667969 L 45.332031 36 C 45.332031 35.265625 44.738281 34.667969 44 34.667969 Z M 14.667969 16 L 22.667969 16 L 22.667969 13.332031 L 14.667969 13.332031 Z M 33.332031 13.332031 L 41.332031 13.332031 L 41.332031 10.667969 L 33.332031 10.667969 Z M 5.332031 58.667969 L 58.667969 58.667969 L 58.667969 21.332031 L 5.332031 21.332031 Z M 29.332031 5.332031 L 45.332031 5.332031 L 45.332031 12 C 45.332031 12.734375 45.929688 13.332031 46.667969 13.332031 L 53.332031 13.332031 L 53.332031 18.667969 L 29.332031 18.667969 Z M 48 7.015625 L 51.527344 10.667969 L 48 10.667969 Z M 60 18.667969 L 56 18.667969 L 56 12 C 56 11.65625 55.867188 11.324219 55.625 11.074219 L 47.902344 3.074219 C 47.652344 2.8125 47.304688 2.667969 46.941406 2.667969 L 28 2.667969 C 27.261719 2.667969 26.667969 3.265625 26.667969 4 L 26.667969 18.667969 L 10.667969 18.667969 L 10.667969 9.332031 L 24 9.332031 L 24 6.667969 L 9.332031 6.667969 C 8.597656 6.667969 8 7.265625 8 8 L 8 18.667969 L 4 18.667969 C 3.261719 18.667969 2.667969 19.265625 2.667969 20 L 2.667969 60 C 2.667969 60.734375 3.261719 61.332031 4 61.332031 L 60 61.332031 C 60.738281 61.332031 61.332031 60.734375 61.332031 60 L 61.332031 20 C 61.332031 19.265625 60.738281 18.667969 60 18.667969 Z M 60 18.667969 "/>
</svg>
