<?xml version="1.0" encoding="UTF-8"?>
<svg xmlns="http://www.w3.org/2000/svg" xmlns:xlink="http://www.w3.org/1999/xlink" width="64" height="64" viewBox="0 0 64 64">
<path fill-rule="evenodd" fill="rgb(54.901963%, 30.980393%, 100%)" fill-opacity="1" d="M 28 21.332031 L 46.667969 21.332031 L 46.667969 18.667969 L 28 18.667969 Z M 28 14.667969 L 41.332031 14.667969 L 41.332031 12 L 28 12 Z M 50.667969 37.332031 L 50.667969 46.667969 L 46.667969 46.667969 L 46.667969 28 L 44 28 L 44 46.667969 L 40 46.667969 L 40 32 L 37.332031 32 L 37.332031 46.667969 L 34.667969 46.667969 L 34.667969 49.332031 L 56 49.332031 L 56 46.667969 L 53.332031 46.667969 L 53.332031 37.332031 Z M 26.214844 44.039062 C 25.308594 43.480469 24.273438 43.183594 23.21875 43.183594 C 20.410156 43.183594 18.058594 45.25 17.472656 48 L 28.960938 48 C 28.609375 46.363281 27.621094 44.914062 26.214844 44.039062 Z M 20.445312 37.585938 C 20.445312 39.113281 21.6875 40.359375 23.21875 40.359375 C 24.746094 40.359375 25.988281 39.113281 25.988281 37.585938 C 25.988281 36.058594 24.746094 34.816406 23.21875 34.816406 C 21.6875 34.816406 20.445312 36.058594 20.445312 37.585938 Z M 28.65625 37.585938 C 28.65625 39.101562 28.03125 40.472656 27.023438 41.460938 C 27.222656 41.5625 27.425781 41.65625 27.617188 41.773438 C 30.179688 43.359375 31.769531 46.257812 31.769531 49.332031 C 31.769531 50.070312 31.171875 50.667969 30.433594 50.667969 L 16 50.667969 C 15.261719 50.667969 14.667969 50.070312 14.667969 49.332031 C 14.667969 45.886719 16.601562 42.902344 19.402344 41.457031 C 18.402344 40.46875 17.777344 39.101562 17.777344 37.585938 C 17.777344 34.589844 20.21875 32.148438 23.21875 32.148438 C 26.214844 32.148438 28.65625 34.589844 28.65625 37.585938 Z M 8.445312 31.640625 C 8.445312 33.171875 9.6875 34.414062 11.21875 34.414062 C 12.746094 34.414062 13.988281 33.171875 13.988281 31.640625 C 13.988281 30.113281 12.746094 28.871094 11.21875 28.871094 C 9.6875 28.871094 8.445312 30.113281 8.445312 31.640625 Z M 13.332031 45.332031 L 4 45.332031 C 3.261719 45.332031 2.667969 44.734375 2.667969 44 C 2.667969 40.367188 4.8125 37.238281 7.867188 35.890625 C 6.605469 34.894531 5.777344 33.371094 5.777344 31.640625 C 5.777344 28.644531 8.21875 26.203125 11.21875 26.203125 C 14.214844 26.203125 16.65625 28.644531 16.65625 31.640625 C 16.65625 33.371094 15.832031 34.894531 14.570312 35.890625 C 14.929688 36.050781 15.28125 36.230469 15.617188 36.441406 L 14.214844 38.707031 C 13.308594 38.148438 12.273438 37.851562 11.21875 37.851562 C 8.410156 37.851562 6.058594 39.914062 5.472656 42.667969 L 13.332031 42.667969 Z M 50.667969 13.332031 L 56.78125 13.332031 L 50.667969 7.21875 Z M 61.332031 14.667969 L 61.332031 53.332031 C 61.332031 54.828125 60.160156 56 58.667969 56 L 24 56 L 24 53.332031 L 58.667969 53.332031 L 58.667969 16 L 49.332031 16 C 48.597656 16 48 15.402344 48 14.667969 L 48 5.332031 L 24.050781 5.332031 L 24 29.332031 L 21.332031 29.332031 L 21.332031 5.332031 C 21.332031 3.863281 22.550781 2.667969 24.050781 2.667969 L 49.332031 2.667969 C 49.6875 2.667969 50.027344 2.808594 50.277344 3.058594 L 60.941406 13.722656 C 61.191406 13.972656 61.332031 14.3125 61.332031 14.667969 Z M 16 53.332031 L 13.332031 53.332031 L 13.332031 58.667969 C 13.332031 60.136719 14.550781 61.332031 16.050781 61.332031 L 50.617188 61.332031 L 50.617188 58.667969 L 16 58.667969 Z M 16 24 L 13.332031 24 L 13.332031 9.332031 C 13.332031 7.863281 14.550781 6.667969 16.050781 6.667969 L 18.667969 6.667969 L 18.667969 9.332031 L 16.050781 9.332031 Z M 16 24 "/>
</svg>
