<?xml version="1.0" encoding="UTF-8"?>
<svg xmlns="http://www.w3.org/2000/svg" xmlns:xlink="http://www.w3.org/1999/xlink" width="64" height="64" viewBox="0 0 64 64">
<path fill-rule="evenodd" fill="rgb(54.901963%, 30.980393%, 100%)" fill-opacity="1" d="M 24 10.667969 L 45.332031 10.667969 L 45.332031 13.332031 L 30.667969 13.332031 L 30.667969 29.332031 C 30.667969 30.621094 31.367188 32 33.328125 32 L 45.332031 32 L 45.332031 34.667969 L 33.328125 34.667969 C 32.285156 34.667969 31.40625 34.40625 30.667969 34.003906 L 30.667969 50.929688 C 30.667969 52.257812 31.746094 53.332031 33.070312 53.332031 L 45.332031 53.332031 L 45.332031 56 L 33.070312 56 C 30.273438 56 28 53.726562 28 50.929688 L 28 13.332031 L 24 13.332031 Z M 54.667969 58.667969 C 52.460938 58.667969 50.667969 56.871094 50.667969 54.667969 C 50.667969 52.460938 52.460938 50.667969 54.667969 50.667969 C 56.871094 50.667969 58.667969 52.460938 58.667969 54.667969 C 58.667969 56.871094 56.871094 58.667969 54.667969 58.667969 Z M 54.667969 48 C 50.992188 48 48 50.992188 48 54.667969 C 48 58.34375 50.992188 61.332031 54.667969 61.332031 C 58.34375 61.332031 61.332031 58.34375 61.332031 54.667969 C 61.332031 50.992188 58.34375 48 54.667969 48 Z M 54.667969 37.332031 C 52.460938 37.332031 50.667969 35.539062 50.667969 33.332031 C 50.667969 31.128906 52.460938 29.332031 54.667969 29.332031 C 56.871094 29.332031 58.667969 31.128906 58.667969 33.332031 C 58.667969 35.539062 56.871094 37.332031 54.667969 37.332031 Z M 54.667969 26.667969 C 50.992188 26.667969 48 29.65625 48 33.332031 C 48 37.007812 50.992188 40 54.667969 40 C 58.34375 40 61.332031 37.007812 61.332031 33.332031 C 61.332031 29.65625 58.34375 26.667969 54.667969 26.667969 Z M 54.667969 8 C 56.871094 8 58.667969 9.792969 58.667969 12 C 58.667969 14.207031 56.871094 16 54.667969 16 C 52.460938 16 50.667969 14.207031 50.667969 12 C 50.667969 9.792969 52.460938 8 54.667969 8 Z M 54.667969 18.667969 C 58.34375 18.667969 61.332031 15.675781 61.332031 12 C 61.332031 8.324219 58.34375 5.332031 54.667969 5.332031 C 50.992188 5.332031 48 8.324219 48 12 C 48 15.675781 50.992188 18.667969 54.667969 18.667969 Z M 5.332031 18.667969 L 18.667969 18.667969 L 18.667969 5.332031 L 5.332031 5.332031 Z M 20 2.667969 L 4 2.667969 C 3.261719 2.667969 2.667969 3.265625 2.667969 4 L 2.667969 20 C 2.667969 20.734375 3.261719 21.332031 4 21.332031 L 20 21.332031 C 20.738281 21.332031 21.332031 20.734375 21.332031 20 L 21.332031 4 C 21.332031 3.265625 20.738281 2.667969 20 2.667969 Z M 20 2.667969 "/>
</svg>
