<?xml version="1.0" encoding="UTF-8"?>
<svg xmlns="http://www.w3.org/2000/svg" xmlns:xlink="http://www.w3.org/1999/xlink" width="64" height="64" viewBox="0 0 64 64">
<path fill-rule="evenodd" fill="rgb(54.901963%, 30.980393%, 100%)" fill-opacity="1" d="M 12 57.332031 C 12 56.597656 11.402344 56 10.667969 56 C 9.929688 56 9.332031 56.597656 9.332031 57.332031 C 9.332031 58.066406 9.929688 58.667969 10.667969 58.667969 C 11.402344 58.667969 12 58.066406 12 57.332031 Z M 14.667969 45.332031 C 14.667969 46.066406 15.265625 46.667969 16 46.667969 C 16.734375 46.667969 17.332031 46.066406 17.332031 45.332031 C 17.332031 44.597656 16.734375 44 16 44 C 15.265625 44 14.667969 44.597656 14.667969 45.332031 Z M 28 48 C 28 48.734375 28.597656 49.332031 29.332031 49.332031 C 30.070312 49.332031 30.667969 48.734375 30.667969 48 C 30.667969 47.265625 30.070312 46.667969 29.332031 46.667969 C 28.597656 46.667969 28 47.265625 28 48 Z M 32 36 C 32 36.734375 32.597656 37.332031 33.332031 37.332031 C 34.070312 37.332031 34.667969 36.734375 34.667969 36 C 34.667969 35.265625 34.070312 34.667969 33.332031 34.667969 C 32.597656 34.667969 32 35.265625 32 36 Z M 13.613281 54.652344 C 14.261719 55.363281 14.667969 56.296875 14.667969 57.332031 C 14.667969 59.539062 12.871094 61.332031 10.667969 61.332031 C 8.460938 61.332031 6.667969 59.539062 6.667969 57.332031 C 6.667969 55.128906 8.460938 53.332031 10.667969 53.332031 C 10.867188 53.332031 11.058594 53.363281 11.253906 53.390625 L 13.40625 48.351562 C 12.550781 47.617188 12 46.542969 12 45.332031 C 12 43.128906 13.792969 41.332031 16 41.332031 C 18.207031 41.332031 20 43.128906 20 45.332031 C 20 45.363281 19.992188 45.394531 19.992188 45.425781 L 25.570312 46.691406 C 26.117188 45.128906 27.589844 44 29.332031 44 C 29.351562 44 29.367188 44.003906 29.382812 44.003906 L 31.207031 39.375 C 30.085938 38.664062 29.332031 37.421875 29.332031 36 C 29.332031 33.792969 31.128906 32 33.332031 32 C 35.539062 32 37.332031 33.792969 37.332031 36 C 37.332031 38.03125 35.808594 39.691406 33.847656 39.949219 L 31.878906 44.941406 C 32.761719 45.675781 33.332031 46.765625 33.332031 48 C 33.332031 50.207031 31.539062 52 29.332031 52 C 27.636719 52 26.191406 50.933594 25.609375 49.4375 L 19.011719 47.9375 C 18.277344 48.785156 17.207031 49.332031 16 49.332031 C 15.960938 49.332031 15.929688 49.324219 15.890625 49.324219 Z M 41.722656 15.980469 L 40.945312 18.53125 C 43.960938 19.449219 45.332031 20.664062 45.332031 21.402344 C 45.332031 22.144531 43.960938 23.355469 40.945312 24.273438 L 41.722656 26.824219 C 43.167969 26.382812 44.371094 25.851562 45.332031 25.253906 L 45.332031 54.667969 C 45.332031 55.613281 43.4375 56.847656 40.21875 57.695312 C 40.003906 57.75 39.792969 57.808594 39.570312 57.859375 C 39.277344 57.925781 38.984375 57.992188 38.675781 58.054688 C 38.179688 58.148438 37.671875 58.234375 37.148438 58.308594 C 36.949219 58.335938 36.742188 58.363281 36.539062 58.390625 C 35.90625 58.464844 35.265625 58.53125 34.605469 58.574219 C 34.480469 58.585938 34.351562 58.589844 34.226562 58.597656 C 33.492188 58.636719 32.75 58.667969 32 58.667969 C 23.984375 58.667969 18.667969 56.289062 18.667969 54.714844 L 18.667969 52 L 16 52 L 16 54.714844 C 16 59.058594 24.050781 61.332031 32 61.332031 C 32.8125 61.332031 33.625 61.300781 34.433594 61.257812 C 34.542969 61.25 34.65625 61.246094 34.765625 61.238281 C 35.507812 61.1875 36.238281 61.113281 36.957031 61.023438 C 37.117188 61.003906 37.277344 60.984375 37.4375 60.960938 C 38.117188 60.867188 38.78125 60.757812 39.425781 60.625 C 39.597656 60.59375 39.761719 60.554688 39.929688 60.515625 C 40.484375 60.394531 41.023438 60.257812 41.539062 60.109375 C 41.628906 60.085938 41.726562 60.066406 41.816406 60.039062 L 41.8125 60.035156 C 45.453125 58.929688 48 57.128906 48 54.667969 L 48 21.332031 L 47.992188 21.332031 C 47.945312 19.097656 45.726562 17.199219 41.722656 15.980469 Z M 18.667969 25.191406 C 19.46875 25.710938 20.421875 26.183594 21.558594 26.589844 L 22.453125 24.078125 C 19.835938 23.144531 18.667969 21.980469 18.667969 21.238281 C 18.667969 20.585938 19.640625 19.5 22.390625 18.601562 L 21.558594 16.066406 C 16.722656 17.652344 16 19.988281 16 21.238281 C 16 21.269531 16.011719 21.300781 16.011719 21.332031 L 16 21.332031 L 16 38.667969 L 18.667969 38.667969 Z M 56 5.332031 L 58.664062 5.332031 L 58.664062 2.667969 L 56 2.667969 Z M 50.664062 5.332031 L 53.332031 5.332031 L 53.332031 2.667969 L 50.664062 2.667969 Z M 10.667969 10.667969 L 13.332031 10.667969 L 13.332031 8 L 10.667969 8 Z M 5.332031 10.667969 L 8 10.667969 L 8 8 L 5.332031 8 Z M 36 26.667969 L 38.667969 26.667969 L 38.667969 8 L 16 8 L 16 10.667969 L 36 10.667969 Z M 25.332031 26.667969 L 28 26.667969 L 28 13.332031 L 25.332031 13.332031 Z M 26.667969 5.332031 L 48 5.332031 L 48 2.667969 L 26.667969 2.667969 Z M 30.667969 29.332031 L 33.332031 29.332031 L 33.332031 14.667969 L 30.667969 14.667969 Z M 30.667969 29.332031 "/>
</svg>
