<?xml version="1.0" encoding="UTF-8"?>
<svg xmlns="http://www.w3.org/2000/svg" xmlns:xlink="http://www.w3.org/1999/xlink" width="64" height="64" viewBox="0 0 64 64">
<path fill-rule="evenodd" fill="rgb(54.901963%, 30.980393%, 100%)" fill-opacity="1" d="M 49.261719 35.320312 C 48.609375 35.410156 48.101562 35.945312 48.101562 36.621094 L 48.101562 40.59375 L 44.992188 39.558594 L 48.578125 34.320312 Z M 50.769531 45.773438 L 58.585938 45.773438 L 58.585938 37.953125 L 50.769531 37.953125 Z M 44.945312 52.625 L 44.945312 49.433594 C 44.945312 48.699219 44.347656 48.101562 43.609375 48.101562 L 39.148438 48.101562 L 43.429688 41.847656 L 48.101562 43.402344 L 48.101562 47.105469 C 48.101562 47.84375 48.699219 48.4375 49.433594 48.4375 L 50.550781 48.4375 C 48.523438 49.976562 46.441406 51.523438 44.945312 52.625 Z M 34.457031 58.585938 L 42.277344 58.585938 L 42.277344 50.769531 L 34.457031 50.769531 Z M 13.902344 44.605469 C 8.5625 44.605469 5.476562 43.070312 5.332031 42.425781 L 5.332031 24.996094 C 7.53125 26.0625 10.78125 26.570312 13.902344 26.570312 C 17.019531 26.570312 20.273438 26.0625 22.46875 24.996094 L 22.472656 42.414062 C 22.328125 43.070312 19.234375 44.605469 13.902344 44.605469 Z M 22.238281 22.023438 C 21.425781 22.761719 18.507812 23.902344 13.902344 23.902344 C 9.289062 23.902344 6.363281 22.757812 5.5625 22.027344 C 6.367188 21.292969 9.289062 20.148438 13.902344 20.148438 C 18.507812 20.148438 21.425781 21.289062 22.238281 22.023438 Z M 34.457031 13.152344 L 42.277344 13.152344 L 42.277344 5.332031 L 34.457031 5.332031 Z M 50.550781 15.480469 L 49.433594 15.480469 C 48.699219 15.480469 48.101562 16.078125 48.101562 16.816406 L 48.101562 20.515625 L 43.429688 22.074219 L 39.148438 15.820312 L 43.609375 15.820312 C 44.347656 15.820312 44.945312 15.222656 44.945312 14.484375 L 44.945312 11.292969 C 46.441406 12.398438 48.523438 13.945312 50.550781 15.480469 Z M 50.769531 25.964844 L 58.585938 25.964844 L 58.585938 18.148438 L 50.769531 18.148438 Z M 44.992188 24.363281 L 48.101562 23.324219 L 48.101562 27.300781 C 48.101562 27.976562 48.609375 28.511719 49.261719 28.597656 L 48.578125 29.601562 Z M 25.136719 32.933594 L 25.136719 30.984375 L 42.363281 25.238281 L 46.960938 31.960938 L 42.363281 38.679688 Z M 32.332031 15.53125 C 32.558594 15.699219 32.824219 15.820312 33.125 15.820312 L 35.914062 15.820312 L 40.796875 22.953125 L 25.136719 28.175781 L 25.136719 22.332031 C 25.136719 22.226562 25.117188 22.125 25.105469 22.023438 C 25.117188 21.925781 25.136719 21.828125 25.136719 21.722656 L 25.066406 21.722656 C 25.050781 21.644531 25.015625 21.570312 24.992188 21.496094 Z M 33.125 48.101562 C 32.824219 48.101562 32.558594 48.21875 32.332031 48.390625 L 25.125 42.539062 C 25.125 42.5 25.136719 42.464844 25.136719 42.425781 L 25.136719 35.742188 L 40.796875 40.96875 L 35.914062 48.101562 Z M 52.46875 28.632812 L 59.921875 28.632812 C 60.65625 28.632812 61.253906 28.039062 61.253906 27.300781 L 61.253906 16.816406 C 61.253906 16.078125 60.65625 15.480469 59.921875 15.480469 L 54.925781 15.480469 C 51.429688 12.75 46.554688 9.164062 44.945312 7.984375 L 44.945312 4 C 44.945312 3.261719 44.347656 2.667969 43.609375 2.667969 L 33.125 2.667969 C 32.386719 2.667969 31.789062 3.261719 31.789062 4 L 31.789062 12.535156 L 23.238281 19.480469 C 21.082031 18.125 17.410156 17.484375 13.902344 17.484375 C 8.832031 17.484375 3.402344 18.816406 2.734375 21.722656 L 2.667969 21.722656 C 2.667969 21.828125 2.6875 21.925781 2.699219 22.023438 C 2.6875 22.125 2.667969 22.226562 2.667969 22.332031 L 2.667969 42.425781 C 2.667969 45.757812 8.492188 47.273438 13.902344 47.273438 C 17.730469 47.273438 21.753906 46.511719 23.789062 44.886719 L 31.789062 51.386719 L 31.789062 59.921875 C 31.789062 60.65625 32.386719 61.253906 33.125 61.253906 L 43.609375 61.253906 C 44.347656 61.253906 44.945312 60.65625 44.945312 59.921875 L 44.945312 55.9375 C 46.554688 54.757812 51.429688 51.171875 54.925781 48.4375 L 59.921875 48.4375 C 60.65625 48.4375 61.253906 47.84375 61.253906 47.105469 L 61.253906 36.621094 C 61.253906 35.882812 60.65625 35.285156 59.921875 35.285156 L 52.46875 35.285156 L 50.191406 31.960938 Z M 52.46875 28.632812 "/>
</svg>
