<?xml version="1.0" encoding="UTF-8"?>
<svg xmlns="http://www.w3.org/2000/svg" xmlns:xlink="http://www.w3.org/1999/xlink" width="64" height="64" viewBox="0 0 64 64">
<path fill-rule="evenodd" fill="rgb(54.901963%, 30.980393%, 100%)" fill-opacity="1" d="M 36 42.667969 L 44 42.667969 L 44 40 L 36 40 Z M 36 37.332031 L 44 37.332031 L 44 34.667969 L 36 34.667969 Z M 36 32 L 44 32 L 44 29.332031 L 36 29.332031 Z M 36 26.667969 L 44 26.667969 L 44 24 L 36 24 Z M 29.332031 42.667969 L 33.332031 42.667969 L 33.332031 40 L 29.332031 40 Z M 29.332031 37.332031 L 33.332031 37.332031 L 33.332031 34.667969 L 29.332031 34.667969 Z M 29.332031 32 L 33.332031 32 L 33.332031 29.332031 L 29.332031 29.332031 Z M 29.332031 26.667969 L 33.332031 26.667969 L 33.332031 24 L 29.332031 24 Z M 26.667969 45.332031 L 46.667969 45.332031 L 46.667969 21.332031 L 26.667969 21.332031 Z M 48 18.667969 L 25.332031 18.667969 C 24.597656 18.667969 24 19.265625 24 20 L 24 46.667969 C 24 47.402344 24.597656 48 25.332031 48 L 48 48 C 48.738281 48 49.332031 47.402344 49.332031 46.667969 L 49.332031 20 C 49.332031 19.265625 48.738281 18.667969 48 18.667969 Z M 48 56 L 50.667969 56 L 50.667969 60 C 50.667969 60.734375 50.070312 61.332031 49.332031 61.332031 L 10.667969 61.332031 C 9.929688 61.332031 9.332031 60.734375 9.332031 60 L 9.332031 9.332031 C 9.332031 8.597656 9.929688 8 10.667969 8 L 14.667969 8 L 14.667969 10.667969 L 12 10.667969 L 12 58.667969 L 48 58.667969 Z M 20 50.667969 L 20 5.332031 L 42.667969 5.332031 L 42.667969 14.667969 C 42.667969 15.402344 43.261719 16 44 16 L 53.332031 16 L 53.332031 50.667969 Z M 45.332031 7.21875 L 51.449219 13.332031 L 45.332031 13.332031 Z M 55.988281 14.667969 C 55.988281 14.320312 55.863281 13.980469 55.609375 13.722656 L 44.941406 3.058594 C 44.6875 2.800781 44.347656 2.679688 44 2.679688 L 44 2.667969 L 18.667969 2.667969 C 17.929688 2.667969 17.332031 3.265625 17.332031 4 L 17.332031 52 C 17.332031 52.738281 17.929688 53.332031 18.667969 53.332031 L 54.667969 53.332031 C 55.402344 53.332031 56 52.738281 56 52 L 56 14.667969 Z M 55.988281 14.667969 "/>
</svg>
