<?xml version="1.0" encoding="UTF-8"?>
<svg xmlns="http://www.w3.org/2000/svg" xmlns:xlink="http://www.w3.org/1999/xlink" width="64" height="64" viewBox="0 0 64 64">
<path fill-rule="evenodd" fill="rgb(54.901963%, 30.980393%, 100%)" fill-opacity="1" d="M 33.332031 36 L 36 36 L 36 26.667969 L 33.332031 26.667969 Z M 28 29.332031 L 28 22.667969 L 30.667969 22.667969 L 30.667969 36 L 28 36 Z M 22.667969 36 L 25.332031 36 L 25.332031 30.667969 L 22.667969 30.667969 Z M 37.332031 38.667969 C 38.070312 38.667969 38.667969 38.070312 38.667969 37.332031 L 38.667969 25.332031 C 38.667969 24.597656 38.070312 24 37.332031 24 L 33.332031 24 L 33.332031 21.332031 C 33.332031 20.597656 32.738281 20 32 20 L 26.667969 20 C 25.929688 20 25.332031 20.597656 25.332031 21.332031 L 25.332031 28 L 21.332031 28 C 20.597656 28 20 28.597656 20 29.332031 L 20 37.332031 C 20 38.070312 20.597656 38.667969 21.332031 38.667969 Z M 52.492188 23.015625 L 55.066406 22.316406 C 55.6875 24.59375 56 26.953125 56 29.332031 C 56 32.726562 55.371094 36.035156 54.132812 39.160156 L 51.652344 38.175781 C 52.769531 35.363281 53.332031 32.390625 53.332031 29.332031 C 53.332031 27.191406 53.050781 25.0625 52.492188 23.015625 Z M 38.175781 51.652344 L 39.15625 54.132812 C 36.03125 55.371094 32.726562 56 29.332031 56 C 20.621094 56 12.566406 51.765625 7.597656 44.773438 L 7.125 46.925781 L 4.523438 46.355469 L 5.757812 40.730469 C 5.832031 40.386719 6.042969 40.085938 6.339844 39.894531 C 6.636719 39.703125 6.996094 39.636719 7.34375 39.714844 L 12.96875 40.949219 L 12.394531 43.554688 L 9.570312 42.933594 C 14.023438 49.402344 21.375 53.332031 29.332031 53.332031 C 32.386719 53.332031 35.363281 52.769531 38.175781 51.652344 Z M 6.171875 35.648438 L 3.601562 36.351562 C 2.980469 34.074219 2.667969 31.714844 2.667969 29.332031 C 2.667969 14.628906 14.628906 2.667969 29.332031 2.667969 C 38.042969 2.667969 46.101562 6.898438 51.066406 13.890625 L 51.539062 11.738281 L 54.144531 12.3125 L 52.910156 17.933594 C 52.835938 18.28125 52.625 18.582031 52.328125 18.773438 C 52.109375 18.910156 51.863281 18.984375 51.609375 18.984375 C 51.511719 18.984375 51.417969 18.972656 51.320312 18.949219 L 45.699219 17.714844 L 46.269531 15.113281 L 49.097656 15.730469 C 44.644531 9.265625 37.292969 5.332031 29.332031 5.332031 C 16.101562 5.332031 5.332031 16.101562 5.332031 29.332031 C 5.332031 31.476562 5.617188 33.601562 6.171875 35.648438 Z M 57.695312 57.632812 C 56.4375 58.886719 54.238281 58.886719 52.984375 57.632812 L 39.988281 44.636719 C 41.824219 43.359375 43.417969 41.761719 44.691406 39.921875 L 57.695312 52.921875 C 58.992188 54.222656 58.992188 56.335938 57.695312 57.632812 Z M 13.332031 29.332031 C 13.332031 20.511719 20.511719 13.332031 29.332031 13.332031 C 38.15625 13.332031 45.332031 20.511719 45.332031 29.332031 C 45.332031 38.15625 38.15625 45.332031 29.332031 45.332031 C 20.511719 45.332031 13.332031 38.15625 13.332031 29.332031 Z M 59.578125 51.039062 L 46.074219 37.535156 C 47.296875 35.054688 48 32.277344 48 29.332031 C 48 19.039062 39.625 10.667969 29.332031 10.667969 C 19.039062 10.667969 10.667969 19.039062 10.667969 29.332031 C 10.667969 39.625 19.039062 48 29.332031 48 C 32.308594 48 35.117188 47.28125 37.617188 46.039062 L 51.097656 59.519531 C 52.226562 60.652344 53.734375 61.273438 55.339844 61.273438 C 56.941406 61.273438 58.449219 60.652344 59.578125 59.519531 C 61.917969 57.179688 61.917969 53.375 59.578125 51.039062 Z M 59.578125 51.039062 "/>
</svg>
