<?xml version="1.0" encoding="UTF-8"?>
<svg xmlns="http://www.w3.org/2000/svg" xmlns:xlink="http://www.w3.org/1999/xlink" width="64" height="64" viewBox="0 0 64 64">
<path fill-rule="evenodd" fill="rgb(54.901963%, 30.980393%, 100%)" fill-opacity="1" d="M 49.242188 35.304688 C 48.589844 35.394531 48.082031 35.929688 48.082031 36.605469 L 48.082031 40.574219 L 44.976562 39.539062 L 48.558594 34.308594 Z M 50.746094 45.75 L 58.5625 45.75 L 58.5625 37.9375 L 50.746094 37.9375 Z M 44.925781 52.601562 L 44.925781 49.410156 C 44.925781 48.675781 44.328125 48.078125 43.59375 48.078125 L 39.132812 48.078125 L 43.410156 41.828125 L 48.082031 43.386719 L 48.082031 47.085938 C 48.082031 47.820312 48.675781 48.417969 49.414062 48.417969 L 50.527344 48.417969 C 48.503906 49.953125 46.421875 51.5 44.925781 52.601562 Z M 34.445312 58.558594 L 42.257812 58.558594 L 42.257812 50.746094 L 34.445312 50.746094 Z M 5.332031 39.929688 L 21.296875 39.929688 L 21.296875 23.960938 L 5.332031 23.960938 Z M 34.445312 13.144531 L 42.257812 13.144531 L 42.257812 5.332031 L 34.445312 5.332031 Z M 50.527344 15.476562 L 49.414062 15.476562 C 48.675781 15.476562 48.082031 16.070312 48.082031 16.808594 L 48.082031 20.503906 L 43.410156 22.0625 L 39.132812 15.8125 L 43.59375 15.8125 C 44.328125 15.8125 44.925781 15.214844 44.925781 14.480469 L 44.925781 11.289062 C 46.421875 12.390625 48.503906 13.941406 50.527344 15.476562 Z M 50.746094 25.953125 L 58.5625 25.953125 L 58.5625 18.140625 L 50.746094 18.140625 Z M 44.976562 24.351562 L 48.082031 23.316406 L 48.082031 27.289062 C 48.082031 27.964844 48.589844 28.5 49.242188 28.585938 L 48.558594 29.585938 Z M 23.964844 32.535156 L 23.964844 31.355469 L 42.34375 25.226562 L 46.941406 31.945312 L 42.34375 38.664062 Z M 32.324219 15.523438 C 32.546875 15.691406 32.8125 15.8125 33.113281 15.8125 L 35.902344 15.8125 L 40.78125 22.941406 L 23.964844 28.546875 L 23.964844 22.628906 C 23.964844 22.535156 23.929688 22.449219 23.910156 22.363281 Z M 33.113281 48.078125 C 32.8125 48.078125 32.546875 48.199219 32.324219 48.367188 L 23.910156 41.527344 C 23.929688 41.441406 23.964844 41.355469 23.964844 41.261719 L 23.964844 35.34375 L 40.78125 40.949219 L 35.902344 48.078125 Z M 52.445312 28.621094 L 59.894531 28.621094 C 60.632812 28.621094 61.226562 28.023438 61.226562 27.289062 L 61.226562 16.808594 C 61.226562 16.070312 60.632812 15.476562 59.894531 15.476562 L 54.902344 15.476562 C 51.410156 12.742188 46.535156 9.160156 44.925781 7.980469 L 44.925781 4 C 44.925781 3.261719 44.328125 2.667969 43.59375 2.667969 L 33.113281 2.667969 C 32.375 2.667969 31.777344 3.261719 31.777344 4 L 31.777344 12.527344 L 20.992188 21.296875 L 4 21.296875 C 3.265625 21.296875 2.667969 21.890625 2.667969 22.628906 L 2.667969 41.261719 C 2.667969 42 3.265625 42.59375 4 42.59375 L 20.992188 42.59375 L 31.777344 51.363281 L 31.777344 59.890625 C 31.777344 60.628906 32.375 61.226562 33.113281 61.226562 L 43.59375 61.226562 C 44.328125 61.226562 44.925781 60.628906 44.925781 59.890625 L 44.925781 55.910156 C 46.535156 54.730469 51.40625 51.148438 54.902344 48.417969 L 59.894531 48.417969 C 60.632812 48.417969 61.226562 47.820312 61.226562 47.085938 L 61.226562 36.605469 C 61.226562 35.867188 60.632812 35.269531 59.894531 35.269531 L 52.445312 35.269531 L 50.171875 31.945312 Z M 52.445312 28.621094 "/>
</svg>
