<?xml version="1.0" encoding="UTF-8"?>
<svg xmlns="http://www.w3.org/2000/svg" xmlns:xlink="http://www.w3.org/1999/xlink" width="64" height="64" viewBox="0 0 64 64">
<path fill-rule="evenodd" fill="rgb(54.901963%, 30.980393%, 100%)" fill-opacity="1" d="M 53.332031 22.667969 L 58.667969 22.667969 L 58.667969 17.332031 L 53.332031 17.332031 Z M 34.757812 23.84375 L 40.492188 13.332031 L 44 13.332031 C 44.175781 13.332031 44.34375 13.292969 44.496094 13.234375 L 50.667969 17.867188 L 50.667969 19.601562 Z M 49.101562 37.378906 L 49.070312 37.378906 C 49.070312 39.882812 42.058594 42.667969 32 42.667969 C 22.570312 42.667969 15.929688 40.320312 14.761719 38.03125 C 15.023438 35.273438 21.410156 32.292969 30.667969 32.027344 L 30.667969 38.667969 L 33.332031 38.667969 L 33.332031 32.027344 C 41.882812 32.273438 47.988281 34.820312 49.101562 37.378906 Z M 32 58.667969 C 21.351562 58.667969 14.761719 55.726562 14.761719 53 L 14.761719 52.996094 L 14.742188 41.6875 C 18.503906 44.179688 25.429688 45.332031 32 45.332031 C 38.863281 45.332031 45.773438 43.992188 49.3125 41.398438 L 49.332031 53 C 49.332031 55.726562 42.707031 58.667969 32 58.667969 Z M 13.332031 17.734375 L 19.609375 13.253906 C 19.734375 13.292969 19.863281 13.332031 20 13.332031 L 23.707031 13.332031 L 29.441406 23.84375 L 13.332031 19.550781 Z M 5.332031 22.667969 L 10.667969 22.667969 L 10.667969 17.332031 L 5.332031 17.332031 Z M 21.332031 5.332031 L 26.667969 5.332031 L 26.667969 10.667969 L 25.292969 10.667969 L 25.269531 10.628906 L 25.199219 10.667969 L 21.332031 10.667969 Z M 29.332031 12 L 29.332031 9.332031 L 34.667969 9.332031 L 34.667969 12 C 34.667969 12.734375 35.261719 13.332031 36 13.332031 L 37.453125 13.332031 L 32.101562 23.148438 L 26.746094 13.332031 L 28 13.332031 C 28.738281 13.332031 29.332031 12.734375 29.332031 12 Z M 37.332031 5.332031 L 42.667969 5.332031 L 42.667969 10.667969 L 39 10.667969 L 38.929688 10.628906 L 38.910156 10.667969 L 37.332031 10.667969 Z M 60 14.667969 L 52 14.667969 C 51.703125 14.667969 51.441406 14.78125 51.21875 14.949219 L 45.332031 10.527344 L 45.332031 4 C 45.332031 3.265625 44.738281 2.667969 44 2.667969 L 36 2.667969 C 35.261719 2.667969 34.667969 3.265625 34.667969 4 L 34.667969 6.667969 L 29.332031 6.667969 L 29.332031 4 C 29.332031 3.265625 28.738281 2.667969 28 2.667969 L 20 2.667969 C 19.261719 2.667969 18.667969 3.265625 18.667969 4 L 18.667969 10.652344 L 12.710938 14.902344 C 12.503906 14.765625 12.269531 14.667969 12 14.667969 L 4 14.667969 C 3.261719 14.667969 2.667969 15.265625 2.667969 16 L 2.667969 24 C 2.667969 24.734375 3.261719 25.332031 4 25.332031 L 12 25.332031 C 12.738281 25.332031 13.332031 24.734375 13.332031 24 L 13.332031 22.308594 L 30.667969 26.933594 L 30.667969 29.363281 C 19.976562 29.648438 12.066406 33.347656 12.066406 38.210938 L 12.066406 38.421875 L 12.050781 38.425781 C 12.054688 38.445312 12.0625 38.457031 12.066406 38.472656 L 12.097656 53.003906 C 12.097656 57.984375 20.097656 61.332031 32 61.332031 C 41.953125 61.332031 52 58.757812 52 52.996094 L 51.972656 38.207031 C 51.972656 33.347656 44.046875 29.648438 33.332031 29.363281 L 33.332031 26.984375 L 50.667969 22.363281 L 50.667969 24 C 50.667969 24.734375 51.261719 25.332031 52 25.332031 L 60 25.332031 C 60.738281 25.332031 61.332031 24.734375 61.332031 24 L 61.332031 16 C 61.332031 15.265625 60.738281 14.667969 60 14.667969 Z M 38.835938 55.78125 C 38.210938 55.78125 37.617188 55.628906 37.046875 55.324219 L 37.046875 54.390625 C 37.71875 54.667969 38.296875 54.808594 38.777344 54.808594 C 39.238281 54.808594 39.597656 54.671875 39.84375 54.394531 C 40.09375 54.121094 40.214844 53.730469 40.214844 53.226562 C 40.214844 52.746094 40.097656 52.378906 39.863281 52.121094 C 39.625 51.867188 39.28125 51.738281 38.824219 51.738281 C 38.585938 51.738281 38.296875 51.757812 37.960938 51.796875 L 37.960938 51.03125 L 39.941406 48.269531 L 37.144531 48.269531 L 37.144531 47.308594 L 41.078125 47.308594 L 41.078125 48.199219 L 39.171875 50.847656 C 39.835938 50.855469 40.367188 51.074219 40.761719 51.503906 C 41.15625 51.933594 41.355469 52.503906 41.355469 53.226562 C 41.355469 54.015625 41.132812 54.640625 40.683594 55.097656 C 40.234375 55.554688 39.621094 55.78125 38.835938 55.78125 Z M 31.097656 52.492188 L 33.160156 52.492188 L 32.128906 48.425781 Z M 33.964844 55.625 L 33.390625 53.382812 L 30.878906 53.382812 L 30.316406 55.625 L 29.128906 55.625 L 31.527344 47.308594 L 32.789062 47.308594 L 35.1875 55.625 Z M 23.585938 51.339844 L 24.773438 51.339844 C 25.164062 51.339844 25.46875 51.207031 25.679688 50.933594 C 25.890625 50.660156 25.996094 50.273438 25.996094 49.769531 C 25.996094 49.273438 25.894531 48.894531 25.683594 48.628906 C 25.476562 48.367188 25.183594 48.234375 24.808594 48.234375 L 23.585938 48.234375 Z M 22.46875 55.625 L 22.46875 47.308594 L 24.929688 47.308594 C 25.601562 47.308594 26.140625 47.53125 26.550781 47.96875 C 26.957031 48.410156 27.160156 49.003906 27.160156 49.757812 C 27.160156 50.300781 27.035156 50.773438 26.789062 51.167969 C 26.539062 51.5625 26.1875 51.855469 25.734375 52.050781 L 27.570312 55.625 L 26.320312 55.625 L 24.652344 52.265625 L 23.585938 52.265625 L 23.585938 55.625 Z M 22.46875 55.625 "/>
</svg>
