<?xml version="1.0" encoding="UTF-8"?>
<svg xmlns="http://www.w3.org/2000/svg" xmlns:xlink="http://www.w3.org/1999/xlink" width="64" height="64" viewBox="0 0 64 64">
<path fill-rule="evenodd" fill="rgb(54.901963%, 30.980393%, 100%)" fill-opacity="1" d="M 45.332031 58.667969 C 43.023438 58.667969 40.949219 57.183594 39.488281 54.832031 L 45.332031 50.9375 L 51.179688 54.832031 C 49.71875 57.183594 47.640625 58.667969 45.332031 58.667969 Z M 44 37.429688 L 44 48.621094 L 38.3125 52.414062 C 37.6875 50.703125 37.332031 48.746094 37.332031 46.667969 C 37.332031 41.277344 39.746094 37.988281 44 37.429688 Z M 45.332031 32 C 46.535156 32 47.570312 33.273438 47.890625 34.945312 C 47.042969 34.761719 46.183594 34.667969 45.332031 34.667969 C 44.480469 34.667969 43.621094 34.761719 42.777344 34.945312 C 43.097656 33.273438 44.132812 32 45.332031 32 Z M 53.332031 46.667969 C 53.332031 48.746094 52.976562 50.703125 52.355469 52.414062 L 46.667969 48.621094 L 46.667969 37.429688 C 50.921875 37.988281 53.332031 41.277344 53.332031 46.667969 Z M 61.332031 40 L 58.667969 40 C 58.667969 42.554688 57.132812 43.96875 55.890625 44.699219 C 55.648438 42.375 54.984375 40.507812 54.027344 39.058594 C 55.460938 38.023438 57.332031 35.921875 57.332031 32 L 54.667969 32 C 54.667969 35.042969 53.152344 36.460938 52.238281 37.046875 C 51.742188 36.628906 51.21875 36.269531 50.664062 35.96875 C 50.660156 34.621094 50.332031 33.367188 49.773438 32.316406 C 50.441406 31.679688 51.230469 30.652344 51.664062 29.136719 C 52.640625 28.738281 53.332031 27.785156 53.332031 26.667969 C 53.332031 25.199219 52.136719 24 50.667969 24 C 49.195312 24 48 25.199219 48 26.667969 C 48 27.5 48.390625 28.234375 48.988281 28.722656 C 48.726562 29.445312 48.363281 29.957031 48.039062 30.289062 C 47.246094 29.695312 46.324219 29.332031 45.332031 29.332031 C 44.339844 29.332031 43.421875 29.695312 42.625 30.289062 C 42.304688 29.957031 41.9375 29.445312 41.675781 28.722656 C 42.277344 28.234375 42.667969 27.5 42.667969 26.667969 C 42.667969 25.199219 41.46875 24 40 24 C 38.53125 24 37.332031 25.199219 37.332031 26.667969 C 37.332031 27.785156 38.023438 28.738281 39 29.136719 C 39.4375 30.652344 40.222656 31.679688 40.894531 32.316406 C 40.335938 33.367188 40.007812 34.621094 40.003906 35.96875 C 39.445312 36.269531 38.917969 36.632812 38.417969 37.054688 C 37.511719 36.46875 36 35.042969 36 32 L 33.332031 32 C 33.332031 35.921875 35.203125 38.023438 36.636719 39.058594 C 35.683594 40.507812 35.019531 42.375 34.777344 44.699219 C 33.535156 43.96875 32 42.554688 32 40 L 29.332031 40 C 29.332031 44.367188 32.441406 46.726562 34.703125 47.636719 C 34.777344 49.207031 35.027344 50.707031 35.433594 52.105469 C 33.988281 52.496094 29.332031 54.023438 29.332031 57.332031 L 32 57.332031 C 32 56.292969 34.558594 55.074219 36.324219 54.628906 L 36.242188 54.300781 C 38.117188 58.511719 41.488281 61.332031 45.332031 61.332031 C 49.179688 61.332031 52.546875 58.511719 54.425781 54.300781 L 54.34375 54.628906 C 56.109375 55.074219 58.667969 56.292969 58.667969 57.332031 L 61.332031 57.332031 C 61.332031 54.023438 56.679688 52.496094 55.230469 52.105469 C 55.636719 50.707031 55.890625 49.207031 55.964844 47.636719 C 58.222656 46.726562 61.332031 44.367188 61.332031 40 Z M 22.667969 20 L 58.667969 20 L 58.667969 13.332031 L 22.667969 13.332031 Z M 12 30.667969 L 20 30.667969 L 20 22.667969 L 12 22.667969 Z M 12 40 L 20 40 L 20 33.332031 L 12 33.332031 Z M 5.332031 40 L 9.332031 40 L 9.332031 13.332031 L 5.332031 13.332031 Z M 5.332031 10.667969 L 9.332031 10.667969 L 9.332031 5.332031 L 5.332031 5.332031 Z M 12 20 L 20 20 L 20 13.332031 L 12 13.332031 Z M 12 10.667969 L 58.667969 10.667969 L 58.667969 5.332031 L 12 5.332031 Z M 60 2.667969 L 4 2.667969 C 3.261719 2.667969 2.667969 3.261719 2.667969 4 L 2.667969 41.332031 C 2.667969 42.070312 3.261719 42.667969 4 42.667969 L 26.667969 42.667969 L 26.667969 40 L 22.667969 40 L 22.667969 33.332031 L 29.332031 33.332031 L 29.332031 30.667969 L 22.667969 30.667969 L 22.667969 22.667969 L 58.667969 22.667969 L 58.667969 28 L 61.332031 28 L 61.332031 4 C 61.332031 3.261719 60.738281 2.667969 60 2.667969 Z M 60 2.667969 "/>
</svg>
