<?xml version="1.0" encoding="UTF-8"?>
<svg xmlns="http://www.w3.org/2000/svg" xmlns:xlink="http://www.w3.org/1999/xlink" width="64" height="64" viewBox="0 0 64 64">
<path fill-rule="evenodd" fill="rgb(54.901963%, 30.980393%, 100%)" fill-opacity="1" d="M 54.667969 58.667969 C 52.460938 58.667969 50.667969 56.871094 50.667969 54.667969 C 50.667969 52.460938 52.460938 50.667969 54.667969 50.667969 C 56.871094 50.667969 58.667969 52.460938 58.667969 54.667969 C 58.667969 56.871094 56.871094 58.667969 54.667969 58.667969 Z M 37.476562 41.476562 L 36.0625 39.890625 C 35.625 39.402344 34.902344 39.304688 34.355469 39.652344 C 32.730469 40.675781 30.953125 41.414062 29.078125 41.835938 C 28.441406 41.980469 28.003906 42.5625 28.039062 43.214844 L 28.160156 45.332031 L 22.503906 45.332031 L 22.625 43.210938 C 22.664062 42.558594 22.226562 41.980469 21.589844 41.835938 C 19.71875 41.414062 17.945312 40.675781 16.316406 39.648438 C 15.761719 39.296875 15.039062 39.398438 14.609375 39.886719 L 13.191406 41.476562 L 9.191406 37.476562 L 10.78125 36.058594 C 11.265625 35.625 11.367188 34.902344 11.019531 34.351562 C 9.992188 32.726562 9.257812 30.953125 8.835938 29.078125 C 8.691406 28.441406 8.101562 28.007812 7.460938 28.039062 L 5.332031 28.160156 L 5.332031 22.503906 L 7.46875 22.625 C 8.066406 22.660156 8.699219 22.226562 8.84375 21.589844 C 9.265625 19.722656 10.003906 17.949219 11.03125 16.324219 C 11.378906 15.773438 11.277344 15.050781 10.789062 14.617188 L 9.191406 13.191406 L 13.191406 9.191406 L 14.617188 10.789062 C 15.050781 11.277344 15.773438 11.375 16.324219 11.03125 C 17.949219 10.003906 19.71875 9.273438 21.589844 8.847656 C 22.226562 8.707031 22.664062 8.125 22.625 7.472656 L 22.503906 5.332031 L 28.160156 5.332031 L 28.039062 7.476562 C 28.003906 8.125 28.441406 8.707031 29.078125 8.851562 C 30.945312 9.273438 32.71875 10.007812 34.339844 11.03125 C 34.890625 11.378906 35.609375 11.277344 36.046875 10.792969 L 37.476562 9.191406 L 41.476562 13.191406 L 39.878906 14.613281 C 39.394531 15.050781 39.292969 15.773438 39.636719 16.324219 C 40.667969 17.945312 41.402344 19.71875 41.824219 21.589844 C 41.96875 22.226562 42.582031 22.660156 43.199219 22.625 L 45.332031 22.503906 L 45.332031 28.160156 L 43.203125 28.039062 C 42.582031 28.007812 41.96875 28.441406 41.828125 29.078125 C 41.40625 30.949219 40.667969 32.722656 39.644531 34.347656 C 39.296875 34.898438 39.398438 35.621094 39.882812 36.054688 L 41.476562 37.476562 Z M 28 56 C 28 57.46875 26.804688 58.667969 25.332031 58.667969 C 23.863281 58.667969 22.667969 57.46875 22.667969 56 C 22.667969 54.53125 23.863281 53.332031 25.332031 53.332031 C 26.804688 53.332031 28 54.53125 28 56 Z M 56 22.667969 C 57.46875 22.667969 58.667969 23.863281 58.667969 25.332031 C 58.667969 26.804688 57.46875 28 56 28 C 54.53125 28 53.332031 26.804688 53.332031 25.332031 C 53.332031 23.863281 54.53125 22.667969 56 22.667969 Z M 54.667969 48 C 53.425781 48 52.273438 48.363281 51.277344 48.957031 L 42.519531 40.203125 L 44.359375 38.363281 C 44.617188 38.105469 44.761719 37.75 44.75 37.382812 C 44.738281 37.015625 44.578125 36.667969 44.304688 36.425781 L 42.476562 34.796875 C 43.183594 33.515625 43.742188 32.167969 44.144531 30.765625 L 46.589844 30.90625 C 46.949219 30.925781 47.316406 30.792969 47.582031 30.542969 C 47.847656 30.289062 48 29.941406 48 29.574219 L 48 26.667969 L 50.855469 26.667969 C 51.453125 28.960938 53.519531 30.667969 56 30.667969 C 58.941406 30.667969 61.332031 28.273438 61.332031 25.332031 C 61.332031 22.390625 58.941406 20 56 20 C 53.519531 20 51.453125 21.707031 50.855469 24 L 48 24 L 48 21.09375 C 48 20.726562 47.847656 20.375 47.582031 20.125 C 47.316406 19.871094 46.953125 19.738281 46.589844 19.761719 L 44.144531 19.902344 C 43.738281 18.5 43.179688 17.152344 42.472656 15.875 L 44.304688 14.242188 C 44.578125 13.996094 44.738281 13.652344 44.75 13.285156 C 44.761719 12.917969 44.617188 12.5625 44.359375 12.304688 L 38.363281 6.308594 C 38.105469 6.046875 37.746094 5.90625 37.382812 5.917969 C 37.015625 5.929688 36.671875 6.089844 36.425781 6.363281 L 34.785156 8.199219 C 33.511719 7.496094 32.164062 6.9375 30.765625 6.535156 L 30.902344 4.074219 C 30.925781 3.710938 30.792969 3.351562 30.542969 3.085938 C 30.289062 2.816406 29.941406 2.667969 29.574219 2.667969 L 21.09375 2.667969 C 20.726562 2.667969 20.375 2.816406 20.125 3.085938 C 19.871094 3.351562 19.742188 3.710938 19.761719 4.074219 L 19.902344 6.53125 C 18.5 6.933594 17.15625 7.492188 15.878906 8.195312 L 14.242188 6.363281 C 13.996094 6.089844 13.652344 5.929688 13.285156 5.917969 C 12.925781 5.910156 12.5625 6.046875 12.304688 6.308594 L 6.308594 12.304688 C 6.046875 12.5625 5.90625 12.917969 5.914062 13.285156 C 5.925781 13.652344 6.089844 13.996094 6.363281 14.242188 L 8.195312 15.878906 C 7.488281 17.15625 6.929688 18.5 6.527344 19.902344 L 4.074219 19.761719 C 3.707031 19.738281 3.351562 19.871094 3.085938 20.125 C 2.816406 20.375 2.667969 20.726562 2.667969 21.09375 L 2.667969 29.574219 C 2.667969 29.941406 2.816406 30.289062 3.085938 30.542969 C 3.351562 30.792969 3.691406 30.925781 4.078125 30.90625 L 6.515625 30.765625 C 6.921875 32.167969 7.480469 33.519531 8.1875 34.796875 L 6.363281 36.425781 C 6.089844 36.667969 5.925781 37.015625 5.914062 37.382812 C 5.90625 37.75 6.046875 38.105469 6.308594 38.363281 L 12.304688 44.359375 C 12.5625 44.617188 12.921875 44.765625 13.285156 44.75 C 13.652344 44.738281 13.996094 44.578125 14.242188 44.304688 L 15.867188 42.480469 C 17.148438 43.1875 18.5 43.75 19.902344 44.152344 L 19.761719 46.589844 C 19.742188 46.957031 19.871094 47.316406 20.125 47.582031 C 20.375 47.847656 20.726562 48 21.09375 48 L 24 48 L 24 50.855469 C 21.707031 51.453125 20 53.523438 20 56 C 20 58.941406 22.390625 61.332031 25.332031 61.332031 C 28.273438 61.332031 30.667969 58.941406 30.667969 56 C 30.667969 53.523438 28.960938 51.453125 26.667969 50.855469 L 26.667969 48 L 29.574219 48 C 29.941406 48 30.289062 47.847656 30.542969 47.582031 C 30.792969 47.316406 30.925781 46.957031 30.902344 46.589844 L 30.765625 44.15625 C 32.171875 43.75 33.523438 43.191406 34.800781 42.484375 L 36.425781 44.304688 C 36.667969 44.578125 37.015625 44.738281 37.382812 44.75 C 37.75 44.769531 38.105469 44.617188 38.363281 44.359375 L 40.632812 42.089844 L 49.296875 50.75 C 48.492188 51.851562 48 53.199219 48 54.667969 C 48 58.34375 50.992188 61.332031 54.667969 61.332031 C 58.34375 61.332031 61.332031 58.34375 61.332031 54.667969 C 61.332031 50.992188 58.34375 48 54.667969 48 Z M 26.667969 24 L 30.667969 24 L 30.667969 26.667969 L 26.667969 26.667969 L 26.667969 30.667969 L 24 30.667969 L 24 26.667969 L 20 26.667969 L 20 24 L 24 24 L 24 20 L 26.667969 20 Z M 25.332031 33.332031 C 20.921875 33.332031 17.332031 29.746094 17.332031 25.332031 C 17.332031 20.921875 20.921875 17.332031 25.332031 17.332031 C 29.746094 17.332031 33.332031 20.921875 33.332031 25.332031 C 33.332031 29.746094 29.746094 33.332031 25.332031 33.332031 Z M 25.332031 14.667969 C 19.453125 14.667969 14.667969 19.453125 14.667969 25.332031 C 14.667969 31.214844 19.453125 36 25.332031 36 C 31.214844 36 36 31.214844 36 25.332031 C 36 19.453125 31.214844 14.667969 25.332031 14.667969 Z M 25.332031 14.667969 "/>
</svg>
