<?xml version="1.0" encoding="UTF-8"?>
<svg xmlns="http://www.w3.org/2000/svg" xmlns:xlink="http://www.w3.org/1999/xlink" width="64" height="64" viewBox="0 0 64 64">
<path fill-rule="evenodd" fill="rgb(54.901963%, 30.980393%, 100%)" fill-opacity="1" d="M 38.714844 51.171875 L 40.175781 52.539062 L 31.996094 61.332031 L 23.820312 52.539062 L 25.285156 51.171875 L 30.667969 56.964844 L 30.667969 36.136719 L 10.613281 25.847656 L 13.308594 33.277344 L 11.425781 33.957031 L 7.335938 22.664062 L 18.894531 19.40625 L 19.4375 21.332031 L 11.828125 23.476562 L 32 33.824219 L 52.167969 23.476562 L 44.5625 21.332031 L 45.105469 19.40625 L 56.667969 22.667969 L 52.574219 33.960938 L 50.691406 33.28125 L 53.386719 25.847656 L 33.332031 36.136719 L 33.332031 56.960938 Z M 55.332031 50.667969 C 53.496094 50.667969 52 49.171875 52 47.332031 C 52 45.496094 53.496094 44 55.332031 44 C 57.171875 44 58.667969 45.496094 58.667969 47.332031 C 58.667969 49.171875 57.171875 50.667969 55.332031 50.667969 Z M 55.332031 41.332031 C 54.644531 41.332031 53.996094 41.472656 53.378906 41.6875 L 47.296875 31.960938 L 45.039062 33.375 L 51.105469 43.082031 C 50.316406 43.867188 49.753906 44.871094 49.496094 45.992188 L 36 45.992188 L 36 48.660156 L 49.492188 48.660156 C 50.097656 51.332031 52.480469 53.332031 55.332031 53.332031 C 58.640625 53.332031 61.332031 50.640625 61.332031 47.332031 C 61.332031 44.023438 58.640625 41.332031 55.332031 41.332031 Z M 8.667969 50.667969 C 6.828125 50.667969 5.332031 49.171875 5.332031 47.332031 C 5.332031 45.496094 6.828125 44 8.667969 44 C 10.503906 44 12 45.496094 12 47.332031 C 12 49.171875 10.503906 50.667969 8.667969 50.667969 Z M 28 48.660156 L 28 45.992188 L 14.503906 45.992188 C 14.246094 44.871094 13.683594 43.867188 12.894531 43.082031 L 18.960938 33.375 L 16.703125 31.960938 L 10.621094 41.6875 C 10.003906 41.472656 9.351562 41.332031 8.667969 41.332031 C 5.355469 41.332031 2.667969 44.023438 2.667969 47.332031 C 2.667969 50.640625 5.355469 53.332031 8.667969 53.332031 C 11.519531 53.332031 13.902344 51.332031 14.507812 48.660156 Z M 32 6.667969 C 33.839844 6.667969 35.332031 8.164062 35.332031 10 C 35.332031 11.839844 33.839844 13.332031 32 13.332031 C 30.160156 13.332031 28.667969 11.839844 28.667969 10 C 28.667969 8.164062 30.160156 6.667969 32 6.667969 Z M 23.269531 26.484375 L 30.046875 15.648438 C 30.664062 15.859375 31.3125 16 32 16 C 32.6875 16 33.335938 15.859375 33.953125 15.644531 L 40.730469 26.484375 L 42.988281 25.070312 L 36.226562 14.253906 C 37.320312 13.164062 38 11.660156 38 10 C 38 6.691406 35.308594 4 32 4 C 28.691406 4 26 6.691406 26 10 C 26 11.660156 26.679688 13.164062 27.773438 14.253906 L 21.011719 25.070312 Z M 23.269531 26.484375 "/>
</svg>
