<?xml version="1.0" encoding="UTF-8"?>
<svg xmlns="http://www.w3.org/2000/svg" xmlns:xlink="http://www.w3.org/1999/xlink" width="64" height="64" viewBox="0 0 64 64">
<path fill-rule="evenodd" fill="rgb(54.901963%, 30.980393%, 100%)" fill-opacity="1" d="M 5.332031 53.332031 L 16 53.332031 L 16 42.667969 L 5.332031 42.667969 Z M 17.332031 40 C 18.070312 40 18.667969 40.597656 18.667969 41.332031 L 18.667969 54.667969 C 18.667969 55.402344 18.070312 56 17.332031 56 L 4 56 C 3.261719 56 2.667969 55.402344 2.667969 54.667969 L 2.667969 41.332031 C 2.667969 40.597656 3.261719 40 4 40 Z M 14.667969 34.667969 L 24 34.667969 L 24 25.332031 L 14.667969 25.332031 Z M 13.332031 37.332031 C 12.597656 37.332031 12 36.734375 12 36 L 12 24 C 12 23.265625 12.597656 22.667969 13.332031 22.667969 L 25.332031 22.667969 C 26.070312 22.667969 26.667969 23.265625 26.667969 24 L 26.667969 36 C 26.667969 36.734375 26.070312 37.332031 25.332031 37.332031 Z M 5.332031 17.332031 L 12 17.332031 L 12 10.667969 L 5.332031 10.667969 Z M 2.667969 18.667969 L 2.667969 9.332031 C 2.667969 8.597656 3.261719 8 4 8 L 13.332031 8 C 14.070312 8 14.667969 8.597656 14.667969 9.332031 L 14.667969 18.667969 C 14.667969 19.402344 14.070312 20 13.332031 20 L 4 20 C 3.261719 20 2.667969 19.402344 2.667969 18.667969 Z M 36.183594 10.675781 L 36.265625 10.800781 C 38.992188 14.890625 43.554688 17.332031 48.46875 17.332031 L 54.113281 17.332031 L 51.058594 20.390625 L 52.941406 22.277344 L 58.277344 16.941406 C 58.796875 16.421875 58.796875 15.578125 58.277344 15.058594 L 52.941406 9.722656 L 51.058594 11.609375 L 54.113281 14.667969 L 48.46875 14.667969 C 44.445312 14.667969 40.714844 12.667969 38.484375 9.324219 L 38.402344 9.199219 C 35.675781 5.109375 31.113281 2.667969 26.199219 2.667969 L 2.667969 2.667969 L 2.667969 5.332031 L 26.199219 5.332031 C 30.21875 5.332031 33.953125 7.332031 36.183594 10.675781 Z M 54.667969 28 C 52.460938 28 50.667969 29.792969 50.667969 32 C 50.667969 34.207031 52.460938 36 54.667969 36 C 56.871094 36 58.667969 34.207031 58.667969 32 C 58.667969 29.792969 56.871094 28 54.667969 28 Z M 54.667969 25.332031 C 58.34375 25.332031 61.332031 28.324219 61.332031 32 C 61.332031 35.675781 58.34375 38.667969 54.667969 38.667969 C 50.992188 38.667969 48 35.675781 48 32 C 48 28.324219 50.992188 25.332031 54.667969 25.332031 Z M 30.667969 33.332031 L 39.449219 33.332031 L 36.390625 36.390625 L 38.277344 38.277344 L 43.609375 32.941406 C 44.128906 32.421875 44.128906 31.578125 43.609375 31.058594 L 38.277344 25.722656 L 36.390625 27.609375 L 39.449219 30.667969 L 30.667969 30.667969 Z M 58.277344 47.058594 C 58.796875 47.578125 58.796875 48.421875 58.277344 48.941406 L 52.941406 54.277344 L 51.058594 52.390625 L 54.113281 49.332031 L 48.46875 49.332031 C 44.445312 49.332031 40.714844 51.332031 38.484375 54.675781 L 38.402344 54.800781 C 35.675781 58.890625 31.113281 61.332031 26.199219 61.332031 L 2.667969 61.332031 L 2.667969 58.667969 L 26.199219 58.667969 C 30.21875 58.667969 33.953125 56.667969 36.183594 53.324219 L 36.265625 53.199219 C 38.992188 49.109375 43.554688 46.667969 48.46875 46.667969 L 54.113281 46.667969 L 51.058594 43.609375 L 52.941406 41.722656 Z M 58.277344 47.058594 "/>
</svg>
