<?xml version="1.0" encoding="UTF-8"?>
<svg xmlns="http://www.w3.org/2000/svg" xmlns:xlink="http://www.w3.org/1999/xlink" width="64" height="64" viewBox="0 0 64 64">
<path fill-rule="evenodd" fill="rgb(54.901963%, 30.980393%, 100%)" fill-opacity="1" d="M 49.15625 44 C 49.15625 41.28125 46.945312 39.070312 44.230469 39.070312 C 41.511719 39.070312 39.300781 41.28125 39.300781 44 C 39.300781 46.71875 41.511719 48.929688 44.230469 48.929688 C 46.945312 48.929688 49.15625 46.71875 49.15625 44 Z M 51.824219 44 C 51.824219 48.1875 48.414062 51.59375 44.230469 51.59375 C 40.042969 51.59375 36.632812 48.1875 36.632812 44 C 36.632812 39.8125 40.042969 36.40625 44.230469 36.40625 C 48.414062 36.40625 51.824219 39.8125 51.824219 44 Z M 58.894531 42.230469 L 57.648438 42.300781 C 57.035156 42.332031 56.414062 41.902344 56.273438 41.265625 C 55.960938 39.898438 55.425781 38.605469 54.675781 37.421875 C 54.328125 36.867188 54.429688 36.148438 54.914062 35.714844 L 55.851562 34.878906 L 53.347656 32.378906 L 52.511719 33.316406 C 52.074219 33.804688 51.351562 33.902344 50.804688 33.554688 C 49.621094 32.808594 48.328125 32.273438 46.960938 31.964844 C 46.328125 31.820312 45.890625 31.238281 45.925781 30.589844 L 45.996094 29.332031 L 42.460938 29.332031 L 42.53125 30.585938 C 42.570312 31.238281 42.128906 31.820312 41.496094 31.960938 C 40.128906 32.273438 38.832031 32.808594 37.652344 33.554688 C 37.097656 33.902344 36.375 33.800781 35.945312 33.316406 L 35.109375 32.378906 L 32.609375 34.878906 L 33.542969 35.714844 C 34.03125 36.148438 34.132812 36.871094 33.785156 37.421875 C 33.035156 38.609375 32.496094 39.902344 32.1875 41.265625 C 32.042969 41.902344 31.414062 42.332031 30.8125 42.300781 L 29.5625 42.230469 L 29.5625 45.769531 L 30.808594 45.699219 C 31.425781 45.671875 32.042969 46.101562 32.183594 46.738281 C 32.488281 48.101562 33.023438 49.394531 33.777344 50.585938 C 34.125 51.136719 34.019531 51.859375 33.535156 52.292969 L 32.609375 53.121094 L 35.109375 55.621094 L 35.9375 54.691406 C 36.371094 54.203125 37.09375 54.105469 37.644531 54.453125 C 38.832031 55.207031 40.128906 55.742188 41.496094 56.050781 C 42.128906 56.195312 42.570312 56.777344 42.53125 57.429688 L 42.460938 58.667969 L 45.996094 58.667969 L 45.925781 57.429688 C 45.890625 56.777344 46.328125 56.195312 46.960938 56.054688 C 48.335938 55.742188 49.628906 55.207031 50.816406 54.457031 C 51.367188 54.109375 52.089844 54.207031 52.523438 54.695312 L 53.351562 55.621094 L 55.851562 53.121094 L 54.921875 52.289062 C 54.433594 51.855469 54.332031 51.136719 54.679688 50.585938 C 55.429688 49.394531 55.964844 48.097656 56.273438 46.734375 C 56.414062 46.101562 57.015625 45.671875 57.648438 45.699219 L 58.894531 45.769531 Z M 61.144531 39.851562 C 61.410156 40.101562 61.5625 40.453125 61.5625 40.820312 L 61.5625 47.179688 C 61.5625 47.546875 61.410156 47.898438 61.144531 48.148438 C 60.878906 48.398438 60.515625 48.53125 60.152344 48.511719 L 58.582031 48.421875 C 58.308594 49.320312 57.949219 50.1875 57.507812 51.023438 L 58.679688 52.070312 C 58.953125 52.316406 59.113281 52.660156 59.125 53.027344 C 59.132812 53.394531 58.992188 53.75 58.734375 54.007812 L 54.238281 58.503906 C 53.976562 58.765625 53.59375 58.910156 53.257812 58.894531 C 52.890625 58.886719 52.542969 58.722656 52.296875 58.449219 L 51.257812 57.28125 C 50.425781 57.722656 49.554688 58.085938 48.652344 58.363281 L 48.738281 59.921875 C 48.761719 60.289062 48.628906 60.648438 48.378906 60.914062 C 48.125 61.179688 47.777344 61.332031 47.40625 61.332031 L 41.050781 61.332031 C 40.683594 61.332031 40.332031 61.179688 40.078125 60.914062 C 39.828125 60.648438 39.699219 60.289062 39.71875 59.921875 L 39.808594 58.359375 C 38.90625 58.082031 38.039062 57.722656 37.203125 57.277344 L 36.160156 58.449219 C 35.914062 58.722656 35.570312 58.886719 35.203125 58.894531 C 34.839844 58.90625 34.480469 58.765625 34.222656 58.503906 L 29.722656 54.007812 C 29.464844 53.75 29.324219 53.394531 29.332031 53.027344 C 29.34375 52.660156 29.503906 52.3125 29.78125 52.070312 L 30.949219 51.023438 C 30.507812 50.191406 30.148438 49.320312 29.875 48.421875 L 28.304688 48.511719 C 27.945312 48.53125 27.578125 48.398438 27.3125 48.148438 C 27.046875 47.898438 26.894531 47.546875 26.894531 47.179688 L 26.894531 40.820312 C 26.894531 40.453125 27.046875 40.101562 27.3125 39.851562 C 27.578125 39.597656 27.945312 39.472656 28.304688 39.488281 L 29.878906 39.578125 C 30.15625 38.679688 30.515625 37.8125 30.957031 36.980469 L 29.78125 35.929688 C 29.503906 35.6875 29.34375 35.339844 29.332031 34.972656 C 29.324219 34.605469 29.464844 34.253906 29.722656 33.992188 L 34.222656 29.496094 C 34.480469 29.234375 34.839844 29.089844 35.203125 29.105469 C 35.570312 29.117188 35.914062 29.277344 36.160156 29.550781 L 37.210938 30.730469 C 38.039062 30.289062 38.90625 29.929688 39.808594 29.652344 L 39.71875 28.074219 C 39.699219 27.710938 39.828125 27.351562 40.078125 27.085938 C 40.332031 26.816406 40.683594 26.667969 41.050781 26.667969 L 47.40625 26.667969 C 47.777344 26.667969 48.125 26.816406 48.378906 27.082031 C 48.628906 27.351562 48.761719 27.710938 48.738281 28.074219 L 48.652344 29.65625 C 49.546875 29.933594 50.414062 30.292969 51.242188 30.730469 L 52.296875 29.550781 C 52.542969 29.277344 52.890625 29.117188 53.257812 29.105469 C 53.625 29.085938 53.976562 29.234375 54.238281 29.496094 L 58.734375 33.992188 C 58.992188 34.253906 59.132812 34.605469 59.125 34.972656 C 59.113281 35.339844 58.953125 35.6875 58.679688 35.929688 L 57.503906 36.980469 C 57.945312 37.8125 58.300781 38.679688 58.578125 39.578125 L 60.152344 39.488281 C 60.515625 39.472656 60.878906 39.597656 61.144531 39.851562 Z M 9.332031 58.667969 L 25.332031 58.667969 L 25.332031 61.332031 L 9.332031 61.332031 C 5.65625 61.332031 2.667969 58.34375 2.667969 54.667969 L 2.667969 9.332031 C 2.667969 5.65625 5.65625 2.667969 9.332031 2.667969 L 54.667969 2.667969 C 58.34375 2.667969 61.332031 5.65625 61.332031 9.332031 L 61.332031 26.667969 L 58.667969 26.667969 L 58.667969 9.332031 C 58.667969 7.128906 56.871094 5.332031 54.667969 5.332031 L 9.332031 5.332031 C 7.128906 5.332031 5.332031 7.128906 5.332031 9.332031 L 5.332031 54.667969 C 5.332031 56.871094 7.128906 58.667969 9.332031 58.667969 Z M 9.332031 58.667969 "/>
</svg>
