<?xml version="1.0" encoding="UTF-8"?>
<svg xmlns="http://www.w3.org/2000/svg" xmlns:xlink="http://www.w3.org/1999/xlink" width="64" height="64" viewBox="0 0 64 64">
<path fill-rule="evenodd" fill="rgb(54.901963%, 30.980393%, 100%)" fill-opacity="1" d="M 58.546875 56.683594 C 58.59375 56.355469 58.464844 56.183594 58.367188 56.082031 L 50.949219 48.867188 C 50.410156 49.558594 49.8125 50.195312 49.15625 50.78125 L 56.339844 58.132812 C 56.789062 58.578125 57.554688 58.140625 57.964844 57.734375 C 58.289062 57.40625 58.503906 57.023438 58.546875 56.683594 Z M 39.453125 51.839844 C 46.027344 51.839844 51.375 46.492188 51.375 39.917969 C 51.375 33.347656 46.027344 28 39.453125 28 C 32.882812 28 27.535156 33.347656 27.535156 39.917969 C 27.535156 46.492188 32.882812 51.839844 39.453125 51.839844 Z M 60.238281 54.183594 C 61 54.949219 61.335938 55.957031 61.191406 57.035156 C 61.070312 57.960938 60.589844 58.878906 59.847656 59.621094 C 58.949219 60.519531 57.851562 60.976562 56.804688 60.976562 C 55.933594 60.976562 55.097656 60.65625 54.445312 60.007812 L 46.996094 52.382812 C 44.792969 53.722656 42.214844 54.507812 39.453125 54.507812 C 31.410156 54.507812 24.867188 47.960938 24.867188 39.917969 C 24.867188 31.875 31.410156 25.332031 39.453125 25.332031 C 47.496094 25.332031 54.039062 31.875 54.039062 39.917969 C 54.039062 42.316406 53.449219 44.578125 52.417969 46.574219 Z M 61.332031 9.332031 L 61.332031 38.667969 L 58.667969 38.667969 L 58.667969 9.332031 C 58.667969 7.128906 56.871094 5.332031 54.667969 5.332031 L 9.332031 5.332031 C 7.128906 5.332031 5.332031 7.128906 5.332031 9.332031 L 5.332031 54.667969 C 5.332031 56.871094 7.128906 58.667969 9.332031 58.667969 L 38.667969 58.667969 L 38.667969 61.332031 L 9.332031 61.332031 C 5.65625 61.332031 2.667969 58.34375 2.667969 54.667969 L 2.667969 9.332031 C 2.667969 5.65625 5.65625 2.667969 9.332031 2.667969 L 54.667969 2.667969 C 58.34375 2.667969 61.332031 5.65625 61.332031 9.332031 Z M 61.332031 9.332031 "/>
</svg>
