<?xml version="1.0" encoding="UTF-8"?>
<svg xmlns="http://www.w3.org/2000/svg" xmlns:xlink="http://www.w3.org/1999/xlink" width="64" height="64" viewBox="0 0 64 64">
<path fill-rule="evenodd" fill="rgb(54.901963%, 30.980393%, 100%)" fill-opacity="1" d="M 40.378906 32.5 L 42.460938 34.164062 L 37.125 40.832031 C 36.863281 41.160156 36.476562 41.332031 36.085938 41.332031 C 35.832031 41.332031 35.570312 41.261719 35.347656 41.109375 L 31.347656 38.441406 L 32.824219 36.222656 L 35.808594 38.210938 Z M 57.988281 57.914062 C 57.339844 58.5625 56.363281 58.980469 55.757812 58.378906 L 47.140625 49.558594 C 48.058594 48.816406 48.890625 47.980469 49.632812 47.0625 L 58.460938 55.65625 C 59.046875 56.242188 58.667969 57.234375 57.988281 57.914062 Z M 22.738281 36.628906 C 22.738281 28.929688 29.003906 22.667969 36.703125 22.667969 C 44.402344 22.667969 50.667969 28.929688 50.667969 36.628906 C 50.667969 44.328125 44.402344 50.59375 36.703125 50.59375 C 29.003906 50.59375 22.738281 44.328125 22.738281 36.628906 Z M 60.332031 53.757812 L 51.15625 44.824219 C 52.535156 42.402344 53.332031 39.609375 53.332031 36.628906 C 53.332031 27.460938 45.875 20 36.703125 20 C 27.53125 20 20.070312 27.460938 20.070312 36.628906 C 20.070312 45.796875 27.53125 53.257812 36.703125 53.257812 C 39.683594 53.257812 42.480469 52.460938 44.902344 51.078125 L 53.863281 60.253906 C 54.578125 60.96875 55.503906 61.324219 56.46875 61.324219 C 57.636719 61.324219 58.867188 60.808594 59.875 59.800781 C 61.726562 57.945312 61.929688 55.351562 60.332031 53.757812 Z M 36.703125 46.253906 C 31.308594 46.253906 27.078125 42.023438 27.078125 36.628906 C 27.078125 31.234375 31.308594 27.003906 36.703125 27.003906 C 42.097656 27.003906 46.328125 31.234375 46.328125 36.628906 C 46.328125 42.023438 42.097656 46.253906 36.703125 46.253906 Z M 36.703125 24.339844 C 29.8125 24.339844 24.410156 29.738281 24.410156 36.628906 C 24.410156 43.519531 29.8125 48.917969 36.703125 48.917969 C 43.59375 48.917969 48.992188 43.519531 48.992188 36.628906 C 48.992188 29.738281 43.59375 24.339844 36.703125 24.339844 Z M 21.417969 5.332031 C 31.582031 5.332031 38.667969 8.144531 38.667969 10.667969 C 38.667969 13.289062 32.714844 16 22.753906 16 C 12.488281 16 5.332031 13.1875 5.332031 10.667969 C 5.332031 8.042969 11.347656 5.332031 21.417969 5.332031 Z M 21.511719 58.667969 C 11.386719 58.667969 5.332031 55.835938 5.332031 53.105469 L 5.332031 43.34375 C 8.382812 45.824219 13.773438 47.527344 20.050781 47.691406 L 20.121094 45.023438 C 11.40625 44.800781 5.332031 41.492188 5.332031 38.667969 L 5.332031 29.953125 C 7.894531 31.960938 12.125 33.402344 17.308594 33.832031 L 17.53125 31.175781 C 9.996094 30.550781 5.332031 27.65625 5.332031 25.332031 L 5.332031 14.925781 C 9.046875 17.472656 16.074219 18.667969 22.753906 18.667969 C 29.921875 18.667969 35.558594 17.324219 38.667969 15.089844 L 38.667969 17.332031 L 41.332031 17.332031 L 41.332031 10.667969 C 41.332031 5.167969 31.011719 2.667969 21.417969 2.667969 C 10.203125 2.667969 2.667969 5.882812 2.667969 10.667969 L 2.667969 53.105469 C 2.667969 58.027344 10.238281 61.332031 21.511719 61.332031 C 29.636719 61.332031 36.558594 59.574219 39.578125 56.738281 L 37.753906 54.792969 C 35.285156 57.109375 28.757812 58.667969 21.511719 58.667969 Z M 21.511719 58.667969 "/>
</svg>
