<?xml version="1.0" encoding="UTF-8"?>
<svg xmlns="http://www.w3.org/2000/svg" xmlns:xlink="http://www.w3.org/1999/xlink" width="64" height="64" viewBox="0 0 64 64">
<path fill-rule="evenodd" fill="rgb(54.901963%, 30.980393%, 100%)" fill-opacity="1" d="M 36.71875 37.332031 L 38.914062 37.332031 L 41.3125 40.582031 C 41.617188 40.992188 42.132812 41.199219 42.628906 41.101562 C 43.132812 41.007812 43.539062 40.632812 43.671875 40.140625 L 45.65625 32.914062 L 49.117188 45.332031 L 33.28125 45.332031 Z M 46.933594 27.554688 C 46.773438 26.980469 46.246094 26.578125 45.648438 26.578125 L 45.644531 26.578125 C 45.046875 26.582031 44.519531 26.980469 44.363281 27.558594 L 41.828125 36.789062 L 40.660156 35.207031 C 40.410156 34.867188 40.011719 34.667969 39.589844 34.667969 L 35.84375 34.667969 C 35.308594 34.667969 34.828125 34.984375 34.617188 35.472656 L 30.378906 45.332031 L 28.03125 45.332031 L 28.03125 48 L 54.699219 48 L 54.699219 45.332031 L 51.882812 45.332031 Z M 14.699219 48 L 17.363281 48 L 17.363281 30.667969 L 14.699219 30.667969 Z M 20.03125 48 L 22.699219 48 L 22.699219 28 L 20.03125 28 Z M 9.363281 48 L 12.03125 48 L 12.03125 37.332031 L 9.363281 37.332031 Z M 18.699219 18.667969 L 21.363281 18.667969 L 21.363281 16 L 18.699219 16 Z M 13.363281 18.667969 L 16.03125 18.667969 L 16.03125 16 L 13.363281 16 Z M 8.03125 18.667969 L 10.699219 18.667969 L 10.699219 16 L 8.03125 16 Z M 5.332031 52 L 5.355469 22.667969 L 58.699219 22.667969 L 58.699219 51.992188 Z M 58.699219 13.332031 L 58.699219 20 L 5.359375 20 L 5.363281 13.332031 Z M 58.863281 10.667969 L 5.199219 10.667969 C 3.820312 10.667969 2.699219 11.789062 2.699219 13.167969 L 2.667969 52.171875 C 2.664062 53.539062 3.777344 54.660156 5.160156 54.667969 L 58.863281 54.660156 C 60.242188 54.660156 61.363281 53.535156 61.363281 52.15625 L 61.363281 13.167969 C 61.363281 11.789062 60.242188 10.667969 58.863281 10.667969 Z M 58.863281 10.667969 "/>
</svg>
