<?xml version="1.0" encoding="UTF-8"?>
<svg xmlns="http://www.w3.org/2000/svg" xmlns:xlink="http://www.w3.org/1999/xlink" width="64" height="64" viewBox="0 0 64 64">
<path fill-rule="evenodd" fill="rgb(54.901963%, 30.980393%, 100%)" fill-opacity="1" d="M 6.644531 32.003906 C 5.929688 32.003906 5.332031 32.601562 5.332031 33.332031 C 5.332031 34.066406 5.929688 34.667969 6.667969 34.667969 L 17.332031 34.667969 C 18.066406 34.667969 18.667969 34.066406 18.667969 33.332031 C 18.667969 32.597656 18.066406 32 17.332031 32 C 16.597656 32 16 31.402344 16 30.667969 C 16 29.933594 15.402344 29.332031 14.667969 29.332031 C 14.070312 29.386719 13.371094 29.042969 13.171875 28.464844 C 12.792969 27.390625 11.789062 26.667969 10.667969 26.667969 C 9.195312 26.667969 8 27.863281 8 29.332031 C 8 29.621094 8.054688 29.917969 8.171875 30.234375 C 8.328125 30.664062 8.253906 31.144531 7.976562 31.507812 C 7.695312 31.867188 7.246094 32.058594 6.796875 32.019531 C 6.777344 32.019531 6.667969 32.003906 6.648438 32.003906 Z M 17.332031 37.332031 L 6.667969 37.332031 C 4.460938 37.332031 2.667969 35.539062 2.667969 33.332031 C 2.667969 31.59375 3.785156 30.109375 5.339844 29.558594 C 5.335938 29.484375 5.332031 29.410156 5.332031 29.332031 C 5.332031 26.390625 7.726562 24 10.667969 24 C 12.601562 24 14.363281 25.058594 15.292969 26.714844 C 16.816406 26.957031 18.054688 28.058594 18.496094 29.503906 C 20.132812 30.003906 21.332031 31.53125 21.332031 33.332031 C 21.332031 35.539062 19.539062 37.332031 17.332031 37.332031 Z M 38.667969 58.667969 C 36.820312 58.667969 36 58.128906 36 57.925781 L 36 55.609375 C 36.761719 55.855469 37.648438 56 38.667969 56 C 39.667969 56 40.5625 55.835938 41.335938 55.566406 L 41.339844 57.875 C 41.234375 58.105469 40.320312 58.667969 38.667969 58.667969 Z M 38.667969 52 C 40.226562 52 41.0625 52.398438 41.292969 52.609375 C 41.066406 52.867188 40.171875 53.332031 38.667969 53.332031 C 36.9375 53.332031 36.117188 52.867188 36 52.726562 L 36 52.671875 C 36.160156 52.476562 37.023438 52 38.667969 52 Z M 44 52.59375 C 44 50.644531 41.855469 49.332031 38.667969 49.332031 C 35.476562 49.332031 33.332031 50.644531 33.332031 52.59375 C 33.332031 52.617188 33.339844 52.640625 33.34375 52.667969 L 33.332031 52.667969 L 33.332031 57.925781 C 33.332031 59.996094 35.425781 61.332031 38.667969 61.332031 C 41.757812 61.332031 44 59.898438 44 57.925781 L 44 52.667969 L 43.988281 52.667969 C 43.988281 52.640625 44 52.617188 44 52.59375 Z M 38.667969 12 C 36.820312 12 36 11.460938 36 11.257812 L 36 8.941406 C 36.761719 9.1875 37.648438 9.332031 38.667969 9.332031 C 39.667969 9.332031 40.5625 9.171875 41.335938 8.898438 L 41.339844 11.207031 C 41.234375 11.441406 40.320312 12 38.667969 12 Z M 38.667969 5.332031 C 40.226562 5.332031 41.0625 5.730469 41.292969 5.941406 C 41.066406 6.203125 40.171875 6.667969 38.667969 6.667969 C 36.9375 6.667969 36.117188 6.199219 36 6.058594 L 36 6.007812 C 36.160156 5.8125 37.023438 5.332031 38.667969 5.332031 Z M 44 5.925781 C 44 3.976562 41.855469 2.667969 38.667969 2.667969 C 35.476562 2.667969 33.332031 3.976562 33.332031 5.925781 C 33.332031 5.949219 33.339844 5.976562 33.34375 6 L 33.332031 6 L 33.332031 11.257812 C 33.332031 13.328125 35.425781 14.667969 38.667969 14.667969 C 41.757812 14.667969 44 13.234375 44 11.257812 L 44 6 L 43.988281 6 C 43.988281 5.976562 44 5.949219 44 5.925781 Z M 38.667969 25.332031 C 42.339844 25.332031 45.332031 28.324219 45.332031 32 C 45.332031 35.675781 42.339844 38.667969 38.667969 38.667969 C 34.992188 38.667969 32 35.675781 32 32 C 32 28.324219 34.992188 25.332031 38.667969 25.332031 Z M 38.667969 41.332031 C 43.8125 41.332031 48 37.148438 48 32 C 48 26.851562 43.8125 22.667969 38.667969 22.667969 C 33.976562 22.667969 30.089844 26.152344 29.441406 30.667969 L 22.667969 30.667969 L 22.667969 33.332031 L 29.441406 33.332031 C 30.089844 37.847656 33.976562 41.332031 38.667969 41.332031 Z M 58.046875 51.378906 C 57.222656 52.203125 55.878906 52.203125 55.050781 51.378906 L 47.414062 43.742188 C 48.550781 42.894531 49.558594 41.886719 50.410156 40.75 L 58.046875 48.386719 C 58.445312 48.785156 58.667969 49.316406 58.667969 49.882812 C 58.667969 50.449219 58.445312 50.980469 58.046875 51.378906 Z M 59.933594 46.5 L 51.839844 38.40625 C 52.785156 36.46875 53.332031 34.300781 53.332031 32 C 53.332031 23.914062 46.753906 17.332031 38.667969 17.332031 C 31.964844 17.332031 26.316406 21.851562 24.566406 28 L 27.367188 28 C 29.019531 23.347656 33.453125 20 38.667969 20 C 45.285156 20 50.667969 25.382812 50.667969 32 C 50.667969 38.617188 45.285156 44 38.667969 44 C 33.453125 44 29.019531 40.652344 27.367188 36 L 24.566406 36 C 26.316406 42.148438 31.964844 46.667969 38.667969 46.667969 C 40.964844 46.667969 43.132812 46.121094 45.074219 45.171875 L 53.167969 53.265625 C 54.097656 54.199219 55.324219 54.664062 56.550781 54.664062 C 57.773438 54.664062 59 54.199219 59.933594 53.265625 C 61.796875 51.398438 61.796875 48.363281 59.933594 46.5 Z M 16.617188 44.480469 C 16.164062 43.679688 15.746094 42.84375 15.382812 41.996094 L 17.832031 40.941406 C 18.15625 41.703125 18.53125 42.449219 18.9375 43.164062 Z M 19.910156 49.03125 C 19.28125 48.339844 18.683594 47.605469 18.136719 46.847656 L 20.292969 45.28125 C 20.785156 45.960938 21.320312 46.617188 21.882812 47.234375 Z M 24.121094 52.742188 C 23.355469 52.207031 22.613281 51.621094 21.914062 51.003906 L 23.675781 49.003906 C 24.300781 49.554688 24.96875 50.078125 25.65625 50.5625 Z M 29.050781 55.445312 C 28.1875 55.089844 27.332031 54.683594 26.511719 54.230469 L 27.789062 51.890625 C 28.527344 52.296875 29.289062 52.660156 30.0625 52.976562 Z M 27.226562 12.429688 L 25.878906 10.125 C 26.683594 9.65625 27.527344 9.222656 28.382812 8.839844 L 29.464844 11.277344 C 28.703125 11.617188 27.949219 12.003906 27.226562 12.429688 Z M 23.195312 15.433594 L 21.375 13.484375 C 22.0625 12.84375 22.789062 12.234375 23.535156 11.679688 L 25.125 13.820312 C 24.460938 14.316406 23.8125 14.859375 23.195312 15.433594 Z M 19.921875 19.25 L 17.71875 17.75 C 18.242188 16.976562 18.820312 16.226562 19.429688 15.515625 L 21.453125 17.253906 C 20.90625 17.886719 20.390625 18.558594 19.921875 19.25 Z M 17.570312 23.691406 L 15.089844 22.714844 C 15.429688 21.84375 15.828125 20.984375 16.265625 20.15625 L 18.621094 21.40625 C 18.230469 22.144531 17.875 22.914062 17.570312 23.691406 Z M 17.570312 23.691406 "/>
</svg>
