<?xml version="1.0" encoding="UTF-8"?>
<svg xmlns="http://www.w3.org/2000/svg" xmlns:xlink="http://www.w3.org/1999/xlink" width="64" height="64" viewBox="0 0 64 64">
<path fill-rule="evenodd" fill="rgb(54.901963%, 30.980393%, 100%)" fill-opacity="1" d="M 48 40 C 47.265625 40 46.667969 39.402344 46.667969 38.667969 C 46.667969 37.933594 47.265625 37.332031 48 37.332031 C 48.734375 37.332031 49.332031 37.933594 49.332031 38.667969 C 49.332031 39.402344 48.734375 40 48 40 Z M 37.332031 40 C 36.597656 40 36 39.402344 36 38.667969 C 36 37.933594 36.597656 37.332031 37.332031 37.332031 C 38.070312 37.332031 38.667969 37.933594 38.667969 38.667969 C 38.667969 39.402344 38.070312 40 37.332031 40 Z M 26.667969 40 C 25.929688 40 25.332031 39.402344 25.332031 38.667969 C 25.332031 37.933594 25.929688 37.332031 26.667969 37.332031 C 27.402344 37.332031 28 37.933594 28 38.667969 C 28 39.402344 27.402344 40 26.667969 40 Z M 37.332031 22.667969 C 38.070312 22.667969 38.667969 23.265625 38.667969 24 C 38.667969 24.734375 38.070312 25.332031 37.332031 25.332031 C 36.597656 25.332031 36 24.734375 36 24 C 36 23.265625 36.597656 22.667969 37.332031 22.667969 Z M 44 38.667969 C 44 40.871094 45.792969 42.667969 48 42.667969 C 50.207031 42.667969 52 40.871094 52 38.667969 C 52 36.929688 50.882812 35.464844 49.332031 34.910156 L 49.332031 30.667969 C 49.332031 29.929688 48.738281 29.332031 48 29.332031 L 38.667969 29.332031 L 38.667969 27.753906 C 40.214844 27.203125 41.332031 25.734375 41.332031 24 C 41.332031 21.792969 39.539062 20 37.332031 20 C 35.128906 20 33.332031 21.792969 33.332031 24 C 33.332031 25.734375 34.453125 27.203125 36 27.753906 L 36 29.332031 L 26.667969 29.332031 C 25.929688 29.332031 25.332031 29.929688 25.332031 30.667969 L 25.332031 34.910156 C 23.785156 35.464844 22.667969 36.929688 22.667969 38.667969 C 22.667969 40.871094 24.460938 42.667969 26.667969 42.667969 C 28.871094 42.667969 30.667969 40.871094 30.667969 38.667969 C 30.667969 36.929688 29.546875 35.464844 28 34.910156 L 28 32 L 36 32 L 36 34.910156 C 34.453125 35.464844 33.332031 36.929688 33.332031 38.667969 C 33.332031 40.871094 35.128906 42.667969 37.332031 42.667969 C 39.539062 42.667969 41.332031 40.871094 41.332031 38.667969 C 41.332031 36.929688 40.214844 35.464844 38.667969 34.910156 L 38.667969 32 L 46.667969 32 L 46.667969 34.910156 C 45.117188 35.464844 44 36.929688 44 38.667969 Z M 6.667969 2.667969 L 12 2.667969 L 12 5.332031 L 8 5.332031 L 8 58.667969 L 12 58.667969 L 12 61.332031 L 6.667969 61.332031 C 5.929688 61.332031 5.332031 60.734375 5.332031 60 L 5.332031 4 C 5.332031 3.265625 5.929688 2.667969 6.667969 2.667969 Z M 21.332031 56 L 53.332031 56 L 53.332031 53.332031 L 21.332031 53.332031 Z M 21.332031 50.667969 L 53.332031 50.667969 L 53.332031 48 L 21.332031 48 Z M 21.332031 16 L 53.332031 16 L 53.332031 13.332031 L 21.332031 13.332031 Z M 21.332031 10.667969 L 53.332031 10.667969 L 53.332031 8 L 21.332031 8 Z M 17.332031 58.667969 L 56 58.667969 L 56 5.332031 L 17.332031 5.332031 Z M 57.332031 2.667969 L 16 2.667969 C 15.261719 2.667969 14.667969 3.265625 14.667969 4 L 14.667969 60 C 14.667969 60.734375 15.261719 61.332031 16 61.332031 L 57.332031 61.332031 C 58.070312 61.332031 58.667969 60.734375 58.667969 60 L 58.667969 4 C 58.667969 3.265625 58.070312 2.667969 57.332031 2.667969 Z M 57.332031 2.667969 "/>
</svg>
