<?xml version="1.0" encoding="UTF-8"?>
<svg xmlns="http://www.w3.org/2000/svg" xmlns:xlink="http://www.w3.org/1999/xlink" width="64" height="64" viewBox="0 0 64 64">
<path fill-rule="evenodd" fill="rgb(54.901963%, 30.980393%, 100%)" fill-opacity="1" d="M 61.332031 41.332031 L 61.332031 44 C 61.085938 44.144531 60.636719 45.242188 60.398438 45.835938 C 59.765625 47.394531 58.976562 49.332031 56.992188 49.332031 C 55.011719 49.332031 54.222656 47.394531 53.585938 45.835938 C 53.347656 45.242188 52.898438 44.144531 52.609375 43.988281 C 52.410156 44.144531 51.960938 45.246094 51.722656 45.835938 C 51.089844 47.394531 50.300781 49.332031 48.320312 49.332031 C 46.339844 49.332031 45.550781 47.394531 44.917969 45.835938 C 44.679688 45.242188 44.230469 44.144531 43.941406 43.988281 C 43.746094 44.144531 43.296875 45.242188 43.058594 45.835938 C 42.425781 47.394531 41.636719 49.332031 39.65625 49.332031 C 37.675781 49.332031 36.890625 47.394531 36.257812 45.835938 C 36.019531 45.242188 35.574219 44.144531 35.285156 43.988281 C 35.085938 44.144531 34.636719 45.246094 34.398438 45.835938 C 33.765625 47.394531 32.980469 49.332031 31 49.332031 C 29.019531 49.332031 28.230469 47.394531 27.597656 45.835938 C 27.359375 45.246094 26.910156 44.144531 26.621094 43.988281 L 26.667969 41.332031 C 28.648438 41.332031 29.4375 43.273438 30.070312 44.832031 C 30.308594 45.421875 30.753906 46.523438 31.042969 46.679688 C 31.242188 46.523438 31.6875 45.421875 31.929688 44.832031 C 32.5625 43.273438 33.351562 41.332031 35.332031 41.332031 C 37.308594 41.332031 38.097656 43.273438 38.730469 44.832031 C 38.96875 45.421875 39.414062 46.523438 39.703125 46.679688 C 39.902344 46.523438 40.347656 45.421875 40.585938 44.832031 C 41.21875 43.273438 42.007812 41.332031 43.988281 41.332031 C 45.96875 41.332031 46.757812 43.273438 47.390625 44.832031 C 47.628906 45.421875 48.074219 46.523438 48.363281 46.675781 C 48.566406 46.523438 49.011719 45.421875 49.25 44.832031 C 49.886719 43.273438 50.671875 41.332031 52.652344 41.332031 C 54.636719 41.332031 55.425781 43.273438 56.058594 44.832031 C 56.296875 45.421875 56.746094 46.523438 57.035156 46.675781 C 57.242188 46.523438 57.6875 45.421875 57.929688 44.832031 C 58.5625 43.273438 59.351562 41.332031 61.332031 41.332031 Z M 61.332031 32 L 61.332031 34.667969 C 61.085938 34.808594 60.636719 35.910156 60.398438 36.5 C 59.765625 38.058594 58.976562 40 56.992188 40 C 55.011719 40 54.222656 38.058594 53.585938 36.5 C 53.347656 35.910156 52.898438 34.808594 52.609375 34.65625 C 52.410156 34.8125 51.960938 35.910156 51.722656 36.5 C 51.089844 38.058594 50.300781 40 48.320312 40 C 46.339844 40 45.550781 38.058594 44.917969 36.5 C 44.679688 35.910156 44.230469 34.8125 43.941406 34.65625 C 43.746094 34.8125 43.296875 35.910156 43.058594 36.5 C 42.425781 38.058594 41.636719 40 39.65625 40 C 37.675781 40 36.890625 38.058594 36.257812 36.5 C 36.019531 35.910156 35.574219 34.8125 35.285156 34.65625 C 35.085938 34.8125 34.636719 35.910156 34.398438 36.503906 C 33.765625 38.0625 32.980469 40 31 40 C 29.019531 40 28.230469 38.0625 27.597656 36.503906 C 27.359375 35.910156 26.910156 34.8125 26.621094 34.65625 L 26.667969 32 C 28.648438 32 29.4375 33.941406 30.070312 35.5 C 30.308594 36.089844 30.753906 37.1875 31.042969 37.34375 C 31.242188 37.1875 31.6875 36.089844 31.929688 35.5 C 32.5625 33.941406 33.351562 32 35.332031 32 C 37.308594 32 38.097656 33.941406 38.730469 35.5 C 38.96875 36.089844 39.414062 37.1875 39.703125 37.34375 C 39.902344 37.1875 40.347656 36.089844 40.585938 35.496094 C 41.21875 33.9375 42.007812 32 43.988281 32 C 45.96875 32 46.757812 33.9375 47.390625 35.496094 C 47.628906 36.089844 48.074219 37.1875 48.363281 37.34375 C 48.566406 37.1875 49.011719 36.089844 49.25 35.5 C 49.886719 33.941406 50.671875 32 52.652344 32 C 54.636719 32 55.425781 33.9375 56.058594 35.496094 C 56.296875 36.089844 56.746094 37.191406 57.035156 37.34375 C 57.242188 37.191406 57.6875 36.089844 57.929688 35.496094 C 58.5625 33.9375 59.351562 32 61.332031 32 Z M 61.332031 21.332031 L 61.332031 24 C 61.085938 24.144531 60.636719 25.242188 60.398438 25.835938 C 59.765625 27.394531 58.976562 29.332031 56.992188 29.332031 C 55.011719 29.332031 54.222656 27.394531 53.585938 25.835938 C 53.347656 25.242188 52.898438 24.144531 52.609375 23.988281 C 52.410156 24.144531 51.960938 25.246094 51.722656 25.835938 C 51.089844 27.394531 50.300781 29.332031 48.320312 29.332031 C 46.339844 29.332031 45.550781 27.394531 44.917969 25.835938 C 44.679688 25.242188 44.230469 24.144531 43.941406 23.988281 C 43.746094 24.144531 43.296875 25.242188 43.058594 25.835938 C 42.425781 27.394531 41.636719 29.332031 39.65625 29.332031 C 37.675781 29.332031 36.890625 27.394531 36.257812 25.835938 C 36.019531 25.242188 35.574219 24.144531 35.285156 23.988281 C 35.085938 24.144531 34.636719 25.246094 34.398438 25.835938 C 33.765625 27.394531 32.980469 29.332031 31 29.332031 C 29.019531 29.332031 28.230469 27.394531 27.597656 25.835938 C 27.359375 25.246094 26.910156 24.144531 26.621094 23.988281 L 26.667969 21.332031 C 28.648438 21.332031 29.4375 23.273438 30.070312 24.832031 C 30.308594 25.421875 30.753906 26.523438 31.042969 26.679688 C 31.242188 26.523438 31.6875 25.421875 31.929688 24.832031 C 32.5625 23.273438 33.351562 21.332031 35.332031 21.332031 C 37.308594 21.332031 38.097656 23.273438 38.730469 24.832031 C 38.96875 25.421875 39.414062 26.523438 39.703125 26.679688 C 39.902344 26.523438 40.347656 25.421875 40.585938 24.832031 C 41.21875 23.273438 42.007812 21.332031 43.988281 21.332031 C 45.96875 21.332031 46.757812 23.273438 47.390625 24.832031 C 47.628906 25.421875 48.074219 26.523438 48.363281 26.675781 C 48.566406 26.523438 49.011719 25.421875 49.25 24.832031 C 49.886719 23.273438 50.671875 21.332031 52.652344 21.332031 C 54.636719 21.332031 55.425781 23.273438 56.058594 24.832031 C 56.296875 25.421875 56.746094 26.523438 57.035156 26.675781 C 57.242188 26.523438 57.6875 25.421875 57.929688 24.832031 C 58.5625 23.273438 59.351562 21.332031 61.332031 21.332031 Z M 21.515625 5.332031 C 31.621094 5.332031 38.667969 8.21875 38.667969 10.808594 C 38.667969 13.402344 31.621094 16.289062 21.515625 16.289062 C 11.519531 16.289062 5.332031 13.445312 5.332031 10.808594 C 5.332031 8.175781 11.519531 5.332031 21.515625 5.332031 Z M 38.667969 52.648438 C 38.667969 55.238281 31.621094 58.125 21.515625 58.125 C 11.386719 58.125 5.332031 55.339844 5.332031 52.648438 L 5.332031 43.515625 C 8.476562 45.796875 14.210938 47.171875 21.515625 47.171875 L 21.515625 44.503906 C 11.386719 44.503906 5.332031 41.738281 5.332031 39.0625 L 5.332031 29.878906 C 8.476562 32.171875 14.210938 33.550781 21.515625 33.550781 L 21.515625 30.882812 C 11.519531 30.882812 5.332031 28.039062 5.332031 25.40625 L 5.332031 15.285156 C 8.476562 17.574219 14.210938 18.953125 21.515625 18.953125 C 28.253906 18.953125 35.046875 17.640625 38.667969 15.101562 L 38.667969 20 L 41.332031 20 L 41.332031 10.667969 L 41.316406 10.667969 C 41.136719 5.414062 31.273438 2.667969 21.515625 2.667969 C 10.351562 2.667969 2.832031 5.875 2.679688 10.667969 L 2.667969 10.667969 L 2.667969 52.648438 C 2.667969 57.519531 10.242188 60.792969 21.515625 60.792969 C 31.058594 60.792969 41.332031 58.246094 41.332031 52.648438 L 41.332031 50.667969 L 38.667969 50.667969 Z M 38.667969 52.648438 "/>
</svg>
