<?xml version="1.0" encoding="UTF-8"?>
<svg xmlns="http://www.w3.org/2000/svg" xmlns:xlink="http://www.w3.org/1999/xlink" width="64" height="64" viewBox="0 0 64 64">
<path fill-rule="evenodd" fill="rgb(54.901963%, 30.980393%, 100%)" fill-opacity="1" d="M 52.714844 56.613281 L 54.109375 46.558594 C 50.699219 45.449219 46.523438 43.609375 44.351562 42.613281 C 44.0625 42.785156 43.730469 42.886719 43.375 42.886719 C 42.296875 42.886719 41.425781 42.015625 41.425781 40.941406 C 41.425781 39.867188 42.296875 38.992188 43.375 38.992188 C 44.109375 38.992188 44.746094 39.40625 45.074219 40.011719 C 47.589844 41.175781 51.394531 42.828125 54.484375 43.871094 L 55.628906 35.609375 C 52.539062 37.164062 47.636719 37.96875 42.757812 37.96875 C 37.863281 37.96875 32.941406 37.160156 29.851562 35.59375 L 32.605469 56.621094 C 32.609375 56.644531 32.609375 56.664062 32.613281 56.683594 C 33.152344 57.414062 36.949219 58.71875 42.660156 58.71875 C 48.371094 58.71875 52.167969 57.414062 52.707031 56.683594 C 52.707031 56.660156 52.710938 56.636719 52.714844 56.613281 M 29.351562 31.78125 L 29.363281 31.859375 C 29.714844 33.148438 34.730469 35.300781 42.757812 35.300781 C 50.765625 35.300781 55.773438 33.160156 56.152344 31.871094 L 56.164062 31.777344 C 55.640625 30.921875 51.328125 28.128906 42.757812 28.128906 C 34.179688 28.128906 29.871094 30.929688 29.351562 31.78125 M 61.011719 45.105469 C 61.121094 45.691406 60.96875 46.265625 60.585938 46.722656 C 60.144531 47.246094 59.488281 47.507812 58.523438 47.507812 C 58.011719 47.507812 57.402344 47.425781 56.703125 47.277344 L 55.367188 56.90625 C 55.199219 60.445312 47.011719 61.386719 42.660156 61.386719 C 38.304688 61.386719 30.109375 60.445312 29.953125 56.898438 L 26.679688 31.890625 L 26.6875 31.886719 C 26.683594 31.828125 26.667969 31.773438 26.667969 31.714844 C 26.667969 28.757812 33.277344 25.460938 42.757812 25.460938 C 52.242188 25.460938 58.851562 28.757812 58.851562 31.714844 C 58.851562 31.777344 58.832031 31.835938 58.828125 31.898438 L 58.839844 31.898438 L 57.476562 41.695312 C 59.730469 42.988281 60.808594 44.023438 61.011719 45.105469 M 61.332031 9.332031 L 61.332031 22.667969 L 58.667969 22.667969 L 58.667969 9.332031 C 58.667969 7.125 56.871094 5.332031 54.667969 5.332031 L 9.332031 5.332031 C 7.128906 5.332031 5.332031 7.125 5.332031 9.332031 L 5.332031 54.667969 C 5.332031 56.871094 7.128906 58.667969 9.332031 58.667969 L 25.332031 58.667969 L 25.332031 61.332031 L 9.332031 61.332031 C 5.65625 61.332031 2.667969 58.339844 2.667969 54.667969 L 2.667969 9.332031 C 2.667969 5.65625 5.65625 2.667969 9.332031 2.667969 L 54.667969 2.667969 C 58.34375 2.667969 61.332031 5.65625 61.332031 9.332031 "/>
</svg>
