<?xml version="1.0" encoding="UTF-8"?>
<svg xmlns="http://www.w3.org/2000/svg" xmlns:xlink="http://www.w3.org/1999/xlink" width="64" height="64" viewBox="0 0 64 64">
<path fill-rule="evenodd" fill="rgb(54.901963%, 30.980393%, 100%)" fill-opacity="1" d="M 21.332031 46.664062 L 24 46.664062 L 24 44 L 21.332031 44 Z M 20 41.332031 C 19.261719 41.332031 18.667969 41.929688 18.667969 42.664062 L 18.667969 48 C 18.667969 48.734375 19.261719 49.332031 20 49.332031 L 25.332031 49.332031 C 26.070312 49.332031 26.667969 48.734375 26.667969 48 L 26.667969 42.664062 C 26.667969 41.929688 26.070312 41.332031 25.332031 41.332031 Z M 32 34.667969 L 34.667969 34.667969 L 34.667969 32 L 32 32 Z M 37.332031 36 L 37.332031 30.667969 C 37.332031 29.929688 36.738281 29.332031 36 29.332031 L 30.667969 29.332031 C 29.929688 29.332031 29.332031 29.929688 29.332031 30.667969 L 29.332031 36 C 29.332031 36.734375 29.929688 37.332031 30.667969 37.332031 L 36 37.332031 C 36.738281 37.332031 37.332031 36.734375 37.332031 36 Z M 34.667969 50.667969 L 40 50.667969 L 40 45.332031 L 34.667969 45.332031 Z M 33.332031 53.332031 L 41.332031 53.332031 C 42.070312 53.332031 42.667969 52.734375 42.667969 52 L 42.667969 44 C 42.667969 43.265625 42.070312 42.667969 41.332031 42.667969 L 33.332031 42.667969 C 32.597656 42.667969 32 43.265625 32 44 L 32 52 C 32 52.734375 32.597656 53.332031 33.332031 53.332031 Z M 48 40 L 50.667969 40 L 50.667969 37.332031 L 48 37.332031 Z M 46.667969 34.667969 C 45.929688 34.667969 45.332031 35.265625 45.332031 36 L 45.332031 41.332031 C 45.332031 42.070312 45.929688 42.667969 46.667969 42.667969 L 52 42.667969 C 52.738281 42.667969 53.332031 42.070312 53.332031 41.332031 L 53.332031 36 C 53.332031 35.265625 52.738281 34.667969 52 34.667969 Z M 26.667969 8 L 24 8 L 24 5.332031 L 26.667969 5.332031 L 26.667969 2.667969 L 29.332031 2.667969 L 29.332031 5.332031 L 32 5.332031 L 32 8 L 29.332031 8 L 29.332031 10.667969 L 26.667969 10.667969 Z M 52.550781 17.851562 C 53.605469 17.851562 54.644531 18.148438 55.546875 18.707031 C 56.953125 19.578125 57.941406 21.03125 58.292969 22.667969 L 46.804688 22.667969 C 47.390625 19.914062 49.746094 17.851562 52.550781 17.851562 Z M 52.550781 9.332031 C 54.078125 9.332031 55.324219 10.578125 55.324219 12.105469 C 55.324219 13.632812 54.078125 14.878906 52.550781 14.878906 C 51.023438 14.878906 49.777344 13.632812 49.777344 12.105469 C 49.777344 10.578125 51.023438 9.332031 52.550781 9.332031 Z M 44 24 C 44 24.734375 44.597656 25.332031 45.332031 25.332031 L 59.769531 25.332031 C 60.503906 25.332031 61.101562 24.734375 61.101562 24 C 61.101562 20.921875 59.511719 18.027344 56.949219 16.441406 C 56.722656 16.300781 56.484375 16.1875 56.25 16.070312 C 57.3125 15.074219 57.988281 13.671875 57.988281 12.105469 C 57.988281 9.105469 55.550781 6.667969 52.550781 6.667969 C 49.550781 6.667969 47.113281 9.105469 47.113281 12.105469 C 47.113281 13.671875 47.785156 15.074219 48.847656 16.066406 C 45.984375 17.492188 44 20.507812 44 24 Z M 40.550781 5.332031 C 42.078125 5.332031 43.324219 6.578125 43.324219 8.105469 C 43.324219 9.632812 42.078125 10.878906 40.550781 10.878906 C 39.023438 10.878906 37.777344 9.632812 37.777344 8.105469 C 37.777344 6.578125 39.023438 5.332031 40.550781 5.332031 Z M 32 20 C 32 20.734375 32.597656 21.332031 33.332031 21.332031 L 42.667969 21.332031 L 42.667969 18.667969 L 34.804688 18.667969 C 35.390625 15.914062 37.746094 13.851562 40.550781 13.851562 C 41.605469 13.851562 42.644531 14.148438 43.546875 14.707031 L 44.949219 12.441406 C 44.722656 12.300781 44.484375 12.1875 44.25 12.070312 C 45.3125 11.074219 45.988281 9.671875 45.988281 8.105469 C 45.988281 5.105469 43.550781 2.667969 40.550781 2.667969 C 37.550781 2.667969 35.113281 5.105469 35.113281 8.105469 C 35.113281 9.671875 35.785156 11.074219 36.847656 12.066406 C 33.984375 13.492188 32 16.507812 32 20 Z M 5.332031 58.667969 L 5.332031 24 L 10.667969 24 L 10.667969 58.679688 L 5.449219 58.683594 C 5.40625 58.667969 5.335938 58.589844 5.332031 58.667969 Z M 58.667969 28 L 58.683594 58.554688 C 58.664062 58.59375 58.597656 58.664062 58.667969 58.667969 L 13.332031 58.679688 L 13.332031 24 L 29.332031 24 L 29.332031 21.332031 L 5.332031 21.332031 L 5.332031 16 L 29.332031 16 L 29.332031 13.332031 L 5.335938 13.332031 C 3.8125 13.332031 2.667969 14.386719 2.667969 15.785156 L 2.667969 58.667969 C 2.667969 60.03125 3.957031 61.324219 5.332031 61.332031 L 58.667969 61.332031 C 60.039062 61.332031 61.332031 60.039062 61.332031 58.667969 L 61.332031 28 Z M 58.667969 28 "/>
</svg>
