<?xml version="1.0" encoding="UTF-8"?>
<svg xmlns="http://www.w3.org/2000/svg" xmlns:xlink="http://www.w3.org/1999/xlink" width="64" height="64" viewBox="0 0 64 64">
<path fill-rule="evenodd" fill="rgb(54.901963%, 30.980393%, 100%)" fill-opacity="1" d="M 16.917969 58.628906 C 9.816406 58.628906 9.070312 57.328125 9.0625 57.304688 L 5.960938 39.410156 C 9.226562 40.644531 14.023438 40.785156 16 40.785156 C 17.648438 40.785156 23.722656 40.675781 27.515625 39.203125 L 26.152344 48.742188 C 23.460938 47.855469 20.378906 46.574219 18.644531 45.800781 C 18.542969 44.792969 17.699219 44 16.667969 44 C 15.5625 44 14.667969 44.898438 14.667969 46 C 14.667969 47.101562 15.5625 48 16.667969 48 C 16.773438 48 16.875 47.984375 16.976562 47.96875 C 18.703125 48.769531 22.519531 50.386719 25.769531 51.425781 L 24.929688 57.304688 C 24.921875 57.316406 24.082031 58.628906 16.917969 58.628906 M 16 33.800781 C 22.910156 33.800781 27.21875 35.132812 27.945312 35.960938 C 27.21875 36.785156 22.910156 38.117188 16 38.117188 C 8.375 38.117188 5.472656 36.507812 5.332031 35.96875 C 5.472656 35.410156 8.375 33.800781 16 33.800781 M 30.769531 52.5 C 31.695312 52.5 32.175781 52.242188 32.511719 51.84375 C 32.871094 51.425781 33.011719 50.894531 32.90625 50.351562 C 32.699219 49.292969 31.652344 48.378906 29.089844 47.023438 L 30.652344 36.109375 L 30.640625 36.109375 C 30.644531 36.058594 30.667969 36.011719 30.667969 35.960938 C 30.667969 31.363281 18.449219 31.132812 16 31.132812 C 12.871094 31.132812 2.664062 31.480469 2.664062 35.960938 C 2.664062 36.148438 2.710938 36.320312 2.746094 36.496094 L 6.433594 57.746094 C 6.824219 60.167969 10.152344 61.296875 16.917969 61.296875 C 23.785156 61.296875 27.164062 60.167969 27.558594 57.722656 L 28.359375 52.148438 C 29.402344 52.394531 30.179688 52.5 30.769531 52.5 M 55.214844 14.082031 C 54.378906 12.828125 52.953125 12 51.332031 12 C 49.027344 12 47.121094 13.683594 46.746094 15.886719 C 45.441406 15.992188 44.085938 16.058594 42.664062 16.058594 C 32.296875 16.058594 25.332031 13.285156 25.332031 10.695312 C 25.332031 8.105469 32.226562 5.332031 42.492188 5.332031 C 52.617188 5.332031 58.664062 8.058594 58.664062 10.695312 C 58.664062 12.308594 56.683594 13.453125 55.214844 14.082031 M 51.332031 18.667969 C 50.230469 18.667969 49.332031 17.769531 49.332031 16.667969 C 49.332031 15.5625 50.230469 14.667969 51.332031 14.667969 C 52.4375 14.667969 53.332031 15.5625 53.332031 16.667969 C 53.332031 17.769531 52.4375 18.667969 51.332031 18.667969 M 46 32 C 44.898438 32 44 31.101562 44 30 C 44 28.898438 44.898438 28 46 28 C 47.101562 28 48 28.898438 48 30 C 48 31.101562 47.101562 32 46 32 M 32.667969 29.332031 C 31.5625 29.332031 30.667969 28.4375 30.667969 27.332031 C 30.667969 26.230469 31.5625 25.332031 32.667969 25.332031 C 33.769531 25.332031 34.667969 26.230469 34.667969 27.332031 C 34.667969 28.4375 33.769531 29.332031 32.667969 29.332031 M 42.492188 2.667969 C 32.625 2.667969 22.664062 5.148438 22.664062 10.695312 L 22.664062 29.332031 L 25.332031 29.332031 L 25.332031 14.976562 C 29.035156 17.527344 36.023438 18.726562 42.664062 18.726562 C 44.195312 18.726562 45.65625 18.652344 47.066406 18.535156 C 47.4375 19.386719 48.0625 20.101562 48.839844 20.597656 L 46.941406 25.429688 C 46.640625 25.367188 46.324219 25.332031 46 25.332031 C 43.960938 25.332031 42.238281 26.660156 41.605469 28.488281 L 37.316406 27.507812 C 37.316406 27.449219 37.335938 27.394531 37.335938 27.332031 C 37.335938 24.761719 35.238281 22.667969 32.667969 22.667969 C 30.09375 22.667969 28 24.761719 28 27.332031 C 28 29.90625 30.09375 32 32.667969 32 C 34.226562 32 35.601562 31.222656 36.449219 30.042969 L 41.511719 31.199219 C 42.042969 33.1875 43.84375 34.667969 46 34.667969 C 48.574219 34.667969 50.664062 32.574219 50.664062 30 C 50.664062 28.71875 50.144531 27.554688 49.304688 26.710938 L 51.417969 21.324219 C 53.953125 21.277344 56 19.210938 56 16.667969 C 56 16.660156 55.996094 16.652344 55.996094 16.644531 C 57.085938 16.199219 57.964844 15.71875 58.664062 15.214844 L 58.664062 53.304688 C 58.664062 55.902344 53.0625 58.664062 42.679688 58.667969 C 38.351562 58.664062 34.226562 58.160156 31.066406 57.242188 L 30.324219 59.804688 C 33.761719 60.800781 38.03125 61.332031 42.664062 61.332031 C 42.671875 61.332031 42.675781 61.332031 42.679688 61.332031 C 42.683594 61.332031 42.6875 61.332031 42.695312 61.332031 C 54.019531 61.328125 61.335938 58.175781 61.335938 53.304688 L 61.335938 10.695312 C 61.335938 5.820312 53.9375 2.667969 42.492188 2.667969 "/>
</svg>
