<?xml version="1.0" encoding="UTF-8"?>
<svg xmlns="http://www.w3.org/2000/svg" xmlns:xlink="http://www.w3.org/1999/xlink" width="64" height="64" viewBox="0 0 64 64">
<path fill-rule="evenodd" fill="rgb(54.901963%, 30.980393%, 100%)" fill-opacity="1" d="M 58.753906 46.652344 C 58.753906 47.335938 58.183594 47.894531 57.484375 47.894531 L 54.507812 47.894531 C 53.808594 47.894531 53.238281 47.335938 53.238281 46.652344 L 53.238281 44.554688 C 53.238281 43.816406 52.644531 43.21875 51.90625 43.21875 L 46.0625 43.21875 C 45.328125 43.21875 44.730469 43.816406 44.730469 44.554688 L 44.730469 47.726562 C 44.730469 49.75 43.074219 51.398438 41.039062 51.398438 L 31.652344 51.398438 C 29.597656 51.398438 27.925781 49.75 27.925781 47.726562 L 27.925781 46.890625 C 27.925781 46.152344 27.328125 45.554688 26.589844 45.554688 L 11.875 45.554688 C 11.488281 45.554688 11.175781 45.253906 11.175781 44.882812 L 11.175781 23.664062 C 11.175781 22.976562 11.746094 22.421875 12.445312 22.421875 L 20.308594 22.421875 C 21.046875 22.421875 21.644531 21.824219 21.644531 21.085938 L 21.644531 18.503906 C 21.644531 18.136719 21.949219 17.84375 22.328125 17.84375 L 34.703125 17.84375 C 35.078125 17.84375 35.382812 18.136719 35.382812 18.503906 L 35.382812 21.085938 C 35.382812 21.824219 35.980469 22.421875 36.71875 22.421875 L 43.496094 22.421875 C 44.195312 22.421875 44.765625 22.976562 44.765625 23.664062 L 44.765625 25.957031 C 44.765625 26.691406 45.363281 27.289062 46.101562 27.289062 L 51.863281 27.289062 C 52.601562 27.289062 53.199219 26.691406 53.199219 25.957031 L 53.199219 23.824219 C 53.199219 23.140625 53.765625 22.585938 54.464844 22.585938 L 57.484375 22.585938 C 58.183594 22.585938 58.753906 23.140625 58.753906 23.824219 Z M 57.484375 19.917969 L 54.464844 19.917969 C 52.296875 19.917969 50.53125 21.671875 50.53125 23.824219 L 50.53125 24.625 L 47.433594 24.625 L 47.433594 23.664062 C 47.433594 21.507812 45.667969 19.753906 43.496094 19.753906 L 38.050781 19.753906 L 38.050781 18.503906 C 38.050781 16.667969 36.546875 15.175781 34.703125 15.175781 L 29.871094 15.175781 L 29.871094 12 L 36.71875 12 L 36.71875 9.332031 L 20.359375 9.332031 L 20.359375 12 L 27.203125 12 L 27.203125 15.175781 L 22.328125 15.175781 C 20.480469 15.175781 18.976562 16.667969 18.976562 18.503906 L 18.976562 19.753906 L 12.445312 19.753906 C 10.277344 19.753906 8.507812 21.507812 8.507812 23.664062 L 8.507812 32.703125 L 5.332031 32.703125 L 5.332031 21.183594 L 2.667969 21.183594 L 2.667969 46.890625 L 5.332031 46.890625 L 5.332031 35.371094 L 8.507812 35.371094 L 8.507812 44.882812 C 8.507812 46.722656 10.015625 48.222656 11.875 48.222656 L 25.277344 48.222656 C 25.535156 51.488281 28.292969 54.066406 31.652344 54.066406 L 41.039062 54.066406 C 44.546875 54.066406 47.398438 51.222656 47.398438 47.726562 L 47.398438 45.886719 L 50.574219 45.886719 L 50.574219 46.652344 C 50.574219 48.808594 52.339844 50.558594 54.507812 50.558594 L 57.484375 50.558594 C 59.65625 50.558594 61.421875 48.808594 61.421875 46.652344 L 61.421875 23.824219 C 61.421875 21.671875 59.65625 19.917969 57.484375 19.917969 Z M 57.484375 19.917969 "/>
</svg>
