<?xml version="1.0" encoding="UTF-8"?>
<svg xmlns="http://www.w3.org/2000/svg" xmlns:xlink="http://www.w3.org/1999/xlink" width="64" height="64" viewBox="0 0 64 64">
<path fill-rule="evenodd" fill="rgb(54.901963%, 30.980393%, 100%)" fill-opacity="1" d="M 21.332031 5.332031 C 32.039062 5.332031 38.667969 8.101562 38.667969 10.667969 C 38.667969 13.230469 32.039062 16 21.332031 16 C 10.828125 16 5.332031 13.316406 5.332031 10.667969 C 5.332031 8.015625 10.828125 5.332031 21.332031 5.332031 M 21.332031 58.667969 C 11.316406 58.667969 5.332031 56.671875 5.332031 53.332031 L 5.332031 44.585938 C 8.070312 46.871094 12.925781 48 20 48 L 20 45.332031 C 5.332031 45.332031 5.332031 40.316406 5.332031 38.667969 L 5.332031 28.585938 C 8.070312 30.871094 12.925781 32 20 32 L 20 29.332031 C 5.332031 29.332031 5.332031 24.316406 5.332031 22.667969 L 5.332031 15.210938 C 8.398438 17.40625 13.964844 18.667969 21.332031 18.667969 C 28.15625 18.667969 35.023438 17.503906 38.667969 14.992188 L 38.667969 20 L 41.332031 20 L 41.332031 10.667969 C 41.332031 5.140625 31.289062 2.667969 21.332031 2.667969 C 9.820312 2.667969 2.667969 5.730469 2.667969 10.667969 L 2.667969 53.332031 C 2.667969 56.984375 5.90625 61.332031 21.332031 61.332031 C 29.472656 61.332031 34.9375 60.394531 38.039062 58.464844 L 36.628906 56.203125 C 34 57.835938 28.855469 58.667969 21.332031 58.667969 M 58.109375 58.109375 C 57.738281 58.484375 57.296875 58.726562 56.902344 58.777344 C 56.597656 58.816406 56.347656 58.738281 56.152344 58.542969 L 47.90625 50.105469 C 48.710938 49.445312 49.449219 48.710938 50.105469 47.90625 L 58.550781 56.125 C 58.753906 56.324219 58.828125 56.574219 58.789062 56.886719 C 58.734375 57.289062 58.488281 57.734375 58.109375 58.109375 M 25.332031 38.132812 C 25.332031 31.074219 31.074219 25.332031 38.132812 25.332031 C 45.191406 25.332031 50.933594 31.074219 50.933594 38.132812 C 50.933594 45.191406 45.191406 50.933594 38.132812 50.933594 C 31.074219 50.933594 25.332031 45.191406 25.332031 38.132812 M 60.425781 54.226562 L 51.628906 45.664062 C 52.878906 43.433594 53.597656 40.867188 53.597656 38.132812 C 53.597656 29.605469 46.660156 22.667969 38.132812 22.667969 C 29.605469 22.667969 22.667969 29.605469 22.667969 38.132812 C 22.667969 46.660156 29.605469 53.597656 38.132812 53.597656 C 40.867188 53.597656 43.4375 52.878906 45.667969 51.625 L 54.257812 60.417969 C 54.933594 61.09375 55.804688 61.453125 56.75 61.453125 C 56.914062 61.453125 57.078125 61.445312 57.242188 61.421875 C 58.222656 61.296875 59.203125 60.789062 59.996094 59.996094 C 60.789062 59.203125 61.300781 58.222656 61.429688 57.238281 C 61.582031 56.097656 61.230469 55.03125 60.425781 54.226562 M 38.132812 45.332031 C 34.09375 45.332031 30.933594 42.171875 30.933594 38.132812 C 30.933594 34.09375 34.09375 30.933594 38.132812 30.933594 C 42.171875 30.933594 45.332031 34.09375 45.332031 38.132812 C 45.332031 42.171875 42.171875 45.332031 38.132812 45.332031 M 38.132812 28.265625 C 32.601562 28.265625 28.265625 32.601562 28.265625 38.132812 C 28.265625 43.667969 32.601562 48 38.132812 48 C 43.664062 48 48 43.667969 48 38.132812 C 48 32.601562 43.664062 28.265625 38.132812 28.265625 "/>
</svg>
