<?xml version="1.0" encoding="UTF-8"?>
<svg xmlns="http://www.w3.org/2000/svg" xmlns:xlink="http://www.w3.org/1999/xlink" width="64" height="64" viewBox="0 0 64 64">
<path fill-rule="evenodd" fill="rgb(54.901963%, 30.980393%, 100%)" fill-opacity="1" d="M 28.40625 24.5 C 31.570312 25.242188 35.574219 25.332031 37.332031 25.332031 C 39.09375 25.332031 43.097656 25.242188 46.261719 24.5 L 38.667969 39.683594 L 38.667969 44 L 36 44 L 36 39.683594 Z M 37.332031 20 C 42.601562 20 46.097656 20.746094 47.488281 21.332031 C 46.097656 21.921875 42.601562 22.667969 37.332031 22.667969 C 32.066406 22.667969 28.570312 21.921875 27.179688 21.332031 C 28.570312 20.746094 32.066406 20 37.332031 20 Z M 41.332031 46.667969 L 41.332031 40.316406 L 50.1875 22.601562 C 50.492188 22.230469 50.667969 21.8125 50.667969 21.332031 C 50.667969 17.621094 40.460938 17.332031 37.332031 17.332031 C 34.207031 17.332031 24 17.621094 24 21.332031 C 24 21.8125 24.175781 22.230469 24.476562 22.601562 L 33.332031 40.316406 L 33.332031 46.667969 Z M 5.332031 2.667969 L 12 2.667969 L 12 5.332031 L 8 5.332031 L 8 58.667969 L 12 58.667969 L 12 61.332031 L 5.332031 61.332031 Z M 21.332031 56 L 53.332031 56 L 53.332031 53.332031 L 21.332031 53.332031 Z M 21.332031 50.667969 L 53.332031 50.667969 L 53.332031 48 L 21.332031 48 Z M 21.332031 16 L 53.332031 16 L 53.332031 13.332031 L 21.332031 13.332031 Z M 21.332031 10.667969 L 53.332031 10.667969 L 53.332031 8 L 21.332031 8 Z M 17.332031 58.667969 L 56 58.667969 L 56 5.332031 L 17.332031 5.332031 Z M 14.667969 61.332031 L 58.667969 61.332031 L 58.667969 2.667969 L 14.667969 2.667969 Z M 14.667969 61.332031 "/>
</svg>
