<?xml version="1.0" encoding="UTF-8"?>
<svg xmlns="http://www.w3.org/2000/svg" xmlns:xlink="http://www.w3.org/1999/xlink" width="64" height="64" viewBox="0 0 64 64">
<path fill-rule="evenodd" fill="rgb(54.901963%, 30.980393%, 100%)" fill-opacity="1" d="M 24.453125 32.863281 C 24.597656 33.210938 24.667969 33.632812 24.667969 34.125 C 24.667969 35.085938 24.363281 35.84375 23.738281 36.40625 C 23.117188 36.96875 22.261719 37.246094 21.171875 37.246094 C 20.695312 37.246094 20.21875 37.191406 19.746094 37.082031 C 19.269531 36.96875 18.871094 36.824219 18.550781 36.640625 L 18.550781 35.050781 C 18.925781 35.191406 19.34375 35.3125 19.816406 35.40625 C 20.285156 35.503906 20.683594 35.550781 21.019531 35.550781 C 21.503906 35.550781 21.871094 35.4375 22.125 35.210938 C 22.378906 34.984375 22.503906 34.65625 22.503906 34.230469 C 22.503906 33.921875 22.414062 33.65625 22.238281 33.4375 C 22.0625 33.222656 21.765625 33 21.351562 32.777344 L 20.535156 32.339844 C 19.789062 31.933594 19.253906 31.5 18.929688 31.035156 C 18.605469 30.570312 18.441406 30.003906 18.441406 29.339844 C 18.441406 28.722656 18.585938 28.183594 18.871094 27.726562 C 19.148438 27.265625 19.535156 26.910156 20.027344 26.664062 C 20.515625 26.417969 21.078125 26.292969 21.714844 26.292969 C 22.515625 26.292969 23.308594 26.476562 24.09375 26.839844 L 24.09375 28.445312 C 23.277344 28.144531 22.554688 27.992188 21.929688 27.992188 C 21.503906 27.992188 21.171875 28.097656 20.929688 28.308594 C 20.683594 28.519531 20.5625 28.8125 20.5625 29.1875 C 20.5625 29.5 20.644531 29.757812 20.800781 29.960938 C 20.957031 30.164062 21.257812 30.386719 21.703125 30.625 L 22.519531 31.066406 C 23.042969 31.347656 23.460938 31.632812 23.769531 31.914062 C 24.078125 32.199219 24.304688 32.511719 24.453125 32.863281 Z M 15.050781 31.914062 C 15.050781 33.097656 14.890625 33.972656 14.566406 34.542969 C 14.242188 35.113281 13.753906 35.398438 13.09375 35.398438 L 12.203125 35.398438 L 12.203125 28.144531 L 13.082031 28.144531 C 13.757812 28.144531 14.257812 28.421875 14.574219 28.984375 C 14.890625 29.542969 15.050781 30.421875 15.050781 31.613281 Z M 13.246094 26.519531 L 10.082031 26.519531 L 10.082031 37.019531 L 13.324219 37.019531 C 14.597656 37.019531 15.566406 36.574219 16.234375 35.6875 C 16.898438 34.796875 17.230469 33.492188 17.230469 31.765625 C 17.230469 30.046875 16.894531 28.742188 16.21875 27.855469 C 15.539062 26.964844 14.550781 26.519531 13.246094 26.519531 Z M 49.277344 35.332031 C 48.628906 35.421875 48.117188 35.957031 48.117188 36.632812 L 48.117188 40.609375 L 45.007812 39.570312 L 48.59375 34.332031 Z M 50.785156 45.785156 L 58.609375 45.785156 L 58.609375 37.964844 L 50.785156 37.964844 Z M 44.957031 52.648438 L 44.957031 49.449219 C 44.957031 48.714844 44.363281 48.117188 43.625 48.117188 L 39.160156 48.117188 L 43.441406 41.859375 L 48.117188 43.417969 L 48.117188 47.121094 C 48.117188 47.855469 48.714844 48.453125 49.453125 48.453125 L 50.570312 48.453125 C 48.542969 49.992188 46.457031 51.542969 44.957031 52.648438 Z M 34.46875 58.609375 L 42.292969 58.609375 L 42.292969 50.785156 L 34.46875 50.785156 Z M 30.804688 42.625 C 31.542969 42.625 32.136719 42.03125 32.136719 41.292969 L 32.136719 38.085938 L 40.8125 40.980469 L 35.929688 48.117188 L 33.136719 48.117188 C 32.832031 48.117188 32.570312 48.234375 32.34375 48.40625 L 25.234375 42.625 Z M 5.332031 39.960938 L 29.472656 39.960938 L 29.472656 23.980469 L 5.332031 23.980469 Z M 32.34375 15.535156 C 32.570312 15.703125 32.835938 15.824219 33.136719 15.824219 L 35.929688 15.824219 L 40.8125 22.957031 L 32.136719 25.855469 L 32.136719 22.648438 C 32.136719 21.910156 31.542969 21.3125 30.804688 21.3125 L 25.238281 21.3125 Z M 34.46875 13.15625 L 42.292969 13.15625 L 42.292969 5.332031 L 34.46875 5.332031 Z M 50.570312 15.488281 L 49.453125 15.488281 C 48.714844 15.488281 48.117188 16.082031 48.117188 16.820312 L 48.117188 20.519531 L 43.441406 22.082031 L 39.160156 15.824219 L 43.625 15.824219 C 44.363281 15.824219 44.957031 15.226562 44.957031 14.488281 L 44.957031 11.292969 C 46.457031 12.398438 48.542969 13.949219 50.570312 15.488281 Z M 50.785156 25.976562 L 58.609375 25.976562 L 58.609375 18.152344 L 50.785156 18.152344 Z M 45.007812 24.371094 L 48.117188 23.332031 L 48.117188 27.308594 C 48.117188 27.984375 48.628906 28.519531 49.277344 28.609375 L 48.59375 29.609375 Z M 32.136719 28.664062 L 42.378906 25.246094 L 46.980469 31.96875 L 42.378906 38.691406 L 32.136719 35.277344 Z M 52.484375 28.644531 L 59.941406 28.644531 C 60.679688 28.644531 61.273438 28.046875 61.273438 27.308594 L 61.273438 16.820312 C 61.273438 16.082031 60.679688 15.488281 59.941406 15.488281 L 54.945312 15.488281 C 51.445312 12.753906 46.566406 9.164062 44.957031 7.984375 L 44.957031 4 C 44.957031 3.265625 44.363281 2.667969 43.625 2.667969 L 33.136719 2.667969 C 32.398438 2.667969 31.804688 3.265625 31.804688 4 L 31.804688 12.539062 L 21.007812 21.3125 L 4 21.3125 C 3.261719 21.3125 2.667969 21.910156 2.667969 22.648438 L 2.667969 41.292969 C 2.667969 42.03125 3.261719 42.625 4 42.625 L 21.007812 42.625 L 31.804688 51.402344 L 31.804688 59.941406 C 31.804688 60.675781 32.398438 61.273438 33.136719 61.273438 L 43.625 61.273438 C 44.363281 61.273438 44.957031 60.675781 44.957031 59.941406 L 44.957031 55.957031 C 46.566406 54.777344 51.445312 51.1875 54.945312 48.453125 L 59.941406 48.453125 C 60.679688 48.453125 61.273438 47.855469 61.273438 47.121094 L 61.273438 36.632812 C 61.273438 35.894531 60.679688 35.296875 59.941406 35.296875 L 52.484375 35.296875 L 50.207031 31.96875 Z M 52.484375 28.644531 "/>
</svg>
