<?xml version="1.0" encoding="UTF-8"?>
<svg xmlns="http://www.w3.org/2000/svg" xmlns:xlink="http://www.w3.org/1999/xlink" width="64" height="64" viewBox="0 0 64 64">
<path fill-rule="evenodd" fill="rgb(54.901963%, 30.980393%, 100%)" fill-opacity="1" d="M 55.207031 19.515625 L 51.765625 22.101562 L 55.207031 24.683594 Z M 57.875 16.851562 L 57.875 27.351562 C 57.875 27.855469 57.589844 28.316406 57.136719 28.542969 C 56.949219 28.636719 56.742188 28.683594 56.542969 28.683594 C 56.257812 28.683594 55.976562 28.59375 55.742188 28.417969 L 48.742188 23.167969 C 48.40625 22.914062 48.210938 22.519531 48.210938 22.101562 C 48.210938 21.679688 48.40625 21.285156 48.742188 21.035156 L 55.742188 15.785156 C 56.144531 15.480469 56.683594 15.433594 57.136719 15.65625 C 57.589844 15.882812 57.875 16.34375 57.875 16.851562 Z M 12.324219 22.101562 L 8.878906 19.515625 L 8.878906 24.683594 Z M 15.347656 23.167969 L 8.347656 28.417969 C 8.113281 28.59375 7.828125 28.683594 7.546875 28.683594 C 7.34375 28.683594 7.136719 28.636719 6.949219 28.542969 C 6.5 28.316406 6.214844 27.855469 6.214844 27.351562 L 6.214844 16.851562 C 6.214844 16.34375 6.5 15.882812 6.949219 15.65625 C 7.402344 15.433594 7.941406 15.480469 8.347656 15.785156 L 15.347656 21.035156 C 15.679688 21.285156 15.878906 21.679688 15.878906 22.101562 C 15.878906 22.519531 15.679688 22.914062 15.347656 23.167969 Z M 16.878906 54.351562 L 47.214844 54.351562 L 47.214844 51.683594 L 16.878906 51.683594 Z M 16.878906 47.351562 L 47.214844 47.351562 L 47.214844 44.683594 L 16.878906 44.683594 Z M 16.878906 40.351562 L 47.214844 40.351562 L 47.214844 37.683594 L 16.878906 37.683594 Z M 16.878906 33.351562 L 47.214844 33.351562 L 47.214844 30.683594 L 16.878906 30.683594 Z M 16.878906 26.351562 L 47.214844 26.351562 L 47.214844 23.683594 L 16.878906 23.683594 Z M 17.023438 19.351562 L 47.214844 19.351562 L 47.214844 16.683594 L 17.023438 16.683594 Z M 16.878906 12.351562 L 47.214844 12.351562 L 47.214844 9.683594 L 16.878906 9.683594 Z M 50.546875 58.683594 L 13.546875 58.683594 L 13.546875 28.515625 L 10.878906 28.515625 L 10.878906 61.351562 L 53.214844 61.351562 L 53.214844 28.515625 L 50.546875 28.515625 Z M 13.546875 15.683594 L 10.878906 15.683594 L 10.878906 2.683594 L 53.214844 2.683594 L 53.214844 15.683594 L 50.546875 15.683594 L 50.546875 5.351562 L 13.546875 5.351562 Z M 13.546875 15.683594 "/>
</svg>
