<?xml version="1.0" encoding="UTF-8"?>
<svg xmlns="http://www.w3.org/2000/svg" xmlns:xlink="http://www.w3.org/1999/xlink" width="64" height="64" viewBox="0 0 64 64">
<path fill-rule="evenodd" fill="rgb(54.901963%, 30.980393%, 100%)" fill-opacity="1" d="M 30.753906 58.425781 L 30.753906 61.089844 C 28.863281 61.089844 27.175781 60.085938 26.070312 58.515625 C 24.96875 60.085938 23.28125 61.089844 21.390625 61.089844 C 19.503906 61.089844 17.8125 60.085938 16.710938 58.515625 C 15.605469 60.085938 13.917969 61.089844 12.027344 61.089844 C 10.136719 61.089844 8.449219 60.085938 7.347656 58.515625 C 6.242188 60.085938 4.554688 61.089844 2.667969 61.089844 L 2.667969 58.425781 C 4.511719 58.425781 6.011719 56.523438 6.011719 54.183594 L 8.679688 54.183594 C 8.679688 56.523438 10.179688 58.425781 12.027344 58.425781 C 13.875 58.425781 15.378906 56.523438 15.378906 54.183594 L 18.042969 54.183594 C 18.042969 56.523438 19.546875 58.425781 21.390625 58.425781 C 23.238281 58.425781 24.738281 56.523438 24.738281 54.183594 L 27.40625 54.183594 C 27.40625 56.523438 28.90625 58.425781 30.753906 58.425781 Z M 40.667969 50.425781 C 38.570312 50.425781 36.625 49.367188 35.367188 47.78125 C 34.25 49.394531 32.464844 50.425781 30.421875 50.425781 C 28.328125 50.425781 26.425781 49.378906 25.210938 47.785156 C 24.054688 49.386719 22.226562 50.425781 20.171875 50.425781 C 18.121094 50.425781 16.261719 49.367188 15.070312 47.757812 C 13.875 49.367188 11.996094 50.425781 9.925781 50.425781 L 9.925781 47.757812 C 11.960938 47.757812 13.746094 45.886719 13.746094 43.757812 L 16.410156 43.757812 C 16.410156 45.925781 18.132812 47.757812 20.171875 47.757812 C 22.1875 47.757812 23.832031 45.960938 23.832031 43.757812 L 26.496094 43.757812 C 26.496094 45.886719 28.332031 47.757812 30.421875 47.757812 C 32.609375 47.757812 33.914062 45.722656 33.914062 43.757812 L 36.582031 43.757812 C 36.582031 45.8125 38.566406 47.757812 40.667969 47.757812 C 42.832031 47.757812 44 45.695312 44 43.757812 L 46.667969 43.757812 C 46.667969 47.558594 44.085938 50.425781 40.667969 50.425781 Z M 2.667969 39.996094 L 2.667969 37.328125 C 4.511719 37.328125 6.011719 35.425781 6.011719 33.089844 L 8.679688 33.089844 C 8.679688 35.425781 10.179688 37.328125 12.027344 37.328125 C 13.875 37.328125 15.378906 35.425781 15.378906 33.089844 L 18.042969 33.089844 C 18.042969 35.425781 19.546875 37.328125 21.390625 37.328125 C 23.238281 37.328125 24.738281 35.425781 24.738281 33.089844 L 27.40625 33.089844 C 27.40625 35.425781 28.90625 37.328125 30.753906 37.328125 L 30.753906 39.996094 C 28.863281 39.996094 27.175781 38.988281 26.070312 37.421875 C 24.96875 38.988281 23.28125 39.996094 21.390625 39.996094 C 19.503906 39.996094 17.8125 38.988281 16.710938 37.421875 C 15.605469 38.988281 13.917969 39.996094 12.027344 39.996094 C 10.136719 39.996094 8.449219 38.988281 7.347656 37.421875 C 6.242188 38.988281 4.554688 39.996094 2.667969 39.996094 Z M 55.183594 14.035156 C 54.339844 12.808594 52.929688 12 51.332031 12 C 49.046875 12 47.148438 13.652344 46.75 15.828125 C 45.4375 15.933594 44.066406 16 42.636719 16 C 32.488281 16 25.621094 13.355469 25.332031 10.832031 L 25.332031 10.667969 L 25.304688 10.667969 C 25.304688 8.089844 32.199219 5.332031 42.460938 5.332031 C 52.589844 5.332031 58.636719 8.042969 58.636719 10.667969 L 58.609375 10.667969 L 58.609375 10.832031 C 58.472656 12.347656 56.597656 13.433594 55.183594 14.035156 Z M 51.332031 18.667969 C 50.230469 18.667969 49.332031 17.769531 49.332031 16.667969 C 49.332031 15.5625 50.230469 14.667969 51.332031 14.667969 C 52.4375 14.667969 53.332031 15.5625 53.332031 16.667969 C 53.332031 17.769531 52.4375 18.667969 51.332031 18.667969 Z M 46 32 C 44.894531 32 44 31.101562 44 30 C 44 28.894531 44.894531 28 46 28 C 47.101562 28 48 28.894531 48 30 C 48 31.101562 47.101562 32 46 32 Z M 32.667969 29.332031 C 31.5625 29.332031 30.667969 28.4375 30.667969 27.332031 C 30.667969 26.230469 31.5625 25.332031 32.667969 25.332031 C 33.769531 25.332031 34.667969 26.230469 34.667969 27.332031 C 34.667969 28.4375 33.769531 29.332031 32.667969 29.332031 Z M 61.277344 11.152344 C 61.292969 10.984375 61.304688 10.820312 61.304688 10.667969 C 61.304688 5.808594 53.910156 2.667969 42.460938 2.667969 C 32.597656 2.667969 22.636719 5.140625 22.636719 10.667969 C 22.636719 10.746094 22.660156 10.816406 22.667969 10.894531 L 22.667969 30.667969 L 25.332031 30.667969 L 25.332031 14.953125 C 29.042969 17.480469 36.011719 18.667969 42.636719 18.667969 C 44.164062 18.667969 45.625 18.59375 47.035156 18.480469 C 47.398438 19.339844 48.015625 20.066406 48.792969 20.570312 L 46.878906 25.421875 C 46.59375 25.367188 46.300781 25.332031 46 25.332031 C 43.996094 25.332031 42.296875 26.609375 41.636719 28.386719 L 37.324219 27.40625 C 37.324219 27.382812 37.332031 27.359375 37.332031 27.332031 C 37.332031 24.761719 35.238281 22.667969 32.667969 22.667969 C 30.09375 22.667969 28 24.761719 28 27.332031 C 28 29.90625 30.09375 32 32.667969 32 C 34.265625 32 35.679688 31.1875 36.519531 29.957031 L 41.472656 31.085938 C 41.964844 33.132812 43.800781 34.667969 46 34.667969 C 48.570312 34.667969 50.667969 32.570312 50.667969 30 C 50.667969 28.691406 50.125 27.515625 49.257812 26.667969 L 51.359375 21.332031 C 53.921875 21.316406 56 19.230469 56 16.667969 C 56 16.636719 55.992188 16.613281 55.992188 16.585938 C 57.058594 16.148438 57.921875 15.679688 58.617188 15.1875 L 58.667969 53.089844 C 58.667969 55.675781 53.058594 58.425781 42.667969 58.425781 C 41.339844 58.425781 40.027344 58.378906 38.761719 58.285156 L 38.570312 60.945312 C 39.898438 61.042969 41.277344 61.089844 42.667969 61.089844 C 54.003906 61.089844 61.332031 57.949219 61.332031 53.089844 Z M 61.277344 11.152344 "/>
</svg>
