<?xml version="1.0" encoding="UTF-8"?>
<svg xmlns="http://www.w3.org/2000/svg" xmlns:xlink="http://www.w3.org/1999/xlink" width="64" height="64" viewBox="0 0 64 64">
<path fill-rule="evenodd" fill="rgb(54.901963%, 30.980393%, 100%)" fill-opacity="1" d="M 23.230469 35.386719 C 23.695312 35.386719 24.355469 35.265625 25.210938 35.027344 L 25.210938 36.691406 C 24.546875 37.003906 23.800781 37.160156 22.972656 37.160156 C 20.148438 37.160156 18.734375 35.375 18.734375 31.800781 C 18.734375 30.035156 19.101562 28.683594 19.839844 27.742188 C 20.574219 26.804688 21.636719 26.335938 23.019531 26.335938 C 23.722656 26.335938 24.414062 26.472656 25.09375 26.746094 L 25.09375 28.410156 C 24.394531 28.199219 23.789062 28.09375 23.273438 28.09375 C 22.480469 28.09375 21.890625 28.371094 21.519531 28.933594 C 21.148438 29.492188 20.960938 30.378906 20.960938 31.589844 L 20.960938 31.9375 C 20.960938 33.128906 21.140625 34 21.503906 34.554688 C 21.867188 35.109375 22.441406 35.386719 23.230469 35.386719 Z M 15.039062 31.890625 C 15.039062 33.074219 14.878906 33.949219 14.554688 34.519531 C 14.234375 35.089844 13.742188 35.375 13.089844 35.375 L 12.195312 35.375 L 12.195312 28.121094 L 13.074219 28.121094 C 13.75 28.121094 14.246094 28.402344 14.5625 28.960938 C 14.882812 29.523438 15.039062 30.398438 15.039062 31.589844 Z M 13.238281 26.503906 L 10.074219 26.503906 L 10.074219 36.992188 L 13.316406 36.992188 C 14.589844 36.992188 15.554688 36.550781 16.222656 35.660156 C 16.886719 34.773438 17.21875 33.464844 17.21875 31.738281 C 17.21875 30.023438 16.882812 28.722656 16.207031 27.835938 C 15.53125 26.945312 14.539062 26.503906 13.238281 26.503906 Z M 49.238281 35.308594 C 48.589844 35.398438 48.082031 35.929688 48.082031 36.605469 L 48.082031 40.578125 L 44.976562 39.539062 L 48.554688 34.308594 Z M 50.746094 45.75 L 58.558594 45.75 L 58.558594 37.9375 L 50.746094 37.9375 Z M 44.925781 52.601562 L 44.925781 49.414062 C 44.925781 48.675781 44.328125 48.082031 43.59375 48.082031 L 39.132812 48.082031 L 43.410156 41.828125 L 48.082031 43.386719 L 48.082031 47.085938 C 48.082031 47.820312 48.675781 48.417969 49.414062 48.417969 L 50.527344 48.417969 C 48.503906 49.953125 46.421875 51.5 44.925781 52.601562 Z M 34.445312 58.558594 L 42.257812 58.558594 L 42.257812 50.746094 L 34.445312 50.746094 Z M 30.78125 42.597656 C 31.519531 42.597656 32.117188 42 32.117188 41.261719 L 32.117188 38.058594 L 40.78125 40.949219 L 35.902344 48.082031 L 33.113281 48.082031 C 32.8125 48.082031 32.546875 48.199219 32.320312 48.367188 L 25.222656 42.597656 Z M 5.332031 39.929688 L 29.449219 39.929688 L 29.449219 23.964844 L 5.332031 23.964844 Z M 32.320312 15.527344 C 32.546875 15.695312 32.8125 15.8125 33.113281 15.8125 L 35.902344 15.8125 L 40.78125 22.945312 L 32.117188 25.835938 L 32.117188 22.632812 C 32.117188 21.894531 31.519531 21.296875 30.78125 21.296875 L 25.222656 21.296875 Z M 34.445312 13.148438 L 42.257812 13.148438 L 42.257812 5.332031 L 34.445312 5.332031 Z M 50.527344 15.476562 L 49.414062 15.476562 C 48.675781 15.476562 48.082031 16.074219 48.082031 16.808594 L 48.082031 20.507812 L 43.410156 22.066406 L 39.132812 15.8125 L 43.59375 15.8125 C 44.328125 15.8125 44.925781 15.21875 44.925781 14.480469 L 44.925781 11.292969 C 46.421875 12.394531 48.503906 13.941406 50.527344 15.476562 Z M 50.746094 25.957031 L 58.558594 25.957031 L 58.558594 18.144531 L 50.746094 18.144531 Z M 44.976562 24.355469 L 48.082031 23.316406 L 48.082031 27.289062 C 48.082031 27.964844 48.589844 28.496094 49.238281 28.585938 L 48.554688 29.585938 Z M 32.117188 28.644531 L 42.34375 25.230469 L 46.941406 31.945312 L 42.34375 38.664062 L 32.117188 35.25 Z M 52.445312 28.621094 L 59.894531 28.621094 C 60.628906 28.621094 61.226562 28.027344 61.226562 27.289062 L 61.226562 16.808594 C 61.226562 16.074219 60.628906 15.476562 59.894531 15.476562 L 54.902344 15.476562 C 51.410156 12.746094 46.535156 9.160156 44.925781 7.980469 L 44.925781 4 C 44.925781 3.261719 44.328125 2.667969 43.59375 2.667969 L 33.113281 2.667969 C 32.375 2.667969 31.777344 3.261719 31.777344 4 L 31.777344 12.527344 L 20.992188 21.296875 L 4 21.296875 C 3.261719 21.296875 2.667969 21.894531 2.667969 22.632812 L 2.667969 41.261719 C 2.667969 42 3.261719 42.597656 4 42.597656 L 20.992188 42.597656 L 31.777344 51.363281 L 31.777344 59.894531 C 31.777344 60.628906 32.375 61.226562 33.113281 61.226562 L 43.59375 61.226562 C 44.328125 61.226562 44.925781 60.628906 44.925781 59.894531 L 44.925781 55.914062 C 46.535156 54.734375 51.410156 51.148438 54.902344 48.417969 L 59.894531 48.417969 C 60.628906 48.417969 61.226562 47.820312 61.226562 47.085938 L 61.226562 36.605469 C 61.226562 35.867188 60.628906 35.273438 59.894531 35.273438 L 52.445312 35.273438 L 50.171875 31.945312 Z M 52.445312 28.621094 "/>
</svg>
