<?xml version="1.0" encoding="UTF-8"?>
<svg xmlns="http://www.w3.org/2000/svg" xmlns:xlink="http://www.w3.org/1999/xlink" width="64" height="64" viewBox="0 0 64 64">
<path fill-rule="evenodd" fill="rgb(54.901963%, 30.980393%, 100%)" fill-opacity="1" d="M 18.667969 45.34375 L 45.332031 45.34375 L 45.332031 18.675781 L 18.667969 18.675781 Z M 46.667969 16.007812 C 47.402344 16.007812 48 16.605469 48 17.34375 L 48 46.675781 C 48 47.410156 47.402344 48.007812 46.667969 48.007812 L 17.332031 48.007812 C 16.597656 48.007812 16 47.410156 16 46.675781 L 16 17.34375 C 16 16.605469 16.597656 16.007812 17.332031 16.007812 Z M 34.390625 39.617188 L 36.277344 37.734375 L 30.550781 32.007812 L 36.277344 26.285156 L 34.390625 24.398438 L 27.722656 31.066406 C 27.203125 31.589844 27.203125 32.429688 27.722656 32.953125 Z M 10.277344 13.734375 L 7.21875 10.675781 L 57.332031 10.675781 L 57.332031 8.007812 L 7.21875 8.007812 L 10.277344 4.953125 L 8.390625 3.066406 L 3.058594 8.398438 C 2.535156 8.921875 2.535156 9.765625 3.058594 10.285156 L 8.390625 15.617188 Z M 60.941406 55.617188 L 55.609375 60.953125 L 53.722656 59.066406 L 56.78125 56.007812 L 6.667969 56.007812 L 6.667969 53.34375 L 56.78125 53.34375 L 53.722656 50.285156 L 55.609375 48.398438 L 60.941406 53.734375 C 61.464844 54.253906 61.464844 55.097656 60.941406 55.617188 Z M 60.941406 55.617188 "/>
</svg>
