<?xml version="1.0" encoding="UTF-8"?>
<svg xmlns="http://www.w3.org/2000/svg" xmlns:xlink="http://www.w3.org/1999/xlink" width="64" height="64" viewBox="0 0 64 64">
<path fill-rule="evenodd" fill="rgb(47.843137%, 63.137257%, 8.627451%)" fill-opacity="1" d="M 50.667969 34.667969 C 49.195312 34.667969 48 33.46875 48 32 C 48 30.53125 49.195312 29.332031 50.667969 29.332031 C 52.136719 29.332031 53.332031 30.53125 53.332031 32 C 53.332031 33.46875 52.136719 34.667969 50.667969 34.667969 Z M 50.667969 26.667969 C 47.726562 26.667969 45.332031 29.058594 45.332031 32 C 45.332031 34.941406 47.726562 37.332031 50.667969 37.332031 C 53.609375 37.332031 56 34.941406 56 32 C 56 29.058594 53.609375 26.667969 50.667969 26.667969 Z M 38.667969 38.667969 L 25.332031 38.667969 L 25.332031 25.332031 L 38.667969 25.332031 Z M 41.332031 30.667969 L 41.332031 22.667969 L 33.332031 22.667969 L 33.332031 18.667969 L 30.667969 18.667969 L 30.667969 22.667969 L 22.667969 22.667969 L 22.667969 30.667969 L 18.667969 30.667969 L 18.667969 33.332031 L 22.667969 33.332031 L 22.667969 41.332031 L 30.667969 41.332031 L 30.667969 45.332031 L 33.332031 45.332031 L 33.332031 41.332031 L 41.332031 41.332031 L 41.332031 33.332031 L 45.332031 33.332031 L 45.332031 30.667969 Z M 13.332031 34.667969 C 11.863281 34.667969 10.667969 33.46875 10.667969 32 C 10.667969 30.53125 11.863281 29.332031 13.332031 29.332031 C 14.804688 29.332031 16 30.53125 16 32 C 16 33.46875 14.804688 34.667969 13.332031 34.667969 Z M 13.332031 26.667969 C 10.390625 26.667969 8 29.058594 8 32 C 8 34.941406 10.390625 37.332031 13.332031 37.332031 C 16.273438 37.332031 18.667969 34.941406 18.667969 32 C 18.667969 29.058594 16.273438 26.667969 13.332031 26.667969 Z M 32 48 C 33.46875 48 34.667969 49.195312 34.667969 50.667969 C 34.667969 52.136719 33.46875 53.332031 32 53.332031 C 30.53125 53.332031 29.332031 52.136719 29.332031 50.667969 C 29.332031 49.195312 30.53125 48 32 48 Z M 26.667969 50.667969 C 26.667969 53.609375 29.058594 56 32 56 C 34.941406 56 37.332031 53.609375 37.332031 50.667969 C 37.332031 47.726562 34.941406 45.332031 32 45.332031 C 29.058594 45.332031 26.667969 47.726562 26.667969 50.667969 Z M 32 16 C 30.53125 16 29.332031 14.804688 29.332031 13.332031 C 29.332031 11.863281 30.53125 10.667969 32 10.667969 C 33.46875 10.667969 34.667969 11.863281 34.667969 13.332031 C 34.667969 14.804688 33.46875 16 32 16 Z M 37.332031 13.332031 C 37.332031 10.390625 34.941406 8 32 8 C 29.058594 8 26.667969 10.390625 26.667969 13.332031 C 26.667969 16.273438 29.058594 18.667969 32 18.667969 C 34.941406 18.667969 37.332031 16.273438 37.332031 13.332031 Z M 32 58 C 17.664062 58 6 46.335938 6 32 C 6 17.664062 17.664062 6 32 6 C 46.335938 6 58 17.664062 58 32 C 58 46.335938 46.335938 58 32 58 Z M 32 3.332031 C 16.191406 3.332031 3.332031 16.191406 3.332031 32 C 3.332031 47.808594 16.191406 60.667969 32 60.667969 C 47.808594 60.667969 60.667969 47.808594 60.667969 32 C 60.667969 16.191406 47.808594 3.332031 32 3.332031 Z M 32 3.332031 "/>
</svg>
