<?xml version="1.0" encoding="UTF-8"?>
<svg xmlns="http://www.w3.org/2000/svg" xmlns:xlink="http://www.w3.org/1999/xlink" width="64" height="64" viewBox="0 0 64 64">
<path fill-rule="evenodd" fill="rgb(47.843137%, 63.137257%, 8.627451%)" fill-opacity="1" d="M 25.332031 33.332031 L 30.667969 33.332031 L 30.667969 30.667969 L 25.332031 30.667969 Z M 17.332031 33.332031 L 22.667969 33.332031 L 22.667969 30.667969 L 17.332031 30.667969 Z M 9.332031 33.332031 L 14.667969 33.332031 L 14.667969 30.667969 L 9.332031 30.667969 Z M 5.332031 38.667969 L 58.667969 38.667969 L 58.667969 25.332031 L 5.332031 25.332031 Z M 47.890625 56 C 46.785156 56 45.890625 55.101562 45.890625 54 C 45.890625 52.898438 46.785156 52 47.890625 52 C 48.992188 52 49.890625 52.898438 49.890625 54 C 49.890625 55.101562 48.992188 56 47.890625 56 Z M 34 56.667969 C 34 57.769531 33.105469 58.667969 32 58.667969 C 30.898438 58.667969 30 57.769531 30 56.667969 C 30 55.5625 30.898438 54.667969 32 54.667969 C 33.105469 54.667969 34 55.5625 34 56.667969 Z M 15.890625 56 C 14.785156 56 13.890625 55.101562 13.890625 54 C 13.890625 52.898438 14.785156 52 15.890625 52 C 16.992188 52 17.890625 52.898438 17.890625 54 C 17.890625 55.101562 16.992188 56 15.890625 56 Z M 14 10 C 14 8.898438 14.894531 8 16 8 C 17.101562 8 18 8.898438 18 10 C 18 11.101562 17.101562 12 16 12 C 14.894531 12 14 11.101562 14 10 Z M 30 7.332031 C 30 6.230469 30.894531 5.332031 32 5.332031 C 33.101562 5.332031 34 6.230469 34 7.332031 C 34 8.4375 33.101562 9.332031 32 9.332031 C 30.894531 9.332031 30 8.4375 30 7.332031 Z M 46 10 C 46 8.898438 46.898438 8 48 8 C 49.105469 8 50 8.898438 50 10 C 50 11.101562 49.105469 12 48 12 C 46.898438 12 46 11.101562 46 10 Z M 60 22.667969 L 44.503906 22.667969 L 48.929688 18.378906 C 49.1875 18.125 49.332031 17.78125 49.332031 17.421875 L 49.332031 14.449219 C 51.253906 13.871094 52.667969 12.105469 52.667969 10 C 52.667969 7.425781 50.574219 5.332031 48 5.332031 C 45.429688 5.332031 43.335938 7.425781 43.335938 10 C 43.335938 12.105469 44.746094 13.871094 46.667969 14.449219 L 46.667969 16.855469 L 40.675781 22.667969 L 33.332031 22.667969 L 33.332031 11.78125 C 35.253906 11.203125 36.664062 9.441406 36.664062 7.332031 C 36.664062 4.761719 34.570312 2.667969 32 2.667969 C 29.425781 2.667969 27.332031 4.761719 27.332031 7.332031 C 27.332031 9.441406 28.746094 11.207031 30.667969 11.78125 L 30.667969 22.667969 L 23.324219 22.667969 L 17.332031 16.855469 L 17.332031 14.449219 C 19.253906 13.871094 20.664062 12.105469 20.664062 10 C 20.664062 7.425781 18.570312 5.332031 16 5.332031 C 13.425781 5.332031 11.332031 7.425781 11.332031 10 C 11.332031 12.105469 12.746094 13.871094 14.667969 14.449219 L 14.667969 17.421875 C 14.667969 17.78125 14.8125 18.125 15.070312 18.378906 L 19.492188 22.667969 L 4 22.667969 C 3.261719 22.667969 2.667969 23.265625 2.667969 24 L 2.667969 40 C 2.667969 40.734375 3.261719 41.332031 4 41.332031 L 20.03125 41.332031 L 15.070312 46.167969 C 14.8125 46.417969 14.667969 46.761719 14.667969 47.121094 L 14.667969 49.515625 C 12.6875 50.058594 11.222656 51.851562 11.222656 54 C 11.222656 56.574219 13.316406 58.667969 15.890625 58.667969 C 18.460938 58.667969 20.554688 56.574219 20.554688 54 C 20.554688 51.933594 19.195312 50.199219 17.332031 49.585938 L 17.332031 47.683594 L 23.851562 41.332031 L 30.667969 41.332031 L 30.667969 52.21875 C 28.746094 52.796875 27.335938 54.558594 27.335938 56.667969 C 27.335938 59.238281 29.429688 61.332031 32 61.332031 C 34.574219 61.332031 36.667969 59.238281 36.667969 56.667969 C 36.667969 54.558594 35.253906 52.792969 33.332031 52.21875 L 33.332031 41.332031 L 40.113281 41.332031 L 46.667969 47.6875 L 46.667969 49.515625 C 44.6875 50.058594 43.222656 51.851562 43.222656 54 C 43.222656 56.574219 45.316406 58.667969 47.890625 58.667969 C 50.460938 58.667969 52.554688 56.574219 52.554688 54 C 52.554688 51.933594 51.195312 50.199219 49.332031 49.585938 L 49.332031 47.121094 C 49.332031 46.761719 49.1875 46.414062 48.929688 46.164062 L 43.945312 41.332031 L 60 41.332031 C 60.738281 41.332031 61.332031 40.734375 61.332031 40 L 61.332031 24 C 61.332031 23.265625 60.738281 22.667969 60 22.667969 Z M 60 22.667969 "/>
</svg>
