<?xml version="1.0" encoding="UTF-8"?>
<svg xmlns="http://www.w3.org/2000/svg" xmlns:xlink="http://www.w3.org/1999/xlink" width="64" height="64" viewBox="0 0 64 64">
<path fill-rule="evenodd" fill="rgb(47.843137%, 63.137257%, 8.627451%)" fill-opacity="1" d="M 43.394531 31.03125 C 43.875 31.546875 43.875 32.34375 43.394531 32.855469 L 25.929688 51.484375 L 23.984375 49.660156 L 40.59375 31.945312 L 23.984375 14.226562 L 25.929688 12.402344 Z M 5.332031 31.945312 C 5.332031 17.269531 17.269531 5.332031 31.945312 5.332031 C 46.617188 5.332031 58.554688 17.269531 58.554688 31.945312 C 58.554688 46.617188 46.617188 58.554688 31.945312 58.554688 C 17.269531 58.554688 5.332031 46.617188 5.332031 31.945312 Z M 2.667969 31.945312 C 2.667969 48.085938 15.800781 61.21875 31.945312 61.21875 C 48.089844 61.21875 61.21875 48.085938 61.21875 31.945312 C 61.21875 15.800781 48.089844 2.667969 31.945312 2.667969 C 15.800781 2.667969 2.667969 15.800781 2.667969 31.945312 Z M 2.667969 31.945312 "/>
</svg>
