<?xml version="1.0" encoding="UTF-8"?>
<svg xmlns="http://www.w3.org/2000/svg" xmlns:xlink="http://www.w3.org/1999/xlink" width="64" height="64" viewBox="0 0 64 64">
<path fill-rule="evenodd" fill="rgb(47.843137%, 63.137257%, 8.627451%)" fill-opacity="1" d="M 12 32 C 12 30.53125 10.804688 29.332031 9.332031 29.332031 C 7.863281 29.332031 6.667969 30.53125 6.667969 32 C 6.667969 33.46875 7.863281 34.667969 9.332031 34.667969 C 10.804688 34.667969 12 33.46875 12 32 Z M 56 29.332031 C 54.53125 29.332031 53.332031 30.53125 53.332031 32 C 53.332031 33.46875 54.53125 34.667969 56 34.667969 C 57.46875 34.667969 58.667969 33.46875 58.667969 32 C 58.667969 30.53125 57.46875 29.332031 56 29.332031 Z M 32.601562 56 C 31.132812 56 29.9375 57.195312 29.9375 58.667969 C 29.9375 60.136719 31.132812 61.332031 32.601562 61.332031 C 34.074219 61.332031 35.269531 60.136719 35.269531 58.667969 C 35.269531 57.195312 34.074219 56 32.601562 56 Z M 32.601562 8 C 34.074219 8 35.269531 6.804688 35.269531 5.332031 C 35.269531 3.863281 34.074219 2.667969 32.601562 2.667969 C 31.132812 2.667969 29.9375 3.863281 29.9375 5.332031 C 29.9375 6.804688 31.132812 8 32.601562 8 Z M 35.4375 22.257812 L 27.296875 40.441406 L 29.730469 41.53125 L 37.871094 23.347656 Z M 40.253906 37.070312 L 46.429688 32.566406 C 46.742188 32.335938 46.941406 31.984375 46.972656 31.597656 C 47.003906 31.210938 46.863281 30.828125 46.589844 30.550781 L 41.167969 25.050781 L 39.269531 26.921875 L 43.605469 31.324219 L 38.679688 34.917969 Z M 24.917969 24.882812 L 18.667969 29.445312 C 18.351562 29.671875 18.15625 30.027344 18.125 30.414062 C 18.09375 30.800781 18.230469 31.179688 18.503906 31.457031 L 23.949219 36.960938 L 25.84375 35.085938 L 21.492188 30.683594 L 26.488281 27.035156 Z M 54.667969 26.667969 L 57.332031 26.667969 L 57.332031 18.886719 C 57.332031 18.410156 57.082031 17.972656 56.667969 17.734375 L 37.386719 6.554688 L 36.046875 8.863281 L 54.667969 19.65625 Z M 54.667969 44.828125 L 36.085938 55.480469 L 37.414062 57.796875 L 56.664062 46.757812 C 57.078125 46.519531 57.332031 46.078125 57.332031 45.601562 L 57.332031 37.332031 L 54.667969 37.332031 Z M 10.664062 37.332031 L 8 37.332031 L 8 45.34375 C 8 45.816406 8.246094 46.253906 8.652344 46.492188 L 27.597656 57.6875 L 28.953125 55.390625 L 10.664062 44.585938 Z M 10.664062 26.667969 L 8 26.667969 L 8 18.632812 C 8 18.15625 8.253906 17.714844 8.667969 17.476562 L 27.664062 6.554688 L 28.992188 8.867188 L 10.664062 19.402344 Z M 10.664062 26.667969 "/>
</svg>
