<?xml version="1.0" encoding="UTF-8"?>
<svg xmlns="http://www.w3.org/2000/svg" xmlns:xlink="http://www.w3.org/1999/xlink" width="64" height="64" viewBox="0 0 64 64">
<path fill-rule="evenodd" fill="rgb(47.843137%, 63.137257%, 8.627451%)" fill-opacity="1" d="M 38.027344 42.375 C 38.027344 43.277344 38.753906 44.007812 39.65625 44.007812 C 40.558594 44.007812 41.289062 43.277344 41.289062 42.375 C 41.289062 41.472656 40.558594 40.742188 39.65625 40.742188 C 38.753906 40.742188 38.027344 41.472656 38.027344 42.375 Z M 55.195312 41.960938 L 54.304688 41.960938 C 53.984375 41.960938 53.679688 41.847656 53.433594 41.636719 L 52.894531 41.171875 L 52.351562 41.636719 C 52.109375 41.847656 51.796875 41.960938 51.480469 41.960938 L 50.535156 41.960938 C 50.21875 41.960938 49.910156 41.847656 49.667969 41.636719 L 49.125 41.171875 L 48.578125 41.636719 C 48.339844 41.847656 48.027344 41.960938 47.710938 41.960938 L 46.039062 41.960938 C 45.472656 41.960938 44.96875 41.605469 44.78125 41.070312 C 44.242188 39.535156 42.636719 38.464844 40.878906 38.464844 C 38.628906 38.464844 36.796875 40.21875 36.796875 42.375 C 36.796875 44.53125 38.628906 46.285156 40.878906 46.285156 C 42.636719 46.285156 44.242188 45.214844 44.78125 43.679688 C 44.96875 43.148438 45.472656 42.789062 46.039062 42.789062 L 55.554688 42.789062 L 55.785156 42.503906 Z M 57.226562 44.960938 C 56.972656 45.273438 56.589844 45.457031 56.1875 45.457031 L 46.898438 45.457031 C 45.75 47.554688 43.40625 48.953125 40.878906 48.953125 C 37.15625 48.953125 34.128906 46.003906 34.128906 42.375 C 34.128906 38.75 37.15625 35.796875 40.878906 35.796875 C 43.40625 35.796875 45.75 37.195312 46.898438 39.292969 L 47.214844 39.292969 L 48.253906 38.402344 C 48.753906 37.972656 49.492188 37.972656 49.992188 38.402344 L 51.007812 39.273438 L 52.023438 38.402344 C 52.523438 37.972656 53.261719 37.972656 53.761719 38.402344 L 54.800781 39.292969 L 55.71875 39.292969 C 56.054688 39.292969 56.378906 39.421875 56.625 39.648438 L 58.511719 41.398438 C 58.542969 41.425781 58.554688 41.46875 58.585938 41.5 C 58.417969 34.667969 52.820312 29.160156 45.949219 29.160156 C 38.972656 29.160156 33.300781 34.832031 33.300781 41.808594 C 33.300781 48.785156 38.972656 54.460938 45.949219 54.460938 C 52.386719 54.460938 57.703125 49.625 58.488281 43.398438 Z M 45.949219 57.125 C 37.503906 57.125 30.632812 50.253906 30.632812 41.808594 C 30.632812 33.363281 37.503906 26.492188 45.949219 26.492188 C 54.398438 26.492188 61.265625 33.363281 61.265625 41.808594 C 61.265625 50.253906 54.398438 57.125 45.949219 57.125 Z M 11.582031 47.375 C 11.832031 47.636719 12.183594 47.789062 12.546875 47.789062 C 12.910156 47.789062 13.257812 47.636719 13.511719 47.375 L 21.28125 39.214844 L 19.347656 37.378906 L 12.546875 44.519531 L 9.625 41.457031 L 7.695312 43.292969 Z M 10.769531 34.578125 L 13.90625 31.441406 L 17.039062 34.578125 L 18.925781 32.691406 L 15.789062 29.558594 L 18.925781 26.421875 L 17.039062 24.535156 L 13.90625 27.671875 L 10.769531 24.535156 L 8.882812 26.421875 L 12.019531 29.558594 L 8.882812 32.691406 Z M 10.769531 21.761719 L 13.90625 18.625 L 17.039062 21.761719 L 18.925781 19.875 L 15.789062 16.738281 L 18.925781 13.601562 L 17.039062 11.71875 L 13.90625 14.855469 L 10.769531 11.71875 L 8.882812 13.601562 L 12.019531 16.738281 L 8.882812 19.875 Z M 30.488281 48.617188 L 30.488281 51.28125 L 5.539062 51.28125 C 3.957031 51.28125 2.667969 49.992188 2.667969 48.410156 L 2.667969 9.539062 C 2.667969 7.953125 3.957031 6.667969 5.539062 6.667969 L 33.925781 6.667969 C 35.507812 6.667969 36.796875 7.953125 36.796875 9.539062 L 36.796875 27.820312 L 34.128906 27.820312 L 34.128906 9.539062 C 34.128906 9.421875 34.039062 9.332031 33.925781 9.332031 L 5.539062 9.332031 C 5.421875 9.332031 5.335938 9.421875 5.335938 9.539062 L 5.335938 48.410156 C 5.335938 48.527344 5.421875 48.617188 5.539062 48.617188 Z M 30.488281 48.617188 "/>
</svg>
