<?xml version="1.0" encoding="UTF-8"?>
<svg xmlns="http://www.w3.org/2000/svg" xmlns:xlink="http://www.w3.org/1999/xlink" width="64" height="64" viewBox="0 0 64 64">
<path fill-rule="evenodd" fill="rgb(47.843137%, 63.137257%, 8.627451%)" fill-opacity="1" d="M 29.332031 44 L 32 44 L 32 20 L 29.332031 20 Z M 41.332031 40 C 40.230469 40 39.332031 39.101562 39.332031 38 C 39.332031 36.894531 40.230469 36 41.332031 36 C 42.4375 36 43.332031 36.894531 43.332031 38 C 43.332031 39.101562 42.4375 40 41.332031 40 Z M 43.765625 34.035156 C 43.054688 33.597656 42.226562 33.332031 41.332031 33.332031 C 38.761719 33.332031 36.667969 35.425781 36.667969 38 C 36.667969 40.105469 38.078125 41.871094 40 42.449219 L 40 48 L 42.667969 48 L 42.667969 42.449219 C 44.585938 41.871094 46 40.105469 46 38 C 46 37.316406 45.84375 36.667969 45.578125 36.085938 L 50.800781 28.773438 L 48.628906 27.222656 Z M 41.332031 24 C 42.4375 24 43.332031 24.894531 43.332031 26 C 43.332031 27.101562 42.4375 28 41.332031 28 C 40.230469 28 39.332031 27.101562 39.332031 26 C 39.332031 24.894531 40.230469 24 41.332031 24 Z M 41.332031 30.667969 C 43.90625 30.667969 46 28.570312 46 26 C 46 23.890625 44.585938 22.128906 42.667969 21.550781 L 42.667969 16 L 40 16 L 40 21.550781 C 38.078125 22.128906 36.667969 23.890625 36.667969 26 C 36.667969 28.570312 38.761719 30.667969 41.332031 30.667969 Z M 24.648438 28.484375 C 25.898438 29.355469 26.667969 30.585938 26.667969 31.96875 C 26.667969 33.351562 25.898438 34.582031 24.648438 35.453125 C 25.898438 36.324219 26.667969 37.554688 26.667969 38.9375 C 26.667969 41.308594 24.410156 43.230469 21.332031 43.664062 L 21.332031 48 L 18.667969 48 L 18.667969 42.425781 C 18.667969 41.6875 19.261719 41.089844 20 41.089844 C 22.289062 41.089844 24 39.953125 24 38.9375 C 24 37.921875 22.289062 36.785156 20 36.785156 C 19.261719 36.785156 18.667969 36.191406 18.667969 35.453125 C 18.667969 34.71875 19.261719 34.121094 20 34.121094 C 22.289062 34.121094 24 32.984375 24 31.96875 C 24 30.953125 22.289062 29.816406 20 29.816406 C 19.261719 29.816406 18.667969 29.222656 18.667969 28.484375 C 18.667969 27.746094 19.261719 27.152344 20 27.152344 C 22.289062 27.152344 24 26.015625 24 25 C 24 23.984375 22.289062 22.847656 20 22.847656 C 19.261719 22.847656 18.667969 22.25 18.667969 21.515625 L 18.667969 16 L 21.332031 16 L 21.332031 20.273438 C 24.410156 20.707031 26.667969 22.628906 26.667969 25 C 26.667969 26.382812 25.898438 27.613281 24.648438 28.484375 Z M 52 50.488281 C 52 51.320312 51.320312 52 50.488281 52 L 13.511719 52 C 12.679688 52 12 51.320312 12 50.488281 L 12 13.511719 C 12 12.679688 12.679688 12 13.511719 12 L 50.488281 12 C 51.320312 12 52 12.679688 52 13.511719 Z M 61.332031 20 L 61.332031 17.332031 L 54.667969 17.332031 L 54.667969 13.511719 C 54.667969 11.207031 52.792969 9.332031 50.488281 9.332031 L 46.667969 9.332031 L 46.667969 2.667969 L 44 2.667969 L 44 9.332031 L 40 9.332031 L 40 2.667969 L 37.332031 2.667969 L 37.332031 9.332031 L 33.332031 9.332031 L 33.332031 2.667969 L 30.667969 2.667969 L 30.667969 9.332031 L 26.667969 9.332031 L 26.667969 2.667969 L 24 2.667969 L 24 9.332031 L 20 9.332031 L 20 2.667969 L 17.332031 2.667969 L 17.332031 9.332031 L 13.511719 9.332031 C 11.207031 9.332031 9.332031 11.207031 9.332031 13.511719 L 9.332031 17.332031 L 2.667969 17.332031 L 2.667969 20 L 9.332031 20 L 9.332031 24 L 2.667969 24 L 2.667969 26.667969 L 9.332031 26.667969 L 9.332031 30.667969 L 2.667969 30.667969 L 2.667969 33.332031 L 9.332031 33.332031 L 9.332031 37.332031 L 2.667969 37.332031 L 2.667969 40 L 9.332031 40 L 9.332031 44 L 2.667969 44 L 2.667969 46.667969 L 9.332031 46.667969 L 9.332031 50.488281 C 9.332031 52.792969 11.207031 54.667969 13.511719 54.667969 L 17.332031 54.667969 L 17.332031 61.332031 L 20 61.332031 L 20 54.667969 L 24 54.667969 L 24 61.332031 L 26.667969 61.332031 L 26.667969 54.667969 L 30.667969 54.667969 L 30.667969 61.332031 L 33.332031 61.332031 L 33.332031 54.667969 L 37.332031 54.667969 L 37.332031 61.332031 L 40 61.332031 L 40 54.667969 L 44 54.667969 L 44 61.332031 L 46.667969 61.332031 L 46.667969 54.667969 L 50.488281 54.667969 C 52.792969 54.667969 54.667969 52.792969 54.667969 50.488281 L 54.667969 46.667969 L 61.332031 46.667969 L 61.332031 44 L 54.667969 44 L 54.667969 40 L 61.332031 40 L 61.332031 37.332031 L 54.667969 37.332031 L 54.667969 33.332031 L 61.332031 33.332031 L 61.332031 30.667969 L 54.667969 30.667969 L 54.667969 26.667969 L 61.332031 26.667969 L 61.332031 24 L 54.667969 24 L 54.667969 20 Z M 61.332031 20 "/>
</svg>
