<?xml version="1.0" encoding="UTF-8"?>
<svg xmlns="http://www.w3.org/2000/svg" xmlns:xlink="http://www.w3.org/1999/xlink" width="64" height="64" viewBox="0 0 64 64">
<path fill-rule="evenodd" fill="rgb(47.843137%, 63.137257%, 8.627451%)" fill-opacity="1" d="M 38.746094 58.667969 C 37.402344 58.667969 35.925781 58.289062 34.269531 57.535156 C 36.582031 55.554688 38.746094 52.554688 39.792969 49.785156 C 41.820312 49.03125 43.28125 47.089844 43.28125 44.800781 C 43.28125 44.34375 43.203125 43.910156 43.097656 43.488281 C 44.867188 41.332031 45.980469 38.746094 46.339844 35.988281 C 49.316406 38.332031 51.117188 41.945312 51.117188 45.785156 C 51.117188 52.769531 45.453125 58.667969 38.746094 58.667969 Z M 12.878906 45.785156 C 12.878906 41.902344 14.300781 38.585938 16.804688 36.34375 C 17.210938 38.953125 18.308594 41.410156 20 43.476562 C 19.890625 43.902344 19.8125 44.339844 19.8125 44.800781 C 19.8125 47.09375 21.273438 49.035156 23.308594 49.785156 C 24.339844 52.433594 26.675781 55.46875 29.175781 57.519531 C 27.667969 58.160156 25.917969 58.667969 24.347656 58.667969 C 17.808594 58.667969 12.878906 53.128906 12.878906 45.785156 Z M 31.554688 21.332031 C 37.3125 21.332031 42.355469 25.789062 43.542969 31.476562 C 41.183594 30.667969 38.632812 30.460938 36.113281 30.886719 C 35.183594 29.328125 33.492188 28.265625 31.546875 28.265625 C 29.628906 28.265625 27.957031 29.296875 27.015625 30.820312 C 24.464844 30.457031 21.890625 30.75 19.523438 31.640625 C 20.65625 25.871094 25.738281 21.332031 31.554688 21.332031 Z M 41.652344 40.980469 C 40.84375 40.195312 39.789062 39.683594 38.613281 39.535156 C 38.027344 38.242188 37.25 37.03125 36.316406 35.941406 C 36.667969 35.230469 36.878906 34.445312 36.878906 33.601562 C 36.878906 33.550781 36.867188 33.507812 36.867188 33.460938 C 39.25 33.117188 41.652344 33.460938 43.796875 34.433594 C 43.722656 36.800781 42.976562 39.058594 41.652344 40.980469 Z M 37.945312 47.464844 C 36.476562 47.464844 35.28125 46.269531 35.28125 44.800781 C 35.28125 43.328125 36.476562 42.132812 37.945312 42.132812 C 39.417969 42.132812 40.613281 43.328125 40.613281 44.800781 C 40.613281 46.269531 39.417969 47.464844 37.945312 47.464844 Z M 25.148438 42.132812 C 26.617188 42.132812 27.8125 43.328125 27.8125 44.800781 C 27.8125 46.269531 26.617188 47.464844 25.148438 47.464844 C 23.675781 47.464844 22.480469 46.269531 22.480469 44.800781 C 22.480469 43.328125 23.675781 42.132812 25.148438 42.132812 Z M 26.945312 36.246094 C 26.132812 37.246094 25.449219 38.335938 24.917969 39.488281 C 23.574219 39.546875 22.355469 40.09375 21.449219 40.972656 C 20.160156 39.101562 19.417969 36.917969 19.308594 34.636719 C 21.433594 33.578125 23.832031 33.144531 26.234375 33.410156 C 26.230469 33.472656 26.214844 33.535156 26.214844 33.601562 C 26.214844 34.566406 26.492188 35.464844 26.945312 36.246094 Z M 31.546875 36.265625 C 30.078125 36.265625 28.878906 35.070312 28.878906 33.601562 C 28.878906 32.128906 30.078125 30.933594 31.546875 30.933594 C 33.015625 30.933594 34.214844 32.128906 34.214844 33.601562 C 34.214844 35.070312 33.015625 36.265625 31.546875 36.265625 Z M 32.613281 44.800781 C 32.613281 45.390625 32.734375 45.949219 32.910156 46.480469 C 32.015625 46.5625 31.09375 46.550781 30.195312 46.4375 C 30.367188 45.917969 30.480469 45.375 30.480469 44.800781 C 30.480469 42.742188 29.300781 40.976562 27.589844 40.085938 C 27.941406 39.410156 28.347656 38.765625 28.820312 38.160156 C 29.621094 38.640625 30.546875 38.933594 31.546875 38.933594 C 32.664062 38.933594 33.699219 38.585938 34.558594 37.996094 C 35.042969 38.597656 35.472656 39.234375 35.835938 39.90625 C 33.941406 40.726562 32.613281 42.609375 32.613281 44.800781 Z M 31.753906 56.128906 C 29.699219 54.714844 27.542969 52.242188 26.332031 49.988281 C 27.175781 49.796875 27.929688 49.398438 28.566406 48.855469 C 29.597656 49.089844 30.667969 49.214844 31.761719 49.214844 C 32.738281 49.214844 33.683594 49.101562 34.597656 48.917969 C 35.234375 49.433594 35.972656 49.820312 36.796875 50 C 35.636719 52.363281 33.664062 54.773438 31.753906 56.128906 Z M 46.417969 32.816406 C 45.792969 24.929688 39.324219 18.667969 31.554688 18.667969 C 23.6875 18.667969 17.152344 25.078125 16.660156 33.109375 C 12.621094 35.765625 10.214844 40.429688 10.214844 45.785156 C 10.214844 54.503906 16.421875 61.332031 24.347656 61.332031 C 27.347656 61.332031 30.296875 60.011719 31.753906 59.25 C 34.324219 60.644531 36.625 61.332031 38.746094 61.332031 C 46.898438 61.332031 53.78125 54.214844 53.78125 45.785156 C 53.78125 40.484375 50.960938 35.542969 46.417969 32.816406 Z M 18.664062 10.667969 L 21.332031 10.667969 L 21.332031 8 L 18.664062 8 Z M 13.332031 10.667969 L 15.996094 10.667969 L 15.996094 8 L 13.332031 8 Z M 8 10.667969 L 10.664062 10.667969 L 10.664062 8 L 8 8 Z M 5.332031 13.335938 L 58.667969 13.335938 L 58.667969 5.332031 L 5.332031 5.332031 Z M 60 2.667969 L 4 2.667969 C 3.261719 2.667969 2.667969 3.265625 2.667969 4 L 2.667969 45.332031 C 2.667969 46.070312 3.261719 46.667969 4 46.667969 L 8 46.667969 L 8 44 L 5.332031 44 L 5.332031 16 L 58.667969 16 L 58.667969 44 L 56 44 L 56 46.667969 L 60 46.667969 C 60.738281 46.667969 61.332031 46.070312 61.332031 45.332031 L 61.332031 4 C 61.332031 3.265625 60.738281 2.667969 60 2.667969 Z M 60 2.667969 "/>
</svg>
