<?xml version="1.0" encoding="UTF-8"?>
<svg xmlns="http://www.w3.org/2000/svg" xmlns:xlink="http://www.w3.org/1999/xlink" width="64" height="64" viewBox="0 0 64 64">
<path fill-rule="evenodd" fill="rgb(47.843137%, 63.137257%, 8.627451%)" fill-opacity="1" d="M 49.378906 37.660156 L 48.105469 37.660156 C 47.515625 35.511719 45.566406 33.921875 43.234375 33.921875 C 40.902344 33.921875 38.953125 35.511719 38.363281 37.660156 L 27.460938 37.660156 C 26.871094 35.511719 24.921875 33.921875 22.589844 33.921875 C 20.257812 33.921875 18.304688 35.511719 17.714844 37.660156 L 16.890625 37.660156 L 16.890625 33.804688 C 16.890625 33.597656 17.03125 33.441406 17.15625 33.433594 C 17.25 33.425781 17.347656 33.40625 17.441406 33.378906 L 25.839844 30.753906 C 26.574219 30.484375 27.117188 29.851562 27.285156 29.089844 L 28.949219 24.035156 C 28.972656 23.957031 29.042969 23.921875 29.097656 23.921875 L 41.703125 23.921875 C 41.90625 23.921875 42.09375 24.035156 42.15625 24.144531 L 45.28125 30.902344 C 45.460938 31.289062 45.8125 31.570312 46.230469 31.652344 C 48.40625 32.085938 49.378906 33.363281 49.378906 35.785156 Z M 40.828125 38.996094 C 40.828125 37.667969 41.90625 36.589844 43.234375 36.589844 C 44.5625 36.589844 45.640625 37.667969 45.640625 38.996094 C 45.640625 40.320312 44.5625 41.402344 43.234375 41.402344 C 41.90625 41.402344 40.828125 40.320312 40.828125 38.996094 Z M 20.183594 38.996094 C 20.183594 37.667969 21.261719 36.589844 22.589844 36.589844 C 23.914062 36.589844 24.996094 37.667969 24.996094 38.996094 C 24.996094 40.320312 23.914062 41.402344 22.589844 41.402344 C 21.261719 41.402344 20.183594 40.320312 20.183594 38.996094 Z M 44.539062 22.945312 C 43.96875 21.902344 42.882812 21.253906 41.703125 21.253906 L 29.097656 21.253906 C 27.875 21.253906 26.796875 22.039062 26.414062 23.203125 L 24.734375 28.308594 L 16.761719 30.792969 C 15.328125 31.003906 14.222656 32.292969 14.222656 33.804688 L 14.222656 36.488281 L 12.042969 36.488281 L 12.042969 39.15625 L 14.414062 39.15625 C 14.730469 39.847656 15.421875 40.328125 16.226562 40.328125 L 17.714844 40.328125 C 18.304688 42.476562 20.257812 44.066406 22.589844 44.066406 C 24.921875 44.066406 26.871094 42.476562 27.460938 40.328125 L 38.363281 40.328125 C 38.953125 42.476562 40.902344 44.066406 43.234375 44.066406 C 45.566406 44.066406 47.515625 42.476562 48.105469 40.328125 L 50.054688 40.328125 C 51.152344 40.328125 52.046875 39.425781 52.046875 38.316406 L 52.046875 35.785156 C 52.046875 32.367188 50.414062 30.054688 47.429688 29.203125 Z M 52.894531 51.382812 C 52.894531 52.21875 52.214844 52.894531 51.378906 52.894531 L 12.546875 52.894531 C 11.710938 52.894531 11.035156 52.21875 11.035156 51.382812 L 11.035156 12.5625 C 11.035156 11.730469 11.710938 11.050781 12.546875 11.050781 L 51.382812 11.050781 C 52.214844 11.050781 52.894531 11.730469 52.894531 12.5625 Z M 61.261719 19.234375 L 61.261719 16.566406 L 55.5625 16.566406 L 55.5625 12.5625 C 55.5625 10.257812 53.683594 8.382812 51.382812 8.382812 L 47.359375 8.382812 L 47.359375 2.667969 L 44.691406 2.667969 L 44.691406 8.382812 L 40.328125 8.382812 L 40.328125 2.667969 L 37.660156 2.667969 L 37.660156 8.382812 L 33.296875 8.382812 L 33.296875 2.667969 L 30.628906 2.667969 L 30.628906 8.382812 L 26.265625 8.382812 L 26.265625 2.667969 L 23.597656 2.667969 L 23.597656 8.382812 L 19.234375 8.382812 L 19.234375 2.667969 L 16.566406 2.667969 L 16.566406 8.382812 L 12.546875 8.382812 C 10.242188 8.382812 8.367188 10.257812 8.367188 12.5625 L 8.367188 16.566406 L 2.667969 16.566406 L 2.667969 19.234375 L 8.367188 19.234375 L 8.367188 23.597656 L 2.667969 23.597656 L 2.667969 26.265625 L 8.367188 26.265625 L 8.367188 30.628906 L 2.667969 30.628906 L 2.667969 33.296875 L 8.367188 33.296875 L 8.367188 37.660156 L 2.667969 37.660156 L 2.667969 40.328125 L 8.367188 40.328125 L 8.367188 44.691406 L 2.667969 44.691406 L 2.667969 47.359375 L 8.367188 47.359375 L 8.367188 51.382812 C 8.367188 53.6875 10.242188 55.5625 12.546875 55.5625 L 16.566406 55.5625 L 16.566406 61.261719 L 19.234375 61.261719 L 19.234375 55.5625 L 23.597656 55.5625 L 23.597656 61.261719 L 26.265625 61.261719 L 26.265625 55.5625 L 30.628906 55.5625 L 30.628906 61.261719 L 33.296875 61.261719 L 33.296875 55.5625 L 37.660156 55.5625 L 37.660156 61.261719 L 40.328125 61.261719 L 40.328125 55.5625 L 44.691406 55.5625 L 44.691406 61.261719 L 47.359375 61.261719 L 47.359375 55.5625 L 51.378906 55.5625 C 53.683594 55.5625 55.5625 53.6875 55.5625 51.382812 L 55.5625 47.359375 L 61.261719 47.359375 L 61.261719 44.691406 L 55.5625 44.691406 L 55.5625 40.328125 L 61.261719 40.328125 L 61.261719 37.660156 L 55.5625 37.660156 L 55.5625 33.296875 L 61.261719 33.296875 L 61.261719 30.628906 L 55.5625 30.628906 L 55.5625 26.265625 L 61.261719 26.265625 L 61.261719 23.597656 L 55.5625 23.597656 L 55.5625 19.234375 Z M 61.261719 19.234375 "/>
</svg>
