<?xml version="1.0" encoding="UTF-8"?>
<svg xmlns="http://www.w3.org/2000/svg" xmlns:xlink="http://www.w3.org/1999/xlink" width="64" height="64" viewBox="0 0 64 64">
<path fill-rule="evenodd" fill="rgb(47.843137%, 63.137257%, 8.627451%)" fill-opacity="1" d="M 47.25 48.074219 L 51.566406 48.074219 L 51.566406 43.753906 L 47.25 43.753906 Z M 54.234375 49.40625 C 54.234375 50.144531 53.636719 50.742188 52.902344 50.742188 L 45.914062 50.742188 C 45.179688 50.742188 44.582031 50.144531 44.582031 49.40625 L 44.582031 42.421875 C 44.582031 41.683594 45.179688 41.089844 45.914062 41.089844 L 52.902344 41.089844 C 53.636719 41.089844 54.234375 41.683594 54.234375 42.421875 Z M 30.804688 48.074219 L 33.082031 48.074219 L 31.941406 46.175781 Z M 27.308594 48.722656 L 30.800781 42.898438 C 31.28125 42.097656 32.605469 42.097656 33.085938 42.898438 L 36.578125 48.722656 C 36.828125 49.132812 36.832031 49.644531 36.597656 50.0625 C 36.359375 50.484375 35.917969 50.742188 35.4375 50.742188 L 28.449219 50.742188 C 27.96875 50.742188 27.527344 50.484375 27.289062 50.066406 C 27.054688 49.648438 27.058594 49.132812 27.308594 48.722656 Z M 14.480469 48.074219 C 15.347656 48.074219 16.054688 47.367188 16.054688 46.496094 C 16.054688 45.625 15.347656 44.917969 14.480469 44.917969 C 13.609375 44.917969 12.902344 45.625 12.902344 46.496094 C 12.902344 47.367188 13.609375 48.074219 14.480469 48.074219 Z M 14.480469 42.253906 C 16.820312 42.253906 18.722656 44.15625 18.722656 46.496094 C 18.722656 48.835938 16.820312 50.742188 14.480469 50.742188 C 12.136719 50.742188 10.234375 48.835938 10.234375 46.496094 C 10.234375 44.15625 12.136719 42.253906 14.480469 42.253906 Z M 43.757812 52.730469 L 55.0625 52.730469 L 55.0625 20.46875 L 43.757812 20.46875 Z M 41.089844 19.136719 C 41.089844 18.398438 41.683594 17.800781 42.421875 17.800781 L 56.394531 17.800781 C 57.128906 17.800781 57.726562 18.398438 57.726562 19.136719 L 57.726562 54.066406 C 57.726562 54.800781 57.128906 55.398438 56.394531 55.398438 L 42.421875 55.398438 C 41.683594 55.398438 41.089844 54.800781 41.089844 54.066406 Z M 26.292969 52.730469 L 37.597656 52.730469 L 37.597656 13.484375 L 26.292969 13.484375 Z M 24.957031 55.398438 C 24.21875 55.398438 23.625 54.800781 23.625 54.066406 L 23.625 12.148438 C 23.625 11.414062 24.21875 10.816406 24.957031 10.816406 L 38.929688 10.816406 C 39.667969 10.816406 40.265625 11.414062 40.265625 12.148438 L 40.265625 54.066406 C 40.265625 54.800781 39.667969 55.398438 38.929688 55.398438 Z M 8.828125 52.730469 L 20.132812 52.730469 L 20.132812 29.785156 L 8.828125 29.785156 Z M 22.796875 54.066406 C 22.796875 54.800781 22.203125 55.398438 21.464844 55.398438 L 7.496094 55.398438 C 6.757812 55.398438 6.160156 54.800781 6.160156 54.066406 L 6.160156 28.449219 C 6.160156 27.714844 6.757812 27.117188 7.496094 27.117188 L 21.464844 27.117188 C 22.203125 27.117188 22.796875 27.714844 22.796875 28.449219 Z M 30.980469 61.21875 L 36.390625 61.21875 L 36.390625 58.550781 L 30.980469 58.550781 Z M 22.867188 61.21875 L 28.277344 61.21875 L 28.277344 58.550781 L 22.867188 58.550781 Z M 39.097656 61.21875 L 44.507812 61.21875 L 44.507812 58.550781 L 39.097656 58.550781 Z M 58.554688 36.898438 L 61.21875 36.898438 L 61.21875 31.488281 L 58.554688 31.488281 Z M 58.554688 28.785156 L 61.21875 28.785156 L 61.21875 23.375 L 58.554688 23.375 Z M 58.554688 20.667969 L 61.21875 20.667969 L 61.21875 15.257812 L 58.554688 15.257812 Z M 57.625 8.078125 C 58.234375 9.03125 58.554688 10.128906 58.554688 11.265625 L 58.554688 12.550781 L 61.21875 12.550781 L 61.21875 11.265625 C 61.21875 9.621094 60.753906 8.023438 59.875 6.644531 Z M 58.554688 52.621094 C 58.554688 52.761719 58.550781 52.898438 58.539062 53.039062 L 61.199219 53.222656 C 61.214844 53.023438 61.21875 52.824219 61.21875 52.621094 L 61.21875 47.71875 L 58.554688 47.71875 Z M 55.84375 60.59375 C 57.851562 59.78125 59.464844 58.257812 60.394531 56.300781 L 57.988281 55.160156 C 57.34375 56.507812 56.230469 57.5625 54.84375 58.121094 Z M 47.214844 58.550781 L 47.214844 61.21875 L 52.707031 61.21875 L 52.621094 58.550781 Z M 58.554688 45.015625 L 61.21875 45.015625 L 61.21875 39.605469 L 58.554688 39.605469 Z M 14.75 61.21875 L 20.160156 61.21875 L 20.160156 58.550781 L 14.75 58.550781 Z M 8.09375 3.273438 C 6.078125 4.070312 4.453125 5.585938 3.511719 7.539062 L 5.917969 8.691406 C 6.566406 7.347656 7.6875 6.300781 9.074219 5.75 Z M 16.632812 5.332031 L 16.632812 2.667969 L 11.226562 2.667969 L 11.222656 2.867188 L 11.265625 5.332031 Z M 27.453125 5.332031 L 32.863281 5.332031 L 32.863281 2.667969 L 27.453125 2.667969 Z M 6.152344 59.53125 C 7.640625 60.636719 9.40625 61.21875 11.265625 61.21875 L 12.046875 61.21875 L 12.046875 58.550781 L 11.265625 58.550781 C 9.984375 58.550781 8.765625 58.148438 7.734375 57.390625 Z M 57.699219 4.324219 C 56.21875 3.238281 54.460938 2.667969 52.621094 2.667969 L 51.800781 2.667969 L 51.800781 5.332031 L 52.621094 5.332031 C 53.890625 5.332031 55.101562 5.726562 56.121094 6.476562 Z M 5.332031 11.265625 C 5.332031 11.113281 5.339844 10.964844 5.351562 10.816406 L 2.691406 10.609375 C 2.675781 10.824219 2.667969 11.042969 2.667969 11.265625 L 2.667969 16.121094 L 5.332031 16.121094 Z M 35.570312 5.332031 L 40.980469 5.332031 L 40.980469 2.667969 L 35.570312 2.667969 Z M 43.683594 5.332031 L 49.09375 5.332031 L 49.09375 2.667969 L 43.683594 2.667969 Z M 19.335938 5.332031 L 24.746094 5.332031 L 24.746094 2.667969 L 19.335938 2.667969 Z M 2.667969 32.355469 L 5.332031 32.355469 L 5.332031 26.945312 L 2.667969 26.945312 Z M 5.332031 51.289062 L 2.667969 51.289062 L 2.667969 52.621094 C 2.667969 54.246094 3.121094 55.832031 3.988281 57.199219 L 6.242188 55.777344 C 5.648438 54.835938 5.332031 53.742188 5.332031 52.621094 Z M 2.667969 40.46875 L 5.332031 40.46875 L 5.332031 35.058594 L 2.667969 35.058594 Z M 2.667969 24.238281 L 5.332031 24.238281 L 5.332031 18.828125 L 2.667969 18.828125 Z M 2.667969 48.585938 L 5.332031 48.585938 L 5.332031 43.171875 L 2.667969 43.171875 Z M 2.667969 48.585938 "/>
</svg>
