<?xml version="1.0" encoding="UTF-8"?>
<svg xmlns="http://www.w3.org/2000/svg" xmlns:xlink="http://www.w3.org/1999/xlink" width="64" height="64" viewBox="0 0 64 64">
<path fill-rule="evenodd" fill="rgb(47.843137%, 63.137257%, 8.627451%)" fill-opacity="1" d="M 29.332031 10.667969 L 34.667969 10.667969 L 34.667969 5.332031 L 29.332031 5.332031 Z M 28 13.332031 L 36 13.332031 C 36.734375 13.332031 37.332031 12.734375 37.332031 12 L 37.332031 4 C 37.332031 3.265625 36.734375 2.667969 36 2.667969 L 28 2.667969 C 27.265625 2.667969 26.667969 3.265625 26.667969 4 L 26.667969 12 C 26.667969 12.734375 27.265625 13.332031 28 13.332031 Z M 18.667969 33.332031 L 24 33.332031 L 24 28 L 18.667969 28 Z M 40 33.332031 L 45.332031 33.332031 L 45.332031 28 L 40 28 Z M 9.332031 42.667969 L 30.667969 42.667969 L 30.667969 48 L 33.332031 48 L 33.332031 42.667969 L 54.667969 42.667969 L 54.667969 48 L 57.332031 48 L 57.332031 41.332031 C 57.332031 40.597656 56.734375 40 56 40 L 44 40 L 44 36 L 46.667969 36 C 47.402344 36 48 35.402344 48 34.667969 L 48 26.667969 C 48 25.929688 47.402344 25.332031 46.667969 25.332031 L 38.667969 25.332031 C 37.929688 25.332031 37.332031 25.929688 37.332031 26.667969 L 37.332031 34.667969 C 37.332031 35.402344 37.929688 36 38.667969 36 L 41.332031 36 L 41.332031 40 L 22.667969 40 L 22.667969 36 L 25.332031 36 C 26.070312 36 26.667969 35.402344 26.667969 34.667969 L 26.667969 26.667969 C 26.667969 25.929688 26.070312 25.332031 25.332031 25.332031 L 17.332031 25.332031 C 16.597656 25.332031 16 25.929688 16 26.667969 L 16 34.667969 C 16 35.402344 16.597656 36 17.332031 36 L 20 36 L 20 40 L 8 40 C 7.265625 40 6.667969 40.597656 6.667969 41.332031 L 6.667969 48 L 9.332031 48 Z M 22.667969 22.667969 L 20 22.667969 L 20 18.667969 C 20 17.929688 20.597656 17.332031 21.332031 17.332031 L 30.667969 17.332031 L 30.667969 14.667969 L 33.332031 14.667969 L 33.332031 17.332031 L 42.667969 17.332031 C 43.402344 17.332031 44 17.929688 44 18.667969 L 44 22.667969 L 41.332031 22.667969 L 41.332031 20 L 22.667969 20 Z M 53.332031 58.667969 L 58.667969 58.667969 L 58.667969 53.332031 L 53.332031 53.332031 Z M 60 50.667969 L 52 50.667969 C 51.265625 50.667969 50.667969 51.265625 50.667969 52 L 50.667969 60 C 50.667969 60.734375 51.265625 61.332031 52 61.332031 L 60 61.332031 C 60.734375 61.332031 61.332031 60.734375 61.332031 60 L 61.332031 52 C 61.332031 51.265625 60.734375 50.667969 60 50.667969 Z M 29.332031 58.667969 L 34.667969 58.667969 L 34.667969 53.332031 L 29.332031 53.332031 Z M 36 50.667969 L 28 50.667969 C 27.265625 50.667969 26.667969 51.265625 26.667969 52 L 26.667969 60 C 26.667969 60.734375 27.265625 61.332031 28 61.332031 L 36 61.332031 C 36.734375 61.332031 37.332031 60.734375 37.332031 60 L 37.332031 52 C 37.332031 51.265625 36.734375 50.667969 36 50.667969 Z M 5.332031 58.667969 L 10.667969 58.667969 L 10.667969 53.332031 L 5.332031 53.332031 Z M 12 50.667969 L 4 50.667969 C 3.265625 50.667969 2.667969 51.265625 2.667969 52 L 2.667969 60 C 2.667969 60.734375 3.265625 61.332031 4 61.332031 L 12 61.332031 C 12.734375 61.332031 13.332031 60.734375 13.332031 60 L 13.332031 52 C 13.332031 51.265625 12.734375 50.667969 12 50.667969 Z M 12 50.667969 "/>
</svg>
