<?xml version="1.0" encoding="UTF-8"?>
<svg xmlns="http://www.w3.org/2000/svg" xmlns:xlink="http://www.w3.org/1999/xlink" width="64" height="64" viewBox="0 0 64 64">
<path fill-rule="evenodd" fill="rgb(47.843137%, 63.137257%, 8.627451%)" fill-opacity="1" d="M 40.328125 42.347656 L 42.347656 42.347656 L 42.347656 40.328125 L 40.328125 40.328125 Z M 37.660156 43.679688 C 37.660156 44.417969 38.257812 45.015625 38.996094 45.015625 L 43.683594 45.015625 C 44.417969 45.015625 45.015625 44.417969 45.015625 43.679688 L 45.015625 38.996094 C 45.015625 38.257812 44.417969 37.660156 43.683594 37.660156 L 38.996094 37.660156 C 38.257812 37.660156 37.660156 38.257812 37.660156 38.996094 Z M 21.578125 42.347656 L 23.597656 42.347656 L 23.597656 40.328125 L 21.578125 40.328125 Z M 20.246094 37.660156 C 19.507812 37.660156 18.910156 38.257812 18.910156 38.996094 L 18.910156 43.679688 C 18.910156 44.417969 19.507812 45.015625 20.246094 45.015625 L 24.933594 45.015625 C 25.667969 45.015625 26.265625 44.417969 26.265625 43.679688 L 26.265625 38.996094 C 26.265625 38.257812 25.667969 37.660156 24.933594 37.660156 Z M 30.953125 31.800781 L 32.972656 31.800781 L 32.972656 29.78125 L 30.953125 29.78125 Z M 29.621094 27.113281 C 28.882812 27.113281 28.285156 27.710938 28.285156 28.449219 L 28.285156 33.132812 C 28.285156 33.871094 28.882812 34.46875 29.621094 34.46875 L 34.308594 34.46875 C 35.042969 34.46875 35.640625 33.871094 35.640625 33.132812 L 35.640625 28.449219 C 35.640625 27.710938 35.042969 27.113281 34.308594 27.113281 Z M 21.578125 31.800781 L 23.597656 31.800781 L 23.597656 29.78125 L 21.578125 29.78125 Z M 20.246094 27.113281 C 19.507812 27.113281 18.910156 27.710938 18.910156 28.449219 L 18.910156 33.132812 C 18.910156 33.871094 19.507812 34.46875 20.246094 34.46875 L 24.933594 34.46875 C 25.667969 34.46875 26.265625 33.871094 26.265625 33.132812 L 26.265625 28.449219 C 26.265625 27.710938 25.667969 27.113281 24.933594 27.113281 Z M 47.035156 47.035156 L 35.640625 47.035156 L 35.640625 38.996094 C 35.640625 38.257812 35.042969 37.660156 34.308594 37.660156 L 29.621094 37.660156 C 28.882812 37.660156 28.285156 38.257812 28.285156 38.996094 L 28.285156 47.035156 L 16.890625 47.035156 L 16.890625 18.59375 L 38.5625 26.007812 C 38.96875 26.148438 39.421875 26.078125 39.769531 25.828125 C 40.121094 25.578125 40.328125 25.175781 40.328125 24.742188 L 40.328125 18.0625 L 41.175781 18.0625 L 41.175781 25.953125 C 41.175781 26.519531 41.539062 27.027344 42.078125 27.214844 L 47.035156 28.90625 Z M 43.84375 25 L 43.84375 16.730469 C 43.84375 15.992188 43.246094 15.394531 42.511719 15.394531 L 38.996094 15.394531 C 38.257812 15.394531 37.660156 15.992188 37.660156 16.730469 L 37.660156 22.878906 L 15.988281 15.464844 C 15.578125 15.328125 15.128906 15.394531 14.78125 15.644531 C 14.433594 15.894531 14.222656 16.296875 14.222656 16.730469 L 14.222656 48.371094 C 14.222656 49.105469 14.820312 49.703125 15.558594 49.703125 L 29.621094 49.703125 C 30.355469 49.703125 30.953125 49.105469 30.953125 48.371094 L 30.953125 40.328125 L 32.972656 40.328125 L 32.972656 48.371094 C 32.972656 49.105469 33.570312 49.703125 34.308594 49.703125 L 48.371094 49.703125 C 49.105469 49.703125 49.703125 49.105469 49.703125 48.371094 L 49.703125 27.953125 C 49.703125 27.386719 49.339844 26.878906 48.800781 26.691406 Z M 52.894531 51.382812 C 52.894531 52.21875 52.214844 52.894531 51.378906 52.894531 L 12.546875 52.894531 C 11.710938 52.894531 11.03125 52.21875 11.03125 51.382812 L 11.03125 12.566406 C 11.03125 11.730469 11.710938 11.050781 12.546875 11.050781 L 51.378906 11.050781 C 52.214844 11.050781 52.894531 11.730469 52.894531 12.566406 Z M 61.261719 19.234375 L 61.261719 16.566406 L 55.558594 16.566406 L 55.558594 12.566406 C 55.558594 10.261719 53.683594 8.386719 51.378906 8.386719 L 47.359375 8.386719 L 47.359375 2.667969 L 44.691406 2.667969 L 44.691406 8.386719 L 40.328125 8.386719 L 40.328125 2.667969 L 37.660156 2.667969 L 37.660156 8.386719 L 33.296875 8.386719 L 33.296875 2.667969 L 30.628906 2.667969 L 30.628906 8.386719 L 26.265625 8.386719 L 26.265625 2.667969 L 23.597656 2.667969 L 23.597656 8.386719 L 19.234375 8.386719 L 19.234375 2.667969 L 16.566406 2.667969 L 16.566406 8.386719 L 12.546875 8.386719 C 10.242188 8.386719 8.367188 10.261719 8.367188 12.566406 L 8.367188 16.566406 L 2.667969 16.566406 L 2.667969 19.234375 L 8.367188 19.234375 L 8.367188 23.597656 L 2.667969 23.597656 L 2.667969 26.265625 L 8.367188 26.265625 L 8.367188 30.628906 L 2.667969 30.628906 L 2.667969 33.296875 L 8.367188 33.296875 L 8.367188 37.660156 L 2.667969 37.660156 L 2.667969 40.328125 L 8.367188 40.328125 L 8.367188 44.691406 L 2.667969 44.691406 L 2.667969 47.359375 L 8.367188 47.359375 L 8.367188 51.382812 C 8.367188 53.6875 10.242188 55.5625 12.546875 55.5625 L 16.566406 55.5625 L 16.566406 61.261719 L 19.234375 61.261719 L 19.234375 55.5625 L 23.597656 55.5625 L 23.597656 61.261719 L 26.265625 61.261719 L 26.265625 55.5625 L 30.628906 55.5625 L 30.628906 61.261719 L 33.296875 61.261719 L 33.296875 55.5625 L 37.660156 55.5625 L 37.660156 61.261719 L 40.328125 61.261719 L 40.328125 55.5625 L 44.691406 55.5625 L 44.691406 61.261719 L 47.359375 61.261719 L 47.359375 55.5625 L 51.378906 55.5625 C 53.683594 55.5625 55.558594 53.6875 55.558594 51.382812 L 55.558594 47.359375 L 61.261719 47.359375 L 61.261719 44.691406 L 55.558594 44.691406 L 55.558594 40.328125 L 61.261719 40.328125 L 61.261719 37.660156 L 55.558594 37.660156 L 55.558594 33.296875 L 61.261719 33.296875 L 61.261719 30.628906 L 55.558594 30.628906 L 55.558594 26.265625 L 61.261719 26.265625 L 61.261719 23.597656 L 55.558594 23.597656 L 55.558594 19.234375 Z M 61.261719 19.234375 "/>
</svg>
