<?xml version="1.0" encoding="UTF-8"?>
<svg xmlns="http://www.w3.org/2000/svg" xmlns:xlink="http://www.w3.org/1999/xlink" width="64" height="64" viewBox="0 0 64 64">
<path fill-rule="evenodd" fill="rgb(47.843137%, 63.137257%, 8.627451%)" fill-opacity="1" d="M 26.667969 42.667969 C 24.460938 42.667969 22.667969 44.460938 22.667969 46.667969 C 22.667969 48.871094 24.460938 50.667969 26.667969 50.667969 C 28.871094 50.667969 30.667969 48.871094 30.667969 46.667969 C 30.667969 44.460938 28.871094 42.667969 26.667969 42.667969 Z M 26.667969 53.332031 C 22.992188 53.332031 20 50.34375 20 46.667969 C 20 42.992188 22.992188 40 26.667969 40 C 30.34375 40 33.332031 42.992188 33.332031 46.667969 C 33.332031 50.34375 30.34375 53.332031 26.667969 53.332031 Z M 38.667969 28 C 36.460938 28 34.667969 29.792969 34.667969 32 C 34.667969 34.207031 36.460938 36 38.667969 36 C 40.871094 36 42.667969 34.207031 42.667969 32 C 42.667969 29.792969 40.871094 28 38.667969 28 Z M 38.667969 38.667969 C 34.992188 38.667969 32 35.675781 32 32 C 32 28.324219 34.992188 25.332031 38.667969 25.332031 C 42.34375 25.332031 45.332031 28.324219 45.332031 32 C 45.332031 35.675781 42.34375 38.667969 38.667969 38.667969 Z M 22.667969 13.332031 C 20.460938 13.332031 18.667969 15.128906 18.667969 17.332031 C 18.667969 19.539062 20.460938 21.332031 22.667969 21.332031 C 24.871094 21.332031 26.667969 19.539062 26.667969 17.332031 C 26.667969 15.128906 24.871094 13.332031 22.667969 13.332031 Z M 22.667969 24 C 18.992188 24 16 21.007812 16 17.332031 C 16 13.65625 18.992188 10.667969 22.667969 10.667969 C 26.34375 10.667969 29.332031 13.65625 29.332031 17.332031 C 29.332031 21.007812 26.34375 24 22.667969 24 Z M 8 48 L 17.332031 48 L 17.332031 45.332031 L 8 45.332031 Z M 36 48 L 56 48 L 56 45.332031 L 36 45.332031 Z M 8 33.332031 L 29.332031 33.332031 L 29.332031 30.667969 L 8 30.667969 Z M 48 33.332031 L 56 33.332031 L 56 30.667969 L 48 30.667969 Z M 8 18.667969 L 13.332031 18.667969 L 13.332031 16 L 8 16 Z M 32 18.667969 L 56 18.667969 L 56 16 L 32 16 Z M 5.332031 58.667969 L 58.667969 58.667969 L 58.667969 5.332031 L 5.332031 5.332031 Z M 60 61.332031 L 4 61.332031 C 3.265625 61.332031 2.667969 60.734375 2.667969 60 L 2.667969 4 C 2.667969 3.265625 3.265625 2.667969 4 2.667969 L 60 2.667969 C 60.734375 2.667969 61.332031 3.265625 61.332031 4 L 61.332031 60 C 61.332031 60.734375 60.734375 61.332031 60 61.332031 Z M 60 61.332031 "/>
</svg>
