<?xml version="1.0" encoding="UTF-8"?>
<svg xmlns="http://www.w3.org/2000/svg" xmlns:xlink="http://www.w3.org/1999/xlink" width="64" height="64" viewBox="0 0 64 64">
<path fill-rule="evenodd" fill="rgb(47.843137%, 63.137257%, 8.627451%)" fill-opacity="1" d="M 47.777344 58.632812 L 46.449219 51.328125 L 53.410156 50.199219 L 57.804688 58.632812 Z M 6.648438 57.769531 L 43.820312 51.753906 L 45.070312 58.632812 L 6.199219 58.632812 Z M 13.457031 44.699219 L 21.113281 52.726562 L 8.1875 54.820312 Z M 45.113281 43.96875 L 50.160156 43.96875 L 52.109375 47.707031 L 45.972656 48.703125 Z M 61.183594 59.351562 L 52.152344 42.019531 C 51.921875 41.578125 51.46875 41.300781 50.96875 41.300781 L 38.667969 41.300781 L 38.667969 43.96875 L 42.402344 43.96875 L 43.339844 49.128906 L 24.304688 52.210938 L 16.445312 43.96875 L 24 43.96875 L 24 41.300781 L 13.03125 41.300781 C 12.53125 41.300781 12.078125 41.578125 11.847656 42.019531 L 2.816406 59.351562 C 2.601562 59.765625 2.617188 60.261719 2.859375 60.660156 C 3.101562 61.058594 3.535156 61.300781 4 61.300781 L 60 61.300781 C 60.46875 61.300781 60.898438 61.058594 61.140625 60.660156 C 61.382812 60.261719 61.398438 59.765625 61.183594 59.351562 Z M 41.503906 10.511719 L 40.859375 7.925781 C 42.511719 7.515625 44.617188 8.15625 46.363281 9.59375 C 48.105469 11.035156 49.132812 12.984375 49.042969 14.683594 L 46.378906 14.539062 C 46.414062 13.859375 45.894531 12.667969 44.664062 11.652344 C 43.433594 10.632812 42.15625 10.347656 41.503906 10.511719 Z M 42.046875 5.429688 L 41.40625 2.839844 C 43.808594 2.242188 46.929688 3.210938 49.539062 5.363281 C 52.152344 7.519531 53.691406 10.398438 53.554688 12.878906 L 50.890625 12.734375 C 50.964844 11.402344 50.050781 9.242188 47.839844 7.421875 C 45.636719 5.601562 43.347656 5.105469 42.046875 5.429688 Z M 29.332031 25.300781 C 29.332031 23.832031 30.53125 22.632812 32 22.632812 C 33.46875 22.632812 34.667969 23.832031 34.667969 25.300781 C 34.667969 26.773438 33.46875 27.96875 32 27.96875 C 30.53125 27.96875 29.332031 26.773438 29.332031 25.300781 Z M 37.332031 25.300781 C 37.332031 22.359375 34.941406 19.96875 32 19.96875 C 29.058594 19.96875 26.667969 22.359375 26.667969 25.300781 C 26.667969 28.242188 29.058594 30.632812 32 30.632812 C 34.941406 30.632812 37.332031 28.242188 37.332031 25.300781 Z M 24.09375 17.265625 C 26.140625 15.117188 29.023438 13.886719 31.996094 13.886719 C 35.15625 13.886719 38.101562 15.082031 40.082031 17.167969 C 41.910156 19.09375 42.800781 21.617188 42.648438 24.464844 C 42.371094 29.832031 35.132812 38.871094 31.3125 43.09375 C 28.703125 39.796875 21.625 30.339844 21.34375 24.472656 C 21.21875 21.820312 22.195312 19.257812 24.09375 17.265625 Z M 31.199219 46.457031 C 31.214844 46.457031 31.226562 46.457031 31.242188 46.457031 C 31.605469 46.457031 31.953125 46.3125 32.207031 46.046875 C 32.722656 45.507812 44.894531 32.699219 45.3125 24.605469 C 45.5 21.007812 44.359375 17.800781 42.015625 15.332031 C 39.535156 12.71875 35.882812 11.21875 31.996094 11.21875 C 28.296875 11.21875 24.710938 12.753906 22.164062 15.425781 C 19.753906 17.953125 18.519531 21.210938 18.679688 24.601562 C 19.066406 32.652344 29.765625 45.445312 30.222656 45.984375 C 30.46875 46.273438 30.820312 46.445312 31.199219 46.457031 Z M 31.199219 46.457031 "/>
</svg>
