<?xml version="1.0" encoding="UTF-8"?>
<svg xmlns="http://www.w3.org/2000/svg" xmlns:xlink="http://www.w3.org/1999/xlink" width="64" height="64" viewBox="0 0 64 64">
<path fill-rule="evenodd" fill="rgb(47.843137%, 63.137257%, 8.627451%)" fill-opacity="1" d="M 38.730469 31.363281 C 38.730469 27.066406 42.226562 23.574219 46.519531 23.574219 C 50.816406 23.574219 54.308594 27.066406 54.308594 31.363281 C 54.308594 35.65625 50.816406 39.152344 46.519531 39.152344 C 42.226562 39.152344 38.730469 35.65625 38.730469 31.363281 Z M 20.492188 55.921875 C 20.492188 54.335938 21.78125 53.042969 23.367188 53.042969 C 24.953125 53.042969 26.242188 54.335938 26.242188 55.921875 C 26.242188 57.507812 24.953125 58.796875 23.367188 58.796875 C 21.78125 58.796875 20.492188 57.507812 20.492188 55.921875 Z M 23.367188 5.332031 C 24.953125 5.332031 26.242188 6.621094 26.242188 8.210938 C 26.242188 9.792969 24.953125 11.085938 23.367188 11.085938 C 21.78125 11.085938 20.492188 9.792969 20.492188 8.210938 C 20.492188 6.621094 21.78125 5.332031 23.367188 5.332031 Z M 10.667969 46.097656 C 10.667969 44.511719 11.957031 43.222656 13.542969 43.222656 C 15.128906 43.222656 16.421875 44.511719 16.421875 46.097656 C 16.421875 47.683594 15.128906 48.972656 13.542969 48.972656 C 11.957031 48.972656 10.667969 47.683594 10.667969 46.097656 Z M 13.476562 32.066406 C 13.476562 30.480469 14.765625 29.1875 16.351562 29.1875 C 17.9375 29.1875 19.226562 30.480469 19.226562 32.066406 C 19.226562 33.652344 17.9375 34.941406 16.351562 34.941406 C 14.765625 34.941406 13.476562 33.652344 13.476562 32.066406 Z M 10.667969 18.03125 C 10.667969 16.445312 11.957031 15.15625 13.542969 15.15625 C 15.128906 15.15625 16.421875 16.445312 16.421875 18.03125 C 16.421875 19.617188 15.128906 20.90625 13.542969 20.90625 C 11.957031 20.90625 10.667969 19.617188 10.667969 18.03125 Z M 40.144531 23.097656 L 28.097656 11.054688 C 28.601562 10.21875 28.910156 9.253906 28.910156 8.210938 C 28.910156 5.152344 26.421875 2.667969 23.367188 2.667969 C 20.3125 2.667969 17.824219 5.152344 17.824219 8.210938 C 17.824219 11.265625 20.3125 13.753906 23.367188 13.753906 C 24.410156 13.753906 25.378906 13.445312 26.214844 12.941406 L 38.257812 24.984375 C 37.914062 25.425781 37.601562 25.886719 37.332031 26.378906 L 19.035156 18.535156 C 19.050781 18.367188 19.085938 18.203125 19.085938 18.03125 C 19.085938 14.976562 16.601562 12.488281 13.542969 12.488281 C 10.488281 12.488281 8 14.976562 8 18.03125 C 8 21.089844 10.488281 23.574219 13.542969 23.574219 C 15.480469 23.574219 17.179688 22.574219 18.171875 21.066406 L 36.378906 28.867188 C 36.230469 29.46875 36.136719 30.09375 36.097656 30.730469 L 21.714844 30.730469 C 21.113281 28.320312 18.945312 26.519531 16.351562 26.519531 C 13.292969 26.519531 10.808594 29.007812 10.808594 32.066406 C 10.808594 35.121094 13.292969 37.609375 16.351562 37.609375 C 18.945312 37.609375 21.113281 35.808594 21.714844 33.398438 L 36.269531 33.398438 C 36.382812 33.984375 36.554688 34.550781 36.765625 35.097656 L 18.171875 43.0625 C 17.179688 41.554688 15.480469 40.554688 13.542969 40.554688 C 10.488281 40.554688 8 43.042969 8 46.097656 C 8 49.152344 10.488281 51.640625 13.542969 51.640625 C 16.601562 51.640625 19.085938 49.152344 19.085938 46.097656 C 19.085938 45.925781 19.050781 45.761719 19.035156 45.59375 L 37.925781 37.5 L 37.664062 36.890625 C 38.023438 37.464844 38.4375 38.003906 38.902344 38.5 L 26.214844 51.1875 C 25.378906 50.683594 24.410156 50.378906 23.367188 50.378906 C 20.3125 50.378906 17.824219 52.863281 17.824219 55.921875 C 17.824219 58.976562 20.3125 61.460938 23.367188 61.460938 C 26.421875 61.460938 28.910156 58.976562 28.910156 55.921875 C 28.910156 54.875 28.601562 53.90625 28.097656 53.074219 L 40.96875 40.207031 C 42.578125 41.222656 44.480469 41.816406 46.519531 41.816406 C 52.285156 41.816406 56.976562 37.125 56.976562 31.363281 C 56.976562 25.597656 52.285156 20.90625 46.519531 20.90625 C 44.117188 20.90625 41.910156 21.730469 40.144531 23.097656 Z M 40.144531 23.097656 "/>
</svg>
