<?xml version="1.0" encoding="UTF-8"?>
<svg xmlns="http://www.w3.org/2000/svg" xmlns:xlink="http://www.w3.org/1999/xlink" width="64" height="64" viewBox="0 0 64 64">
<path fill-rule="evenodd" fill="rgb(47.843137%, 63.137257%, 8.627451%)" fill-opacity="1" d="M 52 50.488281 C 52 51.320312 51.320312 52 50.488281 52 L 13.511719 52 C 12.679688 52 12 51.320312 12 50.488281 L 12 13.511719 C 12 12.679688 12.679688 12 13.511719 12 L 50.488281 12 C 51.320312 12 52 12.679688 52 13.511719 Z M 61.332031 20 L 61.332031 17.332031 L 54.667969 17.332031 L 54.667969 13.511719 C 54.667969 11.207031 52.792969 9.332031 50.488281 9.332031 L 46.667969 9.332031 L 46.667969 2.667969 L 44 2.667969 L 44 9.332031 L 40 9.332031 L 40 2.667969 L 37.332031 2.667969 L 37.332031 9.332031 L 33.332031 9.332031 L 33.332031 2.667969 L 30.667969 2.667969 L 30.667969 9.332031 L 26.667969 9.332031 L 26.667969 2.667969 L 24 2.667969 L 24 9.332031 L 20 9.332031 L 20 2.667969 L 17.332031 2.667969 L 17.332031 9.332031 L 13.511719 9.332031 C 11.207031 9.332031 9.332031 11.207031 9.332031 13.511719 L 9.332031 17.332031 L 2.667969 17.332031 L 2.667969 20 L 9.332031 20 L 9.332031 24 L 2.667969 24 L 2.667969 26.667969 L 9.332031 26.667969 L 9.332031 30.667969 L 2.667969 30.667969 L 2.667969 33.332031 L 9.332031 33.332031 L 9.332031 37.332031 L 2.667969 37.332031 L 2.667969 40 L 9.332031 40 L 9.332031 44 L 2.667969 44 L 2.667969 46.667969 L 9.332031 46.667969 L 9.332031 50.488281 C 9.332031 52.792969 11.207031 54.667969 13.511719 54.667969 L 17.332031 54.667969 L 17.332031 61.332031 L 20 61.332031 L 20 54.667969 L 24 54.667969 L 24 61.332031 L 26.667969 61.332031 L 26.667969 54.667969 L 30.667969 54.667969 L 30.667969 61.332031 L 33.332031 61.332031 L 33.332031 54.667969 L 37.332031 54.667969 L 37.332031 61.332031 L 40 61.332031 L 40 54.667969 L 44 54.667969 L 44 61.332031 L 46.667969 61.332031 L 46.667969 54.667969 L 50.488281 54.667969 C 52.792969 54.667969 54.667969 52.792969 54.667969 50.488281 L 54.667969 46.667969 L 61.332031 46.667969 L 61.332031 44 L 54.667969 44 L 54.667969 40 L 61.332031 40 L 61.332031 37.332031 L 54.667969 37.332031 L 54.667969 33.332031 L 61.332031 33.332031 L 61.332031 30.667969 L 54.667969 30.667969 L 54.667969 26.667969 L 61.332031 26.667969 L 61.332031 24 L 54.667969 24 L 54.667969 20 Z M 15.988281 29.332031 L 21.324219 29.332031 L 21.324219 26.667969 L 15.988281 26.667969 Z M 21.714844 32.390625 L 23.597656 34.277344 L 20.933594 36.941406 L 19.046875 35.058594 Z M 20.933594 19.058594 L 23.597656 21.722656 L 21.714844 23.609375 L 19.046875 20.941406 Z M 42.65625 29.332031 L 47.988281 29.332031 L 47.988281 26.667969 L 42.65625 26.667969 Z M 42.265625 32.390625 L 44.933594 35.058594 L 43.046875 36.941406 L 40.378906 34.277344 Z M 42.265625 23.609375 L 40.378906 21.722656 L 43.046875 19.058594 L 44.933594 20.941406 Z M 27.988281 38.667969 L 35.988281 38.667969 L 35.988281 33.332031 L 27.988281 33.332031 Z M 27.988281 30.667969 L 35.988281 30.667969 L 35.988281 25.332031 L 27.988281 25.332031 Z M 27.988281 22.667969 L 35.988281 22.667969 L 35.988281 17.332031 L 27.988281 17.332031 Z M 37.324219 14.667969 L 26.65625 14.667969 C 25.917969 14.667969 25.324219 15.265625 25.324219 16 L 25.324219 40 C 25.324219 40.734375 25.917969 41.332031 26.65625 41.332031 L 30.65625 41.332031 L 30.65625 46.667969 L 25.324219 46.667969 L 25.324219 49.332031 L 38.65625 49.332031 L 38.65625 46.667969 L 33.324219 46.667969 L 33.324219 41.332031 L 37.324219 41.332031 C 38.058594 41.332031 38.65625 40.734375 38.65625 40 L 38.65625 16 C 38.65625 15.265625 38.058594 14.667969 37.324219 14.667969 Z M 37.324219 14.667969 "/>
</svg>
