<?xml version="1.0" encoding="UTF-8"?>
<svg xmlns="http://www.w3.org/2000/svg" xmlns:xlink="http://www.w3.org/1999/xlink" width="64" height="64" viewBox="0 0 64 64">
<path fill-rule="evenodd" fill="rgb(47.843137%, 63.137257%, 8.627451%)" fill-opacity="1" d="M 9.332031 58.667969 L 12 58.667969 L 12 56 L 9.332031 56 Z M 13.332031 53.332031 L 8 53.332031 C 7.265625 53.332031 6.667969 53.929688 6.667969 54.667969 L 6.667969 60 C 6.667969 60.734375 7.265625 61.332031 8 61.332031 L 13.332031 61.332031 C 14.070312 61.332031 14.667969 60.734375 14.667969 60 L 14.667969 54.667969 C 14.667969 53.929688 14.070312 53.332031 13.332031 53.332031 Z M 6.667969 48 L 9.332031 48 L 9.332031 45.332031 L 6.667969 45.332031 Z M 12 49.332031 L 12 44 C 12 43.265625 11.402344 42.667969 10.667969 42.667969 L 5.332031 42.667969 C 4.597656 42.667969 4 43.265625 4 44 L 4 49.332031 C 4 50.070312 4.597656 50.667969 5.332031 50.667969 L 10.667969 50.667969 C 11.402344 50.667969 12 50.070312 12 49.332031 Z M 20 53.332031 L 26.667969 53.332031 L 26.667969 46.667969 L 20 46.667969 Z M 28 44 L 18.667969 44 C 17.929688 44 17.332031 44.597656 17.332031 45.332031 L 17.332031 54.667969 C 17.332031 55.402344 17.929688 56 18.667969 56 L 28 56 C 28.734375 56 29.332031 55.402344 29.332031 54.667969 L 29.332031 45.332031 C 29.332031 44.597656 28.734375 44 28 44 Z M 42 48 C 41.632812 48 41.332031 47.703125 41.332031 47.332031 C 41.332031 46.964844 41.632812 46.667969 42 46.667969 C 42.367188 46.667969 42.667969 46.964844 42.667969 47.332031 C 42.667969 47.703125 42.367188 48 42 48 Z M 42 45.332031 C 40.898438 45.332031 40 46.230469 40 47.332031 C 40 48.4375 40.898438 49.332031 42 49.332031 C 43.101562 49.332031 44 48.4375 44 47.332031 C 44 46.230469 43.101562 45.332031 42 45.332031 Z M 33.332031 58.667969 L 58.667969 58.667969 L 58.667969 56 L 33.332031 56 Z M 37.570312 47.660156 C 37.207031 46.058594 37.90625 44.410156 39.308594 43.558594 C 40.835938 42.628906 42.832031 42.902344 44.070312 44.21875 L 52.929688 53.332031 L 38.867188 53.332031 Z M 51.699219 30.339844 C 52.574219 31.03125 53.601562 31.429688 54.683594 31.539062 L 47.984375 44.414062 L 46 42.375 C 45.183594 41.507812 44.167969 40.921875 43.082031 40.609375 L 51.332031 30.089844 Z M 29.332031 7.757812 L 57.003906 23.183594 C 57.726562 23.660156 58.210938 24.386719 58.363281 25.238281 C 58.519531 26.085938 58.324219 26.9375 57.816406 27.636719 C 57.421875 28.179688 56.871094 28.566406 56.242188 28.765625 L 56.152344 28.71875 L 56.109375 28.796875 C 55.980469 28.832031 55.851562 28.875 55.714844 28.894531 C 54.863281 29.011719 54.027344 28.78125 53.277344 28.191406 L 29.332031 11.789062 Z M 32 31.191406 L 32 39.027344 C 31.765625 38.667969 31.542969 38.1875 31.367188 37.5625 L 30.976562 33.214844 C 30.960938 33.046875 30.914062 32.886719 30.839844 32.738281 L 29.507812 30.070312 C 29.308594 29.675781 28.933594 29.40625 28.496094 29.34375 C 28.058594 29.285156 27.625 29.445312 27.328125 29.769531 C 26.839844 30.304688 25.710938 30.636719 24.300781 30.667969 L 24.023438 30.667969 C 22.609375 30.640625 21.472656 30.304688 20.984375 29.769531 C 20.691406 29.445312 20.25 29.285156 19.816406 29.34375 C 19.382812 29.40625 19.003906 29.675781 18.808594 30.070312 L 17.472656 32.738281 C 17.398438 32.886719 17.351562 33.046875 17.339844 33.214844 L 16.945312 37.5625 C 16.707031 38.421875 16.347656 39.011719 16 39.414062 L 16 31.21875 L 20.480469 26.738281 C 20.617188 26.605469 20.722656 26.441406 20.789062 26.261719 C 21.3125 24.851562 22.648438 23.90625 24.144531 23.875 L 24.171875 23.875 C 25.664062 23.90625 27 24.851562 27.527344 26.261719 C 27.589844 26.425781 27.679688 26.578125 27.800781 26.707031 Z M 22.667969 7.332031 C 22.667969 6.230469 23.5625 5.332031 24.667969 5.332031 C 25.769531 5.332031 26.667969 6.230469 26.667969 7.332031 L 26.667969 21.773438 C 25.988281 21.464844 25.257812 21.265625 24.492188 21.21875 C 24.402344 21.207031 24.3125 21.207031 24.222656 21.207031 L 24.09375 21.207031 C 24 21.207031 23.910156 21.207031 23.824219 21.21875 C 23.425781 21.242188 23.042969 21.320312 22.667969 21.414062 Z M 60 53.332031 L 56.644531 53.332031 L 49.941406 46.433594 L 58.03125 30.882812 C 58.785156 30.476562 59.453125 29.921875 59.972656 29.207031 C 60.914062 27.910156 61.277344 26.332031 60.988281 24.757812 C 60.703125 23.183594 59.808594 21.832031 58.386719 20.90625 L 28.148438 4.042969 L 28.078125 4.171875 C 27.226562 3.253906 26.015625 2.667969 24.667969 2.667969 C 22.09375 2.667969 20 4.761719 20 7.332031 L 20 22.832031 C 19.324219 23.4375 18.773438 24.183594 18.402344 25.046875 L 13.722656 29.722656 C 13.472656 29.972656 13.332031 30.3125 13.332031 30.667969 L 13.332031 41.308594 C 13.320312 42.066406 13.886719 42.695312 14.679688 42.808594 C 14.769531 42.820312 14.863281 42.824219 14.960938 42.824219 C 16.410156 42.824219 18.683594 41.433594 19.554688 38.136719 C 19.570312 38.066406 19.585938 37.992188 19.59375 37.917969 L 19.972656 33.703125 L 20.507812 32.628906 C 21.726562 33.1875 23.109375 33.316406 24 33.332031 L 24.339844 33.332031 C 25.214844 33.316406 26.589844 33.1875 27.804688 32.628906 L 28.339844 33.703125 L 28.722656 37.917969 C 28.730469 37.992188 28.742188 38.066406 28.761719 38.136719 C 29.535156 41.078125 31.359375 42.449219 32.6875 42.734375 C 33.644531 42.9375 34.148438 42.511719 34.367188 42.242188 C 34.566406 41.996094 34.667969 41.660156 34.664062 41.332031 L 34.667969 30.667969 C 34.667969 30.328125 34.539062 30.003906 34.308594 29.757812 L 29.921875 25.066406 C 29.761719 24.691406 29.554688 24.347656 29.332031 24.015625 L 29.332031 15.023438 L 49.128906 28.578125 L 39.742188 40.546875 C 39.113281 40.699219 38.5 40.929688 37.925781 41.277344 C 35.539062 42.726562 34.351562 45.53125 34.972656 48.253906 L 36.128906 53.332031 L 32 53.332031 C 31.265625 53.332031 30.667969 53.929688 30.667969 54.667969 L 30.667969 60 C 30.667969 60.734375 31.265625 61.332031 32 61.332031 L 60 61.332031 C 60.734375 61.332031 61.332031 60.734375 61.332031 60 L 61.332031 54.667969 C 61.332031 53.929688 60.734375 53.332031 60 53.332031 Z M 60 53.332031 "/>
</svg>
