<?xml version="1.0" encoding="UTF-8"?>
<svg xmlns="http://www.w3.org/2000/svg" xmlns:xlink="http://www.w3.org/1999/xlink" width="64" height="64" viewBox="0 0 64 64">
<path fill-rule="evenodd" fill="rgb(47.843137%, 63.137257%, 8.627451%)" fill-opacity="1" d="M 29.789062 33.964844 L 31.957031 30.714844 L 34.125 33.964844 Z M 33.066406 27.570312 C 32.820312 27.199219 32.402344 26.976562 31.957031 26.976562 C 31.511719 26.976562 31.097656 27.199219 30.847656 27.570312 L 26.191406 34.558594 C 25.917969 34.96875 25.890625 35.492188 26.121094 35.925781 C 26.355469 36.359375 26.808594 36.632812 27.300781 36.632812 L 36.617188 36.632812 C 37.109375 36.632812 37.5625 36.359375 37.792969 35.925781 C 38.027344 35.492188 38 34.96875 37.726562 34.558594 Z M 14.070312 31.804688 C 14.070312 30.613281 15.039062 29.640625 16.230469 29.640625 C 17.425781 29.640625 18.394531 30.613281 18.394531 31.804688 C 18.394531 32.996094 17.425781 33.964844 16.230469 33.964844 C 15.039062 33.964844 14.070312 32.996094 14.070312 31.804688 Z M 11.402344 31.804688 C 11.402344 34.464844 13.570312 36.632812 16.230469 36.632812 C 18.894531 36.632812 21.058594 34.464844 21.058594 31.804688 C 21.058594 29.140625 18.894531 26.976562 16.230469 26.976562 C 13.570312 26.976562 11.402344 29.140625 11.402344 31.804688 Z M 58.582031 50.273438 L 30.792969 50.273438 C 30.878906 49.992188 30.898438 49.691406 30.796875 49.410156 L 29.335938 45.566406 C 29.207031 45.214844 28.929688 44.9375 28.582031 44.796875 C 28.238281 44.664062 27.847656 44.675781 27.507812 44.839844 L 26.523438 45.316406 C 26.324219 45.085938 26.113281 44.863281 25.890625 44.652344 L 26.441406 43.695312 C 26.625 43.371094 26.667969 42.980469 26.550781 42.621094 C 26.4375 42.265625 26.175781 41.972656 25.832031 41.816406 L 22.085938 40.117188 C 21.742188 39.960938 21.347656 39.957031 21.003906 40.109375 C 20.65625 40.257812 20.390625 40.546875 20.269531 40.902344 L 19.914062 41.949219 C 19.609375 41.921875 19.300781 41.917969 18.996094 41.917969 L 18.707031 40.851562 C 18.605469 40.492188 18.359375 40.1875 18.027344 40.015625 C 17.6875 39.84375 17.296875 39.828125 16.945312 39.957031 L 13.101562 41.414062 C 12.753906 41.546875 12.476562 41.820312 12.335938 42.167969 C 12.199219 42.519531 12.214844 42.910156 12.378906 43.246094 L 12.863281 44.234375 C 12.628906 44.433594 12.402344 44.640625 12.191406 44.859375 L 11.234375 44.3125 C 10.910156 44.125 10.519531 44.082031 10.160156 44.199219 C 9.804688 44.3125 9.511719 44.574219 9.355469 44.917969 L 7.65625 48.667969 C 7.5 49.007812 7.496094 49.402344 7.644531 49.746094 C 7.738281 49.964844 7.902344 50.132812 8.09375 50.273438 L 5.332031 50.273438 L 5.332031 13.332031 L 33.125 13.332031 C 33.035156 13.617188 33.015625 13.914062 33.121094 14.195312 L 34.578125 18.039062 C 34.710938 18.390625 34.984375 18.667969 35.332031 18.804688 C 35.679688 18.949219 36.074219 18.933594 36.410156 18.769531 L 37.394531 18.289062 C 37.59375 18.519531 37.804688 18.742188 38.023438 18.957031 L 37.476562 19.910156 C 37.289062 20.234375 37.25 20.625 37.363281 20.984375 C 37.480469 21.339844 37.742188 21.632812 38.082031 21.789062 L 41.832031 23.492188 C 42.175781 23.644531 42.566406 23.648438 42.914062 23.5 C 43.261719 23.347656 43.527344 23.058594 43.648438 22.703125 L 44 21.664062 C 44.304688 21.6875 44.617188 21.699219 44.917969 21.695312 L 45.210938 22.757812 C 45.3125 23.117188 45.558594 23.421875 45.890625 23.589844 C 46.082031 23.6875 46.289062 23.734375 46.496094 23.734375 C 46.65625 23.734375 46.816406 23.707031 46.964844 23.652344 L 50.808594 22.207031 C 51.160156 22.074219 51.4375 21.800781 51.578125 21.453125 C 51.71875 21.105469 51.703125 20.714844 51.539062 20.378906 L 51.0625 19.382812 C 51.296875 19.183594 51.523438 18.972656 51.738281 18.75 L 52.679688 19.292969 C 53.003906 19.480469 53.394531 19.523438 53.753906 19.410156 C 54.109375 19.292969 54.402344 19.03125 54.558594 18.691406 L 56.261719 14.9375 C 56.417969 14.597656 56.421875 14.203125 56.269531 13.859375 C 56.175781 13.640625 56.011719 13.472656 55.824219 13.332031 L 58.582031 13.332031 Z M 12.25 50.273438 L 12.265625 50.191406 C 12.386719 49.539062 12.019531 48.898438 11.390625 48.679688 L 10.6875 48.4375 L 11.179688 47.351562 L 11.816406 47.71875 C 12.402344 48.054688 13.140625 47.902344 13.542969 47.367188 C 14.019531 46.738281 14.601562 46.199219 15.273438 45.753906 C 15.835938 45.386719 16.035156 44.660156 15.742188 44.054688 L 15.417969 43.390625 L 16.523438 42.96875 L 16.714844 43.6875 C 16.898438 44.339844 17.546875 44.761719 18.203125 44.652344 C 18.957031 44.539062 19.75 44.566406 20.5625 44.726562 C 21.21875 44.863281 21.871094 44.480469 22.085938 43.847656 L 22.320312 43.152344 L 23.398438 43.640625 L 23.03125 44.28125 C 22.699219 44.863281 22.847656 45.605469 23.382812 46.007812 C 24.023438 46.492188 24.574219 47.074219 25.011719 47.734375 C 25.378906 48.285156 26.101562 48.484375 26.703125 48.191406 L 27.359375 47.875 L 27.78125 48.984375 L 27.074219 49.179688 C 26.550781 49.324219 26.179688 49.761719 26.105469 50.273438 Z M 51.671875 13.332031 C 51.664062 13.355469 51.660156 13.382812 51.65625 13.402344 C 51.519531 14.0625 51.894531 14.722656 52.53125 14.9375 L 53.226562 15.175781 L 52.738281 16.25 L 52.113281 15.890625 C 51.53125 15.550781 50.789062 15.703125 50.382812 16.238281 C 49.894531 16.882812 49.316406 17.429688 48.652344 17.863281 C 48.09375 18.230469 47.894531 18.953125 48.183594 19.558594 L 48.503906 20.222656 L 47.394531 20.640625 L 47.199219 19.929688 C 47.039062 19.34375 46.503906 18.949219 45.914062 18.949219 C 45.855469 18.949219 45.792969 18.953125 45.730469 18.960938 C 44.9375 19.070312 44.144531 19.046875 43.367188 18.882812 C 42.714844 18.742188 42.046875 19.121094 41.832031 19.757812 L 41.59375 20.453125 L 40.519531 19.964844 L 40.882812 19.328125 C 41.21875 18.742188 41.066406 18.003906 40.535156 17.597656 C 39.890625 17.113281 39.34375 16.535156 38.902344 15.875 C 38.535156 15.320312 37.816406 15.117188 37.210938 15.414062 L 36.554688 15.730469 L 36.136719 14.625 L 36.855469 14.429688 C 37.375 14.285156 37.746094 13.847656 37.820312 13.332031 Z M 53.136719 10.667969 L 4 10.667969 C 3.261719 10.667969 2.667969 11.261719 2.667969 12 L 2.667969 51.605469 C 2.667969 52.34375 3.261719 52.941406 4 52.941406 L 59.917969 52.941406 C 60.652344 52.941406 61.25 52.34375 61.25 51.605469 L 61.25 12 C 61.25 11.261719 60.652344 10.667969 59.917969 10.667969 Z M 53.136719 10.667969 "/>
</svg>
