<?xml version="1.0" encoding="UTF-8"?>
<svg xmlns="http://www.w3.org/2000/svg" xmlns:xlink="http://www.w3.org/1999/xlink" width="64" height="64" viewBox="0 0 64 64">
<path fill-rule="evenodd" fill="rgb(47.843137%, 63.137257%, 8.627451%)" fill-opacity="1" d="M 23.921875 38.832031 L 25.941406 38.832031 L 25.941406 36.8125 L 23.921875 36.8125 Z M 22.589844 34.144531 C 21.851562 34.144531 21.253906 34.742188 21.253906 35.480469 L 21.253906 40.167969 C 21.253906 40.902344 21.851562 41.5 22.589844 41.5 L 27.277344 41.5 C 28.011719 41.5 28.609375 40.902344 28.609375 40.167969 L 28.609375 35.480469 C 28.609375 34.742188 28.011719 34.144531 27.277344 34.144531 Z M 46.03125 30.617188 C 45.671875 30.617188 45.335938 30.757812 45.085938 31.007812 C 44.832031 31.257812 44.691406 31.597656 44.691406 31.953125 L 44.691406 45.863281 L 41.5 45.863281 L 41.5 35.480469 C 41.5 34.742188 40.902344 34.144531 40.167969 34.144531 L 33.132812 34.144531 C 32.398438 34.144531 31.800781 34.742188 31.800781 35.480469 L 31.800781 45.863281 L 19.234375 45.863281 L 19.234375 31.902344 C 19.234375 31.171875 18.640625 30.574219 17.90625 30.570312 L 16.679688 30.566406 L 31.964844 17.320312 L 47.3125 30.621094 Z M 32.835938 14.550781 C 32.335938 14.113281 31.59375 14.113281 31.089844 14.550781 L 13.511719 29.785156 C 13.21875 30.039062 13.050781 30.402344 13.050781 30.789062 L 13.050781 31.894531 C 13.050781 32.625 13.644531 33.222656 14.382812 33.226562 L 16.566406 33.234375 L 16.566406 47.199219 C 16.566406 47.933594 17.164062 48.53125 17.902344 48.53125 L 33.132812 48.53125 C 33.871094 48.53125 34.46875 47.933594 34.46875 47.199219 L 34.46875 36.8125 L 38.832031 36.8125 L 38.832031 47.199219 C 38.832031 47.933594 39.429688 48.53125 40.167969 48.53125 L 46.023438 48.53125 C 46.761719 48.53125 47.359375 47.933594 47.359375 47.199219 L 47.359375 33.289062 L 49.539062 33.296875 L 49.542969 33.296875 C 49.894531 33.296875 50.234375 33.15625 50.484375 32.90625 C 50.734375 32.65625 50.875 32.316406 50.875 31.960938 L 50.875 30.789062 C 50.875 30.402344 50.707031 30.039062 50.414062 29.785156 Z M 52.894531 51.382812 C 52.894531 52.21875 52.214844 52.894531 51.378906 52.894531 L 12.546875 52.894531 C 11.710938 52.894531 11.03125 52.21875 11.03125 51.382812 L 11.03125 12.5625 C 11.03125 11.730469 11.710938 11.050781 12.546875 11.050781 L 51.378906 11.050781 C 52.214844 11.050781 52.894531 11.730469 52.894531 12.5625 Z M 61.261719 19.234375 L 61.261719 16.566406 L 55.558594 16.566406 L 55.558594 12.5625 C 55.558594 10.257812 53.683594 8.382812 51.378906 8.382812 L 47.359375 8.382812 L 47.359375 2.667969 L 44.691406 2.667969 L 44.691406 8.382812 L 40.328125 8.382812 L 40.328125 2.667969 L 37.660156 2.667969 L 37.660156 8.382812 L 33.296875 8.382812 L 33.296875 2.667969 L 30.628906 2.667969 L 30.628906 8.382812 L 26.265625 8.382812 L 26.265625 2.667969 L 23.597656 2.667969 L 23.597656 8.382812 L 19.234375 8.382812 L 19.234375 2.667969 L 16.566406 2.667969 L 16.566406 8.382812 L 12.546875 8.382812 C 10.242188 8.382812 8.367188 10.257812 8.367188 12.5625 L 8.367188 16.566406 L 2.667969 16.566406 L 2.667969 19.234375 L 8.367188 19.234375 L 8.367188 23.597656 L 2.667969 23.597656 L 2.667969 26.265625 L 8.367188 26.265625 L 8.367188 30.628906 L 2.667969 30.628906 L 2.667969 33.296875 L 8.367188 33.296875 L 8.367188 37.660156 L 2.667969 37.660156 L 2.667969 40.328125 L 8.367188 40.328125 L 8.367188 44.691406 L 2.667969 44.691406 L 2.667969 47.359375 L 8.367188 47.359375 L 8.367188 51.382812 C 8.367188 53.6875 10.242188 55.5625 12.546875 55.5625 L 16.566406 55.5625 L 16.566406 61.261719 L 19.234375 61.261719 L 19.234375 55.5625 L 23.597656 55.5625 L 23.597656 61.261719 L 26.265625 61.261719 L 26.265625 55.5625 L 30.628906 55.5625 L 30.628906 61.261719 L 33.296875 61.261719 L 33.296875 55.5625 L 37.660156 55.5625 L 37.660156 61.261719 L 40.328125 61.261719 L 40.328125 55.5625 L 44.691406 55.5625 L 44.691406 61.261719 L 47.359375 61.261719 L 47.359375 55.5625 L 51.378906 55.5625 C 53.683594 55.5625 55.558594 53.6875 55.558594 51.382812 L 55.558594 47.359375 L 61.261719 47.359375 L 61.261719 44.691406 L 55.558594 44.691406 L 55.558594 40.328125 L 61.261719 40.328125 L 61.261719 37.660156 L 55.558594 37.660156 L 55.558594 33.296875 L 61.261719 33.296875 L 61.261719 30.628906 L 55.558594 30.628906 L 55.558594 26.265625 L 61.261719 26.265625 L 61.261719 23.597656 L 55.558594 23.597656 L 55.558594 19.234375 Z M 61.261719 19.234375 "/>
</svg>
