<?xml version="1.0" encoding="UTF-8"?>
<svg xmlns="http://www.w3.org/2000/svg" xmlns:xlink="http://www.w3.org/1999/xlink" width="64" height="64" viewBox="0 0 64 64">
<path fill-rule="evenodd" fill="rgb(47.843137%, 63.137257%, 8.627451%)" fill-opacity="1" d="M 29.730469 28.191406 C 31.726562 26.933594 33.761719 25.90625 35.683594 25.1875 C 36.097656 27.117188 36.363281 29.410156 36.363281 32.007812 C 36.363281 34.535156 36.113281 36.777344 35.714844 38.671875 C 33.898438 37.996094 31.867188 37.007812 29.730469 35.660156 C 27.789062 34.433594 26.167969 33.160156 24.839844 31.925781 C 26.167969 30.691406 27.789062 29.417969 29.730469 28.191406 Z M 23.097656 42.511719 C 23.851562 42.511719 24.671875 42.433594 25.550781 42.269531 L 25.066406 39.648438 C 22.871094 40.054688 21.214844 39.84375 20.742188 39.09375 C 20.191406 38.222656 20.953125 36.207031 23 33.828125 C 24.578125 35.304688 26.398438 36.710938 28.304688 37.914062 C 30.449219 39.265625 32.773438 40.421875 35.023438 41.238281 C 34.117188 43.90625 32.917969 45.429688 31.949219 45.429688 C 31.105469 45.429688 30.082031 44.238281 29.277344 42.328125 L 26.820312 43.363281 C 28.46875 47.273438 30.519531 48.09375 31.949219 48.09375 C 34.484375 48.09375 36.371094 45.570312 37.558594 42.003906 C 38.832031 42.316406 40.046875 42.503906 41.140625 42.503906 C 43.175781 42.503906 44.808594 41.90625 45.6875 40.515625 C 46.90625 38.589844 46.195312 35.804688 43.691406 32.675781 L 41.613281 34.34375 C 43.601562 36.828125 43.835938 38.453125 43.429688 39.09375 C 42.917969 39.910156 40.992188 40.113281 38.253906 39.453125 C 38.765625 37.121094 39.03125 34.542969 39.03125 32.007812 C 39.03125 29.417969 38.75 26.78125 38.214844 24.402344 C 38.476562 24.339844 38.738281 24.277344 38.988281 24.226562 C 41.683594 23.707031 43.054688 24.160156 43.429688 24.757812 C 43.941406 25.566406 43.289062 27.351562 41.769531 29.308594 L 43.875 30.945312 C 46.226562 27.914062 46.871094 25.210938 45.6875 23.335938 C 44.550781 21.539062 41.992188 20.925781 38.480469 21.609375 C 38.160156 21.671875 37.828125 21.75 37.496094 21.832031 C 36.304688 18.363281 34.441406 15.925781 31.949219 15.925781 C 29.863281 15.925781 28 17.703125 26.703125 20.9375 L 29.179688 21.929688 C 30.003906 19.871094 31.066406 18.589844 31.949219 18.589844 C 32.894531 18.589844 34.066406 20.050781 34.964844 22.613281 C 32.800781 23.40625 30.523438 24.539062 28.304688 25.941406 C 26.398438 27.144531 24.578125 28.546875 23 30.023438 C 20.953125 27.644531 20.191406 25.628906 20.742188 24.757812 C 21.195312 24.042969 22.753906 23.816406 24.8125 24.160156 L 25.253906 21.53125 C 21.039062 20.824219 19.253906 22.121094 18.488281 23.335938 C 17.039062 25.625 18.425781 28.828125 21.148438 31.925781 C 18.425781 35.023438 17.039062 38.226562 18.488281 40.515625 C 19.320312 41.832031 20.917969 42.511719 23.097656 42.511719 Z M 5.332031 32 C 5.332031 30.53125 6.53125 29.332031 8 29.332031 C 9.46875 29.332031 10.667969 30.53125 10.667969 32 C 10.667969 33.46875 9.46875 34.667969 8 34.667969 C 6.53125 34.667969 5.332031 33.46875 5.332031 32 Z M 32 5.332031 C 33.46875 5.332031 34.667969 6.53125 34.667969 8 C 34.667969 9.46875 33.46875 10.667969 32 10.667969 C 30.53125 10.667969 29.332031 9.46875 29.332031 8 C 29.332031 6.53125 30.53125 5.332031 32 5.332031 Z M 14.613281 47.375 C 12.046875 44.449219 10.25 40.902344 9.414062 37.117188 C 11.664062 36.496094 13.332031 34.449219 13.332031 32 C 13.332031 29.570312 11.691406 27.542969 9.46875 26.898438 C 11.472656 18.347656 18.34375 11.527344 26.941406 9.605469 C 27.628906 11.757812 29.621094 13.332031 32 13.332031 C 34.375 13.332031 36.367188 11.765625 37.054688 9.617188 C 39.457031 10.15625 41.746094 11.058594 43.875 12.339844 L 45.25 10.054688 C 42.753906 8.550781 40.054688 7.523438 37.226562 6.9375 C 36.734375 4.503906 34.578125 2.667969 32 2.667969 C 29.429688 2.667969 27.277344 4.496094 26.777344 6.917969 C 16.816406 8.96875 8.863281 16.90625 6.761719 26.828125 C 4.417969 27.386719 2.667969 29.488281 2.667969 32 C 2.667969 34.488281 4.386719 36.566406 6.695312 37.152344 C 7.585938 41.644531 9.691406 45.851562 12.75 49.285156 L 9.355469 49.230469 L 9.3125 51.898438 L 15.878906 52 L 15.898438 52 C 16.246094 52 16.578125 51.867188 16.828125 51.625 C 17.082031 51.378906 17.226562 51.039062 17.230469 50.6875 L 17.332031 44.019531 L 14.667969 43.980469 Z M 56 34.667969 C 54.53125 34.667969 53.332031 33.46875 53.332031 32 C 53.332031 30.53125 54.53125 29.332031 56 29.332031 C 57.46875 29.332031 58.667969 30.53125 58.667969 32 C 58.667969 33.46875 57.46875 34.667969 56 34.667969 Z M 32 58.667969 C 30.53125 58.667969 29.332031 57.46875 29.332031 56 C 29.332031 54.53125 30.53125 53.332031 32 53.332031 C 33.46875 53.332031 34.667969 54.53125 34.667969 56 C 34.667969 57.46875 33.46875 58.667969 32 58.667969 Z M 61.332031 32 C 61.332031 29.460938 59.546875 27.335938 57.164062 26.804688 C 56.210938 22.277344 54.078125 18.136719 50.933594 14.722656 L 54.6875 14.667969 L 54.644531 12 L 47.980469 12.101562 C 47.625 12.109375 47.289062 12.253906 47.042969 12.507812 C 46.796875 12.761719 46.660156 13.101562 46.667969 13.457031 L 46.769531 20.019531 L 49.433594 19.980469 L 49.386719 16.976562 C 51.886719 19.835938 53.613281 23.230469 54.464844 26.917969 C 52.273438 27.582031 50.667969 29.597656 50.667969 32 C 50.667969 34.425781 52.304688 36.457031 54.527344 37.101562 C 52.625 45.738281 45.804688 52.660156 37.136719 54.648438 C 36.535156 52.363281 34.472656 50.667969 32 50.667969 C 29.523438 50.667969 27.457031 52.367188 26.859375 54.65625 C 24.4375 54.109375 22.132812 53.207031 20 51.910156 L 18.617188 54.191406 C 21.171875 55.742188 23.949219 56.800781 26.871094 57.386719 C 27.488281 59.652344 29.542969 61.332031 32 61.332031 C 34.460938 61.332031 36.519531 59.648438 37.128906 57.378906 C 47.25 55.3125 55.234375 47.242188 57.242188 37.171875 C 59.582031 36.609375 61.332031 34.511719 61.332031 32 Z M 61.332031 32 "/>
</svg>
