<?xml version="1.0" encoding="UTF-8"?>
<svg xmlns="http://www.w3.org/2000/svg" xmlns:xlink="http://www.w3.org/1999/xlink" width="64" height="64" viewBox="0 0 64 64">
<path fill-rule="evenodd" fill="rgb(47.843137%, 63.137257%, 8.627451%)" fill-opacity="1" d="M 46.019531 32.234375 C 46.1875 32.070312 46.457031 32.070312 46.625 32.234375 C 46.789062 32.402344 46.789062 32.671875 46.625 32.839844 L 44.410156 35.054688 L 44.183594 34.070312 Z M 42.25 45.636719 L 36.242188 32.425781 C 36.066406 32.035156 35.710938 31.753906 35.292969 31.671875 C 34.875 31.589844 34.4375 31.707031 34.121094 32 L 27.582031 38.070312 C 27.308594 38.320312 27.15625 38.675781 27.15625 39.046875 L 27.15625 46.707031 L 26.78125 47.078125 L 24.746094 40.085938 C 24.617188 39.644531 24.273438 39.300781 23.832031 39.175781 L 16.945312 37.21875 L 17.304688 36.859375 L 24.964844 36.859375 C 25.34375 36.859375 25.703125 36.699219 25.957031 36.417969 L 31.9375 29.789062 C 32.222656 29.476562 32.339844 29.039062 32.253906 28.625 C 32.167969 28.207031 31.886719 27.859375 31.5 27.683594 L 18.289062 21.675781 L 19.808594 20.160156 L 36.492188 24.011719 C 36.949219 24.113281 37.4375 23.972656 37.765625 23.625 L 42.636719 18.414062 C 43.761719 17.289062 46.375 16.554688 46.875 17.050781 C 47.011719 17.191406 47.125 17.789062 46.832031 18.816406 C 46.527344 19.914062 45.9375 20.867188 45.546875 21.257812 L 40.300781 26.160156 C 39.953125 26.484375 39.808594 26.972656 39.914062 27.433594 L 43.769531 44.121094 Z M 31.105469 17.320312 C 31.273438 17.152344 31.542969 17.152344 31.710938 17.320312 C 31.878906 17.488281 31.878906 17.757812 31.710938 17.925781 L 29.886719 19.75 L 28.902344 19.523438 Z M 47.398438 23.175781 C 48.230469 22.339844 49.019531 20.910156 49.398438 19.539062 C 49.9375 17.671875 49.710938 16.117188 48.761719 15.167969 C 46.695312 13.101562 42.402344 14.875 40.722656 16.558594 L 36.339844 21.242188 L 32.949219 20.457031 L 33.597656 19.8125 C 34.800781 18.605469 34.800781 16.640625 33.597656 15.4375 C 32.390625 14.230469 30.425781 14.230469 29.21875 15.4375 L 25.839844 18.816406 L 19.683594 17.394531 C 19.242188 17.292969 18.769531 17.425781 18.441406 17.75 L 15.042969 21.152344 C 14.730469 21.460938 14.597656 21.902344 14.671875 22.332031 C 14.75 22.761719 15.035156 23.128906 15.433594 23.308594 L 28.738281 29.355469 L 24.375 34.191406 L 16.753906 34.191406 C 16.398438 34.191406 16.058594 34.332031 15.808594 34.585938 L 13.457031 36.941406 C 13.125 37.273438 12.992188 37.761719 13.109375 38.21875 C 13.230469 38.675781 13.582031 39.035156 14.039062 39.164062 L 22.390625 41.539062 L 24.847656 49.980469 C 24.980469 50.429688 25.339844 50.78125 25.796875 50.898438 C 25.90625 50.925781 26.019531 50.941406 26.128906 50.941406 C 26.476562 50.941406 26.816406 50.804688 27.070312 50.554688 L 29.429688 48.207031 C 29.679688 47.957031 29.820312 47.613281 29.820312 47.261719 L 29.820312 39.628906 L 34.578125 35.210938 L 40.617188 48.492188 C 40.796875 48.890625 41.164062 49.175781 41.59375 49.253906 C 42.019531 49.335938 42.464844 49.195312 42.773438 48.882812 L 46.175781 45.484375 C 46.5 45.15625 46.632812 44.6875 46.53125 44.242188 L 45.117188 38.117188 L 48.507812 34.726562 C 49.714844 33.519531 49.714844 31.554688 48.507812 30.351562 C 47.304688 29.144531 45.339844 29.144531 44.132812 30.351562 L 43.476562 31.007812 L 42.683594 27.585938 Z M 52.964844 51.457031 C 52.964844 52.289062 52.289062 52.96875 51.453125 52.96875 L 12.554688 52.96875 C 11.722656 52.96875 11.042969 52.289062 11.042969 51.457031 L 11.042969 12.574219 C 11.042969 11.738281 11.722656 11.0625 12.554688 11.0625 L 51.453125 11.0625 C 52.289062 11.0625 52.964844 11.738281 52.964844 12.574219 Z M 61.34375 19.257812 L 61.34375 16.589844 L 55.632812 16.589844 L 55.632812 12.574219 C 55.632812 10.269531 53.757812 8.394531 51.453125 8.394531 L 47.421875 8.394531 L 47.421875 2.667969 L 44.753906 2.667969 L 44.753906 8.394531 L 40.378906 8.394531 L 40.378906 2.667969 L 37.714844 2.667969 L 37.714844 8.394531 L 33.339844 8.394531 L 33.339844 2.667969 L 30.671875 2.667969 L 30.671875 8.394531 L 26.296875 8.394531 L 26.296875 2.667969 L 23.628906 2.667969 L 23.628906 8.394531 L 19.257812 8.394531 L 19.257812 2.667969 L 16.589844 2.667969 L 16.589844 8.394531 L 12.554688 8.394531 C 10.253906 8.394531 8.378906 10.269531 8.378906 12.574219 L 8.378906 16.589844 L 2.667969 16.589844 L 2.667969 19.257812 L 8.378906 19.257812 L 8.378906 23.628906 L 2.667969 23.628906 L 2.667969 26.296875 L 8.378906 26.296875 L 8.378906 30.671875 L 2.667969 30.671875 L 2.667969 33.339844 L 8.378906 33.339844 L 8.378906 37.714844 L 2.667969 37.714844 L 2.667969 40.378906 L 8.378906 40.378906 L 8.378906 44.753906 L 2.667969 44.753906 L 2.667969 47.421875 L 8.378906 47.421875 L 8.378906 51.457031 C 8.378906 53.761719 10.253906 55.636719 12.554688 55.636719 L 16.589844 55.636719 L 16.589844 61.34375 L 19.257812 61.34375 L 19.257812 55.636719 L 23.628906 55.636719 L 23.628906 61.34375 L 26.296875 61.34375 L 26.296875 55.636719 L 30.671875 55.636719 L 30.671875 61.34375 L 33.339844 61.34375 L 33.339844 55.636719 L 37.714844 55.636719 L 37.714844 61.34375 L 40.378906 61.34375 L 40.378906 55.636719 L 44.753906 55.636719 L 44.753906 61.34375 L 47.421875 61.34375 L 47.421875 55.636719 L 51.453125 55.636719 C 53.757812 55.636719 55.632812 53.761719 55.632812 51.457031 L 55.632812 47.421875 L 61.34375 47.421875 L 61.34375 44.753906 L 55.632812 44.753906 L 55.632812 40.378906 L 61.34375 40.378906 L 61.34375 37.714844 L 55.632812 37.714844 L 55.632812 33.339844 L 61.34375 33.339844 L 61.34375 30.671875 L 55.632812 30.671875 L 55.632812 26.296875 L 61.34375 26.296875 L 61.34375 23.628906 L 55.632812 23.628906 L 55.632812 19.257812 Z M 61.34375 19.257812 "/>
</svg>
