<?xml version="1.0" encoding="UTF-8"?>
<svg xmlns="http://www.w3.org/2000/svg" xmlns:xlink="http://www.w3.org/1999/xlink" width="64" height="64" viewBox="0 0 64 64">
<path fill-rule="evenodd" fill="rgb(47.843137%, 63.137257%, 8.627451%)" fill-opacity="1" d="M 44.109375 12.144531 C 42.230469 12.144531 40.703125 10.617188 40.703125 8.738281 C 40.703125 6.859375 42.230469 5.335938 44.109375 5.335938 C 45.984375 5.335938 47.511719 6.859375 47.511719 8.738281 C 47.511719 10.617188 45.984375 12.144531 44.109375 12.144531 Z M 17.332031 10.910156 L 22.824219 10.910156 L 22.824219 5.417969 L 17.332031 5.417969 Z M 44.109375 2.667969 C 40.761719 2.667969 38.035156 5.390625 38.035156 8.738281 C 38.035156 9.816406 38.34375 10.816406 38.839844 11.699219 L 32.332031 16.109375 L 25.492188 11.472656 L 25.492188 4.085938 C 25.492188 3.347656 24.894531 2.75 24.160156 2.75 L 16 2.75 C 15.261719 2.75 14.667969 3.347656 14.667969 4.085938 L 14.667969 12.246094 C 14.667969 12.980469 15.261719 13.578125 16 13.578125 L 23.84375 13.578125 L 31.101562 18.496094 L 31.101562 21.699219 L 33.765625 21.699219 L 33.765625 18.359375 L 40.636719 13.703125 C 41.621094 14.394531 42.816406 14.808594 44.109375 14.808594 C 47.457031 14.808594 50.179688 12.085938 50.179688 8.738281 C 50.179688 5.390625 47.457031 2.667969 44.109375 2.667969 Z M 32.453125 59.011719 C 24.414062 59.011719 19.914062 56.992188 19.761719 56.132812 L 19.761719 35.152344 C 22.71875 36.683594 27.695312 37.410156 32.453125 37.410156 C 37.210938 37.410156 42.191406 36.683594 45.148438 35.152344 L 45.148438 56.128906 C 44.992188 56.992188 40.488281 59.011719 32.453125 59.011719 Z M 47.792969 31.84375 C 47.78125 31.648438 47.765625 31.449219 47.710938 31.28125 C 47.324219 29.90625 45.914062 28.820312 43.40625 27.960938 L 42.542969 30.484375 C 44.3125 31.089844 44.953125 31.675781 45.109375 31.929688 C 44.707031 32.839844 40.265625 34.742188 32.453125 34.742188 C 24.632812 34.742188 20.195312 32.839844 19.800781 31.933594 C 19.949219 31.679688 20.589844 31.09375 22.367188 30.484375 L 21.5 27.960938 C 18.992188 28.820312 17.585938 29.90625 17.195312 31.277344 C 17.144531 31.460938 17.128906 31.652344 17.117188 31.84375 L 17.09375 31.84375 C 17.09375 31.871094 17.105469 31.898438 17.105469 31.925781 C 17.105469 31.953125 17.09375 31.980469 17.09375 32.007812 L 17.09375 56.132812 C 17.09375 59.945312 25.054688 61.679688 32.453125 61.679688 C 39.851562 61.679688 47.816406 59.945312 47.816406 56.132812 L 47.816406 32.007812 C 47.816406 31.980469 47.804688 31.953125 47.804688 31.925781 C 47.804688 31.898438 47.816406 31.871094 47.816406 31.84375 Z M 32.453125 29.511719 L 27.941406 25.285156 L 36.96875 25.285156 Z M 41.863281 32.285156 L 41.863281 23.953125 C 41.863281 23.214844 41.265625 22.617188 40.53125 22.617188 L 24.335938 22.617188 C 23.601562 22.617188 23.003906 23.214844 23.003906 23.953125 L 23.003906 32.285156 L 25.671875 32.285156 L 25.671875 26.816406 L 31.542969 32.3125 C 31.800781 32.550781 32.125 32.671875 32.453125 32.671875 C 32.78125 32.671875 33.109375 32.550781 33.367188 32.3125 L 39.195312 26.855469 L 39.195312 32.285156 Z M 41.863281 32.285156 "/>
</svg>
