<?xml version="1.0" encoding="UTF-8"?>
<svg xmlns="http://www.w3.org/2000/svg" xmlns:xlink="http://www.w3.org/1999/xlink" width="64" height="64" viewBox="0 0 64 64">
<path fill-rule="evenodd" fill="rgb(47.843137%, 63.137257%, 8.627451%)" fill-opacity="1" d="M 5.332031 31.976562 C 5.332031 17.285156 17.28125 5.332031 31.972656 5.332031 C 46.664062 5.332031 58.613281 17.285156 58.613281 31.976562 C 58.613281 46.664062 46.664062 58.613281 31.972656 58.613281 C 17.28125 58.613281 5.332031 46.664062 5.332031 31.976562 Z M 2.667969 31.976562 C 2.667969 48.132812 15.8125 61.28125 31.972656 61.28125 C 48.132812 61.28125 61.28125 48.132812 61.28125 31.976562 C 61.28125 15.8125 48.132812 2.667969 31.972656 2.667969 C 15.8125 2.667969 2.667969 15.8125 2.667969 31.976562 Z M 22.957031 46.957031 L 15.828125 46.957031 L 24.277344 29.257812 L 27.847656 36.625 Z M 25.464844 25.601562 C 25.242188 25.140625 24.777344 24.847656 24.265625 24.847656 L 24.261719 24.847656 C 23.75 24.851562 23.28125 25.144531 23.0625 25.609375 L 12.507812 47.71875 C 12.3125 48.128906 12.339844 48.617188 12.585938 49.003906 C 12.828125 49.390625 13.253906 49.625 13.714844 49.625 L 23.800781 49.625 C 24.316406 49.625 24.785156 49.328125 25.007812 48.863281 L 30.53125 37.191406 C 30.703125 36.824219 30.703125 36.402344 30.523438 36.039062 Z M 48.125 46.957031 L 40.863281 46.957031 L 27.660156 18.589844 C 27.441406 18.121094 26.96875 17.820312 26.453125 17.820312 L 21.652344 17.820312 L 21.660156 12.328125 L 31.273438 12.328125 L 44.414062 40.691406 C 44.632812 41.164062 45.105469 41.464844 45.621094 41.464844 L 48.125 41.464844 Z M 46.476562 38.800781 L 33.335938 10.433594 C 33.113281 9.960938 32.644531 9.660156 32.125 9.660156 L 20.328125 9.660156 C 19.589844 9.660156 18.996094 10.257812 18.992188 10.992188 L 18.984375 19.152344 C 18.984375 19.503906 19.125 19.84375 19.375 20.09375 C 19.625 20.34375 19.964844 20.484375 20.320312 20.484375 L 25.601562 20.484375 L 38.804688 48.855469 C 39.023438 49.324219 39.496094 49.625 40.011719 49.625 L 49.457031 49.625 C 50.195312 49.625 50.789062 49.03125 50.789062 48.292969 L 50.789062 40.132812 C 50.789062 39.394531 50.195312 38.800781 49.457031 38.800781 Z M 46.476562 38.800781 "/>
</svg>
