<?xml version="1.0" encoding="UTF-8"?>
<svg xmlns="http://www.w3.org/2000/svg" xmlns:xlink="http://www.w3.org/1999/xlink" width="64" height="64" viewBox="0 0 64 64">
<path fill-rule="evenodd" fill="rgb(47.843137%, 63.137257%, 8.627451%)" fill-opacity="1" d="M 36.808594 38.988281 C 36.808594 37.171875 37.679688 35.566406 39.007812 34.523438 L 41.292969 39.539062 L 43.71875 38.4375 L 41.429688 33.402344 C 41.777344 33.332031 42.136719 33.292969 42.503906 33.292969 C 45.644531 33.292969 48.199219 35.847656 48.199219 38.988281 C 48.199219 42.128906 45.644531 44.683594 42.503906 44.683594 C 39.363281 44.683594 36.808594 42.128906 36.808594 38.988281 Z M 36.835938 29.742188 L 37.875 32.027344 C 36.601562 32.878906 35.582031 34.070312 34.925781 35.46875 Z M 32.601562 34.019531 L 26.835938 27.433594 L 34.796875 27.433594 Z M 21.414062 44.683594 C 18.273438 44.683594 15.71875 42.128906 15.71875 38.988281 C 15.71875 35.9375 18.132812 33.460938 21.144531 33.320312 L 20.105469 38.734375 L 22.722656 39.242188 L 23.765625 33.816406 C 25.734375 34.714844 27.109375 36.6875 27.109375 38.988281 C 27.109375 42.128906 24.554688 44.683594 21.414062 44.683594 Z M 40.304688 30.929688 L 38.054688 25.976562 L 38.578125 23.917969 L 39.765625 23.917969 L 39.765625 21.253906 L 35.058594 21.253906 L 35.058594 23.917969 L 35.824219 23.917969 L 35.609375 24.769531 L 24.960938 24.769531 L 24.265625 21.582031 L 27.273438 21.574219 L 27.269531 18.910156 L 23.175781 18.914062 C 23.046875 18.914062 22.917969 18.9375 22.796875 18.972656 C 22.242188 19.140625 21.789062 19.535156 21.558594 20.0625 C 21.375 20.480469 21.25 21.167969 21.648438 22.089844 L 22.53125 26.128906 L 21.664062 30.636719 C 21.582031 30.636719 21.496094 30.625 21.414062 30.625 C 16.804688 30.625 13.050781 34.375 13.050781 38.988281 C 13.050781 43.601562 16.804688 47.351562 21.414062 47.351562 C 26.027344 47.351562 29.777344 43.601562 29.777344 38.988281 C 29.777344 35.386719 27.484375 32.316406 24.28125 31.140625 L 24.691406 29.03125 L 32.128906 37.523438 C 32.441406 37.882812 32.925781 38.042969 33.394531 37.953125 C 33.824219 37.867188 34.175781 37.566406 34.347656 37.167969 C 34.214844 37.753906 34.140625 38.363281 34.140625 38.988281 C 34.140625 43.601562 37.890625 47.351562 42.503906 47.351562 C 47.117188 47.351562 50.867188 43.601562 50.867188 38.988281 C 50.867188 34.375 47.117188 30.625 42.503906 30.625 C 41.742188 30.625 41.007812 30.738281 40.304688 30.929688 Z M 52.886719 51.375 C 52.886719 52.207031 52.207031 52.886719 51.371094 52.886719 L 12.546875 52.886719 C 11.710938 52.886719 11.03125 52.207031 11.03125 51.375 L 11.03125 12.5625 C 11.03125 11.730469 11.710938 11.050781 12.546875 11.050781 L 51.371094 11.050781 C 52.207031 11.050781 52.886719 11.730469 52.886719 12.5625 Z M 61.253906 19.230469 L 61.253906 16.566406 L 55.550781 16.566406 L 55.550781 12.5625 C 55.550781 10.257812 53.675781 8.382812 51.371094 8.382812 L 47.355469 8.382812 L 47.355469 2.667969 L 44.6875 2.667969 L 44.6875 8.382812 L 40.324219 8.382812 L 40.324219 2.667969 L 37.65625 2.667969 L 37.65625 8.382812 L 33.292969 8.382812 L 33.292969 2.667969 L 30.625 2.667969 L 30.625 8.382812 L 26.261719 8.382812 L 26.261719 2.667969 L 23.59375 2.667969 L 23.59375 8.382812 L 19.230469 8.382812 L 19.230469 2.667969 L 16.566406 2.667969 L 16.566406 8.382812 L 12.546875 8.382812 C 10.242188 8.382812 8.367188 10.257812 8.367188 12.5625 L 8.367188 16.566406 L 2.667969 16.566406 L 2.667969 19.230469 L 8.367188 19.230469 L 8.367188 23.59375 L 2.667969 23.59375 L 2.667969 26.261719 L 8.367188 26.261719 L 8.367188 30.625 L 2.667969 30.625 L 2.667969 33.292969 L 8.367188 33.292969 L 8.367188 37.65625 L 2.667969 37.65625 L 2.667969 40.324219 L 8.367188 40.324219 L 8.367188 44.683594 L 2.667969 44.683594 L 2.667969 47.351562 L 8.367188 47.351562 L 8.367188 51.375 C 8.367188 53.679688 10.242188 55.554688 12.546875 55.554688 L 16.566406 55.554688 L 16.566406 61.25 L 19.230469 61.25 L 19.230469 55.554688 L 23.59375 55.554688 L 23.59375 61.25 L 26.261719 61.25 L 26.261719 55.554688 L 30.625 55.554688 L 30.625 61.25 L 33.292969 61.25 L 33.292969 55.554688 L 37.65625 55.554688 L 37.65625 61.25 L 40.324219 61.25 L 40.324219 55.554688 L 44.6875 55.554688 L 44.6875 61.25 L 47.355469 61.25 L 47.355469 55.554688 L 51.371094 55.554688 C 53.675781 55.554688 55.550781 53.679688 55.550781 51.375 L 55.550781 47.351562 L 61.253906 47.351562 L 61.253906 44.683594 L 55.550781 44.683594 L 55.550781 40.324219 L 61.253906 40.324219 L 61.253906 37.65625 L 55.550781 37.65625 L 55.550781 33.292969 L 61.253906 33.292969 L 61.253906 30.625 L 55.550781 30.625 L 55.550781 26.261719 L 61.253906 26.261719 L 61.253906 23.59375 L 55.550781 23.59375 L 55.550781 19.230469 Z M 61.253906 19.230469 "/>
</svg>
