<?xml version="1.0" encoding="UTF-8"?>
<svg xmlns="http://www.w3.org/2000/svg" xmlns:xlink="http://www.w3.org/1999/xlink" width="64" height="64" viewBox="0 0 64 64">
<path fill-rule="evenodd" fill="rgb(47.843137%, 63.137257%, 8.627451%)" fill-opacity="1" d="M 23.230469 48.214844 C 23.058594 48.144531 22.695312 47.546875 22.757812 46.707031 L 22.878906 45.183594 C 22.90625 45.078125 22.921875 44.96875 22.921875 44.855469 C 22.921875 44.117188 22.304688 43.519531 21.570312 43.519531 L 21.066406 43.519531 C 20.328125 43.519531 19.621094 42.550781 19.441406 41.214844 L 15.925781 24.484375 L 17.078125 24.050781 L 21.03125 35.832031 C 21.230469 36.429688 21.8125 36.800781 22.441406 36.734375 C 23.066406 36.664062 23.554688 36.171875 23.621094 35.546875 L 24.960938 22.75 L 36.664062 22.75 L 40 46.671875 C 40.074219 47.53125 39.707031 48.140625 39.570312 48.207031 Z M 33.136719 18.0625 C 34.511719 18.0625 35.695312 18.894531 36.214844 20.082031 L 25.371094 20.082031 C 25.886719 18.894531 27.070312 18.0625 28.449219 18.0625 Z M 44.691406 33.347656 C 44.691406 35.363281 43.304688 37.070312 41.414062 37.53125 L 40.019531 27.53125 C 42.664062 27.96875 44.691406 30.253906 44.691406 33.019531 Z M 45.863281 45.921875 L 42.585938 45.921875 L 41.78125 40.160156 C 44.976562 39.507812 47.359375 36.703125 47.359375 33.347656 L 47.359375 33.019531 C 47.359375 28.648438 43.941406 25.074219 39.640625 24.796875 L 39.144531 21.234375 C 39.140625 21.222656 39.136719 21.21875 39.136719 21.210938 C 39.023438 17.988281 36.382812 15.394531 33.136719 15.394531 L 32.125 15.394531 L 32.125 13.214844 L 29.457031 13.214844 L 29.457031 15.394531 L 28.449219 15.394531 C 25.1875 15.394531 22.539062 18.007812 22.445312 21.246094 C 22.441406 21.257812 22.4375 21.265625 22.433594 21.277344 L 21.609375 29.171875 L 19.164062 21.894531 C 19.050781 21.550781 18.800781 21.269531 18.472656 21.113281 C 18.148438 20.957031 17.773438 20.941406 17.429688 21.070312 L 13.914062 22.394531 C 13.300781 22.625 12.945312 23.269531 13.082031 23.914062 L 16.8125 41.667969 C 17.109375 43.890625 18.441406 45.597656 20.132812 46.0625 L 20.097656 46.5 C 20 47.824219 20.402344 49.113281 21.179688 49.949219 C 21.734375 50.546875 22.449219 50.875 23.199219 50.875 L 39.570312 50.875 C 40.320312 50.875 41.039062 50.539062 41.597656 49.933594 C 41.9375 49.5625 42.183594 49.097656 42.367188 48.585938 L 45.863281 48.585938 L 45.863281 49.542969 C 45.863281 50.277344 46.460938 50.875 47.199219 50.875 L 50.710938 50.875 L 50.710938 48.207031 L 48.53125 48.207031 L 48.53125 46.1875 L 50.710938 46.1875 L 50.710938 43.519531 L 47.199219 43.519531 C 46.460938 43.519531 45.863281 44.117188 45.863281 44.855469 Z M 52.894531 51.382812 C 52.894531 52.21875 52.214844 52.894531 51.378906 52.894531 L 12.546875 52.894531 C 11.710938 52.894531 11.03125 52.21875 11.03125 51.382812 L 11.03125 12.566406 C 11.03125 11.730469 11.710938 11.050781 12.546875 11.050781 L 51.378906 11.050781 C 52.214844 11.050781 52.894531 11.730469 52.894531 12.566406 Z M 61.261719 19.234375 L 61.261719 16.566406 L 55.558594 16.566406 L 55.558594 12.566406 C 55.558594 10.257812 53.683594 8.382812 51.378906 8.382812 L 47.359375 8.382812 L 47.359375 2.667969 L 44.691406 2.667969 L 44.691406 8.382812 L 40.328125 8.382812 L 40.328125 2.667969 L 37.660156 2.667969 L 37.660156 8.382812 L 33.296875 8.382812 L 33.296875 2.667969 L 30.628906 2.667969 L 30.628906 8.382812 L 26.265625 8.382812 L 26.265625 2.667969 L 23.597656 2.667969 L 23.597656 8.382812 L 19.234375 8.382812 L 19.234375 2.667969 L 16.566406 2.667969 L 16.566406 8.382812 L 12.546875 8.382812 C 10.242188 8.382812 8.367188 10.257812 8.367188 12.566406 L 8.367188 16.566406 L 2.667969 16.566406 L 2.667969 19.234375 L 8.367188 19.234375 L 8.367188 23.597656 L 2.667969 23.597656 L 2.667969 26.265625 L 8.367188 26.265625 L 8.367188 30.628906 L 2.667969 30.628906 L 2.667969 33.296875 L 8.367188 33.296875 L 8.367188 37.660156 L 2.667969 37.660156 L 2.667969 40.328125 L 8.367188 40.328125 L 8.367188 44.691406 L 2.667969 44.691406 L 2.667969 47.359375 L 8.367188 47.359375 L 8.367188 51.382812 C 8.367188 53.6875 10.242188 55.5625 12.546875 55.5625 L 16.566406 55.5625 L 16.566406 61.261719 L 19.234375 61.261719 L 19.234375 55.5625 L 23.597656 55.5625 L 23.597656 61.261719 L 26.265625 61.261719 L 26.265625 55.5625 L 30.628906 55.5625 L 30.628906 61.261719 L 33.296875 61.261719 L 33.296875 55.5625 L 37.660156 55.5625 L 37.660156 61.261719 L 40.328125 61.261719 L 40.328125 55.5625 L 44.691406 55.5625 L 44.691406 61.261719 L 47.359375 61.261719 L 47.359375 55.5625 L 51.378906 55.5625 C 53.683594 55.5625 55.558594 53.6875 55.558594 51.382812 L 55.558594 47.359375 L 61.261719 47.359375 L 61.261719 44.691406 L 55.558594 44.691406 L 55.558594 40.328125 L 61.261719 40.328125 L 61.261719 37.660156 L 55.558594 37.660156 L 55.558594 33.296875 L 61.261719 33.296875 L 61.261719 30.628906 L 55.558594 30.628906 L 55.558594 26.265625 L 61.261719 26.265625 L 61.261719 23.597656 L 55.558594 23.597656 L 55.558594 19.234375 Z M 61.261719 19.234375 "/>
</svg>
