<?xml version="1.0" encoding="UTF-8"?>
<svg xmlns="http://www.w3.org/2000/svg" xmlns:xlink="http://www.w3.org/1999/xlink" width="64" height="64" viewBox="0 0 64 64">
<path fill-rule="evenodd" fill="rgb(47.843137%, 63.137257%, 8.627451%)" fill-opacity="1" d="M 45.257812 35.316406 C 42.355469 36.847656 37.484375 37.5625 32.632812 37.5625 C 27.777344 37.5625 22.902344 36.84375 20 35.308594 L 20 54.703125 C 21.523438 56.535156 25.621094 58.535156 32.632812 58.535156 C 39.695312 58.535156 43.792969 56.519531 45.289062 54.679688 Z M 20 31.886719 C 20 32.714844 23.886719 34.894531 32.632812 34.894531 C 41.199219 34.894531 45.09375 32.808594 45.253906 31.941406 L 45.25 30.070312 C 42.347656 31.601562 37.480469 32.3125 32.632812 32.3125 C 27.777344 32.3125 22.902344 31.597656 20 30.0625 Z M 20 26.636719 C 20 27.464844 23.886719 29.648438 32.632812 29.648438 C 41.101562 29.648438 45.003906 27.605469 45.246094 26.722656 L 45.222656 12.34375 C 42.351562 13.910156 37.464844 14.644531 32.59375 14.644531 C 27.742188 14.644531 22.871094 13.917969 19.996094 12.363281 Z M 32.59375 11.976562 C 40.878906 11.976562 44.757812 9.992188 45.089844 9.089844 C 44.976562 8.773438 44.789062 8.480469 44.5 8.195312 C 42.113281 5.8125 35.019531 5.320312 32.546875 5.332031 C 22.441406 5.332031 20.464844 8.152344 20.089844 9.058594 C 20.34375 9.945312 24.214844 11.976562 32.59375 11.976562 Z M 47.957031 55.144531 C 47.957031 55.496094 47.816406 55.832031 47.574219 56.082031 C 45.726562 58.589844 40.886719 61.203125 32.632812 61.203125 C 24.199219 61.203125 19.316406 58.464844 17.566406 55.898438 C 17.414062 55.679688 17.332031 55.414062 17.332031 55.148438 L 17.332031 9.269531 C 17.34375 8.578125 17.847656 2.667969 32.539062 2.667969 C 33.539062 2.667969 42.773438 2.714844 46.382812 6.300781 C 47.378906 7.296875 47.886719 8.464844 47.886719 9.785156 L 47.910156 26.636719 L 47.933594 26.636719 C 47.933594 26.699219 47.917969 26.757812 47.910156 26.820312 L 47.917969 31.886719 L 47.933594 31.886719 C 47.933594 31.925781 47.921875 31.964844 47.921875 32.007812 Z M 25.585938 7.21875 C 26.839844 7.21875 27.855469 7.714844 27.855469 8.328125 C 27.855469 8.941406 26.839844 9.441406 25.585938 9.441406 C 24.332031 9.441406 23.316406 8.941406 23.316406 8.328125 C 23.316406 7.714844 24.332031 7.21875 25.585938 7.21875 Z M 25.585938 7.21875 "/>
</svg>
