<?xml version="1.0" encoding="UTF-8"?>
<svg xmlns="http://www.w3.org/2000/svg" xmlns:xlink="http://www.w3.org/1999/xlink" width="64" height="64" viewBox="0 0 64 64">
<path fill-rule="evenodd" fill="rgb(47.843137%, 63.137257%, 8.627451%)" fill-opacity="1" d="M 30.21875 53.859375 L 34.230469 53.859375 L 32.226562 51.136719 Z M 26.503906 54.398438 L 31.152344 48.101562 C 31.65625 47.417969 32.796875 47.417969 33.296875 48.101562 L 37.945312 54.398438 C 38.242188 54.804688 38.289062 55.34375 38.0625 55.792969 C 37.835938 56.242188 37.375 56.523438 36.871094 56.523438 L 27.578125 56.523438 C 27.074219 56.523438 26.613281 56.242188 26.386719 55.792969 C 26.160156 55.34375 26.207031 54.804688 26.503906 54.398438 Z M 15.378906 54.175781 C 16.375 54.175781 17.183594 53.367188 17.183594 52.375 C 17.183594 51.378906 16.375 50.570312 15.378906 50.570312 C 14.382812 50.570312 13.574219 51.378906 13.574219 52.375 C 13.574219 53.367188 14.382812 54.175781 15.378906 54.175781 Z M 15.378906 47.902344 C 17.84375 47.902344 19.847656 49.90625 19.847656 52.375 C 19.847656 54.835938 17.84375 56.84375 15.378906 56.84375 C 12.914062 56.84375 10.910156 54.835938 10.910156 52.375 C 10.910156 49.90625 12.914062 47.902344 15.378906 47.902344 Z M 8 58.589844 L 56.449219 58.589844 L 56.449219 46.15625 L 8 46.15625 Z M 59.117188 59.925781 C 59.117188 60.660156 58.519531 61.257812 57.785156 61.257812 L 6.667969 61.257812 C 5.929688 61.257812 5.332031 60.660156 5.332031 59.925781 L 5.332031 44.820312 C 5.332031 44.082031 5.929688 43.488281 6.667969 43.488281 L 30.890625 43.488281 L 30.890625 28.289062 L 28.519531 30.660156 L 26.632812 28.777344 L 31.28125 24.128906 C 31.800781 23.609375 32.648438 23.609375 33.167969 24.128906 L 37.816406 28.777344 L 35.929688 30.660156 L 33.558594 28.289062 L 33.558594 43.488281 L 57.785156 43.488281 C 58.519531 43.488281 59.117188 44.082031 59.117188 44.820312 Z M 6.238281 26.589844 C 6.238281 21.992188 8.71875 18.480469 12.929688 17.003906 C 12.921875 16.8125 12.917969 16.621094 12.917969 16.4375 C 12.917969 11.214844 16.457031 5.796875 21.148438 3.832031 C 26.621094 1.539062 32.425781 2.671875 36.671875 6.878906 C 37.867188 8.066406 38.871094 9.488281 39.660156 11.117188 C 40.734375 10.359375 42.003906 9.945312 43.332031 9.945312 C 46.210938 9.945312 49.441406 12.070312 50.117188 16.71875 C 54.199219 17.738281 58.210938 20.800781 58.210938 26.671875 C 58.210938 34.121094 52.019531 36.589844 48.746094 36.851562 L 35.707031 36.84375 L 35.710938 34.179688 L 48.640625 34.191406 C 48.816406 34.167969 55.542969 33.503906 55.542969 26.671875 C 55.542969 20.917969 50.722656 19.484375 48.652344 19.132812 C 47.960938 19.015625 47.476562 18.382812 47.546875 17.683594 C 47.289062 13.972656 45.113281 12.609375 43.332031 12.609375 C 42.136719 12.609375 41.015625 13.199219 40.253906 14.222656 C 39.960938 14.617188 39.480469 14.8125 38.984375 14.746094 C 38.5 14.671875 38.09375 14.335938 37.929688 13.875 C 37.195312 11.828125 36.140625 10.109375 34.792969 8.773438 C 33.136719 7.132812 28.578125 3.601562 22.179688 6.289062 C 18.480469 7.839844 15.585938 12.292969 15.585938 16.4375 C 15.585938 16.90625 15.617188 17.367188 15.667969 17.816406 C 15.746094 18.480469 15.320312 19.101562 14.671875 19.261719 C 12.519531 19.804688 8.90625 21.480469 8.90625 26.589844 C 8.90625 26.824219 8.914062 27.03125 8.925781 27.242188 C 9.167969 31.113281 12.574219 34.15625 16.679688 34.15625 L 28.742188 34.167969 L 28.738281 36.832031 L 16.679688 36.824219 C 11.171875 36.824219 6.59375 32.679688 6.265625 27.394531 C 6.25 27.121094 6.238281 26.871094 6.238281 26.589844 Z M 6.238281 26.589844 "/>
</svg>
