<?xml version="1.0" encoding="UTF-8"?>
<svg xmlns="http://www.w3.org/2000/svg" xmlns:xlink="http://www.w3.org/1999/xlink" width="64" height="64" viewBox="0 0 64 64">
<path fill-rule="evenodd" fill="rgb(47.843137%, 63.137257%, 8.627451%)" fill-opacity="1" d="M 32.089844 54.371094 C 29.378906 54.371094 26.949219 53.363281 25.75 51.746094 L 27.894531 50.160156 C 28.460938 50.925781 29.980469 51.703125 32.089844 51.703125 C 34.203125 51.703125 35.722656 50.925781 36.289062 50.160156 L 38.4375 51.742188 C 37.238281 53.363281 34.808594 54.371094 32.089844 54.371094 M 40.121094 55.679688 L 42.265625 57.265625 C 40.378906 59.824219 36.480469 61.410156 32.089844 61.410156 C 27.707031 61.410156 23.808594 59.824219 21.917969 57.269531 L 24.0625 55.683594 C 25.417969 57.515625 28.644531 58.742188 32.089844 58.742188 C 35.542969 58.742188 38.769531 57.511719 40.121094 55.679688 M 32.089844 27.46875 C 34.808594 27.46875 37.238281 28.472656 38.4375 30.09375 L 36.289062 31.679688 C 35.722656 30.910156 34.203125 30.132812 32.089844 30.132812 C 29.980469 30.132812 28.460938 30.910156 27.894531 31.679688 L 25.75 30.09375 C 26.949219 28.472656 29.378906 27.46875 32.089844 27.46875 M 32.089844 23.09375 C 28.644531 23.09375 25.417969 24.324219 24.0625 26.152344 L 21.917969 24.566406 C 23.808594 22.011719 27.707031 20.425781 32.089844 20.425781 C 36.480469 20.425781 40.378906 22.015625 42.265625 24.570312 L 40.121094 26.15625 C 38.769531 24.324219 35.542969 23.09375 32.089844 23.09375 M 5.421875 30.015625 L 2.753906 30.015625 C 2.753906 22.863281 7.472656 20.121094 10.382812 19.113281 L 10.339844 18.390625 C 10.335938 12.378906 14.300781 6.222656 19.554688 3.992188 C 25.707031 1.378906 32.226562 2.675781 36.988281 7.46875 C 38.382812 8.871094 39.542969 10.558594 40.441406 12.496094 C 42.324219 11.089844 44.785156 10.640625 47.074219 11.394531 C 50.089844 12.382812 51.984375 15.125 52.265625 18.820312 C 56.925781 19.972656 61.523438 23.449219 61.523438 30.101562 L 58.855469 30.101562 C 58.855469 23.347656 53.167969 21.640625 50.722656 21.21875 C 50.003906 21.09375 49.519531 20.414062 49.632812 19.695312 C 49.636719 16.773438 48.398438 14.632812 46.242188 13.925781 C 44.351562 13.304688 42.253906 13.992188 41.035156 15.640625 C 40.746094 16.039062 40.257812 16.238281 39.765625 16.171875 C 39.277344 16.097656 38.871094 15.757812 38.707031 15.292969 C 37.867188 12.914062 36.652344 10.914062 35.097656 9.347656 C 33.191406 7.429688 27.96875 3.3125 20.59375 6.445312 C 16.339844 8.253906 13.003906 13.46875 13.003906 18.3125 L 13.105469 20.007812 C 13.144531 20.644531 12.722656 21.21875 12.105469 21.375 C 9.609375 22.015625 5.421875 23.992188 5.421875 30.015625 M 52.859375 48.730469 C 50.316406 48.730469 48 47.210938 46.960938 44.863281 C 46.75 44.382812 46.269531 44.070312 45.742188 44.070312 L 18.457031 44.070312 C 17.929688 44.070312 17.449219 44.382812 17.238281 44.863281 C 16.199219 47.210938 13.882812 48.730469 11.339844 48.730469 C 9.21875 48.730469 7.308594 47.214844 6.136719 45.402344 L 10.757812 45.402344 C 11.496094 45.402344 12.09375 44.808594 12.09375 44.070312 L 12.09375 37.402344 C 12.09375 36.667969 11.496094 36.070312 10.757812 36.070312 L 6.222656 36.070312 C 7.40625 34.203125 9.320312 32.636719 11.421875 32.636719 C 14.015625 32.636719 16.265625 34.152344 17.296875 36.589844 C 17.503906 37.082031 17.988281 37.402344 18.523438 37.402344 L 45.757812 37.402344 C 46.296875 37.402344 46.78125 37.082031 46.988281 36.589844 C 48.015625 34.152344 50.265625 32.636719 52.863281 32.636719 C 54.964844 32.636719 56.875 34.203125 58.058594 36.070312 L 53.425781 36.070312 C 52.6875 36.070312 52.09375 36.667969 52.09375 37.402344 L 52.09375 44.070312 C 52.09375 44.808594 52.6875 45.402344 53.425781 45.402344 L 58.0625 45.402344 C 56.890625 47.214844 54.980469 48.730469 52.859375 48.730469 M 61.285156 43.296875 C 61.035156 42.945312 60.628906 42.738281 60.199219 42.738281 L 54.757812 42.738281 L 54.757812 38.738281 L 60.183594 38.738281 C 60.617188 38.738281 61.023438 38.527344 61.273438 38.175781 C 61.523438 37.824219 61.585938 37.371094 61.441406 36.960938 C 60.222656 33.488281 56.882812 29.96875 52.863281 29.96875 C 49.53125 29.96875 46.503906 31.8125 44.921875 34.738281 L 19.359375 34.738281 C 17.777344 31.8125 14.75 29.96875 11.421875 29.96875 C 7.402344 29.96875 4.0625 33.488281 2.839844 36.960938 C 2.695312 37.367188 2.757812 37.820312 3.007812 38.175781 C 3.257812 38.527344 3.664062 38.738281 4.097656 38.738281 L 9.425781 38.738281 L 9.425781 42.738281 L 4 42.738281 C 3.566406 42.738281 3.164062 42.945312 2.914062 43.296875 C 2.664062 43.648438 2.597656 44.101562 2.742188 44.511719 C 3.933594 47.929688 7.273438 51.394531 11.339844 51.394531 C 14.640625 51.394531 17.667969 49.59375 19.277344 46.738281 L 44.921875 46.738281 C 46.53125 49.59375 49.558594 51.394531 52.859375 51.394531 C 56.925781 51.394531 60.261719 47.929688 61.457031 44.511719 C 61.597656 44.101562 61.535156 43.648438 61.285156 43.296875 "/>
</svg>
