<?xml version="1.0" encoding="UTF-8"?>
<svg xmlns="http://www.w3.org/2000/svg" xmlns:xlink="http://www.w3.org/1999/xlink" width="64" height="64" viewBox="0 0 64 64">
<path fill-rule="evenodd" fill="rgb(47.843137%, 63.137257%, 8.627451%)" fill-opacity="1" d="M 32 43.96875 C 31.265625 43.96875 30.667969 43.371094 30.667969 42.636719 C 30.667969 41.902344 31.265625 41.304688 32 41.304688 C 32.734375 41.304688 33.332031 41.902344 33.332031 42.636719 C 33.332031 43.371094 32.734375 43.96875 32 43.96875 Z M 33.332031 38.882812 L 33.332031 24 L 30.667969 24 L 30.667969 38.882812 C 29.117188 39.433594 28 40.902344 28 42.636719 C 28 44.84375 29.792969 46.636719 32 46.636719 C 34.207031 46.636719 36 44.84375 36 42.636719 C 36 40.902344 34.882812 39.433594 33.332031 38.882812 Z M 35.363281 46.773438 C 34.09375 47.808594 32.484375 48.191406 30.84375 47.851562 C 28.785156 47.421875 27.140625 45.730469 26.757812 43.640625 C 26.386719 41.605469 27.152344 39.644531 28.804688 38.398438 L 29.332031 37.996094 L 29.332031 18.664062 C 29.332031 17.195312 30.53125 16 32 16 C 33.46875 16 34.667969 17.195312 34.667969 18.664062 L 34.667969 37.996094 L 35.195312 38.398438 C 36.554688 39.421875 37.332031 40.96875 37.332031 42.636719 C 37.332031 44.25 36.617188 45.757812 35.363281 46.773438 Z M 37.332031 36.703125 L 37.332031 18.664062 C 37.332031 15.726562 34.941406 13.332031 32 13.332031 C 29.058594 13.332031 26.667969 15.726562 26.667969 18.664062 L 26.667969 36.707031 C 24.59375 38.566406 23.628906 41.347656 24.136719 44.125 C 24.714844 47.269531 27.191406 49.816406 30.300781 50.460938 C 30.863281 50.578125 31.429688 50.636719 31.988281 50.636719 C 33.828125 50.636719 35.609375 50.015625 37.046875 48.84375 C 38.921875 47.316406 40 45.054688 40 42.636719 C 40 40.351562 39.035156 38.226562 37.332031 36.703125 Z M 40 36 L 45.332031 36 L 45.332031 33.332031 L 40 33.332031 Z M 40 30.664062 L 46.667969 30.664062 L 46.667969 28 L 40 28 Z M 40 25.332031 L 45.332031 25.332031 L 45.332031 22.664062 L 40 22.664062 Z M 40 20 L 46.667969 20 L 46.667969 17.332031 L 40 17.332031 Z M 52 50.488281 C 52 51.320312 51.320312 52 50.488281 52 L 13.511719 52 C 12.679688 52 12 51.320312 12 50.488281 L 12 13.511719 C 12 12.679688 12.679688 12 13.511719 12 L 50.488281 12 C 51.320312 12 52 12.679688 52 13.511719 Z M 61.332031 20 L 61.332031 17.332031 L 54.667969 17.332031 L 54.667969 13.511719 C 54.667969 11.207031 52.792969 9.332031 50.488281 9.332031 L 46.667969 9.332031 L 46.667969 2.664062 L 44 2.664062 L 44 9.332031 L 40 9.332031 L 40 2.664062 L 37.332031 2.664062 L 37.332031 9.332031 L 33.332031 9.332031 L 33.332031 2.664062 L 30.667969 2.664062 L 30.667969 9.332031 L 26.667969 9.332031 L 26.667969 2.664062 L 24 2.664062 L 24 9.332031 L 20 9.332031 L 20 2.664062 L 17.332031 2.664062 L 17.332031 9.332031 L 13.511719 9.332031 C 11.207031 9.332031 9.332031 11.207031 9.332031 13.511719 L 9.332031 17.332031 L 2.667969 17.332031 L 2.667969 20 L 9.332031 20 L 9.332031 24 L 2.667969 24 L 2.667969 26.664062 L 9.332031 26.664062 L 9.332031 30.664062 L 2.667969 30.664062 L 2.667969 33.332031 L 9.332031 33.332031 L 9.332031 37.332031 L 2.667969 37.332031 L 2.667969 40 L 9.332031 40 L 9.332031 44 L 2.667969 44 L 2.667969 46.664062 L 9.332031 46.664062 L 9.332031 50.488281 C 9.332031 52.792969 11.207031 54.664062 13.511719 54.664062 L 17.332031 54.664062 L 17.332031 61.332031 L 20 61.332031 L 20 54.664062 L 24 54.664062 L 24 61.332031 L 26.667969 61.332031 L 26.667969 54.664062 L 30.667969 54.664062 L 30.667969 61.332031 L 33.332031 61.332031 L 33.332031 54.664062 L 37.332031 54.664062 L 37.332031 61.332031 L 40 61.332031 L 40 54.664062 L 44 54.664062 L 44 61.332031 L 46.667969 61.332031 L 46.667969 54.664062 L 50.488281 54.664062 C 52.792969 54.664062 54.667969 52.792969 54.667969 50.488281 L 54.667969 46.664062 L 61.332031 46.664062 L 61.332031 44 L 54.667969 44 L 54.667969 40 L 61.332031 40 L 61.332031 37.332031 L 54.667969 37.332031 L 54.667969 33.332031 L 61.332031 33.332031 L 61.332031 30.664062 L 54.667969 30.664062 L 54.667969 26.664062 L 61.332031 26.664062 L 61.332031 24 L 54.667969 24 L 54.667969 20 Z M 61.332031 20 "/>
</svg>
