<?xml version="1.0" encoding="UTF-8"?>
<svg xmlns="http://www.w3.org/2000/svg" xmlns:xlink="http://www.w3.org/1999/xlink" width="64" height="64" viewBox="0 0 64 64">
<path fill-rule="evenodd" fill="rgb(47.843137%, 63.137257%, 8.627451%)" fill-opacity="1" d="M 41.792969 51.613281 C 41.792969 50.324219 41.601562 49.355469 41.222656 48.703125 C 40.839844 48.050781 40.269531 47.722656 39.515625 47.722656 C 38.757812 47.722656 38.191406 48.050781 37.808594 48.703125 C 37.425781 49.355469 37.234375 50.324219 37.234375 51.613281 C 37.234375 52.898438 37.425781 53.871094 37.808594 54.527344 C 38.191406 55.183594 38.757812 55.515625 39.515625 55.515625 C 40.269531 55.515625 40.839844 55.183594 41.222656 54.527344 C 41.601562 53.871094 41.792969 52.898438 41.792969 51.613281 Z M 25.148438 58.613281 L 42.691406 58.613281 C 42.128906 58.5 41.582031 58.324219 41.066406 58.046875 C 40.433594 57.699219 39.851562 57.238281 39.320312 56.660156 C 38.582031 56.625 37.953125 56.398438 37.429688 55.988281 C 36.910156 55.578125 36.515625 55 36.25 54.253906 C 35.984375 53.507812 35.851562 52.628906 35.851562 51.613281 C 35.851562 50.015625 36.171875 48.777344 36.816406 47.898438 C 37.460938 47.015625 38.359375 46.578125 39.515625 46.578125 C 40.671875 46.578125 41.570312 47.015625 42.214844 47.898438 C 42.859375 48.777344 43.179688 50.015625 43.179688 51.613281 C 43.179688 52.9375 42.957031 54.019531 42.507812 54.863281 C 42.0625 55.707031 41.421875 56.253906 40.59375 56.507812 C 40.964844 56.804688 41.351562 57.035156 41.753906 57.191406 C 42.152344 57.351562 42.597656 57.457031 43.082031 57.515625 L 43.082031 58.613281 L 58.613281 58.613281 L 58.613281 43.796875 L 25.148438 43.796875 Z M 22.480469 41.132812 L 61.28125 41.132812 L 61.28125 61.28125 L 22.480469 61.28125 Z M 10.351562 2.664062 C 6.113281 2.664062 2.667969 6.113281 2.667969 10.351562 L 2.667969 53.59375 C 2.667969 57.832031 6.113281 61.28125 10.351562 61.28125 L 20.316406 61.28125 L 20.316406 58.613281 L 10.351562 58.613281 C 7.582031 58.613281 5.332031 56.363281 5.332031 53.59375 L 5.332031 10.351562 C 5.332031 7.585938 7.582031 5.332031 10.351562 5.332031 L 53.59375 5.332031 C 56.363281 5.332031 58.613281 7.585938 58.613281 10.351562 L 58.613281 38.96875 L 61.28125 38.96875 L 61.28125 10.351562 C 61.28125 6.113281 57.832031 2.664062 53.59375 2.664062 Z M 53.320312 56.449219 L 54.675781 56.449219 L 54.675781 47.890625 L 57.09375 47.890625 L 57.09375 46.757812 L 50.914062 46.757812 L 50.914062 47.890625 L 53.320312 47.890625 Z M 46.324219 56.449219 L 47.683594 56.449219 L 47.683594 47.890625 L 50.101562 47.890625 L 50.101562 46.757812 L 43.921875 46.757812 L 43.921875 47.890625 L 46.324219 47.890625 Z M 32.507812 46.757812 L 33.972656 46.757812 L 33.972656 56.449219 L 32.757812 56.449219 L 32.757812 48.855469 L 30.773438 53.960938 L 29.554688 53.960938 L 27.570312 48.855469 L 27.570312 56.449219 L 26.351562 56.449219 L 26.351562 46.757812 L 27.878906 46.757812 L 30.183594 52.6875 Z M 32.507812 46.757812 "/>
</svg>
