<?xml version="1.0" encoding="UTF-8"?>
<svg xmlns="http://www.w3.org/2000/svg" xmlns:xlink="http://www.w3.org/1999/xlink" width="64" height="64" viewBox="0 0 64 64">
<path fill-rule="evenodd" fill="rgb(47.843137%, 63.137257%, 8.627451%)" fill-opacity="1" d="M 27.277344 29.457031 C 26.074219 29.457031 25.09375 28.480469 25.09375 27.277344 C 25.09375 26.074219 26.074219 25.09375 27.277344 25.09375 C 28.480469 25.09375 29.457031 26.074219 29.457031 27.277344 C 29.457031 28.480469 28.480469 29.457031 27.277344 29.457031 Z M 36.652344 34.46875 C 37.855469 34.46875 38.832031 35.449219 38.832031 36.652344 C 38.832031 37.855469 37.855469 38.832031 36.652344 38.832031 C 35.449219 38.832031 34.46875 37.855469 34.46875 36.652344 C 34.46875 35.449219 35.449219 34.46875 36.652344 34.46875 Z M 20.40625 43.519531 L 20.40625 37.984375 L 32.011719 37.984375 C 32.597656 40.007812 34.445312 41.5 36.652344 41.5 C 39.324219 41.5 41.5 39.324219 41.5 36.652344 C 41.5 33.976562 39.324219 31.800781 36.652344 31.800781 C 34.445312 31.800781 32.597656 33.292969 32.011719 35.316406 L 20.40625 35.316406 L 20.40625 20.40625 L 43.519531 20.40625 L 43.519531 25.941406 L 31.914062 25.941406 C 31.332031 23.917969 29.484375 22.425781 27.277344 22.425781 C 24.601562 22.425781 22.425781 24.601562 22.425781 27.277344 C 22.425781 29.949219 24.601562 32.125 27.277344 32.125 C 29.484375 32.125 31.332031 30.632812 31.914062 28.609375 L 43.519531 28.609375 L 43.519531 43.519531 Z M 19.074219 17.738281 C 18.335938 17.738281 17.738281 18.335938 17.738281 19.074219 L 17.738281 44.855469 C 17.738281 45.589844 18.335938 46.1875 19.074219 46.1875 L 44.855469 46.1875 C 45.589844 46.1875 46.1875 45.589844 46.1875 44.855469 L 46.1875 19.074219 C 46.1875 18.335938 45.589844 17.738281 44.855469 17.738281 Z M 52.894531 51.382812 C 52.894531 52.21875 52.214844 52.894531 51.378906 52.894531 L 12.546875 52.894531 C 11.710938 52.894531 11.035156 52.21875 11.035156 51.382812 L 11.035156 12.5625 C 11.035156 11.730469 11.710938 11.050781 12.546875 11.050781 L 51.378906 11.050781 C 52.214844 11.050781 52.894531 11.730469 52.894531 12.5625 Z M 61.261719 19.234375 L 61.261719 16.566406 L 55.558594 16.566406 L 55.558594 12.5625 C 55.558594 10.257812 53.683594 8.382812 51.378906 8.382812 L 47.359375 8.382812 L 47.359375 2.667969 L 44.691406 2.667969 L 44.691406 8.382812 L 40.328125 8.382812 L 40.328125 2.667969 L 37.660156 2.667969 L 37.660156 8.382812 L 33.296875 8.382812 L 33.296875 2.667969 L 30.628906 2.667969 L 30.628906 8.382812 L 26.265625 8.382812 L 26.265625 2.667969 L 23.597656 2.667969 L 23.597656 8.382812 L 19.234375 8.382812 L 19.234375 2.667969 L 16.566406 2.667969 L 16.566406 8.382812 L 12.546875 8.382812 C 10.242188 8.382812 8.367188 10.257812 8.367188 12.5625 L 8.367188 16.566406 L 2.667969 16.566406 L 2.667969 19.234375 L 8.367188 19.234375 L 8.367188 23.597656 L 2.667969 23.597656 L 2.667969 26.265625 L 8.367188 26.265625 L 8.367188 30.628906 L 2.667969 30.628906 L 2.667969 33.296875 L 8.367188 33.296875 L 8.367188 37.660156 L 2.667969 37.660156 L 2.667969 40.328125 L 8.367188 40.328125 L 8.367188 44.691406 L 2.667969 44.691406 L 2.667969 47.359375 L 8.367188 47.359375 L 8.367188 51.382812 C 8.367188 53.6875 10.242188 55.5625 12.546875 55.5625 L 16.566406 55.5625 L 16.566406 61.261719 L 19.234375 61.261719 L 19.234375 55.5625 L 23.597656 55.5625 L 23.597656 61.261719 L 26.265625 61.261719 L 26.265625 55.5625 L 30.628906 55.5625 L 30.628906 61.261719 L 33.296875 61.261719 L 33.296875 55.5625 L 37.660156 55.5625 L 37.660156 61.261719 L 40.328125 61.261719 L 40.328125 55.5625 L 44.691406 55.5625 L 44.691406 61.261719 L 47.359375 61.261719 L 47.359375 55.5625 L 51.378906 55.5625 C 53.683594 55.5625 55.558594 53.6875 55.558594 51.382812 L 55.558594 47.359375 L 61.261719 47.359375 L 61.261719 44.691406 L 55.558594 44.691406 L 55.558594 40.328125 L 61.261719 40.328125 L 61.261719 37.660156 L 55.558594 37.660156 L 55.558594 33.296875 L 61.261719 33.296875 L 61.261719 30.628906 L 55.558594 30.628906 L 55.558594 26.265625 L 61.261719 26.265625 L 61.261719 23.597656 L 55.558594 23.597656 L 55.558594 19.234375 Z M 61.261719 19.234375 "/>
</svg>
