<?xml version="1.0" encoding="UTF-8"?>
<svg xmlns="http://www.w3.org/2000/svg" xmlns:xlink="http://www.w3.org/1999/xlink" width="64" height="64" viewBox="0 0 64 64">
<path fill-rule="evenodd" fill="rgb(47.843137%, 63.137257%, 8.627451%)" fill-opacity="1" d="M 52 13.511719 C 52 12.679688 51.320312 12 50.488281 12 L 13.511719 12 C 12.679688 12 12 12.679688 12 13.511719 L 12 50.488281 C 12 51.320312 12.679688 52 13.511719 52 L 50.488281 52 C 51.320312 52 52 51.320312 52 50.488281 Z M 54.667969 20 L 54.667969 24 L 61.332031 24 L 61.332031 26.667969 L 54.667969 26.667969 L 54.667969 30.667969 L 61.332031 30.667969 L 61.332031 33.332031 L 54.667969 33.332031 L 54.667969 37.332031 L 61.332031 37.332031 L 61.332031 40 L 54.667969 40 L 54.667969 44 L 61.332031 44 L 61.332031 46.667969 L 54.667969 46.667969 L 54.667969 50.488281 C 54.667969 52.792969 52.792969 54.667969 50.488281 54.667969 L 46.667969 54.667969 L 46.667969 61.332031 L 44 61.332031 L 44 54.667969 L 40 54.667969 L 40 61.332031 L 37.332031 61.332031 L 37.332031 54.667969 L 33.332031 54.667969 L 33.332031 61.332031 L 30.667969 61.332031 L 30.667969 54.667969 L 26.667969 54.667969 L 26.667969 61.332031 L 24 61.332031 L 24 54.667969 L 20 54.667969 L 20 61.332031 L 17.332031 61.332031 L 17.332031 54.667969 L 13.511719 54.667969 C 11.207031 54.667969 9.332031 52.792969 9.332031 50.488281 L 9.332031 46.667969 L 2.667969 46.667969 L 2.667969 44 L 9.332031 44 L 9.332031 40 L 2.667969 40 L 2.667969 37.332031 L 9.332031 37.332031 L 9.332031 33.332031 L 2.667969 33.332031 L 2.667969 30.667969 L 9.332031 30.667969 L 9.332031 26.667969 L 2.667969 26.667969 L 2.667969 24 L 9.332031 24 L 9.332031 20 L 2.667969 20 L 2.667969 17.332031 L 9.332031 17.332031 L 9.332031 13.511719 C 9.332031 11.207031 11.207031 9.332031 13.511719 9.332031 L 17.332031 9.332031 L 17.332031 2.667969 L 20 2.667969 L 20 9.332031 L 24 9.332031 L 24 2.667969 L 26.667969 2.667969 L 26.667969 9.332031 L 30.667969 9.332031 L 30.667969 2.667969 L 33.332031 2.667969 L 33.332031 9.332031 L 37.332031 9.332031 L 37.332031 2.667969 L 40 2.667969 L 40 9.332031 L 44 9.332031 L 44 2.667969 L 46.667969 2.667969 L 46.667969 9.332031 L 50.488281 9.332031 C 52.792969 9.332031 54.667969 11.207031 54.667969 13.511719 L 54.667969 17.332031 L 61.332031 17.332031 L 61.332031 20 Z M 37.332031 46.667969 L 42.667969 46.667969 L 42.667969 17.332031 L 37.332031 17.332031 Z M 29.332031 46.667969 L 34.667969 46.667969 L 34.667969 17.332031 L 29.332031 17.332031 Z M 21.332031 46.667969 L 26.667969 46.667969 L 26.667969 17.332031 L 21.332031 17.332031 Z M 45.332031 16 L 45.332031 48 C 45.332031 48.734375 44.738281 49.332031 44 49.332031 L 20 49.332031 C 19.261719 49.332031 18.667969 48.734375 18.667969 48 L 18.667969 16 C 18.667969 15.265625 19.261719 14.667969 20 14.667969 L 44 14.667969 C 44.738281 14.667969 45.332031 15.265625 45.332031 16 Z M 38.667969 21.332031 L 41.332031 21.332031 L 41.332031 18.667969 L 38.667969 18.667969 Z M 30.667969 21.332031 L 33.332031 21.332031 L 33.332031 18.667969 L 30.667969 18.667969 Z M 22.667969 21.332031 L 25.332031 21.332031 L 25.332031 18.667969 L 22.667969 18.667969 Z M 22.667969 21.332031 "/>
</svg>
