<?xml version="1.0" encoding="UTF-8"?>
<svg xmlns="http://www.w3.org/2000/svg" xmlns:xlink="http://www.w3.org/1999/xlink" width="64" height="64" viewBox="0 0 64 64">
<path fill-rule="evenodd" fill="rgb(47.843137%, 63.137257%, 8.627451%)" fill-opacity="1" d="M 27.257812 28.527344 C 27.257812 29.253906 27.847656 29.847656 28.574219 29.847656 C 29.300781 29.847656 29.890625 29.253906 29.890625 28.527344 C 29.890625 27.800781 29.300781 27.210938 28.574219 27.210938 C 27.847656 27.210938 27.257812 27.800781 27.257812 28.527344 Z M 37.019531 36.683594 C 37.019531 35.957031 36.429688 35.367188 35.703125 35.367188 C 34.976562 35.367188 34.386719 35.957031 34.386719 36.683594 C 34.386719 37.410156 34.976562 38.003906 35.703125 38.003906 C 36.429688 38.003906 37.019531 37.410156 37.019531 36.683594 Z M 40.914062 41.363281 L 40.914062 29.875 L 32.308594 29.875 C 31.753906 31.40625 30.296875 32.515625 28.574219 32.515625 C 26.378906 32.515625 24.589844 30.726562 24.589844 28.527344 C 24.589844 26.332031 26.378906 24.542969 28.574219 24.542969 C 30.304688 24.542969 31.765625 25.660156 32.316406 27.207031 L 40.914062 27.207031 L 40.914062 23.851562 L 23.375 23.851562 L 23.375 35.363281 L 31.960938 35.363281 C 32.511719 33.816406 33.972656 32.699219 35.703125 32.699219 C 37.898438 32.699219 39.6875 34.488281 39.6875 36.683594 C 39.6875 38.878906 37.898438 40.667969 35.703125 40.667969 C 33.980469 40.667969 32.523438 39.5625 31.96875 38.027344 L 23.375 38.027344 L 23.375 41.363281 Z M 22.042969 44.03125 C 21.304688 44.03125 20.707031 43.433594 20.707031 42.695312 L 20.707031 22.519531 C 20.707031 21.78125 21.304688 21.183594 22.042969 21.183594 L 42.246094 21.183594 C 42.984375 21.183594 43.582031 21.78125 43.582031 22.519531 L 43.582031 42.695312 C 43.582031 43.433594 42.984375 44.03125 42.246094 44.03125 Z M 58.855469 19.707031 L 49.1875 9.914062 L 49.1875 55.917969 L 58.855469 50.117188 Z M 61.523438 50.871094 C 61.523438 51.339844 61.277344 51.773438 60.875 52.015625 L 48.539062 59.414062 C 48.328125 59.542969 48.089844 59.605469 47.851562 59.605469 C 47.625 59.605469 47.398438 59.546875 47.195312 59.433594 C 46.777344 59.195312 46.519531 58.753906 46.519531 58.273438 L 46.519531 52.796875 L 42.867188 52.796875 L 42.867188 50.132812 L 46.519531 50.132812 L 46.519531 14.929688 L 42.867188 14.929688 L 42.867188 12.261719 L 46.519531 12.261719 L 46.519531 6.667969 C 46.519531 6.128906 46.847656 5.636719 47.347656 5.433594 C 47.847656 5.226562 48.421875 5.347656 48.800781 5.730469 L 61.140625 18.226562 C 61.386719 18.472656 61.523438 18.8125 61.523438 19.160156 Z M 15.003906 9.914062 L 5.332031 19.707031 L 5.332031 50.117188 L 15.003906 55.917969 Z M 17.671875 50.132812 L 21.375 50.132812 L 21.375 52.796875 L 17.671875 52.796875 L 17.671875 58.273438 C 17.671875 58.753906 17.414062 59.195312 16.992188 59.433594 C 16.789062 59.546875 16.5625 59.605469 16.335938 59.605469 C 16.097656 59.605469 15.863281 59.542969 15.652344 59.414062 L 3.3125 52.015625 C 2.914062 51.773438 2.667969 51.339844 2.667969 50.871094 L 2.667969 19.160156 C 2.667969 18.8125 2.804688 18.472656 3.050781 18.226562 L 15.386719 5.730469 C 15.769531 5.347656 16.34375 5.226562 16.84375 5.433594 C 17.34375 5.636719 17.671875 6.128906 17.671875 6.667969 L 17.671875 12.261719 L 21.375 12.261719 L 21.375 14.929688 L 17.671875 14.929688 Z M 25.296875 52.796875 L 30.230469 52.796875 L 30.230469 50.132812 L 25.296875 50.132812 Z M 34.011719 52.796875 L 39.050781 52.796875 L 39.050781 50.132812 L 34.011719 50.132812 Z M 25.296875 14.929688 L 30.230469 14.929688 L 30.230469 12.261719 L 25.296875 12.261719 Z M 34.011719 14.929688 L 39.050781 14.929688 L 39.050781 12.261719 L 34.011719 12.261719 Z M 34.011719 14.929688 "/>
</svg>
