<?xml version="1.0" encoding="UTF-8"?>
<svg xmlns="http://www.w3.org/2000/svg" xmlns:xlink="http://www.w3.org/1999/xlink" width="64" height="64" viewBox="0 0 64 64">
<path fill-rule="evenodd" fill="rgb(47.843137%, 63.137257%, 8.627451%)" fill-opacity="1" d="M 30.667969 28 L 38.667969 28 L 38.667969 25.332031 L 30.667969 25.332031 Z M 41.332031 28 L 44 28 L 44 25.332031 L 41.332031 25.332031 Z M 58.667969 45.332031 L 49.332031 45.332031 L 49.332031 18.667969 L 58.667969 18.667969 Z M 17.332031 41.332031 L 46.667969 41.332031 L 46.667969 22.667969 L 17.332031 22.667969 Z M 14.667969 45.332031 L 5.332031 45.332031 L 5.332031 18.667969 L 14.667969 18.667969 Z M 48 16 C 47.261719 16 46.667969 16.597656 46.667969 17.332031 L 46.667969 20 L 17.332031 20 L 17.332031 17.332031 C 17.332031 16.597656 16.738281 16 16 16 L 4 16 C 3.261719 16 2.667969 16.597656 2.667969 17.332031 L 2.667969 46.667969 C 2.667969 47.402344 3.261719 48 4 48 L 16 48 C 16.738281 48 17.332031 47.402344 17.332031 46.667969 L 17.332031 44 L 46.667969 44 L 46.667969 46.667969 C 46.667969 47.402344 47.261719 48 48 48 L 60 48 C 60.738281 48 61.332031 47.402344 61.332031 46.667969 L 61.332031 17.332031 C 61.332031 16.597656 60.738281 16 60 16 Z M 48 16 "/>
</svg>
