<?xml version="1.0" encoding="UTF-8"?>
<svg xmlns="http://www.w3.org/2000/svg" xmlns:xlink="http://www.w3.org/1999/xlink" width="64" height="64" viewBox="0 0 64 64">
<path fill-rule="evenodd" fill="rgb(47.843137%, 63.137257%, 8.627451%)" fill-opacity="1" d="M 24.144531 50.917969 L 27.195312 50.917969 L 27.195312 48.25 L 19.796875 48.25 L 19.796875 55.597656 L 22.464844 55.597656 L 22.464844 52.984375 C 24.738281 54.867188 27.613281 55.9375 30.601562 55.9375 C 37.632812 55.9375 43.355469 50.214844 43.355469 43.183594 L 40.6875 43.183594 C 40.6875 48.742188 36.164062 53.269531 30.601562 53.269531 C 28.230469 53.269531 25.949219 52.417969 24.144531 50.917969 Z M 34.144531 38.039062 L 41.542969 38.039062 L 41.542969 30.691406 L 38.875 30.691406 L 38.875 33.492188 C 36.578125 31.535156 33.648438 30.425781 30.601562 30.425781 C 23.566406 30.425781 17.84375 36.148438 17.84375 43.183594 L 20.511719 43.183594 C 20.511719 37.621094 25.039062 33.09375 30.601562 33.09375 C 32.929688 33.09375 35.171875 33.917969 36.960938 35.371094 L 34.144531 35.371094 Z M 58.148438 44.550781 C 54.886719 47.789062 50.292969 47.855469 49.925781 47.855469 L 49.910156 47.855469 L 46.875 47.851562 L 46.878906 45.1875 L 49.921875 45.1875 C 49.957031 45.1875 52.21875 45.175781 54.402344 44.015625 C 57.199219 42.53125 58.621094 39.859375 58.621094 36.070312 C 58.621094 34.390625 58.183594 31.875 54.429688 29.453125 C 52.472656 28.191406 50.640625 27.773438 49.945312 27.65625 C 49.238281 27.535156 48.761719 26.882812 48.847656 26.179688 C 48.632812 23.375 47.769531 21.546875 46.28125 20.75 C 44.429688 19.757812 41.921875 20.292969 40.570312 21.957031 L 40.417969 22.152344 C 40.128906 22.546875 39.648438 22.753906 39.15625 22.683594 C 38.671875 22.613281 38.261719 22.28125 38.09375 21.820312 L 37.910156 21.324219 C 37.097656 19.195312 35.960938 17.382812 34.539062 15.953125 C 32.664062 14.066406 27.527344 10.007812 20.269531 13.09375 C 16.082031 14.875 12.804688 20.003906 12.804688 24.773438 C 12.804688 25.308594 12.835938 25.84375 12.898438 26.363281 C 12.980469 27.042969 12.535156 27.675781 11.867188 27.824219 C 11.847656 27.828125 11.828125 27.832031 11.808594 27.835938 C 9.34375 28.492188 5.332031 30.460938 5.332031 36.304688 C 5.332031 40.757812 7.738281 43.214844 9.761719 44.488281 C 10.441406 44.917969 11.226562 45.148438 12.027344 45.148438 L 15.496094 45.152344 L 15.492188 47.816406 L 12.023438 47.816406 C 10.71875 47.8125 9.441406 47.441406 8.335938 46.746094 C 6.21875 45.410156 2.667969 42.273438 2.667969 36.304688 C 2.667969 29.277344 7.28125 26.566406 10.15625 25.558594 C 10.144531 25.296875 10.136719 25.035156 10.136719 24.773438 C 10.136719 18.917969 14.046875 12.84375 19.226562 10.640625 C 25.304688 8.0625 31.734375 9.347656 36.429688 14.070312 C 37.796875 15.449219 38.9375 17.109375 39.828125 19.015625 C 42.042969 17.394531 45.097656 17.09375 47.539062 18.398438 C 49.070312 19.21875 50.9375 21.074219 51.433594 25.253906 C 52.949219 25.648438 54.519531 26.339844 55.875 27.210938 C 59.515625 29.5625 61.285156 32.460938 61.285156 36.070312 C 61.285156 39.628906 60.230469 42.480469 58.148438 44.550781 Z M 58.148438 44.550781 "/>
</svg>
