<?xml version="1.0" encoding="UTF-8"?>
<svg xmlns="http://www.w3.org/2000/svg" xmlns:xlink="http://www.w3.org/1999/xlink" width="64" height="64" viewBox="0 0 64 64">
<path fill-rule="evenodd" fill="rgb(47.843137%, 63.137257%, 8.627451%)" fill-opacity="1" d="M 28 6.03125 L 28 9.375 C 28 10.113281 28.597656 10.710938 29.332031 10.710938 L 34.667969 10.710938 C 35.402344 10.710938 36 10.113281 36 9.375 L 36 6.101562 C 37.160156 7.03125 38.058594 8.355469 38.058594 9.789062 C 38.058594 12.015625 36.71875 13.710938 35.386719 14.398438 C 34.945312 14.628906 34.667969 15.085938 34.667969 15.582031 L 34.667969 37.808594 C 34.667969 38.304688 34.945312 38.761719 35.386719 38.992188 C 36.71875 39.679688 38.058594 41.375 38.058594 43.601562 C 38.058594 45.035156 37.160156 46.359375 36 47.289062 L 36 44.042969 C 36 43.304688 35.402344 42.710938 34.667969 42.710938 L 29.332031 42.710938 C 28.597656 42.710938 28 43.304688 28 44.042969 L 28 47.292969 C 26.878906 46.371094 26.007812 45.046875 26.007812 43.601562 C 26.007812 41.386719 27.328125 39.675781 28.636719 38.964844 C 29.066406 38.734375 29.332031 38.28125 29.332031 37.792969 L 29.332031 15.527344 C 29.332031 15.039062 29.066406 14.589844 28.636719 14.355469 C 27.328125 13.644531 26.007812 11.9375 26.007812 9.722656 C 26.007812 8.277344 26.878906 6.953125 28 6.03125 Z M 26.667969 16.265625 L 26.667969 37.058594 C 24.652344 38.492188 23.34375 41.023438 23.34375 43.601562 C 23.34375 47.011719 26.125 49.824219 28.871094 50.839844 C 29.019531 50.894531 29.175781 50.921875 29.332031 50.921875 C 29.601562 50.921875 29.867188 50.839844 30.09375 50.683594 C 30.453125 50.433594 30.667969 50.027344 30.667969 49.589844 L 30.667969 45.375 L 33.332031 45.375 L 33.332031 49.578125 C 33.332031 50.015625 33.546875 50.425781 33.90625 50.675781 C 34.265625 50.921875 34.722656 50.980469 35.136719 50.828125 C 37.914062 49.78125 40.726562 46.964844 40.726562 43.601562 C 40.726562 40.953125 39.417969 38.464844 37.332031 37.054688 L 37.332031 16.339844 C 39.417969 14.925781 40.726562 12.441406 40.726562 9.789062 C 40.726562 6.425781 37.914062 3.609375 35.136719 2.5625 C 34.722656 2.410156 34.265625 2.46875 33.90625 2.714844 C 33.546875 2.964844 33.332031 3.375 33.332031 3.8125 L 33.332031 8.042969 L 30.667969 8.042969 L 30.667969 3.734375 C 30.667969 3.296875 30.453125 2.890625 30.09375 2.640625 C 29.734375 2.390625 29.277344 2.332031 28.871094 2.484375 C 26.125 3.5 23.34375 6.3125 23.34375 9.722656 C 23.34375 12.300781 24.652344 14.832031 26.667969 16.265625 Z M 23.003906 29.710938 C 22.460938 30.117188 21.878906 31.28125 21.886719 32.875 C 21.894531 34.472656 22.488281 35.628906 23.039062 36.03125 L 21.464844 38.183594 C 20.09375 37.179688 19.230469 35.152344 19.222656 32.890625 C 19.207031 30.628906 20.046875 28.59375 21.40625 27.574219 Z M 14.726562 32.847656 C 14.738281 35.710938 15.832031 37.785156 16.910156 38.574219 L 15.335938 40.726562 C 13.332031 39.261719 12.074219 36.25 12.058594 32.863281 C 12.042969 29.476562 13.265625 26.453125 15.25 24.96875 L 16.847656 27.101562 C 15.78125 27.902344 14.710938 29.988281 14.726562 32.847656 Z M 40.757812 36.03125 C 41.304688 35.628906 41.898438 34.472656 41.90625 32.875 C 41.914062 31.28125 41.332031 30.117188 40.789062 29.710938 L 42.386719 27.574219 C 43.746094 28.59375 44.585938 30.628906 44.574219 32.890625 C 44.5625 35.152344 43.703125 37.183594 42.328125 38.183594 Z M 49.070312 32.847656 C 49.085938 29.988281 48.015625 27.902344 46.949219 27.101562 L 48.542969 24.96875 C 50.53125 26.453125 51.753906 29.480469 51.734375 32.863281 C 51.71875 36.25 50.460938 39.261719 48.457031 40.726562 L 46.886719 38.574219 C 47.960938 37.789062 49.054688 35.714844 49.070312 32.847656 Z M 58.667969 57.375 C 58.667969 58.28125 58.308594 58.710938 56.261719 58.710938 L 7.738281 58.710938 C 5.574219 58.710938 5.351562 57.664062 5.332031 57.375 L 5.332031 56.042969 L 58.667969 56.042969 Z M 60 53.375 L 57.332031 53.375 L 57.332031 23.246094 C 57.332031 20.457031 55.320312 20.042969 54.121094 20.042969 L 40 20.042969 L 40 22.710938 L 54.121094 22.710938 C 54.488281 22.710938 54.632812 22.785156 54.625 22.769531 C 54.667969 22.855469 54.667969 23.117188 54.667969 23.246094 L 54.667969 53.375 L 9.332031 53.375 L 9.332031 23.246094 C 9.332031 23.117188 9.332031 22.847656 9.355469 22.789062 C 9.355469 22.789062 9.480469 22.710938 9.878906 22.710938 L 24 22.710938 L 24 20.042969 L 9.878906 20.042969 C 8.679688 20.042969 6.667969 20.457031 6.667969 23.246094 L 6.667969 53.375 L 4 53.375 C 3.261719 53.375 2.667969 53.972656 2.667969 54.710938 L 2.667969 57.375 C 2.667969 58.761719 3.726562 61.375 7.738281 61.375 L 56.261719 61.375 C 60.453125 61.375 61.332031 59.203125 61.332031 57.375 L 61.332031 54.710938 C 61.332031 53.972656 60.738281 53.375 60 53.375 Z M 60 53.375 "/>
</svg>
