<?xml version="1.0" encoding="UTF-8"?>
<svg xmlns="http://www.w3.org/2000/svg" xmlns:xlink="http://www.w3.org/1999/xlink" width="64" height="64" viewBox="0 0 64 64">
<path fill-rule="evenodd" fill="rgb(47.843137%, 63.137257%, 8.627451%)" fill-opacity="1" d="M 61.332031 6.667969 C 61.332031 4.460938 59.539062 2.667969 57.332031 2.667969 L 6.667969 2.667969 C 4.460938 2.667969 2.667969 4.460938 2.667969 6.667969 L 2.667969 37.332031 L 5.332031 37.332031 L 5.332031 6.667969 C 5.332031 5.933594 5.929688 5.332031 6.667969 5.332031 L 57.332031 5.332031 C 58.070312 5.332031 58.667969 5.933594 58.667969 6.667969 L 58.667969 37.332031 L 61.332031 37.332031 Z M 50.125 49.921875 L 50.125 55.832031 L 48.722656 55.832031 L 48.722656 47.441406 L 50.609375 47.441406 L 53.140625 53.328125 L 53.140625 47.441406 L 54.546875 47.441406 L 54.546875 55.832031 L 52.683594 55.832031 Z M 43.765625 52.625 L 45.269531 52.625 L 44.507812 49.148438 Z M 45.960938 55.832031 L 45.523438 53.835938 L 43.511719 53.835938 L 43.089844 55.832031 L 41.308594 55.832031 L 43.632812 47.441406 L 45.511719 47.441406 L 47.824219 55.832031 Z M 37.769531 55.832031 L 36.828125 49.644531 L 35.929688 55.832031 L 34.054688 55.832031 L 32.261719 47.441406 L 33.96875 47.441406 L 35.035156 54.113281 L 35.953125 47.777344 L 37.796875 47.777344 L 38.742188 54.003906 L 39.769531 47.441406 L 41.441406 47.441406 L 39.648438 55.832031 Z M 29.085938 54.828125 C 29.351562 54.828125 29.621094 54.699219 29.886719 54.441406 L 29.886719 53.253906 C 29.707031 53.199219 29.5 53.167969 29.257812 53.167969 C 29.023438 53.167969 28.84375 53.242188 28.71875 53.394531 C 28.59375 53.542969 28.53125 53.757812 28.53125 54.042969 C 28.53125 54.285156 28.578125 54.476562 28.679688 54.617188 C 28.78125 54.757812 28.917969 54.828125 29.085938 54.828125 Z M 30.128906 55.832031 L 29.984375 55.277344 C 29.84375 55.488281 29.648438 55.660156 29.390625 55.792969 C 29.132812 55.925781 28.867188 55.992188 28.601562 55.992188 C 28.101562 55.992188 27.707031 55.828125 27.414062 55.5 C 27.125 55.171875 26.980469 54.722656 26.980469 54.152344 C 26.980469 53.546875 27.15625 53.066406 27.511719 52.714844 C 27.867188 52.363281 28.347656 52.1875 28.953125 52.1875 C 29.203125 52.1875 29.515625 52.238281 29.886719 52.332031 L 29.886719 51.777344 C 29.886719 51.355469 29.832031 51.070312 29.722656 50.921875 C 29.613281 50.773438 29.410156 50.699219 29.109375 50.699219 C 28.625 50.699219 28.03125 50.828125 27.332031 51.085938 L 27.332031 49.984375 C 27.5625 49.832031 27.871094 49.710938 28.25 49.621094 C 28.628906 49.53125 29.019531 49.488281 29.414062 49.488281 C 30.117188 49.488281 30.625 49.648438 30.941406 49.964844 C 31.253906 50.285156 31.414062 50.792969 31.414062 51.5 L 31.414062 55.832031 Z M 22.523438 51.460938 L 23.308594 51.460938 C 23.625 51.460938 23.863281 51.34375 24.03125 51.109375 C 24.195312 50.875 24.277344 50.53125 24.277344 50.082031 C 24.277344 49.628906 24.195312 49.285156 24.03125 49.050781 C 23.863281 48.816406 23.625 48.699219 23.308594 48.699219 L 22.523438 48.699219 Z M 24.640625 55.832031 L 23.175781 52.722656 L 22.523438 52.722656 L 22.523438 55.832031 L 20.863281 55.832031 L 20.863281 47.441406 L 23.515625 47.441406 C 24.257812 47.441406 24.847656 47.675781 25.289062 48.148438 C 25.730469 48.621094 25.949219 49.265625 25.949219 50.082031 C 25.949219 50.648438 25.839844 51.132812 25.621094 51.546875 C 25.402344 51.957031 25.09375 52.265625 24.691406 52.464844 L 26.386719 55.832031 Z M 17.082031 54.730469 C 17.382812 54.730469 17.597656 54.570312 17.730469 54.253906 C 17.863281 53.933594 17.933594 53.433594 17.933594 52.746094 C 17.933594 52.058594 17.863281 51.554688 17.730469 51.230469 C 17.597656 50.910156 17.382812 50.746094 17.082031 50.746094 C 16.785156 50.746094 16.570312 50.910156 16.433594 51.230469 C 16.304688 51.554688 16.234375 52.058594 16.234375 52.746094 C 16.234375 53.433594 16.304688 53.933594 16.433594 54.253906 C 16.570312 54.570312 16.785156 54.730469 17.082031 54.730469 Z M 17.082031 55.992188 C 16.285156 55.992188 15.667969 55.710938 15.230469 55.144531 C 14.792969 54.578125 14.578125 53.777344 14.578125 52.746094 C 14.578125 51.703125 14.792969 50.898438 15.230469 50.335938 C 15.667969 49.769531 16.285156 49.488281 17.082031 49.488281 C 17.882812 49.488281 18.5 49.769531 18.9375 50.335938 C 19.371094 50.898438 19.589844 51.703125 19.589844 52.746094 C 19.589844 53.777344 19.371094 54.578125 18.9375 55.144531 C 18.5 55.710938 17.882812 55.992188 17.082031 55.992188 Z M 9.511719 55.832031 L 9.511719 47.441406 L 11.207031 47.441406 L 11.207031 54.488281 L 14.066406 54.488281 L 14.066406 55.832031 Z M 5.332031 58.667969 L 58.667969 58.667969 L 58.667969 44 L 5.332031 44 Z M 60 61.332031 L 4 61.332031 C 3.261719 61.332031 2.667969 60.734375 2.667969 60 L 2.667969 42.667969 C 2.667969 41.929688 3.261719 41.332031 4 41.332031 L 60 41.332031 C 60.738281 41.332031 61.332031 41.929688 61.332031 42.667969 L 61.332031 60 C 61.332031 60.734375 60.738281 61.332031 60 61.332031 Z M 60 61.332031 "/>
</svg>
