<?xml version="1.0" encoding="UTF-8"?>
<svg xmlns="http://www.w3.org/2000/svg" xmlns:xlink="http://www.w3.org/1999/xlink" width="64" height="64" viewBox="0 0 64 64">
<path fill-rule="evenodd" fill="rgb(47.843137%, 63.137257%, 8.627451%)" fill-opacity="1" d="M 42.324219 33.59375 C 41.988281 33.875 41.667969 33.722656 41.816406 33.351562 C 42.3125 32.121094 43.414062 29.367188 42.890625 28.699219 C 42.367188 28.03125 39.4375 28.382812 38.125 28.539062 C 37.726562 28.585938 37.664062 28.238281 38.023438 27.984375 C 40.359375 26.34375 44.1875 26.820312 44.632812 27.367188 C 45.078125 27.921875 44.515625 31.761719 42.324219 33.59375 Z M 26.097656 35.25 C 18.957031 35.25 12.523438 32.609375 7.660156 28.21875 C 7.277344 27.871094 7.617188 27.402344 8.078125 27.667969 C 13.328125 30.722656 19.820312 32.5625 26.527344 32.5625 C 31.050781 32.5625 36.023438 31.625 40.597656 29.683594 C 41.289062 29.390625 41.867188 30.136719 41.191406 30.636719 C 37.109375 33.648438 31.191406 35.25 26.097656 35.25 Z M 54.265625 38.472656 L 58.589844 38.472656 L 58.589844 24.828125 L 54.265625 24.828125 Z M 51.597656 41.222656 C 51.597656 41.632812 51.265625 41.964844 50.851562 41.964844 L 5.332031 41.964844 L 5.332031 21.332031 L 50.851562 21.332031 C 51.265625 21.332031 51.597656 21.667969 51.597656 22.078125 Z M 54.265625 22.160156 L 54.265625 22.078125 C 54.265625 20.195312 52.734375 18.667969 50.851562 18.667969 L 4 18.667969 C 3.265625 18.667969 2.667969 19.261719 2.667969 20 L 2.667969 43.300781 C 2.667969 44.035156 3.265625 44.632812 4 44.632812 L 50.851562 44.632812 C 52.734375 44.632812 54.265625 43.101562 54.265625 41.222656 L 54.265625 41.136719 L 59.921875 41.136719 C 60.660156 41.136719 61.253906 40.542969 61.253906 39.804688 L 61.253906 23.496094 C 61.253906 22.757812 60.660156 22.160156 59.921875 22.160156 Z M 54.265625 22.160156 "/>
</svg>
