<?xml version="1.0" encoding="UTF-8"?>
<svg xmlns="http://www.w3.org/2000/svg" xmlns:xlink="http://www.w3.org/1999/xlink" width="64" height="64" viewBox="0 0 64 64">
<path fill-rule="evenodd" fill="rgb(47.843137%, 63.137257%, 8.627451%)" fill-opacity="1" d="M 16.988281 58.613281 L 58.613281 58.613281 L 58.613281 43.796875 L 16.988281 43.796875 Z M 14.324219 41.132812 L 61.28125 41.132812 L 61.28125 61.28125 L 14.324219 61.28125 Z M 10.351562 2.667969 C 6.113281 2.667969 2.667969 6.113281 2.667969 10.351562 L 2.667969 53.597656 C 2.667969 57.832031 6.113281 61.28125 10.351562 61.28125 L 12.160156 61.28125 L 12.160156 58.613281 L 10.351562 58.613281 C 7.585938 58.613281 5.332031 56.363281 5.332031 53.597656 L 5.332031 10.351562 C 5.332031 7.585938 7.585938 5.332031 10.351562 5.332031 L 53.597656 5.332031 C 56.363281 5.332031 58.613281 7.585938 58.613281 10.351562 L 58.613281 38.96875 L 61.28125 38.96875 L 61.28125 10.351562 C 61.28125 6.113281 57.832031 2.667969 53.597656 2.667969 Z M 57.398438 55.289062 L 53.59375 55.289062 C 54.675781 53.890625 55.441406 52.855469 55.886719 52.179688 C 56.335938 51.503906 56.640625 50.9375 56.8125 50.480469 C 56.980469 50.023438 57.0625 49.578125 57.0625 49.152344 C 57.0625 48.339844 56.863281 47.707031 56.460938 47.253906 C 56.0625 46.804688 55.5 46.578125 54.78125 46.578125 C 54.371094 46.578125 53.972656 46.648438 53.582031 46.792969 C 53.1875 46.9375 52.78125 47.167969 52.363281 47.484375 L 52.363281 48.675781 C 53.25 48.078125 53.980469 47.78125 54.558594 47.78125 C 55.316406 47.78125 55.691406 48.265625 55.691406 49.234375 C 55.691406 49.671875 55.585938 50.136719 55.371094 50.621094 C 55.15625 51.105469 54.800781 51.714844 54.308594 52.445312 C 53.8125 53.175781 53.09375 54.164062 52.152344 55.402344 L 52.152344 56.453125 L 57.398438 56.453125 Z M 45.972656 58.464844 L 47.285156 58.464844 L 51.074219 45.90625 L 49.761719 45.90625 Z M 44.171875 48.332031 C 43.925781 48 43.582031 47.835938 43.144531 47.835938 L 41.761719 47.835938 L 41.761719 51.613281 L 43.144531 51.613281 C 43.582031 51.613281 43.925781 51.445312 44.171875 51.109375 C 44.417969 50.773438 44.542969 50.308594 44.542969 49.722656 C 44.542969 49.128906 44.417969 48.664062 44.171875 48.332031 Z M 45.886719 49.722656 C 45.886719 50.621094 45.644531 51.335938 45.167969 51.878906 C 44.683594 52.417969 44.058594 52.6875 43.285156 52.6875 L 41.761719 52.6875 L 41.761719 56.453125 L 40.445312 56.453125 L 40.445312 46.757812 L 43.285156 46.757812 C 43.804688 46.757812 44.265625 46.882812 44.664062 47.136719 C 45.058594 47.386719 45.363281 47.738281 45.570312 48.183594 C 45.78125 48.632812 45.886719 49.144531 45.886719 49.722656 Z M 33.019531 47.890625 L 35.425781 47.890625 L 35.425781 56.453125 L 36.78125 56.453125 L 36.78125 47.890625 L 39.203125 47.890625 L 39.203125 46.757812 L 33.019531 46.757812 Z M 26.023438 47.890625 L 28.429688 47.890625 L 28.429688 56.453125 L 29.789062 56.453125 L 29.789062 47.890625 L 32.207031 47.890625 L 32.207031 46.757812 L 26.023438 46.757812 Z M 23.425781 46.757812 L 24.78125 46.757812 L 24.78125 56.453125 L 23.425781 56.453125 L 23.425781 52.046875 L 19.898438 52.046875 L 19.898438 56.453125 L 18.542969 56.453125 L 18.542969 46.757812 L 19.898438 46.757812 L 19.898438 50.941406 L 23.425781 50.941406 Z M 23.425781 46.757812 "/>
</svg>
