<?xml version="1.0" encoding="UTF-8"?>
<svg xmlns="http://www.w3.org/2000/svg" xmlns:xlink="http://www.w3.org/1999/xlink" width="64" height="64" viewBox="0 0 64 64">
<path fill-rule="evenodd" fill="rgb(47.843137%, 63.137257%, 8.627451%)" fill-opacity="1" d="M 50.667969 17.476562 L 50.527344 17.332031 L 37.332031 17.332031 C 36.597656 17.332031 36 16.734375 36 16 L 36 5.332031 L 14.765625 5.332031 C 14.710938 5.332031 14.667969 5.378906 14.667969 5.433594 L 14.667969 58.566406 C 14.667969 58.621094 14.710938 58.667969 14.765625 58.667969 L 50.566406 58.667969 C 50.621094 58.667969 50.667969 58.621094 50.667969 58.566406 Z M 38.667969 5.441406 L 38.667969 14.667969 L 47.867188 14.667969 Z M 53.332031 16.921875 L 53.332031 58.566406 C 53.332031 60.09375 52.09375 61.332031 50.566406 61.332031 L 14.765625 61.332031 C 13.242188 61.332031 12 60.09375 12 58.566406 L 12 5.433594 C 12 3.90625 13.242188 2.667969 14.765625 2.667969 L 39.109375 2.667969 C 39.464844 2.667969 39.804688 2.808594 40.054688 3.058594 L 52.945312 15.980469 C 53.191406 16.230469 53.332031 16.570312 53.332031 16.921875 Z M 30.667969 49.332031 L 45.332031 49.332031 L 45.332031 46.667969 L 30.667969 46.667969 Z M 30.667969 38.667969 L 45.332031 38.667969 L 45.332031 36 L 30.667969 36 Z M 20 49.332031 L 25.332031 49.332031 L 25.332031 46.667969 L 20 46.667969 Z M 20 38.667969 L 25.332031 38.667969 L 25.332031 36 L 20 36 Z M 20 28 L 25.332031 28 L 25.332031 25.332031 L 20 25.332031 Z M 30.667969 28 L 45.332031 28 L 45.332031 25.332031 L 30.667969 25.332031 Z M 30.667969 28 "/>
</svg>
