<?xml version="1.0" encoding="UTF-8"?>
<svg xmlns="http://www.w3.org/2000/svg" xmlns:xlink="http://www.w3.org/1999/xlink" width="64" height="64" viewBox="0 0 64 64">
<path fill-rule="evenodd" fill="rgb(47.843137%, 63.137257%, 8.627451%)" fill-opacity="1" d="M 32.972656 39.582031 C 32.972656 40.136719 32.519531 40.589844 31.964844 40.589844 C 31.40625 40.589844 30.953125 40.136719 30.953125 39.582031 C 30.953125 39.023438 31.40625 38.570312 31.964844 38.570312 C 32.519531 38.570312 32.972656 39.023438 32.972656 39.582031 Z M 28.285156 39.582031 C 28.285156 41.136719 29.261719 42.460938 30.628906 43 L 30.628906 47.199219 L 33.296875 47.199219 L 33.296875 43 C 34.664062 42.460938 35.640625 41.136719 35.640625 39.582031 C 35.640625 37.554688 33.992188 35.902344 31.964844 35.902344 C 29.933594 35.902344 28.285156 37.554688 28.285156 39.582031 Z M 27.4375 25.519531 C 27.4375 23.023438 29.46875 20.992188 31.964844 20.992188 C 34.460938 20.992188 36.488281 23.023438 36.488281 25.519531 C 36.488281 28.015625 34.460938 30.042969 31.964844 30.042969 C 29.46875 30.042969 27.4375 28.015625 27.4375 25.519531 Z M 24.769531 25.519531 C 24.769531 29.484375 27.996094 32.710938 31.964844 32.710938 C 35.929688 32.710938 39.15625 29.484375 39.15625 25.519531 C 39.15625 21.550781 35.929688 18.324219 31.964844 18.324219 C 27.996094 18.324219 24.769531 21.550781 24.769531 25.519531 Z M 41.175781 48.382812 C 41.175781 48.929688 40.730469 49.378906 40.179688 49.378906 L 23.746094 49.378906 C 23.195312 49.378906 22.75 48.929688 22.75 48.382812 L 22.75 16.714844 C 22.75 16.164062 23.195312 15.71875 23.746094 15.71875 L 40.179688 15.71875 C 40.730469 15.71875 41.175781 16.164062 41.175781 16.714844 Z M 23.746094 13.050781 C 21.726562 13.050781 20.082031 14.695312 20.082031 16.714844 L 20.082031 48.382812 C 20.082031 50.402344 21.726562 52.046875 23.746094 52.046875 L 40.179688 52.046875 C 42.199219 52.046875 43.84375 50.402344 43.84375 48.382812 L 43.84375 16.714844 C 43.84375 14.695312 42.199219 13.050781 40.179688 13.050781 Z M 52.894531 51.382812 C 52.894531 52.21875 52.214844 52.894531 51.378906 52.894531 L 12.546875 52.894531 C 11.710938 52.894531 11.03125 52.21875 11.03125 51.382812 L 11.03125 12.5625 C 11.03125 11.730469 11.710938 11.050781 12.546875 11.050781 L 51.378906 11.050781 C 52.214844 11.050781 52.894531 11.730469 52.894531 12.5625 Z M 61.261719 19.234375 L 61.261719 16.566406 L 55.558594 16.566406 L 55.558594 12.5625 C 55.558594 10.257812 53.683594 8.382812 51.378906 8.382812 L 47.359375 8.382812 L 47.359375 2.667969 L 44.691406 2.667969 L 44.691406 8.382812 L 40.328125 8.382812 L 40.328125 2.667969 L 37.660156 2.667969 L 37.660156 8.382812 L 33.296875 8.382812 L 33.296875 2.667969 L 30.628906 2.667969 L 30.628906 8.382812 L 26.265625 8.382812 L 26.265625 2.667969 L 23.597656 2.667969 L 23.597656 8.382812 L 19.234375 8.382812 L 19.234375 2.667969 L 16.566406 2.667969 L 16.566406 8.382812 L 12.546875 8.382812 C 10.242188 8.382812 8.367188 10.257812 8.367188 12.5625 L 8.367188 16.566406 L 2.667969 16.566406 L 2.667969 19.234375 L 8.367188 19.234375 L 8.367188 23.597656 L 2.667969 23.597656 L 2.667969 26.265625 L 8.367188 26.265625 L 8.367188 30.628906 L 2.667969 30.628906 L 2.667969 33.296875 L 8.367188 33.296875 L 8.367188 37.660156 L 2.667969 37.660156 L 2.667969 40.328125 L 8.367188 40.328125 L 8.367188 44.691406 L 2.667969 44.691406 L 2.667969 47.359375 L 8.367188 47.359375 L 8.367188 51.382812 C 8.367188 53.6875 10.242188 55.5625 12.546875 55.5625 L 16.566406 55.5625 L 16.566406 61.261719 L 19.234375 61.261719 L 19.234375 55.5625 L 23.597656 55.5625 L 23.597656 61.261719 L 26.265625 61.261719 L 26.265625 55.5625 L 30.628906 55.5625 L 30.628906 61.261719 L 33.296875 61.261719 L 33.296875 55.5625 L 37.660156 55.5625 L 37.660156 61.261719 L 40.328125 61.261719 L 40.328125 55.5625 L 44.691406 55.5625 L 44.691406 61.261719 L 47.359375 61.261719 L 47.359375 55.5625 L 51.378906 55.5625 C 53.683594 55.5625 55.558594 53.6875 55.558594 51.382812 L 55.558594 47.359375 L 61.261719 47.359375 L 61.261719 44.691406 L 55.558594 44.691406 L 55.558594 40.328125 L 61.261719 40.328125 L 61.261719 37.660156 L 55.558594 37.660156 L 55.558594 33.296875 L 61.261719 33.296875 L 61.261719 30.628906 L 55.558594 30.628906 L 55.558594 26.265625 L 61.261719 26.265625 L 61.261719 23.597656 L 55.558594 23.597656 L 55.558594 19.234375 Z M 61.261719 19.234375 "/>
</svg>
