<?xml version="1.0" encoding="UTF-8"?>
<svg xmlns="http://www.w3.org/2000/svg" xmlns:xlink="http://www.w3.org/1999/xlink" width="64" height="64" viewBox="0 0 64 64">
<path fill-rule="evenodd" fill="rgb(47.843137%, 63.137257%, 8.627451%)" fill-opacity="1" d="M 31.992188 45.621094 C 30.796875 44.847656 28.414062 43.5 25.644531 43.003906 C 23.898438 42.6875 19.835938 41.585938 19.835938 38.140625 C 19.835938 36.621094 20.40625 35.636719 21.070312 34.492188 C 21.722656 33.363281 22.464844 32.085938 22.464844 30.339844 C 22.464844 28.15625 21.453125 26.492188 20.652344 25.519531 C 21.335938 24.683594 22.347656 23.445312 23.117188 22.480469 C 24.472656 23.535156 25.992188 24.101562 27.511719 24.101562 C 29.230469 24.101562 30.683594 23.511719 31.992188 22.265625 C 33.300781 23.511719 34.75 24.101562 36.472656 24.101562 C 37.988281 24.101562 39.507812 23.535156 40.863281 22.480469 C 41.632812 23.445312 42.644531 24.683594 43.328125 25.519531 C 42.527344 26.492188 41.515625 28.15625 41.515625 30.339844 C 41.515625 32.085938 42.257812 33.363281 42.910156 34.492188 C 43.574219 35.636719 44.148438 36.621094 44.148438 38.140625 C 44.148438 41.585938 40.082031 42.6875 38.335938 43.003906 C 35.566406 43.5 33.183594 44.847656 31.992188 45.621094 Z M 46.996094 25.773438 L 46.136719 24.734375 C 46.105469 24.695312 42.847656 20.746094 42.109375 19.738281 L 41.160156 18.433594 L 40.058594 19.613281 C 38.960938 20.789062 37.683594 21.4375 36.472656 21.4375 C 35.527344 21.4375 34.386719 21.199219 33.050781 19.453125 L 31.992188 18.066406 L 30.933594 19.453125 C 29.59375 21.199219 28.453125 21.4375 27.511719 21.4375 C 26.296875 21.4375 25.019531 20.789062 23.921875 19.613281 L 22.820312 18.433594 L 21.871094 19.738281 C 21.136719 20.746094 17.875 24.695312 17.84375 24.734375 L 17.003906 25.765625 L 18.027344 26.617188 C 18.042969 26.632812 19.800781 28.113281 19.800781 30.339844 C 19.800781 31.367188 19.34375 32.15625 18.761719 33.15625 C 18.050781 34.378906 17.167969 35.902344 17.167969 38.140625 C 17.167969 41.929688 20.160156 44.726562 25.175781 45.628906 C 28.414062 46.207031 31.152344 48.277344 31.179688 48.300781 L 31.992188 48.917969 L 32.800781 48.300781 C 32.828125 48.277344 35.566406 46.207031 38.804688 45.628906 C 43.820312 44.726562 46.8125 41.929688 46.8125 38.140625 C 46.8125 35.902344 45.929688 34.378906 45.21875 33.15625 C 44.636719 32.15625 44.179688 31.367188 44.179688 30.339844 C 44.179688 28.113281 45.9375 26.632812 45.949219 26.621094 Z M 52.941406 51.433594 C 52.941406 52.265625 52.261719 52.945312 51.429688 52.945312 L 12.550781 52.945312 C 11.71875 52.945312 11.039062 52.265625 11.039062 51.433594 L 11.039062 12.570312 C 11.039062 11.738281 11.71875 11.058594 12.550781 11.058594 L 51.429688 11.058594 C 52.261719 11.058594 52.941406 11.738281 52.941406 12.570312 Z M 61.316406 19.25 L 61.316406 16.582031 L 55.609375 16.582031 L 55.609375 12.570312 C 55.609375 10.265625 53.734375 8.390625 51.429688 8.390625 L 47.398438 8.390625 L 47.398438 2.667969 L 44.734375 2.667969 L 44.734375 8.390625 L 40.363281 8.390625 L 40.363281 2.667969 L 37.695312 2.667969 L 37.695312 8.390625 L 33.324219 8.390625 L 33.324219 2.667969 L 30.65625 2.667969 L 30.65625 8.390625 L 26.285156 8.390625 L 26.285156 2.667969 L 23.621094 2.667969 L 23.621094 8.390625 L 19.25 8.390625 L 19.25 2.667969 L 16.582031 2.667969 L 16.582031 8.390625 L 12.550781 8.390625 C 10.246094 8.390625 8.371094 10.265625 8.371094 12.570312 L 8.371094 16.582031 L 2.667969 16.582031 L 2.667969 19.25 L 8.371094 19.25 L 8.371094 23.621094 L 2.667969 23.621094 L 2.667969 26.289062 L 8.371094 26.289062 L 8.371094 30.660156 L 2.667969 30.660156 L 2.667969 33.324219 L 8.371094 33.324219 L 8.371094 37.695312 L 2.667969 37.695312 L 2.667969 40.363281 L 8.371094 40.363281 L 8.371094 44.734375 L 2.667969 44.734375 L 2.667969 47.402344 L 8.371094 47.402344 L 8.371094 51.433594 C 8.371094 53.738281 10.246094 55.613281 12.550781 55.613281 L 16.582031 55.613281 L 16.582031 61.316406 L 19.25 61.316406 L 19.25 55.613281 L 23.621094 55.613281 L 23.621094 61.316406 L 26.285156 61.316406 L 26.285156 55.613281 L 30.65625 55.613281 L 30.65625 61.316406 L 33.324219 61.316406 L 33.324219 55.613281 L 37.695312 55.613281 L 37.695312 61.316406 L 40.363281 61.316406 L 40.363281 55.613281 L 44.734375 55.613281 L 44.734375 61.316406 L 47.398438 61.316406 L 47.398438 55.613281 L 51.429688 55.613281 C 53.734375 55.613281 55.609375 53.738281 55.609375 51.433594 L 55.609375 47.402344 L 61.316406 47.402344 L 61.316406 44.734375 L 55.609375 44.734375 L 55.609375 40.363281 L 61.316406 40.363281 L 61.316406 37.695312 L 55.609375 37.695312 L 55.609375 33.324219 L 61.316406 33.324219 L 61.316406 30.660156 L 55.609375 30.660156 L 55.609375 26.289062 L 61.316406 26.289062 L 61.316406 23.621094 L 55.609375 23.621094 L 55.609375 19.25 Z M 61.316406 19.25 "/>
</svg>
