<?xml version="1.0" encoding="UTF-8"?>
<svg xmlns="http://www.w3.org/2000/svg" xmlns:xlink="http://www.w3.org/1999/xlink" width="64" height="64" viewBox="0 0 64 64">
<path fill-rule="evenodd" fill="rgb(47.843137%, 63.137257%, 8.627451%)" fill-opacity="1" d="M 25.140625 31.011719 L 29.679688 31.011719 C 30.414062 31.011719 31.011719 30.414062 31.011719 29.675781 L 31.011719 25.140625 L 33.042969 25.140625 L 33.042969 29.675781 C 33.042969 30.414062 33.636719 31.011719 34.375 31.011719 L 38.914062 31.011719 L 38.914062 33.042969 L 34.375 33.042969 C 33.636719 33.042969 33.042969 33.636719 33.042969 34.375 L 33.042969 38.914062 L 31.011719 38.914062 L 31.011719 34.375 C 31.011719 33.636719 30.414062 33.042969 29.679688 33.042969 L 25.140625 33.042969 Z M 28.34375 35.707031 L 28.34375 40.246094 C 28.34375 40.980469 28.941406 41.578125 29.679688 41.578125 L 34.375 41.578125 C 35.109375 41.578125 35.707031 40.980469 35.707031 40.246094 L 35.707031 35.707031 L 40.246094 35.707031 C 40.984375 35.707031 41.582031 35.113281 41.582031 34.375 L 41.582031 29.675781 C 41.582031 28.941406 40.984375 28.34375 40.246094 28.34375 L 35.707031 28.34375 L 35.707031 23.804688 C 35.707031 23.070312 35.109375 22.472656 34.375 22.472656 L 29.679688 22.472656 C 28.941406 22.472656 28.34375 23.070312 28.34375 23.804688 L 28.34375 28.34375 L 23.804688 28.34375 C 23.070312 28.34375 22.472656 28.941406 22.472656 29.675781 L 22.472656 34.375 C 22.472656 35.113281 23.070312 35.707031 23.804688 35.707031 Z M 20.441406 43.609375 L 43.609375 43.609375 L 43.609375 20.441406 L 20.441406 20.441406 Z M 19.109375 17.773438 C 18.371094 17.773438 17.773438 18.371094 17.773438 19.109375 L 17.773438 44.945312 C 17.773438 45.679688 18.371094 46.277344 19.109375 46.277344 L 44.945312 46.277344 C 45.679688 46.277344 46.277344 45.679688 46.277344 44.945312 L 46.277344 19.109375 C 46.277344 18.371094 45.679688 17.773438 44.945312 17.773438 Z M 53.003906 51.492188 C 53.003906 52.328125 52.324219 53.003906 51.492188 53.003906 L 12.5625 53.003906 C 11.726562 53.003906 11.050781 52.328125 11.050781 51.492188 L 11.050781 12.578125 C 11.050781 11.746094 11.726562 11.066406 12.5625 11.066406 L 51.492188 11.066406 C 52.324219 11.066406 53.003906 11.746094 53.003906 12.578125 Z M 61.386719 19.265625 L 61.386719 16.601562 L 55.667969 16.601562 L 55.667969 12.578125 C 55.667969 10.273438 53.796875 8.398438 51.492188 8.398438 L 47.453125 8.398438 L 47.453125 2.667969 L 44.785156 2.667969 L 44.785156 8.398438 L 40.40625 8.398438 L 40.40625 2.667969 L 37.738281 2.667969 L 37.738281 8.398438 L 33.359375 8.398438 L 33.359375 2.667969 L 30.691406 2.667969 L 30.691406 8.398438 L 26.3125 8.398438 L 26.3125 2.667969 L 23.648438 2.667969 L 23.648438 8.398438 L 19.265625 8.398438 L 19.265625 2.667969 L 16.601562 2.667969 L 16.601562 8.398438 L 12.5625 8.398438 C 10.257812 8.398438 8.382812 10.273438 8.382812 12.578125 L 8.382812 16.601562 L 2.667969 16.601562 L 2.667969 19.265625 L 8.382812 19.265625 L 8.382812 23.644531 L 2.667969 23.644531 L 2.667969 26.3125 L 8.382812 26.3125 L 8.382812 30.691406 L 2.667969 30.691406 L 2.667969 33.359375 L 8.382812 33.359375 L 8.382812 37.738281 L 2.667969 37.738281 L 2.667969 40.40625 L 8.382812 40.40625 L 8.382812 44.785156 L 2.667969 44.785156 L 2.667969 47.453125 L 8.382812 47.453125 L 8.382812 51.492188 C 8.382812 53.796875 10.257812 55.671875 12.5625 55.671875 L 16.601562 55.671875 L 16.601562 61.386719 L 19.265625 61.386719 L 19.265625 55.671875 L 23.648438 55.671875 L 23.648438 61.386719 L 26.3125 61.386719 L 26.3125 55.671875 L 30.691406 55.671875 L 30.691406 61.386719 L 33.359375 61.386719 L 33.359375 55.671875 L 37.738281 55.671875 L 37.738281 61.386719 L 40.40625 61.386719 L 40.40625 55.671875 L 44.785156 55.671875 L 44.785156 61.386719 L 47.453125 61.386719 L 47.453125 55.671875 L 51.492188 55.671875 C 53.796875 55.671875 55.667969 53.796875 55.667969 51.492188 L 55.667969 47.453125 L 61.386719 47.453125 L 61.386719 44.785156 L 55.667969 44.785156 L 55.667969 40.40625 L 61.386719 40.40625 L 61.386719 37.738281 L 55.667969 37.738281 L 55.667969 33.359375 L 61.386719 33.359375 L 61.386719 30.691406 L 55.667969 30.691406 L 55.667969 26.3125 L 61.386719 26.3125 L 61.386719 23.644531 L 55.667969 23.644531 L 55.667969 19.265625 Z M 61.386719 19.265625 "/>
</svg>
