<?xml version="1.0" encoding="UTF-8"?>
<svg xmlns="http://www.w3.org/2000/svg" xmlns:xlink="http://www.w3.org/1999/xlink" width="64" height="64" viewBox="0 0 64 64">
<path fill-rule="evenodd" fill="rgb(47.843137%, 63.137257%, 8.627451%)" fill-opacity="1" d="M 5.332031 32 C 5.332031 30.53125 6.53125 29.332031 8 29.332031 C 9.46875 29.332031 10.667969 30.53125 10.667969 32 C 10.667969 33.46875 9.46875 34.667969 8 34.667969 C 6.53125 34.667969 5.332031 33.46875 5.332031 32 Z M 32 5.332031 C 33.46875 5.332031 34.667969 6.53125 34.667969 8 C 34.667969 9.46875 33.46875 10.667969 32 10.667969 C 30.53125 10.667969 29.332031 9.46875 29.332031 8 C 29.332031 6.53125 30.53125 5.332031 32 5.332031 Z M 14.613281 47.375 C 12.046875 44.449219 10.25 40.902344 9.414062 37.117188 C 11.664062 36.496094 13.332031 34.449219 13.332031 32 C 13.332031 29.570312 11.691406 27.542969 9.46875 26.898438 C 11.472656 18.347656 18.34375 11.527344 26.941406 9.605469 C 27.628906 11.757812 29.621094 13.332031 32 13.332031 C 34.375 13.332031 36.367188 11.765625 37.054688 9.617188 C 39.457031 10.15625 41.746094 11.058594 43.875 12.339844 L 45.25 10.054688 C 42.753906 8.550781 40.058594 7.523438 37.226562 6.941406 C 36.734375 4.503906 34.578125 2.667969 32 2.667969 C 29.429688 2.667969 27.277344 4.496094 26.777344 6.917969 C 16.816406 8.96875 8.863281 16.90625 6.761719 26.828125 C 4.417969 27.386719 2.667969 29.488281 2.667969 32 C 2.667969 34.488281 4.386719 36.566406 6.695312 37.152344 C 7.585938 41.644531 9.691406 45.851562 12.75 49.285156 L 9.355469 49.230469 L 9.3125 51.898438 L 15.878906 52 L 15.898438 52 C 16.246094 52 16.578125 51.867188 16.828125 51.625 C 17.082031 51.378906 17.226562 51.039062 17.230469 50.6875 L 17.332031 44.019531 L 14.667969 43.980469 Z M 56 34.667969 C 54.53125 34.667969 53.332031 33.46875 53.332031 32 C 53.332031 30.53125 54.53125 29.332031 56 29.332031 C 57.46875 29.332031 58.667969 30.53125 58.667969 32 C 58.667969 33.46875 57.46875 34.667969 56 34.667969 Z M 32 58.667969 C 30.53125 58.667969 29.332031 57.46875 29.332031 56 C 29.332031 54.53125 30.53125 53.332031 32 53.332031 C 33.46875 53.332031 34.667969 54.53125 34.667969 56 C 34.667969 57.46875 33.46875 58.667969 32 58.667969 Z M 61.332031 32 C 61.332031 29.460938 59.546875 27.335938 57.164062 26.804688 C 56.210938 22.277344 54.078125 18.140625 50.933594 14.722656 L 54.6875 14.667969 L 54.644531 12 L 47.980469 12.101562 C 47.625 12.109375 47.289062 12.253906 47.042969 12.507812 C 46.796875 12.761719 46.660156 13.101562 46.667969 13.457031 L 46.769531 20.019531 L 49.433594 19.980469 L 49.386719 16.976562 C 51.886719 19.835938 53.613281 23.230469 54.464844 26.917969 C 52.273438 27.582031 50.667969 29.597656 50.667969 32 C 50.667969 34.425781 52.304688 36.457031 54.527344 37.101562 C 52.625 45.738281 45.804688 52.660156 37.136719 54.648438 C 36.535156 52.363281 34.472656 50.667969 32 50.667969 C 29.523438 50.667969 27.457031 52.367188 26.859375 54.65625 C 24.441406 54.109375 22.132812 53.207031 20 51.910156 L 18.617188 54.191406 C 21.171875 55.742188 23.953125 56.800781 26.871094 57.386719 C 27.488281 59.652344 29.542969 61.332031 32 61.332031 C 34.460938 61.332031 36.519531 59.648438 37.128906 57.378906 C 47.25 55.3125 55.234375 47.242188 57.242188 37.171875 C 59.585938 36.609375 61.332031 34.511719 61.332031 32 Z M 27.960938 44.652344 L 21.96875 41.109375 L 21.96875 38.667969 L 25.332031 38.667969 L 25.332031 41.332031 L 28 41.332031 L 28 37.332031 C 28 36.597656 27.402344 36 26.667969 36 L 21.332031 36 L 21.332031 36.007812 C 21.308594 35.992188 21.289062 35.96875 21.261719 35.953125 L 17.96875 34.214844 L 17.96875 29.023438 L 21.261719 27.269531 C 21.699219 27.039062 21.96875 26.585938 21.96875 26.09375 L 21.96875 25.332031 L 28 25.332031 L 28 22.667969 L 21.96875 22.667969 L 21.96875 22.289062 L 28.003906 18.835938 L 30.4375 20.394531 L 30.4375 28 L 25.332031 28 C 24.597656 28 24 28.597656 24 29.332031 L 24 33.332031 L 26.667969 33.332031 L 26.667969 30.667969 L 30.4375 30.667969 L 30.4375 43.21875 Z M 35.890625 18.808594 L 41.96875 22.289062 L 41.96875 26.09375 C 41.96875 26.585938 42.242188 27.039062 42.675781 27.269531 L 45.96875 29.023438 L 45.96875 29.332031 L 40 29.332031 C 39.261719 29.332031 38.667969 29.929688 38.667969 30.667969 L 38.667969 33.332031 L 34.667969 33.332031 L 34.667969 36 L 40 36 C 40.738281 36 41.332031 35.402344 41.332031 34.667969 L 41.332031 32 L 45.96875 32 L 45.96875 34.214844 L 42.679688 35.953125 C 42.242188 36.183594 41.96875 36.636719 41.96875 37.132812 L 41.96875 41.109375 L 37.332031 43.847656 L 37.332031 41.332031 L 38.667969 41.332031 L 38.667969 38.667969 L 36 38.667969 C 35.261719 38.667969 34.667969 39.265625 34.667969 40 L 34.667969 43.808594 L 33.105469 42.835938 L 33.105469 26.667969 L 38.667969 26.667969 C 39.402344 26.667969 40 26.070312 40 25.332031 L 40 22.667969 L 37.332031 22.667969 L 37.332031 24 L 33.105469 24 L 33.105469 20.378906 Z M 35.28125 47.328125 C 35.496094 47.460938 35.738281 47.53125 35.984375 47.53125 C 36.21875 47.53125 36.453125 47.46875 36.664062 47.34375 L 43.980469 43.015625 C 44.386719 42.777344 44.636719 42.339844 44.636719 41.867188 L 44.636719 37.9375 L 47.925781 36.199219 C 48.363281 35.964844 48.636719 35.511719 48.636719 35.019531 L 48.636719 28.222656 C 48.636719 27.730469 48.363281 27.277344 47.929688 27.046875 L 44.636719 25.292969 L 44.636719 21.515625 C 44.636719 21.035156 44.378906 20.59375 43.964844 20.355469 L 36.558594 16.117188 C 36.152344 15.886719 35.652344 15.886719 35.242188 16.113281 L 31.757812 18.074219 L 28.761719 16.15625 C 28.34375 15.886719 27.808594 15.875 27.378906 16.117188 L 19.972656 20.355469 C 19.558594 20.59375 19.304688 21.035156 19.304688 21.515625 L 19.304688 25.292969 L 16.011719 27.046875 C 15.574219 27.277344 15.304688 27.730469 15.304688 28.222656 L 15.304688 35.019531 C 15.304688 35.511719 15.578125 35.964844 16.011719 36.199219 L 19.304688 37.9375 L 19.304688 41.867188 C 19.304688 42.339844 19.550781 42.777344 19.957031 43.015625 L 27.277344 47.34375 C 27.691406 47.589844 28.207031 47.59375 28.625 47.347656 L 31.988281 45.398438 L 31.984375 45.390625 L 32.164062 45.390625 Z M 35.28125 47.328125 "/>
</svg>
