<?xml version="1.0" encoding="UTF-8"?>
<svg xmlns="http://www.w3.org/2000/svg" xmlns:xlink="http://www.w3.org/1999/xlink" width="64" height="64" viewBox="0 0 64 64">
<path fill-rule="evenodd" fill="rgb(47.843137%, 63.137257%, 8.627451%)" fill-opacity="1" d="M 49.628906 30.640625 L 53.957031 30.640625 L 53.957031 26.316406 L 49.628906 26.316406 Z M 42.128906 29.8125 L 46.960938 29.8125 L 46.960938 33.308594 L 56.621094 33.308594 L 56.621094 23.648438 L 46.960938 23.648438 L 46.960938 27.144531 L 42.128906 27.144531 C 41.644531 26.210938 40.679688 25.5625 39.550781 25.5625 C 37.941406 25.5625 36.636719 26.867188 36.636719 28.480469 C 36.636719 30.089844 37.941406 31.390625 39.550781 31.390625 C 40.679688 31.390625 41.644531 30.746094 42.128906 29.8125 Z M 43.691406 53.53125 C 41.6875 58.238281 37.089844 61.285156 31.976562 61.285156 C 26.863281 61.285156 22.261719 58.238281 20.257812 53.53125 L 22.710938 52.484375 C 24.296875 56.210938 27.933594 58.617188 31.976562 58.617188 C 36.019531 58.617188 39.65625 56.210938 41.238281 52.484375 Z M 26.855469 49.945312 C 27.460938 52.253906 29.570312 53.867188 31.976562 53.867188 C 34.382812 53.867188 36.492188 52.253906 37.097656 49.945312 L 39.675781 50.625 C 38.761719 54.101562 35.59375 56.535156 31.976562 56.535156 C 28.359375 56.535156 25.191406 54.101562 24.277344 50.625 Z M 20.257812 10.421875 C 22.261719 5.710938 26.863281 2.667969 31.976562 2.667969 C 37.089844 2.667969 41.6875 5.710938 43.691406 10.421875 L 41.238281 11.464844 C 39.65625 7.738281 36.019531 5.332031 31.976562 5.332031 C 27.933594 5.332031 24.296875 7.738281 22.710938 11.464844 Z M 37.097656 14.007812 C 36.492188 11.699219 34.382812 10.085938 31.976562 10.085938 C 29.566406 10.085938 27.460938 11.699219 26.855469 14.007812 L 24.277344 13.328125 C 25.191406 9.847656 28.359375 7.417969 31.976562 7.417969 C 35.59375 7.417969 38.761719 9.847656 39.675781 13.328125 Z M 21.652344 44.628906 L 21.652344 32.589844 L 15.539062 26.472656 C 15.855469 25.46875 15.628906 24.328125 14.832031 23.535156 C 13.695312 22.394531 11.847656 22.394531 10.710938 23.535156 C 9.574219 24.671875 9.574219 26.515625 10.710938 27.652344 C 11.507812 28.449219 12.648438 28.675781 13.652344 28.359375 L 18.988281 33.691406 L 18.988281 44.628906 L 12.328125 44.628906 L 12.328125 38.632812 C 13.261719 38.148438 13.90625 37.179688 13.90625 36.054688 C 13.90625 34.445312 12.605469 33.140625 10.996094 33.140625 C 9.382812 33.140625 8.078125 34.445312 8.078125 36.054688 C 8.078125 37.179688 8.726562 38.148438 9.660156 38.632812 L 9.660156 44.628906 L 5.332031 44.628906 L 5.332031 19.320312 L 20.160156 19.320312 L 20.183594 24.398438 L 26.296875 30.511719 C 25.980469 31.515625 26.207031 32.65625 27 33.453125 C 28.136719 34.589844 29.984375 34.589844 31.121094 33.453125 C 32.261719 32.316406 32.261719 30.46875 31.121094 29.332031 C 30.328125 28.535156 29.1875 28.308594 28.179688 28.628906 L 22.84375 23.289062 L 22.824219 19.320312 L 58.617188 19.320312 L 58.617188 37.636719 L 38.050781 37.636719 C 37.5625 36.703125 36.597656 36.054688 35.472656 36.054688 C 33.863281 36.054688 32.558594 37.359375 32.558594 38.96875 C 32.558594 40.578125 33.863281 41.882812 35.472656 41.882812 C 36.601562 41.882812 37.5625 41.238281 38.050781 40.300781 L 58.617188 40.300781 L 58.617188 44.628906 Z M 4 16.652344 C 3.265625 16.652344 2.667969 17.25 2.667969 17.988281 L 2.667969 45.964844 C 2.667969 46.699219 3.265625 47.296875 4 47.296875 L 59.953125 47.296875 C 60.6875 47.296875 61.285156 46.699219 61.285156 45.964844 L 61.285156 17.988281 C 61.285156 17.25 60.6875 16.652344 59.953125 16.652344 Z M 4 16.652344 "/>
</svg>
