<?xml version="1.0" encoding="UTF-8"?>
<svg xmlns="http://www.w3.org/2000/svg" xmlns:xlink="http://www.w3.org/1999/xlink" width="64" height="64" viewBox="0 0 64 64">
<path fill-rule="evenodd" fill="rgb(47.843137%, 63.137257%, 8.627451%)" fill-opacity="1" d="M 34.257812 36.566406 C 34.257812 37.003906 34.109375 37.390625 33.816406 37.722656 C 33.523438 38.054688 33.160156 38.25 32.71875 38.300781 L 32.71875 34.890625 C 33.265625 35.089844 33.65625 35.316406 33.898438 35.578125 C 34.136719 35.835938 34.257812 36.167969 34.257812 36.566406 Z M 31.242188 32.054688 C 30.710938 31.839844 30.328125 31.601562 30.09375 31.335938 C 29.863281 31.070312 29.746094 30.742188 29.746094 30.359375 C 29.746094 29.890625 29.878906 29.503906 30.144531 29.191406 C 30.410156 28.878906 30.777344 28.6875 31.242188 28.621094 Z M 31.242188 24.03125 L 31.242188 26.445312 C 30.042969 26.550781 29.078125 26.976562 28.347656 27.722656 C 27.617188 28.46875 27.25 29.40625 27.25 30.539062 C 27.25 31.390625 27.503906 32.105469 28.007812 32.683594 C 28.515625 33.261719 29.328125 33.757812 30.445312 34.171875 L 31.242188 34.46875 L 31.242188 38.324219 C 30.777344 38.28125 30.265625 38.167969 29.703125 37.984375 C 29.144531 37.796875 28.386719 37.484375 27.429688 37.042969 L 27.429688 39.28125 C 28.519531 39.984375 29.792969 40.390625 31.242188 40.5 L 31.242188 42.933594 L 32.71875 42.933594 L 32.71875 40.476562 C 33.957031 40.332031 34.945312 39.890625 35.683594 39.152344 C 36.421875 38.414062 36.792969 37.492188 36.792969 36.386719 C 36.792969 35.535156 36.53125 34.824219 36.011719 34.25 C 35.496094 33.679688 34.628906 33.171875 33.417969 32.734375 L 32.71875 32.472656 L 32.71875 28.640625 C 33.625 28.761719 34.628906 29.105469 35.734375 29.679688 L 35.734375 27.441406 C 34.761719 26.898438 33.757812 26.570312 32.71875 26.464844 L 32.71875 24.03125 Z M 47.128906 24.816406 L 44.9375 24.816406 C 44.203125 24.816406 43.605469 25.414062 43.605469 26.152344 L 43.605469 43.894531 C 43.605469 44.632812 44.203125 45.226562 44.9375 45.226562 L 45.863281 45.226562 L 45.863281 45.953125 L 18.179688 45.953125 L 18.179688 45.226562 L 19.105469 45.226562 C 19.84375 45.226562 20.4375 44.632812 20.4375 43.894531 L 20.4375 26.152344 C 20.4375 25.414062 19.84375 24.816406 19.105469 24.816406 L 16.917969 24.816406 L 16.917969 23.363281 L 32.023438 18.167969 L 47.128906 23.363281 Z M 32.457031 15.496094 C 32.175781 15.398438 31.867188 15.398438 31.589844 15.496094 L 15.148438 21.148438 C 14.613281 21.335938 14.25 21.839844 14.25 22.410156 L 14.25 26.152344 C 14.25 26.886719 14.847656 27.484375 15.582031 27.484375 L 17.773438 27.484375 L 17.773438 42.5625 L 16.847656 42.5625 C 16.109375 42.5625 15.515625 43.15625 15.515625 43.894531 L 15.515625 47.285156 C 15.515625 48.023438 16.109375 48.621094 16.847656 48.621094 L 47.195312 48.621094 C 47.933594 48.621094 48.53125 48.023438 48.53125 47.285156 L 48.53125 43.894531 C 48.53125 43.15625 47.933594 42.5625 47.195312 42.5625 L 46.273438 42.5625 L 46.273438 27.484375 L 48.460938 27.484375 C 49.199219 27.484375 49.792969 26.886719 49.792969 26.152344 L 49.792969 22.410156 C 49.792969 21.839844 49.433594 21.335938 48.894531 21.148438 Z M 52.996094 51.484375 C 52.996094 52.320312 52.316406 53 51.480469 53 L 12.558594 53 C 11.726562 53 11.046875 52.320312 11.046875 51.484375 L 11.046875 12.578125 C 11.046875 11.742188 11.726562 11.066406 12.558594 11.066406 L 51.480469 11.066406 C 52.316406 11.066406 52.996094 11.742188 52.996094 12.578125 Z M 61.378906 19.265625 L 61.378906 16.597656 L 55.664062 16.597656 L 55.664062 12.578125 C 55.664062 10.273438 53.789062 8.398438 51.480469 8.398438 L 47.445312 8.398438 L 47.445312 2.667969 L 44.777344 2.667969 L 44.777344 8.398438 L 40.402344 8.398438 L 40.402344 2.667969 L 37.734375 2.667969 L 37.734375 8.398438 L 33.355469 8.398438 L 33.355469 2.667969 L 30.6875 2.667969 L 30.6875 8.398438 L 26.308594 8.398438 L 26.308594 2.667969 L 23.644531 2.667969 L 23.644531 8.398438 L 19.265625 8.398438 L 19.265625 2.667969 L 16.597656 2.667969 L 16.597656 8.398438 L 12.558594 8.398438 C 10.253906 8.398438 8.378906 10.273438 8.378906 12.578125 L 8.378906 16.597656 L 2.667969 16.597656 L 2.667969 19.265625 L 8.378906 19.265625 L 8.378906 23.644531 L 2.667969 23.644531 L 2.667969 26.308594 L 8.378906 26.308594 L 8.378906 30.6875 L 2.667969 30.6875 L 2.667969 33.355469 L 8.378906 33.355469 L 8.378906 37.734375 L 2.667969 37.734375 L 2.667969 40.398438 L 8.378906 40.398438 L 8.378906 44.777344 L 2.667969 44.777344 L 2.667969 47.445312 L 8.378906 47.445312 L 8.378906 51.484375 C 8.378906 53.789062 10.253906 55.664062 12.558594 55.664062 L 16.597656 55.664062 L 16.597656 61.378906 L 19.265625 61.378906 L 19.265625 55.664062 L 23.644531 55.664062 L 23.644531 61.378906 L 26.308594 61.378906 L 26.308594 55.664062 L 30.6875 55.664062 L 30.6875 61.378906 L 33.355469 61.378906 L 33.355469 55.664062 L 37.734375 55.664062 L 37.734375 61.378906 L 40.402344 61.378906 L 40.402344 55.664062 L 44.777344 55.664062 L 44.777344 61.378906 L 47.445312 61.378906 L 47.445312 55.664062 L 51.480469 55.664062 C 53.789062 55.664062 55.664062 53.789062 55.664062 51.484375 L 55.664062 47.445312 L 61.378906 47.445312 L 61.378906 44.777344 L 55.664062 44.777344 L 55.664062 40.398438 L 61.378906 40.398438 L 61.378906 37.734375 L 55.664062 37.734375 L 55.664062 33.355469 L 61.378906 33.355469 L 61.378906 30.6875 L 55.664062 30.6875 L 55.664062 26.308594 L 61.378906 26.308594 L 61.378906 23.644531 L 55.664062 23.644531 L 55.664062 19.265625 Z M 61.378906 19.265625 "/>
</svg>
