<?xml version="1.0" encoding="UTF-8"?>
<svg xmlns="http://www.w3.org/2000/svg" xmlns:xlink="http://www.w3.org/1999/xlink" width="64" height="64" viewBox="0 0 64 64">
<path fill-rule="evenodd" fill="rgb(47.843137%, 63.137257%, 8.627451%)" fill-opacity="1" d="M 47.25 53.886719 L 50.402344 53.886719 L 50.402344 50.730469 L 47.25 50.730469 Z M 51.738281 56.550781 C 52.476562 56.550781 53.070312 55.957031 53.070312 55.21875 L 53.070312 49.398438 C 53.070312 48.660156 52.476562 48.066406 51.738281 48.066406 L 45.914062 48.066406 C 45.179688 48.066406 44.582031 48.660156 44.582031 49.398438 L 44.582031 55.21875 C 44.582031 55.957031 45.179688 56.550781 45.914062 56.550781 Z M 31.945312 51.066406 L 33.960938 53.800781 L 29.929688 53.800781 Z M 36.601562 56.46875 C 37.105469 56.46875 37.5625 56.183594 37.789062 55.738281 C 38.015625 55.285156 37.972656 54.746094 37.671875 54.34375 L 33.015625 48.027344 C 32.765625 47.6875 32.367188 47.488281 31.945312 47.488281 C 31.519531 47.488281 31.121094 47.6875 30.871094 48.027344 L 26.214844 54.34375 C 25.914062 54.746094 25.871094 55.285156 26.097656 55.738281 C 26.324219 56.183594 26.785156 56.46875 27.285156 56.46875 Z M 16.871094 52.308594 C 16.871094 53.304688 16.058594 54.117188 15.0625 54.117188 C 14.0625 54.117188 13.253906 53.304688 13.253906 52.308594 C 13.253906 51.3125 14.0625 50.5 15.0625 50.5 C 16.058594 50.5 16.871094 51.3125 16.871094 52.308594 Z M 19.539062 52.308594 C 19.539062 49.839844 17.53125 47.832031 15.0625 47.832031 C 12.59375 47.832031 10.585938 49.839844 10.585938 52.308594 C 10.585938 54.777344 12.59375 56.785156 15.0625 56.785156 C 17.53125 56.785156 19.539062 54.777344 19.539062 52.308594 Z M 7.664062 58.542969 L 56.222656 58.542969 L 56.222656 46.074219 L 7.664062 46.074219 Z M 6.328125 43.40625 C 5.59375 43.40625 4.996094 44.003906 4.996094 44.742188 L 4.996094 59.875 C 4.996094 60.613281 5.59375 61.210938 6.328125 61.210938 L 57.558594 61.210938 C 58.292969 61.210938 58.890625 60.613281 58.890625 59.875 L 58.890625 44.742188 C 58.890625 44.003906 58.292969 43.40625 57.558594 43.40625 Z M 43.742188 30.683594 L 45.746094 30.683594 L 45.746094 28.683594 L 43.742188 28.683594 Z M 42.410156 26.015625 C 41.671875 26.015625 41.078125 26.613281 41.078125 27.351562 L 41.078125 32.019531 C 41.078125 32.753906 41.671875 33.351562 42.410156 33.351562 L 47.078125 33.351562 C 47.816406 33.351562 48.414062 32.753906 48.414062 32.019531 L 48.414062 27.351562 C 48.414062 26.613281 47.816406 26.015625 47.078125 26.015625 Z M 30.132812 30.601562 L 31.167969 29.359375 L 32.203125 30.601562 Z M 32.191406 26.421875 C 31.9375 26.117188 31.5625 25.941406 31.167969 25.941406 C 30.773438 25.941406 30.398438 26.117188 30.144531 26.421875 L 26.261719 31.078125 C 25.933594 31.476562 25.859375 32.03125 26.078125 32.5 C 26.296875 32.96875 26.769531 33.265625 27.285156 33.265625 L 35.050781 33.265625 C 35.566406 33.265625 36.039062 32.96875 36.257812 32.5 C 36.476562 32.03125 36.402344 31.476562 36.074219 31.082031 Z M 16.808594 29.605469 C 16.808594 28.960938 17.328125 28.4375 17.972656 28.4375 C 18.613281 28.4375 19.136719 28.960938 19.136719 29.605469 C 19.136719 30.246094 18.613281 30.769531 17.972656 30.769531 C 17.328125 30.769531 16.808594 30.246094 16.808594 29.605469 Z M 14.140625 29.605469 C 14.140625 31.71875 15.859375 33.4375 17.972656 33.4375 C 20.085938 33.4375 21.804688 31.71875 21.804688 29.605469 C 21.804688 27.492188 20.085938 25.773438 17.972656 25.773438 C 15.859375 25.773438 14.140625 27.492188 14.140625 29.605469 Z M 13.484375 34.09375 L 49.238281 34.09375 L 49.238281 25.117188 L 13.484375 25.117188 Z M 50.570312 36.757812 C 51.308594 36.757812 51.90625 36.164062 51.90625 35.425781 L 51.90625 23.785156 C 51.90625 23.046875 51.308594 22.449219 50.570312 22.449219 L 12.152344 22.449219 C 11.414062 22.449219 10.820312 23.046875 10.820312 23.785156 L 10.820312 35.425781 C 10.820312 36.164062 11.414062 36.757812 12.152344 36.757812 Z M 12.007812 21.285156 C 12.660156 21.121094 13.085938 20.5 13.003906 19.835938 C 12.941406 19.300781 12.90625 18.761719 12.90625 18.230469 C 12.90625 13.414062 16.238281 8.238281 20.488281 6.441406 C 22.402344 5.628906 24.175781 5.308594 25.78125 5.308594 C 30.34375 5.308594 33.570312 7.914062 34.976562 9.324219 C 36.53125 10.878906 37.738281 12.867188 38.578125 15.234375 C 38.742188 15.699219 39.152344 16.035156 39.636719 16.105469 C 40.121094 16.171875 40.613281 15.976562 40.90625 15.582031 C 42.070312 14.007812 43.960938 13.332031 45.71875 13.839844 C 47.84375 14.464844 49.246094 16.628906 49.488281 19.648438 C 49.398438 20.351562 49.882812 21.003906 50.585938 21.125 C 52.980469 21.535156 58.554688 23.21875 58.554688 29.945312 C 58.554688 37.953125 50.773438 38.726562 50.558594 38.75 L 14.324219 38.710938 C 9.582031 38.707031 5.644531 35.144531 5.355469 30.601562 C 5.339844 30.359375 5.332031 30.113281 5.332031 29.859375 C 5.332031 23.878906 9.515625 21.921875 12.007812 21.285156 Z M 50.664062 41.414062 C 54.316406 41.117188 61.21875 38.339844 61.21875 29.945312 C 61.21875 23.292969 56.667969 19.839844 52.066406 18.710938 C 51.558594 14.917969 49.507812 12.171875 46.464844 11.28125 C 44.324219 10.652344 42.074219 11.105469 40.3125 12.429688 C 39.410156 10.507812 38.257812 8.832031 36.863281 7.441406 C 32.105469 2.679688 25.597656 1.386719 19.449219 3.984375 C 14.199219 6.203125 10.242188 12.328125 10.242188 18.230469 C 10.242188 18.492188 10.246094 18.761719 10.261719 19.027344 C 7.351562 20.039062 2.667969 22.769531 2.667969 29.859375 C 2.667969 30.171875 2.675781 30.472656 2.695312 30.769531 C 3.066406 36.710938 8.175781 41.371094 14.324219 41.378906 Z M 50.664062 41.414062 "/>
</svg>
