<?xml version="1.0" encoding="UTF-8"?>
<svg xmlns="http://www.w3.org/2000/svg" xmlns:xlink="http://www.w3.org/1999/xlink" width="64" height="64" viewBox="0 0 64 64">
<path fill-rule="evenodd" fill="rgb(47.843137%, 63.137257%, 8.627451%)" fill-opacity="1" d="M 25.148438 58.613281 L 58.613281 58.613281 L 58.613281 43.796875 L 25.148438 43.796875 Z M 22.480469 41.132812 L 61.28125 41.132812 L 61.28125 61.28125 L 22.480469 61.28125 Z M 10.351562 2.667969 C 6.113281 2.667969 2.667969 6.113281 2.667969 10.351562 L 2.667969 53.597656 C 2.667969 57.832031 6.113281 61.28125 10.351562 61.28125 L 20.316406 61.28125 L 20.316406 58.613281 L 10.351562 58.613281 C 7.585938 58.613281 5.332031 56.363281 5.332031 53.597656 L 5.332031 10.351562 C 5.332031 7.585938 7.585938 5.332031 10.351562 5.332031 L 53.59375 5.332031 C 56.363281 5.332031 58.613281 7.585938 58.613281 10.351562 L 58.613281 38.96875 L 61.28125 38.96875 L 61.28125 10.351562 C 61.28125 6.113281 57.832031 2.667969 53.59375 2.667969 Z M 53.613281 51.613281 C 54.050781 51.613281 54.390625 51.445312 54.640625 51.109375 C 54.886719 50.773438 55.007812 50.3125 55.007812 49.722656 C 55.007812 49.128906 54.886719 48.664062 54.640625 48.332031 C 54.390625 48 54.050781 47.835938 53.613281 47.835938 L 52.226562 47.835938 L 52.226562 51.613281 Z M 52.226562 52.6875 L 52.226562 56.453125 L 50.914062 56.453125 L 50.914062 46.757812 L 53.75 46.757812 C 54.273438 46.757812 54.730469 46.882812 55.128906 47.136719 C 55.523438 47.386719 55.828125 47.738281 56.039062 48.1875 C 56.25 48.632812 56.351562 49.144531 56.351562 49.722656 C 56.351562 50.621094 56.113281 51.339844 55.632812 51.878906 C 55.152344 52.417969 54.527344 52.6875 53.75 52.6875 Z M 43.484375 47.890625 L 45.890625 47.890625 L 45.890625 56.453125 L 47.246094 56.453125 L 47.246094 47.890625 L 49.667969 47.890625 L 49.667969 46.757812 L 43.484375 46.757812 Z M 36.492188 47.890625 L 38.898438 47.890625 L 38.898438 56.453125 L 40.253906 56.453125 L 40.253906 47.890625 L 42.675781 47.890625 L 42.675781 46.757812 L 36.492188 46.757812 Z M 33.890625 46.757812 L 35.246094 46.757812 L 35.246094 56.453125 L 33.890625 56.453125 L 33.890625 52.046875 L 30.367188 52.046875 L 30.367188 56.453125 L 29.007812 56.453125 L 29.007812 46.757812 L 30.367188 46.757812 L 30.367188 50.941406 L 33.890625 50.941406 Z M 33.890625 46.757812 "/>
</svg>
