<?xml version="1.0" encoding="UTF-8"?>
<svg xmlns="http://www.w3.org/2000/svg" xmlns:xlink="http://www.w3.org/1999/xlink" width="64" height="64" viewBox="0 0 64 64">
<path fill-rule="evenodd" fill="rgb(47.843137%, 63.137257%, 8.627451%)" fill-opacity="1" d="M 54.25 21.308594 L 56.136719 23.191406 L 50.300781 29.027344 C 50.042969 29.285156 49.699219 29.417969 49.359375 29.417969 C 49.019531 29.417969 48.675781 29.285156 48.417969 29.027344 L 42.582031 23.191406 L 44.46875 21.308594 L 48 24.839844 L 48 20.597656 C 48 17.328125 45.339844 14.667969 42.070312 14.667969 L 34.664062 14.667969 L 34.664062 12 L 42.070312 12 C 46.808594 12 50.664062 15.855469 50.664062 20.597656 L 50.664062 24.890625 Z M 43.628906 44.925781 C 43.117188 45.453125 42.273438 45.46875 41.742188 44.960938 C 41.484375 44.714844 41.339844 44.382812 41.332031 44.027344 C 41.328125 43.667969 41.457031 43.332031 41.707031 43.074219 C 41.96875 42.804688 42.316406 42.667969 42.664062 42.667969 C 43 42.667969 43.332031 42.789062 43.589844 43.039062 C 43.847656 43.285156 43.992188 43.617188 44 43.972656 C 44.007812 44.328125 43.875 44.667969 43.628906 44.925781 Z M 39.785156 41.226562 C 39.042969 41.996094 38.648438 43.007812 38.667969 44.078125 C 38.6875 45.148438 39.125 46.144531 39.894531 46.882812 C 40.667969 47.628906 41.667969 47.996094 42.664062 47.996094 C 43.714844 47.996094 44.765625 47.585938 45.550781 46.773438 C 46.289062 46 46.6875 44.988281 46.664062 43.921875 C 46.644531 42.851562 46.207031 41.855469 45.4375 41.117188 C 43.847656 39.585938 41.3125 39.636719 39.785156 41.226562 Z M 50.949219 48.796875 L 48.050781 48.214844 C 47.6875 48.136719 47.304688 48.222656 47 48.445312 L 45.5625 49.5 C 45.265625 49.71875 45.070312 50.050781 45.027344 50.417969 L 44.683594 53.335938 L 40.347656 53.335938 L 40.011719 50.4375 C 39.96875 50.070312 39.777344 49.738281 39.480469 49.519531 L 38.023438 48.441406 C 37.71875 48.21875 37.335938 48.132812 36.96875 48.207031 L 34.09375 48.78125 L 32.757812 44.65625 L 35.449219 43.421875 C 35.789062 43.265625 36.046875 42.976562 36.164062 42.621094 L 36.707031 40.945312 C 36.824219 40.59375 36.785156 40.207031 36.601562 39.878906 L 35.15625 37.300781 L 38.664062 34.753906 L 40.65625 36.914062 C 40.90625 37.1875 41.261719 37.34375 41.636719 37.34375 L 41.644531 37.34375 L 43.453125 37.332031 C 43.824219 37.332031 44.175781 37.175781 44.425781 36.902344 L 46.402344 34.761719 L 49.90625 37.3125 L 48.464844 39.878906 C 48.285156 40.203125 48.246094 40.585938 48.355469 40.9375 L 48.894531 42.632812 C 49.011719 42.988281 49.269531 43.28125 49.613281 43.4375 L 52.292969 44.671875 Z M 54.484375 42.742188 L 51.257812 41.261719 L 51.074219 40.679688 L 52.8125 37.585938 C 53.144531 36.996094 52.980469 36.253906 52.433594 35.855469 L 47.007812 31.90625 C 46.460938 31.507812 45.703125 31.582031 45.246094 32.082031 L 42.859375 34.667969 L 42.21875 34.671875 L 39.824219 32.074219 C 39.363281 31.578125 38.605469 31.503906 38.0625 31.898438 L 32.628906 35.839844 C 32.082031 36.238281 31.917969 36.984375 32.25 37.574219 L 33.992188 40.675781 L 33.808594 41.238281 L 30.566406 42.726562 C 29.953125 43.007812 29.648438 43.707031 29.855469 44.347656 L 31.925781 50.734375 C 32.132812 51.378906 32.785156 51.761719 33.453125 51.628906 L 36.914062 50.9375 L 37.429688 51.320312 L 37.835938 54.820312 C 37.914062 55.492188 38.484375 56 39.160156 56 L 45.871094 56.003906 C 46.546875 56.003906 47.117188 55.5 47.195312 54.828125 L 47.609375 51.308594 L 48.101562 50.945312 L 51.589844 51.644531 C 52.242188 51.777344 52.910156 51.390625 53.117188 50.75 L 55.195312 44.367188 C 55.40625 43.722656 55.097656 43.023438 54.484375 42.742188 Z M 21.929688 49.332031 L 29.335938 49.332031 L 29.335938 52 L 21.929688 52 C 17.191406 52 13.335938 48.144531 13.335938 43.402344 L 13.335938 39.722656 L 9.84375 43.214844 L 7.957031 41.328125 L 13.792969 35.496094 C 14.3125 34.972656 15.15625 34.972656 15.675781 35.496094 L 21.511719 41.328125 L 19.625 43.214844 L 16 39.589844 L 16 43.402344 C 16 46.671875 18.660156 49.332031 21.929688 49.332031 Z M 58.667969 52.734375 C 58.667969 56.003906 56.007812 58.667969 52.734375 58.667969 L 11.265625 58.667969 C 7.992188 58.667969 5.332031 56.003906 5.332031 52.734375 L 5.332031 11.261719 C 5.332031 7.992188 7.992188 5.332031 11.265625 5.332031 L 52.734375 5.332031 C 56.007812 5.332031 58.667969 7.992188 58.667969 11.261719 Z M 52.734375 2.667969 L 11.265625 2.667969 C 6.523438 2.667969 2.664062 6.523438 2.664062 11.261719 L 2.664062 52.734375 C 2.664062 57.476562 6.523438 61.332031 11.265625 61.332031 L 52.734375 61.332031 C 57.476562 61.332031 61.332031 57.476562 61.332031 52.734375 L 61.332031 11.261719 C 61.332031 6.523438 57.476562 2.667969 52.734375 2.667969 Z M 20.371094 20.40625 C 20.632812 20.136719 20.984375 20 21.335938 20 C 21.664062 20 22 20.121094 22.257812 20.371094 C 22.515625 20.617188 22.660156 20.949219 22.667969 21.308594 C 22.671875 21.664062 22.542969 22 22.292969 22.257812 C 21.785156 22.785156 20.941406 22.804688 20.410156 22.292969 C 20.152344 22.046875 20.007812 21.714844 20 21.359375 C 19.992188 21.003906 20.125 20.664062 20.371094 20.40625 Z M 21.332031 25.332031 C 22.382812 25.332031 23.433594 24.921875 24.214844 24.105469 C 24.957031 23.335938 25.351562 22.324219 25.332031 21.253906 C 25.3125 20.183594 24.875 19.1875 24.105469 18.449219 C 22.515625 16.917969 19.976562 16.96875 18.449219 18.558594 C 17.710938 19.332031 17.3125 20.34375 17.335938 21.410156 C 17.355469 22.480469 17.792969 23.476562 18.5625 24.214844 C 19.335938 24.960938 20.335938 25.332031 21.332031 25.332031 Z M 14.628906 20.753906 C 14.964844 20.597656 15.222656 20.308594 15.339844 19.957031 L 15.886719 18.28125 C 16 17.925781 15.964844 17.539062 15.78125 17.214844 L 14.332031 14.636719 L 17.84375 12.089844 L 19.832031 14.246094 C 20.085938 14.519531 20.441406 14.675781 20.8125 14.675781 L 20.820312 14.675781 L 22.632812 14.667969 C 23 14.664062 23.351562 14.507812 23.605469 14.234375 L 25.578125 12.09375 L 29.085938 14.648438 L 27.640625 17.214844 C 27.460938 17.535156 27.421875 17.917969 27.535156 18.269531 L 28.074219 19.964844 C 28.1875 20.324219 28.445312 20.617188 28.789062 20.773438 L 31.46875 22.003906 L 30.125 26.128906 L 27.230469 25.546875 C 26.867188 25.472656 26.480469 25.558594 26.179688 25.777344 L 24.742188 26.832031 C 24.441406 27.050781 24.246094 27.382812 24.203125 27.753906 L 23.863281 30.671875 L 19.523438 30.667969 L 19.1875 27.769531 C 19.144531 27.40625 18.953125 27.074219 18.65625 26.851562 L 17.199219 25.777344 C 16.898438 25.550781 16.515625 25.464844 16.144531 25.539062 L 13.273438 26.113281 L 11.9375 21.988281 Z M 11.101562 28.066406 C 11.308594 28.710938 11.964844 29.09375 12.632812 28.960938 L 16.089844 28.269531 L 16.605469 28.652344 L 17.011719 32.152344 C 17.089844 32.824219 17.660156 33.332031 18.335938 33.332031 L 25.046875 33.339844 C 25.722656 33.339844 26.292969 32.832031 26.371094 32.160156 L 26.785156 28.640625 L 27.28125 28.277344 L 30.765625 28.976562 C 31.417969 29.109375 32.085938 28.722656 32.296875 28.082031 L 34.375 21.699219 C 34.582031 21.058594 34.277344 20.359375 33.660156 20.074219 L 30.4375 18.59375 L 30.25 18.015625 L 31.992188 14.917969 C 32.320312 14.332031 32.160156 13.585938 31.613281 13.1875 L 26.1875 9.238281 C 25.636719 8.839844 24.882812 8.917969 24.421875 9.414062 L 22.035156 12.003906 L 21.394531 12.007812 L 19 9.410156 C 18.539062 8.910156 17.785156 8.835938 17.238281 9.234375 L 11.804688 13.171875 C 11.257812 13.570312 11.09375 14.316406 11.425781 14.90625 L 13.167969 18.007812 L 12.984375 18.574219 L 9.746094 20.058594 C 9.132812 20.339844 8.824219 21.039062 9.035156 21.679688 Z M 11.101562 28.066406 "/>
</svg>
