<?xml version="1.0" encoding="UTF-8"?>
<svg xmlns="http://www.w3.org/2000/svg" xmlns:xlink="http://www.w3.org/1999/xlink" width="64" height="64" viewBox="0 0 64 64">
<path fill-rule="evenodd" fill="rgb(47.843137%, 63.137257%, 8.627451%)" fill-opacity="1" d="M 44.761719 33.71875 C 43.476562 33.71875 42.425781 32.671875 42.425781 31.386719 C 42.425781 30.097656 43.476562 29.050781 44.761719 29.050781 C 46.050781 29.050781 47.097656 30.097656 47.097656 31.386719 C 47.097656 32.671875 46.050781 33.71875 44.761719 33.71875 Z M 38.667969 40.433594 L 38.667969 32 L 39.824219 32 C 40.03125 33.667969 41.050781 35.070312 42.488281 35.8125 C 41.65625 37.660156 40.324219 39.257812 38.667969 40.433594 Z M 33.332031 42.464844 L 33.332031 23.464844 C 34.785156 23.105469 35.976562 22.113281 36.617188 20.796875 C 39.339844 21.964844 41.476562 24.148438 42.605469 26.890625 C 41.546875 27.402344 40.695312 28.261719 40.210938 29.332031 L 37.332031 29.332031 C 36.597656 29.332031 36 29.929688 36 30.667969 L 36 41.832031 C 35.148438 42.152344 34.25 42.367188 33.332031 42.464844 Z M 28 41.738281 L 28 30.667969 C 28 29.929688 27.402344 29.332031 26.667969 29.332031 L 24.050781 29.332031 C 23.566406 28.265625 22.714844 27.402344 21.660156 26.894531 C 22.789062 24.152344 24.929688 21.96875 27.644531 20.796875 C 28.246094 22.035156 29.335938 22.972656 30.667969 23.386719 L 30.667969 42.425781 C 29.75 42.308594 28.847656 42.085938 28 41.738281 Z M 23.441406 38.460938 C 23.398438 38.410156 23.351562 38.363281 23.269531 38.246094 C 22.671875 37.503906 22.175781 36.675781 21.785156 35.808594 C 23.214844 35.066406 24.234375 33.664062 24.441406 32 L 25.332031 32 L 25.332031 40.246094 C 24.636719 39.726562 24 39.132812 23.441406 38.460938 Z M 17.164062 31.386719 C 17.164062 30.097656 18.214844 29.050781 19.5 29.050781 C 20.789062 29.050781 21.835938 30.097656 21.835938 31.386719 C 21.835938 32.671875 20.789062 33.71875 19.5 33.71875 C 18.214844 33.71875 17.164062 32.671875 17.164062 31.386719 Z M 32.128906 16.289062 C 33.417969 16.289062 34.464844 17.339844 34.464844 18.625 C 34.464844 19.914062 33.417969 20.960938 32.128906 20.960938 C 30.84375 20.960938 29.792969 19.914062 29.792969 18.625 C 29.792969 17.339844 30.84375 16.289062 32.128906 16.289062 Z M 45.273438 26.433594 C 43.875 22.589844 40.902344 19.574219 37.082031 18.128906 C 36.832031 15.609375 34.71875 13.625 32.128906 13.625 C 29.542969 13.625 27.429688 15.609375 27.179688 18.132812 C 23.363281 19.578125 20.390625 22.59375 18.992188 26.433594 C 16.476562 26.691406 14.5 28.800781 14.5 31.386719 C 14.5 34.011719 16.542969 36.148438 19.117188 36.347656 C 19.625 37.625 20.304688 38.816406 21.140625 39.851562 C 21.222656 39.964844 21.320312 40.082031 21.402344 40.179688 C 22.496094 41.5 23.839844 42.601562 25.332031 43.429688 L 25.332031 49.332031 L 28 49.332031 L 28 44.566406 C 28.863281 44.839844 29.753906 45.027344 30.667969 45.121094 L 30.667969 49.332031 L 33.332031 49.332031 L 33.332031 45.144531 C 34.246094 45.066406 35.140625 44.90625 36 44.652344 L 36 49.332031 L 38.667969 49.332031 L 38.667969 43.566406 C 41.597656 42.011719 43.910156 39.421875 45.132812 36.347656 C 47.714844 36.15625 49.765625 34.015625 49.765625 31.386719 C 49.765625 28.800781 47.789062 26.691406 45.273438 26.433594 Z M 52 50.488281 C 52 51.320312 51.320312 52 50.488281 52 L 13.511719 52 C 12.679688 52 12 51.320312 12 50.488281 L 12 13.511719 C 12 12.679688 12.679688 12 13.511719 12 L 50.488281 12 C 51.320312 12 52 12.679688 52 13.511719 Z M 61.332031 20 L 61.332031 17.332031 L 54.667969 17.332031 L 54.667969 13.511719 C 54.667969 11.207031 52.789062 9.332031 50.488281 9.332031 L 46.667969 9.332031 L 46.667969 2.667969 L 44 2.667969 L 44 9.332031 L 40 9.332031 L 40 2.667969 L 37.332031 2.667969 L 37.332031 9.332031 L 33.332031 9.332031 L 33.332031 2.667969 L 30.667969 2.667969 L 30.667969 9.332031 L 26.667969 9.332031 L 26.667969 2.667969 L 24 2.667969 L 24 9.332031 L 20 9.332031 L 20 2.667969 L 17.332031 2.667969 L 17.332031 9.332031 L 13.511719 9.332031 C 11.207031 9.332031 9.332031 11.207031 9.332031 13.511719 L 9.332031 17.332031 L 2.667969 17.332031 L 2.667969 20 L 9.332031 20 L 9.332031 24 L 2.667969 24 L 2.667969 26.667969 L 9.332031 26.667969 L 9.332031 30.667969 L 2.667969 30.667969 L 2.667969 33.332031 L 9.332031 33.332031 L 9.332031 37.332031 L 2.667969 37.332031 L 2.667969 40 L 9.332031 40 L 9.332031 44 L 2.667969 44 L 2.667969 46.667969 L 9.332031 46.667969 L 9.332031 50.488281 C 9.332031 52.792969 11.207031 54.667969 13.511719 54.667969 L 17.332031 54.667969 L 17.332031 61.332031 L 20 61.332031 L 20 54.667969 L 24 54.667969 L 24 61.332031 L 26.667969 61.332031 L 26.667969 54.667969 L 30.667969 54.667969 L 30.667969 61.332031 L 33.332031 61.332031 L 33.332031 54.667969 L 37.332031 54.667969 L 37.332031 61.332031 L 40 61.332031 L 40 54.667969 L 44 54.667969 L 44 61.332031 L 46.667969 61.332031 L 46.667969 54.667969 L 50.488281 54.667969 C 52.789062 54.667969 54.667969 52.792969 54.667969 50.488281 L 54.667969 46.667969 L 61.332031 46.667969 L 61.332031 44 L 54.667969 44 L 54.667969 40 L 61.332031 40 L 61.332031 37.332031 L 54.667969 37.332031 L 54.667969 33.332031 L 61.332031 33.332031 L 61.332031 30.667969 L 54.667969 30.667969 L 54.667969 26.667969 L 61.332031 26.667969 L 61.332031 24 L 54.667969 24 L 54.667969 20 Z M 61.332031 20 "/>
</svg>
