<?xml version="1.0" encoding="UTF-8"?>
<svg xmlns="http://www.w3.org/2000/svg" xmlns:xlink="http://www.w3.org/1999/xlink" width="64" height="64" viewBox="0 0 64 64">
<path fill-rule="evenodd" fill="rgb(47.843137%, 63.137257%, 8.627451%)" fill-opacity="1" d="M 41.554688 46.675781 C 41.554688 45.976562 42.453125 44.234375 43.152344 42.964844 C 43.855469 44.238281 44.753906 45.976562 44.753906 46.675781 C 44.753906 47.558594 44.035156 48.273438 43.152344 48.273438 C 42.269531 48.273438 41.554688 47.558594 41.554688 46.675781 Z M 43.152344 38.886719 C 42.648438 38.886719 42.183594 39.171875 41.960938 39.625 C 41.835938 39.875 41.621094 40.25 41.367188 40.695312 C 40.011719 43.089844 38.886719 45.191406 38.886719 46.675781 C 38.886719 49.027344 40.800781 50.941406 43.152344 50.941406 C 45.507812 50.941406 47.421875 49.027344 47.421875 46.675781 C 47.421875 45.1875 46.292969 43.085938 44.933594 40.6875 C 44.683594 40.246094 44.472656 39.875 44.347656 39.625 C 44.121094 39.171875 43.660156 38.886719 43.152344 38.886719 Z M 44.753906 35.367188 L 40.277344 35.367188 L 40.277344 33.171875 C 40.277344 31.824219 39.179688 30.726562 37.832031 30.726562 L 16.90625 30.726562 L 16.90625 26.296875 L 38.5625 26.296875 C 41.976562 26.296875 44.753906 29.074219 44.753906 32.492188 Z M 23.949219 17.765625 L 37.714844 17.765625 L 37.714844 16.910156 L 23.949219 16.910156 Z M 32.164062 23.628906 L 32.164062 20.429688 L 39.046875 20.429688 C 39.785156 20.429688 40.378906 19.832031 40.378906 19.097656 L 40.378906 15.574219 C 40.378906 14.839844 39.785156 14.242188 39.046875 14.242188 L 22.617188 14.242188 C 21.878906 14.242188 21.285156 14.839844 21.285156 15.574219 L 21.285156 19.097656 C 21.285156 19.832031 21.878906 20.429688 22.617188 20.429688 L 29.5 20.429688 L 29.5 23.628906 L 15.574219 23.628906 C 14.839844 23.628906 14.242188 24.226562 14.242188 24.964844 L 14.242188 32.0625 C 14.242188 32.796875 14.839844 33.394531 15.574219 33.394531 L 37.609375 33.394531 L 37.609375 36.699219 C 37.609375 37.4375 38.207031 38.03125 38.941406 38.03125 L 46.085938 38.03125 C 46.824219 38.03125 47.421875 37.4375 47.421875 36.699219 L 47.421875 32.492188 C 47.421875 27.605469 43.445312 23.628906 38.5625 23.628906 Z M 52.96875 51.457031 C 52.96875 52.289062 52.289062 52.96875 51.453125 52.96875 L 12.558594 52.96875 C 11.722656 52.96875 11.042969 52.289062 11.042969 51.457031 L 11.042969 12.574219 C 11.042969 11.738281 11.722656 11.0625 12.558594 11.0625 L 51.453125 11.0625 C 52.289062 11.0625 52.96875 11.738281 52.96875 12.574219 Z M 61.34375 19.253906 L 61.34375 16.589844 L 55.632812 16.589844 L 55.632812 12.574219 C 55.632812 10.269531 53.757812 8.394531 51.453125 8.394531 L 47.421875 8.394531 L 47.421875 2.667969 L 44.753906 2.667969 L 44.753906 8.394531 L 40.378906 8.394531 L 40.378906 2.667969 L 37.714844 2.667969 L 37.714844 8.394531 L 33.339844 8.394531 L 33.339844 2.667969 L 30.671875 2.667969 L 30.671875 8.394531 L 26.296875 8.394531 L 26.296875 2.667969 L 23.628906 2.667969 L 23.628906 8.394531 L 19.257812 8.394531 L 19.257812 2.667969 L 16.589844 2.667969 L 16.589844 8.394531 L 12.558594 8.394531 C 10.253906 8.394531 8.378906 10.269531 8.378906 12.574219 L 8.378906 16.589844 L 2.667969 16.589844 L 2.667969 19.253906 L 8.378906 19.253906 L 8.378906 23.628906 L 2.667969 23.628906 L 2.667969 26.296875 L 8.378906 26.296875 L 8.378906 30.671875 L 2.667969 30.671875 L 2.667969 33.339844 L 8.378906 33.339844 L 8.378906 37.710938 L 2.667969 37.710938 L 2.667969 40.378906 L 8.378906 40.378906 L 8.378906 44.753906 L 2.667969 44.753906 L 2.667969 47.421875 L 8.378906 47.421875 L 8.378906 51.457031 C 8.378906 53.761719 10.253906 55.636719 12.558594 55.636719 L 16.589844 55.636719 L 16.589844 61.34375 L 19.257812 61.34375 L 19.257812 55.636719 L 23.628906 55.636719 L 23.628906 61.34375 L 26.296875 61.34375 L 26.296875 55.636719 L 30.671875 55.636719 L 30.671875 61.34375 L 33.339844 61.34375 L 33.339844 55.636719 L 37.714844 55.636719 L 37.714844 61.34375 L 40.378906 61.34375 L 40.378906 55.636719 L 44.753906 55.636719 L 44.753906 61.34375 L 47.421875 61.34375 L 47.421875 55.636719 L 51.453125 55.636719 C 53.757812 55.636719 55.632812 53.761719 55.632812 51.457031 L 55.632812 47.421875 L 61.34375 47.421875 L 61.34375 44.753906 L 55.632812 44.753906 L 55.632812 40.378906 L 61.34375 40.378906 L 61.34375 37.710938 L 55.632812 37.710938 L 55.632812 33.339844 L 61.34375 33.339844 L 61.34375 30.671875 L 55.632812 30.671875 L 55.632812 26.296875 L 61.34375 26.296875 L 61.34375 23.628906 L 55.632812 23.628906 L 55.632812 19.253906 Z M 61.34375 19.253906 "/>
</svg>
