<?xml version="1.0" encoding="UTF-8"?>
<svg xmlns="http://www.w3.org/2000/svg" xmlns:xlink="http://www.w3.org/1999/xlink" width="64" height="64" viewBox="0 0 64 64">
<path fill-rule="evenodd" fill="rgb(47.843137%, 63.137257%, 8.627451%)" fill-opacity="1" d="M 40.597656 40.378906 L 36.222656 42.738281 L 34.957031 40.390625 L 37.675781 38.925781 L 36.996094 34.507812 L 38.929688 32 L 36.996094 29.492188 L 37.675781 25.074219 L 34.957031 23.609375 L 36.222656 21.261719 L 40.597656 23.621094 L 39.804688 28.769531 L 42.300781 32 L 39.804688 35.230469 Z M 49.8125 32 L 45.738281 36.429688 L 47.011719 43.359375 L 39.996094 47.792969 L 38.570312 45.539062 L 44.066406 42.066406 L 42.875 35.605469 L 46.1875 32 L 42.875 28.394531 L 44.066406 21.933594 L 38.570312 18.460938 L 39.996094 16.207031 L 47.011719 20.640625 L 45.738281 27.570312 Z M 26.324219 38.925781 L 29.042969 40.390625 L 27.777344 42.738281 L 23.402344 40.378906 L 24.195312 35.230469 L 21.699219 32 L 24.195312 28.769531 L 23.402344 23.621094 L 27.777344 21.261719 L 29.042969 23.609375 L 26.324219 25.074219 L 27.003906 29.492188 L 25.070312 32 L 27.003906 34.507812 Z M 19.933594 42.066406 L 25.429688 45.539062 L 24.003906 47.792969 L 16.988281 43.359375 L 18.261719 36.429688 L 14.1875 32 L 18.261719 27.570312 L 16.988281 20.640625 L 24.003906 16.207031 L 25.429688 18.460938 L 19.933594 21.933594 L 21.125 28.394531 L 17.8125 32 L 21.125 35.605469 Z M 32 33.332031 C 31.265625 33.332031 30.667969 32.734375 30.667969 32 C 30.667969 31.265625 31.265625 30.667969 32 30.667969 C 32.734375 30.667969 33.332031 31.265625 33.332031 32 C 33.332031 32.734375 32.734375 33.332031 32 33.332031 Z M 32 28 C 29.792969 28 28 29.792969 28 32 C 28 34.207031 29.792969 36 32 36 C 34.207031 36 36 34.207031 36 32 C 36 29.792969 34.207031 28 32 28 Z M 52 50.488281 C 52 51.320312 51.320312 52 50.488281 52 L 13.511719 52 C 12.679688 52 12 51.320312 12 50.488281 L 12 13.511719 C 12 12.679688 12.679688 12 13.511719 12 L 50.488281 12 C 51.320312 12 52 12.679688 52 13.511719 Z M 61.332031 20 L 61.332031 17.332031 L 54.667969 17.332031 L 54.667969 13.511719 C 54.667969 11.207031 52.792969 9.332031 50.488281 9.332031 L 46.667969 9.332031 L 46.667969 2.667969 L 44 2.667969 L 44 9.332031 L 40 9.332031 L 40 2.667969 L 37.332031 2.667969 L 37.332031 9.332031 L 33.332031 9.332031 L 33.332031 2.667969 L 30.667969 2.667969 L 30.667969 9.332031 L 26.667969 9.332031 L 26.667969 2.667969 L 24 2.667969 L 24 9.332031 L 20 9.332031 L 20 2.667969 L 17.332031 2.667969 L 17.332031 9.332031 L 13.511719 9.332031 C 11.207031 9.332031 9.332031 11.207031 9.332031 13.511719 L 9.332031 17.332031 L 2.667969 17.332031 L 2.667969 20 L 9.332031 20 L 9.332031 24 L 2.667969 24 L 2.667969 26.667969 L 9.332031 26.667969 L 9.332031 30.667969 L 2.667969 30.667969 L 2.667969 33.332031 L 9.332031 33.332031 L 9.332031 37.332031 L 2.667969 37.332031 L 2.667969 40 L 9.332031 40 L 9.332031 44 L 2.667969 44 L 2.667969 46.667969 L 9.332031 46.667969 L 9.332031 50.488281 C 9.332031 52.792969 11.207031 54.667969 13.511719 54.667969 L 17.332031 54.667969 L 17.332031 61.332031 L 20 61.332031 L 20 54.667969 L 24 54.667969 L 24 61.332031 L 26.667969 61.332031 L 26.667969 54.667969 L 30.667969 54.667969 L 30.667969 61.332031 L 33.332031 61.332031 L 33.332031 54.667969 L 37.332031 54.667969 L 37.332031 61.332031 L 40 61.332031 L 40 54.667969 L 44 54.667969 L 44 61.332031 L 46.667969 61.332031 L 46.667969 54.667969 L 50.488281 54.667969 C 52.792969 54.667969 54.667969 52.792969 54.667969 50.488281 L 54.667969 46.667969 L 61.332031 46.667969 L 61.332031 44 L 54.667969 44 L 54.667969 40 L 61.332031 40 L 61.332031 37.332031 L 54.667969 37.332031 L 54.667969 33.332031 L 61.332031 33.332031 L 61.332031 30.667969 L 54.667969 30.667969 L 54.667969 26.667969 L 61.332031 26.667969 L 61.332031 24 L 54.667969 24 L 54.667969 20 Z M 61.332031 20 "/>
</svg>
