<?xml version="1.0" encoding="UTF-8"?>
<svg xmlns="http://www.w3.org/2000/svg" xmlns:xlink="http://www.w3.org/1999/xlink" width="64" height="64" viewBox="0 0 64 64">
<path fill-rule="evenodd" fill="rgb(47.843137%, 63.137257%, 8.627451%)" fill-opacity="1" d="M 38.96875 40.597656 L 38.96875 24 L 44.289062 24 C 48.867188 24 52.589844 27.722656 52.589844 32.300781 C 52.589844 36.875 48.867188 40.597656 44.289062 40.597656 Z M 61.332031 30.964844 L 55.167969 30.964844 C 54.503906 25.546875 49.882812 21.332031 44.289062 21.332031 L 37.636719 21.332031 C 36.898438 21.332031 36.300781 21.929688 36.300781 22.667969 L 36.300781 41.933594 C 36.300781 42.667969 36.898438 43.265625 37.636719 43.265625 L 44.289062 43.265625 C 49.886719 43.265625 54.507812 39.050781 55.167969 33.632812 L 61.332031 33.632812 Z M 25.03125 40.597656 L 19.707031 40.597656 C 15.132812 40.597656 11.410156 36.875 11.410156 32.300781 C 11.410156 27.722656 15.132812 24 19.707031 24 L 25.03125 24 Z M 27.699219 22.667969 C 27.699219 21.929688 27.101562 21.332031 26.363281 21.332031 L 19.707031 21.332031 C 14.113281 21.332031 9.492188 25.546875 8.832031 30.964844 L 2.667969 30.964844 L 2.667969 33.632812 L 8.832031 33.632812 C 9.492188 39.050781 14.113281 43.265625 19.707031 43.265625 L 26.363281 43.265625 C 27.101562 43.265625 27.699219 42.667969 27.699219 41.933594 L 27.699219 36.816406 L 33.140625 36.816406 L 33.140625 34.152344 L 27.699219 34.152344 L 27.699219 30.449219 L 33.140625 30.449219 L 33.140625 27.78125 L 27.699219 27.78125 Z M 27.699219 22.667969 "/>
</svg>
