<?xml version="1.0" encoding="UTF-8"?>
<svg xmlns="http://www.w3.org/2000/svg" xmlns:xlink="http://www.w3.org/1999/xlink" width="64" height="64" viewBox="0 0 64 64">
<path fill-rule="evenodd" fill="rgb(47.843137%, 63.137257%, 8.627451%)" fill-opacity="1" d="M 53.863281 25.035156 C 54.394531 25.691406 53.722656 30.246094 51.128906 32.417969 C 50.730469 32.75 50.347656 32.574219 50.527344 32.132812 C 51.109375 30.671875 52.417969 27.40625 51.796875 26.613281 C 51.179688 25.820312 47.707031 26.234375 46.144531 26.421875 C 45.671875 26.480469 45.597656 26.066406 46.027344 25.765625 C 48.796875 23.820312 53.335938 24.382812 53.863281 25.035156 Z M 10.511719 25.390625 C 16.738281 29.015625 24.4375 31.195312 32.390625 31.195312 C 37.757812 31.195312 43.652344 30.082031 49.082031 27.78125 C 49.898438 27.433594 50.585938 28.320312 49.78125 28.910156 C 44.941406 32.484375 37.925781 34.382812 31.882812 34.382812 C 23.414062 34.382812 15.785156 31.253906 10.015625 26.042969 C 9.558594 25.632812 9.964844 25.074219 10.511719 25.390625 Z M 5.332031 43.417969 L 58.519531 43.417969 L 58.519531 14.667969 L 5.332031 14.667969 Z M 4 12 C 3.261719 12 2.664062 12.597656 2.664062 13.332031 L 2.664062 44.75 C 2.664062 45.488281 3.261719 46.082031 4 46.082031 L 30.59375 46.082031 L 30.59375 50.398438 L 23.78125 50.398438 L 23.78125 53.066406 L 40.070312 53.066406 L 40.070312 50.398438 L 33.257812 50.398438 L 33.257812 46.082031 L 59.851562 46.082031 C 60.589844 46.082031 61.183594 45.488281 61.183594 44.75 L 61.183594 13.332031 C 61.183594 12.597656 60.589844 12 59.851562 12 Z M 4 12 "/>
</svg>
