<?xml version="1.0" encoding="UTF-8"?>
<svg xmlns="http://www.w3.org/2000/svg" xmlns:xlink="http://www.w3.org/1999/xlink" width="64" height="64" viewBox="0 0 64 64">
<path fill-rule="evenodd" fill="rgb(47.843137%, 63.137257%, 8.627451%)" fill-opacity="1" d="M 30.40625 41.394531 C 30.40625 40.511719 31.121094 39.792969 32.003906 39.792969 C 32.886719 39.792969 33.605469 40.511719 33.605469 41.394531 C 33.605469 42.277344 32.886719 42.992188 32.003906 42.992188 C 31.121094 42.992188 30.40625 42.277344 30.40625 41.394531 Z M 33.339844 22.617188 L 30.671875 22.617188 L 30.671875 23.628906 L 28.484375 23.628906 L 28.484375 26.296875 L 30.671875 26.296875 L 30.671875 28.324219 L 28.484375 28.324219 L 28.484375 30.992188 L 30.671875 30.992188 L 30.671875 33.019531 L 28.484375 33.019531 L 28.484375 35.6875 L 30.671875 35.6875 L 30.671875 37.359375 C 28.972656 37.925781 27.738281 39.507812 27.738281 41.394531 C 27.738281 43.746094 29.652344 45.660156 32.003906 45.660156 C 34.359375 45.660156 36.273438 43.746094 36.273438 41.394531 C 36.273438 39.507812 35.035156 37.925781 33.339844 37.359375 Z M 16.320312 32.003906 C 16.320312 30.152344 16.660156 28.382812 17.253906 26.730469 L 20.40625 28.164062 L 21.507812 25.734375 L 18.359375 24.304688 C 19.949219 21.5 22.378906 19.238281 25.304688 17.847656 L 26.515625 21.085938 L 29.011719 20.148438 L 27.800781 16.910156 C 29.140625 16.539062 30.546875 16.324219 32.003906 16.324219 C 33.859375 16.324219 35.628906 16.664062 37.277344 17.253906 L 35.847656 20.40625 L 38.273438 21.507812 L 39.703125 18.359375 C 42.511719 19.949219 44.773438 22.378906 46.164062 25.304688 L 42.925781 26.515625 L 43.859375 29.011719 L 47.097656 27.800781 C 47.472656 29.140625 47.6875 30.546875 47.6875 32.003906 C 47.6875 40.652344 40.652344 47.6875 32.003906 47.6875 C 23.355469 47.6875 16.320312 40.652344 16.320312 32.003906 Z M 13.65625 32.003906 C 13.65625 42.121094 21.886719 50.355469 32.003906 50.355469 C 42.121094 50.355469 50.355469 42.121094 50.355469 32.003906 C 50.355469 21.886719 42.121094 13.65625 32.003906 13.65625 C 21.886719 13.65625 13.65625 21.886719 13.65625 32.003906 Z M 52.96875 51.804688 C 52.96875 52.445312 52.441406 52.96875 51.789062 52.96875 L 12.21875 52.96875 C 11.570312 52.96875 11.042969 52.445312 11.042969 51.804688 L 11.042969 12.230469 C 11.042969 11.589844 11.570312 11.066406 12.21875 11.066406 L 51.789062 11.066406 C 52.441406 11.066406 52.96875 11.589844 52.96875 12.230469 Z M 61.34375 19.257812 L 61.34375 16.589844 L 55.636719 16.589844 L 55.636719 12.230469 C 55.636719 10.117188 53.910156 8.398438 51.789062 8.398438 L 47.421875 8.398438 L 47.421875 2.667969 L 44.753906 2.667969 L 44.753906 8.398438 L 40.378906 8.398438 L 40.378906 2.667969 L 37.714844 2.667969 L 37.714844 8.398438 L 33.339844 8.398438 L 33.339844 2.667969 L 30.671875 2.667969 L 30.671875 8.398438 L 26.296875 8.398438 L 26.296875 2.667969 L 23.628906 2.667969 L 23.628906 8.398438 L 19.253906 8.398438 L 19.253906 2.667969 L 16.589844 2.667969 L 16.589844 8.398438 L 12.21875 8.398438 C 10.097656 8.398438 8.375 10.117188 8.375 12.230469 L 8.375 16.589844 L 2.667969 16.589844 L 2.667969 19.257812 L 8.375 19.257812 L 8.375 23.628906 L 2.667969 23.628906 L 2.667969 26.296875 L 8.375 26.296875 L 8.375 30.671875 L 2.667969 30.671875 L 2.667969 33.339844 L 8.375 33.339844 L 8.375 37.714844 L 2.667969 37.714844 L 2.667969 40.378906 L 8.375 40.378906 L 8.375 44.753906 L 2.667969 44.753906 L 2.667969 47.421875 L 8.375 47.421875 L 8.375 51.804688 C 8.375 53.917969 10.097656 55.636719 12.21875 55.636719 L 16.589844 55.636719 L 16.589844 61.34375 L 19.253906 61.34375 L 19.253906 55.636719 L 23.628906 55.636719 L 23.628906 61.34375 L 26.296875 61.34375 L 26.296875 55.636719 L 30.671875 55.636719 L 30.671875 61.34375 L 33.339844 61.34375 L 33.339844 55.636719 L 37.714844 55.636719 L 37.714844 61.34375 L 40.378906 61.34375 L 40.378906 55.636719 L 44.753906 55.636719 L 44.753906 61.34375 L 47.421875 61.34375 L 47.421875 55.636719 L 51.789062 55.636719 C 53.910156 55.636719 55.636719 53.917969 55.636719 51.804688 L 55.636719 47.421875 L 61.34375 47.421875 L 61.34375 44.753906 L 55.636719 44.753906 L 55.636719 40.378906 L 61.34375 40.378906 L 61.34375 37.714844 L 55.636719 37.714844 L 55.636719 33.339844 L 61.34375 33.339844 L 61.34375 30.671875 L 55.636719 30.671875 L 55.636719 26.296875 L 61.34375 26.296875 L 61.34375 23.628906 L 55.636719 23.628906 L 55.636719 19.257812 Z M 61.34375 19.257812 "/>
</svg>
