<?xml version="1.0" encoding="UTF-8"?>
<svg xmlns="http://www.w3.org/2000/svg" xmlns:xlink="http://www.w3.org/1999/xlink" width="64" height="64" viewBox="0 0 64 64">
<path fill-rule="evenodd" fill="rgb(47.843137%, 63.137257%, 8.627451%)" fill-opacity="1" d="M 48 2.667969 L 48 9.332031 L 26.667969 9.332031 L 26.667969 18.667969 L 29.332031 18.667969 L 29.332031 12 L 48 12 L 48 16 L 61.332031 16 L 61.332031 2.667969 Z M 50.667969 13.332031 L 58.667969 13.332031 L 58.667969 5.332031 L 50.667969 5.332031 Z M 13.332031 21.332031 L 13.332031 24 L 34.667969 24 L 34.667969 50.667969 L 37.332031 50.667969 L 37.332031 21.332031 Z M 9.332031 24 L 12 24 L 12 21.332031 L 9.332031 21.332031 Z M 5.332031 24 L 8 24 L 8 21.332031 L 5.332031 21.332031 Z M 50.667969 37.332031 L 61.332031 37.332031 L 61.332031 26.667969 L 50.667969 26.667969 Z M 53.332031 34.667969 L 58.667969 34.667969 L 58.667969 29.332031 L 53.332031 29.332031 Z M 29.332031 61.332031 L 32 61.332031 L 32 28 L 29.332031 28 Z M 40 30.667969 L 40 61.332031 L 42.664062 61.332031 L 42.664062 33.332031 L 49.332031 33.332031 L 49.332031 30.667969 Z M 2.667969 46.667969 L 16 46.667969 L 16 33.332031 L 2.667969 33.332031 Z M 5.332031 44 L 13.332031 44 L 13.332031 36 L 5.332031 36 Z M 18.664062 38.667969 L 18.664062 41.332031 L 24 41.332031 L 24 61.332031 L 26.667969 61.332031 L 26.667969 38.667969 Z M 34.667969 61.332031 L 37.332031 61.332031 L 37.332031 53.332031 L 34.667969 53.332031 Z M 34.667969 61.332031 "/>
</svg>
