<?xml version="1.0" encoding="UTF-8"?>
<svg xmlns="http://www.w3.org/2000/svg" xmlns:xlink="http://www.w3.org/1999/xlink" width="64" height="64" viewBox="0 0 64 64">
<path fill-rule="evenodd" fill="rgb(47.843137%, 63.137257%, 8.627451%)" fill-opacity="1" d="M 35.644531 48.632812 C 41.605469 44.835938 45.488281 38.554688 45.488281 31.910156 C 45.488281 24.179688 39.199219 17.890625 31.464844 17.890625 C 23.734375 17.890625 17.441406 24.179688 17.441406 31.910156 C 17.441406 37.550781 20.804688 42.617188 26.003906 44.828125 C 26.738281 45.136719 27.214844 45.832031 27.214844 46.597656 L 27.214844 48.625 C 26.371094 48.410156 25.539062 48.164062 24.734375 47.820312 C 18.328125 45.097656 14.191406 38.851562 14.191406 31.910156 C 14.191406 22.386719 21.941406 14.636719 31.464844 14.636719 C 40.988281 14.636719 48.738281 22.386719 48.738281 31.910156 C 48.738281 38.1875 45.3125 43.988281 39.792969 47.042969 C 38.488281 47.761719 37.085938 48.28125 35.644531 48.632812 Z M 20.109375 31.910156 C 20.109375 25.648438 25.203125 20.554688 31.464844 20.554688 C 37.726562 20.554688 42.820312 25.648438 42.820312 31.910156 C 42.820312 39.109375 37.472656 45.847656 29.878906 48.488281 L 29.878906 46.597656 C 29.878906 44.761719 28.765625 43.101562 27.046875 42.371094 C 22.832031 40.582031 20.109375 36.476562 20.109375 31.910156 Z M 11.523438 31.910156 C 11.523438 39.925781 16.300781 47.132812 23.691406 50.273438 C 25.191406 50.910156 26.753906 51.332031 28.347656 51.585938 C 28.414062 51.59375 28.480469 51.617188 28.546875 51.617188 C 28.550781 51.617188 28.554688 51.617188 28.558594 51.617188 C 29.515625 51.757812 30.484375 51.851562 31.464844 51.851562 C 34.828125 51.851562 38.152344 50.996094 41.085938 49.375 C 47.449219 45.851562 51.40625 39.160156 51.40625 31.910156 C 51.40625 20.914062 42.460938 11.96875 31.464844 11.96875 C 20.46875 11.96875 11.523438 20.914062 11.523438 31.910156 Z M 58.492188 52.558594 C 58.492188 55.832031 55.832031 58.492188 52.5625 58.492188 L 11.265625 58.492188 C 7.992188 58.492188 5.332031 55.832031 5.332031 52.558594 L 5.332031 11.265625 C 5.332031 7.992188 7.992188 5.332031 11.265625 5.332031 L 52.5625 5.332031 C 55.832031 5.332031 58.492188 7.992188 58.492188 11.265625 Z M 11.265625 2.667969 C 6.523438 2.667969 2.667969 6.523438 2.667969 11.265625 L 2.667969 52.558594 C 2.667969 57.300781 6.523438 61.15625 11.265625 61.15625 L 52.5625 61.15625 C 57.300781 61.15625 61.15625 57.300781 61.15625 52.558594 L 61.15625 11.265625 C 61.15625 6.523438 57.300781 2.667969 52.5625 2.667969 Z M 11.265625 2.667969 "/>
</svg>
