<?xml version="1.0" encoding="UTF-8"?>
<svg xmlns="http://www.w3.org/2000/svg" xmlns:xlink="http://www.w3.org/1999/xlink" width="64" height="64" viewBox="0 0 64 64">
<path fill-rule="evenodd" fill="rgb(47.843137%, 63.137257%, 8.627451%)" fill-opacity="1" d="M 40.152344 29.332031 C 38.34375 29.332031 36.871094 27.859375 36.871094 26.050781 C 36.871094 24.082031 38.761719 21.207031 40.152344 19.421875 C 41.546875 21.207031 43.4375 24.082031 43.4375 26.050781 C 43.4375 27.859375 41.960938 29.332031 40.152344 29.332031 Z M 39.164062 16.441406 C 38.65625 17.003906 34.207031 22.066406 34.207031 26.050781 C 34.207031 29.332031 36.875 32 40.152344 32 C 43.433594 32 46.101562 29.332031 46.101562 26.050781 C 46.101562 22.066406 41.652344 17.003906 41.144531 16.441406 C 40.636719 15.878906 39.667969 15.878906 39.164062 16.441406 Z M 21.898438 30.664062 C 20.851562 30.664062 20 29.816406 20 28.769531 C 20 27.707031 20.949219 26.078125 21.894531 24.789062 C 22.804688 26.03125 23.792969 27.691406 23.792969 28.769531 C 23.792969 29.816406 22.941406 30.664062 21.898438 30.664062 Z M 26.460938 28.769531 C 26.460938 25.828125 23.253906 22.179688 22.886719 21.773438 C 22.382812 21.210938 21.410156 21.210938 20.90625 21.773438 C 20.539062 22.179688 17.332031 25.828125 17.332031 28.769531 C 17.332031 31.285156 19.378906 33.332031 21.898438 33.332031 C 24.414062 33.332031 26.460938 31.285156 26.460938 28.769531 Z M 31.332031 45.332031 C 28.761719 45.332031 26.667969 43.238281 26.667969 40.664062 C 26.667969 37.84375 29.476562 33.726562 31.332031 31.402344 C 33.1875 33.726562 36 37.84375 36 40.664062 C 36 43.238281 33.90625 45.332031 31.332031 45.332031 Z M 30.34375 28.441406 C 30.082031 28.730469 24 35.546875 24 40.664062 C 24 44.710938 27.289062 48 31.332031 48 C 35.375 48 38.667969 44.710938 38.667969 40.664062 C 38.667969 35.546875 32.582031 28.730469 32.324219 28.441406 C 31.820312 27.878906 30.847656 27.878906 30.34375 28.441406 Z M 52 50.488281 C 52 51.320312 51.320312 52 50.488281 52 L 13.511719 52 C 12.679688 52 12 51.320312 12 50.488281 L 12 13.511719 C 12 12.679688 12.679688 12 13.511719 12 L 50.488281 12 C 51.320312 12 52 12.679688 52 13.511719 Z M 61.332031 20 L 61.332031 17.332031 L 54.667969 17.332031 L 54.667969 13.511719 C 54.667969 11.207031 52.792969 9.332031 50.488281 9.332031 L 46.667969 9.332031 L 46.667969 2.664062 L 44 2.664062 L 44 9.332031 L 40 9.332031 L 40 2.664062 L 37.332031 2.664062 L 37.332031 9.332031 L 33.332031 9.332031 L 33.332031 2.664062 L 30.667969 2.664062 L 30.667969 9.332031 L 26.667969 9.332031 L 26.667969 2.664062 L 24 2.664062 L 24 9.332031 L 20 9.332031 L 20 2.664062 L 17.332031 2.664062 L 17.332031 9.332031 L 13.511719 9.332031 C 11.207031 9.332031 9.332031 11.207031 9.332031 13.511719 L 9.332031 17.332031 L 2.667969 17.332031 L 2.667969 20 L 9.332031 20 L 9.332031 24 L 2.667969 24 L 2.667969 26.664062 L 9.332031 26.664062 L 9.332031 30.664062 L 2.667969 30.664062 L 2.667969 33.332031 L 9.332031 33.332031 L 9.332031 37.332031 L 2.667969 37.332031 L 2.667969 40 L 9.332031 40 L 9.332031 44 L 2.667969 44 L 2.667969 46.664062 L 9.332031 46.664062 L 9.332031 50.488281 C 9.332031 52.792969 11.207031 54.664062 13.511719 54.664062 L 17.332031 54.664062 L 17.332031 61.332031 L 20 61.332031 L 20 54.664062 L 24 54.664062 L 24 61.332031 L 26.667969 61.332031 L 26.667969 54.664062 L 30.667969 54.664062 L 30.667969 61.332031 L 33.332031 61.332031 L 33.332031 54.664062 L 37.332031 54.664062 L 37.332031 61.332031 L 40 61.332031 L 40 54.664062 L 44 54.664062 L 44 61.332031 L 46.667969 61.332031 L 46.667969 54.664062 L 50.488281 54.664062 C 52.792969 54.664062 54.667969 52.792969 54.667969 50.488281 L 54.667969 46.664062 L 61.332031 46.664062 L 61.332031 44 L 54.667969 44 L 54.667969 40 L 61.332031 40 L 61.332031 37.332031 L 54.667969 37.332031 L 54.667969 33.332031 L 61.332031 33.332031 L 61.332031 30.664062 L 54.667969 30.664062 L 54.667969 26.664062 L 61.332031 26.664062 L 61.332031 24 L 54.667969 24 L 54.667969 20 Z M 61.332031 20 "/>
</svg>
