<?xml version="1.0" encoding="UTF-8"?>
<svg xmlns="http://www.w3.org/2000/svg" xmlns:xlink="http://www.w3.org/1999/xlink" width="64" height="64" viewBox="0 0 64 64">
<path fill-rule="evenodd" fill="rgb(47.843137%, 63.137257%, 8.627451%)" fill-opacity="1" d="M 8 53.941406 L 46.515625 53.941406 L 46.515625 2.667969 L 8 2.667969 Z M 10.667969 51.277344 L 43.851562 51.277344 L 43.851562 5.332031 L 10.667969 5.332031 Z M 48.867188 7.410156 L 48.867188 10.074219 L 52.441406 10.074219 L 52.441406 58.667969 L 16.746094 58.667969 L 16.746094 56.238281 L 14.078125 56.238281 L 14.078125 61.332031 L 55.105469 61.332031 L 55.105469 7.410156 Z M 37.566406 13.566406 L 40.738281 13.566406 L 40.738281 10.902344 L 37.566406 10.902344 Z M 13.667969 13.566406 L 35.449219 13.566406 L 35.449219 10.902344 L 13.667969 10.902344 Z M 25.777344 21.628906 L 40.742188 21.628906 L 40.742188 18.964844 L 25.777344 18.964844 Z M 18.773438 21.628906 L 23.910156 21.628906 L 23.910156 18.964844 L 18.773438 18.964844 Z M 13.667969 21.628906 L 16.355469 21.628906 L 16.355469 18.964844 L 13.667969 18.964844 Z M 24.464844 29.691406 L 40.742188 29.691406 L 40.742188 27.023438 L 24.464844 27.023438 Z M 13.667969 29.691406 L 22.449219 29.691406 L 22.449219 27.023438 L 13.667969 27.023438 Z M 13.667969 37.753906 L 40.742188 37.753906 L 40.742188 35.085938 L 13.667969 35.085938 Z M 35.902344 45.714844 L 40.742188 45.714844 L 40.742188 43.046875 L 35.902344 43.046875 Z M 13.667969 45.714844 L 33.285156 45.714844 L 33.285156 43.046875 L 13.667969 43.046875 Z M 13.667969 45.714844 "/>
</svg>
