<?xml version="1.0" encoding="UTF-8"?>
<svg xmlns="http://www.w3.org/2000/svg" xmlns:xlink="http://www.w3.org/1999/xlink" width="64" height="64" viewBox="0 0 64 64">
<path fill-rule="evenodd" fill="rgb(47.843137%, 63.137257%, 8.627451%)" fill-opacity="1" d="M 23.507812 53.332031 L 30.175781 53.332031 L 30.175781 50.667969 L 23.507812 50.667969 Z M 18.175781 53.332031 L 20.84375 53.332031 L 20.84375 50.667969 L 18.175781 50.667969 Z M 23.507812 40 L 30.175781 40 L 30.175781 37.332031 L 23.507812 37.332031 Z M 18.175781 40 L 20.84375 40 L 20.84375 37.332031 L 18.175781 37.332031 Z M 23.507812 25.332031 L 30.175781 25.332031 L 30.175781 22.667969 L 23.507812 22.667969 Z M 18.175781 25.332031 L 20.84375 25.332031 L 20.84375 22.667969 L 18.175781 22.667969 Z M 14.667969 25.613281 L 14.667969 15.371094 C 17.835938 17.691406 23.628906 19.089844 31.019531 19.089844 C 37.832031 19.089844 44.703125 17.761719 48.351562 15.1875 L 48.351562 25.613281 C 48.351562 28.238281 41.234375 31.15625 31.019531 31.15625 C 20.917969 31.15625 14.667969 28.28125 14.667969 25.613281 Z M 14.667969 39.40625 L 14.667969 30.105469 C 17.835938 32.425781 23.628906 33.824219 31.019531 33.824219 C 37.660156 33.824219 44.652344 32.601562 48.351562 29.992188 L 48.351562 39.40625 C 48.351562 42.011719 41.234375 44.914062 31.019531 44.914062 C 20.78125 44.914062 14.667969 42.113281 14.667969 39.40625 Z M 14.667969 53.125 L 14.667969 43.875 C 17.835938 46.1875 23.628906 47.578125 31.019531 47.578125 C 37.660156 47.578125 44.652344 46.363281 48.351562 43.765625 L 48.351562 53.125 C 48.351562 55.746094 41.234375 58.667969 31.019531 58.667969 C 20.78125 58.667969 14.667969 55.847656 14.667969 53.125 Z M 48.351562 10.878906 C 48.351562 13.5 41.234375 16.421875 31.019531 16.421875 C 20.917969 16.421875 14.667969 13.542969 14.667969 10.878906 C 14.667969 8.210938 20.917969 5.332031 31.019531 5.332031 C 41.234375 5.332031 48.351562 8.253906 48.351562 10.878906 Z M 12 10.878906 L 12 53.125 C 12 58.035156 19.644531 61.332031 31.019531 61.332031 C 40.652344 61.332031 51.019531 58.765625 51.019531 53.125 L 51.019531 10.878906 C 51.019531 5.488281 40.957031 2.667969 31.019531 2.667969 C 19.644531 2.667969 12 5.964844 12 10.878906 Z M 12 10.878906 "/>
</svg>
