<?xml version="1.0" encoding="UTF-8"?>
<svg xmlns="http://www.w3.org/2000/svg" xmlns:xlink="http://www.w3.org/1999/xlink" width="64" height="64" viewBox="0 0 64 64">
<path fill-rule="evenodd" fill="rgb(47.843137%, 63.137257%, 8.627451%)" fill-opacity="1" d="M 35.097656 25.074219 C 35.097656 24.6875 34.785156 24.371094 34.398438 24.371094 C 34.011719 24.371094 33.703125 24.6875 33.703125 25.074219 C 33.703125 25.457031 34.011719 25.769531 34.398438 25.769531 C 34.785156 25.769531 35.097656 25.457031 35.097656 25.074219 Z M 29.023438 19.25 C 29.023438 19.636719 29.335938 19.949219 29.722656 19.949219 C 30.105469 19.949219 30.421875 19.636719 30.421875 19.25 C 30.421875 18.863281 30.105469 18.550781 29.722656 18.550781 C 29.335938 18.550781 29.023438 18.863281 29.023438 19.25 Z M 24.679688 14.875 L 24.679688 23.738281 L 31.3125 23.738281 C 31.828125 22.542969 33.019531 21.707031 34.398438 21.707031 C 36.253906 21.707031 37.765625 23.214844 37.765625 25.074219 C 37.765625 26.925781 36.253906 28.4375 34.398438 28.4375 C 33.019531 28.4375 31.828125 27.597656 31.3125 26.40625 L 24.679688 26.40625 L 24.679688 29.621094 L 39.425781 29.621094 L 39.425781 20.582031 L 32.808594 20.582031 C 32.289062 21.777344 31.101562 22.613281 29.722656 22.613281 C 27.867188 22.613281 26.359375 21.105469 26.359375 19.25 C 26.359375 17.394531 27.867188 15.886719 29.722656 15.886719 C 31.101562 15.886719 32.289062 16.722656 32.808594 17.917969 L 39.425781 17.917969 L 39.425781 14.875 Z M 40.757812 12.210938 C 41.496094 12.210938 42.09375 12.804688 42.09375 13.542969 L 42.09375 30.953125 C 42.09375 31.691406 41.496094 32.289062 40.757812 32.289062 L 23.34375 32.289062 C 22.609375 32.289062 22.011719 31.691406 22.011719 30.953125 L 22.011719 13.542969 C 22.011719 12.804688 22.609375 12.210938 23.34375 12.210938 Z M 27.289062 45.949219 C 27.289062 46.652344 27.867188 47.226562 28.570312 47.226562 C 29.273438 47.226562 29.847656 46.652344 29.847656 45.949219 C 29.847656 45.242188 29.273438 44.667969 28.570312 44.667969 C 27.867188 44.667969 27.289062 45.242188 27.289062 45.949219 Z M 36.8125 54.074219 C 36.8125 53.371094 36.238281 52.796875 35.535156 52.796875 C 34.828125 52.796875 34.257812 53.371094 34.257812 54.074219 C 34.257812 54.777344 34.828125 55.351562 35.535156 55.351562 C 36.238281 55.351562 36.8125 54.777344 36.8125 54.074219 Z M 40.585938 58.542969 L 40.585938 47.332031 L 32.25 47.332031 C 31.6875 48.824219 30.257812 49.894531 28.570312 49.894531 C 26.394531 49.894531 24.625 48.125 24.625 45.949219 C 24.625 43.773438 26.394531 42.003906 28.570312 42.003906 C 30.292969 42.003906 31.746094 43.121094 32.28125 44.664062 L 40.585938 44.664062 L 40.585938 41.476562 L 23.519531 41.476562 L 23.519531 52.691406 L 31.851562 52.691406 C 32.417969 51.199219 33.847656 50.128906 35.535156 50.128906 C 37.710938 50.128906 39.480469 51.898438 39.480469 54.074219 C 39.480469 56.25 37.710938 58.019531 35.535156 58.019531 C 33.808594 58.019531 32.355469 56.902344 31.820312 55.355469 L 23.519531 55.355469 L 23.519531 58.542969 Z M 43.253906 59.878906 C 43.253906 60.613281 42.65625 61.210938 41.917969 61.210938 L 22.1875 61.210938 C 21.449219 61.210938 20.851562 60.613281 20.851562 59.878906 L 20.851562 40.144531 C 20.851562 39.410156 21.449219 38.8125 22.1875 38.8125 L 41.917969 38.8125 C 42.65625 38.8125 43.253906 39.410156 43.253906 40.144531 Z M 49.140625 36.832031 L 17.097656 36.800781 C 11.59375 36.800781 7.023438 32.660156 6.695312 27.378906 C 6.679688 27.109375 6.667969 26.839844 6.667969 26.574219 C 6.667969 21.980469 9.144531 18.46875 13.355469 16.992188 C 13.34375 16.800781 13.339844 16.605469 13.339844 16.417969 C 13.339844 11.199219 16.878906 5.785156 21.566406 3.824219 C 27.035156 1.539062 32.832031 2.683594 37.078125 6.878906 C 37.8125 7.601562 38.464844 8.414062 39.019531 9.285156 L 36.765625 10.710938 C 36.320312 10.011719 35.796875 9.359375 35.203125 8.78125 C 33.542969 7.136719 29 3.605469 22.59375 6.285156 C 18.902344 7.828125 16.007812 12.28125 16.007812 16.417969 C 16.007812 16.886719 16.039062 17.359375 16.09375 17.808594 C 16.167969 18.472656 15.742188 19.089844 15.09375 19.253906 C 12.941406 19.796875 9.332031 21.464844 9.332031 26.574219 C 9.332031 26.796875 9.34375 27.019531 9.355469 27.226562 C 9.597656 31.09375 13 34.132812 17.101562 34.132812 L 49.035156 34.167969 C 49.207031 34.148438 55.929688 33.480469 55.929688 26.65625 C 55.929688 20.921875 51.109375 19.46875 49.039062 19.113281 C 48.351562 18.992188 47.875 18.363281 47.9375 17.675781 C 47.660156 14.21875 45.78125 12.800781 44.101562 12.625 L 44.378906 9.972656 C 46.871094 10.230469 49.863281 12.160156 50.511719 16.703125 C 54.589844 17.738281 58.597656 20.804688 58.597656 26.65625 C 58.597656 34.101562 52.414062 36.570312 49.140625 36.832031 Z M 49.140625 36.832031 "/>
</svg>
