<?xml version="1.0" encoding="UTF-8"?>
<svg xmlns="http://www.w3.org/2000/svg" xmlns:xlink="http://www.w3.org/1999/xlink" width="64" height="64" viewBox="0 0 64 64">
<path fill-rule="evenodd" fill="rgb(47.843137%, 63.137257%, 8.627451%)" fill-opacity="1" d="M 32.785156 29.765625 C 32.742188 28.882812 33.425781 28.128906 34.3125 28.085938 C 34.339844 28.085938 34.363281 28.085938 34.390625 28.085938 C 34.789062 28.085938 35.167969 28.230469 35.464844 28.5 C 35.78125 28.789062 35.96875 29.183594 35.988281 29.613281 C 36.007812 30.039062 35.859375 30.449219 35.570312 30.769531 C 35.285156 31.085938 34.890625 31.269531 34.460938 31.289062 C 33.625 31.324219 32.828125 30.648438 32.785156 29.765625 Z M 37.390625 26.675781 L 43.800781 13.835938 L 41.417969 12.644531 L 35.011719 25.46875 C 34.738281 25.429688 34.460938 25.410156 34.183594 25.421875 C 33.046875 25.476562 31.996094 25.96875 31.226562 26.816406 C 30.816406 27.265625 30.523438 27.792969 30.339844 28.355469 L 15.589844 28.355469 L 15.589844 31.019531 L 30.347656 31.019531 C 30.574219 31.714844 30.960938 32.34375 31.511719 32.847656 C 32.308594 33.570312 33.316406 33.957031 34.382812 33.957031 C 34.449219 33.957031 34.519531 33.957031 34.589844 33.953125 C 34.886719 33.941406 35.175781 33.890625 35.457031 33.820312 L 45.355469 43.71875 L 47.242188 41.832031 L 37.726562 32.320312 C 38.363281 31.511719 38.699219 30.523438 38.652344 29.488281 C 38.601562 28.410156 38.148438 27.425781 37.390625 26.675781 Z M 35.707031 35.570312 L 35.71875 50.835938 L 33.054688 50.835938 L 33.039062 35.574219 Z M 53.023438 51.511719 C 53.023438 52.347656 52.34375 53.027344 51.511719 53.027344 L 12.5625 53.027344 C 11.730469 53.027344 11.050781 52.347656 11.050781 51.511719 L 11.050781 12.582031 C 11.050781 11.746094 11.730469 11.066406 12.5625 11.066406 L 51.511719 11.066406 C 52.34375 11.066406 53.023438 11.746094 53.023438 12.582031 Z M 61.40625 19.273438 L 61.40625 16.605469 L 55.6875 16.605469 L 55.6875 12.582031 C 55.6875 10.277344 53.816406 8.402344 51.511719 8.402344 L 47.46875 8.402344 L 47.46875 2.667969 L 44.800781 2.667969 L 44.800781 8.402344 L 40.417969 8.402344 L 40.417969 2.667969 L 37.753906 2.667969 L 37.753906 8.402344 L 33.371094 8.402344 L 33.371094 2.667969 L 30.703125 2.667969 L 30.703125 8.402344 L 26.320312 8.402344 L 26.320312 2.667969 L 23.65625 2.667969 L 23.65625 8.402344 L 19.273438 8.402344 L 19.273438 2.667969 L 16.605469 2.667969 L 16.605469 8.402344 L 12.5625 8.402344 C 10.257812 8.402344 8.382812 10.277344 8.382812 12.582031 L 8.382812 16.605469 L 2.667969 16.605469 L 2.667969 19.273438 L 8.382812 19.273438 L 8.382812 23.65625 L 2.667969 23.65625 L 2.667969 26.324219 L 8.382812 26.324219 L 8.382812 30.703125 L 2.667969 30.703125 L 2.667969 33.371094 L 8.382812 33.371094 L 8.382812 37.753906 L 2.667969 37.753906 L 2.667969 40.421875 L 8.382812 40.421875 L 8.382812 44.800781 L 2.667969 44.800781 L 2.667969 47.46875 L 8.382812 47.46875 L 8.382812 51.511719 C 8.382812 53.820312 10.257812 55.691406 12.5625 55.691406 L 16.605469 55.691406 L 16.605469 61.40625 L 19.273438 61.40625 L 19.273438 55.691406 L 23.65625 55.691406 L 23.65625 61.40625 L 26.320312 61.40625 L 26.320312 55.691406 L 30.703125 55.691406 L 30.703125 61.40625 L 33.371094 61.40625 L 33.371094 55.691406 L 37.753906 55.691406 L 37.753906 61.40625 L 40.417969 61.40625 L 40.417969 55.691406 L 44.800781 55.691406 L 44.800781 61.40625 L 47.46875 61.40625 L 47.46875 55.691406 L 51.511719 55.691406 C 53.816406 55.691406 55.6875 53.820312 55.6875 51.511719 L 55.6875 47.46875 L 61.40625 47.46875 L 61.40625 44.800781 L 55.6875 44.800781 L 55.6875 40.421875 L 61.40625 40.421875 L 61.40625 37.753906 L 55.6875 37.753906 L 55.6875 33.371094 L 61.40625 33.371094 L 61.40625 30.703125 L 55.6875 30.703125 L 55.6875 26.324219 L 61.40625 26.324219 L 61.40625 23.65625 L 55.6875 23.65625 L 55.6875 19.273438 Z M 61.40625 19.273438 "/>
</svg>
