<?xml version="1.0" encoding="UTF-8"?>
<svg xmlns="http://www.w3.org/2000/svg" xmlns:xlink="http://www.w3.org/1999/xlink" width="64" height="64" viewBox="0 0 64 64">
<path fill-rule="evenodd" fill="rgb(47.843137%, 63.137257%, 8.627451%)" fill-opacity="1" d="M 47.429688 53.9375 L 50.5625 53.9375 L 50.5625 50.804688 L 47.429688 50.804688 Z M 44.765625 49.472656 C 44.765625 48.734375 45.359375 48.140625 46.097656 48.140625 L 51.894531 48.140625 C 52.632812 48.140625 53.230469 48.734375 53.230469 49.472656 L 53.230469 55.269531 C 53.230469 56.007812 52.632812 56.605469 51.894531 56.605469 L 46.097656 56.605469 C 45.359375 56.605469 44.765625 56.007812 44.765625 55.269531 Z M 30.183594 53.851562 L 34.179688 53.851562 L 32.179688 51.144531 Z M 26.46875 54.394531 L 31.109375 48.105469 C 31.609375 47.421875 32.75 47.421875 33.253906 48.105469 L 37.894531 54.394531 C 38.191406 54.800781 38.238281 55.339844 38.011719 55.789062 C 37.785156 56.234375 37.324219 56.519531 36.820312 56.519531 L 27.542969 56.519531 C 27.039062 56.519531 26.578125 56.234375 26.351562 55.789062 C 26.125 55.339844 26.171875 54.800781 26.46875 54.394531 Z M 15.363281 54.144531 C 16.386719 54.144531 17.222656 53.3125 17.222656 52.289062 C 17.222656 51.265625 16.386719 50.429688 15.363281 50.429688 C 14.339844 50.429688 13.507812 51.265625 13.507812 52.289062 C 13.507812 53.3125 14.339844 54.144531 15.363281 54.144531 Z M 15.363281 47.765625 C 17.859375 47.765625 19.886719 49.792969 19.886719 52.289062 C 19.886719 54.78125 17.859375 56.808594 15.363281 56.808594 C 12.871094 56.808594 10.84375 54.78125 10.84375 52.289062 C 10.84375 49.792969 12.871094 47.765625 15.363281 47.765625 Z M 8 58.578125 L 56.363281 58.578125 L 56.363281 46.167969 L 8 46.167969 Z M 59.027344 59.910156 C 59.027344 60.648438 58.433594 61.242188 57.695312 61.242188 L 6.667969 61.242188 C 5.929688 61.242188 5.332031 60.648438 5.332031 59.910156 L 5.332031 44.832031 C 5.332031 44.097656 5.929688 43.5 6.667969 43.5 L 57.695312 43.5 C 58.433594 43.5 59.027344 44.097656 59.027344 44.832031 Z M 34.90625 23.875 C 34.90625 22.371094 33.683594 21.148438 32.179688 21.148438 C 30.679688 21.148438 29.457031 22.371094 29.457031 23.875 C 29.457031 25.378906 30.679688 26.601562 32.179688 26.601562 C 33.683594 26.601562 34.90625 25.378906 34.90625 23.875 Z M 30.847656 38.050781 L 30.847656 29.078125 C 28.523438 28.480469 26.789062 26.382812 26.789062 23.875 C 26.789062 20.902344 29.207031 18.480469 32.179688 18.480469 C 35.152344 18.480469 37.574219 20.902344 37.574219 23.875 C 37.574219 26.382812 35.839844 28.480469 33.515625 29.078125 L 33.515625 38.050781 L 35.878906 35.6875 L 37.761719 37.574219 L 33.125 42.210938 C 32.863281 42.472656 32.523438 42.601562 32.179688 42.601562 C 31.839844 42.601562 31.5 42.472656 31.238281 42.210938 L 26.597656 37.574219 L 28.484375 35.6875 Z M 6.238281 26.550781 C 6.238281 21.964844 8.710938 18.457031 12.917969 16.980469 C 12.910156 16.785156 12.90625 16.59375 12.90625 16.40625 C 12.90625 11.191406 16.4375 5.78125 21.125 3.820312 C 26.589844 1.539062 32.382812 2.679688 36.621094 6.875 C 37.816406 8.050781 38.816406 9.46875 39.605469 11.097656 C 41.183594 9.992188 43.152344 9.636719 45.039062 10.191406 C 47.730469 10.988281 49.558594 13.382812 50.042969 16.6875 C 54.117188 17.722656 58.125 20.785156 58.125 26.632812 C 58.125 34.074219 51.941406 36.539062 48.675781 36.800781 L 40.296875 36.792969 L 40.300781 34.125 L 48.570312 34.136719 C 48.742188 34.117188 55.457031 33.453125 55.457031 26.632812 C 55.457031 20.90625 50.640625 19.457031 48.574219 19.097656 C 47.882812 18.980469 47.40625 18.351562 47.46875 17.660156 C 47.261719 15.109375 46.078125 13.277344 44.285156 12.75 C 42.808594 12.308594 41.21875 12.867188 40.222656 14.160156 C 39.984375 14.511719 39.582031 14.742188 39.128906 14.742188 C 38.511719 14.742188 37.996094 14.328125 37.839844 13.765625 C 37.109375 11.757812 36.070312 10.078125 34.746094 8.773438 C 33.089844 7.132812 28.542969 3.609375 22.152344 6.28125 C 18.464844 7.824219 15.574219 12.273438 15.574219 16.40625 C 15.574219 16.875 15.605469 17.347656 15.65625 17.796875 C 15.734375 18.460938 15.304688 19.078125 14.65625 19.242188 C 12.507812 19.78125 8.90625 21.453125 8.90625 26.550781 C 8.90625 26.773438 8.914062 26.992188 8.925781 27.203125 C 9.167969 31.066406 12.566406 34.101562 16.664062 34.101562 L 24.066406 34.113281 L 24.058594 36.78125 L 16.660156 36.769531 C 11.160156 36.769531 6.59375 32.632812 6.265625 27.355469 C 6.25 27.085938 6.238281 26.820312 6.238281 26.550781 Z M 6.238281 26.550781 "/>
</svg>
