<?xml version="1.0" encoding="UTF-8"?>
<svg xmlns="http://www.w3.org/2000/svg" xmlns:xlink="http://www.w3.org/1999/xlink" width="64" height="64" viewBox="0 0 64 64">
<path fill-rule="evenodd" fill="rgb(47.843137%, 63.137257%, 8.627451%)" fill-opacity="1" d="M 5.332031 32 C 5.332031 30.53125 6.53125 29.332031 8 29.332031 C 9.46875 29.332031 10.667969 30.53125 10.667969 32 C 10.667969 33.46875 9.46875 34.667969 8 34.667969 C 6.53125 34.667969 5.332031 33.46875 5.332031 32 Z M 32 5.332031 C 33.46875 5.332031 34.667969 6.53125 34.667969 8 C 34.667969 9.46875 33.46875 10.667969 32 10.667969 C 30.53125 10.667969 29.332031 9.46875 29.332031 8 C 29.332031 6.53125 30.53125 5.332031 32 5.332031 Z M 14.613281 47.375 C 12.046875 44.449219 10.25 40.902344 9.414062 37.117188 C 11.664062 36.496094 13.332031 34.449219 13.332031 32 C 13.332031 29.570312 11.691406 27.542969 9.46875 26.898438 C 11.472656 18.347656 18.34375 11.527344 26.941406 9.605469 C 27.628906 11.757812 29.621094 13.332031 32 13.332031 C 34.375 13.332031 36.367188 11.765625 37.054688 9.617188 C 39.457031 10.15625 41.746094 11.058594 43.875 12.339844 L 45.25 10.054688 C 42.753906 8.550781 40.054688 7.523438 37.226562 6.9375 C 36.734375 4.503906 34.578125 2.667969 32 2.667969 C 29.429688 2.667969 27.277344 4.496094 26.777344 6.917969 C 16.816406 8.96875 8.863281 16.90625 6.761719 26.828125 C 4.417969 27.386719 2.667969 29.488281 2.667969 32 C 2.667969 34.488281 4.386719 36.566406 6.695312 37.152344 C 7.585938 41.644531 9.691406 45.851562 12.75 49.285156 L 9.355469 49.230469 L 9.3125 51.898438 L 15.878906 52 L 15.898438 52 C 16.246094 52 16.578125 51.867188 16.828125 51.625 C 17.082031 51.378906 17.226562 51.039062 17.230469 50.6875 L 17.332031 44.019531 L 14.667969 43.980469 Z M 56 34.667969 C 54.53125 34.667969 53.332031 33.46875 53.332031 32 C 53.332031 30.53125 54.53125 29.332031 56 29.332031 C 57.46875 29.332031 58.667969 30.53125 58.667969 32 C 58.667969 33.46875 57.46875 34.667969 56 34.667969 Z M 32 58.667969 C 30.53125 58.667969 29.332031 57.46875 29.332031 56 C 29.332031 54.53125 30.53125 53.332031 32 53.332031 C 33.46875 53.332031 34.667969 54.53125 34.667969 56 C 34.667969 57.46875 33.46875 58.667969 32 58.667969 Z M 61.332031 32 C 61.332031 29.460938 59.546875 27.335938 57.164062 26.804688 C 56.210938 22.277344 54.078125 18.136719 50.933594 14.722656 L 54.6875 14.667969 L 54.644531 12 L 47.980469 12.101562 C 47.625 12.109375 47.289062 12.253906 47.042969 12.507812 C 46.796875 12.761719 46.660156 13.101562 46.667969 13.457031 L 46.769531 20.019531 L 49.433594 19.980469 L 49.386719 16.976562 C 51.886719 19.835938 53.613281 23.230469 54.464844 26.917969 C 52.273438 27.582031 50.667969 29.597656 50.667969 32 C 50.667969 34.425781 52.304688 36.457031 54.527344 37.101562 C 52.625 45.738281 45.804688 52.660156 37.136719 54.648438 C 36.535156 52.363281 34.472656 50.667969 32 50.667969 C 29.523438 50.667969 27.457031 52.367188 26.859375 54.65625 C 24.4375 54.109375 22.132812 53.207031 20 51.910156 L 18.617188 54.191406 C 21.171875 55.742188 23.949219 56.800781 26.871094 57.386719 C 27.488281 59.652344 29.542969 61.332031 32 61.332031 C 34.460938 61.332031 36.519531 59.648438 37.128906 57.378906 C 47.25 55.3125 55.234375 47.242188 57.242188 37.171875 C 59.585938 36.609375 61.332031 34.511719 61.332031 32 Z M 32 40 C 31.265625 40 30.667969 39.402344 30.667969 38.667969 C 30.667969 37.933594 31.265625 37.332031 32 37.332031 C 32.734375 37.332031 33.332031 37.933594 33.332031 38.667969 C 33.332031 39.402344 32.734375 40 32 40 Z M 33.332031 34.910156 L 33.332031 32 L 30.667969 32 L 30.667969 34.910156 C 29.117188 35.464844 28 36.929688 28 38.667969 C 28 40.871094 29.792969 42.667969 32 42.667969 C 34.207031 42.667969 36 40.871094 36 38.667969 C 36 36.929688 34.882812 35.464844 33.332031 34.910156 Z M 41.332031 42.578125 C 41.332031 43.363281 40.695312 44 39.910156 44 L 24.089844 44 C 23.304688 44 22.667969 43.363281 22.667969 42.578125 L 22.667969 32.089844 C 22.667969 31.304688 23.304688 30.667969 24.089844 30.667969 L 39.910156 30.667969 C 40.695312 30.667969 41.332031 31.304688 41.332031 32.089844 Z M 28.839844 18.667969 L 35.160156 18.667969 C 37.09375 18.667969 38.667969 20.238281 38.667969 22.175781 L 38.667969 28 L 25.332031 28 L 25.332031 22.175781 C 25.332031 20.238281 26.90625 18.667969 28.839844 18.667969 Z M 35.160156 16 L 28.839844 16 C 25.4375 16 22.667969 18.769531 22.667969 22.175781 L 22.667969 28.269531 C 21.113281 28.851562 20 30.335938 20 32.089844 L 20 42.578125 C 20 44.832031 21.835938 46.667969 24.089844 46.667969 L 39.910156 46.667969 C 42.164062 46.667969 44 44.832031 44 42.578125 L 44 32.089844 C 44 30.335938 42.886719 28.851562 41.332031 28.269531 L 41.332031 22.175781 C 41.332031 18.769531 38.5625 16 35.160156 16 Z M 35.160156 16 "/>
</svg>
