<?xml version="1.0" encoding="UTF-8"?>
<svg xmlns="http://www.w3.org/2000/svg" xmlns:xlink="http://www.w3.org/1999/xlink" width="64" height="64" viewBox="0 0 64 64">
<path fill-rule="evenodd" fill="rgb(47.843137%, 63.137257%, 8.627451%)" fill-opacity="1" d="M 34.566406 48.070312 L 34.566406 48.207031 L 29.316406 48.207031 L 29.316406 48.070312 C 29.316406 47.984375 29.320312 47.945312 29.304688 47.964844 C 29.628906 47.5 29.667969 46.945312 29.335938 46.484375 C 29.328125 46.472656 29.316406 46.414062 29.316406 46.328125 L 29.316406 46.1875 L 34.566406 46.1875 L 34.566406 46.328125 C 34.566406 46.398438 34.542969 46.476562 34.574219 46.429688 C 34.25 46.894531 34.214844 47.449219 34.546875 47.910156 C 34.550781 47.925781 34.566406 47.980469 34.566406 48.070312 Z M 28.480469 43.519531 C 27.417969 43.519531 26.648438 44.527344 26.648438 45.917969 L 26.648438 46.328125 C 26.648438 46.632812 26.6875 46.925781 26.765625 47.199219 C 26.6875 47.46875 26.648438 47.765625 26.648438 48.070312 L 26.648438 48.480469 C 26.648438 49.867188 27.417969 50.875 28.480469 50.875 L 35.398438 50.875 C 36.460938 50.875 37.230469 49.867188 37.230469 48.480469 L 37.230469 48.070312 C 37.230469 47.765625 37.191406 47.46875 37.117188 47.199219 C 37.191406 46.925781 37.230469 46.632812 37.230469 46.328125 L 37.230469 45.917969 C 37.230469 44.527344 36.460938 43.519531 35.398438 43.519531 Z M 35.316406 36.976562 L 35.316406 40.003906 L 33.296875 40.003906 L 33.296875 32.125 L 34.304688 32.125 L 34.304688 29.457031 L 29.621094 29.457031 L 29.621094 32.125 L 30.628906 32.125 L 30.628906 40.003906 L 28.609375 40.003906 L 28.609375 36.976562 C 28.609375 36.457031 28.308594 35.984375 27.839844 35.765625 C 24.339844 34.136719 22.164062 30.757812 22.164062 26.945312 C 22.164062 21.542969 26.558594 17.144531 31.960938 17.144531 C 37.367188 17.144531 41.761719 21.542969 41.761719 26.945312 C 41.761719 30.757812 39.589844 34.136719 36.089844 35.765625 C 35.617188 35.984375 35.316406 36.457031 35.316406 36.976562 Z M 19.496094 26.945312 C 19.496094 31.519531 21.945312 35.601562 25.941406 37.792969 L 25.941406 41.339844 C 25.941406 42.074219 26.539062 42.671875 27.277344 42.671875 L 36.652344 42.671875 C 37.386719 42.671875 37.984375 42.074219 37.984375 41.339844 L 37.984375 37.792969 C 41.980469 35.601562 44.429688 31.519531 44.429688 26.945312 C 44.429688 20.070312 38.835938 14.480469 31.960938 14.480469 C 25.089844 14.480469 19.496094 20.070312 19.496094 26.945312 Z M 52.894531 51.382812 C 52.894531 52.21875 52.214844 52.894531 51.378906 52.894531 L 12.546875 52.894531 C 11.710938 52.894531 11.03125 52.21875 11.03125 51.382812 L 11.03125 12.566406 C 11.03125 11.730469 11.710938 11.050781 12.546875 11.050781 L 51.378906 11.050781 C 52.214844 11.050781 52.894531 11.730469 52.894531 12.566406 Z M 61.261719 19.234375 L 61.261719 16.566406 L 55.558594 16.566406 L 55.558594 12.566406 C 55.558594 10.261719 53.683594 8.386719 51.378906 8.386719 L 47.359375 8.386719 L 47.359375 2.667969 L 44.691406 2.667969 L 44.691406 8.386719 L 40.328125 8.386719 L 40.328125 2.667969 L 37.660156 2.667969 L 37.660156 8.386719 L 33.296875 8.386719 L 33.296875 2.667969 L 30.628906 2.667969 L 30.628906 8.386719 L 26.265625 8.386719 L 26.265625 2.667969 L 23.597656 2.667969 L 23.597656 8.386719 L 19.234375 8.386719 L 19.234375 2.667969 L 16.566406 2.667969 L 16.566406 8.386719 L 12.546875 8.386719 C 10.238281 8.386719 8.367188 10.261719 8.367188 12.566406 L 8.367188 16.566406 L 2.667969 16.566406 L 2.667969 19.234375 L 8.367188 19.234375 L 8.367188 23.597656 L 2.667969 23.597656 L 2.667969 26.265625 L 8.367188 26.265625 L 8.367188 30.628906 L 2.667969 30.628906 L 2.667969 33.296875 L 8.367188 33.296875 L 8.367188 37.660156 L 2.667969 37.660156 L 2.667969 40.328125 L 8.367188 40.328125 L 8.367188 44.691406 L 2.667969 44.691406 L 2.667969 47.359375 L 8.367188 47.359375 L 8.367188 51.382812 C 8.367188 53.6875 10.238281 55.5625 12.546875 55.5625 L 16.566406 55.5625 L 16.566406 61.261719 L 19.234375 61.261719 L 19.234375 55.5625 L 23.597656 55.5625 L 23.597656 61.261719 L 26.265625 61.261719 L 26.265625 55.5625 L 30.628906 55.5625 L 30.628906 61.261719 L 33.296875 61.261719 L 33.296875 55.5625 L 37.660156 55.5625 L 37.660156 61.261719 L 40.328125 61.261719 L 40.328125 55.5625 L 44.691406 55.5625 L 44.691406 61.261719 L 47.359375 61.261719 L 47.359375 55.5625 L 51.378906 55.5625 C 53.683594 55.5625 55.558594 53.6875 55.558594 51.382812 L 55.558594 47.359375 L 61.261719 47.359375 L 61.261719 44.691406 L 55.558594 44.691406 L 55.558594 40.328125 L 61.261719 40.328125 L 61.261719 37.660156 L 55.558594 37.660156 L 55.558594 33.296875 L 61.261719 33.296875 L 61.261719 30.628906 L 55.558594 30.628906 L 55.558594 26.265625 L 61.261719 26.265625 L 61.261719 23.597656 L 55.558594 23.597656 L 55.558594 19.234375 Z M 61.261719 19.234375 "/>
</svg>
