<?xml version="1.0" encoding="UTF-8"?>
<svg xmlns="http://www.w3.org/2000/svg" xmlns:xlink="http://www.w3.org/1999/xlink" width="64" height="64" viewBox="0 0 64 64">
<path fill-rule="evenodd" fill="rgb(47.843137%, 63.137257%, 8.627451%)" fill-opacity="1" d="M 22.667969 38.667969 L 28 38.667969 L 28 36 L 22.667969 36 Z M 36 38.667969 L 44 38.667969 L 44 36 L 36 36 Z M 36 34.667969 L 44 34.667969 L 44 32 L 36 32 Z M 26.667969 34.667969 L 30.667969 34.667969 L 30.667969 32 L 26.667969 32 Z M 20 34.667969 L 24 34.667969 L 24 32 L 20 32 Z M 44 26.667969 L 44 22.667969 L 46.175781 22.667969 C 46.441406 22.667969 46.667969 22.890625 46.667969 23.15625 L 46.667969 26.667969 Z M 46.667969 40.84375 C 46.667969 41.109375 46.441406 41.332031 46.175781 41.332031 L 17.824219 41.332031 C 17.558594 41.332031 17.332031 41.109375 17.332031 40.84375 L 17.332031 29.332031 L 46.667969 29.332031 Z M 17.824219 22.667969 L 20 22.667969 L 20 26.667969 L 17.332031 26.667969 L 17.332031 23.15625 C 17.332031 22.890625 17.558594 22.667969 17.824219 22.667969 Z M 22.667969 26.667969 L 25.332031 26.667969 L 25.332031 22.667969 L 22.667969 22.667969 Z M 28 26.667969 L 30.667969 26.667969 L 30.667969 22.667969 L 28 22.667969 Z M 33.332031 26.667969 L 36 26.667969 L 36 22.667969 L 33.332031 22.667969 Z M 38.667969 26.667969 L 41.332031 26.667969 L 41.332031 22.667969 L 38.667969 22.667969 Z M 46.175781 20 L 17.824219 20 C 16.085938 20 14.667969 21.417969 14.667969 23.15625 L 14.667969 40.84375 C 14.667969 42.582031 16.085938 44 17.824219 44 L 46.175781 44 C 47.917969 44 49.332031 42.582031 49.332031 40.84375 L 49.332031 23.15625 C 49.332031 21.417969 47.917969 20 46.175781 20 Z M 52 50.488281 C 52 51.320312 51.320312 52 50.488281 52 L 13.511719 52 C 12.679688 52 12 51.320312 12 50.488281 L 12 13.511719 C 12 12.679688 12.679688 12 13.511719 12 L 50.488281 12 C 51.320312 12 52 12.679688 52 13.511719 Z M 61.332031 20 L 61.332031 17.332031 L 54.667969 17.332031 L 54.667969 13.511719 C 54.667969 11.207031 52.792969 9.332031 50.488281 9.332031 L 46.667969 9.332031 L 46.667969 2.667969 L 44 2.667969 L 44 9.332031 L 40 9.332031 L 40 2.667969 L 37.332031 2.667969 L 37.332031 9.332031 L 33.332031 9.332031 L 33.332031 2.667969 L 30.667969 2.667969 L 30.667969 9.332031 L 26.667969 9.332031 L 26.667969 2.667969 L 24 2.667969 L 24 9.332031 L 20 9.332031 L 20 2.667969 L 17.332031 2.667969 L 17.332031 9.332031 L 13.511719 9.332031 C 11.207031 9.332031 9.332031 11.207031 9.332031 13.511719 L 9.332031 17.332031 L 2.667969 17.332031 L 2.667969 20 L 9.332031 20 L 9.332031 24 L 2.667969 24 L 2.667969 26.667969 L 9.332031 26.667969 L 9.332031 30.667969 L 2.667969 30.667969 L 2.667969 33.332031 L 9.332031 33.332031 L 9.332031 37.332031 L 2.667969 37.332031 L 2.667969 40 L 9.332031 40 L 9.332031 44 L 2.667969 44 L 2.667969 46.667969 L 9.332031 46.667969 L 9.332031 50.488281 C 9.332031 52.792969 11.207031 54.667969 13.511719 54.667969 L 17.332031 54.667969 L 17.332031 61.332031 L 20 61.332031 L 20 54.667969 L 24 54.667969 L 24 61.332031 L 26.667969 61.332031 L 26.667969 54.667969 L 30.667969 54.667969 L 30.667969 61.332031 L 33.332031 61.332031 L 33.332031 54.667969 L 37.332031 54.667969 L 37.332031 61.332031 L 40 61.332031 L 40 54.667969 L 44 54.667969 L 44 61.332031 L 46.667969 61.332031 L 46.667969 54.667969 L 50.488281 54.667969 C 52.792969 54.667969 54.667969 52.792969 54.667969 50.488281 L 54.667969 46.667969 L 61.332031 46.667969 L 61.332031 44 L 54.667969 44 L 54.667969 40 L 61.332031 40 L 61.332031 37.332031 L 54.667969 37.332031 L 54.667969 33.332031 L 61.332031 33.332031 L 61.332031 30.667969 L 54.667969 30.667969 L 54.667969 26.667969 L 61.332031 26.667969 L 61.332031 24 L 54.667969 24 L 54.667969 20 Z M 61.332031 20 "/>
</svg>
