<?xml version="1.0" encoding="UTF-8"?>
<svg xmlns="http://www.w3.org/2000/svg" xmlns:xlink="http://www.w3.org/1999/xlink" width="64" height="64" viewBox="0 0 64 64">
<path fill-rule="evenodd" fill="rgb(47.843137%, 63.137257%, 8.627451%)" fill-opacity="1" d="M 22.585938 27.773438 C 22.585938 28.144531 22.257812 28.445312 21.851562 28.445312 L 18.628906 28.445312 C 18.226562 28.445312 17.898438 28.144531 17.898438 27.773438 L 17.898438 26.769531 C 17.898438 26.402344 18.226562 26.101562 18.628906 26.101562 L 21.851562 26.101562 C 22.257812 26.101562 22.585938 26.402344 22.585938 26.769531 Z M 29.289062 33.621094 C 29.289062 31.28125 31.195312 29.375 33.535156 29.375 C 35.875 29.375 37.78125 31.28125 37.78125 33.621094 C 37.78125 35.960938 35.875 37.863281 33.535156 37.863281 C 31.195312 37.863281 29.289062 35.960938 29.289062 33.621094 Z M 26.625 33.621094 C 26.625 37.429688 29.722656 40.53125 33.535156 40.53125 C 37.34375 40.53125 40.445312 37.429688 40.445312 33.621094 C 40.445312 29.808594 37.34375 26.710938 33.535156 26.710938 C 29.722656 26.710938 26.625 29.808594 26.625 33.621094 Z M 25.5625 33.621094 C 25.5625 29.226562 29.136719 25.648438 33.535156 25.648438 C 37.929688 25.648438 41.507812 29.226562 41.507812 33.621094 C 41.507812 38.015625 37.929688 41.59375 33.535156 41.59375 C 29.136719 41.59375 25.5625 38.015625 25.5625 33.621094 Z M 22.894531 33.621094 C 22.894531 39.488281 27.667969 44.261719 33.535156 44.261719 C 39.402344 44.261719 44.171875 39.488281 44.171875 33.621094 C 44.171875 27.753906 39.402344 22.980469 33.535156 22.980469 C 27.667969 22.980469 22.894531 27.753906 22.894531 33.621094 Z M 48.199219 43.839844 C 48.199219 44.304688 47.820312 44.6875 47.351562 44.6875 L 16.539062 44.6875 C 16.070312 44.6875 15.691406 44.304688 15.691406 43.839844 L 15.691406 24.75 C 15.691406 24.285156 16.070312 23.902344 16.539062 23.902344 L 17.820312 23.902344 C 17.847656 23.90625 17.871094 23.917969 17.898438 23.917969 L 22.585938 23.917969 C 22.613281 23.917969 22.636719 23.90625 22.664062 23.902344 L 27.320312 23.902344 C 27.953125 23.902344 28.496094 23.460938 28.625 22.84375 L 29.230469 19.9375 C 29.285156 19.675781 29.46875 19.367188 29.597656 19.230469 L 37.648438 19.230469 C 37.773438 19.367188 37.957031 19.675781 38.011719 19.941406 L 38.617188 22.84375 C 38.746094 23.460938 39.292969 23.902344 39.925781 23.902344 L 47.351562 23.902344 C 47.820312 23.902344 48.199219 24.285156 48.199219 24.75 Z M 19.230469 20.511719 C 19.230469 20.472656 19.234375 20.4375 19.238281 20.402344 L 21.242188 20.402344 C 21.25 20.4375 21.253906 20.472656 21.253906 20.511719 L 21.253906 21.238281 L 19.230469 21.238281 Z M 41.007812 21.238281 L 40.621094 19.394531 C 40.390625 18.300781 39.429688 16.566406 37.816406 16.566406 L 29.429688 16.566406 C 27.816406 16.566406 26.851562 18.300781 26.621094 19.394531 L 26.238281 21.238281 L 23.917969 21.238281 L 23.917969 20.511719 C 23.917969 18.957031 22.902344 17.738281 21.601562 17.738281 L 18.882812 17.738281 C 17.582031 17.738281 16.5625 18.957031 16.5625 20.511719 L 16.5625 21.238281 L 16.539062 21.238281 C 14.601562 21.238281 13.023438 22.8125 13.023438 24.75 L 13.023438 43.839844 C 13.023438 45.777344 14.601562 47.351562 16.539062 47.351562 L 47.351562 47.351562 C 49.289062 47.351562 50.867188 45.777344 50.867188 43.839844 L 50.867188 24.75 C 50.867188 22.8125 49.289062 21.238281 47.351562 21.238281 Z M 52.886719 51.375 C 52.886719 52.207031 52.207031 52.886719 51.371094 52.886719 L 12.546875 52.886719 C 11.710938 52.886719 11.03125 52.207031 11.03125 51.375 L 11.03125 12.5625 C 11.03125 11.730469 11.710938 11.050781 12.546875 11.050781 L 51.371094 11.050781 C 52.207031 11.050781 52.886719 11.730469 52.886719 12.5625 Z M 61.25 19.230469 L 61.25 16.566406 L 55.550781 16.566406 L 55.550781 12.5625 C 55.550781 10.257812 53.675781 8.382812 51.371094 8.382812 L 47.351562 8.382812 L 47.351562 2.667969 L 44.683594 2.667969 L 44.683594 8.382812 L 40.320312 8.382812 L 40.320312 2.667969 L 37.65625 2.667969 L 37.65625 8.382812 L 33.289062 8.382812 L 33.289062 2.667969 L 30.625 2.667969 L 30.625 8.382812 L 26.261719 8.382812 L 26.261719 2.667969 L 23.59375 2.667969 L 23.59375 8.382812 L 19.230469 8.382812 L 19.230469 2.667969 L 16.5625 2.667969 L 16.5625 8.382812 L 12.546875 8.382812 C 10.238281 8.382812 8.367188 10.257812 8.367188 12.5625 L 8.367188 16.566406 L 2.667969 16.566406 L 2.667969 19.230469 L 8.367188 19.230469 L 8.367188 23.59375 L 2.667969 23.59375 L 2.667969 26.261719 L 8.367188 26.261719 L 8.367188 30.625 L 2.667969 30.625 L 2.667969 33.292969 L 8.367188 33.292969 L 8.367188 37.65625 L 2.667969 37.65625 L 2.667969 40.320312 L 8.367188 40.320312 L 8.367188 44.6875 L 2.667969 44.6875 L 2.667969 47.351562 L 8.367188 47.351562 L 8.367188 51.375 C 8.367188 53.679688 10.238281 55.554688 12.546875 55.554688 L 16.5625 55.554688 L 16.5625 61.25 L 19.230469 61.25 L 19.230469 55.554688 L 23.59375 55.554688 L 23.59375 61.25 L 26.261719 61.25 L 26.261719 55.554688 L 30.625 55.554688 L 30.625 61.25 L 33.289062 61.25 L 33.289062 55.554688 L 37.65625 55.554688 L 37.65625 61.25 L 40.320312 61.25 L 40.320312 55.554688 L 44.683594 55.554688 L 44.683594 61.25 L 47.351562 61.25 L 47.351562 55.554688 L 51.371094 55.554688 C 53.675781 55.554688 55.550781 53.679688 55.550781 51.375 L 55.550781 47.351562 L 61.25 47.351562 L 61.25 44.6875 L 55.550781 44.6875 L 55.550781 40.320312 L 61.25 40.320312 L 61.25 37.65625 L 55.550781 37.65625 L 55.550781 33.292969 L 61.25 33.292969 L 61.25 30.625 L 55.550781 30.625 L 55.550781 26.261719 L 61.25 26.261719 L 61.25 23.59375 L 55.550781 23.59375 L 55.550781 19.230469 Z M 61.25 19.230469 "/>
</svg>
