<?xml version="1.0" encoding="UTF-8"?>
<svg xmlns="http://www.w3.org/2000/svg" xmlns:xlink="http://www.w3.org/1999/xlink" width="64" height="64" viewBox="0 0 64 64">
<path fill-rule="evenodd" fill="rgb(47.843137%, 63.137257%, 8.627451%)" fill-opacity="1" d="M 17.332031 50.667969 L 41.332031 50.667969 L 41.332031 48 L 17.332031 48 Z M 2.667969 33.332031 L 28 33.332031 L 28 30.667969 L 2.667969 30.667969 Z M 2.667969 18.667969 L 20 18.667969 L 20 16 L 2.667969 16 Z M 9.332031 38.667969 L 22.667969 38.667969 L 22.667969 36 L 9.332031 36 Z M 54.667969 34.667969 L 58.667969 34.667969 L 58.667969 30.667969 L 54.667969 30.667969 Z M 60 28 L 53.332031 28 C 52.597656 28 52 28.597656 52 29.332031 L 52 36 C 52 36.734375 52.597656 37.332031 53.332031 37.332031 L 60 37.332031 C 60.738281 37.332031 61.332031 36.734375 61.332031 36 L 61.332031 29.332031 C 61.332031 28.597656 60.738281 28 60 28 Z M 26.667969 20 L 34.667969 20 L 34.667969 12 L 26.667969 12 Z M 25.332031 22.667969 L 36 22.667969 C 36.738281 22.667969 37.332031 22.070312 37.332031 21.332031 L 37.332031 10.667969 C 37.332031 9.929688 36.738281 9.332031 36 9.332031 L 25.332031 9.332031 C 24.597656 9.332031 24 9.929688 24 10.667969 L 24 21.332031 C 24 22.070312 24.597656 22.667969 25.332031 22.667969 Z M 46.667969 52 L 52 52 L 52 46.667969 L 46.667969 46.667969 Z M 53.332031 44 L 45.332031 44 C 44.597656 44 44 44.597656 44 45.332031 L 44 53.332031 C 44 54.070312 44.597656 54.667969 45.332031 54.667969 L 53.332031 54.667969 C 54.070312 54.667969 54.667969 54.070312 54.667969 53.332031 L 54.667969 45.332031 C 54.667969 44.597656 54.070312 44 53.332031 44 Z M 48 21.332031 L 52 21.332031 L 52 17.332031 L 48 17.332031 Z M 46.667969 24 L 53.332031 24 C 54.070312 24 54.667969 23.402344 54.667969 22.667969 L 54.667969 16 C 54.667969 15.265625 54.070312 14.667969 53.332031 14.667969 L 46.667969 14.667969 C 45.929688 14.667969 45.332031 15.265625 45.332031 16 L 45.332031 22.667969 C 45.332031 23.402344 45.929688 24 46.667969 24 Z M 34.667969 38.667969 L 44 38.667969 L 44 29.332031 L 34.667969 29.332031 Z M 32 28 L 32 40 C 32 40.734375 32.597656 41.332031 33.332031 41.332031 L 45.332031 41.332031 C 46.070312 41.332031 46.667969 40.734375 46.667969 40 L 46.667969 28 C 46.667969 27.265625 46.070312 26.667969 45.332031 26.667969 L 33.332031 26.667969 C 32.597656 26.667969 32 27.265625 32 28 Z M 32 28 "/>
</svg>
