<?xml version="1.0" encoding="UTF-8"?>
<svg xmlns="http://www.w3.org/2000/svg" xmlns:xlink="http://www.w3.org/1999/xlink" width="64" height="64" viewBox="0 0 64 64">
<path fill-rule="evenodd" fill="rgb(47.843137%, 63.137257%, 8.627451%)" fill-opacity="1" d="M 39.929688 46.722656 L 42.597656 46.722656 L 42.597656 60 C 42.597656 60.496094 42.324219 60.949219 41.886719 61.179688 C 41.691406 61.28125 41.476562 61.332031 41.265625 61.332031 C 41 61.332031 40.734375 61.253906 40.507812 61.097656 L 32.027344 55.265625 L 23.546875 61.097656 C 23.136719 61.378906 22.609375 61.410156 22.167969 61.179688 C 21.730469 60.949219 21.457031 60.496094 21.457031 60 L 21.457031 46.722656 L 24.125 46.722656 L 24.125 57.464844 L 31.273438 52.550781 C 31.726562 52.238281 32.328125 52.238281 32.78125 52.550781 L 39.929688 57.464844 Z M 12 25.359375 C 12 14.316406 20.984375 5.332031 32.027344 5.332031 C 43.070312 5.332031 52.054688 14.316406 52.054688 25.359375 C 52.054688 36.402344 43.070312 45.386719 32.027344 45.386719 C 20.984375 45.386719 12 36.402344 12 25.359375 Z M 9.332031 25.359375 C 9.332031 37.875 19.511719 48.054688 32.027344 48.054688 C 44.539062 48.054688 54.722656 37.875 54.722656 25.359375 C 54.722656 12.847656 44.539062 2.667969 32.027344 2.667969 C 19.511719 2.667969 9.332031 12.847656 9.332031 25.359375 Z M 20.359375 25.9375 C 20.359375 25.316406 20.863281 24.8125 21.484375 24.8125 C 22.105469 24.8125 22.613281 25.316406 22.613281 25.9375 C 22.613281 26.558594 22.105469 27.0625 21.484375 27.0625 C 20.863281 27.0625 20.359375 26.558594 20.359375 25.9375 Z M 17.691406 25.9375 C 17.691406 28.027344 19.394531 29.730469 21.484375 29.730469 C 23.578125 29.730469 25.277344 28.027344 25.277344 25.9375 C 25.277344 23.847656 23.578125 22.144531 21.484375 22.144531 C 19.394531 22.144531 17.691406 23.847656 17.691406 25.9375 Z M 46.199219 26.914062 L 31.640625 26.914062 C 31.054688 26.914062 30.535156 27.296875 30.363281 27.859375 C 29.492188 30.746094 26.910156 32.6875 23.945312 32.6875 C 20.222656 32.6875 17.195312 29.660156 17.195312 25.9375 C 17.195312 22.214844 20.222656 19.1875 23.945312 19.1875 C 26.910156 19.1875 29.492188 21.128906 30.363281 24.015625 C 30.535156 24.578125 31.054688 24.960938 31.640625 24.960938 L 34.136719 24.960938 C 34.503906 24.960938 34.859375 24.808594 35.109375 24.539062 L 36.246094 23.324219 L 37.378906 24.539062 C 37.628906 24.808594 37.984375 24.960938 38.351562 24.960938 L 39.757812 24.960938 C 40.128906 24.960938 40.480469 24.808594 40.734375 24.539062 L 41.867188 23.324219 L 43 24.539062 C 43.253906 24.808594 43.605469 24.960938 43.976562 24.960938 L 45.605469 24.960938 L 46.964844 26.078125 Z M 46.929688 22.597656 C 46.691406 22.402344 46.390625 22.296875 46.082031 22.296875 L 44.554688 22.296875 L 42.84375 20.460938 C 42.335938 19.921875 41.398438 19.921875 40.890625 20.460938 L 39.179688 22.296875 L 38.933594 22.296875 L 37.21875 20.460938 C 36.96875 20.191406 36.613281 20.035156 36.246094 20.035156 C 35.875 20.035156 35.523438 20.191406 35.269531 20.460938 L 33.554688 22.296875 L 32.578125 22.296875 C 31.113281 18.804688 27.761719 16.523438 23.945312 16.523438 C 18.753906 16.523438 14.527344 20.746094 14.527344 25.9375 C 14.527344 31.128906 18.753906 35.351562 23.945312 35.351562 C 27.761719 35.351562 31.113281 33.070312 32.578125 29.582031 L 46.785156 29.582031 C 47.160156 29.582031 47.519531 29.421875 47.769531 29.148438 L 49.878906 26.835938 C 50.125 26.566406 50.25 26.207031 50.226562 25.84375 C 50.199219 25.476562 50.023438 25.136719 49.742188 24.90625 Z M 46.929688 22.597656 "/>
</svg>
