<?xml version="1.0" encoding="UTF-8"?>
<svg xmlns="http://www.w3.org/2000/svg" xmlns:xlink="http://www.w3.org/1999/xlink" width="64" height="64" viewBox="0 0 64 64">
<path fill-rule="evenodd" fill="rgb(47.843137%, 63.137257%, 8.627451%)" fill-opacity="1" d="M 29.121094 35.839844 C 27.347656 34.070312 24.96875 33.09375 22.421875 33.09375 L 22.421875 35.761719 C 24.257812 35.761719 25.96875 36.457031 27.234375 37.726562 C 28.503906 38.996094 29.203125 40.703125 29.203125 42.542969 L 31.871094 42.542969 C 31.871094 39.992188 30.894531 37.613281 29.121094 35.839844 Z M 22.386719 21.695312 L 22.378906 24.363281 C 32.40625 24.398438 40.5625 32.554688 40.5625 42.542969 L 43.230469 42.542969 C 43.230469 31.089844 33.878906 21.734375 22.386719 21.695312 Z M 22.382812 10.335938 L 22.382812 13 C 38.671875 13 51.921875 26.253906 51.921875 42.542969 L 54.589844 42.542969 C 54.589844 24.78125 40.140625 10.335938 22.382812 10.335938 Z M 22.667969 56 L 41.332031 56 L 41.332031 53.332031 L 22.667969 53.332031 Z M 8 42.667969 L 10.667969 42.667969 L 10.667969 21.332031 L 8 21.332031 Z M 9.332031 50.667969 C 7.128906 50.667969 5.332031 52.460938 5.332031 54.667969 C 5.332031 56.871094 7.128906 58.667969 9.332031 58.667969 C 11.539062 58.667969 13.332031 56.871094 13.332031 54.667969 C 13.332031 52.460938 11.539062 50.667969 9.332031 50.667969 Z M 9.332031 61.332031 C 5.65625 61.332031 2.667969 58.339844 2.667969 54.667969 C 2.667969 50.992188 5.65625 48 9.332031 48 C 13.007812 48 16 50.992188 16 54.667969 C 16 58.339844 13.007812 61.332031 9.332031 61.332031 Z M 9.332031 5.332031 C 7.128906 5.332031 5.332031 7.125 5.332031 9.332031 C 5.332031 11.539062 7.128906 13.332031 9.332031 13.332031 C 11.539062 13.332031 13.332031 11.539062 13.332031 9.332031 C 13.332031 7.125 11.539062 5.332031 9.332031 5.332031 Z M 9.332031 16 C 5.65625 16 2.667969 13.007812 2.667969 9.332031 C 2.667969 5.65625 5.65625 2.667969 9.332031 2.667969 C 13.007812 2.667969 16 5.65625 16 9.332031 C 16 13.007812 13.007812 16 9.332031 16 Z M 54.667969 50.667969 C 52.460938 50.667969 50.667969 52.460938 50.667969 54.667969 C 50.667969 56.871094 52.460938 58.667969 54.667969 58.667969 C 56.871094 58.667969 58.667969 56.871094 58.667969 54.667969 C 58.667969 52.460938 56.871094 50.667969 54.667969 50.667969 Z M 54.667969 61.332031 C 50.992188 61.332031 48 58.339844 48 54.667969 C 48 50.992188 50.992188 48 54.667969 48 C 58.34375 48 61.332031 50.992188 61.332031 54.667969 C 61.332031 58.339844 58.34375 61.332031 54.667969 61.332031 Z M 54.667969 61.332031 "/>
</svg>
