<?xml version="1.0" encoding="UTF-8"?>
<svg xmlns="http://www.w3.org/2000/svg" xmlns:xlink="http://www.w3.org/1999/xlink" width="64" height="64" viewBox="0 0 64 64">
<path fill-rule="evenodd" fill="rgb(47.843137%, 63.137257%, 8.627451%)" fill-opacity="1" d="M 41.679688 36.488281 L 25.386719 36.488281 L 21.4375 23.921875 L 45.628906 23.921875 Z M 43.519531 44.855469 C 43.519531 45.734375 42.804688 46.449219 41.925781 46.449219 C 41.042969 46.449219 40.328125 45.734375 40.328125 44.855469 C 40.328125 43.972656 41.042969 43.257812 41.925781 43.257812 C 42.804688 43.257812 43.519531 43.972656 43.519531 44.855469 Z M 23.921875 44.855469 C 23.921875 43.972656 24.636719 43.257812 25.519531 43.257812 C 26.398438 43.257812 27.113281 43.972656 27.113281 44.855469 C 27.113281 45.734375 26.398438 46.449219 25.519531 46.449219 C 24.636719 46.449219 23.921875 45.734375 23.921875 44.855469 Z M 21.28125 21.253906 L 20.5 18.191406 C 20.261719 17.332031 19.523438 16.6875 18.695312 16.582031 L 14.753906 15.449219 L 14.015625 18.011719 L 17.992188 19.15625 L 18.800781 22.328125 C 18.535156 22.796875 18.460938 23.34375 18.625 23.867188 L 22.976562 37.710938 C 23.246094 38.574219 24.066406 39.15625 25.015625 39.15625 L 26.292969 39.15625 L 25.589844 40.597656 C 25.566406 40.597656 25.542969 40.589844 25.519531 40.589844 C 23.167969 40.589844 21.253906 42.503906 21.253906 44.855469 C 21.253906 47.203125 23.167969 49.117188 25.519531 49.117188 C 27.398438 49.117188 28.984375 47.882812 29.546875 46.1875 L 37.894531 46.1875 C 38.460938 47.882812 40.042969 49.117188 41.925781 49.117188 C 44.273438 49.117188 46.1875 47.203125 46.1875 44.855469 C 46.1875 42.503906 44.273438 40.589844 41.925781 40.589844 C 40.042969 40.589844 38.460938 41.824219 37.894531 43.519531 L 29.546875 43.519531 C 29.277344 42.710938 28.777344 42.011719 28.117188 41.5 L 29.257812 39.15625 L 42.050781 39.15625 C 43 39.15625 43.816406 38.574219 44.089844 37.710938 L 48.441406 23.867188 C 48.628906 23.269531 48.519531 22.632812 48.144531 22.121094 C 47.75 21.578125 47.09375 21.253906 46.398438 21.253906 Z M 52.894531 51.382812 C 52.894531 52.21875 52.214844 52.894531 51.378906 52.894531 L 12.546875 52.894531 C 11.710938 52.894531 11.03125 52.21875 11.03125 51.382812 L 11.03125 12.566406 C 11.03125 11.730469 11.710938 11.050781 12.546875 11.050781 L 51.378906 11.050781 C 52.214844 11.050781 52.894531 11.730469 52.894531 12.566406 Z M 61.261719 19.234375 L 61.261719 16.566406 L 55.558594 16.566406 L 55.558594 12.566406 C 55.558594 10.261719 53.683594 8.386719 51.378906 8.386719 L 47.359375 8.386719 L 47.359375 2.667969 L 44.691406 2.667969 L 44.691406 8.386719 L 40.328125 8.386719 L 40.328125 2.667969 L 37.660156 2.667969 L 37.660156 8.386719 L 33.296875 8.386719 L 33.296875 2.667969 L 30.628906 2.667969 L 30.628906 8.386719 L 26.265625 8.386719 L 26.265625 2.667969 L 23.597656 2.667969 L 23.597656 8.386719 L 19.234375 8.386719 L 19.234375 2.667969 L 16.566406 2.667969 L 16.566406 8.386719 L 12.546875 8.386719 C 10.242188 8.386719 8.367188 10.261719 8.367188 12.566406 L 8.367188 16.566406 L 2.667969 16.566406 L 2.667969 19.234375 L 8.367188 19.234375 L 8.367188 23.597656 L 2.667969 23.597656 L 2.667969 26.265625 L 8.367188 26.265625 L 8.367188 30.628906 L 2.667969 30.628906 L 2.667969 33.296875 L 8.367188 33.296875 L 8.367188 37.660156 L 2.667969 37.660156 L 2.667969 40.328125 L 8.367188 40.328125 L 8.367188 44.691406 L 2.667969 44.691406 L 2.667969 47.359375 L 8.367188 47.359375 L 8.367188 51.382812 C 8.367188 53.6875 10.242188 55.5625 12.546875 55.5625 L 16.566406 55.5625 L 16.566406 61.261719 L 19.234375 61.261719 L 19.234375 55.5625 L 23.597656 55.5625 L 23.597656 61.261719 L 26.265625 61.261719 L 26.265625 55.5625 L 30.628906 55.5625 L 30.628906 61.261719 L 33.296875 61.261719 L 33.296875 55.5625 L 37.660156 55.5625 L 37.660156 61.261719 L 40.328125 61.261719 L 40.328125 55.5625 L 44.691406 55.5625 L 44.691406 61.261719 L 47.359375 61.261719 L 47.359375 55.5625 L 51.378906 55.5625 C 53.683594 55.5625 55.558594 53.6875 55.558594 51.382812 L 55.558594 47.359375 L 61.261719 47.359375 L 61.261719 44.691406 L 55.558594 44.691406 L 55.558594 40.328125 L 61.261719 40.328125 L 61.261719 37.660156 L 55.558594 37.660156 L 55.558594 33.296875 L 61.261719 33.296875 L 61.261719 30.628906 L 55.558594 30.628906 L 55.558594 26.265625 L 61.261719 26.265625 L 61.261719 23.597656 L 55.558594 23.597656 L 55.558594 19.234375 Z M 61.261719 19.234375 "/>
</svg>
