<?xml version="1.0" encoding="UTF-8"?>
<svg xmlns="http://www.w3.org/2000/svg" xmlns:xlink="http://www.w3.org/1999/xlink" width="64" height="64" viewBox="0 0 64 64">
<path fill-rule="evenodd" fill="rgb(47.843137%, 63.137257%, 8.627451%)" fill-opacity="1" d="M 51.902344 57.679688 C 55.195312 54.839844 57.242188 50.867188 57.242188 46.699219 C 57.242188 40.886719 52.511719 36.15625 46.699219 36.15625 C 40.886719 36.15625 36.15625 40.886719 36.15625 46.699219 C 36.15625 50.9375 38.683594 54.746094 42.59375 56.410156 C 42.992188 56.578125 43.25 56.949219 43.25 57.355469 L 43.25 58.371094 C 42.8125 58.242188 42.378906 58.085938 41.960938 57.910156 C 37.445312 55.988281 34.53125 51.589844 34.53125 46.699219 C 34.53125 39.988281 39.988281 34.53125 46.699219 34.53125 C 53.410156 34.53125 58.871094 39.988281 58.871094 46.699219 C 58.871094 51.121094 56.453125 55.207031 52.566406 57.359375 C 52.351562 57.480469 52.125 57.574219 51.902344 57.679688 Z M 38.824219 46.699219 C 38.824219 42.355469 42.355469 38.824219 46.699219 38.824219 C 51.039062 38.824219 54.574219 42.355469 54.574219 46.699219 C 54.574219 51.617188 51.019531 56.230469 45.914062 58.207031 L 45.914062 57.355469 C 45.914062 55.875 45.019531 54.539062 43.636719 53.953125 C 40.714844 52.710938 38.824219 49.863281 38.824219 46.699219 Z M 12.222656 52.996094 C 11.574219 52.996094 11.046875 52.476562 11.046875 51.832031 L 11.046875 12.234375 C 11.046875 11.59375 11.574219 11.070312 12.222656 11.070312 L 51.816406 11.070312 C 52.46875 11.070312 53 11.59375 53 12.234375 L 53 33.285156 C 51.082031 32.382812 48.953125 31.863281 46.699219 31.863281 C 38.519531 31.863281 31.863281 38.519531 31.863281 46.699219 C 31.863281 48.925781 32.359375 51.066406 33.265625 52.996094 Z M 61.375 33.355469 L 61.375 30.6875 L 55.664062 30.6875 L 55.664062 26.308594 L 61.375 26.308594 L 61.375 23.644531 L 55.664062 23.644531 L 55.664062 19.265625 L 61.375 19.265625 L 61.375 16.597656 L 55.664062 16.597656 L 55.664062 12.234375 C 55.664062 10.121094 53.941406 8.402344 51.816406 8.402344 L 47.445312 8.402344 L 47.445312 2.664062 L 44.777344 2.664062 L 44.777344 8.402344 L 40.402344 8.402344 L 40.402344 2.664062 L 37.734375 2.664062 L 37.734375 8.402344 L 33.355469 8.402344 L 33.355469 2.664062 L 30.6875 2.664062 L 30.6875 8.402344 L 26.308594 8.402344 L 26.308594 2.664062 L 23.644531 2.664062 L 23.644531 8.402344 L 19.261719 8.402344 L 19.261719 2.664062 L 16.597656 2.664062 L 16.597656 8.402344 L 12.222656 8.402344 C 10.105469 8.402344 8.378906 10.121094 8.378906 12.234375 L 8.378906 16.597656 L 2.667969 16.597656 L 2.667969 19.265625 L 8.378906 19.265625 L 8.378906 23.644531 L 2.667969 23.644531 L 2.667969 26.308594 L 8.378906 26.308594 L 8.378906 30.6875 L 2.667969 30.6875 L 2.667969 33.355469 L 8.378906 33.355469 L 8.378906 37.734375 L 2.667969 37.734375 L 2.667969 40.402344 L 8.378906 40.402344 L 8.378906 44.777344 L 2.667969 44.777344 L 2.667969 47.445312 L 8.378906 47.445312 L 8.378906 51.832031 C 8.378906 53.945312 10.105469 55.664062 12.222656 55.664062 L 16.597656 55.664062 L 16.597656 61.378906 L 19.261719 61.378906 L 19.261719 55.664062 L 23.644531 55.664062 L 23.644531 61.378906 L 26.308594 61.378906 L 26.308594 55.664062 L 30.6875 55.664062 L 30.6875 61.378906 L 33.355469 61.378906 L 33.355469 53.175781 C 34.890625 56.339844 37.535156 58.925781 40.914062 60.363281 C 42.746094 61.140625 44.691406 61.535156 46.699219 61.535156 C 49.199219 61.535156 51.675781 60.898438 53.859375 59.691406 C 58.59375 57.070312 61.535156 52.09375 61.535156 46.699219 C 61.535156 40.828125 58.097656 35.757812 53.140625 33.355469 Z M 61.375 33.355469 "/>
</svg>
