<?xml version="1.0" encoding="UTF-8"?>
<svg xmlns="http://www.w3.org/2000/svg" xmlns:xlink="http://www.w3.org/1999/xlink" width="64" height="64" viewBox="0 0 64 64">
<path fill-rule="evenodd" fill="rgb(47.843137%, 63.137257%, 8.627451%)" fill-opacity="1" d="M 31.988281 46.242188 L 33.132812 48.148438 L 30.84375 48.148438 Z M 35.488281 50.816406 C 35.96875 50.816406 36.410156 50.558594 36.648438 50.140625 C 36.886719 49.722656 36.878906 49.210938 36.628906 48.796875 L 33.132812 42.964844 C 32.652344 42.164062 31.328125 42.164062 30.847656 42.964844 L 27.347656 48.796875 C 27.101562 49.210938 27.09375 49.722656 27.332031 50.140625 C 27.566406 50.558594 28.011719 50.816406 28.492188 50.816406 Z M 16.078125 46.566406 C 16.078125 47.441406 15.367188 48.148438 14.496094 48.148438 C 13.625 48.148438 12.914062 47.441406 12.914062 46.566406 C 12.914062 45.695312 13.625 44.984375 14.496094 44.984375 C 15.367188 44.984375 16.078125 45.695312 16.078125 46.566406 Z M 18.742188 46.566406 C 18.742188 44.222656 16.839844 42.316406 14.496094 42.316406 C 12.152344 42.316406 10.246094 44.222656 10.246094 46.566406 C 10.246094 48.910156 12.152344 50.816406 14.496094 50.816406 C 16.839844 50.816406 18.742188 48.910156 18.742188 46.566406 Z M 26.324219 52.8125 L 37.652344 52.8125 L 37.652344 13.496094 L 26.324219 13.496094 Z M 24.992188 10.828125 C 24.253906 10.828125 23.660156 11.425781 23.660156 12.164062 L 23.660156 54.148438 C 23.660156 54.882812 24.253906 55.480469 24.992188 55.480469 L 38.988281 55.480469 C 39.722656 55.480469 40.320312 54.882812 40.320312 54.148438 L 40.320312 12.164062 C 40.320312 11.425781 39.722656 10.828125 38.988281 10.828125 Z M 8.832031 52.8125 L 20.160156 52.8125 L 20.160156 29.824219 L 8.832031 29.824219 Z M 7.5 27.15625 C 6.761719 27.15625 6.164062 27.753906 6.164062 28.492188 L 6.164062 54.148438 C 6.164062 54.882812 6.761719 55.480469 7.5 55.480469 L 21.492188 55.480469 C 22.230469 55.480469 22.828125 54.882812 22.828125 54.148438 L 22.828125 28.492188 C 22.828125 27.753906 22.230469 27.15625 21.492188 27.15625 Z M 58.644531 52.714844 C 58.644531 55.984375 55.984375 58.644531 52.714844 58.644531 L 11.265625 58.644531 C 7.992188 58.644531 5.332031 55.984375 5.332031 52.714844 L 5.332031 11.261719 C 5.332031 7.992188 7.992188 5.332031 11.265625 5.332031 L 52.714844 5.332031 C 55.984375 5.332031 58.644531 7.992188 58.644531 11.261719 Z M 11.265625 2.667969 C 6.523438 2.667969 2.667969 6.523438 2.667969 11.261719 L 2.667969 52.714844 C 2.667969 57.457031 6.523438 61.3125 11.265625 61.3125 L 52.714844 61.3125 C 57.457031 61.3125 61.3125 57.457031 61.3125 52.714844 L 61.3125 11.261719 C 61.3125 6.523438 57.457031 2.667969 52.714844 2.667969 Z M 11.265625 2.667969 "/>
</svg>
