<?xml version="1.0" encoding="UTF-8"?>
<svg xmlns="http://www.w3.org/2000/svg" xmlns:xlink="http://www.w3.org/1999/xlink" width="64" height="64" viewBox="0 0 64 64">
<path fill-rule="evenodd" fill="rgb(47.843137%, 63.137257%, 8.627451%)" fill-opacity="1" d="M 13.332031 22.667969 L 28 22.667969 L 28 20 L 13.332031 20 Z M 13.332031 16 L 36 16 L 36 13.332031 L 13.332031 13.332031 Z M 40.667969 44 C 38.09375 44 36 41.90625 36 39.332031 C 36 36.761719 38.09375 34.667969 40.667969 34.667969 C 43.238281 34.667969 45.332031 36.761719 45.332031 39.332031 C 45.332031 41.90625 43.238281 44 40.667969 44 Z M 40.667969 32 C 36.621094 32 33.332031 35.289062 33.332031 39.332031 C 33.332031 43.378906 36.621094 46.667969 40.667969 46.667969 C 44.710938 46.667969 48 43.378906 48 39.332031 C 48 35.289062 44.710938 32 40.667969 32 Z M 53.332031 40.703125 L 52.421875 40.652344 C 51.800781 40.621094 51.183594 41.054688 51.042969 41.691406 C 50.777344 42.867188 50.316406 43.980469 49.667969 45.003906 C 49.324219 45.558594 49.425781 46.277344 49.910156 46.710938 L 50.59375 47.320312 L 48.65625 49.257812 L 48.050781 48.582031 C 47.613281 48.09375 46.890625 47.992188 46.339844 48.339844 C 45.320312 48.988281 44.203125 49.449219 43.023438 49.714844 C 42.386719 49.859375 41.949219 50.441406 41.984375 51.09375 L 42.039062 52 L 39.292969 52 L 39.347656 51.089844 C 39.386719 50.441406 38.945312 49.859375 38.3125 49.714844 C 37.136719 49.449219 36.019531 48.984375 34.992188 48.339844 C 34.445312 47.992188 33.71875 48.089844 33.285156 48.578125 L 32.675781 49.261719 L 30.738281 47.320312 L 31.421875 46.714844 C 31.90625 46.28125 32.007812 45.558594 31.664062 45.007812 C 31.015625 43.984375 30.554688 42.867188 30.285156 41.691406 C 30.144531 41.054688 29.546875 40.621094 28.910156 40.652344 L 28 40.703125 L 28 37.960938 L 28.914062 38.015625 C 29.53125 38.042969 30.148438 37.613281 30.292969 36.980469 C 30.558594 35.800781 31.019531 34.6875 31.667969 33.667969 C 32.015625 33.117188 31.914062 32.394531 31.429688 31.960938 L 30.738281 31.347656 L 32.679688 29.40625 L 33.292969 30.09375 C 33.726562 30.582031 34.449219 30.679688 35 30.332031 C 36.019531 29.691406 37.132812 29.230469 38.3125 28.964844 C 38.945312 28.820312 39.386719 28.238281 39.347656 27.585938 L 39.292969 26.667969 L 42.039062 26.667969 L 41.984375 27.585938 C 41.949219 28.238281 42.386719 28.820312 43.019531 28.964844 C 44.199219 29.230469 45.3125 29.691406 46.332031 30.335938 C 46.882812 30.683594 47.605469 30.585938 48.039062 30.097656 L 48.65625 29.40625 L 50.59375 31.347656 L 49.90625 31.957031 C 49.421875 32.390625 49.320312 33.113281 49.667969 33.664062 C 50.3125 34.683594 50.773438 35.800781 51.042969 36.976562 C 51.183594 37.613281 51.800781 38.042969 52.417969 38.015625 L 53.332031 37.960938 Z M 55.582031 35.582031 C 55.316406 35.332031 54.953125 35.207031 54.59375 35.21875 L 53.34375 35.292969 C 53.117188 34.578125 52.832031 33.890625 52.492188 33.226562 L 53.421875 32.394531 C 53.695312 32.152344 53.855469 31.804688 53.867188 31.4375 C 53.878906 31.074219 53.734375 30.71875 53.476562 30.457031 L 49.542969 26.523438 C 49.28125 26.261719 48.925781 26.117188 48.558594 26.132812 C 48.191406 26.144531 47.847656 26.304688 47.605469 26.578125 L 46.769531 27.515625 C 46.109375 27.171875 45.421875 26.886719 44.710938 26.660156 L 44.777344 25.410156 C 44.800781 25.042969 44.667969 24.683594 44.417969 24.417969 C 44.167969 24.152344 43.816406 24 43.449219 24 L 37.882812 24 C 37.515625 24 37.167969 24.152344 36.914062 24.417969 C 36.664062 24.683594 36.53125 25.042969 36.554688 25.410156 L 36.621094 26.660156 C 35.914062 26.886719 35.222656 27.171875 34.5625 27.511719 L 33.730469 26.578125 C 33.484375 26.304688 33.136719 26.144531 32.773438 26.132812 C 32.410156 26.121094 32.050781 26.261719 31.792969 26.523438 L 27.855469 30.457031 C 27.597656 30.71875 27.457031 31.074219 27.464844 31.4375 C 27.476562 31.804688 27.636719 32.152344 27.910156 32.394531 L 28.847656 33.230469 C 28.503906 33.890625 28.21875 34.582031 27.992188 35.292969 L 26.742188 35.21875 C 26.382812 35.203125 26.015625 35.332031 25.75 35.582031 C 25.484375 35.832031 25.332031 36.183594 25.332031 36.550781 L 25.332031 42.117188 C 25.332031 42.480469 25.484375 42.832031 25.75 43.085938 C 26.019531 43.335938 26.363281 43.464844 26.742188 43.449219 L 27.984375 43.375 C 28.210938 44.089844 28.496094 44.777344 28.839844 45.441406 L 27.910156 46.269531 C 27.636719 46.515625 27.476562 46.863281 27.464844 47.226562 C 27.457031 47.59375 27.597656 47.949219 27.855469 48.207031 L 31.792969 52.144531 C 32.050781 52.402344 32.402344 52.554688 32.773438 52.535156 C 33.136719 52.523438 33.484375 52.363281 33.730469 52.089844 L 34.558594 51.160156 C 35.222656 51.503906 35.910156 51.789062 36.621094 52.019531 L 36.554688 53.257812 C 36.53125 53.621094 36.664062 53.980469 36.914062 54.25 C 37.167969 54.515625 37.515625 54.667969 37.882812 54.667969 L 43.449219 54.667969 C 43.816406 54.667969 44.167969 54.515625 44.421875 54.25 C 44.667969 53.980469 44.800781 53.621094 44.777344 53.257812 L 44.710938 52.019531 C 45.421875 51.792969 46.113281 51.507812 46.777344 51.160156 L 47.605469 52.089844 C 47.847656 52.363281 48.191406 52.523438 48.558594 52.535156 C 48.890625 52.558594 49.28125 52.402344 49.542969 52.144531 L 53.476562 48.207031 C 53.734375 47.949219 53.878906 47.59375 53.867188 47.226562 C 53.855469 46.863281 53.695312 46.515625 53.421875 46.269531 L 52.492188 45.441406 C 52.832031 44.777344 53.121094 44.085938 53.347656 43.375 L 54.59375 43.449219 C 54.949219 43.464844 55.316406 43.335938 55.582031 43.085938 C 55.847656 42.832031 56 42.480469 56 42.117188 L 56 36.550781 C 56 36.183594 55.847656 35.832031 55.582031 35.582031 Z M 42.667969 7.21875 L 48.78125 13.332031 L 42.667969 13.332031 Z M 50.667969 58.667969 L 10.667969 58.667969 L 10.667969 5.332031 L 40 5.332031 L 40 14.667969 C 40 15.402344 40.597656 16 41.332031 16 L 50.667969 16 L 50.667969 22.667969 L 53.332031 22.667969 L 53.332031 14.667969 L 53.320312 14.667969 C 53.320312 14.320312 53.199219 13.980469 52.945312 13.722656 L 42.277344 3.058594 C 42.019531 2.800781 41.679688 2.679688 41.332031 2.679688 L 41.332031 2.667969 L 9.332031 2.667969 C 8.597656 2.667969 8 3.261719 8 4 L 8 60 C 8 60.738281 8.597656 61.332031 9.332031 61.332031 L 52 61.332031 C 52.738281 61.332031 53.332031 60.738281 53.332031 60 L 53.332031 54.667969 L 50.667969 54.667969 Z M 50.667969 58.667969 "/>
</svg>
