<?xml version="1.0" encoding="UTF-8"?>
<svg xmlns="http://www.w3.org/2000/svg" xmlns:xlink="http://www.w3.org/1999/xlink" width="64" height="64" viewBox="0 0 64 64">
<path fill-rule="evenodd" fill="rgb(47.843137%, 63.137257%, 8.627451%)" fill-opacity="1" d="M 14.667969 53.273438 L 14.667969 19.105469 C 18.359375 21.328125 25.335938 22.199219 31.996094 22.199219 C 38.410156 22.199219 45.558594 21.296875 49.328125 18.988281 L 49.328125 53.273438 C 49.328125 55.425781 42.578125 58.550781 31.996094 58.550781 C 21.417969 58.550781 14.667969 55.425781 14.667969 53.273438 Z M 51.960938 15.09375 C 51.945312 14.890625 51.933594 14.6875 51.886719 14.5 C 51.4375 12.628906 49.625 11.039062 46.496094 9.773438 L 45.496094 12.246094 C 47.652344 13.117188 49.070312 14.191406 49.296875 15.132812 C 49.300781 15.15625 49.300781 15.179688 49.304688 15.199219 C 49.085938 16.929688 43.464844 19.300781 33.414062 19.511719 L 30.5625 19.511719 C 20.308594 19.3125 14.804688 17.007812 14.679688 15.289062 C 14.683594 15.234375 14.6875 15.179688 14.699219 15.125 C 14.921875 14.191406 16.34375 13.117188 18.5 12.246094 L 17.5 9.773438 C 14.371094 11.039062 12.558594 12.628906 12.109375 14.488281 C 12.050781 14.726562 12.03125 14.980469 12.019531 15.226562 L 12 15.226562 C 12 15.253906 12.007812 15.277344 12.011719 15.300781 C 12.007812 15.332031 12 15.355469 12 15.382812 L 12 53.273438 C 12 58.433594 22.300781 61.21875 31.996094 61.21875 C 41.691406 61.21875 51.996094 58.433594 51.996094 53.273438 L 51.996094 15.382812 C 51.996094 15.332031 51.980469 15.285156 51.976562 15.234375 C 51.980469 15.1875 51.996094 15.140625 51.996094 15.09375 Z M 31.996094 12 L 24.875 5.332031 L 39.121094 5.332031 Z M 22.832031 7.074219 L 31.085938 14.800781 C 31.34375 15.039062 31.671875 15.160156 31.996094 15.160156 C 32.324219 15.160156 32.652344 15.039062 32.910156 14.800781 L 41.164062 7.074219 L 41.164062 16.714844 L 43.828125 16.714844 L 43.828125 4 C 43.828125 3.261719 43.234375 2.667969 42.496094 2.667969 L 21.5 2.667969 C 20.761719 2.667969 20.164062 3.261719 20.164062 4 L 20.164062 16.714844 L 22.832031 16.714844 Z M 22.832031 7.074219 "/>
</svg>
