<?xml version="1.0" encoding="UTF-8"?>
<svg width="80px" height="80px" viewBox="0 0 80 80" version="1.1" xmlns="http://www.w3.org/2000/svg" xmlns:xlink="http://www.w3.org/1999/xlink">
    <title>Icon-Architecture/64/Arch_AWS-Application-Composer_64</title>
    <defs>
        <linearGradient x1="0%" y1="100%" x2="100%" y2="0%" id="linearGradient-1">
            <stop stop-color="#2E27AD" offset="0%"></stop>
            <stop stop-color="#527FFF" offset="100%"></stop>
        </linearGradient>
    </defs>
    <g id="Icon-Architecture/64/Arch_AWS-Application-Composer_64" stroke="none" stroke-width="1" fill="none" fill-rule="evenodd">
        <g id="Icon-Architecture-BG/64/Developer-Tools" fill="url(#linearGradient-1)">
            <rect id="Rectangle" x="0" y="0" width="80" height="80"></rect>
        </g>
        <g id="Icon-Service/64/AWS-Application-Composer_64" transform="translate(12.000000, 12.000000)" fill="#FFFFFF">
            <path d="M50,54 C47.794,54 46,52.206 46,50 C46,47.794 47.794,46 50,46 C52.206,46 54,47.794 54,50 C54,52.206 52.206,54 50,54 M30.828,52.829 C29.316,54.339 26.684,54.339 25.172,52.829 C24.416,52.073 24,51.068 24,50 C24,48.932 24.416,47.927 25.172,47.171 C25.928,46.416 26.932,46 28,46 C29.068,46 30.072,46.416 30.828,47.171 C31.584,47.927 32,48.932 32,50 C32,51.068 31.584,52.073 30.828,52.829 M3.172,30.829 C2.416,30.073 2,29.068 2,28 C2,26.932 2.416,25.927 3.172,25.171 C3.928,24.416 4.932,24 6,24 C7.068,24 8.072,24.416 8.828,25.171 C9.584,25.927 10,26.932 10,28 C10,29.068 9.584,30.073 8.828,30.829 C7.316,32.339 4.684,32.339 3.172,30.829 M25.172,3.171 C25.928,2.416 26.932,2 28,2 C29.068,2 30.072,2.416 30.828,3.171 C31.584,3.927 32,4.932 32,6 C32,7.068 31.584,8.073 30.828,8.829 C29.316,10.339 26.684,10.339 25.172,8.829 C24.416,8.073 24,7.068 24,6 C24,4.932 24.416,3.927 25.172,3.171 M50,2 C52.206,2 54,3.794 54,6 C54,8.206 52.206,10 50,10 C47.794,10 46,8.206 46,6 C46,3.794 47.794,2 50,2 M50,44 C47.033,44 44.569,46.167 44.09,49 L33.911,49 C33.707,47.778 33.136,46.651 32.242,45.757 C31.109,44.624 29.603,44 28,44 C26.736,44 25.536,44.393 24.527,45.113 L10.887,31.473 C11.607,30.465 12,29.264 12,28 C12,26.736 11.607,25.536 10.887,24.527 L24.527,10.887 C25.535,11.607 26.736,12 28,12 C29.603,12 31.109,11.376 32.242,10.243 C33.136,9.349 33.707,8.222 33.911,7 L44.09,7 C44.569,9.833 47.033,12 50,12 C53.309,12 56,9.309 56,6 C56,2.691 53.309,0 50,0 C47.033,0 44.569,2.167 44.09,5 L33.911,5 C33.707,3.778 33.136,2.651 32.242,1.757 C31.109,0.624 29.603,0 28,0 C26.397,0 24.891,0.624 23.758,1.757 C22.624,2.891 22,4.397 22,6 C22,7.264 22.393,8.464 23.113,9.473 L9.473,23.113 C8.465,22.393 7.264,22 6,22 C4.397,22 2.891,22.624 1.758,23.757 C0.624,24.891 0,26.397 0,28 C0,29.603 0.624,31.109 1.758,32.243 C2.891,33.376 4.397,34 6,34 C7.264,34 8.464,33.607 9.473,32.887 L23.113,46.527 C22.393,47.535 22,48.736 22,50 C22,51.603 22.624,53.109 23.758,54.243 C24.891,55.376 26.397,56 28,56 C29.603,56 31.109,55.376 32.242,54.243 C33.136,53.349 33.707,52.222 33.911,51 L44.09,51 C44.569,53.833 47.033,56 50,56 C53.309,56 56,53.309 56,50 C56,46.691 53.309,44 50,44 M6,53 C4.346,53 3,51.654 3,50 C3,48.346 4.346,47 6,47 C7.654,47 9,48.346 9,50 C9,51.654 7.654,53 6,53 M6,45 C3.243,45 1,47.243 1,50 C1,52.757 3.243,55 6,55 C8.757,55 11,52.757 11,50 C11,47.243 8.757,45 6,45 M50,31 C48.346,31 47,29.654 47,28 C47,26.346 48.346,25 50,25 C51.654,25 53,26.346 53,28 C53,29.654 51.654,31 50,31 M50,23 C47.243,23 45,25.243 45,28 C45,30.757 47.243,33 50,33 C52.757,33 55,30.757 55,28 C55,25.243 52.757,23 50,23 M28,31 C26.346,31 25,29.654 25,28 C25,26.346 26.346,25 28,25 C29.654,25 31,26.346 31,28 C31,29.654 29.654,31 28,31 M28,23 C25.243,23 23,25.243 23,28 C23,30.757 25.243,33 28,33 C30.757,33 33,30.757 33,28 C33,25.243 30.757,23 28,23 M6,3 C7.654,3 9,4.346 9,6 C9,7.654 7.654,9 6,9 C4.346,9 3,7.654 3,6 C3,4.346 4.346,3 6,3 M6,11 C8.757,11 11,8.757 11,6 C11,3.243 8.757,1 6,1 C3.243,1 1,3.243 1,6 C1,8.757 3.243,11 6,11" id="Fill-1"></path>
        </g>
    </g>
</svg>