<?xml version="1.0" encoding="UTF-8"?>
<svg width="80px" height="80px" viewBox="0 0 80 80" version="1.1" xmlns="http://www.w3.org/2000/svg" xmlns:xlink="http://www.w3.org/1999/xlink">
    <title>Icon-Architecture/64/Arch_Amazon-CodeCatalyst_64</title>
    <defs>
        <linearGradient x1="0%" y1="100%" x2="100%" y2="0%" id="linearGradient-1">
            <stop stop-color="#2E27AD" offset="0%"></stop>
            <stop stop-color="#527FFF" offset="100%"></stop>
        </linearGradient>
    </defs>
    <g id="Icon-Architecture/64/Arch_Amazon-CodeCatalyst_64" stroke="none" stroke-width="1" fill="none" fill-rule="evenodd">
        <g id="Icon-Architecture-BG/64/Developer-Tools" fill="url(#linearGradient-1)">
            <rect id="Rectangle" x="0" y="0" width="80" height="80"></rect>
        </g>
        <g id="Icon-Service/64/Amazon-CodeCatalyst_64" transform="translate(12.000000, 12.000000)" fill="#FFFFFF">
            <path d="M51.95,37.7 L48.262,35.164 C49.171,32.88 49.632,30.471 49.632,27.992 C49.632,25.143 49,22.308 47.798,19.74 L51.402,17.152 C53.113,20.495 54.013,24.22 54.013,27.992 C54.013,31.384 53.32,34.644 51.95,37.7 L51.95,37.7 Z M52.609,15.181 C52.469,14.936 52.23,14.762 51.954,14.701 C51.677,14.642 51.388,14.701 51.158,14.866 L45.941,18.611 C45.536,18.902 45.407,19.447 45.638,19.888 C46.961,22.407 47.632,25.133 47.632,27.992 C47.632,30.469 47.12,32.866 46.11,35.117 C45.912,35.557 46.057,36.076 46.456,36.35 L51.781,40.012 C51.949,40.127 52.147,40.187 52.347,40.187 C52.43,40.187 52.513,40.177 52.595,40.156 C52.874,40.085 53.109,39.896 53.239,39.639 C55.08,36.006 56.013,32.087 56.013,27.992 C56.013,23.5 54.836,19.07 52.609,15.181 L52.609,15.181 Z M28.04,54.012 L28.04,49.075 C34.447,49.065 40.529,46.104 44.508,41.101 L48.582,43.904 C43.673,50.243 36.07,54.002 28.04,54.012 L28.04,54.012 Z M2,28.007 C2,14.329 12.616,3.091 26.04,2.082 L26.04,7.036 C15.341,8.033 6.936,17.052 6.936,28.007 C6.936,38.961 15.341,47.981 26.04,48.977 L26.04,53.932 C12.616,52.922 2,41.685 2,28.007 L2,28.007 Z M47.719,11.052 L43.694,13.942 C39.7,9.487 34.049,6.947 28.04,6.938 L28.04,2.001 C35.657,2.01 42.769,5.294 47.719,11.052 L47.719,11.052 Z M37.858,18.131 C35.25,15.53 31.708,14.054 28.007,14.054 C20.318,14.054 14.063,20.306 14.055,27.993 L8.937,27.993 C8.945,17.484 17.496,8.937 28.007,8.937 C33.384,8.937 38.447,11.176 42.058,15.116 L37.858,18.131 Z M28.007,41.959 C32.087,41.959 35.987,40.141 38.625,37.054 L42.853,39.963 C39.244,44.434 33.77,47.076 28.007,47.076 C18.162,47.076 10.038,39.578 9.041,29.993 L14.213,29.993 C15.182,36.746 20.989,41.959 28.007,41.959 L28.007,41.959 Z M44.854,38.912 L38.99,34.879 C38.545,34.572 37.939,34.674 37.62,35.108 C35.339,38.191 31.835,39.959 28.007,39.959 C21.416,39.959 16.054,34.597 16.054,28.007 C16.054,21.416 21.416,16.054 28.007,16.054 C31.437,16.054 34.708,17.534 36.979,20.115 C37.319,20.5 37.895,20.567 38.313,20.267 L44.115,16.101 L49.754,12.053 C49.976,11.893 50.123,11.65 50.161,11.379 C50.199,11.108 50.124,10.833 49.954,10.619 C44.6,3.87 36.6,0 28.007,0 C12.563,0 0,12.564 0,28.007 C0,43.45 12.563,56.013 28.007,56.013 C37.034,56.013 45.561,51.615 50.817,44.248 C50.972,44.03 51.034,43.758 50.987,43.494 C50.941,43.23 50.791,42.995 50.569,42.844 L44.854,38.912 Z" id="Fill-1"></path>
        </g>
    </g>
</svg>