<?xml version="1.0" encoding="UTF-8"?>
<svg width="80px" height="80px" viewBox="0 0 80 80" version="1.1" xmlns="http://www.w3.org/2000/svg" xmlns:xlink="http://www.w3.org/1999/xlink">
    <title>Icon-Architecture/64/Arch_AWS-Cloud-Control-API_64</title>
    <defs>
        <linearGradient x1="0%" y1="100%" x2="100%" y2="0%" id="linearGradient-1">
            <stop stop-color="#2E27AD" offset="0%"></stop>
            <stop stop-color="#527FFF" offset="100%"></stop>
        </linearGradient>
    </defs>
    <g id="Icon-Architecture/64/Arch_AWS-Cloud-Control-API_64" stroke="none" stroke-width="1" fill="none" fill-rule="evenodd">
        <g id="Rectangle" fill="url(#linearGradient-1)">
            <rect x="0" y="0" width="80" height="80"></rect>
        </g>
        <g id="Icon-Service/64/AWS-Cloud-Control-API_64" transform="translate(8.000000, 8.000000)" fill="#FFFFFF">
            <path d="M6.05315746,38.9144987 C5.80715746,36.8904987 6.43115746,34.8654987 7.76515746,33.3584987 C9.08315746,31.8714987 10.9741575,31.0184987 12.9511575,31.0184987 L37.4571575,31.0184987 L32.1641575,36.3104987 L33.5781575,37.7254987 L40.5781575,30.7254987 C40.9691575,30.3344987 40.9691575,29.7014987 40.5781575,29.3104987 L33.5781575,22.3104987 L32.1641575,23.7254987 L37.4571575,29.0184987 L12.9511575,29.0184987 C10.4021575,29.0184987 7.96515746,30.1164987 6.26815746,32.0324987 C4.55515746,33.9674987 3.75215746,36.5634987 4.06715746,39.1554987 C4.61215746,43.6384987 8.57415746,47.0184987 13.2841575,47.0184987 L14.9511575,47.0184987 L14.9511575,45.0184987 L13.2841575,45.0184987 C9.58415746,45.0184987 6.47515746,42.3934987 6.05315746,38.9144987 M59.9991575,36.2704987 C59.9991575,46.1674987 50.0501575,47.0084987 49.9501575,47.0154987 L22.5821575,47.0174987 L27.8751575,52.3104987 L26.4611575,53.7254987 L19.4611575,46.7254987 C19.0711575,46.3344987 19.0711575,45.7014987 19.4611575,45.3104987 L26.4611575,38.3104987 L27.8751575,39.7254987 L22.5821575,45.0184987 L49.8771575,45.0184987 C50.1371575,44.9954987 57.9991575,44.2924987 57.9991575,36.2704987 C57.9991575,34.8064987 57.7251575,33.4864987 57.1851575,32.3484987 C56.4891575,30.8834987 55.3451575,29.6894987 53.7861575,28.8004987 C53.2091575,28.4714987 52.5781575,28.1864987 51.9101575,27.9544987 C51.2621575,27.7274987 50.5981575,27.5564987 49.9371575,27.4424987 C49.4001575,27.3504987 49.0351575,26.8464987 49.1161575,26.3074987 L49.1221575,26.2734987 C49.1161575,25.5114987 49.0311575,24.7964987 48.8661575,24.1484987 C48.3321575,22.0574987 46.9641575,20.6504987 45.1121575,20.2894987 C43.3181575,19.9374987 41.4431575,20.6844987 40.3351575,22.1864987 C40.1161575,22.4834987 39.7531575,22.6344987 39.3831575,22.5824987 C39.0171575,22.5274987 38.7101575,22.2754987 38.5871575,21.9254987 C37.7641575,19.5924987 36.5741575,17.6314987 35.0481575,16.0974987 C33.1751575,14.2124987 28.0321575,10.1594987 20.7781575,13.2424987 C16.5831575,15.0234987 13.2971575,20.1564987 13.2971575,24.9254987 L11.2971575,24.9254987 C11.2971575,19.3224987 15.0361575,13.5074987 19.9961575,11.4014987 C25.8111575,8.93349868 31.9671575,10.1604987 36.4661575,14.6864987 C37.8641575,16.0924987 39.0101575,17.7994987 39.8851575,19.7754987 C41.4371575,18.4964987 43.5011575,17.9364987 45.4941575,18.3264987 C48.0981575,18.8344987 50.0821575,20.8264987 50.8031575,23.6544987 C50.9621575,24.2774987 51.0621575,24.9424987 51.1021575,25.6394987 C51.5951575,25.7544987 52.0861575,25.8974987 52.5691575,26.0654987 C53.3521575,26.3384987 54.0951575,26.6744987 54.7771575,27.0634987 C56.6991575,28.1594987 58.1161575,29.6484987 58.9911575,31.4904987 C59.6601575,32.8984987 59.9991575,34.5074987 59.9991575,36.2704987" id="Fill-1"></path>
        </g>
    </g>
</svg>