<?xml version="1.0" encoding="UTF-8"?>
<svg width="80px" height="80px" viewBox="0 0 80 80" version="1.1" xmlns="http://www.w3.org/2000/svg" xmlns:xlink="http://www.w3.org/1999/xlink">
    <title>Icon-Architecture/64/Arch_Open-3D-Engine_64</title>
    <defs>
        <linearGradient x1="0%" y1="100%" x2="100%" y2="0%" id="linearGradient-1">
            <stop stop-color="#4D27A8" offset="0%"></stop>
            <stop stop-color="#A166FF" offset="100%"></stop>
        </linearGradient>
    </defs>
    <g id="Icon-Architecture/64/Arch_Open-3D-Engine_64" stroke="none" stroke-width="1" fill="none" fill-rule="evenodd">
        <g id="Rectangle" fill="url(#linearGradient-1)">
            <rect x="0" y="0" width="80" height="80"></rect>
        </g>
        <g id="Icon-Service/64/Open-3D-Engine_64" transform="translate(8.000000, 8.000000)" fill="#FFFFFF">
            <path d="M53.5,46 C54.328,46 55,45.328 55,44.5 C55,43.672 54.328,43 53.5,43 C52.672,43 52,43.672 52,44.5 C52,45.328 52.672,46 53.5,46 L53.5,46 Z M50.5,43 C51.328,43 52,42.328 52,41.5 C52,40.672 51.328,40 50.5,40 C49.672,40 49,40.672 49,41.5 C49,42.328 49.672,43 50.5,43 L50.5,43 Z M32,46 L34,46 L34,44 L36,44 L36,42 L34,42 L34,40 L32,40 L32,42 L30,42 L30,44 L32,44 L32,46 Z M58,48.274 C56.532,49.941 54.39,51 52,51 C50.778,51 49.623,50.716 48.586,50.224 C50.25,53.71 52.64,58 55,58 C56.288,58 58,57.585 58,54 L58,48.274 Z M36.414,50.224 C35.377,50.716 34.222,51 33,51 C30.61,51 28.468,49.941 27,48.274 L27.001,54 C27.001,54.461 27.001,55.539 27.415,56.47 C27.879,57.514 28.7,58 30,58 C32.36,58 34.75,53.71 36.414,50.224 L36.414,50.224 Z M27,43 C27,46.308 29.691,49 33,49 C36.309,49 39,46.308 39,43 C39,39.691 36.309,37 33,37 C29.691,37 27,39.691 27,43 L27,43 Z M44,43 C44,41.108 44.663,39.371 45.765,38 L39.235,38 C40.337,39.371 41,41.108 41,43 C41,44.061 40.788,45.072 40.411,46 L44.589,46 C44.212,45.072 44,44.061 44,43 L44,43 Z M52,37 C48.691,37 46,39.691 46,43 C46,46.308 48.691,49 52,49 C55.302,49 57.988,46.319 57.999,43.019 L57.999,43 L58,43 C58,39.691 55.309,37 52,37 L52,37 Z M60,43 C60,43.006 59.999,43.013 59.999,43.019 L60,54 C60,59.415 56.503,60 55,60 C50.804,60 47.753,53.272 45.734,48.82 C45.604,48.534 45.48,48.259 45.361,48 L39.639,48 C39.52,48.259 39.396,48.534 39.266,48.82 C37.247,53.272 34.196,60 30,60 C27.352,60 26.138,58.522 25.587,57.282 C25.001,55.963 25.001,54.537 25.001,54 L25,43 C25,38.589 28.589,35 33,35 C34.401,35 35.718,35.364 36.864,36 L48.136,36 C49.282,35.364 50.599,35 52,35 C56.411,35 60,38.589 60,43 L60,43 Z M31.673,17.763 C38.863,17.763 44.713,23.612 44.713,30.802 L46.713,30.802 C46.713,22.51 39.966,15.763 31.673,15.763 C23.38,15.763 16.634,22.51 16.634,30.802 C16.634,34.983 18.31,38.868 21.352,41.74 L22.725,40.286 C20.087,37.795 18.634,34.427 18.634,30.802 C18.634,23.612 24.483,17.763 31.673,17.763 L31.673,17.763 Z M60,26.475 L60,34 L58,34 L58,27.529 L54.207,27.727 C53.694,27.754 53.286,27.425 53.179,26.95 C52.629,24.523 51.677,22.225 50.347,20.12 C50.086,19.706 50.162,19.165 50.526,18.84 L53.064,16.575 L47.028,10.539 L44.757,13.085 C44.432,13.449 43.888,13.525 43.478,13.265 C41.371,11.936 39.076,10.985 36.654,10.436 C36.178,10.329 35.849,9.892 35.877,9.405 L36.07,6 L27.534,6 L27.728,9.402 C27.756,9.89 27.427,10.327 26.949,10.434 C24.525,10.981 22.229,11.932 20.122,13.26 C19.711,13.52 19.167,13.445 18.843,13.08 L16.575,10.539 L10.539,16.575 L13.082,18.844 C13.446,19.17 13.522,19.711 13.262,20.124 C11.93,22.232 10.976,24.529 10.428,26.95 C10.319,27.427 9.84,27.748 9.396,27.727 L6,27.534 L6,36.07 L9.387,35.876 C9.84,35.845 10.311,36.178 10.419,36.655 C10.966,39.084 11.917,41.385 13.248,43.494 C13.509,43.908 13.433,44.449 13.068,44.774 L10.54,47.029 L16.605,53.096 L20.282,49.304 L21.718,50.696 L17.334,55.217 C17.147,55.41 16.892,55.519 16.624,55.521 L16.616,55.521 C16.351,55.521 16.097,55.415 15.909,55.228 L8.377,47.695 C8.183,47.5 8.076,47.234 8.084,46.959 C8.092,46.684 8.213,46.425 8.418,46.242 L11.116,43.835 C10.035,41.978 9.215,39.996 8.669,37.921 L5.057,38.127 C4.786,38.143 4.513,38.044 4.313,37.856 C4.113,37.667 4,37.404 4,37.129 L4,26.475 C4,26.2 4.113,25.937 4.313,25.748 C4.513,25.559 4.785,25.463 5.057,25.476 L8.68,25.683 C9.227,23.615 10.048,21.637 11.13,19.783 L8.418,17.363 C8.213,17.18 8.092,16.92 8.084,16.645 C8.076,16.37 8.183,16.104 8.377,15.91 L15.909,8.377 C16.104,8.182 16.362,8.072 16.645,8.084 C16.92,8.092 17.179,8.213 17.362,8.418 L19.781,11.128 C21.635,10.049 23.613,9.23 25.684,8.685 L25.478,5.057 C25.462,4.782 25.56,4.513 25.749,4.313 C25.938,4.113 26.2,4 26.476,4 L37.129,4 C37.404,4 37.667,4.113 37.855,4.313 C38.045,4.513 38.143,4.782 38.127,5.057 L37.921,8.688 C39.989,9.234 41.966,10.054 43.818,11.133 L46.241,8.418 C46.425,8.213 46.684,8.092 46.959,8.084 C47.23,8.07 47.5,8.182 47.694,8.377 L55.228,15.91 C55.422,16.104 55.528,16.37 55.521,16.645 C55.513,16.92 55.392,17.18 55.187,17.363 L52.479,19.778 C53.56,21.632 54.381,23.613 54.929,25.687 L58.947,25.476 C59.212,25.457 59.489,25.56 59.688,25.749 C59.888,25.938 60,26.201 60,26.475 L60,26.475 Z" id="Fill-4"></path>
        </g>
    </g>
</svg>