<?xml version="1.0" encoding="UTF-8"?>
<svg width="80px" height="80px" viewBox="0 0 80 80" version="1.1" xmlns="http://www.w3.org/2000/svg" xmlns:xlink="http://www.w3.org/1999/xlink">
    <title>Icon-Architecture/64/Arch_Amazon-GameSparks_64</title>
    <defs>
        <linearGradient x1="0%" y1="100%" x2="100%" y2="0%" id="linearGradient-1">
            <stop stop-color="#4D27A8" offset="0%"></stop>
            <stop stop-color="#A166FF" offset="100%"></stop>
        </linearGradient>
    </defs>
    <g id="Icon-Architecture/64/Arch_Amazon-GameSparks_64" stroke="none" stroke-width="1" fill="none" fill-rule="evenodd">
        <g id="Rectangle" fill="url(#linearGradient-1)">
            <rect x="0" y="0" width="80" height="80"></rect>
        </g>
        <g id="Icon-Service/64/Amazon-GameSparks_64" transform="translate(8.000000, 8.000000)" fill="#FFFFFF">
            <path d="M52,44.513 C52,43.685 52.672,43.013 53.5,43.013 C54.328,43.013 55,43.685 55,44.513 C55,45.341 54.328,46.013 53.5,46.013 C52.672,46.013 52,45.341 52,44.513 L52,44.513 Z M49,41.513 C49,40.685 49.672,40.013 50.5,40.013 C51.328,40.013 52,40.685 52,41.513 C52,42.341 51.328,43.013 50.5,43.013 C49.672,43.013 49,42.341 49,41.513 L49,41.513 Z M32,44.013 L30,44.013 L30,42.013 L32,42.013 L32,40.013 L34,40.013 L34,42.013 L36,42.013 L36,44.013 L34,44.013 L34,46.013 L32,46.013 L32,44.013 Z M58,54.013 C58,57.598 56.288,58.013 55,58.013 C52.64,58.013 50.25,53.723 48.586,50.237 C49.623,50.729 50.778,51.013 52,51.013 C54.39,51.013 56.532,49.954 58,48.287 L58,54.013 Z M30,58.013 C28.7,58.013 27.879,57.527 27.415,56.483 C27.001,55.552 27.001,54.474 27.001,54.013 L27,48.287 C28.468,49.954 30.61,51.013 33,51.013 C34.222,51.013 35.377,50.729 36.414,50.237 C34.75,53.723 32.36,58.013 30,58.013 L30,58.013 Z M33,37.013 C36.309,37.013 39,39.704 39,43.013 C39,46.321 36.309,49.013 33,49.013 C29.691,49.013 27,46.321 27,43.013 C27,39.704 29.691,37.013 33,37.013 L33,37.013 Z M44.589,46.013 L40.411,46.013 C40.788,45.085 41,44.074 41,43.013 C41,41.121 40.337,39.384 39.235,38.013 L45.765,38.013 C44.663,39.384 44,41.121 44,43.013 C44,44.074 44.212,45.085 44.589,46.013 L44.589,46.013 Z M58,43.013 L57.999,43.013 L57.999,43.032 C57.988,46.332 55.302,49.013 52,49.013 C48.691,49.013 46,46.321 46,43.013 C46,39.704 48.691,37.013 52,37.013 C55.309,37.013 58,39.704 58,43.013 L58,43.013 Z M52,35.013 C50.599,35.013 49.282,35.377 48.136,36.013 L36.864,36.013 C35.718,35.377 34.401,35.013 33,35.013 C28.589,35.013 25,38.602 25,43.013 L25.001,54.013 C25.001,54.55 25.001,55.976 25.587,57.295 C26.138,58.535 27.352,60.013 30,60.013 C34.196,60.013 37.247,53.285 39.266,48.833 C39.396,48.547 39.52,48.272 39.639,48.013 L45.361,48.013 C45.48,48.272 45.604,48.547 45.734,48.833 C47.753,53.285 50.804,60.013 55,60.013 C56.503,60.013 60,59.428 60,54.013 L59.999,43.032 C59.999,43.026 60,43.019 60,43.013 C60,38.602 56.411,35.013 52,35.013 L52,35.013 Z M35.59,8.487 C36.122,9.337 36.843,10.058 37.693,10.59 C36.843,11.122 36.122,11.843 35.59,12.693 C35.058,11.843 34.337,11.122 33.486,10.59 C34.337,10.058 35.058,9.337 35.59,8.487 L35.59,8.487 Z M30,11.59 C32.531,11.59 34.59,13.649 34.59,16.18 C34.59,16.732 35.037,17.18 35.59,17.18 C36.143,17.18 36.59,16.732 36.59,16.18 C36.59,13.649 38.648,11.59 41.18,11.59 C41.732,11.59 42.18,11.142 42.18,10.59 C42.18,10.038 41.732,9.59 41.18,9.59 C38.648,9.59 36.59,7.531 36.59,5 C36.59,4.448 36.143,4 35.59,4 C35.037,4 34.59,4.448 34.59,5 C34.59,7.531 32.531,9.59 30,9.59 C29.447,9.59 29,10.038 29,10.59 C29,11.142 29.447,11.59 30,11.59 L30,11.59 Z M17.75,36.182 C16.306,32.354 13.415,29.261 9.859,27.753 C13.415,26.244 16.306,23.152 17.75,19.323 C19.194,23.152 22.085,26.244 25.641,27.753 C22.085,29.261 19.194,32.354 17.75,36.182 L17.75,36.182 Z M31.5,27.753 C31.5,27.2 31.053,26.753 30.5,26.753 C24.131,26.753 18.75,20.841 18.75,13.843 C18.75,13.291 18.303,12.843 17.75,12.843 C17.197,12.843 16.75,13.291 16.75,13.843 C16.75,20.841 11.369,26.753 5,26.753 C4.447,26.753 4,27.2 4,27.753 C4,28.305 4.447,28.753 5,28.753 C11.369,28.753 16.75,34.664 16.75,41.662 C16.75,42.214 17.197,42.662 17.75,42.662 C18.303,42.662 18.75,42.214 18.75,41.662 C18.75,34.664 24.131,28.753 30.5,28.753 C31.053,28.753 31.5,28.305 31.5,27.753 L31.5,27.753 Z M51.777,18.403 C52.543,19.811 53.705,20.973 55.114,21.739 C53.705,22.505 52.543,23.667 51.777,25.075 C51.012,23.667 49.85,22.505 48.441,21.739 C49.85,20.973 51.012,19.811 51.777,18.403 L51.777,18.403 Z M44.5,22.739 C47.961,22.739 50.777,25.555 50.777,29.017 C50.777,29.569 51.225,30.017 51.777,30.017 C52.33,30.017 52.777,29.569 52.777,29.017 C52.777,25.555 55.594,22.739 59.056,22.739 C59.608,22.739 60.056,22.291 60.056,21.739 C60.056,21.187 59.608,20.739 59.056,20.739 C55.594,20.739 52.777,17.923 52.777,14.461 C52.777,13.909 52.33,13.461 51.777,13.461 C51.225,13.461 50.777,13.909 50.777,14.461 C50.777,17.923 47.961,20.739 44.5,20.739 C43.947,20.739 43.5,21.187 43.5,21.739 C43.5,22.291 43.947,22.739 44.5,22.739 L44.5,22.739 Z" id="Fill-1"></path>
        </g>
    </g>
</svg>