<?xml version="1.0" encoding="UTF-8"?>
<svg width="80px" height="80px" viewBox="0 0 80 80" version="1.1" xmlns="http://www.w3.org/2000/svg" xmlns:xlink="http://www.w3.org/1999/xlink">
    <title>Icon-Architecture/64/Arch_AWS-GameKit_64</title>
    <g id="Icon-Architecture/64/Arch_AWS-GameKit_64" stroke="none" stroke-width="1" fill="none" fill-rule="evenodd">
        <g id="Icon-Architecture-BG/64/Game-Tech" fill="#8C4FFF">
            <rect id="Rectangle" x="0" y="0" width="80" height="80"></rect>
        </g>
        <g id="Icon-Service/64/AWS-GameKit_64" transform="translate(13.000000, 17.000000)" fill="#FFFFFF">
            <path d="M47,35.51 C47,34.682 47.672,34.01 48.5,34.01 C49.328,34.01 50,34.682 50,35.51 C50,36.338 49.328,37.01 48.5,37.01 C47.672,37.01 47,36.338 47,35.51 L47,35.51 Z M44,32.51 C44,31.682 44.672,31.01 45.5,31.01 C46.328,31.01 47,31.682 47,32.51 C47,33.338 46.328,34.01 45.5,34.01 C44.672,34.01 44,33.338 44,32.51 L44,32.51 Z M27,35.01 L25,35.01 L25,33.01 L27,33.01 L27,31.01 L29,31.01 L29,33.01 L31,33.01 L31,35.01 L29,35.01 L29,37.01 L27,37.01 L27,35.01 Z M53,45.01 C53,48.595 51.288,49.01 50,49.01 C47.64,49.01 45.25,44.72 43.586,41.234 C44.623,41.726 45.778,42.01 47,42.01 C49.39,42.01 51.532,40.951 53,39.284 L53,45.01 Z M25,49.01 C23.7,49.01 22.879,48.524 22.415,47.48 C22.001,46.549 22.001,45.471 22.001,45.01 L22,39.284 C23.468,40.951 25.61,42.01 28,42.01 C29.222,42.01 30.377,41.726 31.414,41.234 C29.75,44.72 27.36,49.01 25,49.01 L25,49.01 Z M28,28.01 C31.309,28.01 34,30.701 34,34.01 C34,37.318 31.309,40.01 28,40.01 C24.691,40.01 22,37.318 22,34.01 C22,30.701 24.691,28.01 28,28.01 L28,28.01 Z M39.589,37.01 L35.411,37.01 C35.788,36.082 36,35.071 36,34.01 C36,32.118 35.337,30.381 34.235,29.01 L40.765,29.01 C39.663,30.381 39,32.118 39,34.01 C39,35.071 39.212,36.082 39.589,37.01 L39.589,37.01 Z M53,34.01 L52.999,34.01 L52.999,34.029 C52.988,37.329 50.302,40.01 47,40.01 C43.691,40.01 41,37.318 41,34.01 C41,30.701 43.691,28.01 47,28.01 C50.309,28.01 53,30.701 53,34.01 L53,34.01 Z M55,34.01 C55,29.599 51.411,26.01 47,26.01 C45.599,26.01 44.282,26.374 43.136,27.01 L31.864,27.01 C30.718,26.374 29.401,26.01 28,26.01 C23.589,26.01 20,29.599 20,34.01 L20.001,45.01 C20.001,45.547 20.001,46.973 20.587,48.292 C21.138,49.532 22.352,51.01 25,51.01 C29.196,51.01 32.247,44.282 34.266,39.83 C34.396,39.544 34.52,39.269 34.639,39.01 L40.361,39.01 C40.48,39.269 40.604,39.544 40.734,39.83 C42.753,44.282 45.804,51.01 50,51.01 C51.503,51.01 55,50.425 55,45.01 L54.999,34.029 C54.999,34.023 55,34.016 55,34.01 L55,34.01 Z M7.713,9 L46.287,9 L52,13.486 L52,16 L44,16 L44,13 C44,12.447 43.553,12 43,12 L38,12 C37.447,12 37,12.447 37,13 L37,16 L17,16 L17,13 C17,12.447 16.553,12 16,12 L11,12 C10.447,12 10,12.447 10,13 L10,16 L1.999,16 L2,13.486 L7.713,9 Z M16,2.058 L16,2 L37.836,2 C37.941,2 37.995,2.06 38,2.074 L38,7 L16,7 L16,2.058 Z M39,21 L42,21 L42,14 L39,14 L39,21 Z M15,21 L12,21 L12,18 L12,16 L12,14 L15,14 L15,21 Z M2.999,34.685 L2.999,18 L10,18 L10,22 C10,22.552 10.447,23 11,23 L16,23 C16.553,23 17,22.552 17,22 L17,18 L37,18 L37,22 C37,22.552 37.447,23 38,23 L43,23 C43.553,23 44,22.552 44,22 L44,18 L51,18 L51,25 L53,25 L53,19.001 C53.553,19.001 54,18.553 54,18.001 L54,13 C54,12.692 53.859,12.403 53.617,12.213 L47.25,7.213 C47.074,7.075 46.856,7 46.633,7 L40,7 L40,2.074 C40,0.93 39.029,-3.55271368e-15 37.836,-3.55271368e-15 L15.634,-3.55271368e-15 C14.937,-3.55271368e-15 14.398,0.338 14.155,0.928 C14,1.303 14,1.687 14,2.074 L14,7 L7.367,7 C7.144,7 6.926,7.075 6.75,7.213 L0.383,12.213 C0.141,12.403 0,12.692 0,13 L0,18 C0,18.551 0.447,18.999 0.999,19 L0.999,34.685 C0.999,36.513 2.486,38 4.313,38 L17.999,38 L17.999,36 L4.313,36 C3.589,36 2.999,35.41 2.999,34.685 L2.999,34.685 Z" id="Fill-8"></path>
        </g>
    </g>
</svg>