<svg width="80" height="80" viewBox="0 0 80 80" fill="none" xmlns="http://www.w3.org/2000/svg">
<rect width="80" height="80" fill="#8C4FFF"/>
<path d="M60 43C58.5989 43 57.2822 43.3644 56.1356 44H44.8644C43.7178 43.3644 42.4011 43 41 43C36.5889 43 33 46.5889 33 51V62C33 67.4155 36.4971 68 38 68C42.1963 68 45.2471 61.2725 47.2656 56.8203C47.3955 56.5337 47.5195 56.2593 47.6387 56H53.3613C53.4805 56.2593 53.6045 56.5337 53.7344 56.8203C55.7529 61.2725 58.8037 68 63 68C64.5029 68 68 67.4155 68 62V51C68 46.5889 64.4111 43 60 43ZM52.589 54H48.411C48.7878 53.0726 49 52.0612 49 51C49 49.1085 48.3367 47.371 47.2351 46H53.7649C52.6633 47.371 52 49.1085 52 51C52 52.0612 52.2122 53.0726 52.589 54ZM41 45C44.3086 45 47 47.6914 47 51C47 54.3086 44.3086 57 41 57C37.6914 57 35 54.3086 35 51C35 47.6914 37.6914 45 41 45ZM38 66C36.7119 66 35 65.5854 35 62V56.2737C36.4673 57.9409 38.6099 59 41 59C42.2222 59 43.3766 58.7164 44.4137 58.2242C42.7495 61.7097 40.3604 66 38 66ZM66 62C66 65.5854 64.2881 66 63 66C60.6397 66 58.2505 61.7097 56.5863 58.2242C57.6234 58.7164 58.7778 59 60 59C62.3901 59 64.5327 57.9409 66 56.2737V62ZM60 57C56.6914 57 54 54.3086 54 51C54 47.6914 56.6914 45 60 45C63.3086 45 66 47.6914 66 51C66 54.3086 63.3086 57 60 57ZM40 52H38V50H40V48H42V50H44V52H42V54H40V52ZM60 49.5C60 50.3284 59.3284 51 58.5 51C57.6716 51 57 50.3284 57 49.5C57 48.6716 57.6716 48 58.5 48C59.3284 48 60 48.6716 60 49.5ZM63 52.5C63 53.3284 62.3284 54 61.5 54C60.6716 54 60 53.3284 60 52.5C60 51.6716 60.6716 51 61.5 51C62.3284 51 63 51.6716 63 52.5ZM34.5 41C42.4951 41 49 34.4951 49 26.5C49 18.5049 42.4951 12 34.5 12C26.5049 12 20 18.5049 20 26.5C20 34.4951 26.5049 41 34.5 41ZM34.5 14C41.3926 14 47 19.6074 47 26.5C47 33.3926 41.3926 39 34.5 39C27.6074 39 22 33.3926 22 26.5C22 19.6074 27.6074 14 34.5 14ZM57 28.5C57 27.1132 56.48 25.8483 55.63 24.8799L57.1316 23.5629C58.2909 24.8835 59 26.6086 59 28.5C59 28.7549 58.9853 29.0127 58.958 29.2724C64.1807 30.4077 68 35.0615 68 40.5C68 41.8133 67.7678 43.0708 67.3606 44.2474C66.8636 43.706 66.3125 43.2166 65.708 42.7952C65.8917 42.0587 66 41.2927 66 40.5C66 35.7158 62.4209 31.6665 57.6748 31.081C57.3896 31.0459 57.1338 30.8901 56.9717 30.6538C56.8096 30.4175 56.7568 30.1225 56.8271 29.8447C56.9414 29.3877 57 28.9356 57 28.5ZM28 50H31.0505C31.0178 50.329 31 50.6624 31 51V52H28V50ZM23.5 50H26V52H23.5C17.1592 52 12 46.8413 12 40.5C12 36.0378 14.5777 32.0797 18.4298 30.1859C18.5831 30.8541 18.7816 31.5037 19.0135 32.1384C15.9985 33.7567 14 36.9312 14 40.5C14 45.7383 18.2617 50 23.5 50ZM50.636 23.0695C50.4961 22.4108 50.3064 21.7717 50.0902 21.1443C50.5518 21.0558 51.0215 21 51.5 21C52.535 21 53.5217 21.2109 54.4194 21.5917L53.6396 23.4334C52.9816 23.1544 52.2584 23 51.5 23C51.208 23 50.9197 23.0244 50.636 23.0695ZM29.4746 33.3506C29.6348 33.4497 29.8174 33.5 30 33.5C30.1533 33.5 30.3057 33.4648 30.4473 33.3945L42.4473 27.3945C42.7861 27.2251 43 26.8789 43 26.5C43 26.1211 42.7861 25.7749 42.4473 25.6055L30.4473 19.6055C30.1367 19.4517 29.7695 19.4668 29.4746 19.6494C29.1797 19.8315 29 20.1533 29 20.5V32.5C29 32.8467 29.1797 33.1685 29.4746 33.3506ZM31 22.1182L39.7637 26.5L31 30.8818V22.1182Z" fill="white"/>
</svg>
