<?xml version="1.0" encoding="UTF-8"?>
<svg width="80px" height="80px" viewBox="0 0 80 80" version="1.1" xmlns="http://www.w3.org/2000/svg" xmlns:xlink="http://www.w3.org/1999/xlink">
    <title>Icon-Architecture/64/Arch_Amazon-GameSparks_64</title>
    <g id="Icon-Architecture/64/Arch_Amazon-GameSparks_64" stroke="none" stroke-width="1" fill="none" fill-rule="evenodd">
        <g id="Icon-Architecture-BG/64/Game-Tech" fill="#8C4FFF">
            <rect id="Rectangle" x="0" y="0" width="80" height="80"></rect>
        </g>
        <g id="Icon-Service/64/Amazon-GameSparks_64" transform="translate(12.000000, 12.000000)" fill="#FFFFFF">
            <path d="M48,40.513 C48,39.685 48.672,39.013 49.5,39.013 C50.328,39.013 51,39.685 51,40.513 C51,41.341 50.328,42.013 49.5,42.013 C48.672,42.013 48,41.341 48,40.513 L48,40.513 Z M45,37.513 C45,36.685 45.672,36.013 46.5,36.013 C47.328,36.013 48,36.685 48,37.513 C48,38.341 47.328,39.013 46.5,39.013 C45.672,39.013 45,38.341 45,37.513 L45,37.513 Z M28,40.013 L26,40.013 L26,38.013 L28,38.013 L28,36.013 L30,36.013 L30,38.013 L32,38.013 L32,40.013 L30,40.013 L30,42.013 L28,42.013 L28,40.013 Z M54,50.013 C54,53.598 52.288,54.013 51,54.013 C48.64,54.013 46.25,49.723 44.586,46.237 C45.623,46.729 46.778,47.013 48,47.013 C50.39,47.013 52.532,45.954 54,44.287 L54,50.013 Z M26,54.013 C24.7,54.013 23.879,53.527 23.415,52.483 C23.001,51.552 23.001,50.474 23.001,50.013 L23,44.287 C24.468,45.954 26.61,47.013 29,47.013 C30.222,47.013 31.377,46.729 32.414,46.237 C30.75,49.723 28.36,54.013 26,54.013 L26,54.013 Z M29,33.013 C32.309,33.013 35,35.704 35,39.013 C35,42.321 32.309,45.013 29,45.013 C25.691,45.013 23,42.321 23,39.013 C23,35.704 25.691,33.013 29,33.013 L29,33.013 Z M40.589,42.013 L36.411,42.013 C36.788,41.085 37,40.074 37,39.013 C37,37.121 36.337,35.384 35.235,34.013 L41.765,34.013 C40.663,35.384 40,37.121 40,39.013 C40,40.074 40.212,41.085 40.589,42.013 L40.589,42.013 Z M54,39.013 L53.999,39.013 L53.999,39.032 C53.988,42.332 51.302,45.013 48,45.013 C44.691,45.013 42,42.321 42,39.013 C42,35.704 44.691,33.013 48,33.013 C51.309,33.013 54,35.704 54,39.013 L54,39.013 Z M48,31.013 C46.599,31.013 45.282,31.377 44.136,32.013 L32.864,32.013 C31.718,31.377 30.401,31.013 29,31.013 C24.589,31.013 21,34.602 21,39.013 L21.001,50.013 C21.001,50.55 21.001,51.976 21.587,53.295 C22.138,54.535 23.352,56.013 26,56.013 C30.196,56.013 33.247,49.285 35.266,44.833 C35.396,44.547 35.52,44.272 35.639,44.013 L41.361,44.013 C41.48,44.272 41.604,44.547 41.734,44.833 C43.753,49.285 46.804,56.013 51,56.013 C52.503,56.013 56,55.428 56,50.013 L55.999,39.032 C55.999,39.026 56,39.019 56,39.013 C56,34.602 52.411,31.013 48,31.013 L48,31.013 Z M31.59,4.487 C32.122,5.337 32.843,6.058 33.693,6.59 C32.843,7.122 32.122,7.843 31.59,8.693 C31.058,7.843 30.337,7.122 29.486,6.59 C30.337,6.058 31.058,5.337 31.59,4.487 L31.59,4.487 Z M26,7.59 C28.531,7.59 30.59,9.649 30.59,12.18 C30.59,12.732 31.037,13.18 31.59,13.18 C32.143,13.18 32.59,12.732 32.59,12.18 C32.59,9.649 34.648,7.59 37.18,7.59 C37.732,7.59 38.18,7.142 38.18,6.59 C38.18,6.038 37.732,5.59 37.18,5.59 C34.648,5.59 32.59,3.531 32.59,1 C32.59,0.448 32.143,-3.55271368e-15 31.59,-3.55271368e-15 C31.037,-3.55271368e-15 30.59,0.448 30.59,1 C30.59,3.531 28.531,5.59 26,5.59 C25.447,5.59 25,6.038 25,6.59 C25,7.142 25.447,7.59 26,7.59 L26,7.59 Z M13.75,32.182 C12.306,28.354 9.415,25.261 5.859,23.753 C9.415,22.244 12.306,19.152 13.75,15.323 C15.194,19.152 18.085,22.244 21.641,23.753 C18.085,25.261 15.194,28.354 13.75,32.182 L13.75,32.182 Z M27.5,23.753 C27.5,23.2 27.053,22.753 26.5,22.753 C20.131,22.753 14.75,16.841 14.75,9.843 C14.75,9.291 14.303,8.843 13.75,8.843 C13.197,8.843 12.75,9.291 12.75,9.843 C12.75,16.841 7.369,22.753 1,22.753 C0.447,22.753 0,23.2 0,23.753 C0,24.305 0.447,24.753 1,24.753 C7.369,24.753 12.75,30.664 12.75,37.662 C12.75,38.214 13.197,38.662 13.75,38.662 C14.303,38.662 14.75,38.214 14.75,37.662 C14.75,30.664 20.131,24.753 26.5,24.753 C27.053,24.753 27.5,24.305 27.5,23.753 L27.5,23.753 Z M47.777,14.403 C48.543,15.811 49.705,16.973 51.114,17.739 C49.705,18.505 48.543,19.667 47.777,21.075 C47.012,19.667 45.85,18.505 44.441,17.739 C45.85,16.973 47.012,15.811 47.777,14.403 L47.777,14.403 Z M40.5,18.739 C43.961,18.739 46.777,21.555 46.777,25.017 C46.777,25.569 47.225,26.017 47.777,26.017 C48.33,26.017 48.777,25.569 48.777,25.017 C48.777,21.555 51.594,18.739 55.056,18.739 C55.608,18.739 56.056,18.291 56.056,17.739 C56.056,17.187 55.608,16.739 55.056,16.739 C51.594,16.739 48.777,13.923 48.777,10.461 C48.777,9.909 48.33,9.461 47.777,9.461 C47.225,9.461 46.777,9.909 46.777,10.461 C46.777,13.923 43.961,16.739 40.5,16.739 C39.947,16.739 39.5,17.187 39.5,17.739 C39.5,18.291 39.947,18.739 40.5,18.739 L40.5,18.739 Z" id="Fill-1"></path>
        </g>
    </g>
</svg>