<?xml version="1.0" encoding="UTF-8"?>
<svg xmlns="http://www.w3.org/2000/svg" xmlns:xlink="http://www.w3.org/1999/xlink" width="64" height="64" viewBox="0 0 64 64">
<path fill-rule="evenodd" fill="rgb(0.392157%, 65.882355%, 55.29412%)" fill-opacity="1" d="M 20 32 C 20 38.617188 25.382812 44 32 44 C 38.617188 44 44 38.617188 44 32 C 44 25.382812 38.617188 20 32 20 C 25.382812 20 20 25.382812 20 32 Z M 22.621094 43.265625 L 4.941406 60.941406 L 3.058594 59.058594 L 20.734375 41.378906 C 18.613281 38.832031 17.332031 35.5625 17.332031 32 C 17.332031 23.914062 23.914062 17.332031 32 17.332031 C 40.085938 17.332031 46.667969 23.914062 46.667969 32 C 46.667969 40.085938 40.085938 46.667969 32 46.667969 C 28.4375 46.667969 25.167969 45.386719 22.621094 43.265625 Z M 32 27.550781 L 37.058594 32.609375 L 38.941406 30.722656 L 32.941406 24.722656 C 32.421875 24.203125 31.578125 24.203125 31.058594 24.722656 L 25.058594 30.722656 L 26.941406 32.609375 Z M 32 34.21875 L 37.058594 39.277344 L 38.941406 37.390625 L 32.941406 31.390625 C 32.421875 30.871094 31.578125 30.871094 31.058594 31.390625 L 25.058594 37.390625 L 26.941406 39.277344 Z M 61.332031 27.332031 L 61.332031 36.667969 C 61.332031 38.046875 60.210938 39.167969 58.832031 39.167969 L 54.996094 39.167969 C 54.5625 40.550781 54.003906 41.898438 53.324219 43.1875 L 56.042969 45.90625 C 56.515625 46.378906 56.773438 47.007812 56.773438 47.675781 C 56.773438 48.339844 56.515625 48.96875 56.042969 49.441406 L 49.441406 56.042969 C 48.496094 56.984375 46.851562 56.988281 45.90625 56.042969 L 43.1875 53.324219 C 41.894531 54.003906 40.550781 54.5625 39.167969 54.996094 L 39.167969 58.832031 C 39.167969 60.210938 38.046875 61.332031 36.667969 61.332031 L 27.332031 61.332031 C 25.953125 61.332031 24.832031 60.210938 24.832031 58.832031 L 24.832031 54.996094 C 23.449219 54.5625 22.105469 54.003906 20.8125 53.324219 L 18.09375 56.042969 C 17.148438 56.988281 15.503906 56.984375 14.558594 56.042969 L 14.121094 55.605469 L 16.003906 53.71875 L 16.324219 54.039062 L 19.636719 50.730469 C 20.0625 50.300781 20.726562 50.214844 21.25 50.519531 C 22.90625 51.484375 24.675781 52.21875 26.507812 52.703125 C 27.09375 52.855469 27.5 53.386719 27.5 53.992188 L 27.5 58.667969 L 36.5 58.667969 L 36.5 53.992188 C 36.5 53.386719 36.90625 52.855469 37.492188 52.703125 C 39.324219 52.21875 41.09375 51.484375 42.75 50.519531 C 43.273438 50.214844 43.9375 50.300781 44.363281 50.730469 L 47.675781 54.039062 L 54.039062 47.675781 L 50.730469 44.363281 C 50.300781 43.9375 50.214844 43.273438 50.519531 42.75 C 51.484375 41.097656 52.21875 39.328125 52.703125 37.492188 C 52.859375 36.90625 53.386719 36.5 53.992188 36.5 L 58.667969 36.5 L 58.667969 27.5 L 53.992188 27.5 C 53.386719 27.5 52.859375 27.09375 52.703125 26.507812 C 52.21875 24.671875 51.484375 22.902344 50.519531 21.25 C 50.214844 20.726562 50.300781 20.0625 50.730469 19.636719 L 54.039062 16.328125 L 47.675781 9.960938 L 44.363281 13.269531 C 43.9375 13.699219 43.273438 13.785156 42.75 13.480469 C 41.09375 12.515625 39.324219 11.78125 37.492188 11.296875 C 36.90625 11.144531 36.5 10.613281 36.5 10.007812 L 36.5 5.332031 L 27.5 5.332031 L 27.5 10.007812 C 27.5 10.613281 27.09375 11.144531 26.507812 11.296875 C 24.675781 11.78125 22.90625 12.515625 21.25 13.480469 C 20.726562 13.785156 20.0625 13.699219 19.636719 13.269531 L 16.324219 9.960938 L 9.960938 16.324219 L 13.269531 19.636719 C 13.699219 20.0625 13.785156 20.726562 13.480469 21.25 C 12.515625 22.902344 11.78125 24.671875 11.296875 26.507812 C 11.140625 27.09375 10.613281 27.5 10.007812 27.5 L 5.332031 27.5 L 5.332031 36.5 L 10.007812 36.5 C 10.613281 36.5 11.140625 36.90625 11.296875 37.492188 C 11.78125 39.328125 12.515625 41.097656 13.480469 42.75 C 13.785156 43.273438 13.699219 43.9375 13.269531 44.363281 L 9.960938 47.671875 L 10.308594 48.019531 L 8.421875 49.90625 L 7.957031 49.441406 C 7.484375 48.96875 7.226562 48.339844 7.226562 47.675781 C 7.226562 47.007812 7.484375 46.378906 7.957031 45.90625 L 10.675781 43.1875 C 9.996094 41.898438 9.4375 40.550781 9.003906 39.167969 L 5.167969 39.167969 C 3.789062 39.167969 2.667969 38.046875 2.667969 36.667969 L 2.667969 27.332031 C 2.667969 25.953125 3.789062 24.832031 5.167969 24.832031 L 9.003906 24.832031 C 9.4375 23.449219 9.996094 22.101562 10.675781 20.8125 L 7.957031 18.09375 C 7.484375 17.621094 7.226562 16.992188 7.226562 16.324219 C 7.226562 15.660156 7.484375 15.03125 7.957031 14.558594 L 14.558594 7.957031 C 15.503906 7.011719 17.148438 7.011719 18.09375 7.957031 L 20.8125 10.675781 C 22.105469 9.996094 23.449219 9.4375 24.832031 9.003906 L 24.832031 5.167969 C 24.832031 3.789062 25.953125 2.667969 27.332031 2.667969 L 36.667969 2.667969 C 38.046875 2.667969 39.167969 3.789062 39.167969 5.167969 L 39.167969 9.003906 C 40.550781 9.4375 41.894531 9.996094 43.1875 10.675781 L 45.90625 7.957031 C 46.851562 7.011719 48.496094 7.011719 49.441406 7.957031 L 56.042969 14.558594 C 56.515625 15.03125 56.773438 15.660156 56.773438 16.324219 C 56.773438 16.992188 56.515625 17.621094 56.042969 18.09375 L 53.324219 20.8125 C 54.003906 22.101562 54.5625 23.449219 54.996094 24.832031 L 58.832031 24.832031 C 60.210938 24.832031 61.332031 25.953125 61.332031 27.332031 Z M 61.332031 27.332031 "/>
</svg>
