<?xml version="1.0" encoding="UTF-8"?>
<svg xmlns="http://www.w3.org/2000/svg" xmlns:xlink="http://www.w3.org/1999/xlink" width="64" height="64" viewBox="0 0 64 64">
<path fill-rule="evenodd" fill="rgb(0.392157%, 65.882355%, 55.29412%)" fill-opacity="1" d="M 40.371094 53.109375 C 40.371094 52.464844 40.253906 51.980469 40.019531 51.644531 C 39.78125 51.3125 39.441406 51.148438 38.996094 51.148438 L 37.875 51.148438 L 37.875 55.070312 L 38.996094 55.070312 C 39.441406 55.070312 39.78125 54.90625 40.019531 54.570312 C 40.253906 54.238281 40.371094 53.75 40.371094 53.109375 Z M 41.808594 50.363281 C 42.433594 51.035156 42.746094 51.949219 42.746094 53.109375 C 42.746094 54.269531 42.433594 55.183594 41.808594 55.855469 C 41.183594 56.523438 40.34375 56.859375 39.285156 56.859375 L 37.875 56.859375 L 37.875 61.285156 L 35.519531 61.285156 L 35.519531 49.355469 L 39.285156 49.355469 C 40.34375 49.355469 41.183594 49.691406 41.808594 50.363281 Z M 26.035156 51.265625 L 28.890625 51.265625 L 28.890625 61.285156 L 31.300781 61.285156 L 31.300781 51.265625 L 34.15625 51.265625 L 34.15625 49.355469 L 26.035156 49.355469 Z M 18.824219 61.285156 L 21.230469 61.285156 L 21.230469 56.257812 L 24.210938 56.257812 L 24.210938 54.414062 L 21.230469 54.414062 L 21.230469 51.199219 L 25.035156 51.199219 L 25.035156 49.355469 L 18.824219 49.355469 Z M 60.777344 14.53125 L 49.300781 3.058594 C 48.78125 2.535156 47.9375 2.535156 47.417969 3.058594 L 35.941406 14.53125 C 35.5625 14.914062 35.445312 15.484375 35.652344 15.984375 C 35.859375 16.484375 36.347656 16.808594 36.886719 16.808594 L 42.722656 16.808594 L 42.722656 32.683594 C 42.722656 33.421875 43.320312 34.015625 44.058594 34.015625 L 48.007812 34.015625 L 39.753906 42.273438 L 31.5 34.015625 L 35.453125 34.015625 C 36.1875 34.015625 36.785156 33.421875 36.785156 32.683594 L 36.785156 22.644531 L 34.117188 22.644531 L 34.117188 31.351562 L 28.28125 31.351562 C 27.742188 31.351562 27.253906 31.675781 27.050781 32.171875 C 26.84375 32.671875 26.957031 33.246094 27.339844 33.625 L 38.8125 45.101562 C 39.0625 45.351562 39.398438 45.492188 39.753906 45.492188 C 40.109375 45.492188 40.445312 45.351562 40.695312 45.101562 L 52.171875 33.625 C 52.550781 33.246094 52.667969 32.671875 52.460938 32.171875 C 52.253906 31.675781 51.765625 31.351562 51.226562 31.351562 L 45.390625 31.351562 L 45.390625 15.472656 C 45.390625 14.738281 44.792969 14.140625 44.058594 14.140625 L 40.105469 14.140625 L 48.359375 5.886719 L 56.613281 14.140625 L 52.660156 14.140625 C 51.925781 14.140625 51.328125 14.738281 51.328125 15.472656 L 51.328125 25.613281 L 48.359375 25.613281 L 48.359375 28.28125 L 55.632812 28.28125 L 55.632812 58.601562 L 44.464844 58.601562 L 44.464844 61.265625 L 56.964844 61.265625 C 57.703125 61.265625 58.296875 60.671875 58.296875 59.933594 L 58.296875 26.945312 C 58.296875 26.210938 57.703125 25.613281 56.964844 25.613281 L 53.996094 25.613281 L 53.996094 16.808594 L 59.832031 16.808594 C 60.371094 16.808594 60.859375 16.484375 61.066406 15.984375 C 61.273438 15.484375 61.15625 14.914062 60.777344 14.53125 Z M 12.101562 58.601562 L 15.375 58.601562 L 15.375 61.265625 L 8.203125 61.265625 C 5.886719 61.265625 4 59.382812 4 57.066406 L 4 16.90625 C 4 16.171875 4.597656 15.574219 5.332031 15.574219 L 21.21875 15.574219 C 21.632812 15.574219 22.023438 15.765625 22.273438 16.09375 L 25.195312 19.878906 L 31.148438 19.878906 L 31.148438 22.542969 L 24.539062 22.542969 C 24.128906 22.542969 23.738281 22.351562 23.484375 22.027344 L 20.5625 18.242188 L 6.667969 18.242188 L 6.667969 57.066406 C 6.667969 57.910156 7.355469 58.601562 8.203125 58.601562 C 9.046875 58.601562 9.738281 57.910156 9.738281 57.066406 L 9.738281 26.945312 C 9.738281 26.210938 10.332031 25.613281 11.070312 25.613281 L 31.148438 25.613281 L 31.148438 28.28125 L 12.402344 28.28125 L 12.402344 57.066406 C 12.402344 57.609375 12.292969 58.125 12.101562 58.601562 Z M 12.101562 58.601562 "/>
</svg>
