<?xml version="1.0" encoding="UTF-8"?>
<svg xmlns="http://www.w3.org/2000/svg" xmlns:xlink="http://www.w3.org/1999/xlink" width="64" height="64" viewBox="0 0 64 64">
<path fill-rule="evenodd" fill="rgb(0.392157%, 65.882355%, 55.29412%)" fill-opacity="1" d="M 38.324219 16 L 29.789062 22.667969 L 38.324219 29.332031 L 52.898438 29.332031 L 61.429688 22.667969 L 52.898438 16 Z M 34.121094 22.667969 L 39.242188 18.667969 L 51.980469 18.667969 L 57.097656 22.667969 L 51.980469 26.667969 L 39.242188 26.667969 Z M 10.667969 18.667969 L 29.332031 18.667969 L 29.332031 16 L 10.667969 16 Z M 4 24 L 25.332031 24 L 25.332031 21.332031 L 4 21.332031 Z M 16 29.332031 L 30.667969 29.332031 L 30.667969 26.667969 L 16 26.667969 Z M 30.324219 36 L 21.789062 42.667969 L 30.324219 49.332031 L 44.898438 49.332031 L 53.429688 42.667969 L 44.898438 36 Z M 26.121094 42.667969 L 31.242188 38.667969 L 43.980469 38.667969 L 49.101562 42.667969 L 43.980469 46.667969 L 31.242188 46.667969 Z M 12 38.667969 L 22.667969 38.667969 L 22.667969 36 L 12 36 Z M 2.667969 44 L 17.332031 44 L 17.332031 41.332031 L 2.667969 41.332031 Z M 6.667969 49.332031 L 22.667969 49.332031 L 22.667969 46.667969 L 6.667969 46.667969 Z M 6.667969 49.332031 "/>
</svg>
