<?xml version="1.0" encoding="UTF-8"?>
<svg xmlns="http://www.w3.org/2000/svg" xmlns:xlink="http://www.w3.org/1999/xlink" width="64" height="64" viewBox="0 0 64 64">
<path fill-rule="evenodd" fill="rgb(0.392157%, 65.882355%, 55.29412%)" fill-opacity="1" d="M 17.34375 37.382812 L 17.34375 13.382812 L 25.34375 13.382812 L 25.34375 20.050781 C 25.34375 20.785156 25.941406 21.382812 26.675781 21.382812 L 33.34375 21.382812 L 33.34375 37.382812 Z M 28.011719 15.269531 L 31.457031 18.714844 L 28.011719 18.714844 Z M 26.675781 10.714844 L 16.011719 10.714844 C 15.273438 10.714844 14.675781 11.3125 14.675781 12.050781 L 14.675781 38.714844 C 14.675781 39.453125 15.273438 40.050781 16.011719 40.050781 L 34.675781 40.050781 C 35.414062 40.050781 36.011719 39.453125 36.011719 38.714844 L 36.011719 20.050781 C 36.011719 19.695312 35.871094 19.355469 35.621094 19.105469 L 27.621094 11.105469 C 27.371094 10.855469 27.03125 10.714844 26.675781 10.714844 Z M 44.011719 16.050781 L 61.34375 16.050781 L 61.34375 13.382812 L 44.011719 13.382812 Z M 38.675781 21.382812 L 49.34375 21.382812 L 49.34375 18.714844 L 38.675781 18.714844 Z M 52.011719 21.382812 L 58.675781 21.382812 L 58.675781 18.714844 L 52.011719 18.714844 Z M 41.34375 26.714844 L 60.011719 26.714844 L 60.011719 24.050781 L 41.34375 24.050781 Z M 57.453125 57.488281 C 55.929688 59.03125 53.324219 59.082031 51.851562 57.59375 L 37.859375 43.429688 C 40.011719 41.746094 41.863281 39.65625 43.289062 37.253906 L 57.5625 51.773438 C 59.085938 53.320312 59.039062 55.886719 57.453125 57.488281 Z M 44.558594 34.742188 C 45.109375 33.476562 45.5625 32.15625 45.886719 30.773438 L 43.289062 30.167969 C 41.371094 38.40625 34.613281 44.460938 26.480469 45.238281 C 15.90625 46.246094 6.476562 38.132812 5.425781 27.15625 C 4.378906 16.179688 12.117188 6.425781 22.675781 5.417969 C 28.710938 4.839844 34.542969 7.183594 38.683594 11.832031 L 40.675781 10.0625 C 35.96875 4.765625 29.300781 2.109375 22.425781 2.765625 C 10.402344 3.914062 1.585938 14.96875 2.773438 27.410156 C 3.894531 39.148438 13.523438 47.988281 24.707031 47.988281 C 25.375 47.988281 26.050781 47.957031 26.730469 47.894531 C 29.941406 47.585938 32.949219 46.550781 35.617188 44.957031 L 49.953125 59.464844 C 51.175781 60.703125 52.8125 61.382812 54.558594 61.382812 C 56.363281 61.382812 58.0625 60.664062 59.351562 59.363281 C 61.953125 56.726562 62.003906 52.484375 59.464844 49.902344 Z M 44.558594 34.742188 "/>
</svg>
