<?xml version="1.0" encoding="UTF-8"?>
<svg xmlns="http://www.w3.org/2000/svg" xmlns:xlink="http://www.w3.org/1999/xlink" width="64" height="64" viewBox="0 0 64 64">
<path fill-rule="evenodd" fill="rgb(0.392157%, 65.882353%, 55.294118%)" fill-opacity="1" d="M 60.667969 14.507812 L 49.21875 3.058594 C 48.699219 2.535156 47.851562 2.535156 47.332031 3.058594 L 35.878906 14.507812 C 35.5 14.890625 35.382812 15.464844 35.589844 15.960938 C 35.796875 16.460938 36.285156 16.785156 36.824219 16.785156 L 42.648438 16.785156 L 42.648438 32.628906 C 42.648438 33.363281 43.242188 33.960938 43.980469 33.960938 L 47.917969 33.960938 L 39.6875 42.195312 L 31.453125 33.960938 L 35.390625 33.960938 C 36.128906 33.960938 36.726562 33.363281 36.726562 32.628906 L 36.726562 22.609375 L 34.058594 22.609375 L 34.058594 31.292969 L 28.234375 31.292969 C 27.699219 31.292969 27.210938 31.617188 27.003906 32.117188 C 26.796875 32.617188 26.910156 33.1875 27.292969 33.570312 L 38.742188 45.023438 C 38.992188 45.273438 39.332031 45.414062 39.6875 45.414062 C 40.039062 45.414062 40.378906 45.273438 40.628906 45.023438 L 52.082031 33.570312 C 52.460938 33.1875 52.578125 32.617188 52.371094 32.117188 C 52.164062 31.617188 51.675781 31.292969 51.136719 31.292969 L 45.3125 31.292969 L 45.3125 15.453125 C 45.3125 14.714844 44.71875 14.117188 43.980469 14.117188 L 40.042969 14.117188 L 48.273438 5.886719 L 56.507812 14.117188 L 52.570312 14.117188 C 51.832031 14.117188 51.234375 14.714844 51.234375 15.453125 L 51.234375 25.570312 L 48.273438 25.570312 L 48.273438 28.234375 L 55.53125 28.234375 L 55.53125 58.492188 L 52.929688 58.492188 L 52.929688 61.15625 L 56.863281 61.15625 C 57.601562 61.15625 58.199219 60.5625 58.199219 59.824219 L 58.199219 26.902344 C 58.199219 26.164062 57.601562 25.570312 56.863281 25.570312 L 53.902344 25.570312 L 53.902344 16.785156 L 59.726562 16.785156 C 60.265625 16.785156 60.753906 16.460938 60.957031 15.960938 C 61.164062 15.464844 61.050781 14.890625 60.667969 14.507812 Z M 12.390625 56.960938 L 12.390625 28.234375 L 31.097656 28.234375 L 31.097656 25.570312 L 11.058594 25.570312 C 10.320312 25.570312 9.726562 26.164062 9.726562 26.902344 L 9.726562 56.960938 C 9.726562 57.804688 9.039062 58.492188 8.195312 58.492188 C 7.351562 58.492188 6.667969 57.804688 6.667969 56.960938 L 6.667969 18.214844 L 20.53125 18.214844 L 23.445312 21.992188 C 23.699219 22.320312 24.089844 22.511719 24.503906 22.511719 L 31.097656 22.511719 L 31.097656 19.84375 L 25.15625 19.84375 L 22.242188 16.066406 C 21.992188 15.742188 21.601562 15.550781 21.1875 15.550781 L 5.332031 15.550781 C 4.597656 15.550781 4 16.144531 4 16.882812 L 4 56.960938 C 4 59.277344 5.882812 61.15625 8.195312 61.15625 L 15.351562 61.15625 L 15.351562 58.492188 L 12.09375 58.492188 C 12.28125 58.015625 12.390625 57.503906 12.390625 56.960938 Z M 50.117188 55.363281 C 49.769531 55.042969 49.292969 54.722656 48.699219 54.402344 L 47.773438 53.902344 C 47.269531 53.628906 46.925781 53.378906 46.75 53.148438 C 46.574219 52.917969 46.484375 52.628906 46.484375 52.273438 C 46.484375 51.847656 46.621094 51.515625 46.894531 51.277344 C 47.171875 51.035156 47.550781 50.914062 48.03125 50.914062 C 48.738281 50.914062 49.558594 51.085938 50.488281 51.429688 L 50.488281 49.609375 C 49.59375 49.199219 48.695312 48.992188 47.789062 48.992188 C 47.066406 48.992188 46.429688 49.132812 45.875 49.410156 C 45.320312 49.691406 44.878906 50.09375 44.558594 50.613281 C 44.238281 51.136719 44.082031 51.746094 44.082031 52.445312 C 44.082031 53.199219 44.261719 53.839844 44.628906 54.367188 C 44.996094 54.894531 45.601562 55.386719 46.449219 55.84375 L 47.378906 56.34375 C 47.847656 56.59375 48.183594 56.84375 48.382812 57.089844 C 48.585938 57.335938 48.683594 57.636719 48.683594 57.992188 C 48.683594 58.472656 48.539062 58.84375 48.253906 59.101562 C 47.964844 59.355469 47.550781 59.484375 47 59.484375 C 46.621094 59.484375 46.167969 59.433594 45.636719 59.324219 C 45.101562 59.214844 44.621094 59.078125 44.199219 58.917969 L 44.199219 60.722656 C 44.566406 60.929688 45.019531 61.09375 45.558594 61.222656 C 46.09375 61.347656 46.632812 61.410156 47.171875 61.410156 C 48.410156 61.410156 49.378906 61.09375 50.085938 60.457031 C 50.785156 59.820312 51.140625 58.960938 51.140625 57.871094 C 51.140625 57.3125 51.058594 56.832031 50.890625 56.4375 C 50.722656 56.042969 50.464844 55.683594 50.117188 55.363281 Z M 40.300781 52.992188 C 40.300781 52.351562 40.183594 51.867188 39.949219 51.535156 C 39.714844 51.203125 39.375 51.035156 38.925781 51.035156 L 37.808594 51.035156 L 37.808594 54.953125 L 38.925781 54.953125 C 39.375 54.953125 39.714844 54.785156 39.949219 54.453125 C 40.183594 54.121094 40.300781 53.636719 40.300781 52.992188 Z M 41.738281 50.253906 C 42.359375 50.921875 42.671875 51.835938 42.671875 52.992188 C 42.671875 54.148438 42.359375 55.0625 41.738281 55.734375 C 41.113281 56.402344 40.273438 56.738281 39.21875 56.738281 L 37.808594 56.738281 L 37.808594 61.152344 L 35.457031 61.152344 L 35.457031 49.25 L 39.21875 49.25 C 40.273438 49.25 41.113281 49.582031 41.738281 50.253906 Z M 25.992188 51.15625 L 28.84375 51.15625 L 28.84375 61.152344 L 31.25 61.152344 L 31.25 51.15625 L 34.101562 51.15625 L 34.101562 49.25 L 25.992188 49.25 Z M 18.796875 49.25 L 24.996094 49.25 L 24.996094 51.085938 L 21.199219 51.085938 L 21.199219 54.296875 L 24.171875 54.296875 L 24.171875 56.136719 L 21.199219 56.136719 L 21.199219 61.152344 L 18.796875 61.152344 Z M 18.796875 49.25 "/>
</svg>
