<?xml version="1.0" encoding="UTF-8"?>
<svg xmlns="http://www.w3.org/2000/svg" xmlns:xlink="http://www.w3.org/1999/xlink" width="64" height="64" viewBox="0 0 64 64">
<path fill-rule="evenodd" fill="rgb(0.392157%, 65.882355%, 55.29412%)" fill-opacity="1" d="M 30.664062 17.332031 L 35.996094 17.332031 L 35.996094 12 L 30.664062 12 Z M 33.328125 46.667969 C 31.859375 46.667969 30.664062 47.863281 30.664062 49.332031 C 30.664062 50.804688 31.859375 52 33.328125 52 C 34.796875 52 35.996094 50.804688 35.996094 49.332031 C 35.996094 47.863281 34.796875 46.667969 33.328125 46.667969 Z M 34.664062 20 L 34.664062 44.1875 C 36.957031 44.785156 38.664062 46.855469 38.664062 49.332031 C 38.664062 52.273438 36.269531 54.667969 33.328125 54.667969 C 30.386719 54.667969 27.996094 52.273438 27.996094 49.332031 C 27.996094 46.855469 29.703125 44.785156 31.996094 44.1875 L 31.996094 20 L 27.996094 20 L 27.996094 9.332031 L 38.664062 9.332031 L 38.664062 20 Z M 27.996094 26.667969 L 27.996094 24 L 18.878906 24 L 6.929688 14.667969 L 18.878906 5.332031 L 45.269531 5.332031 L 57.21875 14.667969 L 45.269531 24 L 37.328125 24 L 37.328125 26.667969 L 46.1875 26.667969 L 61.550781 14.667969 L 46.1875 2.667969 L 17.960938 2.667969 L 2.601562 14.667969 L 17.960938 26.667969 Z M 46.1875 37.332031 L 61.550781 49.332031 L 46.1875 61.332031 L 17.960938 61.332031 L 2.601562 49.332031 L 17.960938 37.332031 L 27.996094 37.332031 L 27.996094 40 L 18.878906 40 L 6.929688 49.332031 L 18.878906 58.667969 L 45.269531 58.667969 L 57.21875 49.332031 L 45.269531 40 L 37.328125 40 L 37.328125 37.332031 Z M 46.1875 37.332031 "/>
</svg>
