<?xml version="1.0" encoding="UTF-8"?>
<svg xmlns="http://www.w3.org/2000/svg" xmlns:xlink="http://www.w3.org/1999/xlink" width="64" height="64" viewBox="0 0 64 64">
<path fill-rule="evenodd" fill="rgb(0.392157%, 65.882355%, 55.29412%)" fill-opacity="1" d="M 17.375 10.667969 L 20.039062 10.667969 L 20.039062 8 L 17.375 8 Z M 13.375 10.667969 L 16.039062 10.667969 L 16.039062 8 L 13.375 8 Z M 9.375 10.667969 L 12.039062 10.667969 L 12.039062 8 L 9.375 8 Z M 44.425781 25.953125 C 44.945312 26.476562 44.945312 27.320312 44.425781 27.839844 L 39.25 33.015625 L 37.363281 31.128906 L 41.597656 26.898438 L 37.363281 22.664062 L 39.25 20.777344 Z M 24.339844 22.664062 L 20.109375 26.898438 L 24.339844 31.128906 L 22.457031 33.015625 L 17.28125 27.839844 C 16.757812 27.320312 16.757812 26.476562 17.28125 25.953125 L 22.457031 20.777344 Z M 32.257812 19.371094 L 34.734375 20.363281 L 29.109375 34.421875 L 26.632812 33.429688 Z M 44.894531 57.332031 L 19.160156 57.332031 L 7.414062 48.160156 L 16.015625 40 L 47.984375 39.996094 L 56.636719 48.160156 Z M 6.726562 14.667969 L 56.039062 14.667969 L 56.039062 37.332031 L 6.707031 37.339844 Z M 56.039062 6.667969 L 56.039062 12 L 6.707031 12 L 6.710938 6.667969 Z M 51.871094 40 L 56.359375 40 C 57.652344 40 58.707031 38.980469 58.707031 37.730469 L 58.707031 6.269531 C 58.707031 5.015625 57.652344 4 56.359375 4 L 6.386719 4 C 5.09375 4 4.039062 5.015625 4.039062 6.265625 L 4.011719 37.726562 C 4.011719 38.972656 5.054688 39.992188 6.355469 40 L 12.140625 40 L 3.332031 48.351562 L 18.242188 60 L 45.816406 60 L 60.722656 48.355469 Z M 51.871094 40 "/>
</svg>
