<?xml version="1.0" encoding="UTF-8"?>
<svg xmlns="http://www.w3.org/2000/svg" xmlns:xlink="http://www.w3.org/1999/xlink" width="64" height="64" viewBox="0 0 64 64">
<path fill-rule="evenodd" fill="rgb(0.392157%, 65.882355%, 55.29412%)" fill-opacity="1" d="M 48.765625 52.742188 C 48.765625 52.101562 48.648438 51.613281 48.410156 51.277344 C 48.175781 50.945312 47.835938 50.78125 47.386719 50.78125 L 46.269531 50.78125 L 46.269531 54.707031 L 47.386719 54.707031 C 47.835938 54.707031 48.175781 54.539062 48.410156 54.207031 C 48.648438 53.875 48.765625 53.386719 48.765625 52.742188 Z M 50.203125 49.996094 C 50.828125 50.667969 51.144531 51.582031 51.144531 52.742188 C 51.144531 53.902344 50.828125 54.816406 50.203125 55.488281 C 49.578125 56.160156 48.738281 56.496094 47.679688 56.496094 L 46.269531 56.496094 L 46.269531 60.921875 L 43.910156 60.921875 L 43.910156 48.988281 L 47.679688 48.988281 C 48.738281 48.988281 49.578125 49.324219 50.203125 49.996094 Z M 34.417969 50.898438 L 37.277344 50.898438 L 37.277344 60.921875 L 39.691406 60.921875 L 39.691406 50.898438 L 42.546875 50.898438 L 42.546875 48.988281 L 34.417969 48.988281 Z M 27.203125 60.921875 L 29.613281 60.921875 L 29.613281 55.894531 L 32.59375 55.894531 L 32.59375 54.050781 L 29.613281 54.050781 L 29.613281 50.832031 L 33.417969 50.832031 L 33.417969 48.988281 L 27.203125 48.988281 Z M 24.402344 55.121094 C 24.054688 54.796875 23.582031 54.476562 22.984375 54.15625 L 22.054688 53.65625 C 21.550781 53.378906 21.207031 53.128906 21.027344 52.898438 C 20.851562 52.667969 20.761719 52.375 20.761719 52.019531 C 20.761719 51.59375 20.902344 51.261719 21.175781 51.019531 C 21.449219 50.78125 21.832031 50.660156 22.3125 50.660156 C 23.023438 50.660156 23.84375 50.832031 24.777344 51.175781 L 24.777344 49.351562 C 23.878906 48.9375 22.976562 48.730469 22.070312 48.730469 C 21.347656 48.730469 20.707031 48.871094 20.152344 49.152344 C 19.59375 49.433594 19.152344 49.835938 18.832031 50.355469 C 18.511719 50.878906 18.351562 51.492188 18.351562 52.191406 C 18.351562 52.949219 18.535156 53.59375 18.902344 54.121094 C 19.269531 54.648438 19.878906 55.140625 20.726562 55.601562 L 21.660156 56.101562 C 22.125 56.355469 22.464844 56.601562 22.664062 56.851562 C 22.863281 57.097656 22.964844 57.398438 22.964844 57.753906 C 22.964844 58.238281 22.824219 58.605469 22.535156 58.863281 C 22.25 59.125 21.832031 59.253906 21.277344 59.253906 C 20.902344 59.253906 20.441406 59.199219 19.910156 59.089844 C 19.375 58.980469 18.894531 58.84375 18.472656 58.683594 L 18.472656 60.492188 C 18.839844 60.699219 19.292969 60.867188 19.832031 60.992188 C 20.371094 61.117188 20.910156 61.179688 21.449219 61.179688 C 22.691406 61.179688 23.664062 60.863281 24.371094 60.226562 C 25.074219 59.589844 25.429688 58.726562 25.429688 57.632812 C 25.429688 57.070312 25.347656 56.59375 25.179688 56.195312 C 25.011719 55.800781 24.753906 55.441406 24.402344 55.121094 Z M 60.8125 14.539062 L 49.332031 3.058594 C 48.808594 2.535156 47.964844 2.535156 47.445312 3.058594 L 35.964844 14.539062 C 35.582031 14.917969 35.46875 15.492188 35.675781 15.992188 C 35.882812 16.488281 36.367188 16.8125 36.90625 16.8125 L 42.75 16.8125 L 42.75 32.703125 C 42.75 33.441406 43.347656 34.035156 44.082031 34.035156 L 48.039062 34.035156 L 39.777344 42.300781 L 31.515625 34.035156 L 35.472656 34.035156 C 36.207031 34.035156 36.804688 33.441406 36.804688 32.703125 L 36.804688 22.65625 L 34.136719 22.65625 L 34.136719 31.371094 L 28.296875 31.371094 C 27.757812 31.371094 27.269531 31.695312 27.0625 32.191406 C 26.855469 32.691406 26.972656 33.265625 27.351562 33.644531 L 38.835938 45.128906 C 39.09375 45.386719 39.4375 45.519531 39.777344 45.519531 C 40.117188 45.519531 40.460938 45.386719 40.71875 45.128906 L 52.203125 33.644531 C 52.582031 33.265625 52.699219 32.691406 52.492188 32.191406 C 52.285156 31.695312 51.796875 31.371094 51.257812 31.371094 L 45.417969 31.371094 L 45.417969 15.480469 C 45.417969 14.742188 44.820312 14.148438 44.082031 14.148438 L 40.125 14.148438 L 48.386719 5.886719 L 56.652344 14.148438 L 52.695312 14.148438 C 51.957031 14.148438 51.359375 14.742188 51.359375 15.480469 L 51.359375 25.628906 L 48.386719 25.628906 L 48.386719 28.296875 L 55.667969 28.296875 L 55.667969 58.636719 L 52.609375 58.636719 L 52.609375 61.304688 L 57 61.304688 C 57.738281 61.304688 58.332031 60.707031 58.332031 59.972656 L 58.332031 26.960938 C 58.332031 26.226562 57.738281 25.628906 57 25.628906 L 54.027344 25.628906 L 54.027344 16.8125 L 59.871094 16.8125 C 60.410156 16.8125 60.894531 16.488281 61.101562 15.992188 C 61.308594 15.492188 61.195312 14.917969 60.8125 14.539062 Z M 12.105469 58.636719 L 15.378906 58.636719 L 15.378906 61.304688 L 8.203125 61.304688 C 5.886719 61.304688 4 59.417969 4 57.101562 L 4 16.917969 C 4 16.179688 4.597656 15.582031 5.332031 15.582031 L 21.230469 15.582031 C 21.640625 15.582031 22.03125 15.773438 22.285156 16.101562 L 25.207031 19.886719 L 31.167969 19.886719 L 31.167969 22.554688 L 24.554688 22.554688 C 24.140625 22.554688 23.75 22.363281 23.5 22.035156 L 20.574219 18.25 L 6.667969 18.25 L 6.667969 57.101562 C 6.667969 57.949219 7.355469 58.636719 8.203125 58.636719 C 9.050781 58.636719 9.742188 57.949219 9.742188 57.101562 L 9.742188 26.960938 C 9.742188 26.226562 10.335938 25.628906 11.074219 25.628906 L 31.167969 25.628906 L 31.167969 28.296875 L 12.40625 28.296875 L 12.40625 57.101562 C 12.40625 57.644531 12.296875 58.160156 12.105469 58.636719 Z M 12.105469 58.636719 "/>
</svg>
