<?xml version="1.0" encoding="UTF-8"?>
<svg xmlns="http://www.w3.org/2000/svg" xmlns:xlink="http://www.w3.org/1999/xlink" width="64" height="64" viewBox="0 0 64 64">
<path fill-rule="evenodd" fill="rgb(0.392157%, 65.882355%, 55.29412%)" fill-opacity="1" d="M 40.007812 13.332031 L 54.675781 13.332031 L 54.675781 10.667969 L 40.007812 10.667969 Z M 21.34375 13.332031 L 30.675781 13.332031 L 30.675781 10.667969 L 21.34375 10.667969 Z M 41.34375 21.332031 L 61.34375 21.332031 L 61.34375 18.667969 L 41.34375 18.667969 Z M 16.007812 14.667969 C 16.007812 19.8125 20.199219 24 25.34375 24 C 30.488281 24 34.675781 19.8125 34.675781 14.667969 C 34.675781 9.519531 30.488281 5.332031 25.34375 5.332031 C 20.199219 5.332031 16.007812 9.519531 16.007812 14.667969 Z M 17.035156 23.304688 L 4.953125 35.386719 L 3.066406 33.5 L 15.320312 21.246094 C 14.074219 19.355469 13.34375 17.097656 13.34375 14.667969 C 13.34375 8.050781 18.726562 2.667969 25.34375 2.667969 C 31.960938 2.667969 37.34375 8.050781 37.34375 14.667969 C 37.34375 21.28125 31.960938 26.667969 25.34375 26.667969 C 22.117188 26.667969 19.191406 25.382812 17.035156 23.304688 Z M 18.675781 53.332031 L 49.34375 53.332031 L 49.34375 50.667969 L 18.675781 50.667969 Z M 10.675781 45.332031 L 37.34375 45.332031 L 37.34375 42.667969 L 10.675781 42.667969 Z M 18.675781 37.332031 L 49.34375 37.332031 L 49.34375 34.667969 L 18.675781 34.667969 Z M 36.007812 29.332031 L 61.34375 29.332031 L 61.34375 26.667969 L 36.007812 26.667969 Z M 50.367188 41.949219 L 60.667969 50 L 46.160156 61.332031 L 19.640625 61.332031 L 5.132812 50 L 9.625 46.488281 L 11.269531 48.589844 L 9.464844 50 L 20.558594 58.667969 L 45.242188 58.667969 L 56.335938 50 L 48.722656 44.054688 Z M 50.367188 41.949219 "/>
</svg>
