<?xml version="1.0" encoding="UTF-8"?>
<svg xmlns="http://www.w3.org/2000/svg" xmlns:xlink="http://www.w3.org/1999/xlink" width="64" height="64" viewBox="0 0 64 64">
<path fill-rule="evenodd" fill="rgb(0.392157%, 65.882355%, 55.29412%)" fill-opacity="1" d="M 39.292969 30.980469 L 43.527344 26.75 L 39.292969 22.515625 L 41.179688 20.628906 L 46.355469 25.804688 C 46.878906 26.328125 46.878906 27.171875 46.355469 27.691406 L 41.179688 32.867188 Z M 19.210938 27.691406 C 18.691406 27.171875 18.691406 26.328125 19.210938 25.804688 L 24.386719 20.628906 L 26.273438 22.515625 L 22.039062 26.75 L 26.273438 30.980469 L 24.386719 32.867188 Z M 31.042969 34.273438 L 28.566406 33.28125 L 34.1875 19.226562 L 36.664062 20.214844 Z M 45.164062 58.667969 L 18.773438 58.667969 L 6.789062 49.304688 L 15.453125 42.136719 L 18.535156 45.148438 C 19.398438 45.992188 20.804688 45.988281 21.664062 45.148438 L 23.734375 43.125 C 24.671875 43.597656 25.644531 43.992188 26.636719 44.304688 L 26.636719 47.09375 C 26.636719 48.328125 27.644531 49.332031 28.878906 49.332031 L 36.398438 49.332031 C 37.632812 49.332031 38.636719 48.328125 38.636719 47.09375 L 38.636719 44.585938 C 39.597656 44.265625 40.53125 43.871094 41.433594 43.398438 L 43.398438 45.40625 C 44.25 46.277344 45.753906 46.277344 46.601562 45.40625 L 49.191406 42.757812 L 57.148438 49.304688 Z M 15.046875 29.332031 L 11.972656 29.332031 L 11.972656 22.667969 L 15.335938 22.667969 C 15.945312 22.667969 16.476562 22.253906 16.625 21.667969 C 17 20.222656 17.566406 18.828125 18.308594 17.519531 C 18.601562 17.003906 18.519531 16.355469 18.101562 15.929688 L 15.691406 13.460938 L 20.277344 8.769531 L 22.648438 11.195312 C 23.082031 11.636719 23.757812 11.722656 24.285156 11.40625 C 25.554688 10.652344 26.914062 10.074219 28.320312 9.691406 C 28.902344 9.535156 29.304688 9.007812 29.304688 8.40625 L 29.304688 5.332031 L 35.972656 5.332031 L 35.972656 8.699219 C 35.972656 9.304688 36.382812 9.835938 36.972656 9.988281 C 38.414062 10.363281 39.8125 10.925781 41.117188 11.671875 C 41.632812 11.964844 42.28125 11.882812 42.710938 11.464844 L 45.175781 9.050781 L 49.871094 13.636719 L 47.441406 16.007812 C 47.003906 16.441406 46.914062 17.117188 47.230469 17.644531 C 47.988281 18.914062 48.5625 20.273438 48.945312 21.683594 C 49.101562 22.265625 49.628906 22.667969 50.230469 22.667969 L 53.304688 22.667969 L 53.304688 29.332031 L 49.941406 29.332031 C 49.332031 29.332031 48.800781 29.742188 48.652344 30.332031 C 48.277344 31.777344 47.710938 33.171875 46.96875 34.480469 C 46.671875 34.996094 46.757812 35.644531 47.171875 36.070312 L 49.585938 38.539062 L 48.996094 39.140625 L 48.789062 38.96875 L 47.09375 41.027344 L 47.125 41.054688 L 45 43.230469 L 42.628906 40.804688 C 42.199219 40.367188 41.519531 40.277344 40.992188 40.589844 C 39.71875 41.347656 38.363281 41.925781 36.957031 42.304688 C 36.375 42.464844 35.972656 42.992188 35.972656 43.59375 L 35.972656 46.667969 L 29.304688 46.667969 L 29.304688 43.300781 C 29.304688 42.695312 28.894531 42.164062 28.304688 42.011719 C 26.863281 41.636719 25.464844 41.070312 24.160156 40.328125 C 23.644531 40.035156 22.996094 40.117188 22.566406 40.535156 L 20.101562 42.949219 L 15.40625 38.363281 L 17.832031 35.992188 C 18.273438 35.5625 18.363281 34.882812 18.046875 34.355469 C 17.289062 33.082031 16.714844 31.726562 16.332031 30.316406 C 16.171875 29.738281 15.648438 29.332031 15.046875 29.332031 Z M 51.0625 40.84375 L 51.78125 40.105469 C 52.628906 39.242188 52.628906 37.835938 51.785156 36.972656 L 49.765625 34.90625 C 50.234375 33.96875 50.628906 32.996094 50.945312 32 L 53.730469 32 C 54.964844 32 55.972656 30.996094 55.972656 29.757812 L 55.972656 22.238281 C 55.972656 21.003906 54.964844 20 53.730469 20 L 51.222656 20 C 50.902344 19.042969 50.507812 18.105469 50.039062 17.203125 L 52.046875 15.242188 C 52.480469 14.816406 52.71875 14.246094 52.71875 13.636719 C 52.71875 13.03125 52.480469 12.460938 52.046875 12.035156 L 46.742188 6.851562 C 45.878906 6.007812 44.472656 6.011719 43.613281 6.851562 L 41.542969 8.875 C 40.605469 8.402344 39.632812 8.007812 38.636719 7.695312 L 38.636719 4.90625 C 38.636719 3.671875 37.632812 2.667969 36.398438 2.667969 L 28.878906 2.667969 C 27.644531 2.667969 26.636719 3.671875 26.636719 4.90625 L 26.636719 7.414062 C 25.679688 7.734375 24.746094 8.128906 23.84375 8.601562 L 21.878906 6.59375 C 21.027344 5.722656 19.523438 5.722656 18.675781 6.59375 L 13.492188 11.894531 C 12.648438 12.757812 12.648438 14.164062 13.492188 15.027344 L 15.511719 17.09375 C 15.042969 18.03125 14.648438 19.003906 14.332031 20 L 11.546875 20 C 10.3125 20 9.304688 21.003906 9.304688 22.238281 L 9.304688 29.757812 C 9.304688 30.996094 10.3125 32 11.546875 32 L 14.054688 32 C 14.375 32.957031 14.769531 33.894531 15.238281 34.796875 L 13.230469 36.757812 C 12.796875 37.183594 12.554688 37.753906 12.554688 38.359375 C 12.554688 38.96875 12.796875 39.539062 13.230469 39.960938 L 13.535156 40.257812 L 2.535156 49.363281 L 17.855469 61.332031 L 46.085938 61.332031 L 61.410156 49.359375 Z M 51.0625 40.84375 "/>
</svg>
