<?xml version="1.0" encoding="UTF-8"?>
<svg xmlns="http://www.w3.org/2000/svg" xmlns:xlink="http://www.w3.org/1999/xlink" width="64" height="64" viewBox="0 0 64 64">
<path fill-rule="evenodd" fill="rgb(0.392157%, 65.882355%, 55.29412%)" fill-opacity="1" d="M 44.652344 56.039062 C 45.199219 55.230469 45.574219 54.546875 45.78125 53.992188 C 45.988281 53.433594 46.089844 52.898438 46.089844 52.378906 C 46.089844 51.371094 45.828125 50.574219 45.296875 49.996094 C 44.769531 49.417969 44.046875 49.125 43.128906 49.125 C 42.578125 49.125 42.039062 49.21875 41.511719 49.402344 C 40.980469 49.585938 40.425781 49.871094 39.839844 50.261719 L 39.839844 52.242188 C 40.929688 51.519531 41.84375 51.15625 42.578125 51.15625 C 42.921875 51.15625 43.183594 51.273438 43.371094 51.503906 C 43.554688 51.730469 43.644531 52.066406 43.644531 52.5 C 43.644531 53.03125 43.523438 53.574219 43.285156 54.136719 C 43.042969 54.699219 42.636719 55.398438 42.070312 56.238281 C 41.5 57.078125 40.679688 58.195312 39.597656 59.597656 L 39.597656 61.320312 L 46.453125 61.320312 L 46.453125 59.375 L 42.164062 59.375 C 43.277344 57.960938 44.109375 56.847656 44.652344 56.039062 Z M 37.144531 55.515625 C 36.792969 55.195312 36.320312 54.871094 35.722656 54.550781 L 34.792969 54.050781 C 34.289062 53.777344 33.945312 53.523438 33.769531 53.292969 C 33.589844 53.0625 33.503906 52.769531 33.503906 52.414062 C 33.503906 51.988281 33.640625 51.65625 33.914062 51.417969 C 34.191406 51.175781 34.570312 51.054688 35.050781 51.054688 C 35.765625 51.054688 36.585938 51.226562 37.515625 51.570312 L 37.515625 49.746094 C 36.621094 49.332031 35.71875 49.125 34.8125 49.125 C 34.085938 49.125 33.449219 49.265625 32.890625 49.546875 C 32.332031 49.828125 31.894531 50.230469 31.570312 50.753906 C 31.25 51.277344 31.089844 51.886719 31.089844 52.585938 C 31.089844 53.34375 31.273438 53.988281 31.640625 54.515625 C 32.007812 55.042969 32.617188 55.539062 33.464844 55.996094 L 34.398438 56.496094 C 34.867188 56.75 35.203125 57 35.402344 57.246094 C 35.605469 57.492188 35.707031 57.792969 35.707031 58.152344 C 35.707031 58.632812 35.5625 59.003906 35.277344 59.261719 C 34.988281 59.519531 34.570312 59.648438 34.019531 59.648438 C 33.640625 59.648438 33.183594 59.59375 32.648438 59.484375 C 32.117188 59.375 31.636719 59.242188 31.210938 59.082031 L 31.210938 60.886719 C 31.578125 61.09375 32.03125 61.261719 32.570312 61.386719 C 33.113281 61.511719 33.652344 61.578125 34.191406 61.578125 C 35.429688 61.578125 36.402344 61.257812 37.109375 60.621094 C 37.816406 59.984375 38.167969 59.121094 38.167969 58.03125 C 38.167969 57.46875 38.085938 56.988281 37.917969 56.59375 C 37.753906 56.195312 37.496094 55.835938 37.144531 55.515625 Z M 26.664062 56.753906 L 25.578125 51.8125 L 24.53125 56.753906 Z M 27.011719 49.382812 L 30.296875 61.320312 L 27.648438 61.320312 L 27.027344 58.476562 L 24.167969 58.476562 L 23.566406 61.320312 L 21.035156 61.320312 L 24.339844 49.382812 Z M 60.8125 14.523438 L 49.332031 3.042969 C 48.832031 2.542969 47.945312 2.542969 47.445312 3.042969 L 35.964844 14.523438 C 35.582031 14.902344 35.46875 15.480469 35.675781 15.976562 C 35.882812 16.476562 36.367188 16.800781 36.90625 16.800781 L 42.75 16.800781 L 42.75 32.6875 C 42.75 33.425781 43.347656 34.023438 44.082031 34.023438 L 48.039062 34.023438 L 39.777344 42.285156 L 31.515625 34.023438 L 35.472656 34.023438 C 36.210938 34.023438 36.804688 33.425781 36.804688 32.6875 L 36.804688 22.640625 L 34.136719 22.640625 L 34.136719 31.355469 L 28.292969 31.355469 C 27.757812 31.355469 27.269531 31.679688 27.0625 32.175781 C 26.855469 32.675781 26.96875 33.25 27.351562 33.632812 L 38.835938 45.113281 C 39.09375 45.371094 39.4375 45.503906 39.777344 45.503906 C 40.117188 45.503906 40.457031 45.371094 40.71875 45.113281 L 52.203125 33.632812 C 52.582031 33.25 52.699219 32.675781 52.492188 32.175781 C 52.285156 31.679688 51.796875 31.355469 51.257812 31.355469 L 45.414062 31.355469 L 45.414062 15.464844 C 45.414062 14.730469 44.820312 14.132812 44.082031 14.132812 L 40.125 14.132812 L 48.386719 5.871094 L 56.652344 14.132812 L 52.691406 14.132812 C 51.957031 14.132812 51.359375 14.730469 51.359375 15.464844 L 51.359375 25.613281 L 48.386719 25.613281 L 48.386719 28.28125 L 55.667969 28.28125 L 55.667969 58.621094 L 52.609375 58.621094 L 52.609375 61.289062 L 57 61.289062 C 57.738281 61.289062 58.332031 60.691406 58.332031 59.957031 L 58.332031 26.945312 C 58.332031 26.210938 57.738281 25.613281 57 25.613281 L 54.027344 25.613281 L 54.027344 16.800781 L 59.871094 16.800781 C 60.40625 16.800781 60.894531 16.476562 61.101562 15.976562 C 61.308594 15.476562 61.191406 14.902344 60.8125 14.523438 Z M 12.105469 58.621094 L 15.378906 58.621094 L 15.378906 61.289062 L 8.203125 61.289062 C 5.886719 61.289062 4 59.402344 4 57.085938 L 4 16.902344 C 4 16.164062 4.597656 15.566406 5.332031 15.566406 L 21.230469 15.566406 C 21.640625 15.566406 22.03125 15.757812 22.285156 16.085938 L 25.207031 19.875 L 31.167969 19.875 L 31.167969 22.539062 L 24.554688 22.539062 C 24.140625 22.539062 23.75 22.347656 23.496094 22.023438 L 20.574219 18.234375 L 6.667969 18.234375 L 6.667969 57.085938 C 6.667969 57.933594 7.355469 58.621094 8.203125 58.621094 C 9.050781 58.621094 9.738281 57.933594 9.738281 57.085938 L 9.738281 26.945312 C 9.738281 26.210938 10.335938 25.613281 11.074219 25.613281 L 31.167969 25.613281 L 31.167969 28.28125 L 12.40625 28.28125 L 12.40625 57.085938 C 12.40625 57.628906 12.296875 58.144531 12.105469 58.621094 Z M 12.105469 58.621094 "/>
</svg>
