<?xml version="1.0" encoding="UTF-8"?>
<svg xmlns="http://www.w3.org/2000/svg" xmlns:xlink="http://www.w3.org/1999/xlink" width="64" height="64" viewBox="0 0 64 64">
<path fill-rule="evenodd" fill="rgb(0.392157%, 65.882355%, 55.29412%)" fill-opacity="1" d="M 41.332031 45.332031 C 41.332031 50.480469 37.144531 54.667969 32 54.667969 C 26.855469 54.667969 22.667969 50.480469 22.667969 45.332031 C 22.667969 41.621094 24.851562 38.414062 28 36.914062 L 28 40.035156 C 26.390625 41.253906 25.332031 43.164062 25.332031 45.332031 C 25.332031 49.007812 28.324219 52 32 52 C 35.675781 52 38.667969 49.007812 38.667969 45.332031 C 38.667969 43.164062 37.609375 41.253906 36 40.035156 L 36 36.914062 C 39.148438 38.414062 41.332031 41.621094 41.332031 45.332031 Z M 16 32 C 18.207031 32 20 33.792969 20 36 C 20 38.207031 18.207031 40 16 40 C 13.792969 40 12 38.207031 12 36 C 12 33.792969 13.792969 32 16 32 Z M 24 28 L 40 28 L 40 12 L 24 12 Z M 48 32 C 50.207031 32 52 33.792969 52 36 C 52 38.207031 50.207031 40 48 40 C 45.792969 40 44 38.207031 44 36 C 44 33.792969 45.792969 32 48 32 Z M 16 42.667969 C 19.253906 42.667969 21.960938 40.320312 22.542969 37.230469 C 25.945312 36.714844 28.640625 34.050781 29.214844 30.667969 L 30.667969 30.667969 L 30.667969 42.667969 L 33.332031 42.667969 L 33.332031 30.667969 L 34.785156 30.667969 C 35.359375 34.050781 38.054688 36.714844 41.457031 37.230469 C 42.039062 40.320312 44.746094 42.667969 48 42.667969 C 51.675781 42.667969 54.667969 39.675781 54.667969 36 C 54.667969 32.324219 51.675781 29.332031 48 29.332031 C 44.832031 29.332031 42.179688 31.5625 41.507812 34.53125 C 39.558594 34.097656 38.023438 32.589844 37.523438 30.667969 L 41.332031 30.667969 C 42.070312 30.667969 42.667969 30.070312 42.667969 29.332031 L 42.667969 10.667969 C 42.667969 9.929688 42.070312 9.332031 41.332031 9.332031 L 22.667969 9.332031 C 21.929688 9.332031 21.332031 9.929688 21.332031 10.667969 L 21.332031 29.332031 C 21.332031 30.070312 21.929688 30.667969 22.667969 30.667969 L 26.476562 30.667969 C 25.976562 32.589844 24.441406 34.097656 22.492188 34.53125 C 21.820312 31.5625 19.167969 29.332031 16 29.332031 C 12.324219 29.332031 9.332031 32.324219 9.332031 36 C 9.332031 39.675781 12.324219 42.667969 16 42.667969 Z M 32.941406 20.058594 L 37.609375 24.722656 L 35.722656 26.609375 L 32 22.886719 L 28.277344 26.609375 L 26.390625 24.722656 L 31.058594 20.058594 C 31.578125 19.535156 32.421875 19.535156 32.941406 20.058594 Z M 32.941406 14.058594 L 37.609375 18.722656 L 35.722656 20.609375 L 32 16.886719 L 28.277344 20.609375 L 26.390625 18.722656 L 31.058594 14.058594 C 31.578125 13.535156 32.421875 13.535156 32.941406 14.058594 Z M 5.332031 58.667969 L 58.667969 58.667969 L 58.667969 5.332031 L 5.332031 5.332031 Z M 60 2.667969 L 4 2.667969 C 3.261719 2.667969 2.667969 3.265625 2.667969 4 L 2.667969 60 C 2.667969 60.734375 3.261719 61.332031 4 61.332031 L 60 61.332031 C 60.738281 61.332031 61.332031 60.734375 61.332031 60 L 61.332031 4 C 61.332031 3.265625 60.738281 2.667969 60 2.667969 Z M 60 2.667969 "/>
</svg>
