<?xml version="1.0" encoding="UTF-8"?>
<svg xmlns="http://www.w3.org/2000/svg" xmlns:xlink="http://www.w3.org/1999/xlink" width="64" height="64" viewBox="0 0 64 64">
<path fill-rule="evenodd" fill="rgb(0.392157%, 65.882355%, 55.29412%)" fill-opacity="1" d="M 19.8125 24.152344 L 17.332031 21.625 L 17.332031 30.660156 C 17.332031 31.398438 16.734375 31.992188 16 31.992188 L 9.816406 31.992188 C 8.683594 31.992188 7.746094 31.753906 6.949219 31.261719 C 5.351562 30.269531 2.667969 27.949219 2.667969 23.519531 C 2.667969 19.761719 4.671875 16.878906 8.085938 15.617188 L 8.074219 15.421875 C 8.070312 11.039062 11 6.574219 14.886719 4.957031 C 19.417969 3.070312 24.214844 4.011719 27.71875 7.46875 C 28.648438 8.382812 29.433594 9.464844 30.066406 10.695312 C 31.464844 9.832031 33.199219 9.597656 34.816406 10.136719 C 36.921875 10.839844 38.304688 12.644531 38.664062 15.074219 C 40.679688 15.074219 42.839844 15.46875 43.785156 16.949219 L 41.546875 18.390625 C 41.328125 18.054688 40.046875 17.597656 37.511719 17.785156 C 37.09375 17.8125 36.710938 17.65625 36.4375 17.363281 C 36.160156 17.066406 36.035156 16.660156 36.09375 16.257812 C 36.089844 14.46875 35.320312 13.117188 33.96875 12.667969 C 32.761719 12.261719 31.421875 12.6875 30.644531 13.722656 C 30.347656 14.113281 29.859375 14.3125 29.378906 14.238281 C 28.894531 14.167969 28.488281 13.832031 28.324219 13.371094 C 27.746094 11.765625 26.910156 10.417969 25.847656 9.367188 C 24.542969 8.078125 20.957031 5.3125 15.910156 7.417969 C 13.058594 8.605469 10.738281 12.160156 10.738281 15.34375 L 10.8125 16.5 C 10.847656 17.140625 10.425781 17.71875 9.804688 17.871094 C 8.132812 18.292969 5.332031 19.585938 5.332031 23.519531 C 5.332031 26.5 6.976562 28.140625 8.355469 28.992188 C 8.71875 29.21875 9.195312 29.328125 9.820312 29.328125 L 14.667969 29.328125 L 14.667969 21.652344 L 12.175781 24.140625 L 10.292969 22.253906 L 15.09375 17.453125 C 15.339844 17.203125 15.679688 17.0625 16.035156 17.0625 L 16.042969 17.0625 C 16.394531 17.066406 16.738281 17.210938 16.988281 17.464844 L 21.714844 22.289062 Z M 36 43.992188 C 31.589844 43.992188 28 40.40625 28 35.992188 C 28 31.578125 31.589844 27.988281 36 27.988281 C 40.410156 27.988281 44 31.578125 44 35.992188 C 44 40.40625 40.410156 43.992188 36 43.992188 Z M 36 25.320312 C 30.117188 25.320312 25.332031 30.109375 25.332031 35.992188 C 25.332031 41.875 30.117188 46.660156 36 46.660156 C 41.882812 46.660156 46.667969 41.875 46.667969 35.992188 C 46.667969 30.109375 41.882812 25.320312 36 25.320312 Z M 57.996094 57.988281 C 57.5625 58.421875 57.003906 58.660156 56.410156 58.660156 C 55.855469 58.660156 55.339844 58.445312 54.953125 58.054688 L 45.6875 48.691406 C 46.890625 47.769531 47.953125 46.6875 48.851562 45.46875 L 58.0625 54.851562 C 58.894531 55.699219 58.863281 57.105469 57.996094 57.988281 Z M 22.675781 35.992188 C 22.675781 28.640625 28.65625 22.660156 36 22.660156 C 43.34375 22.660156 49.320312 28.640625 49.320312 35.992188 C 49.320312 43.347656 43.34375 49.328125 36 49.328125 C 28.65625 49.328125 22.675781 43.347656 22.675781 35.992188 Z M 59.964844 52.984375 L 50.289062 43.125 C 51.367188 40.976562 51.988281 38.558594 51.988281 35.992188 C 51.988281 27.171875 44.816406 19.992188 36 19.992188 C 27.183594 19.992188 20.011719 27.171875 20.011719 35.992188 C 20.011719 44.816406 27.183594 51.992188 36 51.992188 C 38.667969 51.992188 41.179688 51.328125 43.394531 50.167969 L 53.054688 59.925781 C 53.945312 60.832031 55.136719 61.328125 56.410156 61.328125 C 57.722656 61.328125 58.957031 60.804688 59.894531 59.859375 C 61.777344 57.945312 61.808594 54.863281 59.964844 52.984375 Z M 59.964844 52.984375 "/>
</svg>
