<?xml version="1.0" encoding="UTF-8"?>
<svg width="80px" height="80px" viewBox="0 0 80 80" version="1.1" xmlns="http://www.w3.org/2000/svg" xmlns:xlink="http://www.w3.org/1999/xlink">
    <title>Icon-Architecture/64/Arch_Amazon-Genomics-CLI_64</title>
    <g id="Icon-Architecture/64/Arch_Amazon-Genomics-CLI_64" stroke="none" stroke-width="1" fill="none" fill-rule="evenodd">
        <g id="Icon-Architecture-BG/64/Compute" fill="#ED7100">
            <rect id="Rectangle" x="0" y="0" width="80" height="80"></rect>
        </g>
        <path d="M54.142,21.071 L61.857,21.071 L61.857,19.071 L54.142,19.071 L54.142,21.071 Z M53,15.929 L63,15.929 L63,13.929 L53,13.929 L53,15.929 Z M54,43 L62,43 L62,41 L54,41 L54,43 Z M53,48 L63,48 L63,46 L53,46 L53,48 Z M33.707,46.707 C34.098,46.316 34.098,45.684 33.707,45.293 L21.707,33.293 L20.293,34.707 L31.586,46 L20.293,57.293 L21.707,58.707 L33.707,46.707 Z M34,58 L54,58 L54,56 L34,56 L34,58 Z M68,66 L68,56 L66,56 L66,66 L14,66 L14,14 L42,14 L42,12 L14,12 C12.897,12 12,12.897 12,14 L12,66 C12,67.103 12.897,68 14,68 L66,68 C67.103,68 68,67.103 68,66 L68,66 Z M50,45.711 C50,42.696 51.132,39.823 53.188,37.62 L64.274,25.745 C66.677,23.17 68,19.812 68,16.289 L68,12 L66,12 L66,16.289 C66,19.304 64.868,22.177 62.812,24.38 L51.726,36.255 C49.323,38.83 48,42.188 48,45.711 L48,50 L50,50 L50,45.711 Z M60.737,32.465 L59.368,33.931 L62.812,37.62 C64.868,39.823 66,42.696 66,45.711 L66,50 L68,50 L68,45.711 C68,42.188 66.677,38.83 64.274,36.255 L60.737,32.465 Z M51.726,25.745 C49.323,23.17 48,19.812 48,16.289 L48,12 L50,12 L50,16.289 C50,19.304 51.132,22.177 53.188,24.38 L56.632,28.069 L55.263,29.535 L51.726,25.745 Z" id="Fill-5" fill="#FFFFFF"></path>
    </g>
</svg>