<?xml version="1.0" encoding="UTF-8"?>
<svg width="48px" height="48px" viewBox="0 0 48 48" version="1.1" xmlns="http://www.w3.org/2000/svg" xmlns:xlink="http://www.w3.org/1999/xlink">
    <title>Icon-Resource/Machine-Learning/Res_Amazon-SageMaker_Geospatial-ML_48_Dark</title>
    <g id="Icon-Resource/Machine-Learning/Res_Amazon-SageMaker_Geospatial-ML_48" stroke="none" stroke-width="1" fill="none" fill-rule="evenodd">
        <path d="M14.8637152,18.8509 C14.8637152,16.6449 16.6577152,14.8509 18.8637152,14.8509 C21.0697152,14.8509 22.8637152,16.6449 22.8637152,18.8509 C22.8637152,21.0569 21.0697152,22.8509 18.8637152,22.8509 C16.6577152,22.8509 14.8637152,21.0569 14.8637152,18.8509 M24.0077152,41.9949 C17.3317152,41.9949 11.5067152,38.3339 8.39871522,32.9219 C10.3377152,30.0589 12.7877152,26.9809 15.5897152,23.8729 C16.5327152,24.4889 17.6557152,24.8509 18.8637152,24.8509 C22.1727152,24.8509 24.8637152,22.1599 24.8637152,18.8509 C24.8637152,15.5419 22.1727152,12.8509 18.8637152,12.8509 C15.5547152,12.8509 12.8637152,15.5419 12.8637152,18.8509 C12.8637152,20.2309 13.3367152,21.4999 14.1227152,22.5149 C11.5517152,25.3659 9.26371522,28.1979 7.38071522,30.8749 C6.49871522,28.7539 6.00771522,26.4309 6.00771522,23.9949 C6.00771522,14.0689 14.0827152,5.9949 24.0077152,5.9949 C26.4367152,5.9949 28.7537152,6.4839 30.8697152,7.3609 C28.9547152,8.7139 26.9697152,10.2589 24.9767152,11.9499 C25.1157152,12.0729 25.2567152,12.1909 25.3897152,12.3239 C25.7367152,12.6709 26.0387152,13.0429 26.3187152,13.4279 C28.6917152,11.4189 30.9097152,9.7439 32.9247152,8.3799 C38.3417152,11.4859 42.0077152,17.3149 42.0077152,23.9949 C42.0077152,33.9199 33.9317152,41.9949 24.0077152,41.9949 M4.34571522,43.6559 C3.62771522,42.9369 3.85571522,40.3209 6.86171522,35.3109 C6.96571522,35.1379 7.08371522,34.9579 7.19271522,34.7819 C8.74871522,37.1989 10.8067152,39.2569 13.2247152,40.8119 C8.23671522,43.8959 5.18871522,44.4979 4.34571522,43.6559 M43.6687152,4.3329 C44.5107152,5.1759 43.9087152,8.2249 40.8247152,13.2119 C39.2677152,10.7909 37.2067152,8.7309 34.7867152,7.1739 C39.4357152,4.2989 42.6997152,3.3659 43.6687152,4.3329 M45.0827152,2.9189 C43.0037152,0.8409 38.3177152,2.4579 32.7887152,6.0529 C30.1337152,4.7479 27.1607152,3.9949 24.0077152,3.9949 C12.9787152,3.9949 4.00771522,12.9669 4.00771522,23.9949 C4.00771522,27.1549 4.76471522,30.1359 6.07571522,32.7959 C5.74971522,33.2989 5.43971522,33.7949 5.14671522,34.2819 C1.91171522,39.6749 1.16671522,43.3039 2.93171522,45.0699 C3.57971522,45.7179 4.45471522,45.9919 5.47371522,45.9919 C8.22771522,45.9919 12.0247152,43.9849 15.2017152,41.9239 C17.8627152,43.2369 20.8447152,43.9949 24.0077152,43.9949 C35.0357152,43.9949 44.0077152,35.0219 44.0077152,23.9949 C44.0077152,20.8329 43.2497152,17.8519 41.9387152,15.1919 C44.7607152,10.8389 47.4807152,5.3189 45.0827152,2.9189" id="Fill-1" fill="#56C0A7"></path>
    </g>
</svg>