<?xml version="1.0" encoding="UTF-8"?>
<svg xmlns="http://www.w3.org/2000/svg" xmlns:xlink="http://www.w3.org/1999/xlink" width="64" height="64" viewBox="0 0 64 64">
<path fill-rule="evenodd" fill="rgb(92.941177%, 44.313726%, 0%)" fill-opacity="1" d="M 29.335938 28.269531 L 36.125 31.957031 L 29.335938 35.675781 Z M 27.320312 24.878906 C 26.914062 25.121094 26.667969 25.554688 26.667969 26.027344 L 26.667969 37.925781 C 26.667969 38.398438 26.917969 38.832031 27.320312 39.074219 C 27.53125 39.199219 27.765625 39.261719 28 39.261719 C 28.222656 39.261719 28.441406 39.207031 28.640625 39.097656 L 39.550781 33.121094 C 39.976562 32.886719 40.246094 32.4375 40.242188 31.949219 C 40.242188 31.460938 39.972656 31.015625 39.546875 30.78125 L 28.636719 24.851562 C 28.222656 24.628906 27.726562 24.640625 27.320312 24.878906 Z M 58.609375 33.894531 C 58.457031 34.59375 58.042969 35.1875 57.445312 35.574219 C 56.847656 35.960938 56.132812 36.089844 55.4375 35.9375 C 54.742188 35.789062 54.144531 35.375 53.757812 34.777344 C 53.371094 34.175781 53.246094 33.464844 53.394531 32.769531 C 53.546875 32.074219 53.957031 31.476562 54.554688 31.09375 C 54.558594 31.09375 54.558594 31.09375 54.558594 31.089844 C 54.992188 30.8125 55.488281 30.664062 55.996094 30.664062 C 56.183594 30.664062 56.375 30.683594 56.566406 30.726562 C 57.257812 30.878906 57.855469 31.289062 58.242188 31.886719 C 58.628906 32.488281 58.757812 33.199219 58.609375 33.894531 Z M 44 38.90625 L 32 45.832031 L 20 38.90625 L 20 25.046875 L 32 18.121094 L 44 25.046875 Z M 47.230469 53.394531 C 47.925781 53.542969 48.523438 53.957031 48.910156 54.554688 C 49.296875 55.15625 49.421875 55.867188 49.273438 56.5625 C 49.125 57.257812 48.710938 57.855469 48.113281 58.238281 C 47.511719 58.625 46.800781 58.753906 46.105469 58.605469 C 45.410156 58.453125 44.8125 58.042969 44.425781 57.441406 C 44.039062 56.84375 43.910156 56.128906 44.0625 55.433594 C 44.210938 54.738281 44.625 54.144531 45.222656 53.757812 C 45.660156 53.476562 46.15625 53.332031 46.660156 53.332031 C 46.851562 53.332031 47.039062 53.351562 47.230469 53.394531 Z M 18.242188 57.441406 C 17.855469 58.042969 17.257812 58.453125 16.566406 58.605469 C 15.863281 58.757812 15.15625 58.625 14.554688 58.238281 C 13.957031 57.855469 13.546875 57.257812 13.394531 56.5625 C 13.246094 55.867188 13.371094 55.15625 13.757812 54.554688 C 14.144531 53.957031 14.742188 53.542969 15.4375 53.394531 C 15.628906 53.351562 15.816406 53.332031 16.007812 53.332031 C 16.511719 53.332031 17.011719 53.476562 17.445312 53.757812 C 18.042969 54.144531 18.457031 54.738281 18.609375 55.433594 C 18.757812 56.128906 18.628906 56.84375 18.242188 57.441406 Z M 10.609375 33.894531 C 10.457031 34.59375 10.042969 35.1875 9.445312 35.574219 C 8.847656 35.960938 8.132812 36.089844 7.4375 35.9375 C 6.742188 35.789062 6.144531 35.375 5.757812 34.777344 C 5.371094 34.175781 5.246094 33.464844 5.394531 32.769531 C 5.546875 32.074219 5.957031 31.476562 6.554688 31.09375 C 6.558594 31.09375 6.558594 31.09375 6.558594 31.089844 C 6.992188 30.8125 7.488281 30.664062 7.996094 30.664062 C 8.183594 30.664062 8.375 30.683594 8.566406 30.726562 C 9.257812 30.878906 9.855469 31.289062 10.242188 31.886719 C 10.628906 32.488281 10.757812 33.199219 10.609375 33.894531 Z M 15.4375 10.605469 C 14.742188 10.453125 14.144531 10.042969 13.757812 9.441406 C 13.371094 8.84375 13.246094 8.128906 13.394531 7.433594 C 13.546875 6.738281 13.957031 6.144531 14.554688 5.757812 C 14.558594 5.757812 14.558594 5.757812 14.558594 5.757812 C 14.992188 5.476562 15.488281 5.332031 15.996094 5.332031 C 16.183594 5.332031 16.375 5.351562 16.566406 5.394531 C 17.257812 5.542969 17.855469 5.957031 18.242188 6.554688 C 18.628906 7.15625 18.757812 7.867188 18.609375 8.5625 C 18.457031 9.257812 18.042969 9.855469 17.445312 10.238281 C 16.847656 10.625 16.132812 10.753906 15.4375 10.605469 Z M 44.425781 6.554688 C 44.8125 5.957031 45.410156 5.542969 46.105469 5.394531 C 46.292969 5.351562 46.484375 5.332031 46.675781 5.332031 C 47.179688 5.332031 47.675781 5.476562 48.113281 5.757812 C 48.710938 6.144531 49.125 6.738281 49.273438 7.433594 C 49.421875 8.128906 49.296875 8.84375 48.910156 9.441406 C 48.523438 10.042969 47.925781 10.453125 47.230469 10.605469 C 46.53125 10.757812 45.820312 10.625 45.222656 10.238281 C 44.625 9.855469 44.210938 9.257812 44.0625 8.5625 C 43.910156 7.867188 44.039062 7.15625 44.425781 6.554688 Z M 60.484375 30.445312 C 58.890625 27.972656 55.585938 27.257812 53.113281 28.851562 C 51.976562 29.582031 51.191406 30.699219 50.855469 32 L 46.667969 32 L 46.667969 24.277344 C 46.667969 23.800781 46.414062 23.363281 46 23.125 L 40.792969 20.117188 L 45.253906 13.136719 C 45.71875 13.265625 46.1875 13.332031 46.660156 13.332031 C 48.414062 13.332031 50.132812 12.46875 51.148438 10.886719 C 51.921875 9.691406 52.179688 8.265625 51.878906 6.871094 C 51.578125 5.480469 50.753906 4.289062 49.558594 3.515625 C 47.082031 1.921875 43.777344 2.640625 42.183594 5.109375 C 41.414062 6.308594 41.15625 7.734375 41.457031 9.125 C 41.679688 10.164062 42.195312 11.085938 42.9375 11.8125 L 38.480469 18.78125 L 32.667969 15.425781 C 32.253906 15.1875 31.746094 15.1875 31.335938 15.425781 L 24.523438 19.359375 L 19.761719 11.773438 C 20.484375 11.054688 20.992188 10.148438 21.214844 9.125 C 21.515625 7.734375 21.253906 6.308594 20.484375 5.109375 C 18.890625 2.640625 15.585938 1.921875 13.113281 3.515625 C 11.914062 4.289062 11.089844 5.480469 10.789062 6.871094 C 10.488281 8.265625 10.746094 9.691406 11.519531 10.886719 C 12.535156 12.46875 14.253906 13.332031 16.011719 13.332031 C 16.496094 13.332031 16.988281 13.261719 17.464844 13.125 L 22.214844 20.691406 L 18 23.125 C 17.585938 23.363281 17.335938 23.800781 17.335938 24.277344 L 17.335938 32 L 13.140625 32 C 13 31.457031 12.796875 30.929688 12.484375 30.445312 C 10.890625 27.972656 7.585938 27.257812 5.113281 28.851562 C 3.914062 29.621094 3.089844 30.8125 2.789062 32.207031 C 2.488281 33.597656 2.746094 35.023438 3.519531 36.21875 C 4.535156 37.800781 6.253906 38.664062 8.011719 38.664062 C 9 38.664062 10 38.390625 10.890625 37.816406 C 12.023438 37.085938 12.8125 35.96875 13.148438 34.664062 L 17.335938 34.664062 L 17.335938 39.675781 C 17.335938 40.152344 17.585938 40.589844 18 40.828125 L 22.496094 43.425781 L 17.714844 50.96875 C 15.449219 50.195312 12.871094 51.011719 11.519531 53.109375 C 10.746094 54.308594 10.488281 55.734375 10.789062 57.125 C 11.089844 58.519531 11.914062 59.710938 13.113281 60.480469 C 14.003906 61.054688 15.003906 61.332031 15.992188 61.332031 C 17.746094 61.332031 19.464844 60.46875 20.484375 58.886719 C 21.253906 57.691406 21.515625 56.265625 21.214844 54.871094 C 21.011719 53.945312 20.5625 53.121094 19.941406 52.4375 L 24.808594 44.761719 L 31.335938 48.527344 C 31.539062 48.648438 31.769531 48.707031 32 48.707031 C 32.230469 48.707031 32.460938 48.648438 32.667969 48.527344 L 38.261719 45.296875 L 42.808594 52.339844 C 42.140625 53.042969 41.664062 53.902344 41.457031 54.871094 C 41.15625 56.265625 41.414062 57.691406 42.183594 58.886719 C 43.203125 60.46875 44.921875 61.332031 46.675781 61.332031 C 47.664062 61.332031 48.664062 61.054688 49.554688 60.484375 C 50.753906 59.710938 51.578125 58.519531 51.878906 57.125 C 52.179688 55.734375 51.921875 54.308594 51.148438 53.109375 C 49.824219 51.050781 47.308594 50.230469 45.074219 50.933594 L 40.574219 43.960938 L 46 40.828125 C 46.414062 40.589844 46.667969 40.152344 46.667969 39.675781 L 46.667969 34.664062 L 50.859375 34.664062 C 51 35.207031 51.207031 35.734375 51.519531 36.21875 C 52.535156 37.800781 54.253906 38.664062 56.011719 38.664062 C 57 38.664062 58 38.390625 58.890625 37.816406 C 60.085938 37.042969 60.914062 35.851562 61.214844 34.460938 C 61.515625 33.066406 61.253906 31.640625 60.484375 30.445312 Z M 60.484375 30.445312 "/>
</svg>
