<?xml version="1.0" encoding="UTF-8"?>
<svg xmlns="http://www.w3.org/2000/svg" xmlns:xlink="http://www.w3.org/1999/xlink" width="64" height="64" viewBox="0 0 64 64">
<path fill-rule="evenodd" fill="rgb(92.941177%, 44.313726%, 0%)" fill-opacity="1" d="M 10 53.332031 C 8.160156 53.332031 6.667969 51.835938 6.667969 50 C 6.667969 48.164062 8.160156 46.667969 10 46.667969 C 11.839844 46.667969 13.332031 48.164062 13.332031 50 C 13.332031 51.835938 11.839844 53.332031 10 53.332031 Z M 58.667969 32 C 58.667969 46.703125 46.703125 58.667969 32 58.667969 C 25.894531 58.667969 20.023438 56.5625 15.300781 52.753906 C 15.730469 51.925781 16 51 16 50 C 16 46.691406 13.308594 44 10 44 C 6.691406 44 4 46.691406 4 50 C 4 53.308594 6.691406 56 10 56 C 11.34375 56 12.574219 55.539062 13.578125 54.789062 C 18.785156 59.003906 25.261719 61.332031 32 61.332031 C 48.175781 61.332031 61.332031 48.175781 61.332031 32 Z M 54 10.667969 C 55.839844 10.667969 57.332031 12.164062 57.332031 14 C 57.332031 15.835938 55.839844 17.332031 54 17.332031 C 52.160156 17.332031 50.667969 15.835938 50.667969 14 C 50.667969 12.164062 52.160156 10.667969 54 10.667969 Z M 32 5.332031 C 38.105469 5.332031 43.976562 7.4375 48.699219 11.246094 C 48.269531 12.074219 48 13 48 14 C 48 17.308594 50.691406 20 54 20 C 57.308594 20 60 17.308594 60 14 C 60 10.691406 57.308594 8 54 8 C 52.65625 8 51.425781 8.460938 50.421875 9.210938 C 45.214844 4.996094 38.738281 2.667969 32 2.667969 C 15.824219 2.667969 2.667969 15.824219 2.667969 32 L 5.332031 32 C 5.332031 17.296875 17.296875 5.332031 32 5.332031 Z M 29.332031 27.695312 L 37.214844 31.980469 L 29.332031 36.296875 Z M 27.320312 24.308594 C 26.914062 24.550781 26.667969 24.984375 26.667969 25.453125 L 26.667969 38.546875 C 26.667969 39.015625 26.914062 39.453125 27.320312 39.691406 C 27.53125 39.816406 27.765625 39.878906 28 39.878906 C 28.21875 39.878906 28.441406 39.824219 28.640625 39.714844 L 40.640625 33.144531 C 41.066406 32.910156 41.335938 32.460938 41.332031 31.972656 C 41.332031 31.484375 41.066406 31.035156 40.636719 30.800781 L 28.636719 24.28125 C 28.222656 24.058594 27.722656 24.066406 27.320312 24.308594 Z M 45.332031 39.699219 L 32 47.394531 L 18.667969 39.699219 L 18.667969 24.300781 L 32 16.605469 L 45.332031 24.300781 Z M 32.667969 13.910156 C 32.253906 13.671875 31.746094 13.671875 31.332031 13.910156 L 16.667969 22.378906 C 16.253906 22.613281 16 23.054688 16 23.53125 L 16 40.46875 C 16 40.945312 16.253906 41.386719 16.667969 41.621094 L 31.332031 50.089844 C 31.539062 50.210938 31.769531 50.269531 32 50.269531 C 32.230469 50.269531 32.460938 50.210938 32.667969 50.089844 L 47.332031 41.621094 C 47.746094 41.386719 48 40.945312 48 40.46875 L 48 23.53125 C 48 23.054688 47.746094 22.613281 47.332031 22.378906 Z M 32.667969 13.910156 "/>
</svg>
