<?xml version="1.0" encoding="UTF-8"?>
<svg xmlns="http://www.w3.org/2000/svg" xmlns:xlink="http://www.w3.org/1999/xlink" width="64" height="64" viewBox="0 0 64 64">
<path fill-rule="evenodd" fill="rgb(86.666667%, 20.392157%, 29.803923%)" fill-opacity="1" d="M 31.957031 57.679688 C 31.199219 57.679688 30.585938 57.0625 30.585938 56.304688 C 30.585938 55.550781 31.199219 54.933594 31.957031 54.933594 C 32.710938 54.933594 33.328125 55.550781 33.328125 56.304688 C 33.328125 57.0625 32.710938 57.679688 31.957031 57.679688 M 31.957031 52.269531 C 29.730469 52.269531 27.917969 54.078125 27.917969 56.304688 C 27.917969 58.53125 29.730469 60.34375 31.957031 60.34375 C 34.183594 60.34375 35.996094 58.53125 35.996094 56.304688 C 35.996094 54.078125 34.183594 52.269531 31.957031 52.269531 M 19.332031 43.210938 C 20.089844 43.210938 20.703125 43.828125 20.703125 44.582031 C 20.703125 45.339844 20.089844 45.953125 19.332031 45.953125 C 18.574219 45.953125 17.960938 45.339844 17.960938 44.582031 C 17.960938 43.828125 18.574219 43.210938 19.332031 43.210938 M 19.332031 48.621094 C 21.558594 48.621094 23.371094 46.808594 23.371094 44.582031 C 23.371094 42.355469 21.558594 40.542969 19.332031 40.542969 C 17.105469 40.542969 15.292969 42.355469 15.292969 44.582031 C 15.292969 46.808594 17.105469 48.621094 19.332031 48.621094 M 19.332031 20.703125 C 18.574219 20.703125 17.960938 20.089844 17.960938 19.332031 C 17.960938 18.574219 18.574219 17.960938 19.332031 17.960938 C 20.089844 17.960938 20.703125 18.574219 20.703125 19.332031 C 20.703125 20.089844 20.089844 20.703125 19.332031 20.703125 M 23.371094 19.332031 C 23.371094 17.105469 21.558594 15.292969 19.332031 15.292969 C 17.105469 15.292969 15.292969 17.105469 15.292969 19.332031 C 15.292969 21.558594 17.105469 23.371094 19.332031 23.371094 C 21.558594 23.371094 23.371094 21.558594 23.371094 19.332031 M 44.582031 8.980469 C 43.824219 8.980469 43.210938 8.363281 43.210938 7.609375 C 43.210938 6.851562 43.824219 6.234375 44.582031 6.234375 C 45.339844 6.234375 45.953125 6.851562 45.953125 7.609375 C 45.953125 8.363281 45.339844 8.980469 44.582031 8.980469 M 44.582031 3.570312 C 42.355469 3.570312 40.542969 5.382812 40.542969 7.609375 C 40.542969 9.835938 42.355469 11.644531 44.582031 11.644531 C 46.808594 11.644531 48.621094 9.835938 48.621094 7.609375 C 48.621094 5.382812 46.808594 3.570312 44.582031 3.570312 M 56.304688 57.679688 C 55.546875 57.679688 54.933594 57.0625 54.933594 56.304688 C 54.933594 55.550781 55.546875 54.933594 56.304688 54.933594 C 57.0625 54.933594 57.679688 55.550781 57.679688 56.304688 C 57.679688 57.0625 57.0625 57.679688 56.304688 57.679688 M 56.304688 52.269531 C 54.078125 52.269531 52.265625 54.078125 52.265625 56.304688 C 52.265625 58.53125 54.078125 60.34375 56.304688 60.34375 C 58.53125 60.34375 60.34375 58.53125 60.34375 56.304688 C 60.34375 54.078125 58.53125 52.269531 56.304688 52.269531 M 44.582031 45.953125 C 43.824219 45.953125 43.210938 45.339844 43.210938 44.582031 C 43.210938 43.828125 43.824219 43.210938 44.582031 43.210938 C 45.339844 43.210938 45.953125 43.828125 45.953125 44.582031 C 45.953125 45.339844 45.339844 45.953125 44.582031 45.953125 M 44.582031 40.542969 C 42.355469 40.542969 40.542969 42.355469 40.542969 44.582031 C 40.542969 46.808594 42.355469 48.621094 44.582031 48.621094 C 46.808594 48.621094 48.621094 46.808594 48.621094 44.582031 C 48.621094 42.355469 46.808594 40.542969 44.582031 40.542969 M 44.582031 33.328125 C 43.824219 33.328125 43.210938 32.714844 43.210938 31.957031 C 43.210938 31.199219 43.824219 30.585938 44.582031 30.585938 C 45.339844 30.585938 45.953125 31.199219 45.953125 31.957031 C 45.953125 32.714844 45.339844 33.328125 44.582031 33.328125 M 44.582031 27.917969 C 42.355469 27.917969 40.542969 29.730469 40.542969 31.957031 C 40.542969 34.183594 42.355469 35.996094 44.582031 35.996094 C 46.808594 35.996094 48.621094 34.183594 48.621094 31.957031 C 48.621094 29.730469 46.808594 27.917969 44.582031 27.917969 M 7.605469 7.175781 C 7.847656 7.175781 8.039062 7.371094 8.039062 7.609375 C 8.039062 7.847656 7.847656 8.039062 7.605469 8.039062 C 7.371094 8.039062 7.175781 7.847656 7.175781 7.609375 C 7.175781 7.371094 7.371094 7.175781 7.605469 7.175781 M 7.605469 9.84375 C 8.839844 9.84375 9.84375 8.839844 9.84375 7.609375 C 9.84375 6.375 8.839844 5.371094 7.605469 5.371094 C 6.375 5.371094 5.371094 6.375 5.371094 7.609375 C 5.371094 8.839844 6.375 9.84375 7.605469 9.84375 M 7.605469 56.738281 C 7.371094 56.738281 7.175781 56.542969 7.175781 56.304688 C 7.175781 56.066406 7.371094 55.875 7.605469 55.875 C 7.847656 55.875 8.039062 56.066406 8.039062 56.304688 C 8.039062 56.542969 7.847656 56.738281 7.605469 56.738281 M 7.605469 54.070312 C 6.375 54.070312 5.371094 55.074219 5.371094 56.304688 C 5.371094 57.539062 6.375 58.539062 7.605469 58.539062 C 8.839844 58.539062 9.84375 57.539062 9.84375 56.304688 C 9.84375 55.074219 8.839844 54.070312 7.605469 54.070312 M 31.054688 42.453125 C 31.292969 42.453125 31.484375 42.648438 31.484375 42.886719 C 31.484375 43.125 31.292969 43.316406 31.054688 43.316406 C 30.816406 43.316406 30.625 43.125 30.625 42.886719 C 30.625 42.648438 30.816406 42.453125 31.054688 42.453125 M 31.054688 45.121094 C 32.289062 45.121094 33.289062 44.117188 33.289062 42.886719 C 33.289062 41.652344 32.289062 40.648438 31.054688 40.648438 C 29.820312 40.648438 28.820312 41.652344 28.820312 42.886719 C 28.820312 44.117188 29.820312 45.121094 31.054688 45.121094 M 31.054688 31.527344 C 31.292969 31.527344 31.484375 31.71875 31.484375 31.957031 C 31.484375 32.195312 31.292969 32.386719 31.054688 32.386719 C 30.816406 32.386719 30.625 32.195312 30.625 31.957031 C 30.625 31.71875 30.816406 31.527344 31.054688 31.527344 M 31.054688 34.191406 C 32.289062 34.191406 33.289062 33.191406 33.289062 31.957031 C 33.289062 30.722656 32.289062 29.722656 31.054688 29.722656 C 29.820312 29.722656 28.820312 30.722656 28.820312 31.957031 C 28.820312 33.191406 29.820312 34.191406 31.054688 34.191406 M 19.761719 31.957031 C 19.761719 32.195312 19.570312 32.386719 19.332031 32.386719 C 19.09375 32.386719 18.898438 32.195312 18.898438 31.957031 C 18.898438 31.71875 19.09375 31.527344 19.332031 31.527344 C 19.570312 31.527344 19.761719 31.71875 19.761719 31.957031 M 17.09375 31.957031 C 17.09375 33.191406 18.097656 34.191406 19.332031 34.191406 C 20.5625 34.191406 21.566406 33.191406 21.566406 31.957031 C 21.566406 30.722656 20.5625 29.722656 19.332031 29.722656 C 18.097656 29.722656 17.09375 30.722656 17.09375 31.957031 M 7.605469 45.015625 C 7.371094 45.015625 7.175781 44.820312 7.175781 44.582031 C 7.175781 44.34375 7.371094 44.148438 7.605469 44.148438 C 7.847656 44.148438 8.039062 44.34375 8.039062 44.582031 C 8.039062 44.820312 7.847656 45.015625 7.605469 45.015625 M 7.605469 42.347656 C 6.375 42.347656 5.371094 43.351562 5.371094 44.582031 C 5.371094 45.816406 6.375 46.816406 7.605469 46.816406 C 8.839844 46.816406 9.84375 45.816406 9.84375 44.582031 C 9.84375 43.351562 8.839844 42.347656 7.605469 42.347656 M 31.957031 7.175781 C 32.195312 7.175781 32.386719 7.371094 32.386719 7.609375 C 32.386719 7.847656 32.195312 8.039062 31.957031 8.039062 C 31.71875 8.039062 31.527344 7.847656 31.527344 7.609375 C 31.527344 7.371094 31.71875 7.175781 31.957031 7.175781 M 31.957031 9.84375 C 33.191406 9.84375 34.191406 8.839844 34.191406 7.609375 C 34.191406 6.375 33.191406 5.371094 31.957031 5.371094 C 30.722656 5.371094 29.71875 6.375 29.71875 7.609375 C 29.71875 8.839844 30.722656 9.84375 31.957031 9.84375 M 44.152344 19.332031 C 44.152344 19.09375 44.34375 18.898438 44.582031 18.898438 C 44.820312 18.898438 45.015625 19.09375 45.015625 19.332031 C 45.015625 19.570312 44.820312 19.761719 44.582031 19.761719 C 44.34375 19.761719 44.152344 19.570312 44.152344 19.332031 M 46.816406 19.332031 C 46.816406 18.097656 45.816406 17.09375 44.582031 17.09375 C 43.351562 17.09375 42.347656 18.097656 42.347656 19.332031 C 42.347656 20.5625 43.351562 21.566406 44.582031 21.566406 C 45.816406 21.566406 46.816406 20.5625 46.816406 19.332031 M 55.875 44.582031 C 55.875 44.34375 56.066406 44.148438 56.304688 44.148438 C 56.542969 44.148438 56.738281 44.34375 56.738281 44.582031 C 56.738281 44.820312 56.542969 45.015625 56.304688 45.015625 C 56.066406 45.015625 55.875 44.820312 55.875 44.582031 M 58.539062 44.582031 C 58.539062 43.351562 57.539062 42.347656 56.304688 42.347656 C 55.074219 42.347656 54.070312 43.351562 54.070312 44.582031 C 54.070312 45.816406 55.074219 46.816406 56.304688 46.816406 C 57.539062 46.816406 58.539062 45.816406 58.539062 44.582031 M 44.582031 56.738281 C 44.34375 56.738281 44.152344 56.542969 44.152344 56.304688 C 44.152344 56.066406 44.34375 55.875 44.582031 55.875 C 44.820312 55.875 45.015625 56.066406 45.015625 56.304688 C 45.015625 56.542969 44.820312 56.738281 44.582031 56.738281 M 44.582031 54.070312 C 43.351562 54.070312 42.347656 55.074219 42.347656 56.304688 C 42.347656 57.539062 43.351562 58.539062 44.582031 58.539062 C 45.816406 58.539062 46.816406 57.539062 46.816406 56.304688 C 46.816406 55.074219 45.816406 54.070312 44.582031 54.070312 M 56.304688 7.175781 C 56.542969 7.175781 56.738281 7.371094 56.738281 7.609375 C 56.738281 7.847656 56.542969 8.039062 56.304688 8.039062 C 56.066406 8.039062 55.875 7.847656 55.875 7.609375 C 55.875 7.371094 56.066406 7.175781 56.304688 7.175781 M 56.304688 9.84375 C 57.539062 9.84375 58.539062 8.839844 58.539062 7.609375 C 58.539062 6.375 57.539062 5.371094 56.304688 5.371094 C 55.074219 5.371094 54.070312 6.375 54.070312 7.609375 C 54.070312 8.839844 55.074219 9.84375 56.304688 9.84375 M 7.605469 21.605469 C 6.355469 21.605469 5.332031 20.585938 5.332031 19.332031 C 5.332031 18.078125 6.355469 17.058594 7.605469 17.058594 C 8.863281 17.058594 9.878906 18.078125 9.878906 19.332031 C 9.878906 20.585938 8.863281 21.605469 7.605469 21.605469 M 7.605469 14.390625 C 4.882812 14.390625 2.664062 16.605469 2.664062 19.332031 C 2.664062 22.054688 4.882812 24.273438 7.605469 24.273438 C 10.332031 24.273438 12.546875 22.054688 12.546875 19.332031 C 12.546875 16.605469 10.332031 14.390625 7.605469 14.390625 M 7.605469 34.230469 C 6.355469 34.230469 5.332031 33.210938 5.332031 31.957031 C 5.332031 30.703125 6.355469 29.683594 7.605469 29.683594 C 8.863281 29.683594 9.878906 30.703125 9.878906 31.957031 C 9.878906 33.210938 8.863281 34.230469 7.605469 34.230469 M 7.605469 27.015625 C 4.882812 27.015625 2.664062 29.234375 2.664062 31.957031 C 2.664062 34.679688 4.882812 36.898438 7.605469 36.898438 C 10.332031 36.898438 12.546875 34.679688 12.546875 31.957031 C 12.546875 29.234375 10.332031 27.015625 7.605469 27.015625 M 19.332031 58.582031 C 18.078125 58.582031 17.058594 57.558594 17.058594 56.304688 C 17.058594 55.050781 18.078125 54.03125 19.332031 54.03125 C 20.585938 54.03125 21.605469 55.050781 21.605469 56.304688 C 21.605469 57.558594 20.585938 58.582031 19.332031 58.582031 M 19.332031 51.367188 C 16.605469 51.367188 14.390625 53.582031 14.390625 56.304688 C 14.390625 59.03125 16.605469 61.246094 19.332031 61.246094 C 22.054688 61.246094 24.269531 59.03125 24.269531 56.304688 C 24.269531 53.582031 22.054688 51.367188 19.332031 51.367188 M 19.332031 9.882812 C 18.078125 9.882812 17.058594 8.863281 17.058594 7.609375 C 17.058594 6.355469 18.078125 5.332031 19.332031 5.332031 C 20.585938 5.332031 21.605469 6.355469 21.605469 7.609375 C 21.605469 8.863281 20.585938 9.882812 19.332031 9.882812 M 19.332031 2.667969 C 16.605469 2.667969 14.390625 4.882812 14.390625 7.609375 C 14.390625 10.332031 16.605469 12.546875 19.332031 12.546875 C 22.054688 12.546875 24.269531 10.332031 24.269531 7.609375 C 24.269531 4.882812 22.054688 2.667969 19.332031 2.667969 M 31.957031 21.605469 C 30.703125 21.605469 29.683594 20.585938 29.683594 19.332031 C 29.683594 18.078125 30.703125 17.058594 31.957031 17.058594 C 33.210938 17.058594 34.230469 18.078125 34.230469 19.332031 C 34.230469 20.585938 33.210938 21.605469 31.957031 21.605469 M 31.957031 14.390625 C 29.234375 14.390625 27.015625 16.605469 27.015625 19.332031 C 27.015625 22.054688 29.234375 24.273438 31.957031 24.273438 C 34.683594 24.273438 36.898438 22.054688 36.898438 19.332031 C 36.898438 16.605469 34.683594 14.390625 31.957031 14.390625 M 56.304688 34.230469 C 55.050781 34.230469 54.03125 33.210938 54.03125 31.957031 C 54.03125 30.703125 55.050781 29.683594 56.304688 29.683594 C 57.558594 29.683594 58.582031 30.703125 58.582031 31.957031 C 58.582031 33.210938 57.558594 34.230469 56.304688 34.230469 M 56.304688 27.015625 C 53.582031 27.015625 51.367188 29.234375 51.367188 31.957031 C 51.367188 34.679688 53.582031 36.898438 56.304688 36.898438 C 59.03125 36.898438 61.246094 34.679688 61.246094 31.957031 C 61.246094 29.234375 59.03125 27.015625 56.304688 27.015625 M 56.304688 17.058594 C 57.558594 17.058594 58.582031 18.078125 58.582031 19.332031 C 58.582031 20.585938 57.558594 21.605469 56.304688 21.605469 C 55.050781 21.605469 54.03125 20.585938 54.03125 19.332031 C 54.03125 18.078125 55.050781 17.058594 56.304688 17.058594 M 56.304688 24.273438 C 59.03125 24.273438 61.246094 22.054688 61.246094 19.332031 C 61.246094 16.605469 59.03125 14.390625 56.304688 14.390625 C 53.582031 14.390625 51.367188 16.605469 51.367188 19.332031 C 51.367188 22.054688 53.582031 24.273438 56.304688 24.273438 "/>
</svg>
