<?xml version="1.0" encoding="UTF-8"?>
<svg xmlns="http://www.w3.org/2000/svg" xmlns:xlink="http://www.w3.org/1999/xlink" width="64" height="64" viewBox="0 0 64 64">
<path fill-rule="evenodd" fill="rgb(86.666667%, 20.392157%, 29.803923%)" fill-opacity="1" d="M 44.140625 27.949219 C 43.726562 26.550781 43.230469 25.226562 42.652344 24.117188 C 44.609375 24.601562 46.425781 25.488281 48 26.71875 C 47.230469 27.179688 46.203125 27.617188 44.902344 27.839844 C 44.660156 27.882812 44.394531 27.914062 44.140625 27.949219 M 43.03125 36.292969 L 35.339844 36.292969 C 35.457031 34.511719 35.761719 32.601562 36.164062 30.808594 C 37.179688 30.890625 38.230469 30.9375 39.320312 30.9375 C 40.300781 30.9375 41.238281 30.894531 42.15625 30.832031 C 42.578125 32.625 42.898438 34.535156 43.03125 36.292969 M 54.628906 36.871094 C 55.113281 36.871094 55.511719 37.269531 55.511719 37.753906 C 55.511719 38.242188 55.113281 38.636719 54.628906 38.636719 C 54.140625 38.636719 53.746094 38.242188 53.746094 37.753906 C 53.746094 37.269531 54.140625 36.871094 54.628906 36.871094 M 42.226562 44.558594 C 41.292969 44.492188 40.324219 44.453125 39.320312 44.453125 C 38.214844 44.453125 37.140625 44.503906 36.109375 44.585938 C 35.703125 42.738281 35.402344 40.769531 35.3125 38.960938 L 43.0625 38.960938 C 42.96875 40.742188 42.65625 42.707031 42.226562 44.558594 M 44.902344 47.550781 C 46.300781 47.789062 47.402344 48.277344 48.183594 48.777344 C 46.570312 50.078125 44.6875 51.011719 42.660156 51.511719 C 43.273438 50.34375 43.785156 48.933594 44.214844 47.449219 C 44.445312 47.484375 44.679688 47.511719 44.902344 47.550781 M 39.136719 51.898438 C 38.453125 51.71875 37.550781 49.785156 36.785156 47.210938 C 37.605469 47.15625 38.445312 47.121094 39.320312 47.121094 C 40.070312 47.121094 40.804688 47.148438 41.523438 47.1875 C 40.734375 49.773438 39.804688 51.726562 39.136719 51.898438 M 32.828125 47.722656 C 33.230469 47.636719 33.664062 47.5625 34.101562 47.496094 C 34.503906 48.925781 34.988281 50.289062 35.5625 51.429688 C 33.652344 50.902344 31.886719 49.984375 30.363281 48.738281 C 30.960938 48.339844 31.769531 47.953125 32.828125 47.722656 M 23.894531 38.636719 C 23.40625 38.636719 23.011719 38.242188 23.011719 37.753906 C 23.011719 37.269531 23.40625 36.871094 23.894531 36.871094 C 24.382812 36.871094 24.777344 37.269531 24.777344 37.753906 C 24.777344 38.242188 24.382812 38.636719 23.894531 38.636719 M 32.832031 27.667969 C 31.871094 27.460938 31.109375 27.125 30.527344 26.765625 C 32.015625 25.589844 33.722656 24.707031 35.558594 24.199219 C 35.015625 25.28125 34.554688 26.558594 34.164062 27.90625 C 33.703125 27.835938 33.253906 27.757812 32.832031 27.667969 M 39.085938 23.722656 C 39.753906 23.894531 40.652344 25.738281 41.433594 28.207031 C 40.742188 28.246094 40.039062 28.273438 39.320312 28.273438 C 38.46875 28.273438 37.652344 28.234375 36.851562 28.183594 C 37.59375 25.726562 38.449219 23.898438 39.085938 23.722656 M 49.996094 28.601562 C 50.808594 29.539062 51.511719 30.574219 52.058594 31.714844 L 54.460938 30.5625 C 51.679688 24.757812 45.726562 21.007812 39.296875 21.007812 C 32.875 21.007812 26.929688 24.75 24.144531 30.539062 L 26.546875 31.695312 C 27.082031 30.582031 27.773438 29.570312 28.558594 28.65625 C 29.554688 29.394531 30.84375 29.96875 32.269531 30.273438 C 32.667969 30.359375 33.097656 30.429688 33.527344 30.5 C 33.074219 32.632812 32.796875 34.710938 32.683594 36.292969 L 27.121094 36.292969 C 26.5625 35.066406 25.332031 34.207031 23.894531 34.207031 C 21.9375 34.207031 20.34375 35.796875 20.34375 37.753906 C 20.34375 39.710938 21.9375 41.304688 23.894531 41.304688 C 25.425781 41.304688 26.722656 40.324219 27.21875 38.960938 L 32.65625 38.960938 C 32.746094 40.519531 33.011719 42.675781 33.472656 44.898438 C 33.0625 44.964844 32.652344 45.035156 32.269531 45.117188 C 30.785156 45.4375 29.445312 46.050781 28.4375 46.832031 C 27.660156 45.898438 26.980469 44.871094 26.453125 43.742188 L 24.035156 44.859375 C 26.777344 50.789062 32.769531 54.621094 39.296875 54.621094 C 45.777344 54.621094 51.746094 50.832031 54.507812 44.972656 L 52.097656 43.835938 C 51.570312 44.949219 50.890625 45.960938 50.113281 46.882812 C 48.863281 45.945312 47.199219 45.234375 45.351562 44.921875 C 45.191406 44.894531 45.027344 44.875 44.867188 44.851562 C 45.34375 42.628906 45.621094 40.488281 45.71875 38.960938 L 51.304688 38.960938 C 51.800781 40.324219 53.097656 41.304688 54.628906 41.304688 C 56.585938 41.304688 58.175781 39.710938 58.175781 37.753906 C 58.175781 35.796875 56.585938 34.207031 54.628906 34.207031 C 53.191406 34.207031 51.957031 35.066406 51.398438 36.292969 L 45.683594 36.292969 C 45.558594 34.726562 45.265625 32.660156 44.796875 30.535156 C 44.976562 30.507812 45.175781 30.5 45.351562 30.46875 C 47.136719 30.167969 48.761719 29.496094 49.996094 28.601562 M 39.246094 59.117188 C 38.757812 59.117188 38.363281 58.722656 38.363281 58.234375 C 38.363281 57.75 38.757812 57.351562 39.246094 57.351562 C 39.730469 57.351562 40.128906 57.75 40.128906 58.234375 C 40.128906 58.722656 39.730469 59.117188 39.246094 59.117188 M 39.246094 54.6875 C 37.882812 54.6875 36.710938 55.464844 36.117188 56.597656 C 26.921875 55.09375 20.085938 47.136719 20.085938 37.726562 C 20.085938 31.566406 23.078125 25.746094 28.089844 22.15625 L 26.539062 19.988281 C 20.828125 24.078125 17.417969 30.710938 17.417969 37.726562 C 17.417969 48.511719 25.296875 57.617188 35.863281 59.253906 C 36.304688 60.714844 37.644531 61.785156 39.246094 61.785156 C 41.203125 61.785156 42.792969 60.191406 42.792969 58.234375 C 42.792969 56.277344 41.203125 54.6875 39.246094 54.6875 M 8.78125 44.6875 C 8.78125 44.5625 8.886719 44.460938 9.007812 44.460938 C 9.132812 44.460938 9.234375 44.5625 9.234375 44.6875 C 9.234375 44.9375 8.78125 44.9375 8.78125 44.6875 M 9.007812 42.460938 C 7.78125 42.460938 6.78125 43.460938 6.78125 44.6875 C 6.78125 45.914062 7.78125 46.914062 9.007812 46.914062 C 10.234375 46.914062 11.234375 45.914062 11.234375 44.6875 C 11.234375 43.460938 10.234375 42.460938 9.007812 42.460938 M 8.976562 7.503906 C 9.101562 7.503906 9.203125 7.605469 9.203125 7.726562 C 9.203125 7.976562 8.753906 7.976562 8.753906 7.726562 C 8.753906 7.605469 8.851562 7.503906 8.976562 7.503906 M 8.976562 9.953125 C 10.203125 9.953125 11.203125 8.953125 11.203125 7.726562 C 11.203125 6.5 10.203125 5.503906 8.976562 5.503906 C 7.75 5.503906 6.753906 6.5 6.753906 7.726562 C 6.753906 8.953125 7.75 9.953125 8.976562 9.953125 M 20.75 19.902344 C 20.75 20.152344 20.300781 20.152344 20.300781 19.902344 C 20.300781 19.78125 20.398438 19.679688 20.523438 19.679688 C 20.648438 19.679688 20.75 19.78125 20.75 19.902344 M 18.300781 19.902344 C 18.300781 21.128906 19.296875 22.128906 20.523438 22.128906 C 21.75 22.128906 22.75 21.128906 22.75 19.902344 C 22.75 18.675781 21.75 17.679688 20.523438 17.679688 C 19.296875 17.679688 18.300781 18.675781 18.300781 19.902344 M 32.207031 7.484375 C 32.332031 7.484375 32.433594 7.585938 32.433594 7.710938 C 32.433594 7.957031 31.980469 7.957031 31.980469 7.710938 C 31.980469 7.585938 32.082031 7.484375 32.207031 7.484375 M 32.207031 9.933594 C 33.433594 9.933594 34.433594 8.9375 34.433594 7.710938 C 34.433594 6.484375 33.433594 5.484375 32.207031 5.484375 C 30.980469 5.484375 29.980469 6.484375 29.980469 7.710938 C 29.980469 8.9375 30.980469 9.933594 32.207031 9.933594 M 44.292969 6.285156 C 45.074219 6.285156 45.714844 6.925781 45.714844 7.707031 C 45.714844 8.492188 45.074219 9.128906 44.292969 9.128906 C 43.507812 9.128906 42.871094 8.492188 42.871094 7.707031 C 42.871094 6.925781 43.507812 6.285156 44.292969 6.285156 M 44.292969 11.796875 C 46.546875 11.796875 48.382812 9.960938 48.382812 7.707031 C 48.382812 5.453125 46.546875 3.621094 44.292969 3.621094 C 42.039062 3.621094 40.203125 5.453125 40.203125 7.707031 C 40.203125 9.960938 42.039062 11.796875 44.292969 11.796875 M 8.699219 33.421875 C 7.914062 33.421875 7.277344 32.785156 7.277344 32 C 7.277344 31.21875 7.914062 30.578125 8.699219 30.578125 C 9.484375 30.578125 10.121094 31.21875 10.121094 32 C 10.121094 32.785156 9.484375 33.421875 8.699219 33.421875 M 8.699219 27.910156 C 6.445312 27.910156 4.613281 29.746094 4.613281 32 C 4.613281 34.257812 6.445312 36.089844 8.699219 36.089844 C 10.953125 36.089844 12.789062 34.257812 12.789062 32 C 12.789062 29.746094 10.953125 27.910156 8.699219 27.910156 M 17.730469 7.683594 C 17.730469 6.386719 18.785156 5.332031 20.078125 5.332031 C 21.375 5.332031 22.429688 6.386719 22.429688 7.683594 C 22.429688 8.976562 21.375 10.03125 20.078125 10.03125 C 18.785156 10.03125 17.730469 8.976562 17.730469 7.683594 M 25.097656 7.683594 C 25.097656 4.917969 22.84375 2.667969 20.078125 2.667969 C 17.316406 2.667969 15.0625 4.917969 15.0625 7.683594 C 15.0625 10.449219 17.316406 12.699219 20.078125 12.699219 C 22.84375 12.699219 25.097656 10.449219 25.097656 7.683594 M 9.015625 21.222656 C 7.71875 21.222656 6.667969 20.167969 6.667969 18.871094 C 6.667969 17.578125 7.71875 16.523438 9.015625 16.523438 C 10.3125 16.523438 11.363281 17.578125 11.363281 18.871094 C 11.363281 20.167969 10.3125 21.222656 9.015625 21.222656 M 9.015625 13.855469 C 6.25 13.855469 4 16.105469 4 18.871094 C 4 21.636719 6.25 23.886719 9.015625 23.886719 C 11.78125 23.886719 14.03125 21.636719 14.03125 18.871094 C 14.03125 16.105469 11.78125 13.855469 9.015625 13.855469 M 39.246094 18.15625 C 38.757812 18.15625 38.363281 17.757812 38.363281 17.273438 C 38.363281 16.785156 38.757812 16.390625 39.246094 16.390625 C 39.730469 16.390625 40.128906 16.785156 40.128906 17.273438 C 40.128906 17.757812 39.730469 18.15625 39.246094 18.15625 M 42.613281 16.199219 C 42.152344 14.769531 40.828125 13.722656 39.246094 13.722656 C 37.289062 13.722656 35.695312 15.316406 35.695312 17.273438 C 35.695312 19.230469 37.289062 20.820312 39.246094 20.820312 C 40.628906 20.820312 41.816406 20.015625 42.402344 18.859375 C 51.597656 20.378906 58.367188 28.238281 58.367188 37.726562 C 58.367188 43.867188 55.390625 49.671875 50.40625 53.265625 L 51.964844 55.429688 C 57.644531 51.335938 61.035156 44.71875 61.035156 37.726562 C 61.035156 26.839844 53.207031 17.835938 42.613281 16.199219 "/>
</svg>
