<?xml version="1.0" encoding="UTF-8"?>
<svg xmlns="http://www.w3.org/2000/svg" xmlns:xlink="http://www.w3.org/1999/xlink" width="64" height="64" viewBox="0 0 64 64">
<path fill-rule="evenodd" fill="rgb(86.666667%, 20.392157%, 29.803923%)" fill-opacity="1" d="M 29.6875 47.503906 C 29.6875 48.351562 30.375 49.039062 31.222656 49.039062 C 32.070312 49.039062 32.761719 48.351562 32.761719 47.503906 C 32.761719 46.65625 32.070312 45.964844 31.222656 45.964844 C 30.375 45.964844 29.6875 46.65625 29.6875 47.503906 Z M 31.222656 43.300781 C 33.542969 43.300781 35.429688 45.183594 35.429688 47.503906 C 35.429688 49.820312 33.542969 51.707031 31.222656 51.707031 C 28.90625 51.707031 27.019531 49.820312 27.019531 47.503906 C 27.019531 45.183594 28.90625 43.300781 31.222656 43.300781 Z M 32.015625 36.613281 C 31.675781 36.613281 31.398438 36.886719 31.398438 37.226562 C 31.398438 37.566406 31.675781 37.84375 32.015625 37.84375 C 32.355469 37.84375 32.628906 37.566406 32.628906 37.226562 C 32.628906 36.886719 32.355469 36.613281 32.015625 36.613281 Z M 32.015625 35.175781 C 33.144531 35.175781 34.066406 36.097656 34.066406 37.226562 C 34.066406 38.359375 33.144531 39.277344 32.015625 39.277344 C 30.882812 39.277344 29.964844 38.359375 29.964844 37.226562 C 29.964844 36.097656 30.882812 35.175781 32.015625 35.175781 Z M 49.191406 40.796875 L 45.898438 44.09375 L 47.78125 45.976562 L 48.800781 44.960938 L 48.800781 54.121094 L 51.46875 54.121094 L 51.46875 44.960938 L 52.484375 45.976562 L 54.371094 44.09375 L 51.078125 40.796875 C 50.554688 40.277344 49.710938 40.277344 49.191406 40.796875 Z M 58.683594 47.535156 C 58.683594 42.820312 54.847656 38.984375 50.132812 38.984375 C 45.417969 38.984375 41.582031 42.820312 41.582031 47.535156 C 41.582031 52.25 45.417969 56.085938 50.132812 56.085938 C 54.847656 56.085938 58.683594 52.25 58.683594 47.535156 Z M 61.351562 47.535156 C 61.351562 53.71875 56.320312 58.753906 50.132812 58.753906 C 43.949219 58.753906 38.917969 53.71875 38.917969 47.535156 C 38.917969 41.347656 43.949219 36.316406 50.132812 36.316406 C 56.320312 36.316406 61.351562 41.347656 61.351562 47.535156 Z M 25.769531 18.425781 L 48.40625 18.425781 L 48.40625 34.882812 L 51.070312 34.882812 L 51.070312 17.089844 C 51.070312 16.355469 50.476562 15.757812 49.738281 15.757812 L 24.433594 15.757812 C 23.699219 15.757812 23.101562 16.355469 23.101562 17.089844 L 23.101562 55.046875 C 23.101562 55.78125 23.699219 56.378906 24.433594 56.378906 L 40.25 56.378906 L 40.25 53.710938 L 25.769531 53.710938 Z M 15.378906 38.964844 C 15.378906 39.414062 15.75 39.785156 16.199219 39.785156 C 16.652344 39.785156 17.019531 39.414062 17.019531 38.964844 C 17.019531 38.511719 16.652344 38.144531 16.199219 38.144531 C 15.75 38.144531 15.378906 38.511719 15.378906 38.964844 Z M 12.714844 38.964844 C 12.714844 37.039062 14.277344 35.476562 16.199219 35.476562 C 18.125 35.476562 19.6875 37.039062 19.6875 38.964844 C 19.6875 40.886719 18.125 42.449219 16.199219 42.449219 C 14.277344 42.449219 12.714844 40.886719 12.714844 38.964844 Z M 17.019531 18.867188 C 17.019531 18.414062 16.652344 18.046875 16.199219 18.046875 C 15.75 18.046875 15.378906 18.414062 15.378906 18.867188 C 15.378906 19.320312 15.75 19.6875 16.199219 19.6875 C 16.652344 19.6875 17.019531 19.320312 17.019531 18.867188 Z M 16.199219 22.355469 C 14.277344 22.355469 12.714844 20.789062 12.714844 18.867188 C 12.714844 16.945312 14.277344 15.382812 16.199219 15.382812 C 18.125 15.382812 19.6875 16.945312 19.6875 18.867188 C 19.6875 20.789062 18.125 22.355469 16.199219 22.355469 Z M 35.476562 9.535156 C 35.476562 9.988281 35.84375 10.355469 36.296875 10.355469 C 36.75 10.355469 37.117188 9.988281 37.117188 9.535156 C 37.117188 9.085938 36.75 8.71875 36.296875 8.71875 C 35.84375 8.71875 35.476562 9.085938 35.476562 9.535156 Z M 32.808594 9.535156 C 32.808594 7.613281 34.375 6.050781 36.296875 6.050781 C 38.21875 6.050781 39.78125 7.613281 39.78125 9.535156 C 39.78125 11.460938 38.21875 13.023438 36.296875 13.023438 C 34.375 13.023438 32.808594 11.460938 32.808594 9.535156 Z M 6.253906 9.535156 C 6.253906 9.875 6.53125 10.152344 6.871094 10.152344 C 7.210938 10.152344 7.484375 9.875 7.484375 9.535156 C 7.484375 9.199219 7.210938 8.921875 6.871094 8.921875 C 6.53125 8.921875 6.253906 9.199219 6.253906 9.535156 Z M 4.820312 9.535156 C 4.820312 8.40625 5.738281 7.484375 6.871094 7.484375 C 8 7.484375 8.921875 8.40625 8.921875 9.535156 C 8.921875 10.667969 8 11.589844 6.871094 11.589844 C 5.738281 11.589844 4.820312 10.667969 4.820312 9.535156 Z M 7.484375 48.292969 C 7.484375 47.953125 7.210938 47.679688 6.871094 47.679688 C 6.53125 47.679688 6.253906 47.953125 6.253906 48.292969 C 6.253906 48.632812 6.53125 48.910156 6.871094 48.910156 C 7.210938 48.910156 7.484375 48.632812 7.484375 48.292969 Z M 8.921875 48.292969 C 8.921875 49.425781 8 50.34375 6.871094 50.34375 C 5.738281 50.34375 4.820312 49.425781 4.820312 48.292969 C 4.820312 47.164062 5.738281 46.242188 6.871094 46.242188 C 8 46.242188 8.921875 47.164062 8.921875 48.292969 Z M 16.199219 28.300781 C 15.859375 28.300781 15.585938 28.574219 15.585938 28.914062 C 15.585938 29.253906 15.859375 29.53125 16.199219 29.53125 C 16.539062 29.53125 16.816406 29.253906 16.816406 28.914062 C 16.816406 28.574219 16.539062 28.300781 16.199219 28.300781 Z M 16.199219 26.863281 C 17.328125 26.863281 18.25 27.785156 18.25 28.914062 C 18.25 30.046875 17.328125 30.964844 16.199219 30.964844 C 15.070312 30.964844 14.148438 30.046875 14.148438 28.914062 C 14.148438 27.785156 15.070312 26.863281 16.199219 26.863281 Z M 7.484375 38.964844 C 7.484375 38.625 7.210938 38.347656 6.871094 38.347656 C 6.53125 38.347656 6.253906 38.625 6.253906 38.964844 C 6.253906 39.304688 6.53125 39.578125 6.871094 39.578125 C 7.210938 39.578125 7.484375 39.304688 7.484375 38.964844 Z M 8.921875 38.964844 C 8.921875 40.09375 8 41.015625 6.871094 41.015625 C 5.738281 41.015625 4.820312 40.09375 4.820312 38.964844 C 4.820312 37.832031 5.738281 36.914062 6.871094 36.914062 C 8 36.914062 8.921875 37.832031 8.921875 38.964844 Z M 25.632812 9.535156 C 25.632812 9.875 25.910156 10.152344 26.25 10.152344 C 26.589844 10.152344 26.863281 9.875 26.863281 9.535156 C 26.863281 9.199219 26.589844 8.921875 26.25 8.921875 C 25.910156 8.921875 25.632812 9.199219 25.632812 9.535156 Z M 24.199219 9.535156 C 24.199219 8.40625 25.117188 7.484375 26.25 7.484375 C 27.378906 7.484375 28.300781 8.40625 28.300781 9.535156 C 28.300781 10.667969 27.378906 11.589844 26.25 11.589844 C 25.117188 11.589844 24.199219 10.667969 24.199219 9.535156 Z M 44.835938 23.558594 C 44.496094 23.558594 44.21875 23.835938 44.21875 24.175781 C 44.21875 24.515625 44.496094 24.792969 44.835938 24.792969 C 45.175781 24.792969 45.453125 24.515625 45.453125 24.175781 C 45.453125 23.835938 45.175781 23.558594 44.835938 23.558594 Z M 44.835938 22.125 C 45.96875 22.125 46.886719 23.046875 46.886719 24.175781 C 46.886719 25.308594 45.96875 26.226562 44.835938 26.226562 C 43.707031 26.226562 42.785156 25.308594 42.785156 24.175781 C 42.785156 23.046875 43.707031 22.125 44.835938 22.125 Z M 45.011719 9.535156 C 45.011719 9.875 45.289062 10.152344 45.628906 10.152344 C 45.96875 10.152344 46.242188 9.875 46.242188 9.535156 C 46.242188 9.199219 45.96875 8.921875 45.628906 8.921875 C 45.289062 8.921875 45.011719 9.199219 45.011719 9.535156 Z M 43.578125 9.535156 C 43.578125 8.40625 44.496094 7.484375 45.628906 7.484375 C 46.757812 7.484375 47.679688 8.40625 47.679688 9.535156 C 47.679688 10.667969 46.757812 11.589844 45.628906 11.589844 C 44.496094 11.589844 43.578125 10.667969 43.578125 9.535156 Z M 8.40625 18.867188 C 8.40625 18.019531 7.71875 17.328125 6.871094 17.328125 C 6.023438 17.328125 5.332031 18.019531 5.332031 18.867188 C 5.332031 19.714844 6.023438 20.40625 6.871094 20.40625 C 7.71875 20.40625 8.40625 19.714844 8.40625 18.867188 Z M 11.074219 18.867188 C 11.074219 21.183594 9.1875 23.070312 6.871094 23.070312 C 4.550781 23.070312 2.664062 21.183594 2.664062 18.867188 C 2.664062 16.550781 4.550781 14.664062 6.871094 14.664062 C 9.1875 14.664062 11.074219 16.550781 11.074219 18.867188 Z M 8.40625 28.914062 C 8.40625 28.066406 7.71875 27.378906 6.871094 27.378906 C 6.023438 27.378906 5.332031 28.066406 5.332031 28.914062 C 5.332031 29.761719 6.023438 30.453125 6.871094 30.453125 C 7.71875 30.453125 8.40625 29.761719 8.40625 28.914062 Z M 11.074219 28.914062 C 11.074219 31.234375 9.1875 33.121094 6.871094 33.121094 C 4.550781 33.121094 2.664062 31.234375 2.664062 28.914062 C 2.664062 26.597656 4.550781 24.710938 6.871094 24.710938 C 9.1875 24.710938 11.074219 26.597656 11.074219 28.914062 Z M 17.738281 48.292969 C 17.738281 47.445312 17.046875 46.757812 16.199219 46.757812 C 15.351562 46.757812 14.660156 47.445312 14.660156 48.292969 C 14.660156 49.140625 15.351562 49.832031 16.199219 49.832031 C 17.046875 49.832031 17.738281 49.140625 17.738281 48.292969 Z M 20.40625 48.292969 C 20.40625 50.613281 18.519531 52.496094 16.199219 52.496094 C 13.882812 52.496094 11.996094 50.613281 11.996094 48.292969 C 11.996094 45.976562 13.882812 44.089844 16.199219 44.089844 C 18.519531 44.089844 20.40625 45.976562 20.40625 48.292969 Z M 17.738281 9.535156 C 17.738281 8.6875 17.046875 8 16.199219 8 C 15.351562 8 14.660156 8.6875 14.660156 9.535156 C 14.660156 10.382812 15.351562 11.074219 16.199219 11.074219 C 17.046875 11.074219 17.738281 10.382812 17.738281 9.535156 Z M 20.40625 9.535156 C 20.40625 11.855469 18.519531 13.742188 16.199219 13.742188 C 13.882812 13.742188 11.996094 11.855469 11.996094 9.535156 C 11.996094 7.21875 13.882812 5.332031 16.199219 5.332031 C 18.519531 5.332031 20.40625 7.21875 20.40625 9.535156 Z M 34.742188 32.09375 L 41.753906 32.09375 L 41.753906 29.429688 L 34.742188 29.429688 Z M 29.101562 29.414062 L 32.21875 26.296875 L 29.101562 23.183594 L 30.988281 21.296875 L 35.046875 25.355469 C 35.296875 25.605469 35.4375 25.945312 35.4375 26.296875 C 35.4375 26.652344 35.296875 26.992188 35.046875 27.242188 L 30.988281 31.300781 Z M 29.101562 29.414062 "/>
</svg>
