<?xml version="1.0" encoding="UTF-8"?>
<svg xmlns="http://www.w3.org/2000/svg" xmlns:xlink="http://www.w3.org/1999/xlink" width="64" height="64" viewBox="0 0 64 64">
<path fill-rule="evenodd" fill="rgb(86.666667%, 20.392157%, 29.803923%)" fill-opacity="1" d="M 57.875 21.210938 C 57.875 20.964844 57.679688 20.765625 57.433594 20.765625 C 57.1875 20.765625 56.988281 20.964844 56.988281 21.210938 C 56.988281 21.453125 57.1875 21.652344 57.433594 21.652344 C 57.679688 21.652344 57.875 21.453125 57.875 21.210938 Z M 60.476562 21.210938 C 60.476562 22.886719 59.113281 24.25 57.433594 24.25 C 55.753906 24.25 54.390625 22.886719 54.390625 21.210938 C 54.390625 19.53125 55.753906 18.167969 57.433594 18.167969 C 59.113281 18.167969 60.476562 19.53125 60.476562 21.210938 Z M 34.542969 31.101562 C 34.542969 31.496094 34.863281 31.820312 35.261719 31.820312 C 35.660156 31.820312 35.980469 31.496094 35.980469 31.101562 C 35.980469 30.703125 35.660156 30.378906 35.261719 30.378906 C 34.863281 30.378906 34.542969 30.703125 34.542969 31.101562 Z M 35.261719 27.710938 C 37.128906 27.710938 38.648438 29.230469 38.648438 31.101562 C 38.648438 32.96875 37.128906 34.488281 35.261719 34.488281 C 33.394531 34.488281 31.875 32.96875 31.875 31.101562 C 31.875 29.230469 33.394531 27.710938 35.261719 27.710938 Z M 57.449219 31.003906 C 57.824219 31.003906 58.128906 30.699219 58.128906 30.324219 C 58.128906 29.949219 57.824219 29.644531 57.449219 29.644531 C 57.074219 29.644531 56.769531 29.949219 56.769531 30.324219 C 56.769531 30.699219 57.074219 31.003906 57.449219 31.003906 Z M 57.449219 32.339844 C 56.339844 32.339844 55.4375 31.433594 55.4375 30.324219 C 55.4375 29.214844 56.339844 28.3125 57.449219 28.3125 C 58.5625 28.3125 59.464844 29.214844 59.464844 30.324219 C 59.464844 31.433594 58.5625 32.339844 57.449219 32.339844 Z M 35.261719 25.113281 C 35.65625 25.113281 35.976562 24.792969 35.976562 24.398438 C 35.976562 24.003906 35.65625 23.683594 35.261719 23.683594 C 34.867188 23.683594 34.546875 24.003906 34.546875 24.398438 C 34.546875 24.792969 34.867188 25.113281 35.261719 25.113281 Z M 35.261719 26.113281 C 34.316406 26.113281 33.546875 25.34375 33.546875 24.398438 C 33.546875 23.453125 34.316406 22.683594 35.261719 22.683594 C 36.207031 22.683594 36.976562 23.453125 36.976562 24.398438 C 36.976562 25.34375 36.207031 26.113281 35.261719 26.113281 Z M 52.164062 27.195312 C 52.164062 26.675781 51.742188 26.25 51.222656 26.25 C 50.703125 26.25 50.28125 26.675781 50.28125 27.195312 C 50.28125 27.714844 50.703125 28.136719 51.222656 28.136719 C 51.742188 28.136719 52.164062 27.714844 52.164062 27.195312 Z M 54.832031 27.195312 C 54.832031 29.183594 53.210938 30.804688 51.222656 30.804688 C 49.234375 30.804688 47.613281 29.183594 47.613281 27.195312 C 47.613281 25.203125 49.234375 23.585938 51.222656 23.585938 C 53.210938 23.585938 54.832031 25.203125 54.832031 27.195312 Z M 35.527344 38.875 C 35.527344 38.738281 35.414062 38.625 35.273438 38.625 C 35.136719 38.625 35.023438 38.738281 35.023438 38.875 C 35.023438 39.15625 35.527344 39.15625 35.527344 38.875 Z M 38.128906 38.875 C 38.128906 40.449219 36.847656 41.726562 35.273438 41.726562 C 33.703125 41.726562 32.421875 40.449219 32.421875 38.875 C 32.421875 37.304688 33.703125 36.023438 35.273438 36.023438 C 36.847656 36.023438 38.128906 37.304688 38.128906 38.875 Z M 42.714844 39.601562 C 43.109375 39.601562 43.429688 39.28125 43.429688 38.886719 C 43.429688 38.492188 43.109375 38.171875 42.714844 38.171875 C 42.320312 38.171875 42 38.492188 42 38.886719 C 42 39.28125 42.320312 39.601562 42.714844 39.601562 Z M 42.714844 40.601562 C 41.769531 40.601562 41 39.832031 41 38.886719 C 41 37.941406 41.769531 37.171875 42.714844 37.171875 C 43.660156 37.171875 44.429688 37.941406 44.429688 38.886719 C 44.429688 39.832031 43.660156 40.601562 42.714844 40.601562 Z M 55.949219 40.320312 C 55.949219 40.839844 56.371094 41.265625 56.890625 41.265625 C 57.410156 41.265625 57.835938 40.839844 57.835938 40.320312 C 57.835938 39.800781 57.410156 39.378906 56.890625 39.378906 C 56.371094 39.378906 55.949219 39.800781 55.949219 40.320312 Z M 56.890625 36.710938 C 58.878906 36.710938 60.5 38.332031 60.5 40.320312 C 60.5 42.3125 58.878906 43.929688 56.890625 43.929688 C 54.902344 43.929688 53.28125 42.3125 53.28125 40.320312 C 53.28125 38.332031 54.902344 36.710938 56.890625 36.710938 Z M 25.960938 34.832031 C 27.402344 34.785156 27.617188 33.339844 27.695312 32.796875 C 27.804688 32.0625 27.90625 31.589844 28.414062 31.222656 C 29.015625 30.789062 29.65625 30.527344 30.324219 30.4375 L 29.96875 27.792969 C 28.878906 27.941406 27.800781 28.378906 26.855469 29.058594 C 25.488281 30.042969 25.210938 31.414062 25.082031 32.246094 C 22.683594 32.640625 19.710938 34.507812 19.710938 38.648438 C 19.710938 40.792969 20.347656 42.492188 21.601562 43.699219 C 23.316406 45.347656 25.601562 45.4375 26.046875 45.4375 C 26.09375 45.4375 26.121094 45.4375 26.125 45.4375 L 43.695312 45.4375 C 43.796875 45.4375 46.210938 45.425781 48.144531 44.261719 C 50.761719 42.691406 52.378906 38.53125 50.550781 34.285156 C 49.53125 31.910156 47.613281 31.328125 46.210938 30.902344 C 45.871094 30.800781 45.546875 30.699219 45.257812 30.585938 C 45.210938 29.980469 45.066406 28.960938 44.097656 27.507812 C 41.6875 23.890625 38.089844 24.457031 37.941406 24.484375 L 38.371094 27.113281 C 38.460938 27.105469 40.453125 26.84375 41.878906 28.984375 C 42.546875 29.988281 42.582031 30.507812 42.609375 30.929688 C 42.640625 31.375 42.699219 32.300781 43.726562 32.820312 C 44.292969 33.105469 44.871094 33.285156 45.4375 33.453125 C 46.800781 33.867188 47.59375 34.160156 48.101562 35.339844 C 49.464844 38.507812 48.113281 41.171875 46.773438 41.976562 C 45.480469 42.75 43.710938 42.769531 43.695312 42.769531 L 26.082031 42.769531 C 26.058594 42.769531 24.496094 42.800781 23.433594 41.765625 C 22.734375 41.078125 22.378906 40.03125 22.378906 38.648438 C 22.378906 34.988281 25.816406 34.835938 25.960938 34.832031 Z M 5.335938 16.179688 L 15.140625 16.179688 L 15.140625 10.667969 L 5.335938 10.667969 Z M 5.335938 43.792969 L 15.140625 43.792969 L 15.140625 36.636719 L 5.335938 36.636719 Z M 5.335938 25.121094 L 15.140625 25.121094 L 15.140625 18.847656 L 5.335938 18.847656 Z M 5.335938 33.972656 L 15.140625 33.972656 L 15.140625 27.785156 L 5.335938 27.785156 Z M 61.320312 8 L 61.320312 10.667969 L 17.808594 10.667969 L 17.808594 54.9375 C 17.808594 55.675781 17.210938 56.269531 16.476562 56.269531 L 4 56.269531 L 4 53.605469 L 15.140625 53.605469 L 15.140625 46.460938 L 5.335938 46.460938 L 5.335938 51.855469 L 2.667969 51.855469 L 2.667969 9.332031 C 2.667969 8.597656 3.261719 8 4 8 Z M 19.574219 56.21875 L 61.320312 56.21875 L 61.320312 53.554688 L 19.574219 53.554688 Z M 7.214844 14.707031 L 9.269531 14.707031 L 9.269531 12.039062 L 7.214844 12.039062 Z M 19.574219 14.707031 L 61.320312 14.707031 L 61.320312 12.039062 L 19.574219 12.039062 Z M 19.574219 14.707031 "/>
</svg>
