<?xml version="1.0" encoding="UTF-8"?>
<svg xmlns="http://www.w3.org/2000/svg" xmlns:xlink="http://www.w3.org/1999/xlink" width="64" height="64" viewBox="0 0 64 64">
<path fill-rule="evenodd" fill="rgb(0.392157%, 65.882353%, 55.294118%)" fill-opacity="1" d="M 39.941406 39.773438 C 39.941406 40.421875 39.414062 40.949219 38.765625 40.949219 C 38.117188 40.949219 37.589844 40.421875 37.589844 39.773438 C 37.589844 39.125 38.117188 38.597656 38.765625 38.597656 C 39.414062 38.597656 39.941406 39.125 39.941406 39.773438 Z M 43.785156 15.859375 C 43.136719 15.859375 42.609375 15.332031 42.609375 14.683594 C 42.609375 14.035156 43.136719 13.507812 43.785156 13.507812 C 44.433594 13.507812 44.960938 14.035156 44.960938 14.683594 C 44.960938 15.332031 44.433594 15.859375 43.785156 15.859375 Z M 39.226562 27.585938 C 39.226562 28.234375 38.695312 28.761719 38.050781 28.761719 C 37.402344 28.761719 36.875 28.234375 36.875 27.585938 C 36.875 26.941406 37.402344 26.410156 38.050781 26.410156 C 38.695312 26.410156 39.226562 26.941406 39.226562 27.585938 Z M 45.472656 48.375 C 45.472656 47.726562 46.003906 47.199219 46.652344 47.199219 C 47.300781 47.199219 47.828125 47.726562 47.828125 48.375 C 47.828125 49.023438 47.300781 49.550781 46.652344 49.550781 C 46.003906 49.550781 45.472656 49.023438 45.472656 48.375 Z M 51.375 41.738281 C 50.953125 41.972656 50.691406 42.414062 50.691406 42.898438 L 50.691406 51.152344 L 41.175781 56.78125 L 41.175781 50.066406 L 43.21875 50.066406 C 43.847656 51.335938 45.140625 52.21875 46.652344 52.21875 C 48.769531 52.21875 50.492188 50.496094 50.492188 48.375 C 50.492188 46.257812 48.769531 44.53125 46.652344 44.53125 C 44.871094 44.53125 43.382812 45.753906 42.949219 47.402344 L 39.839844 47.402344 C 39.105469 47.402344 38.507812 47.996094 38.507812 48.734375 L 38.507812 58.359375 L 37.96875 58.679688 L 33.289062 55.96875 L 33.289062 21.394531 L 37.074219 21.394531 L 37.074219 23.886719 C 35.429688 24.320312 34.207031 25.808594 34.207031 27.585938 C 34.207031 29.707031 35.929688 31.429688 38.050781 31.429688 C 40.167969 31.429688 41.890625 29.707031 41.890625 27.585938 C 41.890625 26.078125 41.007812 24.785156 39.742188 24.15625 L 39.742188 21.394531 L 44.140625 21.394531 C 44.878906 21.394531 45.472656 20.796875 45.472656 20.0625 L 45.472656 18.117188 C 46.742188 17.488281 47.625 16.191406 47.625 14.683594 C 47.625 12.566406 45.902344 10.84375 43.785156 10.84375 C 41.664062 10.84375 39.941406 12.566406 39.941406 14.683594 C 39.941406 16.464844 41.164062 17.953125 42.808594 18.386719 L 42.808594 18.726562 L 33.289062 18.726562 L 33.289062 9.070312 L 39.15625 5.558594 L 51.410156 13.03125 L 51.410156 21.25 C 51.410156 21.730469 51.667969 22.175781 52.085938 22.410156 L 58.578125 26.089844 L 58.578125 30.195312 L 46.292969 30.195312 C 45.554688 30.195312 44.960938 30.792969 44.960938 31.527344 L 44.960938 38.082031 L 42.199219 38.082031 C 41.570312 36.8125 40.277344 35.929688 38.765625 35.929688 C 36.648438 35.929688 34.925781 37.652344 34.925781 39.773438 C 34.925781 41.890625 36.648438 43.617188 38.765625 43.617188 C 40.546875 43.617188 42.03125 42.394531 42.46875 40.746094 L 46.292969 40.746094 C 47.027344 40.746094 47.625 40.152344 47.625 39.414062 L 47.625 32.863281 L 58.578125 32.863281 L 58.578125 37.679688 Z M 22.996094 37.882812 C 23.644531 37.882812 24.171875 38.410156 24.171875 39.058594 C 24.171875 39.703125 23.644531 40.234375 22.996094 40.234375 C 22.347656 40.234375 21.820312 39.703125 21.820312 39.058594 C 21.820312 38.410156 22.347656 37.882812 22.996094 37.882812 Z M 21.105469 16.835938 C 21.105469 16.1875 21.632812 15.660156 22.28125 15.660156 C 22.925781 15.660156 23.453125 16.1875 23.453125 16.835938 C 23.453125 17.484375 22.925781 18.011719 22.28125 18.011719 C 21.632812 18.011719 21.105469 17.484375 21.105469 16.835938 Z M 16.285156 27.585938 C 16.285156 28.234375 15.757812 28.761719 15.109375 28.761719 C 14.464844 28.761719 13.9375 28.234375 13.9375 27.585938 C 13.9375 26.941406 14.464844 26.410156 15.109375 26.410156 C 15.757812 26.410156 16.285156 26.941406 16.285156 27.585938 Z M 23.253906 50.523438 C 23.253906 49.875 23.78125 49.351562 24.429688 49.351562 C 25.078125 49.351562 25.605469 49.875 25.605469 50.523438 C 25.605469 51.175781 25.078125 51.699219 24.429688 51.699219 C 23.78125 51.699219 23.253906 51.175781 23.253906 50.523438 Z M 25.214844 58.671875 L 12.5 51.148438 L 12.503906 42.898438 C 12.503906 42.410156 12.238281 41.964844 11.8125 41.730469 L 11.335938 41.464844 L 14.851562 41.464844 L 14.851562 50.882812 C 14.851562 51.621094 15.449219 52.21875 16.1875 52.21875 L 20.996094 52.21875 C 21.625 53.484375 22.917969 54.367188 24.429688 54.367188 C 26.546875 54.367188 28.273438 52.644531 28.273438 50.523438 C 28.273438 48.40625 26.546875 46.683594 24.429688 46.683594 C 22.652344 46.683594 21.164062 47.90625 20.726562 49.550781 L 17.519531 49.550781 L 17.519531 40.132812 C 17.519531 39.394531 16.921875 38.800781 16.1875 38.800781 L 6.484375 38.800781 L 5.335938 38.167969 L 5.332031 26.089844 L 11.824219 22.410156 C 12.242188 22.171875 12.5 21.730469 12.5 21.246094 L 12.503906 17.808594 L 14.136719 17.808594 L 14.136719 23.886719 C 12.492188 24.320312 11.269531 25.808594 11.269531 27.585938 C 11.269531 29.707031 12.992188 31.429688 15.109375 31.429688 C 17.230469 31.429688 18.953125 29.707031 18.953125 27.585938 C 18.953125 26.078125 18.070312 24.785156 16.800781 24.15625 L 16.800781 17.808594 L 18.578125 17.808594 C 19.011719 19.457031 20.5 20.679688 22.28125 20.679688 C 24.398438 20.679688 26.121094 18.953125 26.121094 16.835938 C 26.121094 14.71875 24.398438 12.992188 22.28125 12.992188 C 20.773438 12.992188 19.476562 13.875 18.847656 15.140625 L 12.503906 15.140625 L 12.503906 13.027344 L 24.757812 5.558594 L 30.625 9.070312 L 30.625 24.460938 L 22.636719 24.460938 C 21.902344 24.460938 21.304688 25.058594 21.304688 25.796875 L 21.304688 35.625 C 20.035156 36.25 19.152344 37.546875 19.152344 39.058594 C 19.152344 41.175781 20.878906 42.898438 22.996094 42.898438 C 25.113281 42.898438 26.839844 41.175781 26.839844 39.058594 C 26.839844 37.277344 25.617188 35.789062 23.96875 35.355469 L 23.96875 27.128906 L 30.625 27.128906 L 30.625 55.453125 Z M 61.246094 25.316406 C 61.246094 24.835938 60.988281 24.394531 60.570312 24.15625 L 54.078125 20.472656 L 54.078125 12.285156 C 54.078125 11.816406 53.835938 11.386719 53.4375 11.144531 L 39.855469 2.863281 C 39.433594 2.605469 38.902344 2.601562 38.476562 2.855469 L 31.957031 6.757812 L 25.4375 2.855469 C 25.007812 2.601562 24.480469 2.605469 24.058594 2.863281 L 10.472656 11.140625 C 10.078125 11.386719 9.835938 11.816406 9.835938 12.28125 L 9.835938 20.472656 L 3.34375 24.152344 C 2.925781 24.390625 2.667969 24.835938 2.667969 25.3125 L 2.667969 38.953125 C 2.667969 39.441406 2.933594 39.886719 3.355469 40.121094 L 9.835938 43.683594 L 9.835938 51.910156 C 9.835938 52.382812 10.082031 52.816406 10.488281 53.058594 L 24.539062 61.367188 C 24.960938 61.617188 25.480469 61.617188 25.902344 61.367188 L 31.519531 58.023438 L 37.304688 61.375 C 37.511719 61.496094 37.742188 61.554688 37.972656 61.554688 C 38.207031 61.554688 38.441406 61.492188 38.652344 61.367188 L 52.707031 53.0625 C 53.113281 52.820312 53.359375 52.386719 53.359375 51.914062 L 53.359375 43.679688 L 60.566406 39.621094 C 60.988281 39.386719 61.246094 38.941406 61.246094 38.460938 Z M 61.246094 25.316406 "/>
</svg>
