<?xml version="1.0" encoding="UTF-8"?>
<svg xmlns="http://www.w3.org/2000/svg" xmlns:xlink="http://www.w3.org/1999/xlink" width="64" height="64" viewBox="0 0 64 64">
<path fill-rule="evenodd" fill="rgb(0.392157%, 65.882353%, 55.294118%)" fill-opacity="1" d="M 16 45.332031 C 21.882812 45.332031 26.667969 40.546875 26.667969 34.667969 C 26.667969 28.785156 21.882812 24 16 24 C 10.117188 24 5.332031 28.785156 5.332031 34.667969 C 5.332031 40.546875 10.117188 45.332031 16 45.332031 Z M 27.117188 42.011719 C 26.125 43.507812 24.839844 44.789062 23.34375 45.78125 L 30.113281 52.550781 C 31.121094 53.558594 32.878906 53.558594 33.886719 52.550781 C 34.390625 52.046875 34.667969 51.378906 34.667969 50.667969 C 34.667969 49.953125 34.390625 49.285156 33.886719 48.78125 Z M 16 48 C 8.648438 48 2.667969 42.019531 2.667969 34.667969 C 2.667969 27.316406 8.648438 21.332031 16 21.332031 C 23.351562 21.332031 29.332031 27.316406 29.332031 34.667969 C 29.332031 36.382812 28.996094 38.019531 28.402344 39.527344 L 35.769531 46.894531 C 36.777344 47.902344 37.332031 49.242188 37.332031 50.667969 C 37.332031 52.089844 36.777344 53.429688 35.769531 54.4375 C 34.765625 55.445312 33.425781 56 32 56 C 30.574219 56 29.234375 55.445312 28.230469 54.4375 L 20.863281 47.070312 C 19.351562 47.664062 17.714844 48 16 48 Z M 38.667969 34.667969 L 48 34.667969 L 48 32 L 38.667969 32 Z M 32 28 L 48 28 L 48 25.332031 L 32 25.332031 Z M 40 48 L 48 48 L 48 45.332031 L 40 45.332031 Z M 36 41.332031 L 48 41.332031 L 48 38.667969 L 36 38.667969 Z M 45.332031 18.667969 L 50.113281 18.667969 L 45.332031 13.886719 Z M 54.277344 19.058594 C 54.527344 19.308594 54.667969 19.648438 54.667969 20 L 54.667969 60 C 54.667969 60.734375 54.070312 61.332031 53.332031 61.332031 L 16 61.332031 C 15.261719 61.332031 14.667969 60.734375 14.667969 60 L 14.667969 50.667969 L 17.332031 50.667969 L 17.332031 58.667969 L 52 58.667969 L 52 21.332031 L 44 21.332031 C 43.261719 21.332031 42.667969 20.734375 42.667969 20 L 42.667969 12 L 17.332031 12 L 17.332031 18.667969 L 14.667969 18.667969 L 14.667969 10.667969 C 14.667969 9.929688 15.261719 9.332031 16 9.332031 L 44 9.332031 C 44.355469 9.332031 44.691406 9.472656 44.941406 9.722656 Z M 61.332031 16 L 61.332031 53.332031 C 61.332031 54.070312 60.738281 54.667969 60 54.667969 L 57.332031 54.667969 L 57.332031 52 L 58.667969 52 L 58.667969 16.550781 L 47.449219 5.332031 L 24 5.332031 L 24 6.667969 L 21.332031 6.667969 L 21.332031 4 C 21.332031 3.265625 21.929688 2.667969 22.667969 2.667969 L 48 2.667969 C 48.355469 2.667969 48.691406 2.808594 48.941406 3.058594 L 60.941406 15.058594 C 61.191406 15.308594 61.332031 15.648438 61.332031 16 Z M 61.332031 16 "/>
</svg>
