<svg width="80" height="80" viewBox="0 0 80 80" fill="none" xmlns="http://www.w3.org/2000/svg">
<g clip-path="url(#clip0_230_161)">
<rect width="80" height="80" fill="#8C4FFF"/>
<path d="M36.7119 39.3809C34.9922 41.169 35.0478 44.0235 36.8359 45.7437C37.708 46.5816 38.832 46.9981 39.9541 46.9981C41.1367 46.9981 42.3174 46.5362 43.1992 45.6192C44.9189 43.8311 44.8633 40.9766 43.0752 39.2564C41.2832 37.5352 38.4297 37.5933 36.7119 39.3809ZM41.7578 44.2325C40.8008 45.2271 39.2168 45.2569 38.2226 44.3023C37.2295 43.3467 37.1982 41.7608 38.1533 40.7671C38.6435 40.2574 39.2998 40.001 39.956 40.001C40.5801 40.001 41.2041 40.2325 41.6885 40.6978C42.6816 41.6534 42.7129 43.2393 41.7578 44.2325ZM12 38.3834C12 31.5098 16.6484 28.98 19.3545 28.0914L19.3008 27.1807C19.2988 21.5176 23.0381 15.7037 27.9971 13.5977C33.8135 11.1285 39.9697 12.3585 44.4678 16.8829C45.8652 18.2886 47.0107 19.9942 47.8848 21.9678C49.6533 20.4976 52.0596 19.9971 54.2881 20.7291C57.1299 21.6631 58.8975 24.294 59.1035 27.837C61.9717 28.5142 68 30.8482 68 38.4669C68 48.3848 58.1494 48.9937 58.0498 48.9986L53 49.0001V47.0001H58C58.2764 46.9835 66 46.4659 66 38.4669C66 31.565 59.8291 29.9644 57.9375 29.6382C57.4014 29.546 57.0371 29.0411 57.1191 28.503L57.124 28.4698C57.1035 25.4727 55.8447 23.3458 53.664 22.6295C51.7187 21.9903 49.5791 22.6954 48.3359 24.3829C48.1172 24.6807 47.7461 24.8331 47.3838 24.7789C47.0176 24.7242 46.7109 24.4713 46.5879 24.1217C45.7666 21.7896 44.5762 19.8287 43.0498 18.293C41.1758 16.4078 36.0342 12.3575 28.7783 15.4386C24.584 17.2198 21.2988 22.3516 21.2988 27.1217L21.3974 28.7677C21.4258 29.2457 21.1113 29.6764 20.6484 29.7955C18.165 30.4322 14 32.3951 14 38.3834C14 42.8717 16.4297 45.3473 18.4678 46.6339C19.0488 47.0016 19.9521 47.0059 20.8408 47.0001H27V49.0001H20.7441C19.7051 49.0001 18.4385 48.9806 17.3994 48.3253C15.3828 47.0523 12 44.0679 12 38.3834ZM65.4385 58.2022C65.2002 57.0088 64.4082 56.3316 63.6602 56.086C63.082 55.8961 62.4736 55.9195 61.9307 56.1255C61.7168 55.7784 61.4707 55.4634 61.1924 55.1837C59.7168 53.6988 57.6963 53.296 55.7813 54.1075C55.7227 54.1324 55.6686 54.1691 55.6111 54.1971L50.1274 48.7135L52.0137 42.919C52.1709 42.4361 51.9414 41.9127 51.4795 41.7008L48.2178 40.2022L47.958 39.3878L49.7168 36.2598C49.9648 35.8175 49.8428 35.2593 49.4326 34.961L44.1465 31.1148C43.7354 30.8165 43.168 30.8717 42.8232 31.2457L40.4111 33.8624L39.5244 33.8677L37.1035 31.2403C36.7598 30.8668 36.1885 30.8111 35.7812 31.1085L30.4893 34.9473C30.0781 35.2457 29.9561 35.8038 30.2041 36.2467L31.9658 39.3834L31.7051 40.1822L28.4316 41.6846C27.9707 41.8961 27.7412 42.419 27.8975 42.9014L29.8026 48.7825L22.8154 55.7706C22.6666 55.5697 22.528 55.3581 22.3545 55.1837C20.8789 53.6988 18.8574 53.296 16.9453 54.1075C15.3838 54.7706 14.1875 56.5377 14.0771 58.3463C12.7754 58.9596 12.0205 60.1729 12.0205 61.7198C12.0205 63.6588 13.1797 64.6803 13.8701 65.1158C15.2676 65.9991 15.6396 65.9996 15.8633 66.0001H25.8633C25.9629 66.0001 26.0625 65.985 26.1582 65.9557C27.1973 65.6344 29.1621 64.3409 29.1621 61.7433C29.1621 59.7794 27.9453 58.67 26.6016 58.2027C26.3997 57.1914 25.7988 56.5708 25.165 56.2491L31.7605 49.6528L34.5586 49.0929L35.2715 49.6212L35.6836 53.1598C35.7422 53.6637 36.1689 54.0436 36.6758 54.044L39.001 54.0463V58.1021C36.7212 58.5664 35 60.5863 35 63.0011C35 65.7579 37.2432 68.0011 40 68.0011C42.7568 68.0011 45 65.7579 45 63.0011C45 60.587 43.2798 58.5673 41.001 58.1023V54.0483L43.2129 54.0504C43.7197 54.0504 44.1475 53.6705 44.207 53.1671L44.625 49.6075L45.3184 49.0997L48.2791 49.6933L54.0569 55.4711C53.4103 56.2825 52.9786 57.3038 52.915 58.3463C51.6133 58.9591 50.8584 60.173 50.8584 61.7198C50.8584 63.6588 52.0176 64.6803 52.708 65.1158C52.7217 65.1246 54.1367 65.9991 54.8467 66.0001H64.8467C64.9531 66.0001 65.0586 65.983 65.1602 65.9498C65.2764 65.9117 68 64.9757 68 61.7433C68 59.7789 66.7822 58.669 65.4385 58.2022ZM43 63.001C43 64.6553 41.6543 66.001 40 66.001C38.3457 66.001 37 64.6553 37 63.001C37 61.3467 38.3457 60.001 40 60.001C41.6543 60.001 43 61.3467 43 63.001ZM27.1621 61.7432C27.1621 63.2461 26.0674 63.8389 25.6846 64.0001H15.9678C15.8203 63.9405 15.4609 63.7554 14.9385 63.4249C14.3291 63.0406 14.0205 62.4668 14.0205 61.7198C14.0205 60.8101 14.4658 60.2344 15.3447 60.0088C15.8076 59.8897 16.1221 59.4585 16.0937 58.981L16.0674 58.5621C16.0674 57.5093 16.8115 56.337 17.7265 55.9483C19.3564 55.2544 20.5146 56.1685 20.9365 56.5938C21.2842 56.9429 21.5683 57.4151 21.7597 57.9595C21.8828 58.3091 22.1885 58.5621 22.5547 58.6167C22.9267 58.6729 23.289 58.5186 23.5088 58.2207C23.6972 57.9639 23.9931 57.9195 24.1982 57.9859C24.4883 58.0816 24.6601 58.4131 24.6728 58.9004C24.6259 59.4156 24.9814 59.8873 25.499 59.9766C26.1201 60.084 27.1621 60.4561 27.1621 61.7432ZM45.2793 47.0523C45.002 46.9952 44.7187 47.0601 44.4922 47.2261L43.0918 48.2515C42.8672 48.4156 42.7217 48.6656 42.6895 48.9415L42.3242 52.0494L37.5674 52.045L37.208 48.9595C37.1758 48.6851 37.0322 48.4361 36.8096 48.2715L35.3916 47.2217C35.165 47.0538 34.8769 46.9879 34.6006 47.045L31.54 47.6573L30.0742 43.1314L32.9375 41.817C33.1914 41.7007 33.3848 41.4835 33.4717 41.2183L34.0039 39.5865C34.0898 39.3209 34.0615 39.0308 33.9248 38.7867L32.3838 36.0435L36.2353 33.2496L38.3525 35.5479C38.543 35.7545 38.8281 35.8438 39.0937 35.8702L40.8574 35.8599C41.1347 35.8585 41.3984 35.7418 41.5869 35.5377L43.6904 33.2559L47.5371 36.0548L46.001 38.7867C45.8652 39.0289 45.8359 39.3165 45.9199 39.5806L46.4463 41.2305C46.5322 41.4986 46.7266 41.7183 46.9824 41.8355L49.8359 43.1466L48.3795 47.6206L48.3352 47.6649L45.2793 47.0523ZM64.6543 64.0001H54.9346C54.6758 63.9141 53.9863 63.5582 53.7764 63.4249C53.167 63.0406 52.8584 62.4668 52.8584 61.7198C52.8584 60.8096 53.3037 60.2339 54.1816 60.0088C54.6455 59.8897 54.96 59.459 54.9316 58.981L54.9053 58.5621C54.9053 57.5093 55.6494 56.337 56.5635 55.9483C58.1933 55.2569 59.3516 56.1685 59.7734 56.5933C60.1211 56.9429 60.4053 57.4156 60.5976 57.9605C60.7207 58.3101 61.0273 58.5625 61.3935 58.6172C61.7637 58.6729 62.1269 58.5186 62.3467 58.2208C62.5351 57.9639 62.832 57.9195 63.0351 57.9859C63.3379 58.085 63.5107 58.4405 63.5146 58.8653C63.4473 59.396 63.8096 59.8858 64.3369 59.9766C64.958 60.084 66 60.4561 66 61.7432C66 63.2359 65.0166 63.8311 64.6543 64.0001Z" fill="white"/>
</g>
<defs>
<clipPath id="clip0_230_161">
<rect width="80" height="80" fill="white"/>
</clipPath>
</defs>
</svg>
