<?xml version="1.0" encoding="UTF-8"?>
<svg width="80px" height="80px" viewBox="0 0 80 80" version="1.1" xmlns="http://www.w3.org/2000/svg" xmlns:xlink="http://www.w3.org/1999/xlink">
    <title>Icon-Architecture/64/Arch_AWS-Verified-Access_64</title>
    <defs>
        <linearGradient x1="0%" y1="100%" x2="100%" y2="0%" id="linearGradient-1">
            <stop stop-color="#4D27A8" offset="0%"></stop>
            <stop stop-color="#A166FF" offset="100%"></stop>
        </linearGradient>
    </defs>
    <g id="Icon-Architecture/64/Arch_AWS-Verified-Access_64" stroke="none" stroke-width="1" fill="none" fill-rule="evenodd">
        <g id="Icon-Architecture-BG/64/Networking-Content-Delivery" fill="url(#linearGradient-1)">
            <rect id="Rectangle" x="0" y="0" width="80" height="80"></rect>
        </g>
        <g id="Icon-Service/64/AWS-Verified-Access_64" transform="translate(12.000000, 12.000000)" fill="#FFFFFF">
            <path d="M20.0660937,49.16 L19.3840937,51.041 C12.9460937,48.709 7.78009374,43.727 5.21309374,37.374 L7.06709374,36.625 C9.42209374,42.452 14.1600937,47.021 20.0660937,49.16 L20.0660937,49.16 Z M49.2590937,36.625 L51.1130937,37.374 C48.5200937,43.791 43.2940937,48.795 36.7720937,51.101 L36.1060937,49.216 C42.0870937,47.1 46.8800937,42.511 49.2590937,36.625 L49.2590937,36.625 Z M7.06709374,20.363 L5.21309374,19.614 C7.73509374,13.375 12.7900937,8.435 19.0810937,6.06 L19.7880937,7.931 C14.0160937,10.109 9.38009374,14.64 7.06709374,20.363 L7.06709374,20.363 Z M36.1060937,7.772 L36.7720937,5.887 C43.2940937,8.193 48.5200937,13.197 51.1130937,19.614 L49.2590937,20.363 C46.8800937,14.477 42.0870937,9.888 36.1060937,7.772 L36.1060937,7.772 Z M27.9980937,2 C29.6520937,2 30.9980937,3.346 30.9980937,5 C30.9980937,6.654 29.6520937,8 27.9980937,8 C26.3430937,8 24.9980937,6.654 24.9980937,5 C24.9980937,3.346 26.3430937,2 27.9980937,2 L27.9980937,2 Z M27.9980937,10 C30.7540937,10 32.9980937,7.757 32.9980937,5 C32.9980937,2.243 30.7540937,0 27.9980937,0 C25.2410937,0 22.9980937,2.243 22.9980937,5 C22.9980937,7.757 25.2410937,10 27.9980937,10 L27.9980937,10 Z M29.9170937,53.306 C28.6450937,54.364 26.7510937,54.19 25.6920937,52.919 C24.6330937,51.647 24.8070937,49.752 26.0790937,48.694 C26.6380937,48.228 27.3180937,48.001 27.9950937,48.001 C28.8560937,48.001 29.7110937,48.369 30.3030937,49.081 C31.3620937,50.352 31.1880937,52.247 29.9170937,53.306 L29.9170937,53.306 Z M24.7990937,47.157 C22.6800937,48.92 22.3910937,52.079 24.1550937,54.198 C25.1420937,55.385 26.5670937,55.998 28.0020937,55.9970012 C29.1290937,55.9970012 30.2630937,55.619 31.1960937,54.843 C33.3150937,53.079 33.6040937,49.92 31.8400937,47.802 C30.0770937,45.682 26.9190937,45.393 24.7990937,47.157 L24.7990937,47.157 Z M50.9980937,31 C49.3430937,31 47.9980937,29.654 47.9980937,28 C47.9980937,26.346 49.3430937,25 50.9980937,25 C52.6520937,25 53.9980937,26.346 53.9980937,28 C53.9980937,29.654 52.6520937,31 50.9980937,31 L50.9980937,31 Z M50.9980937,23 C48.2410937,23 45.9980937,25.243 45.9980937,28 C45.9980937,30.757 48.2410937,33 50.9980937,33 C53.7540937,33 55.9980937,30.757 55.9980937,28 C55.9980937,25.243 53.7540937,23 50.9980937,23 L50.9980937,23 Z M6.91709374,30.306 C5.64409374,31.364 3.75109374,31.19 2.69209374,29.919 C1.63409374,28.647 1.80709374,26.752 3.07909374,25.694 C4.35009374,24.637 6.24509374,24.81 7.30309374,26.081 C8.36209374,27.352 8.18809374,29.247 6.91709374,30.306 L6.91709374,30.306 Z M8.84009374,24.802 C7.07709374,22.681 3.91809374,22.394 1.79909374,24.157 C-0.319906259,25.92 -0.608906259,29.079 1.15509374,31.198 C2.14209374,32.385 3.56709374,32.997 5.00209374,32.997 C6.12909374,32.997 7.26309374,32.619 8.19609374,31.843 C10.3150937,30.079 10.6040937,26.92 8.84009374,24.802 L8.84009374,24.802 Z M26.2830937,35.128 L21.9160937,31.02 L23.2870937,29.563 L26.3730937,32.466 L33.5140937,26.596 L34.7840937,28.14 L26.2830937,35.128 Z M21.9980937,18.674 C21.9980937,17.2 23.4930937,16 25.3310937,16 L30.6660937,16 C32.5030937,16 33.9980937,17.2 33.9980937,18.674 L33.9980937,22 L21.9980937,22 L21.9980937,18.674 Z M17.9980937,39 L37.9980937,39 L37.9980937,24 L17.9980937,24 L17.9980937,39 Z M17.5520937,22 C16.6950937,22 15.9980937,22.697 15.9980937,23.555 L15.9980937,39.445 C15.9980937,40.303 16.6950937,41 17.5520937,41 L38.4430937,41 C39.3000937,41 39.9980937,40.303 39.9980937,39.445 L39.9980937,23.555 C39.9980937,22.697 39.3000937,22 38.4430937,22 L35.9980937,22 L35.9980937,18.674 C35.9980937,16.097 33.6060937,14 30.6660937,14 L25.3310937,14 C22.3900937,14 19.9980937,16.097 19.9980937,18.674 L19.9980937,22 L17.5520937,22 Z" id="Fill-3"></path>
        </g>
    </g>
</svg>