<svg width="80" height="80" viewBox="0 0 80 80" fill="none" xmlns="http://www.w3.org/2000/svg">
<g clip-path="url(#clip0_158_131)">
<rect width="80" height="80" fill="#8C4FFF"/>
<path d="M39 51V49H43V51H39ZM45 51H49V49H45V51ZM51 51H55V49H51V51ZM57 51H60C60.5527 51 61 50.5523 61 50V47H59V49H57V51ZM59 45H61V41H59V45ZM61 35H59V39H61V35ZM61 30C61 29.4477 60.5527 29 60 29H57V31H59V33H61V30ZM55 29H51.042V31H55V29ZM49 29H45V31H49V29ZM39 29V31H43V29H39ZM66 16H32V18H66V22.0005H32.0019V24.0005H66V62H32V64H66C67.1025 64 68 63.103 68 62V18C68 16.897 67.1025 16 66 16ZM29 54V67C29 67.5523 28.5527 68 28 68H13C12.4473 68 12 67.5523 12 67V54C12 53.4477 12.4473 53 13 53H28C28.5527 53 29 53.4477 29 54ZM27 55H14V66H27V55ZM12 26V13C12 12.4477 12.4473 12 13 12H28C28.5527 12 29 12.4477 29 13V26C29 26.5523 28.5527 27 28 27H13C12.4473 27 12 26.5523 12 26ZM14 25H27V14H14V25ZM34 33V39H48.5762L46.2734 36.709L47.6836 35.291L51.7051 39.291C51.9922 39.5766 52.0791 40.0073 51.9248 40.3813C51.8732 40.5059 51.7922 40.6089 51.7004 40.7005L51.707 40.707L47.707 44.707L46.293 43.293L48.5859 41H34V47C34 47.5522 33.5527 48 33 48H18C17.4473 48 17 47.5522 17 47V33C17 32.4477 17.4473 32 18 32H33C33.5527 32 34 32.4477 34 33ZM32 34H19V46H32V34Z" fill="white"/>
</g>
<defs>
<clipPath id="clip0_158_131">
<rect width="80" height="80" fill="white"/>
</clipPath>
</defs>
</svg>
