<?xml version="1.0" encoding="UTF-8"?>
<svg width="80px" height="80px" viewBox="0 0 80 80" version="1.1" xmlns="http://www.w3.org/2000/svg" xmlns:xlink="http://www.w3.org/1999/xlink">
    <title>Icon-Architecture/64/Arch_Amazon-VPC-Lattice_64</title>
    <defs>
        <linearGradient x1="0%" y1="100%" x2="100%" y2="0%" id="linearGradient-1">
            <stop stop-color="#4D27A8" offset="0%"></stop>
            <stop stop-color="#A166FF" offset="100%"></stop>
        </linearGradient>
    </defs>
    <g id="Icon-Architecture/64/Arch_Amazon-VPC-Lattice_64" stroke="none" stroke-width="1" fill="none" fill-rule="evenodd">
        <g id="Icon-Architecture-BG/64/Networking-Content-Delivery" fill="url(#linearGradient-1)">
            <rect id="Rectangle" x="0" y="0" width="80" height="80"></rect>
        </g>
        <g id="Icon-Service/64/Amazon-VPC-Lattice_64" transform="translate(12.000000, 12.000000)" fill="#FFFFFF">
            <path d="M37,31.943 C37,37.607 34.308,40.636 29,40.967 L29,15.806 L37,18.865 L37,31.943 Z M19,31.943 L19,18.865 L27,15.806 L27,40.957 C20.43,40.527 19,35.88 19,31.943 L19,31.943 Z M27.643,13.419 L17.643,17.242 C17.256,17.39 17,17.762 17,18.176 L17,31.943 C17,35.267 18.072,43 28,43 C35.094,43 39,39.073 39,31.943 L39,18.176 C39,17.762 38.744,17.39 38.357,17.242 L28.357,13.419 C28.127,13.331 27.873,13.331 27.643,13.419 L27.643,13.419 Z M42,31.943 C42,44.986 31.284,46 28,46 C14.675,46 14,34.29 14,31.943 L14,15.423 L28,10.07 L42,15.423 L42,31.943 Z M2,9 L9,9 L9,2 L2,2 L2,9 Z M47,9 L54,9 L54,2 L47,2 L47,9 Z M47,54 L54,54 L54,47 L47,47 L47,54 Z M2,54 L9,54 L9,47 L2,47 L2,54 Z M55,11 C55.553,11 56,10.552 56,10 L56,1 C56,0.447 55.553,0 55,0 L46,0 C45.447,0 45,0.447 45,1 L45,9.586 L41.496,13.09 L28.357,8.066 C28.127,7.978 27.873,7.978 27.643,8.066 L14.504,13.09 L11,9.586 L11,1 C11,0.447 10.553,0 10,0 L1,0 C0.447,0 0,0.447 0,1 L0,10 C0,10.552 0.447,11 1,11 L9.586,11 L12.48,13.894 C12.19,14.074 12,14.385 12,14.735 L12,31.943 C12,34.803 12.634,37.844 14.081,40.505 L9.586,45 L1,45 C0.447,45 0,45.447 0,46 L0,55 C0,55.552 0.447,56 1,56 L10,56 C10.553,56 11,55.552 11,55 L11,46.414 L15.188,42.226 C17.681,45.585 21.773,48 28,48 C34.7,48 38.6,45.41 40.868,42.282 L45,46.414 L45,55 C45,55.552 45.447,56 46,56 L55,56 C55.553,56 56,55.552 56,55 L56,46 C56,45.447 55.553,45 55,45 L46.414,45 L41.948,40.534 C43.817,36.981 44,33.23 44,31.943 L44,14.735 C44,14.385 43.81,14.074 43.52,13.894 L46.414,11 L55,11 Z" id="Fill-8"></path>
        </g>
    </g>
</svg>