<?xml version="1.0" encoding="UTF-8"?><svg version="1.1" width="80px" height="80px" viewBox="0 0 80.0 80.0" xmlns="http://www.w3.org/2000/svg" xmlns:xlink="http://www.w3.org/1999/xlink"><defs><clipPath id="i0"><path d="M80,0 L80,80 L0,80 L0,0 L80,0 Z"></path></clipPath><linearGradient id="i1" x1="0px" y1="80px" x2="80px" y2="0px" gradientUnits="userSpaceOnUse"><stop stop-color="#BD0816" offset="0%"></stop><stop stop-color="#FF5252" offset="100%"></stop></linearGradient><clipPath id="i2"><path d="M55,5 C55.553,5 56,5.448 56,6 L56,55 C56,55.552 55.553,56 55,56 L49,56 L49,54 L54,54 L54,7 L52,7 L52,5 Z M7,52 L7,54 L41,54 L41,56 L6,56 C5.447,56 5,55.552 5,55 L5,52 L7,52 Z M49,0 C49.553,0 50,0.448 50,1 L50,49 C50,49.552 49.553,50 49,50 L44,50 L44,48 L48,48 L48,7 L2,7 L2,48 L36,48 L36,50 L1,50 C0.447,50 0,49.552 0,49 L0,1 C0,0.448 0.447,0 1,0 L49,0 Z M17,36 L17,43.473 L25.101,39.94 C25.354,39.829 25.646,39.829 25.899,39.94 L34,43.473 L34,36 L36,36 L36,45 C36,45.337 35.83,45.652 35.548,45.836 C35.383,45.945 35.191,46 35,46 C34.864,46 34.729,45.973 34.601,45.917 L25.5,41.948 L16.399,45.917 C16.091,46.052 15.734,46.022 15.452,45.836 C15.17,45.652 15,45.337 15,45 L15,36 L17,36 Z M25.5,9 C32.944,9 39,15.056 39,22.5 C39,29.944 32.944,36 25.5,36 C18.056,36 12,29.944 12,22.5 C12,15.056 18.056,9 25.5,9 Z M25.5,11 C19.159,11 14,16.159 14,22.5 C14,28.841 19.159,34 25.5,34 C31.841,34 37,28.841 37,22.5 C37,16.159 31.841,11 25.5,11 Z M30.793,18.293 L32.207,19.707 L24.207,27.707 C24.012,27.902 23.756,28 23.5,28 C23.244,28 22.988,27.902 22.793,27.707 L18.793,23.707 L20.207,22.293 L23.5,25.586 L30.793,18.293 Z M48,2 L2,2 L2,5 L48,5 L48,2 Z"></path></clipPath></defs><g clip-path="url(#i0)"><polygon points="0,0 80,0 80,80 0,80 0,0" stroke="none" fill="url(#i1)"></polygon></g><g transform="translate(8.0 8.0)"><g transform="translate(4.0 4.0)"><g clip-path="url(#i2)"><polygon points="0,0 56,0 56,56 0,56 0,0" stroke="none" fill="#FFFFFF"></polygon></g></g></g></svg>