<?xml version="1.0" encoding="UTF-8"?>
<svg width="80px" height="80px" viewBox="0 0 80 80" version="1.1" xmlns="http://www.w3.org/2000/svg" xmlns:xlink="http://www.w3.org/1999/xlink">
    <title>Icon-Architecture/64/Arch_Amazon-Genomics-CLI_64</title>
    <defs>
        <linearGradient x1="0%" y1="100%" x2="100%" y2="0%" id="linearGradient-1">
            <stop stop-color="#C8511B" offset="0%"></stop>
            <stop stop-color="#FF9900" offset="100%"></stop>
        </linearGradient>
    </defs>
    <g id="Icon-Architecture/64/Arch_Amazon-Genomics-CLI_64" stroke="none" stroke-width="1" fill="none" fill-rule="evenodd">
        <g id="Rectangle" fill="url(#linearGradient-1)">
            <rect x="0" y="0" width="80" height="80"></rect>
        </g>
        <g id="Icon-Service/64/Amazon-Genomics-CLI_64" transform="translate(8.000000, 8.000000)" fill="#FFFFFF">
            <path d="M46.142,13.071 L53.857,13.071 L53.857,11.071 L46.142,11.071 L46.142,13.071 Z M45,7.929 L55,7.929 L55,5.929 L45,5.929 L45,7.929 Z M46,35 L54,35 L54,33 L46,33 L46,35 Z M45,40 L55,40 L55,38 L45,38 L45,40 Z M25.707,38.707 C26.098,38.316 26.098,37.684 25.707,37.293 L13.707,25.293 L12.293,26.707 L23.586,38 L12.293,49.293 L13.707,50.707 L25.707,38.707 Z M26,50 L46,50 L46,48 L26,48 L26,50 Z M60,58 L60,48 L58,48 L58,58 L6,58 L6,6 L34,6 L34,4 L6,4 C4.897,4 4,4.897 4,6 L4,58 C4,59.103 4.897,60 6,60 L58,60 C59.103,60 60,59.103 60,58 L60,58 Z M42,37.711 C42,34.696 43.132,31.823 45.188,29.62 L56.274,17.745 C58.677,15.17 60,11.812 60,8.289 L60,4 L58,4 L58,8.289 C58,11.304 56.868,14.177 54.812,16.38 L43.726,28.255 C41.323,30.83 40,34.188 40,37.711 L40,42 L42,42 L42,37.711 Z M52.737,24.465 L51.368,25.931 L54.812,29.62 C56.868,31.823 58,34.696 58,37.711 L58,42 L60,42 L60,37.711 C60,34.188 58.677,30.83 56.274,28.255 L52.737,24.465 Z M43.726,17.745 C41.323,15.17 40,11.812 40,8.289 L40,4 L42,4 L42,8.289 C42,11.304 43.132,14.177 45.188,16.38 L48.632,20.069 L47.263,21.535 L43.726,17.745 Z" id="Fill-5"></path>
        </g>
    </g>
</svg>