<?xml version="1.0" encoding="UTF-8"?>
<svg width="80px" height="80px" viewBox="0 0 80 80" version="1.1" xmlns="http://www.w3.org/2000/svg" xmlns:xlink="http://www.w3.org/1999/xlink">
    <title>Icon-Architecture/64/Arch_NICE-EnginFrame_64</title>
    <defs>
        <linearGradient x1="0%" y1="100%" x2="100%" y2="0%" id="linearGradient-1">
            <stop stop-color="#C8511B" offset="0%"></stop>
            <stop stop-color="#FF9900" offset="100%"></stop>
        </linearGradient>
    </defs>
    <g id="Icon-Architecture/64/Arch_NICE-EnginFrame_64" stroke="none" stroke-width="1" fill="none" fill-rule="evenodd">
        <g id="Rectangle" fill="url(#linearGradient-1)">
            <rect x="0" y="0" width="80" height="80"></rect>
        </g>
        <g id="Icon-Service/64/NICE-EnginFrame_64" transform="translate(8.000000, 8.000000)" fill="#FFFFFF">
            <path d="M13.919,36.879 C16.393,43.436 23.629,48 32,48 C42.477,48 51,40.822 51,32 C51,23.177 42.477,16 32,16 C23.628,16 16.393,20.563 13.918,27.12 C14.272,27.041 14.634,27 15,27 L37,27 C39.757,27 42,29.243 42,32 C42,34.756 39.757,37 37,37 L15,37 C14.634,37 14.272,36.959 13.919,36.879 M32,50 C21.805,50 13.117,43.756 11.342,35.153 C11.255,34.729 11.45,34.297 11.826,34.083 C12.201,33.867 12.673,33.92 12.994,34.211 C13.554,34.72 14.266,35 15,35 L37,35 C38.654,35 40,33.654 40,32 C40,30.345 38.654,29 37,29 L15,29 C14.266,29 13.554,29.279 12.993,29.788 C12.673,30.079 12.202,30.13 11.825,29.916 C11.449,29.701 11.255,29.269 11.342,28.845 C13.117,20.243 21.805,14 32,14 C43.579,14 53,22.074 53,32 C53,41.925 43.579,50 32,50 M32,10 C17.663,10 6,19.869 6,32 C6,44.13 17.663,54 32,54 C46.337,54 58,44.13 58,32 C58,19.869 46.337,10 32,10 M32,56 C16.561,56 4,45.233 4,32 C4,18.766 16.561,8 32,8 C47.44,8 60,18.766 60,32 C60,45.233 47.44,56 32,56" id="Fill-8"></path>
        </g>
    </g>
</svg>