<?xml version="1.0" encoding="UTF-8"?>
<svg width="80px" height="80px" viewBox="0 0 80 80" version="1.1" xmlns="http://www.w3.org/2000/svg" xmlns:xlink="http://www.w3.org/1999/xlink">
    <title>Icon-Architecture/64/Arch_AWS-Outposts_64</title>
    <defs>
        <linearGradient x1="0%" y1="100%" x2="100%" y2="0%" id="linearGradient-1">
            <stop stop-color="#C8511B" offset="0%"></stop>
            <stop stop-color="#FF9900" offset="100%"></stop>
        </linearGradient>
    </defs>
    <g id="Icon-Architecture/64/Arch_AWS-Outposts_64" stroke="none" stroke-width="1" fill="none" fill-rule="evenodd">
        <g id="Rectangle" fill="url(#linearGradient-1)">
            <rect x="0" y="0" width="80" height="80"></rect>
        </g>
        <g id="Icon-Service/64/AWS-Outposts_64" transform="translate(8.000000, 8.000000)" fill="#FFFFFF">
            <path d="M29,57.9894087 L33,57.9894087 L33,50.9894087 L29,50.9894087 L29,57.9894087 Z M20,57.9894087 L27,57.9894087 L27,49.9894087 C27,49.4374087 27.447,48.9894087 28,48.9894087 L34,48.9894087 C34.553,48.9894087 35,49.4374087 35,49.9894087 L35,57.9894087 L42,57.9894087 L42,26.9894087 L20,26.9894087 L20,37.9894087 L20,39.9894087 L20,57.9894087 Z M60,57.9894087 L60,59.9894087 L4,59.9894087 L4,57.9894087 L18,57.9894087 L18,39.9894087 L13.928,39.9894087 C9.448,39.9894087 5.577,36.9364087 4.723,32.7304087 C4.672,32.4834087 4.631,32.2284087 4.6,31.9704087 C4.538,31.4674087 4.506,30.9394087 4.506,30.4044087 C4.506,24.6414087 8.3,21.4154087 12.079,20.2154087 L6.12,18.0404087 L6.806,16.1614087 L14.356,18.9174087 C14.605,19.0084087 14.809,19.1954087 14.92,19.4354087 C15.032,19.6764087 15.044,19.9504087 14.953,20.1994087 L12.196,27.7514087 L10.317,27.0654087 L12.038,22.3524087 C9.913,23.1924087 6.506,25.3324087 6.506,30.4044087 C6.506,30.8574087 6.532,31.3034087 6.585,31.7294087 C6.609,31.9354087 6.643,32.1344087 6.683,32.3304087 C7.349,35.6104087 10.396,37.9894087 13.928,37.9894087 L18,37.9894087 L18,25.9894087 C18,25.4374087 18.447,24.9894087 19,24.9894087 L43,24.9894087 C43.553,24.9894087 44,25.4374087 44,25.9894087 L44,57.9894087 L60,57.9894087 Z M35,33.9894087 L37,33.9894087 L37,31.9894087 L35,31.9894087 L35,33.9894087 Z M33,34.9894087 L33,30.9894087 C33,30.4374087 33.447,29.9894087 34,29.9894087 L38,29.9894087 C38.553,29.9894087 39,30.4374087 39,30.9894087 L39,34.9894087 C39,35.5414087 38.553,35.9894087 38,35.9894087 L34,35.9894087 C33.447,35.9894087 33,35.5414087 33,34.9894087 L33,34.9894087 Z M25,33.9894087 L27,33.9894087 L27,31.9894087 L25,31.9894087 L25,33.9894087 Z M23,34.9894087 L23,30.9894087 C23,30.4374087 23.447,29.9894087 24,29.9894087 L28,29.9894087 C28.553,29.9894087 29,30.4374087 29,30.9894087 L29,34.9894087 C29,35.5414087 28.553,35.9894087 28,35.9894087 L24,35.9894087 C23.447,35.9894087 23,35.5414087 23,34.9894087 L23,34.9894087 Z M35,42.9894087 L37,42.9894087 L37,40.9894087 L35,40.9894087 L35,42.9894087 Z M33,43.9894087 L33,39.9894087 C33,39.4374087 33.447,38.9894087 34,38.9894087 L38,38.9894087 C38.553,38.9894087 39,39.4374087 39,39.9894087 L39,43.9894087 C39,44.5414087 38.553,44.9894087 38,44.9894087 L34,44.9894087 C33.447,44.9894087 33,44.5414087 33,43.9894087 L33,43.9894087 Z M25,42.9894087 L27,42.9894087 L27,40.9894087 L25,40.9894087 L25,42.9894087 Z M24,44.9894087 C23.447,44.9894087 23,44.5414087 23,43.9894087 L23,39.9894087 C23,39.4374087 23.447,38.9894087 24,38.9894087 L28,38.9894087 C28.553,38.9894087 29,39.4374087 29,39.9894087 L29,43.9894087 C29,44.5414087 28.553,44.9894087 28,44.9894087 L24,44.9894087 Z M14.028,16.2344087 L12.104,15.6844087 C13.332,11.3884087 16.365,7.75940873 20.021,6.21140873 C25.661,3.82240873 31.639,5.01040873 36.006,9.39040873 C37.353,10.7414087 38.457,12.3774087 39.303,14.2684087 C40.919,12.9324087 43.042,12.4514087 45.067,13.0434087 C47.856,13.8584087 49.725,16.4214087 50.148,19.9604087 C52.815,20.5994087 58.413,22.8254087 58.666,30.2284087 C58.772,33.3324087 57.911,35.8544087 56.104,37.7234087 C54.35,39.5384087 52.071,40.3454087 50.376,40.7034087 L55.073,42.9454087 L54.212,44.7504087 L46.958,41.2874087 C46.46,41.0504087 46.248,40.4534087 46.486,39.9544087 L49.948,32.7004087 L51.753,33.5614087 L49.218,38.8744087 C50.639,38.6624087 53.006,38.0594087 54.676,36.3234087 C56.084,34.8604087 56.755,32.8324087 56.668,30.2964087 C56.443,23.7464087 51.249,22.1514087 49.026,21.7694087 C48.491,21.6774087 48.128,21.1764087 48.206,20.6404087 C47.978,17.6934087 46.6,15.5744087 44.506,14.9634087 C42.769,14.4564087 40.902,15.1284087 39.756,16.6804087 C39.536,16.9784087 39.166,17.1314087 38.804,17.0754087 C38.437,17.0204087 38.132,16.7684087 38.008,16.4194087 C37.215,14.1724087 36.064,12.2824087 34.59,10.8024087 C32.778,8.98640873 27.812,5.08140873 20.8,8.05240873 C17.735,9.35040873 15.077,12.5624087 14.028,16.2344087 L14.028,16.2344087 Z" id="Fill-1"></path>
        </g>
    </g>
</svg>