<?xml version="1.0" encoding="UTF-8"?>
<svg width="80px" height="80px" viewBox="0 0 80 80" version="1.1" xmlns="http://www.w3.org/2000/svg" xmlns:xlink="http://www.w3.org/1999/xlink">
    <title>Icon-Architecture/64/Arch_AWS-Thinkbox-Sequoia_64</title>
    <g id="Icon-Architecture/64/Arch_AWS-Thinkbox-Sequoia_64" stroke="none" stroke-width="1" fill="none" fill-rule="evenodd">
        <g id="Icon-Architecture-BG/64/Compute" fill="#ED7100">
            <rect id="Rectangle" x="0" y="0" width="80" height="80"></rect>
        </g>
        <g id="Icon-Service/64/AWS-ThinkBox-Sequoia_64" transform="translate(15.000000, 12.000000)" fill="#FFFFFF">
            <path d="M15.89,29.8215 L18.386,31.2165 L17.411,32.9625 L14.374,31.2665 C12.989,32.5245 11.484,33.7445 9.846,34.9265 L25,43.8485 L40.155,34.9265 C38.515,33.7435 37.008,32.5215 35.621,31.2615 L32.571,32.9635 L31.596,31.2165 L34.106,29.8165 C32.833,28.5475 31.683,27.2385 30.654,25.8905 L25.5,28.8665 C25.346,28.9555 25.173,29.0005 25,29.0005 C24.828,29.0005 24.655,28.9555 24.5,28.8665 L19.347,25.8905 C18.317,27.2405 17.164,28.5505 15.89,29.8215 L15.89,29.8215 Z M20.525,24.2615 L25,26.8455 L29.476,24.2615 C27.381,21.1625 25.89,17.8595 25,14.3315 C24.111,17.8595 22.619,21.1625 20.525,24.2615 L20.525,24.2615 Z M6.331,25.2575 C10.899,21.1435 13.414,16.0945 13.414,11.0405 L15.414,11.0405 C15.414,14.2985 16.31,17.4275 18.078,20.3425 L16.367,21.3795 C15.514,19.9725 14.855,18.5155 14.37,17.0225 C13.28,20.1465 11.356,23.1345 8.677,25.7915 L14.06,28.7995 C20.725,22.3165 24,14.8025 24,6.0005 C24,5.4475 24.448,5.0005 25,5.0005 C25.553,5.0005 26,5.4475 26,6.0005 C26,14.8005 29.275,22.3135 35.936,28.7955 L41.323,25.7905 C38.645,23.1345 36.72,20.1465 35.629,17.0225 C35.145,18.5165 34.487,19.9725 33.633,21.3805 L31.922,20.3425 C33.69,17.4295 34.585,14.2995 34.585,11.0405 L36.585,11.0405 C36.585,16.0935 39.101,21.1435 43.669,25.2575 C43.91,25.4725 44.031,25.7915 43.994,26.1125 C43.958,26.4325 43.769,26.7165 43.488,26.8735 L37.479,30.2255 C39.02,31.5865 40.705,32.9045 42.564,34.1745 C42.847,34.3675 43.011,34.6915 42.999,35.0335 C42.989,35.3755 42.803,35.6885 42.508,35.8625 L25.508,45.8705 C25.351,45.9635 25.176,46.0085 25,46.0085 C24.825,46.0085 24.65,45.9635 24.493,45.8705 L7.493,35.8625 C7.198,35.6885 7.012,35.3755 7.001,35.0335 C6.99,34.6915 7.154,34.3675 7.437,34.1745 C9.294,32.9065 10.978,31.5895 12.518,30.2295 L6.512,26.8735 C6.231,26.7165 6.042,26.4325 6.006,26.1115 C5.971,25.7915 6.091,25.4725 6.331,25.2575 L6.331,25.2575 Z M39.687,8.2145 L34.792,5.3885 L33.792,7.1205 L38.687,9.9465 L39.687,8.2145 Z M16.208,7.1205 L15.208,5.3885 L10.314,8.2145 L11.314,9.9465 L16.208,7.1205 Z M49.53,14.1525 L44.114,10.7705 L43.055,12.4675 L47.084,14.9835 L43.486,17.1425 L44.515,18.8575 L48,16.7665 L48,40.2345 L44.515,38.1425 L43.486,39.8575 L46.983,41.9555 L25,53.8635 L3.018,41.9555 L6.515,39.8575 L5.486,38.1425 L2,40.2345 L2,16.7665 L5.486,18.8575 L6.515,17.1425 L2.916,14.9835 L6.946,12.4675 L5.887,10.7705 L0.471,14.1525 C0.178,14.3345 0,14.6555 0,15.0005 L0,42.0005 C0,42.3675 0.202,42.7045 0.524,42.8795 L24.524,55.8795 C24.672,55.9605 24.836,56.0005 25,56.0005 C25.164,56.0005 25.328,55.9605 25.477,55.8795 L49.477,42.8795 C49.799,42.7045 50,42.3675 50,42.0005 L50,15.0005 C50,14.6555 49.823,14.3345 49.53,14.1525 L49.53,14.1525 Z M25,37.1905 C25.173,37.1905 25.346,37.1455 25.5,37.0565 L29.002,35.0345 L28.002,33.3015 L25,35.0355 L21.998,33.3015 L20.998,35.0345 L24.5,37.0565 C24.655,37.1455 24.828,37.1905 25,37.1905 L25,37.1905 Z M20.515,4.8575 L19.486,3.1425 L24.486,0.1425 C24.802,-0.0475 25.199,-0.0475 25.515,0.1425 L30.515,3.1425 L29.486,4.8575 L25,2.1665 L20.515,4.8575 Z" id="AWS-ThinkBox-Sequoia_64_Squid"></path>
        </g>
    </g>
</svg>