<?xml version="1.0" encoding="UTF-8"?>
<svg width="80px" height="80px" viewBox="0 0 80 80" version="1.1" xmlns="http://www.w3.org/2000/svg" xmlns:xlink="http://www.w3.org/1999/xlink">
    <title>Icon-Architecture/64/Arch_AWS-SimSpace-Weaver_64</title>
    <defs>
        <linearGradient x1="0%" y1="100%" x2="100%" y2="0%" id="linearGradient-1">
            <stop stop-color="#C8511B" offset="0%"></stop>
            <stop stop-color="#FF9900" offset="100%"></stop>
        </linearGradient>
    </defs>
    <g id="Icon-Architecture/64/Arch_AWS-SimSpace-Weaver_64" stroke="none" stroke-width="1" fill="none" fill-rule="evenodd">
        <g id="Icon-Architecture-BG/64/Compute" fill="url(#linearGradient-1)">
            <rect id="Rectangle" x="0" y="0" width="80" height="80"></rect>
        </g>
        <g id="Icon-Service/64/AWS-SimSpace-Weaver_64" transform="translate(11.999965, 12.000000)" fill="#FFFFFF">
            <path d="M48.0130703,47.8905 L48.0130703,39.9865 L54.0130703,36.4595 L54.0130703,44.4505 L48.0130703,47.8905 Z M53.2240703,53.9675 L38.5900703,53.9675 L36.6440703,45.9665 L38.5990703,45.9665 L46.5170703,50.4965 C46.6700703,50.5845 46.8420703,50.6285 47.0130703,50.6285 C47.1510703,50.6285 47.2870703,50.5915 47.4170703,50.5345 L47.4180703,50.5365 L47.4370703,50.5265 C47.4630703,50.5145 47.4900703,50.5085 47.5150703,50.4935 C47.5380703,50.4805 47.5560703,50.4605 47.5780703,50.4455 L50.4490703,48.7995 L53.2240703,53.9675 Z M5.69707029,48.8835 L8.51707029,50.4965 C8.67007029,50.5845 8.84207029,50.6285 9.01307029,50.6285 C9.15107029,50.6285 9.28707029,50.5915 9.41707029,50.5345 L9.41807029,50.5365 L9.43707029,50.5265 C9.46307029,50.5145 9.49007029,50.5085 9.51507029,50.4935 C9.53807029,50.4805 9.55607029,50.4605 9.57807029,50.4455 L17.3890703,45.9665 L19.2660703,45.9665 L17.1990703,53.9675 L2.84907029,53.9675 L5.69707029,48.8835 Z M2.01307029,36.5045 L8.01307029,39.9325 L8.01307029,47.9045 L2.01307029,44.4715 L2.01307029,36.5045 Z M9.04407029,31.1605 L15.0740703,34.6955 L9.06307029,38.2295 L2.98707029,34.7575 L9.04407029,31.1605 Z M17.8460703,26.9885 L23.3880703,30.0195 L21.8510703,35.9665 L18.0130703,35.9665 L18.0130703,34.9665 L18.0090703,34.9665 C18.0340703,34.8785 18.0490703,34.7875 18.0490703,34.6935 C18.0490703,34.3385 17.8610703,34.0105 17.5550703,33.8315 L14.8330703,32.2355 L17.8460703,26.9885 Z M16.0130703,9.5305 L27.0130703,14.6065 L27.0130703,29.7225 L16.0130703,23.7065 L16.0130703,9.5305 Z M28.0090703,2.1345 L38.7710703,7.9005 L28.0130703,12.8655 L17.2540703,7.9005 L28.0090703,2.1345 Z M41.4150703,32.0495 L41.4650703,32.1435 L38.4830703,33.9135 C38.1770703,34.0955 37.9910703,34.4255 37.9930703,34.7815 C37.9940703,34.8455 38.0070703,34.9065 38.0190703,34.9665 L38.0130703,34.9665 L38.0130703,35.9665 L34.2130703,35.9665 L32.7420703,29.9175 L38.5460703,26.8015 L41.4150703,32.0495 Z M40.0130703,36.5075 L46.0130703,39.9375 L46.0130703,47.9045 L40.0130703,44.4715 L40.0130703,36.5075 Z M29.0130703,29.6505 L29.0130703,14.6065 L40.0130703,9.5305 L40.0130703,23.7435 L29.0130703,29.6505 Z M27.5340703,32.2865 C27.6830703,32.3675 27.8480703,32.4085 28.0130703,32.4085 C28.1900703,32.4085 28.3660703,32.3615 28.5230703,32.2695 C28.6200703,32.2115 28.7010703,32.1345 28.7720703,32.0495 L30.9210703,30.8955 L32.1540703,35.9665 L23.9160703,35.9665 L25.1970703,31.0085 L27.5340703,32.2865 Z M18.0130703,37.9665 L21.3340703,37.9665 L19.7830703,43.9665 L18.0130703,43.9665 L18.0130703,37.9665 Z M10.0130703,39.9905 L16.0130703,36.4635 L16.0130703,37.9665 L16.0130703,44.4505 L10.0130703,47.8905 L10.0130703,39.9905 Z M34.5860703,45.9665 L36.5320703,53.9675 L19.2630703,53.9675 L21.3310703,45.9665 L34.5860703,45.9665 Z M21.8480703,43.9665 L23.3990703,37.9665 L32.6410703,37.9665 L34.1000703,43.9665 L21.8480703,43.9665 Z M38.0130703,43.9665 L36.1580703,43.9665 L34.6990703,37.9665 L38.0130703,37.9665 L38.0130703,43.9665 Z M47.0370703,31.1605 L53.0670703,34.6955 L47.0550703,38.2295 L40.9800703,34.7575 L47.0370703,31.1605 Z M56.0420703,34.6935 C56.0420703,34.3385 55.8540703,34.0105 55.5480703,33.8315 L47.5400703,29.1365 C47.2260703,28.9525 46.8360703,28.9535 46.5240703,29.1395 L43.1750703,31.1275 L40.3070703,25.8555 L41.4860703,25.2225 C41.8110703,25.0485 42.0130703,24.7095 42.0130703,24.3415 L42.0130703,7.9665 L42.0100703,7.9665 C42.0090703,7.5995 41.8110703,7.2605 41.4860703,7.0855 L28.4820703,0.1185 C28.1870703,-0.0395 27.8310703,-0.0395 27.5360703,0.1185 L14.5400703,7.0855 C14.2150703,7.2605 14.0170703,7.5995 14.0160703,7.9665 L14.0130703,7.9665 L14.0130703,24.2995 C14.0130703,24.6655 14.2120703,25.0015 14.5340703,25.1765 L16.0880703,26.0275 L13.0830703,31.2095 L9.54707029,29.1365 C9.23307029,28.9525 8.84307029,28.9535 8.53107029,29.1395 L0.490070291,33.9135 C0.184070291,34.0955 -0.00292970933,34.4255 3.47293435e-05,34.7815 C0.00107029067,34.8455 0.0140702907,34.9065 0.0260702907,34.9665 L0.0130702907,34.9665 L0.0130702907,45.0515 C0.0130702907,45.4105 0.205070291,45.7415 0.517070291,45.9205 L3.96207029,47.8905 L0.277070291,54.4675 C0.105070291,54.7735 0.107070291,55.1475 0.281070291,55.4525 C0.455070291,55.7575 0.777070291,55.9485 1.12707029,55.9565 L54.5250703,55.9675 L54.8990703,55.9665 C55.2490703,55.9665 55.5750703,55.7805 55.7540703,55.4795 C55.9350703,55.1775 55.9430703,54.8035 55.7770703,54.4935 L52.1850703,47.8045 L55.5100703,45.8975 C55.8220703,45.7195 56.0130703,45.3885 56.0130703,45.0295 L56.0130703,34.9665 L56.0020703,34.9665 C56.0270703,34.8785 56.0420703,34.7875 56.0420703,34.6935 L56.0420703,34.6935 Z" id="Fill-3"></path>
        </g>
    </g>
</svg>