<?xml version="1.0" encoding="UTF-8"?>
<svg xmlns="http://www.w3.org/2000/svg" xmlns:xlink="http://www.w3.org/1999/xlink" width="64" height="64" viewBox="0 0 64 64">
<path fill-rule="evenodd" fill="rgb(86.666667%, 20.392157%, 29.803923%)" fill-opacity="1" d="M 57.28125 28 C 57.28125 26.53125 56.085938 25.332031 54.613281 25.332031 C 53.144531 25.332031 51.945312 26.53125 51.945312 28 C 51.945312 29.46875 53.144531 30.667969 54.613281 30.667969 C 56.085938 30.667969 57.28125 29.46875 57.28125 28 Z M 50.613281 49.332031 C 50.613281 47.863281 49.417969 46.667969 47.945312 46.667969 C 46.476562 46.667969 45.28125 47.863281 45.28125 49.332031 C 45.28125 50.804688 46.476562 52 47.945312 52 C 49.417969 52 50.613281 50.804688 50.613281 49.332031 Z M 38.613281 27.332031 C 38.613281 25.496094 37.117188 24 35.28125 24 C 33.441406 24 31.945312 25.496094 31.945312 27.332031 C 31.945312 29.171875 33.441406 30.667969 35.28125 30.667969 C 37.117188 30.667969 38.613281 29.171875 38.613281 27.332031 Z M 24.175781 40.011719 L 19.363281 44.8125 L 17.480469 42.925781 L 22.199219 38.214844 C 21.324219 37.710938 20.324219 37.398438 19.246094 37.398438 C 15.957031 37.398438 13.28125 40.074219 13.28125 43.367188 C 13.28125 46.65625 15.957031 49.332031 19.246094 49.332031 C 22.535156 49.332031 25.214844 46.65625 25.214844 43.367188 C 25.214844 42.121094 24.828125 40.96875 24.175781 40.011719 Z M 28.613281 13.332031 C 30.453125 13.332031 31.945312 11.835938 31.945312 10 C 31.945312 8.164062 30.453125 6.667969 28.613281 6.667969 C 26.773438 6.667969 25.28125 8.164062 25.28125 10 C 25.28125 11.835938 26.773438 13.332031 28.613281 13.332031 Z M 59.945312 28 C 59.945312 30.941406 57.554688 33.332031 54.613281 33.332031 C 54.546875 33.332031 54.488281 33.316406 54.421875 33.3125 L 50.867188 44.878906 C 52.316406 45.832031 53.28125 47.46875 53.28125 49.332031 C 53.28125 52.273438 50.886719 54.667969 47.945312 54.667969 C 45.003906 54.667969 42.613281 52.273438 42.613281 49.332031 C 42.613281 46.390625 45.003906 44 47.945312 44 C 48.078125 44 48.203125 44.03125 48.332031 44.039062 L 51.867188 32.550781 C 50.714844 31.847656 49.855469 30.730469 49.488281 29.398438 L 40.890625 29.398438 C 40.042969 31.6875 37.859375 33.332031 35.28125 33.332031 C 34.03125 33.332031 32.871094 32.949219 31.910156 32.292969 L 26.078125 38.109375 C 27.203125 39.566406 27.878906 41.386719 27.878906 43.367188 C 27.878906 48.125 24.007812 52 19.246094 52 C 14.484375 52 10.613281 48.125 10.613281 43.367188 C 10.613281 38.605469 14.484375 34.734375 19.246094 34.734375 C 21.066406 34.734375 22.753906 35.304688 24.148438 36.269531 L 30.109375 30.324219 C 29.597656 29.441406 29.28125 28.425781 29.28125 27.332031 C 29.28125 25.394531 30.21875 23.6875 31.648438 22.589844 L 28.816406 15.980469 C 28.746094 15.980469 28.683594 16 28.613281 16 C 25.304688 16 22.613281 13.308594 22.613281 10 C 22.613281 6.691406 25.304688 4 28.613281 4 C 31.921875 4 34.613281 6.691406 34.613281 10 C 34.613281 12.292969 33.308594 14.265625 31.414062 15.273438 L 34.0625 21.457031 C 34.457031 21.378906 34.863281 21.332031 35.28125 21.332031 C 38.382812 21.332031 40.914062 23.710938 41.21875 26.734375 L 49.449219 26.734375 C 50.019531 24.40625 52.109375 22.667969 54.613281 22.667969 C 57.554688 22.667969 59.945312 25.058594 59.945312 28 Z M 32.933594 36.390625 C 34.03125 38.535156 34.613281 40.949219 34.613281 43.375 C 34.613281 51.8125 27.746094 58.679688 19.308594 58.679688 C 10.867188 58.679688 4 51.8125 4 43.375 C 4 34.933594 10.867188 28.066406 19.308594 28.066406 C 21.769531 28.066406 24.117188 28.632812 26.292969 29.75 L 25.074219 32.121094 C 23.28125 31.199219 21.339844 30.734375 19.308594 30.734375 C 12.335938 30.734375 6.667969 36.402344 6.667969 43.375 C 6.667969 50.34375 12.335938 56.011719 19.308594 56.011719 C 26.277344 56.011719 31.945312 50.34375 31.945312 43.375 C 31.945312 41.339844 31.480469 39.402344 30.558594 37.609375 Z M 32.933594 36.390625 "/>
</svg>
