<?xml version="1.0" encoding="UTF-8"?>
<svg xmlns="http://www.w3.org/2000/svg" xmlns:xlink="http://www.w3.org/1999/xlink" width="64" height="64" viewBox="0 0 64 64">
<path fill-rule="evenodd" fill="rgb(86.666667%, 20.392157%, 29.803923%)" fill-opacity="1" d="M 13.738281 19.085938 C 13.703125 19.328125 13.6875 19.625 13.6875 19.964844 L 13.6875 20.175781 C 13.6875 20.246094 13.695312 20.324219 13.710938 20.40625 C 13.335938 20.8125 12.914062 21.019531 12.4375 21.019531 C 11.621094 21.019531 11.214844 20.1875 11.214844 18.519531 C 11.214844 17.117188 11.414062 15.957031 11.816406 15.042969 C 12.214844 14.128906 12.707031 13.667969 13.296875 13.667969 C 13.621094 13.667969 13.996094 13.816406 14.421875 14.113281 Z M 7.027344 26.898438 C 8.234375 27.632812 9.6875 28 11.382812 28 C 12.773438 28 14.011719 27.722656 15.109375 27.167969 L 15.109375 25.011719 C 13.917969 25.453125 12.773438 25.671875 11.679688 25.671875 C 9.882812 25.671875 8.5 25.089844 7.527344 23.921875 C 6.554688 22.753906 6.070312 21.058594 6.070312 18.839844 C 6.070312 16.996094 6.386719 15.332031 7.027344 13.855469 C 7.660156 12.375 8.566406 11.195312 9.746094 10.316406 C 10.921875 9.433594 12.242188 8.992188 13.710938 8.992188 C 15.605469 8.992188 17.046875 9.527344 18.035156 10.597656 C 19.023438 11.667969 19.519531 13.230469 19.519531 15.289062 C 19.519531 16.28125 19.40625 17.214844 19.1875 18.082031 C 18.96875 18.945312 18.65625 19.660156 18.257812 20.222656 C 17.855469 20.785156 17.433594 21.070312 16.992188 21.070312 C 16.765625 21.070312 16.585938 20.980469 16.457031 20.8125 C 16.324219 20.640625 16.261719 20.40625 16.261719 20.113281 C 16.261719 19.851562 16.273438 19.625 16.308594 19.425781 L 17.363281 11.808594 L 15.085938 11.808594 L 14.789062 12.667969 C 14.1875 11.851562 13.441406 11.441406 12.558594 11.441406 C 11.84375 11.441406 11.152344 11.757812 10.492188 12.386719 C 9.828125 13.015625 9.285156 13.894531 8.863281 15.03125 C 8.4375 16.167969 8.226562 17.417969 8.226562 18.789062 C 8.226562 20.226562 8.488281 21.328125 9.007812 22.097656 C 9.53125 22.863281 10.300781 23.25 11.3125 23.25 C 11.785156 23.25 12.277344 23.125 12.796875 22.882812 C 13.308594 22.636719 13.761719 22.300781 14.152344 21.875 C 14.414062 22.300781 14.765625 22.628906 15.207031 22.855469 C 15.648438 23.085938 16.152344 23.199219 16.722656 23.199219 C 17.6875 23.199219 18.574219 22.871094 19.382812 22.21875 C 20.191406 21.566406 20.832031 20.636719 21.304688 19.425781 C 21.777344 18.21875 22.015625 16.832031 22.015625 15.261719 C 22.015625 13.484375 21.699219 11.953125 21.058594 10.671875 C 20.421875 9.390625 19.488281 8.402344 18.257812 7.707031 C 17.023438 7.011719 15.542969 6.667969 13.8125 6.667969 C 11.898438 6.667969 10.148438 7.171875 8.554688 8.1875 C 6.964844 9.195312 5.695312 10.628906 4.75 12.484375 C 3.800781 14.335938 3.328125 16.472656 3.328125 18.886719 C 3.328125 20.78125 3.640625 22.40625 4.269531 23.761719 C 4.898438 25.117188 5.816406 26.164062 7.027344 26.898438 Z M 31.140625 42.640625 C 31.386719 42.847656 31.691406 42.949219 31.992188 42.949219 C 32.296875 42.949219 32.597656 42.847656 32.847656 42.640625 L 36.890625 39.269531 L 56.300781 55.445312 L 7.683594 55.445312 L 27.097656 39.269531 Z M 38.976562 37.535156 L 58.652344 21.136719 L 58.652344 53.929688 Z M 59.984375 16.957031 L 24.726562 16.957031 L 24.726562 19.621094 L 56.300781 19.621094 L 31.992188 39.878906 L 17.824219 28.066406 L 16.117188 30.113281 L 25.011719 37.53125 L 5.332031 53.929688 L 5.332031 29.425781 L 2.667969 29.425781 L 2.667969 56.777344 C 2.667969 57.515625 3.265625 58.113281 4 58.113281 L 59.984375 58.113281 C 60.722656 58.113281 61.320312 57.515625 61.320312 56.777344 L 61.320312 18.289062 C 61.320312 17.550781 60.722656 16.957031 59.984375 16.957031 Z M 59.984375 16.957031 "/>
</svg>
