<?xml version="1.0" encoding="UTF-8"?>
<svg xmlns="http://www.w3.org/2000/svg" xmlns:xlink="http://www.w3.org/1999/xlink" width="64" height="64" viewBox="0 0 64 64">
<path fill-rule="evenodd" fill="rgb(0.392157%, 65.882353%, 55.294118%)" fill-opacity="1" d="M 42.277344 35.058594 L 47.609375 40.390625 L 45.722656 42.277344 L 41.332031 37.886719 L 36.941406 42.277344 L 35.058594 40.390625 L 40.390625 35.058594 C 40.910156 34.535156 41.753906 34.535156 42.277344 35.058594 Z M 42.277344 41.722656 L 47.609375 47.058594 L 45.722656 48.941406 L 41.332031 44.550781 L 36.941406 48.941406 L 35.058594 47.058594 L 40.390625 41.722656 C 40.910156 41.203125 41.753906 41.203125 42.277344 41.722656 Z M 30.667969 52 L 52 52 L 52 30.667969 L 30.667969 30.667969 Z M 28 29.332031 L 28 53.332031 C 28 54.070312 28.597656 54.667969 29.332031 54.667969 L 53.332031 54.667969 C 54.070312 54.667969 54.667969 54.070312 54.667969 53.332031 L 54.667969 29.332031 C 54.667969 28.597656 54.070312 28 53.332031 28 L 29.332031 28 C 28.597656 28 28 28.597656 28 29.332031 Z M 9.332031 34.667969 L 9.332031 10.667969 C 9.332031 9.929688 9.929688 9.332031 10.667969 9.332031 L 34.667969 9.332031 C 35.402344 9.332031 36 9.929688 36 10.667969 L 36 25.332031 L 33.332031 25.332031 L 33.332031 12 L 12 12 L 12 33.332031 L 25.332031 33.332031 L 25.332031 36 L 10.667969 36 C 9.929688 36 9.332031 35.402344 9.332031 34.667969 Z M 22.667969 19.21875 L 18.277344 23.609375 L 16.390625 21.722656 L 21.722656 16.390625 C 22.246094 15.871094 23.089844 15.871094 23.609375 16.390625 L 28.941406 21.722656 L 27.058594 23.609375 Z M 16.390625 28.390625 L 21.722656 23.058594 C 22.246094 22.535156 23.089844 22.535156 23.609375 23.058594 L 27.101562 26.550781 L 25.214844 28.433594 L 22.667969 25.886719 L 18.277344 30.277344 Z M 5.332031 58.667969 L 58.667969 58.667969 L 58.667969 5.332031 L 5.332031 5.332031 Z M 60 2.667969 L 4 2.667969 C 3.261719 2.667969 2.667969 3.265625 2.667969 4 L 2.667969 60 C 2.667969 60.734375 3.261719 61.332031 4 61.332031 L 60 61.332031 C 60.738281 61.332031 61.332031 60.734375 61.332031 60 L 61.332031 4 C 61.332031 3.265625 60.738281 2.667969 60 2.667969 Z M 60 2.667969 "/>
</svg>
