<?xml version="1.0" encoding="UTF-8"?>
<svg xmlns="http://www.w3.org/2000/svg" xmlns:xlink="http://www.w3.org/1999/xlink" width="64" height="64" viewBox="0 0 64 64">
<path fill-rule="evenodd" fill="rgb(100%, 100%, 100%)" fill-opacity="1" d="M 13.863281 22.164062 C 14.78125 22.164062 15.523438 22.90625 15.523438 23.824219 C 15.523438 24.738281 14.78125 25.480469 13.863281 25.480469 C 12.949219 25.480469 12.207031 24.738281 12.207031 23.824219 C 12.207031 22.90625 12.949219 22.164062 13.863281 22.164062 Z M 32.339844 14.957031 C 33.253906 14.957031 34 15.703125 34 16.617188 C 34 17.53125 33.253906 18.277344 32.339844 18.277344 C 31.425781 18.277344 30.679688 17.53125 30.679688 16.617188 C 30.679688 15.703125 31.425781 14.957031 32.339844 14.957031 Z M 50.957031 7.734375 C 51.875 7.734375 52.617188 8.476562 52.617188 9.394531 C 52.617188 10.308594 51.875 11.050781 50.957031 11.050781 C 50.042969 11.050781 49.296875 10.308594 49.296875 9.394531 C 49.296875 8.476562 50.042969 7.734375 50.957031 7.734375 Z M 13.863281 28.148438 C 16.25 28.148438 18.191406 26.207031 18.191406 23.824219 C 18.191406 23.757812 18.175781 23.703125 18.171875 23.640625 L 29.046875 19.390625 C 29.839844 20.332031 31.015625 20.941406 32.339844 20.941406 C 34.726562 20.941406 36.664062 19.003906 36.664062 16.617188 C 36.664062 16.46875 36.636719 16.328125 36.621094 16.1875 L 47.589844 12.074219 C 48.382812 13.066406 49.589844 13.71875 50.957031 13.71875 C 53.34375 13.71875 55.285156 11.777344 55.285156 9.394531 C 55.285156 7.007812 53.34375 5.066406 50.957031 5.066406 C 48.574219 5.066406 46.632812 7.007812 46.632812 9.394531 C 46.632812 9.457031 46.648438 9.515625 46.652344 9.578125 L 35.546875 13.742188 C 34.753906 12.859375 33.617188 12.292969 32.339844 12.292969 C 29.953125 12.292969 28.011719 14.234375 28.011719 16.617188 C 28.011719 16.722656 28.035156 16.816406 28.042969 16.921875 L 17.234375 21.140625 C 16.441406 20.148438 15.230469 19.496094 13.863281 19.496094 C 11.480469 19.496094 9.539062 21.4375 9.539062 23.824219 C 9.539062 26.207031 11.480469 28.148438 13.863281 28.148438 Z M 9.332031 34.71875 L 18.726562 34.71875 L 18.667969 54.71875 L 9.304688 54.71875 Z M 28 54.71875 L 37.332031 54.71875 L 37.332031 26.71875 L 28 26.71875 Z M 46.667969 54.71875 L 56 54.71875 L 56 20.050781 L 46.667969 20.050781 Z M 58.667969 54.71875 L 58.667969 18.71875 C 58.667969 17.980469 58.070312 17.386719 57.332031 17.386719 L 45.332031 17.386719 C 44.597656 17.386719 44 17.980469 44 18.71875 L 44 54.71875 L 40 54.71875 L 40 25.386719 C 40 24.648438 39.402344 24.050781 38.667969 24.050781 L 26.667969 24.050781 C 25.929688 24.050781 25.332031 24.648438 25.332031 25.386719 L 25.332031 54.71875 L 21.332031 54.71875 L 21.398438 33.386719 C 21.398438 33.035156 21.257812 32.695312 21.007812 32.441406 C 20.757812 32.191406 20.417969 32.050781 20.0625 32.050781 L 8 32.050781 C 7.265625 32.050781 6.667969 32.648438 6.667969 33.382812 L 6.636719 54.71875 L 4 54.71875 L 4 57.386719 L 61.332031 57.386719 L 61.332031 54.71875 Z M 58.667969 54.71875 "/>
</svg>
