<?xml version="1.0" encoding="UTF-8"?>
<svg xmlns="http://www.w3.org/2000/svg" xmlns:xlink="http://www.w3.org/1999/xlink" width="64" height="64" viewBox="0 0 64 64">
<path fill-rule="evenodd" fill="rgb(100%, 100%, 100%)" fill-opacity="1" d="M 56.398438 51.699219 L 56.398438 54.261719 C 56.398438 54.84375 55.925781 55.320312 55.339844 55.320312 L 41.015625 55.320312 C 40.429688 55.320312 39.957031 54.84375 39.957031 54.261719 L 39.957031 51.699219 C 39.957031 51.113281 40.429688 50.640625 41.015625 50.640625 L 55.339844 50.640625 C 55.925781 50.640625 56.398438 51.113281 56.398438 51.699219 Z M 58.394531 56.53125 C 58.394531 57.003906 58.011719 57.390625 57.539062 57.390625 L 6.191406 57.390625 C 5.71875 57.390625 5.332031 57.003906 5.332031 56.53125 L 5.332031 49.347656 C 5.332031 48.875 5.71875 48.488281 6.191406 48.488281 L 57.539062 48.488281 C 58.011719 48.488281 58.394531 48.875 58.394531 49.347656 Z M 57.539062 45.824219 L 6.191406 45.824219 C 4.25 45.824219 2.667969 47.402344 2.667969 49.347656 L 2.667969 56.53125 C 2.667969 58.476562 4.25 60.058594 6.191406 60.058594 L 57.539062 60.058594 C 59.480469 60.058594 61.0625 58.476562 61.0625 56.53125 L 61.0625 49.347656 C 61.0625 47.402344 59.480469 45.824219 57.539062 45.824219 Z M 10 36.28125 L 53.683594 36.28125 L 53.683594 10.003906 L 10 10.003906 Z M 54.457031 7.335938 L 9.230469 7.335938 C 8.1875 7.335938 7.335938 8.183594 7.335938 9.230469 L 7.335938 37.050781 C 7.335938 38.097656 8.1875 38.945312 9.230469 38.945312 L 54.457031 38.945312 C 55.5 38.945312 56.351562 38.097656 56.351562 37.050781 L 56.351562 9.230469 C 56.351562 8.183594 55.5 7.335938 54.457031 7.335938 Z M 58.394531 40.089844 C 58.394531 40.5625 58.011719 40.949219 57.539062 40.949219 L 6.191406 40.949219 C 5.71875 40.949219 5.332031 40.5625 5.332031 40.089844 L 5.332031 6.191406 C 5.332031 5.71875 5.71875 5.332031 6.191406 5.332031 L 57.539062 5.332031 C 58.011719 5.332031 58.394531 5.71875 58.394531 6.191406 Z M 57.539062 2.667969 L 6.191406 2.667969 C 4.25 2.667969 2.667969 4.246094 2.667969 6.191406 L 2.667969 40.089844 C 2.667969 42.035156 4.25 43.613281 6.191406 43.613281 L 57.539062 43.613281 C 59.480469 43.613281 61.0625 42.035156 61.0625 40.089844 L 61.0625 6.191406 C 61.0625 4.246094 59.480469 2.667969 57.539062 2.667969 Z M 57.539062 2.667969 "/>
</svg>
