<?xml version="1.0" encoding="UTF-8"?>
<svg xmlns="http://www.w3.org/2000/svg" xmlns:xlink="http://www.w3.org/1999/xlink" width="64" height="64" viewBox="0 0 64 64">
<path fill-rule="evenodd" fill="rgb(100%, 100%, 100%)" fill-opacity="1" d="M 24.078125 50.667969 L 26.589844 51.5625 L 39.921875 14.230469 L 37.410156 13.332031 Z M 60.84375 31.386719 L 46.175781 19.414062 L 44.492188 21.480469 L 57.894531 32.421875 L 44.488281 43.417969 L 46.179688 45.480469 L 60.84375 33.449219 C 61.15625 33.195312 61.332031 32.816406 61.332031 32.417969 C 61.332031 32.015625 61.152344 31.636719 60.84375 31.386719 Z M 6.105469 32.421875 L 19.511719 43.417969 L 17.820312 45.480469 L 3.15625 33.449219 C 2.84375 33.195312 2.667969 32.816406 2.667969 32.417969 C 2.667969 32.015625 2.847656 31.636719 3.15625 31.386719 L 17.824219 19.414062 L 19.507812 21.480469 Z M 6.105469 32.421875 "/>
</svg>
