<?xml version="1.0" encoding="UTF-8"?>
<svg width="80px" height="80px" viewBox="0 0 80 80" version="1.1" xmlns="http://www.w3.org/2000/svg" xmlns:xlink="http://www.w3.org/1999/xlink">
    <title>Icon-Architecture/64/Arch_Amazon-Comprehend-Medical_64</title>
    <defs>
        <linearGradient x1="0%" y1="100%" x2="100%" y2="0%" id="linearGradient-1">
            <stop stop-color="#055F4E" offset="0%"></stop>
            <stop stop-color="#56C0A7" offset="100%"></stop>
        </linearGradient>
    </defs>
    <g id="Icon-Architecture/64/Arch_Amazon-Comprehend-Medical_64" stroke="none" stroke-width="1" fill="none" fill-rule="evenodd">
        <g id="Rectangle" fill="url(#linearGradient-1)">
            <rect x="0" y="0" width="80" height="80"></rect>
        </g>
        <g id="Icon-Service/64/Amazon-Comprehend-Medical_64" transform="translate(8.000000, 8.000000)" fill="#FFFFFF">
            <path d="M12.9659327,10.581 L12.9659327,45.908 L6.17593273,11.978 L12.9659327,10.581 Z M43.9659327,7.227 L49.3359327,12 L43.9659327,12 L43.9659327,7.227 Z M14.9659327,6 L41.9659327,6 L41.9659327,13 C41.9659327,13.553 42.4129327,14 42.9659327,14 L50.9659327,14 L50.9659327,37 L52.9659327,37 L52.9659327,13 C52.9659327,12.715 52.8439327,12.443 52.6299327,12.253 L43.6299327,4.253 C43.4469327,4.09 43.2109327,4 42.9659327,4 L13.9659327,4 C13.4129327,4 12.9659327,4.448 12.9659327,5 L12.9659327,8.539 L4.79893273,10.22 C4.25993273,10.331 3.91093273,10.856 4.01993273,11.395 L12.9859327,56.197 L13.0049327,56.193 C13.0969327,56.65 13.4819327,57 13.9659327,57 L37.9659327,57 L37.9659327,55 L14.9659327,55 L14.9659327,6 Z M18.9659327,43 L36.9659327,43 L36.9659327,41 L18.9659327,41 L18.9659327,43 Z M18.9659327,37 L43.9659327,37 L43.9659327,35 L18.9659327,35 L18.9659327,37 Z M18.9659327,19 L37.9659327,19 L37.9659327,17 L18.9659327,17 L18.9659327,19 Z M18.9659327,31 L45.9659327,31 L45.9659327,29 L18.9659327,29 L18.9659327,31 Z M27.9659327,25 L45.9659327,25 L45.9659327,23 L27.9659327,23 L27.9659327,25 Z M18.9659327,25 L25.9659327,25 L25.9659327,23 L18.9659327,23 L18.9659327,25 Z M57.9659327,52 L52.9659327,52 C52.4129327,52 51.9659327,52.448 51.9659327,53 L51.9659327,58 L46.9659327,58 L46.9659327,53 C46.9659327,52.448 46.5189327,52 45.9659327,52 L40.9659327,52 L40.9659327,47 L45.9659327,47 C46.5189327,47 46.9659327,46.553 46.9659327,46 L46.9659327,41 L51.9659327,41 L51.9659327,46 C51.9659327,46.553 52.4129327,47 52.9659327,47 L57.9659327,47 L57.9659327,52 Z M58.9659327,45 L53.9659327,45 L53.9659327,40 C53.9659327,39.448 53.5189327,39 52.9659327,39 L45.9659327,39 C45.4129327,39 44.9659327,39.448 44.9659327,40 L44.9659327,45 L39.9659327,45 C39.4129327,45 38.9659327,45.448 38.9659327,46 L38.9659327,53 C38.9659327,53.553 39.4129327,54 39.9659327,54 L44.9659327,54 L44.9659327,59 C44.9659327,59.553 45.4129327,60 45.9659327,60 L52.9659327,60 C53.5189327,60 53.9659327,59.553 53.9659327,59 L53.9659327,54 L58.9659327,54 C59.5189327,54 59.9659327,53.553 59.9659327,53 L59.9659327,46 C59.9659327,45.448 59.5189327,45 58.9659327,45 L58.9659327,45 Z" id="Fill-1"></path>
        </g>
    </g>
</svg>