<?xml version="1.0" encoding="UTF-8"?>
<svg width="80px" height="80px" viewBox="0 0 80 80" version="1.1" xmlns="http://www.w3.org/2000/svg" xmlns:xlink="http://www.w3.org/1999/xlink">
    <title>Icon-Architecture/64/Arch_Amazon-Omics_64</title>
    <defs>
        <linearGradient x1="0%" y1="100%" x2="100%" y2="0%" id="linearGradient-1">
            <stop stop-color="#055F4E" offset="0%"></stop>
            <stop stop-color="#56C0A7" offset="100%"></stop>
        </linearGradient>
    </defs>
    <g id="Icon-Architecture/64/Arch_Amazon-Omics_64" stroke="none" stroke-width="1" fill="none" fill-rule="evenodd">
        <g id="Icon-Architecture-BG/64/Machine-Learning" fill="url(#linearGradient-1)">
            <rect id="Rectangle" x="0" y="0" width="80" height="80"></rect>
        </g>
        <g id="Icon-Service/64/Amazon-Omics_64" transform="translate(12.000000, 12.000000)" fill="#FFFFFF">
            <path d="M16.1073651,12.142 C15.3103651,12.642 14.5213651,13.134 13.7453651,13.618 C10.1243651,15.872 6.70336511,18.003 4.15736511,20.056 C0.978365109,22.618 -0.387634891,25.955 0.0943651089,29.975 C0.462365109,33.032 2.91436511,35.953 7.58836511,38.904 L8.65736511,37.212 C6.39836511,35.786 4.73336511,34.379 3.62936511,33 L16.0013651,33 L16.0013651,31 L2.42936511,31 C2.26136511,30.576 2.13136511,30.153 2.08136511,29.736 C1.67936511,26.4 2.76936511,23.743 5.41336511,21.612 C7.86436511,19.636 11.2343651,17.537 14.8023651,15.315 C15.5813651,14.83 16.3733651,14.337 17.1713651,13.835 C19.9073651,12.117 24.9993651,8.917 24.9993651,3 L24.9993651,0 L22.9993651,0 L22.9993651,3 C22.9993651,3.346 22.9703651,3.676 22.9293651,4 L2.00236511,4 L2.00236511,0 L0.0023651089,0 L0.0023651089,3.986 C-0.0616348911,8.381 3.78336511,11.038 6.87236511,13.173 L7.18636511,13.39 L8.32536511,11.746 L8.00836511,11.528 C5.77936511,9.986 3.32236511,8.281 2.39236511,6 L22.3933651,6 C21.2383651,8.708 18.6093651,10.569 16.1073651,12.142 L16.1073651,12.142 Z M31.0013651,41 L56.0013651,41 L56.0013651,39 L31.0013651,39 L31.0013651,41 Z M31.0013651,17 L56.0013651,17 L56.0013651,15 L31.0013651,15 L31.0013651,17 Z M31.0013651,33 L44.0013651,33 L44.0013651,31 L31.0013651,31 L31.0013651,33 Z M2.60636511,50 L22.5533651,50 C21.6233651,47.72 19.1663651,46.015 16.9363651,44.473 L16.6203651,44.254 L17.7583651,42.611 L18.0733651,42.828 C21.1623651,44.963 25.0063651,47.62 24.9433651,52.015 L24.9433651,56 L22.9433651,56 L22.9433651,52 L2.07036511,52 C2.02936511,52.324 2.00136511,52.655 2.00136511,53 L2.00136511,56 L0.0013651089,56 L0.0013651089,53 C0.0013651089,47.085 5.09236511,43.885 7.82836511,42.165 C8.62736511,41.663 9.41936511,41.17 10.1973651,40.686 C13.7653651,38.464 17.1353651,36.365 19.5863651,34.389 C22.2303651,32.258 23.3203651,29.6 22.9193651,26.265 C22.8683651,25.847 22.7383651,25.425 22.5713651,25 L11.0013651,25 L11.0013651,23 L21.3703651,23 C20.2663651,21.622 18.6013651,20.215 16.3423651,18.788 L17.4113651,17.097 C20.5233651,19.062 22.6283651,21.014 23.8103651,23 L51.0013651,23 L51.0013651,25 L24.6933651,25 C24.7873651,25.341 24.8633651,25.682 24.9053651,26.026 C25.3873651,30.046 24.0213651,33.383 20.8423651,35.945 C18.2963651,37.998 14.8763651,40.128 11.2543651,42.383 C10.4783651,42.867 9.68936511,43.358 8.89236511,43.859 C6.39036511,45.432 3.76236511,47.293 2.60636511,50 L2.60636511,50 Z" id="Fill-5"></path>
        </g>
    </g>
</svg>