<?xml version="1.0" encoding="UTF-8"?>
<svg xmlns="http://www.w3.org/2000/svg" xmlns:xlink="http://www.w3.org/1999/xlink" width="64" height="64" viewBox="0 0 64 64">
<path fill-rule="evenodd" fill="rgb(92.941177%, 44.313726%, 0%)" fill-opacity="1" d="M 12 52 L 52 52 L 52 12 L 12 12 Z M 54.667969 17.332031 L 54.667969 22.667969 L 61.332031 22.667969 L 61.332031 25.332031 L 54.667969 25.332031 L 54.667969 30.667969 L 61.332031 30.667969 L 61.332031 33.332031 L 54.667969 33.332031 L 54.667969 38.667969 L 61.332031 38.667969 L 61.332031 41.332031 L 54.667969 41.332031 L 54.667969 46.667969 L 61.332031 46.667969 L 61.332031 49.332031 L 54.667969 49.332031 L 54.667969 53.332031 C 54.667969 54.070312 54.070312 54.667969 53.332031 54.667969 L 49.332031 54.667969 L 49.332031 61.332031 L 46.667969 61.332031 L 46.667969 54.667969 L 41.332031 54.667969 L 41.332031 61.332031 L 38.667969 61.332031 L 38.667969 54.667969 L 33.332031 54.667969 L 33.332031 61.332031 L 30.667969 61.332031 L 30.667969 54.667969 L 25.332031 54.667969 L 25.332031 61.332031 L 22.667969 61.332031 L 22.667969 54.667969 L 17.332031 54.667969 L 17.332031 61.332031 L 14.667969 61.332031 L 14.667969 54.667969 L 10.667969 54.667969 C 9.929688 54.667969 9.332031 54.070312 9.332031 53.332031 L 9.332031 49.332031 L 2.667969 49.332031 L 2.667969 46.667969 L 9.332031 46.667969 L 9.332031 41.332031 L 2.667969 41.332031 L 2.667969 38.667969 L 9.332031 38.667969 L 9.332031 33.332031 L 2.667969 33.332031 L 2.667969 30.667969 L 9.332031 30.667969 L 9.332031 25.332031 L 2.667969 25.332031 L 2.667969 22.667969 L 9.332031 22.667969 L 9.332031 17.332031 L 2.667969 17.332031 L 2.667969 14.667969 L 9.332031 14.667969 L 9.332031 10.667969 C 9.332031 9.929688 9.929688 9.332031 10.667969 9.332031 L 14.667969 9.332031 L 14.667969 2.667969 L 17.332031 2.667969 L 17.332031 9.332031 L 22.667969 9.332031 L 22.667969 2.667969 L 25.332031 2.667969 L 25.332031 9.332031 L 30.667969 9.332031 L 30.667969 2.667969 L 33.332031 2.667969 L 33.332031 9.332031 L 38.667969 9.332031 L 38.667969 2.667969 L 41.332031 2.667969 L 41.332031 9.332031 L 46.667969 9.332031 L 46.667969 2.667969 L 49.332031 2.667969 L 49.332031 9.332031 L 53.332031 9.332031 C 54.070312 9.332031 54.667969 9.929688 54.667969 10.667969 L 54.667969 14.667969 L 61.332031 14.667969 L 61.332031 17.332031 Z M 13.871094 19.886719 L 13.871094 17.21875 C 19.257812 17.21875 21.570312 24.734375 24.019531 32.695312 C 26.027344 39.222656 28.300781 46.617188 31.917969 46.617188 C 35.539062 46.617188 37.816406 39.261719 39.828125 32.773438 C 42.304688 24.773438 44.644531 17.21875 50.128906 17.21875 L 50.128906 19.886719 C 46.609375 19.886719 44.363281 27.152344 42.375 33.5625 C 39.980469 41.289062 37.503906 49.28125 31.917969 49.28125 C 26.332031 49.28125 23.859375 41.25 21.46875 33.480469 C 19.511719 27.109375 17.289062 19.886719 13.871094 19.886719 Z M 13.871094 19.886719 "/>
</svg>
