<?xml version="1.0" encoding="UTF-8"?>
<svg xmlns="http://www.w3.org/2000/svg" xmlns:xlink="http://www.w3.org/1999/xlink" width="64" height="64" viewBox="0 0 64 64">
<path fill-rule="evenodd" fill="rgb(92.941177%, 44.313726%, 0%)" fill-opacity="1" d="M 12 52 L 52 52 L 52 12 L 12 12 Z M 54.667969 17.332031 L 54.667969 22.667969 L 61.332031 22.667969 L 61.332031 25.332031 L 54.667969 25.332031 L 54.667969 30.667969 L 61.332031 30.667969 L 61.332031 33.332031 L 54.667969 33.332031 L 54.667969 38.667969 L 61.332031 38.667969 L 61.332031 41.332031 L 54.667969 41.332031 L 54.667969 46.667969 L 61.332031 46.667969 L 61.332031 49.332031 L 54.667969 49.332031 L 54.667969 53.332031 C 54.667969 54.070312 54.070312 54.667969 53.332031 54.667969 L 49.332031 54.667969 L 49.332031 61.332031 L 46.667969 61.332031 L 46.667969 54.667969 L 41.332031 54.667969 L 41.332031 61.332031 L 38.667969 61.332031 L 38.667969 54.667969 L 33.332031 54.667969 L 33.332031 61.332031 L 30.667969 61.332031 L 30.667969 54.667969 L 25.332031 54.667969 L 25.332031 61.332031 L 22.667969 61.332031 L 22.667969 54.667969 L 17.332031 54.667969 L 17.332031 61.332031 L 14.667969 61.332031 L 14.667969 54.667969 L 10.667969 54.667969 C 9.929688 54.667969 9.332031 54.070312 9.332031 53.332031 L 9.332031 49.332031 L 2.667969 49.332031 L 2.667969 46.667969 L 9.332031 46.667969 L 9.332031 41.332031 L 2.667969 41.332031 L 2.667969 38.667969 L 9.332031 38.667969 L 9.332031 33.332031 L 2.667969 33.332031 L 2.667969 30.667969 L 9.332031 30.667969 L 9.332031 25.332031 L 2.667969 25.332031 L 2.667969 22.667969 L 9.332031 22.667969 L 9.332031 17.332031 L 2.667969 17.332031 L 2.667969 14.667969 L 9.332031 14.667969 L 9.332031 10.667969 C 9.332031 9.929688 9.929688 9.332031 10.667969 9.332031 L 14.667969 9.332031 L 14.667969 2.667969 L 17.332031 2.667969 L 17.332031 9.332031 L 22.667969 9.332031 L 22.667969 2.667969 L 25.332031 2.667969 L 25.332031 9.332031 L 30.667969 9.332031 L 30.667969 2.667969 L 33.332031 2.667969 L 33.332031 9.332031 L 38.667969 9.332031 L 38.667969 2.667969 L 41.332031 2.667969 L 41.332031 9.332031 L 46.667969 9.332031 L 46.667969 2.667969 L 49.332031 2.667969 L 49.332031 9.332031 L 53.332031 9.332031 C 54.070312 9.332031 54.667969 9.929688 54.667969 10.667969 L 54.667969 14.667969 L 61.332031 14.667969 L 61.332031 17.332031 Z M 46.207031 31.894531 C 44.738281 31.894531 43.539062 30.699219 43.539062 29.226562 C 43.539062 27.757812 44.738281 26.5625 46.207031 26.5625 C 47.675781 26.5625 48.875 27.757812 48.875 29.226562 C 48.875 30.699219 47.675781 31.894531 46.207031 31.894531 Z M 32.195312 45.210938 C 31.925781 42.523438 29.675781 40.40625 26.914062 40.40625 C 25.449219 40.40625 24.121094 41 23.15625 41.960938 C 20.21875 39.421875 18.53125 35.804688 18.53125 31.894531 C 18.53125 29.648438 19.117188 27.484375 20.179688 25.539062 C 20.839844 25.832031 21.570312 26.003906 22.339844 26.003906 C 25.28125 26.003906 27.671875 23.609375 27.671875 20.671875 C 27.671875 20.199219 27.589844 19.746094 27.472656 19.308594 C 28.878906 18.816406 30.347656 18.5625 31.867188 18.5625 C 36.53125 18.5625 40.738281 20.957031 43.164062 24.859375 C 41.78125 25.824219 40.875 27.421875 40.875 29.226562 C 40.875 31.734375 42.621094 33.832031 44.957031 34.398438 C 43.800781 40.453125 38.542969 45.054688 32.195312 45.210938 Z M 29.53125 46.257812 C 29.285156 47.503906 28.1875 48.40625 26.914062 48.40625 C 25.445312 48.40625 24.246094 47.210938 24.246094 45.738281 C 24.246094 44.269531 25.445312 43.074219 26.914062 43.074219 C 28.382812 43.074219 29.582031 44.269531 29.582031 45.738281 C 29.582031 45.914062 29.5625 46.089844 29.53125 46.257812 Z M 22.339844 18.003906 C 23.808594 18.003906 25.003906 19.199219 25.003906 20.671875 C 25.003906 22.140625 23.808594 23.335938 22.339844 23.335938 C 20.867188 23.335938 19.671875 22.140625 19.671875 20.671875 C 19.671875 19.199219 20.867188 18.003906 22.339844 18.003906 Z M 51.539062 29.226562 C 51.539062 26.289062 49.148438 23.894531 46.207031 23.894531 C 46.050781 23.894531 45.902344 23.929688 45.746094 23.941406 C 42.894531 18.953125 37.667969 15.894531 31.867188 15.894531 C 29.890625 15.894531 27.980469 16.269531 26.160156 16.964844 C 25.191406 15.964844 23.839844 15.335938 22.339844 15.335938 C 19.398438 15.335938 17.003906 17.730469 17.003906 20.671875 C 17.003906 21.851562 17.402344 22.933594 18.054688 23.820312 C 16.625 26.265625 15.867188 29.035156 15.867188 31.894531 C 15.867188 36.761719 18.03125 41.253906 21.800781 44.3125 C 21.671875 44.769531 21.582031 45.242188 21.582031 45.738281 C 21.582031 48.679688 23.972656 51.074219 26.914062 51.074219 C 29.125 51.074219 31.070312 49.707031 31.867188 47.714844 L 31.867188 47.894531 C 39.855469 47.894531 46.480469 42 47.660156 34.335938 C 49.890625 33.699219 51.539062 31.664062 51.539062 29.226562 Z M 31.867188 34.5625 C 30.394531 34.5625 29.199219 33.367188 29.199219 31.894531 C 29.199219 30.425781 30.394531 29.226562 31.867188 29.226562 C 33.335938 29.226562 34.53125 30.425781 34.53125 31.894531 C 34.53125 33.367188 33.335938 34.5625 31.867188 34.5625 Z M 31.867188 26.5625 C 28.925781 26.5625 26.53125 28.953125 26.53125 31.894531 C 26.53125 34.835938 28.925781 37.226562 31.867188 37.226562 C 34.808594 37.226562 37.199219 34.835938 37.199219 31.894531 C 37.199219 28.953125 34.808594 26.5625 31.867188 26.5625 Z M 31.867188 26.5625 "/>
</svg>
