<?xml version="1.0" encoding="UTF-8"?>
<svg xmlns="http://www.w3.org/2000/svg" xmlns:xlink="http://www.w3.org/1999/xlink" width="64" height="64" viewBox="0 0 64 64">
<path fill-rule="evenodd" fill="rgb(92.941177%, 44.313726%, 0%)" fill-opacity="1" d="M 52 53.253906 C 52 53.296875 51.964844 53.332031 51.917969 53.332031 L 10.667969 53.253906 L 10.746094 12 L 52 12.078125 Z M 61.332031 14.667969 L 61.332031 12 L 54.667969 12 L 54.667969 12.078125 C 54.667969 10.566406 53.433594 9.332031 51.917969 9.332031 L 52 9.332031 L 52 2.667969 L 49.332031 2.667969 L 49.332031 9.332031 L 42.667969 9.332031 L 42.667969 2.667969 L 40 2.667969 L 40 9.332031 L 33.332031 9.332031 L 33.332031 2.667969 L 30.667969 2.667969 L 30.667969 9.332031 L 24 9.332031 L 24 2.667969 L 21.332031 2.667969 L 21.332031 9.332031 L 14.667969 9.332031 L 14.667969 2.667969 L 12 2.667969 L 12 9.332031 L 10.746094 9.332031 C 9.261719 9.332031 8.050781 10.523438 8.007812 12 L 2.667969 12 L 2.667969 14.667969 L 8 14.667969 L 8 21.332031 L 2.667969 21.332031 L 2.667969 24 L 8 24 L 8 30.667969 L 2.667969 30.667969 L 2.667969 33.332031 L 8 33.332031 L 8 40 L 2.667969 40 L 2.667969 42.667969 L 8 42.667969 L 8 49.332031 L 2.667969 49.332031 L 2.667969 52 L 8 52 L 8 53.253906 C 8 54.769531 9.234375 56 10.746094 56 L 12 56 L 12 61.332031 L 14.667969 61.332031 L 14.667969 56 L 21.332031 56 L 21.332031 61.332031 L 24 61.332031 L 24 56 L 30.667969 56 L 30.667969 61.332031 L 33.332031 61.332031 L 33.332031 56 L 40 56 L 40 61.332031 L 42.667969 61.332031 L 42.667969 56 L 49.332031 56 L 49.332031 61.332031 L 52 61.332031 L 52 55.992188 C 53.476562 55.949219 54.667969 54.738281 54.667969 53.253906 L 54.667969 52 L 61.332031 52 L 61.332031 49.332031 L 54.667969 49.332031 L 54.667969 42.667969 L 61.332031 42.667969 L 61.332031 40 L 54.667969 40 L 54.667969 33.332031 L 61.332031 33.332031 L 61.332031 30.667969 L 54.667969 30.667969 L 54.667969 24 L 61.332031 24 L 61.332031 21.332031 L 54.667969 21.332031 L 54.667969 14.667969 Z M 27.65625 38.78125 C 27.925781 38.941406 28.195312 39.109375 28.464844 39.265625 C 28.742188 39.425781 29.015625 39.570312 29.292969 39.722656 C 28.820312 39.910156 28.355469 40.082031 27.90625 40.238281 C 27.816406 39.769531 27.730469 39.28125 27.65625 38.78125 Z M 23.40625 32.449219 C 23.773438 32.132812 24.15625 31.816406 24.554688 31.503906 C 24.546875 31.820312 24.535156 32.140625 24.535156 32.457031 C 24.535156 32.773438 24.546875 33.089844 24.550781 33.402344 C 24.152344 33.085938 23.769531 32.765625 23.40625 32.449219 Z M 18.285156 24.3125 C 18.902344 23.242188 21.550781 22.980469 25.347656 23.917969 C 25.085938 25.234375 24.890625 26.621094 24.753906 28.03125 C 23.574219 28.867188 22.464844 29.726562 21.457031 30.609375 C 18.761719 27.796875 17.671875 25.378906 18.285156 24.3125 Z M 29.292969 25.191406 C 29.015625 25.34375 28.742188 25.492188 28.464844 25.648438 C 28.191406 25.808594 27.925781 25.976562 27.65625 26.136719 C 27.730469 25.632812 27.816406 25.148438 27.90625 24.679688 C 28.355469 24.835938 28.820312 25.007812 29.292969 25.191406 Z M 36.894531 24.664062 C 36.988281 25.144531 37.070312 25.636719 37.144531 26.144531 C 36.875 25.976562 36.605469 25.808594 36.328125 25.648438 C 36.054688 25.492188 35.769531 25.339844 35.492188 25.1875 C 35.964844 25 36.433594 24.828125 36.894531 24.664062 Z M 41.105469 23.542969 C 43.890625 23.066406 45.960938 23.363281 46.507812 24.3125 C 47.054688 25.261719 46.273438 27.199219 44.472656 29.375 C 44.128906 29.785156 43.746094 30.203125 43.347656 30.617188 C 42.339844 29.738281 41.230469 28.875 40.050781 28.039062 C 39.914062 26.601562 39.722656 25.207031 39.464844 23.894531 C 40.023438 23.757812 40.578125 23.632812 41.105469 23.542969 Z M 40.257812 32.457031 C 40.257812 32.136719 40.246094 31.820312 40.242188 31.503906 C 40.636719 31.820312 41.023438 32.136719 41.398438 32.457031 C 41.023438 32.78125 40.636719 33.097656 40.238281 33.414062 C 40.246094 33.09375 40.257812 32.777344 40.257812 32.457031 Z M 29.800781 36.957031 C 28.914062 36.445312 28.089844 35.925781 27.300781 35.398438 C 27.242188 34.457031 27.203125 33.480469 27.203125 32.457031 C 27.203125 31.433594 27.242188 30.457031 27.300781 29.515625 C 28.105469 28.980469 28.933594 28.457031 29.800781 27.960938 C 30.664062 27.460938 31.53125 27.003906 32.394531 26.574219 C 33.242188 26.996094 34.109375 27.449219 34.996094 27.960938 C 35.859375 28.457031 36.691406 28.980469 37.492188 29.515625 C 37.554688 30.476562 37.589844 31.457031 37.589844 32.457031 C 37.589844 33.484375 37.550781 34.457031 37.492188 35.402344 C 36.6875 35.9375 35.859375 36.457031 34.996094 36.957031 C 34.109375 37.46875 33.242188 37.921875 32.394531 38.34375 C 31.53125 37.914062 30.664062 37.457031 29.800781 36.957031 Z M 36.886719 40.25 C 36.425781 40.085938 35.957031 39.914062 35.488281 39.726562 C 35.765625 39.574219 36.050781 39.425781 36.328125 39.265625 C 36.601562 39.109375 36.867188 38.941406 37.136719 38.78125 C 37.058594 39.285156 36.976562 39.777344 36.886719 40.25 Z M 32.398438 48.753906 C 31.164062 48.753906 29.609375 46.59375 28.523438 42.835938 C 29.800781 42.402344 31.101562 41.882812 32.394531 41.292969 C 33.703125 41.894531 35 42.425781 36.261719 42.855469 C 35.175781 46.601562 33.625 48.753906 32.398438 48.753906 Z M 16.175781 37.023438 C 15.046875 39.417969 15.445312 41.015625 15.976562 41.9375 C 16.914062 43.558594 18.824219 44.25 21.265625 44.25 C 22.683594 44.25 24.285156 44 25.972656 43.578125 C 27.273438 48.128906 29.4375 51.417969 32.398438 51.417969 C 35.351562 51.417969 37.511719 48.140625 38.8125 43.605469 C 39.417969 43.757812 40.015625 43.890625 40.589844 43.992188 L 41.046875 41.363281 C 40.527344 41.273438 39.988281 41.152344 39.445312 41.015625 C 39.707031 39.691406 39.902344 38.300781 40.039062 36.886719 C 41.222656 36.046875 42.339844 35.179688 43.347656 34.296875 C 43.746094 34.714844 44.128906 35.128906 44.472656 35.542969 C 46.273438 37.71875 47.054688 39.65625 46.507812 40.605469 C 46.167969 41.195312 45.289062 41.429688 44.613281 41.523438 L 44.988281 44.167969 C 47.273438 43.84375 48.332031 42.777344 48.816406 41.9375 C 49.988281 39.910156 49.175781 37.035156 46.523438 33.839844 C 46.144531 33.382812 45.71875 32.921875 45.273438 32.457031 C 45.71875 31.996094 46.144531 31.535156 46.523438 31.074219 C 49.175781 27.882812 49.988281 25.007812 48.816406 22.980469 C 47.644531 20.949219 44.75 20.21875 40.660156 20.914062 C 40.070312 21.015625 39.457031 21.152344 38.835938 21.308594 C 38.65625 20.691406 38.46875 20.089844 38.261719 19.527344 L 35.761719 20.453125 C 35.949219 20.957031 36.117188 21.5 36.277344 22.054688 C 35.007812 22.488281 33.703125 23.019531 32.386719 23.625 C 31.097656 23.039062 29.800781 22.511719 28.523438 22.082031 C 29.609375 18.324219 31.164062 16.164062 32.398438 16.164062 C 33.0625 16.164062 33.691406 16.78125 34.101562 17.296875 L 36.1875 15.632812 C 34.777344 13.867188 33.347656 13.5 32.398438 13.5 C 29.4375 13.5 27.273438 16.785156 25.972656 21.332031 C 21.382812 20.1875 17.457031 20.417969 15.976562 22.980469 C 14.5 25.539062 16.257812 29.046875 19.535156 32.441406 C 19.101562 32.890625 18.6875 33.335938 18.316406 33.78125 L 20.363281 35.492188 C 20.699219 35.089844 21.070312 34.6875 21.460938 34.28125 C 22.480469 35.175781 23.589844 36.042969 24.753906 36.871094 C 24.886719 38.285156 25.082031 39.675781 25.347656 41 C 21.550781 41.9375 18.902344 41.671875 18.285156 40.605469 C 17.878906 39.898438 18.300781 38.769531 18.589844 38.160156 Z M 16.175781 37.023438 "/>
</svg>
