<?xml version="1.0" encoding="UTF-8"?>
<svg xmlns="http://www.w3.org/2000/svg" xmlns:xlink="http://www.w3.org/1999/xlink" width="64" height="64" viewBox="0 0 64 64">
<path fill-rule="evenodd" fill="rgb(92.941177%, 44.313726%, 0%)" fill-opacity="1" d="M 52.382812 39.113281 C 52.753906 39.410156 53.109375 39.707031 53.449219 40 C 53.109375 40.292969 52.753906 40.585938 52.382812 40.882812 C 52.390625 40.589844 52.398438 40.292969 52.398438 40 C 52.398438 39.703125 52.386719 39.410156 52.382812 39.113281 Z M 49.046875 47.621094 C 48.621094 47.472656 48.1875 47.3125 47.753906 47.140625 C 48.007812 47 48.265625 46.863281 48.523438 46.714844 C 48.777344 46.566406 49.027344 46.410156 49.28125 46.257812 C 49.210938 46.726562 49.132812 47.179688 49.046875 47.621094 Z M 44.644531 56 C 43.445312 56 41.929688 53.898438 40.867188 50.238281 C 42.097656 49.820312 43.367188 49.300781 44.644531 48.714844 C 45.925781 49.308594 47.191406 49.816406 48.425781 50.234375 C 47.363281 53.894531 45.847656 56 44.644531 56 Z M 40.011719 46.257812 C 40.265625 46.410156 40.511719 46.566406 40.769531 46.714844 C 41.03125 46.863281 41.292969 47.003906 41.550781 47.148438 C 41.113281 47.320312 40.679688 47.480469 40.246094 47.628906 C 40.164062 47.1875 40.082031 46.730469 40.011719 46.257812 Z M 35.832031 40 C 36.179688 39.699219 36.539062 39.402344 36.910156 39.105469 C 36.902344 39.402344 36.894531 39.703125 36.894531 40 C 36.894531 40.296875 36.902344 40.59375 36.910156 40.894531 C 36.539062 40.597656 36.179688 40.296875 35.832031 40 Z M 30.789062 32 C 31.207031 31.273438 32.816406 30.699219 36.078125 31.253906 C 36.597656 31.34375 37.140625 31.464844 37.6875 31.601562 C 37.433594 32.894531 37.242188 34.253906 37.109375 35.632812 C 35.953125 36.453125 34.863281 37.296875 33.878906 38.160156 C 33.492188 37.757812 33.121094 37.351562 32.789062 36.949219 C 30.675781 34.40625 30.371094 32.722656 30.789062 32 Z M 41.550781 32.851562 C 41.289062 32.996094 41.027344 33.136719 40.769531 33.285156 C 40.511719 33.433594 40.265625 33.589844 40.011719 33.738281 C 40.082031 33.269531 40.164062 32.8125 40.246094 32.367188 C 40.679688 32.519531 41.113281 32.679688 41.550781 32.851562 Z M 49.734375 40 C 49.734375 41 49.691406 41.953125 49.632812 42.878906 C 48.863281 43.394531 48.058594 43.902344 47.1875 44.402344 C 46.34375 44.890625 45.496094 45.339844 44.652344 45.761719 C 43.800781 45.339844 42.949219 44.890625 42.101562 44.402344 C 41.257812 43.914062 40.445312 43.40625 39.65625 42.882812 C 39.597656 41.957031 39.558594 41.003906 39.558594 40 C 39.558594 38.996094 39.597656 38.042969 39.65625 37.117188 C 40.445312 36.59375 41.257812 36.082031 42.101562 35.59375 C 42.96875 35.09375 43.816406 34.648438 44.648438 34.238281 C 45.496094 34.65625 46.34375 35.105469 47.1875 35.59375 C 48.058594 36.09375 48.863281 36.605469 49.632812 37.117188 C 49.691406 38.0625 49.734375 39.023438 49.734375 40 Z M 49.046875 32.378906 C 49.132812 32.824219 49.210938 33.277344 49.277344 33.738281 C 49.023438 33.589844 48.777344 33.429688 48.523438 33.285156 C 48.265625 33.136719 48.007812 33 47.75 32.855469 C 48.191406 32.683594 48.625 32.523438 49.046875 32.378906 Z M 58.503906 32 C 59.105469 33.042969 58.035156 35.410156 55.390625 38.167969 C 54.398438 37.300781 53.324219 36.457031 52.195312 35.65625 C 52.066406 34.246094 51.875 32.890625 51.621094 31.609375 C 55.324219 30.699219 57.902344 30.960938 58.503906 32 Z M 60.8125 30.667969 C 59.355469 28.144531 55.503906 27.910156 51 29.027344 C 50.757812 28.191406 50.492188 27.390625 50.191406 26.65625 L 47.726562 27.664062 C 47.988281 28.308594 48.222656 29.023438 48.4375 29.777344 C 47.1875 30.199219 45.921875 30.714844 44.65625 31.289062 C 43.375 30.699219 42.105469 30.179688 40.867188 29.761719 C 41.929688 26.101562 43.445312 24 44.644531 24 C 45.292969 24 45.902344 24.597656 46.304688 25.101562 L 48.390625 23.441406 C 47.003906 21.699219 45.589844 21.332031 44.644531 21.332031 C 41.734375 21.332031 39.605469 24.554688 38.320312 29.011719 C 37.710938 28.859375 37.105469 28.726562 36.523438 28.625 C 31.355469 27.746094 29.296875 29.25 28.480469 30.667969 C 27.664062 32.082031 27.390625 34.617188 30.734375 38.652344 C 31.105469 39.101562 31.519531 39.550781 31.953125 40 C 31.539062 40.429688 31.140625 40.859375 30.785156 41.289062 L 32.832031 42.996094 C 33.152344 42.613281 33.507812 42.226562 33.878906 41.839844 C 34.863281 42.703125 35.953125 43.546875 37.109375 44.367188 C 37.242188 45.746094 37.433594 47.105469 37.6875 48.398438 C 37.140625 48.535156 36.597656 48.65625 36.078125 48.746094 C 32.816406 49.300781 31.207031 48.722656 30.789062 48 C 30.394531 47.316406 30.808594 46.210938 31.089844 45.613281 L 28.675781 44.480469 C 27.5625 46.84375 27.957031 48.421875 28.480469 49.332031 C 29.128906 50.457031 30.558594 51.636719 33.703125 51.636719 C 34.519531 51.636719 35.457031 51.554688 36.523438 51.375 C 37.105469 51.273438 37.710938 51.136719 38.320312 50.988281 C 39.605469 55.445312 41.734375 58.667969 44.644531 58.667969 C 47.554688 58.667969 49.6875 55.445312 50.96875 50.988281 C 51.828125 51.199219 52.660156 51.371094 53.457031 51.480469 L 53.8125 48.835938 C 53.113281 48.742188 52.371094 48.585938 51.601562 48.394531 C 51.863281 47.097656 52.050781 45.734375 52.183594 44.351562 C 53.316406 43.546875 54.398438 42.703125 55.390625 41.832031 C 58.035156 44.589844 59.105469 46.957031 58.503906 48 C 58.171875 48.570312 57.316406 48.800781 56.660156 48.894531 L 57.027344 51.535156 C 59.289062 51.21875 60.332031 50.164062 60.8125 49.332031 C 62.269531 46.808594 60.539062 43.34375 57.308594 40 C 60.539062 36.652344 62.269531 33.191406 60.8125 30.667969 Z M 18.667969 13.332031 L 21.332031 13.332031 L 21.332031 10.667969 L 18.667969 10.667969 Z M 13.332031 13.332031 L 16 13.332031 L 16 10.667969 L 13.332031 10.667969 Z M 8 13.332031 L 10.667969 13.332031 L 10.667969 10.667969 L 8 10.667969 Z M 5.316406 45.332031 L 5.328125 18.667969 L 12 18.667969 L 12 45.335938 Z M 56 8 L 56 16 L 5.328125 16 L 5.332031 7.984375 Z M 14.667969 18.667969 L 56 18.667969 L 56 25.332031 L 58.667969 25.332031 L 58.667969 8.015625 C 58.667969 6.535156 57.460938 5.332031 55.984375 5.332031 L 5.351562 5.332031 C 3.871094 5.332031 2.667969 6.535156 2.667969 8.015625 L 2.667969 45.316406 C 2.667969 46.796875 3.871094 48 5.351562 48 L 25.332031 47.996094 L 25.332031 45.34375 L 14.667969 45.335938 Z M 14.667969 18.667969 "/>
</svg>
