<?xml version="1.0" encoding="UTF-8"?>
<svg xmlns="http://www.w3.org/2000/svg" xmlns:xlink="http://www.w3.org/1999/xlink" width="64" height="64" viewBox="0 0 64 64">
<path fill-rule="evenodd" fill="rgb(92.941177%, 44.313726%, 0%)" fill-opacity="1" d="M 52.394531 41.800781 C 52.765625 42.097656 53.121094 42.390625 53.46875 42.691406 C 53.121094 42.988281 52.765625 43.285156 52.394531 43.578125 C 52.402344 43.28125 52.410156 42.984375 52.410156 42.691406 C 52.410156 42.390625 52.398438 42.097656 52.394531 41.800781 Z M 49.058594 50.300781 C 48.636719 50.152344 48.207031 49.992188 47.773438 49.820312 C 48.03125 49.679688 48.285156 49.546875 48.539062 49.398438 C 48.792969 49.25 49.042969 49.097656 49.292969 48.945312 C 49.222656 49.410156 49.144531 49.863281 49.058594 50.300781 Z M 44.667969 58.667969 C 43.46875 58.667969 41.957031 56.570312 40.894531 52.917969 C 42.125 52.496094 43.390625 51.984375 44.664062 51.394531 C 45.945312 51.988281 47.210938 52.492188 48.4375 52.910156 C 47.378906 56.566406 45.867188 58.667969 44.667969 58.667969 Z M 40.042969 48.945312 C 40.292969 49.097656 40.539062 49.25 40.792969 49.398438 C 41.054688 49.546875 41.3125 49.683594 41.574219 49.828125 C 41.136719 50 40.703125 50.160156 40.273438 50.308594 C 40.191406 49.867188 40.113281 49.414062 40.042969 48.945312 Z M 35.867188 42.691406 C 36.210938 42.390625 36.566406 42.097656 36.9375 41.800781 C 36.933594 42.097656 36.921875 42.394531 36.921875 42.691406 C 36.921875 42.984375 36.933594 43.28125 36.9375 43.578125 C 36.566406 43.285156 36.210938 42.988281 35.867188 42.691406 Z M 30.832031 34.703125 C 31.25 33.976562 32.863281 33.402344 36.109375 33.957031 C 36.628906 34.046875 37.167969 34.167969 37.71875 34.304688 C 37.460938 35.597656 37.269531 36.953125 37.136719 38.332031 C 35.984375 39.148438 34.898438 39.992188 33.914062 40.847656 C 33.527344 40.445312 33.15625 40.046875 32.824219 39.644531 C 30.71875 37.105469 30.414062 35.425781 30.832031 34.703125 Z M 41.570312 35.554688 C 41.3125 35.695312 41.050781 35.832031 40.792969 35.984375 C 40.539062 36.128906 40.292969 36.285156 40.042969 36.4375 C 40.113281 35.964844 40.191406 35.511719 40.273438 35.070312 C 40.703125 35.222656 41.132812 35.382812 41.570312 35.554688 Z M 49.746094 42.691406 C 49.746094 43.691406 49.707031 44.644531 49.648438 45.566406 C 48.863281 46.089844 48.050781 46.601562 47.207031 47.089844 C 46.363281 47.574219 45.515625 48.023438 44.671875 48.441406 C 43.824219 48.019531 42.972656 47.574219 42.128906 47.089844 C 41.28125 46.601562 40.472656 46.089844 39.6875 45.566406 C 39.628906 44.644531 39.589844 43.691406 39.589844 42.691406 C 39.589844 41.6875 39.628906 40.734375 39.6875 39.8125 C 40.472656 39.289062 41.28125 38.78125 42.128906 38.292969 C 42.976562 37.804688 43.820312 37.355469 44.667969 36.9375 C 45.511719 37.355469 46.359375 37.804688 47.207031 38.292969 C 48.050781 38.78125 48.863281 39.289062 49.644531 39.8125 C 49.707031 40.757812 49.746094 41.714844 49.746094 42.691406 Z M 49.058594 35.070312 C 49.144531 35.515625 49.222656 35.96875 49.289062 36.433594 C 49.039062 36.285156 48.792969 36.128906 48.539062 35.984375 C 48.28125 35.832031 48.019531 35.695312 47.761719 35.554688 C 48.199219 35.382812 48.628906 35.222656 49.058594 35.070312 Z M 53.226562 33.957031 C 56.476562 33.402344 58.085938 33.980469 58.503906 34.703125 C 58.921875 35.425781 58.617188 37.105469 56.507812 39.644531 C 56.175781 40.046875 55.804688 40.449219 55.417969 40.851562 C 54.4375 39.992188 53.355469 39.152344 52.207031 38.339844 C 52.078125 36.929688 51.882812 35.578125 51.632812 34.300781 C 52.175781 34.164062 52.710938 34.046875 53.226562 33.957031 Z M 57.34375 42.691406 C 57.777344 42.242188 58.1875 41.792969 58.558594 41.347656 C 61.902344 37.316406 61.628906 34.785156 60.8125 33.367188 C 59.996094 31.953125 57.9375 30.449219 52.777344 31.328125 C 52.203125 31.429688 51.609375 31.5625 51.003906 31.710938 C 50.765625 30.882812 50.503906 30.089844 50.207031 29.363281 L 47.738281 30.371094 C 48 31.007812 48.230469 31.71875 48.445312 32.460938 C 47.214844 32.882812 45.945312 33.398438 44.667969 33.984375 C 43.390625 33.398438 42.125 32.882812 40.894531 32.464844 C 41.957031 28.8125 43.46875 26.714844 44.667969 26.714844 C 45.3125 26.714844 45.921875 27.3125 46.320312 27.8125 L 48.40625 26.152344 C 47.019531 24.410156 45.605469 24.046875 44.667969 24.046875 C 41.757812 24.046875 39.632812 27.261719 38.347656 31.714844 C 37.738281 31.5625 37.136719 31.429688 36.558594 31.328125 C 31.402344 30.453125 29.339844 31.953125 28.519531 33.367188 C 27.703125 34.785156 27.429688 37.316406 30.773438 41.347656 C 31.144531 41.792969 31.554688 42.242188 31.988281 42.6875 C 31.574219 43.117188 31.179688 43.546875 30.820312 43.976562 L 32.867188 45.683594 C 33.1875 45.300781 33.542969 44.914062 33.914062 44.53125 C 34.898438 45.390625 35.984375 46.234375 37.136719 47.050781 C 37.269531 48.429688 37.460938 49.785156 37.71875 51.074219 C 37.167969 51.210938 36.628906 51.332031 36.109375 51.421875 C 32.859375 51.976562 31.25 51.402344 30.832031 50.679688 C 30.4375 49.996094 30.847656 48.894531 31.128906 48.296875 L 28.714844 47.164062 C 27.605469 49.523438 27.996094 51.105469 28.519531 52.011719 C 29.167969 53.132812 30.597656 54.3125 33.734375 54.3125 C 34.554688 54.3125 35.488281 54.234375 36.558594 54.050781 C 37.136719 53.953125 37.738281 53.816406 38.347656 53.664062 C 39.632812 58.117188 41.757812 61.332031 44.667969 61.332031 C 47.574219 61.332031 49.703125 58.117188 50.984375 53.664062 C 51.839844 53.875 52.671875 54.046875 53.460938 54.15625 L 53.820312 51.511719 C 53.125 51.417969 52.382812 51.265625 51.617188 51.070312 C 51.875 49.78125 52.0625 48.429688 52.195312 47.050781 C 53.347656 46.234375 54.433594 45.390625 55.417969 44.53125 C 55.804688 44.933594 56.175781 45.335938 56.507812 45.734375 C 58.617188 48.277344 58.921875 49.957031 58.503906 50.679688 C 58.171875 51.246094 57.320312 51.480469 56.660156 51.570312 L 57.035156 54.210938 C 59.289062 53.894531 60.332031 52.839844 60.8125 52.011719 C 61.628906 50.597656 61.902344 48.0625 58.558594 44.035156 C 58.1875 43.585938 57.777344 43.136719 57.34375 42.691406 Z M 18.667969 57.332031 L 21.332031 57.332031 L 21.332031 54.667969 L 18.667969 54.667969 Z M 9.332031 42.667969 L 12 42.667969 L 12 40 L 9.332031 40 Z M 13.332031 26.667969 L 16 26.667969 L 16 24 L 13.332031 24 Z M 28 8 L 30.667969 8 L 30.667969 5.332031 L 28 5.332031 Z M 5.332031 8 L 8 8 L 8 5.332031 L 5.332031 5.332031 Z M 14.667969 38.667969 C 14.667969 37.929688 14.070312 37.332031 13.332031 37.332031 L 12.28125 37.332031 L 15.503906 29.332031 L 17.332031 29.332031 C 18.070312 29.332031 18.667969 28.738281 18.667969 28 L 18.667969 23.007812 L 29.230469 10.667969 L 32 10.667969 C 32.738281 10.667969 33.332031 10.070312 33.332031 9.332031 L 33.332031 4 C 33.332031 3.265625 32.738281 2.667969 32 2.667969 L 26.667969 2.667969 C 25.929688 2.667969 25.332031 3.265625 25.332031 4 L 25.332031 9.332031 C 25.332031 9.792969 25.582031 10.179688 25.933594 10.417969 L 16.589844 21.332031 L 13.03125 21.332031 L 8.871094 10.667969 L 9.332031 10.667969 C 10.070312 10.667969 10.667969 10.070312 10.667969 9.332031 L 10.667969 4 C 10.667969 3.265625 10.070312 2.667969 9.332031 2.667969 L 4 2.667969 C 3.261719 2.667969 2.667969 3.265625 2.667969 4 L 2.667969 9.332031 C 2.667969 10.070312 3.261719 10.667969 4 10.667969 L 6.011719 10.667969 L 10.675781 22.628906 C 10.675781 22.644531 10.667969 22.652344 10.667969 22.667969 L 10.667969 28 C 10.667969 28.738281 11.261719 29.332031 12 29.332031 L 12.628906 29.332031 L 9.40625 37.332031 L 8 37.332031 C 7.261719 37.332031 6.667969 37.929688 6.667969 38.667969 L 6.667969 44 C 6.667969 44.738281 7.261719 45.332031 8 45.332031 L 10.699219 45.332031 L 16.011719 53.277344 C 16.011719 53.296875 16 53.316406 16 53.332031 L 16 58.667969 C 16 59.402344 16.597656 60 17.332031 60 L 22.667969 60 C 23.402344 60 24 59.402344 24 58.667969 L 24 53.332031 C 24 52.597656 23.402344 52 22.667969 52 L 18.367188 52 L 13.835938 45.230469 C 14.324219 45.035156 14.667969 44.558594 14.667969 44 L 14.667969 42.667969 L 26.667969 42.667969 L 26.667969 40 L 14.667969 40 Z M 48 8 L 50.667969 8 L 50.667969 5.332031 L 48 5.332031 Z M 47.339844 21.664062 L 50.359375 10.667969 L 52 10.667969 C 52.738281 10.667969 53.332031 10.070312 53.332031 9.332031 L 53.332031 4 C 53.332031 3.265625 52.738281 2.667969 52 2.667969 L 46.667969 2.667969 C 45.929688 2.667969 45.332031 3.265625 45.332031 4 L 45.332031 9.332031 C 45.332031 10.070312 45.929688 10.667969 46.667969 10.667969 L 47.59375 10.667969 L 44.769531 20.957031 Z M 47.339844 21.664062 "/>
</svg>
