<?xml version="1.0" encoding="UTF-8"?>
<svg xmlns="http://www.w3.org/2000/svg" xmlns:xlink="http://www.w3.org/1999/xlink" width="64" height="64" viewBox="0 0 64 64">
<path fill-rule="evenodd" fill="rgb(92.941177%, 44.313726%, 0%)" fill-opacity="1" d="M 25.625 34.09375 C 24.316406 34.390625 22.875 34.566406 21.332031 34.632812 L 21.332031 44 L 18.667969 44 L 18.667969 34.621094 C 13.648438 34.402344 9.734375 32.953125 7.058594 30.277344 C 3.980469 27.199219 2.667969 24.125 2.667969 20 L 2.667969 5.332031 L 5.332031 5.332031 L 5.332031 20 C 5.332031 23.441406 6.34375 25.792969 8.941406 28.390625 C 11.113281 30.5625 14.390625 31.753906 18.667969 31.957031 L 18.667969 5.332031 L 21.332031 5.332031 L 21.332031 31.96875 C 22.671875 31.90625 23.914062 31.746094 25.042969 31.492188 Z M 36.132812 25.894531 L 33.714844 24.769531 C 34.367188 23.375 34.667969 21.859375 34.667969 20 L 34.667969 5.332031 L 37.332031 5.332031 L 37.332031 20 C 37.332031 22.230469 36.941406 24.160156 36.132812 25.894531 Z M 52.394531 39.132812 C 52.765625 39.429688 53.121094 39.722656 53.46875 40.023438 C 53.121094 40.320312 52.765625 40.617188 52.394531 40.910156 C 52.402344 40.613281 52.410156 40.316406 52.410156 40.023438 C 52.410156 39.722656 52.398438 39.429688 52.394531 39.132812 Z M 49.058594 47.632812 C 48.636719 47.484375 48.207031 47.324219 47.773438 47.152344 C 48.03125 47.011719 48.285156 46.878906 48.539062 46.730469 C 48.792969 46.582031 49.042969 46.429688 49.292969 46.277344 C 49.222656 46.742188 49.144531 47.195312 49.058594 47.632812 Z M 44.667969 56 C 43.46875 56 41.957031 53.902344 40.894531 50.25 C 42.125 49.832031 43.390625 49.316406 44.664062 48.730469 C 45.945312 49.320312 47.210938 49.824219 48.4375 50.246094 C 47.378906 53.898438 45.867188 56 44.667969 56 Z M 40.042969 46.277344 C 40.292969 46.429688 40.539062 46.582031 40.792969 46.730469 C 41.054688 46.878906 41.3125 47.015625 41.574219 47.160156 C 41.136719 47.332031 40.703125 47.492188 40.273438 47.640625 C 40.191406 47.203125 40.113281 46.746094 40.042969 46.277344 Z M 35.867188 40.023438 C 36.210938 39.726562 36.566406 39.429688 36.9375 39.132812 C 36.933594 39.429688 36.921875 39.726562 36.921875 40.023438 C 36.921875 40.316406 36.933594 40.613281 36.9375 40.910156 C 36.566406 40.617188 36.210938 40.320312 35.867188 40.023438 Z M 30.832031 32.035156 C 31.25 31.3125 32.863281 30.738281 36.109375 31.289062 C 36.628906 31.378906 37.167969 31.5 37.71875 31.636719 C 37.460938 32.929688 37.269531 34.285156 37.136719 35.664062 C 35.988281 36.480469 34.898438 37.324219 33.914062 38.179688 C 33.527344 37.78125 33.15625 37.378906 32.824219 36.976562 C 30.71875 34.4375 30.414062 32.757812 30.832031 32.035156 Z M 41.570312 32.886719 C 41.3125 33.03125 41.050781 33.167969 40.792969 33.316406 C 40.539062 33.460938 40.292969 33.617188 40.042969 33.769531 C 40.113281 33.296875 40.191406 32.84375 40.273438 32.402344 C 40.703125 32.554688 41.132812 32.714844 41.570312 32.886719 Z M 49.746094 40.023438 C 49.746094 41.023438 49.707031 41.976562 49.648438 42.898438 C 48.863281 43.421875 48.050781 43.933594 47.207031 44.421875 C 46.363281 44.90625 45.515625 45.355469 44.671875 45.773438 C 43.824219 45.351562 42.972656 44.90625 42.128906 44.421875 C 41.28125 43.933594 40.472656 43.421875 39.6875 42.898438 C 39.628906 41.976562 39.589844 41.023438 39.589844 40.023438 C 39.589844 39.019531 39.628906 38.066406 39.6875 37.144531 C 40.472656 36.621094 41.28125 36.113281 42.128906 35.625 C 42.976562 35.136719 43.820312 34.6875 44.667969 34.269531 C 45.511719 34.6875 46.359375 35.136719 47.207031 35.625 C 48.050781 36.113281 48.863281 36.621094 49.648438 37.144531 C 49.707031 38.089844 49.746094 39.046875 49.746094 40.023438 Z M 49.058594 32.402344 C 49.144531 32.847656 49.222656 33.300781 49.289062 33.765625 C 49.039062 33.617188 48.792969 33.460938 48.539062 33.316406 C 48.28125 33.167969 48.019531 33.03125 47.761719 32.886719 C 48.199219 32.714844 48.628906 32.554688 49.058594 32.402344 Z M 53.226562 31.289062 C 56.476562 30.738281 58.085938 31.3125 58.503906 32.035156 C 58.921875 32.757812 58.617188 34.4375 56.507812 36.976562 C 56.175781 37.378906 55.804688 37.78125 55.417969 38.183594 C 54.4375 37.324219 53.355469 36.484375 52.207031 35.671875 C 52.078125 34.261719 51.882812 32.910156 51.632812 31.632812 C 52.175781 31.5 52.710938 31.378906 53.226562 31.289062 Z M 57.34375 40.023438 C 57.777344 39.574219 58.1875 39.125 58.558594 38.679688 C 61.902344 34.652344 61.628906 32.117188 60.8125 30.703125 C 59.996094 29.285156 57.9375 27.78125 52.777344 28.664062 C 52.203125 28.761719 51.609375 28.894531 51.003906 29.042969 C 50.765625 28.214844 50.503906 27.425781 50.210938 26.699219 L 47.738281 27.703125 C 48 28.34375 48.230469 29.050781 48.445312 29.792969 C 47.214844 30.214844 45.945312 30.730469 44.667969 31.316406 C 43.390625 30.730469 42.125 30.214844 40.894531 29.796875 C 41.957031 26.144531 43.46875 24.046875 44.667969 24.046875 C 45.3125 24.046875 45.921875 24.644531 46.320312 25.148438 L 48.40625 23.484375 C 47.019531 21.742188 45.605469 21.378906 44.667969 21.378906 C 41.761719 21.378906 39.632812 24.59375 38.347656 29.046875 C 37.738281 28.898438 37.136719 28.761719 36.558594 28.664062 C 31.402344 27.785156 29.339844 29.285156 28.519531 30.703125 C 27.703125 32.117188 27.433594 34.652344 30.773438 38.679688 C 31.144531 39.125 31.554688 39.574219 31.988281 40.019531 C 31.574219 40.449219 31.179688 40.878906 30.820312 41.308594 L 32.867188 43.015625 C 33.1875 42.632812 33.542969 42.246094 33.914062 41.863281 C 34.898438 42.722656 35.984375 43.566406 37.136719 44.382812 C 37.269531 45.761719 37.460938 47.117188 37.71875 48.40625 C 37.167969 48.542969 36.628906 48.667969 36.109375 48.753906 C 32.859375 49.308594 31.25 48.734375 30.832031 48.011719 C 30.4375 47.328125 30.847656 46.226562 31.128906 45.628906 L 28.714844 44.496094 C 27.605469 46.855469 27.996094 48.4375 28.519531 49.34375 C 29.167969 50.46875 30.597656 51.644531 33.734375 51.644531 C 34.554688 51.644531 35.488281 51.566406 36.558594 51.382812 C 37.136719 51.285156 37.738281 51.148438 38.347656 50.996094 C 39.632812 55.449219 41.761719 58.667969 44.667969 58.667969 C 47.574219 58.667969 49.703125 55.449219 50.984375 50.996094 C 51.839844 51.207031 52.671875 51.378906 53.460938 51.488281 L 53.820312 48.84375 C 53.125 48.753906 52.382812 48.597656 51.617188 48.402344 C 51.875 47.113281 52.0625 45.761719 52.195312 44.382812 C 53.347656 43.566406 54.433594 42.722656 55.417969 41.863281 C 55.804688 42.265625 56.175781 42.667969 56.507812 43.066406 C 58.617188 45.609375 58.921875 47.289062 58.503906 48.011719 C 58.171875 48.582031 57.320312 48.8125 56.660156 48.902344 L 57.035156 51.542969 C 59.289062 51.226562 60.332031 50.171875 60.8125 49.34375 C 61.628906 47.929688 61.902344 45.394531 58.558594 41.367188 C 58.1875 40.917969 57.777344 40.46875 57.34375 40.023438 Z M 57.34375 40.023438 "/>
</svg>
