<?xml version="1.0" encoding="UTF-8"?>
<svg xmlns="http://www.w3.org/2000/svg" xmlns:xlink="http://www.w3.org/1999/xlink" width="64" height="64" viewBox="0 0 64 64">
<path fill-rule="evenodd" fill="rgb(92.941177%, 44.313726%, 0%)" fill-opacity="1" d="M 26.050781 39.296875 L 26.78125 41.863281 C 25.003906 42.371094 23.160156 42.625 21.292969 42.625 C 17.476562 42.625 13.742188 41.507812 10.550781 39.46875 L 10.550781 49.007812 C 10.550781 53.433594 7.914062 61.332031 2.667969 61.332031 L 2.667969 58.667969 C 5.644531 58.667969 7.882812 52.808594 7.882812 49.007812 L 7.882812 2.667969 L 10.550781 2.667969 L 10.550781 5.863281 C 13.742188 3.820312 17.457031 2.707031 21.292969 2.707031 C 32.296875 2.707031 41.253906 11.660156 41.253906 22.667969 C 41.253906 22.886719 41.25 23.105469 41.242188 23.328125 L 38.578125 23.242188 C 38.582031 23.050781 38.585938 22.859375 38.585938 22.667969 C 38.585938 13.128906 30.828125 5.375 21.292969 5.375 C 17.375 5.375 13.597656 6.714844 10.550781 9.136719 L 10.550781 36.207031 C 13.59375 38.625 17.394531 39.960938 21.292969 39.960938 C 22.910156 39.960938 24.511719 39.738281 26.050781 39.296875 M 52.382812 41.78125 C 52.753906 42.078125 53.109375 42.375 53.449219 42.667969 C 53.109375 42.960938 52.753906 43.253906 52.382812 43.550781 C 52.390625 43.257812 52.398438 42.960938 52.398438 42.667969 C 52.398438 42.371094 52.386719 42.078125 52.382812 41.78125 M 49.046875 50.289062 C 48.621094 50.140625 48.1875 49.980469 47.753906 49.808594 C 48.007812 49.667969 48.265625 49.53125 48.523438 49.382812 C 48.777344 49.234375 49.027344 49.078125 49.28125 48.925781 C 49.210938 49.394531 49.132812 49.847656 49.046875 50.289062 M 44.644531 58.667969 C 43.445312 58.667969 41.929688 56.566406 40.867188 52.90625 C 42.097656 52.488281 43.367188 51.96875 44.644531 51.382812 C 45.925781 51.976562 47.191406 52.484375 48.425781 52.902344 C 47.363281 56.5625 45.847656 58.667969 44.644531 58.667969 M 40.011719 48.925781 C 40.265625 49.078125 40.511719 49.234375 40.769531 49.382812 C 41.03125 49.53125 41.292969 49.667969 41.550781 49.816406 C 41.113281 49.988281 40.679688 50.148438 40.246094 50.296875 C 40.164062 49.855469 40.082031 49.398438 40.011719 48.925781 M 35.832031 42.667969 C 36.179688 42.367188 36.539062 42.070312 36.910156 41.773438 C 36.902344 42.070312 36.894531 42.371094 36.894531 42.667969 C 36.894531 42.964844 36.902344 43.261719 36.910156 43.5625 C 36.539062 43.265625 36.179688 42.964844 35.832031 42.667969 M 30.789062 34.667969 C 31.207031 33.941406 32.816406 33.367188 36.078125 33.921875 C 36.597656 34.011719 37.140625 34.132812 37.6875 34.269531 C 37.433594 35.5625 37.242188 36.921875 37.109375 38.300781 C 35.953125 39.121094 34.863281 39.964844 33.878906 40.828125 C 33.492188 40.425781 33.121094 40.019531 32.789062 39.617188 C 30.675781 37.074219 30.371094 35.390625 30.789062 34.667969 M 41.550781 35.519531 C 41.289062 35.664062 41.027344 35.804688 40.769531 35.953125 C 40.511719 36.101562 40.265625 36.257812 40.011719 36.40625 C 40.082031 35.9375 40.164062 35.480469 40.246094 35.035156 C 40.679688 35.1875 41.113281 35.347656 41.550781 35.519531 M 49.734375 42.667969 C 49.734375 43.667969 49.691406 44.621094 49.632812 45.546875 C 48.863281 46.0625 48.058594 46.570312 47.1875 47.070312 C 46.34375 47.558594 45.496094 48.007812 44.652344 48.429688 C 43.800781 48.007812 42.949219 47.558594 42.101562 47.070312 C 41.257812 46.585938 40.445312 46.074219 39.65625 45.550781 C 39.597656 44.625 39.558594 43.667969 39.558594 42.667969 C 39.558594 41.664062 39.597656 40.710938 39.65625 39.785156 C 40.445312 39.261719 41.257812 38.75 42.101562 38.261719 C 42.96875 37.761719 43.816406 37.316406 44.648438 36.90625 C 45.496094 37.324219 46.34375 37.773438 47.1875 38.261719 C 48.058594 38.761719 48.863281 39.273438 49.632812 39.785156 C 49.691406 40.730469 49.734375 41.691406 49.734375 42.667969 M 49.046875 35.046875 C 49.132812 35.492188 49.210938 35.941406 49.277344 36.40625 C 49.023438 36.257812 48.777344 36.097656 48.523438 35.953125 C 48.265625 35.804688 48.007812 35.667969 47.75 35.523438 C 48.191406 35.351562 48.625 35.191406 49.046875 35.046875 M 58.503906 34.667969 C 59.105469 35.710938 58.035156 38.078125 55.390625 40.832031 C 54.398438 39.964844 53.324219 39.125 52.195312 38.324219 C 52.066406 36.910156 51.875 35.558594 51.621094 34.277344 C 55.324219 33.367188 57.902344 33.625 58.503906 34.667969 M 60.8125 33.332031 C 59.355469 30.8125 55.503906 30.578125 51 31.695312 C 50.757812 30.855469 50.492188 30.058594 50.191406 29.324219 L 47.726562 30.332031 C 47.988281 30.976562 48.222656 31.691406 48.4375 32.445312 C 47.1875 32.867188 45.921875 33.382812 44.65625 33.957031 C 43.375 33.367188 42.105469 32.847656 40.867188 32.429688 C 41.929688 28.769531 43.445312 26.667969 44.644531 26.667969 C 45.292969 26.667969 45.902344 27.265625 46.304688 27.769531 L 48.390625 26.109375 C 47.003906 24.367188 45.589844 24 44.644531 24 C 41.734375 24 39.605469 27.222656 38.320312 31.679688 C 37.710938 31.527344 37.105469 31.390625 36.523438 31.292969 C 31.355469 30.410156 29.296875 31.917969 28.480469 33.332031 C 27.664062 34.75 27.390625 37.285156 30.734375 41.320312 C 31.105469 41.769531 31.519531 42.21875 31.953125 42.667969 C 31.539062 43.097656 31.140625 43.527344 30.785156 43.957031 L 32.832031 45.664062 C 33.152344 45.28125 33.507812 44.894531 33.878906 44.507812 C 34.863281 45.371094 35.953125 46.214844 37.109375 47.03125 C 37.242188 48.414062 37.433594 49.773438 37.6875 51.066406 C 37.140625 51.203125 36.597656 51.324219 36.078125 51.410156 C 32.816406 51.96875 31.207031 51.390625 30.789062 50.667969 C 30.394531 49.984375 30.808594 48.878906 31.089844 48.28125 L 28.675781 47.148438 C 27.5625 49.511719 27.957031 51.089844 28.480469 52 C 29.128906 53.125 30.558594 54.304688 33.703125 54.300781 C 34.519531 54.300781 35.457031 54.222656 36.523438 54.042969 C 37.105469 53.941406 37.710938 53.808594 38.320312 53.65625 C 39.605469 58.113281 41.734375 61.332031 44.644531 61.332031 C 47.554688 61.332031 49.6875 58.113281 50.96875 53.65625 C 51.828125 53.867188 52.660156 54.039062 53.457031 54.148438 L 53.8125 51.503906 C 53.113281 51.410156 52.371094 51.253906 51.601562 51.0625 C 51.863281 49.765625 52.050781 48.402344 52.183594 47.019531 C 53.316406 46.214844 54.398438 45.371094 55.390625 44.5 C 58.035156 47.257812 59.105469 49.625 58.503906 50.667969 C 58.171875 51.238281 57.316406 51.46875 56.660156 51.5625 L 57.027344 54.203125 C 59.289062 53.882812 60.332031 52.828125 60.8125 52 C 62.269531 49.476562 60.539062 46.011719 57.308594 42.667969 C 60.539062 39.320312 62.269531 35.859375 60.8125 33.332031 "/>
</svg>
