<?xml version="1.0" encoding="UTF-8"?>
<svg xmlns="http://www.w3.org/2000/svg" xmlns:xlink="http://www.w3.org/1999/xlink" width="64" height="64" viewBox="0 0 64 64">
<path fill-rule="evenodd" fill="rgb(92.941177%, 44.313726%, 0%)" fill-opacity="1" d="M 32 27.691406 C 34.375 27.691406 36.308594 29.625 36.308594 32 C 36.308594 34.375 34.375 36.308594 32 36.308594 C 29.625 36.308594 27.691406 34.375 27.691406 32 C 27.691406 29.625 29.625 27.691406 32 27.691406 Z M 32 38.976562 C 35.84375 38.976562 38.972656 35.84375 38.972656 32 C 38.972656 28.15625 35.84375 25.023438 32 25.023438 C 28.15625 25.023438 25.027344 28.15625 25.027344 32 C 25.027344 35.84375 28.15625 38.976562 32 38.976562 Z M 18.667969 30.277344 L 20.480469 30.277344 C 21.085938 30.277344 21.613281 29.871094 21.769531 29.285156 C 22.007812 28.378906 22.371094 27.507812 22.847656 26.6875 C 23.152344 26.164062 23.066406 25.5 22.636719 25.074219 L 21.355469 23.789062 L 23.789062 21.355469 L 25.074219 22.636719 C 25.503906 23.066406 26.164062 23.152344 26.6875 22.847656 C 27.507812 22.371094 28.378906 22.007812 29.285156 21.769531 C 29.871094 21.613281 30.277344 21.085938 30.277344 20.480469 L 30.277344 18.667969 L 33.722656 18.667969 L 33.722656 20.480469 C 33.722656 21.085938 34.128906 21.613281 34.714844 21.769531 C 35.621094 22.007812 36.492188 22.371094 37.3125 22.847656 C 37.835938 23.152344 38.5 23.066406 38.925781 22.636719 L 40.210938 21.355469 L 42.644531 23.789062 L 41.363281 25.074219 C 40.933594 25.5 40.847656 26.164062 41.152344 26.6875 C 41.628906 27.507812 41.992188 28.378906 42.230469 29.285156 C 42.386719 29.871094 42.914062 30.277344 43.519531 30.277344 L 45.332031 30.277344 L 45.332031 33.722656 L 43.519531 33.722656 C 42.914062 33.722656 42.386719 34.128906 42.230469 34.714844 C 41.992188 35.621094 41.628906 36.492188 41.152344 37.3125 C 40.847656 37.835938 40.933594 38.496094 41.363281 38.925781 L 42.644531 40.210938 L 40.210938 42.644531 L 38.925781 41.363281 C 38.5 40.933594 37.835938 40.847656 37.3125 41.152344 C 36.492188 41.628906 35.621094 41.992188 34.714844 42.230469 C 34.128906 42.386719 33.722656 42.914062 33.722656 43.519531 L 33.722656 45.332031 L 30.277344 45.332031 L 30.277344 43.519531 C 30.277344 42.914062 29.871094 42.386719 29.285156 42.230469 C 28.378906 41.992188 27.507812 41.628906 26.6875 41.152344 C 26.164062 40.847656 25.503906 40.933594 25.074219 41.363281 L 23.789062 42.644531 L 21.355469 40.210938 L 22.636719 38.925781 C 23.066406 38.496094 23.152344 37.835938 22.847656 37.3125 C 22.371094 36.492188 22.007812 35.621094 21.769531 34.714844 C 21.613281 34.128906 21.085938 33.722656 20.480469 33.722656 L 18.667969 33.722656 Z M 17.945312 36.386719 L 19.496094 36.386719 C 19.65625 36.847656 19.84375 37.296875 20.054688 37.738281 L 18.960938 38.832031 C 18.589844 39.203125 18.386719 39.691406 18.386719 40.210938 C 18.386719 40.730469 18.589844 41.21875 18.957031 41.585938 L 22.414062 45.042969 C 23.175781 45.800781 24.40625 45.800781 25.164062 45.042969 L 26.261719 43.941406 C 26.703125 44.15625 27.152344 44.339844 27.609375 44.503906 L 27.609375 46.054688 C 27.609375 47.128906 28.484375 48 29.554688 48 L 34.445312 48 C 35.515625 48 36.390625 47.128906 36.390625 46.054688 L 36.390625 44.503906 C 36.847656 44.339844 37.296875 44.15625 37.738281 43.941406 L 38.835938 45.042969 C 39.59375 45.800781 40.828125 45.800781 41.585938 45.042969 L 45.039062 41.585938 C 45.410156 41.21875 45.613281 40.730469 45.613281 40.210938 C 45.613281 39.691406 45.410156 39.203125 45.042969 38.835938 L 43.945312 37.738281 C 44.15625 37.296875 44.34375 36.847656 44.503906 36.386719 L 46.054688 36.386719 C 47.128906 36.386719 48 35.515625 48 34.445312 L 48 29.554688 C 48 28.484375 47.128906 27.609375 46.054688 27.609375 L 44.503906 27.609375 C 44.34375 27.152344 44.15625 26.703125 43.945312 26.261719 L 45.039062 25.164062 C 45.410156 24.796875 45.613281 24.308594 45.613281 23.789062 C 45.613281 23.269531 45.410156 22.78125 45.042969 22.414062 L 41.585938 18.957031 C 40.828125 18.199219 39.59375 18.203125 38.835938 18.957031 L 37.738281 20.054688 C 37.296875 19.84375 36.847656 19.660156 36.390625 19.496094 L 36.390625 17.945312 C 36.390625 16.871094 35.515625 16 34.445312 16 L 29.554688 16 C 28.484375 16 27.609375 16.871094 27.609375 17.945312 L 27.609375 19.496094 C 27.152344 19.660156 26.703125 19.84375 26.261719 20.054688 L 25.164062 18.957031 C 24.40625 18.203125 23.175781 18.199219 22.414062 18.957031 L 18.960938 22.414062 C 18.589844 22.78125 18.386719 23.269531 18.386719 23.789062 C 18.386719 24.308594 18.589844 24.796875 18.957031 25.164062 L 20.054688 26.261719 C 19.84375 26.703125 19.65625 27.152344 19.496094 27.609375 L 17.945312 27.609375 C 16.871094 27.609375 16 28.484375 16 29.554688 L 16 34.445312 C 16 35.515625 16.871094 36.386719 17.945312 36.386719 Z M 12 52 L 52 52 L 52 12 L 12 12 Z M 61.332031 17.332031 L 61.332031 14.667969 L 54.667969 14.667969 L 54.667969 10.667969 C 54.667969 9.929688 54.070312 9.332031 53.332031 9.332031 L 49.332031 9.332031 L 49.332031 2.667969 L 46.667969 2.667969 L 46.667969 9.332031 L 41.332031 9.332031 L 41.332031 2.667969 L 38.667969 2.667969 L 38.667969 9.332031 L 33.332031 9.332031 L 33.332031 2.667969 L 30.667969 2.667969 L 30.667969 9.332031 L 25.332031 9.332031 L 25.332031 2.667969 L 22.667969 2.667969 L 22.667969 9.332031 L 17.332031 9.332031 L 17.332031 2.667969 L 14.667969 2.667969 L 14.667969 9.332031 L 10.667969 9.332031 C 9.929688 9.332031 9.332031 9.929688 9.332031 10.667969 L 9.332031 14.667969 L 2.667969 14.667969 L 2.667969 17.332031 L 9.332031 17.332031 L 9.332031 22.667969 L 2.667969 22.667969 L 2.667969 25.332031 L 9.332031 25.332031 L 9.332031 30.667969 L 2.667969 30.667969 L 2.667969 33.332031 L 9.332031 33.332031 L 9.332031 38.667969 L 2.667969 38.667969 L 2.667969 41.332031 L 9.332031 41.332031 L 9.332031 46.667969 L 2.667969 46.667969 L 2.667969 49.332031 L 9.332031 49.332031 L 9.332031 53.332031 C 9.332031 54.070312 9.929688 54.667969 10.667969 54.667969 L 14.667969 54.667969 L 14.667969 61.332031 L 17.332031 61.332031 L 17.332031 54.667969 L 22.667969 54.667969 L 22.667969 61.332031 L 25.332031 61.332031 L 25.332031 54.667969 L 30.667969 54.667969 L 30.667969 61.332031 L 33.332031 61.332031 L 33.332031 54.667969 L 38.667969 54.667969 L 38.667969 61.332031 L 41.332031 61.332031 L 41.332031 54.667969 L 46.667969 54.667969 L 46.667969 61.332031 L 49.332031 61.332031 L 49.332031 54.667969 L 53.332031 54.667969 C 54.070312 54.667969 54.667969 54.070312 54.667969 53.332031 L 54.667969 49.332031 L 61.332031 49.332031 L 61.332031 46.667969 L 54.667969 46.667969 L 54.667969 41.332031 L 61.332031 41.332031 L 61.332031 38.667969 L 54.667969 38.667969 L 54.667969 33.332031 L 61.332031 33.332031 L 61.332031 30.667969 L 54.667969 30.667969 L 54.667969 25.332031 L 61.332031 25.332031 L 61.332031 22.667969 L 54.667969 22.667969 L 54.667969 17.332031 Z M 61.332031 17.332031 "/>
</svg>
