<?xml version="1.0" encoding="UTF-8"?>
<svg xmlns="http://www.w3.org/2000/svg" xmlns:xlink="http://www.w3.org/1999/xlink" width="64" height="64" viewBox="0 0 64 64">
<path fill-rule="evenodd" fill="rgb(92.941177%, 44.313726%, 0%)" fill-opacity="1" d="M 29.332031 58.667969 L 34.667969 58.667969 L 34.667969 54.667969 L 29.332031 54.667969 Z M 37.332031 53.332031 L 37.332031 60 C 37.332031 60.734375 36.738281 61.332031 36 61.332031 L 28 61.332031 C 27.261719 61.332031 26.667969 60.734375 26.667969 60 L 26.667969 53.332031 C 26.667969 52.597656 27.261719 52 28 52 L 36 52 C 36.738281 52 37.332031 52.597656 37.332031 53.332031 Z M 14.667969 2.667969 L 12 2.667969 L 12 9.332031 C 12 10.070312 12.597656 10.667969 13.332031 10.667969 L 17.332031 10.667969 L 17.332031 8 L 14.667969 8 Z M 49.332031 2.667969 L 49.332031 8 L 46.667969 8 L 46.667969 10.667969 L 50.667969 10.667969 C 51.402344 10.667969 52 10.070312 52 9.332031 L 52 2.667969 Z M 18.667969 41.332031 L 45.332031 41.332031 L 45.332031 38.667969 L 18.667969 38.667969 Z M 18.667969 21.332031 L 45.332031 21.332031 L 45.332031 18.667969 L 18.667969 18.667969 Z M 40 36 L 42.667969 36 L 42.667969 24 L 40 24 Z M 34.667969 36 L 37.332031 36 L 37.332031 24 L 34.667969 24 Z M 26.667969 36 L 29.332031 36 L 29.332031 24 L 26.667969 24 Z M 21.332031 36 L 24 36 L 24 24 L 21.332031 24 Z M 42.667969 16 L 42.667969 4 L 40 4 L 40 17.332031 L 42.667969 17.332031 Z M 34.667969 17.332031 L 37.332031 17.332031 L 37.332031 4 L 34.667969 4 Z M 33.332031 49.332031 L 36 49.332031 L 36 42.667969 L 33.332031 42.667969 Z M 28 49.332031 L 30.667969 49.332031 L 30.667969 42.667969 L 28 42.667969 Z M 26.667969 17.332031 L 29.332031 17.332031 L 29.332031 4 L 26.667969 4 Z M 24 17.332031 L 21.332031 17.332031 L 21.332031 4 L 24 4 Z M 24 17.332031 "/>
</svg>
