<?xml version="1.0" encoding="UTF-8"?>
<svg xmlns="http://www.w3.org/2000/svg" xmlns:xlink="http://www.w3.org/1999/xlink" width="64" height="64" viewBox="0 0 64 64">
<path fill-rule="evenodd" fill="rgb(92.941177%, 44.313726%, 0%)" fill-opacity="1" d="M 52.597656 43.089844 C 52.597656 43.359375 52.585938 43.628906 52.582031 43.898438 C 52.917969 43.628906 53.238281 43.363281 53.554688 43.089844 C 53.238281 42.820312 52.917969 42.550781 52.582031 42.28125 C 52.585938 42.550781 52.597656 42.820312 52.597656 43.089844 Z M 49.480469 49.261719 C 49.253906 49.398438 49.027344 49.539062 48.792969 49.675781 C 48.5625 49.808594 48.332031 49.929688 48.101562 50.058594 C 48.496094 50.214844 48.882812 50.355469 49.269531 50.492188 C 49.347656 50.09375 49.417969 49.683594 49.480469 49.261719 Z M 48.652344 53.105469 C 47.457031 52.699219 46.234375 52.207031 44.992188 51.636719 C 43.757812 52.203125 42.53125 52.703125 41.339844 53.109375 C 42.371094 56.652344 43.832031 58.683594 44.996094 58.683594 C 46.15625 58.683594 47.621094 56.648438 48.652344 53.105469 Z M 40.722656 50.5 C 41.109375 50.367188 41.503906 50.222656 41.902344 50.066406 C 41.664062 49.933594 41.429688 49.8125 41.191406 49.675781 C 40.960938 49.539062 40.734375 49.398438 40.507812 49.261719 C 40.570312 49.6875 40.644531 50.101562 40.722656 50.5 Z M 37.40625 43.898438 C 37.402344 43.628906 37.390625 43.359375 37.390625 43.089844 C 37.390625 42.820312 37.402344 42.550781 37.40625 42.28125 C 37.070312 42.550781 36.75 42.820312 36.433594 43.089844 C 36.75 43.363281 37.070312 43.628906 37.40625 43.898438 Z M 33.4375 40.09375 C 33.757812 40.480469 34.113281 40.863281 34.484375 41.25 C 35.4375 40.417969 36.488281 39.601562 37.605469 38.8125 C 37.734375 37.476562 37.914062 36.164062 38.164062 34.910156 C 37.636719 34.78125 37.121094 34.667969 36.621094 34.582031 C 33.457031 34.042969 31.894531 34.59375 31.492188 35.292969 C 31.085938 35.992188 31.386719 37.621094 33.4375 40.09375 Z M 40.722656 35.679688 C 40.644531 36.082031 40.570312 36.492188 40.507812 36.917969 C 40.734375 36.78125 40.960938 36.640625 41.191406 36.507812 C 41.429688 36.371094 41.664062 36.246094 41.902344 36.117188 C 41.503906 35.957031 41.109375 35.816406 40.722656 35.679688 Z M 49.835938 40.292969 C 49.070312 39.785156 48.285156 39.289062 47.460938 38.816406 C 46.640625 38.339844 45.816406 37.90625 44.996094 37.496094 C 44.171875 37.90625 43.347656 38.339844 42.527344 38.816406 C 41.707031 39.289062 40.914062 39.785156 40.152344 40.292969 C 40.097656 41.191406 40.058594 42.117188 40.058594 43.089844 C 40.058594 44.0625 40.097656 44.988281 40.152344 45.886719 C 40.914062 46.394531 41.707031 46.890625 42.527344 47.367188 C 43.347656 47.839844 44.175781 48.273438 45 48.679688 C 45.820312 48.273438 46.640625 47.839844 47.460938 47.367188 C 48.285156 46.890625 49.070312 46.394531 49.835938 45.886719 C 49.894531 44.988281 49.929688 44.0625 49.929688 43.089844 C 49.929688 42.144531 49.894531 41.210938 49.835938 40.292969 Z M 48.089844 36.117188 C 48.324219 36.246094 48.5625 36.371094 48.792969 36.507812 C 49.027344 36.640625 49.25 36.78125 49.476562 36.917969 C 49.414062 36.496094 49.34375 36.085938 49.265625 35.679688 C 48.878906 35.816406 48.484375 35.957031 48.089844 36.117188 Z M 51.839844 34.90625 C 52.082031 36.148438 52.269531 37.457031 52.398438 38.820312 C 53.507812 39.609375 54.554688 40.421875 55.503906 41.25 C 55.878906 40.863281 56.230469 40.480469 56.550781 40.09375 C 58.601562 37.621094 58.902344 35.992188 58.5 35.292969 C 58.097656 34.597656 56.535156 34.042969 53.367188 34.582031 C 52.875 34.664062 52.359375 34.78125 51.839844 34.90625 Z M 58.601562 44.386719 C 61.882812 48.339844 61.613281 50.828125 60.808594 52.21875 C 60.339844 53.035156 59.3125 54.074219 57.089844 54.386719 L 56.722656 51.746094 C 57.355469 51.65625 58.183594 51.433594 58.5 50.886719 C 58.902344 50.1875 58.601562 48.5625 56.550781 46.089844 C 56.230469 45.703125 55.878906 45.316406 55.503906 44.929688 C 54.550781 45.761719 53.5 46.578125 52.382812 47.371094 C 52.253906 48.703125 52.070312 50.015625 51.824219 51.265625 C 52.5625 51.449219 53.28125 51.597656 53.953125 51.6875 L 53.59375 54.332031 C 52.824219 54.226562 52.015625 54.0625 51.191406 53.855469 C 49.933594 58.210938 47.84375 61.351562 44.996094 61.351562 C 42.144531 61.351562 40.058594 58.210938 38.796875 53.859375 C 38.207031 54.003906 37.628906 54.132812 37.070312 54.230469 C 36.023438 54.40625 35.109375 54.484375 34.308594 54.484375 C 31.222656 54.484375 29.820312 53.324219 29.179688 52.21875 C 28.664062 51.324219 28.277344 49.769531 29.367188 47.449219 L 31.78125 48.585938 C 31.511719 49.164062 31.113281 50.230469 31.492188 50.886719 C 31.894531 51.585938 33.449219 52.136719 36.621094 51.601562 C 37.121094 51.515625 37.636719 51.398438 38.164062 51.269531 C 37.914062 50.015625 37.734375 48.703125 37.605469 47.371094 C 36.488281 46.578125 35.4375 45.761719 34.484375 44.929688 C 34.125 45.300781 33.789062 45.671875 33.480469 46.039062 L 31.433594 44.328125 C 31.777344 43.914062 32.15625 43.503906 32.554688 43.089844 C 32.140625 42.65625 31.742188 42.226562 31.386719 41.796875 C 28.105469 37.84375 28.378906 35.351562 29.179688 33.960938 C 29.984375 32.566406 32.003906 31.089844 37.070312 31.953125 C 37.628906 32.046875 38.207031 32.175781 38.796875 32.324219 C 40.058594 27.972656 42.144531 24.832031 44.996094 24.832031 C 45.921875 24.832031 47.3125 25.1875 48.675781 26.898438 L 46.589844 28.5625 C 46.203125 28.074219 45.613281 27.496094 44.996094 27.496094 C 43.832031 27.496094 42.371094 29.53125 41.339844 33.070312 C 42.53125 33.480469 43.757812 33.980469 44.996094 34.546875 C 46.234375 33.976562 47.460938 33.476562 48.652344 33.070312 C 48.449219 32.351562 48.222656 31.671875 47.972656 31.054688 L 50.441406 30.046875 C 50.726562 30.753906 50.980469 31.515625 51.214844 32.316406 C 51.792969 32.175781 52.367188 32.046875 52.917969 31.953125 C 57.984375 31.085938 60.003906 32.566406 60.808594 33.960938 C 61.613281 35.351562 61.882812 37.84375 58.601562 41.796875 C 58.242188 42.226562 57.847656 42.660156 57.433594 43.089844 C 57.847656 43.523438 58.242188 43.953125 58.601562 44.386719 Z M 18.667969 18.667969 L 42.667969 18.667969 L 42.667969 20 L 45.332031 20 L 45.332031 17.332031 C 45.332031 16.597656 44.734375 16 44 16 L 17.332031 16 C 16.597656 16 16 16.597656 16 17.332031 L 16 44 C 16 44.734375 16.597656 45.332031 17.332031 45.332031 L 25.332031 45.332031 L 25.332031 42.667969 L 18.667969 42.667969 Z M 12 49.332031 L 25.332031 49.332031 L 25.332031 52 L 24 52 L 24 58.667969 L 21.332031 58.667969 L 21.332031 52 L 17.332031 52 L 17.332031 58.667969 L 14.667969 58.667969 L 14.667969 52 L 10.667969 52 C 9.929688 52 9.332031 51.402344 9.332031 50.667969 L 9.332031 46.667969 L 2.667969 46.667969 L 2.667969 44 L 9.332031 44 L 9.332031 40 L 2.667969 40 L 2.667969 37.332031 L 9.332031 37.332031 L 9.332031 32 L 2.667969 32 L 2.667969 29.332031 L 9.332031 29.332031 L 9.332031 24 L 2.667969 24 L 2.667969 21.332031 L 9.332031 21.332031 L 9.332031 16 L 2.667969 16 L 2.667969 13.332031 L 9.332031 13.332031 L 9.332031 10.667969 C 9.332031 9.929688 9.929688 9.332031 10.667969 9.332031 L 14.667969 9.332031 L 14.667969 2.667969 L 17.332031 2.667969 L 17.332031 9.332031 L 21.332031 9.332031 L 21.332031 2.667969 L 24 2.667969 L 24 9.332031 L 29.332031 9.332031 L 29.332031 2.667969 L 32 2.667969 L 32 9.332031 L 37.332031 9.332031 L 37.332031 2.667969 L 40 2.667969 L 40 9.332031 L 44 9.332031 L 44 2.667969 L 46.667969 2.667969 L 46.667969 9.332031 L 50.667969 9.332031 C 51.402344 9.332031 52 9.929688 52 10.667969 L 52 13.332031 L 58.667969 13.332031 L 58.667969 16 L 52 16 L 52 21.332031 L 58.667969 21.332031 L 58.667969 24 L 49.332031 24 L 49.332031 12 L 12 12 Z M 12 49.332031 "/>
</svg>
