<?xml version="1.0" encoding="UTF-8"?>
<svg xmlns="http://www.w3.org/2000/svg" xmlns:xlink="http://www.w3.org/1999/xlink" width="64" height="64" viewBox="0 0 64 64">
<path fill-rule="evenodd" fill="rgb(92.941177%, 44.313726%, 0%)" fill-opacity="1" d="M 44.175781 5.441406 C 43.894531 5.367188 43.613281 5.335938 43.335938 5.335938 C 41.855469 5.335938 40.5 6.328125 40.109375 7.828125 C 39.648438 9.605469 40.714844 11.425781 42.492188 11.890625 C 44.273438 12.359375 46.09375 11.285156 46.558594 9.507812 C 47.019531 7.730469 45.953125 5.90625 44.175781 5.441406 Z M 29.507812 13.441406 C 29.226562 13.367188 28.945312 13.335938 28.667969 13.335938 C 27.1875 13.335938 25.832031 14.328125 25.441406 15.828125 C 24.980469 17.605469 26.046875 19.425781 27.824219 19.890625 C 29.609375 20.355469 31.425781 19.285156 31.890625 17.507812 C 32.355469 15.730469 31.285156 13.90625 29.507812 13.441406 Z M 21.332031 27.332031 C 21.332031 25.496094 19.839844 24 18 24 C 16.160156 24 14.667969 25.496094 14.667969 27.332031 C 14.667969 29.171875 16.160156 30.667969 18 30.667969 C 19.839844 30.667969 21.332031 29.171875 21.332031 27.332031 Z M 16 21.332031 L 16 21.703125 C 16.628906 21.476562 17.296875 21.332031 18 21.332031 C 18.96875 21.332031 19.871094 21.585938 20.683594 21.996094 C 20.964844 21.707031 21.242188 21.417969 21.53125 21.132812 C 22.132812 20.527344 22.742188 19.964844 23.351562 19.386719 C 22.703125 18.121094 22.476562 16.632812 22.863281 15.15625 C 22.90625 14.980469 22.984375 14.832031 23.042969 14.667969 L 16 14.667969 Z M 12 42 C 12 40.164062 10.503906 38.667969 8.667969 38.667969 C 6.828125 38.667969 5.332031 40.164062 5.332031 42 C 5.332031 43.839844 6.828125 45.332031 8.667969 45.332031 C 10.503906 45.332031 12 43.839844 12 42 Z M 61.476562 10.710938 L 58.828125 11.039062 C 58.652344 9.601562 58.144531 8.453125 57.324219 7.632812 C 55.707031 6.015625 52.746094 5.65625 48.933594 6.558594 C 49.359375 7.679688 49.460938 8.933594 49.136719 10.179688 C 48.433594 12.875 45.996094 14.667969 43.332031 14.667969 C 42.832031 14.667969 42.324219 14.605469 41.820312 14.472656 C 40.101562 14.023438 38.769531 12.859375 38.015625 11.386719 C 37.789062 11.527344 37.5625 11.660156 37.332031 11.804688 L 37.332031 12 L 37.011719 12 C 36.015625 12.628906 35.015625 13.300781 34.015625 14.015625 C 34.636719 15.265625 34.851562 16.726562 34.472656 18.179688 C 33.769531 20.875 31.328125 22.667969 28.664062 22.667969 C 28.164062 22.667969 27.660156 22.605469 27.152344 22.472656 C 26.371094 22.269531 25.664062 21.910156 25.050781 21.449219 C 24.507812 21.96875 23.957031 22.476562 23.414062 23.019531 C 23.1875 23.246094 22.96875 23.472656 22.746094 23.703125 C 23.519531 24.714844 24 25.964844 24 27.332031 C 24 30.640625 21.308594 33.332031 18 33.332031 C 16.96875 33.332031 16.011719 33.046875 15.160156 32.585938 C 14.050781 34.089844 13.015625 35.601562 12.09375 37.085938 C 13.644531 38.171875 14.667969 39.964844 14.667969 42 C 14.667969 45.308594 11.976562 48 8.667969 48 C 8.136719 48 7.628906 47.910156 7.136719 47.777344 C 5.988281 51.972656 6.289062 55.183594 8.03125 56.925781 C 8.957031 57.851562 10.300781 58.378906 12.015625 58.480469 L 11.851562 61.144531 C 9.464844 61 7.546875 60.214844 6.148438 58.8125 C 3.578125 56.242188 3.121094 52 4.75 46.507812 C 3.484375 45.40625 2.667969 43.804688 2.667969 42 C 2.667969 38.691406 5.359375 36 8.667969 36 C 9.1875 36 9.683594 36.085938 10.167969 36.214844 L 9.675781 35.910156 C 10.707031 34.230469 11.882812 32.523438 13.144531 30.828125 C 13.101562 30.773438 13.054688 30.722656 13.015625 30.667969 L 8 30.667969 L 8 28 L 12.066406 28 C 12.042969 27.777344 12 27.5625 12 27.332031 C 12 26.101562 12.375 24.953125 13.015625 24 L 8 24 L 8 21.332031 L 13.332031 21.332031 L 13.332031 17.332031 L 8 17.332031 L 8 14.667969 L 13.332031 14.667969 L 13.332031 13.332031 C 13.332031 12.597656 13.929688 12 14.667969 12 L 14.667969 6.667969 L 17.332031 6.667969 L 17.332031 12 L 21.332031 12 L 21.332031 6.667969 L 24 6.667969 L 24 12 L 24.933594 12 C 25.8125 11.300781 26.871094 10.851562 28 10.722656 L 28 6.667969 L 30.667969 6.667969 L 30.667969 11.042969 C 31.277344 11.261719 31.851562 11.546875 32.34375 11.929688 C 33.117188 11.378906 33.894531 10.84375 34.667969 10.335938 L 34.667969 6.667969 L 37.332031 6.667969 L 37.332031 8.683594 C 37.339844 8.679688 37.347656 8.671875 37.355469 8.667969 C 37.355469 8.167969 37.394531 7.664062 37.53125 7.15625 C 38.363281 3.953125 41.648438 2.027344 44.847656 2.859375 C 45.804688 3.109375 46.628906 3.597656 47.316406 4.21875 C 52.605469 2.738281 56.71875 3.257812 59.210938 5.746094 C 60.460938 7 61.222656 8.667969 61.476562 10.710938 Z M 53.332031 13.332031 L 50.667969 13.332031 L 50.667969 49.332031 L 16 49.332031 L 16 48 L 13.332031 48 L 13.332031 50.667969 C 13.332031 51.402344 13.929688 52 14.667969 52 L 14.667969 57.332031 L 17.332031 57.332031 L 17.332031 52 L 21.332031 52 L 21.332031 57.332031 L 24 57.332031 L 24 52 L 28 52 L 28 57.332031 L 30.667969 57.332031 L 30.667969 52 L 34.667969 52 L 34.667969 57.332031 L 37.332031 57.332031 L 37.332031 52 L 41.332031 52 L 41.332031 57.332031 L 44 57.332031 L 44 52 L 48 52 L 48 57.332031 L 50.667969 57.332031 L 50.667969 52 L 52 52 C 52.738281 52 53.332031 51.402344 53.332031 50.667969 L 57.332031 50.667969 L 57.332031 48 L 53.332031 48 L 53.332031 44 L 57.332031 44 L 57.332031 41.332031 L 53.332031 41.332031 L 53.332031 37.332031 L 57.332031 37.332031 L 57.332031 34.667969 L 53.332031 34.667969 L 53.332031 30.667969 L 57.332031 30.667969 L 57.332031 28 L 53.332031 28 L 53.332031 24 L 57.332031 24 L 57.332031 21.332031 L 53.332031 21.332031 L 53.332031 17.332031 L 57.332031 17.332031 L 57.332031 14.667969 L 53.332031 14.667969 Z M 24 34.667969 L 24 40 L 41.332031 40 L 41.332031 22.667969 L 37.332031 22.667969 L 37.332031 20 L 42.667969 20 C 43.402344 20 44 20.597656 44 21.332031 L 44 41.332031 C 44 42.070312 43.402344 42.667969 42.667969 42.667969 L 22.667969 42.667969 C 21.929688 42.667969 21.332031 42.070312 21.332031 41.332031 L 21.332031 34.667969 Z M 24 34.667969 "/>
</svg>
