<?xml version="1.0" encoding="UTF-8"?>
<svg xmlns="http://www.w3.org/2000/svg" xmlns:xlink="http://www.w3.org/1999/xlink" width="64" height="64" viewBox="0 0 64 64">
<path fill-rule="evenodd" fill="rgb(92.941177%, 44.313726%, 0%)" fill-opacity="1" d="M 12 52 L 52 52 L 52 12 L 12 12 Z M 54.667969 17.332031 L 54.667969 22.667969 L 61.332031 22.667969 L 61.332031 25.332031 L 54.667969 25.332031 L 54.667969 30.667969 L 61.332031 30.667969 L 61.332031 33.332031 L 54.667969 33.332031 L 54.667969 38.667969 L 61.332031 38.667969 L 61.332031 41.332031 L 54.667969 41.332031 L 54.667969 46.667969 L 61.332031 46.667969 L 61.332031 49.332031 L 54.667969 49.332031 L 54.667969 53.332031 C 54.667969 54.070312 54.070312 54.667969 53.332031 54.667969 L 49.332031 54.667969 L 49.332031 61.332031 L 46.667969 61.332031 L 46.667969 54.667969 L 41.332031 54.667969 L 41.332031 61.332031 L 38.667969 61.332031 L 38.667969 54.667969 L 33.332031 54.667969 L 33.332031 61.332031 L 30.667969 61.332031 L 30.667969 54.667969 L 25.332031 54.667969 L 25.332031 61.332031 L 22.667969 61.332031 L 22.667969 54.667969 L 17.332031 54.667969 L 17.332031 61.332031 L 14.667969 61.332031 L 14.667969 54.667969 L 10.667969 54.667969 C 9.929688 54.667969 9.332031 54.070312 9.332031 53.332031 L 9.332031 49.332031 L 2.667969 49.332031 L 2.667969 46.667969 L 9.332031 46.667969 L 9.332031 41.332031 L 2.667969 41.332031 L 2.667969 38.667969 L 9.332031 38.667969 L 9.332031 33.332031 L 2.667969 33.332031 L 2.667969 30.667969 L 9.332031 30.667969 L 9.332031 25.332031 L 2.667969 25.332031 L 2.667969 22.667969 L 9.332031 22.667969 L 9.332031 17.332031 L 2.667969 17.332031 L 2.667969 14.667969 L 9.332031 14.667969 L 9.332031 10.667969 C 9.332031 9.929688 9.929688 9.332031 10.667969 9.332031 L 14.667969 9.332031 L 14.667969 2.667969 L 17.332031 2.667969 L 17.332031 9.332031 L 22.667969 9.332031 L 22.667969 2.667969 L 25.332031 2.667969 L 25.332031 9.332031 L 30.667969 9.332031 L 30.667969 2.667969 L 33.332031 2.667969 L 33.332031 9.332031 L 38.667969 9.332031 L 38.667969 2.667969 L 41.332031 2.667969 L 41.332031 9.332031 L 46.667969 9.332031 L 46.667969 2.667969 L 49.332031 2.667969 L 49.332031 9.332031 L 53.332031 9.332031 C 54.070312 9.332031 54.667969 9.929688 54.667969 10.667969 L 54.667969 14.667969 L 61.332031 14.667969 L 61.332031 17.332031 Z M 29.125 33.332031 L 13.332031 33.332031 L 13.332031 30.667969 L 28.433594 30.667969 L 24.484375 26.71875 L 26.367188 24.832031 L 31.804688 30.265625 L 37.238281 24.832031 L 39.121094 26.71875 L 35.171875 30.667969 L 49.332031 30.667969 L 49.332031 33.332031 L 34.625 33.332031 L 39.273438 37.980469 L 37.386719 39.867188 L 31.875 34.355469 L 26.363281 39.867188 L 24.480469 37.980469 Z M 29.125 33.332031 "/>
</svg>
