<svg width="80" height="80" viewBox="0 0 80 80" fill="none" xmlns="http://www.w3.org/2000/svg">
<g clip-path="url(#clip0_223_169)">
<rect width="80" height="80" fill="#E7157B"/>
<path d="M67 12H13C12.4473 12 12 12.4477 12 13V55.001C12 55.5532 12.4473 56.001 13 56.001H34V54.001H14V24H66V54.001H60.999V56.001H67C67.5527 56.001 68 55.5532 68 55.001V13C68 12.4477 67.5527 12 67 12ZM14 22V14H66V22H14ZM17 17H20V19H17V17ZM22 17H25V19H22V17ZM30 17V19H27V17H30ZM26 50.001V37H18V50.001H26ZM20 39H24V48.001H20V39ZM46 41V29H42V43H40V27H48V41H46ZM35 46.0019V34H31V48.001H34V50.001H29V32H37V46.0019H35ZM59.9277 42.0371C59.0088 41.1182 57.7031 40.7485 56.4375 41.0479C50.0127 42.5645 41.7959 44.9316 39.1318 47.5957C37.0967 49.6304 35.9756 52.3359 35.9756 55.2139C35.9756 57.7641 36.8595 60.1767 38.4761 62.1097L33.9805 66.6055L35.3945 68.0195L39.8918 63.522C41.8186 65.1182 44.2175 65.9883 46.75 65.9883C49.6279 65.9883 52.334 64.8677 54.3681 62.8325C57.0312 60.1685 59.3994 51.9512 60.917 45.5264C61.2158 44.2602 60.8457 42.9556 59.9277 42.0371ZM58.9697 45.0669C56.9395 53.666 54.7471 59.6255 52.9541 61.4184C51.2969 63.0757 49.0938 63.9883 46.75 63.9883C44.7527 63.9883 42.8595 63.3196 41.3167 62.0972L48.7295 54.6841L47.3154 53.27L39.8975 60.6883C38.6546 59.1385 37.9756 57.2292 37.9756 55.2138C37.9756 52.8701 38.8887 50.667 40.5459 49.0098C42.3389 47.2168 48.2988 45.0239 56.8965 42.9941C57.0352 42.9614 57.1738 42.9453 57.3096 42.9453C57.7578 42.9453 58.1826 43.1206 58.5127 43.4516C58.9443 43.8823 59.1104 44.4712 58.9697 45.0669Z" fill="white"/>
</g>
<defs>
<clipPath id="clip0_223_169">
<rect width="80" height="80" fill="white"/>
</clipPath>
</defs>
</svg>
