<svg width="80" height="80" viewBox="0 0 80 80" fill="none" xmlns="http://www.w3.org/2000/svg">
<g clip-path="url(#clip0_175_75)">
<rect width="80" height="80" fill="#E7157B"/>
<path d="M59 43H57C57 35.8315 51.168 30 44 30C43.3245 30 42.6541 30.0584 41.9922 30.1616C41.9929 30.1072 42 30.0545 42 30C42 29.1876 41.9169 28.3944 41.7622 27.6269C42.4656 27.8651 43.2162 28 43.999 28C47.8594 28 51 24.8599 51 21C51 17.1401 47.8594 14 43.999 14C40.3759 14 37.3877 16.7677 37.0354 20.3001C36.4545 19.8776 35.8352 19.5081 35.1824 19.1937C36.021 15.0939 39.6555 12 43.999 12C48.9619 12 53 16.0376 53 21C53 24.2835 51.2263 27.1537 48.5924 28.7257C54.6228 30.6707 59 36.3311 59 43ZM34.2805 57H13C12.4473 57 12 56.5523 12 56C12 49.6992 15.3633 43.7749 20.7783 40.5391C22.1252 39.7338 23.57 39.1167 25.0706 38.6903C22.0472 36.9684 20 33.7216 20 30C20 24.4858 24.4853 20 29.999 20C35.5137 20 40 24.4858 40 30C40 33.717 37.957 36.9602 34.9392 38.6836C40.8986 40.3667 45.6092 45.0313 47.3101 51.0679L46.1211 49.8789C45.6406 49.3988 45.0359 49.1267 44.4099 49.0403C41.8184 43.6456 36.3278 40 30 40C27.1074 40 24.2725 40.7803 21.8037 42.2559C17.2783 44.961 14.3643 49.7783 14.0322 55H36.4138L34.2805 57ZM29.999 38C34.4111 38 38 34.4111 38 30C38 25.5889 34.4111 22 29.999 22C25.5879 22 22 25.5889 22 30C22 34.4111 25.5879 38 29.999 38ZM67 45H57V47H64.6987L52.9756 59.561L44.707 51.293C44.3242 50.9111 43.709 50.9004 43.3164 51.2705L27.3164 66.2705L28.6836 67.7295L43.9776 53.3916L52.293 61.707C52.4844 61.8989 52.7198 61.9839 53.0176 62C53.2881 61.9951 53.5459 61.8804 53.7315 61.6821L66 48.5372V56H68V46C68 45.4477 67.5527 45 67 45Z" fill="white"/>
</g>
<defs>
<clipPath id="clip0_175_75">
<rect width="80" height="80" fill="white"/>
</clipPath>
</defs>
</svg>
