<?xml version="1.0" encoding="UTF-8"?>
<svg width="80px" height="80px" viewBox="0 0 80 80" version="1.1" xmlns="http://www.w3.org/2000/svg" xmlns:xlink="http://www.w3.org/1999/xlink">
    <title>Icon-Architecture/64/Arch_Amazon-FSx_OpenZFS_64</title>
    <defs>
        <linearGradient x1="0%" y1="100%" x2="100%" y2="0%" id="linearGradient-1">
            <stop stop-color="#1B660F" offset="0%"></stop>
            <stop stop-color="#6CAE3E" offset="100%"></stop>
        </linearGradient>
    </defs>
    <g id="Icon-Architecture/64/Arch_Amazon-FSx_OpenZFS_64" stroke="none" stroke-width="1" fill="none" fill-rule="evenodd">
        <g id="Rectangle" fill="url(#linearGradient-1)">
            <rect x="0" y="0" width="80" height="80"></rect>
        </g>
        <g id="Icon-Service/64/Amazon-FSx_OpenZFS_64" transform="translate(8.000000, 8.000000)" fill="#FFFFFF">
            <path d="M47,37.006 L47,35.006 L37,35.006 L37,37.006 L44.287,37.006 L37.016,45.006 L37,45.006 L37,47.006 L47,47.006 L47,45.006 L39.707,45.006 L47,37.006 Z M4,36.278 L5.953,36.278 L5.953,27.678 L13.403,27.678 L13.403,25.886 L5.953,25.886 L5.953,19.186 L14.766,19.186 L14.766,17.393 L4,17.393 L4,36.278 Z M27.998,36.377 L30.614,36.377 L34.257,31.056 L34.333,30.949 L33.136,29.259 L27.998,36.377 Z M23.858,26.514 L21,25.418 C20.075,25.069 19.354,24.737 18.854,24.432 C18.377,24.139 18.032,23.811 17.824,23.457 C17.619,23.103 17.516,22.627 17.516,22.042 C17.516,20.988 17.851,20.201 18.544,19.637 C19.234,19.072 20.254,18.786 21.575,18.786 C22.953,18.786 24.558,19.105 26.344,19.736 L26.596,19.824 L26.596,18.074 L26.483,18.024 C25.708,17.682 24.876,17.413 24.005,17.225 C23.134,17.036 22.29,16.94 21.494,16.94 C19.73,16.94 18.282,17.418 17.193,18.361 C16.094,19.312 15.536,20.568 15.536,22.095 C15.536,23.223 15.877,24.186 16.545,24.956 C17.203,25.715 18.243,26.374 19.637,26.917 L22.735,28.119 C23.775,28.518 24.531,28.969 24.988,29.461 C25.434,29.938 25.659,30.524 25.659,31.202 C25.659,32.344 25.25,33.222 24.408,33.885 C23.567,34.549 22.417,34.885 20.988,34.885 C19.449,34.885 17.736,34.549 15.896,33.883 L15.644,33.792 L15.644,35.539 L15.752,35.59 C17.32,36.347 19.126,36.731 21.12,36.731 C23.06,36.731 24.653,36.221 25.847,35.218 C27.053,34.205 27.665,32.863 27.665,31.229 C27.665,30.104 27.354,29.151 26.743,28.399 C26.136,27.656 25.167,27.023 23.858,26.514 L23.858,26.514 Z M34.47,25.524 L31.179,20.825 L28.478,20.825 L33.102,27.343 L34.47,25.524 Z M37.102,33.006 L39.812,33.006 L36.412,28.171 L41.683,20.825 L39.096,20.825 L34.986,26.695 L33.824,28.307 L37.102,33.006 Z M50,37.006 L56,37.006 L56,35.006 L50,35.006 L50,37.006 Z M50,47.006 L56,47.006 L56,45.006 L50,45.006 L50,47.006 Z M50,42.006 L60,42.006 L60,40.006 L50,40.006 L50,42.006 Z" id="Fill-1"></path>
        </g>
    </g>
</svg>