<?xml version="1.0" encoding="UTF-8"?>
<svg width="80px" height="80px" viewBox="0 0 80 80" version="1.1" xmlns="http://www.w3.org/2000/svg" xmlns:xlink="http://www.w3.org/1999/xlink">
    <title>Icon-Architecture/64/Arch_Amazon-File-Cache_64</title>
    <defs>
        <linearGradient x1="0%" y1="100%" x2="100%" y2="0%" id="linearGradient-1">
            <stop stop-color="#1B660F" offset="0%"></stop>
            <stop stop-color="#6CAE3E" offset="100%"></stop>
        </linearGradient>
    </defs>
    <g id="Icon-Architecture/64/Arch_Amazon-File-Cache_64" stroke="none" stroke-width="1" fill="none" fill-rule="evenodd">
        <g id="Icon-Architecture-BG/64/Storage" fill="url(#linearGradient-1)">
            <rect id="Rectangle" x="0" y="0" width="80" height="80"></rect>
        </g>
        <g id="Icon-Service/64/Amazon-File-Cache_64" transform="translate(12.000000, 12.000000)" fill="#FFFFFF">
            <path d="M31,31.4 C30.448,31.4 30,30.951 30,30.4 C30,29.849 30.448,29.4 31,29.4 C31.552,29.4 32,29.849 32,30.4 C32,30.951 31.552,31.4 31,31.4 L31,31.4 Z M31,27.4 C29.346,27.4 28,28.746 28,30.4 C28,32.054 29.346,33.4 31,33.4 C32.654,33.4 34,32.054 34,30.4 C34,28.746 32.654,27.4 31,27.4 L31,27.4 Z M40.293,40.879 L37.707,38.293 C37.451,38.038 37.078,37.939 36.733,38.036 C36.386,38.132 36.117,38.408 36.03,38.757 L35.219,42 L26.781,42 L25.97,38.757 C25.883,38.408 25.614,38.132 25.267,38.036 C24.92,37.939 24.548,38.038 24.293,38.293 L21.707,40.879 L21.061,36.354 L24.707,32.707 C24.895,32.52 25,32.265 25,32 C25,24.247 29.287,18.477 31.001,16.479 C32.717,18.471 37,24.225 37,32 C37,32.265 37.105,32.52 37.293,32.707 L40.939,36.354 L40.293,40.879 Z M38.996,31.582 C38.814,21.306 31.99,14.568 31.696,14.282 C31.308,13.906 30.692,13.906 30.304,14.282 C30.01,14.568 23.186,21.306 23.004,31.582 L19.293,35.293 C19.07,35.516 18.966,35.83 19.01,36.142 L20.01,43.142 C20.063,43.517 20.324,43.829 20.684,43.949 C21.042,44.07 21.439,43.975 21.707,43.707 L24.458,40.956 L25.03,43.243 C25.142,43.688 25.541,44 26,44 L36,44 C36.459,44 36.858,43.688 36.97,43.243 L37.542,40.956 L40.293,43.707 C40.483,43.898 40.739,44 41,44 C41.105,44 41.213,43.983 41.316,43.949 C41.676,43.829 41.937,43.517 41.99,43.142 L42.99,36.142 C43.034,35.83 42.93,35.516 42.707,35.293 L38.996,31.582 Z M35,54 L37,54 L37,48 L35,48 L35,54 Z M25,54 L27,54 L27,48 L25,48 L25,54 Z M30,56 L32,56 L32,46 L30,46 L30,56 Z M49,9 L6,9 C5.447,9 5,9.448 5,10 L5,42.5 C5,43.327 4.327,44 3.5,44 C2.673,44 2,43.327 2,42.5 L2,2 L14.586,2 L18.293,5.707 C18.48,5.895 18.734,6 19,6 L49,6 L49,9 Z M55,9 L51,9 L51,5 C51,4.448 50.553,4 50,4 L19.414,4 L15.707,0.293 C15.52,0.106 15.266,0 15,0 L1,0 C0.447,0 0,0.448 0,1 L0,42.5 C0,44.43 1.57,46 3.5,46 L17,46 L17,44 L6.649,44 C6.867,43.544 7,43.039 7,42.5 L7,11 L54,11 L54,44 L45,44 L45,46 L55,46 C55.553,46 56,45.552 56,45 L56,10 C56,9.448 55.553,9 55,9 L55,9 Z" id="Fill-1"></path>
        </g>
    </g>
</svg>