<?xml version="1.0" encoding="UTF-8"?>
<svg width="80px" height="80px" viewBox="0 0 80 80" version="1.1" xmlns="http://www.w3.org/2000/svg" xmlns:xlink="http://www.w3.org/1999/xlink">
    <title>Icon-Architecture/64/Arch_AWS-Snowcone_64</title>
    <g id="Icon-Architecture/64/Arch_AWS-Snowcone_64" stroke="none" stroke-width="1" fill="none" fill-rule="evenodd">
        <g id="Icon-Architecture-BG/64/Storage" fill="#7AA116">
            <rect id="Rectangle" x="0" y="0" width="80" height="80"></rect>
        </g>
        <g id="Icon-Service/64/AWS-Snowcone_64" transform="translate(12.000000, 18.000000)" fill="#FFFFFF">
            <path d="M44,22 L44,36 C44,36.552 43.553,37 43,37 L13,37 C12.447,37 12,36.552 12,36 L12,22 C12,21.448 12.447,21 13,21 L21,21 L21,23 L14,23 L14,35 L42,35 L42,23 L35,23 L35,21 L43,21 C43.553,21 44,21.448 44,22 L44,22 Z M54,41.696 C54,41.864 53.874,42 53.72,42 L51,42 L51,18.302 C51,17.033 49.98,16 48.728,16 L7.274,16 C6.021,16 5,17.034 5,18.304 L5,42 L2.278,42 C2.125,42 2,41.865 2,41.698 L2,15.913 C2,14.307 3.274,13 4.842,13 L51.166,13 C52.729,13 54,14.303 54,15.905 L54,41.696 Z M7,41 L7,18.304 C7,18.136 7.123,18 7.274,18 L48.728,18 C48.878,18 49,18.135 49,18.302 L49,41 L7,41 Z M41.233,11 L14.767,11 L16.566,8 L39.434,8 L41.233,11 Z M12.58,2.986 C13.116,2.359 13.89,2 14.702,2 L41.869,2 C42.682,2 43.456,2.359 43.952,2.937 L50,11 L43.566,11 L40.857,6.485 C40.677,6.184 40.352,6 40,6 L16,6 C15.648,6 15.323,6.184 15.143,6.485 L12.434,11 L6.096,11 L12.58,2.986 Z M52.71,11.28 L45.512,1.687 C44.595,0.615 43.268,0 41.869,0 L14.702,0 C13.305,0 11.978,0.615 11.043,1.708 L3.296,11.28 C1.387,11.938 0,13.755 0,15.913 L0,41.698 C0,42.967 1.022,44 2.278,44 L7,44 C7.553,44 8,43.552 8,43 L49,43 C49,43.552 49.447,44 50,44 L53.72,44 C54.978,44 56,42.966 56,41.696 L56,15.905 C56,13.751 54.616,11.938 52.71,11.28 L52.71,11.28 Z M25,26 L31,26 L31,23 L25,23 L25,26 Z M24,28 L32,28 C32.553,28 33,27.552 33,27 L33,22 C33,21.448 32.553,21 32,21 L24,21 C23.447,21 23,21.448 23,22 L23,27 C23,27.552 23.447,28 24,28 L24,28 Z" id="AWS-Snowcone_64_Squid"></path>
        </g>
    </g>
</svg>