<?xml version="1.0" encoding="UTF-8"?>
<svg xmlns="http://www.w3.org/2000/svg" xmlns:xlink="http://www.w3.org/1999/xlink" width="64" height="64" viewBox="0 0 64 64">
<path fill-rule="evenodd" fill="rgb(92.941177%, 44.313726%, 0%)" fill-opacity="1" d="M 12 52 L 52 52 L 52 12 L 12 12 Z M 61.332031 17.332031 L 61.332031 14.667969 L 54.667969 14.667969 L 54.667969 10.667969 C 54.667969 9.929688 54.070312 9.332031 53.332031 9.332031 L 49.332031 9.332031 L 49.332031 2.667969 L 46.667969 2.667969 L 46.667969 9.332031 L 41.332031 9.332031 L 41.332031 2.667969 L 38.667969 2.667969 L 38.667969 9.332031 L 33.332031 9.332031 L 33.332031 2.667969 L 30.667969 2.667969 L 30.667969 9.332031 L 25.332031 9.332031 L 25.332031 2.667969 L 22.667969 2.667969 L 22.667969 9.332031 L 17.332031 9.332031 L 17.332031 2.667969 L 14.667969 2.667969 L 14.667969 9.332031 L 10.667969 9.332031 C 9.929688 9.332031 9.332031 9.929688 9.332031 10.667969 L 9.332031 14.667969 L 2.667969 14.667969 L 2.667969 17.332031 L 9.332031 17.332031 L 9.332031 22.667969 L 2.667969 22.667969 L 2.667969 25.332031 L 9.332031 25.332031 L 9.332031 30.667969 L 2.667969 30.667969 L 2.667969 33.332031 L 9.332031 33.332031 L 9.332031 38.667969 L 2.667969 38.667969 L 2.667969 41.332031 L 9.332031 41.332031 L 9.332031 46.667969 L 2.667969 46.667969 L 2.667969 49.332031 L 9.332031 49.332031 L 9.332031 53.332031 C 9.332031 54.070312 9.929688 54.667969 10.667969 54.667969 L 14.667969 54.667969 L 14.667969 61.332031 L 17.332031 61.332031 L 17.332031 54.667969 L 22.667969 54.667969 L 22.667969 61.332031 L 25.332031 61.332031 L 25.332031 54.667969 L 30.667969 54.667969 L 30.667969 61.332031 L 33.332031 61.332031 L 33.332031 54.667969 L 38.667969 54.667969 L 38.667969 61.332031 L 41.332031 61.332031 L 41.332031 54.667969 L 46.667969 54.667969 L 46.667969 61.332031 L 49.332031 61.332031 L 49.332031 54.667969 L 53.332031 54.667969 C 54.070312 54.667969 54.667969 54.070312 54.667969 53.332031 L 54.667969 49.332031 L 61.332031 49.332031 L 61.332031 46.667969 L 54.667969 46.667969 L 54.667969 41.332031 L 61.332031 41.332031 L 61.332031 38.667969 L 54.667969 38.667969 L 54.667969 33.332031 L 61.332031 33.332031 L 61.332031 30.667969 L 54.667969 30.667969 L 54.667969 25.332031 L 61.332031 25.332031 L 61.332031 22.667969 L 54.667969 22.667969 L 54.667969 17.332031 Z M 61.332031 17.332031 "/>
</svg>
