<?xml version="1.0" encoding="UTF-8"?>
<svg xmlns="http://www.w3.org/2000/svg" xmlns:xlink="http://www.w3.org/1999/xlink" width="64" height="64" viewBox="0 0 64 64">
<path fill-rule="evenodd" fill="rgb(92.941177%, 44.313726%, 0%)" fill-opacity="1" d="M 58.160156 32.078125 L 58.160156 31.726562 L 58.324219 31.902344 Z M 14.566406 41.136719 C 9.476562 41.136719 5.332031 36.996094 5.332031 31.902344 C 5.332031 26.808594 9.476562 22.667969 14.566406 22.667969 C 19.660156 22.667969 23.800781 26.808594 23.800781 31.902344 C 23.800781 36.996094 19.660156 41.136719 14.566406 41.136719 Z M 61.117188 30.996094 L 52.53125 21.746094 L 50.578125 23.5625 L 57.085938 30.566406 L 26.390625 30.566406 C 25.722656 24.632812 20.679688 20 14.566406 20 C 8.003906 20 2.667969 25.339844 2.667969 31.902344 C 2.667969 38.464844 8.003906 43.800781 14.566406 43.800781 C 20.679688 43.800781 25.722656 39.171875 26.390625 33.234375 L 57.085938 33.234375 L 50.578125 40.242188 L 52.53125 42.054688 L 61.117188 32.808594 C 61.59375 32.296875 61.59375 31.503906 61.117188 30.996094 Z M 61.117188 30.996094 "/>
</svg>
