<?xml version="1.0" encoding="UTF-8"?>
<svg xmlns="http://www.w3.org/2000/svg" xmlns:xlink="http://www.w3.org/1999/xlink" width="64" height="64" viewBox="0 0 64 64">
<path fill-rule="evenodd" fill="rgb(92.941177%, 44.313726%, 0%)" fill-opacity="1" d="M 17.734375 7.855469 L 22.535156 12.652344 L 20.648438 14.539062 L 18.125 12.015625 L 18.125 25.855469 L 15.460938 25.855469 L 15.460938 12.015625 L 12.9375 14.539062 L 11.054688 12.652344 L 15.851562 7.855469 C 16.371094 7.335938 17.214844 7.335938 17.734375 7.855469 M 16.792969 28.253906 C 10.476562 28.253906 5.332031 23.113281 5.332031 16.792969 C 5.332031 10.476562 10.476562 5.332031 16.792969 5.332031 C 23.113281 5.332031 28.253906 10.476562 28.253906 16.792969 C 28.253906 23.113281 23.113281 28.253906 16.792969 28.253906 M 30.921875 16.792969 C 30.921875 9.003906 24.585938 2.667969 16.792969 2.667969 C 9.003906 2.667969 2.667969 9.003906 2.667969 16.792969 C 2.667969 24.585938 9.003906 30.921875 16.792969 30.921875 C 24.585938 30.921875 30.921875 24.585938 30.921875 16.792969 M 51.582031 30.410156 C 45.492188 36.625 35.710938 37.554688 30.324219 37.550781 C 35.257812 33.773438 40.316406 29.277344 45.132812 24.371094 C 50.144531 19.257812 54.722656 13.84375 58.566406 8.53125 C 58.582031 14.015625 57.699219 24.160156 51.582031 30.410156 M 61.046875 4.402344 C 61.042969 4.394531 61.039062 4.382812 61.039062 4.375 C 61.019531 4.246094 60.988281 4.121094 60.933594 4.003906 C 60.929688 4 60.925781 3.996094 60.925781 3.988281 C 60.910156 3.964844 60.894531 3.945312 60.882812 3.921875 C 60.828125 3.828125 60.769531 3.738281 60.695312 3.660156 C 60.667969 3.628906 60.636719 3.605469 60.605469 3.578125 C 60.535156 3.511719 60.457031 3.457031 60.375 3.40625 C 60.339844 3.386719 60.308594 3.371094 60.269531 3.351562 C 60.148438 3.296875 60.019531 3.253906 59.882812 3.234375 C 59.164062 3.144531 42.117188 1.183594 32.542969 10.964844 C 32.523438 10.984375 32.507812 11.003906 32.492188 11.019531 C 32.484375 11.03125 32.472656 11.039062 32.460938 11.050781 C 32.273438 11.25 32.085938 11.449219 31.855469 11.707031 C 31.757812 11.816406 31.664062 11.925781 31.574219 12.035156 L 31.570312 12.039062 C 31.566406 12.042969 31.5625 12.050781 31.558594 12.054688 L 32.597656 12.886719 L 33.625 13.734375 C 33.878906 13.429688 34.144531 13.136719 34.4375 12.839844 C 34.878906 12.390625 35.34375 11.96875 35.820312 11.570312 C 35.976562 11.445312 36.136719 11.332031 36.292969 11.214844 C 36.625 10.953125 36.960938 10.691406 37.3125 10.457031 C 37.5 10.328125 37.699219 10.210938 37.890625 10.089844 C 38.21875 9.882812 38.550781 9.675781 38.886719 9.484375 C 39.09375 9.371094 39.296875 9.265625 39.503906 9.160156 C 39.847656 8.984375 40.1875 8.808594 40.535156 8.648438 C 40.738281 8.554688 40.949219 8.464844 41.15625 8.375 C 41.515625 8.222656 41.875 8.074219 42.238281 7.9375 C 42.433594 7.863281 42.632812 7.789062 42.828125 7.71875 C 43.21875 7.585938 43.605469 7.457031 43.996094 7.335938 C 44.167969 7.28125 44.339844 7.230469 44.511719 7.179688 C 44.941406 7.058594 45.375 6.941406 45.800781 6.839844 C 45.929688 6.808594 46.058594 6.773438 46.1875 6.742188 C 46.6875 6.628906 47.1875 6.523438 47.679688 6.433594 C 47.734375 6.421875 47.789062 6.40625 47.84375 6.398438 C 51.273438 5.769531 54.449219 5.671875 56.628906 5.71875 C 56.675781 5.71875 56.722656 5.71875 56.769531 5.71875 C 56.957031 5.722656 57.121094 5.730469 57.292969 5.734375 C 53.363281 11.332031 48.535156 17.089844 43.230469 22.5 C 38.097656 27.734375 32.683594 32.496094 27.46875 36.375 C 27.464844 36.230469 27.457031 36.074219 27.453125 35.917969 C 27.453125 35.824219 27.449219 35.726562 27.449219 35.625 C 27.441406 35.320312 27.4375 34.988281 27.4375 34.644531 C 27.4375 34.449219 27.4375 34.253906 27.441406 34.050781 C 27.441406 33.851562 27.445312 33.65625 27.449219 33.449219 C 27.457031 33.042969 27.472656 32.621094 27.496094 32.179688 C 27.5 32.066406 27.503906 31.953125 27.511719 31.835938 C 27.542969 31.285156 27.582031 30.71875 27.636719 30.128906 L 26.308594 30.003906 L 24.984375 29.855469 L 24.980469 29.882812 C 24.980469 29.890625 24.980469 29.898438 24.976562 29.90625 L 24.917969 30.554688 C 24.902344 30.773438 24.890625 30.976562 24.878906 31.179688 C 24.734375 33.351562 24.75 35.21875 24.804688 36.566406 L 24.765625 36.566406 L 24.765625 60.988281 L 27.429688 60.988281 L 27.429688 40.125 C 28.128906 40.171875 29.09375 40.214844 30.269531 40.214844 C 36.054688 40.214844 46.71875 39.179688 53.488281 32.273438 C 63.046875 22.511719 61.132812 5.136719 61.046875 4.402344 "/>
</svg>
