<?xml version="1.0" encoding="UTF-8"?>
<svg xmlns="http://www.w3.org/2000/svg" xmlns:xlink="http://www.w3.org/1999/xlink" width="64" height="64" viewBox="0 0 64 64">
<path fill-rule="evenodd" fill="rgb(92.941177%, 44.313726%, 0%)" fill-opacity="1" d="M 4.898438 33.28125 L 2.667969 33.28125 L 2.667969 30.613281 L 4.898438 30.613281 C 5.152344 25.355469 6.882812 20.351562 9.976562 16.082031 L 12.132812 17.644531 C 9.375 21.457031 7.816406 25.917969 7.566406 30.613281 L 9.695312 30.613281 L 9.695312 33.28125 L 7.566406 33.28125 C 7.816406 37.976562 9.375 42.4375 12.132812 46.253906 L 9.972656 47.8125 C 6.882812 43.542969 5.152344 38.539062 4.898438 33.28125 Z M 47.816406 53.921875 C 43.542969 57.015625 38.542969 58.742188 33.28125 58.996094 L 33.28125 61.148438 L 30.613281 61.148438 L 30.613281 58.996094 C 25.355469 58.742188 20.351562 57.015625 16.082031 53.921875 L 17.644531 51.761719 C 21.457031 54.523438 25.921875 56.078125 30.613281 56.328125 L 30.613281 54.199219 L 33.28125 54.199219 L 33.28125 56.328125 C 37.976562 56.078125 42.4375 54.523438 46.253906 51.761719 Z M 16.082031 9.976562 C 20.351562 6.878906 25.355469 5.152344 30.613281 4.898438 L 30.613281 2.667969 L 33.28125 2.667969 L 33.28125 4.898438 C 38.542969 5.152344 43.542969 6.878906 47.816406 9.976562 L 46.253906 12.132812 C 42.4375 9.371094 37.976562 7.816406 33.28125 7.566406 L 33.28125 9.695312 L 30.613281 9.695312 L 30.613281 7.566406 C 25.921875 7.816406 21.457031 9.371094 17.644531 12.132812 Z M 61.226562 33.28125 L 58.996094 33.28125 C 58.742188 38.539062 57.015625 43.542969 53.921875 47.8125 L 51.761719 46.253906 C 54.523438 42.4375 56.078125 37.976562 56.328125 33.28125 L 54.199219 33.28125 L 54.199219 30.613281 L 56.328125 30.613281 C 56.078125 25.917969 54.523438 21.457031 51.761719 17.644531 L 53.921875 16.082031 C 57.015625 20.351562 58.742188 25.355469 58.996094 30.613281 L 61.226562 30.613281 Z M 47.402344 14.609375 L 55.597656 6.410156 L 57.484375 8.292969 L 49.285156 16.492188 Z M 16.492188 49.285156 L 8.292969 57.484375 L 6.410156 55.597656 L 14.609375 47.402344 Z M 42.261719 40.375 L 57.484375 55.597656 L 55.597656 57.484375 L 40.375 42.257812 Z M 21.632812 23.519531 L 6.410156 8.292969 L 8.292969 6.410156 L 23.519531 21.632812 Z M 44.667969 30.613281 L 44.667969 19.226562 L 33.28125 19.226562 L 33.28125 22.539062 L 30.613281 22.539062 L 30.613281 18.4375 C 30.613281 17.402344 31.457031 16.558594 32.492188 16.558594 L 45.457031 16.558594 C 46.492188 16.558594 47.335938 17.402344 47.335938 18.4375 L 47.335938 31.402344 C 47.335938 32.4375 46.492188 33.28125 45.457031 33.28125 L 41.316406 33.28125 L 41.316406 30.613281 Z M 19.226562 33.28125 L 19.226562 44.667969 L 30.613281 44.667969 L 30.613281 41.316406 L 33.28125 41.316406 L 33.28125 45.457031 C 33.28125 46.492188 32.4375 47.335938 31.402344 47.335938 L 18.4375 47.335938 C 17.402344 47.335938 16.558594 46.492188 16.558594 45.457031 L 16.558594 32.492188 C 16.558594 31.457031 17.402344 30.613281 18.4375 30.613281 L 22.578125 30.613281 L 22.578125 33.28125 Z M 26.253906 37.640625 L 37.640625 37.640625 L 37.640625 26.253906 L 26.253906 26.253906 Z M 40.308594 38.105469 L 40.308594 25.789062 C 40.308594 24.574219 39.320312 23.585938 38.105469 23.585938 L 25.789062 23.585938 C 24.574219 23.585938 23.585938 24.574219 23.585938 25.789062 L 23.585938 38.105469 C 23.585938 39.320312 24.574219 40.308594 25.789062 40.308594 L 38.105469 40.308594 C 39.320312 40.308594 40.308594 39.320312 40.308594 38.105469 Z M 40.308594 38.105469 "/>
</svg>
