<?xml version="1.0" encoding="UTF-8"?>
<svg xmlns="http://www.w3.org/2000/svg" xmlns:xlink="http://www.w3.org/1999/xlink" width="64" height="64" viewBox="0 0 64 64">
<path fill-rule="evenodd" fill="rgb(92.941177%, 44.313726%, 0%)" fill-opacity="1" d="M 50.058594 49.453125 C 49.765625 49.742188 49.292969 49.742188 49.003906 49.453125 L 43.910156 44.363281 C 44.289062 44.023438 44.640625 43.660156 44.957031 43.269531 L 50.0625 48.398438 C 50.351562 48.6875 50.351562 49.160156 50.058594 49.453125 Z M 31.222656 37.496094 C 31.222656 33.882812 34.164062 30.945312 37.777344 30.945312 C 41.390625 30.945312 44.332031 33.882812 44.332031 37.496094 C 44.332031 41.109375 41.390625 44.050781 37.777344 44.050781 C 34.164062 44.050781 31.222656 41.109375 31.222656 37.496094 Z M 46.34375 40.882812 C 46.761719 39.832031 46.996094 38.691406 46.996094 37.496094 C 46.996094 32.414062 42.863281 28.277344 37.777344 28.277344 C 32.695312 28.277344 28.558594 32.414062 28.558594 37.496094 C 28.558594 42.582031 32.695312 46.71875 37.777344 46.71875 C 39.15625 46.71875 40.460938 46.402344 41.636719 45.859375 L 47.117188 51.335938 C 47.785156 52.003906 48.65625 52.335938 49.53125 52.335938 C 50.40625 52.335938 51.28125 52.003906 51.945312 51.335938 C 53.273438 50.007812 53.277344 47.84375 51.953125 46.515625 Z M 40.339844 33.261719 L 38.753906 35.402344 C 37.746094 34.660156 36.328125 34.875 35.589844 35.875 C 35.226562 36.359375 35.078125 36.957031 35.167969 37.554688 C 35.253906 38.152344 35.570312 38.679688 36.058594 39.039062 L 34.46875 41.179688 C 33.410156 40.398438 32.722656 39.246094 32.53125 37.945312 C 32.335938 36.644531 32.660156 35.34375 33.445312 34.285156 C 35.0625 32.101562 38.15625 31.644531 40.339844 33.261719 Z M 53.011719 33.925781 C 53.011719 38.078125 50.753906 40.214844 48.863281 41.273438 L 47.558594 38.945312 C 49.410156 37.914062 50.347656 36.222656 50.347656 33.925781 C 50.347656 29.476562 46.632812 28.367188 45.035156 28.09375 C 44.679688 28.035156 44.363281 27.828125 44.160156 27.53125 C 43.980469 27.265625 43.902344 26.949219 43.933594 26.632812 C 43.703125 24.011719 42.21875 22.835938 40.824219 22.835938 C 39.957031 22.835938 39.140625 23.269531 38.578125 24.027344 C 38.285156 24.421875 37.800781 24.617188 37.3125 24.550781 C 36.824219 24.480469 36.417969 24.144531 36.253906 23.679688 C 35.675781 22.066406 34.847656 20.714844 33.792969 19.65625 C 32.503906 18.371094 28.972656 15.605469 23.988281 17.710938 C 21.117188 18.921875 18.867188 22.414062 18.867188 25.660156 C 18.867188 26.027344 18.890625 26.390625 18.933594 26.746094 C 18.976562 27.121094 18.859375 27.503906 18.605469 27.789062 C 18.410156 28.003906 18.152344 28.152344 17.871094 28.210938 C 16.214844 28.644531 13.511719 29.957031 13.511719 33.867188 C 13.511719 36.855469 15.140625 38.503906 16.507812 39.359375 C 16.925781 39.625 17.421875 39.769531 17.945312 39.773438 L 26.992188 39.78125 L 26.988281 42.449219 L 17.929688 42.441406 C 16.894531 42.429688 15.914062 42.144531 15.082031 41.613281 C 13.503906 40.625 10.84375 38.296875 10.84375 33.867188 C 10.84375 30.101562 12.824219 27.210938 16.207031 25.945312 C 16.203125 25.847656 16.203125 25.757812 16.203125 25.660156 C 16.203125 21.347656 19.101562 16.875 22.949219 15.253906 C 27.449219 13.355469 32.203125 14.296875 35.675781 17.769531 C 36.59375 18.6875 37.367188 19.761719 37.992188 20.988281 C 38.839844 20.457031 39.8125 20.171875 40.824219 20.171875 C 43.214844 20.171875 45.890625 21.90625 46.503906 25.6875 C 49.8125 26.582031 53.011719 29.121094 53.011719 33.925781 Z M 58.4375 52.507812 C 58.4375 55.777344 55.777344 58.4375 52.503906 58.4375 L 11.265625 58.4375 C 7.992188 58.4375 5.332031 55.777344 5.332031 52.507812 L 5.332031 11.265625 C 5.332031 7.992188 7.992188 5.332031 11.265625 5.332031 L 52.503906 5.332031 C 55.777344 5.332031 58.4375 7.992188 58.4375 11.265625 Z M 52.503906 2.667969 L 11.265625 2.667969 C 6.523438 2.667969 2.667969 6.523438 2.667969 11.265625 L 2.667969 52.507812 C 2.667969 57.246094 6.523438 61.101562 11.265625 61.101562 L 52.503906 61.101562 C 57.246094 61.101562 61.101562 57.246094 61.101562 52.507812 L 61.101562 11.265625 C 61.101562 6.523438 57.246094 2.667969 52.503906 2.667969 Z M 52.503906 2.667969 "/>
</svg>
