<?xml version="1.0" encoding="UTF-8"?>
<svg xmlns="http://www.w3.org/2000/svg" xmlns:xlink="http://www.w3.org/1999/xlink" width="64" height="64" viewBox="0 0 64 64">
<path fill-rule="evenodd" fill="rgb(92.941177%, 44.313726%, 0%)" fill-opacity="1" d="M 41.429688 35.269531 L 52.738281 35.269531 L 52.738281 28.621094 L 41.429688 28.621094 Z M 37.9375 48.488281 L 37.9375 42.785156 C 39.984375 41.65625 41.65625 39.984375 42.789062 37.9375 L 48.488281 37.9375 C 46.722656 42.820312 42.820312 46.71875 37.9375 48.488281 Z M 28.621094 52.738281 L 35.269531 52.738281 L 35.269531 41.433594 L 28.621094 41.433594 Z M 15.402344 37.9375 L 21.109375 37.9375 C 22.238281 39.984375 23.910156 41.65625 25.953125 42.785156 L 25.953125 48.488281 C 21.074219 46.71875 17.175781 42.820312 15.402344 37.9375 Z M 11.15625 35.269531 L 22.460938 35.269531 L 22.460938 28.621094 L 11.15625 28.621094 Z M 25.953125 15.402344 L 25.953125 21.105469 C 23.910156 22.234375 22.238281 23.90625 21.105469 25.957031 L 15.402344 25.957031 C 17.171875 21.074219 21.070312 17.171875 25.953125 15.402344 Z M 28.621094 22.460938 L 35.269531 22.460938 L 35.269531 11.15625 L 28.621094 11.15625 Z M 37.851562 39.667969 C 37.671875 39.144531 37.1875 38.765625 36.605469 38.765625 L 27.289062 38.765625 C 26.707031 38.765625 26.222656 39.144531 26.042969 39.667969 C 25.359375 39.144531 24.75 38.535156 24.226562 37.851562 C 24.746094 37.671875 25.128906 37.1875 25.128906 36.605469 L 25.128906 27.289062 C 25.128906 26.707031 24.746094 26.222656 24.226562 26.042969 C 24.75 25.359375 25.359375 24.75 26.042969 24.226562 C 26.222656 24.75 26.707031 25.128906 27.289062 25.128906 L 36.605469 25.128906 C 37.1875 25.128906 37.671875 24.75 37.851562 24.226562 C 38.535156 24.75 39.144531 25.359375 39.667969 26.042969 C 39.144531 26.222656 38.765625 26.707031 38.765625 27.289062 L 38.765625 36.605469 C 38.765625 37.1875 39.144531 37.671875 39.667969 37.851562 C 39.144531 38.535156 38.535156 39.144531 37.851562 39.667969 Z M 48.488281 25.957031 L 42.789062 25.957031 C 41.65625 23.90625 39.984375 22.234375 37.9375 21.105469 L 37.9375 15.402344 C 42.820312 17.171875 46.722656 21.070312 48.488281 25.957031 Z M 54.070312 25.957031 L 51.332031 25.957031 C 49.375 19.601562 44.292969 14.519531 37.9375 12.5625 L 37.9375 9.820312 C 37.9375 9.085938 37.339844 8.488281 36.605469 8.488281 L 27.289062 8.488281 C 26.550781 8.488281 25.953125 9.085938 25.953125 9.820312 L 25.953125 12.5625 C 19.601562 14.519531 14.519531 19.597656 12.5625 25.957031 L 9.824219 25.957031 C 9.085938 25.957031 8.488281 26.550781 8.488281 27.289062 L 8.488281 36.605469 C 8.488281 37.339844 9.085938 37.9375 9.824219 37.9375 L 12.566406 37.9375 C 14.519531 44.292969 19.601562 49.371094 25.953125 51.328125 L 25.953125 54.070312 C 25.953125 54.808594 26.550781 55.40625 27.289062 55.40625 L 36.605469 55.40625 C 37.339844 55.40625 37.9375 54.808594 37.9375 54.070312 L 37.9375 51.328125 C 44.292969 49.375 49.375 44.292969 51.328125 37.9375 L 54.070312 37.9375 C 54.808594 37.9375 55.402344 37.339844 55.402344 36.605469 L 55.402344 27.289062 C 55.402344 26.550781 54.808594 25.957031 54.070312 25.957031 Z M 58.558594 52.628906 C 58.558594 55.898438 55.898438 58.558594 52.628906 58.558594 L 11.265625 58.558594 C 7.992188 58.558594 5.332031 55.898438 5.332031 52.628906 L 5.332031 11.261719 C 5.332031 7.992188 7.992188 5.332031 11.265625 5.332031 L 52.628906 5.332031 C 55.898438 5.332031 58.558594 7.992188 58.558594 11.261719 Z M 52.628906 2.667969 L 11.265625 2.667969 C 6.523438 2.667969 2.667969 6.523438 2.667969 11.261719 L 2.667969 52.628906 C 2.667969 57.371094 6.523438 61.226562 11.265625 61.226562 L 52.628906 61.226562 C 57.371094 61.226562 61.226562 57.371094 61.226562 52.628906 L 61.226562 11.261719 C 61.226562 6.523438 57.371094 2.667969 52.628906 2.667969 Z M 52.628906 2.667969 "/>
</svg>
