<?xml version="1.0" encoding="UTF-8"?>
<svg xmlns="http://www.w3.org/2000/svg" xmlns:xlink="http://www.w3.org/1999/xlink" width="64" height="64" viewBox="0 0 64 64">
<path fill-rule="evenodd" fill="rgb(92.941177%, 44.313726%, 0%)" fill-opacity="1" d="M 5.507812 30.613281 L 13.316406 30.613281 L 13.316406 33.28125 L 5.507812 33.28125 C 3.941406 33.28125 2.667969 32.003906 2.667969 30.4375 L 2.667969 5.507812 C 2.667969 3.941406 3.941406 2.667969 5.507812 2.667969 L 30.4375 2.667969 C 32.003906 2.667969 33.28125 3.941406 33.28125 5.507812 L 33.28125 14.480469 L 30.613281 14.480469 L 30.613281 5.507812 C 30.613281 5.410156 30.535156 5.332031 30.4375 5.332031 L 5.507812 5.332031 C 5.410156 5.332031 5.332031 5.410156 5.332031 5.507812 L 5.332031 30.4375 C 5.332031 30.535156 5.410156 30.613281 5.507812 30.613281 Z M 18.316406 44.585938 L 28.371094 44.585938 L 28.371094 47.253906 L 18.316406 47.253906 C 16.75 47.253906 15.476562 45.980469 15.476562 44.414062 L 15.476562 19.480469 C 15.476562 17.914062 16.75 16.640625 18.316406 16.640625 L 43.246094 16.640625 C 44.8125 16.640625 46.089844 17.914062 46.089844 19.480469 L 46.089844 28.453125 L 43.421875 28.453125 L 43.421875 19.480469 C 43.421875 19.382812 43.34375 19.308594 43.246094 19.308594 L 18.316406 19.308594 C 18.21875 19.308594 18.144531 19.382812 18.144531 19.480469 L 18.144531 44.414062 C 18.144531 44.507812 18.21875 44.585938 18.316406 44.585938 Z M 58.464844 58.558594 L 33.28125 58.464844 L 33.28125 33.453125 C 33.28125 33.359375 33.359375 33.28125 33.453125 33.28125 L 58.386719 33.28125 C 58.480469 33.28125 58.558594 33.359375 58.558594 33.453125 Z M 58.386719 30.613281 L 33.453125 30.613281 C 31.886719 30.613281 30.613281 31.886719 30.613281 33.453125 L 30.613281 58.464844 C 30.613281 59.988281 31.851562 61.226562 33.375 61.226562 L 58.464844 61.226562 C 59.988281 61.226562 61.226562 59.988281 61.226562 58.464844 L 61.226562 33.453125 C 61.226562 31.886719 59.953125 30.613281 58.386719 30.613281 Z M 58.386719 30.613281 "/>
</svg>
