<?xml version="1.0" encoding="UTF-8"?>
<svg xmlns="http://www.w3.org/2000/svg" xmlns:xlink="http://www.w3.org/1999/xlink" width="64" height="64" viewBox="0 0 64 64">
<path fill-rule="evenodd" fill="rgb(92.941177%, 44.313726%, 0%)" fill-opacity="1" d="M 32 58.667969 C 17.296875 58.667969 5.332031 46.703125 5.332031 32 C 5.332031 17.296875 17.296875 5.332031 32 5.332031 C 46.703125 5.332031 58.667969 17.296875 58.667969 32 C 58.667969 46.703125 46.703125 58.667969 32 58.667969 Z M 32 2.667969 C 15.824219 2.667969 2.667969 15.824219 2.667969 32 C 2.667969 48.175781 15.824219 61.332031 32 61.332031 C 48.175781 61.332031 61.332031 48.175781 61.332031 32 C 61.332031 15.824219 48.175781 2.667969 32 2.667969 Z M 22.976562 47 L 15.835938 47 L 24.292969 29.277344 L 27.871094 36.65625 Z M 25.484375 25.621094 C 25.261719 25.160156 24.796875 24.867188 24.285156 24.867188 L 24.28125 24.867188 C 23.769531 24.871094 23.300781 25.164062 23.082031 25.628906 L 12.519531 47.757812 C 12.320312 48.171875 12.347656 48.65625 12.59375 49.042969 C 12.835938 49.433594 13.261719 49.667969 13.722656 49.667969 L 23.820312 49.667969 C 24.335938 49.667969 24.804688 49.371094 25.023438 48.902344 L 30.554688 37.21875 C 30.726562 36.855469 30.722656 36.429688 30.546875 36.066406 Z M 48.167969 47 L 40.898438 47 L 27.679688 18.605469 C 27.460938 18.132812 26.992188 17.832031 26.472656 17.832031 L 21.667969 17.832031 L 21.671875 12.332031 L 31.300781 12.332031 L 44.453125 40.726562 C 44.671875 41.199219 45.140625 41.5 45.660156 41.5 L 48.167969 41.5 Z M 49.5 38.832031 L 46.511719 38.832031 L 33.363281 10.441406 C 33.140625 9.96875 32.671875 9.667969 32.152344 9.667969 L 20.339844 9.667969 C 19.605469 9.667969 19.007812 10.261719 19.007812 11 L 19 19.164062 C 19 19.519531 19.140625 19.859375 19.390625 20.109375 C 19.640625 20.359375 19.980469 20.5 20.332031 20.5 L 25.621094 20.5 L 38.839844 48.894531 C 39.058594 49.367188 39.527344 49.667969 40.046875 49.667969 L 49.5 49.667969 C 50.238281 49.667969 50.832031 49.070312 50.832031 48.332031 L 50.832031 40.167969 C 50.832031 39.429688 50.238281 38.832031 49.5 38.832031 Z M 49.5 38.832031 "/>
</svg>
