<?xml version="1.0" encoding="UTF-8"?>
<svg xmlns="http://www.w3.org/2000/svg" xmlns:xlink="http://www.w3.org/1999/xlink" width="64" height="64" viewBox="0 0 64 64">
<path fill-rule="evenodd" fill="rgb(92.941177%, 44.313726%, 0%)" fill-opacity="1" d="M 61.226562 30.773438 L 50.550781 30.773438 L 55.644531 25.675781 L 53.761719 23.792969 L 46.308594 31.246094 C 45.785156 31.765625 45.785156 32.609375 46.308594 33.132812 L 53.761719 40.585938 L 55.644531 38.699219 L 50.386719 33.441406 L 61.226562 33.441406 Z M 10.128906 23.792969 L 8.242188 25.675781 L 13.339844 30.773438 L 2.667969 30.773438 L 2.667969 33.441406 L 13.5 33.441406 L 8.242188 38.699219 L 10.128906 40.585938 L 17.582031 33.132812 C 18.101562 32.609375 18.101562 31.765625 17.582031 31.246094 Z M 25.078125 38.976562 L 38.8125 38.976562 L 38.8125 25.242188 L 25.078125 25.242188 Z M 41.1875 23.746094 L 43.65625 23.746094 L 43.65625 26.414062 L 41.476562 26.414062 L 41.476562 28.433594 L 43.65625 28.433594 L 43.65625 31.097656 L 41.476562 31.097656 L 41.476562 33.117188 L 43.65625 33.117188 L 43.65625 35.785156 L 41.476562 35.785156 L 41.476562 37.804688 L 43.65625 37.804688 L 43.65625 40.46875 L 41.1875 40.46875 C 40.984375 40.839844 40.679688 41.144531 40.308594 41.351562 L 40.308594 43.820312 L 37.640625 43.820312 L 37.640625 41.640625 L 35.621094 41.640625 L 35.621094 43.820312 L 32.957031 43.820312 L 32.957031 41.640625 L 30.9375 41.640625 L 30.9375 43.820312 L 28.269531 43.820312 L 28.269531 41.640625 L 26.253906 41.640625 L 26.253906 43.820312 L 23.585938 43.820312 L 23.585938 41.351562 C 23.214844 41.144531 22.910156 40.839844 22.703125 40.46875 L 20.234375 40.46875 L 20.234375 37.804688 L 22.414062 37.804688 L 22.414062 35.785156 L 20.234375 35.785156 L 20.234375 33.117188 L 22.414062 33.117188 L 22.414062 31.097656 L 20.234375 31.097656 L 20.234375 28.433594 L 22.414062 28.433594 L 22.414062 26.414062 L 20.234375 26.414062 L 20.234375 23.746094 L 22.703125 23.746094 C 22.910156 23.375 23.214844 23.070312 23.585938 22.863281 L 23.585938 20.398438 L 26.253906 20.398438 L 26.253906 22.578125 L 28.269531 22.578125 L 28.269531 20.398438 L 30.9375 20.398438 L 30.9375 22.578125 L 32.957031 22.578125 L 32.957031 20.398438 L 35.621094 20.398438 L 35.621094 22.578125 L 37.640625 22.578125 L 37.640625 20.398438 L 40.308594 20.398438 L 40.308594 22.863281 C 40.679688 23.070312 40.984375 23.375 41.1875 23.746094 Z M 33.28125 56.996094 L 33.28125 46.164062 L 30.613281 46.164062 L 30.613281 57 L 25.433594 51.820312 L 23.546875 53.707031 L 31 61.160156 C 31.261719 61.421875 31.601562 61.550781 31.945312 61.550781 C 32.285156 61.550781 32.625 61.421875 32.886719 61.160156 L 40.339844 53.707031 L 38.457031 51.820312 Z M 25.433594 12.394531 L 23.546875 10.511719 L 31 3.058594 C 31.523438 2.535156 32.367188 2.535156 32.886719 3.058594 L 40.339844 10.511719 L 38.457031 12.394531 L 33.28125 7.222656 L 33.28125 18.054688 L 30.613281 18.054688 L 30.613281 7.214844 Z M 25.433594 12.394531 "/>
</svg>
