<?xml version="1.0" encoding="UTF-8"?>
<svg xmlns="http://www.w3.org/2000/svg" xmlns:xlink="http://www.w3.org/1999/xlink" width="64" height="64" viewBox="0 0 64 64">
<path fill-rule="evenodd" fill="rgb(92.941177%, 44.313726%, 0%)" fill-opacity="1" d="M 57.710938 56.121094 L 57.710938 39.796875 C 55.757812 40.734375 52.992188 41.183594 50.335938 41.183594 C 47.191406 41.183594 44.679688 40.742188 42.957031 39.933594 L 42.957031 56.121094 C 42.957031 56.851562 45.652344 59.140625 50.335938 59.140625 C 55.015625 59.140625 57.710938 56.851562 57.710938 56.121094 M 42.957031 36.472656 C 42.957031 37.328125 45.519531 38.515625 50.335938 38.515625 C 55.410156 38.515625 57.710938 36.945312 57.710938 36.46875 C 57.710938 36.035156 55.492188 34.667969 50.335938 34.667969 C 45.40625 34.667969 43.058594 35.960938 42.957031 36.472656 M 60.378906 36.46875 L 60.378906 56.121094 C 60.378906 59.152344 55.683594 61.808594 50.335938 61.808594 C 44.984375 61.808594 40.289062 59.152344 40.289062 56.121094 L 40.289062 36.46875 C 40.289062 33.171875 45.699219 32 50.335938 32 C 55.1875 32 60.378906 33.175781 60.378906 36.46875 M 36 46.667969 L 36 53.332031 L 33.332031 53.332031 L 33.332031 48 L 29.332031 48 L 29.332031 53.332031 L 26.667969 53.332031 L 26.667969 48 L 22.667969 48 L 22.667969 53.332031 L 20 53.332031 L 20 48 L 16 48 L 16 53.332031 L 13.332031 53.332031 L 13.332031 48 L 9.332031 48 C 8.597656 48 8 47.402344 8 46.667969 L 8 42.667969 L 2.667969 42.667969 L 2.667969 40 L 8 40 L 8 36 L 2.667969 36 L 2.667969 33.332031 L 8 33.332031 L 8 29.332031 L 2.667969 29.332031 L 2.667969 26.667969 L 8 26.667969 L 8 22.667969 L 2.667969 22.667969 L 2.667969 20 L 8 20 L 8 16 L 2.667969 16 L 2.667969 13.332031 L 8 13.332031 L 8 9.332031 C 8 8.597656 8.597656 8 9.332031 8 L 13.332031 8 L 13.332031 2.667969 L 16 2.667969 L 16 8 L 20 8 L 20 2.667969 L 22.667969 2.667969 L 22.667969 8 L 26.667969 8 L 26.667969 2.667969 L 29.332031 2.667969 L 29.332031 8 L 33.332031 8 L 33.332031 2.667969 L 36 2.667969 L 36 8 L 40 8 L 40 2.667969 L 42.667969 2.667969 L 42.667969 8 L 46.667969 8 C 47.402344 8 48 8.597656 48 9.332031 L 48 13.332031 L 53.332031 13.332031 L 53.332031 16 L 48 16 L 48 20 L 53.332031 20 L 53.332031 22.667969 L 48 22.667969 L 48 26.667969 L 53.332031 26.667969 L 53.332031 29.332031 L 46.667969 29.332031 C 45.929688 29.332031 45.332031 28.738281 45.332031 28 L 45.332031 10.667969 L 10.667969 10.667969 L 10.667969 45.332031 L 34.667969 45.332031 C 35.402344 45.332031 36 45.929688 36 46.667969 "/>
</svg>
