<?xml version="1.0" encoding="UTF-8"?>
<svg xmlns="http://www.w3.org/2000/svg" xmlns:xlink="http://www.w3.org/1999/xlink" width="64" height="64" viewBox="0 0 64 64">
<path fill-rule="evenodd" fill="rgb(92.941177%, 44.313726%, 0%)" fill-opacity="1" d="M 32 5.484375 L 50.160156 14.351562 L 32 22.316406 L 13.839844 14.351562 Z M 10.667969 33.867188 C 11.042969 33.867188 11.40625 33.707031 11.65625 33.425781 L 17.65625 26.757812 L 15.675781 24.976562 L 12 29.058594 L 12 16.457031 L 30.667969 24.644531 L 30.667969 38.464844 L 26.992188 34.378906 L 25.007812 36.164062 L 31.007812 42.828125 C 31.261719 43.109375 31.621094 43.269531 32 43.269531 C 32.378906 43.269531 32.738281 43.109375 32.992188 42.828125 L 38.992188 36.164062 L 37.007812 34.378906 L 33.332031 38.464844 L 33.332031 24.644531 L 52 16.457031 L 52 29.058594 L 48.324219 24.976562 L 46.34375 26.757812 L 52.34375 33.425781 C 52.59375 33.707031 52.957031 33.867188 53.332031 33.867188 C 53.710938 33.867188 54.070312 33.707031 54.324219 33.425781 L 60.324219 26.757812 L 58.34375 24.976562 L 54.667969 29.058594 L 54.667969 14.417969 C 54.667969 13.90625 54.375 13.441406 53.917969 13.21875 L 32.585938 2.800781 C 32.21875 2.621094 31.78125 2.621094 31.414062 2.800781 L 10.082031 13.21875 C 9.625 13.441406 9.332031 13.90625 9.332031 14.417969 L 9.332031 29.058594 L 5.65625 24.976562 L 3.675781 26.757812 L 9.675781 33.425781 C 9.929688 33.707031 10.289062 33.867188 10.667969 33.867188 Z M 53.332031 49.246094 C 50.390625 49.246094 48 46.855469 48 43.914062 C 48 40.972656 50.390625 38.582031 53.332031 38.582031 C 56.273438 38.582031 58.667969 40.972656 58.667969 43.914062 C 58.667969 46.855469 56.273438 49.246094 53.332031 49.246094 Z M 32 58.605469 C 29.058594 58.605469 26.667969 56.210938 26.667969 53.269531 C 26.667969 50.332031 29.058594 47.9375 32 47.9375 C 34.941406 47.9375 37.332031 50.332031 37.332031 53.269531 C 37.332031 56.210938 34.941406 58.605469 32 58.605469 Z M 10.667969 49.246094 C 7.726562 49.246094 5.332031 46.855469 5.332031 43.914062 C 5.332031 40.972656 7.726562 38.582031 10.667969 38.582031 C 13.609375 38.582031 16 40.972656 16 43.914062 C 16 46.855469 13.609375 49.246094 10.667969 49.246094 Z M 53.332031 35.914062 C 48.921875 35.914062 45.332031 39.503906 45.332031 43.914062 C 45.332031 44.585938 45.425781 45.234375 45.582031 45.859375 L 38.683594 48.886719 C 37.253906 46.710938 34.792969 45.269531 32 45.269531 C 29.207031 45.269531 26.746094 46.710938 25.316406 48.886719 L 18.417969 45.859375 C 18.574219 45.234375 18.667969 44.585938 18.667969 43.914062 C 18.667969 39.503906 15.078125 35.914062 10.667969 35.914062 C 6.253906 35.914062 2.667969 39.503906 2.667969 43.914062 C 2.667969 48.328125 6.253906 51.914062 10.667969 51.914062 C 13.457031 51.914062 15.917969 50.476562 17.347656 48.300781 L 24.246094 51.328125 C 24.09375 51.953125 24 52.597656 24 53.269531 C 24 57.683594 27.589844 61.269531 32 61.269531 C 36.410156 61.269531 40 57.683594 40 53.269531 C 40 52.597656 39.90625 51.953125 39.753906 51.328125 L 46.652344 48.300781 C 48.082031 50.472656 50.542969 51.914062 53.332031 51.914062 C 57.746094 51.914062 61.332031 48.328125 61.332031 43.914062 C 61.332031 39.503906 57.746094 35.914062 53.332031 35.914062 Z M 53.332031 35.914062 "/>
</svg>
