<?xml version="1.0" encoding="UTF-8"?>
<svg xmlns="http://www.w3.org/2000/svg" xmlns:xlink="http://www.w3.org/1999/xlink" width="64" height="64" viewBox="0 0 64 64">
<path fill-rule="evenodd" fill="rgb(92.941177%, 44.313726%, 0%)" fill-opacity="1" d="M 40.472656 30.390625 C 34.300781 36.695312 24.324219 37.625 18.910156 37.621094 C 23.921875 33.785156 29.058594 29.226562 33.929688 24.25 C 39.023438 19.054688 43.671875 13.558594 47.558594 8.183594 C 47.578125 13.726562 46.691406 24.039062 40.472656 30.390625 M 24.457031 11.339844 C 24.609375 11.214844 24.769531 11.097656 24.921875 10.976562 C 25.246094 10.722656 25.574219 10.476562 25.910156 10.246094 C 26.09375 10.117188 26.28125 9.996094 26.46875 9.875 C 26.796875 9.664062 27.125 9.464844 27.460938 9.273438 C 27.652344 9.164062 27.839844 9.054688 28.035156 8.953125 C 28.402344 8.753906 28.777344 8.574219 29.15625 8.398438 C 29.3125 8.324219 29.472656 8.242188 29.632812 8.171875 C 30.164062 7.9375 30.699219 7.71875 31.238281 7.519531 C 31.382812 7.46875 31.523438 7.421875 31.667969 7.375 C 32.074219 7.230469 32.480469 7.09375 32.890625 6.972656 C 33.109375 6.90625 33.328125 6.847656 33.542969 6.785156 C 33.882812 6.691406 34.21875 6.601562 34.554688 6.519531 C 34.785156 6.460938 35.011719 6.40625 35.242188 6.355469 C 35.570312 6.28125 35.898438 6.214844 36.222656 6.148438 C 36.445312 6.105469 36.664062 6.0625 36.882812 6.023438 C 37.242188 5.957031 37.59375 5.902344 37.945312 5.851562 C 38.121094 5.824219 38.296875 5.792969 38.46875 5.769531 C 38.96875 5.699219 39.453125 5.644531 39.933594 5.597656 C 40.144531 5.574219 40.347656 5.558594 40.558594 5.539062 C 40.839844 5.515625 41.121094 5.492188 41.394531 5.472656 C 41.617188 5.457031 41.832031 5.445312 42.046875 5.433594 C 42.292969 5.417969 42.535156 5.40625 42.773438 5.398438 C 42.980469 5.386719 43.1875 5.378906 43.386719 5.375 C 43.617188 5.367188 43.835938 5.363281 44.054688 5.359375 C 44.238281 5.359375 44.421875 5.355469 44.597656 5.355469 C 44.929688 5.355469 45.246094 5.359375 45.546875 5.363281 C 45.691406 5.367188 45.820312 5.371094 45.953125 5.375 C 46.070312 5.378906 46.179688 5.382812 46.285156 5.386719 C 42.3125 11.042969 37.417969 16.878906 32.023438 22.386719 C 26.835938 27.679688 21.351562 32.507812 16.054688 36.445312 C 16.054688 36.355469 16.050781 36.253906 16.046875 36.160156 C 16.039062 35.960938 16.03125 35.753906 16.027344 35.53125 C 16.027344 35.371094 16.027344 35.191406 16.023438 35.023438 C 16.023438 34.804688 16.019531 34.589844 16.019531 34.359375 C 16.023438 34.140625 16.027344 33.90625 16.035156 33.679688 C 16.039062 33.457031 16.039062 33.242188 16.046875 33.007812 C 16.0625 32.566406 16.082031 32.101562 16.113281 31.625 C 16.121094 31.449219 16.136719 31.257812 16.152344 31.078125 C 16.175781 30.746094 16.199219 30.417969 16.230469 30.074219 C 16.25 29.855469 16.277344 29.632812 16.300781 29.410156 C 16.335938 29.085938 16.367188 28.765625 16.410156 28.4375 C 16.441406 28.199219 16.480469 27.957031 16.511719 27.71875 C 16.5625 27.390625 16.609375 27.0625 16.667969 26.734375 C 16.707031 26.480469 16.757812 26.230469 16.804688 25.976562 C 16.867188 25.648438 16.933594 25.320312 17.003906 24.984375 C 17.058594 24.726562 17.121094 24.46875 17.179688 24.210938 C 17.261719 23.878906 17.34375 23.546875 17.433594 23.210938 C 17.503906 22.953125 17.578125 22.691406 17.65625 22.429688 C 17.753906 22.097656 17.859375 21.761719 17.96875 21.429688 C 18.058594 21.171875 18.144531 20.914062 18.238281 20.65625 C 18.359375 20.324219 18.492188 19.992188 18.625 19.660156 C 18.726562 19.410156 18.828125 19.15625 18.9375 18.910156 C 19.082031 18.578125 19.242188 18.25 19.40625 17.921875 C 19.523438 17.683594 19.636719 17.441406 19.765625 17.207031 C 19.945312 16.871094 20.140625 16.542969 20.339844 16.214844 C 20.46875 16 20.589844 15.785156 20.726562 15.574219 C 20.957031 15.21875 21.214844 14.875 21.464844 14.53125 C 21.59375 14.363281 21.707031 14.1875 21.839844 14.023438 C 22.234375 13.523438 22.65625 13.039062 23.109375 12.578125 C 23.539062 12.136719 23.992188 11.730469 24.457031 11.339844 M 50.035156 4.054688 C 50.035156 4.042969 50.027344 4.035156 50.027344 4.023438 C 50.007812 3.898438 49.976562 3.773438 49.921875 3.65625 C 49.921875 3.648438 49.917969 3.644531 49.914062 3.640625 C 49.902344 3.613281 49.886719 3.597656 49.875 3.574219 C 49.820312 3.476562 49.757812 3.390625 49.6875 3.308594 C 49.660156 3.28125 49.628906 3.253906 49.597656 3.226562 C 49.523438 3.164062 49.449219 3.109375 49.367188 3.058594 C 49.332031 3.039062 49.296875 3.019531 49.261719 3.003906 C 49.136719 2.945312 49.007812 2.902344 48.875 2.886719 C 48.144531 2.792969 30.890625 0.820312 21.203125 10.710938 C 13.476562 18.597656 13.152344 31.386719 13.378906 36.601562 L 13.34375 36.601562 L 13.34375 61.320312 L 16.011719 61.320312 L 16.011719 40.195312 C 16.804688 40.25 17.847656 40.300781 19.121094 40.300781 C 25.125 40.300781 35.585938 39.191406 42.378906 32.253906 C 52.058594 22.378906 50.121094 4.796875 50.035156 4.054688 "/>
</svg>
