<?xml version="1.0" encoding="UTF-8"?>
<svg xmlns="http://www.w3.org/2000/svg" xmlns:xlink="http://www.w3.org/1999/xlink" width="64" height="64" viewBox="0 0 64 64">
<path fill-rule="evenodd" fill="rgb(92.941177%, 44.313726%, 0%)" fill-opacity="1" d="M 40.191406 50.300781 L 51.464844 50.300781 L 51.464844 35.542969 L 40.191406 35.542969 Z M 12.304688 50.300781 L 23.582031 50.300781 L 23.582031 35.542969 L 12.304688 35.542969 Z M 26.246094 50.300781 L 37.523438 50.300781 L 37.523438 35.542969 L 26.246094 35.542969 Z M 52.796875 32.875 L 10.972656 32.875 C 10.234375 32.875 9.636719 33.472656 9.636719 34.207031 L 9.636719 51.636719 C 9.636719 52.371094 10.234375 52.96875 10.972656 52.96875 L 52.796875 52.96875 C 53.535156 52.96875 54.132812 52.371094 54.132812 51.636719 L 54.132812 34.207031 C 54.132812 33.472656 53.535156 32.875 52.796875 32.875 Z M 40.191406 25.902344 L 51.464844 25.902344 L 51.464844 14.628906 L 40.191406 14.628906 Z M 12.304688 25.902344 L 23.582031 25.902344 L 23.582031 14.628906 L 12.304688 14.628906 Z M 26.246094 25.902344 L 37.523438 25.902344 L 37.523438 14.628906 L 26.246094 14.628906 Z M 52.796875 11.960938 L 10.972656 11.960938 C 10.234375 11.960938 9.636719 12.558594 9.636719 13.292969 L 9.636719 27.238281 C 9.636719 27.972656 10.234375 28.570312 10.972656 28.570312 L 52.796875 28.570312 C 53.535156 28.570312 54.132812 27.972656 54.132812 27.238281 L 54.132812 13.292969 C 54.132812 12.558594 53.535156 11.960938 52.796875 11.960938 Z M 58.4375 52.503906 C 58.4375 55.777344 55.777344 58.4375 52.507812 58.4375 L 11.265625 58.4375 C 7.992188 58.4375 5.332031 55.777344 5.332031 52.503906 L 5.332031 11.265625 C 5.332031 7.992188 7.992188 5.332031 11.265625 5.332031 L 52.507812 5.332031 C 55.777344 5.332031 58.4375 7.992188 58.4375 11.265625 Z M 52.507812 2.667969 L 11.265625 2.667969 C 6.523438 2.667969 2.667969 6.523438 2.667969 11.265625 L 2.667969 52.503906 C 2.667969 57.246094 6.523438 61.101562 11.265625 61.101562 L 52.507812 61.101562 C 57.246094 61.101562 61.101562 57.246094 61.101562 52.503906 L 61.101562 11.265625 C 61.101562 6.523438 57.246094 2.667969 52.507812 2.667969 Z M 52.507812 2.667969 "/>
</svg>
