<svg width="80" height="80" viewBox="0 0 80 80" fill="none" xmlns="http://www.w3.org/2000/svg">
<g clip-path="url(#clip0_177_21680)">
<rect width="80" height="80" fill="#DD344C"/>
<path d="M61.0186 23.831L43.0186 13.353C41.1572 12.269 38.8428 12.269 36.9814 13.353L18.9814 23.831C17.1426 24.9018 16 26.8886 16 29.0166V50.0439C16 52.1718 17.1426 54.1587 18.9814 55.2295L36.9814 65.7075C37.9121 66.2495 38.956 66.5205 40 66.5205C41.0439 66.5205 42.0879 66.2495 43.0185 65.7075L61.0185 55.2295C62.8574 54.1587 64 52.1718 64 50.0439V29.0166C64 26.8886 62.8574 24.9018 61.0186 23.831ZM19.9873 25.5595L37.9873 15.0815C38.6084 14.7202 39.3037 14.5395 40 14.5395C40.6963 14.5395 41.3916 14.7202 42.0127 15.0815L60.0127 25.5595C61.2383 26.2734 62 27.5981 62 29.0166V32.4467L41 44.3164V33.0302C41 32.6748 40.8115 32.3457 40.5039 32.1665C40.1963 31.9868 39.8174 31.9848 39.5078 32.1596L18 44.3162V29.0166C18 27.5981 18.7617 26.2734 19.9873 25.5595ZM60.0127 53.5009L42.0127 63.979C40.7705 64.7016 39.2295 64.7016 37.9873 63.979L19.9873 53.5009C18.7617 52.7871 18 51.4624 18 50.0439V46.6138L39 34.7441V46.0302C39 46.3857 39.1885 46.7148 39.4961 46.894C39.6514 46.9848 39.8262 47.0302 40 47.0302C40.1699 47.0302 40.3389 46.9873 40.4922 46.9008L62 34.7442V50.0439C62 51.4624 61.2383 52.7871 60.0127 53.5009Z" fill="white"/>
</g>
<defs>
<clipPath id="clip0_177_21680">
<rect width="80" height="80" fill="white"/>
</clipPath>
</defs>
</svg>
