<?xml version="1.0" encoding="UTF-8"?>
<svg width="80px" height="80px" viewBox="0 0 80 80" version="1.1" xmlns="http://www.w3.org/2000/svg" xmlns:xlink="http://www.w3.org/1999/xlink">
    <title>Icon-Architecture/64/Arch_AWS-Supply-Chain_64</title>
    <defs>
        <linearGradient x1="0%" y1="100%" x2="100%" y2="0%" id="linearGradient-1">
            <stop stop-color="#BD0816" offset="0%"></stop>
            <stop stop-color="#FF5252" offset="100%"></stop>
        </linearGradient>
    </defs>
    <g id="Icon-Architecture/64/Arch_AWS-Supply-Chain_64" stroke="none" stroke-width="1" fill="none" fill-rule="evenodd">
        <g id="Icon-Architecture-BG/64/Business-Applications" fill="url(#linearGradient-1)">
            <rect id="Rectangle" x="0" y="0" width="80" height="80"></rect>
        </g>
        <g id="Icon-Service/64/AWS-Supply-Chain_64" transform="translate(16.000000, 12.000000)" fill="#FFFFFF">
            <path d="M42,23.9995 L42,37.9995 C42,38.3455 41.821,38.6665 41.528,38.8485 L29,46.6435 L29,44.2885 L40,37.4435 L40,25.7895 L29,32.5585 L29,30.2095 L40.476,23.1475 C40.785,22.9585 41.171,22.9495 41.488,23.1265 C41.804,23.3035 42,23.6375 42,23.9995 L42,23.9995 Z M8,37.4405 L19,44.2095 L19,46.5585 L6.476,38.8515 C6.18,38.6685 6,38.3465 6,37.9995 L6,23.9995 C6,23.6375 6.196,23.3035 6.512,23.1265 C6.829,22.9495 7.215,22.9585 7.524,23.1475 L19,30.2095 L19,32.5585 L8,25.7895 L8,37.4405 Z M35,35.9755 L24.489,41.8715 C24.337,41.9575 24.169,41.9995 24,41.9995 C23.828,41.9995 23.656,41.9555 23.502,41.8665 L13,35.8275 L13,33.5215 L24.006,39.8495 L35,33.6825 L35,35.9755 Z M25,53.2195 L25,46.9995 L23,46.9995 L23,53.2195 L2,40.4375 L2,15.6615 L23,27.5815 L23,31.9995 L25,31.9995 L25,27.5815 L46,15.6615 L46,40.4375 L25,53.2195 Z M24,2.1465 L44.968,13.9475 L24,25.8495 L3.032,13.9475 L24,2.1465 Z M47.49,13.0725 L24.49,0.1275 C24.186,-0.0425 23.814,-0.0425 23.51,0.1275 L0.51,13.0725 C0.194,13.2495 0,13.5825 0,13.9435 L0,40.9995 C0,41.3485 0.182,41.6725 0.48,41.8535 L23.48,55.8535 C23.64,55.9505 23.82,55.9995 24,55.9995 C24.18,55.9995 24.36,55.9505 24.52,55.8535 L47.52,41.8535 C47.818,41.6725 48,41.3485 48,40.9995 L48,13.9435 C48,13.5825 47.806,13.2495 47.49,13.0725 L47.49,13.0725 Z" id="Fill-1"></path>
        </g>
    </g>
</svg>