<?xml version="1.0" encoding="UTF-8"?>
<svg width="80px" height="80px" viewBox="0 0 80 80" version="1.1" xmlns="http://www.w3.org/2000/svg" xmlns:xlink="http://www.w3.org/1999/xlink">
    <title>Icon-Architecture/64/Arch_Amazon-Chime-SDK_64</title>
    <defs>
        <linearGradient x1="0%" y1="100%" x2="100%" y2="0%" id="linearGradient-1">
            <stop stop-color="#BD0816" offset="0%"></stop>
            <stop stop-color="#FF5252" offset="100%"></stop>
        </linearGradient>
    </defs>
    <g id="Icon-Architecture/64/Arch_Amazon-Chime-SDK_64" stroke="none" stroke-width="1" fill="none" fill-rule="evenodd">
        <g id="Rectangle" fill="url(#linearGradient-1)">
            <rect x="0" y="0" width="80" height="80"></rect>
        </g>
        <g id="Icon-Service/64/Amazon-Chime-SDK_64" transform="translate(8.000000, 8.000000)" fill="#FFFFFF">
            <path d="M34.999,40.356 L30.741,38 L26.999,38 L26.999,36 L29.999,36 L29.999,32.544 L24.39,28.909 L20.999,30.616 L20.999,37.465 L26.554,41.168 L25.444,42.832 L19.444,38.832 C19.166,38.647 18.999,38.335 18.999,38 L18.999,30.618 L16.03,29.134 L9.999,32.581 L9.999,36.382 L12.927,37.846 L14.999,36.465 L14.999,33 L16.999,33 L16.999,37 C16.999,37.335 16.832,37.647 16.554,37.832 L13.999,39.535 L13.999,43 C13.999,43.335 13.832,43.647 13.554,43.832 L10.554,45.832 L9.444,44.168 L11.999,42.465 L11.999,39.618 L9.059,38.148 L5.999,40.096 L5.999,46.563 L9.407,48.087 C9.768,48.248 9.999,48.606 9.999,49 L9.999,53.485 L16.091,57.836 L18.999,56.382 L18.999,48.135 L14.64,51.768 L13.358,50.232 L18.999,45.531 L18.999,43.535 L16.444,41.832 L17.554,40.168 L20.554,42.168 C20.832,42.354 20.999,42.666 20.999,43 L20.999,51 L25.999,51 L25.999,53 L20.999,53 L20.999,56.323 L24.862,57.869 L30.999,53.485 L30.999,49.481 L26.374,45.781 L27.624,44.219 L32.172,47.858 L34.999,46.747 L34.999,40.356 Z M36.999,39.766 L36.999,47.429 C36.999,47.84 36.747,48.209 36.364,48.359 L32.999,49.682 L32.999,54 C32.999,54.323 32.843,54.626 32.58,54.814 L25.58,59.814 C25.408,59.937 25.204,60 24.999,60 C24.874,60 24.747,59.977 24.628,59.929 L20.045,58.095 L16.446,59.895 C16.113,60.06 15.719,60.027 15.418,59.814 L8.418,54.814 C8.155,54.626 7.999,54.323 7.999,54 L7.999,49.648 L4.592,48.123 C4.231,47.962 4,47.605 4,47.21 L4,39.547 C4,39.206 4.175,38.888 4.463,38.704 L7.999,36.451 L7.999,32 C7.999,31.641 8.191,31.31 8.503,31.132 L15.503,27.132 C15.794,26.966 16.148,26.957 16.446,27.106 L19.997,28.881 L24.002,26.865 C24.321,26.705 24.698,26.726 24.996,26.918 L31.543,31.161 C31.827,31.345 31.999,31.661 31.999,32 L31.999,36.41 L36.483,38.891 C36.802,39.067 36.999,39.402 36.999,39.766 L36.999,39.766 Z M23.999,24 L25.999,24 L25.999,10 L23.999,10 L23.999,24 Z M30.999,27 L32.999,27 L32.999,14 L30.999,14 L30.999,27 Z M37.999,32 L39.999,32 L39.999,10 L37.999,10 L37.999,32 Z M51.999,22 L53.999,22 L53.999,14 L51.999,14 L51.999,22 Z M16.999,23 L18.999,23 L18.999,16 L16.999,16 L16.999,23 Z M44.999,26 L46.999,26 L46.999,16 L44.999,16 L44.999,26 Z M44.999,50 C44.88,50 44.76,49.979 44.644,49.935 C44.256,49.787 43.999,49.415 43.999,49 L43.999,41 L38.999,41 L38.999,39 L44.999,39 C45.552,39 45.999,39.448 45.999,40 L45.999,46.37 L52.252,39.335 C52.441,39.122 52.714,39 52.999,39 L55.999,39 C57.298,39 57.999,37.417 57.999,35.927 L57.999,8.637 C57.999,7.183 56.893,6 55.533,6 L14.696,6 C14.276,6 12.999,6 12.999,8.637 L12.999,26.857 L10.999,26.857 L10.999,8.637 C10.999,5.733 12.381,4 14.696,4 L55.533,4 C57.996,4 59.999,6.08 59.999,8.637 L59.999,35.927 C59.999,38.386 58.597,41 55.999,41 L53.448,41 L45.746,49.665 C45.553,49.882 45.279,50 44.999,50 L44.999,50 Z" id="Fill-3"></path>
        </g>
    </g>
</svg>