<?xml version="1.0" encoding="UTF-8"?>
<svg width="80px" height="80px" viewBox="0 0 80 80" version="1.1" xmlns="http://www.w3.org/2000/svg" xmlns:xlink="http://www.w3.org/1999/xlink">
    <title>Icon-Architecture/64/Arch_AWS-Wickr_64</title>
    <defs>
        <linearGradient x1="0%" y1="100%" x2="100%" y2="0%" id="linearGradient-1">
            <stop stop-color="#BD0816" offset="0%"></stop>
            <stop stop-color="#FF5252" offset="100%"></stop>
        </linearGradient>
    </defs>
    <g id="Icon-Architecture/64/Arch_AWS-Wickr_64" stroke="none" stroke-width="1" fill="none" fill-rule="evenodd">
        <g id="Icon-Architecture-BG/64/Business-Applications" fill="url(#linearGradient-1)">
            <rect id="Rectangle" x="0" y="0" width="80" height="80"></rect>
        </g>
        <g id="Icon-Service/64/AWS-Wickr_64" transform="translate(14.000000, 12.000000)" fill="#FFFFFF">
            <path d="M19,13 L33,13 L33,7.25 C33,4.502 30.26,2 27.25,2 L24.75,2 C21.74,2 19,4.502 19,7.25 L19,13 Z M38,15 L14,15 C13.448,15 13,15.449 13,16 L13,36 C13,36.551 13.448,37 14,37 L38,37 C38.552,37 39,36.551 39,36 L39,16 C39,15.449 38.552,15 38,15 L38,15 Z M17,13 L17,7.25 C17,3.388 20.621,0 24.75,0 L27.25,0 C31.379,0 35,3.388 35,7.25 L35,13 L38,13 C39.654,13 41,14.346 41,16 L41,36 C41,37.654 39.654,39 38,39 L14,39 C12.346,39 11,37.654 11,36 L11,16 C11,14.346 12.346,13 14,13 L17,13 Z M25.207,32.457 L36.457,21.207 L35.043,19.793 L23.793,31.043 L25.207,32.457 Z M28.957,21.207 L27.543,19.793 L16.293,31.043 L17.707,32.457 L28.957,21.207 Z M52,13.314 L52,43.188 C52,45.722 49.909,47.943 47.526,47.943 L23.046,47.998 L23,55.006 C22.997,55.41 22.753,55.772 22.38,55.925 C22.257,55.976 22.128,56 22,56 C21.74,56 21.484,55.898 21.293,55.707 L13.583,47.998 L4.565,47.944 C1.917,47.944 0.063,46.355 0.063,44.081 L0,13.066 C0,10.747 1.93,9 4.488,9 L15,9 L15,11 L4.488,11 C3.252,11 2,11.709 2,13.064 L2.063,44.079 C2.063,45.854 4.152,45.944 4.571,45.944 L14.006,46 C14.27,46.001 14.521,46.107 14.707,46.293 L21.016,52.602 L21.053,46.994 C21.057,46.444 21.502,46.001 22.051,46 L47.524,45.943 C48.92,45.943 50,44.462 50,43.188 L50,13.314 C50,12.038 48.884,11 47.512,11 L37,11 L37,9 L47.512,9 C49.986,9 52,10.935 52,13.314 L52,13.314 Z" id="Fill-7"></path>
        </g>
    </g>
</svg>