<svg width="80" height="80" viewBox="0 0 80 80" fill="none" xmlns="http://www.w3.org/2000/svg">
<rect width="80" height="80" fill="#01A88D"/>
<path d="M25.4284 46.0212L12.6348 40.935C12.2539 40.7837 12.0039 40.4155 12.0039 40.0054C12.0039 39.5957 12.2539 39.2275 12.6348 39.0762L30.5615 31.9648L19.4951 20.8984L20.9092 19.4844L33.0518 31.6264C33.29 31.8642 33.3926 32.206 33.3242 32.5361C33.2559 32.8657 33.0264 33.1387 32.7139 33.2632L15.7129 40.0068L26.9681 44.4814L25.4284 46.0212ZM35.5195 26.9803L40.0029 15.7007L46.7461 32.7007C46.8701 33.0137 47.1436 33.2432 47.4736 33.3115C47.541 33.3252 47.6084 33.332 47.6758 33.332C47.9385 33.332 48.1934 33.2285 48.3828 33.0391L60.5254 20.897L59.1113 19.4829L48.0439 30.5493L40.9336 12.6226C40.7822 12.2417 40.4141 11.9912 40.0039 11.9912C39.5947 11.9912 39.2256 12.2412 39.0742 12.6216L33.9788 25.4396L35.5195 26.9803ZM67.375 39.0727L54.5577 33.9775L53.0179 35.5174L64.2959 40.001L47.2959 46.7446C46.9834 46.8691 46.7539 47.1421 46.6855 47.4717C46.6172 47.8018 46.7197 48.1436 46.958 48.3813L59.0996 60.5234L60.5137 59.1094L49.4482 48.043L67.375 40.9316C67.7559 40.7803 68.0059 40.4121 68.0059 40.0024C68.0059 39.5923 67.7559 39.2241 67.375 39.0727ZM44.4851 53.0237L40.0049 64.2949L33.2617 47.2949C33.1377 46.9819 32.8643 46.7524 32.5342 46.6841C32.2031 46.6162 31.8633 46.7183 31.625 46.9565L19.4824 59.0986L20.8965 60.5127L31.9639 49.4463L39.0742 67.373C39.2256 67.7539 39.5937 68.0044 40.0039 68.0044C40.4131 68.0044 40.7822 67.7544 40.9336 67.374L46.0259 54.5644L44.4851 53.0237Z" fill="white"/>
</svg>
