<svg width="80" height="80" viewBox="0 0 80 80" fill="none" xmlns="http://www.w3.org/2000/svg">
<rect width="80" height="80" fill="#01A88D"/>
<path d="M66 25.8569V37H64V27.6354L56.6279 31.731L55.6572 29.9829L63.0333 25.8851L55.5039 21.5825L56.4961 19.8462L65.4961 24.9888C65.8076 25.1665 66 25.4981 66 25.8569ZM64 52.3646L56.6279 48.269L55.6572 50.0171L63.0333 54.1149L55.5039 58.4175L56.4961 60.1538L65.4961 55.0112C65.8076 54.8335 66 54.502 66 54.1431V43H64L64 52.3646ZM38.4746 44.7075C38.1797 44.5254 38 44.2036 38 43.8569V36.1431C38 35.7964 38.1797 35.4746 38.4746 35.2925C38.7686 35.1103 39.1367 35.0942 39.4473 35.2485L47.1611 39.1055C47.5 39.2749 47.7139 39.6211 47.7139 40C47.7139 40.3789 47.5 40.7251 47.1611 40.8945L39.4473 44.7514C39.3057 44.8218 39.1533 44.8569 39 44.8569C38.8174 44.8569 38.6348 44.8066 38.4746 44.7075ZM40 42.2388L44.4775 40L40 37.7612V42.2388ZM41 14.7233V23H43V14.7233L50.5039 19.0112L51.4961 17.2749L42.4961 12.1318C42.1895 11.9561 41.8106 11.9561 41.5039 12.1318L32.5039 17.2749L33.4961 19.0112L41 14.7233ZM43 65.2767V57H41V65.2767L33.4961 60.9888L32.5039 62.7251L41.5039 67.8682C41.6572 67.9561 41.8291 68 42 68C42.1709 68 42.3428 67.9561 42.4961 67.8682L51.4961 62.7251L50.5039 60.9888L43 65.2767ZM50.7139 26H34V28H50.7139C50.8721 28 51 28.1279 51 28.2856V51.7144C51 51.8721 50.8721 52 50.7139 52H34V54H50.7139C51.9746 54 53 52.9746 53 51.7144V28.2856C53 27.0254 51.9746 26 50.7139 26ZM33 33.2856V31.2856C28.4043 31.2856 19.8574 26.5127 19.8574 22H17.8574C17.8574 27.8193 27.3037 33.2856 33 33.2856ZM34.2861 39C26.9355 39 16 36.5269 16 29.7144H14C14 35.112 19.0972 38.4614 25.4899 40C19.0972 41.5386 14 44.888 14 50.2856H16C16 43.4731 26.9356 41 34.2861 41V39ZM33 46.7144C27.3037 46.7144 17.8574 52.1807 17.8574 58H19.8574C19.8574 53.4873 28.4043 48.7144 33 48.7144V46.7144Z" fill="white"/>
</svg>
