<svg width="80" height="80" viewBox="0 0 80 80" fill="none" xmlns="http://www.w3.org/2000/svg">
<g clip-path="url(#clip0_99_177)">
<rect width="80" height="80" fill="#01A88D"/>
<path d="M62.9961 29.5693C62.3662 29.207 61.6182 29.2099 60.9922 29.5761L51.4961 35.1172C51.1885 35.2964 51 35.6255 51 35.9809V42.3628L47.5527 44.0864C47.2139 44.2558 47 44.602 47 44.9809V48.4809L44 50.7309L41 48.4814V31.4805L44 29.2309L47 31.4809V35.3809L49 34.2309V30.9809C49 30.666 48.8516 30.3696 48.5996 30.1811L44.5996 27.1811C44.2441 26.9145 43.7559 26.9145 43.4004 27.1811L40 29.7309L36.5996 27.1811C36.2695 26.9321 35.8213 26.9141 35.4697 27.1328L31.4697 29.6328C31.1777 29.8159 31 30.1362 31 30.4809V34.3628L27.5527 36.0864C27.2139 36.2558 27 36.602 27 36.9809V43.3872L18 48.2964V28.791C18 27.4048 18.7363 26.0952 19.9199 25.374L37.7285 14.5342C39.0859 13.7065 40.8037 13.7637 42.1035 14.6738L56.8277 24.981H52V26.981H60C60.5527 26.981 61 26.5332 61 25.981V17.981H59V24.0604L43.25 13.0352C41.2988 11.669 38.7236 11.5869 36.6894 12.8257L18.8808 23.666C17.1035 24.7476 16 26.7114 16 28.791V48.2964C16 49.0093 16.3662 49.6524 16.9785 50.0161C17.2959 50.2046 17.6475 50.2988 17.999 50.2988C18.3271 50.2988 18.6553 50.2168 18.957 50.0522L28.4785 44.8589C28.7998 44.6836 29 44.3467 29 43.981V37.5991L32.4473 35.8755C32.7861 35.7061 33 35.3599 33 34.981V31.0352L35.9482 29.1924L39 31.4805V48.4814L36 50.731L33 48.481V44.581L31 45.681V48.981C31 49.2959 31.1484 49.5923 31.4004 49.7808L35.4004 52.7808C35.7558 53.0474 36.2441 53.0474 36.5996 52.7808L40 50.231L43.4004 52.7808C43.7558 53.0474 44.2441 53.0474 44.5996 52.7808L48.5996 49.7808C48.8515 49.5923 49 49.2959 49 48.981V45.5991L52.4473 43.8755C52.7861 43.7061 53 43.3599 53 42.981V36.5552L62 31.3037V51.1709C62 52.5571 61.2637 53.8667 60.0801 54.5879L42.2715 65.4277C40.9131 66.2534 39.1963 66.1982 37.8965 65.2881L23.1722 54.981H28V52.981H20C19.4473 52.981 19 53.4287 19 53.981V61.981H21V55.9016L36.75 66.9268C37.7803 67.6479 38.9844 68.0112 40.1914 68.0112C41.2695 68.0112 42.3506 67.7207 43.3105 67.1362L61.1191 56.2959C62.8965 55.2144 64 53.2505 64 51.1709V31.3037C64 30.5786 63.625 29.9301 62.9961 29.5693Z" fill="white"/>
</g>
<defs>
<clipPath id="clip0_99_177">
<rect width="80" height="80" fill="white"/>
</clipPath>
</defs>
</svg>
