<?xml version="1.0" encoding="UTF-8"?>
<svg xmlns="http://www.w3.org/2000/svg" xmlns:xlink="http://www.w3.org/1999/xlink" width="64" height="64" viewBox="0 0 64 64">
<path fill-rule="evenodd" fill="rgb(78.823531%, 14.509805%, 81.960785%)" fill-opacity="1" d="M 50.484375 48.160156 L 12.144531 48.160156 C 11.179688 48.160156 10.417969 47.976562 9.828125 47.605469 C 7.777344 46.308594 5.332031 43.816406 5.332031 39.296875 C 5.332031 33.289062 9.511719 31.320312 12.007812 30.679688 C 12.621094 30.519531 13.042969 29.945312 13.003906 29.308594 L 12.902344 27.621094 C 12.902344 22.785156 16.230469 17.582031 20.480469 15.777344 C 22.394531 14.964844 24.160156 14.640625 25.765625 14.640625 C 30.324219 14.640625 33.546875 17.257812 34.953125 18.671875 C 36.503906 20.234375 37.714844 22.230469 38.550781 24.609375 C 38.714844 25.074219 39.125 25.410156 39.613281 25.484375 C 40.109375 25.550781 40.589844 25.351562 40.882812 24.953125 C 42.097656 23.308594 44.183594 22.625 46.078125 23.242188 C 48.230469 23.949219 49.460938 26.082031 49.457031 29.011719 C 49.351562 29.726562 49.835938 30.398438 50.550781 30.519531 C 52.992188 30.941406 58.667969 32.644531 58.667969 39.386719 C 58.667969 47.203125 51.199219 48.09375 50.484375 48.160156 Z M 52.089844 28.121094 C 51.808594 24.433594 49.917969 21.699219 46.910156 20.710938 C 44.625 19.957031 42.167969 20.40625 40.289062 21.808594 C 39.390625 19.875 38.234375 18.191406 36.84375 16.792969 C 32.089844 12.007812 25.582031 10.714844 19.4375 13.320312 C 14.191406 15.550781 10.234375 21.695312 10.238281 27.699219 L 10.28125 28.417969 C 7.375 29.425781 2.667969 32.164062 2.667969 39.296875 C 2.667969 45.335938 6.261719 48.507812 8.402344 49.859375 C 9.433594 50.507812 10.65625 50.824219 12.144531 50.828125 L 50.539062 50.828125 C 50.574219 50.828125 50.605469 50.824219 50.636719 50.824219 C 54.335938 50.554688 61.332031 47.816406 61.332031 39.386719 C 61.332031 32.742188 56.742188 29.277344 52.089844 28.121094 Z M 35.707031 34.714844 C 35.136719 35.035156 34.511719 35.285156 33.828125 35.460938 C 33.140625 35.640625 32.460938 35.730469 31.789062 35.730469 C 30.613281 35.730469 29.722656 35.40625 29.121094 34.753906 C 28.515625 34.105469 28.210938 33.160156 28.210938 31.914062 C 28.210938 30.742188 28.527344 29.804688 29.160156 29.101562 C 29.789062 28.398438 30.628906 28.050781 31.679688 28.050781 C 34.308594 28.050781 35.652344 30.148438 35.707031 34.34375 Z M 31.734375 25.863281 C 30.507812 25.863281 29.421875 26.132812 28.480469 26.675781 C 27.535156 27.21875 26.8125 27.957031 26.304688 28.890625 C 25.800781 29.820312 25.546875 30.882812 25.546875 32.074219 C 25.546875 33.871094 26.046875 35.285156 27.054688 36.316406 C 28.058594 37.347656 29.421875 37.863281 31.144531 37.863281 C 31.964844 37.863281 32.765625 37.742188 33.546875 37.503906 C 34.328125 37.261719 35.039062 36.929688 35.679688 36.503906 C 35.554688 38.707031 35.054688 40.332031 34.175781 41.382812 C 33.292969 42.429688 32 42.957031 30.292969 42.957031 C 29.066406 42.957031 27.722656 42.625 26.265625 41.96875 L 26.265625 43.996094 C 27.441406 44.757812 28.90625 45.140625 30.667969 45.140625 C 33.121094 45.140625 35.011719 44.242188 36.347656 42.449219 C 37.679688 40.652344 38.347656 38.085938 38.347656 34.742188 C 38.347656 31.84375 37.78125 29.640625 36.652344 28.128906 C 35.523438 26.617188 33.882812 25.863281 31.734375 25.863281 Z M 31.734375 25.863281 "/>
</svg>
