<?xml version="1.0" encoding="UTF-8"?>
<svg xmlns="http://www.w3.org/2000/svg" xmlns:xlink="http://www.w3.org/1999/xlink" width="64" height="64" viewBox="0 0 64 64">
<path fill-rule="evenodd" fill="rgb(0.392157%, 65.882353%, 55.294118%)" fill-opacity="1" d="M 33.332031 56.347656 L 33.332031 40.765625 L 46.667969 32.988281 L 46.667969 48.566406 Z M 17.332031 32.992188 L 30.667969 40.765625 L 30.667969 56.34375 L 17.332031 48.566406 Z M 32.003906 22.878906 L 45.355469 30.664062 L 32 38.457031 L 18.667969 30.679688 Z M 48.671875 29.515625 L 32.675781 20.179688 C 32.261719 19.9375 31.746094 19.9375 31.332031 20.179688 L 15.445312 29.472656 C 15.101562 29.632812 14.828125 29.941406 14.71875 30.328125 C 14.667969 30.496094 14.65625 30.667969 14.675781 30.835938 L 14.675781 49.332031 C 14.675781 49.808594 14.925781 50.246094 15.335938 50.484375 L 31.332031 59.816406 C 31.539062 59.9375 31.773438 60 32.003906 60 C 32.234375 60 32.46875 59.9375 32.675781 59.816406 L 48.671875 50.484375 C 49.082031 50.246094 49.332031 49.808594 49.332031 49.332031 L 49.332031 30.667969 C 49.332031 30.191406 49.082031 29.753906 48.671875 29.515625 Z M 17.347656 9.332031 C 17.347656 10.070312 16.753906 10.667969 16.015625 10.667969 C 15.28125 10.667969 14.683594 10.070312 14.683594 9.332031 C 14.683594 8.597656 15.28125 8 16.015625 8 C 16.753906 8 17.347656 8.597656 17.347656 9.332031 Z M 13.347656 9.332031 C 13.347656 10.070312 12.753906 10.667969 12.015625 10.667969 C 11.28125 10.667969 10.683594 10.070312 10.683594 9.332031 C 10.683594 8.597656 11.28125 8 12.015625 8 C 12.753906 8 13.347656 8.597656 13.347656 9.332031 Z M 9.347656 9.332031 C 9.347656 10.070312 8.753906 10.667969 8.015625 10.667969 C 7.28125 10.667969 6.683594 10.070312 6.683594 9.332031 C 6.683594 8.597656 7.28125 8 8.015625 8 C 8.753906 8 9.347656 8.597656 9.347656 9.332031 Z M 53.332031 41.332031 L 56 41.332031 L 56 17.332031 L 53.332031 17.332031 Z M 5.332031 12 L 5.332031 6.667969 L 58.667969 6.667969 L 58.667969 12 Z M 58.667969 4 L 5.332031 4 C 3.863281 4 2.667969 5.195312 2.667969 6.667969 L 2.667969 44 C 2.667969 45.46875 3.867188 46.667969 5.335938 46.667969 L 12 46.667969 L 12 44 L 5.332031 44 L 5.332031 14.667969 L 58.667969 14.667969 L 58.667969 44 L 52 44 L 52 46.667969 L 58.667969 46.667969 C 60.136719 46.667969 61.332031 45.46875 61.332031 44 L 61.332031 6.667969 C 61.332031 5.195312 60.136719 4 58.667969 4 Z M 58.667969 4 "/>
</svg>
