<?xml version="1.0" encoding="UTF-8"?>
<svg xmlns="http://www.w3.org/2000/svg" xmlns:xlink="http://www.w3.org/1999/xlink" width="64" height="64" viewBox="0 0 64 64">
<path fill-rule="evenodd" fill="rgb(0.392157%, 65.882355%, 55.29412%)" fill-opacity="1" d="M 61.332031 29.929688 C 61.332031 39.230469 55.945312 41.324219 54.058594 41.324219 L 52 41.324219 L 52 38.65625 L 54.058594 38.65625 C 55.03125 38.65625 58.667969 37.175781 58.667969 29.929688 C 58.667969 23.230469 52.992188 21.535156 50.550781 21.117188 C 49.835938 20.992188 49.351562 20.320312 49.457031 19.601562 C 49.460938 16.699219 48.230469 14.582031 46.089844 13.875 C 44.191406 13.246094 42.097656 13.933594 40.882812 15.574219 C 40.585938 15.972656 40.105469 16.175781 39.613281 16.101562 C 39.125 16.027344 38.71875 15.691406 38.554688 15.226562 C 37.71875 12.863281 36.507812 10.875 34.953125 9.324219 C 33.054688 7.421875 27.839844 3.324219 20.476562 6.441406 C 16.230469 8.234375 12.902344 13.410156 12.902344 18.222656 L 13.003906 19.902344 C 13.042969 20.539062 12.621094 21.113281 12.003906 21.273438 C 9.511719 21.910156 5.332031 23.871094 5.332031 29.84375 C 5.332031 34.339844 7.777344 36.816406 9.824219 38.105469 C 10.449219 38.496094 11.082031 38.65625 12 38.65625 L 12 41.324219 C 10.589844 41.324219 9.449219 41.015625 8.40625 40.363281 C 6.261719 39.015625 2.667969 35.859375 2.667969 29.84375 C 2.667969 22.738281 7.375 20.011719 10.28125 19.007812 L 10.238281 18.300781 C 10.234375 12.324219 14.191406 6.203125 19.4375 3.984375 C 25.582031 1.386719 32.085938 2.679688 36.839844 7.4375 C 38.234375 8.832031 39.390625 10.507812 40.289062 12.433594 C 42.171875 11.03125 44.632812 10.585938 46.925781 11.339844 C 49.921875 12.332031 51.808594 15.050781 52.089844 18.714844 C 56.742188 19.863281 61.332031 23.316406 61.332031 29.929688 Z M 33.332031 57.671875 L 33.332031 42.089844 L 46.667969 34.3125 L 46.667969 49.890625 Z M 17.339844 34.316406 L 30.667969 42.089844 L 30.667969 57.667969 L 17.339844 49.890625 Z M 32.003906 24.203125 L 45.355469 31.992188 L 32 39.78125 L 18.667969 32.003906 Z M 48.671875 30.839844 L 32.675781 21.507812 C 32.261719 21.261719 31.746094 21.265625 31.332031 21.507812 L 15.445312 30.796875 C 15.101562 30.960938 14.828125 31.265625 14.71875 31.652344 C 14.667969 31.820312 14.65625 31.996094 14.675781 32.164062 L 14.675781 50.65625 C 14.675781 51.132812 14.925781 51.570312 15.335938 51.808594 L 31.332031 61.144531 C 31.539062 61.265625 31.773438 61.324219 32.003906 61.324219 C 32.234375 61.324219 32.46875 61.265625 32.675781 61.144531 L 48.671875 51.808594 C 49.082031 51.570312 49.332031 51.132812 49.332031 50.65625 L 49.332031 31.992188 C 49.332031 31.519531 49.082031 31.078125 48.671875 30.839844 Z M 48.671875 30.839844 "/>
</svg>
