<?xml version="1.0" encoding="UTF-8"?>
<svg xmlns="http://www.w3.org/2000/svg" xmlns:xlink="http://www.w3.org/1999/xlink" width="64" height="64" viewBox="0 0 64 64">
<path fill-rule="evenodd" fill="rgb(0.392157%, 65.882355%, 55.29412%)" fill-opacity="1" d="M 6.707031 14.054688 L 17.363281 8.171875 L 22.566406 10.773438 L 11.988281 17.117188 Z M 10.667969 34.839844 L 5.332031 31.285156 L 5.332031 16.34375 L 10.667969 19.433594 Z M 26.019531 11.808594 C 26.4375 11.558594 26.683594 11.101562 26.664062 10.613281 C 26.648438 10.128906 26.363281 9.691406 25.929688 9.472656 L 17.929688 5.472656 C 17.539062 5.277344 17.074219 5.289062 16.6875 5.5 L 3.355469 12.859375 L 3.355469 12.863281 C 3.351562 12.867188 3.34375 12.867188 3.335938 12.871094 C 2.921875 13.109375 2.667969 13.550781 2.667969 14.027344 L 2.667969 32 C 2.667969 32.445312 2.890625 32.859375 3.261719 33.109375 L 11.261719 38.441406 C 11.484375 38.589844 11.742188 38.667969 12 38.667969 C 12.214844 38.667969 12.433594 38.613281 12.628906 38.507812 C 13.0625 38.277344 13.332031 37.824219 13.332031 37.332031 L 13.332031 19.421875 Z M 45.09375 35.554688 L 48.542969 37.578125 L 47.195312 39.878906 L 43.742188 37.855469 Z M 50.847656 38.929688 L 54.289062 40.964844 L 52.933594 43.257812 L 49.488281 41.226562 Z M 20 44.621094 L 20 36.648438 L 23.488281 33.925781 L 21.847656 31.824219 L 20 33.265625 L 20 23.6875 L 26.9375 27.847656 L 24.675781 29.617188 L 26.316406 31.71875 L 29.386719 29.320312 L 37.332031 34.085938 L 37.332031 56.175781 Z M 28 17.289062 L 28 18.667969 L 30.667969 18.667969 L 30.667969 15.6875 L 38.6875 10.875 L 57.28125 21.421875 L 38.691406 31.792969 L 30.667969 26.976562 L 30.667969 22.667969 L 28 22.667969 L 28 25.378906 L 21.257812 21.332031 Z M 56.585938 42.320312 L 55.230469 44.617188 L 57.390625 45.890625 L 40 56.3125 L 40 35.660156 L 41.441406 36.507812 L 42.792969 34.203125 L 41.351562 33.359375 L 58.667969 23.699219 L 58.667969 43.546875 Z M 61.332031 21.429688 C 61.332031 20.953125 61.074219 20.507812 60.65625 20.273438 L 39.324219 8.171875 C 38.90625 7.9375 38.394531 7.941406 37.980469 8.1875 L 17.980469 20.1875 C 17.578125 20.429688 17.332031 20.863281 17.332031 21.332031 L 17.332031 45.332031 C 17.332031 45.777344 17.554688 46.195312 17.925781 46.441406 L 37.925781 59.777344 C 38.148438 59.925781 38.40625 60 38.667969 60 C 38.882812 60 39.097656 59.949219 39.296875 59.84375 C 39.316406 59.832031 39.328125 59.816406 39.347656 59.804688 L 39.351562 59.808594 L 60.683594 47.027344 C 61.085938 46.785156 61.332031 46.351562 61.332031 45.882812 Z M 61.332031 21.429688 "/>
</svg>
