<svg width="80" height="80" viewBox="0 0 80 80" fill="none" xmlns="http://www.w3.org/2000/svg">
<rect width="80" height="80" fill="#01A88D"/>
<path fill-rule="evenodd" clip-rule="evenodd" d="M62.987 49.3052L60.389 47.8052L59.389 49.5372L61.987 51.0372L62.987 49.3052ZM37.692 30.5332H39.692V26.6302H37.692V30.5332ZM30.178 44.6872L31.309 46.3372L35.514 43.4512L34.383 41.8022L30.178 44.6872ZM32.787 19.1112L26.042 16.1132L14.992 22.0632L21.022 25.8192L32.787 19.1112ZM20 27.5382L14 23.8012V41.4462L20 45.1962V27.5382ZM35.495 19.8682L22 27.5632V47.0002C22 47.3642 21.802 47.6982 21.484 47.8742C21.334 47.9582 21.167 48.0002 21 48.0002C20.815 48.0002 20.632 47.9492 20.469 47.8482L12.469 42.8482C12.177 42.6652 12 42.3452 12 42.0002V22.0002C12 21.6372 12.197 21.3022 12.514 21.1252C12.518 21.1232 12.523 21.1232 12.527 21.1202L12.526 21.1192L25.526 14.1192C25.799 13.9722 26.124 13.9612 26.406 14.0862L35.406 18.0862C35.751 18.2392 35.979 18.5732 35.999 18.9502C36.017 19.3262 35.823 19.6822 35.495 19.8682ZM58.657 46.8052L56.088 45.2912L55.058 47.0052L57.657 48.5372L58.657 46.8052ZM66 31.1302L48.966 41.0142L50.087 41.6872L49.057 43.4022L48 42.7662V63.2172L65.042 52.8012L63.719 52.0372L64.719 50.3052L66 51.0442V31.1302ZM64.994 29.4022L46.991 19.1462L39.692 23.1602V25.0692H37.692V24.2602L29.007 29.0372L37.692 34.2492V32.0942H39.692V35.4492L47.008 39.8392L64.994 29.4022ZM46 41.5662L39.692 37.7822V40.0582C39.692 40.3882 39.53 40.6972 39.258 40.8832L37.196 42.2972L36.065 40.6482L37.692 39.5322V36.5812L28 30.7662V46.1822L28.496 45.8422L29.627 47.4922L28 48.6082V52.4332L46 63.2342V41.5662ZM68 29.3942V52.7762C68 53.1242 67.818 53.4482 67.521 53.6292L47.521 65.8532L47.519 65.8502C47.509 65.8562 47.503 65.8652 47.493 65.8702C47.34 65.9572 47.17 66.0002 47 66.0002C46.822 66.0002 46.643 65.9522 46.485 65.8572L26.485 53.8572C26.184 53.6772 26 53.3512 26 53.0002V29.0002H26.002C26.002 28.9932 26 28.9882 26 28.9812C26.007 28.6232 26.204 28.2962 26.518 28.1242L46.518 17.1242C46.822 16.9552 47.193 16.9592 47.495 17.1312L67.495 28.5252C67.805 28.7022 67.999 29.0322 68 29.3902V29.3942ZM53.343 45.9762L50.771 44.4312L51.8 42.7172L54.373 44.2612L53.343 45.9762Z" fill="white"/>
</svg>
