<?xml version="1.0" encoding="UTF-8"?>
<svg width="80px" height="80px" viewBox="0 0 80 80" version="1.1" xmlns="http://www.w3.org/2000/svg" xmlns:xlink="http://www.w3.org/1999/xlink">
    <title>Icon-Architecture/64/Arch_Amazon-WorkSpaces-Thin-Client_64</title>
    <g id="Icon-Architecture/64/Arch_Amazon-WorkSpaces-Thin-Client_64" stroke="none" stroke-width="1" fill="none" fill-rule="evenodd">
        <g id="Icon-Architecture-BG/64/End-User-Computing" fill="#01A88D">
            <rect id="Rectangle" x="0" y="0" width="80" height="80"></rect>
        </g>
        <g id="Icon-Service/64/Amazon-WorkSpaces-Thin-Client_64" transform="translate(12.000000, 12.000000)" fill="#FFFFFF">
            <path d="M0,23.174 C0,18.64 3.394,14.893 7.742,14.403 C8.226,6.379 14.82,0 22.857,0 C28.978,0 34.381,3.656 36.757,9.247 C37.928,8.331 39.358,7.826 40.857,7.826 C44.485,7.826 47.458,10.725 47.635,14.355 C52.278,14.541 56,18.425 56,23.174 C56,28.041 52.091,32 47.286,32 L41,32 L41,30 L47.286,30 C50.988,30 54,26.938 54,23.174 C54,19.41 50.988,16.348 47.286,16.348 L46.578,16.348 C46.294,16.348 46.023,16.227 45.834,16.016 C45.645,15.804 45.554,15.523 45.584,15.24 L45.611,15.021 C45.625,14.914 45.643,14.807 45.643,14.696 C45.643,12.011 43.496,9.826 40.857,9.826 C39.418,9.826 38.063,10.499 37.139,11.671 C36.909,11.963 36.533,12.104 36.171,12.036 C35.806,11.967 35.508,11.703 35.398,11.348 C33.671,5.757 28.631,2 22.857,2 C15.61,2 9.714,7.988 9.714,15.348 C9.714,15.9 9.267,16.348 8.714,16.348 C5.012,16.348 2,19.41 2,23.174 C2,26.938 5.012,30 8.714,30 L15,30 L15,32 L8.714,32 C3.909,32 0,28.041 0,23.174 L0,23.174 Z M14,49 L2,49 L2,37 L12,37 L14,37 L14,49 Z M21,31 L21,23.13 L23.253,25.665 L24.747,24.336 L20.747,19.836 C20.368,19.409 19.632,19.409 19.253,19.836 L15.253,24.336 L16.747,25.665 L19,23.13 L19,31 C19,33.206 17.206,35 15,35 L12,35 L1,35 C0.447,35 0,35.448 0,36 L0,50 C0,50.552 0.447,51 1,51 L15,51 C15.553,51 16,50.552 16,50 L16,36.91 C18.833,36.432 21,33.967 21,31 L21,31 Z M54,49 L42,49 L42,37 L44,37 L54,37 L54,49 Z M55,35 L44,35 L41,35 C38.794,35 37,33.206 37,31 L37,23.13 L39.253,25.665 L40.747,24.336 L36.747,19.836 C36.368,19.409 35.632,19.409 35.253,19.836 L31.253,24.336 L32.747,25.665 L35,23.13 L35,31 C35,33.967 37.167,36.432 40,36.91 L40,50 C40,50.552 40.447,51 41,51 L55,51 C55.553,51 56,50.552 56,50 L56,36 C56,35.448 55.553,35 55,35 L55,35 Z M21,54 L35,54 L35,40 L21,40 L21,54 Z M36,38 L29,38 L29,15.13 L31.253,17.665 L32.747,16.336 L28.747,11.836 C28.368,11.409 27.632,11.409 27.253,11.836 L23.253,16.336 L24.747,17.665 L27,15.13 L27,38 L20,38 C19.447,38 19,38.448 19,39 L19,55 C19,55.552 19.447,56 20,56 L36,56 C36.553,56 37,55.552 37,55 L37,39 C37,38.448 36.553,38 36,38 L36,38 Z" id="Fill-1"></path>
        </g>
    </g>
</svg>