<?xml version="1.0" encoding="UTF-8"?>
<svg width="80px" height="80px" viewBox="0 0 80 80" version="1.1" xmlns="http://www.w3.org/2000/svg" xmlns:xlink="http://www.w3.org/1999/xlink">
    <title>Icon-Architecture/64/Arch_Amazon-WorkSpaces-Family_64</title>
    <defs>
        <linearGradient x1="0%" y1="100%" x2="100%" y2="0%" id="linearGradient-1">
            <stop stop-color="#055F4E" offset="0%"></stop>
            <stop stop-color="#56C0A7" offset="100%"></stop>
        </linearGradient>
    </defs>
    <g id="Icon-Architecture/64/Arch_Amazon-WorkSpaces-Family_64" stroke="none" stroke-width="1" fill="none" fill-rule="evenodd">
        <g id="Icon-Architecture-BG/64/End-User-Computing" fill="url(#linearGradient-1)">
            <rect id="Rectangle" x="0" y="0" width="80" height="80"></rect>
        </g>
        <g id="Icon-Service/64/Amazon-WorkSpaces-Family_64" transform="translate(12.000000, 12.000000)" fill="#FFFFFF">
            <path d="M27,56 L29,56 L29,49 L27,49 L27,56 Z M27,7 L29,7 L29,0.159 L27,0.159 L27,7 Z M47,29 L56,29 L56,27 L47,27 L47,29 Z M0,29 L9,29 L9,27 L0,27 L0,29 Z M2,24 L0,24 L0,1 C0,0.448 0.447,0 1,0 L24,0 L24,2 L2,2 L2,24 Z M56,1 L56,24 L54,24 L54,2 L32,2 L32,0 L55,0 C55.553,0 56,0.448 56,1 L56,1 Z M54,32 L56,32 L56,55 C56,55.552 55.553,56 55,56 L32,56 L32,54 L54,54 L54,32 Z M2,54 L24,54 L24,56 L1,56 C0.447,56 0,55.552 0,55 L0,32 L2,32 L2,54 Z M29,43.288 L29,28.583 L42,21.216 L42,35.92 L29,43.288 Z M14,21.216 L27,28.583 L27,43.288 L14,35.92 L14,21.216 Z M28.001,12.145 L40.974,19.499 L28,26.851 L15.043,19.508 L28.001,12.145 Z M27.506,10.126 L12.598,18.596 C12.338,18.713 12.128,18.937 12.038,19.223 C11.994,19.364 11.982,19.508 12,19.648 L12,36.502 C12,36.862 12.194,37.195 12.507,37.372 L27.507,45.874 C27.66,45.961 27.83,46.004 28,46.004 C28.17,46.004 28.34,45.961 28.493,45.874 L43.493,37.372 C43.806,37.195 44,36.862 44,36.502 L44,19.498 C44,19.137 43.806,18.805 43.493,18.628 L28.493,10.125 C28.186,9.952 27.812,9.953 27.506,10.126 L27.506,10.126 Z" id="Fill-4"></path>
        </g>
    </g>
</svg>