<?xml version="1.0" encoding="UTF-8"?>
<svg width="80px" height="80px" viewBox="0 0 80 80" version="1.1" xmlns="http://www.w3.org/2000/svg" xmlns:xlink="http://www.w3.org/1999/xlink">
    <title>Icon-Architecture/64/Arch_Amazon-Nimble-Studio_64</title>
    <g id="Icon-Architecture/64/Arch_Amazon-Nimble-Studio_64" stroke="none" stroke-width="1" fill="none" fill-rule="evenodd">
        <g id="Icon-Architecture-BG/64/Media-Services" fill="#ED7100">
            <rect id="Rectangle" x="0" y="0" width="80" height="80"></rect>
        </g>
        <g id="Icon-Service/64/Amazon-Nimble-Studio_64" transform="translate(12.000000, 13.000000)" fill="#FFFFFF">
            <path d="M35.959,47.958 C34.414,47.134 31.827,45.755 29.423,43.021 C27.195,40.491 26.083,37.885 25.348,36.161 C24.459,34.075 23.795,31.888 23.376,29.66 C23.298,29.241 22.963,28.918 22.542,28.855 C22.118,28.789 21.707,29.002 21.509,29.379 C20.933,30.474 20.403,31.62 19.936,32.785 C18.919,35.317 16.232,44.37 16.414,51 L12.127,51 C10.983,46.748 9.72,43.298 4.769,35.598 C4.375,34.984 3.991,34.356 3.625,33.756 C3.139,32.96 2.672,32.195 2.241,31.567 L8.028,23.87 C8.367,24.487 8.684,25.12 8.977,25.763 C9.759,27.488 10.117,28.75 10.981,31.798 L11.414,33.319 C11.719,34.384 12.206,36.078 12.832,38.194 C12.971,38.663 13.433,38.958 13.912,38.903 C14.397,38.844 14.769,38.443 14.79,37.955 C15.127,30.385 16.716,23.368 19.514,17.1 C21.539,12.561 24.154,8.613 26.876,5.982 C27.922,4.972 29.051,4.032 30.24,3.178 L35.995,12.528 C34.928,13.351 33.944,14.282 33.063,15.305 C32.198,16.309 30.949,17.99 29.91,20.299 C29.194,21.889 27.994,25.21 28.011,29.597 C28.016,30.783 28.025,33.56 29.2,36.886 C29.757,38.463 31.485,42.504 35.486,45.966 C39.454,49.4 43.627,50.531 45.711,50.99 C40.938,50.615 37.456,48.757 35.959,47.958 M28.193,2 C28.299,2 28.402,2.006 28.507,2.007 C27.453,2.8 26.43,3.634 25.487,4.544 C22.585,7.348 19.814,11.518 17.688,16.285 C15.467,21.26 13.98,26.683 13.25,32.462 L12.906,31.252 C12.038,28.193 11.642,26.797 10.797,24.936 C10.264,23.762 9.653,22.619 8.982,21.54 C8.808,21.26 8.507,21.083 8.177,21.069 C7.859,21.059 7.531,21.203 7.334,21.467 L2.121,28.4 C2.129,28.1 2.135,27.842 2.135,27.67 C2.135,13.516 13.824,2 28.193,2 M53.871,49.587 C52.479,49.666 49.888,49.815 46.743,49.164 C45.123,48.829 40.82,47.937 36.795,44.453 C33.156,41.304 31.59,37.646 31.086,36.22 C30.024,33.213 30.015,30.674 30.011,29.589 C29.995,25.431 31.211,22.282 31.734,21.12 C32.675,19.029 33.8,17.513 34.578,16.61 C35.556,15.476 36.674,14.465 37.901,13.608 C38.336,13.305 38.458,12.715 38.181,12.264 L32.036,2.281 C44.589,4.117 54.251,14.802 54.251,27.67 C54.251,33.895 51.961,39.9 47.804,44.577 L49.298,45.906 C53.782,40.862 56.251,34.386 56.251,27.67 C56.251,12.413 43.664,0 28.193,0 C12.722,0 0.135,12.413 0.135,27.67 C0.135,28.483 0.001,31.481 0,31.511 L0.008,31.512 C-0.003,31.743 0.06,31.977 0.21,32.17 C0.688,32.784 1.285,33.763 1.918,34.799 C2.293,35.412 2.685,36.053 3.087,36.679 C8.267,44.736 9.236,47.846 10.39,52.253 C10.505,52.693 10.902,53 11.357,53 L17.469,53 C17.628,53 17.777,52.953 17.916,52.882 C21.158,54.174 24.585,54.828 28.123,54.828 C30.451,54.828 32.764,54.538 34.998,53.966 L34.502,52.028 C32.43,52.559 30.283,52.828 28.123,52.828 C24.753,52.828 21.495,52.184 18.418,50.921 C18.262,44.934 20.675,36.312 21.791,33.53 C21.882,33.304 21.976,33.079 22.07,32.855 C22.461,34.248 22.941,35.616 23.508,36.945 C24.294,38.787 25.482,41.571 27.921,44.342 C30.565,47.349 33.353,48.834 35.018,49.723 C36.645,50.591 40.454,52.624 45.737,52.997 C46.297,53.037 46.858,53.055 47.415,53.055 C51.355,53.055 55.03,52.14 55.749,51.395 C55.954,51.181 56.091,50.816 56.059,50.521 C55.944,49.468 54.938,49.528 53.871,49.587" id="Fill-3"></path>
        </g>
    </g>
</svg>