<?xml version="1.0" encoding="UTF-8"?>
<svg xmlns="http://www.w3.org/2000/svg" xmlns:xlink="http://www.w3.org/1999/xlink" width="64" height="64" viewBox="0 0 64 64">
<path fill-rule="evenodd" fill="rgb(47.843137%, 63.137257%, 8.627451%)" fill-opacity="1" d="M 10.894531 28.171875 C 11.285156 28.171875 11.652344 28.339844 11.90625 28.632812 C 12.160156 28.929688 12.273438 29.316406 12.214844 29.703125 C 11.882812 31.917969 11.554688 34.257812 11.292969 36.253906 C 12.140625 34.863281 13.078125 33.289062 13.964844 31.78125 L 17.902344 24.171875 L 14.785156 24.171875 C 14.367188 24.171875 13.96875 23.972656 13.714844 23.636719 C 13.464844 23.300781 13.386719 22.863281 13.507812 22.460938 L 16.160156 13.503906 L 7.367188 13.503906 L 5.378906 28.171875 Z M 9.472656 42.839844 C 9.082031 42.839844 8.699219 42.664062 8.445312 42.367188 C 7.992188 41.839844 7.773438 41.589844 9.351562 30.839844 L 5.035156 30.839844 C 4.382812 30.839844 3.679688 30.519531 3.25 30.03125 C 2.816406 29.546875 2.609375 28.894531 2.679688 28.246094 L 4.75 13.019531 C 4.875 11.851562 5.957031 10.839844 7.105469 10.839844 L 16.578125 10.839844 C 17.34375 10.839844 18.0625 11.214844 18.503906 11.84375 C 18.9375 12.46875 19.046875 13.269531 18.796875 13.992188 L 16.570312 21.503906 L 18.585938 21.503906 C 19.222656 21.457031 19.90625 21.753906 20.355469 22.277344 C 20.804688 22.796875 20.976562 23.511719 20.824219 24.226562 C 20.800781 24.34375 20.757812 24.457031 20.703125 24.5625 L 16.296875 33.074219 C 10.550781 42.839844 10.40625 42.839844 9.472656 42.839844 Z M 61.117188 48.578125 L 59.257812 46.671875 L 56.347656 49.503906 L 52.152344 49.503906 L 54.3125 45.757812 L 58.121094 44.734375 L 57.429688 42.160156 L 54.339844 42.988281 L 53.566406 39.941406 L 50.980469 40.601562 L 51.96875 44.484375 L 49.863281 48.136719 L 47.71875 44.429688 L 48.738281 40.617188 L 46.164062 39.925781 L 45.335938 43.015625 L 42.308594 42.164062 L 41.589844 44.730469 L 45.441406 45.816406 L 47.574219 49.503906 L 43.300781 49.503906 L 40.480469 46.683594 L 38.59375 48.566406 L 40.855469 50.832031 L 38.605469 53.023438 L 40.46875 54.933594 L 43.300781 52.171875 L 47.53125 52.171875 L 45.40625 55.847656 L 41.601562 56.867188 L 42.292969 59.445312 L 45.382812 58.617188 L 46.160156 61.660156 L 48.742188 61.003906 L 47.753906 57.113281 L 49.863281 53.46875 L 52.003906 57.183594 L 50.984375 60.988281 L 53.5625 61.675781 L 54.390625 58.589844 L 57.417969 59.4375 L 58.136719 56.871094 L 54.277344 55.785156 L 52.195312 52.171875 L 56.496094 52.171875 L 59.246094 54.921875 L 61.132812 53.035156 L 58.867188 50.773438 Z M 55.472656 32.570312 L 55.085938 34.757812 C 57.425781 35.34375 58.453125 35.304688 58.855469 35.230469 C 58.613281 34.863281 57.835938 34.003906 55.472656 32.570312 Z M 10.984375 9.324219 L 9.757812 6.957031 C 14.847656 4.3125 23.300781 2.667969 31.808594 2.667969 C 44.339844 2.667969 58.304688 6.535156 58.304688 12.085938 C 58.304688 12.144531 58.300781 12.203125 58.292969 12.261719 L 58.222656 12.777344 C 58.21875 12.808594 58.210938 12.835938 58.207031 12.867188 L 55.933594 29.757812 C 59.527344 31.800781 61.296875 33.425781 61.585938 34.960938 C 61.714844 35.675781 61.535156 36.375 61.066406 36.929688 C 60.5 37.605469 59.609375 37.941406 58.292969 37.941406 C 57.066406 37.941406 55.472656 37.652344 53.421875 37.074219 C 47.085938 35.3125 38.039062 31.210938 33.550781 29.09375 C 33.144531 29.351562 32.664062 29.503906 32.148438 29.503906 C 30.675781 29.503906 29.480469 28.308594 29.480469 26.839844 C 29.480469 25.367188 30.675781 24.171875 32.148438 24.171875 C 33.582031 24.171875 34.746094 25.3125 34.804688 26.734375 C 38.449219 28.449219 46.441406 32.089844 52.507812 34.015625 L 53.179688 30.238281 L 55.046875 16.359375 C 50.226562 19.167969 40.792969 20.621094 31.808594 20.621094 C 27.996094 20.621094 24.125 20.351562 20.609375 19.84375 L 20.988281 17.207031 C 24.382812 17.695312 28.121094 17.953125 31.808594 17.953125 C 45.511719 17.953125 54.824219 14.699219 55.59375 12.328125 L 55.636719 12.015625 C 55.449219 9.628906 45.675781 5.332031 31.808594 5.332031 C 23.824219 5.332031 15.652344 6.898438 10.984375 9.324219 Z M 39.554688 58.175781 L 39.890625 60.820312 C 37.234375 61.160156 34.515625 61.332031 31.8125 61.332031 C 23.828125 61.332031 11.195312 59.503906 11.023438 54.609375 L 9.730469 45 L 12.371094 44.644531 L 13.675781 54.328125 C 13.683594 54.386719 13.6875 54.445312 13.6875 54.503906 C 13.6875 55.777344 20.535156 58.667969 31.8125 58.667969 C 34.402344 58.667969 37.007812 58.5 39.554688 58.175781 Z M 39.554688 58.175781 "/>
</svg>
