<?xml version="1.0" encoding="UTF-8"?>
<svg xmlns="http://www.w3.org/2000/svg" xmlns:xlink="http://www.w3.org/1999/xlink" width="64" height="64" viewBox="0 0 64 64">
<path fill-rule="evenodd" fill="rgb(47.843137%, 63.137257%, 8.627451%)" fill-opacity="1" d="M 40.769531 29.289062 C 38.941406 29.289062 37.453125 30.773438 37.453125 32.601562 C 37.453125 34.429688 38.941406 35.914062 40.769531 35.914062 C 42.59375 35.914062 44.082031 34.429688 44.082031 32.601562 C 44.082031 30.773438 42.59375 29.289062 40.769531 29.289062 Z M 40.769531 26.621094 C 44.066406 26.621094 46.746094 29.304688 46.746094 32.601562 C 46.746094 35.898438 44.066406 38.582031 40.769531 38.582031 C 37.46875 38.582031 34.789062 35.898438 34.789062 32.601562 C 34.789062 29.304688 37.46875 26.621094 40.769531 26.621094 Z M 40.273438 19.851562 L 37.390625 14.578125 L 34.382812 19.851562 Z M 43.691406 20.546875 C 43.917969 20.960938 43.910156 21.460938 43.671875 21.867188 C 43.429688 22.269531 42.996094 22.519531 42.523438 22.519531 L 32.085938 22.519531 C 31.609375 22.519531 31.171875 22.265625 30.933594 21.855469 C 30.695312 21.445312 30.691406 20.9375 30.925781 20.527344 L 36.253906 11.183594 C 36.496094 10.761719 36.933594 10.523438 37.425781 10.507812 C 37.910156 10.511719 38.351562 10.777344 38.582031 11.203125 Z M 18.476562 29.328125 L 23.890625 29.328125 L 23.890625 23.910156 L 18.476562 23.910156 Z M 25.226562 21.242188 C 25.964844 21.242188 26.558594 21.839844 26.558594 22.574219 L 26.558594 30.660156 C 26.558594 31.398438 25.964844 31.992188 25.226562 31.992188 L 17.140625 31.992188 C 16.40625 31.992188 15.808594 31.398438 15.808594 30.660156 L 15.808594 22.574219 C 15.808594 21.839844 16.40625 21.242188 17.140625 21.242188 Z M 33.34375 56.675781 L 33.34375 40.390625 L 30.679688 40.390625 L 30.679688 56.78125 L 26.351562 52.457031 L 24.46875 54.339844 L 31.015625 60.890625 C 31.277344 61.148438 31.617188 61.28125 31.957031 61.28125 C 32.300781 61.28125 32.640625 61.148438 32.902344 60.890625 L 39.464844 54.328125 L 37.578125 52.441406 Z M 55.734375 26.535156 C 55.734375 38.074219 47.269531 47.949219 35.933594 50.015625 L 35.933594 47.390625 C 46 45.558594 53.070312 36.785156 53.070312 26.535156 C 53.070312 14.84375 43.558594 5.332031 31.867188 5.332031 C 20.175781 5.332031 10.667969 14.84375 10.667969 26.535156 C 10.667969 36.734375 17.683594 45.496094 27.691406 47.371094 L 27.691406 49.992188 C 16.421875 47.882812 8 38.015625 8 26.535156 C 8 13.375 18.707031 2.667969 31.867188 2.667969 C 45.027344 2.667969 55.734375 13.375 55.734375 26.535156 Z M 55.734375 26.535156 "/>
</svg>
