<?xml version="1.0" encoding="UTF-8"?>
<svg xmlns="http://www.w3.org/2000/svg" xmlns:xlink="http://www.w3.org/1999/xlink" width="64" height="64" viewBox="0 0 64 64">
<path fill-rule="evenodd" fill="rgb(47.843137%, 63.137257%, 8.627451%)" fill-opacity="1" d="M 12.777344 52.574219 L 17.894531 47.457031 L 19.78125 49.34375 L 13.734375 55.386719 C 13.476562 55.648438 13.132812 55.777344 12.792969 55.777344 C 12.457031 55.777344 12.125 55.652344 11.863281 55.402344 L 9.113281 52.734375 L 10.96875 50.820312 Z M 19.78125 36.453125 L 13.734375 42.496094 C 13.476562 42.757812 13.132812 42.886719 12.792969 42.886719 C 12.457031 42.886719 12.125 42.765625 11.863281 42.511719 L 9.113281 39.847656 L 10.96875 37.929688 L 12.777344 39.683594 L 17.894531 34.566406 Z M 19.78125 23.566406 L 13.734375 29.609375 C 13.476562 29.871094 13.132812 30 12.792969 30 C 12.457031 30 12.125 29.875 11.863281 29.625 L 9.113281 26.957031 L 10.96875 25.042969 L 12.777344 26.796875 L 17.894531 21.679688 Z M 19.78125 10.675781 L 13.734375 16.71875 C 13.476562 16.980469 13.132812 17.109375 12.792969 17.109375 C 12.457031 17.109375 12.125 16.988281 11.863281 16.734375 L 9.113281 14.070312 L 10.96875 12.152344 L 12.777344 13.90625 L 17.894531 8.789062 Z M 45.332031 49.332031 L 48 49.332031 L 48 60 C 48 60.734375 47.402344 61.332031 46.667969 61.332031 L 4 61.332031 C 3.261719 61.332031 2.667969 60.734375 2.667969 60 L 2.667969 4 C 2.667969 3.265625 3.261719 2.667969 4 2.667969 L 46.667969 2.667969 C 47.402344 2.667969 48 3.265625 48 4 L 48 18.667969 L 45.332031 18.667969 L 45.332031 5.332031 L 5.332031 5.332031 L 5.332031 58.667969 L 45.332031 58.667969 Z M 33.332031 34.667969 L 32 34.667969 L 32 32 L 33.332031 32 L 33.332031 26.667969 L 36 26.667969 L 36 32 L 37.332031 32 L 37.332031 34.667969 L 36 34.667969 L 36 41.332031 L 33.332031 41.332031 Z M 42.667969 38.667969 L 41.332031 38.667969 L 41.332031 36 L 42.667969 36 L 42.667969 26.667969 L 45.332031 26.667969 L 45.332031 36 L 46.667969 36 L 46.667969 38.667969 L 45.332031 38.667969 L 45.332031 41.332031 L 42.667969 41.332031 Z M 52 32 L 50.667969 32 L 50.667969 29.332031 L 52 29.332031 L 52 26.667969 L 54.667969 26.667969 L 54.667969 29.332031 L 56 29.332031 L 56 32 L 54.667969 32 L 54.667969 41.332031 L 52 41.332031 Z M 29.332031 44 L 58.667969 44 L 58.667969 24 L 29.332031 24 Z M 60 21.332031 L 28 21.332031 C 27.261719 21.332031 26.667969 21.929688 26.667969 22.667969 L 26.667969 45.332031 C 26.667969 46.070312 27.261719 46.667969 28 46.667969 L 60 46.667969 C 60.738281 46.667969 61.332031 46.070312 61.332031 45.332031 L 61.332031 22.667969 C 61.332031 21.929688 60.738281 21.332031 60 21.332031 Z M 60 21.332031 "/>
</svg>
