<?xml version="1.0" encoding="UTF-8"?>
<svg xmlns="http://www.w3.org/2000/svg" xmlns:xlink="http://www.w3.org/1999/xlink" width="64" height="64" viewBox="0 0 64 64">
<path fill-rule="evenodd" fill="rgb(47.843137%, 63.137257%, 8.627451%)" fill-opacity="1" d="M 52.699219 54.511719 C 52.6875 54.566406 52.6875 54.613281 52.6875 54.671875 C 52.652344 54.824219 52.160156 55.414062 50.460938 56.078125 C 49.613281 56.410156 48.613281 56.707031 47.480469 56.964844 C 44.554688 57.632812 40.964844 58.003906 37.371094 58.003906 C 27.800781 58.003906 22.300781 55.667969 22.058594 54.683594 C 22.058594 54.625 22.058594 54.5625 22.046875 54.5 L 20.578125 43.996094 C 21.53125 44.128906 22.496094 44.207031 23.46875 44.207031 C 25.414062 44.207031 27.386719 43.917969 29.328125 43.34375 L 27.046875 47.683594 L 29.402344 48.925781 L 33.125 41.851562 C 33.46875 41.203125 33.21875 40.394531 32.566406 40.050781 L 25.496094 36.328125 L 24.253906 38.6875 L 28.363281 40.851562 C 25.632812 41.625 22.847656 41.710938 20.1875 41.21875 L 17.449219 21.648438 C 21.886719 23.886719 30.164062 24.757812 37.585938 24.757812 C 44.746094 24.757812 52.722656 23.894531 57.039062 21.683594 Z M 60.226562 17.914062 L 60.214844 17.910156 C 60.21875 17.851562 60.238281 17.796875 60.238281 17.738281 C 60.238281 12.753906 49.410156 10.960938 46.089844 10.53125 L 45.746094 13.175781 C 54.492188 14.308594 57.496094 16.730469 57.566406 17.703125 L 57.550781 17.832031 C 57.300781 19.40625 50.644531 22.089844 37.585938 22.089844 C 24.261719 22.089844 17.1875 19.371094 16.917969 17.832031 L 16.898438 17.703125 C 16.980469 16.59375 21.0625 14.054688 30.398438 13.050781 L 30.113281 10.398438 C 22.429688 11.226562 14.222656 13.589844 14.222656 17.738281 C 14.222656 17.800781 14.246094 17.859375 14.253906 17.921875 L 14.234375 17.925781 L 17.390625 40.472656 C 12.609375 38.769531 8.558594 35.097656 6.578125 30.007812 C 2.957031 20.707031 7.578125 10.195312 16.878906 6.578125 C 21.382812 4.824219 26.296875 4.929688 30.726562 6.875 C 35.148438 8.816406 38.554688 12.371094 40.304688 16.867188 L 40.40625 17.140625 L 42.898438 16.191406 L 42.789062 15.90625 C 40.78125 10.738281 36.875 6.664062 31.796875 4.433594 C 26.71875 2.199219 21.074219 2.082031 15.90625 4.09375 C 10.738281 6.105469 6.664062 10.007812 4.433594 15.085938 C 2.203125 20.164062 2.078125 25.804688 4.09375 30.972656 C 6.546875 37.273438 11.753906 41.6875 17.800781 43.402344 L 19.394531 54.792969 C 19.570312 59.101562 30.207031 60.667969 37.371094 60.667969 C 41.160156 60.667969 44.960938 60.277344 48.074219 59.566406 C 49.332031 59.277344 50.460938 58.941406 51.429688 58.5625 C 53.976562 57.566406 55.292969 56.296875 55.351562 54.789062 Z M 60.226562 17.914062 "/>
</svg>
