<?xml version="1.0" encoding="UTF-8"?>
<svg xmlns="http://www.w3.org/2000/svg" xmlns:xlink="http://www.w3.org/1999/xlink" width="64" height="64" viewBox="0 0 64 64">
<path fill-rule="evenodd" fill="rgb(47.843137%, 63.137257%, 8.627451%)" fill-opacity="1" d="M 2.835938 35.296875 L 29.914062 35.296875 L 25.226562 40.011719 L 27.117188 41.894531 L 34.066406 34.90625 C 34.585938 34.386719 34.585938 33.542969 34.066406 33.023438 L 27.117188 26.035156 L 25.226562 27.914062 L 29.917969 32.632812 L 2.835938 32.632812 Z M 60.8125 33.023438 L 53.863281 26.035156 L 51.972656 27.914062 L 56.660156 32.632812 L 36.617188 32.632812 L 36.617188 35.296875 L 56.660156 35.296875 L 51.972656 40.011719 L 53.863281 41.894531 L 60.8125 34.90625 C 61.328125 34.386719 61.328125 33.542969 60.8125 33.023438 Z M 27.296875 16.660156 L 36.617188 16.660156 L 36.617188 13.992188 L 27.296875 13.992188 Z M 49.597656 40.953125 L 49.597656 37.460938 L 46.929688 37.460938 L 46.929688 39.621094 L 31.957031 39.621094 L 31.957031 42.285156 L 48.265625 42.285156 C 49 42.285156 49.597656 41.691406 49.597656 40.953125 Z M 15.480469 37.460938 L 15.480469 40.953125 C 15.480469 41.691406 16.078125 42.285156 16.8125 42.285156 L 23.804688 42.285156 L 23.804688 39.621094 L 18.148438 39.621094 L 18.148438 37.460938 Z M 15.480469 25.808594 L 15.480469 30.46875 L 18.148438 30.46875 L 18.148438 27.144531 L 23.804688 27.144531 L 23.804688 24.476562 L 16.8125 24.476562 C 16.078125 24.476562 15.480469 25.074219 15.480469 25.808594 Z M 49.597656 30.46875 L 49.597656 25.808594 C 49.597656 25.074219 49 24.476562 48.265625 24.476562 L 31.957031 24.476562 L 31.957031 27.144531 L 46.929688 27.144531 L 46.929688 30.46875 Z M 54.8125 9.332031 L 9.101562 9.332031 C 5.554688 9.332031 2.667969 12.304688 2.667969 15.957031 L 2.667969 30.46875 L 5.332031 30.46875 L 5.332031 15.957031 C 5.332031 13.773438 7.023438 12 9.101562 12 L 54.8125 12 C 56.890625 12 58.582031 13.773438 58.582031 15.957031 L 58.582031 29.046875 L 61.25 29.046875 L 61.25 15.957031 C 61.25 12.304688 58.363281 9.332031 54.8125 9.332031 Z M 58.582031 48.480469 C 58.582031 50.660156 56.890625 52.433594 54.8125 52.433594 L 9.101562 52.433594 C 7.023438 52.433594 5.332031 50.660156 5.332031 48.480469 L 5.332031 37.460938 L 2.667969 37.460938 L 2.667969 48.480469 C 2.667969 52.128906 5.554688 55.101562 9.101562 55.101562 L 54.8125 55.101562 C 58.363281 55.101562 61.25 52.128906 61.25 48.480469 L 61.25 38.878906 L 58.582031 38.878906 Z M 7.324219 37.460938 L 7.324219 46.566406 C 7.324219 48.703125 9.058594 50.441406 11.1875 50.441406 L 52.726562 50.441406 C 54.855469 50.441406 56.585938 48.703125 56.585938 46.566406 L 56.585938 43.285156 L 53.921875 43.285156 L 53.921875 46.566406 C 53.921875 47.222656 53.375 47.773438 52.726562 47.773438 L 11.1875 47.773438 C 10.539062 47.773438 9.992188 47.222656 9.992188 46.566406 L 9.992188 37.460938 Z M 25.1875 18.652344 L 38.726562 18.652344 L 40.015625 14.894531 C 40.199219 14.355469 40.707031 13.992188 41.277344 13.992188 L 52.726562 13.992188 C 54.855469 13.992188 56.585938 15.730469 56.585938 17.867188 L 56.585938 24.644531 L 53.921875 24.644531 L 53.921875 17.867188 C 53.921875 17.210938 53.375 16.660156 52.726562 16.660156 L 42.230469 16.660156 L 40.941406 20.417969 C 40.757812 20.957031 40.25 21.320312 39.679688 21.320312 L 24.234375 21.320312 C 23.664062 21.320312 23.15625 20.957031 22.972656 20.417969 L 21.6875 16.660156 L 11.1875 16.660156 C 10.539062 16.660156 9.992188 17.210938 9.992188 17.867188 L 9.992188 30.46875 L 7.324219 30.46875 L 7.324219 17.867188 C 7.324219 15.730469 9.058594 13.992188 11.1875 13.992188 L 22.640625 13.992188 C 23.207031 13.992188 23.714844 14.355469 23.898438 14.894531 Z M 25.1875 18.652344 "/>
</svg>
