<?xml version="1.0" encoding="UTF-8"?>
<svg xmlns="http://www.w3.org/2000/svg" xmlns:xlink="http://www.w3.org/1999/xlink" width="64" height="64" viewBox="0 0 64 64">
<path fill-rule="evenodd" fill="rgb(47.843137%, 63.137257%, 8.627451%)" fill-opacity="1" d="M 14.136719 33.382812 L 14.136719 30.714844 C 18.375 30.714844 21.820312 34.160156 21.820312 38.394531 L 19.152344 38.394531 C 19.152344 35.628906 16.902344 33.382812 14.136719 33.382812 M 54.417969 34.6875 L 54.796875 32.355469 C 57.527344 33.953125 58.363281 34.878906 58.609375 35.269531 C 58.1875 35.351562 57.050781 35.382812 54.417969 34.6875 M 31.519531 17.976562 C 17.730469 17.976562 8.390625 14.683594 7.707031 12.304688 L 7.667969 12.023438 C 7.851562 9.636719 17.636719 5.332031 31.519531 5.332031 C 45.40625 5.332031 55.191406 9.636719 55.378906 12.023438 L 55.339844 12.304688 C 54.65625 14.683594 45.3125 17.976562 31.519531 17.976562 M 22.667969 38 C 22.667969 42.777344 18.777344 46.667969 14 46.667969 C 9.222656 46.667969 5.332031 42.777344 5.332031 38 C 5.332031 33.222656 9.222656 29.332031 14 29.332031 C 18.777344 29.332031 22.667969 33.222656 22.667969 38 M 61.332031 35 C 61.03125 33.402344 59.148438 31.714844 55.25 29.546875 L 57.960938 12.824219 C 57.964844 12.8125 57.957031 12.800781 57.960938 12.789062 L 57.964844 12.789062 L 58.035156 12.269531 C 58.042969 12.210938 58.046875 12.152344 58.046875 12.09375 C 58.046875 6.539062 44.066406 2.667969 31.519531 2.667969 C 18.976562 2.667969 5 6.539062 5 12.09375 C 5 12.152344 5 12.210938 5.007812 12.269531 L 5.078125 12.789062 L 5.09375 12.785156 C 5.097656 12.816406 5.085938 12.84375 5.09375 12.875 L 8.1875 28.289062 C 4.886719 30.269531 2.667969 33.875 2.667969 38 C 2.667969 44.25 7.75 49.332031 14 49.332031 C 15.332031 49.332031 16.605469 49.089844 17.789062 48.667969 L 24.144531 60.886719 L 26.511719 59.65625 L 20.183594 47.484375 C 23.277344 45.460938 25.332031 41.96875 25.332031 38 C 25.332031 31.75 20.246094 26.667969 14 26.667969 C 12.84375 26.667969 11.734375 26.84375 10.683594 27.164062 L 8.550781 16.546875 C 13.457031 19.246094 22.710938 20.640625 31.519531 20.640625 C 40.441406 20.640625 49.8125 19.214844 54.671875 16.449219 L 51.839844 33.921875 C 45.890625 31.988281 38.277344 28.53125 34.652344 26.828125 C 34.652344 26.773438 34.667969 26.722656 34.667969 26.667969 C 34.667969 25.195312 33.46875 24 32 24 C 30.53125 24 29.332031 25.195312 29.332031 26.667969 C 29.332031 28.136719 30.53125 29.332031 32 29.332031 C 32.410156 29.332031 32.796875 29.230469 33.144531 29.066406 C 37.203125 30.980469 45.179688 34.609375 51.40625 36.585938 L 48.464844 54.726562 C 47.890625 55.515625 43.351562 58.734375 31.519531 58.734375 L 31.519531 61.402344 C 43.882812 61.402344 50.828125 57.757812 51.101562 55.140625 L 53.988281 37.328125 C 55.640625 37.753906 56.988281 37.980469 58.039062 37.980469 C 59.355469 37.980469 60.246094 37.644531 60.816406 36.96875 C 61.28125 36.410156 61.464844 35.714844 61.332031 35 "/>
</svg>
