<?xml version="1.0" encoding="UTF-8"?>
<svg xmlns="http://www.w3.org/2000/svg" xmlns:xlink="http://www.w3.org/1999/xlink" width="64" height="64" viewBox="0 0 64 64">
<defs>
<clipPath id="clip-0">
<path clip-rule="nonzero" d="M 2.667969 2.667969 L 61.414062 2.667969 L 61.414062 61.332031 L 2.667969 61.332031 Z M 2.667969 2.667969 "/>
</clipPath>
</defs>
<g clip-path="url(#clip-0)">
<path fill-rule="nonzero" fill="rgb(47.843137%, 63.137255%, 8.627451%)" fill-opacity="1" d="M 58.933594 34.960938 C 58.640625 33.425781 56.878906 31.800781 53.292969 29.761719 L 55.558594 12.867188 C 55.558594 12.867188 55.558594 12.8125 55.574219 12.773438 L 55.640625 12.253906 C 55.640625 12.253906 55.640625 12.132812 55.640625 12.078125 C 55.640625 6.535156 41.679688 2.667969 29.148438 2.667969 C 16.613281 2.667969 2.667969 6.535156 2.667969 12.078125 C 2.667969 12.132812 2.667969 12.199219 2.667969 12.253906 L 2.734375 12.773438 C 2.734375 12.773438 2.734375 12.785156 2.734375 12.800781 L 8.359375 54.601562 C 8.453125 57.453125 12.640625 59.199219 17.441406 60.1875 C 17.441406 60.121094 17.398438 60.066406 17.398438 59.988281 L 17.398438 57.453125 C 13.1875 56.480469 11.027344 55.171875 11.027344 54.492188 C 11.027344 54.441406 11.027344 54.375 11.027344 54.320312 L 5.921875 16.359375 C 6.226562 16.535156 6.558594 16.707031 6.894531 16.878906 C 7.105469 16.988281 7.320312 17.078125 7.546875 17.171875 C 7.746094 17.265625 7.945312 17.347656 8.148438 17.425781 C 8.398438 17.535156 8.652344 17.625 8.90625 17.71875 C 9.09375 17.785156 9.292969 17.851562 9.492188 17.921875 C 10.492188 18.265625 11.574219 18.574219 12.71875 18.851562 C 12.894531 18.894531 13.054688 18.933594 13.226562 18.972656 C 13.601562 19.066406 13.988281 19.148438 14.375 19.226562 C 14.507812 19.253906 14.640625 19.28125 14.761719 19.308594 C 16.09375 19.574219 17.480469 19.785156 18.921875 19.972656 C 19.039062 19.988281 19.160156 20 19.292969 20.011719 C 19.773438 20.066406 20.253906 20.132812 20.734375 20.171875 C 20.773438 20.171875 20.8125 20.171875 20.851562 20.171875 C 22.414062 20.332031 24 20.441406 25.601562 20.507812 C 25.707031 20.507812 25.8125 20.507812 25.933594 20.519531 C 27.011719 20.558594 28.078125 20.585938 29.148438 20.585938 C 29.691406 20.585938 30.253906 20.585938 30.800781 20.558594 C 30.8125 20.558594 30.828125 20.558594 30.839844 20.558594 C 31.332031 20.558594 31.828125 20.535156 32.320312 20.519531 C 32.464844 20.519531 32.601562 20.519531 32.746094 20.507812 C 33.238281 20.480469 33.71875 20.464844 34.214844 20.441406 C 34.214844 20.441406 34.226562 20.441406 34.238281 20.441406 C 35.238281 20.375 36.226562 20.292969 37.199219 20.199219 C 37.347656 20.1875 37.492188 20.171875 37.652344 20.160156 C 38.078125 20.121094 38.492188 20.066406 38.921875 20.011719 C 39.132812 19.988281 39.332031 19.960938 39.546875 19.933594 C 39.945312 19.878906 40.347656 19.828125 40.746094 19.773438 C 40.90625 19.746094 41.078125 19.71875 41.238281 19.691406 C 41.933594 19.585938 42.613281 19.464844 43.292969 19.332031 C 43.546875 19.28125 43.800781 19.238281 44.054688 19.1875 C 44.375 19.121094 44.679688 19.054688 44.988281 18.988281 C 45.253906 18.921875 45.519531 18.867188 45.785156 18.800781 C 46.066406 18.734375 46.347656 18.667969 46.625 18.585938 C 47.105469 18.453125 47.574219 18.320312 48.011719 18.1875 C 48.238281 18.121094 48.441406 18.039062 48.652344 17.972656 C 48.933594 17.878906 49.214844 17.785156 49.480469 17.679688 C 49.691406 17.601562 49.90625 17.519531 50.105469 17.441406 C 50.375 17.332031 50.640625 17.214844 50.894531 17.105469 C 51.066406 17.027344 51.238281 16.960938 51.398438 16.878906 C 51.746094 16.707031 52.09375 16.535156 52.398438 16.347656 L 50.027344 34.054688 C 43.945312 32.148438 35.839844 28.453125 32.160156 26.71875 C 32.160156 26.691406 32.160156 26.667969 32.160156 26.652344 C 32.160156 25.1875 30.960938 23.988281 29.492188 23.988281 C 28.027344 23.988281 26.828125 25.1875 26.828125 26.652344 C 26.828125 28.121094 28.027344 29.320312 29.492188 29.320312 C 29.945312 29.320312 30.359375 29.199219 30.734375 29 C 34.90625 30.972656 43.332031 34.800781 49.652344 36.734375 L 49.265625 39.601562 L 51.90625 39.960938 L 52.238281 37.453125 C 53.601562 37.773438 54.71875 37.933594 55.625 37.933594 C 56.945312 37.933594 57.839844 37.601562 58.398438 36.921875 C 58.867188 36.359375 59.054688 35.667969 58.921875 34.945312 Z M 52.308594 13.199219 C 52.171875 13.320312 52.011719 13.441406 51.851562 13.558594 C 51.800781 13.601562 51.761719 13.640625 51.707031 13.679688 C 51.519531 13.8125 51.308594 13.933594 51.078125 14.066406 C 51.027344 14.105469 50.972656 14.132812 50.90625 14.171875 C 50.652344 14.308594 50.375 14.441406 50.078125 14.574219 C 50.027344 14.601562 49.988281 14.625 49.933594 14.640625 C 49.601562 14.785156 49.253906 14.933594 48.878906 15.078125 C 48.851562 15.078125 48.828125 15.105469 48.800781 15.105469 C 44.691406 16.652344 37.800781 17.945312 29.171875 17.945312 C 17.945312 17.945312 9.667969 15.761719 6.613281 13.667969 C 6.613281 13.667969 6.613281 13.667969 6.601562 13.652344 C 6.375 13.507812 6.1875 13.347656 6.027344 13.199219 C 6 13.171875 5.972656 13.148438 5.945312 13.121094 C 5.8125 12.988281 5.691406 12.867188 5.613281 12.734375 C 5.585938 12.691406 5.558594 12.640625 5.535156 12.601562 C 5.464844 12.492188 5.414062 12.386719 5.386719 12.28125 L 5.347656 12.011719 C 5.535156 9.625 15.308594 5.332031 29.171875 5.332031 C 43.039062 5.332031 52.8125 9.625 53 12.011719 L 52.960938 12.28125 C 52.933594 12.386719 52.867188 12.507812 52.800781 12.625 C 52.773438 12.667969 52.761719 12.707031 52.734375 12.746094 C 52.652344 12.867188 52.546875 12.972656 52.425781 13.09375 C 52.386719 13.132812 52.359375 13.171875 52.320312 13.214844 Z M 52.613281 34.800781 L 52.90625 32.625 C 55.199219 34.027344 55.972656 34.867188 56.214844 35.238281 C 55.828125 35.320312 54.839844 35.347656 52.625 34.8125 Z M 34.746094 56 L 20.078125 56 L 20.078125 53.332031 L 34.746094 53.332031 Z M 32.078125 50.667969 L 22.746094 50.667969 L 22.746094 48 L 32.078125 48 Z M 32.078125 61.332031 L 22.746094 61.332031 L 22.746094 58.667969 L 32.078125 58.667969 Z M 39.691406 49.945312 L 37.785156 48.078125 C 40.867188 44.933594 45 43.199219 49.398438 43.199219 C 50.480469 43.199219 51.558594 43.308594 52.601562 43.519531 L 52.078125 46.132812 C 51.199219 45.960938 50.308594 45.867188 49.398438 45.867188 C 45.71875 45.867188 42.265625 47.320312 39.679688 49.945312 Z M 58.160156 51.8125 L 61.027344 48.945312 L 59.148438 47.066406 L 50.640625 55.574219 C 50.265625 55.425781 49.851562 55.332031 49.425781 55.332031 C 47.585938 55.332031 46.09375 56.828125 46.09375 58.667969 L 40.1875 58.667969 C 40.839844 54.148438 44.734375 50.667969 49.425781 50.667969 C 50.199219 50.667969 50.933594 50.773438 51.652344 50.945312 L 53.773438 48.828125 C 52.425781 48.292969 50.960938 48 49.425781 48 C 42.8125 48 37.425781 53.386719 37.425781 60 C 37.425781 60.734375 38.027344 61.332031 38.761719 61.332031 L 60.09375 61.332031 C 60.828125 61.332031 61.425781 60.734375 61.425781 60 C 61.425781 56.828125 60.1875 53.960938 58.171875 51.8125 Z M 48.746094 58.667969 C 48.746094 58.292969 49.039062 58 49.414062 58 C 49.785156 58 50.078125 58.292969 50.078125 58.667969 Z M 52.746094 58.667969 C 52.746094 58.238281 52.652344 57.828125 52.507812 57.453125 L 56.265625 53.691406 C 57.519531 55.039062 58.375 56.761719 58.652344 58.667969 Z M 55.121094 47.121094 C 54.546875 46.851562 53.960938 46.625 53.347656 46.453125 L 54.121094 43.894531 C 54.839844 44.105469 55.558594 44.386719 56.238281 44.691406 C 56.613281 44.867188 56.972656 45.054688 57.332031 45.253906 L 55.347656 47.238281 C 55.265625 47.199219 55.199219 47.148438 55.121094 47.121094 Z M 55.121094 47.121094 "/>
</g>
</svg>
