<?xml version="1.0" encoding="UTF-8"?>
<svg xmlns="http://www.w3.org/2000/svg" xmlns:xlink="http://www.w3.org/1999/xlink" width="64" height="64" viewBox="0 0 64 64">
<path fill-rule="evenodd" fill="rgb(47.843137%, 63.137257%, 8.627451%)" fill-opacity="1" d="M 48.171875 42.648438 L 48.226562 42.230469 C 48.558594 42.449219 48.835938 42.644531 49.039062 42.808594 C 48.804688 42.773438 48.515625 42.722656 48.171875 42.648438 Z M 42.074219 57.148438 C 41.421875 57.40625 40.644531 57.640625 39.765625 57.839844 C 37.476562 58.371094 34.667969 58.660156 31.855469 58.660156 C 24.992188 58.660156 20.449219 57.023438 20.054688 56.285156 C 20.054688 56.226562 20.050781 56.164062 20.042969 56.105469 L 16.699219 31.277344 C 16.738281 31.296875 16.78125 31.308594 16.816406 31.324219 C 17.246094 31.527344 17.703125 31.710938 18.191406 31.886719 C 18.292969 31.925781 18.40625 31.957031 18.515625 31.992188 C 18.921875 32.128906 19.347656 32.257812 19.785156 32.378906 C 19.941406 32.421875 20.097656 32.464844 20.257812 32.507812 C 20.769531 32.640625 21.296875 32.761719 21.835938 32.871094 C 21.878906 32.882812 21.917969 32.890625 21.957031 32.898438 C 22.539062 33.015625 23.140625 33.117188 23.742188 33.210938 C 23.910156 33.238281 24.082031 33.261719 24.253906 33.285156 C 24.734375 33.359375 25.21875 33.421875 25.703125 33.476562 C 25.84375 33.492188 25.980469 33.507812 26.121094 33.527344 C 26.722656 33.589844 27.324219 33.644531 27.921875 33.6875 C 28.050781 33.699219 28.179688 33.703125 28.308594 33.710938 C 28.789062 33.746094 29.261719 33.769531 29.726562 33.789062 C 29.886719 33.796875 30.046875 33.804688 30.203125 33.808594 C 30.769531 33.828125 31.328125 33.839844 31.855469 33.839844 C 32.476562 33.839844 33.101562 33.824219 33.730469 33.804688 C 33.910156 33.800781 34.085938 33.789062 34.265625 33.785156 C 34.753906 33.761719 35.238281 33.734375 35.726562 33.703125 C 35.886719 33.695312 36.046875 33.683594 36.210938 33.671875 C 36.835938 33.625 37.460938 33.566406 38.074219 33.5 C 38.171875 33.488281 38.265625 33.472656 38.363281 33.460938 C 38.886719 33.398438 39.402344 33.332031 39.910156 33.253906 C 40.082031 33.226562 40.25 33.203125 40.421875 33.171875 C 40.902344 33.09375 41.375 33.007812 41.839844 32.914062 C 41.953125 32.890625 42.070312 32.871094 42.179688 32.84375 C 42.738281 32.726562 43.273438 32.597656 43.792969 32.457031 C 43.917969 32.421875 44.035156 32.386719 44.15625 32.351562 C 44.554688 32.234375 44.9375 32.117188 45.308594 31.988281 C 45.449219 31.9375 45.585938 31.890625 45.71875 31.839844 C 46.136719 31.6875 46.535156 31.523438 46.902344 31.347656 C 46.933594 31.332031 46.976562 31.320312 47.007812 31.304688 L 45.585938 41.914062 C 41.816406 40.675781 37.070312 38.546875 34.53125 37.363281 C 34.261719 36.578125 33.523438 36.007812 32.648438 36.007812 C 31.542969 36.007812 30.648438 36.90625 30.648438 38.007812 C 30.648438 39.113281 31.542969 40.007812 32.648438 40.007812 C 32.949219 40.007812 33.230469 39.9375 33.488281 39.816406 C 36.40625 41.179688 41.332031 43.375 45.226562 44.601562 L 43.671875 56.183594 C 43.617188 56.296875 43.21875 56.695312 42.074219 57.148438 Z M 52.386719 43.007812 C 52.167969 41.859375 51.019531 40.742188 48.613281 39.34375 L 50.121094 28.167969 L 50.167969 27.820312 C 50.175781 27.761719 50.179688 27.703125 50.179688 27.640625 C 50.179688 26.039062 48.835938 24.621094 46.183594 23.429688 L 45.089844 25.859375 C 46.941406 26.695312 47.441406 27.398438 47.503906 27.605469 L 47.496094 27.679688 C 47.480469 27.71875 47.453125 27.761719 47.429688 27.804688 C 47.410156 27.839844 47.390625 27.878906 47.359375 27.917969 C 47.324219 27.960938 47.277344 28.003906 47.234375 28.050781 C 47.191406 28.089844 47.152344 28.132812 47.097656 28.175781 C 47.046875 28.21875 46.976562 28.265625 46.914062 28.3125 C 46.851562 28.359375 46.789062 28.402344 46.714844 28.449219 C 46.644531 28.496094 46.558594 28.542969 46.476562 28.589844 C 46.394531 28.636719 46.3125 28.683594 46.214844 28.734375 C 46.125 28.78125 46.019531 28.828125 45.921875 28.875 C 45.816406 28.925781 45.714844 28.976562 45.597656 29.023438 C 45.492188 29.070312 45.367188 29.117188 45.253906 29.164062 C 45.125 29.214844 45.003906 29.265625 44.867188 29.3125 C 44.742188 29.363281 44.601562 29.40625 44.464844 29.453125 C 44.320312 29.5 44.179688 29.550781 44.027344 29.601562 C 43.882812 29.648438 43.722656 29.691406 43.566406 29.734375 C 43.40625 29.78125 43.246094 29.832031 43.074219 29.878906 C 42.914062 29.921875 42.734375 29.964844 42.5625 30.003906 C 42.382812 30.050781 42.207031 30.097656 42.015625 30.140625 C 41.835938 30.183594 41.644531 30.21875 41.453125 30.261719 C 41.253906 30.300781 41.0625 30.34375 40.855469 30.382812 C 40.652344 30.425781 40.433594 30.457031 40.222656 30.496094 C 40.015625 30.53125 39.8125 30.570312 39.597656 30.605469 C 39.367188 30.640625 39.121094 30.671875 38.882812 30.707031 C 38.667969 30.734375 38.457031 30.769531 38.234375 30.796875 C 37.980469 30.828125 37.707031 30.855469 37.441406 30.882812 C 37.222656 30.90625 37.007812 30.933594 36.777344 30.953125 C 36.488281 30.980469 36.179688 31 35.878906 31.023438 C 35.660156 31.039062 35.453125 31.058594 35.226562 31.070312 C 34.886719 31.09375 34.53125 31.105469 34.175781 31.117188 C 33.976562 31.128906 33.789062 31.140625 33.585938 31.148438 C 33.023438 31.164062 32.445312 31.171875 31.855469 31.171875 C 31.261719 31.171875 30.6875 31.164062 30.125 31.148438 C 29.914062 31.140625 29.71875 31.128906 29.511719 31.117188 C 29.167969 31.105469 28.816406 31.09375 28.480469 31.070312 C 28.257812 31.058594 28.042969 31.039062 27.824219 31.023438 C 27.523438 31 27.222656 30.980469 26.929688 30.953125 C 26.707031 30.933594 26.492188 30.90625 26.273438 30.882812 C 26.003906 30.855469 25.730469 30.828125 25.476562 30.796875 C 25.253906 30.769531 25.042969 30.734375 24.828125 30.707031 C 24.589844 30.671875 24.34375 30.640625 24.113281 30.605469 C 23.898438 30.570312 23.691406 30.53125 23.484375 30.496094 C 23.273438 30.457031 23.058594 30.425781 22.855469 30.386719 C 22.644531 30.34375 22.453125 30.300781 22.253906 30.257812 C 22.066406 30.21875 21.871094 30.183594 21.695312 30.140625 C 21.503906 30.097656 21.324219 30.050781 21.144531 30.003906 C 20.976562 29.964844 20.796875 29.921875 20.636719 29.878906 C 20.460938 29.832031 20.300781 29.78125 20.132812 29.730469 C 19.984375 29.691406 19.828125 29.648438 19.6875 29.601562 C 19.53125 29.550781 19.382812 29.5 19.234375 29.449219 C 19.105469 29.40625 18.96875 29.359375 18.847656 29.316406 C 18.707031 29.265625 18.585938 29.214844 18.457031 29.164062 C 18.339844 29.117188 18.21875 29.070312 18.113281 29.023438 C 17.996094 28.976562 17.894531 28.925781 17.789062 28.875 C 17.691406 28.828125 17.585938 28.78125 17.496094 28.734375 C 17.402344 28.6875 17.320312 28.636719 17.234375 28.589844 C 17.152344 28.542969 17.066406 28.496094 16.996094 28.449219 C 16.921875 28.40625 16.863281 28.359375 16.796875 28.3125 C 16.734375 28.269531 16.667969 28.222656 16.613281 28.175781 C 16.5625 28.132812 16.523438 28.09375 16.480469 28.050781 C 16.433594 28.007812 16.386719 27.960938 16.351562 27.917969 C 16.320312 27.878906 16.304688 27.84375 16.28125 27.808594 C 16.257812 27.765625 16.230469 27.722656 16.214844 27.679688 L 16.207031 27.605469 C 16.265625 27.398438 16.773438 26.6875 18.652344 25.84375 L 17.5625 23.414062 C 14.890625 24.609375 13.535156 26.03125 13.535156 27.640625 C 13.535156 27.699219 13.539062 27.757812 13.546875 27.8125 L 13.589844 28.164062 L 13.589844 28.167969 L 17.390625 56.390625 C 17.558594 60.292969 26.894531 61.328125 31.855469 61.328125 C 34.863281 61.328125 37.886719 61.011719 40.367188 60.441406 C 41.371094 60.207031 42.277344 59.933594 43.054688 59.628906 C 45.164062 58.792969 46.261719 57.703125 46.320312 56.390625 L 47.8125 45.292969 C 48.550781 45.441406 49.195312 45.527344 49.734375 45.527344 C 50.769531 45.527344 51.476562 45.253906 51.941406 44.695312 C 52.34375 44.21875 52.5 43.621094 52.386719 43.007812 Z M 23.851562 42.675781 L 25.105469 40.585938 L 26.363281 42.675781 Z M 29.875 44.667969 C 30.113281 44.25 30.105469 43.734375 29.859375 43.324219 L 26.25 37.308594 C 26.007812 36.90625 25.574219 36.660156 25.105469 36.660156 C 24.636719 36.660156 24.203125 36.90625 23.960938 37.308594 L 20.351562 43.324219 C 20.105469 43.734375 20.097656 44.25 20.335938 44.667969 C 20.570312 45.085938 21.015625 45.34375 21.496094 45.34375 L 28.714844 45.34375 C 29.195312 45.34375 29.636719 45.085938 29.875 44.667969 Z M 37.980469 50.675781 C 36.878906 50.675781 35.980469 49.777344 35.980469 48.675781 C 35.980469 47.574219 36.878906 46.675781 37.980469 46.675781 C 39.085938 46.675781 39.980469 47.574219 39.980469 48.675781 C 39.980469 49.777344 39.085938 50.675781 37.980469 50.675781 Z M 37.980469 44.007812 C 35.40625 44.007812 33.3125 46.101562 33.3125 48.675781 C 33.3125 51.25 35.40625 53.34375 37.980469 53.34375 C 40.554688 53.34375 42.648438 51.25 42.648438 48.675781 C 42.648438 46.101562 40.554688 44.007812 37.980469 44.007812 Z M 25.3125 53.34375 L 27.980469 53.34375 L 27.980469 50.675781 L 25.3125 50.675781 Z M 29.3125 48.007812 L 23.980469 48.007812 C 23.242188 48.007812 22.648438 48.605469 22.648438 49.34375 L 22.648438 54.675781 C 22.648438 55.414062 23.242188 56.007812 23.980469 56.007812 L 29.3125 56.007812 C 30.050781 56.007812 30.648438 55.414062 30.648438 54.675781 L 30.648438 49.34375 C 30.648438 48.605469 30.050781 48.007812 29.3125 48.007812 Z M 30.457031 14.535156 C 30.847656 14.128906 31.371094 13.921875 31.898438 13.921875 C 32.394531 13.921875 32.894531 14.109375 33.28125 14.480469 C 34.078125 15.246094 34.101562 16.511719 33.339844 17.308594 C 32.96875 17.695312 32.46875 17.910156 31.9375 17.921875 C 31.402344 17.914062 30.894531 17.734375 30.511719 17.363281 C 30.125 16.992188 29.90625 16.496094 29.898438 15.960938 C 29.886719 15.425781 30.085938 14.921875 30.457031 14.535156 Z M 31.894531 20.585938 C 33.121094 20.585938 34.347656 20.105469 35.261719 19.15625 C 37.042969 17.300781 36.984375 14.339844 35.132812 12.558594 C 33.277344 10.773438 30.316406 10.832031 28.535156 12.6875 C 27.667969 13.585938 27.207031 14.765625 27.230469 16.011719 C 27.253906 17.257812 27.765625 18.421875 28.664062 19.285156 C 29.566406 20.15625 30.730469 20.585938 31.894531 20.585938 Z M 24.285156 15.875 C 24.621094 15.71875 24.878906 15.429688 24.996094 15.074219 L 25.582031 13.28125 C 25.695312 12.925781 25.65625 12.539062 25.476562 12.214844 L 23.882812 9.378906 L 27.78125 6.550781 L 29.96875 8.925781 C 30.222656 9.199219 30.578125 9.355469 30.949219 9.355469 L 30.957031 9.355469 L 32.898438 9.34375 C 33.265625 9.339844 33.617188 9.1875 33.871094 8.914062 L 36.042969 6.554688 L 39.9375 9.390625 L 38.351562 12.214844 C 38.167969 12.535156 38.128906 12.921875 38.242188 13.273438 L 38.820312 15.085938 C 38.933594 15.445312 39.195312 15.734375 39.535156 15.894531 L 42.484375 17.25 L 40.992188 21.828125 L 37.808594 21.191406 C 37.441406 21.113281 37.058594 21.199219 36.757812 21.421875 L 35.214844 22.550781 C 34.914062 22.769531 34.722656 23.101562 34.679688 23.472656 L 34.300781 26.683594 L 29.484375 26.675781 L 29.113281 23.488281 C 29.070312 23.125 28.878906 22.792969 28.585938 22.574219 L 27.023438 21.417969 C 26.71875 21.195312 26.335938 21.109375 25.96875 21.183594 L 22.808594 21.816406 L 21.324219 17.230469 Z M 20.636719 23.765625 C 20.84375 24.410156 21.496094 24.789062 22.164062 24.664062 L 25.914062 23.914062 L 26.53125 24.371094 L 26.976562 28.164062 C 27.050781 28.835938 27.621094 29.339844 28.296875 29.34375 L 35.488281 29.351562 C 36.164062 29.351562 36.734375 28.84375 36.8125 28.171875 L 37.257812 24.359375 L 37.859375 23.921875 L 41.632812 24.675781 C 42.285156 24.808594 42.953125 24.425781 43.164062 23.78125 L 45.386719 16.945312 C 45.597656 16.304688 45.292969 15.605469 44.675781 15.320312 L 41.183594 13.714844 L 40.960938 13.015625 L 42.84375 9.664062 C 43.175781 9.074219 43.011719 8.328125 42.464844 7.929688 L 36.652344 3.703125 C 36.101562 3.304688 35.347656 3.378906 34.886719 3.875 L 32.300781 6.679688 L 31.53125 6.683594 L 28.9375 3.871094 C 28.480469 3.371094 27.71875 3.296875 27.175781 3.695312 L 21.355469 7.917969 C 20.808594 8.3125 20.644531 9.058594 20.976562 9.648438 L 22.863281 13.007812 L 22.640625 13.695312 L 19.132812 15.304688 C 18.519531 15.585938 18.210938 16.28125 18.421875 16.925781 Z M 20.636719 23.765625 "/>
</svg>
