<?xml version="1.0" encoding="UTF-8"?>
<svg xmlns="http://www.w3.org/2000/svg" xmlns:xlink="http://www.w3.org/1999/xlink" width="64" height="64" viewBox="0 0 64 64">
<path fill-rule="evenodd" fill="rgb(47.843137%, 63.137257%, 8.627451%)" fill-opacity="1" d="M 13.472656 17.332031 L 15.242188 17.332031 C 15.816406 17.332031 16.363281 17.578125 16.742188 18.007812 C 17.121094 18.4375 17.300781 19.011719 17.226562 19.582031 L 16.628906 24.363281 L 22.714844 16 L 20 16 C 19.550781 16 19.132812 15.773438 18.886719 15.398438 C 18.640625 15.027344 18.597656 14.554688 18.773438 14.140625 L 21.976562 6.667969 L 14.539062 6.667969 Z M 11.253906 19.339844 C 10.875 18.925781 10.6875 18.363281 10.746094 17.800781 L 11.945312 5.800781 C 12.046875 4.773438 12.902344 4 13.9375 4 L 22.988281 4 C 23.664062 4 24.285156 4.335938 24.660156 4.898438 C 25.03125 5.460938 25.09375 6.167969 24.828125 6.789062 L 22.019531 13.332031 L 22.714844 13.332031 C 23.722656 13.332031 24.632812 13.890625 25.089844 14.789062 C 25.546875 15.6875 25.464844 16.753906 24.871094 17.566406 L 15.742188 30.117188 C 15.488281 30.46875 15.082031 30.667969 14.667969 30.667969 C 14.5 30.667969 14.335938 30.636719 14.175781 30.574219 C 13.609375 30.347656 13.269531 29.773438 13.34375 29.167969 L 14.488281 20 L 12.734375 20 C 12.171875 20 11.632812 19.761719 11.253906 19.339844 Z M 26.15625 41.332031 L 31.175781 41.332031 L 28.667969 36.316406 Z M 22.808594 42.070312 L 27.472656 32.738281 C 27.925781 31.832031 29.40625 31.832031 29.859375 32.738281 L 34.523438 42.070312 C 34.730469 42.484375 34.710938 42.976562 34.464844 43.367188 C 34.222656 43.761719 33.792969 44 33.332031 44 L 24 44 C 23.539062 44 23.109375 43.761719 22.867188 43.367188 C 22.621094 42.976562 22.601562 42.484375 22.808594 42.070312 Z M 44 46.667969 C 45.46875 46.667969 46.667969 45.46875 46.667969 44 C 46.667969 42.53125 45.46875 41.332031 44 41.332031 C 42.53125 41.332031 41.332031 42.53125 41.332031 44 C 41.332031 45.46875 42.53125 46.667969 44 46.667969 Z M 44 49.332031 C 41.058594 49.332031 38.667969 46.941406 38.667969 44 C 38.667969 41.058594 41.058594 38.667969 44 38.667969 C 46.941406 38.667969 49.332031 41.058594 49.332031 44 C 49.332031 46.941406 46.941406 49.332031 44 49.332031 Z M 10.667969 46.667969 L 16 46.667969 L 16 41.332031 L 10.667969 41.332031 Z M 8 40 C 8 39.265625 8.597656 38.667969 9.332031 38.667969 L 17.332031 38.667969 C 18.070312 38.667969 18.667969 39.265625 18.667969 40 L 18.667969 48 C 18.667969 48.734375 18.070312 49.332031 17.332031 49.332031 L 9.332031 49.332031 C 8.597656 49.332031 8 48.734375 8 48 Z M 60 25.332031 L 57.332031 25.332031 L 57.332031 28 L 58.667969 28 L 58.667969 58.667969 L 12 58.667969 L 12 57.332031 L 9.332031 57.332031 L 9.332031 60 C 9.332031 60.734375 9.929688 61.332031 10.667969 61.332031 L 60 61.332031 C 60.734375 61.332031 61.332031 60.734375 61.332031 60 L 61.332031 26.667969 C 61.332031 25.929688 60.734375 25.332031 60 25.332031 Z M 53.332031 54.667969 L 4 54.667969 C 3.261719 54.667969 2.667969 54.070312 2.667969 53.332031 L 2.667969 22.667969 C 2.667969 20.460938 4.460938 18.667969 6.667969 18.667969 L 8 18.667969 L 8 21.332031 L 6.667969 21.332031 C 5.929688 21.332031 5.332031 21.933594 5.332031 22.667969 L 5.332031 52 L 52 52 L 52 22.667969 C 52 21.933594 51.402344 21.332031 50.667969 21.332031 L 45.332031 21.332031 C 44.722656 21.332031 44.1875 20.917969 44.039062 20.324219 L 42.957031 16 L 34.375 16 L 33.292969 20.324219 C 33.144531 20.917969 32.609375 21.332031 32 21.332031 L 28 21.332031 L 28 18.667969 L 30.957031 18.667969 L 31.785156 15.351562 C 32.085938 14.164062 33.148438 13.332031 34.375 13.332031 L 42.957031 13.332031 C 44.183594 13.332031 45.246094 14.164062 45.546875 15.351562 L 46.375 18.667969 L 50.667969 18.667969 C 52.871094 18.667969 54.667969 20.460938 54.667969 22.667969 L 54.667969 53.332031 C 54.667969 54.070312 54.070312 54.667969 53.332031 54.667969 Z M 53.332031 54.667969 "/>
</svg>
