<?xml version="1.0" encoding="UTF-8"?>
<svg xmlns="http://www.w3.org/2000/svg" xmlns:xlink="http://www.w3.org/1999/xlink" width="64" height="64" viewBox="0 0 64 64">
<path fill-rule="evenodd" fill="rgb(47.843137%, 63.137257%, 8.627451%)" fill-opacity="1" d="M 55.277344 55.691406 L 44.960938 55.691406 C 43.9375 56.792969 42.773438 57.757812 41.496094 58.5625 L 52.921875 58.5625 Z M 32.316406 58.5625 C 40.378906 58.5625 46.9375 52.003906 46.9375 43.941406 C 46.9375 35.878906 40.378906 29.320312 32.316406 29.320312 C 24.253906 29.320312 17.695312 35.878906 17.695312 43.941406 C 17.695312 52.003906 24.253906 58.5625 32.316406 58.5625 Z M 59.125 55.203125 L 54.585938 60.742188 C 54.332031 61.050781 53.953125 61.230469 53.554688 61.230469 L 31.996094 61.230469 C 31.957031 61.230469 31.925781 61.210938 31.886719 61.207031 C 22.554688 60.980469 15.027344 53.332031 15.027344 43.941406 C 15.027344 34.40625 22.78125 26.652344 32.316406 26.652344 C 41.847656 26.652344 49.601562 34.40625 49.601562 43.941406 C 49.601562 47.277344 48.636719 50.382812 46.996094 53.023438 L 58.09375 53.023438 C 58.609375 53.023438 59.078125 53.324219 59.300781 53.789062 C 59.519531 54.253906 59.453125 54.804688 59.125 55.203125 Z M 32.316406 50.808594 C 36.101562 50.808594 39.179688 47.726562 39.179688 43.941406 C 39.179688 40.15625 36.101562 37.074219 32.316406 37.074219 C 28.527344 37.074219 25.449219 40.15625 25.449219 43.941406 C 25.449219 47.726562 28.527344 50.808594 32.316406 50.808594 Z M 32.316406 53.476562 C 27.058594 53.476562 22.78125 49.199219 22.78125 43.941406 C 22.78125 38.683594 27.058594 34.40625 32.316406 34.40625 C 37.570312 34.40625 41.847656 38.683594 41.847656 43.941406 C 41.847656 49.199219 37.570312 53.476562 32.316406 53.476562 Z M 23.363281 5.332031 C 15.910156 5.332031 11.3125 7.492188 6.667969 10.175781 L 6.667969 59.894531 L 4 59.894531 L 4 9.410156 C 4 8.9375 4.25 8.496094 4.660156 8.261719 C 9.6875 5.3125 14.902344 2.667969 23.363281 2.667969 C 31.226562 2.667969 36.984375 5.636719 41.609375 8.019531 L 42.003906 8.222656 C 42.449219 8.453125 42.726562 8.910156 42.726562 9.410156 L 42.726562 25.644531 L 40.0625 25.644531 L 40.0625 10.222656 C 35.542969 7.894531 30.410156 5.332031 23.363281 5.332031 Z M 23.363281 5.332031 "/>
</svg>
