<?xml version="1.0" encoding="UTF-8"?>
<svg xmlns="http://www.w3.org/2000/svg" xmlns:xlink="http://www.w3.org/1999/xlink" width="64" height="64" viewBox="0 0 64 64">
<path fill-rule="evenodd" fill="rgb(47.843137%, 63.137257%, 8.627451%)" fill-opacity="1" d="M 21.292969 41.328125 L 18.625 41.328125 L 18.625 45.328125 C 18.625 46.0625 19.222656 46.660156 19.957031 46.660156 L 34.625 46.660156 L 34.625 43.996094 L 21.292969 43.996094 Z M 50.625 44.3125 L 50.625 43.296875 C 48.617188 43.921875 46.113281 44.015625 44.78125 44.015625 C 43.410156 44.015625 40.691406 43.902344 38.625 43.175781 L 38.625 44.347656 C 38.679688 44.464844 39.34375 45.105469 41.515625 45.472656 C 42.035156 45.5625 42.589844 45.625 43.167969 45.667969 C 43.40625 45.6875 43.644531 45.699219 43.882812 45.707031 C 44.371094 45.722656 44.875 45.722656 45.363281 45.707031 C 45.601562 45.699219 45.839844 45.6875 46.074219 45.667969 C 46.65625 45.625 47.210938 45.5625 47.730469 45.472656 C 49.902344 45.105469 50.566406 44.464844 50.625 44.3125 Z M 44.601562 29.9375 C 41.378906 29.9375 39.59375 30.625 38.910156 31.089844 C 39.839844 31.617188 41.921875 32.125 44.761719 32.125 C 47.628906 32.125 49.542969 31.625 50.464844 31.167969 C 49.957031 30.765625 48.125 29.9375 44.601562 29.9375 Z M 38.625 40.246094 C 39.101562 40.636719 41.070312 41.347656 44.785156 41.347656 C 47.957031 41.347656 49.835938 40.839844 50.625 40.445312 L 50.625 38.648438 C 48.496094 39.328125 45.84375 39.40625 44.785156 39.40625 C 43.699219 39.40625 40.808594 39.320312 38.625 38.542969 Z M 38.625 33.863281 L 38.625 35.578125 C 39.089844 35.984375 41.058594 36.738281 44.789062 36.738281 C 47.988281 36.738281 49.851562 36.183594 50.625 35.785156 L 50.625 33.988281 C 49.101562 34.503906 47.074219 34.792969 44.789062 34.792969 C 42.34375 34.792969 40.1875 34.453125 38.625 33.863281 Z M 53.292969 31.308594 L 53.292969 36.917969 L 53.296875 36.921875 C 53.296875 36.925781 53.292969 36.925781 53.292969 36.929688 L 53.292969 41.597656 C 53.292969 41.597656 53.292969 41.601562 53.292969 41.601562 L 53.292969 44.347656 C 53.292969 45.425781 52.628906 47.347656 48.179688 48.101562 C 47.570312 48.203125 46.929688 48.28125 46.269531 48.328125 C 46.003906 48.347656 45.734375 48.363281 45.457031 48.375 C 45.183594 48.382812 44.90625 48.386719 44.625 48.386719 C 44.34375 48.386719 44.066406 48.382812 43.792969 48.375 C 43.515625 48.363281 43.246094 48.347656 42.980469 48.328125 C 42.320312 48.28125 41.675781 48.203125 41.070312 48.101562 C 36.621094 47.347656 35.957031 45.425781 35.957031 44.347656 L 35.957031 31.308594 C 35.957031 28.519531 40.3125 27.269531 44.625 27.269531 C 48.9375 27.269531 53.292969 28.519531 53.292969 31.308594 Z M 43.957031 19.996094 L 29.292969 19.996094 L 29.292969 22.660156 L 42.625 22.660156 L 42.625 25.328125 L 45.292969 25.328125 L 45.292969 21.328125 C 45.292969 20.589844 44.695312 19.996094 43.957031 19.996094 Z M 25.292969 36.101562 L 25.292969 35.03125 C 23.261719 35.699219 20.660156 35.804688 19.292969 35.804688 C 17.953125 35.804688 15.335938 35.691406 13.292969 35.019531 L 13.292969 36.136719 C 13.347656 36.25 14.011719 36.890625 16.183594 37.261719 C 16.703125 37.347656 17.257812 37.414062 17.835938 37.457031 C 18.070312 37.472656 18.3125 37.488281 18.550781 37.496094 C 19.039062 37.511719 19.542969 37.511719 20.027344 37.496094 C 20.269531 37.488281 20.507812 37.472656 20.742188 37.457031 C 21.324219 37.414062 21.875 37.347656 22.398438 37.261719 C 24.570312 36.890625 25.234375 36.25 25.292969 36.101562 Z M 19.269531 21.722656 C 15.929688 21.722656 14.125 22.464844 13.503906 22.929688 C 14.476562 23.4375 16.519531 23.914062 19.273438 23.914062 C 22.230469 23.914062 24.183594 23.382812 25.0625 22.910156 C 24.488281 22.496094 22.675781 21.722656 19.269531 21.722656 Z M 25.289062 25.71875 C 23.75 26.269531 21.667969 26.582031 19.300781 26.582031 C 16.933594 26.582031 14.839844 26.261719 13.292969 25.707031 L 13.292969 27.484375 C 13.96875 27.902344 15.914062 28.523438 19.300781 28.523438 C 22.734375 28.523438 24.632812 27.886719 25.292969 27.488281 Z M 13.292969 32.144531 C 13.976562 32.546875 15.914062 33.136719 19.296875 33.136719 C 22.691406 33.136719 24.613281 32.554688 25.292969 32.152344 L 25.289062 30.386719 C 23.136719 31.109375 20.378906 31.191406 19.296875 31.191406 C 18.234375 31.191406 15.453125 31.117188 13.292969 30.386719 Z M 27.957031 23.097656 L 27.957031 36.136719 C 27.957031 37.214844 27.292969 39.132812 22.847656 39.890625 C 22.234375 39.996094 21.59375 40.070312 20.933594 40.117188 C 20.671875 40.136719 20.398438 40.152344 20.125 40.160156 C 19.851562 40.171875 19.574219 40.175781 19.292969 40.175781 C 19.011719 40.175781 18.734375 40.171875 18.457031 40.160156 C 18.183594 40.152344 17.910156 40.136719 17.648438 40.117188 C 16.992188 40.070312 16.347656 39.996094 15.738281 39.890625 C 11.289062 39.136719 10.625 37.214844 10.625 36.136719 L 10.625 23.097656 C 10.625 20.304688 14.980469 19.058594 19.292969 19.058594 C 23.605469 19.058594 27.957031 20.304688 27.957031 23.097656 Z M 50.238281 54.695312 C 48.492188 56.121094 46.558594 57.320312 44.503906 58.246094 C 40.394531 60.097656 36.113281 60.988281 31.921875 60.988281 C 25.652344 60.988281 19.578125 58.996094 14.464844 55.199219 C 7.03125 49.6875 2.730469 41.230469 2.667969 31.996094 L 5.484375 31.976562 C 5.542969 40.359375 9.429688 48.039062 16.140625 53.042969 C 21.8125 57.269531 28.785156 59.027344 35.78125 58.011719 C 44.539062 56.738281 52.015625 51.289062 55.984375 43 C 57.417969 40.007812 58.246094 36.738281 58.410156 33.425781 C 58.871094 24.238281 54.882812 15.882812 47.78125 10.589844 C 37.039062 2.582031 22.167969 3.992188 13.050781 13.328125 L 15.957031 13.328125 L 15.957031 15.996094 L 10.632812 15.996094 C 10.625 16 10.621094 16.007812 10.617188 16.011719 L 10.59375 15.996094 L 9.292969 15.996094 C 8.554688 15.996094 7.957031 15.398438 7.957031 14.660156 L 7.957031 7.996094 L 10.625 7.996094 L 10.625 11.855469 C 22.132812 -0.347656 42.429688 -0.816406 54.398438 12.980469 C 56.617188 15.542969 58.363281 18.507812 59.507812 21.699219 C 63.808594 33.695312 60.253906 46.523438 50.238281 54.695312 Z M 50.238281 54.695312 "/>
</svg>
