<?xml version="1.0" encoding="UTF-8"?>
<svg xmlns="http://www.w3.org/2000/svg" xmlns:xlink="http://www.w3.org/1999/xlink" width="64" height="64" viewBox="0 0 64 64">
<path fill-rule="evenodd" fill="rgb(47.843137%, 63.137257%, 8.627451%)" fill-opacity="1" d="M 56.554688 29.738281 C 56.273438 28.59375 50.46875 25.984375 41.949219 25.984375 C 33.425781 25.984375 27.621094 28.59375 27.34375 29.738281 L 27.351562 29.816406 C 27.8125 30.96875 33.539062 33.003906 41.949219 33.003906 C 50.273438 33.003906 55.960938 31.011719 56.519531 29.851562 L 56.53125 29.785156 L 56.546875 29.785156 Z M 56.050781 33.351562 C 52.214844 35.125 45.804688 35.671875 41.949219 35.671875 C 38.082031 35.671875 31.660156 35.121094 27.828125 33.34375 L 29.203125 43.542969 C 30.230469 43.917969 31.191406 44.527344 32.039062 45.367188 C 32.527344 45.847656 32.957031 46.398438 33.320312 47.011719 C 34.132812 46.652344 35.054688 46.578125 35.945312 46.839844 C 37.417969 47.277344 38.453125 48.496094 38.820312 50.175781 C 39.414062 50.371094 40.007812 50.648438 40.535156 50.980469 C 42.355469 52.132812 43.28125 53.644531 43.28125 55.472656 C 43.28125 56.707031 43 57.765625 42.46875 58.65625 C 44.925781 58.621094 47.355469 58.363281 49.351562 57.898438 C 50.175781 57.710938 50.898438 57.492188 51.507812 57.253906 C 52.449219 56.878906 52.839844 56.550781 52.945312 56.417969 C 52.945312 56.390625 52.949219 56.367188 52.953125 56.339844 L 54.378906 45.738281 C 50.515625 44.511719 45.621094 42.300781 42.988281 41.0625 C 42.695312 41.230469 42.359375 41.332031 42 41.332031 C 40.898438 41.332031 40 40.4375 40 39.332031 C 40 38.230469 40.898438 37.332031 42 37.332031 C 42.804688 37.332031 43.5 37.816406 43.816406 38.503906 C 45.90625 39.492188 50.855469 41.765625 54.742188 43.054688 Z M 40.613281 55.472656 C 40.613281 54.835938 40.433594 54.074219 39.105469 53.234375 C 38.585938 52.902344 37.941406 52.648438 37.390625 52.554688 C 36.714844 52.441406 36.246094 51.839844 36.28125 51.171875 C 36.191406 50.234375 35.785156 49.574219 35.1875 49.398438 C 34.707031 49.257812 34.207031 49.441406 33.882812 49.875 C 33.585938 50.269531 33.09375 50.460938 32.617188 50.394531 C 32.132812 50.320312 31.726562 49.988281 31.558594 49.523438 C 31.234375 48.613281 30.765625 47.851562 30.167969 47.261719 C 29.628906 46.730469 28.402344 45.753906 26.660156 45.753906 C 26.050781 45.753906 25.375 45.875 24.644531 46.175781 C 23.074219 46.832031 21.792969 48.796875 21.792969 50.558594 C 21.792969 50.761719 21.804688 50.960938 21.832031 51.15625 C 21.914062 51.824219 21.484375 52.449219 20.832031 52.613281 C 19.761719 52.882812 18.484375 53.613281 18.484375 55.574219 C 18.484375 57.171875 19.363281 58.046875 20.105469 58.5 C 20.28125 58.609375 20.492188 58.667969 20.707031 58.667969 L 37.496094 58.683594 L 37.503906 58.683594 C 38.023438 58.679688 40.613281 58.503906 40.613281 55.472656 Z M 19.128906 50.382812 C 19.207031 47.601562 21.113281 44.761719 23.617188 43.714844 C 24.558594 43.324219 25.511719 43.140625 26.453125 43.113281 L 24.722656 30.277344 L 24.726562 30.277344 C 24.722656 30.277344 24.722656 30.277344 24.722656 30.273438 L 24.679688 29.945312 C 24.671875 29.886719 24.667969 29.832031 24.667969 29.773438 C 24.667969 27.9375 26.578125 26.433594 29.433594 25.332031 L 29.332031 25.332031 L 29.332031 6.667969 C 29.332031 5.933594 28.734375 5.332031 28 5.332031 L 6.667969 5.332031 C 5.929688 5.332031 5.332031 5.933594 5.332031 6.667969 L 5.332031 53.332031 C 5.332031 54.070312 5.929688 54.667969 6.667969 54.667969 L 15.878906 54.667969 C 16.148438 52.699219 17.308594 51.171875 19.128906 50.382812 Z M 20.707031 61.332031 C 19.996094 61.332031 19.304688 61.136719 18.710938 60.773438 C 17.867188 60.257812 16.59375 59.183594 16.066406 57.332031 L 10.667969 57.332031 L 10.667969 61.332031 L 8 61.332031 L 8 57.332031 L 6.667969 57.332031 C 4.460938 57.332031 2.667969 55.539062 2.667969 53.332031 L 2.667969 6.667969 C 2.667969 4.460938 4.460938 2.667969 6.667969 2.667969 L 28 2.667969 C 30.207031 2.667969 32 4.460938 32 6.667969 L 32 24.519531 C 34.980469 23.742188 38.515625 23.316406 41.949219 23.316406 C 50.257812 23.316406 59.226562 25.785156 59.226562 29.773438 C 59.226562 29.832031 59.222656 29.886719 59.214844 29.945312 L 59.171875 30.273438 C 59.167969 30.328125 59.15625 30.382812 59.140625 30.4375 C 59.136719 30.449219 59.132812 30.460938 59.128906 30.46875 L 57.75 40.707031 C 60.011719 42.023438 61.09375 43.085938 61.296875 44.183594 C 61.410156 44.78125 61.253906 45.367188 60.863281 45.832031 C 60.410156 46.375 59.726562 46.640625 58.730469 46.640625 C 58.230469 46.640625 57.644531 46.566406 56.976562 46.433594 L 55.605469 56.625 C 55.550781 57.890625 54.503906 58.9375 52.488281 59.730469 C 51.753906 60.023438 50.902344 60.28125 49.953125 60.496094 C 47.621094 61.039062 44.777344 61.332031 41.949219 61.332031 Z M 10.667969 25.332031 L 25.332031 25.332031 L 25.332031 22.667969 L 10.667969 22.667969 Z M 10.667969 32 L 21.332031 32 L 21.332031 29.332031 L 10.667969 29.332031 Z M 10.667969 18.667969 L 25.332031 18.667969 L 25.332031 16 L 10.667969 16 Z M 10.667969 18.667969 "/>
</svg>
