<?xml version="1.0" encoding="UTF-8"?>
<svg xmlns="http://www.w3.org/2000/svg" xmlns:xlink="http://www.w3.org/1999/xlink" width="64" height="64" viewBox="0 0 64 64">
<path fill-rule="evenodd" fill="rgb(47.843137%, 63.137257%, 8.627451%)" fill-opacity="1" d="M 52.832031 48 C 52.464844 48 52.167969 47.699219 52.167969 47.332031 C 52.167969 46.964844 52.464844 46.667969 52.832031 46.667969 C 53.199219 46.667969 53.5 46.964844 53.5 47.332031 C 53.5 47.699219 53.199219 48 52.832031 48 M 52.832031 44 C 50.996094 44 49.5 45.496094 49.5 47.332031 C 49.5 49.171875 50.996094 50.667969 52.832031 50.667969 C 54.671875 50.667969 56.167969 49.171875 56.167969 47.332031 C 56.167969 45.496094 54.671875 44 52.832031 44 M 52.605469 57.589844 C 50.316406 54.027344 47.546875 49.039062 47.546875 46.960938 C 47.546875 43.949219 49.816406 41.5 52.605469 41.5 C 55.398438 41.5 57.667969 43.949219 57.667969 46.960938 C 57.667969 49.039062 54.898438 54.027344 52.605469 57.589844 M 52.605469 38.832031 C 48.347656 38.832031 44.878906 42.480469 44.878906 46.960938 C 44.878906 51.007812 50.828125 59.769531 51.507812 60.757812 C 51.757812 61.117188 52.167969 61.332031 52.605469 61.332031 C 53.046875 61.332031 53.457031 61.117188 53.707031 60.757812 C 54.382812 59.769531 60.332031 51.007812 60.332031 46.960938 C 60.332031 42.480469 56.867188 38.832031 52.605469 38.832031 M 30.492188 5.332031 C 44.363281 5.332031 54.136719 9.628906 54.320312 12.015625 L 54.285156 12.277344 C 54.253906 12.390625 54.191406 12.503906 54.121094 12.621094 C 54.097656 12.660156 54.085938 12.699219 54.058594 12.738281 C 53.980469 12.851562 53.871094 12.964844 53.753906 13.082031 C 53.714844 13.125 53.683594 13.164062 53.636719 13.207031 C 53.511719 13.324219 53.355469 13.441406 53.195312 13.558594 C 53.136719 13.601562 53.089844 13.644531 53.027344 13.6875 C 52.851562 13.804688 52.644531 13.925781 52.4375 14.046875 C 52.367188 14.085938 52.304688 14.128906 52.230469 14.167969 C 52 14.292969 51.742188 14.417969 51.472656 14.542969 C 51.402344 14.578125 51.335938 14.609375 51.261719 14.644531 C 50.960938 14.78125 50.628906 14.914062 50.289062 15.046875 C 50.230469 15.066406 50.183594 15.089844 50.121094 15.113281 C 49.730469 15.261719 49.308594 15.40625 48.867188 15.546875 C 48.851562 15.554688 48.839844 15.558594 48.824219 15.5625 C 44.636719 16.902344 38.277344 17.949219 30.5 17.949219 C 19.261719 17.949219 10.980469 15.761719 7.9375 13.667969 C 7.707031 13.507812 7.507812 13.351562 7.339844 13.195312 C 7.316406 13.175781 7.300781 13.15625 7.28125 13.132812 C 7.140625 13 7.019531 12.863281 6.925781 12.730469 C 6.902344 12.695312 6.890625 12.660156 6.867188 12.621094 C 6.796875 12.507812 6.734375 12.390625 6.703125 12.28125 L 6.667969 12.015625 C 6.851562 9.632812 16.621094 5.332031 30.492188 5.332031 M 57.542969 35.230469 C 57.15625 35.304688 56.167969 35.34375 53.945312 34.800781 L 54.238281 32.621094 C 56.558594 34.03125 57.3125 34.863281 57.542969 35.230469 M 45.855469 56.382812 C 44.917969 56.757812 43.738281 57.113281 42.359375 57.441406 C 38.894531 58.230469 34.683594 58.667969 30.5 58.667969 C 19.21875 58.667969 12.371094 55.777344 12.371094 54.503906 C 12.371094 54.445312 12.367188 54.386719 12.359375 54.328125 L 7.253906 16.363281 C 7.5625 16.539062 7.886719 16.710938 8.230469 16.878906 C 8.441406 16.980469 8.667969 17.078125 8.894531 17.179688 C 9.085938 17.265625 9.277344 17.347656 9.476562 17.429688 C 9.730469 17.53125 9.988281 17.632812 10.253906 17.730469 C 10.433594 17.796875 10.621094 17.863281 10.808594 17.921875 C 11.820312 18.273438 12.917969 18.589844 14.085938 18.871094 C 14.234375 18.90625 14.386719 18.945312 14.539062 18.976562 C 14.929688 19.070312 15.324219 19.15625 15.730469 19.238281 C 15.832031 19.257812 15.933594 19.277344 16.039062 19.300781 C 17.40625 19.570312 18.839844 19.800781 20.320312 19.988281 C 20.410156 20 20.496094 20.011719 20.582031 20.023438 C 22.667969 20.28125 24.832031 20.453125 27.015625 20.542969 L 27.210938 20.550781 C 28.304688 20.59375 29.402344 20.621094 30.492188 20.621094 C 31.570312 20.621094 32.652344 20.59375 33.730469 20.554688 C 33.832031 20.546875 33.933594 20.542969 34.039062 20.539062 C 35.601562 20.476562 37.152344 20.367188 38.675781 20.214844 C 38.769531 20.203125 38.863281 20.195312 38.957031 20.1875 C 39.410156 20.140625 39.851562 20.089844 40.296875 20.035156 C 40.472656 20.015625 40.648438 19.992188 40.824219 19.96875 C 41.253906 19.914062 41.683594 19.855469 42.105469 19.792969 C 42.164062 19.785156 42.21875 19.773438 42.277344 19.765625 C 43.101562 19.640625 43.90625 19.5 44.691406 19.351562 C 44.914062 19.304688 45.136719 19.265625 45.355469 19.21875 C 45.6875 19.148438 46.015625 19.078125 46.339844 19.003906 C 46.589844 18.945312 46.832031 18.886719 47.074219 18.828125 C 47.375 18.753906 47.675781 18.683594 47.964844 18.605469 C 48.433594 18.480469 48.894531 18.347656 49.335938 18.210938 C 49.570312 18.136719 49.789062 18.058594 50.015625 17.984375 C 50.28125 17.890625 50.546875 17.800781 50.804688 17.707031 C 51.023438 17.625 51.238281 17.542969 51.445312 17.457031 C 51.710938 17.351562 51.960938 17.242188 52.210938 17.128906 C 52.382812 17.050781 52.558594 16.976562 52.722656 16.898438 C 53.078125 16.726562 53.414062 16.546875 53.730469 16.363281 L 51.351562 34.066406 C 45.273438 32.15625 37.171875 28.46875 33.492188 26.738281 C 33.492188 26.714844 33.5 26.691406 33.5 26.667969 C 33.5 25.195312 32.304688 24 30.832031 24 C 29.363281 24 28.167969 25.195312 28.167969 26.667969 C 28.167969 28.136719 29.363281 29.332031 30.832031 29.332031 C 31.28125 29.332031 31.695312 29.210938 32.066406 29.015625 C 36.246094 30.988281 44.671875 34.820312 50.992188 36.746094 L 50.945312 37.082031 L 53.421875 37.417969 C 54.851562 37.761719 56.027344 37.941406 56.976562 37.941406 C 58.296875 37.941406 59.183594 37.605469 59.753906 36.929688 C 60.21875 36.375 60.402344 35.675781 60.269531 34.960938 C 59.980469 33.425781 58.214844 31.804688 54.621094 29.757812 L 56.890625 12.867188 C 56.898438 12.835938 56.90625 12.804688 56.910156 12.773438 L 56.976562 12.257812 C 56.984375 12.199219 56.988281 12.140625 56.988281 12.085938 C 56.988281 6.535156 43.023438 2.667969 30.492188 2.667969 C 17.960938 2.667969 4 6.535156 4 12.085938 C 4 12.140625 4.003906 12.199219 4.011719 12.257812 L 4.078125 12.773438 C 4.082031 12.789062 4.085938 12.804688 4.089844 12.820312 L 9.707031 54.609375 C 9.878906 59.503906 22.515625 61.332031 30.5 61.332031 C 34.878906 61.332031 39.300781 60.875 42.960938 60.039062 C 44.480469 59.679688 45.789062 59.28125 46.835938 58.863281 C 47.226562 58.710938 47.589844 58.546875 47.917969 58.398438 L 46.796875 55.976562 C 46.515625 56.109375 46.203125 56.246094 45.855469 56.382812 "/>
</svg>
