<?xml version="1.0" encoding="UTF-8"?>
<svg xmlns="http://www.w3.org/2000/svg" xmlns:xlink="http://www.w3.org/1999/xlink" width="64" height="64" viewBox="0 0 64 64">
<path fill-rule="evenodd" fill="rgb(47.843137%, 63.137257%, 8.627451%)" fill-opacity="1" d="M 41.332031 10 C 36.648438 7.585938 31.332031 5.332031 24 5.332031 C 16.253906 5.332031 11.496094 7.207031 6.667969 10 L 6.667969 61.332031 L 4 61.332031 L 4 9.429688 C 4 9.003906 4.226562 8.609375 4.59375 8.390625 C 9.742188 5.375 15.34375 2.667969 24 2.667969 C 32.039062 2.667969 38.199219 5.707031 42.9375 8.148438 L 43.347656 8.359375 C 43.75 8.566406 44 8.980469 44 9.429688 L 44 21.332031 L 41.332031 21.332031 Z M 50.667969 49.332031 L 50.667969 60 C 50.667969 60.734375 50.066406 61.332031 49.332031 61.332031 L 13.21875 61.332031 C 12.554688 61.332031 12.015625 60.792969 12.015625 60.128906 L 12 34.667969 C 12 33.933594 12.597656 33.332031 13.332031 33.332031 L 24 33.332031 C 24.304688 33.332031 24.664062 33.558594 24.796875 33.832031 L 25.921875 35.632812 C 26.03125 35.855469 26.257812 36 26.507812 36 L 36 36 L 36 38.667969 L 25.332031 38.667969 C 24.871094 38.667969 24.667969 38.667969 24.269531 37.613281 L 23.492188 36.382812 C 23.394531 36.152344 22.917969 36 22.667969 36 L 14.667969 36 L 14.667969 58.667969 L 48 58.667969 L 48 49.332031 Z M 47.972656 43.992188 C 43.957031 43.992188 42.851562 43.410156 42.625 43.253906 L 40.535156 31.042969 C 43.425781 31.988281 47.328125 32.035156 48 32.035156 C 48.675781 32.035156 52.585938 31.988281 55.476562 31.039062 L 54.726562 35.511719 C 52.917969 34.851562 50.980469 33.933594 49.890625 33.410156 C 49.625 32.613281 48.882812 32.035156 48 32.035156 C 46.898438 32.035156 46 32.933594 46 34.035156 C 46 35.136719 46.898438 36.035156 48 36.035156 C 48.292969 36.035156 48.570312 35.96875 48.820312 35.855469 C 50.058594 36.445312 52.25 37.484375 54.28125 38.183594 L 53.429688 43.242188 C 53.191406 43.40625 52.046875 43.992188 47.972656 43.992188 Z M 48 26.703125 C 52.183594 26.703125 54.875 27.480469 55.773438 28.035156 C 54.875 28.589844 52.183594 29.367188 48 29.367188 C 43.816406 29.367188 41.125 28.589844 40.226562 28.035156 C 41.125 27.480469 43.816406 26.703125 48 26.703125 Z M 59.910156 37.03125 C 59.738281 36.144531 58.894531 35.449219 57.570312 34.691406 L 58.648438 28.257812 L 58.632812 28.253906 C 58.636719 28.179688 58.667969 28.113281 58.667969 28.035156 C 58.667969 24.148438 49.089844 24.035156 48 24.035156 C 46.910156 24.035156 37.332031 24.148438 37.332031 28.035156 C 37.332031 28.113281 37.363281 28.179688 37.367188 28.257812 L 37.351562 28.261719 L 40.015625 43.816406 C 40.339844 45.78125 42.792969 46.660156 47.972656 46.660156 C 53.226562 46.660156 55.714844 45.78125 56.039062 43.820312 L 56.863281 38.890625 C 57.304688 38.976562 57.683594 39.015625 58.011719 39.015625 C 58.738281 39.015625 59.210938 38.816406 59.554688 38.410156 C 59.878906 38.027344 60.007812 37.523438 59.910156 37.03125 Z M 59.910156 37.03125 "/>
</svg>
