<?xml version="1.0" encoding="UTF-8"?>
<svg xmlns="http://www.w3.org/2000/svg" xmlns:xlink="http://www.w3.org/1999/xlink" width="64" height="64" viewBox="0 0 64 64">
<path fill-rule="evenodd" fill="rgb(47.843137%, 63.137257%, 8.627451%)" fill-opacity="1" d="M 26.496094 5.332031 C 18.835938 5.332031 14.113281 7.554688 9.332031 10.316406 L 9.332031 61.332031 L 6.667969 61.332031 L 6.667969 9.546875 C 6.667969 9.074219 6.917969 8.636719 7.324219 8.398438 C 12.480469 5.378906 17.828125 2.667969 26.496094 2.667969 C 34.550781 2.667969 40.453125 5.707031 45.195312 8.152344 L 45.601562 8.363281 C 46.042969 8.589844 46.324219 9.046875 46.324219 9.546875 L 46.324219 32.667969 L 43.65625 32.667969 L 43.65625 10.363281 C 39.015625 7.96875 33.738281 5.332031 26.496094 5.332031 Z M 55.730469 58.800781 L 21.726562 58.800781 L 21.726562 35.363281 L 30.160156 35.363281 L 31.300781 37.726562 C 31.523438 38.183594 31.988281 38.476562 32.5 38.476562 L 55.730469 38.476562 Z M 57.066406 35.8125 L 33.335938 35.8125 L 32.195312 33.449219 C 31.972656 32.988281 31.507812 32.695312 30.996094 32.695312 L 20.390625 32.695312 C 19.65625 32.695312 19.058594 33.292969 19.058594 34.027344 L 19.058594 60.132812 C 19.058594 60.871094 19.65625 61.464844 20.390625 61.464844 L 57.066406 61.464844 C 57.800781 61.464844 58.398438 60.871094 58.398438 60.132812 L 58.398438 37.144531 C 58.398438 36.40625 57.800781 35.8125 57.066406 35.8125 Z M 57.066406 35.8125 "/>
</svg>
