<?xml version="1.0" encoding="UTF-8"?>
<svg xmlns="http://www.w3.org/2000/svg" xmlns:xlink="http://www.w3.org/1999/xlink" width="64" height="64" viewBox="0 0 64 64">
<path fill-rule="evenodd" fill="rgb(47.843137%, 63.137257%, 8.627451%)" fill-opacity="1" d="M 47.957031 10.101562 C 46.273438 9.777344 44.542969 9.535156 42.847656 9.359375 C 39.675781 7.96875 33.921875 6.667969 25.875 6.667969 C 11.621094 6.667969 5.433594 10.417969 5.34375 11.65625 L 5.371094 11.851562 C 5.644531 12.5625 7.570312 13.867188 12.421875 14.839844 C 11.734375 15.558594 11.238281 16.363281 10.980469 17.253906 C 9.097656 16.832031 7.320312 16.289062 5.890625 15.578125 L 10.457031 48.1875 C 10.464844 48.25 10.46875 48.3125 10.46875 48.375 C 10.523438 48.582031 11.394531 49.492188 14.492188 50.34375 L 14.890625 53.183594 C 10.28125 52.109375 7.882812 50.53125 7.804688 48.480469 L 2.757812 12.417969 C 2.738281 12.347656 2.738281 12.273438 2.726562 12.199219 L 2.679688 11.871094 L 2.671875 11.804688 C 2.667969 11.742188 2.667969 11.75 2.667969 11.683594 C 2.667969 6.695312 14.625 4 25.875 4 C 35.820312 4 45.851562 6.09375 47.957031 10.101562 Z M 55.863281 38.640625 L 56.042969 37.285156 C 57.375 38.097656 58.03125 38.660156 58.351562 39.003906 C 57.929688 39.019531 57.152344 38.949219 55.863281 38.640625 Z M 50.980469 55.207031 C 50.972656 55.265625 50.972656 55.308594 50.972656 55.367188 C 50.933594 55.515625 50.445312 56.101562 48.765625 56.757812 C 47.925781 57.085938 46.929688 57.382812 45.808594 57.636719 C 42.902344 58.300781 39.339844 58.667969 35.773438 58.667969 C 26.296875 58.667969 20.824219 56.351562 20.578125 55.382812 C 20.578125 55.320312 20.574219 55.257812 20.566406 55.199219 L 16 22.59375 C 20.414062 24.808594 28.625 25.671875 35.988281 25.671875 C 43.085938 25.671875 51 24.816406 55.292969 22.625 L 53.269531 37.90625 C 48.113281 36.269531 41.375 33.230469 38.335938 31.816406 C 38.136719 30.605469 37.089844 29.675781 35.820312 29.675781 C 34.410156 29.675781 33.265625 30.820312 33.265625 32.230469 C 33.265625 33.640625 34.410156 34.789062 35.820312 34.789062 C 36.386719 34.789062 36.902344 34.597656 37.324219 34.289062 C 40.914062 35.960938 47.699219 38.992188 52.914062 40.59375 Z M 35.988281 13.675781 C 48.75 13.675781 55.738281 16.953125 55.816406 18.664062 L 55.800781 18.785156 C 55.550781 20.347656 48.941406 23.003906 35.988281 23.003906 C 22.765625 23.003906 15.738281 20.308594 15.46875 18.785156 L 15.453125 18.664062 C 15.542969 17.425781 21.730469 13.675781 35.988281 13.675781 Z M 61.273438 38.917969 C 61.019531 37.546875 59.542969 36.183594 56.421875 34.421875 L 58.476562 18.867188 C 58.480469 18.808594 58.488281 18.753906 58.488281 18.695312 C 58.488281 13.648438 47.167969 11.007812 35.988281 11.007812 C 24.734375 11.007812 12.777344 13.703125 12.777344 18.695312 C 12.777344 18.757812 12.773438 18.757812 12.777344 18.820312 L 12.789062 18.878906 L 17.914062 55.492188 C 18.089844 59.773438 28.652344 61.332031 35.773438 61.332031 C 39.535156 61.332031 43.308594 60.945312 46.402344 60.238281 C 47.652344 59.953125 48.773438 59.617188 49.734375 59.238281 C 52.265625 58.253906 53.578125 56.988281 53.632812 55.484375 L 55.511719 41.292969 C 56.601562 41.539062 57.519531 41.667969 58.273438 41.667969 C 59.464844 41.667969 60.265625 41.363281 60.785156 40.75 C 61.222656 40.234375 61.398438 39.582031 61.273438 38.917969 Z M 61.273438 38.917969 "/>
</svg>
