<?xml version="1.0" encoding="UTF-8"?>
<svg xmlns="http://www.w3.org/2000/svg" xmlns:xlink="http://www.w3.org/1999/xlink" width="64" height="64" viewBox="0 0 64 64">
<path fill-rule="evenodd" fill="rgb(47.843137%, 63.137257%, 8.627451%)" fill-opacity="1" d="M 57.492188 44.976562 C 57.742188 44.589844 57.984375 44.195312 58.210938 43.792969 C 58.363281 43.523438 58.507812 43.253906 58.648438 42.976562 C 58.871094 42.550781 59.082031 42.117188 59.277344 41.679688 C 59.390625 41.421875 59.5 41.15625 59.605469 40.890625 C 59.792969 40.421875 59.96875 39.949219 60.125 39.46875 C 60.210938 39.214844 60.285156 38.960938 60.363281 38.703125 C 60.507812 38.203125 60.636719 37.699219 60.75 37.191406 C 60.808594 36.933594 60.859375 36.671875 60.910156 36.40625 C 61.003906 35.894531 61.085938 35.382812 61.144531 34.863281 C 61.179688 34.582031 61.207031 34.296875 61.230469 34.011719 C 61.273438 33.515625 61.296875 33.015625 61.308594 32.515625 C 61.3125 32.34375 61.332031 32.171875 61.332031 32 C 61.332031 31.835938 61.3125 31.679688 61.308594 31.515625 C 61.296875 31.085938 61.277344 30.652344 61.242188 30.214844 C 61.210938 29.8125 61.175781 29.40625 61.125 29.007812 C 61.105469 28.851562 61.101562 28.691406 61.078125 28.535156 C 61.050781 28.324219 60.996094 28.121094 60.957031 27.914062 C 60.886719 27.488281 60.804688 27.066406 60.710938 26.648438 C 60.625 26.273438 60.523438 25.898438 60.421875 25.527344 C 60.320312 25.167969 60.21875 24.808594 60.097656 24.453125 C 59.953125 24.011719 59.789062 23.578125 59.617188 23.144531 C 59.515625 22.886719 59.414062 22.625 59.300781 22.371094 C 59.078125 21.863281 58.835938 21.367188 58.578125 20.875 C 58.492188 20.707031 58.40625 20.539062 58.316406 20.375 C 58.015625 19.835938 57.691406 19.308594 57.351562 18.792969 C 57.277344 18.679688 57.203125 18.5625 57.125 18.449219 C 56.765625 17.929688 56.386719 17.425781 55.988281 16.929688 C 55.898438 16.820312 55.808594 16.707031 55.714844 16.597656 C 55.328125 16.140625 54.925781 15.695312 54.5 15.265625 C 54.363281 15.121094 54.226562 14.984375 54.085938 14.84375 C 53.699219 14.46875 53.296875 14.105469 52.886719 13.753906 C 52.679688 13.578125 52.46875 13.40625 52.261719 13.238281 C 52.0625 13.082031 51.878906 12.910156 51.675781 12.757812 C 51.484375 12.617188 51.285156 12.5 51.089844 12.367188 C 50.839844 12.1875 50.585938 12.019531 50.328125 11.851562 C 49.929688 11.59375 49.523438 11.34375 49.109375 11.109375 C 48.851562 10.964844 48.59375 10.828125 48.332031 10.691406 C 47.894531 10.464844 47.449219 10.25 47 10.050781 C 46.75 9.9375 46.496094 9.835938 46.238281 9.730469 C 45.761719 9.542969 45.285156 9.363281 44.796875 9.203125 C 44.546875 9.121094 44.292969 9.046875 44.039062 8.972656 C 43.539062 8.824219 43.035156 8.695312 42.527344 8.582031 C 42.265625 8.523438 42 8.472656 41.734375 8.421875 C 41.226562 8.328125 40.71875 8.25 40.207031 8.1875 C 39.917969 8.152344 39.625 8.125 39.332031 8.101562 C 38.84375 8.0625 38.355469 8.035156 37.863281 8.027344 C 37.683594 8.023438 37.511719 8 37.332031 8 C 37.050781 8 36.769531 8.015625 36.488281 8.023438 C 36.371094 8.027344 36.253906 8.027344 36.132812 8.035156 C 35.386719 8.070312 34.648438 8.144531 33.914062 8.246094 C 33.898438 8.25 33.882812 8.25 33.867188 8.253906 C 33.851562 8.253906 33.839844 8.257812 33.824219 8.261719 C 29.164062 8.933594 24.871094 10.945312 21.382812 14.066406 C 21.324219 14.117188 21.265625 14.167969 21.210938 14.21875 C 20.796875 14.597656 20.390625 14.988281 20 15.398438 L 20 10.667969 L 17.332031 10.667969 L 17.332031 18.667969 C 17.332031 19.402344 17.929688 20 18.667969 20 L 26.667969 20 L 26.667969 17.332031 L 21.859375 17.332031 C 22.011719 17.171875 22.171875 17.019531 22.332031 16.863281 C 22.667969 16.527344 23.011719 16.195312 23.371094 15.882812 C 23.628906 15.65625 23.898438 15.445312 24.167969 15.230469 C 24.484375 14.980469 24.808594 14.738281 25.140625 14.507812 C 25.449219 14.289062 25.765625 14.078125 26.085938 13.875 C 26.386719 13.6875 26.699219 13.515625 27.007812 13.347656 C 27.367188 13.148438 27.726562 12.941406 28.101562 12.765625 C 28.367188 12.636719 28.640625 12.53125 28.910156 12.414062 C 30.328125 11.808594 31.816406 11.355469 33.359375 11.066406 C 33.734375 10.996094 34.109375 10.917969 34.488281 10.867188 C 34.816406 10.824219 35.140625 10.800781 35.464844 10.773438 C 35.957031 10.730469 36.453125 10.699219 36.953125 10.6875 C 37.234375 10.683594 37.511719 10.683594 37.792969 10.6875 C 38.238281 10.699219 38.679688 10.71875 39.117188 10.757812 C 39.371094 10.777344 39.628906 10.800781 39.882812 10.832031 C 40.339844 10.886719 40.792969 10.957031 41.242188 11.042969 C 41.480469 11.085938 41.714844 11.132812 41.953125 11.183594 C 42.402344 11.285156 42.847656 11.398438 43.285156 11.527344 C 43.515625 11.59375 43.746094 11.664062 43.976562 11.738281 C 44.402344 11.878906 44.820312 12.035156 45.234375 12.203125 C 45.46875 12.292969 45.703125 12.390625 45.933594 12.492188 C 46.328125 12.667969 46.714844 12.855469 47.097656 13.054688 C 47.335938 13.175781 47.574219 13.304688 47.808594 13.4375 C 48.171875 13.644531 48.53125 13.863281 48.878906 14.089844 C 49.109375 14.238281 49.339844 14.390625 49.566406 14.550781 C 49.917969 14.796875 50.261719 15.054688 50.601562 15.324219 C 50.789062 15.472656 50.976562 15.625 51.15625 15.78125 C 51.523438 16.09375 51.878906 16.414062 52.222656 16.753906 C 52.347656 16.875 52.46875 16.996094 52.59375 17.121094 C 52.96875 17.507812 53.332031 17.902344 53.675781 18.3125 C 53.757812 18.40625 53.832031 18.503906 53.910156 18.601562 C 54.265625 19.042969 54.609375 19.492188 54.929688 19.960938 C 54.996094 20.058594 55.058594 20.15625 55.125 20.257812 C 55.429688 20.714844 55.714844 21.1875 55.984375 21.671875 C 56.0625 21.816406 56.140625 21.960938 56.214844 22.105469 C 56.445312 22.542969 56.660156 22.988281 56.863281 23.445312 C 56.960938 23.667969 57.050781 23.898438 57.144531 24.125 C 57.292969 24.511719 57.4375 24.898438 57.570312 25.292969 C 57.671875 25.609375 57.769531 25.929688 57.855469 26.253906 C 57.949219 26.578125 58.035156 26.90625 58.113281 27.238281 C 58.199219 27.613281 58.269531 27.996094 58.335938 28.382812 C 58.390625 28.695312 58.441406 29.007812 58.480469 29.328125 C 58.527344 29.695312 58.558594 30.0625 58.585938 30.429688 C 58.613281 30.804688 58.636719 31.179688 58.644531 31.558594 C 58.652344 31.863281 58.648438 32.167969 58.644531 32.46875 C 58.632812 32.910156 58.613281 33.347656 58.574219 33.78125 C 58.554688 34.039062 58.53125 34.292969 58.5 34.550781 C 58.445312 35.007812 58.375 35.464844 58.289062 35.910156 C 58.246094 36.148438 58.199219 36.382812 58.148438 36.617188 C 58.046875 37.070312 57.933594 37.515625 57.800781 37.957031 C 57.734375 38.183594 57.667969 38.414062 57.59375 38.640625 C 57.453125 39.066406 57.296875 39.488281 57.128906 39.902344 C 57.035156 40.136719 56.941406 40.371094 56.839844 40.605469 C 56.664062 40.996094 56.476562 41.378906 56.28125 41.761719 C 56.15625 42.003906 56.027344 42.242188 55.890625 42.480469 C 55.6875 42.839844 55.476562 43.1875 55.253906 43.535156 C 55.097656 43.773438 54.9375 44.011719 54.773438 44.246094 C 54.550781 44.558594 54.320312 44.867188 54.082031 45.167969 C 53.839844 45.480469 53.585938 45.777344 53.328125 46.070312 C 53.058594 46.375 52.792969 46.679688 52.507812 46.96875 C 52.335938 47.144531 52.152344 47.304688 51.976562 47.472656 C 50.691406 48.6875 49.261719 49.753906 47.707031 50.621094 C 47.613281 50.675781 47.519531 50.734375 47.421875 50.789062 C 46.953125 51.042969 46.464844 51.269531 45.976562 51.488281 C 45.769531 51.578125 45.558594 51.671875 45.351562 51.757812 C 44.914062 51.933594 44.46875 52.09375 44.015625 52.242188 C 43.710938 52.34375 43.398438 52.433594 43.089844 52.519531 C 42.703125 52.628906 42.3125 52.738281 41.914062 52.824219 C 41.472656 52.921875 41.023438 52.992188 40.574219 53.058594 C 40.277344 53.105469 39.984375 53.164062 39.683594 53.195312 C 38.910156 53.28125 38.125 53.332031 37.332031 53.332031 C 34.433594 53.332031 31.617188 52.761719 28.976562 51.632812 L 27.929688 54.085938 C 30.496094 55.179688 33.210938 55.78125 36 55.933594 L 36 56 L 37.335938 56 C 38.09375 56 38.84375 55.953125 39.589844 55.886719 C 39.6875 55.875 39.789062 55.871094 39.890625 55.859375 C 40.636719 55.78125 41.371094 55.664062 42.097656 55.519531 C 42.144531 55.511719 42.183594 55.503906 42.230469 55.496094 C 47.929688 54.324219 53 51.136719 56.574219 46.339844 C 56.710938 46.15625 56.824219 45.960938 56.957031 45.773438 C 57.140625 45.511719 57.316406 45.246094 57.492188 44.976562 Z M 26.046875 33.648438 L 22.046875 48.316406 L 24.617188 49.015625 L 28.617188 34.351562 Z M 19.058594 35.058594 L 13.722656 40.390625 C 13.203125 40.910156 13.203125 41.753906 13.722656 42.277344 L 19.058594 47.609375 L 20.941406 45.722656 L 16.550781 41.332031 L 20.941406 36.941406 Z M 31.609375 47.609375 L 36.941406 42.277344 C 37.460938 41.753906 37.460938 40.910156 36.941406 40.390625 L 31.609375 35.058594 L 29.722656 36.941406 L 34.113281 41.332031 L 29.722656 45.722656 Z M 40 39.929688 L 40 42.621094 C 42.953125 42.246094 48 39.972656 48 33.578125 C 48 28.402344 44.539062 25.675781 40.980469 24.734375 C 40.527344 21.8125 38.894531 19.699219 36.503906 19 C 34.890625 18.527344 33.210938 18.8125 31.84375 19.710938 C 31.167969 18.355469 30.328125 17.171875 29.332031 16.167969 L 29.332031 20.691406 C 29.617188 21.238281 29.882812 21.808594 30.101562 22.429688 C 30.265625 22.894531 30.671875 23.230469 31.160156 23.300781 C 31.648438 23.375 32.136719 23.171875 32.429688 22.777344 C 33.238281 21.683594 34.546875 21.203125 35.757812 21.558594 C 37.242188 21.992188 38.226562 23.535156 38.410156 25.699219 C 38.339844 26.386719 38.820312 27.019531 39.511719 27.140625 C 41.261719 27.441406 45.332031 28.671875 45.332031 33.578125 C 45.332031 38.519531 41.398438 39.675781 40 39.929688 Z M 11.117188 24.617188 C 11.117188 25.019531 11.136719 25.414062 11.1875 25.804688 C 11.265625 26.449219 10.867188 27.054688 10.246094 27.242188 C 10.203125 27.257812 10.160156 27.265625 10.113281 27.277344 C 8.289062 27.761719 5.332031 29.210938 5.332031 33.511719 C 5.332031 33.789062 5.34375 34.054688 5.371094 34.3125 C 5.628906 37.089844 7.859375 39.339844 10.667969 39.859375 L 10.667969 42.546875 C 6.492188 41.996094 3.101562 38.691406 2.714844 34.5625 C 2.683594 34.230469 2.667969 33.878906 2.667969 33.511719 C 2.667969 29.460938 4.808594 26.351562 8.453125 25.003906 C 8.449219 24.875 8.449219 24.746094 8.449219 24.617188 C 8.449219 20.375 11.066406 16.011719 14.667969 13.964844 L 14.667969 17.191406 C 12.570312 18.992188 11.117188 21.875 11.117188 24.617188 Z M 11.117188 24.617188 "/>
</svg>
