<?xml version="1.0" encoding="UTF-8"?>
<svg xmlns="http://www.w3.org/2000/svg" xmlns:xlink="http://www.w3.org/1999/xlink" width="64" height="64" viewBox="0 0 64 64">
<path fill-rule="evenodd" fill="rgb(47.843137%, 63.137257%, 8.627451%)" fill-opacity="1" d="M 51.496094 47.09375 C 51.496094 48.382812 52.34375 48.855469 54.125 49.367188 C 54.300781 49.417969 54.464844 49.464844 54.601562 49.507812 C 54.71875 49.546875 54.855469 49.585938 55 49.625 C 56.363281 50.019531 59.558594 50.933594 59.558594 54.457031 C 59.558594 56.933594 57.628906 58.753906 54.898438 59.007812 L 54.898438 61.332031 L 52.234375 61.332031 L 52.234375 58.742188 C 51.660156 58.558594 51.128906 58.300781 50.667969 57.96875 C 49.484375 57.117188 48.828125 55.847656 48.828125 54.40625 L 51.496094 54.40625 C 51.496094 55.976562 53.304688 56.390625 54.261719 56.390625 C 55.238281 56.390625 56.890625 55.984375 56.890625 54.457031 C 56.890625 53.171875 56.042969 52.699219 54.265625 52.1875 C 54.085938 52.136719 53.925781 52.089844 53.785156 52.046875 C 53.667969 52.007812 53.535156 51.96875 53.386719 51.929688 C 52.023438 51.535156 48.828125 50.621094 48.828125 47.09375 C 48.828125 45.671875 49.453125 44.429688 50.582031 43.601562 C 51.058594 43.25 51.621094 42.984375 52.234375 42.808594 L 52.234375 40 L 54.898438 40 L 54.898438 42.613281 C 57.289062 42.921875 59.558594 44.519531 59.558594 47.253906 L 56.890625 47.253906 C 56.890625 45.757812 55.191406 45.214844 54.050781 45.214844 C 53.3125 45.214844 52.621094 45.410156 52.15625 45.753906 C 51.710938 46.078125 51.496094 46.519531 51.496094 47.09375 M 54.082031 34.894531 L 54.375 32.699219 C 56.695312 34.113281 57.460938 34.957031 57.695312 35.324219 C 57.308594 35.398438 56.320312 35.441406 54.082031 34.894531 M 30.566406 18 C 16.824219 18 7.484375 14.734375 6.710938 12.355469 L 6.667969 12.042969 C 6.851562 9.648438 16.652344 5.332031 30.566406 5.332031 C 44.476562 5.332031 54.28125 9.644531 54.46875 12.039062 L 54.425781 12.355469 C 53.652344 14.734375 44.3125 18 30.566406 18 M 30.898438 26.667969 L 30.898438 25.332031 L 30.902344 26.664062 C 30.902344 26.667969 30.898438 26.667969 30.898438 26.667969 M 60.425781 35.054688 C 60.136719 33.511719 58.367188 31.890625 54.761719 29.835938 L 57.035156 12.898438 C 57.042969 12.867188 57.050781 12.835938 57.054688 12.804688 L 57.125 12.285156 C 57.132812 12.226562 57.136719 12.167969 57.136719 12.109375 C 57.136719 6.542969 43.132812 2.667969 30.566406 2.667969 C 18 2.667969 4 6.542969 4 12.109375 C 4 12.164062 4.003906 12.222656 4.011719 12.28125 L 4.078125 12.800781 C 4.078125 12.808594 4.082031 12.8125 4.082031 12.820312 L 9.722656 54.753906 C 9.898438 59.664062 22.566406 61.496094 30.570312 61.496094 C 34.964844 61.496094 39.398438 61.035156 43.066406 60.199219 C 44.578125 59.84375 45.890625 59.445312 46.96875 59.011719 C 47.402344 58.839844 47.800781 58.667969 48.171875 58.492188 L 47.042969 56.078125 C 46.710938 56.230469 46.359375 56.386719 45.976562 56.539062 C 45.023438 56.921875 43.839844 57.277344 42.46875 57.601562 C 38.996094 58.394531 34.769531 58.832031 30.570312 58.832031 C 19.257812 58.832031 12.386719 55.929688 12.386719 54.652344 C 12.386719 54.59375 12.382812 54.535156 12.375 54.476562 L 7.253906 16.386719 C 12.082031 19.207031 21.550781 20.667969 30.566406 20.667969 C 39.578125 20.667969 49.046875 19.207031 53.875 16.390625 L 51.488281 34.160156 C 45.382812 32.242188 37.234375 28.53125 33.554688 26.800781 C 33.554688 26.753906 33.566406 26.710938 33.566406 26.667969 C 33.566406 25.195312 32.371094 24 30.898438 24 C 29.429688 24 28.234375 25.195312 28.234375 26.667969 C 28.234375 28.136719 29.429688 29.332031 30.898438 29.332031 C 31.320312 29.332031 31.714844 29.226562 32.070312 29.050781 C 36.234375 31.019531 44.75 34.898438 51.128906 36.839844 L 50.847656 38.925781 L 53.492188 39.28125 L 53.722656 37.554688 C 55.089844 37.875 56.210938 38.035156 57.125 38.035156 C 58.449219 38.035156 59.339844 37.699219 59.90625 37.023438 C 60.375 36.46875 60.558594 35.769531 60.425781 35.054688 "/>
</svg>
