<?xml version="1.0" encoding="UTF-8"?>
<svg xmlns="http://www.w3.org/2000/svg" xmlns:xlink="http://www.w3.org/1999/xlink" width="64" height="64" viewBox="0 0 64 64">
<path fill-rule="evenodd" fill="rgb(47.843137%, 63.137257%, 8.627451%)" fill-opacity="1" d="M 49.648438 15.496094 L 56.3125 15.496094 L 56.3125 8.832031 L 49.648438 8.832031 Z M 48.148438 18.125 L 48.148438 20.328125 L 50.816406 20.328125 L 50.816406 18.160156 L 51.648438 18.160156 L 51.648438 20.328125 L 54.3125 20.328125 L 54.3125 18.160156 L 55.144531 18.160156 L 55.144531 20.328125 L 57.8125 20.328125 L 57.8125 18.125 C 58.410156 18.050781 58.867188 17.589844 58.945312 16.996094 L 61.144531 16.996094 L 61.144531 14.328125 L 58.976562 14.328125 L 58.976562 13.496094 L 61.144531 13.496094 L 61.144531 10.832031 L 58.976562 10.832031 L 58.976562 10 L 61.144531 10 L 61.144531 7.332031 L 58.945312 7.332031 C 58.867188 6.734375 58.410156 6.277344 57.8125 6.199219 L 57.8125 4 L 55.144531 4 L 55.144531 6.164062 L 54.3125 6.164062 L 54.3125 4 L 51.648438 4 L 51.648438 6.164062 L 50.816406 6.164062 L 50.816406 4 L 48.148438 4 L 48.148438 6.199219 C 47.550781 6.277344 47.09375 6.734375 47.015625 7.332031 L 44.816406 7.332031 L 44.816406 10 L 46.980469 10 L 46.980469 10.832031 L 44.816406 10.832031 L 44.816406 13.496094 L 46.980469 13.496094 L 46.980469 14.328125 L 44.816406 14.328125 L 44.816406 16.996094 L 47.015625 16.996094 C 47.09375 17.59375 47.550781 18.050781 48.148438 18.125 Z M 29.824219 15.496094 L 36.484375 15.496094 L 36.484375 8.832031 L 29.824219 8.832031 Z M 28.324219 18.125 L 28.324219 20.328125 L 30.988281 20.328125 L 30.988281 18.160156 L 31.820312 18.160156 L 31.820312 20.328125 L 34.488281 20.328125 L 34.488281 18.160156 L 35.320312 18.160156 L 35.320312 20.328125 L 37.988281 20.328125 L 37.988281 18.125 C 38.582031 18.050781 39.039062 17.589844 39.117188 16.996094 L 41.316406 16.996094 L 41.316406 14.328125 L 39.152344 14.328125 L 39.152344 13.496094 L 41.316406 13.496094 L 41.316406 10.832031 L 39.152344 10.832031 L 39.152344 10 L 41.316406 10 L 41.316406 7.332031 L 39.117188 7.332031 C 39.039062 6.734375 38.582031 6.277344 37.988281 6.199219 L 37.988281 4 L 35.320312 4 L 35.320312 6.164062 L 34.488281 6.164062 L 34.488281 4 L 31.820312 4 L 31.820312 6.164062 L 30.988281 6.164062 L 30.988281 4 L 28.324219 4 L 28.324219 6.199219 C 27.726562 6.277344 27.265625 6.734375 27.191406 7.332031 L 24.988281 7.332031 L 24.988281 10 L 27.15625 10 L 27.15625 10.832031 L 24.988281 10.832031 L 24.988281 13.496094 L 27.15625 13.496094 L 27.15625 14.328125 L 24.988281 14.328125 L 24.988281 16.996094 L 27.191406 16.996094 C 27.265625 17.59375 27.726562 18.050781 28.324219 18.125 Z M 10 15.496094 L 16.660156 15.496094 L 16.660156 8.832031 L 10 8.832031 Z M 8.496094 18.125 L 8.496094 20.328125 L 11.164062 20.328125 L 11.164062 18.160156 L 11.996094 18.160156 L 11.996094 20.328125 L 14.664062 20.328125 L 14.664062 18.160156 L 15.496094 18.160156 L 15.496094 20.328125 L 18.160156 20.328125 L 18.160156 18.125 C 18.757812 18.050781 19.214844 17.59375 19.292969 16.996094 L 21.492188 16.996094 L 21.492188 14.328125 L 19.328125 14.328125 L 19.328125 13.496094 L 21.492188 13.496094 L 21.492188 10.832031 L 19.328125 10.832031 L 19.328125 10 L 21.492188 10 L 21.492188 7.332031 L 19.292969 7.332031 C 19.214844 6.734375 18.757812 6.277344 18.160156 6.199219 L 18.160156 4 L 15.496094 4 L 15.496094 6.164062 L 14.664062 6.164062 L 14.664062 4 L 11.996094 4 L 11.996094 6.164062 L 11.164062 6.164062 L 11.164062 4 L 8.496094 4 L 8.496094 6.199219 C 7.902344 6.277344 7.441406 6.734375 7.367188 7.332031 L 5.167969 7.332031 L 5.167969 10 L 7.332031 10 L 7.332031 10.832031 L 5.167969 10.832031 L 5.167969 13.496094 L 7.332031 13.496094 L 7.332031 14.328125 L 5.167969 14.328125 L 5.167969 16.996094 L 7.367188 16.996094 C 7.441406 17.589844 7.902344 18.050781 8.496094 18.125 Z M 49.78125 37.96875 L 57.921875 56.308594 L 14.203125 56.308594 L 6.050781 37.96875 Z M 9.167969 33.304688 L 53.082031 33.304688 L 55.652344 44.617188 L 51.867188 36.09375 C 51.652344 35.613281 51.175781 35.300781 50.648438 35.300781 L 9.625 35.300781 Z M 14.664062 29.816406 C 14.664062 29.105469 15.226562 28.523438 15.917969 28.523438 L 41.925781 28.523438 C 42.660156 28.523438 43.257812 27.929688 43.257812 27.191406 L 43.257812 24.332031 C 43.257812 24.121094 43.40625 23.964844 43.605469 23.964844 L 49.261719 23.964844 C 49.460938 23.964844 49.617188 24.125 49.617188 24.332031 L 49.617188 27.191406 C 49.617188 27.929688 50.210938 28.523438 50.949219 28.523438 L 57.386719 28.523438 C 58.082031 28.523438 58.644531 29.105469 58.644531 29.816406 L 58.644531 45.746094 L 55.445312 31.675781 C 55.308594 31.070312 54.765625 30.636719 54.144531 30.636719 L 14.664062 30.636719 Z M 57.386719 25.855469 L 52.285156 25.855469 L 52.285156 24.332031 C 52.285156 22.660156 50.925781 21.296875 49.261719 21.296875 L 43.605469 21.296875 C 41.941406 21.296875 40.589844 22.660156 40.589844 24.332031 L 40.589844 25.855469 L 15.917969 25.855469 C 13.753906 25.855469 11.996094 27.632812 11.996094 29.816406 L 11.996094 30.636719 L 7.5 30.636719 C 7.09375 30.636719 6.710938 30.824219 6.457031 31.140625 C 6.203125 31.457031 6.109375 31.871094 6.199219 32.269531 L 6.890625 35.300781 L 4 35.300781 C 3.546875 35.300781 3.128906 35.53125 2.882812 35.910156 C 2.636719 36.289062 2.597656 36.765625 2.78125 37.175781 L 12.097656 58.136719 C 12.292969 58.625 12.769531 58.972656 13.328125 58.972656 L 59.976562 58.972656 C 60.710938 58.972656 61.308594 58.378906 61.308594 57.640625 L 61.308594 29.816406 C 61.308594 27.632812 59.550781 25.855469 57.386719 25.855469 Z M 57.386719 25.855469 "/>
</svg>
