<?xml version="1.0" encoding="UTF-8"?>
<svg xmlns="http://www.w3.org/2000/svg" xmlns:xlink="http://www.w3.org/1999/xlink" width="64" height="64" viewBox="0 0 64 64">
<path fill-rule="evenodd" fill="rgb(47.843137%, 63.137257%, 8.627451%)" fill-opacity="1" d="M 40.011719 43.679688 C 39.074219 43.679688 38.152344 43.484375 37.253906 43.09375 L 37.253906 41.714844 C 38.324219 42.074219 39.222656 42.257812 39.953125 42.257812 C 40.640625 42.257812 41.175781 42.101562 41.546875 41.792969 C 41.921875 41.484375 42.109375 41.046875 42.109375 40.480469 C 42.109375 39.40625 41.429688 38.867188 40.074219 38.867188 C 39.636719 38.867188 39.167969 38.898438 38.664062 38.957031 L 38.664062 37.828125 L 41.550781 34.6875 L 37.402344 34.6875 L 37.402344 33.292969 L 43.457031 33.292969 L 43.457031 34.628906 L 40.40625 37.621094 C 40.542969 37.613281 40.679688 37.605469 40.8125 37.605469 C 41.382812 37.605469 41.902344 37.726562 42.363281 37.964844 C 42.828125 38.207031 43.195312 38.546875 43.46875 38.984375 C 43.746094 39.425781 43.882812 39.929688 43.882812 40.496094 C 43.882812 41.113281 43.726562 41.660156 43.414062 42.136719 C 43.101562 42.617188 42.652344 42.996094 42.066406 43.269531 C 41.480469 43.542969 40.792969 43.679688 40.011719 43.679688 Z M 30.609375 37.695312 C 31.148438 37.324219 31.734375 37.136719 32.371094 37.136719 C 32.996094 37.136719 33.457031 37.34375 33.757812 37.761719 C 34.054688 38.175781 34.203125 38.816406 34.203125 39.675781 C 34.203125 40.546875 34.050781 41.191406 33.75 41.617188 C 33.445312 42.042969 32.980469 42.257812 32.355469 42.257812 C 31.738281 42.257812 31.15625 42.066406 30.609375 41.683594 Z M 30.609375 42.8125 C 30.894531 43.066406 31.226562 43.265625 31.609375 43.40625 C 31.988281 43.550781 32.386719 43.621094 32.796875 43.621094 C 33.441406 43.621094 34.003906 43.449219 34.484375 43.105469 C 34.960938 42.765625 35.328125 42.292969 35.582031 41.691406 C 35.835938 41.089844 35.964844 40.398438 35.964844 39.617188 C 35.964844 38.441406 35.6875 37.507812 35.132812 36.816406 C 34.582031 36.121094 33.84375 35.773438 32.914062 35.773438 C 32.460938 35.773438 32.03125 35.855469 31.613281 36.023438 C 31.199219 36.1875 30.820312 36.429688 30.480469 36.742188 L 30.316406 35.992188 L 28.878906 35.992188 L 28.878906 46.480469 L 30.609375 46.480469 Z M 22.402344 37.710938 C 22.691406 37.320312 23.136719 37.121094 23.730469 37.121094 C 24.308594 37.121094 24.851562 37.296875 25.359375 37.652344 L 25.359375 41.40625 C 24.839844 41.785156 24.292969 41.976562 23.71875 41.976562 C 22.554688 41.976562 21.972656 41.15625 21.972656 39.511719 C 21.972656 38.703125 22.117188 38.101562 22.402344 37.710938 Z M 23.203125 43.3125 C 24.003906 43.3125 24.722656 43.039062 25.359375 42.492188 L 25.359375 43.121094 C 25.359375 43.882812 25.191406 44.433594 24.859375 44.769531 C 24.527344 45.109375 23.996094 45.277344 23.261719 45.277344 C 22.539062 45.277344 21.722656 45.125 20.8125 44.824219 L 20.8125 46.054688 C 21.617188 46.457031 22.472656 46.65625 23.378906 46.65625 C 24.566406 46.65625 25.484375 46.332031 26.125 45.6875 C 26.769531 45.042969 27.089844 44.128906 27.089844 42.945312 L 27.089844 35.992188 L 25.625 35.992188 L 25.476562 36.667969 C 24.851562 36.070312 24.113281 35.773438 23.261719 35.773438 C 22.636719 35.773438 22.09375 35.933594 21.632812 36.257812 C 21.175781 36.578125 20.824219 37.027344 20.578125 37.597656 C 20.335938 38.171875 20.210938 38.828125 20.210938 39.570312 C 20.210938 40.707031 20.484375 41.613281 21.027344 42.292969 C 21.566406 42.972656 22.292969 43.3125 23.203125 43.3125 Z M 10.757812 58.667969 L 53.425781 58.667969 L 53.425781 20 L 10.757812 20 Z M 54.757812 17.332031 L 9.425781 17.332031 C 8.6875 17.332031 8.09375 17.929688 8.09375 18.667969 L 8.09375 60 C 8.09375 60.734375 8.6875 61.332031 9.425781 61.332031 L 54.757812 61.332031 C 55.496094 61.332031 56.09375 60.734375 56.09375 60 L 56.09375 18.667969 C 56.09375 17.929688 55.496094 17.332031 54.757812 17.332031 Z M 18.042969 5.332031 L 45.957031 5.335938 L 51.992188 13.332031 L 12.007812 13.332031 Z M 9.332031 16 L 54.667969 16 C 55.171875 16 55.632812 15.714844 55.859375 15.261719 C 56.085938 14.808594 56.035156 14.269531 55.730469 13.863281 L 47.6875 3.199219 C 47.433594 2.867188 47.039062 2.667969 46.621094 2.667969 L 17.378906 2.667969 C 16.960938 2.667969 16.566406 2.863281 16.316406 3.199219 L 8.269531 13.863281 C 7.964844 14.269531 7.914062 14.808594 8.140625 15.261719 C 8.367188 15.714844 8.828125 16 9.332031 16 Z M 9.332031 16 "/>
</svg>
