<?xml version="1.0" encoding="UTF-8"?>
<svg xmlns="http://www.w3.org/2000/svg" xmlns:xlink="http://www.w3.org/1999/xlink" width="64" height="64" viewBox="0 0 64 64">
<path fill-rule="evenodd" fill="rgb(47.843137%, 63.137257%, 8.627451%)" fill-opacity="1" d="M 54.667969 53.332031 L 54.667969 23.539062 C 54.667969 21.191406 53.480469 18.667969 50.871094 18.667969 L 48 18.667969 L 48 21.332031 L 50.871094 21.332031 C 51.933594 21.332031 52 23.519531 52 23.539062 L 52 52 L 5.332031 52 L 5.332031 23.550781 C 5.34375 23.03125 5.554688 21.332031 7.792969 21.332031 L 9.332031 21.332031 L 9.332031 18.667969 L 7.792969 18.667969 C 4.03125 18.667969 2.667969 21.578125 2.667969 23.539062 L 2.667969 53.332031 C 2.667969 54.070312 3.261719 54.667969 4 54.667969 L 53.332031 54.667969 C 54.070312 54.667969 54.667969 54.070312 54.667969 53.332031 Z M 33.796875 20 C 33.796875 19.074219 34.101562 16.945312 34.414062 16 L 40 16 L 40 13.332031 L 33.675781 13.332031 C 33.425781 13.332031 33.179688 13.402344 32.96875 13.539062 C 31.804688 14.269531 31.371094 16.996094 31.214844 18.667969 L 17.332031 18.667969 L 17.332031 21.332031 L 32.460938 21.332031 C 33.199219 21.332031 33.796875 20.734375 33.796875 20 Z M 32 44 C 32 45.46875 33.195312 46.667969 34.667969 46.667969 C 36.136719 46.667969 37.332031 45.46875 37.332031 44 C 37.332031 42.53125 36.136719 41.332031 34.667969 41.332031 C 33.195312 41.332031 32 42.53125 32 44 Z M 29.332031 44 C 29.332031 41.058594 31.726562 38.667969 34.667969 38.667969 C 37.609375 38.667969 40 41.058594 40 44 C 40 46.941406 37.609375 49.332031 34.667969 49.332031 C 31.726562 49.332031 29.332031 46.941406 29.332031 44 Z M 35.25 33.332031 L 32.816406 28.8125 L 30.378906 33.332031 Z M 37.480469 36 L 28.148438 36 C 27.679688 36 27.246094 35.753906 27.003906 35.351562 C 26.761719 34.945312 26.753906 34.449219 26.972656 34.035156 L 31.640625 25.367188 C 32.105469 24.503906 33.523438 24.503906 33.988281 25.367188 L 38.65625 34.035156 C 38.878906 34.449219 38.867188 34.945312 38.625 35.351562 C 38.386719 35.753906 37.949219 36 37.480469 36 Z M 16 42.667969 L 20 42.667969 L 20 38.667969 L 16 38.667969 Z M 21.332031 36 C 22.070312 36 22.667969 36.597656 22.667969 37.332031 L 22.667969 44 C 22.667969 44.734375 22.070312 45.332031 21.332031 45.332031 L 14.667969 45.332031 C 13.929688 45.332031 13.332031 44.734375 13.332031 44 L 13.332031 37.332031 C 13.332031 36.597656 13.929688 36 14.667969 36 Z M 57.4375 26.671875 L 57.304688 29.335938 C 58.054688 29.371094 58.667969 30.011719 58.667969 30.765625 L 58.667969 58.667969 L 12 58.667969 L 12 57.332031 L 9.332031 57.332031 L 9.332031 60 C 9.335938 60.738281 9.929688 61.332031 10.667969 61.332031 L 60 61.332031 C 60.738281 61.332031 61.332031 60.734375 61.332031 60 L 61.332031 30.765625 C 61.332031 28.578125 59.621094 26.78125 57.4375 26.671875 Z M 26.667969 7.203125 L 26.667969 16 L 29.332031 16 L 29.332031 7.234375 L 31.0625 8.945312 L 32.9375 7.054688 L 28.898438 3.054688 C 28.648438 2.804688 28.3125 2.667969 27.960938 2.667969 L 27.953125 2.667969 C 27.601562 2.667969 27.261719 2.8125 27.011719 3.0625 L 23.050781 7.0625 L 24.949219 8.9375 Z M 8.378906 24.929688 L 12.359375 29.023438 C 12.609375 29.277344 12.953125 29.425781 13.308594 29.425781 L 13.3125 29.425781 C 13.671875 29.425781 14.015625 29.28125 14.265625 29.027344 L 18.285156 24.933594 L 16.382812 23.066406 L 14.667969 24.8125 L 14.667969 13.332031 L 12 13.332031 L 12 24.828125 L 10.289062 23.070312 Z M 40.941406 23.058594 L 42.667969 24.78125 L 42.667969 13.332031 L 45.332031 13.332031 L 45.332031 24.78125 L 47.058594 23.058594 L 48.941406 24.941406 L 44.941406 28.941406 C 44.683594 29.203125 44.339844 29.332031 44 29.332031 C 43.660156 29.332031 43.316406 29.203125 43.058594 28.941406 L 39.058594 24.941406 Z M 40.941406 23.058594 "/>
</svg>
