<?xml version="1.0" encoding="UTF-8"?>
<svg xmlns="http://www.w3.org/2000/svg" xmlns:xlink="http://www.w3.org/1999/xlink" width="64" height="64" viewBox="0 0 64 64">
<path fill-rule="evenodd" fill="rgb(47.843137%, 63.137257%, 8.627451%)" fill-opacity="1" d="M 7.21875 58.667969 L 14.667969 58.667969 L 14.667969 61.332031 L 2.667969 61.332031 L 2.667969 49.332031 L 5.332031 49.332031 L 5.332031 56.78125 L 12.390625 49.722656 L 14.277344 51.609375 Z M 58.667969 49.332031 L 61.332031 49.332031 L 61.332031 61.332031 L 49.332031 61.332031 L 49.332031 58.667969 L 56.78125 58.667969 L 49.722656 51.609375 L 51.609375 49.722656 L 58.667969 56.78125 Z M 5.332031 14.667969 L 2.667969 14.667969 L 2.667969 2.667969 L 14.667969 2.667969 L 14.667969 5.332031 L 7.21875 5.332031 L 14.277344 12.390625 L 12.390625 14.277344 L 5.332031 7.21875 Z M 61.332031 2.667969 L 61.332031 14.667969 L 58.667969 14.667969 L 58.667969 7.21875 L 51.609375 14.277344 L 49.722656 12.390625 L 56.78125 5.332031 L 49.332031 5.332031 L 49.332031 2.667969 Z M 32 52 C 30.53125 52 29.332031 50.804688 29.332031 49.332031 C 29.332031 47.863281 30.53125 46.667969 32 46.667969 C 33.46875 46.667969 34.667969 47.863281 34.667969 49.332031 C 34.667969 50.804688 33.46875 52 32 52 Z M 9.332031 34.667969 C 7.863281 34.667969 6.667969 33.46875 6.667969 32 C 6.667969 30.53125 7.863281 29.332031 9.332031 29.332031 C 10.804688 29.332031 12 30.53125 12 32 C 12 33.46875 10.804688 34.667969 9.332031 34.667969 Z M 32 12 C 33.46875 12 34.667969 13.195312 34.667969 14.667969 C 34.667969 16.136719 33.46875 17.332031 32 17.332031 C 30.53125 17.332031 29.332031 16.136719 29.332031 14.667969 C 29.332031 13.195312 30.53125 12 32 12 Z M 54.667969 29.332031 C 56.136719 29.332031 57.332031 30.53125 57.332031 32 C 57.332031 33.46875 56.136719 34.667969 54.667969 34.667969 C 53.195312 34.667969 52 33.46875 52 32 C 52 30.53125 53.195312 29.332031 54.667969 29.332031 Z M 32 44 C 30.945312 44 29.960938 44.320312 29.132812 44.851562 L 14.34375 33.757812 C 14.539062 33.207031 14.667969 32.621094 14.667969 32 C 14.667969 31.378906 14.539062 30.792969 14.34375 30.242188 L 29.132812 19.148438 C 29.960938 19.679688 30.945312 20 32 20 C 33.058594 20 34.035156 19.679688 34.867188 19.148438 L 49.65625 30.242188 C 49.460938 30.792969 49.332031 31.378906 49.332031 32 C 49.332031 32.621094 49.460938 33.207031 49.65625 33.757812 L 34.867188 44.851562 C 34.035156 44.320312 33.058594 44 32 44 Z M 51.144531 35.976562 C 52.085938 36.808594 53.3125 37.332031 54.667969 37.332031 C 57.609375 37.332031 60 34.941406 60 32 C 60 29.058594 57.609375 26.667969 54.667969 26.667969 C 53.3125 26.667969 52.085938 27.191406 51.144531 28.023438 L 36.679688 17.175781 C 37.082031 16.425781 37.332031 15.578125 37.332031 14.667969 C 37.332031 11.726562 34.941406 9.332031 32 9.332031 C 29.058594 9.332031 26.667969 11.726562 26.667969 14.667969 C 26.667969 15.578125 26.917969 16.425781 27.320312 17.175781 L 12.855469 28.023438 C 11.914062 27.191406 10.6875 26.667969 9.332031 26.667969 C 6.390625 26.667969 4 29.058594 4 32 C 4 34.941406 6.390625 37.332031 9.332031 37.332031 C 10.6875 37.332031 11.914062 36.808594 12.855469 35.976562 L 27.320312 46.824219 C 26.917969 47.574219 26.667969 48.421875 26.667969 49.332031 C 26.667969 52.273438 29.058594 54.667969 32 54.667969 C 34.941406 54.667969 37.332031 52.273438 37.332031 49.332031 C 37.332031 48.421875 37.082031 47.574219 36.679688 46.824219 Z M 51.144531 35.976562 "/>
</svg>
