<?xml version="1.0" encoding="UTF-8"?>
<svg xmlns="http://www.w3.org/2000/svg" xmlns:xlink="http://www.w3.org/1999/xlink" width="64" height="64" viewBox="0 0 64 64">
<path fill-rule="evenodd" fill="rgb(47.843137%, 63.137257%, 8.627451%)" fill-opacity="1" d="M 54.054688 34.878906 L 54.351562 32.683594 C 56.667969 34.097656 57.433594 34.941406 57.667969 35.308594 C 57.277344 35.382812 56.289062 35.421875 54.054688 34.878906 Z M 48.730469 54.449219 C 48.722656 54.507812 48.71875 54.566406 48.71875 54.625 C 48.71875 54.832031 48.210938 55.617188 45.960938 56.507812 C 44.960938 56.902344 43.777344 57.257812 42.441406 57.566406 C 39 58.363281 34.777344 58.800781 30.550781 58.800781 C 19.253906 58.800781 12.390625 55.902344 12.390625 54.625 C 12.390625 54.566406 12.386719 54.507812 12.378906 54.449219 L 7.253906 16.390625 C 7.585938 16.582031 7.941406 16.769531 8.3125 16.949219 C 8.414062 16.996094 8.523438 17.042969 8.625 17.089844 C 8.953125 17.238281 9.292969 17.386719 9.648438 17.527344 C 9.792969 17.585938 9.9375 17.640625 10.085938 17.699219 C 10.464844 17.839844 10.855469 17.976562 11.257812 18.109375 C 11.363281 18.140625 11.464844 18.179688 11.574219 18.214844 C 12.082031 18.375 12.613281 18.523438 13.160156 18.671875 C 13.300781 18.707031 13.445312 18.742188 13.589844 18.78125 C 14.019531 18.886719 14.453125 18.992188 14.898438 19.09375 C 15.078125 19.132812 15.257812 19.171875 15.4375 19.210938 C 15.9375 19.316406 16.445312 19.414062 16.964844 19.507812 C 17.0625 19.527344 17.160156 19.546875 17.261719 19.566406 C 17.875 19.675781 18.503906 19.773438 19.140625 19.863281 C 19.316406 19.890625 19.492188 19.910156 19.667969 19.9375 C 20.160156 20.003906 20.652344 20.066406 21.148438 20.125 C 21.347656 20.148438 21.539062 20.167969 21.738281 20.191406 C 22.335938 20.253906 22.941406 20.3125 23.550781 20.367188 C 23.617188 20.371094 23.683594 20.378906 23.75 20.382812 C 24.425781 20.4375 25.101562 20.484375 25.785156 20.519531 C 25.972656 20.53125 26.164062 20.539062 26.355469 20.550781 C 26.871094 20.574219 27.386719 20.597656 27.902344 20.613281 C 28.105469 20.621094 28.300781 20.625 28.5 20.628906 C 29.1875 20.648438 29.871094 20.660156 30.550781 20.660156 C 31.234375 20.660156 31.917969 20.648438 32.605469 20.628906 C 32.800781 20.625 33 20.621094 33.199219 20.613281 C 33.71875 20.597656 34.234375 20.574219 34.75 20.550781 C 34.941406 20.539062 35.128906 20.53125 35.320312 20.519531 C 36 20.484375 36.679688 20.4375 37.355469 20.382812 C 37.421875 20.378906 37.484375 20.371094 37.550781 20.367188 C 38.160156 20.316406 38.769531 20.253906 39.371094 20.1875 C 39.566406 20.167969 39.757812 20.148438 39.953125 20.125 C 40.453125 20.066406 40.949219 20.003906 41.441406 19.9375 C 41.617188 19.910156 41.789062 19.890625 41.960938 19.867188 C 42.601562 19.773438 43.230469 19.671875 43.851562 19.566406 C 43.941406 19.546875 44.03125 19.53125 44.125 19.511719 C 44.652344 19.417969 45.167969 19.316406 45.675781 19.207031 C 45.851562 19.171875 46.023438 19.132812 46.199219 19.09375 C 46.652344 18.992188 47.097656 18.886719 47.535156 18.777344 C 47.667969 18.738281 47.808594 18.707031 47.941406 18.671875 C 48.492188 18.527344 49.027344 18.375 49.542969 18.210938 C 49.640625 18.179688 49.730469 18.148438 49.824219 18.117188 C 50.242188 17.980469 50.644531 17.839844 51.035156 17.691406 C 51.175781 17.640625 51.3125 17.585938 51.449219 17.53125 C 51.816406 17.386719 52.167969 17.234375 52.503906 17.078125 C 52.597656 17.035156 52.695312 16.996094 52.789062 16.949219 C 53.164062 16.769531 53.519531 16.585938 53.855469 16.390625 L 51.464844 34.144531 C 45.371094 32.230469 37.242188 28.527344 33.550781 26.792969 C 33.546875 25.328125 32.355469 24.132812 30.886719 24.132812 C 29.417969 24.132812 28.21875 25.332031 28.21875 26.800781 C 28.21875 28.269531 29.417969 29.464844 30.886719 29.464844 C 31.367188 29.464844 31.8125 29.328125 32.203125 29.105469 C 36.414062 31.09375 44.804688 34.902344 51.101562 36.824219 Z M 30.550781 5.332031 C 44.457031 5.332031 54.257812 9.640625 54.441406 12.035156 L 54.402344 12.3125 C 54.378906 12.394531 54.328125 12.476562 54.285156 12.558594 C 54.25 12.628906 54.222656 12.699219 54.171875 12.773438 C 54.113281 12.855469 54.027344 12.941406 53.949219 13.023438 C 53.882812 13.097656 53.824219 13.167969 53.746094 13.242188 C 53.652344 13.328125 53.53125 13.414062 53.417969 13.5 C 53.324219 13.574219 53.238281 13.648438 53.128906 13.722656 C 52.996094 13.8125 52.84375 13.898438 52.695312 13.988281 C 52.574219 14.058594 52.460938 14.132812 52.324219 14.207031 C 52.160156 14.292969 51.964844 14.386719 51.78125 14.476562 C 51.636719 14.542969 51.503906 14.617188 51.347656 14.683594 C 51.144531 14.777344 50.914062 14.867188 50.691406 14.957031 C 50.527344 15.019531 50.371094 15.089844 50.195312 15.15625 C 49.957031 15.242188 49.691406 15.332031 49.4375 15.417969 C 49.25 15.484375 49.074219 15.546875 48.878906 15.613281 C 48.605469 15.699219 48.308594 15.78125 48.019531 15.863281 C 47.8125 15.925781 47.613281 15.988281 47.398438 16.042969 C 47.097656 16.125 46.769531 16.203125 46.445312 16.28125 C 46.21875 16.339844 46.003906 16.398438 45.765625 16.449219 C 45.425781 16.527344 45.0625 16.601562 44.707031 16.671875 C 44.464844 16.722656 44.234375 16.773438 43.988281 16.820312 C 43.609375 16.894531 43.203125 16.960938 42.808594 17.023438 C 42.558594 17.070312 42.320312 17.113281 42.066406 17.152344 C 41.660156 17.21875 41.226562 17.273438 40.804688 17.328125 C 40.535156 17.367188 40.28125 17.40625 40.007812 17.4375 C 39.5625 17.492188 39.097656 17.539062 38.636719 17.585938 C 38.363281 17.613281 38.101562 17.644531 37.824219 17.671875 C 37.363281 17.714844 36.878906 17.742188 36.402344 17.777344 C 36.101562 17.800781 35.816406 17.828125 35.511719 17.847656 C 35.003906 17.875 34.476562 17.894531 33.953125 17.914062 C 33.660156 17.925781 33.382812 17.945312 33.085938 17.953125 C 32.257812 17.980469 31.414062 17.992188 30.550781 17.992188 C 29.691406 17.992188 28.84375 17.980469 28.019531 17.953125 C 27.722656 17.945312 27.445312 17.925781 27.15625 17.914062 C 26.632812 17.894531 26.101562 17.875 25.59375 17.847656 C 25.292969 17.828125 25.011719 17.800781 24.714844 17.78125 C 24.234375 17.742188 23.746094 17.714844 23.28125 17.671875 C 23.011719 17.648438 22.753906 17.613281 22.488281 17.585938 C 22.019531 17.539062 21.546875 17.496094 21.097656 17.4375 C 20.832031 17.40625 20.585938 17.367188 20.324219 17.332031 C 19.894531 17.273438 19.453125 17.21875 19.039062 17.152344 C 18.792969 17.117188 18.566406 17.070312 18.328125 17.03125 C 17.917969 16.960938 17.507812 16.894531 17.117188 16.820312 C 16.882812 16.777344 16.667969 16.726562 16.441406 16.683594 C 16.070312 16.605469 15.691406 16.53125 15.339844 16.449219 C 15.117188 16.398438 14.914062 16.34375 14.699219 16.292969 C 14.363281 16.210938 14.023438 16.128906 13.707031 16.042969 C 13.503906 15.988281 13.320312 15.929688 13.128906 15.875 C 12.824219 15.789062 12.511719 15.699219 12.226562 15.609375 C 12.042969 15.550781 11.882812 15.492188 11.707031 15.433594 C 11.4375 15.339844 11.160156 15.246094 10.910156 15.15625 C 10.746094 15.09375 10.601562 15.03125 10.449219 14.964844 C 10.214844 14.875 9.972656 14.78125 9.757812 14.683594 C 9.613281 14.617188 9.488281 14.550781 9.351562 14.488281 C 9.15625 14.394531 8.953125 14.296875 8.78125 14.203125 C 8.652344 14.132812 8.550781 14.066406 8.433594 14 C 8.277344 13.90625 8.113281 13.8125 7.980469 13.722656 C 7.875 13.652344 7.792969 13.578125 7.703125 13.511719 C 7.585938 13.421875 7.460938 13.332031 7.363281 13.242188 C 7.285156 13.171875 7.230469 13.101562 7.164062 13.027344 C 7.085938 12.941406 6.996094 12.855469 6.9375 12.773438 C 6.886719 12.699219 6.863281 12.628906 6.824219 12.5625 C 6.78125 12.476562 6.730469 12.394531 6.707031 12.3125 L 6.667969 12.035156 C 6.855469 9.640625 16.648438 5.332031 30.550781 5.332031 Z M 60.394531 35.035156 C 60.109375 33.496094 58.339844 31.871094 54.738281 29.824219 L 57.027344 12.800781 L 57.027344 12.796875 L 57.097656 12.277344 C 57.105469 12.21875 57.109375 12.160156 57.109375 12.101562 C 57.109375 6.542969 43.113281 2.667969 30.550781 2.667969 C 17.992188 2.667969 4 6.542969 4 12.101562 C 4 12.160156 4.003906 12.21875 4.011719 12.277344 L 4.082031 12.796875 L 4.082031 12.800781 L 9.726562 54.730469 C 9.898438 59.632812 22.554688 61.464844 30.550781 61.464844 C 34.972656 61.464844 39.40625 61.003906 43.042969 60.164062 C 44.507812 59.828125 45.816406 59.429688 46.941406 58.988281 C 49.832031 57.84375 51.324219 56.410156 51.382812 54.730469 L 53.699219 37.535156 C 55.0625 37.855469 56.1875 38.019531 57.101562 38.019531 C 58.421875 38.019531 59.3125 37.683594 59.878906 37.007812 C 60.347656 36.449219 60.53125 35.75 60.394531 35.035156 Z M 60.394531 35.035156 "/>
</svg>
