<?xml version="1.0" encoding="UTF-8"?>
<svg xmlns="http://www.w3.org/2000/svg" xmlns:xlink="http://www.w3.org/1999/xlink" width="64" height="64" viewBox="0 0 64 64">
<path fill-rule="evenodd" fill="rgb(47.843137%, 63.137257%, 8.627451%)" fill-opacity="1" d="M 48.265625 41.054688 L 48.371094 40.277344 C 49.054688 40.714844 49.519531 41.070312 49.800781 41.320312 C 49.398438 41.292969 48.871094 41.199219 48.265625 41.054688 Z M 30.316406 35.378906 C 30.316406 35.238281 30.429688 35.121094 30.574219 35.121094 C 30.613281 35.121094 30.644531 35.148438 30.675781 35.167969 L 30.480469 35.566406 C 30.394531 35.539062 30.316406 35.484375 30.316406 35.378906 Z M 43.605469 55.78125 C 43.605469 55.785156 43.371094 56.277344 41.789062 56.902344 C 41.070312 57.183594 40.214844 57.441406 39.246094 57.664062 C 36.738281 58.246094 33.65625 58.566406 30.570312 58.566406 C 22.863281 58.566406 17.917969 56.726562 17.550781 55.84375 C 17.550781 55.78125 17.546875 55.722656 17.539062 55.664062 L 13.851562 28.304688 C 13.917969 28.335938 13.996094 28.363281 14.0625 28.390625 C 14.496094 28.601562 14.957031 28.800781 15.453125 28.984375 C 15.492188 29 15.527344 29.015625 15.566406 29.027344 C 16.105469 29.222656 16.683594 29.398438 17.28125 29.566406 C 17.441406 29.609375 17.609375 29.652344 17.773438 29.695312 C 18.273438 29.828125 18.785156 29.949219 19.308594 30.058594 C 19.4375 30.085938 19.558594 30.117188 19.6875 30.144531 C 20.324219 30.273438 20.976562 30.386719 21.636719 30.492188 C 21.800781 30.515625 21.960938 30.539062 22.125 30.5625 C 22.664062 30.640625 23.207031 30.710938 23.753906 30.777344 C 23.917969 30.792969 24.082031 30.816406 24.246094 30.832031 C 24.917969 30.90625 25.582031 30.964844 26.242188 31.015625 C 26.355469 31.023438 26.464844 31.027344 26.582031 31.035156 C 27.140625 31.074219 27.691406 31.105469 28.234375 31.128906 C 28.402344 31.132812 28.574219 31.140625 28.742188 31.148438 C 29.371094 31.167969 29.988281 31.179688 30.570312 31.179688 C 31.15625 31.179688 31.773438 31.167969 32.402344 31.148438 C 32.570312 31.140625 32.738281 31.132812 32.910156 31.128906 C 33.453125 31.105469 34.007812 31.074219 34.570312 31.035156 C 34.679688 31.027344 34.789062 31.023438 34.902344 31.015625 C 35.558594 30.964844 36.222656 30.90625 36.890625 30.832031 C 37.0625 30.816406 37.230469 30.792969 37.402344 30.773438 C 37.941406 30.710938 38.480469 30.640625 39.015625 30.5625 C 39.179688 30.539062 39.34375 30.515625 39.507812 30.488281 C 40.167969 30.386719 40.820312 30.273438 41.460938 30.144531 C 41.589844 30.117188 41.710938 30.085938 41.839844 30.058594 C 42.363281 29.949219 42.875 29.828125 43.375 29.695312 C 43.539062 29.652344 43.703125 29.609375 43.863281 29.566406 C 44.460938 29.398438 45.039062 29.222656 45.578125 29.027344 C 45.621094 29.011719 45.65625 28.996094 45.695312 28.980469 C 46.191406 28.800781 46.648438 28.601562 47.085938 28.390625 C 47.152344 28.363281 47.230469 28.335938 47.292969 28.304688 L 45.683594 40.304688 C 42.203125 39.152344 37.433594 37.167969 32.949219 35.042969 C 32.785156 33.875 31.785156 32.96875 30.574219 32.96875 C 29.242188 32.96875 28.164062 34.050781 28.164062 35.378906 C 28.164062 36.710938 29.242188 37.789062 30.574219 37.789062 C 31.015625 37.789062 31.429688 37.660156 31.785156 37.449219 C 37.421875 40.15625 41.9375 42 45.320312 43 Z M 30.570312 19.894531 C 40.796875 19.894531 47.617188 23.101562 47.808594 24.472656 L 47.792969 24.601562 C 47.777344 24.648438 47.746094 24.695312 47.71875 24.742188 C 47.695312 24.785156 47.675781 24.824219 47.640625 24.867188 C 47.605469 24.914062 47.550781 24.964844 47.5 25.015625 C 47.453125 25.0625 47.414062 25.109375 47.355469 25.15625 C 47.296875 25.207031 47.222656 25.257812 47.152344 25.3125 C 47.082031 25.363281 47.015625 25.410156 46.933594 25.464844 C 46.855469 25.515625 46.761719 25.566406 46.671875 25.617188 C 46.578125 25.671875 46.488281 25.726562 46.382812 25.78125 C 46.285156 25.832031 46.171875 25.886719 46.066406 25.9375 C 45.945312 25.992188 45.832031 26.050781 45.699219 26.109375 C 45.585938 26.15625 45.457031 26.207031 45.335938 26.257812 C 45.191406 26.316406 45.050781 26.375 44.894531 26.433594 C 44.761719 26.484375 44.617188 26.53125 44.476562 26.578125 C 44.308594 26.636719 44.148438 26.695312 43.96875 26.753906 C 43.816406 26.800781 43.652344 26.847656 43.496094 26.894531 C 43.304688 26.953125 43.121094 27.007812 42.917969 27.0625 C 42.75 27.109375 42.566406 27.15625 42.386719 27.199219 C 42.179688 27.253906 41.976562 27.308594 41.757812 27.359375 C 41.566406 27.402344 41.359375 27.445312 41.160156 27.488281 C 40.933594 27.535156 40.714844 27.585938 40.476562 27.632812 C 40.265625 27.671875 40.035156 27.710938 39.816406 27.75 C 39.574219 27.792969 39.339844 27.839844 39.089844 27.878906 C 38.847656 27.917969 38.59375 27.949219 38.34375 27.984375 C 38.09375 28.019531 37.851562 28.058594 37.59375 28.09375 C 37.320312 28.125 37.03125 28.15625 36.75 28.1875 C 36.496094 28.214844 36.25 28.242188 35.988281 28.269531 C 35.683594 28.296875 35.359375 28.320312 35.042969 28.34375 C 34.789062 28.363281 34.542969 28.386719 34.28125 28.402344 C 33.929688 28.425781 33.558594 28.4375 33.191406 28.453125 C 32.953125 28.460938 32.71875 28.476562 32.476562 28.484375 C 31.855469 28.503906 31.222656 28.515625 30.570312 28.515625 C 29.921875 28.515625 29.285156 28.503906 28.667969 28.484375 C 28.429688 28.480469 28.207031 28.464844 27.972656 28.453125 C 27.601562 28.4375 27.222656 28.425781 26.859375 28.402344 C 26.621094 28.386719 26.394531 28.367188 26.160156 28.347656 C 25.820312 28.324219 25.476562 28.296875 25.152344 28.269531 C 24.917969 28.246094 24.699219 28.21875 24.472656 28.195312 C 24.164062 28.160156 23.847656 28.128906 23.546875 28.09375 C 23.316406 28.0625 23.101562 28.027344 22.878906 27.996094 C 22.601562 27.957031 22.316406 27.921875 22.046875 27.878906 C 21.828125 27.839844 21.621094 27.800781 21.410156 27.765625 C 21.15625 27.722656 20.902344 27.675781 20.660156 27.628906 C 20.449219 27.589844 20.257812 27.546875 20.054688 27.5 C 19.828125 27.453125 19.597656 27.40625 19.382812 27.355469 C 19.1875 27.3125 19.011719 27.265625 18.828125 27.21875 C 18.625 27.167969 18.414062 27.113281 18.21875 27.0625 C 18.039062 27.011719 17.875 26.960938 17.707031 26.910156 C 17.527344 26.859375 17.339844 26.804688 17.171875 26.753906 C 17.011719 26.699219 16.867188 26.648438 16.71875 26.597656 C 16.558594 26.542969 16.390625 26.488281 16.242188 26.429688 C 16.101562 26.378906 15.980469 26.324219 15.847656 26.273438 C 15.710938 26.21875 15.566406 26.160156 15.441406 26.105469 C 15.320312 26.054688 15.214844 26 15.105469 25.949219 C 14.988281 25.890625 14.867188 25.835938 14.757812 25.78125 C 14.660156 25.730469 14.578125 25.679688 14.492188 25.628906 C 14.394531 25.574219 14.292969 25.515625 14.207031 25.460938 C 14.132812 25.414062 14.070312 25.367188 14.003906 25.316406 C 13.929688 25.261719 13.851562 25.207031 13.789062 25.15625 C 13.734375 25.109375 13.695312 25.066406 13.648438 25.019531 C 13.597656 24.96875 13.542969 24.917969 13.503906 24.867188 C 13.46875 24.824219 13.453125 24.785156 13.429688 24.746094 C 13.398438 24.695312 13.367188 24.648438 13.355469 24.601562 L 13.335938 24.472656 C 13.527344 23.101562 20.347656 19.894531 30.570312 19.894531 Z M 52.890625 41.355469 C 52.664062 40.132812 51.402344 38.925781 48.757812 37.390625 L 50.417969 25.089844 L 50.46875 24.707031 C 50.476562 24.648438 50.480469 24.589844 50.480469 24.53125 C 50.480469 20.164062 40.1875 17.230469 30.570312 17.230469 C 20.957031 17.230469 10.667969 20.164062 10.667969 24.53125 C 10.667969 24.589844 10.671875 24.648438 10.679688 24.707031 L 10.730469 25.089844 L 14.886719 55.949219 C 15.050781 59.824219 24.320312 61.230469 30.570312 61.230469 C 33.851562 61.230469 37.144531 60.886719 39.847656 60.265625 C 40.945312 60.011719 41.925781 59.714844 42.769531 59.382812 C 45.03125 58.488281 46.203125 57.332031 46.261719 55.949219 L 47.917969 43.640625 C 48.738281 43.792969 49.464844 43.875 50.078125 43.875 C 51.210938 43.875 51.996094 43.617188 52.433594 43.097656 C 52.847656 42.605469 53.007812 41.988281 52.890625 41.355469 Z M 16.828125 17.976562 L 14.160156 17.976562 L 14.160156 14.480469 C 14.160156 13.746094 14.757812 13.148438 15.496094 13.148438 L 45.773438 13.148438 C 46.511719 13.148438 47.105469 13.746094 47.105469 14.480469 L 47.105469 17.976562 L 44.441406 17.976562 L 44.441406 15.816406 L 16.828125 15.816406 Z M 21.460938 5.332031 L 39.808594 5.332031 L 42.726562 8.488281 L 18.542969 8.488281 Z M 15.496094 11.15625 L 45.773438 11.15625 C 46.304688 11.15625 46.78125 10.84375 46.996094 10.355469 C 47.207031 9.871094 47.113281 9.308594 46.753906 8.917969 L 41.371094 3.09375 C 41.117188 2.820312 40.761719 2.667969 40.390625 2.667969 L 20.878906 2.667969 C 20.503906 2.667969 20.152344 2.820312 19.898438 3.09375 L 14.515625 8.917969 C 14.15625 9.308594 14.0625 9.871094 14.273438 10.355469 C 14.484375 10.84375 14.964844 11.15625 15.496094 11.15625 Z M 15.496094 11.15625 "/>
</svg>
