<?xml version="1.0" encoding="UTF-8"?>
<svg xmlns="http://www.w3.org/2000/svg" xmlns:xlink="http://www.w3.org/1999/xlink" width="64" height="64" viewBox="0 0 64 64">
<path fill-rule="evenodd" fill="rgb(47.843137%, 63.137257%, 8.627451%)" fill-opacity="1" d="M 10.667969 41.332031 L 13.332031 41.332031 C 13.332031 43.539062 15.128906 45.332031 17.332031 45.332031 L 20 45.332031 C 22.207031 45.332031 24 43.539062 24 41.332031 C 24 39.128906 22.207031 37.332031 20 37.332031 L 20 34.667969 C 23.675781 34.667969 26.667969 37.65625 26.667969 41.332031 C 26.667969 45.007812 23.675781 48 20 48 L 17.332031 48 C 13.65625 48 10.667969 45.007812 10.667969 41.332031 M 5.332031 41.332031 C 5.332031 43.539062 7.128906 45.332031 9.332031 45.332031 L 9.332031 48 C 5.65625 48 2.667969 45.007812 2.667969 41.332031 C 2.667969 37.65625 5.65625 34.667969 9.332031 34.667969 L 12 34.667969 C 15.675781 34.667969 18.667969 37.65625 18.667969 41.332031 L 16 41.332031 C 16 39.128906 14.207031 37.332031 12 37.332031 L 9.332031 37.332031 C 7.128906 37.332031 5.332031 39.128906 5.332031 41.332031 M 55.675781 37.378906 L 55.925781 35.40625 C 57.765625 36.585938 58.375 37.292969 58.574219 37.617188 C 58.238281 37.6875 57.429688 37.738281 55.675781 37.378906 M 32.367188 16.667969 C 17.335938 16.667969 9.257812 13.828125 8.144531 11.941406 L 8.054688 11.292969 C 8.617188 9.078125 17.730469 5.332031 32.367188 5.332031 C 47.398438 5.332031 55.789062 9.15625 56.296875 11.300781 L 56.214844 11.960938 C 55.117188 14.027344 46.734375 16.667969 32.367188 16.667969 M 61.289062 37.339844 C 61.019531 35.894531 59.464844 34.375 56.292969 32.503906 L 58.820312 12.621094 C 58.945312 12.265625 59.015625 11.894531 59.015625 11.507812 C 59.015625 11.417969 59 11.332031 58.996094 11.242188 L 59.003906 11.167969 L 58.988281 11.164062 C 58.441406 5.839844 45.191406 2.667969 32.367188 2.667969 C 19.339844 2.667969 5.882812 5.847656 5.359375 11.183594 L 5.347656 11.1875 L 5.355469 11.242188 C 5.347656 11.328125 5.332031 11.417969 5.332031 11.507812 C 5.332031 11.921875 5.414062 12.3125 5.558594 12.6875 L 8.285156 32 L 10.980469 32 L 8.671875 15.664062 C 13.695312 18.308594 23.550781 19.332031 32.367188 19.332031 C 41.070312 19.332031 50.800781 18.304688 55.746094 15.652344 L 53.425781 33.921875 L 53.414062 33.9375 L 53.421875 33.941406 L 53.070312 36.710938 C 47.210938 34.996094 39.0625 31.386719 34.769531 29.40625 C 34.808594 29.222656 34.832031 29.035156 34.832031 28.839844 C 34.832031 27.371094 33.636719 26.175781 32.175781 26.175781 C 30.707031 26.175781 29.515625 27.371094 29.515625 28.839844 C 29.515625 30.3125 30.707031 31.507812 32.175781 31.507812 C 32.386719 31.507812 32.59375 31.476562 32.789062 31.429688 C 37.378906 33.570312 46.339844 37.585938 52.730469 39.386719 L 50.855469 54.164062 C 50.847656 54.21875 50.84375 54.273438 50.84375 54.332031 C 50.84375 54.566406 50.339844 55.382812 48.042969 56.308594 C 47.035156 56.714844 45.839844 57.078125 44.488281 57.394531 C 41.011719 58.214844 36.75 58.667969 32.480469 58.667969 C 27.640625 58.667969 22.78125 58.078125 19.148438 57.054688 C 15.042969 55.898438 14.117188 54.667969 14.117188 54.332031 C 14.117188 54.269531 14.113281 54.207031 14.105469 54.144531 L 13.613281 50.667969 L 10.921875 50.667969 L 11.453125 54.4375 C 11.632812 59.457031 24.40625 61.332031 32.480469 61.332031 C 36.949219 61.332031 41.429688 60.855469 45.097656 59.992188 C 46.578125 59.644531 47.902344 59.238281 49.039062 58.78125 C 51.953125 57.605469 53.457031 56.144531 53.511719 54.425781 L 55.339844 40.023438 C 56.34375 40.222656 57.21875 40.335938 57.949219 40.335938 C 59.289062 40.335938 60.191406 40 60.765625 39.320312 C 61.238281 38.761719 61.425781 38.058594 61.289062 37.339844 "/>
</svg>
