<?xml version="1.0" encoding="UTF-8"?>
<svg xmlns="http://www.w3.org/2000/svg" xmlns:xlink="http://www.w3.org/1999/xlink" width="64" height="64" viewBox="0 0 64 64">
<path fill-rule="evenodd" fill="rgb(47.843137%, 63.137257%, 8.627451%)" fill-opacity="1" d="M 29.332031 41.332031 L 34.667969 41.332031 L 34.667969 38.667969 L 29.332031 38.667969 Z M 22.667969 44.007812 L 22.667969 36 L 41.332031 36 L 41.332031 44 Z M 25.332031 22.667969 L 32 22.667969 L 32 27.910156 C 32 28.648438 32.597656 29.242188 33.332031 29.242188 L 38.667969 29.242188 L 38.667969 33.332031 L 25.332031 33.332031 Z M 38 26.667969 L 34.667969 26.667969 L 34.667969 23.277344 Z M 42.65625 33.332031 L 41.332031 33.332031 L 41.332031 26.996094 C 41.332031 26.65625 41.203125 26.328125 40.96875 26.082031 L 35.636719 20.417969 C 35.386719 20.152344 35.035156 20 34.667969 20 L 24.628906 20 C 23.546875 20 22.667969 20.878906 22.667969 21.960938 L 22.667969 33.332031 L 21.332031 33.332031 C 20.597656 33.332031 20 33.929688 20 34.667969 L 20 44.007812 C 20 45.476562 21.191406 46.667969 22.65625 46.667969 L 41.332031 46.667969 C 42.796875 46.667969 43.992188 45.476562 43.992188 44.007812 L 43.992188 34.667969 C 43.992188 33.929688 43.394531 33.332031 42.65625 33.332031 Z M 56 28 C 54.53125 28 53.332031 26.804688 53.332031 25.332031 C 53.332031 23.863281 54.53125 22.667969 56 22.667969 C 57.46875 22.667969 58.667969 23.863281 58.667969 25.332031 C 58.667969 26.804688 57.46875 28 56 28 Z M 45.726562 49.375 C 45.59375 49.363281 45.46875 49.332031 45.332031 49.332031 C 42.855469 49.332031 40.785156 51.039062 40.1875 53.332031 L 23.8125 53.332031 C 23.214844 51.039062 21.144531 49.332031 18.667969 49.332031 C 18.53125 49.332031 18.40625 49.363281 18.273438 49.375 L 10.925781 29.785156 C 12.375 28.828125 13.332031 27.191406 13.332031 25.332031 C 13.332031 24.679688 13.199219 24.0625 12.984375 23.484375 L 29.082031 12.453125 C 29.921875 13.007812 30.921875 13.332031 32 13.332031 C 33.078125 13.332031 34.078125 13.007812 34.917969 12.453125 L 51.015625 23.484375 C 50.800781 24.0625 50.667969 24.679688 50.667969 25.332031 C 50.667969 27.191406 51.625 28.828125 53.074219 29.785156 Z M 45.332031 57.332031 C 43.863281 57.332031 42.667969 56.136719 42.667969 54.667969 C 42.667969 53.195312 43.863281 52 45.332031 52 C 46.804688 52 48 53.195312 48 54.667969 C 48 56.136719 46.804688 57.332031 45.332031 57.332031 Z M 18.667969 57.332031 C 17.195312 57.332031 16 56.136719 16 54.667969 C 16 53.195312 17.195312 52 18.667969 52 C 20.136719 52 21.332031 53.195312 21.332031 54.667969 C 21.332031 56.136719 20.136719 57.332031 18.667969 57.332031 Z M 5.332031 25.332031 C 5.332031 23.863281 6.53125 22.667969 8 22.667969 C 9.46875 22.667969 10.667969 23.863281 10.667969 25.332031 C 10.667969 26.804688 9.46875 28 8 28 C 6.53125 28 5.332031 26.804688 5.332031 25.332031 Z M 32 5.332031 C 33.46875 5.332031 34.667969 6.53125 34.667969 8 C 34.667969 9.46875 33.46875 10.667969 32 10.667969 C 30.53125 10.667969 29.332031 9.46875 29.332031 8 C 29.332031 6.53125 30.53125 5.332031 32 5.332031 Z M 56 20 C 54.675781 20 53.480469 20.5 52.550781 21.300781 L 36.710938 10.449219 C 37.09375 9.710938 37.332031 8.886719 37.332031 8 C 37.332031 5.058594 34.941406 2.667969 32 2.667969 C 29.058594 2.667969 26.667969 5.058594 26.667969 8 C 26.667969 8.886719 26.90625 9.710938 27.289062 10.449219 L 11.449219 21.300781 C 10.519531 20.5 9.324219 20 8 20 C 5.058594 20 2.667969 22.390625 2.667969 25.332031 C 2.667969 28.273438 5.058594 30.667969 8 30.667969 C 8.132812 30.667969 8.261719 30.636719 8.394531 30.625 L 15.738281 50.214844 C 14.292969 51.171875 13.332031 52.808594 13.332031 54.667969 C 13.332031 57.609375 15.726562 60 18.667969 60 C 21.144531 60 23.214844 58.292969 23.8125 56 L 40.1875 56 C 40.785156 58.292969 42.855469 60 45.332031 60 C 48.273438 60 50.667969 57.609375 50.667969 54.667969 C 50.667969 52.808594 49.707031 51.171875 48.261719 50.214844 L 55.605469 30.625 C 55.738281 30.636719 55.867188 30.667969 56 30.667969 C 58.941406 30.667969 61.332031 28.273438 61.332031 25.332031 C 61.332031 22.390625 58.941406 20 56 20 Z M 56 20 "/>
</svg>
