<?xml version="1.0" encoding="UTF-8"?>
<svg xmlns="http://www.w3.org/2000/svg" xmlns:xlink="http://www.w3.org/1999/xlink" width="64" height="64" viewBox="0 0 64 64">
<path fill-rule="evenodd" fill="rgb(47.843137%, 63.137257%, 8.627451%)" fill-opacity="1" d="M 58.667969 54.390625 L 60.554688 56.277344 L 55.886719 60.941406 C 55.625 61.203125 55.285156 61.332031 54.945312 61.332031 C 54.601562 61.332031 54.261719 61.203125 54 60.941406 L 49.335938 56.277344 L 51.21875 54.390625 L 53.609375 56.78125 L 53.609375 43.386719 L 51.21875 45.777344 L 49.335938 43.890625 L 54 39.222656 C 54.523438 38.703125 55.367188 38.703125 55.886719 39.222656 L 60.554688 43.890625 L 58.667969 45.777344 L 56.277344 43.386719 L 56.277344 56.78125 Z M 30.492188 5.332031 C 44.363281 5.332031 54.136719 9.628906 54.320312 12.015625 L 54.285156 12.28125 C 54.253906 12.386719 54.191406 12.496094 54.128906 12.609375 C 54.101562 12.652344 54.089844 12.695312 54.058594 12.742188 C 53.984375 12.847656 53.878906 12.957031 53.773438 13.0625 C 53.722656 13.113281 53.6875 13.160156 53.636719 13.210938 C 53.519531 13.316406 53.371094 13.425781 53.226562 13.535156 C 53.15625 13.585938 53.097656 13.636719 53.019531 13.691406 C 52.863281 13.800781 52.675781 13.90625 52.488281 14.015625 C 52.398438 14.066406 52.320312 14.121094 52.222656 14.171875 C 52.019531 14.285156 51.785156 14.394531 51.550781 14.503906 C 51.449219 14.554688 51.359375 14.601562 51.253906 14.648438 C 50.988281 14.765625 50.699219 14.882812 50.40625 15 C 50.304688 15.039062 50.214844 15.078125 50.109375 15.117188 C 49.773438 15.246094 49.410156 15.367188 49.035156 15.492188 C 48.957031 15.515625 48.886719 15.542969 48.804688 15.570312 C 48.363281 15.710938 47.898438 15.847656 47.410156 15.980469 C 47.386719 15.988281 47.367188 15.992188 47.347656 16 C 43.203125 17.125 37.410156 17.949219 30.5 17.949219 C 19.277344 17.949219 11 15.769531 7.949219 13.675781 C 7.917969 13.65625 7.898438 13.636719 7.871094 13.617188 C 7.675781 13.476562 7.496094 13.339844 7.347656 13.203125 C 7.304688 13.164062 7.277344 13.128906 7.242188 13.089844 C 7.125 12.972656 7.011719 12.855469 6.929688 12.738281 C 6.894531 12.6875 6.878906 12.636719 6.847656 12.585938 C 6.792969 12.484375 6.734375 12.382812 6.707031 12.285156 L 6.667969 12.015625 C 6.855469 9.628906 16.625 5.332031 30.492188 5.332031 Z M 57.542969 35.230469 C 57.15625 35.304688 56.171875 35.34375 53.945312 34.800781 L 54.238281 32.621094 C 56.558594 34.03125 57.3125 34.863281 57.542969 35.230469 Z M 42.355469 57.441406 C 38.902344 58.230469 34.691406 58.667969 30.5 58.667969 C 19.21875 58.667969 12.371094 55.777344 12.371094 54.503906 C 12.371094 54.445312 12.367188 54.386719 12.363281 54.328125 L 7.253906 16.363281 C 7.566406 16.542969 7.898438 16.71875 8.246094 16.886719 C 8.433594 16.980469 8.640625 17.066406 8.839844 17.15625 C 9.058594 17.253906 9.277344 17.347656 9.507812 17.441406 C 9.738281 17.535156 9.976562 17.628906 10.222656 17.71875 C 10.4375 17.796875 10.660156 17.875 10.882812 17.949219 C 11.414062 18.132812 11.96875 18.304688 12.546875 18.46875 C 12.695312 18.507812 12.835938 18.554688 12.988281 18.59375 C 13.316406 18.683594 13.65625 18.765625 13.996094 18.847656 C 14.195312 18.898438 14.394531 18.945312 14.597656 18.992188 C 14.949219 19.074219 15.308594 19.152344 15.675781 19.226562 C 15.847656 19.261719 16.019531 19.296875 16.191406 19.328125 C 17.476562 19.582031 18.816406 19.796875 20.195312 19.972656 C 20.355469 19.992188 20.515625 20.015625 20.679688 20.035156 C 21.128906 20.089844 21.578125 20.140625 22.035156 20.1875 C 22.132812 20.199219 22.234375 20.207031 22.332031 20.214844 C 23.824219 20.363281 25.347656 20.472656 26.878906 20.539062 C 27.03125 20.542969 27.183594 20.550781 27.339844 20.554688 C 27.816406 20.574219 28.296875 20.589844 28.777344 20.597656 C 28.84375 20.601562 28.910156 20.601562 28.972656 20.601562 C 29.480469 20.609375 29.988281 20.621094 30.492188 20.621094 C 30.980469 20.621094 31.472656 20.609375 31.964844 20.601562 C 32.054688 20.601562 32.144531 20.601562 32.234375 20.597656 C 32.695312 20.589844 33.152344 20.574219 33.613281 20.558594 C 33.800781 20.550781 33.984375 20.542969 34.167969 20.535156 C 34.621094 20.515625 35.074219 20.492188 35.523438 20.46875 C 35.628906 20.460938 35.726562 20.453125 35.832031 20.445312 C 36.710938 20.390625 37.582031 20.320312 38.445312 20.238281 C 38.636719 20.21875 38.832031 20.203125 39.023438 20.179688 C 39.425781 20.140625 39.820312 20.09375 40.21875 20.046875 C 40.457031 20.015625 40.691406 19.988281 40.925781 19.957031 C 41.308594 19.90625 41.691406 19.855469 42.066406 19.800781 C 42.300781 19.765625 42.53125 19.726562 42.761719 19.6875 C 43.378906 19.589844 43.984375 19.484375 44.578125 19.371094 C 44.851562 19.320312 45.125 19.265625 45.394531 19.210938 C 45.703125 19.148438 46.003906 19.082031 46.304688 19.015625 C 46.585938 18.949219 46.863281 18.882812 47.136719 18.816406 C 47.410156 18.746094 47.683594 18.683594 47.945312 18.609375 C 48.429688 18.480469 48.898438 18.347656 49.351562 18.207031 C 49.566406 18.136719 49.769531 18.066406 49.976562 17.996094 C 50.261719 17.898438 50.546875 17.800781 50.820312 17.699219 C 51.03125 17.621094 51.234375 17.542969 51.433594 17.460938 C 51.710938 17.351562 51.972656 17.234375 52.234375 17.121094 C 52.394531 17.046875 52.566406 16.976562 52.71875 16.898438 C 53.074219 16.726562 53.414062 16.550781 53.730469 16.367188 L 51.355469 34.070312 C 45.277344 32.160156 37.175781 28.46875 33.492188 26.738281 C 33.492188 26.714844 33.5 26.691406 33.5 26.667969 C 33.5 25.195312 32.304688 24 30.832031 24 C 29.363281 24 28.167969 25.195312 28.167969 26.667969 C 28.167969 28.136719 29.363281 29.332031 30.832031 29.332031 C 31.28125 29.332031 31.695312 29.210938 32.066406 29.015625 C 36.246094 30.992188 44.675781 34.824219 50.996094 36.75 L 50.820312 38.054688 L 53.460938 38.40625 L 53.589844 37.460938 C 54.949219 37.78125 56.066406 37.941406 56.976562 37.941406 C 58.296875 37.941406 59.1875 37.605469 59.753906 36.929688 C 60.21875 36.375 60.402344 35.675781 60.269531 34.960938 C 59.980469 33.425781 58.214844 31.804688 54.625 29.757812 L 56.890625 12.867188 C 56.898438 12.835938 56.90625 12.808594 56.910156 12.777344 L 56.976562 12.257812 C 56.984375 12.199219 56.988281 12.140625 56.988281 12.085938 C 56.988281 6.535156 43.027344 2.667969 30.492188 2.667969 C 17.960938 2.667969 4 6.535156 4 12.085938 C 4 12.140625 4.003906 12.199219 4.011719 12.257812 L 4.082031 12.777344 C 4.082031 12.785156 4.085938 12.792969 4.085938 12.800781 L 9.707031 54.609375 C 9.882812 59.503906 22.515625 61.332031 30.5 61.332031 C 34.886719 61.332031 39.308594 60.875 42.957031 60.039062 C 44.375 59.710938 45.617188 59.335938 46.652344 58.933594 L 45.679688 56.449219 C 44.765625 56.808594 43.644531 57.140625 42.355469 57.441406 Z M 42.355469 57.441406 "/>
</svg>
