<?xml version="1.0" encoding="UTF-8"?>
<svg xmlns="http://www.w3.org/2000/svg" xmlns:xlink="http://www.w3.org/1999/xlink" width="64" height="64" viewBox="0 0 64 64">
<path fill-rule="evenodd" fill="rgb(47.843137%, 63.137257%, 8.627451%)" fill-opacity="1" d="M 54.003906 34.878906 L 54.304688 32.660156 C 56.683594 34.109375 57.417969 34.945312 57.628906 35.296875 C 57 35.488281 55.726562 35.320312 54.003906 34.878906 Z M 30.402344 26.816406 C 30.402344 26.742188 30.460938 26.6875 30.53125 26.6875 C 30.550781 26.6875 30.566406 26.699219 30.582031 26.710938 L 30.484375 26.90625 C 30.441406 26.890625 30.402344 26.867188 30.402344 26.816406 Z M 48.683594 54.398438 C 48.675781 54.457031 48.671875 54.515625 48.671875 54.574219 C 48.671875 54.78125 48.167969 55.566406 45.921875 56.453125 C 44.917969 56.847656 43.738281 57.203125 42.402344 57.511719 C 38.96875 58.304688 34.75 58.742188 30.527344 58.742188 C 19.238281 58.742188 12.386719 55.847656 12.386719 54.574219 C 12.386719 54.515625 12.382812 54.457031 12.375 54.398438 L 7.253906 16.378906 C 7.582031 16.570312 7.9375 16.753906 8.308594 16.933594 C 8.414062 16.984375 8.527344 17.03125 8.636719 17.082031 C 8.957031 17.230469 9.289062 17.375 9.636719 17.511719 C 9.785156 17.570312 9.9375 17.628906 10.089844 17.6875 C 10.457031 17.824219 10.835938 17.957031 11.230469 18.085938 C 11.347656 18.125 11.457031 18.164062 11.574219 18.203125 C 12.078125 18.359375 12.605469 18.511719 13.144531 18.65625 C 13.292969 18.695312 13.449219 18.734375 13.605469 18.769531 C 14.019531 18.878906 14.445312 18.980469 14.878906 19.074219 C 15.066406 19.117188 15.25 19.160156 15.441406 19.199219 C 15.925781 19.300781 16.425781 19.398438 16.929688 19.492188 C 17.039062 19.511719 17.144531 19.53125 17.253906 19.550781 C 17.867188 19.660156 18.492188 19.757812 19.125 19.851562 C 19.304688 19.875 19.488281 19.898438 19.667969 19.921875 C 20.148438 19.988281 20.632812 20.050781 21.125 20.109375 C 21.324219 20.128906 21.527344 20.15625 21.730469 20.175781 C 22.320312 20.238281 22.917969 20.296875 23.519531 20.347656 C 23.589844 20.355469 23.664062 20.363281 23.734375 20.367188 C 24.40625 20.421875 25.082031 20.46875 25.761719 20.507812 C 25.953125 20.515625 26.148438 20.527344 26.34375 20.535156 C 26.855469 20.558594 27.367188 20.582031 27.878906 20.597656 C 28.078125 20.605469 28.277344 20.609375 28.476562 20.617188 C 29.164062 20.628906 29.847656 20.644531 30.527344 20.644531 C 31.207031 20.644531 31.890625 20.628906 32.574219 20.617188 C 32.777344 20.609375 32.976562 20.605469 33.175781 20.597656 C 33.691406 20.582031 34.199219 20.558594 34.710938 20.535156 C 34.90625 20.527344 35.101562 20.515625 35.296875 20.507812 C 35.972656 20.46875 36.648438 20.421875 37.320312 20.367188 C 37.394531 20.363281 37.46875 20.351562 37.542969 20.347656 C 38.140625 20.296875 38.734375 20.238281 39.324219 20.175781 C 39.53125 20.15625 39.730469 20.128906 39.933594 20.109375 C 40.421875 20.050781 40.90625 19.988281 41.386719 19.925781 C 41.570312 19.898438 41.753906 19.875 41.933594 19.847656 C 42.566406 19.757812 43.191406 19.660156 43.800781 19.550781 C 43.914062 19.53125 44.019531 19.511719 44.132812 19.488281 C 44.636719 19.398438 45.128906 19.300781 45.617188 19.199219 C 45.808594 19.160156 45.992188 19.117188 46.179688 19.074219 C 46.613281 18.976562 47.039062 18.875 47.457031 18.769531 C 47.609375 18.730469 47.765625 18.695312 47.914062 18.65625 C 48.457031 18.511719 48.980469 18.359375 49.484375 18.203125 C 49.601562 18.164062 49.710938 18.125 49.824219 18.089844 C 50.21875 17.960938 50.601562 17.824219 50.972656 17.683594 C 51.125 17.628906 51.273438 17.570312 51.421875 17.511719 C 51.769531 17.375 52.105469 17.230469 52.429688 17.082031 C 52.535156 17.03125 52.644531 16.984375 52.75 16.933594 C 53.121094 16.757812 53.476562 16.570312 53.804688 16.378906 L 51.414062 34.121094 C 46.566406 32.566406 39.753906 29.742188 33.308594 26.675781 C 33.234375 25.203125 32.023438 24.019531 30.53125 24.019531 C 28.988281 24.019531 27.734375 25.273438 27.734375 26.816406 C 27.734375 28.355469 28.988281 29.609375 30.53125 29.609375 C 31.136719 29.609375 31.691406 29.410156 32.152344 29.082031 C 37.925781 31.851562 45.300781 35.121094 51.058594 36.785156 Z M 30.527344 5.332031 C 44.417969 5.332031 54.207031 9.636719 54.390625 12.027344 L 54.355469 12.304688 C 54.332031 12.386719 54.277344 12.472656 54.234375 12.558594 C 54.199219 12.625 54.171875 12.695312 54.121094 12.765625 C 54.0625 12.847656 53.976562 12.929688 53.902344 13.015625 C 53.832031 13.089844 53.777344 13.160156 53.695312 13.234375 C 53.605469 13.316406 53.488281 13.402344 53.378906 13.484375 C 53.28125 13.5625 53.191406 13.636719 53.078125 13.714844 C 52.957031 13.796875 52.808594 13.878906 52.675781 13.960938 C 52.542969 14.039062 52.421875 14.121094 52.273438 14.199219 C 52.125 14.277344 51.953125 14.355469 51.792969 14.4375 C 51.628906 14.515625 51.472656 14.597656 51.292969 14.679688 C 51.121094 14.753906 50.921875 14.832031 50.738281 14.90625 C 50.539062 14.988281 50.351562 15.070312 50.136719 15.148438 C 49.941406 15.222656 49.71875 15.292969 49.511719 15.367188 C 49.28125 15.445312 49.0625 15.527344 48.820312 15.601562 C 48.597656 15.675781 48.347656 15.742188 48.109375 15.8125 C 47.855469 15.886719 47.613281 15.960938 47.34375 16.035156 C 47.089844 16.105469 46.8125 16.167969 46.546875 16.234375 C 46.269531 16.304688 46.003906 16.375 45.714844 16.441406 C 45.425781 16.503906 45.117188 16.566406 44.816406 16.628906 C 44.523438 16.6875 44.242188 16.753906 43.9375 16.808594 C 43.617188 16.871094 43.277344 16.925781 42.941406 16.984375 C 42.636719 17.035156 42.339844 17.089844 42.019531 17.140625 C 41.671875 17.195312 41.304688 17.242188 40.945312 17.289062 C 40.621094 17.335938 40.300781 17.382812 39.964844 17.425781 C 39.574219 17.472656 39.164062 17.511719 38.757812 17.554688 C 38.433594 17.589844 38.121094 17.625 37.785156 17.65625 C 37.339844 17.699219 36.867188 17.726562 36.40625 17.761719 C 36.097656 17.785156 35.796875 17.8125 35.480469 17.832031 C 34.972656 17.859375 34.445312 17.878906 33.921875 17.902344 C 33.632812 17.914062 33.351562 17.929688 33.058594 17.9375 C 32.234375 17.960938 31.390625 17.976562 30.527344 17.976562 C 29.667969 17.976562 28.824219 17.960938 27.996094 17.9375 C 27.699219 17.929688 27.417969 17.910156 27.125 17.898438 C 26.605469 17.878906 26.078125 17.859375 25.574219 17.832031 C 25.242188 17.808594 24.925781 17.78125 24.597656 17.757812 C 24.15625 17.726562 23.699219 17.695312 23.269531 17.65625 C 22.9375 17.625 22.621094 17.585938 22.292969 17.554688 C 21.890625 17.511719 21.476562 17.472656 21.089844 17.425781 C 20.753906 17.382812 20.441406 17.335938 20.117188 17.289062 C 19.753906 17.242188 19.386719 17.195312 19.035156 17.140625 C 18.707031 17.089844 18.398438 17.03125 18.078125 16.976562 C 17.757812 16.921875 17.425781 16.867188 17.121094 16.808594 C 16.808594 16.75 16.523438 16.6875 16.226562 16.625 C 15.929688 16.5625 15.625 16.503906 15.339844 16.4375 C 15.054688 16.375 14.789062 16.304688 14.511719 16.234375 C 14.246094 16.167969 13.96875 16.105469 13.714844 16.035156 C 13.441406 15.960938 13.195312 15.886719 12.9375 15.808594 C 12.703125 15.742188 12.460938 15.671875 12.238281 15.601562 C 11.992188 15.523438 11.769531 15.445312 11.539062 15.363281 C 11.332031 15.292969 11.113281 15.222656 10.921875 15.148438 C 10.703125 15.070312 10.515625 14.984375 10.316406 14.90625 C 10.132812 14.828125 9.9375 14.753906 9.765625 14.679688 C 9.585938 14.597656 9.433594 14.515625 9.265625 14.4375 C 9.105469 14.355469 8.933594 14.277344 8.785156 14.199219 C 8.636719 14.117188 8.515625 14.039062 8.382812 13.957031 C 8.246094 13.878906 8.101562 13.796875 7.980469 13.714844 C 7.867188 13.636719 7.777344 13.558594 7.675781 13.480469 C 7.570312 13.398438 7.453125 13.316406 7.367188 13.234375 C 7.28125 13.160156 7.222656 13.085938 7.15625 13.011719 C 7.078125 12.929688 6.996094 12.84375 6.9375 12.765625 C 6.886719 12.691406 6.859375 12.621094 6.824219 12.550781 C 6.78125 12.46875 6.730469 12.386719 6.707031 12.304688 L 6.667969 12.027344 C 6.855469 9.636719 16.640625 5.332031 30.527344 5.332031 Z M 60.339844 35.007812 C 60.054688 33.476562 58.289062 31.851562 54.691406 29.796875 L 56.976562 12.792969 L 56.976562 12.785156 L 57.046875 12.265625 C 57.054688 12.210938 57.058594 12.152344 57.058594 12.09375 C 57.058594 6.539062 43.078125 2.667969 30.527344 2.667969 C 17.980469 2.667969 4 6.539062 4 12.09375 C 4 12.152344 4.003906 12.210938 4.011719 12.269531 L 4.082031 12.789062 L 4.082031 12.792969 L 9.71875 54.679688 C 9.894531 59.582031 22.535156 61.410156 30.527344 61.410156 C 34.949219 61.410156 39.378906 60.949219 43.003906 60.109375 C 44.464844 59.773438 45.773438 59.378906 46.898438 58.933594 C 49.789062 57.792969 51.28125 56.363281 51.339844 54.679688 L 53.660156 37.441406 C 54.929688 37.710938 56.082031 37.875 57.042969 37.875 C 58.332031 37.875 59.300781 37.601562 59.824219 36.976562 C 60.289062 36.421875 60.472656 35.722656 60.339844 35.007812 Z M 60.339844 35.007812 "/>
</svg>
