<?xml version="1.0" encoding="UTF-8"?>
<svg xmlns="http://www.w3.org/2000/svg" xmlns:xlink="http://www.w3.org/1999/xlink" width="64" height="64" viewBox="0 0 64 64">
<path fill-rule="evenodd" fill="rgb(47.843137%, 63.137257%, 8.627451%)" fill-opacity="1" d="M 37.335938 20 L 39.210938 16.246094 L 41.085938 20 Z M 40.402344 12.671875 C 40.175781 12.21875 39.714844 11.933594 39.210938 11.933594 C 38.707031 11.933594 38.246094 12.21875 38.019531 12.671875 L 33.984375 20.738281 C 33.777344 21.152344 33.800781 21.640625 34.042969 22.035156 C 34.285156 22.425781 34.714844 22.667969 35.175781 22.667969 L 43.242188 22.667969 C 43.707031 22.667969 44.132812 22.429688 44.378906 22.035156 C 44.621094 21.640625 44.644531 21.152344 44.4375 20.738281 Z M 36 34.667969 C 34.53125 34.667969 33.332031 33.46875 33.332031 32 C 33.332031 30.53125 34.53125 29.332031 36 29.332031 C 37.46875 29.332031 38.667969 30.53125 38.667969 32 C 38.667969 33.46875 37.46875 34.667969 36 34.667969 Z M 36 26.667969 C 33.058594 26.667969 30.667969 29.058594 30.667969 32 C 30.667969 34.941406 33.058594 37.332031 36 37.332031 C 38.941406 37.332031 41.332031 34.941406 41.332031 32 C 41.332031 29.058594 38.941406 26.667969 36 26.667969 Z M 24 24 L 28 24 L 28 20 L 24 20 Z M 30.667969 18.667969 C 30.667969 17.929688 30.070312 17.332031 29.332031 17.332031 L 22.667969 17.332031 C 21.929688 17.332031 21.332031 17.929688 21.332031 18.667969 L 21.332031 25.332031 C 21.332031 26.070312 21.929688 26.667969 22.667969 26.667969 L 29.332031 26.667969 C 30.070312 26.667969 30.667969 26.070312 30.667969 25.332031 Z M 55.332031 58.667969 C 53.496094 58.667969 52 57.171875 52 55.332031 C 52 53.496094 53.496094 52 55.332031 52 C 57.171875 52 58.667969 53.496094 58.667969 55.332031 C 58.667969 57.171875 57.171875 58.667969 55.332031 58.667969 Z M 33.328125 46.234375 C 29.945312 43.257812 17.683594 31.824219 17.253906 22.257812 C 17.039062 17.46875 18.550781 13.121094 21.515625 10.019531 C 24.445312 6.953125 28.535156 5.332031 33.332031 5.332031 C 38.324219 5.332031 42.449219 6.890625 45.25 9.835938 C 48.101562 12.832031 49.476562 17.125 49.222656 22.253906 C 48.753906 31.8125 36.671875 43.246094 33.328125 46.234375 Z M 36 55.332031 C 36 57.171875 34.503906 58.667969 32.667969 58.667969 C 30.828125 58.667969 29.332031 57.171875 29.332031 55.332031 C 29.332031 53.496094 30.828125 52 32.667969 52 C 34.503906 52 36 53.496094 36 55.332031 Z M 13.332031 55.332031 C 13.332031 57.171875 11.839844 58.667969 10 58.667969 C 8.160156 58.667969 6.667969 57.171875 6.667969 55.332031 C 6.667969 53.496094 8.160156 52 10 52 C 11.839844 52 13.332031 53.496094 13.332031 55.332031 Z M 57.332031 49.703125 L 57.332031 40 C 57.332031 39.265625 56.738281 38.667969 56 38.667969 L 44.214844 38.667969 C 48.066406 33.835938 51.617188 27.941406 51.886719 22.382812 C 52.175781 16.507812 50.550781 11.53125 47.183594 7.996094 C 43.863281 4.507812 39.074219 2.667969 33.332031 2.667969 C 27.789062 2.667969 23.035156 4.574219 19.585938 8.179688 C 16.113281 11.8125 14.339844 16.855469 14.589844 22.378906 C 14.839844 27.9375 18.425781 33.835938 22.324219 38.667969 L 10.667969 38.667969 C 9.929688 38.667969 9.332031 39.265625 9.332031 40 L 9.332031 49.402344 C 6.339844 49.738281 4 52.253906 4 55.332031 C 4 58.640625 6.691406 61.332031 10 61.332031 C 13.308594 61.332031 16 58.640625 16 55.332031 C 16 52.730469 14.324219 50.53125 12 49.703125 L 12 41.332031 L 24.589844 41.332031 C 27.519531 44.613281 30.296875 47.136719 31.648438 48.316406 L 31.617188 49.441406 C 28.808594 49.941406 26.667969 52.382812 26.667969 55.332031 C 26.667969 58.640625 29.359375 61.332031 32.667969 61.332031 C 35.976562 61.332031 38.667969 58.640625 38.667969 55.332031 C 38.667969 52.589844 36.800781 50.292969 34.28125 49.582031 L 34.296875 48.929688 C 35 48.335938 38.371094 45.417969 41.976562 41.332031 L 54.667969 41.332031 L 54.667969 49.402344 C 51.675781 49.738281 49.332031 52.253906 49.332031 55.332031 C 49.332031 58.640625 52.023438 61.332031 55.332031 61.332031 C 58.640625 61.332031 61.332031 58.640625 61.332031 55.332031 C 61.332031 52.730469 59.65625 50.53125 57.332031 49.703125 Z M 57.332031 49.703125 "/>
</svg>
