<?xml version="1.0" encoding="UTF-8"?>
<svg xmlns="http://www.w3.org/2000/svg" xmlns:xlink="http://www.w3.org/1999/xlink" width="64" height="64" viewBox="0 0 64 64">
<path fill-rule="evenodd" fill="rgb(47.843137%, 63.137257%, 8.627451%)" fill-opacity="1" d="M 27.363281 5.332031 C 19.914062 5.332031 15.316406 7.492188 10.667969 10.175781 L 10.667969 59.898438 L 8 59.898438 L 8 9.410156 C 8 8.933594 8.25 8.496094 8.660156 8.257812 C 13.6875 5.3125 18.902344 2.667969 27.363281 2.667969 C 35.222656 2.667969 40.980469 5.632812 45.605469 8.015625 L 46.003906 8.222656 C 46.449219 8.453125 46.726562 8.910156 46.726562 9.410156 L 46.726562 20.808594 L 44.0625 20.808594 L 44.0625 10.222656 C 39.542969 7.894531 34.410156 5.332031 27.363281 5.332031 Z M 41.269531 32.648438 C 32.726562 32.648438 28.320312 30.285156 28.320312 29.277344 C 28.320312 28.269531 32.726562 25.90625 41.269531 25.90625 C 49.8125 25.90625 54.21875 28.269531 54.21875 29.277344 C 54.21875 30.285156 49.8125 32.648438 41.269531 32.648438 Z M 54.21875 33.890625 C 54.21875 34.898438 49.8125 37.257812 41.269531 37.257812 C 32.726562 37.257812 28.320312 34.898438 28.320312 33.890625 L 28.320312 32.851562 C 31.320312 34.527344 36.414062 35.3125 41.269531 35.3125 C 46.121094 35.3125 51.214844 34.527344 54.21875 32.851562 Z M 54.21875 50.300781 C 54.21875 51.308594 49.8125 53.671875 41.269531 53.671875 C 32.726562 53.671875 28.320312 51.308594 28.320312 50.300781 L 28.320312 37.464844 C 31.320312 39.136719 36.414062 39.925781 41.269531 39.925781 C 46.121094 39.925781 51.214844 39.136719 54.21875 37.464844 Z M 54.21875 55.195312 C 54.21875 56.203125 49.8125 58.5625 41.269531 58.5625 C 32.726562 58.5625 28.320312 56.203125 28.320312 55.195312 L 28.320312 53.878906 C 31.320312 55.550781 36.414062 56.339844 41.269531 56.339844 C 46.121094 56.339844 51.214844 55.550781 54.21875 53.878906 Z M 41.269531 23.238281 C 33.746094 23.238281 25.652344 25.128906 25.652344 29.277344 L 25.652344 55.195312 C 25.652344 59.339844 33.746094 61.230469 41.269531 61.230469 C 48.789062 61.230469 56.882812 59.339844 56.882812 55.195312 L 56.882812 29.277344 C 56.882812 25.128906 48.789062 23.238281 41.269531 23.238281 Z M 41.269531 23.238281 "/>
</svg>
