<?xml version="1.0" encoding="UTF-8"?>
<svg xmlns="http://www.w3.org/2000/svg" xmlns:xlink="http://www.w3.org/1999/xlink" width="64" height="64" viewBox="0 0 64 64">
<path fill-rule="evenodd" fill="rgb(47.843137%, 63.137257%, 8.627451%)" fill-opacity="1" d="M 21.152344 45.28125 C 29.304688 51.355469 40.878906 49.667969 46.957031 41.515625 C 53.03125 33.363281 51.34375 21.785156 43.191406 15.710938 C 35.304688 9.835938 24.234375 11.238281 18.015625 18.714844 L 21.351562 18.757812 L 21.316406 21.425781 L 14.558594 21.332031 C 14.207031 21.328125 13.867188 21.183594 13.621094 20.929688 C 13.375 20.675781 13.238281 20.335938 13.242188 19.980469 L 13.332031 13.316406 L 16 13.351562 L 15.949219 17.035156 C 23.0625 8.457031 35.75 6.839844 44.785156 13.570312 C 54.117188 20.527344 56.046875 33.777344 49.09375 43.109375 C 44.957031 48.660156 38.589844 51.59375 32.144531 51.59375 C 27.757812 51.59375 23.335938 50.234375 19.558594 47.417969 C 14.207031 43.429688 11.109375 37.308594 11.0625 30.625 L 13.730469 30.605469 C 13.769531 36.445312 16.476562 41.796875 21.152344 45.28125 Z M 46.667969 58.667969 L 52 58.667969 L 52 57.332031 L 46.667969 57.332031 Z M 12 58.667969 L 17.332031 58.667969 L 17.332031 57.332031 L 12 57.332031 Z M 60 2.667969 L 4 2.667969 C 3.261719 2.667969 2.667969 3.265625 2.667969 4 L 2.667969 14.667969 L 5.332031 14.667969 L 5.332031 5.332031 L 58.667969 5.332031 L 58.667969 54.667969 L 5.332031 54.667969 L 5.332031 44 L 2.667969 44 L 2.667969 56 C 2.667969 56.734375 3.261719 57.332031 4 57.332031 L 9.332031 57.332031 L 9.332031 60 C 9.332031 60.734375 9.929688 61.332031 10.667969 61.332031 L 18.667969 61.332031 C 19.402344 61.332031 20 60.734375 20 60 L 20 57.332031 L 44 57.332031 L 44 60 C 44 60.734375 44.597656 61.332031 45.332031 61.332031 L 53.332031 61.332031 C 54.070312 61.332031 54.667969 60.734375 54.667969 60 L 54.667969 57.332031 L 60 57.332031 C 60.734375 57.332031 61.332031 56.734375 61.332031 56 L 61.332031 4 C 61.332031 3.265625 60.734375 2.667969 60 2.667969 Z M 2.667969 36 L 5.332031 36 L 5.332031 22.667969 L 2.667969 22.667969 Z M 26.667969 37.332031 L 37.332031 37.332031 L 37.332031 29.332031 L 26.667969 29.332031 Z M 29.332031 24 C 29.332031 22.53125 30.53125 21.332031 32 21.332031 C 33.46875 21.332031 34.667969 22.53125 34.667969 24 L 34.667969 26.667969 L 29.332031 26.667969 Z M 32 18.667969 C 29.058594 18.667969 26.667969 21.058594 26.667969 24 L 26.667969 26.667969 L 25.332031 26.667969 C 24.597656 26.667969 24 27.265625 24 28 L 24 38.667969 C 24 39.402344 24.597656 40 25.332031 40 L 38.667969 40 C 39.402344 40 40 39.402344 40 38.667969 L 40 28 C 40 27.265625 39.402344 26.667969 38.667969 26.667969 L 37.332031 26.667969 L 37.332031 24 C 37.332031 21.058594 34.941406 18.667969 32 18.667969 Z M 32 18.667969 "/>
</svg>
