<?xml version="1.0" encoding="UTF-8"?>
<svg xmlns="http://www.w3.org/2000/svg" xmlns:xlink="http://www.w3.org/1999/xlink" width="64" height="64" viewBox="0 0 64 64">
<path fill-rule="evenodd" fill="rgb(47.843137%, 63.137257%, 8.627451%)" fill-opacity="1" d="M 33.332031 40 L 36 40 L 36 29.332031 L 33.332031 29.332031 Z M 28 40 L 30.667969 40 L 30.667969 29.332031 L 28 29.332031 Z M 45.332031 34.667969 C 45.332031 42.019531 39.351562 48 32 48 C 24.648438 48 18.667969 42.019531 18.667969 34.667969 L 21.332031 34.667969 C 21.332031 40.546875 26.117188 45.332031 32 45.332031 C 37.882812 45.332031 42.667969 40.546875 42.667969 34.667969 C 42.667969 28.785156 37.882812 24 32 24 C 29.382812 24 26.902344 24.988281 24.984375 26.667969 L 26.667969 26.667969 L 26.667969 29.332031 L 22.765625 29.332031 C 22.757812 29.347656 22.746094 29.359375 22.738281 29.375 L 22.664062 29.332031 L 21.332031 29.332031 C 20.597656 29.332031 20 28.734375 20 28 L 20 22.667969 L 22.667969 22.667969 L 22.667969 25.160156 C 25.128906 22.75 28.472656 21.332031 32 21.332031 C 39.351562 21.332031 45.332031 27.316406 45.332031 34.667969 Z M 56 28 C 54.53125 28 53.332031 26.804688 53.332031 25.332031 C 53.332031 23.863281 54.53125 22.667969 56 22.667969 C 57.46875 22.667969 58.667969 23.863281 58.667969 25.332031 C 58.667969 26.804688 57.46875 28 56 28 Z M 46.886719 50.6875 C 46.8125 50.683594 46.742188 50.667969 46.667969 50.667969 C 44.1875 50.667969 42.117188 52.375 41.523438 54.667969 L 22.476562 54.667969 C 21.882812 52.375 19.8125 50.667969 17.332031 50.667969 C 17.257812 50.667969 17.1875 50.683594 17.113281 50.6875 L 10.773438 29.867188 C 12.300781 28.929688 13.332031 27.253906 13.332031 25.332031 C 13.332031 24.648438 13.191406 24 12.957031 23.398438 L 28.617188 12.089844 C 29.539062 12.855469 30.710938 13.332031 32 13.332031 C 33.289062 13.332031 34.460938 12.855469 35.382812 12.089844 L 51.042969 23.398438 C 50.808594 24 50.667969 24.648438 50.667969 25.332031 C 50.667969 27.253906 51.699219 28.929688 53.226562 29.867188 Z M 46.667969 58.667969 C 45.195312 58.667969 44 57.46875 44 56 C 44 54.53125 45.195312 53.332031 46.667969 53.332031 C 48.136719 53.332031 49.332031 54.53125 49.332031 56 C 49.332031 57.46875 48.136719 58.667969 46.667969 58.667969 Z M 17.332031 58.667969 C 15.863281 58.667969 14.667969 57.46875 14.667969 56 C 14.667969 54.53125 15.863281 53.332031 17.332031 53.332031 C 18.804688 53.332031 20 54.53125 20 56 C 20 57.46875 18.804688 58.667969 17.332031 58.667969 Z M 5.332031 25.332031 C 5.332031 23.863281 6.53125 22.667969 8 22.667969 C 9.46875 22.667969 10.667969 23.863281 10.667969 25.332031 C 10.667969 26.804688 9.46875 28 8 28 C 6.53125 28 5.332031 26.804688 5.332031 25.332031 Z M 32 5.332031 C 33.46875 5.332031 34.667969 6.53125 34.667969 8 C 34.667969 9.46875 33.46875 10.667969 32 10.667969 C 30.53125 10.667969 29.332031 9.46875 29.332031 8 C 29.332031 6.53125 30.53125 5.332031 32 5.332031 Z M 56 20 C 54.710938 20 53.539062 20.480469 52.617188 21.246094 L 36.957031 9.933594 C 37.191406 9.332031 37.332031 8.683594 37.332031 8 C 37.332031 5.058594 34.941406 2.667969 32 2.667969 C 29.058594 2.667969 26.667969 5.058594 26.667969 8 C 26.667969 8.683594 26.808594 9.332031 27.042969 9.933594 L 11.382812 21.246094 C 10.460938 20.480469 9.289062 20 8 20 C 5.058594 20 2.667969 22.390625 2.667969 25.332031 C 2.667969 28.273438 5.058594 30.667969 8 30.667969 C 8.074219 30.667969 8.148438 30.648438 8.222656 30.644531 L 14.558594 51.464844 C 13.03125 52.40625 12 54.078125 12 56 C 12 58.941406 14.390625 61.332031 17.332031 61.332031 C 19.8125 61.332031 21.882812 59.625 22.476562 57.332031 L 41.523438 57.332031 C 42.117188 59.625 44.1875 61.332031 46.667969 61.332031 C 49.609375 61.332031 52 58.941406 52 56 C 52 54.078125 50.96875 52.40625 49.441406 51.464844 L 55.777344 30.644531 C 55.851562 30.648438 55.925781 30.667969 56 30.667969 C 58.941406 30.667969 61.332031 28.273438 61.332031 25.332031 C 61.332031 22.390625 58.941406 20 56 20 Z M 56 20 "/>
</svg>
