<?xml version="1.0" encoding="UTF-8"?>
<svg xmlns="http://www.w3.org/2000/svg" xmlns:xlink="http://www.w3.org/1999/xlink" width="64" height="64" viewBox="0 0 64 64">
<path fill-rule="nonzero" fill="rgb(47.843137%, 63.137255%, 8.627451%)" fill-opacity="1" d="M 27.054688 32.078125 C 26.320312 32.078125 25.71875 32.679688 25.71875 33.414062 L 25.71875 38.746094 C 25.71875 39.480469 26.320312 40.078125 27.054688 40.078125 L 28.386719 40.078125 L 28.386719 42.746094 L 23.054688 42.746094 C 22.320312 42.746094 21.71875 43.347656 21.71875 44.078125 L 21.71875 46.746094 L 20.386719 46.746094 C 19.652344 46.746094 19.054688 47.347656 19.054688 48.078125 L 19.054688 53.414062 C 19.054688 54.144531 19.652344 54.746094 20.386719 54.746094 L 25.71875 54.746094 C 26.453125 54.746094 27.054688 54.144531 27.054688 53.414062 L 27.054688 48.078125 C 27.054688 47.347656 26.453125 46.746094 25.71875 46.746094 L 24.386719 46.746094 L 24.386719 45.414062 L 35.054688 45.414062 L 35.054688 46.746094 L 33.71875 46.746094 C 32.988281 46.746094 32.386719 47.347656 32.386719 48.078125 L 32.386719 53.414062 C 32.386719 54.144531 32.988281 54.746094 33.71875 54.746094 L 39.054688 54.746094 C 39.785156 54.746094 40.386719 54.144531 40.386719 53.414062 L 40.386719 48.078125 C 40.386719 47.347656 39.785156 46.746094 39.054688 46.746094 L 37.71875 46.746094 L 37.71875 44.078125 C 37.71875 43.347656 37.121094 42.746094 36.386719 42.746094 L 31.054688 42.746094 L 31.054688 40.078125 L 32.386719 40.078125 C 33.121094 40.078125 33.71875 39.480469 33.71875 38.746094 L 33.71875 33.414062 C 33.71875 32.679688 33.121094 32.078125 32.386719 32.078125 Z M 24.386719 52.078125 L 21.71875 52.078125 L 21.71875 49.414062 L 24.386719 49.414062 Z M 37.71875 52.078125 L 35.054688 52.078125 L 35.054688 49.414062 L 37.71875 49.414062 Z M 31.054688 37.414062 L 28.386719 37.414062 L 28.386719 34.746094 L 31.054688 34.746094 Z M 60.347656 35.011719 C 60.066406 33.480469 58.292969 31.851562 54.691406 29.800781 L 56.988281 12.800781 L 57.054688 12.28125 C 57.054688 12.28125 57.054688 12.160156 57.054688 12.105469 C 57.054688 6.546875 43.066406 2.679688 30.519531 2.679688 C 17.972656 2.679688 4 6.53125 4 12.09375 C 4 12.144531 4 12.214844 4 12.265625 L 4.066406 12.785156 L 9.707031 54.679688 C 9.878906 59.585938 22.519531 61.414062 30.519531 61.414062 C 34.933594 61.414062 39.375 60.945312 43 60.105469 C 44.464844 59.773438 45.773438 59.375 46.894531 58.933594 C 49.785156 57.785156 51.265625 56.359375 51.332031 54.679688 L 53.652344 37.441406 C 54.921875 37.707031 56.078125 37.867188 57.039062 37.867188 C 58.332031 37.867188 59.292969 37.585938 59.828125 36.972656 C 60.292969 36.414062 60.480469 35.71875 60.347656 35 Z M 30.535156 5.332031 C 44.425781 5.332031 54.214844 9.640625 54.398438 12.027344 L 54.359375 12.304688 C 53.667969 14.679688 44.332031 17.972656 30.535156 17.972656 C 16.734375 17.972656 7.386719 14.679688 6.707031 12.304688 L 6.667969 12.027344 C 6.851562 9.640625 16.640625 5.332031 30.519531 5.332031 Z M 48.679688 54.398438 C 48.679688 54.398438 48.679688 54.519531 48.679688 54.574219 C 48.679688 54.773438 48.171875 55.558594 45.933594 56.453125 C 44.933594 56.851562 43.746094 57.199219 42.414062 57.507812 C 38.972656 58.304688 34.761719 58.734375 30.535156 58.734375 C 19.238281 58.734375 12.386719 55.839844 12.386719 54.558594 C 12.386719 54.507812 12.386719 54.441406 12.386719 54.386719 L 7.253906 16.386719 C 12.078125 19.199219 21.535156 20.652344 30.535156 20.652344 C 39.535156 20.652344 48.988281 19.199219 53.8125 16.386719 L 51.933594 30.359375 L 51.425781 34.121094 C 46.574219 32.558594 39.761719 29.746094 33.320312 26.679688 C 33.238281 25.199219 32.039062 24.027344 30.546875 24.027344 C 29.054688 24.027344 27.746094 25.28125 27.746094 26.828125 C 27.746094 28.375 29 29.625 30.546875 29.625 C 31.148438 29.625 31.707031 29.425781 32.171875 29.09375 C 37.945312 31.867188 45.320312 35.132812 51.078125 36.800781 L 48.707031 54.414062 Z M 54 34.878906 L 54.292969 32.667969 C 56.667969 34.121094 57.398438 34.945312 57.613281 35.304688 C 56.988281 35.492188 55.707031 35.320312 53.988281 34.878906 Z M 54 34.878906 "/>
</svg>
