<?xml version="1.0" encoding="UTF-8"?>
<svg xmlns="http://www.w3.org/2000/svg" xmlns:xlink="http://www.w3.org/1999/xlink" width="64" height="64" viewBox="0 0 64 64">
<path fill-rule="evenodd" fill="rgb(47.843137%, 63.137257%, 8.627451%)" fill-opacity="1" d="M 17.890625 5.332031 L 45.175781 5.332031 L 51.0625 13.164062 L 12.003906 13.164062 Z M 9.335938 15.832031 L 53.734375 15.832031 C 54.238281 15.832031 54.699219 15.546875 54.925781 15.09375 C 55.152344 14.640625 55.101562 14.101562 54.796875 13.695312 L 46.90625 3.199219 C 46.652344 2.863281 46.257812 2.667969 45.839844 2.667969 L 17.226562 2.667969 C 16.808594 2.667969 16.414062 2.863281 16.160156 3.199219 L 8.269531 13.695312 C 7.964844 14.101562 7.914062 14.640625 8.140625 15.09375 C 8.367188 15.546875 8.828125 15.832031 9.335938 15.832031 Z M 10.746094 58.648438 L 52.398438 58.648438 L 52.398438 20.496094 L 10.746094 20.496094 Z M 53.734375 17.828125 L 9.414062 17.828125 C 8.675781 17.828125 8.082031 18.425781 8.082031 19.160156 L 8.082031 59.980469 C 8.082031 60.71875 8.675781 61.3125 9.414062 61.3125 L 53.734375 61.3125 C 54.46875 61.3125 55.066406 60.71875 55.066406 59.980469 L 55.066406 19.160156 C 55.066406 18.425781 54.46875 17.828125 53.734375 17.828125 Z M 53.734375 17.828125 "/>
</svg>
