<?xml version="1.0" encoding="UTF-8"?>
<svg xmlns="http://www.w3.org/2000/svg" xmlns:xlink="http://www.w3.org/1999/xlink" width="64" height="64" viewBox="0 0 64 64">
<path fill-rule="evenodd" fill="rgb(47.843137%, 63.137257%, 8.627451%)" fill-opacity="1" d="M 30.816406 22.46875 L 31.394531 42.363281 L 32.558594 42.363281 L 33.132812 22.46875 C 32.386719 22.261719 31.5625 22.261719 30.816406 22.46875 M 28.765625 43.734375 L 28.121094 21.613281 C 28.109375 21.09375 28.394531 20.613281 28.859375 20.382812 C 30.816406 19.40625 33.132812 19.402344 35.089844 20.382812 C 35.554688 20.613281 35.839844 21.09375 35.828125 21.613281 L 35.183594 43.734375 C 35.164062 44.457031 34.574219 45.03125 33.851562 45.03125 L 30.097656 45.03125 C 29.375 45.03125 28.785156 44.457031 28.765625 43.734375 M 30.332031 51.402344 C 30.332031 52.105469 30.585938 52.449219 30.777344 52.648438 C 30.960938 52.835938 31.285156 53.089844 31.976562 53.089844 C 32.660156 53.089844 32.988281 52.835938 33.171875 52.648438 C 33.363281 52.449219 33.617188 52.105469 33.617188 51.402344 C 33.617188 50.695312 33.363281 50.351562 33.171875 50.15625 C 32.988281 49.964844 32.660156 49.710938 31.976562 49.710938 C 31.289062 49.710938 30.960938 49.964844 30.777344 50.15625 C 30.472656 50.46875 30.332031 50.867188 30.332031 51.402344 M 27.664062 51.402344 C 27.664062 50.164062 28.066406 49.117188 28.863281 48.296875 C 29.664062 47.476562 30.738281 47.046875 31.976562 47.046875 C 33.210938 47.046875 34.285156 47.476562 35.082031 48.296875 C 35.882812 49.117188 36.285156 50.160156 36.285156 51.402344 C 36.285156 52.640625 35.882812 53.6875 35.082031 54.507812 C 34.285156 55.324219 33.210938 55.757812 31.976562 55.757812 C 30.738281 55.757812 29.664062 55.324219 28.867188 54.507812 C 28.066406 53.683594 27.664062 52.640625 27.664062 51.402344 M 60.617188 53.429688 C 60.074219 52.515625 58.445312 49.695312 57.226562 47.582031 L 54.914062 48.914062 C 56.140625 51.039062 57.777344 53.867188 58.328125 54.796875 C 58.726562 55.460938 58.707031 56.316406 58.269531 57.082031 C 57.816406 57.886719 57.046875 58.363281 56.207031 58.363281 L 7.742188 58.363281 C 6.902344 58.363281 6.128906 57.886719 5.675781 57.082031 C 5.242188 56.316406 5.222656 55.460938 5.625 54.789062 L 17.539062 34.648438 C 17.613281 34.519531 17.675781 34.398438 17.726562 34.285156 L 17.746094 34.292969 C 17.765625 34.261719 18.269531 33.410156 29.855469 13.816406 C 30.269531 13.128906 31.0625 12.71875 31.972656 12.71875 C 32.886719 12.71875 33.679688 13.128906 34.089844 13.808594 L 43.488281 29.699219 C 44.898438 32.09375 45.726562 33.488281 46.289062 34.25 L 46.207031 34.300781 L 49.003906 39.027344 L 50.203125 40.972656 L 52.472656 39.574219 L 51.285156 37.652344 C 49.832031 35.191406 48.988281 33.765625 48.414062 32.988281 L 48.5 32.9375 L 36.378906 12.445312 C 35.480469 10.945312 33.832031 10.050781 31.972656 10.050781 C 30.117188 10.050781 28.46875 10.945312 27.5625 12.453125 L 15.65625 32.59375 C 15.578125 32.71875 15.515625 32.839844 15.464844 32.957031 L 15.445312 32.945312 C 15.425781 32.980469 14.917969 33.835938 3.335938 53.421875 C 2.4375 54.921875 2.445312 56.78125 3.355469 58.398438 C 4.277344 60.019531 5.957031 61.03125 7.742188 61.03125 L 56.207031 61.03125 C 57.992188 61.03125 59.671875 60.019531 60.59375 58.398438 C 61.503906 56.78125 61.511719 54.925781 60.617188 53.429688 M 6.722656 28.804688 L 3.296875 23.761719 L 5.503906 22.265625 L 7.089844 24.601562 C 8.140625 18.890625 10.976562 13.691406 15.335938 9.703125 C 20.625 4.863281 27.484375 2.378906 34.648438 2.691406 C 49.4375 3.351562 60.933594 15.917969 60.273438 30.707031 C 59.902344 39.078125 55.75 46.652344 48.886719 51.480469 L 47.351562 49.300781 C 53.535156 44.949219 57.273438 38.128906 57.609375 30.589844 C 58.203125 17.269531 47.847656 5.949219 34.53125 5.355469 C 28.089844 5.0625 21.898438 7.3125 17.132812 11.671875 C 13.183594 15.285156 10.621094 20 9.6875 25.183594 L 12.121094 23.53125 L 13.617188 25.738281 L 8.574219 29.164062 C 8.34375 29.316406 8.085938 29.390625 7.828125 29.390625 C 7.398438 29.390625 6.980469 29.1875 6.722656 28.804688 "/>
</svg>
