<?xml version="1.0" encoding="UTF-8"?>
<svg xmlns="http://www.w3.org/2000/svg" xmlns:xlink="http://www.w3.org/1999/xlink" width="64" height="64" viewBox="0 0 64 64">
<path fill-rule="evenodd" fill="rgb(47.843137%, 63.137257%, 8.627451%)" fill-opacity="1" d="M 35.476562 51.042969 C 38.882812 51.042969 42.125 49.964844 44.847656 47.929688 C 45.25 47.628906 45.636719 47.308594 46.007812 46.972656 C 46.195312 46.800781 46.375 46.628906 46.550781 46.453125 C 47.621094 45.382812 48.53125 44.167969 49.253906 42.839844 C 49.375 42.617188 49.488281 42.394531 49.597656 42.167969 C 50.621094 40.039062 51.144531 37.753906 51.144531 35.375 C 51.144531 28.03125 46.152344 21.753906 39.007812 20.109375 L 39.605469 17.507812 C 47.96875 19.4375 53.808594 26.78125 53.808594 35.375 C 53.808594 38.160156 53.199219 40.832031 52 43.324219 C 51.875 43.589844 51.734375 43.855469 51.59375 44.117188 C 50.753906 45.667969 49.6875 47.089844 48.4375 48.339844 C 48.230469 48.542969 48.019531 48.746094 47.800781 48.945312 C 47.371094 49.339844 46.914062 49.714844 46.445312 50.066406 C 43.257812 52.449219 39.460938 53.707031 35.476562 53.707031 C 25.363281 53.707031 17.136719 45.484375 17.136719 35.375 L 19.808594 35.289062 L 19.804688 35.394531 C 19.804688 44.011719 26.835938 51.042969 35.476562 51.042969 Z M 34.742188 33.574219 C 35.671875 33.574219 36.433594 34.335938 36.433594 35.265625 C 36.433594 36.199219 35.671875 36.957031 34.742188 36.957031 C 33.808594 36.957031 33.050781 36.199219 33.050781 35.265625 C 33.050781 34.335938 33.808594 33.574219 34.742188 33.574219 Z M 30.386719 35.265625 C 30.386719 37.667969 32.339844 39.625 34.742188 39.625 C 37.144531 39.625 39.101562 37.667969 39.101562 35.265625 C 39.101562 33.300781 37.785156 31.65625 35.996094 31.113281 L 35.917969 18.660156 L 33.253906 18.675781 L 33.328125 31.164062 C 31.621094 31.757812 30.386719 33.363281 30.386719 35.265625 Z M 6.667969 26.667969 L 21.332031 26.667969 L 21.332031 24 L 6.667969 24 Z M 2.667969 32 L 17.332031 32 L 17.332031 29.332031 L 2.667969 29.332031 Z M 30.667969 9.996094 L 30.667969 6.207031 C 30.667969 5.726562 31.058594 5.332031 31.539062 5.332031 L 37.792969 5.332031 C 38.273438 5.332031 38.667969 5.726562 38.667969 6.207031 L 38.667969 9.78125 C 35.996094 9.441406 33.296875 9.511719 30.667969 9.996094 Z M 52.417969 15.984375 L 54.6875 13.71875 L 56.171875 15.203125 L 58.058594 13.316406 L 53.203125 8.460938 L 51.316406 10.347656 L 52.800781 11.832031 L 50.3125 14.320312 C 47.535156 12.347656 44.488281 11.003906 41.332031 10.261719 L 41.332031 6.207031 C 41.332031 4.253906 39.746094 2.667969 37.792969 2.667969 L 31.539062 2.667969 C 29.585938 2.667969 28 4.253906 28 6.207031 L 28 10.621094 C 24.074219 11.777344 20.398438 13.863281 17.332031 16.84375 L 17.332031 14.667969 L 14.667969 14.667969 L 14.667969 20 C 14.667969 20.734375 15.261719 21.332031 16 21.332031 L 21.332031 21.332031 L 21.332031 18.667969 L 19.277344 18.667969 C 27.335938 10.902344 40.070312 9.972656 49.222656 16.796875 C 59.480469 24.441406 61.605469 39.007812 53.957031 49.265625 C 46.3125 59.523438 31.746094 61.648438 21.488281 54.003906 C 15.605469 49.617188 12.203125 42.886719 12.152344 35.539062 L 9.484375 35.558594 C 9.542969 43.75 13.335938 51.25 19.894531 56.140625 C 24.527344 59.59375 29.945312 61.257812 35.324219 61.257812 C 43.222656 61.257812 51.023438 57.664062 56.097656 50.859375 C 64.203125 39.984375 62.441406 24.78125 52.417969 15.984375 Z M 52.417969 15.984375 "/>
</svg>
