<?xml version="1.0" encoding="UTF-8"?>
<svg xmlns="http://www.w3.org/2000/svg" xmlns:xlink="http://www.w3.org/1999/xlink" width="64" height="64" viewBox="0 0 64 64">
<path fill-rule="evenodd" fill="rgb(47.843137%, 63.137257%, 8.627451%)" fill-opacity="1" d="M 35.285156 49.332031 L 31.285156 49.332031 C 30.546875 49.332031 29.953125 48.738281 29.953125 48 L 29.953125 42.667969 L 32.621094 42.667969 L 32.621094 46.667969 L 35.285156 46.667969 Z M 31.332031 41.332031 C 28.023438 41.332031 25.332031 44.023438 25.332031 47.332031 C 25.332031 50.640625 28.023438 53.332031 31.332031 53.332031 C 34.640625 53.332031 37.332031 50.640625 37.332031 47.332031 C 37.332031 44.023438 34.640625 41.332031 31.332031 41.332031 Z M 31.332031 56 C 26.554688 56 22.667969 52.113281 22.667969 47.332031 C 22.667969 42.554688 26.554688 38.667969 31.332031 38.667969 C 36.113281 38.667969 40 42.554688 40 47.332031 C 40 52.113281 36.113281 56 31.332031 56 Z M 47.957031 10.101562 C 46.273438 9.777344 44.542969 9.53125 42.847656 9.359375 C 39.675781 7.96875 33.921875 6.667969 25.875 6.667969 C 11.621094 6.667969 5.433594 10.417969 5.34375 11.65625 L 5.367188 11.855469 C 5.644531 12.5625 7.570312 13.863281 12.421875 14.839844 C 11.734375 15.558594 11.238281 16.359375 10.980469 17.253906 C 9.097656 16.832031 7.316406 16.289062 5.890625 15.578125 L 10.457031 48.1875 C 10.464844 48.25 10.46875 48.3125 10.46875 48.375 C 10.523438 48.582031 11.394531 49.496094 14.492188 50.34375 L 14.890625 53.1875 C 10.28125 52.109375 7.882812 50.53125 7.804688 48.480469 L 2.757812 12.417969 C 2.738281 12.347656 2.738281 12.273438 2.726562 12.199219 L 2.679688 11.867188 L 2.671875 11.808594 C 2.667969 11.746094 2.667969 11.75 2.667969 11.683594 C 2.667969 6.695312 14.625 4 25.875 4 C 35.820312 4 45.851562 6.089844 47.957031 10.101562 Z M 55.863281 38.640625 L 56.042969 37.285156 C 57.371094 38.097656 58.03125 38.660156 58.355469 39.003906 C 57.925781 39.023438 57.152344 38.949219 55.863281 38.640625 Z M 50.980469 55.207031 C 50.972656 55.265625 50.972656 55.304688 50.972656 55.363281 C 50.933594 55.519531 50.445312 56.101562 48.765625 56.757812 C 47.925781 57.085938 46.929688 57.382812 45.808594 57.636719 C 42.90625 58.300781 39.339844 58.667969 35.773438 58.667969 C 26.296875 58.667969 20.824219 56.351562 20.578125 55.382812 C 20.578125 55.320312 20.574219 55.257812 20.566406 55.195312 L 16 22.59375 C 20.414062 24.808594 28.625 25.671875 35.984375 25.671875 C 43.085938 25.671875 51 24.8125 55.292969 22.625 L 53.269531 37.90625 C 48.113281 36.269531 41.375 33.230469 38.335938 31.816406 C 38.136719 30.605469 37.089844 29.675781 35.820312 29.675781 C 34.414062 29.675781 33.265625 30.820312 33.265625 32.230469 C 33.265625 33.640625 34.414062 34.789062 35.820312 34.789062 C 36.386719 34.789062 36.902344 34.597656 37.324219 34.289062 C 40.914062 35.960938 47.699219 38.992188 52.914062 40.59375 Z M 35.984375 13.675781 C 48.75 13.675781 55.738281 16.953125 55.816406 18.664062 L 55.800781 18.785156 C 55.550781 20.347656 48.941406 23.003906 35.984375 23.003906 C 22.761719 23.003906 15.738281 20.308594 15.46875 18.785156 L 15.453125 18.664062 C 15.542969 17.421875 21.730469 13.675781 35.984375 13.675781 Z M 61.273438 38.917969 C 61.019531 37.546875 59.539062 36.183594 56.421875 34.417969 L 58.480469 18.867188 C 58.480469 18.808594 58.488281 18.753906 58.488281 18.695312 C 58.488281 13.648438 47.167969 11.007812 35.984375 11.007812 C 24.734375 11.007812 12.777344 13.699219 12.777344 18.695312 C 12.777344 18.753906 12.777344 18.757812 12.78125 18.820312 L 12.789062 18.878906 L 17.914062 55.492188 C 18.089844 59.773438 28.652344 61.332031 35.773438 61.332031 C 39.535156 61.332031 43.308594 60.945312 46.402344 60.238281 C 47.648438 59.953125 48.769531 59.617188 49.734375 59.242188 C 52.265625 58.25 53.578125 56.988281 53.636719 55.484375 L 55.511719 41.292969 C 56.601562 41.539062 57.519531 41.667969 58.277344 41.667969 C 59.464844 41.667969 60.265625 41.363281 60.785156 40.75 C 61.226562 40.234375 61.398438 39.582031 61.273438 38.917969 Z M 61.273438 38.917969 "/>
</svg>
