<?xml version="1.0" encoding="UTF-8"?>
<svg xmlns="http://www.w3.org/2000/svg" xmlns:xlink="http://www.w3.org/1999/xlink" width="64" height="64" viewBox="0 0 64 64">
<path fill-rule="evenodd" fill="rgb(47.843137%, 63.137257%, 8.627451%)" fill-opacity="1" d="M 21.582031 29.828125 C 25.027344 29.828125 27.832031 32.632812 27.832031 36.078125 C 27.832031 39.523438 25.027344 42.324219 21.582031 42.324219 C 18.136719 42.324219 15.332031 39.523438 15.332031 36.078125 C 15.332031 32.632812 18.136719 29.828125 21.582031 29.828125 Z M 35.164062 36.078125 C 35.164062 32.632812 37.964844 29.828125 41.410156 29.828125 C 44.855469 29.828125 47.660156 32.632812 47.660156 36.078125 C 47.660156 39.523438 44.855469 42.324219 41.410156 42.324219 C 37.964844 42.324219 35.164062 39.523438 35.164062 36.078125 Z M 21.582031 44.992188 C 21.777344 44.992188 21.972656 44.976562 22.164062 44.960938 L 22.164062 44.992188 L 41.996094 44.992188 L 41.996094 44.960938 C 46.636719 44.660156 50.328125 40.796875 50.328125 36.078125 C 50.328125 31.160156 46.328125 27.160156 41.410156 27.160156 C 36.496094 27.160156 32.496094 31.160156 32.496094 36.078125 C 32.496094 38.507812 33.476562 40.714844 35.0625 42.324219 L 27.929688 42.324219 C 29.515625 40.714844 30.496094 38.507812 30.496094 36.078125 C 30.496094 31.160156 26.5 27.160156 21.582031 27.160156 C 16.667969 27.160156 12.667969 31.160156 12.667969 36.078125 C 12.667969 40.992188 16.667969 44.992188 21.582031 44.992188 Z M 42.742188 20.328125 L 37.449219 20.328125 L 37.449219 9.820312 L 38.921875 9.820312 L 38.921875 19.101562 L 42.742188 19.101562 Z M 32.007812 11.050781 L 29.398438 11.050781 L 29.398438 9.820312 L 36.101562 9.820312 L 36.101562 11.050781 L 33.476562 11.050781 L 33.476562 20.328125 L 32.007812 20.328125 Z M 24.152344 20.328125 L 21.121094 9.820312 L 22.742188 9.820312 L 24.957031 18.738281 L 27.183594 9.820312 L 28.746094 9.820312 L 25.714844 20.328125 Z M 52.328125 58.65625 L 40.996094 58.65625 L 40.996094 51.824219 C 40.996094 51.085938 40.398438 50.488281 39.664062 50.488281 L 23.332031 50.488281 C 22.59375 50.488281 22 51.085938 22 51.824219 L 22 58.65625 L 10.667969 58.65625 L 10.667969 5.332031 L 52.328125 5.332031 Z M 53.660156 2.667969 L 9.332031 2.667969 C 8.597656 2.667969 8 3.261719 8 4 L 8 59.988281 C 8 60.726562 8.597656 61.320312 9.332031 61.320312 L 23.332031 61.320312 C 24.066406 61.320312 24.664062 60.726562 24.664062 59.988281 L 24.664062 53.15625 L 38.328125 53.15625 L 38.328125 59.988281 C 38.328125 60.726562 38.925781 61.320312 39.664062 61.320312 L 53.660156 61.320312 C 54.394531 61.320312 54.992188 60.726562 54.992188 59.988281 L 54.992188 4 C 54.992188 3.261719 54.394531 2.667969 53.660156 2.667969 Z M 53.660156 2.667969 "/>
</svg>
