<?xml version="1.0" encoding="UTF-8"?>
<svg xmlns="http://www.w3.org/2000/svg" xmlns:xlink="http://www.w3.org/1999/xlink" width="64" height="64" viewBox="0 0 64 64">
<path fill-rule="evenodd" fill="rgb(47.843137%, 63.137257%, 8.627451%)" fill-opacity="1" d="M 42.96875 33.953125 C 42.96875 32.125 41.484375 30.640625 39.65625 30.640625 C 37.828125 30.640625 36.34375 32.125 36.34375 33.953125 C 36.34375 35.78125 37.828125 37.265625 39.65625 37.265625 C 41.484375 37.265625 42.96875 35.78125 42.96875 33.953125 Z M 45.636719 33.953125 C 45.636719 37.25 42.953125 39.933594 39.65625 39.933594 C 36.359375 39.933594 33.675781 37.25 33.675781 33.953125 C 33.675781 30.65625 36.359375 27.972656 39.65625 27.972656 C 42.953125 27.972656 45.636719 30.65625 45.636719 33.953125 Z M 40.605469 21.203125 L 37.71875 15.929688 L 34.710938 21.203125 Z M 44.023438 21.898438 C 44.25 22.3125 44.238281 22.8125 44 23.21875 C 43.757812 23.621094 43.324219 23.871094 42.851562 23.871094 L 32.414062 23.871094 C 31.9375 23.871094 31.5 23.617188 31.261719 23.207031 C 31.023438 22.796875 31.019531 22.289062 31.257812 21.878906 L 36.585938 12.535156 C 36.824219 12.113281 37.292969 11.820312 37.753906 11.859375 C 38.238281 11.863281 38.679688 12.128906 38.914062 12.554688 Z M 20.246094 30.675781 L 25.660156 30.675781 L 25.660156 25.261719 L 20.246094 25.261719 Z M 26.996094 22.59375 C 27.730469 22.59375 28.328125 23.191406 28.328125 23.925781 L 28.328125 32.011719 C 28.328125 32.75 27.730469 33.34375 26.996094 33.34375 L 18.910156 33.34375 C 18.171875 33.34375 17.578125 32.75 17.578125 32.011719 L 17.578125 23.925781 C 17.578125 23.191406 18.171875 22.59375 18.910156 22.59375 Z M 33.675781 56.585938 L 33.675781 40.300781 L 31.007812 40.300781 L 31.007812 56.691406 L 26.683594 52.367188 L 24.796875 54.253906 L 31.34375 60.800781 C 31.59375 61.050781 31.933594 61.191406 32.289062 61.191406 C 32.640625 61.191406 32.980469 61.050781 33.230469 60.800781 L 39.792969 54.238281 L 37.90625 52.351562 Z M 52.625 11.59375 L 52.625 30.570312 C 52.625 41.871094 46.488281 49.171875 36.109375 50.605469 L 36.109375 47.964844 C 45.15625 46.714844 49.957031 40.535156 49.957031 30.570312 L 49.957031 11.59375 L 32.289062 5.328125 L 14.621094 11.65625 L 14.664062 30.570312 C 14.664062 40.535156 19.46875 46.714844 28.515625 47.964844 L 28.515625 50.605469 C 18.136719 49.171875 12 41.871094 12 30.570312 L 12 11.59375 C 12 10.492188 12.695312 9.511719 13.726562 9.144531 L 31.4375 2.820312 C 31.996094 2.617188 32.621094 2.617188 33.1875 2.820312 L 50.898438 9.148438 C 51.929688 9.511719 52.625 10.492188 52.625 11.59375 Z M 52.625 11.59375 "/>
</svg>
