<?xml version="1.0" encoding="UTF-8"?>
<svg xmlns="http://www.w3.org/2000/svg" xmlns:xlink="http://www.w3.org/1999/xlink" width="64" height="64" viewBox="0 0 64 64">
<path fill-rule="evenodd" fill="rgb(47.843137%, 63.137257%, 8.627451%)" fill-opacity="1" d="M 50.828125 52.695312 C 50.722656 52.890625 50.667969 53.109375 50.667969 53.332031 L 50.667969 58.667969 L 46.667969 58.667969 L 46.667969 53.332031 C 46.667969 53.109375 46.609375 52.890625 46.503906 52.695312 L 39.578125 40 L 57.753906 40 Z M 61.148438 37.988281 C 60.90625 37.582031 60.46875 37.332031 60 37.332031 L 37.332031 37.332031 C 36.863281 37.332031 36.425781 37.582031 36.1875 37.988281 C 35.945312 38.390625 35.9375 38.890625 36.164062 39.304688 L 44 53.671875 L 44 60 C 44 60.734375 44.597656 61.332031 45.332031 61.332031 L 52 61.332031 C 52.738281 61.332031 53.332031 60.734375 53.332031 60 L 53.332031 53.671875 L 61.171875 39.304688 C 61.394531 38.890625 61.386719 38.390625 61.148438 37.988281 Z M 25.886719 5.332031 C 37.636719 5.332031 46.257812 9 46.441406 10.96875 L 46.410156 11.207031 C 45.742188 13.171875 37.535156 15.96875 25.886719 15.96875 C 14.242188 15.96875 6.035156 13.171875 5.367188 11.207031 L 5.335938 10.96875 C 5.523438 9 14.144531 5.332031 25.886719 5.332031 Z M 49.503906 29.546875 C 49.542969 29.660156 49.550781 29.757812 49.472656 29.910156 C 49.457031 29.941406 49.375 30 49.226562 30.046875 C 48.625 30.246094 47.707031 30.226562 46.566406 30.039062 L 46.917969 27.441406 C 48.015625 28.03125 49.253906 28.824219 49.503906 29.546875 Z M 36.167969 50.320312 C 33.191406 51.003906 29.542969 51.386719 25.886719 51.386719 C 16.144531 51.386719 10.46875 48.933594 10.300781 47.9375 C 10.300781 47.878906 10.296875 47.820312 10.289062 47.761719 L 5.882812 15.042969 C 10.203125 17.40625 18.230469 18.632812 25.886719 18.632812 C 33.546875 18.632812 41.574219 17.40625 45.894531 15.042969 L 43.957031 29.441406 C 39.625 28.238281 33.796875 25.785156 29.296875 23.636719 C 29.117188 22.339844 28.011719 21.332031 26.667969 21.332031 C 25.195312 21.332031 24 22.53125 24 24 C 24 25.46875 25.195312 26.667969 26.667969 26.667969 C 27.273438 26.667969 27.828125 26.453125 28.277344 26.109375 C 31.882812 27.832031 38.355469 30.738281 43.601562 32.089844 L 43.296875 34.328125 L 45.941406 34.683594 L 46.21875 32.636719 C 46.945312 32.746094 47.640625 32.824219 48.257812 32.824219 C 48.949219 32.824219 49.558594 32.746094 50.066406 32.578125 C 51.113281 32.230469 51.617188 31.585938 51.859375 31.101562 C 52.246094 30.324219 52.304688 29.484375 52.019531 28.667969 C 51.363281 26.785156 48.996094 25.460938 47.292969 24.632812 L 49.042969 11.660156 L 49.039062 11.660156 C 49.042969 11.660156 49.042969 11.65625 49.042969 11.65625 L 49.101562 11.203125 C 49.109375 11.148438 49.113281 11.089844 49.113281 11.03125 C 49.113281 6.027344 37.105469 2.667969 25.886719 2.667969 C 14.671875 2.667969 2.667969 6.027344 2.667969 11.03125 C 2.667969 11.089844 2.671875 11.148438 2.679688 11.207031 L 2.738281 11.660156 L 7.636719 48.042969 C 7.800781 52.449219 18.605469 54.050781 25.886719 54.050781 C 29.738281 54.050781 33.601562 53.648438 36.765625 52.917969 C 38.042969 52.621094 39.191406 52.277344 40.175781 51.886719 L 39.195312 49.40625 C 38.335938 49.746094 37.316406 50.054688 36.167969 50.320312 Z M 14.296875 32 L 17.332031 26.6875 L 20.367188 32 Z M 23.820312 34.003906 C 24.058594 33.59375 24.058594 33.085938 23.824219 32.671875 L 18.492188 23.339844 C 18.015625 22.507812 16.648438 22.507812 16.175781 23.339844 L 10.84375 32.671875 C 10.605469 33.085938 10.609375 33.59375 10.847656 34.003906 C 11.085938 34.414062 11.523438 34.667969 12 34.667969 L 22.667969 34.667969 C 23.140625 34.667969 23.578125 34.414062 23.820312 34.003906 Z M 30.925781 37.597656 C 30.925781 39.425781 32.414062 40.914062 34.246094 40.914062 L 34.246094 43.582031 C 30.945312 43.582031 28.257812 40.894531 28.257812 37.597656 C 28.257812 34.292969 30.945312 31.609375 34.246094 31.609375 C 35.953125 31.609375 37.585938 32.339844 38.722656 33.621094 L 36.730469 35.390625 C 36.097656 34.683594 35.191406 34.277344 34.246094 34.277344 C 32.414062 34.277344 30.925781 35.765625 30.925781 37.597656 Z M 17.332031 45.332031 L 22.667969 45.332031 L 22.667969 40 L 17.332031 40 Z M 16 48 L 24 48 C 24.738281 48 25.332031 47.402344 25.332031 46.667969 L 25.332031 38.667969 C 25.332031 37.929688 24.738281 37.332031 24 37.332031 L 16 37.332031 C 15.261719 37.332031 14.667969 37.929688 14.667969 38.667969 L 14.667969 46.667969 C 14.667969 47.402344 15.261719 48 16 48 Z M 16 48 "/>
</svg>
