<?xml version="1.0" encoding="UTF-8"?>
<svg xmlns="http://www.w3.org/2000/svg" xmlns:xlink="http://www.w3.org/1999/xlink" width="64" height="64" viewBox="0 0 64 64">
<path fill-rule="evenodd" fill="rgb(47.843137%, 63.137257%, 8.627451%)" fill-opacity="1" d="M 13.730469 30.605469 L 11.0625 30.625 C 11.109375 37.308594 14.207031 43.429688 19.558594 47.417969 C 23.335938 50.234375 27.757812 51.59375 32.144531 51.59375 C 38.589844 51.59375 44.957031 48.660156 49.09375 43.109375 C 56.046875 33.777344 54.117188 20.527344 44.785156 13.574219 C 35.75 6.839844 23.0625 8.460938 15.949219 17.035156 L 16 13.351562 L 13.332031 13.316406 L 13.242188 19.984375 C 13.238281 20.335938 13.375 20.675781 13.621094 20.929688 C 13.871094 21.183594 14.207031 21.328125 14.558594 21.332031 L 21.316406 21.425781 L 21.351562 18.757812 L 18.015625 18.714844 C 24.234375 11.238281 35.304688 9.835938 43.191406 15.710938 C 51.34375 21.789062 53.03125 33.363281 46.957031 41.515625 C 40.878906 49.667969 29.304688 51.355469 21.152344 45.28125 C 16.476562 41.796875 13.769531 36.445312 13.730469 30.605469 Z M 32 25.332031 C 29.058594 25.332031 26.667969 27.726562 26.667969 30.667969 C 26.667969 33.609375 29.058594 36 32 36 C 34.941406 36 37.332031 33.609375 37.332031 30.667969 C 37.332031 27.726562 34.941406 25.332031 32 25.332031 Z M 22.59375 38.375 L 25.566406 35.402344 C 24.589844 34.074219 24 32.441406 24 30.667969 C 24 28.828125 24.628906 27.136719 25.675781 25.785156 L 22.597656 22.921875 L 24.410156 20.96875 L 27.636719 23.96875 C 28.894531 23.148438 30.390625 22.667969 32 22.667969 C 33.789062 22.667969 35.4375 23.265625 36.769531 24.261719 L 39.976562 20.96875 L 41.886719 22.828125 L 38.621094 26.179688 C 39.488281 27.460938 40 29.003906 40 30.667969 C 40 32.335938 39.484375 33.886719 38.605469 35.167969 L 41.886719 38.339844 L 40.03125 40.257812 L 36.753906 37.085938 C 35.421875 38.074219 33.78125 38.667969 32 38.667969 C 30.324219 38.667969 28.765625 38.148438 27.480469 37.261719 L 24.480469 40.257812 Z M 46.667969 58.667969 L 52 58.667969 L 52 57.332031 L 46.667969 57.332031 Z M 12 58.667969 L 17.332031 58.667969 L 17.332031 57.332031 L 12 57.332031 Z M 61.332031 4 L 61.332031 56 C 61.332031 56.738281 60.738281 57.332031 60 57.332031 L 54.667969 57.332031 L 54.667969 60 C 54.667969 60.738281 54.070312 61.332031 53.332031 61.332031 L 45.332031 61.332031 C 44.597656 61.332031 44 60.738281 44 60 L 44 57.332031 L 20 57.332031 L 20 60 C 20 60.738281 19.402344 61.332031 18.667969 61.332031 L 10.667969 61.332031 C 9.929688 61.332031 9.332031 60.738281 9.332031 60 L 9.332031 57.332031 L 4 57.332031 C 3.261719 57.332031 2.667969 56.738281 2.667969 56 L 2.667969 44 L 5.332031 44 L 5.332031 54.667969 L 58.667969 54.667969 L 58.667969 5.332031 L 5.332031 5.332031 L 5.332031 14.667969 L 2.667969 14.667969 L 2.667969 4 C 2.667969 3.265625 3.261719 2.667969 4 2.667969 L 60 2.667969 C 60.738281 2.667969 61.332031 3.265625 61.332031 4 Z M 2.667969 36 L 5.332031 36 L 5.332031 22.667969 L 2.667969 22.667969 Z M 2.667969 36 "/>
</svg>
