<?xml version="1.0" encoding="UTF-8"?>
<svg xmlns="http://www.w3.org/2000/svg" xmlns:xlink="http://www.w3.org/1999/xlink" width="64" height="64" viewBox="0 0 64 64">
<path fill-rule="evenodd" fill="rgb(47.843137%, 63.137257%, 8.627451%)" fill-opacity="1" d="M 58.476562 53.019531 L 60.019531 54.5625 L 58.136719 56.449219 L 56.207031 54.519531 L 56.207031 54.546875 L 53.472656 54.546875 L 54.6875 56.652344 L 57.566406 57.460938 L 56.847656 60.03125 L 54.789062 59.449219 L 54.222656 61.558594 L 51.648438 60.867188 L 52.40625 58.03125 L 51.066406 55.703125 L 49.746094 57.984375 L 50.484375 60.882812 L 47.902344 61.542969 L 47.375 59.46875 L 45.265625 60.035156 L 44.578125 57.457031 L 47.410156 56.699219 L 48.65625 54.546875 L 45.945312 54.546875 L 43.980469 56.460938 L 42.117188 54.550781 L 43.648438 53.058594 L 42.105469 51.515625 L 43.992188 49.628906 L 46.242188 51.878906 L 48.855469 51.878906 L 47.433594 49.425781 L 44.558594 48.617188 L 45.28125 46.050781 L 47.339844 46.628906 L 47.90625 44.519531 L 50.480469 45.210938 L 49.71875 48.050781 L 51.066406 50.375 L 52.378906 48.089844 L 51.644531 45.195312 L 54.226562 44.535156 L 54.753906 46.609375 L 56.863281 46.046875 L 57.550781 48.621094 L 54.714844 49.382812 L 53.273438 51.878906 L 55.832031 51.878906 L 58.148438 49.617188 L 60.007812 51.527344 Z M 39.40625 53.019531 L 40.949219 54.5625 L 39.0625 56.449219 L 37.160156 54.546875 L 34.402344 54.546875 L 35.617188 56.652344 L 38.496094 57.460938 L 37.773438 60.03125 L 35.71875 59.449219 L 35.152344 61.558594 L 32.578125 60.867188 L 33.335938 58.035156 L 31.992188 55.703125 L 30.675781 57.984375 L 31.414062 60.882812 L 28.828125 61.539062 L 28.300781 59.46875 L 26.195312 60.035156 L 25.507812 57.457031 L 28.335938 56.699219 L 29.582031 54.546875 L 26.875 54.546875 L 24.910156 56.460938 L 23.046875 54.550781 L 24.578125 53.058594 L 23.035156 51.515625 L 24.921875 49.628906 L 27.171875 51.878906 L 29.78125 51.878906 L 28.363281 49.421875 L 25.488281 48.617188 L 26.210938 46.050781 L 28.269531 46.628906 L 28.832031 44.519531 L 31.410156 45.210938 L 30.648438 48.050781 L 31.992188 50.375 L 33.308594 48.089844 L 32.574219 45.195312 L 35.15625 44.535156 L 35.683594 46.609375 L 37.789062 46.046875 L 38.480469 48.621094 L 35.644531 49.382812 L 34.203125 51.878906 L 36.761719 51.878906 L 39.074219 49.617188 L 40.9375 51.527344 Z M 30.511719 5.332031 C 44.394531 5.332031 54.179688 9.636719 54.359375 12.023438 L 54.324219 12.28125 C 54.292969 12.402344 54.226562 12.523438 54.152344 12.648438 C 54.132812 12.679688 54.125 12.710938 54.101562 12.742188 C 54.015625 12.863281 53.898438 12.988281 53.773438 13.113281 C 53.738281 13.148438 53.71875 13.179688 53.683594 13.214844 C 53.542969 13.339844 53.378906 13.464844 53.199219 13.59375 C 53.15625 13.625 53.121094 13.660156 53.070312 13.691406 C 52.878906 13.824219 52.660156 13.953125 52.429688 14.082031 C 52.375 14.113281 52.332031 14.144531 52.277344 14.175781 C 52.023438 14.3125 51.742188 14.449219 51.449219 14.582031 C 51.398438 14.605469 51.355469 14.628906 51.308594 14.652344 C 50.980469 14.796875 50.625 14.941406 50.25 15.085938 C 50.222656 15.097656 50.195312 15.109375 50.167969 15.121094 C 46.058594 16.667969 39.164062 17.960938 30.519531 17.960938 C 19.277344 17.960938 10.984375 15.773438 7.9375 13.675781 C 7.9375 13.675781 7.933594 13.671875 7.933594 13.671875 C 7.703125 13.515625 7.507812 13.359375 7.339844 13.203125 C 7.316406 13.183594 7.300781 13.164062 7.28125 13.140625 C 7.140625 13.007812 7.019531 12.871094 6.925781 12.738281 C 6.902344 12.703125 6.890625 12.667969 6.867188 12.628906 C 6.796875 12.515625 6.734375 12.398438 6.703125 12.289062 L 6.667969 12.023438 C 6.851562 9.636719 16.632812 5.332031 30.511719 5.332031 Z M 57.582031 35.257812 C 57.195312 35.332031 56.203125 35.367188 53.976562 34.828125 L 54.269531 32.640625 C 56.582031 34.046875 57.34375 34.890625 57.582031 35.257812 Z M 30.871094 26.546875 L 32.207031 26.546875 L 30.875 26.546875 C 30.871094 26.546875 30.871094 26.546875 30.871094 26.546875 Z M 12.375 54.546875 C 12.375 54.484375 12.371094 54.425781 12.363281 54.367188 L 7.253906 16.371094 C 7.5625 16.550781 7.890625 16.722656 8.234375 16.890625 C 8.441406 16.992188 8.664062 17.085938 8.882812 17.183594 C 9.082031 17.273438 9.28125 17.359375 9.488281 17.441406 C 9.734375 17.542969 9.988281 17.640625 10.25 17.738281 C 10.4375 17.808594 10.632812 17.875 10.828125 17.941406 C 11.835938 18.289062 12.925781 18.601562 14.085938 18.882812 C 14.238281 18.917969 14.390625 18.953125 14.546875 18.992188 C 14.9375 19.082031 15.332031 19.167969 15.734375 19.25 C 15.839844 19.273438 15.945312 19.292969 16.050781 19.3125 C 17.417969 19.582031 18.851562 19.8125 20.332031 20 C 20.417969 20.011719 20.507812 20.023438 20.59375 20.035156 C 22.683594 20.292969 24.847656 20.464844 27.03125 20.554688 C 27.097656 20.558594 27.164062 20.5625 27.230469 20.5625 C 28.324219 20.605469 29.421875 20.636719 30.511719 20.636719 C 31.59375 20.636719 32.675781 20.605469 33.761719 20.566406 C 33.859375 20.5625 33.953125 20.558594 34.050781 20.554688 C 35.632812 20.488281 37.207031 20.378906 38.746094 20.222656 C 38.820312 20.214844 38.898438 20.210938 38.972656 20.203125 C 39.433594 20.152344 39.886719 20.101562 40.34375 20.046875 C 40.507812 20.027344 40.667969 20.003906 40.828125 19.984375 C 41.269531 19.925781 41.710938 19.867188 42.144531 19.804688 C 42.164062 19.800781 42.183594 19.796875 42.199219 19.796875 C 43.074219 19.664062 43.925781 19.515625 44.757812 19.355469 C 44.964844 19.316406 45.171875 19.277344 45.375 19.234375 C 45.71875 19.164062 46.054688 19.089844 46.386719 19.011719 C 46.625 18.960938 46.855469 18.902344 47.085938 18.847656 C 47.398438 18.769531 47.707031 18.695312 48.007812 18.613281 C 48.445312 18.496094 48.871094 18.375 49.28125 18.246094 C 49.550781 18.164062 49.808594 18.074219 50.070312 17.988281 C 50.328125 17.898438 50.582031 17.8125 50.832031 17.71875 C 51.054688 17.636719 51.277344 17.550781 51.492188 17.464844 C 51.746094 17.359375 51.988281 17.253906 52.230469 17.148438 C 52.410156 17.066406 52.597656 16.988281 52.769531 16.902344 C 53.121094 16.734375 53.457031 16.554688 53.769531 16.375 L 51.382812 34.09375 C 45.304688 32.179688 37.203125 28.492188 33.519531 26.757812 C 33.523438 26.6875 33.539062 26.617188 33.539062 26.546875 C 33.539062 25.074219 32.34375 23.878906 30.871094 23.878906 C 29.402344 23.878906 28.207031 25.074219 28.207031 26.546875 C 28.207031 28.015625 29.402344 29.214844 30.871094 29.214844 C 31.261719 29.214844 31.628906 29.125 31.960938 28.972656 C 36.09375 30.929688 44.632812 34.824219 51.023438 36.773438 L 50.273438 42.351562 L 52.914062 42.710938 L 53.617188 37.484375 C 54.980469 37.804688 56.101562 37.96875 57.015625 37.96875 C 58.335938 37.96875 59.226562 37.628906 59.792969 36.957031 C 60.261719 36.398438 60.445312 35.699219 60.3125 34.984375 C 60.023438 33.449219 58.253906 31.828125 54.65625 29.777344 L 56.925781 12.898438 C 56.933594 12.859375 56.945312 12.824219 56.949219 12.78125 L 57.015625 12.265625 C 57.023438 12.207031 57.027344 12.148438 57.027344 12.089844 C 57.027344 6.539062 43.054688 2.667969 30.511719 2.667969 C 17.972656 2.667969 4 6.539062 4 12.089844 C 4 12.148438 4.003906 12.207031 4.011719 12.265625 L 4.078125 12.78125 C 4.082031 12.796875 4.085938 12.8125 4.089844 12.828125 L 9.710938 54.648438 C 9.839844 58.410156 17.125 60.066406 21.480469 60.722656 L 21.878906 58.082031 C 14.628906 56.996094 12.375 55.109375 12.375 54.546875 Z M 12.375 54.546875 "/>
</svg>
