<?xml version="1.0" encoding="UTF-8"?>
<svg xmlns="http://www.w3.org/2000/svg" xmlns:xlink="http://www.w3.org/1999/xlink" width="64" height="64" viewBox="0 0 64 64">
<path fill-rule="evenodd" fill="rgb(47.843137%, 63.137257%, 8.627451%)" fill-opacity="1" d="M 24 41.332031 C 24 39.128906 22.207031 37.332031 20 37.332031 L 20 34.667969 C 23.675781 34.667969 26.667969 37.65625 26.667969 41.332031 C 26.667969 45.007812 23.675781 48 20 48 L 17.332031 48 C 13.65625 48 10.667969 45.007812 10.667969 41.332031 L 13.332031 41.332031 C 13.332031 43.539062 15.128906 45.332031 17.332031 45.332031 L 20 45.332031 C 22.207031 45.332031 24 43.539062 24 41.332031 Z M 5.332031 41.332031 C 5.332031 43.539062 7.128906 45.332031 9.332031 45.332031 L 9.332031 48 C 5.65625 48 2.667969 45.007812 2.667969 41.332031 C 2.667969 37.65625 5.65625 34.667969 9.332031 34.667969 L 12 34.667969 C 15.675781 34.667969 18.667969 37.65625 18.667969 41.332031 L 16 41.332031 C 16 39.128906 14.207031 37.332031 12 37.332031 L 9.332031 37.332031 C 7.128906 37.332031 5.332031 39.128906 5.332031 41.332031 Z M 42.667969 30.667969 L 45.332031 30.667969 L 45.332031 28 L 42.667969 28 Z M 50.667969 30.667969 L 53.332031 30.667969 L 53.332031 28 L 50.667969 28 Z M 26.667969 12 L 29.332031 12 L 29.332031 9.332031 L 26.667969 9.332031 Z M 18.667969 12 L 21.332031 12 L 21.332031 9.332031 L 18.667969 9.332031 Z M 17.332031 21.332031 L 54.667969 21.332031 L 54.667969 18.667969 L 17.332031 18.667969 Z M 13.332031 16 L 58.667969 16 L 58.667969 5.332031 L 13.332031 5.332031 Z M 45.332031 58.667969 L 54.667969 58.667969 L 54.667969 56 L 45.332031 56 Z M 17.332031 58.667969 L 26.667969 58.667969 L 26.667969 56 L 17.332031 56 Z M 58.777344 18.667969 C 60.1875 18.667969 61.332031 17.519531 61.332031 16.109375 L 61.332031 5.222656 C 61.332031 3.8125 60.1875 2.667969 58.777344 2.667969 L 13.332031 2.667969 C 11.863281 2.667969 10.667969 3.863281 10.667969 5.332031 L 10.667969 16.109375 C 10.667969 17.519531 11.8125 18.667969 13.222656 18.667969 L 14.667969 18.667969 L 14.667969 21.332031 L 13.222656 21.332031 C 11.8125 21.332031 10.667969 22.480469 10.667969 23.890625 L 10.667969 32 L 13.332031 32 L 13.332031 24 L 58.667969 24 L 58.667969 34.667969 L 29.332031 34.667969 L 29.332031 37.332031 L 54.667969 37.332031 L 54.667969 40 L 29.332031 40 L 29.332031 42.667969 L 58.667969 42.667969 L 58.667969 53.332031 L 13.332031 53.332031 L 13.332031 50.667969 L 10.667969 50.667969 L 10.667969 53.332031 C 10.667969 54.804688 11.863281 56 13.332031 56 L 14.667969 56 L 14.667969 60 C 14.667969 60.734375 15.261719 61.332031 16 61.332031 L 28 61.332031 C 28.738281 61.332031 29.332031 60.734375 29.332031 60 L 29.332031 56 L 42.667969 56 L 42.667969 60 C 42.667969 60.734375 43.261719 61.332031 44 61.332031 L 56 61.332031 C 56.738281 61.332031 57.332031 60.734375 57.332031 60 L 57.332031 56 L 58.667969 56 C 60.136719 56 61.332031 54.804688 61.332031 53.332031 L 61.332031 42.667969 C 61.332031 41.195312 60.136719 40 58.667969 40 L 57.332031 40 L 57.332031 37.332031 L 58.777344 37.332031 C 60.1875 37.332031 61.332031 36.1875 61.332031 34.777344 L 61.332031 24 C 61.332031 22.53125 60.136719 21.332031 58.667969 21.332031 L 57.332031 21.332031 L 57.332031 18.667969 Z M 58.777344 18.667969 "/>
</svg>
