<?xml version="1.0" encoding="UTF-8"?>
<svg xmlns="http://www.w3.org/2000/svg" xmlns:xlink="http://www.w3.org/1999/xlink" width="64" height="64" viewBox="0 0 64 64">
<path fill-rule="evenodd" fill="rgb(47.843137%, 63.137257%, 8.627451%)" fill-opacity="1" d="M 53.804688 34.746094 L 54.101562 32.550781 C 56.449219 33.980469 57.183594 34.808594 57.398438 35.164062 C 56.773438 35.347656 55.507812 35.179688 53.804688 34.746094 Z M 30.300781 26.71875 C 30.300781 26.652344 30.355469 26.597656 30.421875 26.597656 C 30.441406 26.597656 30.453125 26.609375 30.472656 26.617188 L 30.378906 26.804688 C 30.335938 26.792969 30.300781 26.769531 30.300781 26.71875 Z M 48.496094 54.183594 C 48.488281 54.242188 48.484375 54.300781 48.484375 54.363281 C 48.484375 54.5625 47.984375 55.34375 45.746094 56.226562 C 44.75 56.621094 43.570312 56.976562 42.246094 57.277344 C 38.824219 58.070312 34.625 58.507812 30.421875 58.507812 C 19.183594 58.507812 12.363281 55.628906 12.363281 54.363281 C 12.363281 54.300781 12.355469 54.242188 12.347656 54.183594 L 7.253906 16.335938 C 7.578125 16.527344 7.933594 16.710938 8.300781 16.886719 C 8.394531 16.933594 8.496094 16.976562 8.59375 17.019531 C 8.921875 17.171875 9.265625 17.320312 9.625 17.460938 C 9.769531 17.519531 9.914062 17.574219 10.058594 17.632812 C 10.433594 17.773438 10.820312 17.90625 11.222656 18.039062 C 11.328125 18.074219 11.429688 18.109375 11.539062 18.144531 C 12.050781 18.304688 12.574219 18.457031 13.121094 18.601562 C 13.257812 18.636719 13.398438 18.671875 13.542969 18.707031 C 13.96875 18.816406 14.40625 18.921875 14.851562 19.019531 C 15.03125 19.058594 15.207031 19.097656 15.386719 19.136719 C 15.882812 19.242188 16.386719 19.339844 16.898438 19.433594 C 17 19.453125 17.097656 19.472656 17.199219 19.492188 C 17.8125 19.597656 18.441406 19.699219 19.074219 19.789062 C 19.246094 19.816406 19.417969 19.835938 19.589844 19.859375 C 20.078125 19.925781 20.570312 19.988281 21.066406 20.046875 C 21.261719 20.070312 21.457031 20.09375 21.652344 20.113281 C 22.246094 20.175781 22.84375 20.234375 23.445312 20.285156 C 23.515625 20.292969 23.585938 20.296875 23.65625 20.304688 C 24.328125 20.359375 25 20.402344 25.679688 20.441406 C 25.867188 20.453125 26.054688 20.460938 26.246094 20.46875 C 26.757812 20.496094 27.269531 20.515625 27.78125 20.535156 C 27.984375 20.539062 28.183594 20.546875 28.382812 20.550781 C 29.0625 20.566406 29.742188 20.578125 30.421875 20.578125 C 31.097656 20.578125 31.777344 20.566406 32.457031 20.550781 C 32.660156 20.546875 32.859375 20.539062 33.058594 20.535156 C 33.570312 20.515625 34.085938 20.496094 34.597656 20.46875 C 34.785156 20.460938 34.976562 20.453125 35.164062 20.441406 C 35.839844 20.402344 36.515625 20.359375 37.1875 20.304688 C 37.257812 20.296875 37.320312 20.292969 37.386719 20.285156 C 37.996094 20.234375 38.597656 20.175781 39.191406 20.113281 C 39.386719 20.09375 39.578125 20.070312 39.773438 20.046875 C 40.273438 19.988281 40.769531 19.925781 41.261719 19.859375 C 41.429688 19.835938 41.597656 19.816406 41.765625 19.789062 C 42.402344 19.699219 43.035156 19.597656 43.648438 19.492188 C 43.742188 19.472656 43.835938 19.453125 43.933594 19.4375 C 44.453125 19.339844 44.960938 19.242188 45.464844 19.136719 C 45.640625 19.097656 45.816406 19.058594 45.988281 19.019531 C 46.441406 18.921875 46.882812 18.816406 47.316406 18.707031 C 47.449219 18.671875 47.589844 18.636719 47.722656 18.601562 C 48.269531 18.457031 48.796875 18.304688 49.308594 18.144531 C 49.414062 18.109375 49.511719 18.074219 49.613281 18.042969 C 50.019531 17.910156 50.410156 17.773438 50.789062 17.628906 C 50.933594 17.574219 51.074219 17.519531 51.214844 17.464844 C 51.578125 17.320312 51.929688 17.171875 52.261719 17.015625 C 52.351562 16.972656 52.453125 16.933594 52.542969 16.890625 C 52.910156 16.710938 53.265625 16.527344 53.59375 16.335938 L 51.21875 33.988281 C 46.390625 32.4375 39.609375 29.628906 33.195312 26.578125 C 33.121094 25.105469 31.910156 23.929688 30.421875 23.929688 C 28.886719 23.929688 27.636719 25.179688 27.636719 26.71875 C 27.636719 28.257812 28.886719 29.503906 30.421875 29.503906 C 31.023438 29.503906 31.582031 29.308594 32.039062 28.984375 C 37.789062 31.738281 45.125 34.996094 50.855469 36.648438 Z M 30.421875 5.332031 C 44.25 5.332031 53.996094 9.617188 54.175781 11.992188 L 54.140625 12.269531 C 54.117188 12.351562 54.0625 12.4375 54.019531 12.519531 C 53.984375 12.589844 53.957031 12.65625 53.910156 12.722656 C 53.851562 12.808594 53.765625 12.894531 53.683594 12.980469 C 53.617188 13.050781 53.5625 13.121094 53.488281 13.191406 C 53.390625 13.277344 53.269531 13.367188 53.15625 13.453125 C 53.0625 13.523438 52.980469 13.597656 52.871094 13.667969 C 52.742188 13.757812 52.59375 13.84375 52.445312 13.929688 C 52.324219 14.003906 52.210938 14.078125 52.070312 14.152344 C 51.914062 14.234375 51.734375 14.320312 51.5625 14.402344 C 51.40625 14.480469 51.265625 14.554688 51.097656 14.628906 C 50.910156 14.710938 50.703125 14.789062 50.5 14.875 C 50.320312 14.945312 50.144531 15.023438 49.949219 15.097656 C 49.734375 15.175781 49.496094 15.253906 49.269531 15.332031 C 49.058594 15.402344 48.859375 15.480469 48.636719 15.550781 C 48.398438 15.625 48.132812 15.699219 47.882812 15.773438 C 47.644531 15.839844 47.414062 15.910156 47.167969 15.980469 C 46.902344 16.050781 46.617188 16.117188 46.339844 16.183594 C 46.074219 16.25 45.820312 16.320312 45.542969 16.382812 C 45.253906 16.445312 44.945312 16.507812 44.644531 16.570312 C 44.355469 16.628906 44.074219 16.691406 43.773438 16.75 C 43.449219 16.8125 43.109375 16.867188 42.773438 16.925781 C 42.46875 16.976562 42.175781 17.03125 41.863281 17.078125 C 41.507812 17.132812 41.132812 17.179688 40.769531 17.230469 C 40.449219 17.273438 40.144531 17.324219 39.820312 17.363281 C 39.4375 17.410156 39.035156 17.445312 38.640625 17.488281 C 38.308594 17.523438 37.988281 17.5625 37.644531 17.59375 C 37.214844 17.632812 36.761719 17.660156 36.316406 17.695312 C 35.992188 17.71875 35.679688 17.746094 35.351562 17.765625 C 34.84375 17.796875 34.320312 17.816406 33.792969 17.835938 C 33.507812 17.847656 33.230469 17.867188 32.941406 17.875 C 32.117188 17.898438 31.277344 17.910156 30.421875 17.910156 C 29.5625 17.910156 28.722656 17.898438 27.902344 17.875 C 27.621094 17.867188 27.351562 17.847656 27.074219 17.835938 C 26.542969 17.816406 26.003906 17.796875 25.492188 17.765625 C 25.175781 17.746094 24.882812 17.71875 24.574219 17.699219 C 24.113281 17.664062 23.644531 17.632812 23.195312 17.59375 C 22.875 17.5625 22.570312 17.527344 22.257812 17.496094 C 21.84375 17.449219 21.421875 17.410156 21.023438 17.363281 C 20.71875 17.328125 20.429688 17.28125 20.132812 17.238281 C 19.742188 17.1875 19.347656 17.136719 18.976562 17.078125 C 18.683594 17.035156 18.410156 16.984375 18.125 16.933594 C 17.773438 16.875 17.410156 16.816406 17.066406 16.75 C 16.78125 16.695312 16.519531 16.636719 16.242188 16.578125 C 15.929688 16.511719 15.601562 16.449219 15.300781 16.382812 C 15.039062 16.324219 14.792969 16.257812 14.542969 16.195312 C 14.25 16.121094 13.949219 16.050781 13.675781 15.980469 C 13.4375 15.914062 13.222656 15.84375 12.996094 15.78125 C 12.730469 15.703125 12.453125 15.625 12.207031 15.546875 C 11.992188 15.480469 11.800781 15.410156 11.597656 15.339844 C 11.363281 15.257812 11.113281 15.175781 10.894531 15.097656 C 10.707031 15.023438 10.539062 14.953125 10.363281 14.882812 C 10.15625 14.796875 9.9375 14.714844 9.746094 14.625 C 9.585938 14.554688 9.445312 14.480469 9.292969 14.40625 C 9.117188 14.324219 8.933594 14.234375 8.773438 14.152344 C 8.636719 14.078125 8.527344 14.003906 8.402344 13.933594 C 8.257812 13.84375 8.101562 13.757812 7.972656 13.667969 C 7.867188 13.597656 7.785156 13.523438 7.691406 13.453125 C 7.578125 13.367188 7.453125 13.277344 7.359375 13.191406 C 7.28125 13.121094 7.226562 13.050781 7.164062 12.980469 C 7.082031 12.894531 6.996094 12.808594 6.9375 12.722656 C 6.886719 12.65625 6.863281 12.589844 6.828125 12.519531 C 6.78125 12.4375 6.726562 12.351562 6.707031 12.269531 L 6.667969 11.992188 C 6.851562 9.617188 16.59375 5.332031 30.421875 5.332031 Z M 60.113281 34.878906 C 59.828125 33.351562 58.070312 31.734375 54.488281 29.683594 L 56.765625 12.757812 L 56.765625 12.75 L 56.832031 12.234375 C 56.839844 12.175781 56.84375 12.117188 56.84375 12.058594 C 56.84375 6.523438 42.921875 2.667969 30.421875 2.667969 C 17.925781 2.667969 4 6.523438 4 12.058594 C 4 12.117188 4.003906 12.175781 4.011719 12.234375 L 4.078125 12.75 L 4.078125 12.757812 L 9.695312 54.464844 C 9.871094 59.347656 22.464844 61.171875 30.421875 61.171875 C 34.820312 61.171875 39.230469 60.714844 42.84375 59.878906 C 44.300781 59.542969 45.605469 59.148438 46.726562 58.707031 C 49.605469 57.566406 51.09375 56.140625 51.152344 54.464844 L 53.460938 37.304688 C 54.722656 37.570312 55.871094 37.734375 56.824219 37.734375 C 58.109375 37.734375 59.074219 37.460938 59.597656 36.839844 C 60.058594 36.285156 60.242188 35.589844 60.113281 34.878906 Z M 16.871094 35.238281 L 20.332031 29.46875 L 23.792969 35.238281 Z M 27.3125 37.230469 C 27.546875 36.8125 27.542969 36.296875 27.292969 35.886719 L 21.476562 26.191406 C 20.996094 25.390625 19.671875 25.390625 19.1875 26.191406 L 13.375 35.886719 C 13.125 36.300781 13.117188 36.8125 13.355469 37.230469 C 13.59375 37.648438 14.035156 37.90625 14.515625 37.90625 L 26.152344 37.90625 C 26.628906 37.90625 27.074219 37.648438 27.3125 37.230469 Z M 39.527344 39.070312 C 41.679688 39.070312 43.429688 40.832031 43.429688 43.003906 C 43.429688 45.171875 41.679688 46.9375 39.527344 46.9375 C 37.378906 46.9375 35.625 45.171875 35.625 43.003906 C 35.625 40.832031 37.378906 39.070312 39.527344 39.070312 Z M 39.527344 49.601562 C 43.148438 49.601562 46.097656 46.644531 46.097656 43.003906 C 46.097656 39.363281 43.148438 36.402344 39.527344 36.402344 C 35.90625 36.402344 32.960938 39.363281 32.960938 43.003906 C 32.960938 46.644531 35.90625 49.601562 39.527344 49.601562 Z M 19.464844 51.527344 L 25.996094 51.527344 L 25.996094 44.886719 L 19.464844 44.886719 Z M 27.328125 42.21875 L 18.128906 42.21875 C 17.394531 42.21875 16.796875 42.816406 16.796875 43.554688 L 16.796875 52.859375 C 16.796875 53.597656 17.394531 54.191406 18.128906 54.191406 L 27.328125 54.191406 C 28.0625 54.191406 28.660156 53.597656 28.660156 52.859375 L 28.660156 43.554688 C 28.660156 42.816406 28.0625 42.21875 27.328125 42.21875 Z M 27.328125 42.21875 "/>
</svg>
