<?xml version="1.0" encoding="UTF-8"?>
<svg xmlns="http://www.w3.org/2000/svg" xmlns:xlink="http://www.w3.org/1999/xlink" width="64" height="64" viewBox="0 0 64 64">
<path fill-rule="evenodd" fill="rgb(47.843137%, 63.137257%, 8.627451%)" fill-opacity="1" d="M 20 45.332031 L 17.332031 45.332031 C 15.128906 45.332031 13.332031 43.539062 13.332031 41.332031 L 10.667969 41.332031 C 10.667969 45.007812 13.65625 48 17.332031 48 L 20 48 C 23.675781 48 26.667969 45.007812 26.667969 41.332031 C 26.667969 37.65625 23.675781 34.667969 20 34.667969 L 20 37.332031 C 22.207031 37.332031 24 39.128906 24 41.332031 C 24 43.539062 22.207031 45.332031 20 45.332031 Z M 9.332031 37.332031 L 12 37.332031 C 14.207031 37.332031 16 39.128906 16 41.332031 L 18.667969 41.332031 C 18.667969 37.65625 15.675781 34.667969 12 34.667969 L 9.332031 34.667969 C 5.65625 34.667969 2.667969 37.65625 2.667969 41.332031 C 2.667969 45.007812 5.65625 48 9.332031 48 L 9.332031 45.332031 C 7.128906 45.332031 5.332031 43.539062 5.332031 41.332031 C 5.332031 39.128906 7.128906 37.332031 9.332031 37.332031 Z M 13.332031 24 L 34.667969 24 L 29.867188 27.601562 L 31.464844 29.734375 L 39.464844 23.734375 C 39.800781 23.480469 40 23.085938 40 22.667969 C 40 22.246094 39.800781 21.851562 39.464844 21.601562 L 31.464844 15.601562 L 29.867188 17.734375 L 34.667969 21.332031 L 12 21.332031 C 11.261719 21.332031 10.667969 21.929688 10.667969 22.667969 L 10.667969 32 L 13.332031 32 Z M 48 58.667969 L 13.332031 58.667969 L 13.332031 50.785156 L 10.667969 50.785156 L 10.667969 60 C 10.667969 60.734375 11.261719 61.332031 12 61.332031 L 49.332031 61.332031 C 50.070312 61.332031 50.667969 60.734375 50.667969 60 L 50.667969 45.332031 L 48 45.332031 Z M 61.332031 4 L 61.332031 41.332031 C 61.332031 42.070312 60.738281 42.667969 60 42.667969 L 38.667969 42.667969 L 43.464844 46.265625 L 41.867188 48.398438 L 33.867188 42.398438 C 33.53125 42.148438 33.332031 41.753906 33.332031 41.332031 C 33.332031 40.914062 33.53125 40.519531 33.867188 40.265625 L 41.867188 34.265625 L 43.464844 36.398438 L 38.667969 40 L 58.667969 40 L 58.667969 5.332031 L 24 5.332031 L 24 18.667969 L 21.332031 18.667969 L 21.332031 4 C 21.332031 3.265625 21.929688 2.667969 22.667969 2.667969 L 60 2.667969 C 60.738281 2.667969 61.332031 3.265625 61.332031 4 Z M 61.332031 4 "/>
</svg>
