<?xml version="1.0" encoding="UTF-8"?>
<svg xmlns="http://www.w3.org/2000/svg" xmlns:xlink="http://www.w3.org/1999/xlink" width="64" height="64" viewBox="0 0 64 64">
<path fill-rule="evenodd" fill="rgb(47.843137%, 63.137257%, 8.627451%)" fill-opacity="1" d="M 32 38.710938 C 32 39.695312 31.460938 40.542969 30.667969 41.007812 L 30.667969 46.710938 L 28 46.710938 L 28 41.007812 C 27.207031 40.542969 26.667969 39.695312 26.667969 38.710938 C 26.667969 37.242188 27.863281 36.042969 29.332031 36.042969 C 30.804688 36.042969 32 37.242188 32 38.710938 Z M 17.332031 50.710938 L 41.332031 50.710938 L 41.332031 30.710938 L 17.332031 30.710938 Z M 49.332031 57.378906 L 9.332031 57.378906 L 9.332031 53.378906 L 49.332031 53.378906 Z M 36 28.042969 L 22.667969 28.042969 L 22.667969 21.558594 C 22.667969 19.019531 23.988281 17.378906 26.039062 17.378906 L 32.628906 17.378906 C 34.675781 17.378906 36 19.019531 36 21.558594 Z M 14.199219 38.671875 C 9.523438 38.667969 5.585938 35.15625 5.234375 30.679688 C 5.210938 30.378906 5.199219 30.074219 5.199219 29.757812 C 5.199219 23.785156 9.332031 21.792969 11.84375 21.132812 C 12.457031 21.007812 12.914062 20.464844 12.914062 19.824219 C 12.914062 19.757812 12.90625 19.695312 12.898438 19.632812 C 12.839844 19.105469 12.804688 18.574219 12.804688 18.050781 C 12.804688 13.203125 16.152344 7.988281 20.425781 6.179688 C 27.824219 3.046875 33.070312 7.164062 34.980469 9.082031 C 36.542969 10.648438 37.757812 12.652344 38.601562 15.03125 C 38.765625 15.496094 39.175781 15.832031 39.664062 15.90625 C 40.144531 15.976562 40.636719 15.777344 40.929688 15.378906 C 42.097656 13.796875 44 13.109375 45.761719 13.625 C 47.902344 14.25 49.316406 16.433594 49.558594 19.480469 C 49.472656 20.183594 49.953125 20.835938 50.65625 20.957031 C 53.066406 21.371094 58.667969 23.066406 58.667969 29.84375 C 58.667969 37.910156 50.847656 38.6875 50.628906 38.710938 L 44 38.703125 L 44 30.347656 C 44 29.078125 42.964844 28.042969 41.695312 28.042969 L 38.667969 28.042969 L 38.667969 21.558594 C 38.667969 17.527344 36.183594 14.710938 32.628906 14.710938 L 26.039062 14.710938 C 22.480469 14.710938 20 17.527344 20 21.558594 L 20 28.042969 L 16.96875 28.042969 C 15.699219 28.042969 14.667969 29.078125 14.667969 30.347656 L 14.667969 38.671875 Z M 50.738281 41.375 C 54.402344 41.074219 61.332031 38.285156 61.332031 29.84375 C 61.332031 23.148438 56.757812 19.679688 52.140625 18.542969 C 51.632812 14.726562 49.570312 11.960938 46.511719 11.066406 C 44.359375 10.4375 42.101562 10.894531 40.335938 12.226562 C 39.429688 10.289062 38.269531 8.605469 36.871094 7.199219 C 32.09375 2.410156 25.558594 1.113281 19.386719 3.722656 C 14.117188 5.957031 10.140625 12.117188 10.140625 18.050781 C 10.140625 18.320312 10.144531 18.589844 10.160156 18.859375 C 7.242188 19.875 2.53125 22.625 2.53125 29.757812 C 2.53125 30.144531 2.546875 30.523438 2.578125 30.886719 C 3.035156 36.742188 8.136719 41.332031 14.199219 41.339844 L 14.667969 41.339844 L 14.667969 50.710938 L 8 50.710938 C 7.261719 50.710938 6.667969 51.308594 6.667969 52.042969 L 6.667969 58.710938 C 6.667969 59.449219 7.261719 60.042969 8 60.042969 L 50.667969 60.042969 C 51.402344 60.042969 52 59.449219 52 58.710938 L 52 52.042969 C 52 51.308594 51.402344 50.710938 50.667969 50.710938 L 44 50.710938 L 44 41.371094 Z M 50.738281 41.375 "/>
</svg>
