<?xml version="1.0" encoding="UTF-8"?>
<svg xmlns="http://www.w3.org/2000/svg" xmlns:xlink="http://www.w3.org/1999/xlink" width="64" height="64" viewBox="0 0 64 64">
<path fill-rule="evenodd" fill="rgb(47.843137%, 63.137257%, 8.627451%)" fill-opacity="1" d="M 58.667969 25.332031 C 58.667969 23.863281 57.46875 22.667969 56 22.667969 C 54.53125 22.667969 53.332031 23.863281 53.332031 25.332031 C 53.332031 26.804688 54.53125 28 56 28 C 57.46875 28 58.667969 26.804688 58.667969 25.332031 Z M 53.226562 29.867188 C 51.699219 28.929688 50.667969 27.253906 50.667969 25.332031 C 50.667969 24.648438 50.808594 24 51.042969 23.398438 L 35.382812 12.089844 C 34.460938 12.855469 33.289062 13.332031 32 13.332031 C 30.710938 13.332031 29.539062 12.855469 28.617188 12.089844 L 12.957031 23.398438 C 13.191406 24 13.332031 24.648438 13.332031 25.332031 C 13.332031 27.253906 12.300781 28.929688 10.773438 29.867188 L 17.113281 50.6875 C 17.1875 50.683594 17.257812 50.667969 17.332031 50.667969 C 19.8125 50.667969 21.882812 52.375 22.476562 54.667969 L 41.523438 54.667969 C 42.117188 52.375 44.1875 50.667969 46.667969 50.667969 C 46.742188 50.667969 46.8125 50.683594 46.886719 50.6875 Z M 49.332031 56 C 49.332031 54.53125 48.136719 53.332031 46.667969 53.332031 C 45.195312 53.332031 44 54.53125 44 56 C 44 57.46875 45.195312 58.667969 46.667969 58.667969 C 48.136719 58.667969 49.332031 57.46875 49.332031 56 Z M 20 56 C 20 54.53125 18.804688 53.332031 17.332031 53.332031 C 15.863281 53.332031 14.667969 54.53125 14.667969 56 C 14.667969 57.46875 15.863281 58.667969 17.332031 58.667969 C 18.804688 58.667969 20 57.46875 20 56 Z M 8 28 C 9.46875 28 10.667969 26.804688 10.667969 25.332031 C 10.667969 23.863281 9.46875 22.667969 8 22.667969 C 6.53125 22.667969 5.332031 23.863281 5.332031 25.332031 C 5.332031 26.804688 6.53125 28 8 28 Z M 29.332031 8 C 29.332031 9.46875 30.53125 10.667969 32 10.667969 C 33.46875 10.667969 34.667969 9.46875 34.667969 8 C 34.667969 6.53125 33.46875 5.332031 32 5.332031 C 30.53125 5.332031 29.332031 6.53125 29.332031 8 Z M 61.332031 25.332031 C 61.332031 28.273438 58.941406 30.667969 56 30.667969 C 55.925781 30.667969 55.851562 30.648438 55.777344 30.644531 L 49.441406 51.464844 C 50.96875 52.40625 52 54.078125 52 56 C 52 58.941406 49.609375 61.332031 46.667969 61.332031 C 44.1875 61.332031 42.117188 59.625 41.523438 57.332031 L 22.476562 57.332031 C 21.882812 59.625 19.8125 61.332031 17.332031 61.332031 C 14.390625 61.332031 12 58.941406 12 56 C 12 54.078125 13.03125 52.40625 14.558594 51.464844 L 8.222656 30.644531 C 8.148438 30.648438 8.074219 30.667969 8 30.667969 C 5.058594 30.667969 2.667969 28.273438 2.667969 25.332031 C 2.667969 22.390625 5.058594 20 8 20 C 9.289062 20 10.460938 20.480469 11.382812 21.246094 L 27.042969 9.933594 C 26.808594 9.332031 26.667969 8.683594 26.667969 8 C 26.667969 5.058594 29.058594 2.667969 32 2.667969 C 34.941406 2.667969 37.332031 5.058594 37.332031 8 C 37.332031 8.683594 37.191406 9.332031 36.957031 9.933594 L 52.617188 21.246094 C 53.539062 20.480469 54.710938 20 56 20 C 58.941406 20 61.332031 22.390625 61.332031 25.332031 Z M 46.667969 34.667969 C 46.667969 42.753906 40.085938 49.332031 32 49.332031 C 23.914062 49.332031 17.332031 42.753906 17.332031 34.667969 L 22.617188 34.667969 L 25.023438 31.023438 C 25.285156 30.632812 25.722656 30.402344 26.203125 30.429688 C 26.675781 30.453125 27.097656 30.722656 27.316406 31.140625 L 30.289062 36.808594 L 33.457031 28.839844 C 33.652344 28.351562 34.113281 28.023438 34.640625 28 C 35.160156 27.984375 35.65625 28.269531 35.890625 28.742188 L 38.828125 34.667969 L 41.332031 34.667969 L 41.332031 37.332031 L 38 37.332031 C 37.492188 37.332031 37.03125 37.046875 36.804688 36.59375 L 34.828125 32.605469 L 31.699219 40.492188 C 31.503906 40.976562 31.046875 41.304688 30.527344 41.332031 C 30.503906 41.332031 30.480469 41.332031 30.457031 41.332031 C 29.964844 41.332031 29.507812 41.058594 29.277344 40.617188 L 26.003906 34.378906 L 24.445312 36.734375 C 24.199219 37.109375 23.78125 37.332031 23.332031 37.332031 L 20.308594 37.332031 C 21.527344 42.667969 26.300781 46.667969 32 46.667969 C 38.617188 46.667969 44 41.28125 44 34.667969 C 44 28.050781 38.617188 22.667969 32 22.667969 C 28.566406 22.667969 25.34375 24.167969 23.09375 26.667969 L 25.332031 26.667969 L 25.332031 29.332031 L 20 29.332031 C 19.261719 29.332031 18.667969 28.734375 18.667969 28 L 18.667969 22.667969 L 21.332031 22.667969 L 21.332031 24.636719 C 24.074219 21.730469 27.917969 20 32 20 C 40.085938 20 46.667969 26.578125 46.667969 34.667969 Z M 46.667969 34.667969 "/>
</svg>
