<?xml version="1.0" encoding="UTF-8"?>
<svg xmlns="http://www.w3.org/2000/svg" xmlns:xlink="http://www.w3.org/1999/xlink" width="64" height="64" viewBox="0 0 64 64">
<path fill-rule="evenodd" fill="rgb(47.843137%, 63.137257%, 8.627451%)" fill-opacity="1" d="M 55.734375 46.066406 C 54.925781 46.066406 54.265625 45.410156 54.265625 44.601562 C 54.265625 43.792969 54.925781 43.132812 55.734375 43.132812 C 56.542969 43.132812 57.199219 43.792969 57.199219 44.601562 C 57.199219 45.410156 56.542969 46.066406 55.734375 46.066406 Z M 55.734375 40.464844 C 53.453125 40.464844 51.601562 42.320312 51.601562 44.601562 C 51.601562 45.757812 52.082031 46.804688 52.855469 47.558594 C 48.140625 54.53125 40.414062 58.667969 31.933594 58.667969 C 25.082031 58.667969 18.664062 55.96875 13.871094 51.066406 L 11.964844 52.933594 C 17.265625 58.347656 24.355469 61.332031 31.933594 61.332031 C 41.453125 61.332031 50.113281 56.617188 55.296875 48.6875 C 55.445312 48.703125 55.582031 48.734375 55.734375 48.734375 C 58.011719 48.734375 59.867188 46.878906 59.867188 44.601562 C 59.867188 42.320312 58.011719 40.464844 55.734375 40.464844 Z M 8.132812 46.066406 C 7.324219 46.066406 6.667969 45.410156 6.667969 44.601562 C 6.667969 43.792969 7.324219 43.132812 8.132812 43.132812 C 8.941406 43.132812 9.601562 43.792969 9.601562 44.601562 C 9.601562 45.410156 8.941406 46.066406 8.132812 46.066406 Z M 8.132812 40.464844 C 7.988281 40.464844 7.847656 40.496094 7.703125 40.511719 C 7.027344 38.210938 6.667969 35.828125 6.667969 33.398438 C 6.667969 22.917969 13.257812 13.40625 23.066406 9.734375 L 22.132812 7.234375 C 11.285156 11.300781 4 21.8125 4 33.398438 C 4 36.214844 4.441406 38.976562 5.261719 41.636719 C 4.488281 42.390625 4 43.4375 4 44.601562 C 4 46.878906 5.855469 48.734375 8.132812 48.734375 C 10.414062 48.734375 12.265625 46.878906 12.265625 44.601562 C 12.265625 42.320312 10.414062 40.464844 8.132812 40.464844 Z M 31.933594 5.332031 C 32.742188 5.332031 33.398438 5.992188 33.398438 6.800781 C 33.398438 7.609375 32.742188 8.265625 31.933594 8.265625 C 31.125 8.265625 30.46875 7.609375 30.46875 6.800781 C 30.46875 5.992188 31.125 5.332031 31.933594 5.332031 Z M 31.933594 10.933594 C 33.628906 10.933594 35.085938 9.90625 35.722656 8.445312 C 48.042969 10.285156 57.199219 20.792969 57.199219 33.398438 C 57.199219 34.222656 57.160156 35.054688 57.082031 35.871094 L 59.734375 36.128906 C 59.824219 35.226562 59.867188 34.308594 59.867188 33.398438 C 59.867188 19.394531 49.648438 7.738281 35.921875 5.78125 C 35.464844 3.996094 33.859375 2.667969 31.933594 2.667969 C 29.65625 2.667969 27.800781 4.519531 27.800781 6.800781 C 27.800781 9.078125 29.65625 10.933594 31.933594 10.933594 Z M 43.933594 21.527344 L 43.933594 45.273438 C 43.933594 46.273438 42.003906 47.679688 37.769531 48.398438 C 37.710938 48.410156 37.636719 48.417969 37.554688 48.429688 C 36.3125 48.59375 32.453125 48.855469 31.960938 48.863281 C 29.960938 48.742188 26.789062 48.515625 26.097656 48.398438 C 21.863281 47.679688 19.933594 46.273438 19.933594 45.273438 L 19.933594 21.527344 C 19.933594 20.238281 23.945312 17.933594 31.933594 17.933594 C 39.921875 17.933594 43.933594 20.238281 43.933594 21.527344 Z M 17.265625 21.527344 L 17.265625 45.273438 C 17.265625 48.023438 20.324219 50.125 25.652344 51.027344 C 26.75 51.214844 31.355469 51.53125 31.933594 51.53125 C 32.511719 51.53125 37.117188 51.214844 38.214844 51.027344 C 43.542969 50.125 46.601562 48.023438 46.601562 45.273438 L 46.601562 21.527344 C 46.601562 17.839844 40.570312 15.265625 31.933594 15.265625 C 23.296875 15.265625 17.265625 17.839844 17.265625 21.527344 Z M 31.054688 32.554688 C 31.28125 32.320312 31.585938 32.1875 31.910156 32.183594 C 31.917969 32.183594 31.925781 32.183594 31.933594 32.183594 C 32.25 32.183594 32.550781 32.300781 32.777344 32.523438 C 33.011719 32.746094 33.144531 33.050781 33.152344 33.375 C 33.15625 33.699219 33.035156 34.007812 32.8125 34.242188 C 32.585938 34.476562 32.28125 34.613281 31.957031 34.617188 C 31.65625 34.667969 31.324219 34.503906 31.089844 34.277344 C 30.855469 34.054688 30.722656 33.75 30.714844 33.425781 C 30.710938 33.097656 30.832031 32.789062 31.054688 32.554688 Z M 28.050781 33.476562 C 28.070312 34.511719 28.492188 35.480469 29.242188 36.199219 C 29.992188 36.921875 30.964844 37.28125 31.933594 37.28125 C 32.953125 37.28125 33.972656 36.882812 34.734375 36.089844 C 35.453125 35.34375 35.835938 34.359375 35.816406 33.324219 C 35.796875 32.285156 35.375 31.320312 34.625 30.601562 C 33.082031 29.117188 30.617188 29.164062 29.132812 30.707031 C 28.414062 31.457031 28.03125 32.4375 28.050781 33.476562 Z M 32.652344 28.671875 C 33.023438 28.671875 33.375 28.515625 33.625 28.242188 L 34.972656 26.78125 L 37.257812 28.441406 L 36.269531 30.195312 C 36.089844 30.519531 36.050781 30.902344 36.164062 31.253906 L 36.582031 32.566406 C 36.695312 32.925781 36.953125 33.21875 37.296875 33.375 L 39.128906 34.214844 L 38.253906 36.902344 L 36.273438 36.503906 C 35.90625 36.429688 35.523438 36.511719 35.222656 36.734375 L 34.109375 37.550781 C 33.808594 37.769531 33.613281 38.101562 33.570312 38.472656 L 33.339844 40.464844 L 30.515625 40.460938 L 30.285156 38.484375 C 30.242188 38.121094 30.050781 37.789062 29.753906 37.566406 L 28.625 36.734375 C 28.320312 36.511719 27.9375 36.421875 27.570312 36.5 L 25.609375 36.890625 L 24.738281 34.203125 L 26.578125 33.359375 C 26.917969 33.203125 27.175781 32.914062 27.292969 32.5625 L 27.714844 31.261719 C 27.828125 30.90625 27.792969 30.519531 27.609375 30.195312 L 26.617188 28.433594 L 28.90625 26.777344 L 30.261719 28.25 C 30.515625 28.527344 30.828125 28.671875 31.25 28.679688 Z M 30.0625 24.097656 C 29.605469 23.597656 28.84375 23.523438 28.300781 23.921875 L 24.09375 26.972656 C 23.542969 27.371094 23.382812 28.113281 23.710938 28.703125 L 24.996094 30.992188 L 24.9375 31.179688 L 22.546875 32.273438 C 21.933594 32.558594 21.628906 33.253906 21.835938 33.898438 L 23.4375 38.84375 C 23.644531 39.484375 24.300781 39.867188 24.96875 39.738281 L 27.515625 39.230469 L 27.703125 39.367188 L 28.003906 41.949219 C 28.082031 42.621094 28.652344 43.128906 29.324219 43.128906 L 34.523438 43.132812 C 35.199219 43.132812 35.769531 42.625 35.847656 41.957031 L 36.152344 39.359375 L 36.324219 39.234375 L 38.894531 39.75 C 39.546875 39.882812 40.210938 39.496094 40.421875 38.855469 L 42.03125 33.910156 C 42.242188 33.269531 41.933594 32.570312 41.320312 32.289062 L 38.941406 31.195312 L 38.878906 31 L 40.164062 28.714844 C 40.492188 28.125 40.332031 27.382812 39.785156 26.984375 L 35.582031 23.925781 C 35.035156 23.527344 34.277344 23.601562 33.816406 24.101562 L 32.058594 26.007812 L 31.824219 26.011719 Z M 30.0625 24.097656 "/>
</svg>
