<?xml version="1.0" encoding="UTF-8"?>
<svg xmlns="http://www.w3.org/2000/svg" xmlns:xlink="http://www.w3.org/1999/xlink" width="64" height="64" viewBox="0 0 64 64">
<path fill-rule="nonzero" fill="rgb(47.843137%, 63.137255%, 8.627451%)" fill-opacity="1" d="M 36.667969 47 C 35.378906 47 34.332031 45.953125 34.332031 44.667969 C 34.332031 43.378906 35.378906 42.332031 36.667969 42.332031 C 37.953125 42.332031 39 43.378906 39 44.667969 C 39 45.953125 37.953125 47 36.667969 47 Z M 57.667969 48.667969 C 57.667969 47.378906 56.621094 46.332031 55.332031 46.332031 C 54.046875 46.332031 53 47.378906 53 48.667969 C 53 49.953125 54.046875 51 55.332031 51 C 56.621094 51 57.667969 49.953125 57.667969 48.667969 Z M 46 57 C 44.714844 57 43.667969 58.046875 43.667969 59.332031 C 43.667969 60.621094 44.714844 61.667969 46 61.667969 C 47.285156 61.667969 48.332031 60.621094 48.332031 59.332031 C 48.332031 58.046875 47.285156 57 46 57 Z M 59.441406 36.898438 C 58.917969 37.523438 57.949219 37.796875 56.660156 37.796875 C 51.183594 37.796875 39.886719 32.898438 31.769531 29.003906 C 31.308594 29.332031 30.753906 29.53125 30.148438 29.53125 C 28.605469 29.53125 27.351562 28.277344 27.351562 26.738281 C 27.351562 25.195312 28.605469 23.941406 30.148438 23.941406 C 31.640625 23.941406 32.851562 25.125 32.925781 26.597656 C 39.371094 29.664062 46.183594 32.484375 51.035156 34.039062 L 51.539062 30.285156 C 51.539062 30.28125 51.539062 30.28125 51.539062 30.28125 L 53.421875 16.304688 C 48.597656 19.113281 39.140625 20.566406 30.144531 20.566406 C 21.152344 20.566406 11.699219 19.113281 6.871094 16.304688 L 11.992188 54.320312 C 12 54.378906 12.003906 54.4375 12.003906 54.496094 C 12.003906 55.601562 17.203125 58.042969 26.742188 58.574219 C 27.871094 58.636719 29.015625 58.667969 30.144531 58.667969 L 30.144531 61.332031 C 28.964844 61.332031 27.769531 61.300781 26.59375 61.234375 C 18.695312 60.796875 9.484375 58.796875 9.335938 54.601562 L 3.699219 12.714844 C 3.699219 12.714844 3.699219 12.714844 3.699219 12.710938 L 3.628906 12.195312 C 3.621094 12.132812 3.617188 12.078125 3.617188 12.015625 C 3.617188 6.460938 17.597656 2.589844 30.144531 2.589844 C 42.695312 2.589844 56.675781 6.460938 56.675781 12.015625 C 56.675781 12.074219 56.671875 12.132812 56.664062 12.191406 L 56.597656 12.707031 C 56.597656 12.707031 56.597656 12.710938 56.597656 12.707031 C 56.597656 12.710938 56.597656 12.710938 56.597656 12.714844 L 54.304688 29.71875 C 57.90625 31.777344 59.671875 33.398438 59.957031 34.933594 C 60.089844 35.644531 59.90625 36.34375 59.441406 36.898438 Z M 53.96875 12.226562 L 54.007812 11.949219 C 53.824219 9.5625 44.039062 5.257812 30.144531 5.257812 C 16.257812 5.257812 6.472656 9.558594 6.285156 11.949219 L 6.324219 12.226562 C 7.011719 14.605469 16.355469 17.898438 30.144531 17.898438 C 43.9375 17.898438 53.285156 14.605469 53.96875 12.226562 Z M 57.246094 35.222656 C 57.035156 34.867188 56.300781 34.03125 53.921875 32.582031 L 53.621094 34.800781 C 55.34375 35.242188 56.617188 35.410156 57.246094 35.222656 Z M 48 38.667969 L 45.332031 38.667969 L 45.332031 50.769531 L 33.960938 57.519531 L 35.324219 59.8125 L 46.667969 53.078125 L 58.011719 59.8125 L 59.371094 57.519531 L 48 50.769531 Z M 48 38.667969 "/>
</svg>
