<?xml version="1.0" encoding="UTF-8"?>
<svg xmlns="http://www.w3.org/2000/svg" xmlns:xlink="http://www.w3.org/1999/xlink" width="64" height="64" viewBox="0 0 64 64">
<path fill-rule="nonzero" fill="rgb(47.843137%, 63.137255%, 8.627451%)" fill-opacity="1" d="M 10.375 50.203125 C 9.433594 42.683594 7.054688 24.429688 5.929688 15.8125 C 10.515625 18.574219 19.292969 20 28 20 C 36.707031 20 45.484375 18.574219 50.070312 15.8125 C 49.554688 19.757812 48.777344 25.722656 47.996094 31.753906 C 43.832031 30.742188 37.730469 28.457031 31.476562 25.445312 C 31.484375 25.351562 31.503906 25.261719 31.503906 25.167969 C 31.503906 23.515625 30.160156 22.167969 28.503906 22.167969 C 26.851562 22.167969 25.503906 23.515625 25.503906 25.167969 C 25.503906 26.824219 26.851562 28.167969 28.503906 28.167969 C 29.074219 28.167969 29.597656 28 30.050781 27.726562 C 34.464844 29.867188 41.871094 33.191406 47.652344 34.402344 C 47.613281 34.710938 47.570312 35.023438 47.53125 35.335938 C 48.25 35.8125 48.8125 36.507812 49.105469 37.332031 L 49.960938 37.332031 C 50.070312 36.5 50.179688 35.65625 50.289062 34.804688 C 50.699219 34.839844 51.089844 34.859375 51.46875 34.859375 C 53.480469 34.859375 54.992188 34.332031 55.644531 33.019531 C 56.78125 30.734375 55.328125 28.53125 51.371094 26.460938 C 52.421875 18.390625 53.304688 11.644531 53.320312 11.507812 L 53.308594 11.503906 C 53.3125 11.445312 53.332031 11.390625 53.332031 11.332031 C 53.332031 5.644531 40.589844 2.667969 28 2.667969 C 15.410156 2.667969 2.667969 5.644531 2.667969 11.332031 C 2.667969 11.390625 2.6875 11.445312 2.691406 11.503906 L 2.679688 11.507812 C 2.714844 11.796875 6.480469 40.582031 7.730469 50.535156 C 8.34375 55.4375 18.394531 58 28 58 C 28.074219 58 28.148438 57.996094 28.222656 57.996094 L 27.152344 55.320312 C 16.742188 55.164062 10.632812 52.246094 10.375 50.203125 Z M 53.257812 31.832031 C 53.019531 32.316406 52.066406 32.433594 50.617188 32.257812 C 50.746094 31.269531 50.875 30.277344 51.003906 29.296875 C 52.71875 30.308594 53.558594 31.226562 53.257812 31.832031 Z M 28 5.332031 C 41.78125 5.332031 50.585938 8.855469 50.660156 11.300781 C 50.65625 11.34375 50.648438 11.398438 50.640625 11.457031 C 50.351562 13.898438 41.609375 17.332031 28 17.332031 C 14.390625 17.332031 5.648438 13.898438 5.359375 11.457031 C 5.351562 11.398438 5.34375 11.34375 5.339844 11.300781 C 5.414062 8.855469 14.21875 5.332031 28 5.332031 Z M 58.667969 40 L 46.667969 40 C 46.667969 38.53125 45.46875 37.332031 44 37.332031 L 40 37.332031 C 38.53125 37.332031 37.332031 38.53125 37.332031 40 L 34.667969 40 C 33.195312 40 32 41.195312 32 42.667969 L 32 45.332031 L 28 45.332031 C 27.558594 45.332031 27.144531 45.550781 26.894531 45.917969 C 26.648438 46.285156 26.597656 46.75 26.761719 47.164062 L 32.09375 60.496094 C 32.296875 61 32.789062 61.332031 33.332031 61.332031 L 60 61.332031 C 60 61.332031 60.003906 61.332031 60.003906 61.332031 C 60.085938 61.332031 60.167969 61.324219 60.253906 61.308594 C 60.261719 61.308594 60.269531 61.300781 60.28125 61.296875 C 60.414062 61.269531 60.542969 61.222656 60.660156 61.152344 C 60.6875 61.136719 60.710938 61.117188 60.738281 61.097656 C 60.824219 61.039062 60.902344 60.972656 60.976562 60.894531 C 61.003906 60.863281 61.027344 60.835938 61.054688 60.804688 C 61.070312 60.785156 61.089844 60.769531 61.105469 60.746094 C 61.164062 60.660156 61.210938 60.566406 61.246094 60.46875 C 61.25 60.460938 61.25 60.457031 61.253906 60.449219 C 61.300781 60.320312 61.320312 60.1875 61.324219 60.050781 C 61.324219 60.035156 61.332031 60.019531 61.332031 60 L 61.332031 42.667969 C 61.332031 41.195312 60.136719 40 58.667969 40 Z M 34.234375 58.667969 L 29.96875 48 L 53.765625 48 L 58.03125 58.667969 Z M 58.667969 53.074219 L 55.90625 46.171875 C 55.703125 45.664062 55.210938 45.332031 54.667969 45.332031 L 34.667969 45.332031 L 34.667969 42.667969 L 38.667969 42.667969 C 39.402344 42.667969 40 42.070312 40 41.332031 L 40 40 L 44 40 L 44 41.332031 C 44 42.070312 44.597656 42.667969 45.332031 42.667969 L 58.667969 42.664062 Z M 58.667969 53.074219 "/>
</svg>
