<?xml version="1.0" encoding="UTF-8"?>
<svg xmlns="http://www.w3.org/2000/svg" xmlns:xlink="http://www.w3.org/1999/xlink" width="64" height="64" viewBox="0 0 64 64">
<path fill-rule="evenodd" fill="rgb(47.843137%, 63.137257%, 8.627451%)" fill-opacity="1" d="M 56.710938 38.433594 L 60.929688 32.335938 L 58.753906 32.335938 L 55.472656 37.195312 L 54.53125 38.546875 L 58.980469 45.152344 L 59.039062 45.242188 L 61.324219 45.242188 Z M 49.660156 45.242188 L 51.859375 45.242188 L 54.84375 40.722656 L 53.832031 39.246094 Z M 54.953125 36.253906 L 52.367188 32.425781 L 52.308594 32.335938 L 50.042969 32.335938 L 53.804688 37.835938 Z M 46.382812 36.964844 L 44.113281 36.0625 C 43.378906 35.777344 42.816406 35.507812 42.429688 35.261719 C 42.0625 35.027344 41.800781 34.769531 41.648438 34.496094 C 41.492188 34.222656 41.414062 33.851562 41.414062 33.382812 C 41.414062 32.546875 41.671875 31.925781 42.191406 31.484375 C 43.28125 30.5625 45.539062 30.585938 48.273438 31.585938 L 48.628906 31.71875 L 48.628906 30.042969 L 48.476562 29.972656 C 47.851562 29.6875 47.183594 29.460938 46.480469 29.304688 C 45.78125 29.148438 45.101562 29.066406 44.457031 29.066406 C 43.023438 29.066406 41.847656 29.46875 40.960938 30.269531 C 40.0625 31.074219 39.609375 32.136719 39.609375 33.429688 C 39.609375 34.382812 39.886719 35.199219 40.433594 35.855469 C 40.972656 36.496094 41.8125 37.050781 42.9375 37.503906 L 45.402344 38.496094 C 46.207031 38.816406 46.792969 39.175781 47.148438 39.570312 C 47.488281 39.949219 47.652344 40.394531 47.652344 40.933594 C 47.652344 41.839844 47.339844 42.535156 46.699219 43.058594 C 45.339844 44.167969 42.824219 44.078125 40.054688 43.039062 L 39.691406 42.902344 L 39.691406 44.574219 L 39.839844 44.648438 C 41.101562 45.28125 42.558594 45.601562 44.164062 45.601562 C 45.734375 45.601562 47.023438 45.171875 48 44.324219 C 48.980469 43.46875 49.480469 42.335938 49.480469 40.953125 C 49.480469 40 49.226562 39.191406 48.722656 38.554688 C 48.230469 37.929688 47.445312 37.390625 46.382812 36.964844 Z M 30.441406 45.226562 L 32.226562 45.226562 L 32.226562 38.140625 L 38.148438 38.140625 L 38.148438 36.441406 L 32.226562 36.441406 L 32.226562 31.140625 L 39.230469 31.140625 L 39.230469 29.441406 L 30.441406 29.441406 Z M 40 26.667969 L 42.667969 26.667969 L 42.667969 9.429688 C 42.667969 8.980469 42.414062 8.566406 42.015625 8.359375 L 41.605469 8.148438 C 36.863281 5.707031 30.707031 2.667969 22.667969 2.667969 C 14.007812 2.667969 8.410156 5.375 3.261719 8.390625 C 2.894531 8.609375 2.667969 9.003906 2.667969 9.429688 L 2.667969 61.332031 L 5.332031 61.332031 L 5.332031 10 C 10.160156 7.207031 14.917969 5.332031 22.667969 5.332031 C 29.996094 5.332031 35.316406 7.585938 40 10 Z M 49.332031 48 L 49.332031 60 C 49.332031 60.734375 48.734375 61.332031 48 61.332031 L 11.886719 61.332031 C 11.21875 61.332031 10.679688 60.796875 10.679688 60.128906 L 10.667969 34.667969 C 10.667969 33.933594 11.265625 33.332031 12 33.332031 L 22.667969 33.332031 C 22.96875 33.332031 23.328125 33.558594 23.460938 33.832031 L 24.589844 35.632812 C 24.695312 35.855469 24.925781 36 25.171875 36 L 28 36 L 28 38.667969 L 24 38.667969 C 23.539062 38.667969 23.332031 38.667969 22.9375 37.613281 L 22.15625 36.382812 C 22.0625 36.152344 21.585938 36 21.332031 36 L 13.332031 36 L 13.332031 58.667969 L 46.667969 58.667969 L 46.667969 48 Z M 49.332031 48 "/>
</svg>
