<?xml version="1.0" encoding="UTF-8"?>
<svg xmlns="http://www.w3.org/2000/svg" xmlns:xlink="http://www.w3.org/1999/xlink" width="64" height="64" viewBox="0 0 64 64">
<path fill-rule="evenodd" fill="rgb(47.843137%, 63.137257%, 8.627451%)" fill-opacity="1" d="M 50 52.667969 C 50 53.257812 49.738281 53.78125 49.332031 54.148438 L 49.332031 56 L 46.667969 56 L 46.667969 54.148438 C 46.261719 53.78125 46 53.257812 46 52.667969 C 46 51.5625 46.894531 50.667969 48 50.667969 C 49.105469 50.667969 50 51.5625 50 52.667969 Z M 33.59375 37.742188 C 33.59375 39.578125 35.085938 41.074219 36.925781 41.074219 L 36.925781 43.742188 C 33.617188 43.742188 30.925781 41.050781 30.925781 37.742188 C 30.925781 34.433594 33.617188 31.742188 36.925781 31.742188 C 38.652344 31.742188 40.296875 32.488281 41.4375 33.785156 L 39.433594 35.546875 C 38.796875 34.824219 37.886719 34.410156 36.925781 34.410156 C 35.085938 34.410156 33.59375 35.902344 33.59375 37.742188 Z M 28.554688 5.332031 C 40.304688 5.332031 48.929688 9.105469 49.109375 11.128906 L 49.082031 11.335938 C 49.0625 11.40625 49.015625 11.476562 48.976562 11.550781 C 48.945312 11.605469 48.925781 11.65625 48.886719 11.710938 C 48.828125 11.785156 48.75 11.867188 48.671875 11.941406 C 48.621094 11.996094 48.578125 12.046875 48.519531 12.101562 C 48.445312 12.164062 48.347656 12.230469 48.265625 12.292969 C 48.164062 12.367188 48.078125 12.441406 47.960938 12.515625 C 47.9375 12.53125 47.902344 12.550781 47.875 12.566406 C 45.140625 14.265625 38.089844 16 28.554688 16 C 18.992188 16 11.925781 14.253906 9.214844 12.550781 C 9.195312 12.539062 9.171875 12.527344 9.152344 12.515625 C 9.03125 12.4375 8.933594 12.359375 8.832031 12.28125 C 8.753906 12.222656 8.664062 12.164062 8.597656 12.105469 C 8.53125 12.046875 8.484375 11.988281 8.429688 11.933594 C 8.359375 11.859375 8.28125 11.785156 8.226562 11.710938 C 8.183594 11.65625 8.164062 11.601562 8.132812 11.542969 C 8.09375 11.472656 8.050781 11.402344 8.03125 11.335938 L 8.003906 11.128906 C 8.1875 9.105469 16.808594 5.332031 28.554688 5.332031 Z M 52.167969 29.707031 C 52.210938 29.820312 52.21875 29.917969 52.140625 30.070312 C 52.125 30.101562 52.039062 30.160156 51.890625 30.207031 C 51.292969 30.40625 50.375 30.386719 49.234375 30.199219 L 49.585938 27.601562 C 50.683594 28.191406 51.917969 28.984375 52.167969 29.707031 Z M 28.554688 51.546875 C 18.808594 51.546875 13.136719 49.097656 12.96875 48.097656 C 12.96875 48.039062 12.964844 47.980469 12.957031 47.921875 L 8.554688 15.222656 C 12.878906 17.578125 20.910156 18.792969 28.554688 18.792969 C 36.203125 18.792969 44.234375 17.578125 48.558594 15.222656 L 46.621094 29.601562 C 42.296875 28.398438 36.480469 25.953125 31.980469 23.808594 C 31.878906 22.429688 30.738281 21.332031 29.332031 21.332031 C 27.863281 21.332031 26.667969 22.53125 26.667969 24 C 26.667969 25.46875 27.863281 26.667969 29.332031 26.667969 C 29.882812 26.667969 30.394531 26.5 30.820312 26.210938 C 34.398438 27.925781 40.960938 30.882812 46.265625 32.25 L 45.964844 34.488281 L 48.609375 34.84375 L 48.882812 32.796875 C 49.613281 32.90625 50.308594 32.984375 50.921875 32.984375 C 51.613281 32.984375 52.226562 32.90625 52.734375 32.738281 C 53.777344 32.390625 54.285156 31.742188 54.527344 31.261719 C 54.914062 30.484375 54.972656 29.644531 54.6875 28.832031 C 54.03125 26.945312 51.664062 25.621094 49.960938 24.796875 L 51.707031 11.820312 C 51.707031 11.820312 51.707031 11.820312 51.707031 11.816406 L 51.765625 11.367188 C 51.773438 11.308594 51.777344 11.25 51.777344 11.191406 C 51.777344 6.167969 39.539062 2.667969 28.554688 2.667969 C 17.570312 2.667969 5.332031 6.167969 5.332031 11.191406 C 5.332031 11.253906 5.335938 11.3125 5.34375 11.371094 L 5.40625 11.820312 L 10.304688 48.203125 C 10.46875 52.609375 21.273438 54.210938 28.554688 54.210938 C 30.195312 54.210938 31.84375 54.140625 33.453125 53.996094 L 33.214844 51.339844 C 31.6875 51.476562 30.117188 51.546875 28.554688 51.546875 Z M 16.964844 32 L 20 26.6875 L 23.035156 32 Z M 26.488281 34.003906 C 26.726562 33.59375 26.726562 33.085938 26.492188 32.671875 L 21.15625 23.339844 C 20.683594 22.507812 19.316406 22.507812 18.84375 23.339844 L 13.507812 32.671875 C 13.273438 33.085938 13.273438 33.59375 13.511719 34.003906 C 13.753906 34.414062 14.191406 34.667969 14.667969 34.667969 L 25.332031 34.667969 C 25.808594 34.667969 26.246094 34.414062 26.488281 34.003906 Z M 20 45.332031 L 25.332031 45.332031 L 25.332031 40 L 20 40 Z M 18.667969 48 L 26.667969 48 C 27.402344 48 28 47.402344 28 46.667969 L 28 38.667969 C 28 37.929688 27.402344 37.332031 26.667969 37.332031 L 18.667969 37.332031 C 17.929688 37.332031 17.332031 37.929688 17.332031 38.667969 L 17.332031 46.667969 C 17.332031 47.402344 17.929688 48 18.667969 48 Z M 56 58.667969 L 40 58.667969 L 40 48 L 56 48 Z M 44 42.667969 C 44 41.195312 45.195312 40 46.667969 40 L 49.332031 40 C 50.804688 40 52 41.195312 52 42.667969 L 52 45.332031 L 44 45.332031 Z M 57.332031 45.332031 L 54.667969 45.332031 L 54.667969 42.667969 C 54.667969 39.726562 52.273438 37.332031 49.332031 37.332031 L 46.667969 37.332031 C 43.726562 37.332031 41.332031 39.726562 41.332031 42.667969 L 41.332031 45.332031 L 38.667969 45.332031 C 37.929688 45.332031 37.332031 45.929688 37.332031 46.667969 L 37.332031 60 C 37.332031 60.734375 37.929688 61.332031 38.667969 61.332031 L 57.332031 61.332031 C 58.070312 61.332031 58.667969 60.734375 58.667969 60 L 58.667969 46.667969 C 58.667969 45.929688 58.070312 45.332031 57.332031 45.332031 Z M 57.332031 45.332031 "/>
</svg>
