<?xml version="1.0" encoding="UTF-8"?>
<svg xmlns="http://www.w3.org/2000/svg" xmlns:xlink="http://www.w3.org/1999/xlink" width="64" height="64" viewBox="0 0 64 64">
<path fill-rule="evenodd" fill="rgb(47.843137%, 63.137257%, 8.627451%)" fill-opacity="1" d="M 53.332031 12 C 53.332031 11.265625 52.734375 10.667969 52 10.667969 C 51.265625 10.667969 50.667969 11.265625 50.667969 12 C 50.667969 12.734375 51.265625 13.332031 52 13.332031 C 52.734375 13.332031 53.332031 12.734375 53.332031 12 Z M 56 12 C 56 14.207031 54.207031 16 52 16 C 49.792969 16 48 14.207031 48 12 C 48 9.792969 49.792969 8 52 8 C 54.207031 8 56 9.792969 56 12 Z M 58.65625 11.777344 C 58.746094 10.066406 58.210938 8.546875 57.109375 7.386719 C 55.871094 6.082031 54.011719 5.332031 52 5.332031 C 50.109375 5.332031 48.285156 6.105469 47 7.457031 C 45.851562 8.660156 45.261719 10.199219 45.339844 11.78125 C 45.496094 14.980469 49.472656 20.324219 51.910156 23.207031 C 52.539062 22.359375 53.433594 21.167969 54.472656 19.816406 L 55.132812 18.933594 C 56.0625 17.664062 56.832031 16.464844 57.410156 15.386719 L 57.804688 14.601562 C 58.324219 13.5 58.617188 12.542969 58.65625 11.777344 Z M 61.320312 11.917969 C 61.261719 13.046875 60.894531 14.308594 60.203125 15.769531 L 59.78125 16.601562 C 59.777344 16.609375 59.773438 16.617188 59.769531 16.628906 C 59.132812 17.824219 58.292969 19.132812 57.273438 20.519531 L 56.59375 21.425781 C 54.550781 24.089844 53.085938 26.109375 53.078125 26.117188 C 52.84375 26.441406 52.476562 26.640625 52.078125 26.664062 C 52.050781 26.667969 52.023438 26.667969 52 26.667969 C 51.628906 26.667969 51.269531 26.511719 51.015625 26.234375 C 50.191406 25.332031 42.9375 17.277344 42.675781 11.910156 C 42.5625 9.589844 43.414062 7.355469 45.070312 5.617188 C 46.855469 3.742188 49.382812 2.667969 52 2.667969 C 54.738281 2.667969 57.304688 3.71875 59.042969 5.550781 C 60.664062 7.257812 61.449219 9.457031 61.320312 11.917969 Z M 19.847656 24 C 19.847656 23.316406 20.363281 20.925781 20.765625 20 L 29.136719 20 C 29.46875 20.945312 29.792969 23.210938 29.792969 24 C 29.792969 24.734375 30.390625 25.332031 31.128906 25.332031 L 33.332031 25.332031 L 33.332031 22.667969 L 32.378906 22.667969 C 32.207031 20.820312 31.671875 17.667969 30.03125 17.355469 C 29.949219 17.339844 29.867188 17.332031 29.78125 17.332031 L 20.210938 17.332031 C 18.371094 17.332031 17.613281 20.722656 17.328125 22.667969 L 16 22.667969 L 16 25.332031 L 18.511719 25.332031 C 19.25 25.332031 19.847656 24.734375 19.847656 24 Z M 41.332031 25.332031 L 46.667969 25.332031 L 46.667969 22.667969 L 41.332031 22.667969 Z M 56.789062 26.121094 C 57.144531 26.609375 57.332031 27.347656 57.332031 28.265625 L 57.332031 58.667969 L 5.332031 58.667969 L 5.332031 28.265625 C 5.332031 26.074219 6.058594 25.332031 8.207031 25.332031 L 8.207031 22.667969 C 4.582031 22.667969 2.667969 24.601562 2.667969 28.265625 L 2.667969 60 C 2.667969 60.734375 3.261719 61.332031 4 61.332031 L 58.667969 61.332031 C 59.402344 61.332031 60 60.734375 60 60 L 60 28.265625 C 60 26.753906 59.640625 25.503906 58.9375 24.542969 Z M 44 50 C 44 51.835938 45.496094 53.332031 47.332031 53.332031 C 49.171875 53.332031 50.667969 51.835938 50.667969 50 C 50.667969 48.164062 49.171875 46.667969 47.332031 46.667969 C 45.496094 46.667969 44 48.164062 44 50 Z M 47.332031 44 C 50.640625 44 53.332031 46.691406 53.332031 50 C 53.332031 53.308594 50.640625 56 47.332031 56 C 44.023438 56 41.332031 53.308594 41.332031 50 C 41.332031 46.691406 44.023438 44 47.332031 44 Z M 33.789062 48 L 31.300781 43.285156 L 28.859375 48 Z M 32.46875 39.785156 L 37.179688 48.710938 C 37.398438 49.125 37.382812 49.621094 37.140625 50.023438 C 36.902344 50.421875 36.46875 50.667969 36 50.667969 L 26.667969 50.667969 C 26.203125 50.667969 25.769531 50.425781 25.527344 50.027344 C 25.285156 49.628906 25.269531 49.132812 25.484375 48.71875 L 30.105469 39.792969 C 30.335938 39.351562 30.789062 39.074219 31.285156 39.074219 L 31.289062 39.074219 C 31.785156 39.074219 32.238281 39.347656 32.46875 39.785156 Z M 13.332031 53.332031 L 18.667969 53.332031 L 18.667969 48 L 13.332031 48 Z M 20 45.332031 C 20.738281 45.332031 21.332031 45.929688 21.332031 46.667969 L 21.332031 54.667969 C 21.332031 55.402344 20.738281 56 20 56 L 12 56 C 11.261719 56 10.667969 55.402344 10.667969 54.667969 L 10.667969 46.667969 C 10.667969 45.929688 11.261719 45.332031 12 45.332031 Z M 32.390625 30.277344 L 36.390625 34.277344 C 36.652344 34.535156 36.992188 34.667969 37.332031 34.667969 C 37.675781 34.667969 38.015625 34.535156 38.277344 34.277344 L 42.277344 30.277344 L 40.390625 28.390625 L 38.667969 30.113281 L 38.667969 17.332031 L 36 17.332031 L 36 30.113281 L 34.277344 28.390625 Z M 24 7.21875 L 24 14.667969 L 26.667969 14.667969 L 26.667969 7.21875 L 28.390625 8.941406 L 30.277344 7.058594 L 26.277344 3.058594 C 26.027344 2.808594 25.6875 2.667969 25.335938 2.667969 C 24.980469 2.667969 24.640625 2.808594 24.390625 3.058594 L 20.390625 7.058594 L 22.277344 8.941406 Z M 8.941406 29.722656 L 10.667969 31.449219 L 10.667969 21.332031 L 13.332031 21.332031 L 13.332031 31.449219 L 15.058594 29.722656 L 16.941406 31.609375 L 12.941406 35.609375 C 12.683594 35.871094 12.339844 36 12 36 C 11.660156 36 11.316406 35.871094 11.058594 35.609375 L 7.058594 31.609375 Z M 8.941406 29.722656 "/>
</svg>
