<?xml version="1.0" encoding="UTF-8"?>
<svg xmlns="http://www.w3.org/2000/svg" xmlns:xlink="http://www.w3.org/1999/xlink" width="64" height="64" viewBox="0 0 64 64">
<path fill-rule="evenodd" fill="rgb(47.843137%, 63.137257%, 8.627451%)" fill-opacity="1" d="M 52.324219 58.65625 L 40.992188 58.65625 L 40.992188 51.824219 C 40.992188 51.085938 40.398438 50.488281 39.660156 50.488281 L 23.332031 50.488281 C 22.59375 50.488281 21.996094 51.085938 21.996094 51.824219 L 21.996094 58.65625 L 10.667969 58.65625 L 10.667969 5.332031 L 52.324219 5.332031 Z M 53.65625 2.667969 L 9.332031 2.667969 C 8.597656 2.667969 8 3.261719 8 4 L 8 59.988281 C 8 60.726562 8.597656 61.320312 9.332031 61.320312 L 23.332031 61.320312 C 24.066406 61.320312 24.664062 60.726562 24.664062 59.988281 L 24.664062 53.15625 L 38.328125 53.15625 L 38.328125 59.988281 C 38.328125 60.726562 38.921875 61.320312 39.660156 61.320312 L 53.65625 61.320312 C 54.394531 61.320312 54.992188 60.726562 54.992188 59.988281 L 54.992188 4 C 54.992188 3.261719 54.394531 2.667969 53.65625 2.667969 Z M 53.65625 2.667969 "/>
</svg>
