<?xml version="1.0" encoding="UTF-8"?>
<svg xmlns="http://www.w3.org/2000/svg" xmlns:xlink="http://www.w3.org/1999/xlink" width="64" height="64" viewBox="0 0 64 64">
<path fill-rule="evenodd" fill="rgb(47.843137%, 63.137257%, 8.627451%)" fill-opacity="1" d="M 10.554688 9.332031 L 2.667969 19.78125 L 40.808594 19.597656 L 33.964844 9.332031 Z M 11.882812 12 L 32.539062 12 L 35.84375 16.953125 L 8.042969 17.089844 Z M 38.894531 12.980469 L 38.894531 15.648438 L 44.191406 15.648438 L 46.929688 19.273438 L 42.128906 19.253906 L 42.117188 21.921875 L 52.300781 21.964844 L 45.519531 12.980469 Z M 51.035156 16.6875 L 51.035156 19.351562 L 54.960938 19.351562 L 56.609375 21.535156 L 53.527344 21.519531 L 53.519531 24.1875 L 61.984375 24.222656 L 61.984375 24.21875 L 56.292969 16.6875 Z M 3.171875 54.800781 L 40.375 54.800781 L 40.375 20.800781 L 3.171875 20.800781 Z M 5.839844 52.132812 L 37.707031 52.132812 L 37.707031 23.464844 L 5.839844 23.464844 Z M 42.195312 22.949219 L 42.195312 25.617188 L 49.222656 25.617188 L 49.222656 48.945312 L 42.195312 48.945312 L 42.195312 51.613281 L 51.890625 51.613281 L 51.890625 22.949219 Z M 53.648438 25.265625 L 53.648438 27.933594 L 58.929688 27.933594 L 58.929688 45.832031 L 53.648438 45.832031 L 53.648438 48.5 L 61.597656 48.5 L 61.597656 25.265625 Z M 53.648438 25.265625 "/>
</svg>
