<?xml version="1.0" encoding="UTF-8"?>
<svg xmlns="http://www.w3.org/2000/svg" xmlns:xlink="http://www.w3.org/1999/xlink" width="64" height="64" viewBox="0 0 64 64">
<path fill-rule="evenodd" fill="rgb(47.843137%, 63.137257%, 8.627451%)" fill-opacity="1" d="M 53.332031 12 C 53.332031 11.265625 52.734375 10.667969 52 10.667969 C 51.265625 10.667969 50.667969 11.265625 50.667969 12 C 50.667969 12.734375 51.265625 13.332031 52 13.332031 C 52.734375 13.332031 53.332031 12.734375 53.332031 12 Z M 56 12 C 56 14.207031 54.207031 16 52 16 C 49.792969 16 48 14.207031 48 12 C 48 9.792969 49.792969 8 52 8 C 54.207031 8 56 9.792969 56 12 Z M 58.65625 11.777344 C 58.746094 10.066406 58.210938 8.546875 57.109375 7.386719 C 55.871094 6.082031 54.011719 5.332031 52 5.332031 C 50.109375 5.332031 48.285156 6.105469 47 7.457031 C 45.851562 8.660156 45.261719 10.199219 45.339844 11.78125 C 45.496094 14.980469 49.472656 20.324219 51.910156 23.207031 C 52.539062 22.359375 53.433594 21.167969 54.472656 19.816406 L 55.132812 18.933594 C 56.0625 17.664062 56.832031 16.464844 57.410156 15.386719 L 57.804688 14.601562 C 58.324219 13.5 58.617188 12.542969 58.65625 11.777344 Z M 61.320312 11.917969 C 61.261719 13.046875 60.894531 14.308594 60.203125 15.769531 L 59.78125 16.601562 C 59.777344 16.609375 59.773438 16.617188 59.769531 16.628906 C 59.132812 17.824219 58.292969 19.132812 57.273438 20.519531 L 56.59375 21.425781 C 54.550781 24.089844 53.085938 26.109375 53.078125 26.117188 C 52.84375 26.441406 52.476562 26.640625 52.078125 26.664062 C 52.050781 26.667969 52.023438 26.667969 52 26.667969 C 51.628906 26.667969 51.269531 26.511719 51.015625 26.234375 C 50.191406 25.332031 42.9375 17.277344 42.675781 11.910156 C 42.5625 9.589844 43.414062 7.355469 45.070312 5.617188 C 46.855469 3.742188 49.382812 2.667969 52 2.667969 C 54.738281 2.667969 57.304688 3.71875 59.042969 5.550781 C 60.664062 7.257812 61.449219 9.457031 61.320312 11.917969 Z M 24 20 L 27.804688 20 C 28.136719 20.945312 28.460938 23.210938 28.460938 24 C 28.460938 24.734375 29.058594 25.332031 29.792969 25.332031 L 45.332031 25.332031 L 45.332031 22.667969 L 31.046875 22.667969 C 30.875 20.820312 30.339844 17.667969 28.699219 17.355469 C 28.617188 17.339844 28.53125 17.332031 28.449219 17.332031 L 24 17.332031 Z M 56.789062 26.121094 C 57.144531 26.609375 57.332031 27.347656 57.332031 28.265625 L 57.332031 58.667969 L 5.332031 58.667969 L 5.332031 28.265625 C 5.332031 27.5 5.464844 26.464844 6.101562 25.871094 C 6.546875 25.453125 7.222656 25.273438 8.207031 25.332031 L 11.847656 25.332031 C 12.585938 25.332031 13.179688 24.734375 13.179688 24 C 13.179688 23.316406 13.699219 20.925781 14.101562 20 L 16 20 L 16 17.332031 L 13.542969 17.332031 C 11.707031 17.332031 10.945312 20.722656 10.664062 22.667969 L 8.296875 22.667969 C 6.648438 22.550781 5.273438 22.992188 4.28125 23.921875 C 3.542969 24.609375 2.667969 25.921875 2.667969 28.265625 L 2.667969 60 C 2.667969 60.734375 3.261719 61.332031 4 61.332031 L 58.667969 61.332031 C 59.402344 61.332031 60 60.734375 60 60 L 60 28.265625 C 60 26.753906 59.640625 25.503906 58.9375 24.542969 Z M 44 50 C 44 51.835938 45.496094 53.332031 47.332031 53.332031 C 49.171875 53.332031 50.667969 51.835938 50.667969 50 C 50.667969 48.164062 49.171875 46.667969 47.332031 46.667969 C 45.496094 46.667969 44 48.164062 44 50 Z M 47.332031 44 C 50.640625 44 53.332031 46.691406 53.332031 50 C 53.332031 53.308594 50.640625 56 47.332031 56 C 44.023438 56 41.332031 53.308594 41.332031 50 C 41.332031 46.691406 44.023438 44 47.332031 44 Z M 28.5 48 L 33.925781 48 L 31.269531 43.140625 Z M 25.050781 50.003906 C 24.8125 49.59375 24.808594 49.085938 25.042969 48.671875 L 30.136719 39.746094 C 30.375 39.328125 30.816406 39.074219 31.292969 39.074219 L 31.304688 39.074219 C 31.789062 39.078125 32.230469 39.34375 32.464844 39.765625 L 37.34375 48.691406 C 37.570312 49.105469 37.5625 49.609375 37.324219 50.011719 C 37.082031 50.417969 36.648438 50.667969 36.175781 50.667969 L 26.203125 50.667969 C 25.726562 50.667969 25.289062 50.414062 25.050781 50.003906 Z M 13.332031 53.332031 L 18.667969 53.332031 L 18.667969 48 L 13.332031 48 Z M 21.332031 46.667969 L 21.332031 54.667969 C 21.332031 55.402344 20.738281 56 20 56 L 12 56 C 11.261719 56 10.667969 55.402344 10.667969 54.667969 L 10.667969 46.667969 C 10.667969 45.929688 11.261719 45.332031 12 45.332031 L 20 45.332031 C 20.738281 45.332031 21.332031 45.929688 21.332031 46.667969 Z M 23.054688 24.378906 L 20 27.460938 L 16.945312 24.378906 L 15.050781 26.257812 L 19.050781 30.296875 C 19.300781 30.546875 19.644531 30.691406 20 30.691406 C 20.355469 30.691406 20.695312 30.546875 20.945312 30.292969 L 24.949219 26.253906 Z M 20 8.589844 L 23.054688 11.671875 L 24.949219 9.792969 L 20.949219 5.757812 C 20.449219 5.253906 19.554688 5.253906 19.054688 5.757812 L 15.050781 9.796875 L 16.945312 11.675781 Z M 18.667969 22.667969 L 21.332031 22.667969 L 21.332031 13.332031 L 18.667969 13.332031 Z M 18.667969 22.667969 "/>
</svg>
