<?xml version="1.0" encoding="UTF-8"?>
<svg xmlns="http://www.w3.org/2000/svg" xmlns:xlink="http://www.w3.org/1999/xlink" width="64" height="64" viewBox="0 0 64 64">
<path fill-rule="evenodd" fill="rgb(47.843137%, 63.137257%, 8.627451%)" fill-opacity="1" d="M 52 58.667969 L 52 16 L 42.667969 16 C 41.929688 16 41.332031 15.402344 41.332031 14.667969 L 41.332031 5.332031 L 12 5.332031 L 12 58.667969 Z M 44 13.332031 L 50.113281 13.332031 L 44 7.21875 Z M 54.667969 14.667969 L 54.667969 60 C 54.667969 60.734375 54.070312 61.332031 53.332031 61.332031 L 10.667969 61.332031 C 9.929688 61.332031 9.332031 60.734375 9.332031 60 L 9.332031 4 C 9.332031 3.265625 9.929688 2.667969 10.667969 2.667969 L 42.667969 2.667969 L 42.667969 2.679688 C 43.011719 2.679688 43.355469 2.800781 43.609375 3.058594 L 54.277344 13.722656 C 54.53125 13.980469 54.652344 14.320312 54.65625 14.667969 Z M 46.105469 48.566406 L 43.886719 50.785156 L 41.664062 48.566406 L 39.78125 50.449219 L 42 52.671875 L 39.78125 54.890625 L 41.664062 56.777344 L 43.886719 54.554688 L 46.105469 56.777344 L 47.992188 54.890625 L 45.769531 52.671875 L 47.992188 50.449219 Z M 20.667969 16 C 21.769531 16 22.667969 15.101562 22.667969 14 C 22.667969 12.898438 21.769531 12 20.667969 12 C 19.5625 12 18.667969 12.898438 18.667969 14 C 18.667969 15.101562 19.5625 16 20.667969 16 Z M 20.667969 18.667969 C 18.09375 18.667969 16 16.574219 16 14 C 16 11.425781 18.09375 9.332031 20.667969 9.332031 C 23.238281 9.332031 25.332031 11.425781 25.332031 14 C 25.332031 16.574219 23.238281 18.667969 20.667969 18.667969 Z M 34.035156 49.167969 C 33.324219 49.273438 32.613281 49.324219 31.90625 49.324219 C 28.792969 49.324219 25.777344 48.328125 23.238281 46.4375 C 19.550781 43.683594 17.414062 39.464844 17.382812 34.855469 L 20.050781 34.839844 C 20.074219 38.605469 21.820312 42.050781 24.832031 44.296875 C 27.378906 46.195312 30.503906 46.984375 33.652344 46.53125 C 36.792969 46.070312 39.570312 44.414062 41.464844 41.871094 C 45.382812 36.617188 44.292969 29.15625 39.039062 25.238281 C 34.136719 21.582031 27.316406 22.289062 23.242188 26.667969 L 25.332031 26.667969 L 25.332031 29.332031 L 20 29.332031 C 19.261719 29.332031 18.667969 28.734375 18.667969 28 L 18.667969 22.667969 L 21.332031 22.667969 L 21.332031 24.808594 C 26.324219 19.484375 34.648438 18.636719 40.632812 23.097656 C 47.066406 27.894531 48.398438 37.03125 43.605469 43.464844 C 41.28125 46.582031 37.882812 48.605469 34.035156 49.167969 Z M 34.035156 49.167969 "/>
</svg>
