<?xml version="1.0" encoding="UTF-8"?>
<svg xmlns="http://www.w3.org/2000/svg" xmlns:xlink="http://www.w3.org/1999/xlink" width="64" height="64" viewBox="0 0 64 64">
<path fill-rule="evenodd" fill="rgb(47.843137%, 63.137257%, 8.627451%)" fill-opacity="1" d="M 57.554688 50.773438 L 59.816406 53.039062 L 57.929688 54.921875 L 55.007812 52 L 50.777344 52 L 52.960938 55.789062 L 56.820312 56.871094 L 56.101562 59.441406 L 53.074219 58.589844 L 52.246094 61.679688 L 49.671875 60.988281 L 50.691406 57.1875 L 48.546875 53.46875 L 46.4375 57.117188 L 47.429688 61.003906 L 44.84375 61.664062 L 44.070312 58.617188 L 40.976562 59.445312 L 40.289062 56.867188 L 44.089844 55.851562 L 46.316406 52 L 42.160156 52 L 39.152344 54.933594 L 37.289062 53.027344 L 39.542969 50.832031 L 37.277344 48.570312 L 39.164062 46.683594 L 41.816406 49.332031 L 46.160156 49.332031 L 44.125 45.816406 L 40.273438 44.734375 L 40.992188 42.164062 L 44.019531 43.015625 L 44.847656 39.925781 L 47.425781 40.617188 L 46.402344 44.429688 L 48.546875 48.136719 L 50.65625 44.484375 L 49.667969 40.601562 L 52.25 39.941406 L 53.023438 42.988281 L 56.117188 42.160156 L 56.804688 44.738281 L 52.996094 45.757812 L 50.9375 49.332031 L 55.210938 49.332031 L 57.941406 46.671875 L 59.800781 48.582031 Z M 30.492188 5.332031 C 44.363281 5.332031 54.136719 9.632812 54.320312 12.015625 L 54.285156 12.28125 C 54.253906 12.386719 54.191406 12.5 54.125 12.613281 C 54.101562 12.65625 54.089844 12.695312 54.058594 12.738281 C 53.984375 12.847656 53.875 12.957031 53.769531 13.066406 C 53.722656 13.113281 53.6875 13.164062 53.632812 13.210938 C 53.519531 13.320312 53.371094 13.425781 53.226562 13.535156 C 53.15625 13.585938 53.097656 13.640625 53.019531 13.691406 C 52.863281 13.796875 52.679688 13.90625 52.492188 14.011719 C 52.402344 14.066406 52.320312 14.121094 52.222656 14.171875 C 52.023438 14.28125 51.792969 14.390625 51.5625 14.5 C 51.457031 14.550781 51.363281 14.601562 51.246094 14.652344 C 50.992188 14.765625 50.710938 14.875 50.429688 14.988281 C 50.320312 15.03125 50.21875 15.078125 50.105469 15.117188 C 49.78125 15.242188 49.429688 15.359375 49.070312 15.480469 C 48.976562 15.507812 48.894531 15.539062 48.800781 15.570312 C 48.382812 15.703125 47.933594 15.835938 47.472656 15.960938 C 47.425781 15.976562 47.386719 15.988281 47.339844 16 C 43.199219 17.125 37.40625 17.949219 30.5 17.949219 C 19.269531 17.949219 10.992188 15.765625 7.941406 13.671875 C 7.929688 13.664062 7.917969 13.652344 7.90625 13.644531 C 7.691406 13.496094 7.5 13.347656 7.34375 13.199219 C 7.3125 13.171875 7.292969 13.144531 7.265625 13.117188 C 7.132812 12.988281 7.015625 12.859375 6.925781 12.734375 C 6.898438 12.695312 6.886719 12.65625 6.863281 12.613281 C 6.796875 12.503906 6.734375 12.390625 6.703125 12.28125 L 6.667969 12.015625 C 6.851562 9.632812 16.625 5.332031 30.492188 5.332031 Z M 57.542969 35.230469 C 57.152344 35.304688 56.167969 35.34375 53.945312 34.800781 L 54.234375 32.621094 C 56.554688 34.03125 57.3125 34.863281 57.542969 35.230469 Z M 30.824219 26.664062 L 32.15625 26.667969 L 30.824219 26.667969 C 30.824219 26.667969 30.824219 26.667969 30.824219 26.664062 Z M 30.5 58.667969 C 19.21875 58.667969 12.371094 55.777344 12.371094 54.503906 C 12.371094 54.445312 12.367188 54.386719 12.359375 54.328125 L 7.253906 16.363281 C 7.566406 16.542969 7.894531 16.714844 8.242188 16.886719 C 8.433594 16.980469 8.644531 17.070312 8.847656 17.160156 C 9.0625 17.253906 9.277344 17.347656 9.5 17.441406 C 9.738281 17.535156 9.980469 17.628906 10.226562 17.722656 C 10.4375 17.796875 10.65625 17.875 10.875 17.949219 C 11.429688 18.136719 12.011719 18.320312 12.617188 18.488281 C 12.742188 18.523438 12.859375 18.5625 12.984375 18.59375 C 13.316406 18.683594 13.660156 18.765625 14.003906 18.851562 C 14.199219 18.898438 14.394531 18.945312 14.59375 18.992188 C 14.949219 19.074219 15.308594 19.152344 15.679688 19.226562 C 15.84375 19.261719 16.015625 19.292969 16.183594 19.328125 C 17.46875 19.582031 18.816406 19.796875 20.203125 19.972656 C 20.359375 19.992188 20.515625 20.015625 20.671875 20.035156 C 21.125 20.089844 21.578125 20.140625 22.039062 20.191406 C 22.132812 20.199219 22.226562 20.207031 22.320312 20.214844 C 23.820312 20.363281 25.34375 20.472656 26.882812 20.539062 C 27.03125 20.542969 27.183594 20.550781 27.335938 20.554688 C 27.816406 20.574219 28.296875 20.589844 28.777344 20.597656 C 28.84375 20.601562 28.90625 20.601562 28.96875 20.601562 C 29.476562 20.609375 29.984375 20.621094 30.492188 20.621094 C 30.980469 20.621094 31.46875 20.609375 31.957031 20.601562 C 32.050781 20.601562 32.140625 20.601562 32.234375 20.597656 C 32.691406 20.589844 33.152344 20.574219 33.609375 20.558594 C 33.796875 20.550781 33.984375 20.542969 34.171875 20.535156 C 34.625 20.515625 35.070312 20.492188 35.519531 20.46875 L 35.863281 20.445312 C 36.722656 20.390625 37.574219 20.320312 38.417969 20.238281 C 38.625 20.21875 38.828125 20.203125 39.03125 20.179688 C 39.425781 20.140625 39.816406 20.09375 40.203125 20.046875 C 40.453125 20.015625 40.695312 19.984375 40.941406 19.953125 C 41.316406 19.90625 41.6875 19.855469 42.054688 19.804688 C 42.328125 19.761719 42.59375 19.714844 42.863281 19.671875 C 43.4375 19.582031 43.996094 19.484375 44.550781 19.378906 C 44.835938 19.324219 45.125 19.269531 45.40625 19.210938 C 45.703125 19.148438 45.996094 19.082031 46.289062 19.015625 C 46.582031 18.949219 46.871094 18.878906 47.15625 18.808594 C 47.417969 18.746094 47.683594 18.679688 47.9375 18.613281 C 48.425781 18.484375 48.898438 18.347656 49.359375 18.203125 C 49.5625 18.140625 49.753906 18.070312 49.953125 18.003906 C 50.253906 17.902344 50.546875 17.804688 50.832031 17.695312 C 51.03125 17.621094 51.230469 17.542969 51.421875 17.46875 C 51.710938 17.351562 51.984375 17.234375 52.25 17.113281 C 52.40625 17.042969 52.566406 16.972656 52.714844 16.902344 C 53.070312 16.730469 53.414062 16.550781 53.730469 16.367188 L 51.351562 34.066406 C 45.269531 32.15625 37.160156 28.460938 33.484375 26.734375 C 33.484375 26.710938 33.488281 26.691406 33.488281 26.667969 C 33.488281 25.195312 32.292969 24 30.824219 24 C 29.351562 24 28.15625 25.195312 28.15625 26.667969 C 28.15625 28.136719 29.351562 29.332031 30.824219 29.332031 C 31.273438 29.332031 31.691406 29.210938 32.0625 29.011719 C 36.238281 30.988281 44.671875 34.820312 50.992188 36.746094 L 50.875 37.597656 L 53.519531 37.953125 L 53.585938 37.460938 C 54.945312 37.777344 56.0625 37.941406 56.976562 37.941406 C 58.296875 37.941406 59.183594 37.605469 59.753906 36.929688 C 60.21875 36.375 60.402344 35.675781 60.269531 34.960938 C 59.980469 33.429688 58.214844 31.804688 54.621094 29.757812 L 56.890625 12.863281 C 56.898438 12.835938 56.90625 12.804688 56.910156 12.773438 L 56.976562 12.257812 C 56.984375 12.199219 56.988281 12.140625 56.988281 12.085938 C 56.988281 6.535156 43.023438 2.667969 30.492188 2.667969 C 17.960938 2.667969 4 6.535156 4 12.085938 C 4 12.140625 4.003906 12.199219 4.011719 12.257812 L 4.078125 12.773438 L 4.085938 12.816406 L 9.707031 54.609375 C 9.878906 59.503906 22.515625 61.332031 30.5 61.332031 C 33.207031 61.332031 35.921875 61.160156 38.578125 60.820312 L 38.238281 58.175781 C 35.695312 58.5 33.09375 58.667969 30.5 58.667969 Z M 30.5 58.667969 "/>
</svg>
