<?xml version="1.0" encoding="UTF-8"?>
<svg xmlns="http://www.w3.org/2000/svg" xmlns:xlink="http://www.w3.org/1999/xlink" width="64" height="64" viewBox="0 0 64 64">
<path fill-rule="nonzero" fill="rgb(47.843137%, 63.137255%, 8.627451%)" fill-opacity="1" d="M 60 42.667969 L 36 42.667969 C 35.265625 42.667969 34.667969 43.246094 34.667969 43.980469 L 34.667969 59.980469 C 34.667969 60.714844 35.261719 61.332031 36 61.332031 L 60 61.332031 C 60.738281 61.332031 61.332031 60.714844 61.332031 59.980469 L 61.332031 43.980469 C 61.332031 43.242188 60.738281 42.667969 60 42.667969 Z M 42.667969 58.667969 L 37.332031 58.667969 L 37.332031 56 L 42.667969 56 Z M 42.667969 53.332031 L 37.332031 53.332031 L 37.332031 50.667969 L 42.667969 50.667969 Z M 42.667969 48 L 37.332031 48 L 37.332031 45.332031 L 42.667969 45.332031 Z M 50.667969 58.667969 L 45.332031 58.667969 L 45.332031 56 L 50.667969 56 Z M 50.667969 53.332031 L 45.332031 53.332031 L 45.332031 50.667969 L 50.667969 50.667969 Z M 50.667969 48 L 45.332031 48 L 45.332031 45.332031 L 50.667969 45.332031 Z M 58.667969 58.667969 L 53.332031 58.667969 L 53.332031 56 L 58.667969 56 Z M 58.667969 53.332031 L 53.332031 53.332031 L 53.332031 50.667969 L 58.667969 50.667969 Z M 58.667969 48 L 53.332031 48 L 53.332031 45.332031 L 58.667969 45.332031 Z M 58.671875 35.515625 C 58.371094 33.898438 56.449219 32.191406 52.460938 29.988281 L 54.667969 11.332031 C 54.667969 6.546875 43.027344 2.667969 28.667969 2.667969 C 14.308594 2.667969 2.667969 6.546875 2.667969 11.332031 L 8.050781 55.40625 C 8.222656 60.066406 21.042969 61.332031 28.667969 61.332031 C 29.695312 61.332031 30.824219 61.285156 32 61.234375 L 32 58.570312 C 30.9375 58.617188 29.832031 58.667969 28.667969 58.667969 C 17.621094 58.667969 11.121094 56.449219 10.714844 55.3125 C 10.714844 55.257812 10.710938 55.203125 10.707031 55.152344 L 5.84375 15.484375 C 10.253906 18.175781 18.820312 20 28.667969 20 C 38.523438 20 47.097656 18.171875 51.503906 15.476562 L 49.238281 34.453125 C 43.277344 32.523438 35.585938 29.046875 32.039062 27.394531 C 32.039062 27.367188 32 27.363281 32 27.332031 C 32 25.46875 30.503906 24 28.667969 24 C 26.828125 24 25.332031 25.46875 25.332031 27.332031 C 25.332031 29.199219 26.828125 30.667969 28.667969 30.667969 C 29.519531 30.667969 30.339844 30.355469 30.933594 29.820312 C 34.632812 31.542969 42.742188 35.207031 48.910156 37.152344 L 48.570312 40 L 51.25 40 L 51.503906 37.886719 C 53.078125 38.285156 54.363281 38.496094 55.378906 38.492188 C 56.699219 38.492188 57.589844 38.15625 58.15625 37.480469 C 58.621094 36.925781 58.804688 36.230469 58.671875 35.515625 Z M 28.667969 28 C 28.300781 28 28 27.699219 28 27.332031 C 28 26.964844 28.300781 26.667969 28.667969 26.667969 C 29.035156 26.667969 29.332031 26.964844 29.332031 27.332031 C 29.332031 27.699219 29.035156 28 28.667969 28 Z M 28.667969 17.332031 C 15.78125 17.332031 5.332031 14.648438 5.332031 11.332031 C 5.332031 8.019531 15.78125 5.332031 28.667969 5.332031 C 41.554688 5.332031 52 8.019531 52 11.332031 C 52 14.648438 41.554688 17.332031 28.667969 17.332031 Z M 51.828125 35.21875 L 52.113281 32.859375 C 54.835938 34.453125 55.6875 35.390625 55.941406 35.785156 C 55.523438 35.863281 54.40625 35.894531 51.828125 35.21875 Z M 51.828125 35.21875 "/>
</svg>
