<?xml version="1.0" encoding="UTF-8"?>
<svg xmlns="http://www.w3.org/2000/svg" xmlns:xlink="http://www.w3.org/1999/xlink" width="64" height="64" viewBox="0 0 64 64">
<path fill-rule="evenodd" fill="rgb(47.843137%, 63.137257%, 8.627451%)" fill-opacity="1" d="M 31.601562 33.75 C 33.660156 33.75 35.332031 35.421875 35.332031 37.480469 C 35.332031 39.535156 33.660156 41.210938 31.601562 41.210938 C 29.542969 41.210938 27.871094 39.535156 27.871094 37.480469 C 27.871094 35.421875 29.542969 33.75 31.601562 33.75 Z M 25.203125 37.480469 C 25.203125 40.5625 27.398438 43.144531 30.308594 43.746094 L 30.308594 53.132812 L 32.972656 53.132812 L 32.972656 43.71875 C 35.84375 43.085938 38 40.535156 38 37.480469 C 38 36.714844 37.839844 35.992188 37.59375 35.3125 L 46.304688 30.277344 L 44.972656 27.96875 L 36.191406 33.042969 C 35.027344 31.839844 33.402344 31.082031 31.601562 31.082031 C 29.796875 31.082031 28.175781 31.835938 27.011719 33.042969 L 18.230469 27.96875 L 16.898438 30.277344 L 25.609375 35.3125 C 25.359375 35.992188 25.203125 36.714844 25.203125 37.480469 Z M 42.570312 34.160156 C 42.898438 35.226562 43.0625 36.34375 43.0625 37.480469 C 43.0625 42.707031 39.527344 47.269531 34.464844 48.574219 L 33.800781 45.992188 C 37.683594 44.992188 40.398438 41.492188 40.398438 37.480469 C 40.398438 36.609375 40.269531 35.757812 40.019531 34.941406 Z M 29.402344 45.992188 L 28.738281 48.574219 C 23.675781 47.269531 20.140625 42.707031 20.140625 37.480469 C 20.140625 36.339844 20.304688 35.222656 20.632812 34.160156 L 23.183594 34.941406 C 22.933594 35.753906 22.804688 36.605469 22.804688 37.480469 C 22.804688 41.492188 25.519531 44.992188 29.402344 45.992188 Z M 25.464844 31.179688 L 23.597656 29.273438 C 25.746094 27.171875 28.589844 26.015625 31.601562 26.015625 C 34.613281 26.015625 37.453125 27.171875 39.605469 29.273438 L 37.738281 31.179688 C 36.089844 29.570312 33.910156 28.683594 31.601562 28.683594 C 29.289062 28.683594 27.109375 29.570312 25.464844 31.179688 Z M 17.917969 5.332031 L 45.285156 5.332031 L 51.195312 13.195312 L 12.003906 13.195312 Z M 9.335938 15.863281 L 53.867188 15.863281 C 54.371094 15.863281 54.835938 15.578125 55.0625 15.125 C 55.289062 14.671875 55.238281 14.132812 54.933594 13.726562 L 47.015625 3.199219 C 46.765625 2.863281 46.371094 2.664062 45.953125 2.664062 L 17.25 2.664062 C 16.832031 2.664062 16.4375 2.863281 16.1875 3.199219 L 8.269531 13.726562 C 7.964844 14.132812 7.914062 14.671875 8.140625 15.125 C 8.367188 15.578125 8.828125 15.863281 9.335938 15.863281 Z M 10.746094 58.816406 L 52.535156 58.816406 L 52.535156 20.539062 L 10.746094 20.539062 Z M 53.867188 17.875 L 9.414062 17.875 C 8.679688 17.875 8.082031 18.46875 8.082031 19.207031 L 8.082031 60.152344 C 8.082031 60.886719 8.679688 61.484375 9.414062 61.484375 L 53.867188 61.484375 C 54.605469 61.484375 55.199219 60.886719 55.199219 60.152344 L 55.199219 19.207031 C 55.199219 18.46875 54.605469 17.875 53.867188 17.875 Z M 53.867188 17.875 "/>
</svg>
