<?xml version="1.0" encoding="UTF-8"?>
<svg xmlns="http://www.w3.org/2000/svg" xmlns:xlink="http://www.w3.org/1999/xlink" width="64" height="64" viewBox="0 0 64 64">
<path fill-rule="evenodd" fill="rgb(47.843137%, 63.137257%, 8.627451%)" fill-opacity="1" d="M 61.082031 28.539062 C 60.15625 22.195312 56.816406 16.59375 51.675781 12.761719 C 46.539062 8.929688 40.214844 7.332031 33.867188 8.257812 C 28.503906 9.039062 23.683594 11.566406 20 15.429688 L 20 10.667969 L 17.332031 10.667969 L 17.332031 18.667969 C 17.332031 19.40625 17.929688 20.003906 18.664062 20.003906 L 26.664062 20.003906 L 26.664062 17.335938 L 21.859375 17.335938 C 25.140625 13.863281 29.453125 11.59375 34.253906 10.894531 C 39.882812 10.070312 45.511719 11.492188 50.082031 14.898438 C 54.652344 18.304688 57.621094 23.285156 58.441406 28.925781 C 59.265625 34.5625 57.84375 40.183594 54.4375 44.75 C 50.375 50.203125 44.140625 53.332031 37.332031 53.335938 L 36 53.335938 L 36 56.003906 L 37.335938 56.003906 C 44.992188 55.996094 52.003906 52.476562 56.574219 46.34375 C 60.40625 41.207031 62.007812 34.882812 61.082031 28.539062 Z M 30.664062 47.351562 L 19.796875 29.960938 C 19.480469 29.457031 18.867188 29.226562 18.300781 29.386719 C 17.726562 29.550781 17.332031 30.074219 17.332031 30.667969 L 17.332031 53.335938 L 20 53.335938 L 20 35.320312 L 30.871094 52.710938 C 31.117188 53.105469 31.546875 53.335938 32 53.335938 C 32.121094 53.335938 32.246094 53.320312 32.367188 53.285156 C 32.9375 53.121094 33.332031 52.597656 33.332031 52.003906 L 33.332031 29.335938 L 30.664062 29.335938 Z M 38.410156 25.703125 C 38.34375 26.390625 38.820312 27.023438 39.511719 27.140625 C 41.261719 27.445312 45.332031 28.671875 45.332031 33.582031 C 45.332031 39.3125 40.035156 39.953125 39.542969 40.003906 L 36 40.003906 L 36 42.667969 L 39.652344 42.664062 C 42.539062 42.429688 48 40.230469 48 33.582031 C 48 28.40625 44.539062 25.679688 40.980469 24.734375 C 40.527344 21.816406 38.898438 19.703125 36.503906 19.003906 C 34.890625 18.53125 33.210938 18.816406 31.84375 19.714844 C 31.523438 19.078125 31.167969 18.472656 30.777344 17.910156 L 28.585938 19.429688 C 29.199219 20.316406 29.710938 21.324219 30.101562 22.429688 C 30.265625 22.894531 30.671875 23.230469 31.160156 23.304688 C 31.648438 23.375 32.136719 23.175781 32.429688 22.777344 C 33.238281 21.6875 34.546875 21.207031 35.757812 21.5625 C 37.242188 21.996094 38.230469 23.539062 38.410156 25.703125 Z M 11.117188 24.621094 C 11.117188 25.023438 11.140625 25.417969 11.1875 25.808594 C 11.265625 26.453125 10.867188 27.058594 10.246094 27.246094 C 10.203125 27.261719 10.160156 27.269531 10.113281 27.277344 C 8.292969 27.765625 5.332031 29.214844 5.332031 33.515625 C 5.332031 33.792969 5.34375 34.058594 5.371094 34.3125 C 5.667969 37.484375 8.527344 39.96875 11.882812 39.972656 L 14.667969 39.976562 L 14.664062 42.644531 L 11.878906 42.640625 C 7.164062 42.636719 3.140625 39.089844 2.714844 34.566406 C 2.683594 34.234375 2.664062 33.882812 2.664062 33.515625 C 2.664062 29.464844 4.808594 26.355469 8.457031 25.007812 C 8.453125 24.878906 8.449219 24.75 8.449219 24.621094 C 8.449219 20.742188 10.644531 16.636719 13.914062 14.398438 L 15.417969 16.601562 C 12.886719 18.335938 11.117188 21.632812 11.117188 24.621094 Z M 11.117188 24.621094 "/>
</svg>
