<?xml version="1.0" encoding="UTF-8"?>
<svg xmlns="http://www.w3.org/2000/svg" xmlns:xlink="http://www.w3.org/1999/xlink" width="64" height="64" viewBox="0 0 64 64">
<path fill-rule="evenodd" fill="rgb(47.843137%, 63.137257%, 8.627451%)" fill-opacity="1" d="M 55.921875 45.882812 C 56.40625 46.355469 56.675781 46.992188 56.675781 47.675781 C 56.675781 48.355469 56.40625 48.992188 55.917969 49.464844 L 49.109375 56.089844 C 48.132812 57.039062 46.601562 57.039062 45.621094 56.089844 L 42.765625 53.308594 C 41.417969 54 40.015625 54.566406 38.574219 55.003906 L 38.574219 58.832031 C 38.574219 60.210938 37.453125 61.332031 36.074219 61.332031 L 26.410156 61.332031 C 25.03125 61.332031 23.910156 60.210938 23.910156 58.832031 L 23.910156 55.003906 C 22.46875 54.566406 21.066406 54 19.722656 53.308594 L 16.863281 56.089844 C 15.886719 57.039062 14.351562 57.039062 13.378906 56.085938 L 6.566406 49.464844 C 6.078125 48.992188 5.808594 48.355469 5.808594 47.675781 C 5.808594 46.992188 6.078125 46.355469 6.566406 45.882812 L 9.339844 43.183594 C 8.480469 41.589844 7.808594 39.914062 7.335938 38.183594 L 9.910156 37.484375 C 10.40625 39.316406 11.164062 41.082031 12.152344 42.738281 C 12.46875 43.265625 12.382812 43.945312 11.9375 44.378906 L 8.546875 47.675781 L 15.121094 54.0625 L 18.5625 50.714844 C 18.988281 50.300781 19.636719 50.222656 20.152344 50.511719 C 21.859375 51.476562 23.683594 52.214844 25.574219 52.699219 C 26.164062 52.851562 26.574219 53.382812 26.574219 53.992188 L 26.574219 58.667969 L 35.910156 58.667969 L 35.910156 53.992188 C 35.910156 53.382812 36.320312 52.851562 36.910156 52.699219 C 38.800781 52.214844 40.625 51.476562 42.335938 50.511719 C 42.851562 50.222656 43.496094 50.300781 43.921875 50.714844 L 47.367188 54.0625 L 53.9375 47.675781 L 50.546875 44.378906 C 50.105469 43.945312 50.015625 43.265625 50.332031 42.738281 C 51.324219 41.082031 52.078125 39.316406 52.574219 37.484375 L 55.148438 38.183594 C 54.679688 39.914062 54.007812 41.589844 53.148438 43.183594 Z M 6.566406 18.117188 C 6.078125 17.644531 5.808594 17.007812 5.808594 16.324219 C 5.808594 15.644531 6.078125 15.007812 6.566406 14.53125 L 13.378906 7.910156 C 14.351562 6.960938 15.886719 6.957031 16.863281 7.910156 L 19.722656 10.691406 C 21.066406 10 22.46875 9.433594 23.910156 8.996094 L 23.910156 5.167969 C 23.910156 3.789062 25.03125 2.667969 26.410156 2.667969 L 36.074219 2.667969 C 37.453125 2.667969 38.574219 3.789062 38.574219 5.167969 L 38.574219 8.996094 C 40.015625 9.433594 41.417969 10 42.765625 10.691406 L 45.621094 7.910156 C 46.601562 6.960938 48.132812 6.960938 49.109375 7.914062 L 55.921875 14.535156 C 56.40625 15.007812 56.675781 15.644531 56.675781 16.324219 C 56.675781 17.007812 56.40625 17.644531 55.917969 18.117188 L 53.148438 20.816406 C 54.007812 22.410156 54.679688 24.085938 55.148438 25.816406 L 52.574219 26.515625 C 52.078125 24.683594 51.324219 22.917969 50.332031 21.261719 C 50.015625 20.734375 50.105469 20.054688 50.546875 19.621094 L 53.9375 16.324219 L 47.363281 9.9375 L 43.921875 13.285156 C 43.496094 13.699219 42.851562 13.78125 42.335938 13.488281 C 40.625 12.523438 38.800781 11.785156 36.910156 11.300781 C 36.320312 11.148438 35.910156 10.617188 35.910156 10.007812 L 35.910156 5.332031 L 26.574219 5.332031 L 26.574219 10.007812 C 26.574219 10.617188 26.164062 11.148438 25.574219 11.300781 C 23.683594 11.785156 21.859375 12.523438 20.152344 13.488281 C 19.636719 13.78125 18.988281 13.699219 18.5625 13.285156 L 15.121094 9.9375 L 8.546875 16.324219 L 11.9375 19.621094 C 12.382812 20.054688 12.46875 20.734375 12.152344 21.261719 C 11.164062 22.917969 10.40625 24.683594 9.910156 26.515625 L 7.335938 25.816406 C 7.808594 24.085938 8.480469 22.410156 9.339844 20.816406 Z M 9.875 30.390625 C 10.90625 30.390625 11.75 31.230469 11.75 32.265625 C 11.75 33.296875 10.90625 34.140625 9.875 34.140625 C 8.839844 34.140625 8 33.296875 8 32.265625 C 8 31.230469 8.839844 30.390625 9.875 30.390625 Z M 31.53125 15.148438 C 32.5625 15.148438 33.40625 15.992188 33.40625 17.023438 C 33.40625 18.058594 32.5625 18.898438 31.53125 18.898438 C 30.496094 18.898438 29.65625 18.058594 29.65625 17.023438 C 29.65625 15.992188 30.496094 15.148438 31.53125 15.148438 Z M 53.1875 30.390625 C 54.222656 30.390625 55.0625 31.230469 55.0625 32.265625 C 55.0625 33.296875 54.222656 34.140625 53.1875 34.140625 C 52.152344 34.140625 51.3125 33.296875 51.3125 32.265625 C 51.3125 31.230469 52.152344 30.390625 53.1875 30.390625 Z M 31.503906 50.203125 C 30.46875 50.203125 29.628906 49.359375 29.628906 48.324219 C 29.628906 47.292969 30.46875 46.453125 31.503906 46.453125 C 32.539062 46.453125 33.378906 47.292969 33.378906 48.324219 C 33.378906 49.359375 32.539062 50.203125 31.503906 50.203125 Z M 13.957031 30.3125 L 28.335938 20.246094 C 29.15625 21.0625 30.285156 21.566406 31.53125 21.566406 C 32.777344 21.566406 33.902344 21.0625 34.726562 20.246094 L 49.105469 30.3125 C 48.820312 30.90625 48.644531 31.5625 48.644531 32.265625 C 48.644531 33.203125 48.929688 34.074219 49.421875 34.800781 L 34.699219 45.105469 C 33.878906 44.289062 32.746094 43.785156 31.503906 43.785156 C 30.257812 43.785156 29.128906 44.289062 28.308594 45.105469 L 13.621094 34.824219 C 14.121094 34.09375 14.414062 33.214844 14.414062 32.265625 C 14.414062 31.5625 14.242188 30.90625 13.957031 30.3125 Z M 9.875 36.804688 C 10.476562 36.804688 11.046875 36.683594 11.570312 36.46875 L 11.488281 36.585938 L 27.046875 47.476562 C 26.996094 47.753906 26.960938 48.035156 26.960938 48.324219 C 26.960938 50.832031 29 52.867188 31.503906 52.867188 C 34.007812 52.867188 36.046875 50.832031 36.046875 48.324219 C 36.046875 48.035156 36.011719 47.753906 35.957031 47.476562 L 51.515625 36.585938 L 51.421875 36.449219 C 51.964844 36.679688 52.5625 36.804688 53.1875 36.804688 C 55.691406 36.804688 57.726562 34.769531 57.726562 32.265625 C 57.726562 29.757812 55.691406 27.722656 53.1875 27.722656 C 52.367188 27.722656 51.605469 27.957031 50.941406 28.34375 L 35.988281 17.875 C 36.039062 17.597656 36.070312 17.316406 36.070312 17.023438 C 36.070312 14.519531 34.035156 12.484375 31.53125 12.484375 C 29.027344 12.484375 26.988281 14.519531 26.988281 17.023438 C 26.988281 17.316406 27.023438 17.597656 27.074219 17.875 L 12.121094 28.34375 C 11.457031 27.957031 10.695312 27.722656 9.875 27.722656 C 7.371094 27.722656 5.332031 29.757812 5.332031 32.265625 C 5.332031 34.769531 7.371094 36.804688 9.875 36.804688 Z M 9.875 36.804688 "/>
</svg>
