<?xml version="1.0" encoding="UTF-8"?>
<svg xmlns="http://www.w3.org/2000/svg" xmlns:xlink="http://www.w3.org/1999/xlink" width="64" height="64" viewBox="0 0 64 64">
<path fill-rule="evenodd" fill="rgb(47.843137%, 63.137257%, 8.627451%)" fill-opacity="1" d="M 35.164062 5.332031 L 45.703125 5.332031 L 51.265625 14.332031 L 35.164062 14.332031 Z M 33.828125 16.996094 L 53.660156 16.996094 C 54.140625 16.996094 54.589844 16.734375 54.824219 16.3125 C 55.058594 15.890625 55.046875 15.375 54.792969 14.964844 L 47.582031 3.300781 C 47.339844 2.90625 46.910156 2.667969 46.449219 2.667969 L 33.828125 2.667969 C 33.09375 2.667969 32.496094 3.261719 32.496094 4 L 32.496094 15.664062 C 32.496094 16.402344 33.09375 16.996094 33.828125 16.996094 Z M 27.828125 14.332031 L 11.726562 14.332031 L 17.289062 5.332031 L 27.828125 5.332031 Z M 29.164062 2.667969 L 16.542969 2.667969 C 16.082031 2.667969 15.652344 2.90625 15.410156 3.300781 L 8.199219 14.964844 C 7.945312 15.375 7.933594 15.890625 8.167969 16.3125 C 8.40625 16.734375 8.851562 16.996094 9.332031 16.996094 L 29.164062 16.996094 C 29.902344 16.996094 30.496094 16.402344 30.496094 15.664062 L 30.496094 4 C 30.496094 3.261719 29.902344 2.667969 29.164062 2.667969 Z M 35.164062 58.65625 L 52.324219 58.65625 L 52.324219 21.664062 L 35.164062 21.664062 Z M 53.660156 18.996094 L 33.828125 18.996094 C 33.09375 18.996094 32.496094 19.59375 32.496094 20.332031 L 32.496094 59.988281 C 32.496094 60.726562 33.09375 61.324219 33.828125 61.324219 L 53.660156 61.324219 C 54.394531 61.324219 54.992188 60.726562 54.992188 59.988281 L 54.992188 20.332031 C 54.992188 19.59375 54.394531 18.996094 53.660156 18.996094 Z M 10.667969 58.65625 L 27.828125 58.65625 L 27.828125 21.664062 L 10.667969 21.664062 Z M 29.164062 18.996094 L 9.332031 18.996094 C 8.597656 18.996094 8 19.59375 8 20.332031 L 8 59.988281 C 8 60.726562 8.597656 61.324219 9.332031 61.324219 L 29.164062 61.324219 C 29.902344 61.324219 30.496094 60.726562 30.496094 59.988281 L 30.496094 20.332031 C 30.496094 19.59375 29.902344 18.996094 29.164062 18.996094 Z M 29.164062 18.996094 "/>
</svg>
