<?xml version="1.0" encoding="UTF-8"?>
<svg xmlns="http://www.w3.org/2000/svg" xmlns:xlink="http://www.w3.org/1999/xlink" width="64" height="64" viewBox="0 0 64 64">
<path fill-rule="evenodd" fill="rgb(47.843137%, 63.137257%, 8.627451%)" fill-opacity="1" d="M 54.667969 52 L 54.667969 22.207031 C 54.667969 19.859375 53.480469 17.332031 50.871094 17.332031 L 46.363281 17.332031 C 46.109375 15.59375 45.5 12.695312 44.1875 12.113281 C 44.015625 12.039062 43.832031 12 43.648438 12 L 33.675781 12 C 33.425781 12 33.179688 12.070312 32.96875 12.203125 C 31.804688 12.933594 31.371094 15.664062 31.214844 17.332031 L 28 17.332031 L 28 20 L 32.460938 20 C 33.199219 20 33.792969 19.402344 33.792969 18.667969 C 33.792969 17.742188 34.101562 15.613281 34.414062 14.667969 L 42.980469 14.667969 C 43.367188 15.597656 43.847656 17.835938 43.847656 18.667969 C 43.847656 19.402344 44.441406 20 45.179688 20 L 50.871094 20 C 51.933594 20 52 22.1875 52 22.207031 L 52 50.667969 L 5.332031 50.667969 L 5.332031 22.21875 C 5.34375 21.699219 5.554688 20 7.792969 20 L 12 20 L 12 17.332031 L 7.792969 17.332031 C 4.03125 17.332031 2.667969 20.246094 2.667969 22.207031 L 2.667969 52 C 2.667969 52.738281 3.261719 53.332031 4 53.332031 L 53.332031 53.332031 C 54.070312 53.332031 54.667969 52.738281 54.667969 52 Z M 42.667969 44 C 44.136719 44 45.332031 42.804688 45.332031 41.332031 C 45.332031 39.863281 44.136719 38.667969 42.667969 38.667969 C 41.195312 38.667969 40 39.863281 40 41.332031 C 40 42.804688 41.195312 44 42.667969 44 Z M 42.667969 46.667969 C 39.726562 46.667969 37.332031 44.273438 37.332031 41.332031 C 37.332031 38.390625 39.726562 36 42.667969 36 C 45.609375 36 48 38.390625 48 41.332031 C 48 44.273438 45.609375 46.667969 42.667969 46.667969 Z M 26.230469 36 L 31.101562 36 L 28.667969 31.480469 Z M 22.824219 36.703125 L 27.492188 28.035156 C 27.957031 27.171875 29.375 27.171875 29.839844 28.035156 L 34.507812 36.703125 C 34.730469 37.113281 34.71875 37.613281 34.476562 38.019531 C 34.238281 38.421875 33.800781 38.667969 33.332031 38.667969 L 24 38.667969 C 23.53125 38.667969 23.097656 38.421875 22.855469 38.019531 C 22.613281 37.613281 22.605469 37.113281 22.824219 36.703125 Z M 12 41.332031 L 16 41.332031 L 16 37.332031 L 12 37.332031 Z M 17.332031 34.667969 C 18.070312 34.667969 18.667969 35.265625 18.667969 36 L 18.667969 42.667969 C 18.667969 43.402344 18.070312 44 17.332031 44 L 10.667969 44 C 9.929688 44 9.332031 43.402344 9.332031 42.667969 L 9.332031 36 C 9.332031 35.265625 9.929688 34.667969 10.667969 34.667969 Z M 20 25.332031 C 20.339844 25.332031 20.683594 25.203125 20.941406 24.941406 L 24.941406 20.941406 L 23.058594 19.058594 L 20 22.113281 L 16.941406 19.058594 L 15.058594 20.941406 L 19.058594 24.941406 C 19.316406 25.203125 19.660156 25.332031 20 25.332031 Z M 20 5.886719 L 23.058594 8.941406 L 24.941406 7.058594 L 20.941406 3.058594 C 20.421875 2.535156 19.578125 2.535156 19.058594 3.058594 L 15.058594 7.058594 L 16.941406 8.941406 Z M 18.667969 17.332031 L 21.332031 17.332031 L 21.332031 10.667969 L 18.667969 10.667969 Z M 61.332031 29.433594 L 61.332031 58.667969 C 61.332031 59.402344 60.738281 60 60 60 L 10.667969 60 C 9.929688 60 9.335938 59.40625 9.332031 58.667969 L 9.332031 56 L 12 56 L 12 57.332031 L 58.667969 57.332031 L 58.667969 29.433594 C 58.667969 28.679688 58.054688 28.039062 57.304688 28 L 57.4375 25.339844 C 59.621094 25.445312 61.332031 27.246094 61.332031 29.433594 Z M 61.332031 29.433594 "/>
</svg>
