<?xml version="1.0" encoding="UTF-8"?>
<svg xmlns="http://www.w3.org/2000/svg" xmlns:xlink="http://www.w3.org/1999/xlink" width="64" height="64" viewBox="0 0 64 64">
<path fill-rule="evenodd" fill="rgb(47.843137%, 63.137257%, 8.627451%)" fill-opacity="1" d="M 20.363281 13.332031 L 43.398438 13.332031 L 41.734375 8 L 35.753906 8 C 35.203125 9.550781 33.734375 10.667969 32 10.667969 C 30.265625 10.667969 28.796875 9.550781 28.246094 8 L 22.027344 8 Z M 30.667969 6.667969 C 30.667969 7.402344 31.265625 8 32 8 C 32.734375 8 33.332031 7.402344 33.332031 6.667969 C 33.332031 5.933594 32.734375 5.332031 32 5.332031 C 31.265625 5.332031 30.667969 5.933594 30.667969 6.667969 Z M 17.472656 15.457031 C 17.222656 15.113281 17.148438 14.671875 17.277344 14.269531 L 19.777344 6.269531 C 19.949219 5.710938 20.464844 5.332031 21.046875 5.332031 L 28.246094 5.332031 C 28.796875 3.785156 30.265625 2.667969 32 2.667969 C 33.734375 2.667969 35.203125 3.785156 35.753906 5.332031 L 42.714844 5.332031 C 43.296875 5.332031 43.8125 5.710938 43.988281 6.269531 L 46.488281 14.269531 C 46.613281 14.671875 46.539062 15.113281 46.289062 15.457031 C 46.039062 15.796875 45.636719 16 45.214844 16 L 18.546875 16 C 18.121094 16 17.722656 15.796875 17.472656 15.457031 Z M 52 8 L 48 8 L 48 10.667969 L 52 10.667969 C 52.734375 10.667969 53.332031 11.265625 53.332031 12 L 53.332031 57.332031 C 53.332031 58.066406 52.734375 58.667969 52 58.667969 L 12 58.667969 C 11.265625 58.667969 10.667969 58.066406 10.667969 57.332031 L 10.667969 12 C 10.667969 11.265625 11.265625 10.667969 12 10.667969 L 16 10.667969 L 16 8 L 12 8 C 9.792969 8 8 9.792969 8 12 L 8 57.332031 C 8 59.539062 9.792969 61.332031 12 61.332031 L 52 61.332031 C 54.207031 61.332031 56 59.539062 56 57.332031 L 56 12 C 56 9.792969 54.207031 8 52 8 Z M 19.332031 36.667969 C 19.332031 43.652344 25.015625 49.332031 32 49.332031 C 38.984375 49.332031 44.667969 43.652344 44.667969 36.667969 C 44.667969 29.683594 38.984375 24 32 24 C 25.015625 24 19.332031 29.683594 19.332031 36.667969 Z M 16.667969 36.667969 C 16.667969 28.210938 23.546875 21.332031 32 21.332031 C 40.453125 21.332031 47.332031 28.210938 47.332031 36.667969 C 47.332031 45.121094 40.453125 52 32 52 C 23.546875 52 16.667969 45.121094 16.667969 36.667969 Z M 28.347656 42.328125 L 24.003906 37.984375 L 25.890625 36.097656 L 29.289062 39.5 L 37.664062 31.125 L 39.550781 33.007812 L 30.230469 42.328125 C 29.984375 42.578125 29.644531 42.71875 29.289062 42.71875 C 28.9375 42.71875 28.597656 42.578125 28.347656 42.328125 Z M 28.347656 42.328125 "/>
</svg>
