<?xml version="1.0" encoding="UTF-8"?>
<svg xmlns="http://www.w3.org/2000/svg" xmlns:xlink="http://www.w3.org/1999/xlink" width="64" height="64" viewBox="0 0 64 64">
<path fill-rule="evenodd" fill="rgb(47.843137%, 63.137257%, 8.627451%)" fill-opacity="1" d="M 35.347656 54.855469 L 37.203125 56.773438 L 32.84375 60.980469 C 32.589844 61.230469 32.253906 61.355469 31.921875 61.355469 C 31.570312 61.355469 31.222656 61.21875 30.960938 60.949219 L 26.75 56.597656 L 28.667969 54.742188 L 30.667969 56.808594 L 30.667969 45.332031 L 33.332031 45.332031 L 33.332031 56.800781 Z M 36.304688 50.503906 L 35.734375 47.898438 C 43.339844 46.230469 48.863281 39.363281 48.863281 31.5625 C 48.863281 22.339844 41.359375 14.835938 32.136719 14.835938 C 22.914062 14.835938 15.414062 22.339844 15.414062 31.5625 C 15.414062 39.335938 20.683594 46.023438 28.234375 47.828125 L 27.613281 50.421875 C 18.859375 48.328125 12.746094 40.574219 12.746094 31.5625 C 12.746094 20.871094 21.445312 12.171875 32.136719 12.171875 C 42.828125 12.171875 51.53125 20.871094 51.53125 31.5625 C 51.53125 40.605469 45.125 48.570312 36.304688 50.503906 Z M 61.332031 26.433594 L 61.332031 37.5625 C 61.332031 37.929688 61.183594 38.28125 60.914062 38.535156 C 60.652344 38.785156 60.285156 38.917969 59.925781 38.894531 L 56.378906 38.691406 C 55.824219 40.722656 55.019531 42.671875 53.976562 44.507812 L 56.621094 46.871094 C 56.894531 47.113281 57.058594 47.457031 57.066406 47.828125 C 57.078125 48.191406 56.9375 48.546875 56.675781 48.808594 L 48.808594 56.675781 C 48.546875 56.9375 48.199219 57.089844 47.828125 57.066406 C 47.460938 57.054688 47.113281 56.894531 46.871094 56.621094 L 44.515625 53.980469 C 42.847656 54.933594 41.078125 55.6875 39.242188 56.238281 L 38.480469 53.679688 C 40.445312 53.09375 42.324219 52.242188 44.0625 51.144531 C 44.609375 50.792969 45.335938 50.894531 45.769531 51.382812 L 47.921875 53.792969 L 53.792969 47.917969 L 51.375 45.761719 C 50.890625 45.328125 50.789062 44.605469 51.136719 44.054688 C 52.507812 41.878906 53.488281 39.507812 54.054688 37.007812 C 54.199219 36.371094 54.8125 35.925781 55.429688 35.96875 L 58.667969 36.152344 L 58.667969 27.847656 L 55.429688 28.03125 C 54.8125 28.0625 54.195312 27.628906 54.050781 26.992188 C 53.488281 24.492188 52.503906 22.121094 51.128906 19.949219 C 50.78125 19.398438 50.882812 18.675781 51.371094 18.242188 L 53.792969 16.078125 L 47.921875 10.207031 L 45.75 12.636719 C 45.316406 13.125 44.59375 13.222656 44.042969 12.878906 C 41.875 11.507812 39.503906 10.527344 37.003906 9.960938 C 36.371094 9.816406 35.933594 9.234375 35.96875 8.585938 L 36.15625 5.332031 L 27.847656 5.332031 L 28.03125 8.582031 C 28.070312 9.234375 27.628906 9.816406 26.996094 9.957031 C 24.492188 10.523438 22.125 11.503906 19.953125 12.875 C 19.402344 13.21875 18.679688 13.117188 18.246094 12.632812 L 16.082031 10.207031 L 10.207031 16.078125 L 12.636719 18.246094 C 13.121094 18.679688 13.222656 19.402344 12.875 19.953125 C 11.5 22.128906 10.515625 24.496094 9.953125 26.996094 C 9.808594 27.628906 9.179688 28.0625 8.574219 28.03125 L 5.332031 27.847656 L 5.332031 36.152344 L 8.566406 35.96875 C 9.179688 35.925781 9.800781 36.371094 9.941406 37.007812 C 10.507812 39.515625 11.488281 41.886719 12.863281 44.058594 C 13.210938 44.613281 13.105469 45.332031 12.621094 45.769531 L 10.207031 47.917969 L 16.082031 53.792969 L 18.234375 51.378906 C 18.667969 50.886719 19.390625 50.789062 19.941406 51.136719 C 21.632812 52.207031 23.457031 53.046875 25.363281 53.628906 L 24.582031 56.179688 C 22.8125 55.636719 21.101562 54.898438 19.488281 53.976562 L 17.128906 56.621094 C 16.886719 56.894531 16.542969 57.054688 16.171875 57.066406 C 16.160156 57.066406 16.148438 57.066406 16.136719 57.066406 C 15.78125 57.066406 15.441406 56.925781 15.191406 56.675781 L 7.324219 48.808594 C 7.0625 48.546875 6.921875 48.191406 6.933594 47.824219 C 6.941406 47.457031 7.105469 47.113281 7.378906 46.867188 L 10.023438 44.511719 C 8.980469 42.679688 8.171875 40.730469 7.617188 38.691406 L 4.074219 38.894531 C 3.710938 38.921875 3.351562 38.785156 3.085938 38.535156 C 2.820312 38.28125 2.667969 37.929688 2.667969 37.5625 L 2.667969 26.433594 C 2.667969 26.066406 2.820312 25.71875 3.085938 25.464844 C 3.351562 25.214844 3.710938 25.082031 4.074219 25.105469 L 7.625 25.304688 C 8.183594 23.277344 8.988281 21.332031 10.039062 19.5 L 7.378906 17.128906 C 7.105469 16.886719 6.941406 16.539062 6.933594 16.171875 C 6.921875 15.808594 7.0625 15.453125 7.324219 15.191406 L 15.191406 7.324219 C 15.453125 7.0625 15.816406 6.929688 16.171875 6.933594 C 16.542969 6.945312 16.886719 7.105469 17.128906 7.378906 L 19.5 10.035156 C 21.332031 8.992188 23.277344 8.1875 25.308594 7.632812 L 25.105469 4.074219 C 25.085938 3.710938 25.214844 3.351562 25.464844 3.085938 C 25.71875 2.816406 26.066406 2.667969 26.433594 2.667969 L 37.566406 2.667969 C 37.933594 2.667969 38.28125 2.816406 38.535156 3.085938 C 38.785156 3.351562 38.917969 3.710938 38.894531 4.074219 L 38.695312 7.632812 C 40.722656 8.191406 42.664062 8.996094 44.496094 10.039062 L 46.871094 7.378906 C 47.113281 7.105469 47.460938 6.945312 47.828125 6.933594 C 48.191406 6.925781 48.546875 7.0625 48.808594 7.324219 L 56.675781 15.191406 C 56.9375 15.453125 57.078125 15.808594 57.066406 16.171875 C 57.058594 16.542969 56.894531 16.886719 56.621094 17.128906 L 53.96875 19.496094 C 55.015625 21.328125 55.820312 23.273438 56.378906 25.304688 L 59.925781 25.105469 C 60.289062 25.085938 60.652344 25.214844 60.914062 25.464844 C 61.183594 25.71875 61.332031 26.066406 61.332031 26.433594 Z M 36 34.667969 C 37.46875 34.667969 38.667969 35.863281 38.667969 37.332031 C 38.667969 38.804688 37.46875 40 36 40 C 34.53125 40 33.332031 38.804688 33.332031 37.332031 C 33.332031 35.863281 34.53125 34.667969 36 34.667969 Z M 36 42.667969 C 38.941406 42.667969 41.332031 40.273438 41.332031 37.332031 C 41.332031 34.390625 38.941406 32 36 32 C 33.058594 32 30.667969 34.390625 30.667969 37.332031 C 30.667969 40.273438 33.058594 42.667969 36 42.667969 Z M 37.917969 22.785156 L 40.039062 26.667969 L 35.707031 26.667969 Z M 33.410156 29.332031 L 42.289062 29.332031 C 42.761719 29.332031 43.195312 29.085938 43.433594 28.679688 C 43.675781 28.273438 43.683594 27.773438 43.457031 27.359375 L 39.109375 19.414062 C 38.878906 18.988281 38.4375 18.722656 37.953125 18.71875 C 37.515625 18.734375 37.023438 18.972656 36.785156 19.390625 L 32.253906 27.339844 C 32.015625 27.753906 32.015625 28.257812 32.257812 28.667969 C 32.496094 29.078125 32.933594 29.332031 33.410156 29.332031 Z M 21.332031 33.332031 L 25.332031 33.332031 L 25.332031 29.332031 L 21.332031 29.332031 Z M 20 26.667969 C 19.265625 26.667969 18.667969 27.265625 18.667969 28 L 18.667969 34.667969 C 18.667969 35.402344 19.265625 36 20 36 L 26.667969 36 C 27.402344 36 28 35.402344 28 34.667969 L 28 28 C 28 27.265625 27.402344 26.667969 26.667969 26.667969 Z M 20 26.667969 "/>
</svg>
