<?xml version="1.0" encoding="UTF-8"?>
<svg xmlns="http://www.w3.org/2000/svg" xmlns:xlink="http://www.w3.org/1999/xlink" width="64" height="64" viewBox="0 0 64 64">
<path fill-rule="evenodd" fill="rgb(47.843137%, 63.137257%, 8.627451%)" fill-opacity="1" d="M 29.273438 17.066406 C 29.273438 19.105469 27.613281 20.765625 25.574219 20.765625 C 23.53125 20.765625 21.875 19.105469 21.875 17.066406 C 21.875 15.027344 23.53125 13.367188 25.574219 13.367188 C 27.613281 13.367188 29.273438 15.027344 29.273438 17.066406 Z M 31.9375 17.066406 C 31.9375 13.554688 29.082031 10.703125 25.574219 10.703125 C 22.0625 10.703125 19.207031 13.554688 19.207031 17.066406 C 19.207031 20.578125 22.0625 23.433594 25.574219 23.433594 C 29.082031 23.433594 31.9375 20.578125 31.9375 17.066406 Z M 24.195312 25.457031 L 23.207031 25.191406 C 22.511719 25.007812 21.988281 24.71875 21.332031 24.332031 L 20.4375 23.8125 L 18.839844 25.421875 L 17.191406 23.761719 L 18.074219 22.875 L 18.730469 22.035156 L 18.21875 21.152344 C 17.84375 20.503906 17.597656 20.074219 17.429688 19.4375 L 17.167969 18.441406 L 14.90625 18.441406 L 14.90625 15.691406 L 17.183594 15.691406 L 17.445312 14.699219 C 17.632812 13.992188 17.933594 13.445312 18.308594 12.808594 L 18.828125 11.917969 L 17.214844 10.3125 L 18.875 8.660156 L 19.761719 9.546875 L 20.585938 10.210938 L 21.46875 9.699219 C 22.128906 9.316406 22.5625 9.066406 23.203125 8.894531 L 24.195312 8.632812 L 24.195312 6.398438 L 26.949219 6.398438 L 26.949219 8.667969 L 27.9375 8.929688 C 28.5625 9.097656 28.988281 9.347656 29.726562 9.785156 L 30.625 10.316406 L 32.203125 8.714844 L 33.820312 10.351562 L 32.234375 11.960938 L 32.738281 12.839844 C 33.125 13.515625 33.40625 14.003906 33.585938 14.695312 L 33.847656 15.691406 L 36.238281 15.691406 L 36.238281 18.441406 L 33.960938 18.441406 L 33.695312 19.433594 C 33.523438 20.09375 33.269531 20.542969 32.835938 21.285156 L 32.316406 22.175781 L 33.925781 23.777344 L 32.265625 25.425781 L 30.648438 23.820312 L 29.648438 24.402344 C 29.003906 24.777344 28.578125 25.023438 27.945312 25.191406 L 26.949219 25.453125 L 26.949219 27.734375 L 24.195312 27.734375 Z M 29.617188 28.566406 L 29.617188 27.429688 C 29.824219 27.339844 30.019531 27.242188 30.210938 27.144531 L 30.96875 27.898438 C 31.683594 28.613281 32.84375 28.613281 33.558594 27.902344 L 36.402344 25.078125 C 36.75 24.730469 36.941406 24.269531 36.941406 23.777344 C 36.941406 23.285156 36.75 22.824219 36.402344 22.476562 L 35.644531 21.726562 C 35.746094 21.53125 35.84375 21.324219 35.9375 21.109375 L 37.074219 21.109375 C 38.082031 21.109375 38.90625 20.289062 38.90625 19.277344 L 38.90625 14.855469 C 38.90625 13.84375 38.082031 13.023438 37.074219 13.023438 L 35.832031 13.023438 C 35.742188 12.808594 35.644531 12.601562 35.542969 12.402344 L 36.296875 11.636719 C 36.996094 10.929688 36.996094 9.777344 36.296875 9.066406 L 33.507812 6.238281 C 33.160156 5.886719 32.695312 5.691406 32.203125 5.691406 L 32.199219 5.691406 C 31.707031 5.695312 31.242188 5.886719 30.898438 6.238281 L 30.175781 6.972656 C 29.996094 6.878906 29.8125 6.785156 29.617188 6.703125 L 29.617188 5.566406 C 29.617188 4.554688 28.792969 3.734375 27.78125 3.734375 L 23.363281 3.734375 C 22.351562 3.734375 21.53125 4.554688 21.53125 5.566406 L 21.53125 6.660156 C 21.324219 6.746094 21.125 6.84375 20.929688 6.945312 L 20.171875 6.1875 C 19.484375 5.496094 18.269531 5.496094 17.582031 6.183594 L 14.742188 9.011719 C 14.394531 9.359375 14.203125 9.820312 14.203125 10.3125 C 14.203125 10.804688 14.394531 11.265625 14.742188 11.613281 L 15.503906 12.371094 C 15.398438 12.578125 15.296875 12.796875 15.203125 13.023438 L 14.074219 13.023438 C 13.0625 13.023438 12.238281 13.84375 12.238281 14.855469 L 12.238281 19.277344 C 12.238281 20.289062 13.0625 21.109375 14.074219 21.109375 L 15.191406 21.109375 C 15.277344 21.316406 15.375 21.511719 15.476562 21.707031 L 14.714844 22.472656 C 14.011719 23.183594 14.011719 24.339844 14.71875 25.054688 L 17.535156 27.894531 C 18.230469 28.59375 19.449219 28.59375 20.136719 27.894531 L 20.890625 27.136719 C 21.097656 27.242188 21.308594 27.34375 21.53125 27.433594 L 21.53125 28.566406 C 21.53125 29.578125 22.351562 30.398438 23.363281 30.398438 L 27.78125 30.398438 C 28.792969 30.398438 29.617188 29.578125 29.617188 28.566406 Z M 54.667969 53.308594 L 54.667969 23.511719 C 54.667969 21.164062 53.480469 18.640625 50.871094 18.640625 L 46.363281 18.640625 C 46.109375 16.898438 45.5 14.003906 44.1875 13.421875 C 44.015625 13.34375 43.832031 13.308594 43.648438 13.308594 L 41.332031 13.308594 L 41.332031 15.972656 L 42.980469 15.972656 C 43.367188 16.902344 43.847656 19.144531 43.847656 19.972656 C 43.847656 20.710938 44.441406 21.308594 45.179688 21.308594 L 50.871094 21.308594 C 51.933594 21.308594 52 23.496094 52 23.511719 L 52 51.972656 L 5.332031 51.972656 L 5.332031 23.523438 C 5.34375 23.003906 5.554688 21.308594 7.792969 21.308594 L 9.332031 21.308594 L 9.332031 18.640625 L 7.792969 18.640625 C 4.03125 18.640625 2.667969 21.554688 2.667969 23.511719 L 2.667969 53.308594 C 2.667969 54.042969 3.261719 54.640625 4 54.640625 L 53.332031 54.640625 C 54.070312 54.640625 54.667969 54.042969 54.667969 53.308594 Z M 46.667969 43.972656 C 46.667969 45.445312 45.46875 46.640625 44 46.640625 C 42.53125 46.640625 41.332031 45.445312 41.332031 43.972656 C 41.332031 42.503906 42.53125 41.308594 44 41.308594 C 45.46875 41.308594 46.667969 42.503906 46.667969 43.972656 Z M 49.332031 43.972656 C 49.332031 41.03125 46.941406 38.640625 44 38.640625 C 41.058594 38.640625 38.667969 41.03125 38.667969 43.972656 C 38.667969 46.914062 41.058594 49.308594 44 49.308594 C 46.941406 49.308594 49.332031 46.914062 49.332031 43.972656 Z M 28.667969 36.785156 L 31.101562 41.308594 L 26.230469 41.308594 Z M 34.476562 43.324219 C 34.71875 42.921875 34.730469 42.421875 34.507812 42.007812 L 29.839844 33.339844 C 29.375 32.476562 27.957031 32.476562 27.492188 33.339844 L 22.824219 42.007812 C 22.605469 42.421875 22.613281 42.921875 22.855469 43.324219 C 23.097656 43.726562 23.53125 43.972656 24 43.972656 L 33.332031 43.972656 C 33.800781 43.972656 34.238281 43.726562 34.476562 43.324219 Z M 10.667969 46.640625 L 14.667969 46.640625 L 14.667969 42.640625 L 10.667969 42.640625 Z M 17.332031 47.972656 L 17.332031 41.308594 C 17.332031 40.570312 16.738281 39.972656 16 39.972656 L 9.332031 39.972656 C 8.597656 39.972656 8 40.570312 8 41.308594 L 8 47.972656 C 8 48.710938 8.597656 49.308594 9.332031 49.308594 L 16 49.308594 C 16.738281 49.308594 17.332031 48.710938 17.332031 47.972656 Z M 60 61.308594 L 10.667969 61.308594 C 9.929688 61.308594 9.335938 60.710938 9.332031 59.976562 L 9.332031 57.308594 L 12 57.308594 L 12 58.640625 L 58.667969 58.640625 L 58.667969 30.738281 C 58.667969 29.988281 58.054688 29.34375 57.304688 29.308594 L 57.4375 26.644531 C 59.621094 26.753906 61.332031 28.550781 61.332031 30.738281 L 61.332031 59.972656 C 61.332031 60.710938 60.738281 61.308594 60 61.308594 Z M 60 61.308594 "/>
</svg>
