<?xml version="1.0" encoding="UTF-8"?>
<svg xmlns="http://www.w3.org/2000/svg" xmlns:xlink="http://www.w3.org/1999/xlink" width="64" height="64" viewBox="0 0 64 64">
<path fill-rule="evenodd" fill="rgb(47.843137%, 63.137257%, 8.627451%)" fill-opacity="1" d="M 48.726562 19.128906 L 43.824219 19.128906 L 43.824219 9.449219 L 48.726562 9.449219 L 48.726562 10.539062 L 45.175781 10.539062 L 45.175781 13.585938 L 48.109375 13.585938 L 48.109375 14.671875 L 45.175781 14.671875 L 45.175781 18.039062 L 48.726562 18.039062 Z M 36.855469 19.128906 L 35.5 19.128906 L 35.5 9.449219 L 36.855469 9.449219 L 36.855469 13.625 L 40.375 13.625 L 40.375 9.449219 L 41.730469 9.449219 L 41.730469 19.128906 L 40.375 19.128906 L 40.375 14.730469 L 36.855469 14.730469 Z M 28.28125 14.324219 C 28.28125 12.695312 28.601562 11.457031 29.246094 10.609375 C 29.886719 9.761719 30.832031 9.339844 32.078125 9.339844 C 32.675781 9.339844 33.273438 9.464844 33.878906 9.714844 L 33.878906 10.820312 C 33.257812 10.625 32.707031 10.527344 32.234375 10.527344 C 31.359375 10.527344 30.71875 10.8125 30.3125 11.382812 C 29.910156 11.957031 29.707031 12.875 29.707031 14.144531 L 29.707031 14.476562 C 29.707031 15.746094 29.902344 16.660156 30.292969 17.230469 C 30.683594 17.796875 31.3125 18.082031 32.175781 18.082031 C 32.59375 18.082031 33.199219 17.964844 33.992188 17.730469 L 33.992188 18.835938 C 33.386719 19.121094 32.730469 19.265625 32.023438 19.265625 C 29.53125 19.265625 28.28125 17.621094 28.28125 14.324219 Z M 24.121094 10.75 L 25.320312 15.484375 L 22.917969 15.484375 Z M 22.667969 16.515625 L 25.585938 16.515625 L 26.253906 19.128906 L 27.679688 19.128906 L 24.886719 9.449219 L 23.421875 9.449219 L 20.628906 19.128906 L 22.011719 19.128906 Z M 14.332031 14.324219 C 14.332031 12.695312 14.652344 11.457031 15.296875 10.609375 C 15.9375 9.761719 16.882812 9.339844 18.128906 9.339844 C 18.726562 9.339844 19.324219 9.464844 19.929688 9.714844 L 19.929688 10.820312 C 19.308594 10.625 18.757812 10.527344 18.285156 10.527344 C 17.410156 10.527344 16.769531 10.8125 16.363281 11.382812 C 15.957031 11.957031 15.757812 12.875 15.757812 14.144531 L 15.757812 14.476562 C 15.757812 15.746094 15.953125 16.660156 16.34375 17.230469 C 16.734375 17.796875 17.363281 18.082031 18.226562 18.082031 C 18.644531 18.082031 19.253906 17.964844 20.042969 17.730469 L 20.042969 18.835938 C 19.4375 19.121094 18.78125 19.265625 18.074219 19.265625 C 15.582031 19.265625 14.332031 17.621094 14.332031 14.324219 Z M 52.21875 58.523438 L 40.921875 58.523438 L 40.921875 51.710938 C 40.921875 50.972656 40.324219 50.375 39.589844 50.375 L 23.296875 50.375 C 22.558594 50.375 21.964844 50.972656 21.964844 51.710938 L 21.964844 58.523438 L 10.667969 58.523438 L 10.667969 5.332031 L 52.21875 5.332031 Z M 53.550781 2.667969 L 9.332031 2.667969 C 8.597656 2.667969 8 3.261719 8 4 L 8 59.855469 C 8 60.59375 8.597656 61.1875 9.332031 61.1875 L 23.296875 61.1875 C 24.035156 61.1875 24.632812 60.59375 24.632812 59.855469 L 24.632812 53.042969 L 38.253906 53.042969 L 38.253906 59.855469 C 38.253906 60.59375 38.851562 61.1875 39.589844 61.1875 L 53.550781 61.1875 C 54.289062 61.1875 54.886719 60.59375 54.886719 59.855469 L 54.886719 4 C 54.886719 3.261719 54.289062 2.667969 53.550781 2.667969 Z M 53.550781 2.667969 "/>
</svg>
