<?xml version="1.0" encoding="UTF-8"?><svg version="1.1" width="48px" height="48px" viewBox="0 0 48.0 48.0" xmlns="http://www.w3.org/2000/svg" xmlns:xlink="http://www.w3.org/1999/xlink"><defs><clipPath id="i0"><path d="M23.402,0.192103088 C28.162,-0.501896912 32.904,0.698103088 36.757,3.57110309 C40.612,6.44510309 43.117,10.6471031 43.811,15.4041031 C44.505,20.1611031 43.304,24.9041031 40.431,28.7581031 C37.003,33.3581031 31.745,35.9981031 26.001,36.0021031 L25,36.0021031 L25,34.0021031 L26,34.0021031 C31.105,33.9981031 35.781,31.6521031 38.828,27.5631031 C41.382,24.1371031 42.449,19.9211031 41.832,15.6931031 C41.215,11.4641031 38.989,7.72910309 35.562,5.17510309 C32.134,2.62010309 27.914,1.55410309 23.691,2.17110309 C20.091,2.69610309 16.856,4.39710309 14.396,7.00210309 L18,7.00210309 L18,9.00210309 L12,9.00210309 C11.448,9.00210309 11,8.55410309 11,8.00210309 L11,2.00210309 L13,2.00210309 L13,5.57210309 C15.762,2.67410309 19.378,0.779103088 23.402,0.192103088 Z M23,16.0021031 L23,33.0021031 C23,33.4481031 22.705,33.8411031 22.276,33.9641031 C22.185,33.9891031 22.092,34.0021031 22,34.0021031 C21.662,34.0021031 21.338,33.8301031 21.153,33.5321031 L13,20.4891031 L13,34.0021031 L11,34.0021031 L11,17.0021031 C11,16.5561031 11.296,16.1641031 11.725,16.0411031 C12.151,15.9201031 12.612,16.0931031 12.848,16.4721031 L21,29.5151031 L21,16.0021031 L23,16.0021031 Z M21.083,7.43210309 C21.377,7.85610309 21.644,8.30810309 21.882,8.78610309 C22.91,8.11110309 24.168,7.89910309 25.379,8.25210309 C27.173,8.77710309 28.396,10.3611031 28.735,12.5521031 C31.405,13.2601031 34,15.3061031 34,19.1871031 C34,24.1731031 29.905,25.8231031 27.739,25.9991031 L25,26.0021031 L25,24.0021031 L27.658,24.0021031 C28.026,23.9651031 32,23.4851031 32,19.1871031 C32,15.5051031 28.947,14.5831031 27.634,14.3571031 C27.115,14.2681031 26.757,13.7941031 26.808,13.2761031 C26.672,11.6541031 25.933,10.4981031 24.818,10.1721031 C23.91,9.90510309 22.929,10.2651031 22.324,11.0841031 C22.104,11.3821031 21.736,11.5311031 21.372,11.4791031 C21.005,11.4241031 20.7,11.1721031 20.576,10.8231031 C20.283,9.99310309 19.901,9.23610309 19.441,8.57210309 Z M8.436,4.80010309 L9.565,6.45010309 C7.665,7.75110309 6.337,10.2241031 6.337,12.4651031 C6.337,12.7671031 6.355,13.0651031 6.391,13.3571031 C6.449,13.8401031 6.152,14.2951031 5.686,14.4341031 C5.653,14.4451031 5.62,14.4521031 5.586,14.4591031 C4.219,14.8231031 2,15.9121031 2,19.1371031 C2,19.3441031 2.009,19.5441031 2.028,19.7351031 C2.251,22.1141031 4.396,23.9781031 6.912,23.9811031 L9.001,23.9831031 L8.999,25.9831031 L6.91,25.9811031 C3.373,25.9771031 0.355,23.3171031 0.037,19.9251031 C0.013,19.6751031 0,19.4111031 0,19.1371031 C0,16.0981031 1.607,13.7671031 4.342,12.7571031 C4.339,12.6591031 4.337,12.5621031 4.337,12.4651031 C4.337,9.55810309 5.985,6.47810309 8.436,4.80010309 Z"></path></clipPath></defs><g transform="translate(1.9995000000001184 5.999796912281045)"><g clip-path="url(#i0)"><polygon points="0,-4.4408921e-16 44.0030129,-4.4408921e-16 44.0030129,36.0021031 0,36.0021031 0,-4.4408921e-16" stroke="none" fill="#3E8523"></polygon></g></g></svg>