<?xml version="1.0" encoding="UTF-8"?>
<svg width="80px" height="80px" viewBox="0 0 80 80" version="1.1" xmlns="http://www.w3.org/2000/svg" xmlns:xlink="http://www.w3.org/1999/xlink">
    <title>Icon-Architecture/64/Arch_Amazon-DataZone_64</title>
    <defs>
        <linearGradient x1="0%" y1="100%" x2="100%" y2="0%" id="linearGradient-1">
            <stop stop-color="#4D27A8" offset="0%"></stop>
            <stop stop-color="#A166FF" offset="100%"></stop>
        </linearGradient>
    </defs>
    <g id="Icon-Architecture/64/Arch_Amazon-DataZone_64" stroke="none" stroke-width="1" fill="none" fill-rule="evenodd">
        <g id="Icon-Architecture-BG/64/Analytics" fill="url(#linearGradient-1)">
            <rect id="Rectangle" x="0" y="0" width="80" height="80"></rect>
        </g>
        <g id="Icon-Service/64/Amazon-DataZone_64" transform="translate(12.000000, 12.000000)" fill="#FFFFFF">
            <path d="M20.70725,9.70725 L19.29325,8.29325 L27.29325,0.29325 C27.68425,-0.09775 28.31625,-0.09775 28.70725,0.29325 L36.70725,8.29325 L35.29325,9.70725 L28.00025,2.41425 L20.70725,9.70725 Z M55.70725,28.70725 L47.70725,36.70725 L46.29325,35.29325 L53.58625,28.00025 L46.29325,20.70725 L47.70725,19.29325 L55.70725,27.29325 C56.09825,27.68425 56.09825,28.31625 55.70725,28.70725 L55.70725,28.70725 Z M35.29325,46.29325 L36.70725,47.70725 L28.70725,55.70725 C28.51225,55.90225 28.25625,56.00025 28.00025,56.00025 C27.74425,56.00025 27.48825,55.90225 27.29325,55.70725 L19.29325,47.70725 L20.70725,46.29325 L28.00025,53.58625 L35.29325,46.29325 Z M9.70725,35.29325 L8.29325,36.70725 L0.29325,28.70725 C-0.09775,28.31625 -0.09775,27.68425 0.29325,27.29325 L8.29325,19.29325 L9.70725,20.70725 L2.41425,28.00025 L9.70725,35.29325 Z M41.50025,45.00025 C39.57025,45.00025 38.00025,43.43025 38.00025,41.50025 C38.00025,39.57025 39.57025,38.00025 41.50025,38.00025 C43.43025,38.00025 45.00025,39.57025 45.00025,41.50025 C45.00025,43.43025 43.43025,45.00025 41.50025,45.00025 L41.50025,45.00025 Z M36.60725,39.00025 L19.39325,39.00025 C18.86625,37.97325 18.02725,37.13425 17.00025,36.60725 L17.00025,19.39325 C18.02725,18.86625 18.86625,18.02725 19.39325,17.00025 L36.60725,17.00025 C37.13425,18.02725 37.97325,18.86625 39.00025,19.39325 L39.00025,36.60725 C37.97325,37.13425 37.13425,37.97325 36.60725,39.00025 L36.60725,39.00025 Z M14.50025,45.00025 C12.57025,45.00025 11.00025,43.43025 11.00025,41.50025 C11.00025,39.57025 12.57025,38.00025 14.50025,38.00025 C16.43025,38.00025 18.00025,39.57025 18.00025,41.50025 C18.00025,43.43025 16.43025,45.00025 14.50025,45.00025 L14.50025,45.00025 Z M11.00025,14.50025 C11.00025,12.57025 12.57025,11.00025 14.50025,11.00025 C16.43025,11.00025 18.00025,12.57025 18.00025,14.50025 C18.00025,16.43025 16.43025,18.00025 14.50025,18.00025 C12.57025,18.00025 11.00025,16.43025 11.00025,14.50025 L11.00025,14.50025 Z M41.50025,11.00025 C43.43025,11.00025 45.00025,12.57025 45.00025,14.50025 C45.00025,16.43025 43.43025,18.00025 41.50025,18.00025 C39.57025,18.00025 38.00025,16.43025 38.00025,14.50025 C38.00025,12.57025 39.57025,11.00025 41.50025,11.00025 L41.50025,11.00025 Z M41.50025,36.00025 C41.33125,36.00025 41.16525,36.01025 41.00025,36.02525 L41.00025,19.97525 C41.16525,19.99025 41.33125,20.00025 41.50025,20.00025 C44.53225,20.00025 47.00025,17.53325 47.00025,14.50025 C47.00025,11.46725 44.53225,9.00025 41.50025,9.00025 C38.46825,9.00025 36.00025,11.46725 36.00025,14.50025 C36.00025,14.66925 36.01025,14.83525 36.02525,15.00025 L19.97525,15.00025 C19.99025,14.83525 20.00025,14.66925 20.00025,14.50025 C20.00025,11.46725 17.53225,9.00025 14.50025,9.00025 C11.46825,9.00025 9.00025,11.46725 9.00025,14.50025 C9.00025,17.53325 11.46825,20.00025 14.50025,20.00025 C14.66925,20.00025 14.83525,19.99025 15.00025,19.97525 L15.00025,36.02525 C14.83525,36.01025 14.66925,36.00025 14.50025,36.00025 C11.46825,36.00025 9.00025,38.46725 9.00025,41.50025 C9.00025,44.53325 11.46825,47.00025 14.50025,47.00025 C17.53225,47.00025 20.00025,44.53325 20.00025,41.50025 C20.00025,41.33125 19.99025,41.16525 19.97525,41.00025 L36.02525,41.00025 C36.01025,41.16525 36.00025,41.33125 36.00025,41.50025 C36.00025,44.53325 38.46825,47.00025 41.50025,47.00025 C44.53225,47.00025 47.00025,44.53325 47.00025,41.50025 C47.00025,38.46725 44.53225,36.00025 41.50025,36.00025 L41.50025,36.00025 Z" id="Fill-5"></path>
        </g>
    </g>
</svg>