<?xml version="1.0" encoding="UTF-8"?>
<svg width="80px" height="80px" viewBox="0 0 80 80" version="1.1" xmlns="http://www.w3.org/2000/svg" xmlns:xlink="http://www.w3.org/1999/xlink">
    <title>Icon-Architecture/64/Arch_AWS-Clean-Rooms_64</title>
    <defs>
        <linearGradient x1="0%" y1="100%" x2="100%" y2="0%" id="linearGradient-1">
            <stop stop-color="#4D27A8" offset="0%"></stop>
            <stop stop-color="#A166FF" offset="100%"></stop>
        </linearGradient>
    </defs>
    <g id="Icon-Architecture/64/Arch_AWS-Clean-Rooms_64" stroke="none" stroke-width="1" fill="none" fill-rule="evenodd">
        <g id="Icon-Architecture-BG/64/Analytics" fill="url(#linearGradient-1)">
            <rect id="Rectangle" x="0" y="0" width="80" height="80"></rect>
        </g>
        <g id="Icon-Service/64/AWS-Clean-Rooms_64" transform="translate(12.000000, 12.000000)" fill="#FFFFFF">
            <path d="M53.11775,48.122 C51.98475,49.255 50.00875,49.255 48.87575,48.122 C47.70575,46.952 47.70575,45.049 48.87575,43.879 C49.44175,43.312 50.19475,43 50.99675,43 C51.79875,43 52.55175,43.312 53.11775,43.879 C54.28775,45.049 54.28775,46.952 53.11775,48.122 L53.11775,48.122 Z M50.99675,41 C50.00075,41 49.05075,41.291 48.23975,41.829 L43.70375,37.293 L42.28975,38.707 L46.82575,43.244 C45.54275,45.184 45.75475,47.829 47.46175,49.536 C48.40575,50.48 49.66075,51 50.99675,51 C52.33275,51 53.58775,50.48 54.53175,49.536 C56.48075,47.586 56.48075,44.414 54.53175,42.465 C53.58775,41.52 52.33275,41 50.99675,41 L50.99675,41 Z M48.87575,7.879 C49.44175,7.312 50.19475,7 50.99675,7 C51.79875,7 52.55175,7.312 53.11775,7.879 C54.28775,9.049 54.28775,10.952 53.11775,12.122 C51.98475,13.255 50.00875,13.255 48.87575,12.122 C47.70575,10.952 47.70575,9.049 48.87575,7.879 L48.87575,7.879 Z M43.70375,18.707 L48.23975,14.171 C49.05075,14.71 50.00075,15 50.99675,15 C52.33275,15 53.58775,14.48 54.53175,13.536 C56.48075,11.586 56.48075,8.414 54.53175,6.465 C53.58775,5.52 52.33275,5 50.99675,5 C49.66075,5 48.40575,5.52 47.46175,6.465 C45.75475,8.172 45.54275,10.817 46.82575,12.757 L42.28975,17.293 L43.70375,18.707 Z M7.11775,48.122 C5.98475,49.255 4.00875,49.255 2.87575,48.122 C1.70575,46.952 1.70575,45.049 2.87575,43.879 C3.44175,43.312 4.19475,43 4.99675,43 C5.79875,43 6.55175,43.312 7.11775,43.879 C8.28775,45.049 8.28775,46.952 7.11775,48.122 L7.11775,48.122 Z M12.28975,37.293 L7.75375,41.829 C6.94275,41.291 5.99275,41 4.99675,41 C3.66075,41 2.40575,41.52 1.46175,42.465 C-0.48725,44.414 -0.48725,47.586 1.46175,49.536 C2.40575,50.48 3.66075,51 4.99675,51 C6.33275,51 7.58775,50.48 8.53175,49.536 C10.23875,47.829 10.45075,45.184 9.16775,43.244 L13.70375,38.707 L12.28975,37.293 Z M27.99675,29 C28.82375,29 29.49675,29.673 29.49675,30.5 C29.49675,31.328 28.82375,32 27.99675,32 C27.16975,32 26.49675,31.328 26.49675,30.5 C26.49675,29.673 27.16975,29 27.99675,29 L27.99675,29 Z M27.02775,33.847 L27.02775,37 L29.02775,37 L29.02775,33.828 C30.45275,33.384 31.49675,32.069 31.49675,30.5 C31.49675,28.571 29.92675,27 27.99675,27 C26.06675,27 24.49675,28.571 24.49675,30.5 C24.49675,32.092 25.57075,33.424 27.02775,33.847 L27.02775,33.847 Z M2.87575,12.122 C1.70575,10.952 1.70575,9.049 2.87575,7.879 C3.44175,7.312 4.19475,7 4.99675,7 C5.79875,7 6.55175,7.312 7.11775,7.879 C8.28775,9.049 8.28775,10.952 7.11775,12.122 C5.98475,13.255 4.00875,13.255 2.87575,12.122 L2.87575,12.122 Z M8.53175,6.465 C7.58775,5.52 6.33275,5 4.99675,5 C3.66075,5 2.40575,5.52 1.46175,6.465 C-0.48725,8.414 -0.48725,11.586 1.46175,13.536 C2.40575,14.48 3.66075,15 4.99675,15 C5.99275,15 6.94275,14.71 7.75375,14.171 L12.28975,18.707 L13.70375,17.293 L9.16775,12.757 C10.45075,10.817 10.23875,8.172 8.53175,6.465 L8.53175,6.465 Z M16.99675,40 L38.99675,40 L38.99675,25 L16.99675,25 L16.99675,40 Z M21.97275,18.953 C21.97275,17.325 23.32975,16 24.99675,16 L30.97275,16 C32.63975,16 33.99675,17.325 33.99675,18.953 L33.99675,23 L21.97275,23 L21.97275,18.953 Z M30.99675,51 C30.99675,52.655 29.65075,54 27.99675,54 C26.34275,54 24.99675,52.655 24.99675,51 C24.99675,49.346 26.34275,48 27.99675,48 C29.65075,48 30.99675,49.346 30.99675,51 L30.99675,51 Z M24.99675,5 C24.99675,3.346 26.34275,2 27.99675,2 C29.65075,2 30.99675,3.346 30.99675,5 C30.99675,6.655 29.65075,8 27.99675,8 C26.34275,8 24.99675,6.655 24.99675,5 L24.99675,5 Z M39.25375,23 L35.99675,23 L35.99675,18.953 C35.99675,16.222 33.74275,14 30.97275,14 L28.99675,14 L28.99675,9.899 C31.27575,9.435 32.99675,7.415 32.99675,5 C32.99675,2.244 30.75375,0 27.99675,0 C25.23975,0 22.99675,2.244 22.99675,5 C22.99675,7.415 24.71775,9.435 26.99675,9.899 L26.99675,14 L24.99675,14 C22.22675,14 19.97275,16.222 19.97275,18.953 L19.97275,23 L16.73975,23 C15.77875,23 14.99675,23.771 14.99675,24.718 L14.99675,40.283 C14.99675,41.23 15.77875,42 16.73975,42 L26.99675,42 L26.99675,46.101 C24.71775,46.566 22.99675,48.586 22.99675,51 C22.99675,53.757 25.23975,56 27.99675,56 C30.75375,56 32.99675,53.757 32.99675,51 C32.99675,48.586 31.27575,46.566 28.99675,46.101 L28.99675,42 L39.99675,42 C40.54975,42 40.99675,41.553 40.99675,41 L40.99675,24.718 C40.99675,23.771 40.21475,23 39.25375,23 L39.25375,23 Z" id="Fill-8"></path>
        </g>
    </g>
</svg>