<?xml version="1.0" encoding="UTF-8"?>
<svg xmlns="http://www.w3.org/2000/svg" xmlns:xlink="http://www.w3.org/1999/xlink" width="64" height="64" viewBox="0 0 64 64">
<path fill-rule="evenodd" fill="rgb(0.392157%, 65.882355%, 55.29412%)" fill-opacity="1" d="M 33.917969 61.554688 C 34.375 61.328125 34.667969 60.863281 34.667969 60.355469 L 34.667969 50.667969 L 56.089844 50.667969 C 58.980469 50.667969 61.332031 48.320312 61.332031 45.433594 L 61.332031 35.792969 L 58.667969 35.792969 L 58.667969 45.433594 C 58.667969 46.847656 57.511719 48 56.089844 48 L 33.332031 48 C 32.597656 48 32 48.597656 32 49.332031 L 32 57.628906 L 19.972656 48.28125 C 19.738281 48.101562 19.449219 48 19.15625 48 L 7.964844 48 C 6.511719 48 5.332031 46.878906 5.332031 45.496094 L 5.332031 18.503906 C 5.332031 17.125 6.511719 16 7.964844 16 L 22.113281 16 L 22.113281 13.332031 L 7.964844 13.332031 C 5.042969 13.332031 2.667969 15.652344 2.667969 18.503906 L 2.667969 45.496094 C 2.667969 48.347656 5.042969 50.667969 7.964844 50.667969 L 18.699219 50.667969 L 32.515625 61.40625 C 32.753906 61.59375 33.042969 61.6875 33.332031 61.6875 C 33.53125 61.6875 33.730469 61.644531 33.917969 61.554688 Z M 8 22.667969 L 17.332031 22.667969 L 17.332031 20 L 8 20 Z M 8 33.332031 L 22.667969 33.332031 L 22.667969 30.667969 L 8 30.667969 Z M 8 38.667969 L 22.667969 38.667969 L 22.667969 36 L 8 36 Z M 8 44 L 30.667969 44 L 30.667969 41.332031 L 8 41.332031 Z M 39.925781 37.097656 C 39.960938 36.445312 39.523438 35.867188 38.886719 35.722656 C 37.332031 35.367188 35.855469 34.757812 34.5 33.902344 C 33.949219 33.550781 33.226562 33.65625 32.792969 34.140625 L 31.746094 35.316406 L 28.683594 32.253906 L 29.859375 31.207031 C 30.34375 30.773438 30.445312 30.050781 30.097656 29.5 C 29.246094 28.148438 28.632812 26.671875 28.285156 25.113281 C 28.140625 24.480469 27.574219 24.046875 26.90625 24.074219 L 25.332031 24.167969 L 25.332031 19.835938 L 26.914062 19.925781 C 27.574219 19.972656 28.144531 19.523438 28.289062 18.886719 C 28.640625 17.335938 29.253906 15.863281 30.105469 14.511719 C 30.453125 13.960938 30.355469 13.238281 29.867188 12.804688 L 28.683594 11.746094 L 31.746094 8.683594 L 32.800781 9.867188 C 33.234375 10.351562 33.957031 10.453125 34.507812 10.109375 C 35.859375 9.257812 37.332031 8.648438 38.886719 8.296875 C 39.523438 8.152344 39.960938 7.570312 39.925781 6.917969 L 39.832031 5.332031 L 44.164062 5.332031 L 44.074219 6.921875 C 44.039062 7.570312 44.476562 8.152344 45.113281 8.296875 C 46.664062 8.648438 48.136719 9.257812 49.488281 10.109375 C 50.039062 10.457031 50.757812 10.355469 51.191406 9.871094 L 52.253906 8.683594 L 55.316406 11.746094 L 54.132812 12.800781 C 53.648438 13.234375 53.546875 13.957031 53.894531 14.507812 C 54.746094 15.859375 55.359375 17.332031 55.710938 18.886719 C 55.855469 19.523438 56.429688 19.972656 57.085938 19.925781 L 58.667969 19.835938 L 58.667969 24.167969 L 57.089844 24.074219 C 56.421875 24.042969 55.855469 24.476562 55.710938 25.113281 C 55.363281 26.667969 54.753906 28.144531 53.898438 29.496094 C 53.550781 30.046875 53.652344 30.769531 54.136719 31.203125 L 55.316406 32.253906 L 52.253906 35.316406 L 51.207031 34.144531 C 50.773438 33.65625 50.050781 33.554688 49.5 33.90625 C 48.148438 34.757812 46.671875 35.371094 45.113281 35.722656 C 44.476562 35.867188 44.039062 36.449219 44.074219 37.097656 L 44.164062 38.667969 L 39.835938 38.667969 Z M 46.546875 40.914062 C 46.796875 40.648438 46.929688 40.289062 46.90625 39.925781 L 46.800781 38.035156 C 47.890625 37.710938 48.941406 37.273438 49.941406 36.734375 L 51.203125 38.144531 C 51.445312 38.421875 51.792969 38.582031 52.160156 38.589844 C 52.515625 38.605469 52.882812 38.460938 53.140625 38.203125 L 58.199219 33.140625 C 58.460938 32.882812 58.601562 32.527344 58.589844 32.160156 C 58.578125 31.792969 58.417969 31.449219 58.144531 31.203125 L 56.726562 29.9375 C 57.265625 28.9375 57.703125 27.886719 58.027344 26.800781 L 59.921875 26.910156 C 60.28125 26.921875 60.648438 26.800781 60.914062 26.546875 C 61.179688 26.296875 61.332031 25.945312 61.332031 25.578125 L 61.332031 18.421875 C 61.332031 18.054688 61.179688 17.707031 60.914062 17.453125 C 60.648438 17.203125 60.292969 17.074219 59.921875 17.09375 L 58.023438 17.199219 C 57.699219 16.113281 57.261719 15.0625 56.722656 14.066406 L 58.144531 12.796875 C 58.417969 12.554688 58.578125 12.207031 58.589844 11.839844 C 58.601562 11.472656 58.460938 11.117188 58.199219 10.859375 L 53.140625 5.800781 C 52.882812 5.542969 52.511719 5.382812 52.160156 5.410156 C 51.792969 5.421875 51.445312 5.582031 51.203125 5.855469 L 49.929688 7.28125 C 48.929688 6.742188 47.882812 6.308594 46.800781 5.984375 L 46.90625 4.074219 C 46.929688 3.710938 46.796875 3.351562 46.546875 3.085938 C 46.292969 2.820312 45.945312 2.667969 45.578125 2.667969 L 38.421875 2.667969 C 38.054688 2.667969 37.703125 2.820312 37.453125 3.085938 C 37.199219 3.351562 37.070312 3.710938 37.089844 4.074219 L 37.199219 5.984375 C 36.113281 6.308594 35.066406 6.742188 34.066406 7.277344 L 32.796875 5.855469 C 32.550781 5.582031 32.207031 5.421875 31.839844 5.410156 C 31.464844 5.386719 31.117188 5.542969 30.859375 5.800781 L 25.796875 10.859375 C 25.539062 11.117188 25.398438 11.472656 25.410156 11.839844 C 25.417969 12.207031 25.578125 12.554688 25.851562 12.796875 L 27.277344 14.066406 C 26.738281 15.066406 26.300781 16.113281 25.976562 17.199219 L 24.074219 17.09375 C 23.707031 17.066406 23.351562 17.203125 23.085938 17.453125 C 22.816406 17.707031 22.667969 18.054688 22.667969 18.421875 L 22.667969 25.578125 C 22.667969 25.945312 22.816406 26.296875 23.085938 26.546875 C 23.351562 26.800781 23.714844 26.9375 24.074219 26.910156 L 25.96875 26.800781 C 26.292969 27.890625 26.730469 28.941406 27.269531 29.941406 L 25.855469 31.203125 C 25.578125 31.449219 25.417969 31.792969 25.410156 32.160156 C 25.398438 32.527344 25.539062 32.882812 25.796875 33.140625 L 30.859375 38.203125 C 31.117188 38.460938 31.460938 38.601562 31.839844 38.589844 C 32.207031 38.582031 32.550781 38.421875 32.796875 38.144531 L 34.058594 36.730469 C 35.058594 37.273438 36.109375 37.707031 37.199219 38.035156 L 37.089844 39.925781 C 37.070312 40.289062 37.199219 40.648438 37.453125 40.914062 C 37.703125 41.183594 38.054688 41.332031 38.421875 41.332031 L 45.578125 41.332031 C 45.945312 41.332031 46.292969 41.183594 46.546875 40.914062 Z M 41.125 26.332031 L 47.902344 19.554688 L 46.015625 17.671875 L 40.183594 23.503906 L 37.984375 21.300781 L 36.097656 23.1875 L 39.242188 26.332031 C 39.492188 26.582031 39.832031 26.722656 40.183594 26.722656 C 40.539062 26.722656 40.878906 26.582031 41.125 26.332031 Z M 55.085938 20.851562 L 53.597656 21.648438 C 53.429688 16.042969 49.214844 11.21875 43.480469 10.480469 C 38.515625 9.835938 33.722656 12.433594 31.542969 16.933594 L 33.945312 18.09375 C 35.621094 14.628906 39.316406 12.628906 43.140625 13.125 C 47.253906 13.652344 50.347656 16.910156 50.863281 20.839844 L 50.277344 20.261719 L 48.402344 22.160156 L 51.878906 25.589844 L 56.339844 23.207031 Z M 52.453125 27.066406 C 50.496094 31.113281 46.417969 33.617188 42.011719 33.617188 C 41.515625 33.617188 41.019531 33.585938 40.519531 33.523438 C 34.785156 32.785156 30.570312 27.957031 30.402344 22.351562 L 28.914062 23.148438 L 27.65625 20.796875 L 32.121094 18.414062 L 35.597656 21.84375 L 33.722656 23.742188 L 33.132812 23.160156 C 33.652344 27.089844 36.746094 30.347656 40.859375 30.878906 C 44.679688 31.371094 48.378906 29.371094 50.054688 25.90625 Z M 52.453125 27.066406 "/>
</svg>
