<?xml version="1.0" encoding="UTF-8"?>
<svg xmlns="http://www.w3.org/2000/svg" xmlns:xlink="http://www.w3.org/1999/xlink" width="64" height="64" viewBox="0 0 64 64">
<path fill-rule="evenodd" fill="rgb(0.392157%, 65.882355%, 55.29412%)" fill-opacity="1" d="M 22.746094 45.902344 C 20.929688 44.601562 19.335938 43.011719 18.039062 41.1875 L 6.304688 52.921875 C 5.007812 54.222656 5.007812 56.335938 6.304688 57.632812 C 7.5625 58.886719 9.761719 58.886719 11.015625 57.632812 Z M 17 29.640625 C 17 39.183594 24.765625 46.953125 34.3125 46.953125 C 43.859375 46.953125 51.625 39.183594 51.625 29.640625 C 51.625 20.09375 43.859375 12.324219 34.3125 12.324219 C 24.765625 12.324219 17 20.09375 17 29.640625 Z M 25.078125 47.339844 L 12.902344 59.519531 C 11.773438 60.652344 10.265625 61.273438 8.664062 61.273438 C 7.058594 61.273438 5.550781 60.652344 4.421875 59.519531 C 2.082031 57.179688 2.082031 53.375 4.421875 51.039062 L 16.601562 38.855469 C 15.160156 36.09375 14.332031 32.964844 14.332031 29.640625 C 14.332031 18.621094 23.296875 9.660156 34.3125 9.660156 C 45.332031 9.660156 54.292969 18.621094 54.292969 29.640625 C 54.292969 40.65625 45.332031 49.617188 34.3125 49.617188 C 30.980469 49.617188 27.84375 48.789062 25.078125 47.339844 Z M 12.546875 40.449219 C 10.859375 37.101562 10.007812 33.464844 10.007812 29.640625 C 10.007812 25.46875 11.078125 21.359375 13.109375 17.753906 L 10.785156 16.445312 C 8.53125 20.453125 7.339844 25.011719 7.339844 29.640625 C 7.339844 33.828125 8.316406 37.980469 10.164062 41.648438 Z M 38.378906 26.140625 C 39.34375 26.140625 40.128906 25.359375 40.128906 24.394531 C 40.128906 23.429688 39.34375 22.644531 38.378906 22.644531 C 37.414062 22.644531 36.628906 23.429688 36.628906 24.394531 C 36.628906 25.359375 37.414062 26.140625 38.378906 26.140625 Z M 26.308594 21.648438 L 26.308594 34.183594 L 32.007812 27.8125 C 32.351562 27.414062 32.871094 27.214844 33.417969 27.1875 C 33.960938 27.195312 34.472656 27.445312 34.820312 27.867188 L 37.941406 31.667969 L 42.289062 26.875 L 42.289062 21.648438 Z M 42.289062 37.628906 L 42.289062 30.839844 L 39.285156 34.148438 C 38.964844 34.53125 38.453125 34.769531 37.90625 34.769531 L 37.894531 34.769531 C 37.34375 34.765625 36.828125 34.519531 36.476562 34.089844 L 33.363281 30.296875 L 26.804688 37.628906 Z M 23.644531 37.742188 L 23.644531 21.535156 C 23.644531 20.128906 24.789062 18.980469 26.195312 18.980469 L 42.40625 18.980469 C 43.8125 18.980469 44.957031 20.128906 44.957031 21.535156 L 44.957031 37.742188 C 44.957031 39.152344 43.8125 40.296875 42.40625 40.296875 L 26.195312 40.296875 C 24.789062 40.296875 23.644531 39.152344 23.644531 37.742188 Z M 61.285156 29.640625 C 61.285156 44.511719 49.183594 56.613281 34.3125 56.613281 C 30.085938 56.613281 26.042969 55.664062 22.285156 53.792969 L 23.472656 51.402344 C 26.855469 53.089844 30.503906 53.945312 34.3125 53.945312 C 47.714844 53.945312 58.617188 43.042969 58.617188 29.640625 C 58.617188 16.238281 47.714844 5.332031 34.3125 5.332031 C 30.945312 5.332031 27.691406 6.011719 24.636719 7.34375 L 23.570312 4.898438 C 26.960938 3.417969 30.578125 2.667969 34.3125 2.667969 C 49.183594 2.667969 61.285156 14.765625 61.285156 29.640625 Z M 61.285156 29.640625 "/>
</svg>
