<?xml version="1.0" encoding="UTF-8"?>
<svg xmlns="http://www.w3.org/2000/svg" xmlns:xlink="http://www.w3.org/1999/xlink" width="64" height="64" viewBox="0 0 64 64">
<path fill-rule="evenodd" fill="rgb(0.392157%, 65.882355%, 55.29412%)" fill-opacity="1" d="M 41.332031 47.332031 C 41.332031 44.023438 44.023438 41.332031 47.332031 41.332031 C 50.640625 41.332031 53.332031 44.023438 53.332031 47.332031 C 53.332031 50.640625 50.640625 53.332031 47.332031 53.332031 C 44.023438 53.332031 41.332031 50.640625 41.332031 47.332031 Z M 56 47.332031 C 56 42.554688 52.113281 38.667969 47.332031 38.667969 C 42.554688 38.667969 38.667969 42.554688 38.667969 47.332031 C 38.667969 52.113281 42.554688 56 47.332031 56 C 49.242188 56 51.003906 55.371094 52.4375 54.324219 L 59.058594 60.941406 L 60.941406 59.058594 L 54.324219 52.4375 C 55.371094 51.003906 56 49.242188 56 47.332031 Z M 11.527344 49.058594 C 13.792969 48.398438 16.492188 47.851562 19.488281 47.453125 C 20.785156 51.710938 22.605469 55.226562 24.792969 57.652344 C 19.539062 56.171875 14.933594 53.140625 11.527344 49.058594 Z M 24.792969 6.347656 C 22.605469 8.773438 20.785156 12.289062 19.488281 16.546875 C 16.492188 16.148438 13.792969 15.605469 11.527344 14.941406 C 14.933594 10.859375 19.539062 7.828125 24.792969 6.347656 Z M 52.472656 14.941406 C 50.207031 15.601562 47.507812 16.148438 44.511719 16.546875 C 43.214844 12.289062 41.394531 8.773438 39.207031 6.347656 C 44.460938 7.828125 49.066406 10.859375 52.472656 14.941406 Z M 45.214844 19.148438 C 48.625 18.679688 51.648438 18.015625 54.164062 17.199219 C 56.773438 21.089844 58.351562 25.703125 58.597656 30.667969 L 46.632812 30.667969 C 46.546875 26.523438 46.046875 22.636719 45.214844 19.148438 Z M 33.332031 19.980469 C 36.546875 19.941406 39.644531 19.769531 42.539062 19.464844 C 43.375 22.851562 43.875 26.664062 43.96875 30.667969 L 33.332031 30.667969 Z M 17.367188 33.332031 C 17.453125 37.476562 17.953125 41.363281 18.785156 44.851562 C 15.375 45.320312 12.351562 45.984375 9.835938 46.800781 C 7.230469 42.910156 5.648438 38.296875 5.402344 33.332031 Z M 17.367188 30.667969 L 5.402344 30.667969 C 5.648438 25.703125 7.226562 21.089844 9.835938 17.199219 C 12.351562 18.015625 15.375 18.679688 18.785156 19.148438 C 17.953125 22.640625 17.453125 26.523438 17.367188 30.667969 Z M 30.667969 19.980469 L 30.667969 30.667969 L 20.03125 30.667969 C 20.125 26.664062 20.625 22.851562 21.460938 19.464844 C 24.355469 19.769531 27.453125 19.941406 30.667969 19.980469 Z M 30.667969 5.519531 L 30.667969 17.3125 C 27.742188 17.273438 24.882812 17.125 22.203125 16.859375 C 24.148438 10.730469 27.207031 6.414062 30.667969 5.519531 Z M 33.332031 5.519531 C 36.792969 6.414062 39.851562 10.730469 41.796875 16.859375 C 39.117188 17.125 36.257812 17.273438 33.332031 17.3125 Z M 30.667969 44.019531 C 27.453125 44.058594 24.355469 44.230469 21.460938 44.535156 C 20.625 41.148438 20.125 37.335938 20.03125 33.332031 L 30.667969 33.332031 Z M 22.203125 47.140625 C 24.882812 46.875 27.742188 46.726562 30.667969 46.6875 L 30.667969 58.480469 C 27.207031 57.585938 24.148438 53.269531 22.203125 47.140625 Z M 33.332031 58.605469 L 33.332031 33.332031 L 58.605469 33.332031 C 58.460938 36.230469 57.886719 39.058594 56.828125 41.746094 L 59.3125 42.722656 C 60.652344 39.308594 61.332031 35.703125 61.332031 32 C 61.332031 15.824219 48.175781 2.667969 32 2.667969 C 15.824219 2.667969 2.667969 15.824219 2.667969 32 C 2.667969 48.175781 15.824219 61.332031 32 61.332031 C 35.566406 61.332031 39.054688 60.699219 42.363281 59.449219 L 41.417969 56.957031 C 38.828125 57.933594 36.113281 58.46875 33.332031 58.605469 Z M 33.332031 58.605469 "/>
</svg>
