<?xml version="1.0" encoding="UTF-8"?>
<svg xmlns="http://www.w3.org/2000/svg" xmlns:xlink="http://www.w3.org/1999/xlink" width="64" height="64" viewBox="0 0 64 64">
<path fill-rule="evenodd" fill="rgb(0.392157%, 65.882355%, 55.29412%)" fill-opacity="1" d="M 10.628906 2.667969 L 10.628906 9.609375 L 6.667969 9.609375 L 6.667969 12.273438 L 10.628906 12.273438 L 10.628906 16.621094 L 6.667969 16.621094 L 6.667969 19.289062 L 10.628906 19.289062 L 10.628906 23.707031 L 6.667969 23.707031 L 6.667969 26.375 L 10.628906 26.375 L 10.628906 30.738281 L 6.667969 30.738281 L 6.667969 33.402344 L 10.628906 33.402344 L 10.628906 37.660156 L 6.667969 37.660156 L 6.667969 40.328125 L 10.628906 40.328125 L 10.628906 44.636719 L 6.667969 44.636719 L 6.667969 47.304688 L 10.628906 47.304688 L 10.628906 51.722656 L 6.667969 51.722656 L 6.667969 54.390625 L 10.628906 54.390625 L 10.628906 61.296875 L 58.113281 61.296875 L 58.113281 2.667969 Z M 13.296875 5.332031 L 55.449219 5.332031 L 55.449219 58.628906 L 13.296875 58.628906 L 13.296875 54.390625 L 17.402344 54.390625 L 17.402344 51.722656 L 13.296875 51.722656 L 13.296875 47.304688 L 17.402344 47.304688 L 17.402344 44.636719 L 13.296875 44.636719 L 13.296875 40.328125 L 17.402344 40.328125 L 17.402344 37.660156 L 13.296875 37.660156 L 13.296875 33.402344 L 17.402344 33.402344 L 17.402344 30.738281 L 13.296875 30.738281 L 13.296875 26.375 L 17.402344 26.375 L 17.402344 23.707031 L 13.296875 23.707031 L 13.296875 19.289062 L 17.402344 19.289062 L 17.402344 16.621094 L 13.296875 16.621094 L 13.296875 12.273438 L 17.402344 12.273438 L 17.402344 9.609375 L 13.296875 9.609375 Z M 22.484375 12.273438 L 48.746094 12.273438 L 48.746094 9.605469 L 22.484375 9.605469 Z M 22.484375 20.792969 L 48.746094 20.792969 L 48.746094 18.125 L 22.484375 18.125 Z M 22.484375 29.234375 L 48.746094 29.234375 L 48.746094 26.566406 L 22.484375 26.566406 Z M 22.484375 37.75 L 35.683594 37.75 L 35.683594 35.085938 L 22.484375 35.085938 Z M 22.484375 37.75 "/>
</svg>
