<?xml version="1.0" encoding="UTF-8"?>
<svg xmlns="http://www.w3.org/2000/svg" xmlns:xlink="http://www.w3.org/1999/xlink" width="64" height="64" viewBox="0 0 64 64">
<path fill-rule="evenodd" fill="rgb(0.392157%, 65.882355%, 55.29412%)" fill-opacity="1" d="M 8.617188 41.511719 L 35.429688 41.511719 L 35.429688 38.847656 L 8.617188 38.847656 Z M 8.617188 48.964844 L 35.429688 48.964844 L 35.429688 46.296875 L 8.617188 46.296875 Z M 58.222656 41.90625 L 48.640625 32.328125 C 47.992188 33.117188 47.261719 33.835938 46.464844 34.480469 L 56.058594 44.070312 C 56.652344 44.664062 57.625 44.667969 58.222656 44.070312 C 58.816406 43.476562 58.816406 42.503906 58.222656 41.90625 Z M 39.003906 37.65625 C 38.386719 37.734375 37.765625 37.785156 37.128906 37.785156 C 33.410156 37.785156 30.019531 36.410156 27.40625 34.152344 L 8.617188 34.152344 L 8.617188 31.484375 L 24.984375 31.484375 C 24.03125 30.144531 23.296875 28.640625 22.828125 27.019531 L 5.332031 27.019531 L 5.332031 53.289062 L 39.003906 53.289062 Z M 24.902344 22.894531 C 24.902344 29.636719 30.386719 35.121094 37.128906 35.121094 C 43.871094 35.121094 49.355469 29.636719 49.355469 22.894531 C 49.355469 16.152344 43.871094 10.667969 37.128906 10.667969 C 30.386719 10.667969 24.902344 16.152344 24.902344 22.894531 Z M 61.332031 42.988281 C 61.332031 44.113281 60.898438 45.164062 60.105469 45.957031 C 59.289062 46.773438 58.214844 47.183594 57.136719 47.183594 C 56.066406 47.183594 54.992188 46.773438 54.171875 45.957031 L 44.210938 35.992188 C 43.40625 36.429688 42.554688 36.789062 41.667969 37.074219 L 41.667969 54.625 C 41.667969 55.363281 41.074219 55.957031 40.335938 55.957031 L 4 55.957031 C 3.261719 55.957031 2.667969 55.363281 2.667969 54.625 L 2.667969 25.6875 C 2.667969 24.949219 3.261719 24.351562 4 24.351562 L 22.308594 24.351562 C 22.261719 23.875 22.234375 23.386719 22.234375 22.894531 C 22.234375 14.679688 28.914062 8 37.128906 8 C 45.339844 8 52.019531 14.679688 52.019531 22.894531 C 52.019531 25.5 51.34375 27.945312 50.164062 30.078125 L 60.105469 40.023438 C 60.898438 40.8125 61.332031 41.867188 61.332031 42.988281 Z M 33.570312 29.113281 L 29.023438 25.296875 L 30.742188 23.257812 L 34.328125 26.265625 L 43.1875 16.992188 L 45.117188 18.835938 L 35.390625 29.011719 C 35.132812 29.285156 34.78125 29.425781 34.429688 29.425781 C 34.125 29.425781 33.820312 29.324219 33.570312 29.113281 Z M 33.570312 29.113281 "/>
</svg>
