<?xml version="1.0" encoding="UTF-8"?>
<svg xmlns="http://www.w3.org/2000/svg" xmlns:xlink="http://www.w3.org/1999/xlink" width="64" height="64" viewBox="0 0 64 64">
<path fill-rule="evenodd" fill="rgb(0.392157%, 65.882355%, 55.29412%)" fill-opacity="1" d="M 36.359375 29.699219 L 32.203125 27.324219 L 32.203125 32.074219 Z M 40.378906 29.699219 C 40.378906 30.175781 40.121094 30.621094 39.707031 30.855469 L 31.53125 35.53125 C 31.328125 35.648438 31.097656 35.707031 30.871094 35.707031 C 30.636719 35.707031 30.40625 35.644531 30.199219 35.527344 C 29.789062 35.285156 29.535156 34.847656 29.535156 34.371094 L 29.535156 25.027344 C 29.535156 24.550781 29.789062 24.113281 30.199219 23.875 C 30.609375 23.636719 31.117188 23.632812 31.53125 23.871094 L 39.707031 28.542969 C 40.121094 28.777344 40.378906 29.21875 40.378906 29.699219 Z M 26.359375 37.710938 L 42.386719 37.710938 L 42.386719 21.6875 L 26.359375 21.6875 Z M 23.695312 39.042969 L 23.695312 20.355469 C 23.695312 19.617188 24.289062 19.019531 25.027344 19.019531 L 43.71875 19.019531 C 44.453125 19.019531 45.050781 19.617188 45.050781 20.355469 L 45.050781 39.042969 C 45.050781 39.78125 44.453125 40.378906 43.71875 40.378906 L 25.027344 40.378906 C 24.289062 40.378906 23.695312 39.78125 23.695312 39.042969 Z M 22.796875 46 C 20.96875 44.699219 19.375 43.101562 18.074219 41.273438 L 6.308594 53.035156 C 5.679688 53.667969 5.332031 54.503906 5.332031 55.398438 C 5.332031 56.292969 5.679688 57.132812 6.308594 57.761719 C 7.570312 59.023438 9.777344 59.023438 11.039062 57.761719 Z M 17.027344 29.699219 C 17.027344 39.269531 24.816406 47.058594 34.386719 47.058594 C 43.953125 47.058594 51.742188 39.269531 51.742188 29.699219 C 51.742188 20.128906 43.953125 12.34375 34.386719 12.34375 C 24.816406 12.34375 17.027344 20.128906 17.027344 29.699219 Z M 25.128906 47.4375 L 12.921875 59.648438 C 11.789062 60.78125 10.28125 61.40625 8.671875 61.40625 C 7.066406 61.40625 5.558594 60.78125 4.425781 59.648438 C 3.292969 58.515625 2.667969 57.007812 2.667969 55.398438 C 2.667969 53.792969 3.292969 52.28125 4.425781 51.152344 L 16.636719 38.9375 C 15.191406 36.171875 14.359375 33.03125 14.359375 29.699219 C 14.359375 18.660156 23.34375 9.675781 34.386719 9.675781 C 45.425781 9.675781 54.40625 18.660156 54.40625 29.699219 C 54.40625 40.742188 45.425781 49.722656 34.386719 49.722656 C 31.046875 49.722656 27.898438 48.890625 25.128906 47.4375 Z M 12.5625 40.535156 C 10.875 37.183594 10.019531 33.539062 10.019531 29.699219 C 10.019531 25.519531 11.09375 21.398438 13.128906 17.78125 L 10.804688 16.476562 C 8.546875 20.492188 7.351562 25.0625 7.351562 29.699219 C 7.351562 33.898438 8.332031 38.058594 10.179688 41.734375 Z M 61.417969 29.699219 C 61.417969 44.605469 49.289062 56.730469 34.386719 56.730469 C 30.148438 56.730469 26.09375 55.78125 22.332031 53.90625 L 23.519531 51.519531 C 26.910156 53.207031 30.566406 54.066406 34.386719 54.066406 C 47.820312 54.066406 58.75 43.132812 58.75 29.699219 C 58.75 16.265625 47.820312 5.332031 34.386719 5.332031 C 31.007812 5.332031 27.746094 6.011719 24.683594 7.347656 L 23.617188 4.90625 C 27.015625 3.417969 30.640625 2.667969 34.386719 2.667969 C 49.289062 2.667969 61.417969 14.792969 61.417969 29.699219 Z M 61.417969 29.699219 "/>
</svg>
