<?xml version="1.0" encoding="UTF-8"?>
<svg xmlns="http://www.w3.org/2000/svg" xmlns:xlink="http://www.w3.org/1999/xlink" width="64" height="64" viewBox="0 0 64 64">
<path fill-rule="evenodd" fill="rgb(0.392157%, 65.882353%, 55.294118%)" fill-opacity="1" d="M 40.78125 41.332031 L 52.898438 52.347656 L 51.101562 54.320312 L 38.664062 43.011719 L 38.664062 48 L 36 48 L 36 40 C 36 39.265625 36.597656 38.667969 37.332031 38.667969 L 45.332031 38.667969 L 45.332031 41.332031 Z M 54.664062 29.332031 L 54.664062 44 L 52 44 L 52 30.667969 L 21.332031 30.667969 L 21.332031 53.332031 L 42.664062 53.332031 L 42.664062 56 L 20 56 C 19.261719 56 18.664062 55.402344 18.664062 54.667969 L 18.664062 29.332031 C 18.664062 28.597656 19.261719 28 20 28 L 53.332031 28 C 54.070312 28 54.664062 28.597656 54.664062 29.332031 Z M 46.664062 22.667969 L 41.332031 22.667969 L 41.332031 20 L 48 20 C 48.738281 20 49.332031 20.597656 49.332031 21.332031 L 49.332031 25.332031 L 46.664062 25.332031 Z M 20 22.667969 L 37.332031 22.667969 L 37.332031 20 L 20 20 Z M 10.664062 20 L 16 20 L 16 22.667969 L 12 22.667969 L 12 25.332031 L 9.332031 25.332031 L 9.332031 21.332031 C 9.332031 20.597656 9.929688 20 10.664062 20 Z M 9.332031 36 L 12 36 L 12 29.332031 L 9.332031 29.332031 Z M 12 42.667969 L 16 42.667969 L 16 45.332031 L 10.664062 45.332031 C 9.929688 45.332031 9.332031 44.734375 9.332031 44 L 9.332031 40 L 12 40 Z M 17.332031 10.667969 L 22.664062 10.667969 L 22.664062 8 L 17.332031 8 Z M 9.332031 10.667969 L 14.664062 10.667969 L 14.664062 8 L 9.332031 8 Z M 5.332031 58.667969 L 58.664062 58.667969 L 58.664062 16 L 5.332031 16 Z M 5.332031 13.332031 L 58.664062 13.332031 L 58.664062 5.332031 L 5.332031 5.332031 Z M 60 2.667969 L 4 2.667969 C 3.261719 2.667969 2.664062 3.265625 2.664062 4 L 2.664062 60 C 2.664062 60.734375 3.261719 61.332031 4 61.332031 L 60 61.332031 C 60.738281 61.332031 61.332031 60.734375 61.332031 60 L 61.332031 4 C 61.332031 3.265625 60.738281 2.667969 60 2.667969 Z M 60 2.667969 "/>
</svg>
