<?xml version="1.0" encoding="UTF-8"?>
<svg xmlns="http://www.w3.org/2000/svg" xmlns:xlink="http://www.w3.org/1999/xlink" width="64" height="64" viewBox="0 0 64 64">
<path fill-rule="evenodd" fill="rgb(92.941177%, 44.313726%, 0%)" fill-opacity="1" d="M 58.667969 50 C 58.667969 51.101562 57.769531 52 56.667969 52 C 55.5625 52 54.667969 51.101562 54.667969 50 C 54.667969 48.898438 55.5625 48 56.667969 48 C 57.769531 48 58.667969 48.898438 58.667969 50 Z M 56.667969 21.335938 C 57.769531 21.335938 58.667969 22.230469 58.667969 23.335938 C 58.667969 24.4375 57.769531 25.335938 56.667969 25.335938 C 55.5625 25.335938 54.667969 24.4375 54.667969 23.335938 C 54.667969 22.230469 55.5625 21.335938 56.667969 21.335938 Z M 13.332031 56 L 42.667969 56 L 42.667969 16 L 13.332031 16 Z M 10.667969 14.667969 L 10.667969 48 L 5.332031 48 L 5.332031 8 L 34.667969 8 L 34.667969 13.332031 L 12 13.332031 C 11.261719 13.332031 10.667969 13.929688 10.667969 14.667969 Z M 56.667969 34.667969 C 57.769531 34.667969 58.667969 35.566406 58.667969 36.667969 C 58.667969 37.769531 57.769531 38.667969 56.667969 38.667969 C 55.5625 38.667969 54.667969 37.769531 54.667969 36.667969 C 54.667969 35.566406 55.5625 34.667969 56.667969 34.667969 Z M 56.667969 41.335938 C 59.238281 41.335938 61.332031 39.242188 61.332031 36.667969 C 61.332031 34.09375 59.238281 32 56.667969 32 C 54.8125 32 53.21875 33.097656 52.46875 34.667969 L 48.273438 34.667969 L 54.5625 27.476562 C 55.199219 27.800781 55.90625 28 56.667969 28 C 59.238281 28 61.332031 25.90625 61.332031 23.335938 C 61.332031 20.761719 59.238281 18.667969 56.667969 18.667969 C 54.09375 18.667969 52 20.761719 52 23.335938 C 52 24.175781 52.242188 24.953125 52.632812 25.632812 L 45.332031 33.976562 L 45.332031 14.667969 C 45.332031 13.929688 44.738281 13.332031 44 13.332031 L 37.332031 13.332031 L 37.332031 6.667969 C 37.332031 5.929688 36.738281 5.332031 36 5.332031 L 4 5.332031 C 3.261719 5.332031 2.667969 5.929688 2.667969 6.667969 L 2.667969 49.332031 C 2.667969 50.070312 3.261719 50.667969 4 50.667969 L 10.667969 50.667969 L 10.667969 57.332031 C 10.667969 58.070312 11.261719 58.667969 12 58.667969 L 44 58.667969 C 44.738281 58.667969 45.332031 58.070312 45.332031 57.332031 L 45.332031 38.171875 L 52.675781 47.613281 C 52.257812 48.316406 52 49.125 52 50 C 52 52.574219 54.09375 54.667969 56.667969 54.667969 C 59.238281 54.667969 61.332031 52.574219 61.332031 50 C 61.332031 47.425781 59.238281 45.332031 56.667969 45.332031 C 55.941406 45.332031 55.265625 45.511719 54.652344 45.808594 L 48.058594 37.335938 L 52.066406 37.335938 C 52.394531 39.589844 54.324219 41.335938 56.667969 41.335938 Z M 26.667969 49.332031 L 40 49.332031 L 40 46.667969 L 26.667969 46.667969 Z M 26.667969 37.332031 L 40 37.332031 L 40 34.667969 L 26.667969 34.667969 Z M 26.667969 25.332031 L 40 25.332031 L 40 22.667969 L 26.667969 22.667969 Z M 18.667969 49.332031 L 21.332031 49.332031 L 21.332031 46.667969 L 18.667969 46.667969 Z M 17.332031 52 L 22.667969 52 C 23.402344 52 24 51.402344 24 50.667969 L 24 45.332031 C 24 44.597656 23.402344 44 22.667969 44 L 17.332031 44 C 16.597656 44 16 44.597656 16 45.332031 L 16 50.667969 C 16 51.402344 16.597656 52 17.332031 52 Z M 18.667969 37.332031 L 21.332031 37.332031 L 21.332031 34.667969 L 18.667969 34.667969 Z M 17.332031 40 L 22.667969 40 C 23.402344 40 24 39.402344 24 38.667969 L 24 33.332031 C 24 32.597656 23.402344 32 22.667969 32 L 17.332031 32 C 16.597656 32 16 32.597656 16 33.332031 L 16 38.667969 C 16 39.402344 16.597656 40 17.332031 40 Z M 18.667969 25.332031 L 21.332031 25.332031 L 21.332031 22.667969 L 18.667969 22.667969 Z M 17.332031 28 L 22.667969 28 C 23.402344 28 24 27.402344 24 26.667969 L 24 21.332031 C 24 20.597656 23.402344 20 22.667969 20 L 17.332031 20 C 16.597656 20 16 20.597656 16 21.332031 L 16 26.667969 C 16 27.402344 16.597656 28 17.332031 28 Z M 17.332031 28 "/>
</svg>
