<?xml version="1.0" encoding="UTF-8"?>
<svg xmlns="http://www.w3.org/2000/svg" xmlns:xlink="http://www.w3.org/1999/xlink" width="64" height="64" viewBox="0 0 64 64">
<path fill-rule="evenodd" fill="rgb(92.941177%, 44.313726%, 0%)" fill-opacity="1" d="M 27 48.5 L 48 48.5 L 48 45.832031 L 27 45.832031 Z M 27 32.167969 L 48 32.167969 L 48 29.5 L 27 29.5 Z M 27 15.832031 L 48 15.832031 L 48 13.167969 L 27 13.167969 Z M 17.832031 49.332031 L 22.167969 49.332031 L 22.167969 45 L 17.832031 45 Z M 16.5 52 L 23.5 52 C 24.238281 52 24.832031 51.402344 24.832031 50.667969 L 24.832031 43.667969 C 24.832031 42.929688 24.238281 42.332031 23.5 42.332031 L 16.5 42.332031 C 15.761719 42.332031 15.167969 42.929688 15.167969 43.667969 L 15.167969 50.667969 C 15.167969 51.402344 15.761719 52 16.5 52 Z M 17.832031 33 L 22.167969 33 L 22.167969 28.667969 L 17.832031 28.667969 Z M 16.5 35.667969 L 23.5 35.667969 C 24.238281 35.667969 24.832031 35.070312 24.832031 34.332031 L 24.832031 27.332031 C 24.832031 26.597656 24.238281 26 23.5 26 L 16.5 26 C 15.761719 26 15.167969 26.597656 15.167969 27.332031 L 15.167969 34.332031 C 15.167969 35.070312 15.761719 35.667969 16.5 35.667969 Z M 17.832031 16.667969 L 22.167969 16.667969 L 22.167969 12.332031 L 17.832031 12.332031 Z M 16.5 19.332031 L 23.5 19.332031 C 24.238281 19.332031 24.832031 18.738281 24.832031 18 L 24.832031 11 C 24.832031 10.265625 24.238281 9.667969 23.5 9.667969 L 16.5 9.667969 C 15.761719 9.667969 15.167969 10.265625 15.167969 11 L 15.167969 18 C 15.167969 18.738281 15.761719 19.332031 16.5 19.332031 Z M 12 58.667969 L 51.332031 58.667969 L 51.332031 5.332031 L 12 5.332031 Z M 52.667969 2.667969 L 10.667969 2.667969 C 9.929688 2.667969 9.332031 3.265625 9.332031 4 L 9.332031 60 C 9.332031 60.738281 9.929688 61.332031 10.667969 61.332031 L 52.667969 61.332031 C 53.402344 61.332031 54 60.738281 54 60 L 54 4 C 54 3.265625 53.402344 2.667969 52.667969 2.667969 Z M 52.667969 2.667969 "/>
</svg>
