<?xml version="1.0" encoding="UTF-8"?>
<svg xmlns="http://www.w3.org/2000/svg" xmlns:xlink="http://www.w3.org/1999/xlink" width="64" height="64" viewBox="0 0 64 64">
<path fill-rule="evenodd" fill="rgb(92.941177%, 44.313726%, 0%)" fill-opacity="1" d="M 46.941406 50.605469 L 49.609375 50.605469 L 49.609375 45.945312 L 46.941406 45.945312 Z M 42.28125 50.605469 L 44.949219 50.605469 L 44.949219 45.945312 L 42.28125 45.945312 Z M 37.621094 50.605469 L 40.289062 50.605469 L 40.289062 45.945312 L 37.621094 45.945312 Z M 35.628906 52.769531 L 51.601562 52.769531 L 51.601562 43.78125 L 35.628906 43.78125 Z M 52.9375 41.117188 L 34.292969 41.117188 C 33.558594 41.117188 32.960938 41.710938 32.960938 42.449219 L 32.960938 54.101562 C 32.960938 54.839844 33.558594 55.433594 34.292969 55.433594 L 52.9375 55.433594 C 53.671875 55.433594 54.269531 54.839844 54.269531 54.101562 L 54.269531 42.449219 C 54.269531 41.710938 53.671875 41.117188 52.9375 41.117188 Z M 46.941406 34.292969 L 49.609375 34.292969 L 49.609375 29.632812 L 46.941406 29.632812 Z M 42.28125 34.292969 L 44.949219 34.292969 L 44.949219 29.632812 L 42.28125 29.632812 Z M 37.621094 34.292969 L 40.289062 34.292969 L 40.289062 29.632812 L 37.621094 29.632812 Z M 35.628906 36.457031 L 51.601562 36.457031 L 51.601562 27.472656 L 35.628906 27.472656 Z M 52.9375 24.804688 L 34.292969 24.804688 C 33.558594 24.804688 32.960938 25.402344 32.960938 26.136719 L 32.960938 37.789062 C 32.960938 38.527344 33.558594 39.121094 34.292969 39.121094 L 52.9375 39.121094 C 53.671875 39.121094 54.269531 38.527344 54.269531 37.789062 L 54.269531 26.136719 C 54.269531 25.402344 53.671875 24.804688 52.9375 24.804688 Z M 46.941406 17.980469 L 49.609375 17.980469 L 49.609375 13.320312 L 46.941406 13.320312 Z M 42.28125 17.980469 L 44.949219 17.980469 L 44.949219 13.320312 L 42.28125 13.320312 Z M 37.621094 17.980469 L 40.289062 17.980469 L 40.289062 13.320312 L 37.621094 13.320312 Z M 35.628906 20.144531 L 51.601562 20.144531 L 51.601562 11.160156 L 35.628906 11.160156 Z M 52.9375 8.492188 L 34.292969 8.492188 C 33.558594 8.492188 32.960938 9.089844 32.960938 9.824219 L 32.960938 21.476562 C 32.960938 22.214844 33.558594 22.8125 34.292969 22.8125 L 52.9375 22.8125 C 53.671875 22.8125 54.269531 22.214844 54.269531 21.476562 L 54.269531 9.824219 C 54.269531 9.089844 53.671875 8.492188 52.9375 8.492188 Z M 23.636719 50.605469 L 26.304688 50.605469 L 26.304688 45.945312 L 23.636719 45.945312 Z M 18.980469 50.605469 L 21.644531 50.605469 L 21.644531 45.945312 L 18.980469 45.945312 Z M 14.316406 50.605469 L 16.984375 50.605469 L 16.984375 45.945312 L 14.316406 45.945312 Z M 12.324219 52.769531 L 28.296875 52.769531 L 28.296875 43.78125 L 12.324219 43.78125 Z M 29.632812 41.117188 L 10.992188 41.117188 C 10.253906 41.117188 9.65625 41.710938 9.65625 42.449219 L 9.65625 54.101562 C 9.65625 54.839844 10.253906 55.433594 10.992188 55.433594 L 29.632812 55.433594 C 30.371094 55.433594 30.964844 54.839844 30.964844 54.101562 L 30.964844 42.449219 C 30.964844 41.710938 30.371094 41.117188 29.632812 41.117188 Z M 23.636719 34.292969 L 26.304688 34.292969 L 26.304688 29.632812 L 23.636719 29.632812 Z M 18.980469 34.292969 L 21.644531 34.292969 L 21.644531 29.632812 L 18.980469 29.632812 Z M 14.316406 34.292969 L 16.984375 34.292969 L 16.984375 29.632812 L 14.316406 29.632812 Z M 12.324219 36.457031 L 28.296875 36.457031 L 28.296875 27.472656 L 12.324219 27.472656 Z M 29.632812 24.804688 L 10.992188 24.804688 C 10.253906 24.804688 9.65625 25.402344 9.65625 26.136719 L 9.65625 37.789062 C 9.65625 38.527344 10.253906 39.121094 10.992188 39.121094 L 29.632812 39.121094 C 30.371094 39.121094 30.964844 38.527344 30.964844 37.789062 L 30.964844 26.136719 C 30.964844 25.402344 30.371094 24.804688 29.632812 24.804688 Z M 23.636719 17.980469 L 26.304688 17.980469 L 26.304688 13.320312 L 23.636719 13.320312 Z M 18.980469 17.980469 L 21.644531 17.980469 L 21.644531 13.320312 L 18.980469 13.320312 Z M 14.316406 17.980469 L 16.984375 17.980469 L 16.984375 13.320312 L 14.316406 13.320312 Z M 12.324219 20.144531 L 28.296875 20.144531 L 28.296875 11.160156 L 12.324219 11.160156 Z M 29.632812 8.492188 L 10.992188 8.492188 C 10.253906 8.492188 9.65625 9.089844 9.65625 9.824219 L 9.65625 21.476562 C 9.65625 22.214844 10.253906 22.8125 10.992188 22.8125 L 29.632812 22.8125 C 30.371094 22.8125 30.964844 22.214844 30.964844 21.476562 L 30.964844 9.824219 C 30.964844 9.089844 30.371094 8.492188 29.632812 8.492188 Z M 58.59375 52.664062 C 58.59375 55.933594 55.933594 58.59375 52.664062 58.59375 L 11.265625 58.59375 C 7.992188 58.59375 5.332031 55.933594 5.332031 52.664062 L 5.332031 11.265625 C 5.332031 7.992188 7.992188 5.332031 11.265625 5.332031 L 52.664062 5.332031 C 55.933594 5.332031 58.59375 7.992188 58.59375 11.265625 Z M 52.664062 2.667969 L 11.265625 2.667969 C 6.523438 2.667969 2.667969 6.523438 2.667969 11.265625 L 2.667969 52.664062 C 2.667969 57.402344 6.523438 61.261719 11.265625 61.261719 L 52.664062 61.261719 C 57.402344 61.261719 61.261719 57.402344 61.261719 52.664062 L 61.261719 11.265625 C 61.261719 6.523438 57.402344 2.667969 52.664062 2.667969 Z M 52.664062 2.667969 "/>
</svg>
