<?xml version="1.0" encoding="UTF-8"?>
<svg xmlns="http://www.w3.org/2000/svg" xmlns:xlink="http://www.w3.org/1999/xlink" width="64" height="64" viewBox="0 0 64 64">
<path fill-rule="evenodd" fill="rgb(92.941177%, 44.313726%, 0%)" fill-opacity="1" d="M 26.667969 20 C 28.871094 20 30.667969 21.792969 30.667969 24 C 30.667969 26.203125 28.871094 28 26.667969 28 C 24.460938 28 22.667969 26.203125 22.667969 24 C 22.667969 21.792969 24.460938 20 26.667969 20 Z M 26.667969 30.667969 C 30.34375 30.667969 33.332031 27.675781 33.332031 24 C 33.332031 20.324219 30.34375 17.332031 26.667969 17.332031 C 22.992188 17.332031 20 20.324219 20 24 C 20 27.675781 22.992188 30.667969 26.667969 30.667969 Z M 5.332031 58.667969 L 5.332031 45.886719 L 16 35.21875 L 36.390625 55.609375 L 38.277344 53.722656 L 27.886719 43.332031 L 42.667969 28.550781 L 58.667969 44.550781 L 58.667969 58.667969 Z M 58.667969 5.332031 L 58.667969 40.78125 L 43.609375 25.722656 C 43.085938 25.203125 42.246094 25.203125 41.722656 25.722656 L 26 41.449219 L 16.941406 32.390625 C 16.421875 31.867188 15.578125 31.867188 15.058594 32.390625 L 5.332031 42.113281 L 5.332031 5.332031 Z M 60 2.667969 L 4 2.667969 C 3.261719 2.667969 2.667969 3.261719 2.667969 4 L 2.667969 60 C 2.667969 60.738281 3.261719 61.332031 4 61.332031 L 60 61.332031 C 60.738281 61.332031 61.332031 60.738281 61.332031 60 L 61.332031 4 C 61.332031 3.261719 60.738281 2.667969 60 2.667969 Z M 60 2.667969 "/>
</svg>
