<?xml version="1.0" encoding="UTF-8"?>
<svg xmlns="http://www.w3.org/2000/svg" xmlns:xlink="http://www.w3.org/1999/xlink" width="64" height="64" viewBox="0 0 64 64">
<path fill-rule="evenodd" fill="rgb(92.941177%, 44.313726%, 0%)" fill-opacity="1" d="M 5.332031 44.585938 L 28.023438 58.449219 L 36 53.894531 L 36 49.332031 C 34.363281 49.332031 32.5625 48.992188 31.246094 47.824219 L 31.261719 47.859375 L 28.597656 49.191406 C 28.1875 49.394531 27.703125 49.378906 27.3125 49.140625 L 13.980469 41.140625 C 13.578125 40.902344 13.332031 40.46875 13.332031 40 L 13.332031 22.667969 C 13.332031 22.207031 13.570312 21.78125 13.960938 21.535156 L 24 15.261719 L 24 6.40625 L 5.332031 18.070312 Z M 32 42.667969 C 32 44.742188 32.484375 46.667969 36 46.667969 L 36 42.667969 C 36 41.929688 36.597656 41.332031 37.332031 41.332031 L 53.332031 41.332031 C 54.070312 41.332031 54.667969 41.929688 54.667969 42.667969 L 54.667969 46.667969 C 57.507812 46.667969 58.667969 45.894531 58.667969 44 C 58.667969 40.234375 55.328125 40.007812 54.660156 40 C 53.929688 39.992188 53.332031 39.398438 53.332031 38.667969 C 53.332031 38.605469 53.265625 36.789062 51.402344 35.859375 C 49.648438 34.976562 47.625 36.925781 47.605469 36.945312 C 47.222656 37.324219 46.648438 37.4375 46.152344 37.226562 C 45.65625 37.019531 45.332031 36.535156 45.332031 36 C 45.332031 33.792969 43.539062 32 41.332031 32 C 39.128906 32 37.332031 33.792969 37.332031 36 L 37.332031 37.332031 C 37.332031 37.945312 36.914062 38.476562 36.324219 38.625 C 36.285156 38.636719 32 39.765625 32 42.667969 Z M 44 22.667969 L 44 29.910156 C 45.65625 30.636719 46.96875 32.003906 47.597656 33.714844 C 48.753906 33.105469 50.328125 32.644531 52 33.230469 L 52 18.09375 L 32 6.332031 L 32 15.214844 L 43.3125 21.5 C 43.738281 21.734375 44 22.183594 44 22.667969 Z M 52 44 L 38.667969 44 L 38.667969 58.667969 L 44 58.667969 L 44 56 L 46.667969 56 L 46.667969 58.667969 L 52 58.667969 Z M 2.667969 45.332031 L 2.667969 17.332031 C 2.667969 16.871094 2.902344 16.445312 3.292969 16.203125 L 24.625 2.867188 C 25.039062 2.613281 25.558594 2.597656 25.980469 2.835938 C 26.402344 3.070312 26.667969 3.515625 26.667969 4 L 26.667969 16 C 26.667969 16.460938 26.429688 16.886719 26.039062 17.128906 L 16 23.40625 L 16 39.246094 L 28.058594 46.480469 L 29.792969 45.613281 C 29.503906 44.804688 29.332031 43.839844 29.332031 42.667969 C 29.332031 41.089844 29.945312 39.859375 30.785156 38.90625 L 25.332031 32 L 25.332031 40 L 22.667969 40 L 22.667969 22.667969 L 25.332031 22.667969 L 25.332031 29.65625 L 31.285156 22.667969 L 34.277344 22.667969 L 27.535156 31.121094 L 32.703125 37.324219 C 33.421875 36.886719 34.121094 36.574219 34.667969 36.367188 L 34.667969 36 C 34.667969 32.324219 37.65625 29.332031 41.332031 29.332031 L 41.332031 23.449219 L 30.019531 17.164062 C 29.597656 16.929688 29.332031 16.484375 29.332031 16 L 29.332031 4 C 29.332031 3.519531 29.589844 3.078125 30.003906 2.84375 C 30.421875 2.605469 30.933594 2.609375 31.34375 2.851562 L 54.007812 16.183594 C 54.414062 16.421875 54.667969 16.859375 54.667969 17.332031 L 54.667969 35.132812 C 55.304688 35.933594 55.648438 36.773438 55.816406 37.4375 C 58.179688 37.835938 61.332031 39.515625 61.332031 44 C 61.332031 45.992188 60.46875 49.332031 54.667969 49.332031 L 54.667969 60 C 54.667969 60.734375 54.070312 61.332031 53.332031 61.332031 L 37.332031 61.332031 C 36.597656 61.332031 36 60.734375 36 60 L 36 56.964844 L 28.660156 61.15625 C 28.457031 61.273438 28.226562 61.332031 28 61.332031 C 27.757812 61.332031 27.519531 61.269531 27.304688 61.136719 L 3.304688 46.472656 C 2.910156 46.226562 2.667969 45.796875 2.667969 45.332031 Z M 46.667969 54.667969 L 49.332031 54.667969 L 49.332031 52 L 46.667969 52 Z M 41.332031 54.667969 L 44 54.667969 L 44 52 L 41.332031 52 Z M 41.332031 49.332031 L 44 49.332031 L 44 46.667969 L 41.332031 46.667969 Z M 46.667969 49.332031 L 49.332031 49.332031 L 49.332031 46.667969 L 46.667969 46.667969 Z M 46.667969 49.332031 "/>
</svg>
