<?xml version="1.0" encoding="UTF-8"?>
<svg xmlns="http://www.w3.org/2000/svg" xmlns:xlink="http://www.w3.org/1999/xlink" width="64" height="64" viewBox="0 0 64 64">
<path fill-rule="evenodd" fill="rgb(92.941177%, 44.313726%, 0%)" fill-opacity="1" d="M 25.152344 38.976562 L 38.800781 38.976562 L 38.800781 25.324219 L 25.152344 25.324219 Z M 23.648438 41.351562 L 23.648438 43.808594 L 26.316406 43.808594 L 26.316406 41.644531 L 28.3125 41.644531 L 28.3125 43.808594 L 30.980469 43.808594 L 30.980469 41.644531 L 32.976562 41.644531 L 32.976562 43.808594 L 35.640625 43.808594 L 35.640625 41.644531 L 37.636719 41.644531 L 37.636719 43.808594 L 40.304688 43.808594 L 40.304688 41.351562 C 40.667969 41.148438 40.96875 40.847656 41.175781 40.480469 L 43.632812 40.480469 L 43.632812 37.8125 L 41.46875 37.8125 L 41.46875 35.816406 L 43.632812 35.816406 L 43.632812 33.152344 L 41.46875 33.152344 L 41.46875 31.152344 L 43.632812 31.152344 L 43.632812 28.488281 L 41.46875 28.488281 L 41.46875 26.492188 L 43.632812 26.492188 L 43.632812 23.824219 L 41.175781 23.824219 C 40.972656 23.457031 40.667969 23.15625 40.304688 22.953125 L 40.304688 20.496094 L 37.636719 20.496094 L 37.636719 22.660156 L 35.640625 22.660156 L 35.640625 20.496094 L 32.976562 20.496094 L 32.976562 22.660156 L 30.980469 22.660156 L 30.980469 20.496094 L 28.3125 20.496094 L 28.3125 22.660156 L 26.316406 22.660156 L 26.316406 20.496094 L 23.648438 20.496094 L 23.648438 22.953125 C 23.28125 23.15625 22.980469 23.457031 22.777344 23.824219 L 20.320312 23.824219 L 20.320312 26.492188 L 22.484375 26.492188 L 22.484375 28.488281 L 20.320312 28.488281 L 20.320312 31.152344 L 22.484375 31.152344 L 22.484375 33.152344 L 20.320312 33.152344 L 20.320312 35.816406 L 22.484375 35.816406 L 22.484375 37.8125 L 20.320312 37.8125 L 20.320312 40.480469 L 22.777344 40.480469 C 22.980469 40.847656 23.28125 41.148438 23.648438 41.351562 Z M 52.789062 44.976562 L 55.457031 44.976562 L 55.457031 19.332031 L 52.789062 19.332031 Z M 45.796875 44.976562 L 48.460938 44.976562 L 48.460938 19.332031 L 45.796875 19.332031 Z M 15.488281 44.976562 L 18.15625 44.976562 L 18.15625 19.332031 L 15.488281 19.332031 Z M 8.496094 44.976562 L 11.160156 44.976562 L 11.160156 19.332031 L 8.496094 19.332031 Z M 5.332031 48.304688 L 58.617188 48.304688 L 58.617188 16 L 5.332031 16 Z M 59.953125 13.332031 L 4 13.332031 C 3.265625 13.332031 2.667969 13.929688 2.667969 14.667969 L 2.667969 49.636719 C 2.667969 50.375 3.265625 50.96875 4 50.96875 L 59.953125 50.96875 C 60.6875 50.96875 61.285156 50.375 61.285156 49.636719 L 61.285156 14.667969 C 61.285156 13.929688 60.6875 13.332031 59.953125 13.332031 Z M 59.953125 13.332031 "/>
</svg>
