<?xml version="1.0" encoding="UTF-8"?>
<svg xmlns="http://www.w3.org/2000/svg" xmlns:xlink="http://www.w3.org/1999/xlink" width="64" height="64" viewBox="0 0 64 64">
<path fill-rule="evenodd" fill="rgb(92.941177%, 44.313726%, 0%)" fill-opacity="1" d="M 51.632812 44.980469 L 54.300781 44.980469 L 54.300781 19.328125 L 51.632812 19.328125 Z M 44.636719 44.980469 L 47.304688 44.980469 L 47.304688 19.328125 L 44.636719 19.328125 Z M 37.644531 44.980469 L 40.308594 44.980469 L 40.308594 19.328125 L 37.644531 19.328125 Z M 30.648438 44.980469 L 33.316406 44.980469 L 33.316406 19.328125 L 30.648438 19.328125 Z M 23.652344 44.980469 L 26.320312 44.980469 L 26.320312 19.328125 L 23.652344 19.328125 Z M 16.65625 44.980469 L 19.324219 44.980469 L 19.324219 19.328125 L 16.65625 19.328125 Z M 9.660156 44.980469 L 12.328125 44.980469 L 12.328125 19.328125 L 9.660156 19.328125 Z M 5.332031 48.308594 L 58.628906 48.308594 L 58.628906 16 L 5.332031 16 Z M 59.960938 13.332031 L 4 13.332031 C 3.261719 13.332031 2.667969 13.929688 2.667969 14.664062 L 2.667969 49.644531 C 2.667969 50.378906 3.261719 50.976562 4 50.976562 L 59.960938 50.976562 C 60.699219 50.976562 61.296875 50.378906 61.296875 49.644531 L 61.296875 14.664062 C 61.296875 13.929688 60.699219 13.332031 59.960938 13.332031 Z M 59.960938 13.332031 "/>
</svg>
