<?xml version="1.0" encoding="UTF-8"?>
<svg xmlns="http://www.w3.org/2000/svg" xmlns:xlink="http://www.w3.org/1999/xlink" width="64" height="64" viewBox="0 0 64 64">
<path fill-rule="evenodd" fill="rgb(92.941177%, 44.313726%, 0%)" fill-opacity="1" d="M 33.242188 50.949219 L 50.230469 50.949219 L 50.230469 48.285156 L 33.242188 48.285156 Z M 33.242188 37.738281 L 50.230469 37.738281 L 50.230469 35.070312 L 33.242188 35.070312 Z M 33.242188 24.523438 L 50.230469 24.523438 L 50.230469 21.855469 L 33.242188 21.855469 Z M 26.082031 51.117188 L 29.078125 51.117188 L 29.078125 48.121094 L 26.082031 48.121094 Z M 24.746094 53.78125 L 30.410156 53.78125 C 31.148438 53.78125 31.742188 53.1875 31.742188 52.449219 L 31.742188 46.785156 C 31.742188 46.050781 31.148438 45.453125 30.410156 45.453125 L 24.746094 45.453125 C 24.011719 45.453125 23.414062 46.050781 23.414062 46.785156 L 23.414062 52.449219 C 23.414062 53.1875 24.011719 53.78125 24.746094 53.78125 Z M 26.082031 37.902344 L 29.078125 37.902344 L 29.078125 34.90625 L 26.082031 34.90625 Z M 24.746094 40.570312 L 30.410156 40.570312 C 31.148438 40.570312 31.742188 39.972656 31.742188 39.234375 L 31.742188 33.574219 C 31.742188 32.835938 31.148438 32.238281 30.410156 32.238281 L 24.746094 32.238281 C 24.011719 32.238281 23.414062 32.835938 23.414062 33.574219 L 23.414062 39.234375 C 23.414062 39.972656 24.011719 40.570312 24.746094 40.570312 Z M 26.082031 24.6875 L 29.078125 24.6875 L 29.078125 21.691406 L 26.082031 21.691406 Z M 24.746094 27.355469 L 30.410156 27.355469 C 31.148438 27.355469 31.742188 26.761719 31.742188 26.023438 L 31.742188 20.359375 C 31.742188 19.621094 31.148438 19.027344 30.410156 19.027344 L 24.746094 19.027344 C 24.011719 19.027344 23.414062 19.621094 23.414062 20.359375 L 23.414062 26.023438 C 23.414062 26.761719 24.011719 27.355469 24.746094 27.355469 Z M 21.363281 58.667969 L 52.675781 58.667969 L 52.675781 16.03125 L 21.363281 16.03125 Z M 18.695312 14.699219 L 18.695312 53.003906 L 15.699219 53.003906 L 15.699219 10.367188 L 47.011719 10.367188 L 47.011719 13.363281 L 20.03125 13.363281 C 19.292969 13.363281 18.695312 13.960938 18.695312 14.699219 Z M 13.035156 9.035156 L 13.035156 47.96875 L 10.667969 47.96875 L 10.667969 5.332031 L 41.976562 5.332031 L 41.976562 7.703125 L 14.367188 7.703125 C 13.628906 7.703125 13.035156 8.296875 13.035156 9.035156 Z M 54.007812 13.363281 L 49.679688 13.363281 L 49.679688 9.035156 C 49.679688 8.296875 49.082031 7.703125 48.34375 7.703125 L 44.644531 7.703125 L 44.644531 4 C 44.644531 3.265625 44.046875 2.667969 43.3125 2.667969 L 9.332031 2.667969 C 8.597656 2.667969 8 3.265625 8 4 L 8 49.304688 C 8 50.042969 8.597656 50.636719 9.332031 50.636719 L 13.035156 50.636719 L 13.035156 54.335938 C 13.035156 55.074219 13.628906 55.671875 14.367188 55.671875 L 18.695312 55.671875 L 18.695312 60 C 18.695312 60.738281 19.292969 61.332031 20.03125 61.332031 L 54.007812 61.332031 C 54.742188 61.332031 55.339844 60.738281 55.339844 60 L 55.339844 14.699219 C 55.339844 13.960938 54.742188 13.363281 54.007812 13.363281 Z M 54.007812 13.363281 "/>
</svg>
