<?xml version="1.0" encoding="UTF-8"?>
<svg xmlns="http://www.w3.org/2000/svg" xmlns:xlink="http://www.w3.org/1999/xlink" width="64" height="64" viewBox="0 0 64 64">
<path fill-rule="evenodd" fill="rgb(92.941177%, 44.313726%, 0%)" fill-opacity="1" d="M 28.707031 37.386719 L 12.898438 23.015625 L 11.101562 24.988281 L 24.625 37.28125 L 11.15625 48.300781 L 12.84375 50.367188 Z M 25.332031 49.335938 L 46.667969 49.335938 L 46.667969 46.667969 L 25.332031 46.667969 Z M 50.667969 24 C 50.667969 23.515625 50.402344 23.070312 49.980469 22.835938 L 38.667969 16.550781 L 38.667969 7.550781 L 58.667969 18.136719 L 58.667969 41.59375 L 50.667969 36.59375 Z M 60.644531 45.167969 C 61.070312 44.929688 61.332031 44.484375 61.332031 44 L 61.332031 17.335938 C 61.332031 16.839844 61.058594 16.386719 60.621094 16.15625 L 37.957031 4.15625 C 37.542969 3.933594 37.042969 3.949219 36.644531 4.191406 C 36.242188 4.433594 36 4.867188 36 5.335938 L 36 17.335938 C 36 17.816406 36.261719 18.265625 36.683594 18.5 L 48 24.785156 L 48 37.335938 C 48 37.792969 48.234375 38.222656 48.625 38.464844 L 59.292969 45.132812 C 59.507812 45.265625 59.753906 45.335938 60 45.335938 C 60.222656 45.335938 60.445312 45.277344 60.644531 45.167969 Z M 18.699219 8 L 30.667969 8 L 30.667969 5.335938 L 18.699219 5.335938 Z M 58.667969 58.667969 L 5.332031 58.667969 C 3.882812 58.65625 2.667969 57.433594 2.667969 56 L 2.667969 8 C 2.667969 6.554688 3.886719 5.335938 5.332031 5.335938 L 13.332031 5.335938 L 13.332031 8 L 5.332031 8 L 5.332031 56 L 58.667969 56 L 58.667969 50.667969 L 61.332031 50.667969 L 61.332031 56 C 61.332031 57.445312 60.113281 58.667969 58.667969 58.667969 Z M 58.667969 58.667969 "/>
</svg>
