<?xml version="1.0" encoding="UTF-8"?>
<svg xmlns="http://www.w3.org/2000/svg" xmlns:xlink="http://www.w3.org/1999/xlink" width="64" height="64" viewBox="0 0 64 64">
<path fill-rule="evenodd" fill="rgb(92.941177%, 44.313726%, 0%)" fill-opacity="1" d="M 34.816406 42.152344 L 38.480469 42.152344 L 38.480469 39.652344 L 34.816406 39.652344 Z M 22.824219 31.988281 L 41.144531 31.988281 L 41.144531 21.828125 L 22.824219 21.828125 Z M 23.992188 42.484375 L 39.980469 42.484375 L 39.980469 39.320312 L 23.992188 39.320312 Z M 21.488281 34.65625 L 30.652344 34.65625 L 30.652344 36.652344 L 22.65625 36.652344 C 21.921875 36.652344 21.324219 37.25 21.324219 37.984375 L 21.324219 43.816406 C 21.324219 44.550781 21.921875 45.148438 22.65625 45.148438 L 41.3125 45.148438 C 42.046875 45.148438 42.644531 44.550781 42.644531 43.816406 L 42.644531 37.984375 C 42.644531 37.25 42.046875 36.652344 41.3125 36.652344 L 33.320312 36.652344 L 33.320312 34.65625 L 42.480469 34.65625 C 43.214844 34.65625 43.8125 34.058594 43.8125 33.320312 L 43.8125 20.496094 C 43.8125 19.757812 43.214844 19.160156 42.480469 19.160156 L 21.488281 19.160156 C 20.753906 19.160156 20.15625 19.757812 20.15625 20.496094 L 20.15625 33.320312 C 20.15625 34.058594 20.753906 34.65625 21.488281 34.65625 Z M 52.804688 44.980469 L 55.46875 44.980469 L 55.46875 19.332031 L 52.804688 19.332031 Z M 45.808594 44.980469 L 48.476562 44.980469 L 48.476562 19.332031 L 45.808594 19.332031 Z M 15.492188 44.980469 L 18.160156 44.980469 L 18.160156 19.332031 L 15.492188 19.332031 Z M 8.496094 44.980469 L 11.164062 44.980469 L 11.164062 19.332031 L 8.496094 19.332031 Z M 5.332031 48.3125 L 58.632812 48.3125 L 58.632812 16 L 5.332031 16 Z M 59.96875 13.332031 L 4 13.332031 C 3.265625 13.332031 2.667969 13.929688 2.667969 14.664062 L 2.667969 49.644531 C 2.667969 50.382812 3.265625 50.980469 4 50.980469 L 59.96875 50.980469 C 60.707031 50.980469 61.300781 50.382812 61.300781 49.644531 L 61.300781 14.664062 C 61.300781 13.929688 60.707031 13.332031 59.96875 13.332031 Z M 59.96875 13.332031 "/>
</svg>
