<?xml version="1.0" encoding="UTF-8"?>
<svg xmlns="http://www.w3.org/2000/svg" xmlns:xlink="http://www.w3.org/1999/xlink" width="64" height="64" viewBox="0 0 64 64">
<path fill-rule="evenodd" fill="rgb(100%, 100%, 100%)" fill-opacity="1" d="M 5.332031 57.601562 L 58.902344 57.601562 L 58.902344 51.113281 L 5.332031 51.113281 Z M 61.570312 50.148438 L 61.570312 58.566406 C 61.570312 59.503906 60.808594 60.269531 59.867188 60.269531 L 4.367188 60.269531 C 3.429688 60.269531 2.667969 59.503906 2.667969 58.566406 L 2.667969 50.148438 C 2.667969 49.210938 3.429688 48.445312 4.367188 48.445312 L 59.867188 48.445312 C 60.808594 48.445312 61.570312 49.210938 61.570312 50.148438 Z M 5.332031 42.269531 L 58.902344 42.269531 L 58.902344 35.777344 L 5.332031 35.777344 Z M 61.570312 34.816406 L 61.570312 43.234375 C 61.570312 44.171875 60.808594 44.9375 59.867188 44.9375 L 4.367188 44.9375 C 3.429688 44.9375 2.667969 44.171875 2.667969 43.234375 L 2.667969 34.816406 C 2.667969 33.875 3.429688 33.113281 4.367188 33.113281 L 59.867188 33.113281 C 60.808594 33.113281 61.570312 33.875 61.570312 34.816406 Z M 5.40625 27.007812 L 58.976562 27.007812 L 58.976562 20.519531 L 5.40625 20.519531 Z M 61.644531 19.554688 L 61.644531 27.976562 C 61.644531 28.910156 60.878906 29.675781 59.941406 29.675781 L 4.441406 29.675781 C 3.503906 29.675781 2.742188 28.910156 2.742188 27.976562 L 2.742188 19.554688 C 2.742188 18.617188 3.503906 17.851562 4.441406 17.851562 L 59.941406 17.851562 C 60.878906 17.851562 61.644531 18.617188 61.644531 19.554688 Z M 5.332031 11.824219 L 58.902344 11.824219 L 58.902344 5.335938 L 5.332031 5.335938 Z M 2.667969 12.789062 L 2.667969 4.371094 C 2.667969 3.429688 3.429688 2.667969 4.367188 2.667969 L 59.867188 2.667969 C 60.808594 2.667969 61.570312 3.429688 61.570312 4.371094 L 61.570312 12.789062 C 61.570312 13.726562 60.808594 14.492188 59.867188 14.492188 L 4.367188 14.492188 C 3.429688 14.492188 2.667969 13.726562 2.667969 12.789062 Z M 7.585938 55.621094 L 39.285156 55.621094 L 39.285156 52.953125 L 7.585938 52.953125 Z M 7.585938 25.101562 L 39.285156 25.101562 L 39.285156 22.4375 L 7.585938 22.4375 Z M 29.71875 40.4375 L 56.6875 40.4375 L 56.6875 37.769531 L 29.71875 37.769531 Z M 29.714844 9.914062 L 56.6875 9.914062 L 56.6875 7.25 L 29.714844 7.25 Z M 29.714844 9.914062 "/>
</svg>
