<?xml version="1.0" encoding="UTF-8"?>
<svg xmlns="http://www.w3.org/2000/svg" xmlns:xlink="http://www.w3.org/1999/xlink" width="64" height="64" viewBox="0 0 64 64">
<path fill-rule="evenodd" fill="rgb(100%, 100%, 100%)" fill-opacity="1" d="M 60 32 C 60 47.441406 47.441406 60 32 60 C 16.558594 60 4 47.441406 4 32 C 4 22.230469 9.199219 13.042969 17.574219 8 L 6.667969 8 L 6.667969 5.332031 L 21.332031 5.332031 C 22.070312 5.332031 22.667969 5.929688 22.667969 6.667969 L 22.667969 21.332031 L 20 21.332031 L 20 9.707031 C 19.667969 9.886719 19.328125 10.054688 19.003906 10.25 C 11.394531 14.804688 6.667969 23.140625 6.667969 32 C 6.667969 45.96875 18.03125 57.332031 32 57.332031 C 45.96875 57.332031 57.332031 45.96875 57.332031 32 C 57.332031 18.03125 45.96875 6.667969 32 6.667969 L 32 4 C 47.441406 4 60 16.558594 60 32 "/>
</svg>
