<?xml version="1.0" encoding="UTF-8"?>
<svg xmlns="http://www.w3.org/2000/svg" xmlns:xlink="http://www.w3.org/1999/xlink" width="64" height="64" viewBox="0 0 64 64">
<path fill-rule="evenodd" fill="rgb(100%, 100%, 100%)" fill-opacity="1" d="M 12 53.332031 L 14.664062 53.332031 L 14.664062 50.667969 L 12 50.667969 Z M 12 33.332031 L 14.664062 33.332031 L 14.664062 30.664062 L 12 30.664062 Z M 12 13.332031 L 14.664062 13.332031 L 14.664062 10.667969 L 12 10.667969 Z M 14.664062 24 L 49.332031 24 L 49.332031 21.332031 L 14.664062 21.332031 Z M 5.332031 38.667969 L 58.667969 38.667969 L 58.667969 26.664062 L 5.332031 26.664062 Z M 14.664062 44 L 49.335938 44 L 49.335938 41.332031 L 14.664062 41.332031 Z M 5.332031 58.664062 L 58.667969 58.664062 L 58.667969 46.667969 L 5.332031 46.667969 Z M 5.332031 18.667969 L 58.667969 18.667969 L 58.667969 6.667969 L 5.332031 6.667969 Z M 60 21.332031 C 60.738281 21.332031 61.332031 20.734375 61.332031 20 L 61.332031 5.332031 C 61.332031 4.597656 60.738281 4 60 4 L 4 4 C 3.261719 4 2.667969 4.597656 2.667969 5.332031 L 2.667969 20 C 2.667969 20.734375 3.261719 21.332031 4 21.332031 L 12 21.332031 L 12 24 L 4 24 C 3.261719 24 2.667969 24.597656 2.667969 25.332031 L 2.667969 40 C 2.667969 40.734375 3.261719 41.332031 4 41.332031 L 12 41.332031 L 12 44 L 4 44 C 3.261719 44 2.667969 44.597656 2.667969 45.332031 L 2.667969 60 C 2.667969 60.734375 3.261719 61.332031 4 61.332031 L 60 61.332031 C 60.738281 61.332031 61.332031 60.734375 61.332031 60 L 61.332031 45.332031 C 61.332031 44.597656 60.738281 44 60 44 L 52 44 L 52 41.332031 L 60 41.332031 C 60.738281 41.332031 61.332031 40.734375 61.332031 40 L 61.332031 25.332031 C 61.332031 24.597656 60.738281 24 60 24 L 52 24 L 52 21.332031 Z M 60 21.332031 "/>
</svg>
