<?xml version="1.0" encoding="UTF-8"?>
<svg xmlns="http://www.w3.org/2000/svg" xmlns:xlink="http://www.w3.org/1999/xlink" width="64" height="64" viewBox="0 0 64 64">
<path fill-rule="evenodd" fill="rgb(100%, 100%, 100%)" fill-opacity="1" d="M 29.335938 31.675781 C 36.542969 31.675781 42.410156 25.765625 42.410156 18.503906 C 42.410156 11.242188 36.542969 5.332031 29.335938 5.332031 C 22.125 5.332031 16.257812 11.242188 16.257812 18.503906 C 16.257812 25.765625 22.125 31.675781 29.335938 31.675781 Z M 5.367188 58.667969 L 37.332031 58.667969 L 37.332031 61.332031 L 4 61.332031 C 3.261719 61.332031 2.667969 60.734375 2.667969 60 C 2.667969 46.933594 11.394531 35.972656 23.089844 33.035156 C 17.507812 30.601562 13.589844 25.007812 13.589844 18.503906 C 13.589844 9.773438 20.652344 2.667969 29.335938 2.667969 C 38.015625 2.667969 45.078125 9.773438 45.078125 18.503906 C 45.078125 25.003906 41.160156 30.597656 35.582031 33.035156 C 36.800781 33.339844 38.003906 33.703125 39.175781 34.191406 C 39.414062 34.289062 39.644531 34.386719 39.878906 34.492188 L 38.785156 36.925781 C 38.574219 36.832031 38.367188 36.742188 38.15625 36.652344 C 35.347656 35.492188 32.378906 34.902344 29.332031 34.902344 C 16.527344 34.902344 6.03125 45.445312 5.367188 58.667969 Z M 58.667969 48.667969 C 58.667969 43.152344 54.179688 38.667969 48.667969 38.667969 C 43.152344 38.667969 38.667969 43.152344 38.667969 48.667969 C 38.667969 54.179688 43.152344 58.667969 48.667969 58.667969 C 54.179688 58.667969 58.667969 54.179688 58.667969 48.667969 Z M 61.332031 48.667969 C 61.332031 55.652344 55.652344 61.332031 48.667969 61.332031 C 41.683594 61.332031 36 55.652344 36 48.667969 C 36 41.683594 41.683594 36 48.667969 36 C 55.652344 36 61.332031 41.683594 61.332031 48.667969 Z M 53.722656 43.835938 L 55.609375 45.71875 L 47.609375 53.71875 C 47.347656 53.980469 47.007812 54.109375 46.667969 54.109375 C 46.324219 54.109375 45.984375 53.980469 45.722656 53.71875 L 41.722656 49.71875 L 43.609375 47.835938 L 46.667969 50.890625 Z M 53.722656 43.835938 "/>
</svg>
