<?xml version="1.0" encoding="UTF-8"?>
<svg xmlns="http://www.w3.org/2000/svg" xmlns:xlink="http://www.w3.org/1999/xlink" width="64" height="64" viewBox="0 0 64 64">
<path fill-rule="evenodd" fill="rgb(100%, 100%, 100%)" fill-opacity="1" d="M 48 48 C 45.796875 48 44 46.207031 44 44 C 44 41.792969 45.796875 40 48 40 C 50.207031 40 52 41.792969 52 44 C 52 46.207031 50.207031 48 48 48 Z M 48 37.332031 C 46.230469 37.332031 44.632812 38.039062 43.4375 39.164062 L 37.882812 34.683594 L 2.667969 34.667969 L 2.667969 37.332031 L 36.9375 37.351562 L 41.894531 41.347656 C 41.539062 42.160156 41.335938 43.054688 41.335938 44 C 41.335938 47.675781 44.324219 50.667969 48 50.667969 C 51.675781 50.667969 54.667969 47.675781 54.667969 44 C 54.667969 40.324219 51.675781 37.332031 48 37.332031 Z M 36 5.332031 C 38.207031 5.332031 40 7.128906 40 9.332031 C 40 11.539062 38.207031 13.332031 36 13.332031 C 33.796875 13.332031 32 11.539062 32 9.332031 C 32 7.128906 33.796875 5.332031 36 5.332031 Z M 31.171875 13.90625 C 32.390625 15.1875 34.097656 16 36 16 C 39.675781 16 42.667969 13.007812 42.667969 9.332031 C 42.667969 5.65625 39.675781 2.667969 36 2.667969 C 32.324219 2.667969 29.335938 5.65625 29.335938 9.332031 C 29.335938 10.144531 29.5 10.90625 29.765625 11.625 L 26.351562 13.332031 L 2.667969 13.332031 L 2.667969 16 L 26.984375 16 Z M 26.667969 58.113281 L 21.886719 53.332031 L 26.667969 48.550781 L 31.449219 53.332031 Z M 27.609375 45.722656 C 27.089844 45.203125 26.246094 45.203125 25.726562 45.722656 L 23.335938 48.113281 L 20.554688 45.332031 L 2.667969 45.332031 L 2.667969 48 L 19.449219 48 L 21.449219 50 L 19.058594 52.390625 C 18.539062 52.910156 18.539062 53.753906 19.058594 54.277344 L 25.726562 60.941406 C 25.984375 61.203125 26.328125 61.332031 26.667969 61.332031 C 27.007812 61.332031 27.351562 61.203125 27.609375 60.941406 L 34.277344 54.277344 C 34.796875 53.753906 34.796875 52.910156 34.277344 52.390625 Z M 50.667969 29.332031 L 58.667969 29.332031 L 58.667969 21.332031 L 50.667969 21.332031 Z M 60 18.667969 L 49.335938 18.667969 C 48.597656 18.667969 48 19.265625 48 20 L 48 24 L 2.667969 24 L 2.667969 26.667969 L 48 26.667969 L 48 30.667969 C 48 31.402344 48.597656 32 49.335938 32 L 60 32 C 60.738281 32 61.335938 31.402344 61.335938 30.667969 L 61.335938 20 C 61.335938 19.265625 60.738281 18.667969 60 18.667969 Z M 60 18.667969 "/>
</svg>
