<?xml version="1.0" encoding="UTF-8"?>
<svg xmlns="http://www.w3.org/2000/svg" xmlns:xlink="http://www.w3.org/1999/xlink" width="64" height="64" viewBox="0 0 64 64">
<path fill-rule="evenodd" fill="rgb(100%, 100%, 100%)" fill-opacity="1" d="M 49.828125 51.660156 L 52.730469 51.660156 L 52.730469 49.6875 L 49.828125 49.6875 Z M 54.0625 47.019531 L 48.492188 47.019531 C 47.757812 47.019531 47.160156 47.617188 47.160156 48.351562 L 47.160156 52.996094 C 47.160156 53.730469 47.757812 54.328125 48.492188 54.328125 L 54.0625 54.328125 C 54.800781 54.328125 55.398438 53.730469 55.398438 52.996094 L 55.398438 48.351562 C 55.398438 47.617188 54.800781 47.019531 54.0625 47.019531 Z M 36.828125 51.660156 L 39.730469 51.660156 L 39.730469 49.6875 L 36.828125 49.6875 Z M 41.0625 47.019531 L 35.492188 47.019531 C 34.757812 47.019531 34.160156 47.617188 34.160156 48.351562 L 34.160156 52.996094 C 34.160156 53.730469 34.757812 54.328125 35.492188 54.328125 L 41.0625 54.328125 C 41.800781 54.328125 42.398438 53.730469 42.398438 52.996094 L 42.398438 48.351562 C 42.398438 47.617188 41.800781 47.019531 41.0625 47.019531 Z M 24.160156 51.660156 L 27.0625 51.660156 L 27.0625 49.6875 L 24.160156 49.6875 Z M 28.398438 47.019531 L 22.828125 47.019531 C 22.089844 47.019531 21.492188 47.617188 21.492188 48.351562 L 21.492188 52.996094 C 21.492188 53.730469 22.089844 54.328125 22.828125 54.328125 L 28.398438 54.328125 C 29.132812 54.328125 29.730469 53.730469 29.730469 52.996094 L 29.730469 48.351562 C 29.730469 47.617188 29.132812 47.019531 28.398438 47.019531 Z M 11.160156 51.660156 L 14.0625 51.660156 L 14.0625 49.6875 L 11.160156 49.6875 Z M 15.398438 47.019531 L 9.828125 47.019531 C 9.089844 47.019531 8.492188 47.617188 8.492188 48.351562 L 8.492188 52.996094 C 8.492188 53.730469 9.089844 54.328125 9.828125 54.328125 L 15.398438 54.328125 C 16.132812 54.328125 16.730469 53.730469 16.730469 52.996094 L 16.730469 48.351562 C 16.730469 47.617188 16.132812 47.019531 15.398438 47.019531 Z M 49.828125 13.199219 L 52.730469 13.199219 L 52.730469 11.222656 L 49.828125 11.222656 Z M 54.0625 8.554688 L 48.492188 8.554688 C 47.757812 8.554688 47.160156 9.152344 47.160156 9.890625 L 47.160156 14.53125 C 47.160156 15.269531 47.757812 15.863281 48.492188 15.863281 L 54.0625 15.863281 C 54.800781 15.863281 55.398438 15.269531 55.398438 14.53125 L 55.398438 9.890625 C 55.398438 9.152344 54.800781 8.554688 54.0625 8.554688 Z M 36.828125 13.199219 L 39.730469 13.199219 L 39.730469 11.222656 L 36.828125 11.222656 Z M 35.492188 15.863281 L 41.0625 15.863281 C 41.800781 15.863281 42.398438 15.269531 42.398438 14.53125 L 42.398438 9.890625 C 42.398438 9.152344 41.800781 8.554688 41.0625 8.554688 L 35.492188 8.554688 C 34.757812 8.554688 34.160156 9.152344 34.160156 9.890625 L 34.160156 14.53125 C 34.160156 15.269531 34.757812 15.863281 35.492188 15.863281 Z M 24.160156 13.199219 L 27.0625 13.199219 L 27.0625 11.222656 L 24.160156 11.222656 Z M 22.828125 15.863281 L 28.398438 15.863281 C 29.132812 15.863281 29.730469 15.269531 29.730469 14.53125 L 29.730469 9.890625 C 29.730469 9.152344 29.132812 8.554688 28.398438 8.554688 L 22.828125 8.554688 C 22.089844 8.554688 21.492188 9.152344 21.492188 9.890625 L 21.492188 14.53125 C 21.492188 15.269531 22.089844 15.863281 22.828125 15.863281 Z M 11.160156 13.199219 L 14.0625 13.199219 L 14.0625 11.222656 L 11.160156 11.222656 Z M 15.398438 8.554688 L 9.828125 8.554688 C 9.089844 8.554688 8.492188 9.152344 8.492188 9.890625 L 8.492188 14.53125 C 8.492188 15.269531 9.089844 15.863281 9.828125 15.863281 L 15.398438 15.863281 C 16.132812 15.863281 16.730469 15.269531 16.730469 14.53125 L 16.730469 9.890625 C 16.730469 9.152344 16.132812 8.554688 15.398438 8.554688 Z M 58.507812 54.894531 C 58.507812 55.757812 57.804688 56.460938 56.941406 56.460938 L 6.898438 56.460938 C 6.035156 56.460938 5.332031 55.757812 5.332031 54.894531 L 5.332031 8.230469 C 5.332031 7.367188 6.035156 6.667969 6.898438 6.667969 L 56.941406 6.667969 C 57.804688 6.667969 58.507812 7.367188 58.507812 8.230469 Z M 56.941406 4 L 6.898438 4 C 4.566406 4 2.667969 5.898438 2.667969 8.230469 L 2.667969 54.894531 C 2.667969 57.230469 4.566406 59.128906 6.898438 59.128906 L 56.941406 59.128906 C 59.277344 59.128906 61.175781 57.230469 61.175781 54.894531 L 61.175781 8.230469 C 61.175781 5.898438 59.277344 4 56.941406 4 Z M 29.191406 26.949219 L 37.066406 31.507812 L 29.191406 36.0625 Z M 27.195312 23.480469 C 26.78125 23.71875 26.527344 24.160156 26.527344 24.636719 L 26.527344 38.375 C 26.527344 38.851562 26.78125 39.292969 27.195312 39.53125 C 27.402344 39.648438 27.628906 39.710938 27.859375 39.710938 C 28.089844 39.710938 28.320312 39.648438 28.527344 39.53125 L 40.394531 32.660156 C 40.808594 32.421875 41.0625 31.980469 41.0625 31.507812 C 41.0625 31.03125 40.808594 30.589844 40.394531 30.351562 L 28.527344 23.484375 C 28.113281 23.242188 27.605469 23.246094 27.195312 23.480469 Z M 31.921875 42.039062 C 26.285156 42.039062 21.699219 37.3125 21.699219 31.507812 C 21.699219 25.699219 26.285156 20.972656 31.921875 20.972656 C 37.558594 20.972656 42.140625 25.699219 42.140625 31.507812 C 42.140625 37.3125 37.558594 42.039062 31.921875 42.039062 Z M 31.921875 18.308594 C 24.816406 18.308594 19.035156 24.226562 19.035156 31.507812 C 19.035156 38.785156 24.816406 44.707031 31.921875 44.707031 C 39.027344 44.707031 44.808594 38.785156 44.808594 31.507812 C 44.808594 24.226562 39.027344 18.308594 31.921875 18.308594 Z M 31.921875 18.308594 "/>
</svg>
