<?xml version="1.0" encoding="UTF-8"?>
<svg xmlns="http://www.w3.org/2000/svg" xmlns:xlink="http://www.w3.org/1999/xlink" width="64" height="64" viewBox="0 0 64 64">
<path fill-rule="evenodd" fill="rgb(100%, 100%, 100%)" fill-opacity="1" d="M 48 29.332031 C 46.53125 29.332031 45.332031 28.136719 45.332031 26.667969 C 45.332031 25.195312 46.53125 24 48 24 C 49.46875 24 50.667969 25.195312 50.667969 26.667969 C 50.667969 28.136719 49.46875 29.332031 48 29.332031 Z M 48 21.332031 C 45.058594 21.332031 42.667969 23.726562 42.667969 26.667969 C 42.667969 29.609375 45.058594 32 48 32 C 50.941406 32 53.332031 29.609375 53.332031 26.667969 C 53.332031 23.726562 50.941406 21.332031 48 21.332031 Z M 32 29.332031 C 30.53125 29.332031 29.332031 28.136719 29.332031 26.667969 C 29.332031 25.195312 30.53125 24 32 24 C 33.46875 24 34.667969 25.195312 34.667969 26.667969 C 34.667969 28.136719 33.46875 29.332031 32 29.332031 Z M 32 21.332031 C 29.058594 21.332031 26.667969 23.726562 26.667969 26.667969 C 26.667969 29.609375 29.058594 32 32 32 C 34.941406 32 37.332031 29.609375 37.332031 26.667969 C 37.332031 23.726562 34.941406 21.332031 32 21.332031 Z M 16 29.332031 C 14.53125 29.332031 13.332031 28.136719 13.332031 26.667969 C 13.332031 25.195312 14.53125 24 16 24 C 17.46875 24 18.667969 25.195312 18.667969 26.667969 C 18.667969 28.136719 17.46875 29.332031 16 29.332031 Z M 16 21.332031 C 13.058594 21.332031 10.667969 23.726562 10.667969 26.667969 C 10.667969 29.609375 13.058594 32 16 32 C 18.941406 32 21.332031 29.609375 21.332031 26.667969 C 21.332031 23.726562 18.941406 21.332031 16 21.332031 Z M 58.667969 43.933594 C 58.667969 45.441406 57.550781 46.667969 56.160156 46.667969 L 50.652344 46.734375 C 49.921875 46.742188 49.332031 47.339844 49.332031 48.066406 L 49.332031 53.71875 L 41.941406 47.011719 C 41.695312 46.789062 41.378906 46.667969 41.046875 46.667969 L 8 46.667969 C 6.441406 46.667969 5.332031 45.375 5.332031 43.871094 L 5.332031 12.039062 C 5.332031 10.546875 6.546875 9.332031 8.039062 9.332031 L 55.960938 9.332031 C 57.453125 9.332031 58.667969 10.546875 58.667969 12.039062 Z M 55.960938 6.667969 L 8.039062 6.667969 C 5.074219 6.667969 2.667969 9.074219 2.667969 12.039062 L 2.667969 43.871094 C 2.667969 46.84375 5.128906 49.265625 8.15625 49.265625 L 40.527344 49.332031 L 49.769531 57.714844 C 50.019531 57.945312 50.339844 58.0625 50.667969 58.0625 C 50.847656 58.0625 51.035156 58.023438 51.207031 57.945312 C 51.6875 57.734375 52 57.253906 52 56.726562 L 52 49.386719 L 56.175781 49.332031 C 59.019531 49.332031 61.332031 46.910156 61.332031 43.933594 L 61.332031 12.039062 C 61.332031 9.074219 58.925781 6.667969 55.960938 6.667969 Z M 55.960938 6.667969 "/>
</svg>
