<?xml version="1.0" encoding="UTF-8"?>
<svg xmlns="http://www.w3.org/2000/svg" xmlns:xlink="http://www.w3.org/1999/xlink" width="64" height="64" viewBox="0 0 64 64">
<path fill-rule="evenodd" fill="rgb(100%, 100%, 100%)" fill-opacity="1" d="M 42.339844 57.742188 C 40.675781 58.023438 38.902344 58.234375 37.066406 58.371094 C 36.324219 58.421875 35.570312 58.460938 34.808594 58.492188 C 33.273438 58.542969 31.671875 58.542969 30.144531 58.492188 C 29.378906 58.460938 28.621094 58.421875 27.878906 58.371094 C 26.046875 58.234375 24.273438 58.023438 22.609375 57.742188 C 16.066406 56.632812 12 54.308594 12 51.671875 L 12 14.351562 C 15.996094 16.882812 23.652344 18.453125 32.476562 18.453125 C 41.289062 18.453125 48.847656 16.90625 52.859375 14.402344 L 52.859375 51.671875 C 52.859375 54.355469 48.925781 56.625 42.339844 57.742188 M 32.476562 5.332031 C 43.863281 5.332031 51.300781 8.246094 52.625 11.242188 C 50.402344 13.464844 43.28125 15.789062 32.476562 15.789062 C 21.679688 15.789062 14.4375 13.414062 12.277344 11.210938 L 12.226562 11.257812 C 13.539062 8.253906 21.019531 5.332031 32.476562 5.332031 M 32.476562 2.667969 C 18.847656 2.667969 9.332031 6.585938 9.332031 12.191406 L 9.332031 51.671875 C 9.332031 54.109375 11 58.480469 22.164062 60.375 C 23.910156 60.667969 25.769531 60.890625 27.6875 61.027344 C 28.460938 61.085938 29.246094 61.125 30.046875 61.15625 C 30.84375 61.183594 31.65625 61.199219 32.476562 61.199219 C 33.292969 61.199219 34.101562 61.183594 34.902344 61.15625 C 35.703125 61.125 36.488281 61.085938 37.261719 61.027344 C 39.179688 60.890625 41.039062 60.667969 42.785156 60.375 C 53.871094 58.492188 55.527344 54.113281 55.527344 51.671875 L 55.527344 12.191406 C 55.527344 6.585938 46.046875 2.667969 32.476562 2.667969 "/>
</svg>
