<?xml version="1.0" encoding="UTF-8"?>
<svg width="80px" height="80px" viewBox="0 0 80 80" version="1.1" xmlns="http://www.w3.org/2000/svg" xmlns:xlink="http://www.w3.org/1999/xlink">
    <title>Icon-Architecture/64/Arch_AWS-Fault-Injection-Simulator_64</title>
    <g id="Icon-Architecture/64/Arch_AWS-Fault-Injection-Simulator_64" stroke="none" stroke-width="1" fill="none" fill-rule="evenodd">
        <g id="Icon-Architecture-BG/64/Management-Governance" fill="#E7157B">
            <rect id="Rectangle" x="0" y="0" width="80" height="80"></rect>
        </g>
        <g id="Icon-Service/64/AWS-Fault-Injection-Simulator_64" transform="translate(12.220000, 12.300000)" fill="#FFFFFF">
            <path d="M17.783,24.7002324 C19.437,24.7002324 20.783,26.0462324 20.783,27.7002324 L22.783,27.7002324 C22.783,24.9432324 20.54,22.7002324 17.783,22.7002324 C15.026,22.7002324 12.783,24.9432324 12.783,27.7002324 L14.783,27.7002324 C14.783,26.0462324 16.129,24.7002324 17.783,24.7002324 L17.783,24.7002324 Z M33.49,28.4102324 L36.283,25.6162324 L39.076,28.4102324 L40.49,26.9962324 L37.697,24.2012324 L40.49,21.4072324 L39.076,19.9932324 L36.283,22.7872324 L33.49,19.9932324 L32.076,21.4072324 L34.869,24.2012324 L32.076,26.9962324 L33.49,28.4102324 Z M24.783,13.2002324 C24.783,11.8222324 23.662,10.7002324 22.283,10.7002324 C20.904,10.7002324 19.783,11.8222324 19.783,13.2002324 C19.783,14.5782324 20.904,15.7002324 22.283,15.7002324 C23.662,15.7002324 24.783,14.5782324 24.783,13.2002324 L24.783,13.2002324 Z M26.783,13.2002324 C26.783,15.6812324 24.764,17.7002324 22.283,17.7002324 C19.802,17.7002324 17.783,15.6812324 17.783,13.2002324 C17.783,10.7192324 19.802,8.70023237 22.283,8.70023237 C24.764,8.70023237 26.783,10.7192324 26.783,13.2002324 L26.783,13.2002324 Z M20.783,31.7002324 L14.783,31.7002324 L14.783,44.5942324 C17.84,44.0092324 20.783,40.9352324 20.783,38.7002324 L20.783,31.7002324 Z M20.783,43.2112324 C19.288,44.9292324 17.112,46.3072324 14.783,46.6252324 L14.783,50.7002324 C14.783,52.0692324 15.304,53.7002324 17.783,53.7002324 C20.262,53.7002324 20.783,52.0692324 20.783,50.7002324 L20.783,43.2112324 Z M22.783,29.7002324 L24.783,29.7002324 L24.783,31.7002324 L22.783,31.7002324 L22.783,50.7002324 C22.783,53.1172324 21.47,55.7002324 17.783,55.7002324 C14.096,55.7002324 12.783,53.1172324 12.783,50.7002324 L12.783,31.7002324 L10.783,31.7002324 L10.783,29.7002324 L12.783,29.7002324 L14.783,29.7002324 L20.783,29.7002324 L22.783,29.7002324 Z M55.739,26.0002324 C55.739,35.8522324 45.956,36.6902324 45.857,36.6972324 L26.783,36.7002324 L26.783,34.7002324 L45.783,34.7002324 C46.035,34.6772324 53.739,33.9782324 53.739,26.0002324 C53.739,19.1352324 47.601,17.5432324 45.72,17.2192324 C45.186,17.1272324 44.823,16.6272324 44.899,16.0912324 L44.905,16.0542324 C44.886,13.0722324 43.635,10.9562324 41.465,10.2432324 C39.534,9.60923237 37.406,10.3092324 36.169,11.9872324 C35.949,12.2842324 35.578,12.4352324 35.217,12.3832324 C34.85,12.3282324 34.544,12.0752324 34.421,11.7262324 C33.603,9.40623237 32.419,7.45523237 30.901,5.92723237 C29.038,4.05323237 23.924,0.0232323745 16.704,3.08723237 C12.532,4.85923237 9.263,9.96523237 9.263,14.7102324 L9.362,16.3472324 C9.39,16.8252324 9.076,17.2562324 8.613,17.3752324 C6.143,18.0092324 2,19.9612324 2,25.9172324 C2,30.3822324 4.417,32.8442324 6.443,34.1232324 C7.057,34.5112324 7.833,34.6992324 8.817,34.7002324 L8.815,36.7002324 C7.442,36.6992324 6.317,36.4092324 5.376,35.8142324 C3.368,34.5482324 0,31.5772324 0,25.9172324 C0,19.0772324 4.624,16.5572324 7.319,15.6712324 L7.265,14.7692324 C7.263,9.13123237 10.986,3.34323237 15.923,1.24623237 C21.706,-1.21176763 27.839,0.0112323745 32.319,4.51723237 C33.709,5.91523237 34.847,7.61123237 35.718,9.57323237 C37.478,8.11323237 39.873,7.61523237 42.09,8.34323237 C44.919,9.27323237 46.679,11.8912324 46.885,15.4172324 C49.741,16.0922324 55.739,18.4162324 55.739,26.0002324 L55.739,26.0002324 Z" id="Fill-7"></path>
        </g>
    </g>
</svg>