<?xml version="1.0" encoding="UTF-8"?>
<svg width="80px" height="80px" viewBox="0 0 80 80" version="1.1" xmlns="http://www.w3.org/2000/svg" xmlns:xlink="http://www.w3.org/1999/xlink">
    <title>Icon-Architecture/64/Arch_AWS-Resource-Explorer_64</title>
    <defs>
        <linearGradient x1="0%" y1="100%" x2="100%" y2="0%" id="linearGradient-1">
            <stop stop-color="#B0084D" offset="0%"></stop>
            <stop stop-color="#FF4F8B" offset="100%"></stop>
        </linearGradient>
    </defs>
    <g id="Icon-Architecture/64/Arch_AWS-Resource-Explorer_64" stroke="none" stroke-width="1" fill="none" fill-rule="evenodd">
        <g id="Icon-Architecture-BG/64/Management-Governance" fill="url(#linearGradient-1)">
            <rect id="Rectangle" x="0" y="0" width="80" height="80"></rect>
        </g>
        <g id="Icon-Service/64/AWS-Resource-Explorer_64" transform="translate(14.000000, 11.999810)" fill="#FFFFFF">
            <path d="M33.459,21.0271895 L34.352,22.8171895 L31.769,24.1051895 L30.876,22.3151895 L33.459,21.0271895 Z M28.465,23.5891895 L29.297,25.4081895 L26,26.9151895 L26.002,28.9991895 L24.002,29.0001895 L24.001,27.1261895 L20.562,25.5421895 L21.397,23.7261895 L24.769,25.2781895 L28.465,23.5891895 Z M24,36.0001895 L26,36.0001895 L26,32.0001895 L24,32.0001895 L24,36.0001895 Z M24,43.0001895 L26,43.0001895 L26,39.0001895 L24,39.0001895 L24,43.0001895 Z M49.188,53.2001895 C48.476,53.9131895 47.379,54.3541895 46.664,53.6411895 L37.93,44.7021895 C38.963,43.9001895 39.89,42.9731895 40.691,41.9391895 L49.641,50.6491895 C50.33,51.3381895 49.935,52.4541895 49.188,53.2001895 L49.188,53.2001895 Z M26,53.3371895 L26,47.7401895 C26.807,47.8701895 27.629,47.9561895 28.472,47.9561895 C31.307,47.9561895 33.958,47.1761895 36.246,45.8391895 L37.575,47.1991895 L26,53.3371895 Z M2,15.6831895 L16.028,23.3291895 C14.134,25.8961895 13,29.0561895 13,32.4841895 C13,39.4601895 17.643,45.3681895 24,47.2911895 L24,53.3211895 L2,41.4041895 L2,15.6831895 Z M25.351,2.14018951 L46.866,14.2211895 L36.61,19.3501895 C34.242,17.8771895 31.459,17.0121895 28.472,17.0121895 C24.101,17.0121895 20.156,18.8421895 17.339,21.7661895 L3.107,14.0091895 L25.351,2.14018951 Z M28.472,45.9561895 C21.043,45.9561895 15,39.9131895 15,32.4841895 C15,25.0551895 21.043,19.0121895 28.472,19.0121895 C35.9,19.0121895 41.944,25.0551895 41.944,32.4841895 C41.944,39.9131895 35.9,45.9561895 28.472,45.9561895 L28.472,45.9561895 Z M44.947,43.2901895 L41.829,40.2561895 C43.165,37.9691895 43.944,35.3181895 43.944,32.4841895 C43.944,27.7501895 41.802,23.5111895 38.441,20.6701895 L48,15.8911895 L48,41.6711895 L44.947,43.2901895 Z M51.045,49.2251895 L46.452,44.7551895 L49.469,43.1561895 C49.796,42.9831895 50,42.6431895 50,42.2731895 L50,14.2731895 C50,13.9111895 49.805,13.5781895 49.489,13.4011895 L25.853,0.128189505 C25.556,-0.0388104946 25.194,-0.0428104946 24.893,0.117189505 L0.529,13.1171895 C0.203,13.2911895 -3.55271368e-15,13.6311895 -3.55271368e-15,14.0001895 L-3.55271368e-15,42.0001895 C-3.55271368e-15,42.3671895 0.201,42.7041895 0.523,42.8791895 L24.523,55.8791895 C24.672,55.9601895 24.836,56.0001895 25,56.0001895 C25.161,56.0001895 25.322,55.9611895 25.469,55.8831895 L39.032,48.6901895 L45.242,55.0471895 C45.886,55.6911895 46.697,56.0071895 47.548,56.0071895 C48.585,56.0071895 49.681,55.5361895 50.603,54.6141895 C52.265,52.9531895 52.46,50.6401895 51.045,49.2251895 L51.045,49.2251895 Z" id="Fill-1"></path>
        </g>
    </g>
</svg>