<?xml version="1.0" encoding="UTF-8"?><svg version="1.1" width="80px" height="80px" viewBox="0 0 80.0 80.0" xmlns="http://www.w3.org/2000/svg" xmlns:xlink="http://www.w3.org/1999/xlink"><defs><clipPath id="i0"><path d="M80,0 L80,80 L0,80 L0,0 L80,0 Z"></path></clipPath><linearGradient id="i1" x1="0px" y1="80px" x2="80px" y2="0px" gradientUnits="userSpaceOnUse"><stop stop-color="#B0084D" offset="0%"></stop><stop stop-color="#FF4F8B" offset="100%"></stop></linearGradient><clipPath id="i2"><path d="M28,0 C28.553,0 29,0.447 29,1 L29,18.053 C34.876,18.588 37,23.815 37,28.333 L37,33 C37,33.552 36.553,34 36,34 L33,34 L33,40 L31,40 L31,34 L25,34 L25,40 L23,40 L23,34 L20,34 C19.447,34 19,33.552 19,33 L19,28.333 C19,23.815 21.124,18.588 27,18.053 L27,2.019 C13.126,2.546 2,13.998 2,28 C2,35.252 4.912,41.983 10.2,46.952 C15.485,51.916 22.41,54.394 29.668,53.947 C42.653,53.138 53.089,42.739 53.941,29.759 C54.677,18.582 48.232,8.211 37.905,3.952 L38.667,2.104 C49.788,6.689 56.729,17.856 55.937,29.89 C55.019,43.871 43.778,55.071 29.793,55.943 C29.186,55.981 28.58,56 27.978,56 C20.82,56 14.08,53.341 8.831,48.409 C3.219,43.136 0,35.697 0,28 C0,12.56 12.561,0 28,0 Z M28,20 C22.839,20 21,24.304 21,28.333 L21,32 L35,32 L35,28.333 C35,24.304 33.161,20 28,20 Z"></path></clipPath></defs><g clip-path="url(#i0)"><polygon points="0,0 80,0 80,80 0,80 0,0" stroke="none" fill="url(#i1)"></polygon></g><g transform="translate(8.0 8.0)"><g transform="translate(4.0 4.0)"><g clip-path="url(#i2)"><polygon points="0,0 55.9983222,0 55.9983222,56 0,56 0,0" stroke="none" fill="#FFFFFF"></polygon></g></g></g></svg>