<?xml version="1.0" encoding="UTF-8"?>
<svg xmlns="http://www.w3.org/2000/svg" xmlns:xlink="http://www.w3.org/1999/xlink" width="64" height="64" viewBox="0 0 64 64">
<path fill-rule="evenodd" fill="rgb(86.666667%, 20.392157%, 29.803923%)" fill-opacity="1" d="M 58.777344 43.441406 C 58.570312 43.457031 58.359375 43.472656 58.160156 43.492188 C 57.464844 43.550781 56.738281 43.617188 56 43.695312 L 55.777344 43.71875 C 53.421875 43.960938 50.757812 44.234375 49.492188 44.0625 C 48.699219 43.949219 47.242188 43.316406 45.695312 42.644531 C 43.074219 41.507812 39.808594 40.09375 36.859375 39.867188 C 32.796875 39.554688 25.78125 40.320312 21.253906 42.441406 C 18.636719 42.324219 16.210938 41.621094 14.328125 40.457031 C 14.316406 40.09375 14.308594 39.730469 14.308594 39.59375 C 14.308594 34.078125 16.894531 28.90625 21.402344 25.390625 C 24.464844 23.601562 27.996094 22.65625 31.617188 22.65625 C 39.777344 22.65625 47.019531 27.480469 49.847656 34.578125 L 48.761719 34.578125 C 47.675781 34.578125 46.769531 35.347656 46.546875 36.367188 C 46.359375 36.296875 46.191406 36.234375 45.996094 36.15625 C 43.289062 35.113281 39.578125 33.683594 35.289062 33.941406 C 29.015625 34.308594 25.925781 34.6875 23.496094 35.378906 L 24.230469 37.945312 C 26.453125 37.308594 29.386719 36.957031 35.445312 36.601562 C 39.15625 36.390625 42.558594 37.691406 45.035156 38.644531 C 45.5625 38.847656 46.039062 39.027344 46.492188 39.1875 L 46.492188 39.460938 C 46.492188 40.714844 47.511719 41.734375 48.761719 41.734375 L 53.625 41.734375 C 54.875 41.734375 55.894531 40.71875 55.898438 39.46875 L 56.367188 39.425781 C 57.160156 39.355469 57.886719 39.285156 58.496094 39.226562 L 58.777344 39.199219 Z M 13.066406 45.664062 C 9.53125 46.148438 6.742188 45.71875 5.585938 45.003906 C 6.289062 44.507812 7.867188 43.816406 8.980469 43.332031 C 9.941406 42.910156 10.917969 42.46875 11.859375 41.992188 C 13.398438 43.164062 15.304688 44.042969 17.414062 44.566406 C 16.191406 45.058594 14.683594 45.445312 13.066406 45.664062 Z M 49.15625 39.066406 L 53.230469 39.066406 L 53.230469 37.246094 L 49.15625 37.246094 Z M 35.449219 17.332031 C 46.605469 17.332031 55.976562 25.726562 57.355469 36.65625 C 56.972656 36.691406 56.566406 36.730469 56.136719 36.769531 L 55.890625 36.792969 C 55.859375 35.566406 54.859375 34.578125 53.625 34.578125 L 52.675781 34.578125 C 49.742188 25.941406 41.242188 19.988281 31.617188 19.988281 C 28.050781 19.988281 24.5625 20.804688 21.429688 22.355469 C 21.453125 22.335938 21.46875 22.316406 21.492188 22.300781 C 25.410156 19.097656 30.367188 17.332031 35.449219 17.332031 Z M 60.703125 37.058594 C 60.507812 36.882812 60.28125 36.757812 60.039062 36.660156 C 58.644531 24.246094 48.066406 14.667969 35.449219 14.667969 C 29.753906 14.667969 24.199219 16.644531 19.804688 20.234375 C 14 24.957031 10.671875 31.960938 10.671875 39.441406 C 10.671875 39.496094 10.675781 39.550781 10.675781 39.605469 C 9.789062 40.050781 8.847656 40.480469 7.914062 40.886719 C 5.066406 42.132812 3.007812 43.03125 2.699219 44.65625 C 2.625 45.066406 2.609375 45.875 3.394531 46.660156 C 4.777344 48.042969 7.429688 48.539062 10.125 48.539062 C 11.25 48.539062 12.375 48.453125 13.425781 48.308594 C 15.210938 48.066406 18.542969 47.410156 20.804688 45.753906 C 24.375 43.167969 32.449219 42.199219 36.652344 42.523438 C 39.160156 42.71875 42.195312 44.035156 44.632812 45.09375 C 46.496094 45.902344 47.96875 46.539062 49.121094 46.703125 C 50.710938 46.921875 53.304688 46.652344 56.050781 46.371094 L 56.28125 46.347656 C 56.996094 46.273438 57.703125 46.207031 58.402344 46.148438 C 58.6875 46.121094 58.972656 46.101562 59.351562 46.074219 C 60.523438 45.992188 61.445312 45.007812 61.445312 43.832031 L 61.445312 38.726562 C 61.445312 38.089844 61.175781 37.484375 60.703125 37.058594 Z M 60.703125 37.058594 "/>
</svg>
