<?xml version="1.0" encoding="UTF-8"?>
<svg xmlns="http://www.w3.org/2000/svg" xmlns:xlink="http://www.w3.org/1999/xlink" width="64" height="64" viewBox="0 0 64 64">
<path fill-rule="evenodd" fill="rgb(86.666667%, 20.392157%, 29.803923%)" fill-opacity="1" d="M 44.292969 44.023438 C 44.292969 45.832031 45.464844 47.371094 47.085938 47.925781 L 47.085938 40.117188 C 45.464844 40.671875 44.292969 42.214844 44.292969 44.023438 M 41.738281 45.113281 L 5.492188 45.113281 C 4.472656 45.113281 3.558594 44.585938 3.046875 43.703125 C 2.539062 42.820312 2.542969 41.765625 3.050781 40.882812 L 22.757812 6.742188 C 23.269531 5.859375 24.183594 5.332031 25.203125 5.332031 C 26.222656 5.335938 27.132812 5.863281 27.644531 6.742188 L 39.671875 27.574219 C 40.039062 28.210938 39.820312 29.027344 39.183594 29.394531 C 38.546875 29.761719 37.730469 29.546875 37.359375 28.90625 L 25.332031 8.078125 C 25.324219 8.054688 25.289062 8 25.203125 8 C 25.113281 8 25.082031 8.054688 25.066406 8.078125 L 5.359375 42.21875 C 5.347656 42.238281 5.316406 42.292969 5.359375 42.367188 C 5.402344 42.445312 5.464844 42.445312 5.492188 42.445312 L 41.832031 42.445312 C 42.546875 39.460938 45.21875 37.230469 48.421875 37.230469 C 49.15625 37.230469 49.753906 37.828125 49.753906 38.5625 L 49.753906 39.613281 L 53.835938 39.613281 C 54.574219 39.613281 55.171875 40.207031 55.171875 40.945312 C 55.171875 41.683594 54.574219 42.277344 53.835938 42.277344 L 49.753906 42.277344 L 49.753906 45.765625 L 53.835938 45.765625 C 54.574219 45.765625 55.171875 46.363281 55.171875 47.101562 C 55.171875 47.835938 54.574219 48.433594 53.835938 48.433594 L 49.753906 48.433594 L 49.753906 49.480469 C 49.753906 50.21875 49.15625 50.816406 48.421875 50.816406 C 45.046875 50.816406 42.265625 48.339844 41.738281 45.113281 M 61.253906 44.023438 C 61.253906 52.527344 54.335938 59.445312 45.832031 59.445312 C 39.222656 59.445312 33.355469 55.242188 31.230469 48.988281 C 30.992188 48.292969 31.367188 47.535156 32.0625 47.296875 C 32.769531 47.0625 33.519531 47.433594 33.753906 48.128906 C 35.511719 53.300781 40.367188 56.777344 45.832031 56.777344 C 52.867188 56.777344 58.589844 51.054688 58.589844 44.023438 C 58.589844 36.988281 52.867188 31.269531 45.832031 31.269531 C 40.488281 31.269531 35.667969 34.644531 33.839844 39.667969 C 33.589844 40.359375 32.828125 40.71875 32.132812 40.464844 C 31.441406 40.210938 31.082031 39.449219 31.335938 38.753906 C 33.542969 32.683594 39.367188 28.601562 45.832031 28.601562 C 54.335938 28.601562 61.253906 35.519531 61.253906 44.023438 "/>
</svg>
