<?xml version="1.0" encoding="UTF-8"?>
<svg xmlns="http://www.w3.org/2000/svg" xmlns:xlink="http://www.w3.org/1999/xlink" width="64" height="64" viewBox="0 0 64 64">
<path fill-rule="evenodd" fill="rgb(86.666667%, 20.392157%, 29.803923%)" fill-opacity="1" d="M 58.601562 55.628906 C 58.1875 55.65625 57.714844 55.6875 57.207031 55.714844 L 56.851562 55.746094 C 54.796875 55.945312 52.53125 56.09375 51.28125 55.730469 L 50.601562 55.558594 C 50.011719 55.375 49.410156 55.121094 48.730469 54.832031 C 46.863281 54.039062 44.519531 53.058594 41.867188 53.117188 L 41.800781 50.453125 C 45.054688 50.351562 47.777344 51.53125 49.773438 52.378906 C 50.367188 52.628906 50.886719 52.851562 51.332031 52.996094 L 51.980469 53.15625 C 52.121094 53.199219 52.332031 53.230469 52.621094 53.257812 L 52.554688 52.976562 C 51.113281 47.175781 45.695312 42.972656 39.378906 42.761719 C 36.769531 42.667969 34.230469 43.261719 31.992188 44.46875 C 28.6875 46.878906 26.71875 50.515625 26.585938 54.457031 C 26.582031 54.53125 26.578125 54.703125 26.578125 54.890625 C 27.847656 55.691406 29.46875 56.195312 31.230469 56.34375 C 34.765625 54.851562 39.964844 54.535156 42.855469 54.855469 C 45.082031 55.101562 47.480469 56.238281 49.402344 57.152344 C 50.453125 57.648438 51.539062 58.164062 52.070312 58.257812 C 52.953125 58.410156 54.894531 58.277344 56.605469 58.160156 L 56.785156 58.148438 C 57.332031 58.105469 57.871094 58.074219 58.386719 58.046875 C 58.429688 58.046875 58.472656 58.042969 58.515625 58.042969 Z M 26.015625 58.433594 C 26.429688 58.371094 26.839844 58.277344 27.242188 58.171875 C 26.152344 57.761719 25.160156 57.222656 24.316406 56.5625 C 23.664062 56.855469 23.003906 57.128906 22.351562 57.390625 C 21.769531 57.621094 21.007812 57.925781 20.445312 58.195312 C 21.355469 58.519531 22.980469 58.742188 25.128906 58.523438 Z M 42.328125 38.9375 C 39.660156 38.855469 37.042969 39.441406 34.699219 40.609375 C 36.242188 40.226562 37.84375 40.046875 39.464844 40.097656 C 46.96875 40.347656 53.414062 45.382812 55.144531 52.339844 L 55.351562 53.199219 C 55.730469 53.167969 56.136719 53.136719 56.597656 53.09375 C 56.832031 53.070312 56.996094 53.054688 57.066406 53.050781 C 57.253906 53.042969 57.425781 53.03125 57.601562 53.019531 C 56.710938 45.289062 50.238281 39.207031 42.328125 38.9375 Z M 61.289062 54.988281 L 61.164062 58.742188 C 61.128906 59.792969 60.277344 60.644531 59.226562 60.679688 C 58.925781 60.691406 58.734375 60.699219 58.542969 60.710938 C 58.019531 60.734375 57.503906 60.769531 56.976562 60.804688 L 56.789062 60.820312 C 54.742188 60.960938 52.816406 61.09375 51.613281 60.886719 C 50.71875 60.726562 49.632812 60.210938 48.261719 59.558594 C 46.515625 58.730469 44.34375 57.703125 42.566406 57.503906 C 39.460938 57.160156 33.578125 57.726562 31.058594 59.429688 C 29.722656 60.339844 27.429688 61.046875 25.359375 61.1875 L 25.050781 61.210938 C 24.902344 61.222656 24.738281 61.234375 24.554688 61.242188 L 24.355469 61.257812 L 24.355469 61.253906 C 24.085938 61.269531 23.785156 61.277344 23.464844 61.277344 C 21.589844 61.277344 19.058594 60.992188 17.769531 59.613281 C 17.101562 58.898438 17.140625 58.175781 17.222656 57.808594 C 17.53125 56.4375 19.136719 55.796875 21.367188 54.910156 C 21.992188 54.664062 22.617188 54.402344 23.21875 54.132812 C 23.4375 48.558594 26.101562 43.429688 30.546875 40.054688 C 33.929688 37.472656 38.152344 36.125 42.414062 36.273438 C 51.8125 36.589844 59.460938 43.9375 60.289062 53.1875 C 60.429688 53.269531 60.5625 53.363281 60.679688 53.476562 C 61.085938 53.871094 61.308594 54.421875 61.289062 54.988281 Z M 26.667969 30.667969 L 30.667969 30.667969 L 30.667969 26.667969 L 26.667969 26.667969 Z M 33.332031 25.332031 L 33.332031 32 C 33.332031 32.734375 32.738281 33.332031 32 33.332031 L 25.332031 33.332031 C 24.597656 33.332031 24 32.734375 24 32 L 24 25.332031 C 24 24.597656 24.597656 24 25.332031 24 L 32 24 C 32.738281 24 33.332031 24.597656 33.332031 25.332031 Z M 13.332031 30.667969 L 17.332031 30.667969 L 17.332031 26.667969 L 13.332031 26.667969 Z M 20 25.332031 L 20 32 C 20 32.734375 19.402344 33.332031 18.667969 33.332031 L 12 33.332031 C 11.261719 33.332031 10.667969 32.734375 10.667969 32 L 10.667969 25.332031 C 10.667969 24.597656 11.261719 24 12 24 L 18.667969 24 C 19.402344 24 20 24.597656 20 25.332031 Z M 26.667969 17.332031 L 30.667969 17.332031 L 30.667969 13.332031 L 26.667969 13.332031 Z M 33.332031 18.667969 C 33.332031 19.402344 32.738281 20 32 20 L 25.332031 20 C 24.597656 20 24 19.402344 24 18.667969 L 24 12 C 24 11.265625 24.597656 10.667969 25.332031 10.667969 L 32 10.667969 C 32.738281 10.667969 33.332031 11.265625 33.332031 12 Z M 13.332031 17.332031 L 17.332031 17.332031 L 17.332031 13.332031 L 13.332031 13.332031 Z M 20 18.667969 C 20 19.402344 19.402344 20 18.667969 20 L 12 20 C 11.261719 20 10.667969 19.402344 10.667969 18.667969 L 10.667969 12 C 10.667969 11.265625 11.261719 10.667969 12 10.667969 L 18.667969 10.667969 C 19.402344 10.667969 20 11.265625 20 12 Z M 26.667969 41.332031 L 16 41.332031 C 15.265625 41.332031 14.667969 41.933594 14.667969 42.667969 L 14.667969 61.332031 L 5.777344 61.332031 C 4.0625 61.332031 2.667969 60.109375 2.667969 58.605469 L 2.667969 5.394531 C 2.667969 3.890625 4.0625 2.667969 5.777344 2.667969 L 38.222656 2.667969 C 39.9375 2.667969 41.332031 3.890625 41.332031 5.394531 L 41.332031 33.332031 L 38.667969 33.332031 L 38.667969 5.394531 C 38.660156 5.445312 38.5 5.332031 38.222656 5.332031 L 5.777344 5.332031 C 5.503906 5.332031 5.339844 5.445312 5.308594 5.488281 L 5.332031 58.605469 C 5.339844 58.550781 5.5 58.667969 5.777344 58.667969 L 12 58.667969 L 12 42.667969 C 12 40.460938 13.792969 38.667969 16 38.667969 L 26.667969 38.667969 Z M 26.667969 41.332031 "/>
</svg>
