<?xml version="1.0" encoding="UTF-8"?>
<svg xmlns="http://www.w3.org/2000/svg" xmlns:xlink="http://www.w3.org/1999/xlink" width="64" height="64" viewBox="0 0 64 64">
<path fill-rule="evenodd" fill="rgb(86.666667%, 20.392157%, 29.803923%)" fill-opacity="1" d="M 60.550781 31.058594 L 55.964844 26.472656 L 54.078125 28.359375 L 56.386719 30.667969 L 47.769531 30.667969 L 47.769531 33.332031 L 56.386719 33.332031 L 54.078125 35.640625 L 55.964844 37.527344 L 60.550781 32.941406 C 61.070312 32.421875 61.070312 31.578125 60.550781 31.058594 Z M 9.496094 28.390625 L 7.609375 26.503906 L 3.058594 31.058594 C 2.535156 31.578125 2.535156 32.421875 3.058594 32.941406 L 7.609375 37.496094 L 9.496094 35.609375 L 7.21875 33.332031 L 15.769531 33.332031 L 15.769531 30.667969 L 7.21875 30.667969 Z M 42.4375 33.332031 L 33.105469 33.332031 L 33.105469 37.332031 L 42.4375 37.332031 Z M 38.4375 40 L 29.105469 40 L 29.105469 44 L 38.4375 44 Z M 21.105469 37.332031 L 30.4375 37.332031 L 30.4375 33.332031 L 21.105469 33.332031 Z M 23.507812 30.667969 L 39.914062 30.667969 C 39.882812 28.984375 39.464844 27.789062 38.996094 26.988281 C 38.109375 28.648438 36.65625 29.203125 35.804688 29.238281 C 35.4375 29.238281 35.089844 29.121094 34.824219 28.871094 C 34.5625 28.617188 34.414062 28.269531 34.414062 27.90625 C 34.414062 22.921875 31.316406 20.394531 28.742188 19.152344 C 29.351562 20.835938 29.578125 23.113281 28.546875 25.953125 C 28.367188 26.445312 27.917969 26.785156 27.398438 26.828125 C 26.859375 26.867188 26.382812 26.601562 26.128906 26.148438 C 25.859375 25.667969 25.367188 24.949219 24.789062 24.324219 C 25.03125 26.046875 24.988281 28.179688 23.875 29.875 C 23.726562 30.132812 23.613281 30.398438 23.507812 30.667969 Z M 45.105469 32 L 45.105469 38.667969 C 45.105469 39.402344 44.507812 40 43.769531 40 L 41.105469 40 L 41.105469 45.332031 C 41.105469 46.070312 40.507812 46.667969 39.769531 46.667969 L 27.769531 46.667969 C 27.035156 46.667969 26.4375 46.070312 26.4375 45.332031 L 26.4375 40 L 19.769531 40 C 19.035156 40 18.4375 39.402344 18.4375 38.667969 L 18.4375 32 C 18.4375 31.265625 19.035156 30.667969 19.769531 30.667969 L 20.722656 30.667969 C 20.914062 29.945312 21.167969 29.238281 21.539062 28.585938 C 21.550781 28.566406 21.621094 28.445312 21.632812 28.429688 C 22.839844 26.597656 21.964844 23.335938 21.523438 22.230469 C 21.359375 21.820312 21.410156 21.355469 21.65625 20.988281 C 21.90625 20.621094 22.320312 20.402344 22.761719 20.402344 C 24.269531 20.402344 25.589844 21.328125 26.578125 22.335938 C 26.644531 19.386719 24.820312 17.835938 24.722656 17.757812 C 24.261719 17.375 24.105469 16.726562 24.351562 16.179688 C 24.597656 15.632812 25.167969 15.308594 25.765625 15.402344 C 29.253906 15.9375 35.511719 18.679688 36.832031 25.304688 C 36.925781 25.023438 37.003906 24.683594 37.046875 24.265625 C 37.09375 23.820312 37.363281 23.429688 37.757812 23.222656 C 38.15625 23.015625 38.632812 23.023438 39.023438 23.238281 C 39.164062 23.320312 42.507812 25.246094 42.582031 30.667969 L 43.769531 30.667969 C 44.507812 30.667969 45.105469 31.265625 45.105469 32 Z M 6.332031 24 C 9.742188 13.191406 19.855469 5.332031 31.769531 5.332031 C 43.6875 5.332031 53.800781 13.191406 57.207031 24 L 59.984375 24 C 56.496094 11.703125 45.171875 2.667969 31.769531 2.667969 C 18.371094 2.667969 7.046875 11.703125 3.554688 24 Z M 59.984375 40 C 56.496094 52.296875 45.171875 61.332031 31.769531 61.332031 C 18.371094 61.332031 7.046875 52.296875 3.554688 40 L 6.332031 40 C 9.742188 50.808594 19.855469 58.667969 31.769531 58.667969 C 43.6875 58.667969 53.800781 50.808594 57.207031 40 Z M 59.984375 40 "/>
</svg>
