<?xml version="1.0" encoding="UTF-8"?>
<svg xmlns="http://www.w3.org/2000/svg" xmlns:xlink="http://www.w3.org/1999/xlink" width="64" height="64" viewBox="0 0 64 64">
<path fill-rule="evenodd" fill="rgb(86.666667%, 20.392157%, 29.803923%)" fill-opacity="1" d="M 48.105469 46.816406 L 52.15625 46.816406 L 52.15625 49.480469 L 48.105469 49.480469 L 48.105469 53.53125 L 45.441406 53.53125 L 45.441406 49.480469 L 41.390625 49.480469 L 41.390625 46.816406 L 45.441406 46.816406 L 45.441406 42.765625 L 48.105469 42.765625 Z M 46.773438 56.507812 C 42.164062 56.507812 38.417969 52.757812 38.417969 48.148438 C 38.417969 43.539062 42.164062 39.789062 46.773438 39.789062 C 51.382812 39.789062 55.132812 43.539062 55.132812 48.148438 C 55.132812 52.757812 51.382812 56.507812 46.773438 56.507812 Z M 28.210938 51.042969 C 17.332031 50.246094 16.894531 39.957031 16.882812 39.53125 L 16.882812 17.839844 L 28.210938 13.480469 Z M 35.75 48.148438 C 35.75 48.671875 35.800781 49.179688 35.871094 49.683594 C 34.421875 50.441406 32.753906 50.898438 30.878906 51.046875 L 30.878906 13.480469 L 42.210938 17.839844 L 42.210938 38.125 C 38.40625 39.863281 35.75 43.695312 35.75 48.148438 Z M 29.546875 58.648438 C 23.425781 58.648438 18.585938 56.832031 15.160156 53.246094 C 8.949219 46.746094 9.335938 36.46875 9.34375 36.304688 L 9.34375 13.515625 L 29.546875 5.4375 L 49.746094 13.515625 L 49.75 36.363281 C 49.75 36.371094 49.765625 36.808594 49.746094 37.542969 C 48.800781 37.277344 47.804688 37.121094 46.773438 37.121094 C 46.125 37.121094 45.496094 37.191406 44.875 37.296875 L 44.875 16.921875 C 44.875 16.371094 44.535156 15.875 44.023438 15.675781 L 30.023438 10.292969 C 29.714844 10.175781 29.375 10.175781 29.066406 10.292969 L 15.070312 15.675781 C 14.554688 15.875 14.214844 16.371094 14.214844 16.921875 L 14.214844 39.5625 C 14.21875 39.707031 14.699219 53.789062 29.546875 53.789062 C 32.179688 53.789062 34.527344 53.28125 36.578125 52.320312 C 37.238281 53.933594 38.273438 55.347656 39.570312 56.472656 C 36.761719 57.910156 33.40625 58.648438 29.546875 58.648438 Z M 52.359375 38.660156 C 52.453125 37.214844 52.414062 36.304688 52.414062 36.304688 L 52.414062 12.617188 C 52.414062 12.070312 52.082031 11.578125 51.578125 11.378906 L 30.039062 2.761719 C 29.722656 2.632812 29.367188 2.632812 29.050781 2.761719 L 7.515625 11.378906 C 7.007812 11.578125 6.675781 12.070312 6.675781 12.617188 L 6.679688 36.242188 C 6.65625 36.707031 6.21875 47.734375 13.21875 55.074219 C 17.167969 59.214844 22.660156 61.3125 29.546875 61.3125 C 34.4375 61.3125 38.648438 60.230469 42.089844 58.113281 C 43.511719 58.785156 45.097656 59.171875 46.773438 59.171875 C 52.855469 59.171875 57.800781 54.226562 57.800781 48.148438 C 57.800781 44.109375 55.609375 40.578125 52.359375 38.660156 Z M 52.359375 38.660156 "/>
</svg>
