<?xml version="1.0" encoding="UTF-8"?>
<svg xmlns="http://www.w3.org/2000/svg" xmlns:xlink="http://www.w3.org/1999/xlink" width="64" height="64" viewBox="0 0 64 64">
<path fill-rule="evenodd" fill="rgb(86.666667%, 20.392157%, 29.803923%)" fill-opacity="1" d="M 17.332031 44.011719 L 54.667969 44.011719 L 54.667969 41.34375 L 17.332031 41.34375 Z M 17.332031 33.34375 L 61.332031 33.34375 L 61.332031 30.679688 L 17.332031 30.679688 Z M 25.332031 14.679688 C 25.332031 16.148438 24.136719 17.34375 22.667969 17.34375 C 21.195312 17.34375 20 16.148438 20 14.679688 C 20 13.207031 21.195312 12.011719 22.667969 12.011719 C 24.136719 12.011719 25.332031 13.207031 25.332031 14.679688 Z M 28 14.679688 C 28 11.738281 25.609375 9.34375 22.667969 9.34375 C 19.726562 9.34375 17.332031 11.738281 17.332031 14.679688 C 17.332031 17.621094 19.726562 20.011719 22.667969 20.011719 C 25.609375 20.011719 28 17.621094 28 14.679688 Z M 42.667969 61.34375 L 2.667969 61.34375 L 2.667969 16.648438 L 14.757812 2.679688 L 30.5625 2.667969 L 42.667969 16.648438 L 42.667969 26.679688 L 40 26.679688 L 40 17.644531 L 29.34375 5.335938 L 15.976562 5.34375 L 5.332031 17.644531 L 5.332031 58.679688 L 40 58.679688 L 40 49.34375 L 42.667969 49.34375 Z M 42.667969 61.34375 "/>
</svg>
