<?xml version="1.0" encoding="UTF-8"?>
<svg xmlns="http://www.w3.org/2000/svg" xmlns:xlink="http://www.w3.org/1999/xlink" width="64" height="64" viewBox="0 0 64 64">
<path fill-rule="evenodd" fill="rgb(86.666667%, 20.392157%, 29.803923%)" fill-opacity="1" d="M 27.054688 24.054688 L 28.9375 25.9375 L 19.609375 35.269531 C 19.347656 35.53125 19.007812 35.660156 18.664062 35.660156 C 18.324219 35.660156 17.984375 35.53125 17.722656 35.269531 L 13.054688 30.605469 L 14.941406 28.71875 L 18.664062 32.441406 Z M 27.054688 8.890625 L 28.9375 10.773438 L 19.609375 20.105469 C 19.347656 20.367188 19.007812 20.496094 18.664062 20.496094 C 18.324219 20.496094 17.984375 20.367188 17.722656 20.105469 L 13.054688 15.441406 L 14.941406 13.554688 L 18.664062 17.277344 Z M 26.605469 43.433594 L 22.300781 47.742188 L 26.605469 52.046875 L 24.722656 53.933594 L 20.414062 49.625 L 16.109375 53.933594 L 14.222656 52.046875 L 18.527344 47.742188 L 14.222656 43.433594 L 16.109375 41.550781 L 20.414062 45.855469 L 24.722656 41.550781 Z M 52.324219 57.582031 C 52.324219 58.171875 51.84375 58.65625 51.25 58.65625 L 11.742188 58.65625 C 11.148438 58.65625 10.667969 58.171875 10.667969 57.582031 L 10.667969 6.40625 C 10.667969 5.816406 11.148438 5.332031 11.742188 5.332031 L 51.25 5.332031 C 51.84375 5.332031 52.324219 5.816406 52.324219 6.40625 Z M 51.25 2.667969 L 11.742188 2.667969 C 9.679688 2.667969 8 4.34375 8 6.40625 L 8 57.582031 C 8 59.644531 9.679688 61.320312 11.742188 61.320312 L 51.25 61.320312 C 53.3125 61.320312 54.992188 59.644531 54.992188 57.582031 L 54.992188 6.40625 C 54.992188 4.34375 53.3125 2.667969 51.25 2.667969 Z M 51.25 2.667969 "/>
</svg>
