<?xml version="1.0" encoding="UTF-8"?>
<svg xmlns="http://www.w3.org/2000/svg" xmlns:xlink="http://www.w3.org/1999/xlink" width="64" height="64" viewBox="0 0 64 64">
<path fill-rule="evenodd" fill="rgb(86.666667%, 20.392157%, 29.803923%)" fill-opacity="1" d="M 32.777344 22.789062 L 24.460938 22.789062 L 24.460938 20.121094 L 30.109375 20.121094 L 30.109375 12.144531 L 32.777344 12.144531 Z M 31.441406 9.988281 C 37.125 9.988281 41.746094 14.609375 41.746094 20.289062 C 41.746094 25.972656 37.125 30.59375 31.441406 30.59375 C 25.761719 30.59375 21.140625 25.972656 21.140625 20.289062 C 21.140625 14.609375 25.761719 9.988281 31.441406 9.988281 Z M 31.441406 33.257812 C 38.59375 33.257812 44.414062 27.441406 44.414062 20.289062 C 44.414062 13.140625 38.59375 7.320312 31.441406 7.320312 C 24.292969 7.320312 18.472656 13.140625 18.472656 20.289062 C 18.472656 27.441406 24.292969 33.257812 31.441406 33.257812 Z M 45.125 49.109375 C 45.507812 49.570312 45.703125 50.164062 45.703125 50.890625 C 45.703125 51.933594 45.328125 52.765625 44.585938 53.382812 C 43.839844 54.003906 42.839844 54.3125 41.582031 54.3125 C 40.332031 54.3125 39.246094 54.089844 38.320312 53.644531 L 38.320312 52.34375 C 39.464844 52.722656 40.539062 52.914062 41.546875 52.914062 C 42.320312 52.914062 42.925781 52.746094 43.363281 52.40625 C 43.804688 52.070312 44.023438 51.613281 44.023438 51.039062 C 44.023438 50.636719 43.894531 50.304688 43.640625 50.035156 C 43.386719 49.769531 42.953125 49.519531 42.347656 49.28125 L 40.765625 48.675781 C 39.875 48.339844 39.226562 47.933594 38.828125 47.453125 C 38.425781 46.976562 38.222656 46.375 38.222656 45.644531 C 38.222656 45.039062 38.375 44.5 38.679688 44.023438 C 38.984375 43.550781 39.421875 43.183594 39.992188 42.910156 C 40.5625 42.640625 41.234375 42.5 42.003906 42.5 C 42.980469 42.5 43.984375 42.699219 45.019531 43.089844 L 45.019531 44.410156 C 43.921875 44.070312 42.953125 43.902344 42.117188 43.902344 C 41.414062 43.902344 40.867188 44.046875 40.480469 44.335938 C 40.09375 44.621094 39.902344 45.03125 39.902344 45.566406 C 39.902344 46 40.03125 46.34375 40.292969 46.601562 C 40.554688 46.855469 41.035156 47.113281 41.746094 47.375 L 43.226562 47.925781 C 44.105469 48.253906 44.738281 48.648438 45.125 49.109375 Z M 28.171875 42.746094 L 37.035156 42.746094 L 37.035156 44.113281 L 33.433594 44.113281 L 33.433594 54.035156 L 31.773438 54.035156 L 31.773438 44.113281 L 28.171875 44.113281 Z M 26.488281 49.109375 C 26.871094 49.570312 27.066406 50.164062 27.066406 50.890625 C 27.066406 51.933594 26.695312 52.765625 25.949219 53.382812 C 25.203125 54.003906 24.203125 54.3125 22.941406 54.3125 C 21.695312 54.3125 20.609375 54.089844 19.6875 53.644531 L 19.6875 52.34375 C 20.824219 52.722656 21.902344 52.914062 22.914062 52.914062 C 23.683594 52.914062 24.289062 52.746094 24.726562 52.40625 C 25.167969 52.070312 25.386719 51.613281 25.386719 51.039062 C 25.386719 50.636719 25.257812 50.304688 25.003906 50.035156 C 24.75 49.769531 24.316406 49.519531 23.710938 49.28125 L 22.128906 48.675781 C 21.238281 48.339844 20.589844 47.933594 20.191406 47.453125 C 19.789062 46.976562 19.585938 46.375 19.585938 45.644531 C 19.585938 45.039062 19.742188 44.5 20.042969 44.023438 C 20.347656 43.550781 20.785156 43.183594 21.355469 42.910156 C 21.925781 42.640625 22.597656 42.5 23.367188 42.5 C 24.34375 42.5 25.351562 42.699219 26.378906 43.089844 L 26.378906 44.410156 C 25.285156 44.070312 24.316406 43.902344 23.480469 43.902344 C 22.773438 43.902344 22.230469 44.046875 21.84375 44.335938 C 21.460938 44.621094 21.265625 45.03125 21.265625 45.566406 C 21.265625 46 21.394531 46.34375 21.65625 46.601562 C 21.917969 46.855469 22.402344 47.113281 23.105469 47.375 L 24.589844 47.925781 C 25.46875 48.253906 26.101562 48.648438 26.488281 49.109375 Z M 52.21875 57.449219 C 52.21875 58.039062 51.738281 58.523438 51.144531 58.523438 L 11.742188 58.523438 C 11.148438 58.523438 10.667969 58.039062 10.667969 57.449219 L 10.667969 6.40625 C 10.667969 5.816406 11.148438 5.332031 11.742188 5.332031 L 51.144531 5.332031 C 51.738281 5.332031 52.21875 5.816406 52.21875 6.40625 Z M 51.144531 2.667969 L 11.742188 2.667969 C 9.679688 2.667969 8 4.34375 8 6.40625 L 8 57.449219 C 8 59.511719 9.679688 61.1875 11.742188 61.1875 L 51.144531 61.1875 C 53.207031 61.1875 54.886719 59.511719 54.886719 57.449219 L 54.886719 6.40625 C 54.886719 4.34375 53.207031 2.667969 51.144531 2.667969 Z M 51.144531 2.667969 "/>
</svg>
