<?xml version="1.0" encoding="UTF-8"?>
<svg xmlns="http://www.w3.org/2000/svg" xmlns:xlink="http://www.w3.org/1999/xlink" width="64" height="64" viewBox="0 0 64 64">
<path fill-rule="evenodd" fill="rgb(86.666667%, 20.392157%, 29.803923%)" fill-opacity="1" d="M 27.066406 50.203125 L 27.066406 13.136719 L 15.246094 17.359375 L 15.246094 39.1875 C 15.246094 40.933594 17.359375 49.46875 27.066406 50.203125 Z M 41.554688 32.972656 L 41.554688 17.359375 L 29.734375 13.136719 L 29.734375 50.273438 L 31.488281 50.269531 L 31.488281 52.9375 L 28.402344 52.941406 C 16.328125 52.941406 12.578125 42.859375 12.578125 39.1875 L 12.578125 16.417969 C 12.578125 15.855469 12.933594 15.351562 13.464844 15.164062 L 27.953125 9.992188 C 28.242188 9.886719 28.558594 9.886719 28.847656 9.992188 L 43.335938 15.164062 C 43.867188 15.351562 44.222656 15.855469 44.222656 16.417969 L 44.222656 32.972656 Z M 28.402344 57.519531 C 8.230469 57.519531 8 37.953125 8 37.121094 L 8 13.199219 L 28.402344 5.425781 L 48.800781 13.199219 L 48.800781 30.902344 L 51.46875 30.902344 L 51.46875 12.28125 C 51.46875 11.726562 51.125 11.230469 50.609375 11.035156 L 28.875 2.753906 C 28.570312 2.636719 28.234375 2.636719 27.925781 2.753906 L 6.191406 11.035156 C 5.675781 11.230469 5.332031 11.726562 5.332031 12.28125 L 5.332031 37.121094 C 5.332031 45.097656 10.15625 60.1875 28.402344 60.1875 C 30.238281 60.1875 32 60.046875 33.640625 59.773438 L 33.199219 57.140625 C 31.707031 57.394531 30.089844 57.519531 28.402344 57.519531 Z M 57.136719 47.507812 C 57.136719 41.371094 52.144531 36.378906 46.007812 36.378906 C 39.871094 36.378906 34.875 41.371094 34.875 47.507812 C 34.875 53.597656 39.855469 58.550781 45.976562 58.550781 C 52.128906 58.550781 57.136719 53.597656 57.136719 47.507812 Z M 59.804688 47.507812 C 59.804688 55.066406 53.601562 61.21875 45.976562 61.21875 C 38.386719 61.21875 32.210938 55.066406 32.210938 47.507812 C 32.210938 39.898438 38.398438 33.710938 46.007812 33.710938 C 53.617188 33.710938 59.804688 39.898438 59.804688 47.507812 Z M 44.640625 55.742188 L 47.308594 55.742188 L 47.308594 53.671875 L 44.640625 53.671875 Z M 44.675781 51.5 L 47.339844 51.5 L 47.339844 40.21875 L 44.675781 40.21875 Z M 44.675781 51.5 "/>
</svg>
