<?xml version="1.0" encoding="UTF-8"?>
<svg xmlns="http://www.w3.org/2000/svg" xmlns:xlink="http://www.w3.org/1999/xlink" width="64" height="64" viewBox="0 0 64 64">
<path fill-rule="evenodd" fill="rgb(86.666667%, 20.392157%, 29.803923%)" fill-opacity="1" d="M 38.761719 27.394531 L 30.992188 35.554688 C 30.738281 35.816406 30.390625 35.96875 30.023438 35.96875 C 29.660156 35.96875 29.3125 35.816406 29.0625 35.554688 L 25.175781 31.476562 L 27.105469 29.636719 L 30.023438 32.703125 L 36.832031 25.558594 Z M 27.472656 42.792969 L 27.472656 50.464844 L 31.125 47.480469 C 31.613281 47.078125 32.320312 47.078125 32.8125 47.480469 L 36.460938 50.464844 L 36.460938 42.792969 L 39.128906 42.792969 L 39.128906 53.277344 C 39.128906 53.792969 38.832031 54.261719 38.367188 54.484375 C 38.183594 54.570312 37.988281 54.613281 37.792969 54.613281 C 37.492188 54.613281 37.191406 54.507812 36.953125 54.3125 L 31.96875 50.234375 L 26.984375 54.3125 C 26.585938 54.636719 26.035156 54.707031 25.570312 54.484375 C 25.105469 54.261719 24.808594 53.792969 24.808594 53.277344 L 24.808594 42.792969 Z M 31.96875 39.128906 C 26.917969 39.128906 22.8125 35.019531 22.8125 29.972656 C 22.8125 24.925781 26.917969 20.820312 31.96875 20.820312 C 37.015625 20.820312 41.121094 24.925781 41.121094 29.972656 C 41.121094 35.019531 37.015625 39.128906 31.96875 39.128906 Z M 43.789062 29.972656 C 43.789062 23.453125 38.484375 18.152344 31.96875 18.152344 C 25.449219 18.152344 20.144531 23.453125 20.144531 29.972656 C 20.144531 36.492188 25.449219 41.792969 31.96875 41.792969 C 38.484375 41.792969 43.789062 36.492188 43.789062 29.972656 Z M 5.335938 12.324219 L 58.535156 12.324219 L 58.535156 8 L 5.335938 8 Z M 61.203125 13.65625 L 61.203125 6.667969 C 61.203125 5.929688 60.605469 5.332031 59.867188 5.332031 L 4 5.332031 C 3.261719 5.332031 2.667969 5.929688 2.667969 6.667969 L 2.667969 57.941406 C 2.667969 58.675781 3.261719 59.273438 4 59.273438 L 42.457031 59.273438 L 42.457031 56.605469 L 5.335938 56.605469 L 5.335938 14.992188 L 58.539062 14.992188 L 58.597656 56.605469 L 54.109375 56.605469 L 54.109375 59.273438 L 59.933594 59.273438 C 60.289062 59.273438 60.628906 59.132812 60.878906 58.882812 C 61.128906 58.632812 61.269531 58.292969 61.269531 57.9375 Z M 61.203125 13.65625 "/>
</svg>
