<?xml version="1.0" encoding="UTF-8"?>
<svg xmlns="http://www.w3.org/2000/svg" xmlns:xlink="http://www.w3.org/1999/xlink" width="64" height="64" viewBox="0 0 64 64">
<path fill-rule="evenodd" fill="rgb(86.666667%, 20.392157%, 29.803923%)" fill-opacity="1" d="M 46.933594 39.519531 L 49.601562 39.519531 L 49.601562 50.171875 L 41.277344 50.171875 L 41.277344 47.507812 L 46.933594 47.507812 Z M 48.269531 57.992188 C 42.578125 57.992188 37.953125 53.363281 37.953125 47.675781 C 37.953125 41.984375 42.578125 37.359375 48.269531 37.359375 C 53.957031 37.359375 58.585938 41.984375 58.585938 47.675781 C 58.585938 53.363281 53.957031 57.992188 48.269531 57.992188 Z M 48.269531 34.691406 C 41.109375 34.691406 35.285156 40.515625 35.285156 47.675781 C 35.285156 54.832031 41.109375 60.660156 48.269531 60.660156 C 55.425781 60.660156 61.25 54.832031 61.25 47.675781 C 61.25 40.515625 55.425781 34.691406 48.269531 34.691406 Z M 5.332031 51 L 33.125 51 L 33.125 53.667969 L 4 53.667969 C 3.261719 53.667969 2.667969 53.070312 2.667969 52.335938 L 2.667969 46.507812 L 5.332031 46.507812 Z M 52.425781 12.824219 C 53.5 12.824219 54.371094 13.699219 54.371094 14.769531 C 54.371094 15.84375 53.5 16.714844 52.425781 16.714844 C 51.351562 16.714844 50.480469 15.84375 50.480469 14.769531 C 50.480469 13.699219 51.351562 12.824219 52.425781 12.824219 Z M 52.425781 19.382812 C 54.96875 19.382812 57.039062 17.3125 57.039062 14.769531 C 57.039062 12.226562 54.96875 10.160156 52.425781 10.160156 C 49.882812 10.160156 47.816406 12.226562 47.816406 14.769531 C 47.816406 17.3125 49.882812 19.382812 52.425781 19.382812 Z M 19.324219 12.824219 L 38.894531 12.824219 C 39.472656 12.824219 39.988281 12.449219 40.164062 11.894531 C 41.40625 7.96875 45.019531 5.332031 49.148438 5.332031 C 54.351562 5.332031 58.585938 9.566406 58.585938 14.769531 C 58.585938 19.972656 54.351562 24.207031 49.148438 24.207031 C 45.019531 24.207031 41.40625 21.570312 40.164062 17.644531 C 39.988281 17.089844 39.472656 16.714844 38.894531 16.714844 L 35.570312 16.714844 C 35.214844 16.714844 34.875 16.855469 34.625 17.105469 L 32.757812 18.972656 L 30.894531 17.105469 C 30.644531 16.855469 30.304688 16.714844 29.949219 16.714844 L 28.074219 16.714844 C 27.722656 16.714844 27.382812 16.855469 27.132812 17.105469 L 25.265625 18.972656 L 23.402344 17.105469 C 23.152344 16.855469 22.8125 16.714844 22.457031 16.714844 L 20.148438 16.714844 L 17.773438 14.636719 Z M 18.769531 19.050781 C 19.011719 19.265625 19.324219 19.382812 19.648438 19.382812 L 21.90625 19.382812 L 24.324219 21.800781 C 24.84375 22.320312 25.6875 22.320312 26.210938 21.800781 L 28.628906 19.382812 L 29.398438 19.382812 L 31.816406 21.800781 C 32.335938 22.320312 33.179688 22.320312 33.703125 21.800781 L 36.121094 19.382812 L 37.960938 19.382812 C 39.804688 23.902344 44.183594 26.871094 49.148438 26.871094 C 55.820312 26.871094 61.25 21.441406 61.25 14.769531 C 61.25 8.097656 55.820312 2.667969 49.148438 2.667969 C 44.183594 2.667969 39.804688 5.640625 37.960938 10.160156 L 18.710938 10.160156 C 18.324219 10.160156 17.953125 10.328125 17.699219 10.625 L 14.890625 13.902344 C 14.414062 14.457031 14.472656 15.292969 15.023438 15.773438 Z M 2.667969 35.140625 C 2.667969 28.46875 8.09375 23.042969 14.765625 23.042969 C 19.734375 23.042969 24.117188 26.011719 25.960938 30.53125 L 27.796875 30.53125 L 30.210938 28.113281 C 30.710938 27.613281 31.597656 27.613281 32.097656 28.113281 L 34.515625 30.53125 L 35.285156 30.53125 L 37.703125 28.113281 C 38.222656 27.59375 39.066406 27.59375 39.585938 28.113281 L 42.015625 30.53125 L 44.273438 30.53125 C 44.59375 30.53125 44.902344 30.648438 45.148438 30.859375 L 46.230469 31.800781 L 44.480469 33.816406 L 43.773438 33.199219 L 41.464844 33.199219 C 41.113281 33.199219 40.773438 33.058594 40.523438 32.808594 L 38.648438 30.941406 L 36.78125 32.808594 C 36.53125 33.058594 36.191406 33.199219 35.839844 33.199219 L 33.960938 33.199219 C 33.609375 33.199219 33.269531 33.058594 33.019531 32.808594 L 31.15625 30.941406 L 29.289062 32.808594 C 29.039062 33.058594 28.703125 33.199219 28.347656 33.199219 L 25.027344 33.199219 C 24.445312 33.199219 23.929688 32.824219 23.757812 32.269531 C 22.515625 28.34375 18.902344 25.707031 14.765625 25.707031 C 9.5625 25.707031 5.332031 29.9375 5.332031 35.140625 C 5.332031 40.347656 9.5625 44.582031 14.765625 44.582031 C 18.902344 44.582031 22.515625 41.945312 23.757812 38.023438 C 23.929688 37.46875 24.445312 37.089844 25.027344 37.089844 L 36.28125 37.089844 L 36.28125 39.757812 L 25.960938 39.757812 C 24.117188 44.277344 19.734375 47.25 14.765625 47.25 C 8.09375 47.25 2.667969 41.816406 2.667969 35.140625 Z M 11.492188 37.089844 C 10.417969 37.089844 9.546875 36.214844 9.546875 35.144531 C 9.546875 34.074219 10.417969 33.199219 11.492188 33.199219 C 12.5625 33.199219 13.4375 34.074219 13.4375 35.144531 C 13.4375 36.214844 12.5625 37.089844 11.492188 37.089844 Z M 11.492188 30.535156 C 8.949219 30.535156 6.878906 32.601562 6.878906 35.144531 C 6.878906 37.6875 8.949219 39.753906 11.492188 39.753906 C 14.035156 39.753906 16.101562 37.6875 16.101562 35.144531 C 16.101562 32.601562 14.035156 30.535156 11.492188 30.535156 Z M 11.492188 30.535156 "/>
</svg>
