<?xml version="1.0" encoding="UTF-8"?>
<svg xmlns="http://www.w3.org/2000/svg" xmlns:xlink="http://www.w3.org/1999/xlink" width="64" height="64" viewBox="0 0 64 64">
<path fill-rule="evenodd" fill="rgb(86.666667%, 20.392157%, 29.803923%)" fill-opacity="1" d="M 17.332031 13.414062 C 19.625 13.414062 21.492188 15.28125 21.492188 17.574219 C 21.492188 19.863281 19.625 21.730469 17.332031 21.730469 C 15.039062 21.730469 13.175781 19.863281 13.175781 17.574219 C 13.175781 15.28125 15.039062 13.414062 17.332031 13.414062 Z M 17.332031 24.398438 C 21.097656 24.398438 24.15625 21.335938 24.15625 17.574219 C 24.15625 13.808594 21.097656 10.75 17.332031 10.75 C 13.570312 10.75 10.507812 13.808594 10.507812 17.574219 C 10.507812 21.335938 13.570312 24.398438 17.332031 24.398438 Z M 5.574219 15.949219 L 8.085938 15.949219 L 8.347656 14.957031 C 8.558594 14.167969 8.890625 13.566406 9.300781 12.863281 L 9.820312 11.976562 L 8.042969 10.203125 L 10.027344 8.230469 L 11.082031 9.28125 L 11.917969 9.9375 L 12.800781 9.421875 C 13.523438 9.003906 14 8.726562 14.714844 8.539062 L 15.710938 8.277344 L 15.710938 5.8125 L 18.957031 5.8125 L 18.957031 8.3125 L 19.945312 8.578125 C 20.644531 8.765625 21.109375 9.042969 21.929688 9.523438 L 22.824219 10.054688 L 24.566406 8.285156 L 26.503906 10.246094 L 24.753906 12.023438 L 25.257812 12.902344 C 25.726562 13.71875 26.003906 14.21875 26.195312 14.953125 L 26.453125 15.949219 L 29.09375 15.949219 L 29.09375 19.195312 L 26.578125 19.195312 L 26.316406 20.1875 C 26.121094 20.925781 25.824219 21.445312 25.363281 22.234375 L 24.839844 23.125 L 26.621094 24.894531 L 24.636719 26.867188 L 22.855469 25.09375 L 21.835938 25.6875 C 21.125 26.097656 20.65625 26.371094 19.953125 26.554688 L 18.957031 26.816406 L 18.957031 29.332031 L 15.710938 29.332031 L 15.710938 26.820312 L 14.71875 26.558594 C 13.945312 26.351562 13.371094 26.03125 12.644531 25.605469 L 11.75 25.082031 L 9.984375 26.859375 L 8.019531 24.878906 L 9.066406 23.824219 L 9.722656 22.988281 L 9.210938 22.105469 C 8.792969 21.382812 8.515625 20.90625 8.328125 20.191406 L 8.066406 19.195312 L 5.574219 19.195312 Z M 4.785156 21.863281 L 6.082031 21.863281 C 6.199219 22.136719 6.324219 22.398438 6.464844 22.660156 L 5.574219 23.558594 C 4.851562 24.285156 4.851562 25.472656 5.574219 26.203125 L 8.652344 29.304688 C 9.363281 30.019531 10.605469 30.019531 11.316406 29.304688 L 12.203125 28.414062 C 12.472656 28.554688 12.746094 28.683594 13.042969 28.804688 L 13.042969 30.121094 C 13.042969 31.15625 13.886719 32 14.921875 32 L 19.746094 32 C 20.78125 32 21.625 31.15625 21.625 30.121094 L 21.625 28.800781 C 21.902344 28.683594 22.164062 28.554688 22.417969 28.417969 L 23.3125 29.3125 C 24.046875 30.035156 25.234375 30.035156 25.960938 29.308594 L 29.0625 26.230469 C 29.417969 25.871094 29.617188 25.398438 29.617188 24.894531 C 29.617188 24.390625 29.417969 23.914062 29.0625 23.5625 L 28.175781 22.679688 C 28.3125 22.421875 28.441406 22.152344 28.558594 21.863281 L 29.882812 21.863281 C 30.917969 21.863281 31.761719 21.019531 31.761719 19.984375 L 31.761719 15.160156 C 31.761719 14.125 30.917969 13.285156 29.882812 13.285156 L 28.445312 13.285156 C 28.328125 12.992188 28.199219 12.722656 28.0625 12.460938 L 28.949219 11.566406 C 29.667969 10.839844 29.667969 9.65625 28.949219 8.925781 L 25.90625 5.84375 C 25.191406 5.121094 23.941406 5.125 23.230469 5.84375 L 22.378906 6.707031 C 22.136719 6.578125 21.890625 6.453125 21.625 6.34375 L 21.625 5.023438 C 21.625 3.988281 20.78125 3.144531 19.746094 3.144531 L 14.921875 3.144531 C 13.886719 3.144531 13.042969 3.988281 13.042969 5.023438 L 13.042969 6.296875 C 12.769531 6.410156 12.507812 6.535156 12.246094 6.675781 L 11.351562 5.789062 C 10.625 5.058594 9.4375 5.054688 8.699219 5.785156 L 5.601562 8.871094 C 5.246094 9.226562 5.046875 9.699219 5.046875 10.203125 C 5.046875 10.707031 5.246094 11.183594 5.601562 11.535156 L 6.496094 12.425781 C 6.355469 12.695312 6.222656 12.980469 6.101562 13.285156 L 4.785156 13.285156 C 3.75 13.285156 2.90625 14.125 2.90625 15.160156 L 2.90625 19.984375 C 2.90625 21.019531 3.75 21.863281 4.785156 21.863281 Z M 43.457031 53.886719 L 46.59375 50.746094 L 43.457031 47.609375 L 45.339844 45.722656 L 48.480469 48.863281 L 51.617188 45.722656 L 53.503906 47.609375 L 50.363281 50.746094 L 53.503906 53.886719 L 51.617188 55.769531 L 48.480469 52.632812 L 45.339844 55.769531 Z M 54.753906 29.707031 L 47.640625 36.820312 L 42.375 33.085938 L 43.914062 30.914062 L 47.347656 33.34375 L 52.871094 27.820312 Z M 54.753906 11.039062 L 47.640625 18.15625 L 42.375 14.421875 L 43.914062 12.246094 L 47.347656 14.679688 L 52.871094 9.15625 Z M 5.332031 58.664062 L 58.667969 58.664062 L 58.667969 42.664062 L 5.332031 42.664062 Z M 30.667969 2.664062 L 30.667969 5.332031 L 58.667969 5.332031 L 58.667969 21.332031 L 34.667969 21.332031 L 34.667969 24 L 58.667969 24 L 58.667969 40 L 5.332031 40 L 5.332031 30.664062 L 2.667969 30.664062 L 2.667969 61.332031 L 61.332031 61.332031 L 61.332031 2.664062 Z M 30.667969 2.664062 "/>
</svg>
