<?xml version="1.0" encoding="UTF-8"?>
<svg xmlns="http://www.w3.org/2000/svg" xmlns:xlink="http://www.w3.org/1999/xlink" width="64" height="64" viewBox="0 0 64 64">
<path fill-rule="evenodd" fill="rgb(86.666667%, 20.392157%, 29.803923%)" fill-opacity="1" d="M 47.980469 32.042969 L 54.648438 32.042969 L 54.648438 29.375 L 47.980469 29.375 Z M 47.980469 44.042969 L 54.648438 44.042969 L 54.648438 41.375 L 47.980469 41.375 Z M 47.980469 56.042969 L 54.648438 56.042969 L 54.648438 53.375 L 47.980469 53.375 Z M 58.648438 52.042969 L 61.3125 52.042969 L 61.3125 58.839844 C 61.3125 60.238281 60.175781 61.375 58.78125 61.375 L 29.175781 61.375 C 27.78125 61.375 26.648438 60.242188 26.648438 58.847656 L 26.648438 52.042969 L 29.3125 52.042969 L 29.3125 58.707031 L 58.648438 58.707031 Z M 58.648438 40.042969 L 61.3125 40.042969 L 61.3125 46.847656 C 61.3125 48.242188 60.179688 49.375 58.785156 49.375 L 29.175781 49.375 C 27.78125 49.375 26.648438 48.242188 26.648438 46.847656 L 26.648438 40.042969 L 29.3125 40.042969 L 29.3125 46.707031 L 58.648438 46.707031 Z M 61.3125 27.304688 L 61.3125 34.660156 C 61.3125 36.15625 60.171875 37.375 58.769531 37.375 L 29.191406 37.375 C 27.789062 37.375 26.648438 36.15625 26.648438 34.660156 L 26.648438 33.375 L 29.3125 33.375 L 29.3125 34.660156 C 29.316406 34.6875 29.3125 34.703125 29.304688 34.707031 L 58.625 34.707031 L 58.648438 27.304688 C 58.648438 26.949219 58.480469 26.734375 58.410156 26.703125 L 42.117188 26.707031 L 42.117188 24.042969 L 58.4375 24.042969 C 60.023438 24.042969 61.3125 25.503906 61.3125 27.304688 Z M 26.777344 18.847656 C 26.265625 18.546875 25.90625 18.0625 25.757812 17.484375 C 25.609375 16.910156 25.695312 16.308594 25.996094 15.796875 C 26.300781 15.285156 26.785156 14.921875 27.359375 14.773438 C 27.542969 14.726562 27.730469 14.703125 27.917969 14.703125 C 28.3125 14.703125 28.699219 14.808594 29.046875 15.015625 C 29.558594 15.320312 29.921875 15.800781 30.070312 16.378906 C 30.21875 16.953125 30.132812 17.554688 29.828125 18.066406 C 29.527344 18.578125 29.042969 18.941406 28.464844 19.089844 C 27.890625 19.234375 27.292969 19.152344 26.78125 18.847656 Z M 29.128906 21.671875 C 30.394531 21.347656 31.460938 20.550781 32.125 19.425781 C 32.792969 18.300781 32.976562 16.984375 32.652344 15.714844 C 32.328125 14.449219 31.53125 13.386719 30.40625 12.71875 C 28.082031 11.34375 25.074219 12.117188 23.703125 14.441406 C 23.035156 15.566406 22.847656 16.882812 23.171875 18.148438 C 23.496094 19.414062 24.296875 20.476562 25.421875 21.144531 C 26.1875 21.597656 27.039062 21.828125 27.90625 21.828125 C 28.3125 21.828125 28.722656 21.777344 29.128906 21.671875 Z M 25.0625 27.996094 C 24.484375 27.855469 23.890625 28.101562 23.589844 28.609375 L 10.546875 50.652344 L 5.132812 52.042969 L 4.886719 47.476562 L 6.546875 44.671875 C 6.726562 44.367188 6.777344 44.003906 6.691406 43.660156 L 5.734375 39.9375 L 9.460938 38.980469 C 9.800781 38.894531 10.097656 38.671875 10.277344 38.371094 L 12.140625 35.21875 C 12.320312 34.910156 12.371094 34.550781 12.285156 34.207031 L 11.328125 30.484375 L 15.054688 29.527344 C 15.398438 29.4375 15.691406 29.21875 15.871094 28.914062 L 18.363281 24.703125 C 18.628906 24.257812 18.609375 23.703125 18.320312 23.277344 C 15.433594 18.992188 15.742188 13.421875 19.082031 9.414062 C 22.121094 5.773438 27.335938 4.390625 31.769531 6.050781 C 35.023438 7.265625 37.535156 9.808594 38.671875 13.023438 C 39.804688 16.238281 39.460938 19.765625 37.726562 22.699219 C 35.15625 27.042969 29.945312 29.222656 25.0625 27.996094 Z M 40.023438 24.058594 C 42.160156 20.441406 42.582031 16.097656 41.1875 12.132812 C 39.789062 8.175781 36.695312 5.046875 32.703125 3.550781 C 27.140625 1.46875 20.847656 3.140625 17.035156 7.707031 C 13.109375 12.410156 12.59375 18.875 15.652344 24.042969 L 13.859375 27.078125 L 9.375 28.230469 C 8.664062 28.414062 8.234375 29.140625 8.414062 29.851562 L 9.566406 34.335938 L 8.261719 36.535156 L 3.78125 37.683594 C 3.4375 37.773438 3.144531 37.992188 2.964844 38.296875 C 2.785156 38.601562 2.734375 38.964844 2.820312 39.308594 L 3.96875 43.789062 L 2.386719 46.464844 C 2.253906 46.691406 2.1875 46.953125 2.203125 47.214844 L 2.554688 53.808594 C 2.578125 54.207031 2.777344 54.574219 3.097656 54.8125 C 3.332031 54.980469 3.605469 55.070312 3.886719 55.070312 C 4 55.070312 4.109375 55.054688 4.21875 55.027344 L 11.746094 53.097656 C 12.085938 53.011719 12.378906 52.789062 12.558594 52.484375 L 25.398438 30.789062 C 31.125 31.792969 37.027344 29.113281 40.023438 24.058594 Z M 40.023438 24.058594 "/>
</svg>
