<?xml version="1.0" encoding="UTF-8"?>
<svg xmlns="http://www.w3.org/2000/svg" xmlns:xlink="http://www.w3.org/1999/xlink" width="64" height="64" viewBox="0 0 64 64">
<path fill-rule="evenodd" fill="rgb(86.666667%, 20.392157%, 29.803923%)" fill-opacity="1" d="M 58.613281 50.363281 L 61.277344 50.363281 L 61.277344 56.1875 C 61.277344 56.925781 60.683594 57.523438 59.945312 57.523438 L 4 57.523438 C 3.261719 57.523438 2.667969 56.925781 2.667969 56.1875 L 2.667969 50.363281 L 5.332031 50.363281 L 5.332031 54.855469 L 58.613281 54.855469 Z M 52.449219 15.496094 C 53.523438 15.496094 54.394531 16.367188 54.394531 17.441406 C 54.394531 18.515625 53.523438 19.386719 52.449219 19.386719 C 51.378906 19.386719 50.503906 18.515625 50.503906 17.441406 C 50.503906 16.367188 51.378906 15.496094 52.449219 15.496094 Z M 52.449219 22.054688 C 54.992188 22.054688 57.0625 19.984375 57.0625 17.441406 C 57.0625 14.898438 54.992188 12.828125 52.449219 12.828125 C 49.90625 12.828125 47.835938 14.898438 47.835938 17.441406 C 47.835938 19.984375 49.90625 22.054688 52.449219 22.054688 Z M 19.332031 15.496094 L 38.914062 15.496094 C 39.492188 15.496094 40.007812 15.117188 40.183594 14.5625 C 41.425781 10.636719 45.039062 8 49.171875 8 C 54.375 8 58.613281 12.234375 58.613281 17.441406 C 58.613281 22.648438 54.375 26.882812 49.171875 26.882812 C 45.039062 26.882812 41.425781 24.246094 40.183594 20.316406 C 40.007812 19.761719 39.492188 19.386719 38.914062 19.386719 L 35.585938 19.386719 C 35.230469 19.386719 34.890625 19.527344 34.640625 19.777344 L 32.773438 21.644531 L 30.90625 19.777344 C 30.65625 19.527344 30.316406 19.386719 29.964844 19.386719 L 28.089844 19.386719 C 27.734375 19.386719 27.394531 19.527344 27.144531 19.777344 L 25.277344 21.644531 L 23.410156 19.777344 C 23.160156 19.527344 22.820312 19.386719 22.46875 19.386719 L 20.15625 19.386719 L 17.78125 17.308594 Z M 18.777344 21.722656 C 19.023438 21.9375 19.332031 22.054688 19.65625 22.054688 L 21.917969 22.054688 L 24.335938 24.472656 C 24.835938 24.972656 25.722656 24.972656 26.222656 24.472656 L 28.640625 22.054688 L 29.414062 22.054688 L 31.832031 24.472656 C 32.082031 24.722656 32.417969 24.863281 32.773438 24.863281 C 33.128906 24.863281 33.46875 24.722656 33.714844 24.472656 L 36.136719 22.054688 L 37.976562 22.054688 C 39.824219 26.574219 44.203125 29.550781 49.171875 29.550781 C 55.847656 29.550781 61.277344 24.117188 61.277344 17.441406 C 61.277344 10.765625 55.847656 5.335938 49.171875 5.335938 C 44.203125 5.335938 39.824219 8.308594 37.976562 12.828125 L 18.71875 12.828125 C 18.332031 12.828125 17.960938 13 17.707031 13.292969 L 14.894531 16.574219 C 14.421875 17.128906 14.480469 17.964844 15.03125 18.445312 Z M 11.496094 37.046875 C 12.570312 37.046875 13.441406 37.917969 13.441406 38.992188 C 13.441406 40.0625 12.570312 40.9375 11.496094 40.9375 C 10.421875 40.9375 9.550781 40.0625 9.550781 38.992188 C 9.550781 37.917969 10.421875 37.046875 11.496094 37.046875 Z M 11.496094 43.605469 C 14.039062 43.605469 16.109375 41.535156 16.109375 38.992188 C 16.109375 36.449219 14.039062 34.378906 11.496094 34.378906 C 8.953125 34.378906 6.882812 36.449219 6.882812 38.992188 C 6.882812 41.535156 8.953125 43.605469 11.496094 43.605469 Z M 14.773438 29.550781 C 18.910156 29.550781 22.519531 32.1875 23.765625 36.113281 C 23.941406 36.667969 24.453125 37.046875 25.035156 37.046875 L 28.363281 37.046875 C 28.714844 37.046875 29.054688 36.90625 29.304688 36.65625 L 31.171875 34.785156 L 33.039062 36.65625 C 33.292969 36.90625 33.628906 37.046875 33.984375 37.046875 L 35.859375 37.046875 C 36.210938 37.046875 36.550781 36.90625 36.800781 36.65625 L 38.667969 34.785156 L 40.535156 36.65625 C 40.785156 36.90625 41.125 37.046875 41.476562 37.046875 L 43.789062 37.046875 L 46.164062 39.125 L 44.613281 40.9375 L 25.035156 40.9375 C 24.453125 40.9375 23.941406 41.3125 23.765625 41.867188 C 22.519531 45.796875 18.910156 48.433594 14.773438 48.433594 C 9.570312 48.433594 5.332031 44.199219 5.332031 38.992188 C 5.332031 33.785156 9.570312 29.550781 14.773438 29.550781 Z M 14.773438 51.101562 C 19.742188 51.101562 24.125 48.125 25.972656 43.605469 L 45.226562 43.605469 C 45.617188 43.605469 45.984375 43.433594 46.242188 43.136719 L 49.050781 39.859375 C 49.527344 39.304688 49.464844 38.46875 48.914062 37.988281 L 45.167969 34.707031 C 44.925781 34.496094 44.613281 34.378906 44.289062 34.378906 L 42.03125 34.378906 L 39.609375 31.957031 C 39.363281 31.707031 39.023438 31.566406 38.667969 31.566406 C 38.3125 31.566406 37.976562 31.707031 37.726562 31.957031 L 35.304688 34.378906 L 34.535156 34.378906 L 32.113281 31.957031 C 31.59375 31.4375 30.75 31.4375 30.230469 31.957031 L 27.808594 34.378906 L 25.972656 34.378906 C 24.125 29.855469 19.742188 26.882812 14.773438 26.882812 C 8.097656 26.882812 2.667969 32.316406 2.667969 38.992188 C 2.667969 45.667969 8.097656 51.101562 14.773438 51.101562 Z M 14.773438 51.101562 "/>
</svg>
