<?xml version="1.0" encoding="UTF-8"?>
<svg xmlns="http://www.w3.org/2000/svg" xmlns:xlink="http://www.w3.org/1999/xlink" width="64" height="64" viewBox="0 0 64 64">
<path fill-rule="evenodd" fill="rgb(86.666667%, 20.392157%, 29.803923%)" fill-opacity="1" d="M 58.507812 55.015625 L 58.507812 35.121094 C 56.046875 36.332031 52.230469 36.902344 48.582031 36.902344 C 44.9375 36.902344 41.121094 36.332031 38.660156 35.121094 L 38.660156 55.027344 C 38.824219 55.671875 42.125 57.402344 48.582031 57.402344 C 55.042969 57.402344 58.34375 55.671875 58.507812 55.015625 Z M 38.660156 31.859375 C 38.824219 32.503906 42.128906 34.234375 48.582031 34.234375 C 55.019531 34.234375 58.324219 32.511719 58.507812 31.851562 L 58.507812 31.726562 C 58.34375 31.085938 55.042969 29.355469 48.582031 29.355469 C 42.144531 29.355469 38.84375 31.074219 38.660156 31.738281 Z M 61.171875 31.726562 L 61.171875 55.027344 C 61.171875 58.492188 54.644531 60.070312 48.582031 60.070312 C 42.519531 60.070312 35.996094 58.492188 35.996094 55.027344 L 35.996094 31.726562 C 35.996094 28.265625 42.523438 26.6875 48.582031 26.6875 C 54.644531 26.6875 61.171875 28.265625 61.171875 31.726562 Z M 34.792969 47 C 34.792969 47.734375 34.195312 48.332031 33.460938 48.332031 L 4 48.332031 C 3.523438 48.332031 3.082031 48.078125 2.84375 47.664062 C 2.605469 47.253906 2.605469 46.746094 2.84375 46.332031 L 27.671875 3.332031 C 27.910156 2.921875 28.347656 2.667969 28.824219 2.667969 C 29.300781 2.667969 29.742188 2.921875 29.980469 3.332031 L 41.808594 23.820312 C 42.175781 24.460938 41.957031 25.273438 41.320312 25.644531 C 40.683594 26.007812 39.867188 25.792969 39.5 25.15625 L 28.824219 6.667969 L 6.308594 45.664062 L 33.460938 45.664062 C 34.195312 45.664062 34.792969 46.261719 34.792969 47 Z M 34.792969 47 "/>
</svg>
