<?xml version="1.0" encoding="UTF-8"?>
<svg xmlns="http://www.w3.org/2000/svg" xmlns:xlink="http://www.w3.org/1999/xlink" width="64" height="64" viewBox="0 0 64 64">
<path fill-rule="evenodd" fill="rgb(86.666667%, 20.392157%, 29.803923%)" fill-opacity="1" d="M 49.300781 43.964844 C 47.539062 45.730469 44.464844 45.730469 42.703125 43.964844 C 41.820312 43.085938 41.332031 41.914062 41.332031 40.667969 C 41.332031 39.421875 41.820312 38.246094 42.703125 37.367188 C 43.582031 36.484375 44.753906 36 46 36 C 47.246094 36 48.417969 36.484375 49.300781 37.367188 C 50.179688 38.246094 50.667969 39.421875 50.667969 40.667969 C 50.667969 41.914062 50.179688 43.085938 49.300781 43.964844 Z M 46 33.332031 C 44.042969 33.332031 42.199219 34.097656 40.816406 35.480469 C 39.429688 36.867188 38.667969 38.707031 38.667969 40.667969 C 38.667969 42.625 39.429688 44.464844 40.816406 45.851562 C 42.199219 47.238281 44.042969 48 46 48 C 47.957031 48 49.800781 47.238281 51.183594 45.851562 C 52.570312 44.464844 53.332031 42.625 53.332031 40.667969 C 53.332031 38.707031 52.570312 36.867188 51.183594 35.480469 C 49.800781 34.097656 47.957031 33.332031 46 33.332031 Z M 21.300781 43.964844 C 19.539062 45.730469 16.464844 45.730469 14.703125 43.964844 C 13.820312 43.085938 13.332031 41.914062 13.332031 40.667969 C 13.332031 39.421875 13.820312 38.246094 14.703125 37.367188 C 15.582031 36.484375 16.753906 36 18 36 C 19.246094 36 20.417969 36.484375 21.300781 37.367188 C 22.179688 38.246094 22.667969 39.421875 22.667969 40.667969 C 22.667969 41.914062 22.179688 43.085938 21.300781 43.964844 Z M 18 33.332031 C 16.042969 33.332031 14.199219 34.097656 12.816406 35.480469 C 11.429688 36.867188 10.667969 38.707031 10.667969 40.667969 C 10.667969 42.625 11.429688 44.464844 12.816406 45.851562 C 14.199219 47.238281 16.042969 48 18 48 C 19.957031 48 21.800781 47.238281 23.183594 45.851562 C 24.570312 44.464844 25.332031 42.625 25.332031 40.667969 C 25.332031 38.707031 24.570312 36.867188 23.183594 35.480469 C 21.800781 34.097656 19.957031 33.332031 18 33.332031 Z M 58.667969 52.773438 C 58.667969 53.082031 58.417969 53.332031 58.109375 53.332031 L 5.890625 53.332031 C 5.585938 53.332031 5.332031 53.082031 5.332031 52.773438 L 5.332031 27.535156 C 5.332031 27.054688 5.722656 26.667969 6.203125 26.667969 L 57.800781 26.667969 C 58.277344 26.667969 58.667969 27.054688 58.667969 27.535156 Z M 29.570312 19.882812 L 35.097656 19.882812 C 37.660156 19.882812 39.808594 21.632812 40.449219 24 L 24.21875 24 C 24.863281 21.632812 27.003906 19.882812 29.570312 19.882812 Z M 29.332031 8 C 29.332031 6.53125 30.53125 5.332031 32 5.332031 C 33.46875 5.332031 34.667969 6.53125 34.667969 8 C 34.667969 9.46875 33.46875 10.667969 32 10.667969 C 30.53125 10.667969 29.332031 9.46875 29.332031 8 Z M 57.800781 24 L 43.199219 24 C 42.507812 20.148438 39.144531 17.214844 35.097656 17.214844 L 33.332031 17.214844 L 33.332031 13.144531 C 35.628906 12.546875 37.332031 10.476562 37.332031 8 C 37.332031 5.058594 34.941406 2.667969 32 2.667969 C 29.058594 2.667969 26.667969 5.058594 26.667969 8 C 26.667969 10.476562 28.375 12.546875 30.667969 13.144531 L 30.667969 17.214844 L 29.570312 17.214844 C 25.523438 17.214844 22.160156 20.148438 21.46875 24 L 6.203125 24 C 4.253906 24 2.667969 25.585938 2.667969 27.535156 L 2.667969 52.773438 C 2.667969 54.554688 4.113281 56 5.890625 56 L 22.667969 56 L 22.667969 61.332031 L 25.332031 61.332031 L 25.332031 56 L 38.667969 56 L 38.667969 61.332031 L 41.332031 61.332031 L 41.332031 56 L 58.109375 56 C 59.886719 56 61.332031 54.554688 61.332031 52.773438 L 61.332031 27.535156 C 61.332031 25.585938 59.75 24 57.800781 24 Z M 57.800781 24 "/>
</svg>
