<?xml version="1.0" encoding="UTF-8"?>
<svg xmlns="http://www.w3.org/2000/svg" xmlns:xlink="http://www.w3.org/1999/xlink" width="64" height="64" viewBox="0 0 64 64">
<path fill-rule="evenodd" fill="rgb(86.666667%, 20.392157%, 29.803923%)" fill-opacity="1" d="M 20 33.335938 L 25.332031 33.335938 L 25.332031 30.667969 L 20 30.667969 Z M 5.332031 36 L 14.667969 36 L 14.667969 26.667969 L 5.332031 26.667969 Z M 16 38.667969 L 4 38.667969 C 3.265625 38.667969 2.667969 38.070312 2.667969 37.335938 L 2.667969 25.335938 C 2.667969 24.597656 3.265625 24 4 24 L 16 24 C 16.734375 24 17.332031 24.597656 17.332031 25.335938 L 17.332031 37.335938 C 17.332031 38.070312 16.734375 38.667969 16 38.667969 Z M 57.601562 36 L 53.332031 29.1875 L 49.066406 36 Z M 61.160156 37.976562 C 60.929688 38.398438 60.484375 38.664062 60 38.667969 L 46.667969 38.667969 C 45.929688 38.667969 45.332031 38.074219 45.332031 37.335938 C 45.328125 37.085938 45.398438 36.839844 45.53125 36.628906 L 52.199219 25.960938 C 52.585938 25.335938 53.410156 25.144531 54.035156 25.53125 C 54.210938 25.636719 54.359375 25.785156 54.46875 25.960938 L 61.132812 36.628906 C 61.382812 37.039062 61.394531 37.554688 61.160156 37.976562 Z M 57.332031 54.667969 C 57.332031 52.457031 55.542969 50.667969 53.332031 50.667969 C 51.125 50.667969 49.332031 52.457031 49.332031 54.667969 C 49.332031 56.878906 51.125 58.667969 53.332031 58.667969 C 55.542969 58.667969 57.332031 56.878906 57.332031 54.667969 Z M 60 54.667969 C 60.003906 58.347656 57.023438 61.335938 53.339844 61.339844 C 50.167969 61.34375 47.429688 59.109375 46.800781 56 L 9.332031 56 C 8.597656 56 8 55.402344 8 54.667969 L 8 41.335938 L 10.667969 41.335938 L 10.667969 53.335938 L 46.800781 53.335938 C 47.53125 49.726562 51.050781 47.394531 54.660156 48.128906 C 57.769531 48.757812 60.003906 51.496094 60 54.667969 Z M 29.332031 33.335938 L 34.667969 33.335938 L 34.667969 30.667969 L 29.332031 30.667969 Z M 49.332031 9.335938 C 49.332031 11.542969 51.125 13.335938 53.332031 13.335938 C 55.542969 13.335938 57.332031 11.542969 57.332031 9.335938 C 57.332031 7.125 55.542969 5.335938 53.332031 5.335938 C 51.125 5.335938 49.332031 7.125 49.332031 9.335938 Z M 10.667969 21.335938 L 8 21.335938 L 8 9.335938 C 8 8.597656 8.597656 8 9.332031 8 L 46.800781 8 C 47.535156 4.394531 51.058594 2.066406 54.664062 2.800781 C 58.273438 3.539062 60.601562 7.058594 59.863281 10.667969 C 59.128906 14.273438 55.605469 16.601562 52 15.867188 C 49.378906 15.332031 47.335938 13.285156 46.800781 10.667969 L 10.667969 10.667969 Z M 38.667969 33.335938 L 44 33.335938 L 44 30.667969 L 38.667969 30.667969 Z M 38.667969 33.335938 "/>
</svg>
