<?xml version="1.0" encoding="UTF-8"?>
<svg xmlns="http://www.w3.org/2000/svg" xmlns:xlink="http://www.w3.org/1999/xlink" width="64" height="64" viewBox="0 0 64 64">
<path fill-rule="evenodd" fill="rgb(86.666667%, 20.392157%, 29.803923%)" fill-opacity="1" d="M 32 46.667969 C 28.78125 46.667969 26.085938 44.371094 25.46875 41.332031 L 38.53125 41.332031 C 37.914062 44.371094 35.21875 46.667969 32 46.667969 Z M 32 33.332031 C 35.21875 33.332031 37.914062 35.628906 38.53125 38.667969 L 25.46875 38.667969 C 26.085938 35.628906 28.78125 33.332031 32 33.332031 Z M 32 30.667969 C 26.855469 30.667969 22.667969 34.851562 22.667969 40 C 22.667969 45.148438 26.855469 49.332031 32 49.332031 C 37.144531 49.332031 41.332031 45.148438 41.332031 40 C 41.332031 34.851562 37.144531 30.667969 32 30.667969 Z M 45.332031 40 C 45.332031 46.617188 39.949219 52 33.332031 52 L 30.667969 52 C 24.050781 52 18.667969 46.617188 18.667969 40 C 18.667969 33.382812 24.050781 28 30.667969 28 L 33.332031 28 C 36.042969 28 38.535156 28.910156 40.542969 30.429688 L 40.691406 30.65625 L 40.773438 30.601562 C 43.546875 32.804688 45.332031 36.195312 45.332031 40 Z M 29.722656 22.667969 L 34.277344 22.667969 C 36.175781 22.667969 37.777344 24.167969 38.371094 26.242188 C 36.796875 25.664062 35.105469 25.332031 33.332031 25.332031 L 30.667969 25.332031 C 28.894531 25.332031 27.199219 25.664062 25.625 26.246094 C 26.222656 24.167969 27.824219 22.667969 29.722656 22.667969 Z M 29.332031 10.667969 C 29.332031 9.195312 30.53125 8 32 8 C 33.46875 8 34.667969 9.195312 34.667969 10.667969 C 34.667969 12.136719 33.46875 13.332031 32 13.332031 C 30.53125 13.332031 29.332031 12.136719 29.332031 10.667969 Z M 61.332031 22.667969 L 61.332031 20 L 52.292969 20 L 41.257812 27.121094 C 40.871094 23.121094 37.886719 20 34.277344 20 L 33.332031 20 L 33.332031 15.8125 C 35.628906 15.214844 37.332031 13.144531 37.332031 10.667969 C 37.332031 7.726562 34.941406 5.332031 32 5.332031 C 29.058594 5.332031 26.667969 7.726562 26.667969 10.667969 C 26.667969 13.144531 28.371094 15.214844 30.667969 15.8125 L 30.667969 20 L 29.722656 20 C 25.9375 20 22.851562 23.425781 22.710938 27.695312 C 22.664062 27.726562 22.609375 27.753906 22.5625 27.785156 L 12.652344 20 L 2.667969 20 L 2.667969 22.667969 L 11.730469 22.667969 L 20.4375 29.507812 C 19.300781 30.617188 18.351562 31.90625 17.617188 33.332031 L 2.667969 33.332031 L 2.667969 36 L 16.570312 36 C 16.207031 37.273438 16 38.613281 16 40 C 16 40.910156 16.09375 41.800781 16.253906 42.667969 L 2.667969 42.667969 L 2.667969 45.332031 L 17.019531 45.332031 C 17.777344 47.269531 18.929688 49.007812 20.386719 50.445312 L 10.949219 56 L 2.667969 56 L 2.667969 58.667969 L 11.675781 58.667969 L 22.597656 52.234375 C 24.914062 53.769531 27.6875 54.667969 30.667969 54.667969 L 33.332031 54.667969 C 36.289062 54.667969 39.035156 53.78125 41.339844 52.273438 L 51.421875 58.667969 L 61.332031 58.667969 L 61.332031 56 L 52.195312 56 L 43.542969 50.507812 C 45.03125 49.0625 46.210938 47.300781 46.980469 45.332031 L 61.332031 45.332031 L 61.332031 42.667969 L 47.746094 42.667969 C 47.90625 41.800781 48 40.910156 48 40 C 48 38.613281 47.792969 37.273438 47.429688 36 L 61.332031 36 L 61.332031 33.332031 L 46.382812 33.332031 C 45.554688 31.726562 44.441406 30.292969 43.109375 29.097656 L 53.082031 22.667969 Z M 61.332031 22.667969 "/>
</svg>
