<?xml version="1.0" encoding="UTF-8"?>
<svg xmlns="http://www.w3.org/2000/svg" xmlns:xlink="http://www.w3.org/1999/xlink" width="64" height="64" viewBox="0 0 64 64">
<path fill-rule="evenodd" fill="rgb(86.666667%, 20.392157%, 29.803923%)" fill-opacity="1" d="M 30.445312 37.519531 C 30.710938 37.253906 31.066406 37.109375 31.441406 37.109375 L 31.445312 37.109375 C 31.820312 37.109375 32.175781 37.253906 32.441406 37.519531 C 32.707031 37.789062 32.855469 38.140625 32.855469 38.515625 L 32.855469 38.519531 C 32.855469 38.894531 32.707031 39.25 32.4375 39.515625 C 32.171875 39.78125 31.820312 39.925781 31.445312 39.925781 L 31.441406 39.925781 C 30.664062 39.925781 30.035156 39.292969 30.035156 38.519531 C 30.035156 38.140625 30.183594 37.785156 30.445312 37.519531 Z M 30.109375 42.351562 L 30.109375 47.054688 L 32.777344 47.054688 L 32.777344 42.355469 C 33.351562 42.15625 33.878906 41.84375 34.324219 41.402344 C 35.09375 40.632812 35.519531 39.609375 35.519531 38.519531 C 35.523438 37.429688 35.097656 36.40625 34.328125 35.636719 C 33.558594 34.867188 32.535156 34.441406 31.445312 34.441406 L 31.441406 34.441406 C 30.355469 34.441406 29.332031 34.863281 28.5625 35.632812 C 27.792969 36.402344 27.367188 37.425781 27.367188 38.515625 C 27.367188 40.296875 28.519531 41.796875 30.109375 42.351562 Z M 42.902344 50.375 L 20.027344 50.367188 L 20.03125 32.097656 L 42.910156 32.109375 Z M 25.800781 25.140625 C 25.804688 23.566406 26.402344 22.09375 27.480469 20.988281 C 28.546875 19.898438 29.953125 19.296875 31.449219 19.296875 L 31.46875 19.296875 C 32.964844 19.300781 34.367188 19.914062 35.425781 21.019531 C 36.488281 22.140625 37.074219 23.625 37.070312 25.210938 L 37.070312 29.4375 L 25.777344 29.433594 Z M 44.246094 29.441406 L 39.738281 29.441406 L 39.738281 25.214844 C 39.746094 22.941406 38.898438 20.800781 37.355469 19.179688 C 35.792969 17.542969 33.707031 16.636719 31.476562 16.632812 L 31.449219 16.632812 C 29.230469 16.632812 27.144531 17.515625 25.574219 19.125 C 24.007812 20.726562 23.140625 22.863281 23.132812 25.128906 L 23.109375 29.433594 L 18.699219 29.429688 C 18.347656 29.429688 18.003906 29.570312 17.753906 29.820312 C 17.503906 30.070312 17.363281 30.410156 17.363281 30.765625 L 17.359375 51.699219 C 17.359375 52.433594 17.953125 53.03125 18.691406 53.03125 L 44.234375 53.042969 C 44.972656 53.042969 45.570312 52.445312 45.570312 51.710938 L 45.578125 30.773438 C 45.578125 30.421875 45.4375 30.082031 45.1875 29.832031 C 44.9375 29.582031 44.597656 29.441406 44.246094 29.441406 Z M 52.21875 57.75 C 52.21875 58.175781 51.871094 58.523438 51.445312 58.523438 L 11.441406 58.523438 C 11.015625 58.523438 10.667969 58.175781 10.667969 57.75 L 10.667969 6.105469 C 10.667969 5.679688 11.015625 5.332031 11.441406 5.332031 L 39.417969 5.332031 L 39.417969 16.800781 C 39.417969 17.539062 40.015625 18.132812 40.753906 18.132812 L 52.21875 18.132812 Z M 42.085938 7.21875 L 50.332031 15.46875 L 42.085938 15.46875 Z M 41.304688 2.667969 L 11.441406 2.667969 C 9.542969 2.667969 8 4.210938 8 6.105469 L 8 57.75 C 8 59.644531 9.542969 61.1875 11.441406 61.1875 L 51.445312 61.1875 C 53.34375 61.1875 54.886719 59.644531 54.886719 57.75 L 54.886719 16.25 Z M 41.304688 2.667969 "/>
</svg>
