<?xml version="1.0" encoding="UTF-8"?>
<svg xmlns="http://www.w3.org/2000/svg" xmlns:xlink="http://www.w3.org/1999/xlink" width="64" height="64" viewBox="0 0 64 64">
<path fill-rule="evenodd" fill="rgb(86.666667%, 20.392157%, 29.803923%)" fill-opacity="1" d="M 34.371094 40.628906 C 34.238281 40.84375 34.167969 41.085938 34.167969 41.335938 L 34.167969 47.460938 C 33.917969 47.570312 33.664062 47.6875 33.40625 47.800781 C 32.214844 48.34375 30.992188 48.898438 29.835938 49.167969 L 29.835938 41.335938 C 29.835938 41.085938 29.765625 40.839844 29.628906 40.628906 L 18.429688 22.710938 C 21.160156 23.304688 25.417969 23.726562 32.007812 23.726562 C 38.5625 23.726562 42.8125 23.308594 45.546875 22.71875 Z M 32.007812 18.601562 C 39.183594 18.601562 44 19.246094 46.304688 19.832031 C 44 20.417969 39.1875 21.058594 32.007812 21.058594 C 24.828125 21.058594 20.011719 20.417969 17.710938 19.832031 C 20.011719 19.246094 24.828125 18.601562 32.007812 18.601562 Z M 32.007812 15.933594 C 16.128906 15.933594 13.761719 18.375 13.761719 19.832031 C 13.761719 20.0625 13.824219 20.316406 13.988281 20.585938 L 13.964844 20.597656 L 27.167969 41.71875 L 27.167969 50.667969 C 27.167969 51.40625 27.765625 52.003906 28.5 52.003906 C 30.601562 52.003906 32.589844 51.101562 34.507812 50.230469 C 35.015625 50 35.515625 49.773438 36.011719 49.566406 C 36.511719 49.359375 36.835938 48.875 36.835938 48.335938 L 36.835938 41.71875 L 49.929688 20.730469 C 50.167969 20.410156 50.253906 20.101562 50.253906 19.832031 C 50.253906 18.375 47.882812 15.933594 32.007812 15.933594 Z M 32 58.671875 C 17.296875 58.671875 5.332031 46.707031 5.332031 32 C 5.332031 17.296875 17.296875 5.332031 32 5.332031 C 46.707031 5.332031 58.671875 17.296875 58.671875 32 C 58.671875 46.707031 46.707031 58.671875 32 58.671875 Z M 32 2.667969 C 15.824219 2.667969 2.667969 15.824219 2.667969 32 C 2.667969 48.175781 15.824219 61.335938 32 61.335938 C 48.175781 61.335938 61.335938 48.175781 61.335938 32 C 61.335938 15.824219 48.175781 2.667969 32 2.667969 Z M 32 2.667969 "/>
</svg>
