<?xml version="1.0" encoding="UTF-8"?>
<svg xmlns="http://www.w3.org/2000/svg" xmlns:xlink="http://www.w3.org/1999/xlink" width="64" height="64" viewBox="0 0 64 64">
<path fill-rule="evenodd" fill="rgb(86.666667%, 20.392157%, 29.803923%)" fill-opacity="1" d="M 2.667969 2.667969 L 2.667969 61.332031 L 61.332031 61.332031 L 61.332031 2.667969 Z M 5.332031 21.335938 L 58.667969 21.335938 L 58.667969 5.332031 L 5.332031 5.332031 Z M 5.332031 40 L 58.667969 40 L 58.667969 24 L 5.332031 24 Z M 5.332031 58.667969 L 58.667969 58.667969 L 58.667969 42.667969 L 5.332031 42.667969 Z M 46.867188 14.675781 L 43.4375 12.246094 L 41.894531 14.421875 L 47.160156 18.15625 L 54.277344 11.039062 L 52.390625 9.15625 Z M 46.867188 33.34375 L 43.4375 30.910156 L 41.894531 33.089844 L 47.160156 36.824219 L 54.277344 29.707031 L 52.390625 27.824219 Z M 48 48.863281 L 44.863281 45.722656 L 42.976562 47.609375 L 46.113281 50.746094 L 42.976562 53.886719 L 44.863281 55.773438 L 48 52.632812 L 51.136719 55.773438 L 53.023438 53.886719 L 49.886719 50.746094 L 53.023438 47.609375 L 51.136719 45.722656 Z M 48 48.863281 "/>
</svg>
