<?xml version="1.0" encoding="UTF-8"?>
<svg xmlns="http://www.w3.org/2000/svg" xmlns:xlink="http://www.w3.org/1999/xlink" width="64" height="64" viewBox="0 0 64 64">
<path fill-rule="evenodd" fill="rgb(86.666667%, 20.392157%, 29.803923%)" fill-opacity="1" d="M 43.5 33.058594 L 45.835938 26.230469 L 48.195312 33.058594 Z M 47.308594 23.882812 L 44.492188 23.882812 L 39.082031 38.667969 L 41.6875 38.667969 L 42.882812 34.957031 L 48.792969 34.957031 L 50.027344 38.667969 L 52.632812 38.667969 Z M 33.152344 30.242188 L 38.382812 30.242188 L 38.382812 32.332031 L 33.152344 32.332031 L 33.152344 38.667969 L 30.550781 38.667969 L 30.550781 23.882812 L 39.53125 23.882812 L 39.53125 25.976562 L 33.152344 25.976562 Z M 24.277344 23.882812 L 27.09375 23.882812 L 27.09375 38.667969 L 24.703125 38.667969 L 24.703125 27.59375 L 20.863281 34.957031 L 18.519531 34.957031 L 14.804688 27.636719 L 14.804688 38.667969 L 12.417969 38.667969 L 12.417969 23.882812 L 15.320312 23.882812 L 19.753906 32.695312 Z M 32 58.667969 C 17.296875 58.667969 5.332031 46.707031 5.332031 32 C 5.332031 17.296875 17.296875 5.332031 32 5.332031 C 46.707031 5.332031 58.671875 17.296875 58.671875 32 C 58.671875 46.707031 46.707031 58.667969 32 58.667969 Z M 32 2.667969 C 15.824219 2.667969 2.667969 15.824219 2.667969 32 C 2.667969 48.175781 15.824219 61.335938 32 61.335938 C 48.175781 61.335938 61.335938 48.175781 61.335938 32 C 61.335938 15.824219 48.175781 2.667969 32 2.667969 Z M 32 2.667969 "/>
</svg>
