<?xml version="1.0" encoding="UTF-8"?>
<svg xmlns="http://www.w3.org/2000/svg" xmlns:xlink="http://www.w3.org/1999/xlink" width="64" height="64" viewBox="0 0 64 64">
<path fill-rule="evenodd" fill="rgb(86.666667%, 20.392157%, 29.803923%)" fill-opacity="1" d="M 42.667969 35.332031 C 42.667969 34.800781 42.457031 34.296875 42.082031 33.921875 L 42.082031 33.917969 C 41.691406 33.53125 41.179688 33.335938 40.667969 33.335938 C 40.15625 33.335938 39.640625 33.53125 39.253906 33.917969 C 38.875 34.296875 38.667969 34.800781 38.667969 35.332031 C 38.667969 35.867188 38.875 36.371094 39.253906 36.746094 C 40.03125 37.527344 41.300781 37.527344 42.082031 36.746094 C 42.457031 36.371094 42.667969 35.867188 42.667969 35.332031 Z M 43.964844 32.035156 C 44.847656 32.914062 45.332031 34.085938 45.332031 35.332031 C 45.332031 36.578125 44.847656 37.753906 43.964844 38.632812 C 43.054688 39.542969 41.863281 39.996094 40.667969 39.996094 C 39.472656 39.996094 38.277344 39.542969 37.367188 38.632812 C 36.484375 37.753906 36 36.578125 36 35.332031 C 36 34.085938 36.484375 32.914062 37.367188 32.035156 C 39.1875 30.214844 42.144531 30.214844 43.964844 32.035156 Z M 25.332031 35.332031 C 25.332031 34.800781 25.125 34.296875 24.746094 33.921875 C 24.359375 33.53125 23.84375 33.335938 23.332031 33.335938 C 22.820312 33.335938 22.308594 33.53125 21.917969 33.917969 C 21.542969 34.296875 21.332031 34.800781 21.332031 35.332031 C 21.332031 35.867188 21.542969 36.371094 21.917969 36.746094 C 22.699219 37.527344 23.96875 37.527344 24.746094 36.746094 C 25.125 36.371094 25.332031 35.867188 25.332031 35.332031 Z M 26.632812 32.035156 C 27.515625 32.914062 28 34.085938 28 35.332031 C 28 36.578125 27.515625 37.753906 26.632812 38.632812 C 25.722656 39.542969 24.527344 39.996094 23.332031 39.996094 C 22.136719 39.996094 20.945312 39.542969 20.035156 38.632812 C 19.152344 37.753906 18.667969 36.578125 18.667969 35.332031 C 18.667969 34.085938 19.152344 32.914062 20.035156 32.035156 C 21.855469 30.214844 24.8125 30.214844 26.632812 32.035156 Z M 46.667969 28.867188 C 46.667969 28.390625 46.277344 28 45.800781 28 L 18.199219 28 C 17.722656 28 17.332031 28.390625 17.332031 28.867188 L 17.332031 42.109375 C 17.332031 42.414062 17.585938 42.667969 17.890625 42.667969 L 46.109375 42.667969 C 46.417969 42.667969 46.667969 42.414062 46.667969 42.109375 Z M 28.054688 25.332031 L 35.925781 25.332031 C 35.488281 24.527344 34.671875 24 33.722656 24 L 30.277344 24 C 29.3125 24 28.484375 24.542969 28.054688 25.332031 Z M 30.667969 16 C 30.667969 16.734375 31.265625 17.332031 32 17.332031 C 32.734375 17.332031 33.332031 16.734375 33.332031 16 C 33.332031 15.265625 32.734375 14.667969 32 14.667969 C 31.265625 14.667969 30.667969 15.265625 30.667969 16 Z M 49.332031 42.109375 C 49.332031 43.886719 47.886719 45.332031 46.109375 45.332031 L 37.332031 45.332031 L 37.332031 50.667969 L 34.667969 50.667969 L 34.667969 45.332031 L 29.332031 45.332031 L 29.332031 50.667969 L 26.667969 50.667969 L 26.667969 45.332031 L 17.890625 45.332031 C 16.113281 45.332031 14.667969 43.886719 14.667969 42.109375 L 14.667969 28.867188 C 14.667969 26.917969 16.25 25.332031 18.199219 25.332031 L 25.222656 25.332031 C 25.769531 23.046875 27.820312 21.332031 30.277344 21.332031 L 30.667969 21.332031 L 30.667969 19.753906 C 29.117188 19.203125 28 17.734375 28 16 C 28 13.792969 29.792969 12 32 12 C 34.207031 12 36 13.792969 36 16 C 36 17.734375 34.882812 19.203125 33.332031 19.753906 L 33.332031 21.332031 L 33.722656 21.332031 C 36.179688 21.332031 38.230469 23.046875 38.777344 25.332031 L 45.800781 25.332031 C 47.75 25.332031 49.332031 26.917969 49.332031 28.867188 Z M 9.984375 47.933594 L 12.148438 46.371094 C 9.371094 42.535156 7.8125 38.050781 7.566406 33.332031 L 10.667969 33.332031 L 10.667969 30.667969 L 7.570312 30.667969 C 7.828125 25.976562 9.386719 21.519531 12.148438 17.707031 L 9.984375 16.144531 C 6.894531 20.414062 5.164062 25.410156 4.90625 30.667969 L 2.667969 30.667969 L 2.667969 33.332031 L 4.902344 33.332031 C 5.148438 38.617188 6.878906 43.640625 9.984375 47.933594 Z M 46.328125 51.890625 C 42.507812 54.65625 38.035156 56.214844 33.332031 56.46875 L 33.332031 53.332031 L 30.667969 53.332031 L 30.667969 56.46875 C 25.960938 56.21875 21.492188 54.660156 17.667969 51.890625 L 16.105469 54.050781 C 20.386719 57.148438 25.398438 58.882812 30.667969 59.132812 L 30.667969 61.332031 L 33.332031 61.332031 L 33.332031 59.132812 C 38.601562 58.878906 43.613281 57.148438 47.890625 54.050781 Z M 17.667969 12.1875 C 21.492188 9.417969 25.960938 7.863281 30.667969 7.609375 L 30.667969 10.667969 L 33.332031 10.667969 L 33.332031 7.609375 C 38.035156 7.863281 42.507812 9.421875 46.328125 12.1875 L 47.890625 10.027344 C 43.613281 6.929688 38.601562 5.195312 33.332031 4.945312 L 33.332031 2.667969 L 30.667969 2.667969 L 30.667969 4.945312 C 25.398438 5.195312 20.386719 6.929688 16.105469 10.027344 Z M 59.09375 30.667969 C 58.832031 25.410156 57.101562 20.414062 54.011719 16.144531 L 51.851562 17.707031 C 54.609375 21.519531 56.167969 25.976562 56.425781 30.667969 L 53.332031 30.667969 L 53.332031 33.332031 L 56.429688 33.332031 C 56.183594 38.050781 54.625 42.535156 51.851562 46.371094 L 54.011719 47.933594 C 57.117188 43.640625 58.847656 38.617188 59.097656 33.332031 L 61.332031 33.332031 L 61.332031 30.667969 Z M 49.367188 16.554688 L 57.582031 8.339844 L 55.695312 6.457031 L 47.484375 14.667969 Z M 14.628906 47.523438 L 6.414062 55.734375 L 8.300781 57.621094 L 16.515625 49.40625 Z M 15.609375 13.722656 L 4.78125 2.898438 L 2.894531 4.78125 L 13.722656 15.609375 Z M 50.273438 48.390625 L 61.101562 59.21875 L 59.214844 61.101562 L 48.390625 50.277344 Z M 50.273438 48.390625 "/>
</svg>
