<?xml version="1.0" encoding="UTF-8"?>
<svg xmlns="http://www.w3.org/2000/svg" xmlns:xlink="http://www.w3.org/1999/xlink" width="64" height="64" viewBox="0 0 64 64">
<path fill-rule="evenodd" fill="rgb(86.666667%, 20.392157%, 29.803923%)" fill-opacity="1" d="M 54.648438 45.980469 L 53.660156 45.617188 C 53.1875 45.445312 52.855469 45.269531 52.671875 45.097656 C 52.488281 44.925781 52.394531 44.703125 52.394531 44.4375 C 52.394531 43.738281 52.90625 43.386719 53.9375 43.386719 C 54.554688 43.386719 55.238281 43.507812 55.988281 43.742188 L 55.988281 42.597656 C 55.242188 42.316406 54.507812 42.175781 53.785156 42.175781 C 52.910156 42.175781 52.21875 42.386719 51.703125 42.816406 C 51.1875 43.242188 50.929688 43.824219 50.929688 44.554688 C 50.929688 45.082031 51.078125 45.519531 51.375 45.871094 C 51.667969 46.21875 52.140625 46.519531 52.789062 46.773438 L 53.824219 47.171875 C 54.273438 47.34375 54.589844 47.519531 54.769531 47.691406 C 54.945312 47.863281 55.035156 48.082031 55.035156 48.351562 C 55.035156 48.730469 54.886719 49.015625 54.589844 49.21875 C 54.296875 49.417969 53.875 49.519531 53.324219 49.519531 C 52.992188 49.519531 52.617188 49.484375 52.203125 49.414062 C 51.789062 49.34375 51.394531 49.242188 51.011719 49.117188 L 51.011719 50.261719 C 51.328125 50.410156 51.691406 50.527344 52.109375 50.609375 C 52.527344 50.691406 52.945312 50.734375 53.359375 50.734375 C 54.335938 50.734375 55.101562 50.507812 55.660156 50.054688 C 56.21875 49.605469 56.496094 48.980469 56.496094 48.1875 C 56.496094 47.652344 56.351562 47.214844 56.0625 46.863281 C 55.769531 46.519531 55.296875 46.226562 54.648438 45.980469 Z M 45.28125 47.230469 L 42.832031 42.359375 L 41.226562 42.359375 L 41.226562 50.53125 L 42.546875 50.53125 L 42.546875 44.4375 L 44.597656 48.480469 L 45.898438 48.480469 L 48.019531 44.414062 L 48.019531 50.53125 L 49.339844 50.53125 L 49.339844 42.359375 L 47.78125 42.359375 Z M 58.621094 55.066406 L 58.617188 35.121094 C 56.152344 36.335938 52.328125 36.90625 48.671875 36.90625 C 45.015625 36.90625 41.191406 36.335938 38.730469 35.121094 L 38.730469 55.082031 C 38.890625 55.726562 42.195312 57.460938 48.671875 57.460938 C 55.152344 57.460938 58.457031 55.726562 58.621094 55.066406 Z M 38.730469 31.859375 C 38.890625 32.503906 42.195312 34.238281 48.671875 34.238281 C 55.128906 34.238281 58.4375 32.511719 58.617188 31.851562 L 58.617188 31.734375 C 58.453125 31.089844 55.148438 29.351562 48.671875 29.351562 C 42.214844 29.351562 38.90625 31.078125 38.730469 31.742188 Z M 61.285156 31.730469 L 61.285156 55.082031 C 61.285156 58.550781 54.746094 60.128906 48.671875 60.128906 C 42.597656 60.128906 36.0625 58.550781 36.0625 55.082031 L 36.0625 31.730469 C 36.0625 28.265625 42.601562 26.6875 48.671875 26.6875 C 54.746094 26.6875 61.28125 28.265625 61.285156 31.730469 Z M 34.851562 47.035156 C 34.851562 47.773438 34.253906 48.371094 33.519531 48.371094 L 4 48.371094 C 3.523438 48.371094 3.082031 48.117188 2.84375 47.703125 C 2.609375 47.289062 2.609375 46.78125 2.84375 46.371094 L 27.71875 3.285156 C 28.195312 2.460938 29.554688 2.460938 30.027344 3.285156 L 41.882812 23.8125 C 42.25 24.453125 42.03125 25.265625 41.394531 25.632812 C 40.753906 26.003906 39.941406 25.785156 39.570312 25.148438 L 28.875 6.621094 L 6.308594 45.703125 L 33.519531 45.703125 C 34.253906 45.703125 34.851562 46.296875 34.851562 47.035156 Z M 34.851562 47.035156 "/>
</svg>
