<?xml version="1.0" encoding="UTF-8"?>
<svg xmlns="http://www.w3.org/2000/svg" xmlns:xlink="http://www.w3.org/1999/xlink" width="64" height="64" viewBox="0 0 64 64">
<path fill-rule="evenodd" fill="rgb(86.666667%, 20.392157%, 29.803923%)" fill-opacity="1" d="M 13.53125 35.207031 C 11.964844 35.207031 10.695312 33.933594 10.695312 32.371094 C 10.695312 30.804688 11.964844 29.53125 13.53125 29.53125 C 15.097656 29.53125 16.371094 30.804688 16.371094 32.371094 C 16.371094 33.933594 15.097656 35.207031 13.53125 35.207031 Z M 13.53125 26.867188 C 10.496094 26.867188 8.027344 29.335938 8.027344 32.371094 C 8.027344 35.402344 10.496094 37.871094 13.53125 37.871094 C 16.566406 37.871094 19.035156 35.402344 19.035156 32.371094 C 19.035156 29.335938 16.566406 26.867188 13.53125 26.867188 Z M 55.8125 35.207031 L 30.75 35.207031 C 30.167969 35.207031 29.65625 35.582031 29.480469 36.136719 C 27.847656 41.28125 23.117188 44.738281 17.703125 44.738281 C 10.882812 44.738281 5.332031 39.1875 5.332031 32.371094 C 5.332031 25.550781 10.882812 20 17.703125 20 C 23.117188 20 27.847656 23.457031 29.480469 28.601562 C 29.65625 29.15625 30.167969 29.53125 30.75 29.53125 L 34.980469 29.53125 C 35.332031 29.53125 35.671875 29.390625 35.921875 29.140625 L 38.554688 26.511719 L 41.183594 29.140625 C 41.4375 29.390625 41.773438 29.53125 42.128906 29.53125 L 44.511719 29.53125 C 44.867188 29.53125 45.203125 29.390625 45.453125 29.140625 L 48.085938 26.511719 L 50.71875 29.140625 C 50.964844 29.390625 51.304688 29.53125 51.660156 29.53125 L 54.730469 29.53125 L 58.128906 32.503906 Z M 60.878906 31.367188 L 56.113281 27.195312 C 55.871094 26.984375 55.558594 26.867188 55.234375 26.867188 L 52.210938 26.867188 L 49.027344 23.679688 C 48.507812 23.160156 47.664062 23.160156 47.144531 23.679688 L 43.957031 26.867188 L 42.679688 26.867188 L 39.496094 23.679688 C 38.976562 23.160156 38.128906 23.160156 37.609375 23.679688 L 34.425781 26.867188 L 31.691406 26.867188 C 29.453125 21.125 23.953125 17.332031 17.703125 17.332031 C 9.410156 17.332031 2.667969 24.078125 2.667969 32.371094 C 2.667969 40.660156 9.410156 47.402344 17.703125 47.402344 C 23.953125 47.402344 29.453125 43.613281 31.691406 37.871094 L 56.425781 37.871094 C 56.816406 37.871094 57.183594 37.703125 57.4375 37.40625 L 61.011719 33.234375 C 61.488281 32.679688 61.429688 31.847656 60.878906 31.367188 Z M 60.878906 31.367188 "/>
</svg>
