<?xml version="1.0" encoding="UTF-8"?>
<svg xmlns="http://www.w3.org/2000/svg" xmlns:xlink="http://www.w3.org/1999/xlink" width="64" height="64" viewBox="0 0 64 64">
<path fill-rule="evenodd" fill="rgb(86.666667%, 20.392157%, 29.803923%)" fill-opacity="1" d="M 37.828125 43.828125 C 38 43.65625 38.230469 43.558594 38.472656 43.558594 C 38.71875 43.558594 38.949219 43.65625 39.125 43.828125 C 39.296875 44 39.386719 44.230469 39.386719 44.472656 L 39.386719 44.476562 C 39.386719 44.71875 39.292969 44.949219 39.121094 45.121094 C 38.949219 45.292969 38.71875 45.390625 38.472656 45.390625 C 37.96875 45.390625 37.558594 44.980469 37.558594 44.476562 C 37.558594 44.230469 37.65625 44 37.828125 43.828125 Z M 37.140625 47.792969 L 37.140625 51.539062 L 39.808594 51.539062 L 39.808594 47.796875 C 40.25 47.621094 40.65625 47.355469 41.007812 47.007812 C 41.683594 46.332031 42.054688 45.433594 42.054688 44.476562 C 42.058594 43.519531 41.6875 42.621094 41.011719 41.945312 C 40.332031 41.265625 39.433594 40.894531 38.476562 40.894531 L 38.472656 40.894531 C 36.5 40.894531 34.898438 42.5 34.894531 44.472656 C 34.894531 45.976562 35.824219 47.261719 37.140625 47.792969 Z M 47.625 53.953125 L 29.316406 53.945312 L 29.320312 39.136719 L 47.632812 39.144531 Z M 33.984375 33.109375 C 33.988281 31.792969 34.46875 30.5625 35.339844 29.640625 C 36.1875 28.746094 37.300781 28.253906 38.480469 28.253906 L 38.496094 28.253906 C 40.960938 28.261719 42.960938 30.464844 42.953125 33.167969 L 42.949219 36.476562 L 33.96875 36.472656 Z M 48.964844 36.476562 L 45.617188 36.476562 L 45.617188 33.171875 C 45.632812 29.003906 42.4375 25.601562 38.503906 25.585938 L 38.480469 25.585938 C 36.5625 25.585938 34.757812 26.375 33.402344 27.808594 C 32.066406 29.222656 31.324219 31.105469 31.316406 33.101562 L 31.300781 36.46875 L 27.988281 36.46875 C 27.636719 36.46875 27.296875 36.609375 27.046875 36.859375 C 26.796875 37.109375 26.65625 37.449219 26.65625 37.800781 L 26.648438 55.277344 C 26.648438 56.015625 27.246094 56.613281 27.984375 56.613281 L 48.957031 56.621094 C 49.691406 56.621094 50.292969 56.023438 50.292969 55.285156 L 50.300781 37.8125 C 50.300781 37.457031 50.15625 37.117188 49.910156 36.867188 C 49.65625 36.617188 49.320312 36.476562 48.964844 36.476562 Z M 21.019531 15.292969 C 20.484375 15.292969 20.054688 14.859375 20.054688 14.328125 C 20.054688 13.796875 20.484375 13.363281 21.019531 13.363281 C 21.550781 13.363281 21.980469 13.796875 21.980469 14.328125 C 21.980469 14.859375 21.550781 15.292969 21.019531 15.292969 Z M 21.019531 10.695312 C 19.015625 10.695312 17.386719 12.324219 17.386719 14.328125 C 17.386719 16.328125 19.015625 17.957031 21.019531 17.957031 C 23.019531 17.957031 24.648438 16.328125 24.648438 14.328125 C 24.648438 12.324219 23.019531 10.695312 21.019531 10.695312 Z M 22.914062 21.582031 C 22.359375 21.757812 21.980469 22.273438 21.980469 22.851562 L 21.980469 25.183594 C 21.980469 25.539062 22.125 25.875 22.371094 26.125 L 23.398438 27.152344 L 22.371094 28.179688 C 22.125 28.429688 21.980469 28.769531 21.980469 29.121094 L 21.980469 30.433594 C 21.980469 30.789062 22.125 31.128906 22.371094 31.378906 L 23.398438 32.402344 L 22.371094 33.429688 C 22.125 33.679688 21.980469 34.019531 21.980469 34.375 L 21.980469 35.839844 L 20.882812 37.097656 L 20.054688 36.386719 L 20.054688 22.851562 C 20.054688 22.273438 19.679688 21.757812 19.125 21.582031 C 16.539062 20.761719 14.800781 18.386719 14.800781 15.664062 C 14.800781 12.238281 17.589844 9.449219 21.019531 9.449219 C 24.445312 9.449219 27.234375 12.238281 27.234375 15.664062 C 27.234375 18.386719 25.496094 20.761719 22.914062 21.582031 Z M 26.226562 28.09375 C 26.746094 27.574219 26.746094 26.730469 26.226562 26.210938 L 24.648438 24.632812 L 24.648438 23.769531 C 27.828125 22.363281 29.902344 19.21875 29.902344 15.664062 C 29.902344 10.765625 25.914062 6.78125 21.019531 6.78125 C 16.121094 6.78125 12.136719 10.765625 12.136719 15.664062 C 12.136719 19.21875 14.207031 22.363281 17.386719 23.769531 L 17.386719 37 C 17.386719 37.386719 17.558594 37.757812 17.851562 38.011719 L 20.148438 39.980469 C 20.402344 40.195312 20.707031 40.300781 21.019531 40.300781 C 21.386719 40.300781 21.757812 40.148438 22.023438 39.847656 L 24.320312 37.21875 C 24.53125 36.976562 24.648438 36.664062 24.648438 36.34375 L 24.648438 34.925781 L 26.226562 33.347656 C 26.746094 32.824219 26.746094 31.980469 26.226562 31.460938 L 24.648438 29.882812 L 24.648438 29.675781 Z M 52.296875 57.542969 C 52.296875 58.132812 51.8125 58.617188 51.21875 58.617188 L 11.742188 58.617188 C 11.148438 58.617188 10.667969 58.132812 10.667969 57.542969 L 10.667969 6.40625 C 10.667969 5.816406 11.148438 5.332031 11.742188 5.332031 L 51.21875 5.332031 C 51.8125 5.332031 52.296875 5.816406 52.296875 6.40625 Z M 51.21875 2.667969 L 11.742188 2.667969 C 9.679688 2.667969 8 4.34375 8 6.40625 L 8 57.542969 C 8 59.605469 9.679688 61.28125 11.742188 61.28125 L 51.21875 61.28125 C 53.28125 61.28125 54.960938 59.605469 54.960938 57.542969 L 54.960938 6.40625 C 54.960938 4.34375 53.28125 2.667969 51.21875 2.667969 Z M 51.21875 2.667969 "/>
</svg>
