<?xml version="1.0" encoding="UTF-8"?>
<svg xmlns="http://www.w3.org/2000/svg" xmlns:xlink="http://www.w3.org/1999/xlink" width="64" height="64" viewBox="0 0 64 64">
<path fill-rule="evenodd" fill="rgb(86.666667%, 20.392157%, 29.803923%)" fill-opacity="1" d="M 5.332031 48.335938 L 58.667969 48.335938 L 58.667969 16 L 5.332031 16 Z M 60 13.332031 L 4 13.332031 C 3.265625 13.332031 2.667969 13.929688 2.667969 14.667969 L 2.667969 49.667969 C 2.667969 50.40625 3.265625 51 4 51 L 60 51 C 60.738281 51 61.332031 50.40625 61.332031 49.667969 L 61.332031 14.667969 C 61.332031 13.929688 60.738281 13.332031 60 13.332031 Z M 16.226562 29.976562 C 17.453125 29.976562 18.453125 30.976562 18.453125 32.203125 C 18.453125 33.433594 17.453125 34.433594 16.226562 34.433594 C 14.996094 34.433594 13.996094 33.433594 13.996094 32.203125 C 13.996094 30.976562 14.996094 29.976562 16.226562 29.976562 Z M 16.226562 37.101562 C 18.925781 37.101562 21.121094 34.902344 21.121094 32.203125 C 21.121094 29.503906 18.925781 27.308594 16.226562 27.308594 C 13.527344 27.308594 11.328125 29.503906 11.328125 32.203125 C 11.328125 34.902344 13.527344 37.101562 16.226562 37.101562 Z M 19.789062 21.832031 C 24.328125 21.832031 28.292969 24.730469 29.660156 29.042969 C 29.835938 29.597656 30.351562 29.976562 30.933594 29.976562 L 34.546875 29.976562 C 34.898438 29.976562 35.238281 29.835938 35.488281 29.585938 L 37.597656 27.476562 L 39.710938 29.585938 C 39.957031 29.835938 40.296875 29.976562 40.652344 29.976562 L 42.6875 29.976562 C 43.042969 29.976562 43.378906 29.835938 43.628906 29.585938 L 45.738281 27.476562 L 47.851562 29.585938 C 48.101562 29.835938 48.4375 29.976562 48.792969 29.976562 L 51.34375 29.976562 L 54.046875 32.339844 L 52.253906 34.433594 L 30.933594 34.433594 C 30.351562 34.433594 29.835938 34.808594 29.660156 35.363281 C 28.292969 39.675781 24.328125 42.574219 19.789062 42.574219 C 14.070312 42.574219 9.417969 37.921875 9.417969 32.203125 C 9.417969 26.484375 14.070312 21.832031 19.789062 21.832031 Z M 19.789062 45.242188 C 25.164062 45.242188 29.898438 42.007812 31.871094 37.101562 L 52.867188 37.101562 C 53.253906 37.101562 53.625 36.929688 53.878906 36.632812 L 56.929688 33.070312 C 57.40625 32.515625 57.34375 31.683594 56.792969 31.199219 L 52.722656 27.636719 C 52.484375 27.425781 52.167969 27.308594 51.847656 27.308594 L 49.34375 27.308594 L 46.683594 24.648438 C 46.160156 24.125 45.320312 24.125 44.796875 24.648438 L 42.132812 27.308594 L 41.203125 27.308594 L 38.542969 24.648438 C 38.019531 24.125 37.175781 24.125 36.65625 24.648438 L 33.992188 27.308594 L 31.871094 27.308594 C 29.898438 22.398438 25.160156 19.167969 19.789062 19.167969 C 12.601562 19.167969 6.75 25.015625 6.75 32.203125 C 6.75 39.394531 12.601562 45.242188 19.789062 45.242188 Z M 19.789062 45.242188 "/>
</svg>
