<?xml version="1.0" encoding="UTF-8"?>
<svg width="80px" height="80px" viewBox="0 0 80 80" version="1.1" xmlns="http://www.w3.org/2000/svg" xmlns:xlink="http://www.w3.org/1999/xlink">
    <title>Icon-Architecture/64/Arch_AWS-Glue-Elastic-Views_64</title>
    <g id="Icon-Architecture/64/Arch_AWS-Glue-Elastic-Views_64" stroke="none" stroke-width="1" fill="none" fill-rule="evenodd">
        <g id="Icon-Architecture-BG/64/Analytics" fill="#8C4FFF">
            <rect id="Rectangle" x="0" y="0" width="80" height="80"></rect>
        </g>
        <g id="Icon-Service/64/AWS-Glue-Elastic-Views_64" transform="translate(12.000000, 12.000000)" fill="#FFFFFF">
            <path d="M30,26 L35,26 L35,28 L30,28 L30,33 L28,33 L28,28 L23,28 L23,26 L28,26 L28,21 L30,21 L30,26 Z M49.865,16 C47.253,16 46.11,15.342 46,15.157 L45.988,2.905 C46.107,2.673 47.293,2 49.865,2 C52.29,2 53.736,2.588 54,2.916 L54.021,15.061 C53.833,15.378 52.377,16 49.865,16 L49.865,16 Z M29,36 C24.037,36 20,31.962 20,27 C20,22.038 24.037,18 29,18 C33.963,18 38,22.038 38,27 C38,31.962 33.963,36 29,36 L29,36 Z M48.892,30 C50.646,30 51.75,30.437 52,30.692 L52,40.313 C51.755,40.566 50.652,41 48.892,41 C46.985,41 46.092,40.5 46,40.403 L45.979,30.687 C46.092,30.504 46.99,30 48.892,30 L48.892,30 Z M38,53.637 C37.732,53.784 37.028,54 35.919,54 C34.806,54 34.215,53.784 34,53.664 L34,47.34 C34.216,47.218 34.809,47 35.919,47 C36.976,47 37.717,47.211 38,47.367 L38,53.637 Z M6.838,49 C3.617,49 2.052,48.13 2,47.8 L2,35.205 C2.08,34.862 3.638,34 6.838,34 C10.119,34 11.817,34.854 12,35.225 L12.005,47.769 C11.862,48.131 10.175,49 6.838,49 L6.838,49 Z M10,15.649 C9.724,15.793 9.02,16 7.919,16 C6.883,16 6.247,15.812 6,15.678 L6,9.328 C6.225,9.208 6.82,9 7.919,9 C9.017,9 9.722,9.209 10,9.354 L10,15.649 Z M49.865,0 C46.302,0 44,1.116 44,2.843 L44,10.565 L35.379,18.056 C33.577,16.767 31.379,16 29,16 C25.524,16 22.425,17.625 20.408,20.15 L12,13.119 L12,9.105 C12,7.553 9.892,7 7.919,7 C5.502,7 4,7.807 4,9.105 L4,15.895 C4,17.193 5.502,18 7.919,18 C9.892,18 12,17.447 12,15.895 L12,15.726 L19.297,21.829 C18.472,23.372 18,25.131 18,27 C18,28.972 18.528,30.82 19.441,32.422 L14,37.005 L14,35.2 C14,32.99 10.403,32 6.838,32 C2.684,32 0,33.256 0,35.2 L0,47.8 C0,49.744 2.684,51 6.838,51 C10.142,51 14,50.162 14,47.8 L14,39.62 L20.587,34.072 C22.606,36.471 25.627,38 29,38 C29.74,38 30.463,37.924 31.163,37.784 L34.388,45.134 C32.888,45.414 32,46.126 32,47.135 L32,53.865 C32,55.182 33.502,56 35.919,56 C38.398,56 40,55.162 40,53.865 L40,47.135 C40,45.949 38.65,45.155 36.525,45.026 L33.092,37.202 C35.299,36.313 37.146,34.729 38.376,32.723 L44,35.18 L44,40.403 C44,41.981 45.92,43 48.892,43 C51.248,43 54,42.32 54,40.403 L54,30.597 C54,28.803 51.435,28 48.892,28 C45.92,28 44,29.019 44,30.597 L44,32.997 L39.263,30.927 C39.732,29.705 40,28.385 40,27 C40,24.04 38.819,21.354 36.91,19.375 L44,13.215 L44,15.157 C44,16.911 46.247,18 49.865,18 C52.695,18 56,17.255 56,15.157 L56,2.843 C56,0.745 52.695,0 49.865,0 L49.865,0 Z" id="Fill-1"></path>
        </g>
    </g>
</svg>