<?xml version="1.0" encoding="UTF-8"?>
<svg xmlns="http://www.w3.org/2000/svg" xmlns:xlink="http://www.w3.org/1999/xlink" width="64" height="64" viewBox="0 0 64 64">
<path fill-rule="evenodd" fill="rgb(13.725491%, 18.431373%, 23.921569%)" fill-opacity="1" d="M 33.402344 26.246094 L 35.929688 27.089844 L 30.597656 43.089844 L 28.070312 42.246094 Z M 46.167969 33.625 C 46.484375 33.878906 46.667969 34.261719 46.667969 34.667969 C 46.667969 35.070312 46.484375 35.457031 46.167969 35.707031 L 39.5 41.042969 L 37.832031 38.960938 L 43.199219 34.667969 L 37.832031 30.375 L 39.5 28.292969 Z M 26.167969 30.375 L 20.800781 34.667969 L 26.167969 38.960938 L 24.5 41.042969 L 17.832031 35.707031 C 17.515625 35.457031 17.332031 35.070312 17.332031 34.667969 C 17.332031 34.261719 17.515625 33.878906 17.832031 33.625 L 24.5 28.292969 Z M 13.332031 58.667969 L 13.34375 5.332031 L 37.332031 5.332031 L 37.332031 17.332031 C 37.332031 18.070312 37.929688 18.667969 38.667969 18.667969 L 50.667969 18.667969 L 50.667969 58.667969 Z M 40 7.21875 L 48.78125 16 L 40 16 Z M 52.941406 16.390625 L 39.609375 3.058594 C 39.359375 2.808594 39.019531 2.667969 38.667969 2.667969 L 13.332031 2.667969 C 11.765625 2.667969 10.667969 3.761719 10.667969 5.332031 L 10.667969 58.667969 C 10.667969 60.1875 11.8125 61.332031 13.332031 61.332031 L 50.667969 61.332031 C 52.1875 61.332031 53.332031 60.1875 53.332031 58.667969 L 53.332031 17.332031 C 53.332031 16.980469 53.191406 16.640625 52.941406 16.390625 Z M 52.941406 16.390625 "/>
</svg>
