<?xml version="1.0" encoding="UTF-8"?>
<svg xmlns="http://www.w3.org/2000/svg" xmlns:xlink="http://www.w3.org/1999/xlink" width="64" height="64" viewBox="0 0 64 64">
<path fill-rule="evenodd" fill="rgb(13.725491%, 18.431373%, 23.921569%)" fill-opacity="1" d="M 31.964844 51.257812 C 23.769531 49.585938 18.519531 43.515625 16.355469 33.210938 C 15.476562 29.039062 15.265625 24.972656 15.296875 21.726562 L 46.789062 36.261719 C 44.277344 44.710938 39.308594 49.757812 31.964844 51.257812 M 31.964844 14.09375 C 35.015625 16.4375 40.203125 19.101562 48.585938 20.070312 C 48.714844 23.582031 48.59375 28.433594 47.539062 33.371094 C 47.519531 33.460938 47.492188 33.546875 47.472656 33.640625 L 17.414062 19.765625 C 24.570312 18.628906 29.171875 16.234375 31.964844 14.09375 M 49.992188 17.535156 C 40.742188 16.671875 35.554688 13.703125 32.832031 11.363281 C 32.332031 10.9375 31.59375 10.9375 31.09375 11.363281 C 28.371094 13.703125 23.183594 16.671875 13.929688 17.535156 C 13.273438 17.59375 12.761719 18.128906 12.722656 18.789062 C 12.519531 22.4375 12.535156 28 13.746094 33.757812 C 16.171875 45.320312 22.21875 52.105469 31.710938 53.925781 C 31.796875 53.945312 31.878906 53.953125 31.964844 53.953125 C 32.046875 53.953125 32.132812 53.945312 32.214844 53.925781 C 41.65625 52.117188 47.691406 45.386719 50.144531 33.929688 C 51.382812 28.148438 51.402344 22.503906 51.199219 18.789062 C 51.164062 18.128906 50.648438 17.59375 49.992188 17.535156 M 31.964844 57.5 C 7.304688 53.25 9 21.25 9.589844 14.875 C 23.605469 14.128906 29.667969 9.097656 31.964844 6.34375 C 34.257812 9.097656 40.320312 14.128906 54.335938 14.875 C 54.925781 21.25 56.621094 53.25 31.964844 57.5 M 56.859375 13.410156 C 56.769531 12.769531 56.230469 12.285156 55.585938 12.261719 C 37.375 11.617188 33.207031 3.503906 33.171875 3.429688 C 32.953125 2.964844 32.488281 2.671875 31.972656 2.667969 L 31.960938 2.667969 C 31.449219 2.667969 30.984375 2.960938 30.757812 3.421875 C 30.71875 3.503906 26.550781 11.617188 8.339844 12.261719 C 7.695312 12.285156 7.15625 12.769531 7.066406 13.410156 C 7.007812 13.828125 1.671875 55.210938 31.746094 60.167969 C 31.816406 60.179688 31.890625 60.183594 31.964844 60.183594 C 32.035156 60.183594 32.109375 60.179688 32.179688 60.167969 C 62.253906 55.210938 56.917969 13.828125 56.859375 13.410156 "/>
</svg>
