<?xml version="1.0" encoding="UTF-8"?>
<svg xmlns="http://www.w3.org/2000/svg" xmlns:xlink="http://www.w3.org/1999/xlink" width="64" height="64" viewBox="0 0 64 64">
<path fill-rule="evenodd" fill="rgb(13.725491%, 18.431373%, 23.921569%)" fill-opacity="1" d="M 48.003906 58.667969 C 45.796875 58.667969 44.003906 56.871094 44.003906 54.667969 C 44.003906 52.460938 45.796875 50.667969 48.003906 50.667969 C 50.207031 50.667969 52.003906 52.460938 52.003906 54.667969 C 52.003906 56.871094 50.207031 58.667969 48.003906 58.667969 M 16 13.332031 C 13.792969 13.332031 12 11.539062 12 9.332031 C 12 7.128906 13.792969 5.332031 16 5.332031 C 18.207031 5.332031 20 7.128906 20 9.332031 C 20 11.539062 18.207031 13.332031 16 13.332031 M 48.003906 28 C 50.207031 28 52.003906 29.796875 52.003906 32 C 52.003906 34.207031 50.207031 36 48.003906 36 C 45.796875 36 44.003906 34.207031 44.003906 32 C 44.003906 29.796875 45.796875 28 48.003906 28 M 48.003906 48 C 44.78125 48 42.089844 50.292969 41.46875 53.335938 L 34.667969 53.335938 C 33.785156 53.335938 33.335938 52.914062 33.335938 52.082031 L 33.335938 33.335938 L 41.46875 33.335938 C 42.089844 36.375 44.785156 38.667969 48.003906 38.667969 C 51.679688 38.667969 54.667969 35.675781 54.667969 32 C 54.667969 28.324219 51.679688 25.335938 48.003906 25.335938 C 44.785156 25.335938 42.089844 27.628906 41.46875 30.667969 L 33.335938 30.667969 L 33.335938 11.917969 C 33.335938 9.609375 31.691406 8 29.335938 8 L 22.53125 8 C 21.910156 4.960938 19.21875 2.667969 16 2.667969 C 12.324219 2.667969 9.332031 5.65625 9.332031 9.332031 C 9.332031 13.007812 12.324219 16 16 16 C 19.21875 16 21.914062 13.707031 22.53125 10.664062 L 29.335938 10.664062 C 30.230469 10.664062 30.667969 11.074219 30.667969 11.917969 L 30.667969 52.082031 C 30.667969 54.390625 32.3125 56 34.667969 56 L 41.46875 56 C 42.089844 59.039062 44.785156 61.332031 48.003906 61.332031 C 51.679688 61.332031 54.667969 58.34375 54.667969 54.667969 C 54.667969 50.992188 51.679688 48 48.003906 48 "/>
</svg>
