<?xml version="1.0" encoding="UTF-8"?>
<svg xmlns="http://www.w3.org/2000/svg" xmlns:xlink="http://www.w3.org/1999/xlink" width="64" height="64" viewBox="0 0 64 64">
<path fill-rule="evenodd" fill="rgb(14.117648%, 18.431373%, 24.313726%)" fill-opacity="1" d="M 8.035156 58.667969 C 8.699219 45.445312 19.191406 34.902344 32 34.902344 C 36.332031 34.902344 40.574219 36.121094 44.273438 38.429688 C 51.136719 42.710938 55.539062 50.378906 55.964844 58.667969 Z M 18.921875 18.503906 C 18.921875 11.242188 24.789062 5.332031 32 5.332031 C 39.210938 5.332031 45.074219 11.242188 45.074219 18.503906 C 45.074219 25.765625 39.210938 31.675781 32 31.675781 C 24.789062 31.675781 18.921875 25.765625 18.921875 18.503906 Z M 45.683594 36.167969 C 43.375 34.726562 40.867188 33.679688 38.265625 33.027344 C 43.835938 30.585938 47.742188 25 47.742188 18.503906 C 47.742188 9.773438 40.679688 2.667969 32 2.667969 C 23.320312 2.667969 16.257812 9.773438 16.257812 18.503906 C 16.257812 25.007812 20.171875 30.601562 25.757812 33.039062 C 14.058594 35.976562 5.332031 46.933594 5.332031 60 C 5.332031 60.734375 5.929688 61.332031 6.667969 61.332031 L 57.332031 61.332031 C 58.070312 61.332031 58.667969 60.734375 58.667969 60 C 58.667969 50.292969 53.691406 41.160156 45.683594 36.167969 Z M 45.683594 36.167969 "/>
</svg>
