<?xml version="1.0" encoding="UTF-8"?>
<svg xmlns="http://www.w3.org/2000/svg" xmlns:xlink="http://www.w3.org/1999/xlink" width="64" height="64" viewBox="0 0 64 64">
<path fill-rule="evenodd" fill="rgb(13.725491%, 18.431373%, 23.921569%)" fill-opacity="1" d="M 32.910156 57.785156 C 32.230469 58.484375 31.34375 58.824219 30.203125 58.824219 C 29.058594 58.824219 28.171875 58.484375 27.492188 57.785156 C 26.800781 57.078125 26.464844 56.167969 26.464844 55.011719 C 26.464844 53.851562 26.800781 52.945312 27.492188 52.234375 C 28.171875 51.535156 29.058594 51.195312 30.203125 51.195312 C 31.34375 51.195312 32.230469 51.535156 32.910156 52.234375 C 33.605469 52.945312 33.941406 53.855469 33.941406 55.011719 C 33.941406 56.167969 33.605469 57.074219 32.910156 57.785156 M 30.203125 48.53125 C 28.328125 48.53125 26.773438 49.148438 25.578125 50.375 C 24.398438 51.59375 23.796875 53.148438 23.796875 55.011719 C 23.796875 56.871094 24.398438 58.429688 25.582031 59.648438 C 26.773438 60.871094 28.328125 61.492188 30.203125 61.492188 C 32.078125 61.492188 33.632812 60.871094 34.824219 59.648438 C 36.003906 58.429688 36.605469 56.871094 36.605469 55.011719 C 36.605469 53.152344 36.003906 51.59375 34.824219 50.375 C 33.632812 49.152344 32.078125 48.53125 30.203125 48.53125 M 42.675781 25.058594 C 40.617188 27.492188 37.289062 29.761719 32.78125 31.800781 C 32.308594 32.019531 32 32.492188 32 33.015625 L 32 41.511719 L 28.230469 41.511719 L 27.652344 31.085938 L 30.433594 29.6875 C 33.984375 27.933594 36.5 26.183594 38.132812 24.347656 C 39.847656 22.414062 40.71875 20.160156 40.71875 17.648438 C 40.71875 14.914062 39.84375 12.777344 38.121094 11.296875 C 36.453125 9.867188 34.0625 9.140625 31.003906 9.140625 C 28.976562 9.140625 26.90625 9.433594 24.863281 10.007812 C 23.386719 10.425781 21.757812 11.03125 20 11.808594 L 20 8.519531 C 23.828125 6.402344 27.945312 5.332031 32.246094 5.332031 C 36.496094 5.332031 39.84375 6.378906 42.191406 8.433594 C 44.523438 10.480469 45.660156 13.238281 45.660156 16.871094 C 45.660156 20.003906 44.683594 22.683594 42.675781 25.058594 M 43.949219 6.429688 C 41.101562 3.933594 37.164062 2.667969 32.246094 2.667969 C 27.21875 2.667969 22.421875 3.988281 17.992188 6.59375 C 17.585938 6.832031 17.332031 7.269531 17.332031 7.742188 L 17.332031 13.90625 C 17.332031 14.367188 17.570312 14.792969 17.960938 15.039062 C 18.351562 15.28125 18.84375 15.308594 19.257812 15.101562 C 21.605469 13.945312 23.738281 13.097656 25.585938 12.578125 C 27.394531 12.066406 29.21875 11.808594 31.003906 11.808594 C 33.40625 11.808594 35.214844 12.316406 36.382812 13.316406 C 37.507812 14.285156 38.050781 15.703125 38.050781 17.648438 C 38.050781 19.515625 37.425781 21.125 36.136719 22.574219 C 34.757812 24.128906 32.441406 25.71875 29.242188 27.300781 L 25.671875 29.09375 C 25.199219 29.332031 24.910156 29.832031 24.941406 30.363281 L 25.640625 42.921875 C 25.679688 43.625 26.265625 44.179688 26.96875 44.179688 L 33.332031 44.179688 C 34.070312 44.179688 34.667969 43.582031 34.667969 42.84375 L 34.667969 33.871094 C 39.144531 31.753906 42.519531 29.371094 44.710938 26.777344 C 47.109375 23.945312 48.324219 20.609375 48.324219 16.871094 C 48.324219 12.484375 46.851562 8.972656 43.949219 6.429688 "/>
</svg>
