<?xml version="1.0" encoding="UTF-8"?>
<svg xmlns="http://www.w3.org/2000/svg" xmlns:xlink="http://www.w3.org/1999/xlink" width="64" height="64" viewBox="0 0 64 64">
<path fill-rule="evenodd" fill="rgb(14.117648%, 18.431373%, 24.313726%)" fill-opacity="1" d="M 46.550781 48.015625 L 58.648438 48.015625 L 58.648438 43.042969 L 46.550781 43.042969 Z M 44.847656 50.683594 L 35.792969 50.683594 L 35.792969 54.785156 L 47.75 54.785156 L 47.75 50.683594 Z M 30.8125 48.019531 L 43.882812 48.019531 L 43.882812 43.042969 L 30.8125 43.042969 Z M 45.214844 40.375 L 53.175781 40.375 L 53.175781 35.105469 L 41.21875 35.105469 L 41.21875 40.375 Z M 61.316406 41.710938 L 61.316406 49.351562 C 61.316406 50.085938 60.71875 50.683594 59.980469 50.683594 L 50.414062 50.683594 L 50.414062 56.117188 C 50.414062 56.855469 49.820312 57.453125 49.082031 57.453125 L 34.457031 57.453125 C 33.722656 57.453125 33.125 56.855469 33.125 56.117188 L 33.125 50.683594 L 29.476562 50.683594 C 28.738281 50.683594 28.144531 50.085938 28.144531 49.351562 L 28.144531 41.710938 C 28.144531 40.972656 28.738281 40.375 29.476562 40.375 L 38.550781 40.375 L 38.550781 33.773438 C 38.550781 33.035156 39.148438 32.4375 39.882812 32.4375 L 54.507812 32.4375 C 55.246094 32.4375 55.84375 33.035156 55.84375 33.773438 L 55.84375 40.375 L 59.980469 40.375 C 60.71875 40.375 61.316406 40.972656 61.316406 41.710938 Z M 31.449219 32.9375 C 31.363281 33.484375 31.617188 34.023438 32.09375 34.304688 C 32.566406 34.582031 33.167969 34.539062 33.597656 34.195312 C 33.726562 34.09375 36.375 31.921875 37.542969 26.613281 C 38.070312 27.292969 38.636719 28.238281 39.078125 29.511719 L 41.597656 28.640625 C 40.128906 24.386719 37.375 22.851562 37.261719 22.789062 C 36.867188 22.574219 36.394531 22.574219 36 22.78125 C 35.609375 22.988281 35.34375 23.378906 35.296875 23.820312 C 35.128906 25.40625 34.816406 26.734375 34.441406 27.828125 C 33.890625 13.921875 21.828125 9.179688 21.691406 9.125 C 21.070312 8.890625 20.371094 9.148438 20.050781 9.730469 C 19.730469 10.308594 19.886719 11.039062 20.414062 11.4375 C 24.128906 14.238281 25.820312 18.976562 25.070312 24.386719 L 24.757812 26.113281 C 24.300781 28.105469 23.539062 30.054688 22.46875 31.964844 L 21.542969 33.800781 C 17.015625 43.863281 20.84375 53.953125 21.011719 54.375 C 21.210938 54.890625 21.707031 55.226562 22.253906 55.226562 C 22.285156 55.226562 22.320312 55.226562 22.355469 55.222656 C 22.425781 55.21875 24.039062 55.089844 26.316406 54.550781 L 25.699219 51.957031 C 24.679688 52.195312 23.804688 52.347656 23.179688 52.4375 C 22.398438 49.800781 20.675781 42.230469 23.949219 34.949219 L 24.820312 33.21875 C 25.988281 31.140625 26.84375 28.949219 27.367188 26.652344 L 27.703125 24.8125 C 28.148438 21.597656 27.863281 18.582031 26.898438 15.945312 C 29.984375 19.214844 32.800781 24.59375 31.449219 32.9375 Z M 16.542969 10.015625 C 15.902344 9.683594 14.929688 9.378906 13.996094 9.332031 C 16.132812 12.070312 19.179688 17.847656 16.121094 26.246094 C 15.941406 26.738281 15.492188 27.078125 14.972656 27.121094 C 14.460938 27.175781 13.957031 26.898438 13.703125 26.441406 C 12.875 24.960938 10.550781 21.597656 7.984375 20.285156 C 8.878906 23.53125 9.882812 29.429688 7.089844 33.671875 C 6.949219 33.882812 6.816406 34.09375 6.695312 34.304688 C 4.25 38.46875 5.089844 43.574219 8.832031 47.304688 C 8.839844 47.3125 9.761719 48.210938 12.15625 49.589844 C 15.105469 51.292969 16.261719 51.792969 16.273438 51.796875 L 15.234375 54.253906 C 15.183594 54.230469 13.957031 53.710938 10.824219 51.902344 C 8.113281 50.335938 7.054688 49.296875 6.941406 49.1875 C 2.386719 44.648438 1.363281 38.121094 4.394531 32.957031 C 4.542969 32.703125 4.699219 32.453125 4.863281 32.203125 C 8.066406 27.339844 4.769531 18.988281 4.738281 18.90625 C 4.570312 18.496094 4.621094 18.027344 4.871094 17.664062 C 5.117188 17.296875 5.53125 17.078125 5.976562 17.078125 C 9.53125 17.078125 12.605469 20.289062 14.390625 22.664062 C 16.191406 14.238281 10.886719 9.808594 10.636719 9.605469 C 10.304688 9.332031 10.117188 8.914062 10.148438 8.484375 C 10.171875 8.054688 10.402344 7.660156 10.769531 7.433594 C 12.832031 6.15625 15.847656 6.648438 17.773438 7.648438 Z M 16.542969 10.015625 "/>
</svg>
