<?xml version="1.0" encoding="UTF-8"?>
<svg xmlns="http://www.w3.org/2000/svg" xmlns:xlink="http://www.w3.org/1999/xlink" width="64" height="64" viewBox="0 0 64 64">
<path fill-rule="evenodd" fill="rgb(13.725491%, 18.431373%, 23.921569%)" fill-opacity="1" d="M 43.761719 57.09375 L 46.425781 57.09375 L 46.425781 50.019531 L 43.761719 50.019531 Z M 39.050781 57.097656 L 41.714844 57.097656 L 41.714844 50.019531 L 39.050781 50.019531 Z M 33.171875 57.097656 L 35.839844 57.097656 L 35.839844 50.019531 L 33.171875 50.019531 Z M 28.515625 57.097656 L 31.183594 57.097656 L 31.183594 50.019531 L 28.515625 50.019531 Z M 22.589844 57.097656 L 25.253906 57.097656 L 25.253906 50.019531 L 22.589844 50.019531 Z M 17.820312 57.097656 L 20.488281 57.097656 L 20.488281 50.019531 L 17.820312 50.019531 Z M 43.761719 46.453125 L 46.425781 46.453125 L 46.425781 40.632812 L 43.761719 40.632812 Z M 39.050781 46.453125 L 41.714844 46.453125 L 41.714844 40.632812 L 39.050781 40.632812 Z M 33.171875 46.453125 L 35.839844 46.453125 L 35.839844 40.632812 L 33.171875 40.632812 Z M 28.515625 46.453125 L 31.183594 46.453125 L 31.183594 40.632812 L 28.515625 40.632812 Z M 22.589844 46.453125 L 25.253906 46.453125 L 25.253906 40.632812 L 22.589844 40.632812 Z M 17.820312 46.453125 L 20.488281 46.453125 L 20.488281 40.632812 L 17.820312 40.632812 Z M 43.761719 37.085938 L 46.425781 37.085938 L 46.425781 31.269531 L 43.761719 31.269531 Z M 39.050781 37.085938 L 41.714844 37.085938 L 41.714844 31.269531 L 39.050781 31.269531 Z M 33.171875 37.085938 L 35.839844 37.085938 L 35.839844 31.269531 L 33.171875 31.269531 Z M 28.515625 37.085938 L 31.183594 37.085938 L 31.183594 31.269531 L 28.515625 31.269531 Z M 22.589844 37.085938 L 25.253906 37.085938 L 25.253906 31.269531 L 22.589844 31.269531 Z M 17.820312 37.085938 L 20.488281 37.085938 L 20.488281 31.269531 L 17.820312 31.269531 Z M 43.761719 27.777344 L 46.425781 27.777344 L 46.425781 21.957031 L 43.761719 21.957031 Z M 39.050781 27.777344 L 41.714844 27.777344 L 41.714844 21.957031 L 39.050781 21.957031 Z M 33.171875 27.777344 L 35.839844 27.777344 L 35.839844 21.957031 L 33.171875 21.957031 Z M 28.515625 27.777344 L 31.183594 27.777344 L 31.183594 21.957031 L 28.515625 21.957031 Z M 22.589844 27.777344 L 25.253906 27.777344 L 25.253906 21.957031 L 22.589844 21.957031 Z M 17.820312 27.777344 L 20.488281 27.777344 L 20.488281 21.957031 L 17.820312 21.957031 Z M 33.210938 18.328125 L 35.878906 18.328125 L 35.878906 7.898438 L 33.210938 7.898438 Z M 28.5 18.328125 L 31.167969 18.328125 L 31.167969 7.898438 L 28.5 7.898438 Z M 48.46875 59.363281 L 16 59.363281 L 16 19.796875 L 23.867188 19.796875 C 24.601562 19.796875 25.199219 19.203125 25.199219 18.464844 L 25.199219 5.332031 L 39.253906 5.332031 L 39.253906 18.464844 C 39.253906 19.203125 39.847656 19.796875 40.585938 19.796875 L 48.46875 19.796875 Z M 48.753906 17.132812 L 41.921875 17.132812 L 41.921875 5.050781 C 41.921875 3.738281 40.847656 2.667969 39.535156 2.667969 L 24.917969 2.667969 C 23.601562 2.667969 22.53125 3.738281 22.53125 5.050781 L 22.53125 17.132812 L 15.71875 17.132812 C 14.402344 17.132812 13.332031 18.203125 13.332031 19.515625 L 13.332031 59.644531 C 13.332031 60.960938 14.402344 62.03125 15.71875 62.03125 L 48.753906 62.03125 C 50.066406 62.03125 51.136719 60.960938 51.136719 59.644531 L 51.136719 19.515625 C 51.136719 18.203125 50.066406 17.132812 48.753906 17.132812 Z M 48.753906 17.132812 "/>
</svg>
