<?xml version="1.0" encoding="UTF-8"?>
<svg xmlns="http://www.w3.org/2000/svg" xmlns:xlink="http://www.w3.org/1999/xlink" width="64" height="64" viewBox="0 0 64 64">
<path fill-rule="evenodd" fill="rgb(13.725491%, 18.431373%, 23.921569%)" fill-opacity="1" d="M 32.019531 58.703125 C 17.304688 58.703125 5.332031 46.730469 5.332031 32.015625 C 5.332031 17.304688 17.304688 5.332031 32.019531 5.332031 C 46.730469 5.332031 58.703125 17.304688 58.703125 32.015625 C 58.703125 46.730469 46.730469 58.703125 32.019531 58.703125 M 32.019531 2.667969 C 15.832031 2.667969 2.667969 15.832031 2.667969 32.015625 C 2.667969 48.203125 15.832031 61.371094 32.019531 61.371094 C 48.203125 61.371094 61.371094 48.203125 61.371094 32.015625 C 61.371094 15.832031 48.203125 2.667969 32.019531 2.667969 M 32.019531 42.332031 C 26.332031 42.332031 21.707031 37.707031 21.707031 32.015625 C 21.707031 26.332031 26.332031 21.703125 32.019531 21.703125 C 37.707031 21.703125 42.332031 26.332031 42.332031 32.015625 C 42.332031 37.707031 37.707031 42.332031 32.019531 42.332031 M 32.019531 19.039062 C 24.863281 19.039062 19.039062 24.859375 19.039062 32.015625 C 19.039062 39.175781 24.863281 45 32.019531 45 C 39.175781 45 45 39.175781 45 32.015625 C 45 24.859375 39.175781 19.039062 32.019531 19.039062 M 32.019531 36.671875 C 29.453125 36.671875 27.367188 34.582031 27.367188 32.015625 C 27.367188 29.453125 29.453125 27.367188 32.019531 27.367188 C 34.585938 27.367188 36.671875 29.453125 36.671875 32.015625 C 36.671875 34.582031 34.585938 36.671875 32.019531 36.671875 M 32.019531 24.699219 C 27.984375 24.699219 24.699219 27.984375 24.699219 32.015625 C 24.699219 36.054688 27.984375 39.335938 32.019531 39.335938 C 36.054688 39.335938 39.335938 36.054688 39.335938 32.015625 C 39.335938 27.984375 36.054688 24.699219 32.019531 24.699219 "/>
</svg>
