<?xml version="1.0" encoding="UTF-8"?>
<svg xmlns="http://www.w3.org/2000/svg" xmlns:xlink="http://www.w3.org/1999/xlink" width="64" height="64" viewBox="0 0 64 64">
<path fill-rule="evenodd" fill="rgb(13.725491%, 18.431373%, 23.921569%)" fill-opacity="1" d="M 10.667969 26.667969 L 10.667969 24 L 14.667969 24 L 14.667969 26.667969 Z M 14.667969 21.332031 L 10.667969 21.332031 C 9.195312 21.332031 8 22.53125 8 24 L 8 26.667969 C 8 28.136719 9.195312 29.332031 10.667969 29.332031 L 14.667969 29.332031 C 16.136719 29.332031 17.332031 28.136719 17.332031 26.667969 L 17.332031 24 C 17.332031 22.53125 16.136719 21.332031 14.667969 21.332031 Z M 34 42.667969 C 29.957031 42.667969 26.667969 39.378906 26.667969 35.332031 C 26.667969 31.289062 29.957031 28 34 28 C 38.042969 28 41.332031 31.289062 41.332031 35.332031 C 41.332031 39.378906 38.042969 42.667969 34 42.667969 Z M 34 25.332031 C 28.484375 25.332031 24 29.820312 24 35.332031 C 24 40.847656 28.484375 45.332031 34 45.332031 C 39.515625 45.332031 44 40.847656 44 35.332031 C 44 29.820312 39.515625 25.332031 34 25.332031 Z M 34 48 C 27.015625 48 21.332031 42.316406 21.332031 35.332031 C 21.332031 28.347656 27.015625 22.667969 34 22.667969 C 40.984375 22.667969 46.667969 28.347656 46.667969 35.332031 C 46.667969 42.316406 40.984375 48 34 48 Z M 34 20 C 25.546875 20 18.667969 26.878906 18.667969 35.332031 C 18.667969 43.789062 25.546875 50.667969 34 50.667969 C 42.453125 50.667969 49.332031 43.789062 49.332031 35.332031 C 49.332031 26.878906 42.453125 20 34 20 Z M 58.667969 51.230469 C 58.667969 52.390625 57.722656 53.332031 56.566406 53.332031 L 7.433594 53.332031 C 6.277344 53.332031 5.332031 52.390625 5.332031 51.230469 L 5.332031 20.769531 C 5.332031 19.609375 6.277344 18.667969 7.433594 18.667969 L 23.984375 18.667969 C 24.613281 18.667969 25.160156 18.222656 25.289062 17.605469 L 26.28125 12.863281 C 26.386719 12.363281 26.832031 12 27.339844 12 L 41.003906 12 C 41.511719 12 41.957031 12.363281 42.0625 12.863281 L 43.058594 17.605469 C 43.1875 18.222656 43.730469 18.667969 44.363281 18.667969 L 56.566406 18.667969 C 57.722656 18.667969 58.667969 19.609375 58.667969 20.769531 Z M 13.332031 16 L 17.335938 16 L 17.335938 14.667969 L 13.332031 14.667969 Z M 56.566406 16 L 45.445312 16 L 44.671875 12.316406 C 44.3125 10.585938 42.769531 9.332031 41.003906 9.332031 L 27.339844 9.332031 C 25.574219 9.332031 24.03125 10.585938 23.671875 12.316406 L 22.898438 16 L 20 16 L 20 14.667969 C 20 13.195312 18.804688 12 17.335938 12 L 13.332031 12 C 11.863281 12 10.667969 13.195312 10.667969 14.667969 L 10.667969 16 L 7.433594 16 C 4.804688 16 2.667969 18.136719 2.667969 20.769531 L 2.667969 51.230469 C 2.667969 53.863281 4.804688 56 7.433594 56 L 56.566406 56 C 59.195312 56 61.332031 53.863281 61.332031 51.230469 L 61.332031 20.769531 C 61.332031 18.136719 59.195312 16 56.566406 16 Z M 56.566406 16 "/>
</svg>
