<?xml version="1.0" encoding="UTF-8"?>
<svg xmlns="http://www.w3.org/2000/svg" xmlns:xlink="http://www.w3.org/1999/xlink" width="64" height="64" viewBox="0 0 64 64">
<path fill-rule="evenodd" fill="rgb(13.725491%, 18.431373%, 23.921569%)" fill-opacity="1" d="M 20 26.667969 L 37.332031 26.667969 L 37.332031 24 L 20 24 Z M 20 45.332031 L 37.332031 45.332031 L 37.332031 42.667969 L 20 42.667969 Z M 20 36 L 42.667969 36 L 42.667969 33.332031 L 20 33.332031 Z M 13.332031 58.667969 L 13.34375 5.332031 L 37.332031 5.332031 L 37.332031 17.332031 C 37.332031 18.070312 37.929688 18.667969 38.667969 18.667969 L 50.667969 18.667969 L 50.699219 58.667969 Z M 40 7.21875 L 48.78125 16 L 40 16 Z M 52.941406 16.390625 L 39.609375 3.058594 C 39.359375 2.808594 39.019531 2.667969 38.667969 2.667969 L 13.332031 2.667969 C 11.761719 2.667969 10.667969 3.761719 10.667969 5.332031 L 10.667969 58.667969 C 10.667969 60.1875 11.8125 61.332031 13.332031 61.332031 L 50.699219 61.332031 C 52.203125 61.332031 53.332031 60.1875 53.332031 58.667969 L 53.332031 17.332031 C 53.332031 16.980469 53.191406 16.640625 52.941406 16.390625 Z M 52.941406 16.390625 "/>
</svg>
