<?xml version="1.0" encoding="UTF-8"?>
<svg xmlns="http://www.w3.org/2000/svg" xmlns:xlink="http://www.w3.org/1999/xlink" width="64" height="64" viewBox="0 0 64 64">
<path fill-rule="evenodd" fill="rgb(13.725491%, 18.431373%, 23.921569%)" fill-opacity="1" d="M 13.335938 54.667969 L 58.667969 54.667969 L 58.667969 18.667969 L 13.335938 18.667969 Z M 5.332031 54.667969 L 10.667969 54.667969 L 10.667969 18.667969 L 5.332031 18.667969 Z M 5.332031 16 L 58.667969 16 L 58.667969 8 L 5.332031 8 Z M 61.332031 6.667969 L 61.332031 56 C 61.332031 56.734375 60.738281 57.332031 60 57.332031 L 4 57.332031 C 3.261719 57.332031 2.667969 56.734375 2.667969 56 L 2.667969 6.667969 C 2.667969 5.929688 3.261719 5.332031 4 5.332031 L 60 5.332031 C 60.738281 5.332031 61.332031 5.929688 61.332031 6.667969 Z M 46.667969 43.210938 L 46.667969 31.820312 L 37.332031 38.042969 L 37.332031 48.398438 Z M 25.332031 43.210938 L 34.667969 48.398438 L 34.667969 38.042969 L 25.332031 31.820312 Z M 26.558594 29.433594 L 36 35.726562 L 45.441406 29.433594 L 36 24.1875 Z M 49.332031 29.332031 L 49.332031 43.996094 C 49.332031 44.480469 49.070312 44.925781 48.648438 45.164062 L 36.648438 51.828125 C 36.445312 51.941406 36.222656 51.996094 36 51.996094 C 35.777344 51.996094 35.554688 51.941406 35.351562 51.828125 L 23.351562 45.164062 C 22.929688 44.925781 22.667969 44.480469 22.667969 43.996094 L 22.667969 29.332031 C 22.667969 28.84375 22.929688 28.398438 23.351562 28.164062 L 35.351562 21.5 C 35.753906 21.273438 36.246094 21.273438 36.648438 21.5 L 48.648438 28.164062 C 49.070312 28.398438 49.332031 28.84375 49.332031 29.332031 Z M 18.667969 13.332031 L 21.335938 13.332031 L 21.335938 10.667969 L 18.667969 10.667969 Z M 13.335938 13.332031 L 16 13.332031 L 16 10.667969 L 13.335938 10.667969 Z M 8 13.332031 L 10.667969 13.332031 L 10.667969 10.667969 L 8 10.667969 Z M 8 13.332031 "/>
</svg>
