<?xml version="1.0" encoding="UTF-8"?>
<svg xmlns="http://www.w3.org/2000/svg" xmlns:xlink="http://www.w3.org/1999/xlink" width="64" height="64" viewBox="0 0 64 64">
<path fill-rule="evenodd" fill="rgb(13.725491%, 18.431373%, 23.921569%)" fill-opacity="1" d="M 54.277344 23.054688 L 50.445312 19.222656 L 48.558594 21.109375 L 52 24.550781 L 52 58.667969 L 20 58.667969 L 20 56 L 17.335938 56 L 17.335938 60 C 17.335938 60.734375 17.929688 61.332031 18.667969 61.332031 L 53.335938 61.332031 C 54.070312 61.332031 54.667969 60.734375 54.667969 60 L 54.667969 24 C 54.667969 23.644531 54.527344 23.304688 54.277344 23.054688 Z M 44 50.667969 L 44 17.332031 L 33.335938 17.332031 C 32.597656 17.332031 32 16.734375 32 16 L 32 5.332031 L 12 5.332031 L 12 50.667969 Z M 34.667969 14.664062 L 42.113281 14.664062 L 34.667969 7.21875 Z M 45.332031 53.332031 L 10.667969 53.332031 C 9.929688 53.332031 9.332031 52.734375 9.332031 52 L 9.332031 4 C 9.332031 3.265625 9.929688 2.667969 10.667969 2.667969 L 33.335938 2.667969 C 33.6875 2.667969 34.027344 2.808594 34.277344 3.058594 L 46.277344 15.054688 C 46.527344 15.308594 46.667969 15.644531 46.667969 16 L 46.667969 52 C 46.667969 52.734375 46.070312 53.332031 45.332031 53.332031 Z M 17.335938 24 L 30.667969 24 L 30.667969 21.332031 L 17.335938 21.332031 Z M 17.335938 40 L 30.667969 40 L 30.667969 37.332031 L 17.335938 37.332031 Z M 17.335938 32 L 36 32 L 36 29.332031 L 17.335938 29.332031 Z M 17.335938 32 "/>
</svg>
