<?xml version="1.0" encoding="UTF-8"?>
<svg xmlns="http://www.w3.org/2000/svg" xmlns:xlink="http://www.w3.org/1999/xlink" width="64" height="64" viewBox="0 0 64 64">
<path fill-rule="evenodd" fill="rgb(13.725491%, 18.431373%, 23.921569%)" fill-opacity="1" d="M 49.761719 13.015625 C 47.914062 13.921875 45.734375 14.667969 43.316406 15.226562 C 42.21875 11.613281 40.734375 8.636719 38.960938 6.480469 C 43.09375 7.75 46.789062 10.023438 49.761719 13.015625 Z M 45.378906 29.332031 C 45.292969 25.136719 44.8125 21.242188 44 17.792969 C 46.871094 17.125 49.449219 16.207031 51.589844 15.074219 C 54.78125 19.042969 56.820312 23.960938 57.230469 29.332031 Z M 43.613281 45.175781 C 44.65625 41.296875 45.277344 36.824219 45.378906 32 L 57.296875 32 C 57.144531 38.007812 54.96875 43.523438 51.390625 47.859375 C 49.199219 46.730469 46.542969 45.828125 43.613281 45.175781 Z M 42.839844 47.726562 C 45.328125 48.269531 47.578125 49.003906 49.488281 49.910156 C 46.324219 53.003906 42.375 55.277344 37.96875 56.441406 C 39.914062 54.421875 41.578125 51.429688 42.839844 47.726562 Z M 21.378906 47.933594 C 22.722656 51.8125 24.511719 54.90625 26.609375 56.882812 C 21.851562 56.003906 17.5625 53.828125 14.085938 50.738281 C 16.042969 49.570312 18.539062 48.621094 21.378906 47.933594 Z M 18.769531 32 C 18.871094 36.917969 19.519531 41.46875 20.59375 45.394531 C 17.28125 46.21875 14.378906 47.378906 12.140625 48.8125 C 8.066406 44.34375 5.53125 38.46875 5.367188 32 Z M 20.203125 17.550781 C 19.355469 21.058594 18.859375 25.042969 18.769531 29.332031 L 5.433594 29.332031 C 5.882812 23.503906 8.257812 18.21875 11.925781 14.09375 C 14.105469 15.535156 16.941406 16.707031 20.203125 17.550781 Z M 20.898438 14.996094 C 18.132812 14.289062 15.714844 13.332031 13.832031 12.164062 C 17.097656 9.179688 21.109375 7.011719 25.570312 6 C 23.664062 8.136719 22.066406 11.222656 20.898438 14.996094 Z M 21.4375 29.332031 C 21.523438 25.117188 22.007812 21.355469 22.785156 18.136719 C 25.835938 18.730469 29.160156 19.046875 32.59375 19.046875 C 35.644531 19.046875 38.621094 18.792969 41.402344 18.320312 C 42.15625 21.496094 42.625 25.191406 42.710938 29.332031 Z M 40.21875 47.246094 C 38.132812 53.175781 35.046875 56.667969 32.074219 56.667969 C 29.125 56.667969 26.0625 53.234375 23.980469 47.394531 C 26.664062 46.925781 29.574219 46.667969 32.59375 46.667969 C 35.234375 46.667969 37.800781 46.875 40.21875 47.246094 Z M 32.59375 44 C 29.308594 44 26.125 44.296875 23.183594 44.839844 C 22.179688 41.210938 21.433594 36.878906 21.332031 32 L 42.667969 32 C 42.566406 36.804688 41.988281 41.082031 41.007812 44.675781 C 38.339844 44.242188 35.503906 44 32.59375 44 Z M 32.644531 5.398438 C 35.664062 5.816406 38.753906 9.496094 40.703125 15.734375 C 38.148438 16.152344 35.410156 16.382812 32.59375 16.382812 C 29.394531 16.382812 26.316406 16.097656 23.5 15.574219 C 25.527344 9.199219 28.746094 5.53125 31.847656 5.359375 C 32.117188 5.367188 32.378906 5.386719 32.644531 5.398438 Z M 32.847656 2.742188 C 32.589844 2.714844 32.335938 2.667969 32.074219 2.667969 C 31.988281 2.667969 31.90625 2.6875 31.824219 2.691406 C 31.660156 2.6875 31.5 2.667969 31.332031 2.667969 C 15.527344 2.667969 2.667969 15.527344 2.667969 31.332031 C 2.667969 47.140625 15.527344 60 31.332031 60 C 47.140625 60 60 47.140625 60 31.332031 C 60 16.039062 47.949219 3.539062 32.847656 2.742188 Z M 32.847656 2.742188 "/>
</svg>
