<?xml version="1.0" encoding="UTF-8"?>
<svg xmlns="http://www.w3.org/2000/svg" xmlns:xlink="http://www.w3.org/1999/xlink" width="64" height="64" viewBox="0 0 64 64">
<path fill-rule="evenodd" fill="rgb(13.725491%, 18.431373%, 23.921569%)" fill-opacity="1" d="M 33.632812 57.808594 L 33.632812 46.898438 L 45.117188 40.273438 C 45.53125 40.03125 45.78125 39.59375 45.78125 39.117188 L 45.78125 25.628906 L 55.265625 20.15625 L 55.265625 45.316406 Z M 9.332031 20.15625 L 18.816406 25.628906 L 18.816406 39.117188 C 18.816406 39.59375 19.070312 40.03125 19.484375 40.273438 L 30.964844 46.898438 L 30.964844 57.808594 L 9.332031 45.316406 Z M 33.632812 32.777344 L 43.117188 27.304688 L 43.117188 38.347656 L 33.632812 43.824219 Z M 21.484375 27.300781 L 30.964844 32.777344 L 30.964844 43.824219 L 21.484375 38.347656 Z M 32.300781 30.335938 L 23.011719 24.972656 L 32.300781 19.613281 L 41.589844 24.972656 Z M 32.300781 5.539062 L 53.773438 17.9375 L 44.253906 23.433594 L 32.964844 16.917969 C 32.554688 16.679688 32.046875 16.679688 31.632812 16.917969 L 20.34375 23.433594 L 10.824219 17.9375 Z M 57.265625 16.871094 L 32.964844 2.84375 C 32.554688 2.609375 32.046875 2.609375 31.632812 2.84375 L 7.332031 16.871094 C 6.921875 17.113281 6.667969 17.550781 6.667969 18.027344 L 6.667969 46.085938 C 6.667969 46.5625 6.921875 47.003906 7.332031 47.242188 L 31.632812 61.273438 C 31.839844 61.390625 32.070312 61.449219 32.300781 61.449219 C 32.53125 61.449219 32.761719 61.390625 32.964844 61.273438 L 57.265625 47.242188 C 57.679688 47.003906 57.933594 46.5625 57.933594 46.085938 L 57.933594 18.027344 C 57.933594 17.550781 57.679688 17.113281 57.265625 16.871094 Z M 57.265625 16.871094 "/>
</svg>
