<?xml version="1.0" encoding="UTF-8"?>
<svg xmlns="http://www.w3.org/2000/svg" xmlns:xlink="http://www.w3.org/1999/xlink" width="64" height="64" viewBox="0 0 64 64">
<path fill-rule="evenodd" fill="rgb(13.725491%, 18.431373%, 23.921569%)" fill-opacity="1" d="M 32.007812 42.417969 C 26.265625 42.417969 21.597656 37.746094 21.597656 32.007812 C 21.597656 26.265625 26.265625 21.597656 32.007812 21.597656 C 37.75 21.597656 42.421875 26.265625 42.421875 32.007812 C 42.421875 37.746094 37.75 42.417969 32.007812 42.417969 Z M 32.007812 18.929688 C 24.796875 18.929688 18.929688 24.796875 18.929688 32.007812 C 18.929688 39.21875 24.796875 45.085938 32.007812 45.085938 C 39.21875 45.085938 45.085938 39.21875 45.085938 32.007812 C 45.085938 24.796875 39.21875 18.929688 32.007812 18.929688 Z M 58.683594 37 L 53.980469 37 C 53.375 37 52.84375 37.402344 52.6875 37.988281 C 52.195312 39.84375 51.40625 41.191406 50.496094 42.746094 C 50.1875 43.273438 50.273438 43.9375 50.707031 44.367188 L 54.027344 47.667969 L 47.628906 54.027344 L 44.296875 50.714844 C 43.871094 50.289062 43.210938 50.203125 42.6875 50.507812 L 42.394531 50.675781 C 40.828125 51.585938 39.699219 52.238281 37.992188 52.6875 C 37.40625 52.84375 37 53.371094 37 53.976562 L 37 58.679688 L 27.015625 58.679688 L 27.015625 53.980469 C 27.015625 53.375 26.609375 52.847656 26.027344 52.691406 C 24.191406 52.203125 22.871094 51.476562 21.207031 50.5 C 20.683594 50.191406 20.015625 50.28125 19.585938 50.710938 L 16.292969 54.03125 L 9.941406 47.636719 L 13.25 44.304688 C 13.671875 43.878906 13.757812 43.21875 13.457031 42.699219 L 13.3125 42.449219 C 12.394531 40.863281 11.730469 39.714844 11.277344 37.992188 C 11.125 37.40625 10.59375 37 9.988281 37 L 5.332031 37 L 5.332031 27.015625 L 10.035156 27.015625 C 10.636719 27.015625 11.167969 26.609375 11.324219 26.023438 C 11.820312 24.15625 12.574219 22.777344 13.515625 21.171875 C 13.820312 20.648438 13.734375 19.980469 13.304688 19.554688 L 9.984375 16.246094 L 16.375 9.875 L 19.703125 13.191406 C 20.132812 13.617188 20.792969 13.703125 21.3125 13.402344 L 21.550781 13.265625 C 23.144531 12.339844 24.296875 11.671875 26.023438 11.21875 C 26.609375 11.0625 27.015625 10.53125 27.015625 9.925781 L 27.015625 5.332031 L 37 5.332031 L 37 10.011719 C 37 10.617188 37.402344 11.144531 37.988281 11.300781 C 39.679688 11.753906 40.8125 12.425781 42.378906 13.347656 L 42.609375 13.484375 C 43.136719 13.796875 43.804688 13.710938 44.234375 13.273438 L 47.484375 9.980469 L 53.757812 16.335938 L 50.480469 19.65625 C 50.058594 20.085938 49.976562 20.738281 50.273438 21.257812 C 51.210938 22.886719 51.949219 24.171875 52.429688 26.019531 C 52.585938 26.605469 53.113281 27.015625 53.722656 27.015625 L 58.683594 27.015625 Z M 58.847656 24.347656 L 54.71875 24.347656 C 54.277344 23.015625 53.71875 21.929688 53.089844 20.808594 L 55.769531 18.09375 C 56.722656 17.125 56.722656 15.550781 55.769531 14.582031 L 49.261719 7.984375 C 48.316406 7.023438 46.652344 7.023438 45.703125 7.984375 L 43.066406 10.660156 C 41.980469 10.027344 40.941406 9.46875 39.664062 9.027344 L 39.664062 5.167969 C 39.664062 3.789062 38.542969 2.667969 37.164062 2.667969 L 26.851562 2.667969 C 25.472656 2.667969 24.351562 3.789062 24.351562 5.167969 L 24.351562 8.9375 C 23.039062 9.378906 21.976562 9.945312 20.863281 10.582031 L 18.140625 7.871094 C 17.167969 6.898438 15.585938 6.902344 14.613281 7.871094 L 7.980469 14.476562 C 7.507812 14.945312 7.246094 15.574219 7.246094 16.242188 C 7.246094 16.914062 7.507812 17.542969 7.980469 18.015625 L 10.699219 20.722656 C 10.058594 21.859375 9.488281 22.996094 9.039062 24.347656 L 5.167969 24.347656 C 3.789062 24.347656 2.667969 25.472656 2.667969 26.847656 L 2.667969 37.164062 C 2.667969 38.542969 3.789062 39.664062 5.167969 39.664062 L 8.996094 39.664062 C 9.441406 40.976562 10.003906 42.035156 10.640625 43.148438 L 7.933594 45.875 C 6.96875 46.84375 6.96875 48.425781 7.933594 49.398438 L 14.515625 56.027344 C 14.988281 56.503906 15.617188 56.765625 16.289062 56.765625 L 16.292969 56.765625 C 16.960938 56.765625 17.59375 56.503906 18.066406 56.027344 L 20.757812 53.320312 C 21.914062 53.972656 23.023438 54.53125 24.351562 54.972656 L 24.351562 58.847656 C 24.351562 60.226562 25.472656 61.347656 26.851562 61.347656 L 37.164062 61.347656 C 38.542969 61.347656 39.664062 60.226562 39.664062 58.847656 L 39.664062 54.96875 C 40.976562 54.527344 42.03125 53.960938 43.140625 53.324219 L 45.867188 56.035156 C 46.835938 57.003906 48.417969 57 49.390625 56.035156 L 56.023438 49.441406 C 56.5 48.96875 56.765625 48.335938 56.765625 47.667969 C 56.765625 46.996094 56.5 46.367188 56.027344 45.894531 L 53.316406 43.203125 C 53.9375 42.113281 54.515625 41.003906 54.96875 39.664062 L 58.847656 39.664062 C 60.226562 39.664062 61.347656 38.542969 61.347656 37.164062 L 61.347656 26.847656 C 61.347656 25.472656 60.226562 24.347656 58.847656 24.347656 Z M 58.847656 24.347656 "/>
</svg>
