<?xml version="1.0" encoding="UTF-8"?>
<svg xmlns="http://www.w3.org/2000/svg" xmlns:xlink="http://www.w3.org/1999/xlink" width="64" height="64" viewBox="0 0 64 64">
<path fill-rule="evenodd" fill="rgb(13.725491%, 18.431373%, 23.921569%)" fill-opacity="1" d="M 31.480469 29.398438 C 36.667969 29.398438 41.582031 31.390625 45.320312 35.011719 L 43.460938 36.925781 C 40.226562 33.792969 35.96875 32.066406 31.480469 32.066406 C 26.742188 32.066406 22.164062 34.054688 18.910156 37.519531 L 16.964844 35.695312 C 20.71875 31.695312 26.007812 29.398438 31.480469 29.398438 M 31.480469 34.242188 C 35.578125 34.242188 39.414062 35.871094 42.277344 38.816406 L 40.363281 40.675781 C 38.007812 38.246094 34.851562 36.910156 31.480469 36.910156 C 27.964844 36.910156 24.601562 38.414062 22.25 41.039062 L 20.265625 39.261719 C 23.121094 36.074219 27.207031 34.242188 31.480469 34.242188 M 31.480469 39.089844 C 34.285156 39.089844 36.996094 40.261719 38.921875 42.316406 L 36.980469 44.140625 C 35.535156 42.601562 33.582031 41.753906 31.480469 41.753906 C 29.152344 41.753906 26.988281 42.808594 25.542969 44.648438 L 23.445312 43 C 25.398438 40.515625 28.328125 39.089844 31.480469 39.089844 M 56.511719 44.898438 C 53.984375 47.425781 50.042969 47.453125 49.988281 47.453125 L 43.628906 47.445312 L 12.039062 47.414062 C 11.226562 47.414062 10.429688 47.195312 9.742188 46.78125 C 7.730469 45.574219 5.332031 43.257812 5.332031 39.0625 C 5.332031 33.554688 9.339844 31.691406 11.804688 31.070312 C 11.832031 31.066406 11.855469 31.058594 11.882812 31.054688 C 12.550781 30.902344 12.996094 30.265625 12.90625 29.585938 C 12.84375 29.09375 12.816406 28.59375 12.816406 28.089844 C 12.816406 23.585938 16.089844 18.734375 20.273438 17.046875 C 27.5625 14.09375 32.726562 17.964844 34.605469 19.761719 C 36.132812 21.222656 37.324219 23.085938 38.144531 25.308594 C 38.3125 25.761719 38.714844 26.089844 39.191406 26.160156 C 39.683594 26.234375 40.15625 26.042969 40.449219 25.660156 C 41.621094 24.144531 43.527344 23.515625 45.308594 24.050781 C 47.367188 24.675781 48.675781 26.628906 48.910156 29.425781 C 48.828125 30.128906 49.316406 30.78125 50.019531 30.894531 C 50.722656 31.011719 52.566406 31.410156 54.527344 32.613281 C 58.269531 34.90625 58.699219 37.265625 58.699219 38.839844 C 58.699219 41.410156 57.964844 43.449219 56.511719 44.898438 M 55.921875 30.339844 C 54.566406 29.507812 53 28.855469 51.488281 28.480469 C 50.976562 24.960938 49 22.386719 46.082031 21.5 C 43.914062 20.847656 41.644531 21.261719 39.863281 22.550781 C 38.96875 20.730469 37.828125 19.152344 36.449219 17.835938 C 31.753906 13.347656 25.335938 12.125 19.273438 14.570312 C 14.070312 16.671875 10.148438 22.484375 10.148438 28.089844 C 10.148438 28.316406 10.152344 28.546875 10.164062 28.773438 C 7.28125 29.738281 2.667969 32.335938 2.667969 39.0625 C 2.667969 44.789062 6.238281 47.789062 8.371094 49.070312 C 9.472656 49.730469 10.738281 50.078125 12.035156 50.082031 L 49.976562 50.117188 L 49.996094 50.117188 C 50.371094 50.117188 55.109375 50.050781 58.378906 46.808594 C 60.359375 44.835938 61.367188 42.15625 61.367188 38.839844 C 61.367188 35.367188 59.585938 32.585938 55.921875 30.339844 "/>
</svg>
