<?xml version="1.0" encoding="UTF-8"?>
<svg xmlns="http://www.w3.org/2000/svg" xmlns:xlink="http://www.w3.org/1999/xlink" width="64" height="64" viewBox="0 0 64 64">
<path fill-rule="evenodd" fill="rgb(13.725491%, 18.431373%, 23.921569%)" fill-opacity="1" d="M 46.121094 39.71875 L 41.328125 44.507812 L 41.328125 29.011719 L 38.664062 29.011719 L 38.664062 44.359375 L 34.074219 39.699219 L 32.171875 41.570312 L 39.101562 48.605469 C 39.351562 48.859375 39.691406 49.003906 40.046875 49.003906 L 40.050781 49.003906 C 40.402344 49.003906 40.742188 48.863281 40.992188 48.613281 L 48.003906 41.605469 Z M 29.800781 36.964844 L 31.683594 35.082031 L 24.675781 28.070312 C 24.425781 27.820312 24.085938 27.679688 23.730469 27.679688 L 23.726562 27.679688 C 23.371094 27.679688 23.03125 27.824219 22.78125 28.078125 L 15.851562 35.113281 L 17.753906 36.984375 L 22.34375 32.324219 L 22.34375 50.074219 L 25.007812 50.074219 L 25.007812 32.175781 Z M 27.109375 50.097656 L 36.535156 50.105469 L 36.535156 47.4375 L 27.113281 47.429688 Z M 61.367188 38.839844 C 61.367188 42.15625 60.363281 44.835938 58.378906 46.808594 C 55.109375 50.054688 50.367188 50.121094 49.996094 50.121094 L 49.980469 50.121094 L 43.628906 50.113281 L 43.628906 47.445312 L 49.988281 47.453125 C 50.042969 47.453125 53.984375 47.425781 56.511719 44.902344 C 57.964844 43.449219 58.703125 41.414062 58.703125 38.839844 C 58.703125 37.265625 58.269531 34.90625 54.527344 32.613281 C 52.5625 31.410156 50.722656 31.011719 50.023438 30.898438 C 49.316406 30.78125 48.828125 30.132812 48.914062 29.425781 C 48.675781 26.632812 47.367188 24.679688 45.308594 24.054688 C 43.53125 23.515625 41.625 24.144531 40.449219 25.660156 C 40.15625 26.042969 39.683594 26.238281 39.195312 26.160156 C 38.714844 26.085938 38.316406 25.761719 38.148438 25.304688 C 37.324219 23.085938 36.132812 21.222656 34.605469 19.765625 C 32.726562 17.96875 27.566406 14.097656 20.273438 17.046875 C 16.09375 18.734375 12.816406 23.585938 12.816406 28.089844 C 12.816406 28.59375 12.847656 29.097656 12.910156 29.585938 C 12.992188 30.230469 12.59375 30.839844 11.976562 31.03125 C 11.925781 31.046875 11.871094 31.058594 11.820312 31.066406 C 9.359375 31.6875 5.332031 33.542969 5.332031 39.0625 C 5.332031 43.257812 7.730469 45.578125 9.742188 46.78125 C 10.429688 47.195312 11.226562 47.414062 12.039062 47.414062 L 20.242188 47.421875 L 20.238281 50.089844 L 12.039062 50.082031 C 10.738281 50.082031 9.472656 49.730469 8.371094 49.070312 C 6.242188 47.792969 2.667969 44.792969 2.667969 39.0625 C 2.667969 34.109375 5.445312 30.335938 10.164062 28.773438 C 10.152344 28.546875 10.148438 28.316406 10.148438 28.089844 C 10.148438 22.484375 14.070312 16.671875 19.273438 14.574219 C 25.335938 12.125 31.757812 13.347656 36.449219 17.835938 C 37.828125 19.152344 38.96875 20.734375 39.863281 22.550781 C 41.644531 21.261719 43.917969 20.851562 46.082031 21.5 C 49 22.386719 50.980469 24.964844 51.488281 28.480469 C 52.996094 28.855469 54.566406 29.511719 55.921875 30.339844 C 59.585938 32.585938 61.367188 35.367188 61.367188 38.839844 Z M 61.367188 38.839844 "/>
</svg>
