<?xml version="1.0" encoding="UTF-8"?>
<svg xmlns="http://www.w3.org/2000/svg" xmlns:xlink="http://www.w3.org/1999/xlink" width="64" height="64" viewBox="0 0 64 64">
<path fill-rule="evenodd" fill="rgb(13.725491%, 18.431373%, 23.921569%)" fill-opacity="1" d="M 17.332031 20 L 58.667969 20 L 58.667969 13.332031 L 17.332031 13.332031 Z M 46.667969 28 L 58.667969 28 L 58.667969 22.667969 L 46.667969 22.667969 Z M 46.667969 36 L 58.667969 36 L 58.667969 30.667969 L 46.667969 30.667969 Z M 46.667969 44 L 58.667969 44 L 58.667969 38.667969 L 46.667969 38.667969 Z M 46.667969 52 L 58.667969 52 L 58.667969 46.667969 L 46.667969 46.667969 Z M 17.332031 28 L 29.332031 28 L 29.332031 22.667969 L 17.332031 22.667969 Z M 32 28 L 44 28 L 44 22.667969 L 32 22.667969 Z M 32 36 L 44 36 L 44 30.667969 L 32 30.667969 Z M 32 44 L 44 44 L 44 38.667969 L 32 38.667969 Z M 32 52 L 44 52 L 44 46.667969 L 32 46.667969 Z M 17.332031 52 L 29.332031 52 L 29.332031 46.667969 L 17.332031 46.667969 Z M 17.332031 36 L 29.332031 36 L 29.332031 30.667969 L 17.332031 30.667969 Z M 17.332031 44 L 29.332031 44 L 29.332031 38.667969 L 17.332031 38.667969 Z M 5.332031 52 L 14.667969 52 L 14.667969 22.667969 L 5.332031 22.667969 Z M 5.332031 20 L 14.667969 20 L 14.667969 13.332031 L 5.332031 13.332031 Z M 60 10.667969 L 4 10.667969 C 3.261719 10.667969 2.667969 11.265625 2.667969 12 L 2.667969 53.332031 C 2.667969 54.070312 3.261719 54.667969 4 54.667969 L 60 54.667969 C 60.738281 54.667969 61.332031 54.070312 61.332031 53.332031 L 61.332031 12 C 61.332031 11.265625 60.738281 10.667969 60 10.667969 Z M 60 10.667969 "/>
</svg>
