<?xml version="1.0" encoding="UTF-8"?>
<svg xmlns="http://www.w3.org/2000/svg" xmlns:xlink="http://www.w3.org/1999/xlink" width="64" height="64" viewBox="0 0 64 64">
<path fill-rule="evenodd" fill="rgb(13.725491%, 18.431373%, 23.921569%)" fill-opacity="1" d="M 32.660156 46.667969 C 31.558594 46.667969 30.660156 47.5625 30.660156 48.667969 C 30.660156 49.769531 31.558594 50.667969 32.660156 50.667969 C 33.765625 50.667969 34.660156 49.769531 34.660156 48.667969 C 34.660156 47.5625 33.765625 46.667969 32.660156 46.667969 Z M 32.660156 53.332031 C 30.089844 53.332031 27.996094 51.238281 27.996094 48.667969 C 27.996094 46.09375 30.089844 44 32.660156 44 C 35.234375 44 37.328125 46.09375 37.328125 48.667969 C 37.328125 51.238281 35.234375 53.332031 32.660156 53.332031 Z M 31.910156 38.667969 L 33.414062 38.667969 L 34.570312 21.332031 L 30.753906 21.332031 Z M 34.660156 41.332031 L 30.660156 41.332031 C 29.960938 41.332031 29.378906 40.789062 29.332031 40.089844 L 27.996094 20.089844 C 27.972656 19.722656 28.101562 19.359375 28.355469 19.089844 C 28.605469 18.820312 28.960938 18.667969 29.328125 18.667969 L 35.996094 18.667969 C 36.363281 18.667969 36.714844 18.820312 36.96875 19.089844 C 37.21875 19.359375 37.351562 19.722656 37.324219 20.089844 L 35.992188 40.089844 C 35.945312 40.789062 35.363281 41.332031 34.660156 41.332031 Z M 18.769531 30.75 C 18.71875 30.863281 18.65625 30.980469 18.585938 31.109375 L 6.945312 51.117188 C 6.542969 51.796875 6.570312 52.660156 7.011719 53.433594 C 7.449219 54.207031 8.1875 54.667969 8.980469 54.667969 L 56.34375 54.667969 C 57.136719 54.667969 57.875 54.207031 58.3125 53.433594 C 58.753906 52.660156 58.777344 51.796875 58.382812 51.125 L 46.738281 31.109375 C 46.664062 30.980469 46.605469 30.863281 46.554688 30.75 L 46.535156 30.761719 L 34.695312 10.40625 C 34.300781 9.738281 33.539062 9.332031 32.660156 9.332031 C 31.785156 9.332031 31.023438 9.734375 30.625 10.410156 L 18.789062 30.761719 Z M 56.34375 57.332031 L 8.980469 57.332031 C 7.21875 57.332031 5.613281 56.371094 4.691406 54.753906 C 3.785156 53.164062 3.769531 51.253906 4.644531 49.769531 C 16.039062 30.179688 16.464844 29.449219 16.480469 29.421875 L 16.496094 29.433594 C 16.585938 29.242188 16.683594 29.070312 16.765625 28.929688 L 28.320312 9.0625 C 28.324219 9.0625 28.324219 9.058594 28.324219 9.058594 C 29.210938 7.558594 30.828125 6.667969 32.660156 6.667969 C 34.492188 6.667969 36.113281 7.558594 36.996094 9.058594 L 48.554688 28.929688 C 48.640625 29.070312 48.738281 29.242188 48.828125 29.433594 L 48.84375 29.421875 C 48.859375 29.449219 49.285156 30.179688 60.683594 49.777344 C 61.554688 51.253906 61.539062 53.164062 60.632812 54.753906 C 59.707031 56.371094 58.105469 57.332031 56.34375 57.332031 Z M 56.34375 57.332031 "/>
</svg>
