<?xml version="1.0" encoding="UTF-8"?>
<svg xmlns="http://www.w3.org/2000/svg" xmlns:xlink="http://www.w3.org/1999/xlink" width="64" height="64" viewBox="0 0 64 64">
<path fill-rule="evenodd" fill="rgb(13.725491%, 18.431373%, 23.921569%)" fill-opacity="1" d="M 32.148438 32.476562 C 33.074219 32.476562 33.828125 33.226562 33.828125 34.15625 C 33.828125 35.082031 33.074219 35.835938 32.148438 35.835938 C 31.222656 35.835938 30.464844 35.082031 30.464844 34.15625 C 30.464844 33.226562 31.222656 32.476562 32.148438 32.476562 Z M 30.816406 38.273438 L 30.816406 42.792969 L 33.480469 42.792969 L 33.480469 38.273438 C 35.222656 37.707031 36.496094 36.085938 36.496094 34.15625 C 36.496094 31.757812 34.546875 29.808594 32.148438 29.808594 C 29.75 29.808594 27.800781 31.757812 27.800781 34.15625 C 27.800781 36.085938 29.070312 37.707031 30.816406 38.273438 Z M 42.605469 44.675781 L 21.679688 44.667969 L 21.6875 27.816406 L 42.613281 27.824219 Z M 26.753906 21.082031 C 26.765625 18.175781 29.199219 15.820312 32.183594 15.820312 L 32.203125 15.820312 C 33.652344 15.824219 35.011719 16.386719 36.027344 17.398438 C 37.039062 18.402344 37.589844 19.730469 37.585938 21.148438 L 37.585938 25.15625 L 26.734375 25.152344 Z M 43.945312 25.160156 L 40.253906 25.15625 L 40.253906 21.152344 C 40.261719 19.023438 39.429688 17.019531 37.910156 15.507812 C 36.394531 13.996094 34.367188 13.160156 32.210938 13.15625 L 32.183594 13.15625 C 27.730469 13.15625 24.101562 16.703125 24.089844 21.070312 L 24.066406 25.148438 L 20.355469 25.148438 C 20.003906 25.148438 19.664062 25.289062 19.410156 25.539062 C 19.164062 25.789062 19.019531 26.125 19.019531 26.480469 L 19.015625 46 C 19.015625 46.734375 19.613281 47.332031 20.347656 47.332031 L 43.9375 47.34375 C 44.289062 47.34375 44.628906 47.203125 44.882812 46.953125 C 45.128906 46.703125 45.273438 46.363281 45.273438 46.007812 L 45.28125 26.492188 C 45.28125 25.757812 44.683594 25.160156 43.945312 25.160156 Z M 45.644531 52.878906 C 39.386719 54.003906 34.113281 57.300781 32.148438 58.65625 C 30.183594 57.300781 24.90625 54.003906 18.652344 52.878906 C 15.527344 52.316406 5.332031 49.824219 5.332031 41.304688 C 5.332031 37.746094 6.679688 35.425781 8.105469 32.96875 C 9.441406 30.667969 10.824219 28.285156 10.824219 25.023438 C 10.824219 20.109375 8.105469 16.578125 6.589844 14.996094 C 8.136719 13.113281 11.550781 8.949219 13.421875 6.558594 C 16.265625 9.15625 19.546875 10.566406 22.796875 10.566406 C 26.417969 10.566406 29.421875 9.136719 32.148438 6.09375 C 34.871094 9.136719 37.878906 10.566406 41.5 10.566406 C 44.75 10.566406 48.03125 9.15625 50.875 6.558594 C 52.742188 8.949219 56.15625 13.113281 57.703125 14.996094 C 56.191406 16.578125 53.46875 20.109375 53.46875 25.023438 C 53.46875 28.285156 54.851562 30.667969 56.1875 32.96875 C 57.617188 35.425781 58.960938 37.746094 58.960938 41.304688 C 58.960938 49.828125 48.769531 52.316406 45.644531 52.878906 Z M 58.496094 31.632812 C 57.230469 29.449219 56.136719 27.566406 56.136719 25.023438 C 56.136719 19.660156 60.324219 16.175781 60.363281 16.144531 C 60.636719 15.921875 60.8125 15.59375 60.847656 15.238281 C 60.886719 14.886719 60.777344 14.53125 60.550781 14.257812 C 60.484375 14.171875 53.652344 5.898438 52.09375 3.761719 C 51.859375 3.441406 51.496094 3.238281 51.097656 3.214844 C 50.726562 3.199219 50.3125 3.34375 50.042969 3.636719 C 47.46875 6.386719 44.4375 7.898438 41.5 7.898438 C 38.257812 7.898438 35.699219 6.445312 33.207031 3.1875 C 32.953125 2.859375 32.5625 2.667969 32.148438 2.667969 C 31.730469 2.667969 31.34375 2.859375 31.089844 3.1875 C 28.597656 6.445312 26.039062 7.898438 22.796875 7.898438 C 19.859375 7.898438 16.824219 6.386719 14.253906 3.636719 C 13.980469 3.34375 13.597656 3.183594 13.199219 3.214844 C 12.800781 3.238281 12.4375 3.441406 12.203125 3.761719 C 10.640625 5.898438 3.8125 14.171875 3.742188 14.257812 C 3.515625 14.53125 3.410156 14.886719 3.445312 15.238281 C 3.480469 15.589844 3.65625 15.914062 3.929688 16.140625 C 3.972656 16.175781 8.160156 19.660156 8.160156 25.023438 C 8.160156 27.566406 7.066406 29.449219 5.796875 31.632812 C 4.332031 34.160156 2.667969 37.027344 2.667969 41.304688 C 2.667969 48.449219 8.464844 53.761719 18.179688 55.503906 C 25.308594 56.78125 31.277344 61.308594 31.335938 61.351562 C 31.574219 61.539062 31.863281 61.628906 32.148438 61.628906 C 32.433594 61.628906 32.722656 61.539062 32.957031 61.351562 C 33.019531 61.308594 38.988281 56.78125 46.113281 55.503906 C 55.828125 53.761719 61.628906 48.449219 61.628906 41.304688 C 61.628906 37.027344 59.964844 34.160156 58.496094 31.632812 Z M 58.496094 31.632812 "/>
</svg>
