<?xml version="1.0" encoding="UTF-8"?>
<svg xmlns="http://www.w3.org/2000/svg" xmlns:xlink="http://www.w3.org/1999/xlink" width="64" height="64" viewBox="0 0 64 64">
<path fill-rule="evenodd" fill="rgb(13.725491%, 18.431373%, 23.921569%)" fill-opacity="1" d="M 56 50.625 C 56 48.234375 54.722656 46.011719 52.667969 44.828125 C 52.253906 44.589844 52 44.148438 52 43.671875 L 52 10.625 C 52 9.15625 50.804688 7.960938 49.332031 7.960938 C 47.863281 7.960938 46.667969 9.15625 46.667969 10.625 L 46.667969 43.695312 C 46.667969 44.171875 46.414062 44.609375 46 44.851562 C 43.945312 46.039062 42.667969 48.253906 42.667969 50.625 C 42.667969 54.300781 45.65625 57.292969 49.332031 57.292969 C 53.007812 57.292969 56 54.300781 56 50.625 M 58.667969 50.625 C 58.667969 55.773438 54.480469 59.960938 49.332031 59.960938 C 44.1875 59.960938 40 55.773438 40 50.625 C 40 47.570312 41.515625 44.703125 44 42.964844 L 44 10.625 C 44 7.683594 46.390625 5.292969 49.332031 5.292969 C 52.273438 5.292969 54.667969 7.683594 54.667969 10.625 L 54.667969 42.941406 C 57.152344 44.671875 58.667969 47.550781 58.667969 50.625 M 52 50.625 C 52 49.15625 50.804688 47.960938 49.332031 47.960938 C 47.863281 47.960938 46.667969 49.15625 46.667969 50.625 C 46.667969 52.097656 47.863281 53.292969 49.332031 53.292969 C 50.804688 53.292969 52 52.097656 52 50.625 M 54.667969 50.625 C 54.667969 53.566406 52.273438 55.960938 49.332031 55.960938 C 46.390625 55.960938 44 53.566406 44 50.625 C 44 48.148438 45.707031 46.078125 48 45.480469 L 48 34.625 L 50.667969 34.625 L 50.667969 45.480469 C 52.960938 46.078125 54.667969 48.148438 54.667969 50.625 M 38.324219 56.113281 L 39.476562 58.519531 C 35.851562 60.257812 30.273438 61.253906 24.179688 61.253906 C 12.90625 61.253906 5.332031 57.980469 5.332031 53.109375 L 5.332031 10.625 L 5.363281 10.625 C 5.660156 5.855469 13.316406 2.664062 24.632812 2.664062 C 30.992188 2.664062 36.777344 3.71875 40.511719 5.554688 L 39.332031 7.949219 C 36.003906 6.3125 30.511719 5.332031 24.632812 5.332031 C 14.359375 5.332031 8 8.226562 8 10.910156 C 8 13.59375 14.359375 16.488281 24.632812 16.488281 C 30.5625 16.488281 36.085938 15.496094 39.410156 13.835938 L 40.601562 16.21875 C 36.871094 18.085938 31.050781 19.15625 24.632812 19.15625 C 17.105469 19.15625 11.207031 17.742188 8 15.390625 L 8 25.71875 C 8 28.402344 14.359375 31.300781 24.632812 31.300781 C 30.539062 31.300781 36.046875 30.320312 39.359375 28.683594 L 40.542969 31.074219 C 36.824219 32.914062 31.023438 33.964844 24.632812 33.964844 C 17.105469 33.964844 11.207031 32.550781 8 30.203125 L 8 39.582031 C 8 42.304688 14.222656 45.121094 24.632812 45.121094 C 29.785156 45.121094 34.671875 44.386719 38.03125 43.101562 L 38.984375 45.597656 C 35.273438 47.007812 30.179688 47.789062 24.632812 47.789062 C 17.105469 47.789062 11.207031 46.378906 8 44.042969 L 8 53.109375 C 8 55.800781 14.050781 58.585938 24.179688 58.585938 C 29.890625 58.585938 35.046875 57.683594 38.324219 56.113281 "/>
</svg>
