<?xml version="1.0" encoding="UTF-8"?>
<svg xmlns="http://www.w3.org/2000/svg" xmlns:xlink="http://www.w3.org/1999/xlink" width="64" height="64" viewBox="0 0 64 64">
<path fill-rule="evenodd" fill="rgb(13.725491%, 18.431373%, 23.921569%)" fill-opacity="1" d="M 17.332031 24 L 32 24 L 32 21.332031 L 17.332031 21.332031 Z M 17.332031 14.667969 L 46.667969 14.667969 L 46.667969 12 L 17.332031 12 Z M 40.109375 50.042969 C 39.035156 50.4375 37.878906 50.667969 36.667969 50.667969 C 35.539062 50.667969 34.457031 50.46875 33.445312 50.125 L 33.445312 57.121094 L 36.136719 54.835938 C 36.652344 54.398438 37.414062 54.414062 37.910156 54.878906 L 40.109375 56.933594 Z M 36.667969 48 C 40.710938 48 44 44.710938 44 40.667969 C 44 36.621094 40.710938 33.332031 36.667969 33.332031 C 32.625 33.332031 29.332031 36.621094 29.332031 40.667969 C 29.332031 44.710938 32.625 48 36.667969 48 Z M 42.777344 48.566406 L 42.777344 60 C 42.777344 60.53125 42.460938 61.011719 41.976562 61.222656 C 41.804688 61.296875 41.625 61.332031 41.445312 61.332031 C 41.113281 61.332031 40.785156 61.210938 40.535156 60.976562 L 36.957031 57.636719 L 32.972656 61.015625 C 32.578125 61.351562 32.019531 61.429688 31.550781 61.210938 C 31.078125 60.992188 30.777344 60.519531 30.777344 60 L 30.777344 48.730469 C 28.289062 46.910156 26.667969 43.976562 26.667969 40.667969 C 26.667969 35.152344 31.152344 30.667969 36.667969 30.667969 C 42.179688 30.667969 46.667969 35.152344 46.667969 40.667969 C 46.667969 43.878906 45.136719 46.734375 42.777344 48.566406 Z M 53.332031 4 L 53.332031 53.332031 C 53.332031 54.070312 52.738281 54.667969 52 54.667969 L 45.332031 54.667969 L 45.332031 52 L 50.667969 52 L 50.667969 5.332031 L 13.332031 5.332031 L 13.332031 52 L 28 52 L 28 54.667969 L 12 54.667969 C 11.261719 54.667969 10.667969 54.070312 10.667969 53.332031 L 10.667969 4 C 10.667969 3.265625 11.261719 2.667969 12 2.667969 L 52 2.667969 C 52.738281 2.667969 53.332031 3.265625 53.332031 4 Z M 53.332031 4 "/>
</svg>
