<?xml version="1.0" encoding="UTF-8"?>
<svg xmlns="http://www.w3.org/2000/svg" xmlns:xlink="http://www.w3.org/1999/xlink" width="64" height="64" viewBox="0 0 64 64">
<path fill-rule="evenodd" fill="rgb(13.725491%, 18.431373%, 23.921569%)" fill-opacity="1" d="M 31.847656 32.765625 C 31.429688 33.179688 31.335938 33.816406 31.613281 34.335938 C 33.039062 36.996094 32.585938 40.191406 30.488281 42.289062 C 27.855469 44.917969 23.574219 44.917969 20.941406 42.289062 C 19.667969 41.011719 18.964844 39.316406 18.964844 37.515625 C 18.964844 35.710938 19.667969 34.015625 20.941406 32.742188 C 22.226562 31.460938 23.917969 30.792969 25.648438 30.792969 C 26.746094 30.792969 27.863281 31.0625 28.894531 31.617188 C 29.414062 31.890625 30.050781 31.796875 30.46875 31.382812 L 32.230469 29.617188 C 32.492188 29.355469 32.632812 29 32.621094 28.628906 L 32.5625 26.96875 L 34.226562 27.027344 C 34.585938 27.054688 34.953125 26.898438 35.210938 26.636719 L 36.207031 25.644531 C 36.46875 25.382812 36.609375 25.023438 36.597656 24.65625 L 36.539062 22.992188 L 38.199219 23.050781 C 38.546875 23.0625 38.925781 22.921875 39.1875 22.660156 L 40.34375 21.507812 L 42.089844 21.335938 L 42.140625 22.46875 Z M 44.230469 18.863281 C 43.953125 18.625 43.589844 18.511719 43.226562 18.546875 L 39.605469 18.902344 C 39.300781 18.929688 39.011719 19.066406 38.792969 19.285156 L 37.710938 20.367188 L 35.203125 20.28125 C 34.863281 20.238281 34.476562 20.40625 34.214844 20.667969 C 33.953125 20.929688 33.8125 21.289062 33.824219 21.65625 L 33.910156 24.167969 L 33.738281 24.339844 L 31.226562 24.257812 C 30.839844 24.230469 30.5 24.382812 30.238281 24.644531 C 29.976562 24.90625 29.835938 25.265625 29.851562 25.632812 L 29.933594 28.144531 L 29.242188 28.835938 C 25.738281 27.402344 21.753906 28.160156 19.058594 30.859375 C 17.277344 32.632812 16.300781 35 16.300781 37.515625 C 16.300781 40.03125 17.277344 42.394531 19.058594 44.171875 C 20.894531 46.007812 23.304688 46.925781 25.714844 46.925781 C 28.125 46.925781 30.539062 46.007812 32.375 44.171875 C 35.070312 41.476562 35.828125 37.492188 34.394531 33.988281 L 44.441406 23.941406 C 44.707031 23.675781 44.847656 23.3125 44.832031 22.9375 L 44.691406 19.8125 C 44.671875 19.445312 44.507812 19.105469 44.230469 18.863281 Z M 24.769531 40.050781 C 24.332031 40.492188 23.621094 40.492188 23.179688 40.050781 C 22.742188 39.613281 22.738281 38.898438 23.179688 38.457031 C 23.398438 38.238281 23.6875 38.128906 23.976562 38.128906 C 24.265625 38.128906 24.550781 38.238281 24.769531 38.457031 C 25.210938 38.898438 25.210938 39.613281 24.769531 40.050781 Z M 21.292969 36.570312 C 19.816406 38.050781 19.816406 40.457031 21.292969 41.9375 C 22.035156 42.675781 23.003906 43.046875 23.976562 43.046875 C 24.945312 43.046875 25.917969 42.675781 26.65625 41.9375 C 28.136719 40.457031 28.136719 38.050781 26.65625 36.570312 C 25.222656 35.140625 22.726562 35.144531 21.292969 36.570312 Z M 51.386719 15.765625 C 50.464844 16.6875 48.964844 16.6875 48.039062 15.765625 C 47.59375 15.320312 47.351562 14.726562 47.351562 14.089844 C 47.351562 13.457031 47.597656 12.859375 48.042969 12.417969 C 48.484375 11.972656 49.082031 11.730469 49.714844 11.730469 C 50.351562 11.730469 50.945312 11.976562 51.386719 12.417969 C 51.832031 12.863281 52.078125 13.457031 52.078125 14.09375 C 52.078125 14.730469 51.832031 15.324219 51.386719 15.765625 Z M 46.15625 10.53125 C 45.207031 11.476562 44.6875 12.738281 44.683594 14.089844 C 44.683594 15.4375 45.207031 16.699219 46.152344 17.648438 C 47.132812 18.628906 48.421875 19.125 49.710938 19.125 C 51 19.125 52.289062 18.632812 53.269531 17.65625 C 55.234375 15.695312 55.238281 12.5 53.277344 10.535156 C 51.316406 8.570312 48.121094 8.570312 46.15625 10.53125 Z M 27.007812 58.097656 L 5.882812 36.941406 L 37.519531 5.359375 L 57.695312 6.335938 L 58.640625 26.515625 Z M 60.304688 5 C 60.269531 4.316406 59.722656 3.765625 59.035156 3.730469 L 37.058594 2.667969 C 36.652344 2.652344 36.316406 2.792969 36.050781 3.054688 L 3.058594 35.996094 C 2.535156 36.515625 2.535156 37.359375 3.054688 37.882812 L 26.0625 60.925781 C 26.3125 61.175781 26.652344 61.316406 27.003906 61.316406 C 27.359375 61.316406 27.699219 61.175781 27.945312 60.929688 L 60.941406 27.988281 C 61.207031 27.722656 61.347656 27.355469 61.332031 26.980469 Z M 60.304688 5 "/>
</svg>
