<?xml version="1.0" encoding="UTF-8"?>
<svg xmlns="http://www.w3.org/2000/svg" xmlns:xlink="http://www.w3.org/1999/xlink" width="64" height="64" viewBox="0 0 64 64">
<path fill-rule="evenodd" fill="rgb(13.725491%, 18.431373%, 23.921569%)" fill-opacity="1" d="M 33.332031 30.015625 C 33.332031 30.753906 32.734375 31.347656 32 31.347656 C 31.265625 31.347656 30.667969 30.753906 30.667969 30.015625 C 30.667969 29.28125 31.265625 28.683594 32 28.683594 C 32.734375 28.683594 33.332031 29.28125 33.332031 30.015625 Z M 33.257812 37.238281 L 31.925781 41.011719 C 31.734375 41.558594 31.21875 41.902344 30.667969 41.902344 C 30.523438 41.902344 30.371094 41.878906 30.226562 41.824219 C 29.53125 41.582031 29.167969 40.820312 29.410156 40.125 L 30.742188 36.351562 C 30.988281 35.660156 31.746094 35.292969 32.445312 35.539062 C 33.136719 35.785156 33.503906 36.546875 33.257812 37.238281 Z M 43.40625 34.441406 L 43.796875 34.441406 L 43.796875 36.496094 L 43.40625 36.496094 C 42.980469 36.496094 42.675781 36.585938 42.492188 36.765625 C 42.304688 36.945312 42.210938 37.242188 42.210938 37.652344 L 42.210938 40.433594 C 42.210938 41.542969 41.910156 42.414062 41.316406 43.046875 C 40.71875 43.683594 39.902344 44 38.871094 44 C 38.210938 44 37.648438 43.894531 37.1875 43.683594 L 37.1875 41.851562 C 37.5625 41.914062 37.9375 41.945312 38.308594 41.945312 C 39.042969 41.945312 39.410156 41.53125 39.410156 40.695312 L 39.410156 37.710938 C 39.410156 37.085938 39.558594 36.601562 39.847656 36.253906 C 40.140625 35.90625 40.617188 35.644531 41.277344 35.46875 C 40.617188 35.292969 40.140625 35.035156 39.847656 34.683594 C 39.558594 34.335938 39.410156 33.851562 39.410156 33.230469 L 39.410156 30.242188 C 39.410156 29.40625 39.042969 28.992188 38.308594 28.992188 C 37.9375 28.992188 37.5625 29.023438 37.1875 29.085938 L 37.1875 27.257812 C 37.648438 27.042969 38.210938 26.9375 38.871094 26.9375 C 39.902344 26.9375 40.71875 27.257812 41.316406 27.890625 C 41.910156 28.523438 42.210938 29.394531 42.210938 30.503906 L 42.210938 33.285156 C 42.210938 33.695312 42.304688 33.992188 42.492188 34.171875 C 42.675781 34.351562 42.980469 34.441406 43.40625 34.441406 Z M 25.128906 26.9375 C 25.789062 26.9375 26.351562 27.042969 26.8125 27.257812 L 26.8125 29.085938 C 26.4375 29.023438 26.0625 28.992188 25.691406 28.992188 C 24.957031 28.992188 24.589844 29.40625 24.589844 30.242188 L 24.589844 33.230469 C 24.589844 33.839844 24.441406 34.320312 24.152344 34.675781 C 23.859375 35.03125 23.382812 35.292969 22.722656 35.46875 C 23.382812 35.644531 23.859375 35.90625 24.152344 36.261719 C 24.441406 36.617188 24.589844 37.097656 24.589844 37.710938 L 24.589844 40.695312 C 24.589844 41.53125 24.957031 41.945312 25.691406 41.945312 C 26.0625 41.945312 26.4375 41.914062 26.8125 41.851562 L 26.8125 43.683594 C 26.351562 43.894531 25.789062 44 25.128906 44 C 24.097656 44 23.28125 43.683594 22.683594 43.046875 C 22.089844 42.414062 21.789062 41.542969 21.789062 40.433594 L 21.789062 37.652344 C 21.789062 37.242188 21.695312 36.945312 21.507812 36.765625 C 21.324219 36.585938 21.019531 36.496094 20.59375 36.496094 L 20.203125 36.496094 L 20.203125 34.441406 L 20.59375 34.441406 C 21.019531 34.441406 21.324219 34.351562 21.507812 34.171875 C 21.695312 33.992188 21.789062 33.695312 21.789062 33.285156 L 21.789062 30.503906 C 21.789062 29.394531 22.089844 28.523438 22.683594 27.890625 C 23.28125 27.257812 24.097656 26.9375 25.128906 26.9375 Z M 13.332031 58.667969 L 13.34375 5.332031 L 37.332031 5.332031 L 37.332031 17.332031 C 37.332031 18.070312 37.929688 18.667969 38.667969 18.667969 L 50.667969 18.667969 L 50.667969 58.667969 Z M 40 7.21875 L 48.78125 16 L 40 16 Z M 52.941406 16.390625 L 39.609375 3.058594 C 39.359375 2.808594 39.019531 2.667969 38.667969 2.667969 L 13.332031 2.667969 C 11.761719 2.667969 10.667969 3.761719 10.667969 5.332031 L 10.667969 58.667969 C 10.667969 60.1875 11.8125 61.332031 13.332031 61.332031 L 50.667969 61.332031 C 52.1875 61.332031 53.332031 60.1875 53.332031 58.667969 L 53.332031 17.332031 C 53.332031 16.980469 53.191406 16.640625 52.941406 16.390625 Z M 52.941406 16.390625 "/>
</svg>
