<?xml version="1.0" encoding="UTF-8"?>
<svg xmlns="http://www.w3.org/2000/svg" xmlns:xlink="http://www.w3.org/1999/xlink" width="64" height="64" viewBox="0 0 64 64">
<path fill-rule="evenodd" fill="rgb(13.725491%, 18.431373%, 23.921569%)" fill-opacity="1" d="M 26.136719 8.144531 C 26.363281 8.144531 26.546875 8.328125 26.546875 8.554688 C 26.546875 8.78125 26.363281 8.964844 26.136719 8.964844 C 25.910156 8.964844 25.726562 8.78125 25.726562 8.554688 C 25.726562 8.328125 25.910156 8.144531 26.136719 8.144531 Z M 26.136719 10.964844 C 27.464844 10.964844 28.546875 9.882812 28.546875 8.554688 C 28.546875 7.226562 27.464844 6.144531 26.136719 6.144531 C 24.808594 6.144531 23.726562 7.226562 23.726562 8.554688 C 23.726562 9.882812 24.808594 10.964844 26.136719 10.964844 Z M 30.683594 9.867188 L 37.832031 9.867188 L 37.832031 7.203125 L 30.683594 7.203125 Z M 42.898438 58.433594 L 21.082031 58.433594 C 19.75 58.433594 18.667969 57.371094 18.667969 56.066406 L 18.667969 54.1875 L 45.316406 54.1875 L 45.316406 56.066406 C 45.316406 57.371094 44.230469 58.433594 42.898438 58.433594 Z M 18.667969 14.402344 L 45.316406 14.402344 L 45.316406 51.519531 L 18.667969 51.519531 Z M 22.195312 5.332031 L 41.785156 5.332031 C 43.730469 5.332031 45.316406 6.890625 45.316406 8.800781 L 45.316406 11.734375 L 18.667969 11.734375 L 18.667969 8.800781 C 18.667969 6.890625 20.25 5.332031 22.195312 5.332031 Z M 41.804688 2.667969 L 22.195312 2.667969 C 18.777344 2.667969 16 5.417969 16 8.800781 L 16 56.066406 C 16 58.84375 18.28125 61.101562 21.082031 61.101562 L 42.898438 61.101562 C 45.703125 61.101562 47.980469 58.84375 47.980469 56.066406 L 47.980469 8.796875 C 47.980469 5.421875 45.214844 2.675781 41.804688 2.667969 Z M 41.804688 2.667969 "/>
</svg>
