<?xml version="1.0" encoding="UTF-8"?>
<svg xmlns="http://www.w3.org/2000/svg" xmlns:xlink="http://www.w3.org/1999/xlink" width="64" height="64" viewBox="0 0 64 64">
<path fill-rule="evenodd" fill="rgb(14.117648%, 18.431373%, 24.313726%)" fill-opacity="1" d="M 38.183594 12.382812 C 38.183594 8.496094 41.402344 5.332031 45.359375 5.332031 C 49.3125 5.332031 52.53125 8.496094 52.53125 12.382812 C 52.53125 16.269531 49.3125 19.429688 45.359375 19.429688 C 41.402344 19.429688 38.183594 16.269531 38.183594 12.382812 Z M 53.550781 21.777344 C 52.6875 21.242188 51.777344 20.800781 50.835938 20.445312 C 53.464844 18.699219 55.195312 15.734375 55.195312 12.382812 C 55.195312 7.023438 50.78125 2.667969 45.359375 2.667969 C 39.933594 2.667969 35.519531 7.023438 35.519531 12.382812 C 35.519531 15.726562 37.242188 18.683594 39.859375 20.433594 C 38.152344 21.078125 36.546875 22.019531 35.132812 23.234375 L 36.871094 25.257812 C 39.246094 23.21875 42.253906 22.097656 45.332031 22.097656 C 47.734375 22.097656 50.09375 22.769531 52.144531 24.042969 C 55.796875 26.3125 58.195312 30.300781 58.605469 34.667969 L 45.332031 34.667969 L 45.332031 37.332031 L 60 37.332031 C 60.738281 37.332031 61.332031 36.738281 61.332031 36 C 61.332031 30.210938 58.351562 24.761719 53.550781 21.777344 Z M 11.519531 12.382812 C 11.519531 8.496094 14.734375 5.332031 18.691406 5.332031 C 22.648438 5.332031 25.863281 8.496094 25.863281 12.382812 C 25.863281 16.269531 22.648438 19.429688 18.691406 19.429688 C 14.734375 19.429688 11.519531 16.269531 11.519531 12.382812 Z M 18.667969 34.667969 L 5.394531 34.667969 C 6.039062 27.621094 11.746094 22.097656 18.667969 22.097656 C 21.070312 22.097656 23.425781 22.769531 25.480469 24.042969 C 26.054688 24.402344 26.609375 24.8125 27.132812 25.257812 L 28.871094 23.234375 C 28.246094 22.699219 27.578125 22.210938 26.882812 21.777344 C 26.019531 21.242188 25.109375 20.800781 24.171875 20.445312 C 26.796875 18.699219 28.53125 15.734375 28.53125 12.382812 C 28.53125 7.023438 24.117188 2.667969 18.691406 2.667969 C 13.265625 2.667969 8.851562 7.023438 8.851562 12.382812 C 8.851562 15.734375 10.582031 18.699219 13.210938 20.441406 C 7.070312 22.761719 2.667969 28.851562 2.667969 36 C 2.667969 36.738281 3.265625 37.332031 4 37.332031 L 18.667969 37.332031 Z M 18.726562 58.667969 C 19.375 51.621094 25.078125 46.097656 32 46.097656 C 34.402344 46.097656 36.757812 46.769531 38.8125 48.042969 C 42.464844 50.3125 44.863281 54.300781 45.269531 58.667969 Z M 24.851562 36.382812 C 24.851562 32.496094 28.070312 29.332031 32.023438 29.332031 C 35.980469 29.332031 39.195312 32.496094 39.195312 36.382812 C 39.195312 40.269531 35.980469 43.429688 32.023438 43.429688 C 28.070312 43.429688 24.851562 40.269531 24.851562 36.382812 Z M 40.21875 45.777344 C 39.355469 45.242188 38.445312 44.800781 37.503906 44.445312 C 40.128906 42.699219 41.863281 39.734375 41.863281 36.382812 C 41.863281 31.023438 37.449219 26.667969 32.023438 26.667969 C 26.601562 26.667969 22.183594 31.023438 22.183594 36.382812 C 22.183594 39.734375 23.914062 42.699219 26.542969 44.441406 C 20.402344 46.761719 16 52.851562 16 60 C 16 60.738281 16.597656 61.332031 17.332031 61.332031 L 46.667969 61.332031 C 47.402344 61.332031 48 60.738281 48 60 C 48 54.210938 45.019531 48.761719 40.21875 45.777344 Z M 40.21875 45.777344 "/>
</svg>
