<?xml version="1.0" encoding="UTF-8"?>
<svg xmlns="http://www.w3.org/2000/svg" xmlns:xlink="http://www.w3.org/1999/xlink" width="64" height="64" viewBox="0 0 64 64">
<path fill-rule="evenodd" fill="rgb(13.725491%, 18.431373%, 23.921569%)" fill-opacity="1" d="M 41.328125 56.308594 L 41.328125 19.679688 L 38.664062 19.679688 L 38.664062 56.164062 L 34.074219 51.5 L 32.171875 53.371094 L 39.101562 60.410156 C 39.351562 60.664062 39.691406 60.804688 40.046875 60.808594 L 40.050781 60.808594 C 40.402344 60.808594 40.742188 60.667969 40.992188 60.417969 L 48.003906 53.40625 L 46.121094 51.519531 Z M 29.800781 27.632812 L 31.683594 25.746094 L 24.675781 18.734375 C 24.421875 18.484375 24.023438 18.328125 23.726562 18.34375 C 23.371094 18.347656 23.03125 18.488281 22.78125 18.742188 L 15.851562 25.78125 L 17.753906 27.652344 L 22.34375 22.992188 L 22.34375 40.738281 L 25.007812 40.738281 L 25.007812 22.839844 Z M 36.535156 38.109375 L 27.113281 38.097656 L 27.109375 40.765625 L 36.53125 40.773438 Z M 61.367188 29.507812 C 61.367188 32.824219 60.359375 35.503906 58.378906 37.472656 C 55.109375 40.722656 50.371094 40.785156 49.996094 40.785156 L 49.976562 40.785156 L 43.628906 40.78125 L 43.628906 38.113281 L 49.988281 38.121094 C 50.039062 38.121094 53.984375 38.09375 56.511719 35.566406 C 57.964844 34.117188 58.699219 32.078125 58.699219 29.507812 C 58.699219 27.933594 58.269531 25.574219 54.527344 23.28125 C 52.566406 22.078125 50.722656 21.679688 50.019531 21.5625 C 49.316406 21.449219 48.828125 20.796875 48.910156 20.09375 C 48.675781 17.296875 47.367188 15.34375 45.308594 14.722656 C 43.527344 14.179688 41.625 14.8125 40.449219 16.328125 C 40.15625 16.710938 39.683594 16.90625 39.191406 16.828125 C 38.714844 16.753906 38.3125 16.429688 38.144531 15.972656 C 37.324219 13.753906 36.132812 11.890625 34.605469 10.429688 C 32.726562 8.632812 27.570312 4.761719 20.273438 7.714844 C 16.089844 9.402344 12.816406 14.25 12.816406 18.757812 C 12.816406 19.257812 12.847656 19.761719 12.910156 20.253906 C 12.996094 20.933594 12.550781 21.570312 11.882812 21.722656 C 11.855469 21.726562 11.832031 21.734375 11.804688 21.738281 C 9.34375 22.359375 5.332031 24.222656 5.332031 29.730469 C 5.332031 33.921875 7.730469 36.242188 9.742188 37.449219 C 10.429688 37.863281 11.226562 38.082031 12.039062 38.082031 L 20.242188 38.089844 L 20.238281 40.757812 L 12.035156 40.75 C 10.742188 40.746094 9.472656 40.398438 8.371094 39.738281 C 6.242188 38.457031 2.667969 35.457031 2.667969 29.730469 C 2.667969 23.003906 7.28125 20.40625 10.164062 19.445312 C 10.152344 19.214844 10.148438 18.984375 10.148438 18.757812 C 10.148438 13.152344 14.070312 7.339844 19.273438 5.238281 C 25.335938 2.792969 31.753906 4.011719 36.449219 8.503906 C 37.828125 9.820312 38.96875 11.402344 39.863281 13.21875 C 41.644531 11.929688 43.914062 11.515625 46.082031 12.167969 C 49 13.054688 50.976562 15.628906 51.488281 19.148438 C 53 19.523438 54.570312 20.175781 55.921875 21.007812 C 59.585938 23.253906 61.367188 26.035156 61.367188 29.507812 Z M 61.367188 29.507812 "/>
</svg>
