<?xml version="1.0" encoding="UTF-8"?>
<svg xmlns="http://www.w3.org/2000/svg" xmlns:xlink="http://www.w3.org/1999/xlink" width="64" height="64" viewBox="0 0 64 64">
<path fill-rule="evenodd" fill="rgb(13.725491%, 18.431373%, 23.921569%)" fill-opacity="1" d="M 61.332031 18.667969 L 61.332031 57.332031 C 61.332031 58.070312 60.738281 58.667969 60 58.667969 L 13.332031 58.667969 C 12.597656 58.667969 12 58.070312 12 57.332031 L 12 53.335938 L 14.667969 53.335938 L 14.667969 56 L 58.667969 56 L 58.667969 20 L 56.003906 20 L 56.003906 17.332031 L 60 17.332031 C 60.738281 17.332031 61.332031 17.929688 61.332031 18.667969 Z M 5.332031 48 L 50.667969 48 L 50.667969 18.667969 L 5.332031 18.667969 Z M 19.449219 8 L 23.058594 11.609375 C 23.308594 11.863281 23.648438 12 24 12 L 50.667969 12 L 50.667969 16 L 5.332031 16 L 5.332031 8 Z M 53.335938 10.667969 C 53.335938 9.933594 52.738281 9.335938 52 9.335938 L 24.554688 9.335938 L 20.941406 5.722656 C 20.691406 5.472656 20.355469 5.332031 20 5.332031 L 4 5.332031 C 3.261719 5.332031 2.667969 5.929688 2.667969 6.667969 L 2.667969 49.332031 C 2.667969 50.070312 3.261719 50.667969 4 50.667969 L 52 50.667969 C 52.738281 50.667969 53.335938 50.070312 53.335938 49.332031 Z M 53.335938 10.667969 "/>
</svg>
