<?xml version="1.0" encoding="UTF-8"?>
<svg xmlns="http://www.w3.org/2000/svg" xmlns:xlink="http://www.w3.org/1999/xlink" width="64" height="64" viewBox="0 0 64 64">
<path fill-rule="evenodd" fill="rgb(13.725491%, 18.431373%, 23.921569%)" fill-opacity="1" d="M 52.777344 32.105469 L 57.765625 32.105469 L 57.765625 29.441406 L 52.777344 29.441406 Z M 43.476562 35.28125 L 45.777344 36.628906 L 43.285156 40.894531 L 40.984375 39.550781 Z M 43.367188 27.011719 L 40.875 22.742188 L 43.175781 21.398438 L 45.667969 25.664062 Z M 47.175781 32.921875 C 46.386719 32.921875 45.742188 32.277344 45.742188 31.488281 C 45.742188 30.699219 46.386719 30.054688 47.175781 30.054688 C 47.96875 30.054688 48.613281 30.699219 48.613281 31.488281 C 48.613281 32.277344 47.96875 32.921875 47.175781 32.921875 Z M 47.175781 27.386719 C 44.917969 27.386719 43.078125 29.226562 43.078125 31.488281 C 43.078125 33.746094 44.917969 35.589844 47.175781 35.589844 C 49.441406 35.589844 51.277344 33.746094 51.277344 31.488281 C 51.277344 29.226562 49.441406 27.386719 47.175781 27.386719 Z M 47.195312 42.972656 C 40.863281 42.972656 35.710938 37.820312 35.710938 31.488281 C 35.710938 25.15625 40.863281 20 47.195312 20 C 53.53125 20 58.679688 25.15625 58.679688 31.488281 C 58.679688 37.820312 53.53125 42.972656 47.195312 42.972656 Z M 5.332031 31.488281 C 5.332031 25.15625 10.488281 20 16.820312 20 C 23.152344 20 28.304688 25.15625 28.304688 31.488281 C 28.304688 37.820312 23.152344 42.972656 16.820312 42.972656 C 10.488281 42.972656 5.332031 37.820312 5.332031 31.488281 Z M 47.195312 17.332031 C 39.390625 17.332031 33.042969 23.683594 33.042969 31.488281 C 33.042969 35.378906 34.621094 38.902344 37.171875 41.464844 L 26.84375 41.464844 C 29.394531 38.902344 30.972656 35.378906 30.972656 31.488281 C 30.972656 23.683594 24.621094 17.332031 16.820312 17.332031 C 9.015625 17.332031 2.667969 23.683594 2.667969 31.488281 C 2.667969 39.289062 9.015625 45.640625 16.820312 45.640625 C 19.09375 45.640625 21.234375 45.089844 23.136719 44.132812 L 40.6875 44.132812 L 40.6875 44.042969 C 42.640625 45.054688 44.847656 45.640625 47.195312 45.640625 C 55 45.640625 61.347656 39.289062 61.347656 31.488281 C 61.347656 23.683594 55 17.332031 47.195312 17.332031 Z M 22.402344 32.105469 L 27.386719 32.105469 L 27.386719 29.441406 L 22.402344 29.441406 Z M 13.101562 35.28125 L 15.402344 36.628906 L 12.910156 40.894531 L 10.609375 39.550781 Z M 12.992188 27.011719 L 10.496094 22.742188 L 12.796875 21.398438 L 15.292969 25.664062 Z M 16.800781 32.921875 C 16.011719 32.921875 15.367188 32.277344 15.367188 31.488281 C 15.367188 30.699219 16.011719 30.054688 16.800781 30.054688 C 17.59375 30.054688 18.234375 30.699219 18.234375 31.488281 C 18.234375 32.277344 17.59375 32.921875 16.800781 32.921875 Z M 16.800781 27.386719 C 14.542969 27.386719 12.703125 29.226562 12.703125 31.488281 C 12.703125 33.746094 14.542969 35.589844 16.800781 35.589844 C 19.0625 35.589844 20.902344 33.746094 20.902344 31.488281 C 20.902344 29.226562 19.0625 27.386719 16.800781 27.386719 Z M 16.800781 27.386719 "/>
</svg>
