<?xml version="1.0" encoding="UTF-8"?>
<svg xmlns="http://www.w3.org/2000/svg" xmlns:xlink="http://www.w3.org/1999/xlink" width="64" height="64" viewBox="0 0 64 64">
<path fill-rule="evenodd" fill="rgb(13.725491%, 18.431373%, 23.921569%)" fill-opacity="1" d="M 43.25 45.605469 L 33.492188 35.84375 L 35.941406 33.394531 L 45.699219 43.15625 Z M 18.5625 18.933594 L 19.03125 18.464844 L 22.824219 21.230469 L 21.328125 22.726562 Z M 36.886719 30.566406 C 36.386719 30.066406 35.5 30.066406 35 30.566406 L 33.773438 31.792969 L 24.902344 22.921875 L 25.808594 22.015625 C 26.085938 21.738281 26.226562 21.355469 26.195312 20.96875 C 26.167969 20.578125 25.964844 20.226562 25.652344 19.996094 L 19.679688 15.640625 C 19.148438 15.253906 18.414062 15.3125 17.949219 15.773438 L 15.871094 17.855469 C 15.40625 18.320312 15.347656 19.054688 15.734375 19.582031 L 20.09375 25.554688 C 20.320312 25.871094 20.675781 26.070312 21.066406 26.101562 C 21.101562 26.101562 21.132812 26.105469 21.167969 26.105469 C 21.519531 26.105469 21.859375 25.964844 22.113281 25.714844 L 23.015625 24.808594 L 31.890625 33.679688 L 30.664062 34.902344 C 30.144531 35.421875 30.144531 36.265625 30.664062 36.789062 L 42.308594 48.433594 C 42.558594 48.683594 42.894531 48.824219 43.25 48.824219 C 43.605469 48.824219 43.945312 48.683594 44.191406 48.433594 L 48.527344 44.097656 C 49.050781 43.574219 49.050781 42.734375 48.527344 42.210938 Z M 36.234375 23.027344 C 35.832031 20.960938 36.480469 18.769531 37.988281 17.257812 C 39.917969 15.324219 42.871094 14.832031 45.332031 16.03125 C 45.71875 16.21875 45.992188 16.582031 46.0625 17.007812 C 46.136719 17.433594 45.996094 17.867188 45.691406 18.171875 L 43.714844 20.148438 L 44.152344 20.589844 L 46.128906 18.613281 C 46.433594 18.308594 46.867188 18.171875 47.289062 18.242188 C 47.714844 18.3125 48.078125 18.582031 48.269531 18.96875 C 49.472656 21.425781 48.984375 24.375 47.046875 26.3125 C 45.511719 27.847656 43.355469 28.484375 41.269531 28.066406 L 39 30.339844 L 37.113281 28.453125 L 39.929688 25.636719 C 40.285156 25.277344 40.816406 25.15625 41.300781 25.320312 C 42.667969 25.785156 44.144531 25.441406 45.164062 24.425781 C 45.753906 23.835938 46.113281 23.082031 46.222656 22.292969 L 45.09375 23.417969 C 44.84375 23.667969 44.503906 23.808594 44.152344 23.808594 C 43.796875 23.808594 43.457031 23.667969 43.207031 23.417969 L 40.886719 21.089844 C 40.367188 20.570312 40.367188 19.726562 40.886719 19.207031 L 42.007812 18.085938 C 41.21875 18.195312 40.464844 18.554688 39.875 19.144531 C 38.875 20.144531 38.523438 21.660156 38.980469 22.996094 C 39.144531 23.480469 39.019531 24.011719 38.664062 24.371094 L 33.679688 29.351562 L 31.796875 27.464844 Z M 30.4375 38.90625 L 28.164062 41.179688 C 28.566406 43.25 27.917969 45.441406 26.398438 46.949219 C 25.179688 48.179688 23.542969 48.824219 21.886719 48.824219 C 20.929688 48.824219 19.960938 48.609375 19.0625 48.167969 C 18.675781 47.976562 18.40625 47.613281 18.335938 47.1875 C 18.265625 46.765625 18.402344 46.332031 18.707031 46.027344 L 20.683594 44.054688 L 20.246094 43.617188 L 18.273438 45.59375 C 17.964844 45.898438 17.53125 46.03125 17.113281 45.964844 C 16.6875 45.894531 16.324219 45.625 16.132812 45.238281 C 14.925781 42.785156 15.414062 39.832031 17.351562 37.898438 C 18.863281 36.378906 21.054688 35.730469 23.121094 36.140625 L 27.566406 31.699219 L 29.449219 33.582031 L 24.464844 38.570312 C 24.105469 38.929688 23.566406 39.054688 23.085938 38.886719 C 21.75 38.421875 20.238281 38.773438 19.238281 39.78125 C 18.648438 40.371094 18.285156 41.125 18.175781 41.914062 L 19.304688 40.789062 C 19.824219 40.269531 20.667969 40.269531 21.1875 40.789062 L 23.511719 43.109375 C 24.03125 43.632812 24.03125 44.476562 23.511719 44.996094 L 22.382812 46.125 C 23.171875 46.019531 23.925781 45.65625 24.515625 45.066406 C 25.523438 44.0625 25.878906 42.550781 25.417969 41.210938 C 25.253906 40.730469 25.378906 40.195312 25.738281 39.835938 L 28.550781 37.019531 Z M 54.992188 45.34375 L 32.125 58.460938 L 9.335938 45.21875 L 9.410156 18.863281 L 32.273438 5.742188 L 55.058594 18.988281 Z M 32.277344 2.667969 L 6.746094 17.316406 L 6.667969 46.75 L 32.117188 61.539062 L 57.652344 46.890625 L 57.730469 17.457031 Z M 32.277344 2.667969 "/>
</svg>
