<?xml version="1.0" encoding="UTF-8"?>
<svg xmlns="http://www.w3.org/2000/svg" xmlns:xlink="http://www.w3.org/1999/xlink" width="64" height="64" viewBox="0 0 64 64">
<path fill-rule="evenodd" fill="rgb(13.725491%, 18.431373%, 23.921569%)" fill-opacity="1" d="M 57.691406 57.691406 C 56.433594 58.949219 54.234375 58.949219 52.976562 57.691406 L 39.949219 44.660156 C 41.734375 43.320312 43.320312 41.734375 44.664062 39.945312 L 57.691406 52.976562 C 58.988281 54.277344 58.988281 56.390625 57.691406 57.691406 M 5.332031 26 C 5.332031 14.605469 14.605469 5.332031 26 5.332031 C 37.394531 5.332031 46.667969 14.605469 46.667969 26 C 46.667969 37.394531 37.394531 46.667969 26 46.667969 C 14.605469 46.667969 5.332031 37.394531 5.332031 26 M 59.574219 51.089844 L 46.167969 37.679688 C 48.167969 34.242188 49.332031 30.257812 49.332031 26 C 49.332031 13.132812 38.867188 2.667969 26 2.667969 C 13.132812 2.667969 2.667969 13.132812 2.667969 26 C 2.667969 38.867188 13.132812 49.332031 26 49.332031 C 30.257812 49.332031 34.242188 48.167969 37.683594 46.167969 L 51.089844 59.574219 C 52.222656 60.710938 53.730469 61.332031 55.332031 61.332031 C 56.9375 61.332031 58.441406 60.710938 59.574219 59.574219 C 61.914062 57.238281 61.914062 53.429688 59.574219 51.089844 M 26 40.667969 C 17.914062 40.667969 11.332031 34.085938 11.332031 26 C 11.332031 17.914062 17.914062 11.332031 26 11.332031 C 34.085938 11.332031 40.667969 17.914062 40.667969 26 C 40.667969 34.085938 34.085938 40.667969 26 40.667969 M 26 8.667969 C 16.441406 8.667969 8.667969 16.441406 8.667969 26 C 8.667969 35.558594 16.441406 43.332031 26 43.332031 C 35.558594 43.332031 43.332031 35.558594 43.332031 26 C 43.332031 16.441406 35.558594 8.667969 26 8.667969 "/>
</svg>
