<?xml version="1.0" encoding="UTF-8"?>
<svg xmlns="http://www.w3.org/2000/svg" xmlns:xlink="http://www.w3.org/1999/xlink" width="64" height="64" viewBox="0 0 64 64">
<path fill-rule="evenodd" fill="rgb(13.725491%, 18.431373%, 23.921569%)" fill-opacity="1" d="M 5.332031 56 L 58.667969 56 L 58.667969 21.332031 L 5.332031 21.332031 Z M 22.113281 8 L 27.058594 12.945312 C 27.308594 13.195312 27.648438 13.335938 28 13.335938 L 58.667969 13.335938 L 58.667969 18.667969 L 5.332031 18.667969 L 5.332031 8 Z M 61.332031 12 C 61.332031 11.265625 60.738281 10.667969 60 10.667969 L 28.554688 10.667969 L 23.609375 5.722656 C 23.359375 5.472656 23.019531 5.332031 22.667969 5.332031 L 4 5.332031 C 3.261719 5.332031 2.667969 5.929688 2.667969 6.667969 L 2.667969 57.332031 C 2.667969 58.070312 3.261719 58.667969 4 58.667969 L 60 58.667969 C 60.738281 58.667969 61.332031 58.070312 61.332031 57.332031 L 61.332031 20 C 61.332031 19.996094 61.332031 19.992188 61.332031 19.984375 Z M 61.332031 12 "/>
</svg>
