<?xml version="1.0" encoding="UTF-8"?>
<svg xmlns="http://www.w3.org/2000/svg" xmlns:xlink="http://www.w3.org/1999/xlink" width="64" height="64" viewBox="0 0 64 64">
<path fill-rule="evenodd" fill="rgb(14.117648%, 18.431373%, 24.313726%)" fill-opacity="1" d="M 41.976562 31.378906 L 58.667969 17.632812 L 58.667969 45.285156 Z M 24.117188 33.101562 L 32 39.59375 L 39.882812 33.101562 L 56.476562 46.933594 L 7.523438 46.933594 Z M 22.023438 31.378906 L 5.332031 45.285156 L 5.332031 17.632812 Z M 32 36.140625 L 7.546875 16 L 56.453125 16 Z M 2.667969 14.195312 L 2.667969 48.738281 C 2.667969 49.214844 3.050781 49.601562 3.527344 49.601562 L 60.472656 49.601562 C 60.949219 49.601562 61.332031 49.214844 61.332031 48.738281 L 61.332031 14.195312 C 61.332031 13.71875 60.949219 13.332031 60.472656 13.332031 L 3.527344 13.332031 C 3.050781 13.332031 2.667969 13.71875 2.667969 14.195312 Z M 2.667969 14.195312 "/>
</svg>
