<?xml version="1.0" encoding="UTF-8"?>
<svg xmlns="http://www.w3.org/2000/svg" xmlns:xlink="http://www.w3.org/1999/xlink" width="64" height="64" viewBox="0 0 64 64">
<path fill-rule="evenodd" fill="rgb(13.725491%, 18.431373%, 23.921569%)" fill-opacity="1" d="M 20.582031 28.691406 L 42.753906 28.691406 L 42.753906 26.027344 L 20.582031 26.027344 Z M 20.582031 22.929688 L 42.753906 22.929688 L 42.753906 20.261719 L 20.582031 20.261719 Z M 20.582031 17.015625 L 42.753906 17.015625 L 42.753906 14.347656 L 20.582031 14.347656 Z M 20.582031 11.324219 L 42.753906 11.324219 L 42.753906 8.660156 L 20.582031 8.660156 Z M 17.332031 58.683594 L 46 58.683594 L 46 5.332031 L 17.332031 5.332031 Z M 46.710938 2.667969 L 16.625 2.667969 C 15.546875 2.667969 14.667969 3.546875 14.667969 4.625 L 14.667969 59.394531 C 14.667969 60.472656 15.546875 61.351562 16.625 61.351562 L 46.710938 61.351562 C 47.789062 61.351562 48.664062 60.472656 48.664062 59.394531 L 48.664062 4.625 C 48.664062 3.546875 47.789062 2.667969 46.710938 2.667969 Z M 46.710938 2.667969 "/>
</svg>
