<?xml version="1.0" encoding="UTF-8"?>
<svg xmlns="http://www.w3.org/2000/svg" xmlns:xlink="http://www.w3.org/1999/xlink" width="64" height="64" viewBox="0 0 64 64">
<path fill-rule="evenodd" fill="rgb(13.725491%, 18.431373%, 23.921569%)" fill-opacity="1" d="M 49.332031 46.667969 L 61.332031 46.667969 L 61.332031 49.332031 L 49.332031 49.332031 L 49.332031 61.332031 L 46.667969 61.332031 L 46.667969 49.332031 L 34.667969 49.332031 L 34.667969 46.667969 L 46.667969 46.667969 L 46.667969 34.667969 L 49.332031 34.667969 Z M 5.332031 58.667969 L 26.667969 58.667969 L 26.667969 37.332031 L 5.332031 37.332031 Z M 28 34.667969 L 4 34.667969 C 3.261719 34.667969 2.667969 35.265625 2.667969 36 L 2.667969 60 C 2.667969 60.734375 3.261719 61.332031 4 61.332031 L 28 61.332031 C 28.738281 61.332031 29.332031 60.734375 29.332031 60 L 29.332031 36 C 29.332031 35.265625 28.738281 34.667969 28 34.667969 Z M 37.332031 26.667969 L 58.667969 26.667969 L 58.667969 5.332031 L 37.332031 5.332031 Z M 60 2.667969 L 36 2.667969 C 35.261719 2.667969 34.667969 3.265625 34.667969 4 L 34.667969 28 C 34.667969 28.734375 35.261719 29.332031 36 29.332031 L 60 29.332031 C 60.738281 29.332031 61.332031 28.734375 61.332031 28 L 61.332031 4 C 61.332031 3.265625 60.738281 2.667969 60 2.667969 Z M 5.332031 26.667969 L 26.667969 26.667969 L 26.667969 5.332031 L 5.332031 5.332031 Z M 28 2.667969 L 4 2.667969 C 3.261719 2.667969 2.667969 3.265625 2.667969 4 L 2.667969 28 C 2.667969 28.734375 3.261719 29.332031 4 29.332031 L 28 29.332031 C 28.738281 29.332031 29.332031 28.734375 29.332031 28 L 29.332031 4 C 29.332031 3.265625 28.738281 2.667969 28 2.667969 Z M 28 2.667969 "/>
</svg>
