<?xml version="1.0" encoding="UTF-8"?>
<svg xmlns="http://www.w3.org/2000/svg" xmlns:xlink="http://www.w3.org/1999/xlink" width="64" height="64" viewBox="0 0 64 64">
<path fill-rule="evenodd" fill="rgb(86.666667%, 20.392157%, 29.803923%)" fill-opacity="1" d="M 56 32 C 54.53125 32 53.332031 30.804688 53.332031 29.332031 C 53.332031 27.863281 54.53125 26.667969 56 26.667969 C 57.46875 26.667969 58.667969 27.863281 58.667969 29.332031 C 58.667969 30.804688 57.46875 32 56 32 M 40 49.332031 C 38.53125 49.332031 37.332031 48.136719 37.332031 46.667969 C 37.332031 45.195312 38.53125 44 40 44 C 41.46875 44 42.667969 45.195312 42.667969 46.667969 C 42.667969 48.136719 41.46875 49.332031 40 49.332031 M 26.667969 36 C 26.667969 34.53125 27.863281 33.332031 29.332031 33.332031 C 30.804688 33.332031 32 34.53125 32 36 C 32 37.46875 30.804688 38.667969 29.332031 38.667969 C 27.863281 38.667969 26.667969 37.46875 26.667969 36 M 8 58.667969 C 6.53125 58.667969 5.332031 57.46875 5.332031 56 C 5.332031 54.53125 6.53125 53.332031 8 53.332031 C 9.46875 53.332031 10.667969 54.53125 10.667969 56 C 10.667969 57.46875 9.46875 58.667969 8 58.667969 M 30.667969 8 C 30.667969 6.53125 31.863281 5.332031 33.332031 5.332031 C 34.804688 5.332031 36 6.53125 36 8 C 36 9.46875 34.804688 10.667969 33.332031 10.667969 C 31.863281 10.667969 30.667969 9.46875 30.667969 8 M 8 10.667969 C 6.53125 10.667969 5.332031 9.46875 5.332031 8 C 5.332031 6.53125 6.53125 5.332031 8 5.332031 C 9.46875 5.332031 10.667969 6.53125 10.667969 8 C 10.667969 9.46875 9.46875 10.667969 8 10.667969 M 56 24 C 54.664062 24 53.457031 24.511719 52.519531 25.324219 L 37.785156 10.921875 C 38.339844 10.082031 38.667969 9.078125 38.667969 8 C 38.667969 5.058594 36.273438 2.667969 33.332031 2.667969 C 30.855469 2.667969 28.785156 4.375 28.1875 6.667969 L 13.144531 6.667969 C 12.546875 4.375 10.476562 2.667969 8 2.667969 C 5.058594 2.667969 2.667969 5.058594 2.667969 8 C 2.667969 10.941406 5.058594 13.332031 8 13.332031 C 10.476562 13.332031 12.546875 11.625 13.144531 9.332031 L 28.1875 9.332031 C 28.785156 11.625 30.855469 13.332031 33.332031 13.332031 C 34.226562 13.332031 35.054688 13.09375 35.796875 12.703125 L 50.992188 27.558594 C 50.792969 28.117188 50.667969 28.707031 50.667969 29.332031 C 50.667969 30.390625 50.984375 31.367188 51.515625 32.195312 L 42.460938 41.960938 C 41.71875 41.574219 40.890625 41.332031 40 41.332031 C 38.867188 41.332031 37.820312 41.691406 36.957031 42.296875 L 33.457031 39.339844 C 34.203125 38.425781 34.667969 37.269531 34.667969 36 C 34.667969 33.058594 32.273438 30.667969 29.332031 30.667969 C 26.390625 30.667969 24 33.058594 24 36 C 24 36.882812 24.234375 37.699219 24.613281 38.433594 L 10.734375 51.445312 C 9.929688 50.960938 9.003906 50.667969 8 50.667969 C 5.058594 50.667969 2.667969 53.058594 2.667969 56 C 2.667969 58.941406 5.058594 61.332031 8 61.332031 C 10.941406 61.332031 13.332031 58.941406 13.332031 56 C 13.332031 55.03125 13.054688 54.132812 12.601562 53.347656 L 26.378906 40.433594 C 27.226562 41 28.242188 41.332031 29.332031 41.332031 C 30.007812 41.332031 30.648438 41.195312 31.242188 40.964844 L 35.230469 44.328125 C 34.878906 45.039062 34.667969 45.824219 34.667969 46.667969 C 34.667969 49.609375 37.058594 52 40 52 C 42.941406 52 45.332031 49.609375 45.332031 46.667969 C 45.332031 45.585938 45.003906 44.582031 44.449219 43.738281 L 53.476562 34.003906 C 54.230469 34.414062 55.085938 34.667969 56 34.667969 C 58.941406 34.667969 61.332031 32.273438 61.332031 29.332031 C 61.332031 26.390625 58.941406 24 56 24 "/>
</svg>
