<?xml version="1.0" encoding="UTF-8"?>
<svg xmlns="http://www.w3.org/2000/svg" xmlns:xlink="http://www.w3.org/1999/xlink" width="64" height="64" viewBox="0 0 64 64">
<path fill-rule="evenodd" fill="rgb(86.666667%, 20.392157%, 29.803923%)" fill-opacity="1" d="M 8 14.667969 L 41.332031 14.667969 L 41.332031 12 L 8 12 Z M 44 14.667969 L 54.667969 14.667969 L 54.667969 12 L 44 12 Z M 18.949219 37.148438 C 20.566406 36.664062 22.378906 37.21875 23.421875 38.652344 L 27.152344 43.824219 C 27.582031 44.421875 28.414062 44.558594 29.015625 44.125 C 29.613281 43.695312 29.746094 42.863281 29.316406 42.261719 L 25.59375 37.105469 C 25.589844 37.101562 25.585938 37.09375 25.582031 37.089844 L 14.871094 22.25 C 14.429688 21.636719 14.566406 20.777344 15.179688 20.335938 C 15.792969 19.890625 16.652344 20.03125 17.097656 20.644531 L 22.40625 28.003906 C 22.414062 28.015625 22.425781 28.03125 22.4375 28.046875 L 28.183594 36.007812 C 28.613281 36.601562 29.449219 36.738281 30.042969 36.308594 C 30.640625 35.878906 30.777344 35.042969 30.34375 34.445312 L 24.582031 26.460938 C 24.160156 25.847656 24.304688 25.007812 24.910156 24.570312 C 25.519531 24.128906 26.382812 24.265625 26.824219 24.878906 L 28.105469 26.652344 C 28.117188 26.671875 28.128906 26.6875 28.144531 26.707031 L 32.570312 32.839844 C 33 33.4375 33.835938 33.574219 34.429688 33.140625 C 35.027344 32.710938 35.164062 31.878906 34.730469 31.28125 L 30.285156 25.117188 C 30.085938 24.824219 30.007812 24.472656 30.0625 24.125 C 30.121094 23.761719 30.316406 23.445312 30.613281 23.230469 C 30.914062 23.015625 31.277344 22.933594 31.636719 22.988281 C 31.996094 23.046875 32.316406 23.242188 32.53125 23.539062 L 34.277344 25.960938 C 34.28125 25.96875 34.285156 25.972656 34.289062 25.980469 L 37.78125 30.8125 C 38.210938 31.410156 39.042969 31.546875 39.640625 31.113281 C 40.238281 30.683594 40.371094 29.847656 39.941406 29.253906 L 36.445312 24.40625 C 36.011719 23.792969 36.152344 22.941406 36.761719 22.5 C 37.0625 22.289062 37.425781 22.203125 37.785156 22.261719 C 38.144531 22.320312 38.460938 22.515625 38.675781 22.8125 L 43.886719 30.027344 C 43.910156 30.066406 46.386719 33.925781 47.015625 36.507812 C 47.605469 38.9375 51.046875 44.300781 52.613281 46.664062 L 40.5625 55.363281 C 39.441406 53.972656 37.183594 51.855469 33.597656 51.355469 C 29.722656 50.820312 27.066406 48.253906 26.691406 47.875 Z M 41.027344 58.316406 L 55.21875 48.070312 C 55.804688 47.648438 55.945312 46.835938 55.539062 46.238281 C 54.066406 44.078125 50.125 38.007812 49.605469 35.875 C 48.871094 32.855469 46.238281 28.753906 46.089844 28.523438 L 40.839844 21.253906 C 40.207031 20.375 39.273438 19.800781 38.210938 19.628906 C 37.140625 19.457031 36.074219 19.707031 35.203125 20.339844 C 34.789062 20.636719 34.449219 21 34.1875 21.402344 C 33.605469 20.851562 32.871094 20.488281 32.0625 20.355469 C 30.992188 20.183594 29.929688 20.4375 29.054688 21.066406 C 28.589844 21.402344 28.207031 21.824219 27.925781 22.304688 C 26.566406 21.414062 24.738281 21.402344 23.347656 22.40625 C 22.957031 22.6875 22.632812 23.03125 22.375 23.40625 L 19.257812 19.085938 C 17.953125 17.277344 15.421875 16.871094 13.621094 18.171875 C 11.8125 19.476562 11.40625 22.003906 12.707031 23.8125 L 20.289062 34.316406 C 18.832031 34.253906 17.417969 34.6875 16.179688 35.585938 C 15.890625 35.789062 15.699219 36.105469 15.640625 36.453125 C 15.585938 36.800781 15.671875 37.160156 15.878906 37.445312 L 24.585938 49.511719 C 24.613281 49.554688 24.648438 49.59375 24.683594 49.632812 C 24.820312 49.78125 28.089844 53.285156 33.230469 54 C 37.195312 54.546875 39.003906 57.738281 39.074219 57.867188 C 39.257812 58.207031 39.574219 58.449219 39.949219 58.535156 C 40.046875 58.554688 40.148438 58.566406 40.246094 58.566406 C 40.523438 58.566406 40.796875 58.480469 41.027344 58.316406 Z M 60 24 L 46.667969 24 L 46.667969 21.332031 L 58.667969 21.332031 L 58.667969 8 L 5.332031 7.898438 L 5.332031 21.332031 L 9.332031 21.332031 L 9.332031 24 L 4 24 C 3.261719 24 2.667969 23.402344 2.667969 22.667969 L 2.667969 6.667969 C 2.667969 5.929688 3.261719 5.332031 4 5.332031 L 60 5.332031 C 60.738281 5.332031 61.332031 5.929688 61.332031 6.667969 L 61.332031 22.667969 C 61.332031 23.402344 60.738281 24 60 24 Z M 60 24 "/>
</svg>
