<?xml version="1.0" encoding="UTF-8"?>
<svg xmlns="http://www.w3.org/2000/svg" xmlns:xlink="http://www.w3.org/1999/xlink" width="64" height="64" viewBox="0 0 64 64">
<path fill-rule="evenodd" fill="rgb(86.666667%, 20.392157%, 29.803923%)" fill-opacity="1" d="M 56.109375 32.054688 L 44.625 32.554688 L 39.945312 16.953125 C 39.753906 16.328125 39.136719 15.9375 38.496094 16.011719 L 28.828125 17.273438 L 29.277344 7.902344 L 58.527344 5.460938 Z M 28.699219 19.980469 L 37.714844 18.804688 L 41.875 32.671875 L 28.066406 33.273438 Z M 45.132812 43.523438 L 26.304688 58.582031 L 5.46875 54.90625 L 9.203125 22.523438 L 26.015625 20.332031 L 25.335938 34.605469 C 25.316406 34.980469 25.457031 35.34375 25.722656 35.609375 C 25.972656 35.859375 26.3125 36.003906 26.667969 36.003906 C 26.6875 36.003906 26.703125 36 26.722656 36 L 42.667969 35.308594 Z M 60.945312 3.0625 C 60.667969 2.78125 60.277344 2.632812 59.890625 2.671875 L 27.890625 5.339844 C 27.222656 5.394531 26.699219 5.9375 26.667969 6.605469 L 26.140625 17.625 L 7.828125 20.011719 C 7.21875 20.09375 6.746094 20.574219 6.675781 21.183594 L 2.675781 55.847656 C 2.59375 56.550781 3.074219 57.191406 3.769531 57.316406 L 26.433594 61.316406 C 26.511719 61.328125 26.589844 61.335938 26.667969 61.335938 C 26.96875 61.335938 27.261719 61.234375 27.5 61.042969 L 47.5 45.042969 C 47.921875 44.703125 48.101562 44.140625 47.945312 43.621094 L 45.414062 35.1875 L 57.390625 34.667969 C 58.058594 34.636719 58.601562 34.121094 58.660156 33.457031 L 61.328125 4.121094 C 61.363281 3.730469 61.222656 3.34375 60.945312 3.0625 Z M 60.945312 3.0625 "/>
</svg>
