<?xml version="1.0" encoding="UTF-8"?>
<svg xmlns="http://www.w3.org/2000/svg" xmlns:xlink="http://www.w3.org/1999/xlink" width="64" height="64" viewBox="0 0 64 64">
<path fill-rule="evenodd" fill="rgb(86.666667%, 20.392157%, 29.803923%)" fill-opacity="1" d="M 32 5.332031 C 20.972656 5.332031 12 13.109375 12 22.667969 C 12 30.300781 17.902344 37.136719 26.355469 39.289062 C 27.757812 39.648438 28.847656 40.773438 29.1875 42.230469 L 32 54.179688 L 34.8125 42.230469 C 35.152344 40.773438 36.242188 39.648438 37.648438 39.289062 C 46.097656 37.136719 52 30.300781 52 22.667969 C 52 13.109375 43.027344 5.332031 32 5.332031 M 32 61.332031 C 31.382812 61.332031 30.84375 60.90625 30.703125 60.304688 L 26.59375 42.839844 C 26.480469 42.363281 26.128906 41.984375 25.695312 41.875 C 16.0625 39.421875 9.332031 31.519531 9.332031 22.667969 C 9.332031 11.636719 19.5 2.667969 32 2.667969 C 44.5 2.667969 54.667969 11.636719 54.667969 22.667969 C 54.667969 31.519531 47.9375 39.417969 38.304688 41.875 C 37.871094 41.984375 37.519531 42.363281 37.40625 42.839844 L 33.296875 60.304688 C 33.15625 60.90625 32.617188 61.332031 32 61.332031 M 32 16 C 28.324219 16 25.332031 18.992188 25.332031 22.667969 C 25.332031 26.34375 28.324219 29.332031 32 29.332031 C 35.675781 29.332031 38.667969 26.34375 38.667969 22.667969 C 38.667969 18.992188 35.675781 16 32 16 M 32 32 C 26.855469 32 22.667969 27.8125 22.667969 22.667969 C 22.667969 17.519531 26.855469 13.332031 32 13.332031 C 37.144531 13.332031 41.332031 17.519531 41.332031 22.667969 C 41.332031 27.8125 37.144531 32 32 32 "/>
</svg>
