<?xml version="1.0" encoding="UTF-8"?>
<svg xmlns="http://www.w3.org/2000/svg" xmlns:xlink="http://www.w3.org/1999/xlink" width="64" height="64" viewBox="0 0 64 64">
<path fill-rule="evenodd" fill="rgb(86.666667%, 20.392157%, 29.803923%)" fill-opacity="1" d="M 56.273438 33.003906 L 42.929688 29.667969 L 46.488281 5.945312 L 58.667969 11.480469 Z M 45.328125 54.933594 L 42.957031 32.421875 L 56.203125 35.734375 L 58.574219 58.246094 Z M 9.207031 32.1875 L 23.980469 34.460938 L 21.585938 58.382812 L 5.613281 54.960938 Z M 5.628906 5.84375 L 22.820312 10.375 L 24.007812 31.765625 L 9.269531 29.496094 Z M 40.257812 29.511719 L 26.679688 31.773438 L 25.492188 10.359375 L 43.816406 5.777344 Z M 26.65625 34.480469 L 40.253906 32.214844 L 42.644531 54.917969 L 24.269531 58.363281 Z M 61.425781 10.8125 C 61.488281 10.242188 61.175781 9.691406 60.652344 9.453125 L 45.984375 2.785156 C 45.710938 2.660156 45.398438 2.632812 45.109375 2.707031 L 24.109375 7.957031 L 4.339844 2.75 C 3.90625 2.632812 3.441406 2.746094 3.109375 3.046875 C 2.773438 3.347656 2.613281 3.796875 2.683594 4.242188 L 6.75 30.664062 L 2.78125 55.792969 C 2.671875 56.492188 3.128906 57.15625 3.820312 57.304688 L 22.484375 61.304688 C 22.65625 61.339844 22.835938 61.339844 23.011719 61.308594 L 44.058594 57.363281 L 59.777344 61.292969 C 59.882812 61.320312 59.992188 61.332031 60.097656 61.332031 C 60.414062 61.332031 60.726562 61.21875 60.972656 61.003906 C 61.300781 60.722656 61.46875 60.292969 61.425781 59.859375 L 58.773438 34.667969 Z M 61.425781 10.8125 "/>
</svg>
