<?xml version="1.0" encoding="UTF-8"?>
<svg xmlns="http://www.w3.org/2000/svg" xmlns:xlink="http://www.w3.org/1999/xlink" width="64" height="64" viewBox="0 0 64 64">
<path fill-rule="evenodd" fill="rgb(86.666667%, 20.392157%, 29.803923%)" fill-opacity="1" d="M 19.058594 9.332031 L 23.722656 9.332031 L 23.722656 6.667969 L 19.058594 6.667969 Z M 26.390625 9.332031 L 31.058594 9.332031 L 31.058594 6.667969 L 26.390625 6.667969 Z M 43.136719 19.75 L 45.023438 17.867188 L 48.320312 21.167969 L 46.433594 23.054688 Z M 33.523438 10.117188 C 33.355469 9.949219 33.167969 9.808594 32.964844 9.691406 L 34.292969 7.375 C 34.699219 7.609375 35.078125 7.898438 35.410156 8.234375 L 37.960938 10.789062 L 36.070312 12.671875 Z M 37.957031 14.558594 L 39.84375 12.675781 L 43.140625 15.980469 L 41.253906 17.863281 Z M 17.53125 45.039062 L 19.386719 46.953125 L 16.507812 49.734375 L 14.65625 47.816406 Z M 39.003906 44.710938 C 39.082031 44.78125 39.171875 44.847656 39.265625 44.898438 L 37.976562 47.230469 C 37.695312 47.078125 37.433594 46.886719 37.195312 46.667969 L 34.730469 44.390625 L 36.539062 42.433594 Z M 25.484375 37.355469 C 26.3125 36.554688 27.460938 36.152344 28.605469 36.246094 L 28.378906 38.90625 C 27.941406 38.898438 27.585938 39.03125 27.335938 39.273438 L 26.097656 40.46875 L 24.246094 38.550781 Z M 31.644531 37.910156 L 34.582031 40.625 L 32.773438 42.582031 L 29.832031 39.871094 Z M 22.328125 40.40625 L 24.179688 42.324219 L 21.300781 45.101562 L 19.449219 43.183594 Z M 8 58.667969 C 6.53125 58.667969 5.332031 57.46875 5.332031 56 C 5.332031 54.53125 6.53125 53.332031 8 53.332031 C 9.46875 53.332031 10.667969 54.53125 10.667969 56 C 10.667969 57.46875 9.46875 58.667969 8 58.667969 Z M 12.738281 49.667969 L 10.839844 51.503906 C 10.015625 50.980469 9.046875 50.667969 8 50.667969 C 5.058594 50.667969 2.667969 53.058594 2.667969 56 C 2.667969 58.941406 5.058594 61.332031 8 61.332031 C 10.941406 61.332031 13.332031 58.941406 13.332031 56 C 13.332031 55.074219 13.074219 54.214844 12.65625 53.453125 L 14.589844 51.585938 Z M 42.90625 42.304688 L 44.921875 44.050781 L 42.933594 46.347656 C 42.613281 46.714844 42.238281 47.015625 41.8125 47.246094 L 40.542969 44.902344 C 40.683594 44.828125 40.808594 44.722656 40.917969 44.601562 Z M 47.269531 37.265625 L 49.285156 39.011719 L 46.667969 42.035156 L 44.652344 40.289062 Z M 8 5.332031 C 9.46875 5.332031 10.667969 6.53125 10.667969 8 C 10.667969 9.46875 9.46875 10.667969 8 10.667969 C 6.53125 10.667969 5.332031 9.46875 5.332031 8 C 5.332031 6.53125 6.53125 5.332031 8 5.332031 Z M 8 13.332031 C 10.476562 13.332031 12.546875 11.625 13.144531 9.332031 L 16.390625 9.332031 L 16.390625 6.667969 L 13.144531 6.667969 C 12.546875 4.375 10.476562 2.667969 8 2.667969 C 5.058594 2.667969 2.667969 5.058594 2.667969 8 C 2.667969 10.941406 5.058594 13.332031 8 13.332031 Z M 56 32 C 54.53125 32 53.332031 30.804688 53.332031 29.332031 C 53.332031 27.863281 54.53125 26.667969 56 26.667969 C 57.46875 26.667969 58.667969 27.863281 58.667969 29.332031 C 58.667969 30.804688 57.46875 32 56 32 Z M 56 24 C 54.652344 24 53.429688 24.519531 52.492188 25.347656 L 50.203125 23.058594 L 48.316406 24.941406 L 50.976562 27.609375 C 50.789062 28.152344 50.667969 28.726562 50.667969 29.332031 C 50.667969 30.429688 51 31.449219 51.570312 32.296875 L 49.015625 35.25 L 51.03125 36.996094 L 53.574219 34.054688 C 54.304688 34.433594 55.121094 34.667969 56 34.667969 C 58.941406 34.667969 61.332031 32.273438 61.332031 29.332031 C 61.332031 26.390625 58.941406 24 56 24 Z M 56 24 "/>
</svg>
