<?xml version="1.0" encoding="UTF-8"?>
<svg width="90px" height="90px" viewBox="0 0 90 90" version="1.1" xmlns="http://www.w3.org/2000/svg" xmlns:xlink="http://www.w3.org/1999/xlink">
    <title>Icon-Architecture-Category/64/Developer-Tools_64</title>
    <defs>
        <linearGradient x1="0%" y1="100%" x2="100%" y2="0%" id="linearGradient-1">
            <stop stop-color="#2E27AD" offset="0%"></stop>
            <stop stop-color="#527FFF" offset="100%"></stop>
        </linearGradient>
    </defs>
    <g id="Icon-Architecture-Category/64/Developer-Tools_64" stroke="none" stroke-width="1" fill="none" fill-rule="evenodd">
        <rect id="Rectangle" fill="url(#linearGradient-1)" x="5" y="5" width="80" height="80"></rect>
        <rect id="#879196-Border-Copy-9" stroke="#879196" stroke-width="2" x="1" y="1" width="88" height="88"></rect>
        <g id="Icon-Category/64/Dev-Tools_64" transform="translate(13.000000, 13.000000)" fill="#FFFFFF">
            <path d="M57.9784817,51.9479241 C57.9784817,51.4979241 57.8034817,51.0759241 57.4854817,50.7589241 L36.8744817,30.1479241 C36.7454817,30.0189241 36.5754817,29.9539241 36.4044817,29.9539241 C36.2344817,29.9539241 36.0644817,30.0189241 35.9344817,30.1479241 L30.1484817,35.9349241 C29.8884817,36.1939241 29.8884817,36.6159241 30.1484817,36.8759241 L50.7574817,57.4849241 C51.3944817,58.1199241 52.4994817,58.1209241 53.1374817,57.4849241 L57.4854817,53.1379241 C57.8024817,52.8199241 57.9784817,52.3969241 57.9784817,51.9479241 L57.9784817,51.9479241 Z M30.2214817,33.0329241 L33.0334817,30.2209241 L20.7244817,17.8649241 C20.2594817,17.3979241 19.9084817,16.8199241 19.7074817,16.1939241 L17.9164817,10.6119241 C17.7294817,10.0279241 17.3024817,9.54892407 16.7454817,9.29592407 L10.6174817,6.51692407 C9.79748166,6.14492407 8.81948166,6.32292407 8.18248166,6.95992407 L6.95848166,8.18292407 C6.32348166,8.81892407 6.14548166,9.79692407 6.51748166,10.6169241 L9.29548166,16.7449241 C9.54848166,17.3029241 10.0284817,17.7299241 10.6114817,17.9179241 L17.1524817,20.0159241 L30.2214817,33.0329241 Z M59.9784817,51.9479241 C59.9784817,52.9309241 59.5944817,53.8559241 58.8994817,54.5519241 L54.5514817,58.8989241 C53.8334817,59.6169241 52.8904817,59.9759241 51.9484817,59.9759241 C51.0044817,59.9759241 50.0614817,59.6169241 49.3434817,58.8989241 L28.7344817,38.2899241 C27.6954817,37.2509241 27.6954817,35.5599241 28.7344817,34.5209241 L28.8064817,34.4479241 L16.0824817,21.7729241 L9.99948166,19.8219241 C8.87948166,19.4619241 7.95948166,18.6419241 7.47348166,17.5719241 L4.69548166,11.4429241 C3.98148166,9.86892407 4.32348166,7.98992407 5.54448166,6.76892407 L6.76848166,5.54592407 C7.99248166,4.32292407 9.87348166,3.98392407 11.4434817,4.69592407 L17.5714817,7.47392407 C18.6424817,7.95992407 19.4614817,8.88092407 19.8214817,10.0009241 L21.6124817,15.5829241 C21.7164817,15.9089241 21.9004817,16.2099241 22.1424817,16.4529241 L34.4474817,28.8069241 L34.5204817,28.7339241 C35.5594817,27.6959241 37.2494817,27.6939241 38.2894817,28.7339241 L58.8994817,49.3439241 C59.5944817,50.0389241 59.9784817,50.9639241 59.9784817,51.9479241 L59.9784817,51.9479241 Z M33.1664817,23.7489241 L40.6034817,16.3119241 C40.8224817,16.0939241 40.9274817,15.7859241 40.8884817,15.4789241 C40.5554817,12.8669241 41.4264817,10.3079241 43.2774817,8.45692407 C45.4404817,6.29292407 48.5884817,5.50492407 51.4824817,6.30592407 L46.3034817,11.4839241 C45.5214817,12.2659241 45.0904817,13.3049241 45.0904817,14.4109241 C45.0904817,15.5169241 45.5214817,16.5569241 46.3034817,17.3389241 C47.0854817,18.1209241 48.1244817,18.5519241 49.2314817,18.5519241 C50.3364817,18.5519241 51.3764817,18.1209241 52.1584817,17.3389241 L57.3364817,12.1609241 C58.1374817,15.0479241 57.3484817,18.2009241 55.1854817,20.3649241 C53.3334817,22.2159241 50.7764817,23.0869241 48.1634817,22.7549241 C47.8544817,22.7129241 47.5474817,22.8209241 47.3304817,23.0399241 L41.6014817,28.7679241 L43.0154817,30.1819241 L48.4084817,24.7899241 C51.4624817,25.0369241 54.4254817,23.9529241 56.5994817,21.7799241 C59.7104817,18.6679241 60.5254817,13.9049241 58.6274817,9.92692407 C58.4884817,9.63392407 58.2144817,9.42692407 57.8944817,9.37192407 C57.5804817,9.31692407 57.2494817,9.42092407 57.0184817,9.65092407 L50.7444817,15.9249241 C49.9354817,16.7329241 48.5264817,16.7329241 47.7174817,15.9249241 C47.3134817,15.5199241 47.0904817,14.9829241 47.0904817,14.4109241 C47.0904817,13.8399241 47.3134817,13.3019241 47.7174817,12.8979241 L53.9924817,6.62392407 C54.2214817,6.39492407 54.3264817,6.06792407 54.2704817,5.74792407 C54.2154817,5.42792407 54.0084817,5.15492407 53.7154817,5.01492407 C49.7364817,3.11592407 44.9744817,3.93192407 41.8634817,7.04292407 C39.6894817,9.21692407 38.6074817,12.1779241 38.8524817,15.2349241 L31.7514817,22.3349241 L33.1664817,23.7489241 Z M30.1824817,43.0159241 L24.7904817,48.4079241 C25.0354817,51.4639241 23.9534817,54.4259241 21.7794817,56.5999241 C19.7874817,58.5919241 17.1174817,59.6419241 14.4114817,59.6419241 C12.8894817,59.6419241 11.3584817,59.3109241 9.92648166,58.6279241 C9.63348166,58.4889241 9.42648166,58.2149241 9.37248166,57.8949241 C9.31648166,57.5749241 9.42048166,57.2479241 9.65048166,57.0189241 L15.9244817,50.7449241 C16.7584817,49.9099241 16.7584817,48.5519241 15.9244817,47.7179241 C15.0904817,46.8839241 13.7314817,46.8839241 12.8974817,47.7179241 L6.62448166,53.9919241 C6.39348166,54.2219241 6.05948166,54.3239241 5.74848166,54.2699241 C5.42748166,54.2159241 5.15448166,54.0089241 5.01448166,53.7159241 C3.11648166,49.7369241 3.93148166,44.9739241 7.04248166,41.8639241 C9.21648166,39.6899241 12.1794817,38.6089241 15.2334817,38.8529241 L22.8764817,31.2099241 L24.2904817,32.6239241 L16.3114817,40.6029241 C16.0924817,40.8219241 15.7814817,40.9249241 15.4784817,40.8879241 C12.8644817,40.5519241 10.3074817,41.4269241 8.45748166,43.2779241 C6.29248166,45.4409241 5.50448166,48.5939241 6.30548166,51.4819241 L11.4834817,46.3039241 C13.0984817,44.6899241 15.7234817,44.6899241 17.3384817,46.3039241 C18.9524817,47.9179241 18.9524817,50.5449241 17.3384817,52.1589241 L12.1614817,57.3369241 C15.0454817,58.1389241 18.2014817,57.3499241 20.3654817,55.1859241 C22.2154817,53.3349241 23.0864817,50.7749241 22.7534817,48.1639241 C22.7144817,47.8569241 22.8204817,47.5499241 23.0394817,47.3309241 L28.7684817,41.6019241 L30.1824817,43.0159241 Z" id="Dev-Tools_Category-Icon_64_Squid--"></path>
        </g>
    </g>
</svg>