<?xml version="1.0" encoding="UTF-8"?>
<svg width="90px" height="90px" viewBox="0 0 90 90" version="1.1" xmlns="http://www.w3.org/2000/svg" xmlns:xlink="http://www.w3.org/1999/xlink">
    <title>Icon-Architecture-Category/64/Machine-Learning_64</title>
    <defs>
        <linearGradient x1="0%" y1="100%" x2="100%" y2="0%" id="linearGradient-1">
            <stop stop-color="#055F4E" offset="0%"></stop>
            <stop stop-color="#56C0A7" offset="100%"></stop>
        </linearGradient>
    </defs>
    <g id="Icon-Architecture-Category/64/Machine-Learning_64" stroke="none" stroke-width="1" fill="none" fill-rule="evenodd">
        <rect id="Rectangle" fill="url(#linearGradient-1)" x="5" y="5" width="80" height="80"></rect>
        <rect id="#879196-Border-Copy-13" stroke="#879196" stroke-width="2" x="1" y="1" width="88" height="88"></rect>
        <g id="Icon-Category/64/Machine-Learning_64" transform="translate(13.000000, 13.000000)" fill="#FFFFFF">
            <path d="M31,38.607531 L31,31.169531 L25.65,28.066531 L26.654,26.336531 L31,28.856531 L31,8.63953102 L25.52,6.11053102 L20,8.89453102 L20,16.000531 L18,16.000531 L18,9.90253102 L13,12.424531 L12.999,20.064531 L19.003,23.425531 L24.999,20.098531 L24.999,12.000531 L26.999,12.000531 L26.999,20.687531 C26.999,21.050531 26.802,21.385531 26.484,21.561531 L20.001,25.159531 L20,30.000531 L26.477,33.744531 C26.799,33.919531 26.999,34.256531 26.999,34.622531 L26.999,40.912531 L31,38.607531 Z M31,40.915531 L18.712,47.994531 L17.714,46.260531 L24.999,42.064531 L24.999,35.216531 L19.035,31.973531 L12.363,35.815531 L11.365,34.082531 L18,30.261531 L18.001,25.156531 L12.029,21.814531 L6.002,25.159531 L6.001,29.653531 L11.242,26.634531 L12.24,28.368531 L6.001,31.961531 L6.002,37.499531 L11.978,41.204531 L17.985,37.743531 L18.983,39.476531 L13,43.000531 L12.999,50.254531 L18.394,53.523531 L25.96,48.985531 L26.989,50.700531 L20.327,54.695531 L25.563,57.869531 L31,55.360531 L31,40.915531 Z M33,8.00053102 L33,56.000531 C33,56.390531 32.773,56.744531 32.419,56.908531 L25.919,59.908531 C25.786,59.969531 25.643,60.000531 25.5,60.000531 C25.32,60.000531 25.141,59.951531 24.981,59.855531 L11.48,51.672531 C11.182,51.491531 10.999,51.167531 10.999,50.817531 L11,43.000531 L4.475,38.906531 C4.181,38.723531 4.002,38.402531 4.002,38.056531 L4.002,37.445531 C4.001,37.425531 4,37.404531 4,37.384531 L4,25.242531 C4,25.222531 4.001,25.201531 4.002,25.181531 L4.002,24.570531 C4.002,24.207531 4.199,23.872531 4.517,23.695531 L10.999,20.098531 L11,11.809531 C11,11.431531 11.213,11.086531 11.55,10.916531 L25.05,4.10753102 C25.322,3.96953102 25.643,3.96453102 25.919,4.09153102 L32.419,7.09153102 C32.773,7.25553102 33,7.60953102 33,8.00053102 L33,8.00053102 Z M59.91,36.900531 C59.797,36.649531 59.585,36.456531 59.325,36.366531 L55.886,35.175531 C56.173,33.028531 56.168,30.863531 55.87,28.717531 L59.306,27.510531 C59.564,27.419531 59.775,27.225531 59.887,26.973531 C59.999,26.722531 60.003,26.436531 59.896,26.182531 L55.77,16.280531 C55.664,16.026531 55.458,15.827531 55.201,15.730531 C54.945,15.633531 54.658,15.646531 54.41,15.766531 L51.124,17.360531 C49.809,15.639531 48.276,14.114531 46.553,12.810531 L48.133,9.51753102 C48.252,9.26953102 48.264,8.98253102 48.165,8.72653102 C48.066,8.46953102 47.866,8.26453102 47.612,8.15953102 L37.692,4.07653102 C37.438,3.97253102 37.152,3.97753102 36.9,4.08953102 C36.649,4.20253102 36.457,4.41453102 36.366,4.67453102 L34.897,8.91553102 L36.788,9.56953102 L37.91,6.32953102 L45.872,9.60653102 L44.39,12.695531 C44.178,13.136531 44.316,13.665531 44.717,13.946531 C46.766,15.385531 48.543,17.154531 49.997,19.202531 C50.28,19.600531 50.809,19.740531 51.249,19.523531 L54.331,18.027531 L57.644,25.974531 L54.422,27.106531 C53.961,27.268531 53.685,27.740531 53.769,28.221531 C54.2,30.695531 54.207,33.205531 53.786,35.681531 C53.705,36.163531 53.983,36.633531 54.445,36.793531 L57.67,37.910531 L54.394,45.871531 L51.313,44.393531 C50.873,44.181531 50.343,44.320531 50.062,44.719531 C48.623,46.768531 46.853,48.545531 44.8,50.001531 C44.4,50.284531 44.265,50.814531 44.479,51.253531 L45.973,54.331531 L38.026,57.643531 L36.893,54.418531 L35.006,55.081531 L36.49,59.305531 C36.581,59.565531 36.775,59.775531 37.026,59.887531 C37.156,59.945531 37.295,59.974531 37.434,59.974531 C37.564,59.974531 37.695,59.948531 37.818,59.897531 L47.72,55.769531 C47.974,55.664531 48.173,55.458531 48.271,55.200531 C48.367,54.943531 48.354,54.657531 48.234,54.409531 L46.641,51.128531 C48.365,49.812531 49.894,48.279531 51.198,46.556531 L54.482,48.132531 C54.73,48.251531 55.018,48.264531 55.273,48.165531 C55.53,48.066531 55.735,47.866531 55.84,47.612531 L59.923,37.692531 C60.027,37.437531 60.022,37.151531 59.91,36.900531 L59.91,36.900531 Z M43,32.000531 C43,27.544531 40.01,23.587531 35.728,22.376531 L36.272,20.451531 C41.411,21.905531 45,26.654531 45,32.000531 C45,37.353531 41.404,42.104531 36.256,43.552531 L35.715,41.628531 C40.004,40.420531 43,36.461531 43,32.000531 L43,32.000531 Z" id="Machine-Learning_Category-Icon_64_Squid"></path>
        </g>
    </g>
</svg>