<?xml version="1.0" encoding="UTF-8"?>
<svg width="90px" height="90px" viewBox="0 0 90 90" version="1.1" xmlns="http://www.w3.org/2000/svg" xmlns:xlink="http://www.w3.org/1999/xlink">
    <title>Icon-Architecture-Category/64/Analytics_64</title>
    <defs>
        <linearGradient x1="0%" y1="100%" x2="100%" y2="0%" id="linearGradient-1">
            <stop stop-color="#4D27A8" offset="0%"></stop>
            <stop stop-color="#A166FF" offset="100%"></stop>
        </linearGradient>
    </defs>
    <g id="Icon-Architecture-Category/64/Analytics_64" stroke="none" stroke-width="1" fill="none" fill-rule="evenodd">
        <rect id="Rectangle" fill="url(#linearGradient-1)" x="5" y="5" width="80" height="80"></rect>
        <rect id="#879196-Border" stroke="#879196" stroke-width="2" x="1" y="1" width="88" height="88"></rect>
        <g id="Icon-Category/64/Analytics_64" transform="translate(13.000000, 13.000000)" fill="#FFFFFF">
            <path d="M48.00013,19 L48.00013,27 L46.00013,27 L46.00013,21.536 L34.75913,34.651 C34.58213,34.857 34.32913,34.982 34.05913,34.999 C33.78213,35.008 33.52113,34.918 33.32113,34.735 L27.52713,29.387 L17.20713,39.707 L15.79313,38.293 L26.79313,27.293 C27.17213,26.913 27.78413,26.901 28.17913,27.265 L33.91613,32.562 L44.68413,20 L39.00013,20 L39.00013,18 L47.00013,18 C47.55313,18 48.00013,18.448 48.00013,19 L48.00013,19 Z M53.48513,52 L10.51513,52 L6.94313003,47 L9.00013003,47 L55.00013,47 L57.05713,47 L53.48513,52 Z M10.00013,13.912 C10.00013,12.857 10.91713,12 12.04413,12 L51.95613,12 C53.08313,12 54.00013,12.857 54.00013,13.912 L54.00013,45 L10.00013,45 L10.00013,13.912 Z M59.89013,45.542 C59.71813,45.209 59.37513,45 59.00013,45 L56.00013,45 L56.00013,13.912 C56.00013,11.755 54.18613,10 51.95613,10 L12.04413,10 C9.81413003,10 8.00013003,11.755 8.00013003,13.912 L8.00013003,45 L5.00013003,45 C4.62513003,45 4.28213003,45.209 4.11013003,45.542 C3.93913003,45.875 3.96913003,46.276 4.18713003,46.581 L9.18713003,53.581 C9.37413003,53.844 9.67713003,54 10.00013,54 L54.00013,54 C54.32313,54 54.62613,53.844 54.81313,53.581 L59.81313,46.581 C60.03113,46.276 60.06113,45.875 59.89013,45.542 L59.89013,45.542 Z" id="Analytics_Category-Icon_64_Squid-"></path>
        </g>
    </g>
</svg>