<?xml version="1.0" encoding="UTF-8"?>
<svg width="90px" height="90px" viewBox="0 0 90 90" version="1.1" xmlns="http://www.w3.org/2000/svg" xmlns:xlink="http://www.w3.org/1999/xlink">
    <title>Icon-Architecture-Category/64/Serverless_64</title>
    <defs>
        <linearGradient x1="0%" y1="100%" x2="100%" y2="0%" id="linearGradient-1">
            <stop stop-color="#4D27A8" offset="0%"></stop>
            <stop stop-color="#A166FF" offset="100%"></stop>
        </linearGradient>
    </defs>
    <g id="Icon-Architecture-Category/64/Serverless_64" stroke="none" stroke-width="1" fill="none" fill-rule="evenodd">
        <rect id="#879196-Border-Copy-22" stroke="#879196" stroke-width="2" x="1" y="1" width="88" height="88"></rect>
        <rect id="Rectangle" fill="url(#linearGradient-1)" x="5" y="5" width="80" height="80"></rect>
        <g id="Icon-Category/64/Serverless_64" transform="translate(13.000000, 13.000000)" fill="#FFFFFF">
            <path d="M60.2512103,39.005 C60.2512103,44.675 56.2562103,50.416 48.6222103,50.416 C41.0752103,50.416 36.2242103,46.008 31.6882103,41.303 C31.5152103,41.124 29.9682103,39.44 29.7922103,39.247 C27.8922103,37.167 26.0742103,35.209 24.1222103,33.575 L24.1282103,39.999 L22.1282103,40.001 L22.1192103,31.001 C22.1182103,30.449 22.5652103,30.001 23.1182103,30 L32.1272103,29.991 L32.1292103,31.991 L25.3502103,31.998 C27.4412103,33.741 29.3882103,35.84 31.2692103,37.898 C31.3902103,38.03 32.6212103,39.359 32.9962103,39.774 C37.1442103,44.354 41.8162103,48.416 48.6222103,48.416 C55.2372103,48.416 58.2512103,43.538 58.2512103,39.005 C58.2512103,34.773 55.5012103,30.217 49.4642103,30.217 C42.5902103,30.217 38.4952103,33.628 34.7352103,37.79 C34.5522103,37.58 34.3692103,37.374 34.1862103,37.162 C33.9302103,36.867 33.6682103,36.572 33.4092103,36.276 C37.3412103,31.962 41.8972103,28.217 49.4642103,28.217 L49.4782103,28.217 C49.2492103,25.099 47.3612103,22 42.6262103,22 L41.7512103,22 C41.3882103,22 41.0532103,21.803 40.8762103,21.484 C38.6272103,17.424 34.3742103,15 29.5012103,15 C22.3332103,15 16.5012103,20.832 16.5012103,28 C16.5012103,28.552 16.0542103,29 15.5012103,29 C12.8472103,29 10.3852103,30.067 8.56821029,32.005 C6.75321029,33.942 5.84921029,36.474 6.02221029,39.135 C6.34421029,44.106 10.6662103,48 15.8612103,48 L17.9042103,48 C18.3882103,48 18.8752103,47.965 19.3542103,47.895 C20.3992103,47.743 21.3342103,47.468 22.1312103,47.078 C24.5692103,45.883 26.5852103,44.001 28.5342103,41.858 C28.6902103,42.037 28.8452103,42.212 29.0032103,42.394 C29.2852103,42.719 29.5762103,43.041 29.8612103,43.367 C27.8462103,45.561 25.6592103,47.576 23.0112103,48.874 C22.0262103,49.356 20.8932103,49.693 19.6412103,49.875 C19.0672103,49.958 18.4832103,50 17.9042103,50 L15.8612103,50 C9.61521029,50 4.41621029,45.284 4.02521029,39.265 C3.81621029,36.046 4.91221029,32.982 7.10821029,30.638 C9.05321029,28.563 11.7172103,27.282 14.5312103,27.042 C15.0272103,19.215 21.5522103,13 29.5012103,13 C34.9042103,13 39.6542103,15.605 42.3262103,20 L42.6262103,20 C47.8462103,20 51.2772103,23.266 51.4902103,28.367 C57.4932103,29.289 60.2512103,34.309 60.2512103,39.005" id="Serverless_64"></path>
        </g>
    </g>
</svg>