<?xml version="1.0" encoding="UTF-8"?>
<svg width="90px" height="90px" viewBox="0 0 90 90" version="1.1" xmlns="http://www.w3.org/2000/svg" xmlns:xlink="http://www.w3.org/1999/xlink">
    <title>Icon-Architecture-Category/64/Internet-of-Things_64</title>
    <defs>
        <linearGradient x1="0%" y1="100%" x2="100%" y2="0%" id="linearGradient-1">
            <stop stop-color="#1B660F" offset="0%"></stop>
            <stop stop-color="#6CAE3E" offset="100%"></stop>
        </linearGradient>
    </defs>
    <g id="Icon-Architecture-Category/64/Internet-of-Things_64" stroke="none" stroke-width="1" fill="none" fill-rule="evenodd">
        <rect id="Rectangle" fill="url(#linearGradient-1)" x="5" y="5" width="80" height="80"></rect>
        <rect id="#879196-Border-Copy-12" stroke="#879196" stroke-width="2" x="1" y="1" width="88" height="88"></rect>
        <g id="Icon-Category/64/IoT_64" transform="translate(13.000000, 13.000000)" fill="#FFFFFF">
            <path d="M51.571,38.048 C48.026,38.048 45.142,35.164 45.142,31.619 C45.142,28.074 48.026,25.191 51.571,25.191 C55.116,25.191 58,28.074 58,31.619 C58,35.164 55.116,38.048 51.571,38.048 M39,51.676 L39,33 L43.265,33 C43.905,36.853 47.159,39.823 51.14,40.026 C48.899,45.547 44.44,49.722 39,51.676 M33,52.865 L33,20.792 C36.87,20.332 39.942,17.244 40.373,13.365 C44.831,15.348 48.466,18.871 50.59,23.253 C46.606,23.717 43.468,26.968 43.174,31 L38,31 C37.447,31 37,31.448 37,32 L37,52.292 C35.706,52.613 34.366,52.8 33,52.865 M27,52.292 L27,32.119 C27,31.575 26.564,31.131 26.019,31.119 L20.827,31.016 C20.539,26.977 17.398,23.718 13.41,23.253 C15.534,18.871 19.169,15.348 23.627,13.365 C24.057,17.244 27.13,20.332 31,20.792 L31,52.865 C29.634,52.8 28.294,52.613 27,52.292 M12.859,40.026 C16.836,39.824 20.087,36.845 20.731,33 L25,33 L25,51.676 C19.559,49.722 15.1,45.547 12.859,40.026 M6,31.619 C6,28.074 8.883,25.191 12.428,25.191 C15.973,25.191 18.857,28.074 18.857,31.619 C18.857,35.164 15.973,38.048 12.428,38.048 C8.883,38.048 6,35.164 6,31.619 M32,6 C35.545,6 38.428,8.884 38.428,12.429 C38.428,15.973 35.545,18.857 32,18.857 C28.455,18.857 25.571,15.973 25.571,12.429 C25.571,8.884 28.455,6 32,6 M60,31.619 C60,27.393 56.87,23.894 52.808,23.292 C50.445,17.809 45.971,13.409 40.42,11.187 L40.352,11.355 C39.822,7.214 36.283,4 32,4 C27.717,4 24.177,7.214 23.647,11.355 L23.58,11.187 C18.028,13.409 13.554,17.809 11.191,23.292 C7.13,23.894 4,27.393 4,31.619 C4,35.66 6.86,39.044 10.662,39.859 C13.068,46.602 18.423,51.675 25,53.802 L25,60 L27,60 L27,54.34 C28.3,54.632 29.636,54.806 31,54.865 L31,60 L33,60 L33,54.865 C34.363,54.806 35.7,54.632 37,54.34 L37,60 L39,60 L39,53.802 C45.577,51.675 50.931,46.602 53.338,39.859 C57.139,39.044 60,35.66 60,31.619" id="IoT_Category-Icon_64_Squid--"></path>
        </g>
    </g>
</svg>