<?xml version="1.0" encoding="UTF-8"?>
<svg width="90px" height="90px" viewBox="0 0 90 90" version="1.1" xmlns="http://www.w3.org/2000/svg" xmlns:xlink="http://www.w3.org/1999/xlink">
    <title>Icon-Architecture-Category/64/Blockchain_64</title>
    <defs>
        <linearGradient x1="0%" y1="100%" x2="100%" y2="0%" id="linearGradient-1">
            <stop stop-color="#C8511B" offset="0%"></stop>
            <stop stop-color="#FF9900" offset="100%"></stop>
        </linearGradient>
    </defs>
    <g id="Icon-Architecture-Category/64/Blockchain_64" stroke="none" stroke-width="1" fill="none" fill-rule="evenodd">
        <rect id="Rectangle" fill="url(#linearGradient-1)" x="5" y="5" width="80" height="80"></rect>
        <rect id="#879196-Border-Copy-3" stroke="#879196" stroke-width="2" x="1" y="1" width="88" height="88"></rect>
        <g id="Icon-Category/64/Blockchain_64" transform="translate(13.000000, 13.000000)" fill="#FFFFFF">
            <path d="M58,39 L45.649,39 C45.49,39 45.157,38.867 45,38.752 L45,34 L39,34 L39,39 L26.649,39 C26.49,39 26.157,38.867 26,38.752 L26,34 L20,34 L20,38.752 C19.843,38.867 19.51,39 19.351,39 L7,39 L7,26 L19.443,26 C19.562,26 19.895,26.102 20,26.194 L20,31 L26,31 L26,26.194 C26.105,26.102 26.438,26 26.557,26 L39,26 L39,31 L45,31 L45,26.194 C45.105,26.102 45.382,26 45.5,26 L58,26 L58,39 Z M57.966,24 L45.557,24 C44.556,24 43.103,24.807 43.103,26.071 L43.103,29 L41,29 L41,26.071 C41,24.929 40.088,24 38.966,24 L26.557,24 C25.556,24 24.103,24.807 24.103,26.071 L24.103,29 L21.897,29 L21.897,26.071 C21.897,24.807 20.444,24 19.443,24 L7.034,24 C5.912,24 5,24.929 5,26.071 L5,38.929 C5,40.071 5.912,41 7.034,41 L19.351,41 C20.275,41 22,40.289 22,38.929 L22,36 L24,36 L24,38.929 C24,40.289 25.725,41 26.649,41 L38.966,41 C40.088,41 41,40.071 41,38.929 L41,36 L43,36 L43,38.929 C43,40.289 44.725,41 45.649,41 L57.966,41 C59.088,41 60,40.071 60,38.929 L60,26.071 C60,24.929 59.088,24 57.966,24 L57.966,24 Z M54,30 L54.022,35 L49,35.022 L48.978,30 L54,30 Z M48.978,37 L54.022,37 C55.113,37 56,36.113 56,35.022 L56,29.978 C56,28.887 55.113,28 54.022,28 L48.978,28 C47.887,28 47,28.887 47,29.978 L47,35.022 C47,36.113 47.887,37 48.978,37 L48.978,37 Z M30,35.022 L29.978,30 L35,30 L35.022,35 L30,35.022 Z M35.022,28 L29.978,28 C28.887,28 28,28.887 28,29.978 L28,35.022 C28,36.113 28.887,37 29.978,37 L35.022,37 C36.113,37 37,36.113 37,35.022 L37,29.978 C37,28.887 36.113,28 35.022,28 L35.022,28 Z M11,35.022 L11,30 L16,29.978 L16.022,35 L11,35.022 Z M16.022,28 L10.978,28 C9.887,28 9,28.887 9,29.978 L9,35.022 C9,36.113 9.887,37 10.978,37 L16.022,37 C17.113,37 18,36.113 18,35.022 L18,29.978 C18,28.887 17.113,28 16.022,28 L16.022,28 Z" id="Blockchain_Category-Icon_64_Squid--"></path>
        </g>
    </g>
</svg>