<?xml version="1.0" encoding="UTF-8"?>
<svg width="90px" height="90px" viewBox="0 0 90 90" version="1.1" xmlns="http://www.w3.org/2000/svg" xmlns:xlink="http://www.w3.org/1999/xlink">
    <title>Icon-Architecture-Category/64/Migration-Transfer_64</title>
    <defs>
        <linearGradient x1="0%" y1="100%" x2="100%" y2="0%" id="linearGradient-1">
            <stop stop-color="#055F4E" offset="0%"></stop>
            <stop stop-color="#56C0A7" offset="100%"></stop>
        </linearGradient>
    </defs>
    <g id="Icon-Architecture-Category/64/Migration-Transfer_64" stroke="none" stroke-width="1" fill="none" fill-rule="evenodd">
        <rect id="Rectangle" fill="url(#linearGradient-1)" x="5" y="5" width="80" height="80"></rect>
        <rect id="#879196-Border-Copy-16" stroke="#879196" stroke-width="2" x="1" y="1" width="88" height="88"></rect>
        <g id="Icon-Category/64/Migration-Transfer_64" transform="translate(13.000000, 13.000000)" fill="#FFFFFF">
            <path d="M43.0671694,46.184 L31.3581694,31.088 L19.6491694,46.184 L27.0051694,46.184 C27.5581694,46.184 28.0051694,46.632 28.0051694,47.184 L28.0051694,57.184 L35.0051694,57.184 L35.0051694,47.184 C35.0051694,46.632 35.4531694,46.184 36.0051694,46.184 L43.0671694,46.184 Z M45.8981694,46.571 C46.1321694,46.872 46.1741694,47.281 46.0061694,47.624 C45.8381694,47.967 45.4901694,48.184 45.1081694,48.184 L37.0051694,48.184 L37.0051694,58.184 C37.0051694,58.736 36.5581694,59.184 36.0051694,59.184 L27.0051694,59.184 C26.4531694,59.184 26.0051694,58.736 26.0051694,58.184 L26.0051694,48.184 L17.6081694,48.184 C17.2261694,48.184 16.8781694,47.967 16.7101694,47.624 C16.5421694,47.281 16.5841694,46.872 16.8181694,46.571 L30.5681694,28.844 C30.9471694,28.355 31.7691694,28.355 32.1481694,28.844 L45.8981694,46.571 Z M60.0051694,31.053 C60.0051694,37.398 56.1361694,42.184 51.0051694,42.184 L45.0051694,42.184 L45.0051694,40.184 L51.0051694,40.184 C54.9961694,40.184 58.0051694,36.258 58.0051694,31.053 C58.0051694,28.183 56.8841694,23.368 49.3741694,23.368 C49.0661694,23.368 48.7751694,23.226 48.5861694,22.983 C48.3961694,22.741 48.3291694,22.424 48.4041694,22.125 C49.0081694,19.705 48.5071694,17.476 47.0281694,16.01 C45.5631694,14.558 43.3581694,14.08 40.9781694,14.696 C40.7201694,14.763 40.4481694,14.725 40.2181694,14.589 C39.9891694,14.454 39.8241694,14.232 39.7581694,13.975 C38.0811694,7.383 32.2551694,6 27.6641694,6 C27.1751694,6.002 15.6371694,6.228 15.6371694,20.921 C15.6371694,21.473 15.1901694,21.921 14.6371694,21.921 C11.8741694,21.921 9.73016936,22.699 8.26416936,24.235 C5.85416936,26.76 6.00316936,30.571 6.00416936,30.609 C6.00516936,35.999 9.79716936,40.184 14.6371694,40.184 L18.0051694,40.184 L18.0051694,42.184 L14.6371694,42.184 C8.67516936,42.184 4.00516936,37.121 4.00516936,30.658 C3.99716936,30.519 3.80216936,26.027 6.80316936,22.869 C8.47516936,21.109 10.7761694,20.13 13.6531694,19.951 C14.1791694,4.186 27.5261694,4 27.6641694,4 C34.7711694,4 39.6211694,7.029 41.4281694,12.559 C44.1561694,12.114 46.6631694,12.832 48.4361694,14.59 C50.1711694,16.309 50.9221694,18.747 50.5731694,21.409 C56.5051694,21.823 60.0051694,25.362 60.0051694,31.053 L60.0051694,31.053 Z" id="Migration-Transfer_Category-Icon_64_Squid"></path>
        </g>
    </g>
</svg>