<?xml version="1.0" encoding="UTF-8"?>
<svg width="90px" height="90px" viewBox="0 0 90 90" version="1.1" xmlns="http://www.w3.org/2000/svg" xmlns:xlink="http://www.w3.org/1999/xlink">
    <title>Icon-Architecture-Category/64/Networking-Content-Delivery_64</title>
    <defs>
        <linearGradient x1="0%" y1="100%" x2="100%" y2="0%" id="linearGradient-1">
            <stop stop-color="#4D27A8" offset="0%"></stop>
            <stop stop-color="#A166FF" offset="100%"></stop>
        </linearGradient>
    </defs>
    <g id="Icon-Architecture-Category/64/Networking-Content-Delivery_64" stroke="none" stroke-width="1" fill="none" fill-rule="evenodd">
        <rect id="Rectangle" fill="url(#linearGradient-1)" x="5" y="5" width="80" height="80"></rect>
        <rect id="#879196-Border-Copy-18" stroke="#879196" stroke-width="2" x="1" y="1" width="88" height="88"></rect>
        <g id="Icon-Category/64/Networking-Content-Delivery_64" transform="translate(13.000000, 13.000000)" fill="#FFFFFF">
            <path d="M8,28.23 C8.002,27.915 8.156,20.516 17.162,20.516 C17.715,20.516 18.162,20.068 18.162,19.516 C18.162,6.214 28.345,6.002 28.775,6 C34.081,6 37.126,8.256 38.359,13.102 C38.435,13.397 38.64,13.643 38.918,13.768 C39.196,13.893 39.517,13.883 39.787,13.744 C41.283,12.971 42.616,13.81 43.279,14.377 C44.811,15.687 46.021,18.331 45.247,20.651 C45.145,20.957 45.196,21.292 45.384,21.552 C45.572,21.813 45.874,21.968 46.195,21.968 C52.932,21.968 56,25.358 56,28.509 C56,33.09 53.355,35.937 49.099,35.937 L15.71,35.937 C11.314,35.937 8,32.622 8,28.23 L8,28.23 Z M50.313,49.437 C50.313,51.366 48.742,52.937 46.813,52.937 C44.883,52.937 43.313,51.366 43.313,49.437 C43.313,47.507 44.883,45.937 46.813,45.937 C48.742,45.937 50.313,47.507 50.313,49.437 L50.313,49.437 Z M35.812,54.437 C35.812,56.366 34.242,57.937 32.312,57.937 C30.383,57.937 28.812,56.366 28.812,54.437 C28.812,52.507 30.383,50.937 32.312,50.937 C34.242,50.937 35.812,52.507 35.812,54.437 L35.812,54.437 Z M17.813,52.937 C15.883,52.937 14.312,51.366 14.312,49.437 C14.312,47.507 15.883,45.937 17.813,45.937 C19.742,45.937 21.313,47.507 21.313,49.437 C21.313,51.366 19.742,52.937 17.813,52.937 L17.813,52.937 Z M49.099,37.937 C54.506,37.937 58,34.236 58,28.509 C58,24.611 54.684,20.431 47.434,20.003 C47.784,17.209 46.381,14.398 44.58,12.857 C43.153,11.636 41.531,11.187 39.989,11.549 C38.34,6.538 34.572,4 28.775,4 C28.652,4 16.696,4.169 16.18,18.542 C6.119,19.095 6,28.132 6,28.227 C6,33.762 10.175,37.937 15.71,37.937 L28.192,37.937 L20.517,44.653 C19.717,44.199 18.795,43.937 17.813,43.937 C14.78,43.937 12.312,46.404 12.312,49.437 C12.312,52.469 14.78,54.937 17.813,54.937 C20.845,54.937 23.313,52.469 23.313,49.437 C23.313,48.116 22.844,46.903 22.065,45.954 L31.312,37.937 L31.312,49.032 C28.757,49.504 26.812,51.746 26.812,54.437 C26.812,57.469 29.28,59.937 32.312,59.937 C35.345,59.937 37.812,57.469 37.812,54.437 C37.812,51.746 35.868,49.504 33.312,49.032 L33.312,37.937 L42.56,45.954 C41.781,46.903 41.313,48.116 41.313,49.437 C41.313,52.469 43.78,54.937 46.813,54.937 C49.845,54.937 52.313,52.469 52.313,49.437 C52.313,46.404 49.845,43.937 46.813,43.937 C45.83,43.937 44.908,44.199 44.108,44.653 L36.433,37.937 L49.099,37.937 Z" id="Networking-Content-Delivery_Category-Icon_64_Squid"></path>
        </g>
    </g>
</svg>