<?xml version="1.0" encoding="UTF-8"?>
<svg width="90px" height="90px" viewBox="0 0 90 90" version="1.1" xmlns="http://www.w3.org/2000/svg" xmlns:xlink="http://www.w3.org/1999/xlink">
    <title>Icon-Architecture-Category/64/Satellite_64</title>
    <defs>
        <linearGradient x1="0%" y1="100%" x2="100%" y2="0%" id="linearGradient-1">
            <stop stop-color="#2E27AD" offset="0%"></stop>
            <stop stop-color="#527FFF" offset="100%"></stop>
        </linearGradient>
    </defs>
    <g id="Icon-Architecture-Category/64/Satellite_64" stroke="none" stroke-width="1" fill="none" fill-rule="evenodd">
        <rect id="Rectangle" fill="url(#linearGradient-1)" x="5" y="5" width="80" height="80"></rect>
        <rect id="#879196-Border-Copy-21" stroke="#879196" stroke-width="2" x="1" y="1" width="88" height="88"></rect>
        <g id="Icon-Category/64/Satellite_64" transform="translate(13.000000, 13.000000)" fill="#FFFFFF">
            <path d="M48.7056962,34.9847954 C45.7676962,36.7727954 42.1876962,38.5077954 38.1466962,40.0587954 C30.6556962,42.9337954 22.0216962,44.8917954 15.4276962,45.0007954 C18.6316962,50.0517954 24.2586962,53.4217954 30.6706962,53.4217954 C40.6256962,53.4217954 48.7256962,45.3227954 48.7256962,35.3677954 C48.7256962,35.2377954 48.7086962,35.1127954 48.7056962,34.9847954 M12.0896962,42.8767954 C11.1466962,40.5547954 10.6166962,38.0237954 10.6166962,35.3677954 C10.6166962,35.2337954 10.6346962,35.1037954 10.6376962,34.9707954 C8.41169622,36.8187954 7.10169622,38.5587954 7.00569622,39.8757954 C6.96469622,40.4377954 7.14869622,40.8967954 7.58869622,41.3187954 C8.41069622,42.1097954 9.97069622,42.6367954 12.0896962,42.8767954 M12.6166962,35.3677954 C12.6166962,38.1047954 13.2466962,40.6907954 14.3416962,43.0177954 C20.0436962,43.1267954 28.4446962,41.6407954 37.4306962,38.1917954 C42.0326962,36.4257954 45.7086962,34.5487954 48.5136962,32.7507954 C47.2386962,24.0337954 39.7336962,17.3127954 30.6706962,17.3127954 C20.7156962,17.3127954 12.6166962,25.4117954 12.6166962,35.3677954 M52.2686962,20.0467954 C52.2686962,19.2197954 51.5956962,18.5467954 50.7686962,18.5467954 C49.9406962,18.5467954 49.2676962,19.2197954 49.2676962,20.0467954 C49.2676962,20.8737954 49.9406962,21.5467954 50.7686962,21.5467954 C51.5956962,21.5467954 52.2686962,20.8737954 52.2686962,20.0467954 M56.0346962,22.7067954 C57.0796962,23.7197954 57.4576962,24.9567954 57.1766962,26.3257954 C56.7106962,28.5887954 54.3516962,31.1797954 50.6426962,33.7277954 C50.6856962,34.2697954 50.7256962,34.8137954 50.7256962,35.3677954 C50.7256962,46.4257954 41.7286962,55.4217954 30.6706962,55.4217954 C23.0866962,55.4217954 16.4746962,51.1887954 13.0666962,44.9617954 C10.0156962,44.7757954 7.58369622,44.0877954 6.20269622,42.7607954 C5.33869622,41.9297954 4.92669622,40.8807954 5.01069622,39.7297954 C5.21569622,36.9377954 8.26169622,34.1467954 10.8866962,32.2387954 C12.3956962,22.6657954 20.6796962,15.3127954 30.6706962,15.3127954 C40.4076962,15.3127954 48.5386962,22.2907954 50.3446962,31.5067954 C53.3116962,29.3337954 54.9236962,27.3507954 55.2166962,25.9227954 C55.3596962,25.2267954 55.1916962,24.6737954 54.6886962,24.1847954 C54.0856962,23.6717954 53.3436962,23.2817954 52.5406962,23.0467954 C52.0186962,23.3567954 51.4176962,23.5467954 50.7686962,23.5467954 C48.8386962,23.5467954 47.2686962,21.9767954 47.2686962,20.0467954 C47.2686962,18.1167954 48.8386962,16.5467954 50.7686962,16.5467954 C52.6976962,16.5467954 54.2676962,18.1167954 54.2676962,20.0467954 C54.2676962,20.5457954 54.1596962,21.0177954 53.9716962,21.4467954 C54.7146962,21.7627954 55.4156962,22.1787954 56.0346962,22.7067954 M49.1916962,14.7487954 C50.4116962,14.3387954 51.7176962,14.4227954 52.8716962,14.9937954 C53.8136962,15.4597954 54.5906962,16.2347954 55.0566962,17.1777954 L56.8496962,16.2917954 C56.1886962,14.9577954 55.0916962,13.8597954 53.7586962,13.2007954 C52.1256962,12.3937954 50.2766962,12.2707954 48.5516962,12.8547954 C46.8256962,13.4387954 45.4326962,14.6587954 44.6256962,16.2917954 L46.4186962,17.1777954 C46.9886962,16.0247954 47.9736962,15.1617954 49.1916962,14.7487954 M59.8946962,14.6757954 L58.1036962,15.5657954 C57.3096962,13.9677954 55.9936962,12.6517954 54.3966962,11.8587954 C50.3376962,9.8407954 45.3896962,11.5027954 43.3696962,15.5657954 L41.5786962,14.6757954 C44.0876962,9.6247954 50.2366962,7.5577954 55.2876962,10.0677954 C57.2716962,11.0537954 58.9086962,12.6907954 59.8946962,14.6757954" id="Satellite_Category-Icon_64_Squid"></path>
        </g>
    </g>
</svg>