<?xml version="1.0" encoding="UTF-8"?>
<svg width="90px" height="90px" viewBox="0 0 90 90" version="1.1" xmlns="http://www.w3.org/2000/svg" xmlns:xlink="http://www.w3.org/1999/xlink">
    <title>Icon-Architecture-Category/64/Application-Integration_64</title>
    <defs>
        <linearGradient x1="0%" y1="100%" x2="100%" y2="0%" id="linearGradient-1">
            <stop stop-color="#B0084D" offset="0%"></stop>
            <stop stop-color="#FF4F8B" offset="100%"></stop>
        </linearGradient>
    </defs>
    <g id="Icon-Architecture-Category/64/Application-Integration_64" stroke="none" stroke-width="1" fill="none" fill-rule="evenodd">
        <rect id="Rectangle" fill="url(#linearGradient-1)" x="5" y="5" width="80" height="80"></rect>
        <rect id="#879196-Border" stroke="#879196" stroke-width="2" x="1" y="1" width="88" height="88"></rect>
        <g id="Icon-Category/64/Application-Integration_64" transform="translate(13.000000, 13.000000)" fill="#FFFFFF">
            <path d="M58,31 L49.385,31 C49.796,30.171 50.013,29.254 50.013,28.302 C50.013,26.255 48.996,24.353 47.293,23.213 C45.553,22.048 43.389,21.861 41.36,22.698 C39.992,23.261 38.878,24.371 38.303,25.741 C37.553,27.532 37.61,29.413 38.399,31 L32,31 L32,21.154 C32,20.746 31.751,20.378 31.372,20.226 C30.991,20.075 30.559,20.168 30.276,20.464 C29.319,21.467 27.564,22.232 25.514,21.373 C24.628,21.001 23.911,20.282 23.547,19.398 C22.968,17.995 23.088,16.516 23.875,15.339 C24.644,14.192 25.924,13.508 27.302,13.508 C28.431,13.508 29.486,13.964 30.276,14.792 C30.559,15.087 30.991,15.181 31.372,15.029 C31.751,14.877 32,14.51 32,14.101 L32,6 L57,6 C57.552,6 58,6.449 58,7 L58,31 Z M58,57 C58,57.551 57.552,58 57,58 L32,58 L32,49.479 C33.587,50.268 35.467,50.326 37.26,49.574 C38.629,49 39.738,47.887 40.303,46.518 C41.14,44.487 40.951,42.324 39.786,40.583 C38.646,38.881 36.745,37.865 34.698,37.865 C33.746,37.865 32.829,38.082 32,38.494 L32,33 L40.366,33 C40.775,33 41.143,32.751 41.295,32.372 C41.446,31.992 41.353,31.559 41.057,31.276 C40.054,30.32 39.288,28.566 40.147,26.514 C40.52,25.627 41.239,24.911 42.122,24.546 C43.525,23.97 45.004,24.088 46.181,24.875 C47.328,25.643 48.013,26.924 48.013,28.302 C48.013,29.431 47.557,30.487 46.729,31.276 C46.433,31.558 46.339,31.992 46.49,32.372 C46.643,32.751 47.01,33 47.419,33 L58,33 L58,57 Z M6,57 L6,33 L12.042,33 C11.253,34.587 11.196,36.469 11.946,38.26 C12.521,39.629 13.635,40.739 15.003,41.302 C15.84,41.647 16.699,41.819 17.543,41.819 C18.745,41.819 19.914,41.471 20.937,40.787 C22.64,39.647 23.656,37.745 23.656,35.698 C23.656,34.746 23.439,33.829 23.027,33 L30,33 L30,40.458 C30,40.867 30.249,41.235 30.628,41.387 C31.008,41.539 31.441,41.444 31.724,41.149 C32.514,40.321 33.57,39.865 34.698,39.865 C36.076,39.865 37.356,40.549 38.125,41.696 C38.912,42.873 39.032,44.352 38.453,45.755 C38.089,46.639 37.372,47.358 36.486,47.729 C34.433,48.589 32.68,47.824 31.724,46.821 C31.441,46.525 31.008,46.431 30.628,46.583 C30.249,46.735 30,47.103 30,47.511 L30,58 L7,58 C6.448,58 6,57.551 6,57 L6,57 Z M7,6 L30,6 L30,12.136 C29.171,11.725 28.254,11.508 27.302,11.508 C25.255,11.508 23.354,12.524 22.214,14.227 C21.049,15.967 20.86,18.13 21.697,20.161 C22.262,21.53 23.371,22.644 24.74,23.217 C26.532,23.967 28.412,23.91 30,23.122 L30,31 L21.062,31 C20.653,31 20.286,31.249 20.134,31.628 C19.982,32.008 20.076,32.441 20.372,32.724 C21.2,33.514 21.656,34.57 21.656,35.698 C21.656,37.076 20.972,38.357 19.824,39.125 C18.648,39.913 17.169,40.034 15.765,39.453 C14.882,39.089 14.162,38.373 13.791,37.487 C12.931,35.435 13.696,33.681 14.699,32.724 C14.995,32.441 15.089,32.007 14.937,31.628 C14.785,31.249 14.418,31 14.009,31 L6,31 L6,7 C6,6.449 6.448,6 7,6 L7,6 Z M57,4 L7,4 C5.346,4 4,5.346 4,7 L4,57 C4,58.654 5.346,60 7,60 L57,60 C58.654,60 60,58.654 60,57 L60,7 C60,5.346 58.654,4 57,4 L57,4 Z" id="Application-Integration_Category-Icon_64_Squid--"></path>
        </g>
    </g>
</svg>