<?xml version="1.0" encoding="UTF-8"?>
<svg width="90px" height="90px" viewBox="0 0 90 90" version="1.1" xmlns="http://www.w3.org/2000/svg" xmlns:xlink="http://www.w3.org/1999/xlink">
    <title>Icon-Architecture-Category/64/Robotics_64</title>
    <defs>
        <linearGradient x1="0%" y1="100%" x2="100%" y2="0%" id="linearGradient-1">
            <stop stop-color="#BD0816" offset="0%"></stop>
            <stop stop-color="#FF5252" offset="100%"></stop>
        </linearGradient>
    </defs>
    <g id="Icon-Architecture-Category/64/Robotics_64" stroke="none" stroke-width="1" fill="none" fill-rule="evenodd">
        <rect id="Rectangle" fill="url(#linearGradient-1)" x="5" y="5" width="80" height="80"></rect>
        <rect id="#879196-Border-Copy-20" stroke="#879196" stroke-width="2" x="1" y="1" width="88" height="88"></rect>
        <g id="Icon-Category/64/Robotics_64" transform="translate(13.000000, 13.000000)" fill="#FFFFFF">
            <path d="M20.85,10.628 L19.434,9.215 C22.787,5.856 27.249,4.003 31.996,4 L32.01,4 C36.751,4 41.209,5.844 44.565,9.195 L43.153,10.61 C40.174,7.637 36.217,6 32.01,6 L31.997,6 C27.785,6.003 23.826,7.647 20.85,10.628 L20.85,10.628 Z M41.175,12.848 L39.761,14.262 C35.482,9.983 28.519,9.983 24.24,14.262 L22.826,12.848 C27.884,7.789 36.117,7.789 41.175,12.848 L41.175,12.848 Z M58,53.376 L56,54.889 L56,43.472 L58,45.025 L58,53.376 Z M14,40.336 C14,30.074 21.739,22.336 32,22.336 C42.262,22.336 50,30.074 50,40.336 L50,57.5 L14,57.5 L14,40.336 Z M10,57.5 L12,57.5 L12,40.5 L10,40.5 L10,57.5 Z M6,53.376 L6,45.025 L8,43.472 L8,54.889 L6,53.376 Z M30,18.024 C30,17.184 30.684,16.5 31.524,16.5 L32.477,16.5 C33.317,16.5 34,17.184 34,18.024 L34,20.431 C33.344,20.371 32.678,20.336 32,20.336 C31.323,20.336 30.657,20.371 30,20.431 L30,18.024 Z M52,57.5 L54,57.5 L54,40.5 L52,40.5 L52,57.5 Z M59.614,43.746 L56,40.94 L56,39.5 C56,38.948 55.553,38.5 55,38.5 L51.913,38.5 C51.155,29.365 44.773,22.353 36,20.709 L36,18.024 C36,16.081 34.419,14.5 32.477,14.5 L31.524,14.5 C29.581,14.5 28,16.081 28,18.024 L28,20.709 C19.228,22.353 12.846,29.365 12.087,38.5 L9,38.5 C8.448,38.5 8,38.948 8,39.5 L8,40.94 L4.387,43.746 C4.143,43.935 4,44.227 4,44.536 L4,53.874 C4,54.187 4.147,54.482 4.397,54.671 L8,57.398 L8,57.5 L8,58.5 L8,59.5 L56,59.5 L56,58.5 L56,57.5 L56,57.398 L59.604,54.671 C59.854,54.482 60,54.187 60,53.874 L60,44.536 C60,44.227 59.858,43.935 59.614,43.746 L59.614,43.746 Z M41.224,43.165 C40.093,43.604 38.906,43.42 38.042,42.676 C37.185,41.936 36.826,40.819 37.081,39.689 C37.325,38.616 38.208,37.73 39.281,37.485 C39.525,37.429 39.768,37.402 40.006,37.402 C40.685,37.402 41.329,37.625 41.869,38.055 C42.588,38.629 43,39.484 43,40.413 C42.998,41.649 42.285,42.754 41.224,43.165 L41.224,43.165 Z M43.116,36.492 C41.917,35.536 40.358,35.189 38.835,35.535 C37,35.954 35.546,37.411 35.13,39.247 C34.715,41.084 35.33,42.978 36.736,44.191 C37.663,44.99 38.806,45.403 39.994,45.403 C40.64,45.403 41.301,45.28 41.947,45.03 C43.77,44.324 44.996,42.47 45,40.403 C45,38.873 44.314,37.447 43.116,36.492 L43.116,36.492 Z M25.224,43.165 C24.094,43.604 22.906,43.42 22.042,42.676 C21.185,41.936 20.826,40.819 21.081,39.689 C21.325,38.616 22.208,37.73 23.281,37.485 C23.525,37.429 23.768,37.402 24.006,37.402 C24.685,37.402 25.329,37.625 25.869,38.055 C26.588,38.629 27,39.484 27,40.413 C26.998,41.649 26.285,42.754 25.224,43.165 L25.224,43.165 Z M27.116,36.492 C25.917,35.536 24.358,35.189 22.835,35.535 C21,35.954 19.546,37.411 19.13,39.247 C18.715,41.084 19.33,42.978 20.736,44.191 C21.663,44.99 22.806,45.403 23.994,45.403 C24.64,45.403 25.301,45.28 25.947,45.03 C27.77,44.324 28.996,42.47 29,40.403 C29,38.873 28.314,37.447 27.116,36.492 L27.116,36.492 Z" id="Robotics_Category-Icon_64_Squid"></path>
        </g>
    </g>
</svg>