<?xml version="1.0" encoding="UTF-8"?>
<svg width="90px" height="90px" viewBox="0 0 90 90" version="1.1" xmlns="http://www.w3.org/2000/svg" xmlns:xlink="http://www.w3.org/1999/xlink">
    <title>Icon-Architecture-Category/64/Media-Services_64</title>
    <defs>
        <linearGradient x1="0%" y1="100%" x2="100%" y2="0%" id="linearGradient-1">
            <stop stop-color="#C8511B" offset="0%"></stop>
            <stop stop-color="#FF9900" offset="100%"></stop>
        </linearGradient>
    </defs>
    <g id="Icon-Architecture-Category/64/Media-Services_64" stroke="none" stroke-width="1" fill="none" fill-rule="evenodd">
        <rect id="Rectangle" fill="url(#linearGradient-1)" x="5" y="5" width="80" height="80"></rect>
        <rect id="#879196-Border-Copy-15" stroke="#879196" stroke-width="2" x="1" y="1" width="88" height="88"></rect>
        <g id="Icon-Category/64/Media-Services_64" transform="translate(13.000000, 13.000000)" fill="#FFFFFF">
            <path d="M32.875,31.854 L18.613,40.431 C18.439,40.545 18.285,40.491 18.208,40.451 C18.131,40.409 18,40.308 18,40.103 L18,22.999 C18,22.793 18.131,22.692 18.209,22.65 C18.248,22.629 18.309,22.605 18.386,22.605 C18.46,22.605 18.55,22.627 18.652,22.695 L32.836,31.222 C32.989,31.324 33.012,31.472 33.012,31.551 C33.012,31.629 32.989,31.777 32.875,31.854 L32.875,31.854 Z M33.906,29.533 L19.723,21.006 C18.986,20.516 18.046,20.469 17.265,20.887 C16.484,21.305 16,22.114 16,22.999 L16,40.103 C16,40.987 16.484,41.796 17.265,42.214 C17.624,42.406 18.018,42.5 18.405,42.5 C18.86,42.5 19.308,42.371 19.684,42.12 L33.945,33.543 C34.613,33.098 35.012,32.354 35.012,31.551 C35.012,30.749 34.613,30.003 33.906,29.533 L33.906,29.533 Z M58,43.605 C58,43.823 57.823,44 57.605,44 L54,44 L54,20 L57.605,20 C57.823,20 58,20.176 58,20.394 L58,43.605 Z M47.535,36 L42,36 L42,50.21 C42,51.197 41.163,52 40.135,52 L7.865,52 C6.837,52 6,51.197 6,50.21 L6,13.789 C6,12.802 6.837,12 7.865,12 L40.135,12 C41.163,12 42,12.802 42,13.789 L42,28 L47.535,28 L52,21.302 L52,42.697 L47.535,36 Z M57.605,18 L54,18 L52,18 L51.798,18 L46.465,26 L44,26 L44,13.789 C44,11.7 42.266,10 40.135,10 L7.865,10 C5.734,10 4,11.7 4,13.789 L4,50.21 C4,52.299 5.734,54 7.865,54 L40.135,54 C42.266,54 44,52.299 44,50.21 L44,38 L46.465,38 L51.798,46 L57.605,46 C58.926,46 60,44.925 60,43.605 L60,20.394 C60,19.074 58.926,18 57.605,18 L57.605,18 Z" id="Media-Services_Category-Icon_64_Squid"></path>
        </g>
    </g>
</svg>