<?xml version="1.0" encoding="UTF-8"?>
<svg width="90px" height="90px" viewBox="0 0 90 90" version="1.1" xmlns="http://www.w3.org/2000/svg" xmlns:xlink="http://www.w3.org/1999/xlink">
    <title>Icon-Architecture-Category/64/Business-Applications_64</title>
    <defs>
        <linearGradient x1="0%" y1="100%" x2="100%" y2="0%" id="linearGradient-1">
            <stop stop-color="#BD0816" offset="0%"></stop>
            <stop stop-color="#FF5252" offset="100%"></stop>
        </linearGradient>
    </defs>
    <g id="Icon-Architecture-Category/64/Business-Applications_64" stroke="none" stroke-width="1" fill="none" fill-rule="evenodd">
        <rect id="Rectangle" fill="url(#linearGradient-1)" x="5" y="5" width="80" height="80"></rect>
        <rect id="#879196-Border-Copy-4" stroke="#879196" stroke-width="2" x="1" y="1" width="88" height="88"></rect>
        <g id="Icon-Category/64/Business-Application_64" transform="translate(13.000000, 13.000000)" fill="#FFFFFF">
            <path d="M52.5861893,58 L11.4141893,58 L7.41418926,54 L56.5861893,54 L52.5861893,58 Z M10.0001893,28.826 C10.0001893,27.819 10.8191893,27 11.8261893,27 L16.0001893,27 L16.0001893,52 L10.0001893,52 L10.0001893,28.826 Z M21.0001893,22 C21.5531893,22 22.0001893,21.552 22.0001893,21 L22.0001893,15 L27.0001893,15 L27.0001893,52 L18.0001893,52 L18.0001893,22 L21.0001893,22 Z M29.0001893,52 L35.0001893,52 L35.0001893,11 L29.0001893,11 L29.0001893,52 Z M42.0001893,15 L42.0001893,21 C42.0001893,21.552 42.4471893,22 43.0001893,22 L46.0001893,22 L46.0001893,52 L37.0001893,52 L37.0001893,15 L42.0001893,15 Z M52.1741893,27 C53.1811893,27 54.0001893,27.819 54.0001893,28.826 L54.0001893,52 L48.0001893,52 L48.0001893,27 L52.1741893,27 Z M59.9241893,52.617 C59.7701893,52.244 59.4041893,52 59.0001893,52 L56.0001893,52 L56.0001893,28.826 C56.0001893,26.716 54.2831893,25 52.1741893,25 L48.0001893,25 L48.0001893,21 C48.0001893,20.448 47.5531893,20 47.0001893,20 L44.0001893,20 L44.0001893,14 C44.0001893,13.448 43.5531893,13 43.0001893,13 L37.0001893,13 L37.0001893,10 C37.0001893,9.448 36.5531893,9 36.0001893,9 L33.0001893,9 L33.0001893,4 L31.0001893,4 L31.0001893,9 L28.0001893,9 C27.4471893,9 27.0001893,9.448 27.0001893,10 L27.0001893,13 L21.0001893,13 C20.4471893,13 20.0001893,13.448 20.0001893,14 L20.0001893,20 L17.0001893,20 C16.4471893,20 16.0001893,20.448 16.0001893,21 L16.0001893,25 L11.8261893,25 C9.71718926,25 8.00018926,26.716 8.00018926,28.826 L8.00018926,52 L5.00018926,52 C4.59618926,52 4.23118926,52.244 4.07618926,52.617 C3.92118926,52.991 4.00718926,53.421 4.29318926,53.707 L10.2931893,59.707 C10.4811893,59.895 10.7341893,60 11.0001893,60 L53.0001893,60 C53.2661893,60 53.5201893,59.895 53.7071893,59.707 L59.7071893,53.707 C59.9931893,53.421 60.0791893,52.991 59.9241893,52.617 L59.9241893,52.617 Z" id="Business-Application_Category-Icon_64_Squid--"></path>
        </g>
    </g>
</svg>