<?xml version="1.0" encoding="UTF-8"?>
<svg width="90px" height="90px" viewBox="0 0 90 90" version="1.1" xmlns="http://www.w3.org/2000/svg" xmlns:xlink="http://www.w3.org/1999/xlink">
    <title>Icon-Architecture-Category/64/Containers_64</title>
    <defs>
        <linearGradient x1="0%" y1="100%" x2="100%" y2="0%" id="linearGradient-1">
            <stop stop-color="#C8511B" offset="0%"></stop>
            <stop stop-color="#FF9900" offset="100%"></stop>
        </linearGradient>
    </defs>
    <g id="Icon-Architecture-Category/64/Containers_64" stroke="none" stroke-width="1" fill="none" fill-rule="evenodd">
        <rect id="Rectangle" fill="url(#linearGradient-1)" x="5" y="5" width="80" height="80"></rect>
        <rect id="#879196-Border-Copy-6" stroke="#879196" stroke-width="2" x="1" y="1" width="88" height="88"></rect>
        <g id="Icon-Category/64/Containers_64" transform="translate(13.000000, 12.000000)" fill="#FFFFFF">
            <path d="M8,53 L56,53 L56,34 L8,34 L8,53 Z M6,58 L58,58 L58,55 L6,55 L6,58 Z M58,34 L58,53 L59,53 C59.553,53 60,53.448 60,54 L60,59 C60,59.552 59.553,60 59,60 L5,60 C4.447,60 4,59.552 4,59 L4,54 C4,53.448 4.447,53 5,53 L6,53 L6,34 L5,34 C4.447,34 4,33.552 4,33 L4,28 C4,27.478 4.404,27.062 4.915,27.017 L25.47,14.152 L26.53,15.848 L8.712,27 L41,27 L41,29 L6,29 L6,32 L58,32 L58,29 L44,29 L44,27 L55.288,27 L37.47,15.848 L38.53,14.152 L59.085,27.017 C59.596,27.062 60,27.478 60,28 L60,33 C60,33.552 59.553,34 59,34 L58,34 Z M32,16 C34.206,16 36,14.206 36,12 L34,12 C34,13.103 33.103,14 32,14 C30.897,14 30,13.103 30,12 C30,10.897 30.897,10 32,10 C32.553,10 33,9.552 33,9 L33,4 L31,4 L31,8.126 C29.276,8.572 28,10.14 28,12 C28,14.206 29.794,16 32,16 L32,16 Z M13,50 L15,50 L15,37 L13,37 L13,50 Z M19,50 L21,50 L21,37 L19,37 L19,50 Z M25,50 L27,50 L27,37.143 L25,37.143 L25,50 Z M49,50 L51,50 L51,37.143 L49,37.143 L49,50 Z M43,50 L45,50 L45,37.143 L43,37.143 L43,50 Z M37,50 L39,50 L39,37.143 L37,37.143 L37,50 Z M31,50 L33,50 L33,37 L31,37 L31,50 Z" id="Fill-1"></path>
        </g>
    </g>
</svg>