<?xml version="1.0" encoding="UTF-8"?>
<svg width="90px" height="90px" viewBox="0 0 90 90" version="1.1" xmlns="http://www.w3.org/2000/svg" xmlns:xlink="http://www.w3.org/1999/xlink">
    <title>Icon-Architecture-Category/64/End-User-Computing_64</title>
    <defs>
        <linearGradient x1="0%" y1="100%" x2="100%" y2="0%" id="linearGradient-1">
            <stop stop-color="#055F4E" offset="0%"></stop>
            <stop stop-color="#56C0A7" offset="100%"></stop>
        </linearGradient>
    </defs>
    <g id="Icon-Architecture-Category/64/End-User-Computing_64" stroke="none" stroke-width="1" fill="none" fill-rule="evenodd">
        <rect id="Rectangle" fill="url(#linearGradient-1)" x="5" y="5" width="80" height="80"></rect>
        <rect id="#879196-Border-Copy-10" stroke="#879196" stroke-width="2" x="1" y="1" width="88" height="88"></rect>
        <g id="Icon-Category/64/End-User-Computing_64" transform="translate(13.000000, 13.000000)" fill="#FFFFFF">
            <path d="M44.4336179,55 L51.4336179,55 L51.4336179,53 L44.4336179,53 L44.4336179,55 Z M9.43361786,7.926 C9.43361786,6.864 10.3846179,6 11.5546179,6 L53.3126179,6 C54.4826179,6 55.4336179,6.864 55.4336179,7.926 L55.4336179,12 L57.4336179,12 L57.4336179,7.926 C57.4336179,5.761 55.5846179,4 53.3126179,4 L11.5546179,4 C9.28261786,4 7.43361786,5.761 7.43361786,7.926 L7.43361786,40 L4.99961786,40 C4.61261786,40 4.25861786,40.225 4.09461786,40.576 C3.92961786,40.927 3.98361786,41.342 4.23161786,41.64 L9.23161786,47.64 C9.42161786,47.868 9.70361786,48 9.99961786,48 L32.4336179,48 L32.4336179,46 L10.4686179,46 L7.13461786,42 L32.4336179,42 L32.4336179,40 L9.43361786,40 L9.43361786,7.926 Z M36.4336179,58 L58.4346179,58 L58.4346179,50 L36.4336179,50 L36.4336179,58 Z M36.4336179,16 L36.4336179,48 L58.4346179,48 L58.4336179,16 L36.4336179,16 Z M60.4336179,16 L60.4336179,58 C60.4336179,59.103 59.5366179,60 58.4336179,60 L36.4336179,60 C35.3306179,60 34.4336179,59.103 34.4336179,58 L34.4336179,16 C34.4336179,14.897 35.3306179,14 36.4336179,14 L58.4336179,14 C59.5366179,14 60.4336179,14.897 60.4336179,16 L60.4336179,16 Z M43.8866179,25.678 C45.1716179,26.769 45.1906179,28.517 45.1966179,28.517 C45.1966179,28.517 45.1976179,28.517 45.1976179,28.517 C45.1536179,28.816 45.2486179,29.12 45.4546179,29.341 C45.6626179,29.563 45.9576179,29.684 46.2616179,29.657 C46.2936179,29.656 49.3896179,29.447 50.9916179,30.937 C51.6246179,31.526 51.9336179,32.309 51.9336179,33.33 C51.9336179,35.182 49.8586179,37 47.7436179,37 L38.4336179,37 L38.4336179,39 L47.7436179,39 C50.9836179,39 53.9336179,36.297 53.9336179,33.33 C53.9336179,31.741 53.3996179,30.441 52.3456179,29.465 C50.7716179,28.007 48.4236179,27.701 47.1026179,27.653 C46.9396179,26.71 46.4966179,25.391 45.3986179,24.349 C43.7936179,22.828 41.3786179,22.375 38.2066179,23.01 L38.5996179,24.971 C40.9916179,24.494 42.7706179,24.731 43.8866179,25.678 L43.8866179,25.678 Z M21.4306179,21.763 C21.4306179,22.285 21.5316179,22.812 21.7376179,23.375 C21.8656179,23.726 21.7876179,24.119 21.5356179,24.395 C21.2826179,24.67 20.9006179,24.782 20.5366179,24.684 C20.0516179,24.552 19.6476179,24.491 19.2636179,24.491 C16.6006179,24.491 14.4336179,26.628 14.4336179,29.254 C14.4336179,31.88 16.6006179,34.017 19.2636179,34.017 L32.4326179,34 L32.4336179,36 L19.4336179,36 C15.6656179,36 12.4336179,32.983 12.4336179,29.254 C12.4336179,25.455 15.6096179,22.362 19.4756179,22.495 C19.4456179,22.249 19.4306179,22.005 19.4306179,21.763 C19.4306179,18.097 22.6376179,15 26.4336179,15 C30.1626179,15 33.4336179,18.271 33.4336179,22 L31.4336179,22 C31.4336179,19.336 29.0966179,17 26.4336179,17 C23.7216179,17 21.4306179,19.181 21.4306179,21.763 L21.4306179,21.763 Z" id="End-User-Computing_Category-Icon_64_Squid--"></path>
        </g>
    </g>
</svg>