<?xml version="1.0" encoding="UTF-8"?>
<svg width="90px" height="90px" viewBox="0 0 90 90" version="1.1" xmlns="http://www.w3.org/2000/svg" xmlns:xlink="http://www.w3.org/1999/xlink">
    <title>Icon-Architecture-Category/64/Quantum-Technologies_64</title>
    <defs>
        <linearGradient x1="0%" y1="100%" x2="100%" y2="0%" id="linearGradient-1">
            <stop stop-color="#C8511B" offset="0%"></stop>
            <stop stop-color="#FF9900" offset="100%"></stop>
        </linearGradient>
    </defs>
    <g id="Icon-Architecture-Category/64/Quantum-Technologies_64" stroke="none" stroke-width="1" fill="none" fill-rule="evenodd">
        <rect id="Rectangle" fill="url(#linearGradient-1)" x="5" y="5" width="80" height="80"></rect>
        <rect id="#879196-Border-Copy-19" stroke="#879196" stroke-width="2" x="1" y="1" width="88" height="88"></rect>
        <g id="Icon-Category/64/Quantum-Technologies_64" transform="translate(13.000000, 13.000000)" fill="#FFFFFF">
            <path d="M54.517,45 C54.05,45.809 53.168,46.379 51.903,46.71 C51.542,45.161 50.158,44 48.5,44 C46.863,44 45.495,45.135 45.115,46.657 C43.99,46.463 42.82,46.208 41.598,45.87 C42.117,43.511 42.504,40.932 42.739,38.189 C44.961,36.639 47,35.021 48.809,33.375 C49.716,34.27 50.56,35.168 51.3,36.061 C54.44,39.845 55.613,43.104 54.517,45 M48.5,49 C47.673,49 47,48.327 47,47.5 C47,46.673 47.673,46 48.5,46 C49.328,46 50,46.673 50,47.5 C50,48.327 49.328,49 48.5,49 M32,58 C29.31,58 26.503,53.994 24.754,47.255 C27.067,46.523 29.505,45.565 32.01,44.391 C34.471,45.541 36.911,46.509 39.246,47.255 C37.497,53.994 34.691,58 32,58 M9.484,45 C8.779,43.779 9.126,42.179 9.647,40.882 C9.922,40.952 10.204,41 10.5,41 C12.43,41 14,39.43 14,37.5 C14,36.709 13.727,35.987 13.283,35.4 C13.873,34.726 14.509,34.05 15.193,33.375 C17.001,35.021 19.04,36.639 21.262,38.189 C21.497,40.944 21.888,43.534 22.41,45.901 C15.702,47.754 10.829,47.329 9.484,45 M10.5,36 C11.328,36 12,36.673 12,37.5 C12,38.327 11.328,39 10.5,39 C9.673,39 9,38.327 9,37.5 C9,36.673 9.673,36 10.5,36 M9.484,19 C10.829,16.671 15.703,16.247 22.41,18.099 C21.888,20.467 21.497,23.057 21.262,25.812 C19.04,27.362 17.001,28.98 15.193,30.626 C14.286,29.73 13.442,28.833 12.701,27.939 C9.561,24.155 8.388,20.896 9.484,19 M32,6 C32.919,6 33.84,6.464 34.746,7.367 C34.286,7.959 34,8.693 34,9.5 C34,11.43 35.571,13 37.5,13 C37.672,13 37.836,12.973 38.002,12.949 C38.452,14.12 38.86,15.387 39.214,16.752 C36.914,17.482 34.49,18.435 32,19.602 C29.498,18.43 27.064,17.474 24.754,16.743 C26.503,10.005 29.31,6 32,6 M39,9.5 C39,10.327 38.328,11 37.5,11 C36.673,11 36,10.327 36,9.5 C36,8.673 36.673,8 37.5,8 C38.328,8 39,8.673 39,9.5 M42.899,28.373 C44.509,29.555 45.992,30.771 47.35,32 C45.995,33.226 44.516,34.44 42.91,35.619 C42.967,34.436 43,33.229 43,32 C43,30.779 42.959,29.572 42.899,28.373 M34.316,20.74 C36.184,19.916 37.977,19.229 39.672,18.679 C40.056,20.468 40.356,22.378 40.577,24.362 C39.576,23.718 38.556,23.083 37.5,22.474 C36.434,21.858 35.371,21.283 34.316,20.74 M23.4,24.379 C23.621,22.334 23.925,20.425 24.3,18.671 C26.004,19.222 27.806,19.911 29.684,20.74 C28.629,21.283 27.567,21.858 26.5,22.474 C25.436,23.088 24.409,23.729 23.4,24.379 M21.091,35.619 C19.485,34.44 18.006,33.226 16.651,32 C18.007,30.774 19.485,29.56 21.091,28.38 C21.034,29.564 21,30.77 21,32 C21,33.229 21.034,34.436 21.091,35.619 M29.697,43.255 C27.814,44.086 26.008,44.777 24.3,45.33 C23.926,43.575 23.621,41.666 23.4,39.621 C24.409,40.271 25.436,40.912 26.5,41.526 C27.559,42.138 28.627,42.707 29.697,43.255 M40.601,39.621 C40.381,41.657 40.078,43.558 39.705,45.307 C37.967,44.746 36.165,44.051 34.34,43.251 C35.387,42.712 36.442,42.137 37.5,41.526 C38.565,40.912 39.592,40.271 40.601,39.621 M36.5,39.794 C34.972,40.677 33.475,41.463 32.01,42.179 C30.505,41.449 28.995,40.657 27.5,39.794 C26,38.928 24.556,38.021 23.176,37.088 C23.063,35.462 23,33.766 23,32 C23,30.234 23.063,28.538 23.176,26.912 C24.556,25.978 26.001,25.072 27.5,24.206 C29.033,23.321 30.533,22.533 32,21.816 C33.468,22.533 34.968,23.321 36.5,24.206 C37.996,25.069 39.435,25.973 40.811,26.903 C40.931,28.571 41,30.274 41,32 C41,33.766 40.938,35.462 40.825,37.088 C39.445,38.021 38,38.928 36.5,39.794 M54.517,19 C55.613,20.896 54.44,24.155 51.3,27.939 C50.56,28.832 49.716,29.73 48.809,30.625 C46.996,28.977 44.954,27.355 42.727,25.803 C42.493,23.096 42.111,20.498 41.588,18.1 C48.297,16.246 53.172,16.671 54.517,19 M50.262,32 C51.199,31.073 52.072,30.143 52.84,29.216 C56.599,24.685 57.809,20.702 56.249,18 C54.326,14.669 48.522,14.179 41.13,16.185 C40.747,14.718 40.307,13.355 39.82,12.101 C40.538,11.459 41,10.537 41,9.5 C41,7.57 39.43,6 37.5,6 C37.115,6 36.749,6.078 36.402,6.194 C35.038,4.738 33.562,4 32,4 C28.155,4 24.83,8.781 22.87,16.186 C15.478,14.18 9.674,14.669 7.751,18 C6.192,20.702 7.402,24.685 11.161,29.216 C11.929,30.143 12.803,31.074 13.741,32.001 C12.996,32.738 12.302,33.477 11.663,34.214 C11.297,34.084 10.91,34 10.5,34 C8.571,34 7,35.57 7,37.5 C7,38.405 7.355,39.224 7.921,39.846 C6.885,42.256 6.816,44.379 7.751,46 C8.922,48.028 11.531,49.002 15.061,49.002 C17.328,49.002 19.979,48.594 22.869,47.811 C24.829,55.217 28.155,60 32,60 C35.846,60 39.171,55.219 41.131,47.814 C42.558,48.206 43.924,48.499 45.227,48.704 C45.72,50.04 46.996,51 48.5,51 C49.973,51 51.23,50.083 51.746,48.793 C53.897,48.376 55.416,47.443 56.249,46 C57.809,43.298 56.599,39.315 52.84,34.784 C52.072,33.857 51.199,32.927 50.262,32" id="Quantum-Technologies_Category-Icon_64_Squid"></path>
        </g>
    </g>
</svg>