<?xml version="1.0" encoding="UTF-8"?><svg version="1.1" width="48px" height="48px" viewBox="0 0 48.0 48.0" xmlns="http://www.w3.org/2000/svg" xmlns:xlink="http://www.w3.org/1999/xlink"><defs><clipPath id="i0"><path d="M14.8192862,0.0732861688 C19.9752862,-0.417713831 24.9752862,1.57528617 28.5062862,5.54628617 L27.0122862,6.87528617 C23.9082862,3.38628617 19.5342862,1.63128617 15.0082862,2.06428617 C7.08928621,2.82028617 1.28528621,10.1342862 2.07028621,18.3682862 C2.85728621,26.6002862 9.93128621,32.6832862 17.8592862,31.9292862 C23.9602862,31.3462862 29.0282862,26.8042862 30.4672862,20.6262862 L32.4142862,21.0802862 C32.1732862,22.1172862 31.8312862,23.1082862 31.4182862,24.0552862 L42.5982862,35.4272862 C44.5022862,37.3642862 44.4642862,40.5462862 42.5142862,42.5212862 C41.5482862,43.4982862 40.2722862,44.0372862 38.9202862,44.0372862 C37.6082862,44.0372862 36.3822862,43.5272862 35.4652862,42.5992862 L24.7132862,31.7172862 C22.7132862,32.9122862 20.4552862,33.6902862 18.0482862,33.9202862 C17.5382862,33.9682862 17.0312862,33.9922862 16.5292862,33.9922862 C8.14228621,33.9922862 0.920286206,27.3602862 0.0802862065,18.5582862 C-0.809713794,9.22628617 5.80228621,0.934286169 14.8192862,0.0732861688 Z M30.4662862,25.9402862 C29.3962862,27.7432862 28.0092862,29.3092862 26.3932862,30.5722862 L36.8882862,41.1942862 C37.9932862,42.3112862 39.9482862,42.2742862 41.0902862,41.1162862 C42.2782862,39.9142862 42.3142862,37.9912862 41.1722862,36.8292862 Z M18.0082862,6.03728617 C18.2742862,6.03728617 18.5282862,6.14228617 18.7152862,6.33028617 L24.7152862,12.3302862 C24.9032862,12.5172862 25.0082862,12.7722862 25.0082862,13.0372862 L25.0082862,27.0372862 C25.0082862,27.5892862 24.5612862,28.0372862 24.0082862,28.0372862 L10.0082862,28.0372862 C9.45528621,28.0372862 9.00828621,27.5892862 9.00828621,27.0372862 L9.00828621,7.03728617 C9.00828621,6.48528617 9.45528621,6.03728617 10.0082862,6.03728617 Z M17.0082862,8.03728617 L11.0082862,8.03728617 L11.0082862,26.0372862 L23.0082862,26.0372862 L23.0082862,14.0372862 L18.0082862,14.0372862 C17.4552862,14.0372862 17.0082862,13.5892862 17.0082862,13.0372862 L17.0082862,8.03728617 Z M43.0082862,16.0372862 L43.0082862,18.0372862 L29.0082862,18.0372862 L29.0082862,16.0372862 L43.0082862,16.0372862 Z M35.0082862,12.0372862 L35.0082862,14.0372862 L27.0082862,14.0372862 L27.0082862,12.0372862 L35.0082862,12.0372862 Z M42.0082862,12.0372862 L42.0082862,14.0372862 L37.0082862,14.0372862 L37.0082862,12.0372862 L42.0082862,12.0372862 Z M19.0082862,9.45128617 L19.0082862,12.0372862 L21.5942862,12.0372862 L19.0082862,9.45128617 Z M44.0082862,8.03728617 L44.0082862,10.0372862 L31.0082862,10.0372862 L31.0082862,8.03728617 L44.0082862,8.03728617 Z"></path></clipPath></defs><g transform="translate(1.9998137935430265 2.0)"><g clip-path="url(#i0)"><polygon points="-1.77635684e-15,-3.55271368e-15 44.0082862,-3.55271368e-15 44.0082862,44.0372862 -1.77635684e-15,44.0372862 -1.77635684e-15,-3.55271368e-15" stroke="none" fill="#55C0A7"></polygon></g></g></svg>