<?xml version="1.0" encoding="UTF-8"?>
<svg xmlns="http://www.w3.org/2000/svg" xmlns:xlink="http://www.w3.org/1999/xlink" width="64" height="64" viewBox="0 0 64 64">
<path fill-rule="evenodd" fill="rgb(90.588236%, 8.235294%, 48.235294%)" fill-opacity="1" d="M 5.332031 54.667969 L 33.332031 54.667969 L 33.332031 52 L 5.332031 52 Z M 18.667969 58.667969 L 20 58.667969 L 20 57.332031 L 18.667969 57.332031 Z M 33.332031 49.332031 L 5.332031 49.332031 L 5.332031 33.332031 L 13.332031 33.332031 L 13.332031 30.667969 L 4 30.667969 C 3.261719 30.667969 2.667969 31.265625 2.667969 32 L 2.667969 56 C 2.667969 56.734375 3.261719 57.332031 4 57.332031 L 16 57.332031 L 16 58.667969 L 10.667969 58.667969 L 10.667969 61.332031 L 28 61.332031 L 28 58.667969 L 22.667969 58.667969 L 22.667969 57.332031 L 34.667969 57.332031 C 35.402344 57.332031 36 56.734375 36 56 L 36 48 L 33.332031 48 Z M 36 9.332031 L 38.667969 9.332031 L 38.667969 6.667969 L 36 6.667969 Z M 36 17.332031 L 38.667969 17.332031 L 38.667969 14.667969 L 36 14.667969 Z M 34.667969 10.667969 L 58.667969 10.667969 L 58.667969 5.332031 L 34.667969 5.332031 Z M 60 2.667969 L 33.332031 2.667969 C 32.597656 2.667969 32 3.265625 32 4 L 32 16 L 34.667969 16 L 34.667969 13.332031 L 58.667969 13.332031 L 58.667969 18.667969 L 38.667969 18.667969 L 38.667969 21.332031 L 58.667969 21.332031 L 58.667969 26.667969 L 49.332031 26.667969 L 49.332031 29.332031 L 60 29.332031 C 60.738281 29.332031 61.332031 28.734375 61.332031 28 L 61.332031 4 C 61.332031 3.265625 60.738281 2.667969 60 2.667969 Z M 45.976562 42.667969 L 22.605469 42.640625 C 20.015625 42.636719 17.523438 40.515625 17.277344 38.09375 C 17.253906 37.867188 17.242188 37.632812 17.242188 37.386719 C 17.242188 33.894531 19.636719 32.710938 21.121094 32.3125 C 21.164062 32.300781 21.210938 32.289062 21.253906 32.277344 C 21.875 32.089844 22.269531 31.484375 22.191406 30.839844 C 22.152344 30.519531 22.132812 30.191406 22.132812 29.859375 C 22.132812 26.96875 24.199219 23.742188 26.742188 22.664062 C 31.234375 20.761719 34.414062 23.265625 35.578125 24.429688 C 36.53125 25.386719 37.273438 26.613281 37.792969 28.078125 C 37.957031 28.542969 38.367188 28.878906 38.855469 28.953125 C 39.347656 29.023438 39.832031 28.820312 40.125 28.425781 C 40.753906 27.570312 41.769531 27.195312 42.714844 27.46875 C 43.882812 27.8125 44.660156 29.039062 44.808594 30.769531 C 44.75 31.453125 45.226562 32.078125 45.914062 32.195312 C 47.339844 32.441406 50.667969 33.445312 50.667969 37.441406 C 50.667969 42.097656 46.351562 42.625 45.976562 42.667969 Z M 47.371094 29.792969 C 46.949219 27.3125 45.527344 25.515625 43.460938 24.910156 C 42.113281 24.519531 40.714844 24.722656 39.542969 25.414062 C 38.976562 24.328125 38.28125 23.367188 37.464844 22.546875 C 34.253906 19.324219 29.855469 18.449219 25.703125 20.210938 C 22.148438 21.714844 19.464844 25.863281 19.464844 29.859375 C 19.464844 29.921875 19.464844 29.984375 19.46875 30.046875 C 16.382812 31.242188 14.574219 33.914062 14.574219 37.386719 C 14.574219 37.730469 14.59375 38.058594 14.625 38.371094 C 15.007812 42.125 18.664062 45.304688 22.605469 45.308594 L 46.082031 45.328125 C 48.589844 45.125 53.332031 43.214844 53.332031 37.441406 C 53.332031 33.007812 50.414062 30.644531 47.371094 29.792969 Z M 47.371094 29.792969 "/>
</svg>
