<?xml version="1.0" encoding="UTF-8"?>
<svg xmlns="http://www.w3.org/2000/svg" xmlns:xlink="http://www.w3.org/1999/xlink" width="64" height="64" viewBox="0 0 64 64">
<path fill-rule="evenodd" fill="rgb(90.588236%, 8.235294%, 48.235294%)" fill-opacity="1" d="M 47.222656 48.046875 L 51.539062 48.046875 L 51.539062 43.730469 L 47.222656 43.730469 Z M 45.890625 50.714844 L 52.871094 50.714844 C 53.609375 50.714844 54.203125 50.117188 54.203125 49.382812 L 54.203125 42.398438 C 54.203125 41.660156 53.609375 41.066406 52.871094 41.066406 L 45.890625 41.066406 C 45.152344 41.066406 44.554688 41.660156 44.554688 42.398438 L 44.554688 49.382812 C 44.554688 50.117188 45.152344 50.714844 45.890625 50.714844 Z M 31.925781 46.15625 L 33.0625 48.046875 L 30.789062 48.046875 Z M 28.433594 50.714844 L 35.414062 50.714844 C 35.898438 50.714844 36.339844 50.457031 36.574219 50.039062 C 36.8125 49.617188 36.808594 49.105469 36.558594 48.695312 L 33.070312 42.878906 C 32.585938 42.074219 31.265625 42.074219 30.78125 42.878906 L 27.292969 48.695312 C 27.042969 49.105469 27.039062 49.617188 27.273438 50.039062 C 27.511719 50.457031 27.953125 50.714844 28.433594 50.714844 Z M 14.472656 44.894531 C 15.339844 44.894531 16.046875 45.601562 16.046875 46.472656 C 16.046875 47.339844 15.339844 48.046875 14.472656 48.046875 C 13.605469 48.046875 12.898438 47.339844 12.898438 46.472656 C 12.898438 45.601562 13.605469 44.894531 14.472656 44.894531 Z M 14.472656 50.714844 C 16.8125 50.714844 18.714844 48.8125 18.714844 46.472656 C 18.714844 44.132812 16.8125 42.230469 14.472656 42.230469 C 12.132812 42.230469 10.230469 44.132812 10.230469 46.472656 C 10.230469 48.8125 12.132812 50.714844 14.472656 50.714844 Z M 43.730469 52.703125 L 55.027344 52.703125 L 55.027344 30.933594 L 43.730469 30.933594 Z M 42.398438 28.265625 C 41.660156 28.265625 41.066406 28.863281 41.066406 29.601562 L 41.066406 54.035156 C 41.066406 54.773438 41.660156 55.371094 42.398438 55.371094 L 56.363281 55.371094 C 57.097656 55.371094 57.695312 54.773438 57.695312 54.035156 L 57.695312 29.601562 C 57.695312 28.863281 57.097656 28.265625 56.363281 28.265625 Z M 26.277344 52.703125 L 37.574219 52.703125 L 37.574219 26.28125 L 26.277344 26.28125 Z M 38.90625 23.613281 L 24.945312 23.613281 C 24.207031 23.613281 23.609375 24.210938 23.609375 24.945312 L 23.609375 54.035156 C 23.609375 54.773438 24.207031 55.371094 24.945312 55.371094 L 38.90625 55.371094 C 39.644531 55.371094 40.238281 54.773438 40.238281 54.035156 L 40.238281 24.945312 C 40.238281 24.210938 39.644531 23.613281 38.90625 23.613281 Z M 8.824219 52.703125 L 20.121094 52.703125 L 20.121094 40.242188 L 8.824219 40.242188 Z M 21.453125 37.574219 L 7.492188 37.574219 C 6.753906 37.574219 6.15625 38.171875 6.15625 38.90625 L 6.15625 54.035156 C 6.15625 54.773438 6.753906 55.371094 7.492188 55.371094 L 21.453125 55.371094 C 22.1875 55.371094 22.785156 54.773438 22.785156 54.035156 L 22.785156 38.90625 C 22.785156 38.171875 22.1875 37.574219 21.453125 37.574219 Z M 11.152344 14.304688 L 32.921875 14.304688 L 32.921875 12.316406 L 11.152344 12.316406 Z M 9.816406 16.96875 L 34.253906 16.96875 C 34.992188 16.96875 35.585938 16.375 35.585938 15.636719 L 35.585938 10.984375 C 35.585938 10.246094 34.992188 9.648438 34.253906 9.648438 L 9.816406 9.648438 C 9.078125 9.648438 8.484375 10.246094 8.484375 10.984375 L 8.484375 15.636719 C 8.484375 16.375 9.078125 16.96875 9.816406 16.96875 Z M 41.816406 11.152344 C 42.683594 11.152344 43.390625 11.859375 43.390625 12.726562 C 43.390625 13.597656 42.683594 14.304688 41.816406 14.304688 C 40.949219 14.304688 40.238281 13.597656 40.238281 12.726562 C 40.238281 11.859375 40.949219 11.152344 41.816406 11.152344 Z M 41.816406 16.96875 C 44.15625 16.96875 46.058594 15.066406 46.058594 12.726562 C 46.058594 10.386719 44.15625 8.484375 41.816406 8.484375 C 39.476562 8.484375 37.574219 10.386719 37.574219 12.726562 C 37.574219 15.066406 39.476562 16.96875 41.816406 16.96875 Z M 52.289062 11.152344 C 53.15625 11.152344 53.863281 11.859375 53.863281 12.726562 C 53.863281 13.597656 53.15625 14.304688 52.289062 14.304688 C 51.421875 14.304688 50.714844 13.597656 50.714844 12.726562 C 50.714844 11.859375 51.421875 11.152344 52.289062 11.152344 Z M 52.289062 16.96875 C 54.625 16.96875 56.53125 15.066406 56.53125 12.726562 C 56.53125 10.386719 54.625 8.484375 52.289062 8.484375 C 49.949219 8.484375 48.046875 10.386719 48.046875 12.726562 C 48.046875 15.066406 49.949219 16.96875 52.289062 16.96875 Z M 58.519531 52.589844 C 58.519531 55.859375 55.859375 58.519531 52.589844 58.519531 L 11.261719 58.519531 C 7.992188 58.519531 5.332031 55.859375 5.332031 52.589844 L 5.332031 11.265625 C 5.332031 7.992188 7.992188 5.332031 11.261719 5.332031 L 52.589844 5.332031 C 55.859375 5.332031 58.519531 7.992188 58.519531 11.265625 Z M 52.589844 2.667969 L 11.261719 2.667969 C 6.523438 2.667969 2.667969 6.523438 2.667969 11.265625 L 2.667969 52.589844 C 2.667969 57.328125 6.523438 61.1875 11.261719 61.1875 L 52.589844 61.1875 C 57.328125 61.1875 61.183594 57.328125 61.183594 52.589844 L 61.183594 11.265625 C 61.183594 6.523438 57.328125 2.667969 52.589844 2.667969 Z M 52.589844 2.667969 "/>
</svg>
