<?xml version="1.0" encoding="UTF-8"?>
<svg xmlns="http://www.w3.org/2000/svg" xmlns:xlink="http://www.w3.org/1999/xlink" width="64" height="64" viewBox="0 0 64 64">
<path fill-rule="evenodd" fill="rgb(90.588236%, 8.235294%, 48.235294%)" fill-opacity="1" d="M 5.332031 58.558594 L 58.558594 58.558594 L 58.558594 40.265625 L 5.332031 40.265625 Z M 59.894531 37.597656 L 4 37.597656 C 3.265625 37.597656 2.667969 38.195312 2.667969 38.933594 L 2.667969 59.894531 C 2.667969 60.628906 3.265625 61.226562 4 61.226562 L 59.894531 61.226562 C 60.628906 61.226562 61.226562 60.628906 61.226562 59.894531 L 61.226562 38.933594 C 61.226562 38.195312 60.628906 37.597656 59.894531 37.597656 Z M 5.332031 23.625 L 58.558594 23.625 L 58.558594 5.332031 L 5.332031 5.332031 Z M 59.894531 2.667969 L 4 2.667969 C 3.265625 2.667969 2.667969 3.261719 2.667969 4 L 2.667969 24.960938 C 2.667969 25.699219 3.265625 26.292969 4 26.292969 L 59.894531 26.292969 C 60.628906 26.292969 61.226562 25.699219 61.226562 24.960938 L 61.226562 4 C 61.226562 3.261719 60.628906 2.667969 59.894531 2.667969 Z M 59.894531 2.667969 "/>
</svg>
