<?xml version="1.0" encoding="UTF-8"?>
<svg xmlns="http://www.w3.org/2000/svg" xmlns:xlink="http://www.w3.org/1999/xlink" width="64" height="64" viewBox="0 0 64 64">
<path fill-rule="evenodd" fill="rgb(90.588236%, 8.235294%, 48.235294%)" fill-opacity="1" d="M 44.835938 53.679688 C 44.367188 53.679688 43.988281 53.824219 43.695312 54.117188 C 43.40625 54.410156 43.257812 54.789062 43.257812 55.253906 C 43.257812 55.722656 43.40625 56.101562 43.695312 56.390625 C 43.988281 56.683594 44.367188 56.828125 44.835938 56.828125 C 45.300781 56.828125 45.679688 56.683594 45.972656 56.390625 C 46.265625 56.101562 46.410156 55.722656 46.410156 55.253906 C 46.410156 54.789062 46.265625 54.410156 45.972656 54.117188 C 45.679688 53.824219 45.300781 53.679688 44.835938 53.679688 Z M 43.433594 44.511719 L 43.820312 52.558594 L 45.847656 52.558594 L 46.234375 44.511719 C 45.769531 44.289062 45.300781 44.175781 44.835938 44.175781 C 44.367188 44.175781 43.902344 44.289062 43.433594 44.511719 Z M 57.664062 58.667969 L 44.835938 36.953125 L 32.003906 58.667969 Z M 61.160156 60.660156 C 60.921875 61.078125 60.480469 61.332031 60 61.332031 L 29.667969 61.332031 C 29.1875 61.332031 28.746094 61.078125 28.507812 60.660156 C 28.269531 60.246094 28.273438 59.734375 28.519531 59.320312 L 43.6875 33.65625 C 43.925781 33.25 44.363281 33 44.835938 33 C 45.304688 33 45.742188 33.25 45.984375 33.65625 L 61.148438 59.320312 C 61.394531 59.734375 61.398438 60.246094 61.160156 60.660156 Z M 8.4375 35.574219 L 6.5625 37.46875 L 10.296875 41.164062 C 10.546875 41.410156 10.882812 41.546875 11.234375 41.546875 C 11.265625 41.546875 11.296875 41.546875 11.328125 41.542969 C 11.710938 41.515625 12.066406 41.328125 12.296875 41.019531 L 17.894531 33.632812 L 15.769531 32.023438 L 11.089844 38.195312 Z M 15.769531 19.578125 L 11.089844 25.753906 L 8.4375 23.128906 L 6.5625 25.023438 L 10.296875 28.71875 C 10.546875 28.964844 10.882812 29.105469 11.234375 29.105469 C 11.265625 29.105469 11.296875 29.101562 11.328125 29.101562 C 11.710938 29.074219 12.066406 28.882812 12.296875 28.574219 L 17.894531 21.1875 Z M 15.769531 7.132812 L 11.089844 13.308594 L 8.4375 10.683594 L 6.5625 12.578125 L 10.296875 16.273438 C 10.546875 16.519531 10.882812 16.660156 11.234375 16.660156 C 11.265625 16.660156 11.296875 16.65625 11.328125 16.65625 C 11.710938 16.628906 12.066406 16.4375 12.296875 16.128906 L 17.894531 8.742188 Z M 20.332031 39.167969 L 35.5 39.167969 L 35.5 36.5 L 20.332031 36.5 Z M 20.332031 27.5 L 35.5 27.5 L 35.5 24.832031 L 20.332031 24.832031 Z M 20.332031 14.667969 L 35.5 14.667969 L 35.5 12 L 20.332031 12 Z M 33.167969 48.5 L 4 48.5 C 3.261719 48.5 2.667969 47.902344 2.667969 47.167969 L 2.667969 4 C 2.667969 3.261719 3.261719 2.667969 4 2.667969 L 39 2.667969 C 39.738281 2.667969 40.335938 3.261719 40.335938 4 L 40.335938 37.832031 L 37.667969 37.832031 L 37.667969 5.332031 L 5.332031 5.332031 L 5.332031 45.832031 L 33.167969 45.832031 Z M 33.167969 48.5 "/>
</svg>
