<?xml version="1.0" encoding="UTF-8"?>
<svg xmlns="http://www.w3.org/2000/svg" xmlns:xlink="http://www.w3.org/1999/xlink" width="64" height="64" viewBox="0 0 64 64">
<path fill-rule="evenodd" fill="rgb(90.588236%, 8.235294%, 48.235294%)" fill-opacity="1" d="M 17.714844 55.054688 L 13.050781 50.394531 L 14.9375 48.507812 L 18.511719 52.082031 L 24.582031 43.988281 L 26.714844 45.589844 L 19.722656 54.910156 C 19.492188 55.222656 19.136719 55.414062 18.75 55.441406 C 18.71875 55.445312 18.6875 55.445312 18.65625 55.445312 C 18.300781 55.445312 17.964844 55.304688 17.714844 55.054688 Z M 17.714844 36.410156 L 13.050781 31.746094 L 14.9375 29.863281 L 18.511719 33.4375 L 24.582031 25.34375 L 26.714844 26.941406 L 19.722656 36.265625 C 19.492188 36.574219 19.136719 36.769531 18.75 36.796875 C 18.71875 36.796875 18.6875 36.800781 18.65625 36.800781 C 18.300781 36.800781 17.964844 36.660156 17.714844 36.410156 Z M 17.714844 17.761719 L 13.050781 13.101562 L 14.9375 11.214844 L 18.511719 14.789062 L 24.582031 6.695312 L 26.714844 8.296875 L 19.722656 17.617188 C 19.492188 17.929688 19.136719 18.121094 18.75 18.148438 C 18.71875 18.152344 18.6875 18.152344 18.65625 18.152344 C 18.300781 18.152344 17.964844 18.011719 17.714844 17.761719 Z M 30.308594 53.113281 L 50.121094 53.113281 L 50.121094 50.449219 L 30.308594 50.449219 Z M 30.308594 35.632812 L 50.121094 35.632812 L 50.121094 32.96875 L 30.308594 32.96875 Z M 30.308594 16.988281 L 50.121094 16.988281 L 50.121094 14.320312 L 30.308594 14.320312 Z M 10.667969 58.605469 L 54.617188 58.605469 L 54.617188 5.332031 L 10.667969 5.332031 Z M 55.949219 2.667969 L 9.332031 2.667969 C 8.597656 2.667969 8 3.261719 8 4 L 8 59.9375 C 8 60.675781 8.597656 61.273438 9.332031 61.273438 L 55.949219 61.273438 C 56.683594 61.273438 57.28125 60.675781 57.28125 59.9375 L 57.28125 4 C 57.28125 3.261719 56.683594 2.667969 55.949219 2.667969 Z M 55.949219 2.667969 "/>
</svg>
