<?xml version="1.0" encoding="UTF-8"?>
<svg xmlns="http://www.w3.org/2000/svg" xmlns:xlink="http://www.w3.org/1999/xlink" width="64" height="64" viewBox="0 0 64 64">
<path fill-rule="evenodd" fill="rgb(90.588236%, 8.235294%, 48.235294%)" fill-opacity="1" d="M 36.488281 36.070312 C 36.488281 36.007812 36.472656 35.882812 36.363281 35.777344 C 36.261719 35.675781 36.148438 35.652344 36.070312 35.652344 C 36.007812 35.652344 35.882812 35.667969 35.777344 35.777344 C 35.671875 35.882812 35.652344 36.007812 35.652344 36.070312 C 35.652344 36.148438 35.675781 36.261719 35.773438 36.363281 C 36.015625 36.605469 36.183594 36.546875 36.363281 36.367188 L 36.367188 36.363281 C 36.464844 36.261719 36.488281 36.148438 36.488281 36.070312 Z M 38.25 33.890625 C 38.832031 34.472656 39.152344 35.246094 39.152344 36.070312 C 39.152344 36.894531 38.832031 37.667969 38.25 38.25 C 37.667969 38.832031 36.894531 39.152344 36.070312 39.152344 C 35.246094 39.152344 34.472656 38.832031 33.890625 38.25 C 33.308594 37.667969 32.988281 36.894531 32.988281 36.070312 C 32.988281 35.246094 33.308594 34.472656 33.890625 33.890625 C 35.058594 32.726562 37.089844 32.726562 38.25 33.890625 Z M 58.105469 48.324219 L 41.941406 32.160156 L 32.160156 32.160156 L 32.160156 41.941406 L 48.324219 58.105469 Z M 60.933594 49.269531 L 49.269531 60.929688 C 49.007812 61.191406 48.667969 61.324219 48.324219 61.324219 C 47.984375 61.324219 47.644531 61.191406 47.382812 60.929688 L 29.886719 43.4375 C 29.636719 43.1875 29.496094 42.847656 29.496094 42.492188 L 29.496094 30.828125 C 29.496094 30.089844 30.089844 29.496094 30.828125 29.496094 L 42.492188 29.496094 C 42.847656 29.496094 43.1875 29.636719 43.4375 29.886719 L 60.933594 47.382812 C 61.453125 47.902344 61.453125 48.746094 60.933594 49.269531 Z M 8.4375 35.566406 L 6.5625 37.464844 L 10.292969 41.15625 C 10.542969 41.402344 10.882812 41.542969 11.234375 41.542969 C 11.261719 41.542969 11.292969 41.539062 11.328125 41.539062 C 11.710938 41.511719 12.0625 41.320312 12.292969 41.015625 L 17.894531 33.628906 L 15.769531 32.015625 L 11.089844 38.191406 Z M 15.769531 19.574219 L 11.089844 25.75 L 8.4375 23.125 L 6.5625 25.019531 L 10.292969 28.714844 C 10.542969 28.960938 10.882812 29.097656 11.234375 29.097656 C 11.261719 29.097656 11.292969 29.097656 11.328125 29.097656 C 11.710938 29.070312 12.0625 28.878906 12.292969 28.570312 L 17.894531 21.183594 Z M 15.769531 7.132812 L 11.089844 13.304688 L 8.4375 10.683594 L 6.5625 12.578125 L 10.292969 16.273438 C 10.542969 16.519531 10.882812 16.65625 11.234375 16.65625 C 11.261719 16.65625 11.292969 16.65625 11.328125 16.652344 C 11.710938 16.625 12.0625 16.4375 12.292969 16.128906 L 17.894531 8.742188 Z M 20.332031 39.160156 L 27.328125 39.160156 L 27.328125 36.492188 L 20.332031 36.492188 Z M 20.332031 27.496094 L 35.496094 27.496094 L 35.496094 24.828125 L 20.332031 24.828125 Z M 20.332031 14.664062 L 35.496094 14.664062 L 35.496094 12 L 20.332031 12 Z M 5.335938 45.824219 L 30.828125 45.824219 L 30.828125 48.492188 L 4 48.492188 C 3.261719 48.492188 2.667969 47.894531 2.667969 47.160156 L 2.667969 4 C 2.667969 3.261719 3.261719 2.667969 4 2.667969 L 38.992188 2.667969 C 39.730469 2.667969 40.328125 3.261719 40.328125 4 L 40.328125 27.328125 L 37.660156 27.328125 L 37.660156 5.332031 L 5.335938 5.332031 Z M 5.335938 45.824219 "/>
</svg>
