<?xml version="1.0" encoding="UTF-8"?>
<svg xmlns="http://www.w3.org/2000/svg" xmlns:xlink="http://www.w3.org/1999/xlink" width="64" height="64" viewBox="0 0 64 64">
<path fill-rule="evenodd" fill="rgb(90.588236%, 8.235294%, 48.235294%)" fill-opacity="1" d="M 55.234375 54.222656 L 46.183594 54.222656 L 46.183594 26.441406 C 49.09375 27.367188 52.316406 27.367188 55.234375 26.441406 Z M 55.992188 23.28125 C 52.667969 24.863281 48.746094 24.863281 45.421875 23.28125 C 45.011719 23.082031 44.527344 23.113281 44.136719 23.355469 C 43.75 23.597656 43.515625 24.023438 43.515625 24.480469 L 43.515625 55.558594 C 43.515625 56.292969 44.113281 56.890625 44.847656 56.890625 L 56.566406 56.890625 C 57.304688 56.890625 57.898438 56.292969 57.898438 55.558594 L 57.898438 24.480469 C 57.898438 24.023438 57.664062 23.597656 57.277344 23.355469 C 56.890625 23.113281 56.40625 23.082031 55.992188 23.28125 Z M 50.707031 5.335938 C 54.496094 5.335938 57.578125 8.414062 57.578125 12.203125 C 57.578125 15.988281 54.496094 19.070312 50.707031 19.070312 C 46.921875 19.070312 43.839844 15.988281 43.839844 12.203125 C 43.839844 8.414062 46.921875 5.335938 50.707031 5.335938 Z M 50.707031 21.738281 C 55.964844 21.738281 60.242188 17.460938 60.242188 12.203125 C 60.242188 6.945312 55.964844 2.667969 50.707031 2.667969 C 45.449219 2.667969 41.171875 6.945312 41.171875 12.203125 C 41.171875 17.460938 45.449219 21.738281 50.707031 21.738281 Z M 2.667969 61.578125 L 61.253906 61.578125 L 61.253906 58.910156 L 2.667969 58.910156 Z M 27.433594 54.222656 L 36.484375 54.222656 L 36.484375 36.972656 L 27.433594 36.972656 Z M 26.101562 56.890625 L 37.816406 56.890625 C 38.554688 56.890625 39.152344 56.292969 39.152344 55.558594 L 39.152344 35.636719 C 39.152344 34.902344 38.554688 34.304688 37.816406 34.304688 L 26.101562 34.304688 C 25.363281 34.304688 24.765625 34.902344 24.765625 35.636719 L 24.765625 55.558594 C 24.765625 56.292969 25.363281 56.890625 26.101562 56.890625 Z M 8.6875 54.222656 L 17.738281 54.222656 L 17.738281 31.113281 L 8.6875 31.113281 Z M 7.355469 56.890625 L 19.070312 56.890625 C 19.808594 56.890625 20.40625 56.292969 20.40625 55.558594 L 20.40625 29.78125 C 20.40625 29.042969 19.808594 28.445312 19.070312 28.445312 L 7.355469 28.445312 C 6.617188 28.445312 6.019531 29.042969 6.019531 29.78125 L 6.019531 55.558594 C 6.019531 56.292969 6.617188 56.890625 7.355469 56.890625 Z M 7.355469 56.890625 "/>
</svg>
