<?xml version="1.0" encoding="UTF-8"?>
<svg xmlns="http://www.w3.org/2000/svg" xmlns:xlink="http://www.w3.org/1999/xlink" width="64" height="64" viewBox="0 0 64 64">
<path fill-rule="evenodd" fill="rgb(90.588236%, 8.235294%, 48.235294%)" fill-opacity="1" d="M 45.332031 40 C 49.007812 40 52 42.992188 52 46.667969 C 52 50.34375 49.007812 53.332031 45.332031 53.332031 C 41.65625 53.332031 38.667969 50.34375 38.667969 46.667969 C 38.667969 42.992188 41.65625 40 45.332031 40 Z M 45.332031 56 C 50.480469 56 54.667969 51.8125 54.667969 46.667969 C 54.667969 41.519531 50.480469 37.332031 45.332031 37.332031 C 40.1875 37.332031 36 41.519531 36 46.667969 C 36 51.8125 40.1875 56 45.332031 56 Z M 47.773438 20.671875 L 52.773438 30.667969 L 42.777344 30.667969 Z M 40.621094 33.332031 L 54.929688 33.332031 C 55.390625 33.332031 55.820312 33.09375 56.0625 32.703125 C 56.308594 32.308594 56.328125 31.816406 56.121094 31.402344 L 48.96875 17.09375 C 48.515625 16.191406 47.035156 16.191406 46.582031 17.09375 L 39.425781 31.402344 C 39.21875 31.816406 39.242188 32.308594 39.484375 32.703125 C 39.730469 33.09375 40.15625 33.332031 40.621094 33.332031 Z M 18.667969 42.667969 L 30.667969 42.667969 L 30.667969 30.667969 L 18.667969 30.667969 Z M 17.332031 45.332031 L 32 45.332031 C 32.738281 45.332031 33.332031 44.734375 33.332031 44 L 33.332031 29.332031 C 33.332031 28.597656 32.738281 28 32 28 L 17.332031 28 C 16.597656 28 16 28.597656 16 29.332031 L 16 44 C 16 44.734375 16.597656 45.332031 17.332031 45.332031 Z M 5.332031 50.667969 L 8 50.667969 L 8 53.332031 L 4 53.332031 C 3.261719 53.332031 2.667969 52.734375 2.667969 52 L 2.667969 4 C 2.667969 3.265625 3.261719 2.667969 4 2.667969 L 52 2.667969 C 52.738281 2.667969 53.332031 3.265625 53.332031 4 L 53.332031 8 L 50.667969 8 L 50.667969 5.332031 L 5.332031 5.332031 Z M 13.332031 58.667969 L 58.667969 58.667969 L 58.667969 13.332031 L 13.332031 13.332031 Z M 60 10.667969 L 12 10.667969 C 11.261719 10.667969 10.667969 11.265625 10.667969 12 L 10.667969 60 C 10.667969 60.734375 11.261719 61.332031 12 61.332031 L 60 61.332031 C 60.738281 61.332031 61.332031 60.734375 61.332031 60 L 61.332031 12 C 61.332031 11.265625 60.738281 10.667969 60 10.667969 Z M 60 10.667969 "/>
</svg>
