<?xml version="1.0" encoding="UTF-8"?>
<svg xmlns="http://www.w3.org/2000/svg" xmlns:xlink="http://www.w3.org/1999/xlink" width="64" height="64" viewBox="0 0 64 64">
<path fill-rule="evenodd" fill="rgb(90.588236%, 8.235294%, 48.235294%)" fill-opacity="1" d="M 33.332031 31.832031 L 42.5 31.832031 L 42.5 34.5 L 32 34.5 C 31.261719 34.5 30.667969 33.902344 30.667969 33.167969 L 30.667969 19.167969 L 33.332031 19.167969 Z M 32 47 C 23.730469 47 17 40.269531 17 32 C 17 23.730469 23.730469 17 32 17 C 40.269531 17 47 23.730469 47 32 C 47 40.269531 40.269531 47 32 47 Z M 32 14.332031 C 22.257812 14.332031 14.332031 22.257812 14.332031 32 C 14.332031 41.742188 22.257812 49.667969 32 49.667969 C 41.742188 49.667969 49.667969 41.742188 49.667969 32 C 49.667969 22.257812 41.742188 14.332031 32 14.332031 Z M 58.667969 36.152344 L 55.429688 35.96875 C 54.820312 35.941406 54.199219 36.367188 54.054688 37.003906 C 53.488281 39.511719 52.507812 41.882812 51.136719 44.054688 C 50.789062 44.605469 50.890625 45.328125 51.375 45.761719 L 53.792969 47.917969 L 47.921875 53.792969 L 45.769531 51.382812 C 45.335938 50.894531 44.613281 50.796875 44.0625 51.140625 C 41.890625 52.515625 39.515625 53.5 37.007812 54.066406 C 36.371094 54.210938 35.933594 54.792969 35.972656 55.441406 L 36.152344 58.667969 L 27.847656 58.667969 L 28.03125 55.441406 C 28.070312 54.789062 27.632812 54.207031 26.996094 54.0625 C 24.492188 53.5 22.121094 52.515625 19.941406 51.136719 C 19.390625 50.792969 18.667969 50.890625 18.234375 51.378906 L 16.082031 53.792969 L 10.207031 47.917969 L 12.621094 45.765625 C 13.105469 45.332031 13.207031 44.613281 12.863281 44.0625 C 11.488281 41.882812 10.507812 39.511719 9.941406 37.007812 C 9.800781 36.371094 9.191406 35.941406 8.566406 35.96875 L 5.332031 36.152344 L 5.332031 27.847656 L 8.578125 28.03125 C 9.21875 28.046875 9.804688 27.628906 9.953125 26.992188 C 10.519531 24.496094 11.5 22.128906 12.875 19.953125 C 13.222656 19.402344 13.121094 18.679688 12.636719 18.246094 L 10.207031 16.082031 L 16.082031 10.207031 L 18.246094 12.632812 C 18.679688 13.117188 19.402344 13.21875 19.953125 12.871094 C 22.125 11.503906 24.492188 10.523438 26.996094 9.957031 C 27.632812 9.816406 28.070312 9.234375 28.03125 8.582031 L 27.847656 5.332031 L 36.152344 5.332031 L 35.972656 8.585938 C 35.933594 9.234375 36.371094 9.816406 37.007812 9.960938 C 39.503906 10.527344 41.871094 11.507812 44.042969 12.878906 C 44.589844 13.222656 45.316406 13.121094 45.75 12.636719 L 47.917969 10.207031 L 53.792969 16.082031 L 51.371094 18.242188 C 50.882812 18.675781 50.78125 19.398438 51.132812 19.949219 C 52.503906 22.121094 53.484375 24.492188 54.050781 26.992188 C 54.195312 27.628906 54.789062 28.046875 55.429688 28.03125 L 58.667969 27.847656 Z M 60.917969 25.464844 C 60.648438 25.214844 60.289062 25.078125 59.925781 25.105469 L 56.378906 25.304688 C 55.820312 23.273438 55.015625 21.328125 53.96875 19.496094 L 56.621094 17.128906 C 56.894531 16.886719 57.058594 16.539062 57.066406 16.171875 C 57.078125 15.808594 56.9375 15.453125 56.675781 15.191406 L 48.808594 7.324219 C 48.546875 7.0625 48.183594 6.949219 47.828125 6.933594 C 47.460938 6.941406 47.113281 7.105469 46.871094 7.378906 L 44.496094 10.039062 C 42.664062 8.996094 40.722656 8.191406 38.695312 7.632812 L 38.894531 4.074219 C 38.917969 3.710938 38.785156 3.351562 38.535156 3.085938 C 38.28125 2.816406 37.933594 2.667969 37.566406 2.667969 L 26.4375 2.667969 C 26.070312 2.667969 25.71875 2.816406 25.46875 3.085938 C 25.214844 3.351562 25.085938 3.710938 25.105469 4.074219 L 25.308594 7.632812 C 23.277344 8.1875 21.332031 8.992188 19.5 10.035156 L 17.132812 7.378906 C 16.886719 7.105469 16.542969 6.941406 16.175781 6.933594 C 15.804688 6.953125 15.453125 7.0625 15.195312 7.324219 L 7.324219 15.191406 C 7.066406 15.453125 6.921875 15.804688 6.933594 16.171875 C 6.945312 16.539062 7.105469 16.886719 7.378906 17.128906 L 10.035156 19.5 C 8.988281 21.332031 8.183594 23.277344 7.625 25.304688 L 4.078125 25.105469 C 3.703125 25.078125 3.351562 25.214844 3.085938 25.464844 C 2.816406 25.71875 2.667969 26.066406 2.667969 26.433594 L 2.667969 37.5625 C 2.667969 37.929688 2.816406 38.28125 3.085938 38.53125 C 3.351562 38.785156 3.703125 38.914062 4.078125 38.894531 L 7.617188 38.695312 C 8.171875 40.726562 8.976562 42.675781 10.023438 44.511719 L 7.378906 46.871094 C 7.105469 47.113281 6.945312 47.460938 6.933594 47.828125 C 6.921875 48.191406 7.066406 48.546875 7.324219 48.808594 L 15.195312 56.675781 C 15.453125 56.9375 15.800781 57.074219 16.175781 57.066406 C 16.542969 57.058594 16.886719 56.894531 17.132812 56.621094 L 19.492188 53.976562 C 21.328125 55.023438 23.273438 55.832031 25.304688 56.390625 L 25.105469 59.925781 C 25.085938 60.289062 25.214844 60.648438 25.46875 60.914062 C 25.71875 61.183594 26.070312 61.332031 26.4375 61.332031 L 37.566406 61.332031 C 37.933594 61.332031 38.28125 61.183594 38.535156 60.914062 C 38.785156 60.648438 38.917969 60.289062 38.894531 59.925781 L 38.695312 56.394531 C 40.730469 55.835938 42.683594 55.027344 44.515625 53.980469 L 46.871094 56.621094 C 47.113281 56.894531 47.460938 57.054688 47.828125 57.066406 C 48.148438 57.078125 48.546875 56.9375 48.808594 56.675781 L 56.675781 48.808594 C 56.9375 48.546875 57.078125 48.191406 57.066406 47.828125 C 57.058594 47.460938 56.894531 47.113281 56.621094 46.871094 L 53.972656 44.507812 C 55.019531 42.675781 55.824219 40.726562 56.382812 38.695312 L 59.925781 38.894531 C 60.289062 38.914062 60.648438 38.785156 60.917969 38.53125 C 61.183594 38.28125 61.332031 37.929688 61.332031 37.5625 L 61.332031 26.433594 C 61.332031 26.066406 61.183594 25.71875 60.917969 25.464844 Z M 60.917969 25.464844 "/>
</svg>
