<?xml version="1.0" encoding="UTF-8"?>
<svg xmlns="http://www.w3.org/2000/svg" xmlns:xlink="http://www.w3.org/1999/xlink" width="64" height="64" viewBox="0 0 64 64">
<path fill-rule="evenodd" fill="rgb(90.588236%, 8.235294%, 48.235294%)" fill-opacity="1" d="M 54 56.5 L 56.667969 56.5 L 56.667969 46 L 54 46 Z M 48.167969 56.5 L 50.835938 56.5 L 50.835938 51.832031 L 48.167969 51.832031 Z M 42.335938 56.5 L 45 56.5 L 45 49.5 L 42.335938 49.5 Z M 36.5 56.5 L 39.167969 56.5 L 39.167969 51.832031 L 36.5 51.832031 Z M 43.707031 46.410156 L 48.816406 49.476562 C 49.125 49.660156 49.5 49.710938 49.847656 49.621094 C 50.195312 49.527344 50.492188 49.296875 50.667969 48.980469 L 55.394531 40.46875 L 55.617188 41.554688 L 58.230469 41.015625 L 57.289062 36.445312 C 57.136719 35.726562 56.445312 35.265625 55.710938 35.410156 L 51.140625 36.351562 L 51.679688 38.960938 L 53.378906 38.613281 L 49.003906 46.480469 L 44.351562 43.691406 C 43.910156 43.421875 43.355469 43.4375 42.929688 43.722656 L 35.929688 48.390625 L 37.40625 50.609375 Z M 34.5 58.667969 L 58.667969 58.667969 L 58.667969 34.5 L 34.5 34.5 Z M 61.335938 33.167969 L 61.335938 60 C 61.335938 60.738281 60.738281 61.332031 60 61.332031 L 33.167969 61.332031 C 32.429688 61.332031 31.835938 60.738281 31.835938 60 L 31.835938 33.167969 C 31.835938 32.429688 32.429688 31.832031 33.167969 31.832031 L 60 31.832031 C 60.738281 31.832031 61.335938 32.429688 61.335938 33.167969 Z M 8.4375 35.574219 L 6.5625 37.46875 L 10.296875 41.164062 C 10.546875 41.410156 10.882812 41.546875 11.234375 41.546875 C 11.265625 41.546875 11.296875 41.546875 11.328125 41.542969 C 11.710938 41.515625 12.066406 41.328125 12.296875 41.019531 L 17.898438 33.632812 L 15.773438 32.019531 L 11.089844 38.195312 Z M 15.773438 19.574219 L 11.089844 25.753906 L 8.4375 23.128906 L 6.5625 25.023438 L 10.296875 28.71875 C 10.546875 28.964844 10.882812 29.105469 11.234375 29.105469 C 11.265625 29.105469 11.296875 29.101562 11.328125 29.101562 C 11.710938 29.074219 12.066406 28.882812 12.296875 28.578125 L 17.898438 21.1875 Z M 15.773438 7.132812 L 11.089844 13.308594 L 8.4375 10.683594 L 6.5625 12.578125 L 10.296875 16.273438 C 10.546875 16.519531 10.882812 16.660156 11.234375 16.660156 C 11.265625 16.660156 11.296875 16.65625 11.328125 16.65625 C 11.710938 16.628906 12.066406 16.4375 12.296875 16.132812 L 17.898438 8.742188 Z M 20.335938 39.167969 L 29.667969 39.167969 L 29.667969 36.5 L 20.335938 36.5 Z M 20.335938 27.5 L 35.5 27.5 L 35.5 24.832031 L 20.335938 24.832031 Z M 20.335938 14.667969 L 35.5 14.667969 L 35.5 12 L 20.335938 12 Z M 5.332031 45.832031 L 29.667969 45.832031 L 29.667969 48.5 L 4 48.5 C 3.261719 48.5 2.667969 47.902344 2.667969 47.167969 L 2.667969 4 C 2.667969 3.261719 3.261719 2.667969 4 2.667969 L 39 2.667969 C 39.738281 2.667969 40.335938 3.261719 40.335938 4 L 40.335938 29.667969 L 37.667969 29.667969 L 37.667969 5.332031 L 5.332031 5.332031 Z M 5.332031 45.832031 "/>
</svg>
