<?xml version="1.0" encoding="UTF-8"?>
<svg xmlns="http://www.w3.org/2000/svg" xmlns:xlink="http://www.w3.org/1999/xlink" width="64" height="64" viewBox="0 0 64 64">
<path fill-rule="evenodd" fill="rgb(90.588236%, 8.235294%, 48.235294%)" fill-opacity="1" d="M 46.03125 54.035156 L 55.039062 54.035156 L 55.039062 26.347656 L 46.03125 26.347656 Z M 44.695312 23.679688 C 43.957031 23.679688 43.363281 24.277344 43.363281 25.011719 L 43.363281 55.367188 C 43.363281 56.105469 43.957031 56.703125 44.695312 56.703125 L 56.371094 56.703125 C 57.109375 56.703125 57.703125 56.105469 57.703125 55.367188 L 57.703125 25.011719 C 57.703125 24.277344 57.109375 23.679688 56.371094 23.679688 Z M 43.691406 5.890625 C 43.691406 5.582031 43.945312 5.332031 44.25 5.332031 L 56.816406 5.332031 C 57.121094 5.332031 57.371094 5.582031 57.371094 5.890625 L 57.371094 18.453125 C 57.371094 18.761719 57.121094 19.011719 56.816406 19.011719 L 44.25 19.011719 C 43.945312 19.011719 43.691406 18.761719 43.691406 18.453125 Z M 44.25 21.675781 L 56.816406 21.675781 C 58.59375 21.675781 60.039062 20.230469 60.039062 18.453125 L 60.039062 5.890625 C 60.039062 4.113281 58.59375 2.667969 56.816406 2.667969 L 44.25 2.667969 C 42.472656 2.667969 41.027344 4.113281 41.027344 5.890625 L 41.027344 18.453125 C 41.027344 20.230469 42.472656 21.675781 44.25 21.675781 Z M 2.667969 61.371094 L 61.039062 61.371094 L 61.039062 58.707031 L 2.667969 58.707031 Z M 27.347656 54.035156 L 36.355469 54.035156 L 36.355469 36.855469 L 27.347656 36.855469 Z M 26.015625 56.703125 L 37.691406 56.703125 C 38.429688 56.703125 39.023438 56.105469 39.023438 55.367188 L 39.023438 35.519531 C 39.023438 34.785156 38.429688 34.1875 37.691406 34.1875 L 26.015625 34.1875 C 25.28125 34.1875 24.683594 34.785156 24.683594 35.519531 L 24.683594 55.367188 C 24.683594 56.105469 25.28125 56.703125 26.015625 56.703125 Z M 8.671875 54.035156 L 17.679688 54.035156 L 17.679688 31.015625 L 8.671875 31.015625 Z M 7.335938 56.703125 L 19.011719 56.703125 C 19.746094 56.703125 20.34375 56.105469 20.34375 55.367188 L 20.34375 29.683594 C 20.34375 28.949219 19.746094 28.351562 19.011719 28.351562 L 7.335938 28.351562 C 6.601562 28.351562 6.003906 28.949219 6.003906 29.683594 L 6.003906 55.367188 C 6.003906 56.105469 6.601562 56.703125 7.335938 56.703125 Z M 7.335938 56.703125 "/>
</svg>
