<?xml version="1.0" encoding="UTF-8"?>
<svg xmlns="http://www.w3.org/2000/svg" xmlns:xlink="http://www.w3.org/1999/xlink" width="64" height="64" viewBox="0 0 64 64">
<path fill-rule="evenodd" fill="rgb(90.588236%, 8.235294%, 48.235294%)" fill-opacity="1" d="M 2.722656 2.667969 L 2.722656 19.296875 L 17.414062 19.328125 L 20.964844 22.839844 L 61.289062 22.773438 L 61.269531 6.144531 L 22.050781 6.144531 L 18.515625 2.667969 Z M 18.507812 16.664062 L 5.390625 16.636719 L 5.390625 5.332031 L 17.425781 5.332031 L 20.957031 8.808594 L 58.605469 8.808594 L 58.621094 20.109375 L 22.0625 20.167969 Z M 50.585938 12.605469 L 48.0625 10.074219 L 46.175781 11.957031 L 48.703125 14.492188 L 46.164062 17.027344 L 48.050781 18.910156 L 50.585938 16.378906 L 53.117188 18.921875 L 55.003906 17.039062 L 52.46875 14.496094 L 55.003906 11.957031 L 53.117188 10.074219 Z M 2.667969 21.289062 L 2.667969 37.957031 L 17.414062 37.957031 L 20.945312 41.453125 L 61.28125 41.433594 L 61.261719 24.824219 L 22.039062 24.808594 L 18.597656 21.289062 Z M 5.332031 23.957031 L 17.476562 23.957031 L 20.914062 27.476562 L 58.597656 27.488281 L 58.613281 38.769531 L 22.042969 38.785156 L 18.511719 35.289062 L 5.332031 35.289062 Z M 47.226562 33.703125 L 45.730469 32.210938 L 43.847656 34.097656 L 47.0625 37.3125 L 54.972656 30.699219 L 53.261719 28.652344 Z M 2.667969 39.933594 L 2.667969 56.601562 L 17.445312 56.585938 L 20.988281 60.03125 L 61.269531 60.097656 L 61.28125 43.449219 L 22.042969 43.449219 L 18.425781 39.933594 Z M 5.332031 42.601562 L 17.34375 42.601562 L 20.957031 46.117188 L 58.613281 46.113281 L 58.605469 57.425781 L 22.074219 57.367188 L 18.527344 53.917969 L 5.332031 53.933594 Z M 46.90625 52.28125 L 45.414062 50.789062 L 43.527344 52.675781 L 46.742188 55.894531 L 54.652344 49.277344 L 52.941406 47.230469 Z M 46.90625 52.28125 "/>
</svg>
