<?xml version="1.0" encoding="UTF-8"?>
<svg xmlns="http://www.w3.org/2000/svg" xmlns:xlink="http://www.w3.org/1999/xlink" width="64" height="64" viewBox="0 0 64 64">
<path fill-rule="evenodd" fill="rgb(90.588236%, 8.235294%, 48.235294%)" fill-opacity="1" d="M 26.316406 58.621094 L 37.640625 58.621094 L 37.640625 47.300781 L 26.316406 47.300781 Z M 38.972656 44.632812 L 24.984375 44.632812 C 24.246094 44.632812 23.652344 45.230469 23.652344 45.964844 L 23.652344 59.953125 C 23.652344 60.691406 24.246094 61.289062 24.984375 61.289062 L 38.972656 61.289062 C 39.710938 61.289062 40.308594 60.691406 40.308594 59.953125 L 40.308594 45.964844 C 40.308594 45.230469 39.710938 44.632812 38.972656 44.632812 Z M 47.300781 58.621094 L 58.621094 58.621094 L 58.621094 47.300781 L 47.300781 47.300781 Z M 59.957031 44.632812 L 45.964844 44.632812 C 45.230469 44.632812 44.632812 45.230469 44.632812 45.964844 L 44.632812 59.953125 C 44.632812 60.691406 45.230469 61.289062 45.964844 61.289062 L 59.957031 61.289062 C 60.691406 61.289062 61.289062 60.691406 61.289062 59.953125 L 61.289062 45.964844 C 61.289062 45.230469 60.691406 44.632812 59.957031 44.632812 Z M 5.332031 58.621094 L 16.65625 58.621094 L 16.65625 47.300781 L 5.332031 47.300781 Z M 17.988281 44.632812 L 4 44.632812 C 3.265625 44.632812 2.667969 45.230469 2.667969 45.964844 L 2.667969 59.953125 C 2.667969 60.691406 3.265625 61.289062 4 61.289062 L 17.988281 61.289062 C 18.726562 61.289062 19.324219 60.691406 19.324219 59.953125 L 19.324219 45.964844 C 19.324219 45.230469 18.726562 44.632812 17.988281 44.632812 Z M 26.316406 37.636719 L 37.640625 37.636719 L 37.640625 26.316406 L 26.316406 26.316406 Z M 38.972656 23.648438 L 24.984375 23.648438 C 24.246094 23.648438 23.652344 24.246094 23.652344 24.984375 L 23.652344 38.972656 C 23.652344 39.707031 24.246094 40.304688 24.984375 40.304688 L 38.972656 40.304688 C 39.710938 40.304688 40.308594 39.707031 40.308594 38.972656 L 40.308594 24.984375 C 40.308594 24.246094 39.710938 23.648438 38.972656 23.648438 Z M 47.300781 37.636719 L 58.621094 37.636719 L 58.621094 26.316406 L 47.300781 26.316406 Z M 59.957031 23.648438 L 45.964844 23.648438 C 45.230469 23.648438 44.632812 24.246094 44.632812 24.984375 L 44.632812 38.972656 C 44.632812 39.707031 45.230469 40.304688 45.964844 40.304688 L 59.957031 40.304688 C 60.691406 40.304688 61.289062 39.707031 61.289062 38.972656 L 61.289062 24.984375 C 61.289062 24.246094 60.691406 23.648438 59.957031 23.648438 Z M 5.332031 37.636719 L 16.65625 37.636719 L 16.65625 26.316406 L 5.332031 26.316406 Z M 17.988281 23.648438 L 4 23.648438 C 3.265625 23.648438 2.667969 24.246094 2.667969 24.984375 L 2.667969 38.972656 C 2.667969 39.707031 3.265625 40.304688 4 40.304688 L 17.988281 40.304688 C 18.726562 40.304688 19.324219 39.707031 19.324219 38.972656 L 19.324219 24.984375 C 19.324219 24.246094 18.726562 23.648438 17.988281 23.648438 Z M 26.316406 16.65625 L 37.640625 16.65625 L 37.640625 5.332031 L 26.316406 5.332031 Z M 38.972656 2.667969 L 24.984375 2.667969 C 24.246094 2.667969 23.652344 3.261719 23.652344 4 L 23.652344 17.988281 C 23.652344 18.726562 24.246094 19.320312 24.984375 19.320312 L 38.972656 19.320312 C 39.710938 19.320312 40.308594 18.726562 40.308594 17.988281 L 40.308594 4 C 40.308594 3.261719 39.710938 2.667969 38.972656 2.667969 Z M 47.300781 16.65625 L 58.621094 16.65625 L 58.621094 5.332031 L 47.300781 5.332031 Z M 59.957031 2.667969 L 45.964844 2.667969 C 45.230469 2.667969 44.632812 3.261719 44.632812 4 L 44.632812 17.988281 C 44.632812 18.726562 45.230469 19.320312 45.964844 19.320312 L 59.957031 19.320312 C 60.691406 19.320312 61.289062 18.726562 61.289062 17.988281 L 61.289062 4 C 61.289062 3.261719 60.691406 2.667969 59.957031 2.667969 Z M 5.332031 16.65625 L 16.65625 16.65625 L 16.65625 5.332031 L 5.332031 5.332031 Z M 17.988281 2.667969 L 4 2.667969 C 3.265625 2.667969 2.667969 3.261719 2.667969 4 L 2.667969 17.988281 C 2.667969 18.726562 3.265625 19.320312 4 19.320312 L 17.988281 19.320312 C 18.726562 19.320312 19.324219 18.726562 19.324219 17.988281 L 19.324219 4 C 19.324219 3.261719 18.726562 2.667969 17.988281 2.667969 Z M 17.988281 2.667969 "/>
</svg>
