<?xml version="1.0" encoding="UTF-8"?>
<svg xmlns="http://www.w3.org/2000/svg" xmlns:xlink="http://www.w3.org/1999/xlink" width="64" height="64" viewBox="0 0 64 64">
<path fill-rule="evenodd" fill="rgb(90.588236%, 8.235294%, 48.235294%)" fill-opacity="1" d="M 42.664062 41.296875 L 42.667969 41.296875 C 43.378906 41.296875 44.046875 41.019531 44.550781 40.515625 C 45.054688 40.011719 45.332031 39.34375 45.332031 38.628906 C 45.335938 37.917969 45.058594 37.246094 44.554688 36.742188 C 44.050781 36.238281 43.382812 35.960938 42.667969 35.960938 L 42.664062 35.960938 C 41.953125 35.960938 41.285156 36.238281 40.78125 36.742188 C 40.277344 37.246094 40 37.914062 40 38.628906 C 40 40.101562 41.195312 41.296875 42.664062 41.296875 Z M 41.332031 49.296875 L 41.332031 43.773438 C 39.039062 43.175781 37.332031 41.105469 37.332031 38.628906 C 37.335938 37.203125 37.890625 35.863281 38.898438 34.855469 C 39.902344 33.851562 41.242188 33.296875 42.664062 33.296875 L 42.667969 33.296875 C 44.09375 33.296875 45.433594 33.851562 46.441406 34.859375 C 47.449219 35.867188 48 37.207031 48 38.632812 C 48 40.058594 47.445312 41.398438 46.4375 42.402344 C 45.753906 43.085938 44.910156 43.542969 44 43.773438 L 44 49.296875 Z M 33.308594 26.632812 L 52.046875 26.640625 L 52.042969 17.324219 C 52.050781 14.855469 51.09375 12.53125 49.34375 10.765625 C 47.585938 8.992188 45.242188 8.007812 42.746094 8 L 42.71875 8 C 40.238281 8 37.890625 8.976562 36.113281 10.753906 C 34.335938 12.527344 33.351562 14.859375 33.34375 17.320312 Z M 61.332031 27.976562 L 61.320312 55.964844 C 61.320312 56.703125 60.722656 57.296875 59.988281 57.296875 L 25.332031 57.285156 C 24.597656 57.285156 24 56.683594 24 55.949219 L 24.003906 38.628906 L 26.671875 38.628906 L 26.667969 54.617188 L 58.65625 54.628906 L 58.667969 29.308594 L 26.675781 29.296875 L 26.675781 30.628906 L 24.007812 30.628906 L 24.007812 27.960938 C 24.007812 27.226562 24.605469 26.628906 25.34375 26.628906 L 30.640625 26.628906 L 30.675781 17.3125 C 30.6875 14.140625 31.949219 11.140625 34.230469 8.867188 C 36.511719 6.585938 39.527344 5.332031 42.71875 5.332031 L 42.757812 5.332031 C 45.964844 5.34375 48.976562 6.605469 51.238281 8.886719 C 53.488281 11.160156 54.722656 14.15625 54.710938 17.328125 L 54.710938 26.640625 L 60 26.644531 C 60.355469 26.644531 60.691406 26.78125 60.941406 27.035156 C 61.191406 27.285156 61.332031 27.621094 61.332031 27.976562 Z M 2.667969 46.628906 L 18.667969 46.628906 L 18.667969 43.964844 L 2.667969 43.964844 Z M 2.667969 25.296875 L 18.667969 25.296875 L 18.667969 22.628906 L 2.667969 22.628906 Z M 2.667969 35.960938 L 34.664062 35.960938 L 34.664062 33.296875 L 2.667969 33.296875 Z M 2.667969 57.296875 L 21.332031 57.296875 L 21.332031 54.628906 L 2.667969 54.628906 Z M 2.667969 14.628906 L 24 14.628906 L 24 11.960938 L 2.667969 11.960938 Z M 2.667969 14.628906 "/>
</svg>
