<?xml version="1.0" encoding="UTF-8"?>
<svg xmlns="http://www.w3.org/2000/svg" xmlns:xlink="http://www.w3.org/1999/xlink" width="64" height="64" viewBox="0 0 64 64">
<path fill-rule="evenodd" fill="rgb(90.588236%, 8.235294%, 48.235294%)" fill-opacity="1" d="M 13.738281 15.339844 C 13.75 15.933594 13.992188 16.492188 14.425781 16.90625 C 14.851562 17.316406 15.417969 17.535156 16.015625 17.527344 C 16.613281 17.515625 17.167969 17.273438 17.582031 16.84375 C 17.996094 16.414062 18.21875 15.847656 18.207031 15.25 C 18.195312 14.652344 17.949219 14.097656 17.519531 13.683594 C 17.101562 13.28125 16.550781 13.0625 15.972656 13.0625 C 15.957031 13.0625 15.941406 13.0625 15.929688 13.0625 C 15.332031 13.074219 14.773438 13.316406 14.363281 13.746094 C 13.945312 14.175781 13.726562 14.742188 13.738281 15.339844 Z M 12.574219 18.828125 C 11.628906 17.917969 11.097656 16.699219 11.070312 15.390625 C 11.046875 14.082031 11.53125 12.839844 12.4375 11.898438 C 14.3125 9.949219 17.421875 9.886719 19.371094 11.761719 C 20.3125 12.667969 20.847656 13.890625 20.871094 15.199219 C 20.898438 16.507812 20.410156 17.746094 19.503906 18.691406 C 18.542969 19.691406 17.257812 20.191406 15.96875 20.191406 C 14.746094 20.191406 13.523438 19.738281 12.574219 18.828125 Z M 5.636719 16.167969 L 7.066406 20.582031 L 10.121094 19.96875 C 10.492188 19.894531 10.875 19.980469 11.175781 20.207031 L 12.699219 21.332031 C 12.996094 21.550781 13.1875 21.882812 13.230469 22.25 L 13.589844 25.328125 L 18.226562 25.332031 L 18.59375 22.230469 C 18.632812 21.863281 18.828125 21.527344 19.128906 21.308594 L 20.628906 20.210938 C 20.933594 19.988281 21.316406 19.902344 21.679688 19.976562 L 24.761719 20.59375 L 26.195312 16.183594 L 23.347656 14.875 C 23.003906 14.71875 22.746094 14.425781 22.632812 14.070312 L 22.066406 12.300781 C 21.953125 11.945312 21.992188 11.5625 22.175781 11.238281 L 23.710938 8.511719 L 19.957031 5.78125 L 17.859375 8.0625 C 17.609375 8.332031 17.257812 8.488281 16.886719 8.488281 L 14.996094 8.5 L 14.988281 8.5 C 14.613281 8.5 14.261719 8.34375 14.007812 8.070312 L 11.894531 5.777344 L 8.136719 8.5 L 9.675781 11.242188 C 9.859375 11.566406 9.898438 11.953125 9.78125 12.304688 L 9.210938 14.054688 C 9.097656 14.410156 8.839844 14.699219 8.5 14.855469 Z M 2.734375 15.863281 C 2.527344 15.21875 2.832031 14.519531 3.449219 14.238281 L 6.855469 12.675781 L 7.066406 12.035156 L 5.230469 8.769531 C 4.898438 8.179688 5.0625 7.433594 5.609375 7.039062 L 11.289062 2.921875 C 11.832031 2.523438 12.59375 2.597656 13.050781 3.097656 L 15.570312 5.832031 L 16.292969 5.824219 L 18.800781 3.101562 C 19.261719 2.605469 20.019531 2.53125 20.566406 2.925781 L 26.238281 7.054688 C 26.785156 7.453125 26.945312 8.195312 26.617188 8.785156 L 24.785156 12.039062 L 24.992188 12.699219 L 28.386719 14.257812 C 29.003906 14.539062 29.308594 15.238281 29.097656 15.878906 L 26.929688 22.546875 C 26.71875 23.191406 26.054688 23.574219 25.398438 23.441406 L 21.730469 22.707031 L 21.171875 23.117188 L 20.738281 26.824219 C 20.65625 27.492188 20.089844 28 19.414062 28 L 19.410156 28 L 12.398438 27.992188 C 11.722656 27.992188 11.15625 27.488281 11.078125 26.816406 L 10.648438 23.132812 L 10.066406 22.699219 L 6.429688 23.429688 C 5.757812 23.5625 5.105469 23.175781 4.898438 22.53125 Z M 38.667969 46.667969 C 38.667969 50.34375 41.65625 53.332031 45.332031 53.332031 C 49.007812 53.332031 52 50.34375 52 46.667969 C 52 42.992188 49.007812 40 45.332031 40 C 41.65625 40 38.667969 42.992188 38.667969 46.667969 Z M 36 46.667969 C 36 41.519531 40.1875 37.332031 45.332031 37.332031 C 50.480469 37.332031 54.667969 41.519531 54.667969 46.667969 C 54.667969 51.8125 50.480469 56 45.332031 56 C 40.1875 56 36 51.8125 36 46.667969 Z M 41.445312 29.332031 L 51.4375 29.332031 L 46.441406 19.339844 Z M 38.152344 31.367188 C 37.910156 30.976562 37.886719 30.484375 38.09375 30.070312 L 45.25 15.761719 C 45.703125 14.859375 47.179688 14.859375 47.632812 15.761719 L 54.789062 30.070312 C 54.996094 30.484375 54.976562 30.976562 54.730469 31.367188 C 54.488281 31.761719 54.058594 32 53.597656 32 L 39.285156 32 C 38.824219 32 38.394531 31.761719 38.152344 31.367188 Z M 17.332031 45.332031 L 29.332031 45.332031 L 29.332031 33.332031 L 17.332031 33.332031 Z M 16 30.667969 L 30.667969 30.667969 C 31.402344 30.667969 32 31.265625 32 32 L 32 46.667969 C 32 47.402344 31.402344 48 30.667969 48 L 16 48 C 15.265625 48 14.667969 47.402344 14.667969 46.667969 L 14.667969 32 C 14.667969 31.265625 15.265625 30.667969 16 30.667969 Z M 61.332031 4 L 61.332031 60 C 61.332031 60.738281 60.738281 61.332031 60 61.332031 L 4 61.332031 C 3.265625 61.332031 2.667969 60.738281 2.667969 60 L 2.667969 29.332031 L 5.332031 29.332031 L 5.332031 58.667969 L 58.667969 58.667969 L 58.667969 5.332031 L 29.332031 5.332031 L 29.332031 2.667969 L 60 2.667969 C 60.738281 2.667969 61.332031 3.265625 61.332031 4 Z M 61.332031 4 "/>
</svg>
