<?xml version="1.0" encoding="UTF-8"?>
<svg xmlns="http://www.w3.org/2000/svg" xmlns:xlink="http://www.w3.org/1999/xlink" width="64" height="64" viewBox="0 0 64 64">
<path fill-rule="evenodd" fill="rgb(90.588236%, 8.235294%, 48.235294%)" fill-opacity="1" d="M 12.667969 28 C 14.503906 28 16 29.496094 16 31.332031 C 16 33.171875 14.503906 34.667969 12.667969 34.667969 C 10.828125 34.667969 9.332031 33.171875 9.332031 31.332031 C 9.332031 29.496094 10.828125 28 12.667969 28 Z M 31.332031 16 C 33.171875 16 34.667969 17.496094 34.667969 19.332031 C 34.667969 21.171875 33.171875 22.667969 31.332031 22.667969 C 29.496094 22.667969 28 21.171875 28 19.332031 C 28 17.496094 29.496094 16 31.332031 16 Z M 52.667969 5.332031 C 54.503906 5.332031 56 6.828125 56 8.667969 C 56 10.503906 54.503906 12 52.667969 12 C 50.828125 12 49.332031 10.503906 49.332031 8.667969 C 49.332031 6.828125 50.828125 5.332031 52.667969 5.332031 Z M 12.667969 37.332031 C 15.976562 37.332031 18.667969 34.640625 18.667969 31.332031 C 18.667969 30.519531 18.5 29.746094 18.207031 29.039062 L 27.328125 23.824219 L 27.269531 23.71875 C 28.339844 24.710938 29.761719 25.332031 31.332031 25.332031 C 34.640625 25.332031 37.332031 22.640625 37.332031 19.332031 C 37.332031 18.738281 37.21875 18.171875 37.058594 17.628906 L 47.863281 12.226562 C 48.957031 13.699219 50.695312 14.667969 52.667969 14.667969 C 55.976562 14.667969 58.667969 11.976562 58.667969 8.667969 C 58.667969 5.359375 55.976562 2.667969 52.667969 2.667969 C 49.359375 2.667969 46.667969 5.359375 46.667969 8.667969 C 46.667969 9.050781 46.710938 9.421875 46.78125 9.785156 L 35.746094 15.300781 C 34.648438 14.101562 33.085938 13.332031 31.332031 13.332031 C 28.023438 13.332031 25.332031 16.023438 25.332031 19.332031 C 25.332031 20.148438 25.5 20.921875 25.792969 21.628906 L 16.671875 26.84375 L 16.730469 26.949219 C 15.660156 25.953125 14.238281 25.332031 12.667969 25.332031 C 9.359375 25.332031 6.667969 28.023438 6.667969 31.332031 C 6.667969 34.640625 9.359375 37.332031 12.667969 37.332031 Z M 56 54.667969 C 56 56.871094 54.207031 58.667969 52 58.667969 C 49.792969 58.667969 48 56.871094 48 54.667969 L 48 20 L 56 20 Z M 61.332031 17.332031 L 42.667969 17.332031 L 42.667969 20 L 45.332031 20 L 45.332031 54.667969 C 45.332031 58.34375 48.324219 61.332031 52 61.332031 C 55.675781 61.332031 58.667969 58.34375 58.667969 54.667969 L 58.667969 20 L 61.332031 20 Z M 36 54.667969 C 36 56.871094 34.207031 58.667969 32 58.667969 C 29.792969 58.667969 28 56.871094 28 54.667969 L 28 30.667969 L 36 30.667969 Z M 22.667969 30.667969 L 25.332031 30.667969 L 25.332031 54.667969 C 25.332031 58.34375 28.324219 61.332031 32 61.332031 C 35.675781 61.332031 38.667969 58.34375 38.667969 54.667969 L 38.667969 30.667969 L 41.332031 30.667969 L 41.332031 28 L 22.667969 28 Z M 16 54.667969 C 16 56.871094 14.207031 58.667969 12 58.667969 C 9.792969 58.667969 8 56.871094 8 54.667969 L 8 41.332031 L 16 41.332031 Z M 2.667969 41.332031 L 5.332031 41.332031 L 5.332031 54.667969 C 5.332031 58.34375 8.324219 61.332031 12 61.332031 C 15.675781 61.332031 18.667969 58.34375 18.667969 54.667969 L 18.667969 41.332031 L 21.332031 41.332031 L 21.332031 38.667969 L 2.667969 38.667969 Z M 2.667969 41.332031 "/>
</svg>
