<?xml version="1.0" encoding="UTF-8"?>
<svg xmlns="http://www.w3.org/2000/svg" xmlns:xlink="http://www.w3.org/1999/xlink" width="64" height="64" viewBox="0 0 64 64">
<path fill-rule="evenodd" fill="rgb(90.588236%, 8.235294%, 48.235294%)" fill-opacity="1" d="M 32.386719 37.761719 L 32.390625 37.761719 C 33.082031 37.761719 33.734375 38.03125 34.222656 38.523438 C 34.710938 39.011719 34.976562 39.660156 34.976562 40.347656 L 34.976562 40.351562 C 34.976562 41.042969 34.707031 41.691406 34.21875 42.179688 C 33.730469 42.667969 33.082031 42.933594 32.390625 42.933594 L 32.386719 42.933594 C 30.960938 42.933594 29.804688 41.773438 29.804688 40.347656 C 29.804688 38.921875 30.964844 37.761719 32.386719 37.761719 Z M 31.054688 45.410156 L 31.054688 52.300781 L 33.722656 52.300781 L 33.722656 45.410156 C 34.613281 45.179688 35.4375 44.734375 36.101562 44.066406 C 37.097656 43.074219 37.640625 41.753906 37.640625 40.351562 C 37.644531 38.949219 37.101562 37.628906 36.109375 36.636719 C 35.117188 35.644531 33.796875 35.097656 32.390625 35.097656 L 32.386719 35.097656 C 29.496094 35.097656 27.140625 37.449219 27.136719 40.347656 C 27.136719 42.78125 28.808594 44.816406 31.054688 45.410156 Z M 50.101562 58.644531 L 14.667969 58.628906 L 14.675781 31.535156 L 50.113281 31.550781 Z M 21.898438 15.714844 C 21.914062 9.984375 26.632812 5.332031 32.417969 5.332031 L 32.453125 5.332031 C 38.222656 5.351562 42.902344 10.058594 42.886719 15.832031 L 42.886719 28.878906 L 21.855469 28.871094 Z M 52.390625 29.273438 C 52.136719 29.023438 51.800781 28.882812 51.445312 28.882812 L 45.550781 28.882812 L 45.550781 15.835938 C 45.574219 8.597656 39.699219 2.691406 32.460938 2.667969 L 32.417969 2.667969 C 25.167969 2.667969 19.253906 8.507812 19.230469 15.707031 L 19.191406 28.871094 L 13.34375 28.871094 C 12.988281 28.871094 12.648438 29.011719 12.398438 29.261719 C 12.148438 29.511719 12.007812 29.847656 12.007812 30.203125 L 12 59.964844 C 12 60.699219 12.597656 61.296875 13.332031 61.296875 L 51.433594 61.3125 C 52.167969 61.3125 52.765625 60.714844 52.765625 59.980469 L 52.78125 30.21875 C 52.78125 29.863281 52.636719 29.523438 52.390625 29.273438 Z M 52.390625 29.273438 "/>
</svg>
