<?xml version="1.0" encoding="UTF-8"?>
<svg xmlns="http://www.w3.org/2000/svg" xmlns:xlink="http://www.w3.org/1999/xlink" width="64" height="64" viewBox="0 0 64 64">
<path fill-rule="evenodd" fill="rgb(90.588236%, 8.235294%, 48.235294%)" fill-opacity="1" d="M 19.210938 19.664062 L 17.328125 21.550781 L 27.734375 31.957031 L 49.738281 5.0625 L 47.671875 3.375 L 27.535156 27.988281 Z M 57.34375 50.246094 L 50.984375 44.347656 L 44.125 51.210938 L 50.464844 57.074219 C 52.375 58.929688 55.394531 58.890625 57.230469 57.007812 C 59.125 55.152344 59.164062 52.128906 57.34375 50.246094 Z M 40.835938 48.171875 L 42.164062 49.398438 L 49.03125 42.53125 L 47.804688 41.390625 C 46.953125 42.625 46 43.796875 44.917969 44.878906 C 43.664062 46.136719 42.292969 47.226562 40.835938 48.171875 Z M 59.117188 58.890625 C 57.675781 60.371094 55.75 61.113281 53.820312 61.113281 C 51.949219 61.113281 50.078125 60.414062 48.632812 59.011719 L 38.402344 49.550781 C 35.027344 51.226562 31.300781 52.136719 27.425781 52.136719 L 27.410156 52.136719 C 20.804688 52.136719 14.597656 49.570312 9.925781 44.902344 C 5.25 40.230469 2.671875 34.019531 2.667969 27.410156 C 2.660156 24.1875 3.277344 21.042969 4.5 18.0625 L 6.964844 19.078125 C 6.046875 21.316406 5.535156 23.667969 5.394531 26.074219 L 12.195312 26.074219 L 12.195312 28.742188 L 5.398438 28.742188 C 5.722656 34.136719 7.953125 39.164062 11.808594 43.015625 C 15.660156 46.863281 20.6875 49.085938 26.078125 49.40625 L 26.078125 42.625 L 28.746094 42.625 L 28.746094 49.40625 C 34.144531 49.085938 39.175781 46.855469 43.03125 42.996094 C 46.875 39.148438 49.101562 34.125 49.421875 28.742188 L 42.628906 28.742188 L 42.628906 26.074219 L 49.441406 26.074219 C 49.21875 22.324219 48.050781 18.699219 46.023438 15.519531 L 48.269531 14.082031 C 50.808594 18.0625 52.152344 22.660156 52.15625 27.378906 C 52.15625 31.527344 51.140625 35.523438 49.230469 39.078125 L 59.210938 48.34375 C 62.097656 51.324219 62.035156 56.035156 59.117188 58.890625 Z M 13.0625 10.671875 L 11.324219 8.652344 C 9.144531 10.53125 7.320312 12.757812 5.90625 15.269531 L 8.226562 16.578125 C 9.492188 14.335938 11.117188 12.347656 13.0625 10.671875 Z M 15.421875 8.863281 L 13.976562 6.621094 C 22.089844 1.375 32.59375 1.347656 40.738281 6.546875 L 39.300781 8.796875 C 36.074219 6.734375 32.429688 5.597656 28.746094 5.375 L 28.746094 12.191406 L 26.078125 12.191406 L 26.078125 5.378906 C 22.351562 5.605469 18.671875 6.761719 15.421875 8.863281 Z M 15.421875 8.863281 "/>
</svg>
