<?xml version="1.0" encoding="UTF-8"?>
<svg xmlns="http://www.w3.org/2000/svg" xmlns:xlink="http://www.w3.org/1999/xlink" width="64" height="64" viewBox="0 0 64 64">
<path fill-rule="evenodd" fill="rgb(90.588236%, 8.235294%, 48.235294%)" fill-opacity="1" d="M 4.789062 42.457031 L 7.421875 42.878906 C 8.042969 39.003906 11.816406 36.757812 14.246094 36.175781 C 14.871094 36.058594 15.335938 35.511719 15.335938 34.863281 C 15.335938 34.792969 15.332031 34.722656 15.320312 34.65625 C 15.265625 34.230469 15.238281 33.800781 15.238281 33.378906 C 15.238281 32.261719 15.503906 31.042969 16.007812 29.851562 L 13.546875 28.816406 C 12.910156 30.332031 12.574219 31.910156 12.574219 33.378906 C 12.574219 33.546875 12.578125 33.714844 12.585938 33.882812 C 9.128906 35.066406 5.492188 38.0625 4.789062 42.457031 Z M 2.667969 48 L 10.667969 48 L 10.667969 45.332031 L 2.667969 45.332031 Z M 2.667969 58.667969 L 9.332031 58.667969 L 9.332031 56 L 2.667969 56 Z M 8 53.332031 L 13.332031 53.332031 L 13.332031 50.667969 L 8 50.667969 Z M 2.667969 53.332031 L 5.332031 53.332031 L 5.332031 50.667969 L 2.667969 50.667969 Z M 35.109375 45.332031 C 32.796875 45.332031 31.558594 46.207031 30.5625 46.910156 C 29.664062 47.542969 29.019531 48 27.550781 48 C 26.089844 48 25.441406 47.542969 24.546875 46.910156 C 23.550781 46.207031 22.3125 45.332031 20 45.332031 L 13.332031 45.332031 L 13.332031 48 L 20 48 C 21.464844 48 22.113281 48.457031 23.007812 49.089844 C 24.003906 49.792969 25.242188 50.667969 27.550781 50.667969 C 29.867188 50.667969 31.105469 49.792969 32.097656 49.089844 C 32.996094 48.457031 33.644531 48 35.109375 48 C 36.574219 48 37.222656 48.457031 38.121094 49.089844 C 39.113281 49.792969 40.355469 50.667969 42.667969 50.667969 L 42.667969 48 C 41.203125 48 40.554688 47.542969 39.65625 46.910156 C 38.660156 46.207031 37.421875 45.332031 35.109375 45.332031 Z M 35.109375 56 C 32.796875 56 31.558594 56.875 30.5625 57.578125 C 29.664062 58.210938 29.019531 58.667969 27.550781 58.667969 C 26.089844 58.667969 25.441406 58.210938 24.546875 57.578125 C 23.550781 56.875 22.3125 56 20 56 L 12 56 L 12 58.667969 L 20 58.667969 C 21.464844 58.667969 22.113281 59.125 23.007812 59.757812 C 24.003906 60.457031 25.242188 61.332031 27.550781 61.332031 C 29.867188 61.332031 31.105469 60.457031 32.097656 59.757812 C 32.996094 59.125 33.644531 58.667969 35.109375 58.667969 C 36.574219 58.667969 37.222656 59.125 38.121094 59.757812 C 39.113281 60.457031 40.355469 61.332031 42.667969 61.332031 L 42.667969 58.667969 C 41.203125 58.667969 40.554688 58.210938 39.65625 57.578125 C 38.660156 56.875 37.421875 56 35.109375 56 Z M 35.109375 50.667969 C 32.796875 50.667969 31.558594 51.542969 30.5625 52.242188 C 29.664062 52.875 29.019531 53.332031 27.550781 53.332031 C 26.089844 53.332031 25.441406 52.875 24.546875 52.242188 C 23.550781 51.542969 22.3125 50.667969 20 50.667969 L 16 50.667969 L 16 53.332031 L 20 53.332031 C 21.464844 53.332031 22.113281 53.789062 23.007812 54.421875 C 24.003906 55.125 25.242188 56 27.550781 56 C 29.867188 56 31.105469 55.125 32.097656 54.421875 C 32.996094 53.789062 33.644531 53.332031 35.109375 53.332031 C 36.574219 53.332031 37.222656 53.789062 38.121094 54.421875 C 39.113281 55.125 40.355469 56 42.667969 56 L 42.667969 53.332031 C 41.203125 53.332031 40.554688 52.875 39.65625 52.242188 C 38.660156 51.542969 37.421875 50.667969 35.109375 50.667969 Z M 28 5.332031 L 30.667969 5.332031 L 30.667969 2.667969 L 28 2.667969 Z M 22.667969 9.332031 L 25.332031 9.332031 L 25.332031 6.667969 L 22.667969 6.667969 Z M 16 8 L 18.667969 8 L 18.667969 5.332031 L 16 5.332031 Z M 15.691406 14.667969 L 21.144531 23.722656 C 21.265625 23.929688 21.332031 24.167969 21.332031 24.410156 L 21.332031 28 L 24 28 L 24 24.410156 C 24 24.167969 24.066406 23.929688 24.191406 23.722656 L 29.644531 14.667969 Z M 12.191406 14.019531 C 11.941406 13.609375 11.9375 13.097656 12.171875 12.675781 C 12.410156 12.257812 12.851562 12 13.332031 12 L 32 12 C 32.480469 12 32.925781 12.257812 33.160156 12.675781 C 33.398438 13.097656 33.390625 13.609375 33.144531 14.019531 L 26.667969 24.78125 L 26.667969 29.332031 C 26.667969 30.070312 26.070312 30.667969 25.332031 30.667969 L 20 30.667969 C 19.261719 30.667969 18.667969 30.070312 18.667969 29.332031 L 18.667969 24.78125 Z M 60.285156 45.285156 C 60.285156 53.125 53.84375 55.71875 50.441406 55.996094 L 45.332031 56 L 45.332031 53.332031 L 50.332031 53.332031 C 50.523438 53.3125 57.617188 52.601562 57.617188 45.285156 C 57.617188 39.132812 52.53125 37.597656 50.34375 37.21875 C 49.644531 37.101562 49.164062 36.457031 49.242188 35.757812 C 49.019531 33.007812 47.753906 31.039062 45.832031 30.476562 C 44.253906 30.011719 42.550781 30.632812 41.503906 32.050781 C 41.210938 32.445312 40.71875 32.648438 40.234375 32.578125 C 39.746094 32.503906 39.339844 32.167969 39.175781 31.703125 C 38.40625 29.523438 37.292969 27.699219 35.871094 26.273438 C 34.433594 24.832031 32.722656 23.757812 30.914062 23.160156 L 31.753906 20.628906 C 33.953125 21.355469 36.03125 22.65625 37.757812 24.390625 C 39.023438 25.660156 40.082031 27.179688 40.910156 28.925781 C 42.546875 27.738281 44.609375 27.339844 46.578125 27.917969 C 49.414062 28.746094 51.332031 31.289062 51.820312 34.808594 C 56.085938 35.878906 60.285156 39.101562 60.285156 45.285156 Z M 60.285156 45.285156 "/>
</svg>
