<?xml version="1.0" encoding="UTF-8"?>
<svg xmlns="http://www.w3.org/2000/svg" xmlns:xlink="http://www.w3.org/1999/xlink" width="64" height="64" viewBox="0 0 64 64">
<path fill-rule="evenodd" fill="rgb(90.588236%, 8.235294%, 48.235294%)" fill-opacity="1" d="M 55.925781 54.542969 L 48.421875 47.515625 L 56.523438 39.332031 C 58.066406 41.421875 58.902344 43.945312 58.902344 46.570312 C 58.902344 49.539062 57.847656 52.328125 55.925781 54.542969 Z M 34.507812 47.285156 C 34.496094 47.046875 34.488281 46.808594 34.488281 46.570312 C 34.488281 40.292969 39.253906 35.105469 45.355469 34.433594 L 45.355469 47.371094 C 45.355469 47.714844 45.496094 48.023438 45.71875 48.265625 L 45.53125 48.464844 L 53.964844 56.359375 C 51.871094 57.917969 49.347656 58.777344 46.695312 58.777344 C 40.238281 58.777344 34.886719 53.730469 34.507812 47.285156 Z M 24.121094 27.859375 C 27.390625 27.859375 30.59375 28.773438 33.386719 30.503906 C 35.132812 31.585938 36.65625 32.957031 37.957031 34.558594 C 34.554688 37.042969 32.242188 40.925781 31.882812 45.363281 L 6.046875 45.363281 C 6.707031 35.59375 14.558594 27.859375 24.121094 27.859375 Z M 14.386719 15.203125 C 14.386719 9.832031 18.757812 5.464844 24.121094 5.464844 C 29.492188 5.464844 33.855469 9.832031 33.855469 15.203125 C 33.855469 20.570312 29.492188 24.9375 24.121094 24.9375 C 18.757812 24.9375 14.386719 20.570312 14.386719 15.203125 Z M 56.632812 36.019531 C 56.28125 36.046875 55.921875 36.15625 55.664062 36.414062 L 48.023438 44.128906 L 48.023438 33.03125 C 48.023438 32.675781 47.882812 32.335938 47.632812 32.085938 C 47.382812 31.835938 47.042969 31.695312 46.6875 31.695312 C 44.382812 31.695312 42.210938 32.238281 40.261719 33.179688 C 38.722656 31.214844 36.898438 29.542969 34.789062 28.234375 C 33.300781 27.3125 31.703125 26.601562 30.046875 26.09375 C 33.902344 23.988281 36.523438 19.894531 36.523438 15.203125 C 36.523438 8.363281 30.960938 2.800781 24.121094 2.800781 C 17.285156 2.800781 11.722656 8.363281 11.722656 15.203125 C 11.722656 19.894531 14.34375 23.988281 18.199219 26.09375 C 9.613281 28.738281 3.332031 36.964844 3.332031 46.695312 C 3.332031 47.429688 3.929688 48.027344 4.667969 48.027344 L 31.910156 48.027344 C 32.648438 55.59375 39.023438 61.441406 46.695312 61.441406 C 50.609375 61.441406 54.308594 59.933594 57.101562 57.195312 C 59.984375 54.378906 61.570312 50.605469 61.570312 46.570312 C 61.570312 42.800781 60.15625 39.207031 57.589844 36.445312 C 57.339844 36.175781 56.996094 36.023438 56.632812 36.019531 Z M 52.023438 24.101562 C 54.496094 24.375 56.839844 25.402344 58.71875 27.035156 L 52.023438 33.792969 Z M 50.179688 38.269531 C 50.34375 38.335938 50.519531 38.371094 50.6875 38.371094 C 51.039062 38.371094 51.382812 38.230469 51.636719 37.976562 L 61.558594 27.953125 C 62.0625 27.449219 62.074219 26.632812 61.589844 26.109375 C 58.785156 23.09375 54.816406 21.363281 50.6875 21.363281 C 49.953125 21.363281 49.355469 21.957031 49.355469 22.695312 L 49.355469 37.035156 C 49.355469 37.578125 49.683594 38.0625 50.179688 38.269531 Z M 50.179688 38.269531 "/>
</svg>
