<?xml version="1.0" encoding="UTF-8"?>
<svg xmlns="http://www.w3.org/2000/svg" xmlns:xlink="http://www.w3.org/1999/xlink" width="64" height="64" viewBox="0 0 64 64">
<path fill-rule="evenodd" fill="rgb(90.588236%, 8.235294%, 48.235294%)" fill-opacity="1" d="M 30.3125 50.785156 L 50.125 50.785156 L 50.125 48.117188 L 30.3125 48.117188 Z M 30.3125 34.46875 L 50.125 34.46875 L 50.125 31.800781 L 30.3125 31.800781 Z M 30.3125 18.152344 L 50.125 18.152344 L 50.125 15.488281 L 30.3125 15.488281 Z M 18.824219 50.449219 L 24.316406 50.449219 L 24.316406 44.957031 L 18.824219 44.957031 Z M 17.492188 53.117188 L 25.652344 53.117188 C 26.386719 53.117188 26.984375 52.519531 26.984375 51.785156 L 26.984375 43.625 C 26.984375 42.886719 26.386719 42.292969 25.652344 42.292969 L 17.492188 42.292969 C 16.753906 42.292969 16.15625 42.886719 16.15625 43.625 L 16.15625 51.785156 C 16.15625 52.519531 16.753906 53.117188 17.492188 53.117188 Z M 18.824219 34.132812 L 24.316406 34.132812 L 24.316406 28.640625 L 18.824219 28.640625 Z M 17.492188 36.800781 L 25.652344 36.800781 C 26.386719 36.800781 26.984375 36.203125 26.984375 35.46875 L 26.984375 27.308594 C 26.984375 26.570312 26.386719 25.976562 25.652344 25.976562 L 17.492188 25.976562 C 16.753906 25.976562 16.15625 26.570312 16.15625 27.308594 L 16.15625 35.46875 C 16.15625 36.203125 16.753906 36.800781 17.492188 36.800781 Z M 18.824219 17.816406 L 24.316406 17.816406 L 24.316406 12.324219 L 18.824219 12.324219 Z M 17.492188 20.484375 L 25.652344 20.484375 C 26.386719 20.484375 26.984375 19.886719 26.984375 19.152344 L 26.984375 10.992188 C 26.984375 10.253906 26.386719 9.660156 25.652344 9.660156 L 17.492188 9.660156 C 16.753906 9.660156 16.15625 10.253906 16.15625 10.992188 L 16.15625 19.152344 C 16.15625 19.886719 16.753906 20.484375 17.492188 20.484375 Z M 10.667969 58.609375 L 54.617188 58.609375 L 54.617188 5.332031 L 10.667969 5.332031 Z M 55.949219 2.667969 L 9.332031 2.667969 C 8.597656 2.667969 8 3.261719 8 4 L 8 59.941406 C 8 60.679688 8.597656 61.273438 9.332031 61.273438 L 55.949219 61.273438 C 56.6875 61.273438 57.285156 60.679688 57.285156 59.941406 L 57.285156 4 C 57.285156 3.261719 56.6875 2.667969 55.949219 2.667969 Z M 55.949219 2.667969 "/>
</svg>
