<?xml version="1.0" encoding="UTF-8"?>
<svg xmlns="http://www.w3.org/2000/svg" xmlns:xlink="http://www.w3.org/1999/xlink" width="64" height="64" viewBox="0 0 64 64">
<path fill-rule="evenodd" fill="rgb(90.588236%, 8.235294%, 48.235294%)" fill-opacity="1" d="M 55.945312 34.941406 L 58.585938 35.320312 C 56.675781 48.671875 44.96875 59.128906 31.929688 59.128906 C 20.460938 59.128906 10.027344 51.03125 6.382812 39.988281 L 5.195312 43.550781 L 2.667969 42.707031 L 5.332031 34.707031 C 5.46875 34.292969 5.800781 33.976562 6.21875 33.851562 C 6.636719 33.730469 7.089844 33.816406 7.429688 34.089844 L 14.097656 39.421875 L 12.429688 41.503906 L 8.738281 38.550781 C 11.839844 48.839844 21.394531 56.464844 31.929688 56.464844 C 43.671875 56.464844 54.21875 47.007812 55.945312 34.941406 Z M 7.917969 29.984375 L 5.277344 29.609375 C 7.226562 15.996094 18.933594 5.332031 31.929688 5.332031 C 43.390625 5.332031 53.835938 13.625 57.488281 24.914062 L 58.667969 21.375 L 61.195312 22.21875 L 58.527344 30.21875 C 58.390625 30.632812 58.058594 30.953125 57.640625 31.074219 C 57.519531 31.113281 57.390625 31.128906 57.265625 31.128906 C 56.964844 31.128906 56.671875 31.03125 56.429688 30.835938 L 49.765625 25.503906 L 51.429688 23.421875 L 55.136719 26.386719 C 52.039062 15.832031 42.464844 8 31.929688 8 C 20.230469 8 9.679688 17.65625 7.917969 29.984375 Z M 38.597656 42.667969 L 41.265625 42.667969 L 41.265625 40 L 38.597656 40 Z M 38.597656 37.332031 L 41.265625 37.332031 L 41.265625 34.667969 L 38.597656 34.667969 Z M 33.265625 42.667969 L 35.929688 42.667969 L 35.929688 40 L 33.265625 40 Z M 33.265625 37.332031 L 35.929688 37.332031 L 35.929688 34.667969 L 33.265625 34.667969 Z M 27.929688 42.667969 L 30.597656 42.667969 L 30.597656 40 L 27.929688 40 Z M 27.929688 37.332031 L 30.597656 37.332031 L 30.597656 34.667969 L 27.929688 34.667969 Z M 22.597656 42.667969 L 25.265625 42.667969 L 25.265625 40 L 22.597656 40 Z M 22.597656 37.332031 L 25.265625 37.332031 L 25.265625 34.667969 L 22.597656 34.667969 Z M 22.597656 32 L 25.265625 32 L 25.265625 29.332031 L 22.597656 29.332031 Z M 38.597656 32 L 41.265625 32 L 41.265625 29.332031 L 38.597656 29.332031 Z M 33.265625 32 L 35.929688 32 L 35.929688 29.332031 L 33.265625 29.332031 Z M 27.929688 32 L 30.597656 32 L 30.597656 29.332031 L 27.929688 29.332031 Z M 27.929688 20 L 27.929688 21.332031 L 30.597656 21.332031 L 30.597656 20 L 33.265625 20 L 33.265625 21.332031 L 35.929688 21.332031 L 35.929688 20 L 38.597656 20 L 38.597656 21.332031 L 41.265625 21.332031 L 41.265625 20 L 43.929688 20 L 43.929688 24 L 19.929688 24 L 19.929688 20 L 22.597656 20 L 22.597656 21.332031 L 25.265625 21.332031 L 25.265625 20 Z M 19.929688 45.332031 L 43.929688 45.332031 L 43.929688 26.667969 L 19.929688 26.667969 Z M 22.597656 16 L 22.597656 17.332031 L 18.597656 17.332031 C 17.863281 17.332031 17.265625 17.929688 17.265625 18.667969 L 17.265625 46.667969 C 17.265625 47.402344 17.863281 48 18.597656 48 L 45.265625 48 C 46 48 46.597656 47.402344 46.597656 46.667969 L 46.597656 18.667969 C 46.597656 17.929688 46 17.332031 45.265625 17.332031 L 41.265625 17.332031 L 41.265625 16 L 38.597656 16 L 38.597656 17.332031 L 35.929688 17.332031 L 35.929688 16 L 33.265625 16 L 33.265625 17.332031 L 30.597656 17.332031 L 30.597656 16 L 27.929688 16 L 27.929688 17.332031 L 25.265625 17.332031 L 25.265625 16 Z M 22.597656 16 "/>
</svg>
