<?xml version="1.0" encoding="UTF-8"?>
<svg xmlns="http://www.w3.org/2000/svg" xmlns:xlink="http://www.w3.org/1999/xlink" width="64" height="64" viewBox="0 0 64 64">
<path fill-rule="evenodd" fill="rgb(90.588236%, 8.235294%, 48.235294%)" fill-opacity="1" d="M 32.808594 53.214844 L 24.347656 53.214844 L 24.347656 50.550781 L 32.808594 50.550781 L 31.582031 49.320312 L 33.46875 47.4375 L 36.972656 50.941406 C 37.492188 51.460938 37.492188 52.304688 36.972656 52.824219 L 33.46875 56.328125 L 31.582031 54.445312 Z M 32.808594 34.53125 L 24.347656 34.53125 L 24.347656 31.863281 L 32.808594 31.863281 L 31.582031 30.636719 L 33.46875 28.75 L 36.972656 32.253906 C 37.492188 32.773438 37.492188 33.617188 36.972656 34.140625 L 33.46875 37.644531 L 31.582031 35.757812 Z M 32.808594 15.84375 L 24.347656 15.84375 L 24.347656 13.175781 L 32.808594 13.175781 L 31.582031 11.949219 L 33.46875 10.0625 L 36.972656 13.566406 C 37.492188 14.089844 37.492188 14.933594 36.972656 15.453125 L 33.46875 18.957031 L 31.582031 17.070312 Z M 50.984375 48.152344 L 47.839844 51.300781 L 50.984375 54.445312 L 49.101562 56.328125 L 45.953125 53.183594 L 42.8125 56.328125 L 40.925781 54.445312 L 44.070312 51.300781 L 40.925781 48.152344 L 42.8125 46.269531 L 45.953125 49.414062 L 49.101562 46.269531 Z M 44.785156 12.558594 L 47.761719 17.847656 L 41.8125 17.847656 Z M 39.53125 20.515625 L 50.042969 20.515625 C 50.515625 20.515625 50.953125 20.265625 51.195312 19.855469 C 51.433594 19.445312 51.4375 18.941406 51.203125 18.527344 L 45.949219 9.1875 C 45.476562 8.347656 44.097656 8.347656 43.625 9.1875 L 38.371094 18.527344 C 38.136719 18.941406 38.140625 19.445312 38.382812 19.855469 C 38.621094 20.265625 39.058594 20.515625 39.53125 20.515625 Z M 49.878906 32.613281 C 49.878906 33.171875 48.386719 34.199219 45.953125 34.199219 C 43.523438 34.199219 42.035156 33.171875 42.035156 32.613281 C 42.035156 32.054688 43.523438 31.027344 45.953125 31.027344 C 48.386719 31.027344 49.878906 32.054688 49.878906 32.613281 Z M 39.367188 32.613281 C 39.367188 35.039062 42.199219 36.867188 45.953125 36.867188 C 49.710938 36.867188 52.542969 35.039062 52.542969 32.613281 C 52.542969 30.1875 49.710938 28.359375 45.953125 28.359375 C 42.199219 28.359375 39.367188 30.1875 39.367188 32.613281 Z M 16.757812 46.207031 C 18.226562 46.207031 19.511719 48.3125 19.511719 50.714844 C 19.511719 53.117188 18.226562 55.222656 16.757812 55.222656 C 15.289062 55.222656 14.003906 53.117188 14.003906 50.714844 C 14.003906 48.3125 15.289062 46.207031 16.757812 46.207031 Z M 16.757812 57.886719 C 19.796875 57.886719 22.179688 54.738281 22.179688 50.714844 C 22.179688 46.691406 19.796875 43.542969 16.757812 43.542969 C 13.71875 43.542969 11.335938 46.691406 11.335938 50.714844 C 11.335938 54.738281 13.71875 57.886719 16.757812 57.886719 Z M 16.757812 29.859375 C 18.277344 29.859375 19.511719 31.09375 19.511719 32.613281 C 19.511719 34.132812 18.277344 35.367188 16.757812 35.367188 C 15.238281 35.367188 14.003906 34.132812 14.003906 32.613281 C 14.003906 31.09375 15.238281 29.859375 16.757812 29.859375 Z M 16.757812 38.035156 C 19.746094 38.035156 22.179688 35.601562 22.179688 32.613281 C 22.179688 29.625 19.746094 27.191406 16.757812 27.191406 C 13.769531 27.191406 11.335938 29.625 11.335938 32.613281 C 11.335938 35.601562 13.769531 38.035156 16.757812 38.035156 Z M 14.003906 17.847656 L 19.511719 17.847656 L 19.511719 12.339844 L 14.003906 12.339844 Z M 12.671875 20.515625 L 20.84375 20.515625 C 21.582031 20.515625 22.179688 19.917969 22.179688 19.183594 L 22.179688 11.007812 C 22.179688 10.269531 21.582031 9.671875 20.84375 9.671875 L 12.671875 9.671875 C 11.933594 9.671875 11.335938 10.269531 11.335938 11.007812 L 11.335938 19.183594 C 11.335938 19.917969 11.933594 20.515625 12.671875 20.515625 Z M 9.332031 58.726562 L 53.382812 58.726562 L 53.382812 5.332031 L 9.332031 5.332031 Z M 54.714844 2.667969 L 8 2.667969 C 7.261719 2.667969 6.667969 3.261719 6.667969 4 L 6.667969 60.058594 C 6.667969 60.796875 7.261719 61.390625 8 61.390625 L 54.714844 61.390625 C 55.449219 61.390625 56.046875 60.796875 56.046875 60.058594 L 56.046875 4 C 56.046875 3.261719 55.449219 2.667969 54.714844 2.667969 Z M 54.714844 2.667969 "/>
</svg>
