<?xml version="1.0" encoding="UTF-8"?>
<svg xmlns="http://www.w3.org/2000/svg" xmlns:xlink="http://www.w3.org/1999/xlink" width="64" height="64" viewBox="0 0 64 64">
<path fill-rule="evenodd" fill="rgb(90.588236%, 8.235294%, 48.235294%)" fill-opacity="1" d="M 30.453125 20.5 L 29.039062 18.238281 C 31.285156 16.835938 33.757812 15.929688 36.398438 15.550781 L 36.777344 18.1875 C 34.507812 18.515625 32.382812 19.292969 30.453125 20.5 Z M 28.714844 21.753906 C 25.152344 24.703125 22.992188 29.03125 22.796875 33.628906 L 20.132812 33.515625 C 20.363281 28.164062 22.871094 23.128906 27.015625 19.699219 Z M 30.410156 30.480469 C 29.878906 31.808594 29.703125 33.269531 29.910156 34.695312 L 27.269531 35.074219 C 26.996094 33.183594 27.230469 31.25 27.9375 29.488281 Z M 31.175781 29.023438 L 28.949219 27.554688 C 30.65625 24.964844 33.398438 23.222656 36.46875 22.78125 L 36.851562 25.417969 C 34.53125 25.753906 32.464844 27.066406 31.175781 29.023438 Z M 30.667969 41.324219 L 11.941406 41.324219 C 10.375 41.324219 9.238281 40.734375 8.417969 40.21875 C 6.273438 38.867188 2.667969 35.714844 2.667969 29.734375 C 2.667969 22.644531 7.386719 19.9375 10.300781 18.941406 L 10.257812 18.234375 C 10.257812 12.277344 14.222656 6.179688 19.484375 3.980469 C 25.628906 1.394531 32.140625 2.671875 36.902344 7.414062 C 38.296875 8.800781 39.457031 10.46875 40.367188 12.398438 C 42.253906 10.992188 44.730469 10.546875 47.03125 11.308594 C 50.027344 12.296875 51.910156 15.007812 52.195312 18.648438 C 55.28125 19.425781 61.292969 21.960938 61.292969 29.828125 L 61.296875 30.226562 C 61.300781 30.828125 61.300781 31.816406 61.292969 32.023438 L 58.628906 31.90625 C 58.636719 31.714844 58.632812 30.796875 58.628906 30.242188 L 58.628906 29.828125 C 58.628906 23.136719 53.050781 21.457031 50.648438 21.042969 C 50.289062 20.980469 49.972656 20.777344 49.769531 20.472656 C 49.574219 20.179688 49.5 19.828125 49.566406 19.484375 C 49.527344 16.589844 48.304688 14.535156 46.195312 13.839844 C 44.289062 13.207031 42.183594 13.890625 40.960938 15.535156 C 40.671875 15.929688 40.179688 16.128906 39.695312 16.058594 C 39.210938 15.988281 38.804688 15.652344 38.636719 15.191406 C 37.789062 12.828125 36.574219 10.847656 35.023438 9.304688 C 33.117188 7.410156 27.890625 3.328125 20.515625 6.441406 C 16.257812 8.222656 12.925781 13.367188 12.925781 18.15625 L 13.027344 19.835938 C 13.066406 20.476562 12.644531 21.050781 12.023438 21.207031 C 9.523438 21.839844 5.332031 23.785156 5.332031 29.734375 C 5.332031 34.195312 7.785156 36.667969 9.839844 37.960938 C 10.636719 38.464844 11.226562 38.660156 11.941406 38.660156 L 30.667969 38.660156 Z M 47.6875 57.039062 L 50.355469 57.039062 C 50.355469 59.386719 48.445312 61.300781 46.09375 61.300781 C 43.742188 61.300781 41.832031 59.386719 41.832031 57.039062 L 44.5 57.039062 C 44.5 57.917969 45.214844 58.632812 46.09375 58.632812 C 46.972656 58.632812 47.6875 57.917969 47.6875 57.039062 Z M 58.667969 51.695312 C 58.667969 52.59375 57.9375 53.324219 57.039062 53.324219 L 34.960938 53.324219 C 34.0625 53.324219 33.332031 52.59375 33.332031 51.695312 L 33.332031 50.953125 C 33.332031 50.054688 34.0625 49.324219 34.960938 49.324219 L 57.039062 49.324219 C 57.9375 49.324219 58.667969 50.054688 58.667969 50.953125 Z M 37.332031 38.871094 C 37.332031 34.582031 39.335938 31.476562 42.695312 30.574219 C 43.277344 30.414062 43.679688 29.886719 43.679688 29.285156 L 43.679688 26.503906 C 43.679688 26.042969 43.949219 25.605469 44.414062 25.300781 C 45.355469 24.6875 46.191406 24.972656 46.601562 25.195312 C 47.261719 25.554688 47.621094 26.148438 47.621094 26.527344 L 47.621094 29.015625 C 47.621094 29.640625 48.050781 30.179688 48.65625 30.316406 C 52.363281 31.160156 54.667969 34.5 54.667969 39.039062 L 54.667969 46.660156 L 37.332031 46.660156 Z M 57.332031 46.6875 L 57.332031 39.039062 C 57.332031 33.605469 54.660156 29.476562 50.285156 28.007812 L 50.285156 26.527344 C 50.285156 25.089844 49.339844 23.648438 47.875 22.851562 C 46.308594 22.003906 44.46875 22.082031 42.960938 23.066406 C 41.742188 23.859375 41.015625 25.144531 41.015625 26.503906 L 41.015625 28.316406 C 37.019531 29.84375 34.667969 33.714844 34.667969 38.871094 L 34.667969 46.660156 L 34.960938 46.660156 C 32.59375 46.660156 30.667969 48.585938 30.667969 50.953125 L 30.667969 51.695312 C 30.667969 54.066406 32.59375 55.992188 34.960938 55.992188 L 57.039062 55.992188 C 59.40625 55.992188 61.332031 54.066406 61.332031 51.695312 L 61.332031 50.953125 C 61.332031 48.6875 59.5625 46.84375 57.332031 46.6875 Z M 57.332031 46.6875 "/>
</svg>
