<?xml version="1.0" encoding="UTF-8"?>
<svg xmlns="http://www.w3.org/2000/svg" xmlns:xlink="http://www.w3.org/1999/xlink" width="64" height="64" viewBox="0 0 64 64">
<path fill-rule="evenodd" fill="rgb(90.588236%, 8.235294%, 48.235294%)" fill-opacity="1" d="M 21.109375 20.910156 C 21.128906 20.910156 21.144531 20.910156 21.160156 20.910156 C 21.464844 20.910156 21.753906 21.023438 21.976562 21.230469 C 22.214844 21.449219 22.355469 21.746094 22.367188 22.070312 C 22.378906 22.390625 22.269531 22.699219 22.050781 22.9375 C 21.832031 23.171875 21.535156 23.3125 21.210938 23.324219 C 20.542969 23.351562 19.980469 22.835938 19.953125 22.167969 C 19.925781 21.503906 20.445312 20.941406 21.109375 20.910156 Z M 11.960938 18.617188 L 11.347656 31.679688 L 21.660156 41.980469 C 22.859375 42.089844 24.265625 42.28125 25.464844 42.160156 L 13.960938 30.667969 L 14.445312 20.3125 C 15.5625 21.035156 16.558594 21.636719 17.300781 22.070312 C 17.300781 22.140625 17.289062 22.210938 17.289062 22.28125 C 17.378906 24.359375 19.097656 25.992188 21.160156 25.992188 C 21.214844 25.992188 21.269531 25.992188 21.324219 25.988281 C 22.355469 25.945312 23.3125 25.503906 24.011719 24.742188 C 24.710938 23.980469 25.074219 22.992188 25.03125 21.957031 C 24.941406 19.824219 23.128906 18.164062 21 18.246094 C 19.910156 18.292969 18.945312 18.789062 18.273438 19.546875 C 17.105469 18.855469 15.847656 18.054688 14.59375 17.191406 L 14.691406 15.078125 L 30.28125 14.320312 L 42.050781 26.074219 C 42.203125 24.917969 42.113281 23.753906 42.050781 22.589844 L 31.289062 11.707031 L 12.238281 12.628906 L 12.109375 15.390625 C 8.816406 12.855469 6.035156 10.070312 5.734375 7.949219 C 5.632812 7.226562 5.835938 6.65625 6.449219 6.042969 C 6.476562 6.019531 7.054688 5.417969 8.089844 5.46875 C 9.65625 5.5625 11.605469 7.097656 13.546875 9.738281 L 14.257812 10.820312 L 16.488281 9.355469 L 15.738281 8.21875 C 13.167969 4.71875 10.609375 2.894531 8.136719 2.800781 C 5.871094 2.710938 4.578125 4.128906 4.515625 4.210938 C 3.367188 5.351562 2.875 6.773438 3.09375 8.324219 C 3.597656 11.890625 7.972656 15.761719 11.960938 18.617188 Z M 57.550781 57.679688 C 56.359375 58.867188 54.429688 58.867188 53.238281 57.679688 L 37.976562 42.417969 C 39.613281 41.191406 41.070312 39.746094 42.308594 38.125 L 57.550781 53.367188 C 58.125 53.9375 58.4375 54.703125 58.4375 55.523438 C 58.4375 56.339844 58.125 57.105469 57.550781 57.679688 Z M 43.824219 35.867188 C 45.734375 32.601562 46.851562 28.8125 46.851562 24.757812 C 46.851562 12.578125 36.941406 2.667969 24.757812 2.667969 C 21.609375 2.667969 18.621094 3.339844 15.90625 4.53125 L 17.679688 6.6875 C 19.875 5.824219 22.257812 5.332031 24.757812 5.332031 C 35.46875 5.332031 44.183594 14.046875 44.183594 24.757812 C 44.183594 29.738281 42.285156 34.273438 39.191406 37.714844 C 38.378906 38.617188 37.488281 39.441406 36.523438 40.179688 C 33.253906 42.679688 29.183594 44.183594 24.757812 44.183594 C 20.113281 44.183594 15.847656 42.542969 12.5 39.8125 C 11.527344 39.019531 10.636719 38.132812 9.832031 37.171875 C 7.027344 33.800781 5.332031 29.476562 5.332031 24.757812 C 5.332031 22.230469 5.835938 19.820312 6.71875 17.601562 L 4.652344 15.660156 C 3.386719 18.4375 2.667969 21.511719 2.667969 24.757812 C 2.667969 36.941406 12.578125 46.851562 24.757812 46.851562 C 28.746094 46.851562 32.476562 45.773438 35.710938 43.921875 L 51.351562 59.5625 C 52.46875 60.679688 53.929688 61.234375 55.394531 61.234375 C 56.859375 61.234375 58.320312 60.679688 59.4375 59.5625 C 60.511719 58.488281 61.105469 57.050781 61.105469 55.523438 C 61.105469 53.992188 60.511719 52.554688 59.4375 51.480469 Z M 43.824219 35.867188 "/>
</svg>
