<?xml version="1.0" encoding="UTF-8"?>
<svg xmlns="http://www.w3.org/2000/svg" xmlns:xlink="http://www.w3.org/1999/xlink" width="64" height="64" viewBox="0 0 64 64">
<path fill-rule="evenodd" fill="rgb(90.588236%, 8.235294%, 48.235294%)" fill-opacity="1" d="M 42.667969 37.332031 C 47.078125 37.332031 50.667969 40.921875 50.667969 45.332031 C 50.667969 49.746094 47.078125 53.332031 42.667969 53.332031 C 38.253906 53.332031 34.667969 49.746094 34.667969 45.332031 C 34.667969 40.921875 38.253906 37.332031 42.667969 37.332031 Z M 42.667969 56 C 48.546875 56 53.332031 51.214844 53.332031 45.332031 C 53.332031 39.453125 48.546875 34.667969 42.667969 34.667969 C 36.785156 34.667969 32 39.453125 32 45.332031 C 32 51.214844 36.785156 56 42.667969 56 Z M 45.332031 12.316406 L 51.84375 25.332031 L 38.824219 25.332031 Z M 36.667969 28 L 54 28 C 54.460938 28 54.890625 27.761719 55.132812 27.367188 C 55.378906 26.976562 55.398438 26.484375 55.191406 26.070312 L 46.527344 8.738281 C 46.074219 7.832031 44.59375 7.832031 44.140625 8.738281 L 35.472656 26.070312 C 35.265625 26.484375 35.289062 26.976562 35.53125 27.367188 C 35.777344 27.761719 36.203125 28 36.667969 28 Z M 12 38.667969 L 26.667969 38.667969 L 26.667969 24 L 12 24 Z M 10.667969 41.332031 L 28 41.332031 C 28.738281 41.332031 29.332031 40.734375 29.332031 40 L 29.332031 22.667969 C 29.332031 21.929688 28.738281 21.332031 28 21.332031 L 10.667969 21.332031 C 9.929688 21.332031 9.332031 21.929688 9.332031 22.667969 L 9.332031 40 C 9.332031 40.734375 9.929688 41.332031 10.667969 41.332031 Z M 5.332031 58.667969 L 58.667969 58.667969 L 58.667969 5.332031 L 5.332031 5.332031 Z M 60 2.667969 L 4 2.667969 C 3.261719 2.667969 2.667969 3.265625 2.667969 4 L 2.667969 60 C 2.667969 60.734375 3.261719 61.332031 4 61.332031 L 60 61.332031 C 60.738281 61.332031 61.332031 60.734375 61.332031 60 L 61.332031 4 C 61.332031 3.265625 60.738281 2.667969 60 2.667969 Z M 60 2.667969 "/>
</svg>
