<?xml version="1.0" encoding="UTF-8"?>
<svg xmlns="http://www.w3.org/2000/svg" xmlns:xlink="http://www.w3.org/1999/xlink" width="64" height="64" viewBox="0 0 64 64">
<path fill-rule="evenodd" fill="rgb(90.588236%, 8.235294%, 48.235294%)" fill-opacity="1" d="M 2.667969 36.839844 L 14.421875 36.839844 L 14.421875 34.171875 L 2.667969 34.171875 Z M 2.667969 28.613281 L 16.769531 28.613281 L 16.769531 25.945312 L 2.667969 25.945312 Z M 2.667969 20.386719 L 19.121094 20.386719 L 19.121094 17.71875 L 2.667969 17.71875 Z M 46.285156 34.171875 L 27.878906 34.171875 L 29.566406 27.4375 L 47.972656 27.4375 Z M 27.480469 24.769531 L 24.464844 36.839844 L 48.371094 36.839844 L 51.386719 24.769531 Z M 51.039062 49.03125 C 50.988281 49.273438 50.769531 49.453125 50.519531 49.453125 L 17.898438 49.453125 C 17.675781 49.453125 17.542969 49.328125 17.484375 49.253906 C 17.425781 49.179688 17.332031 49.023438 17.378906 48.808594 L 23.421875 20.320312 L 57.128906 20.320312 Z M 25.332031 13.332031 L 57.953125 13.332031 C 58.175781 13.332031 58.308594 13.457031 58.367188 13.53125 C 58.425781 13.605469 58.519531 13.757812 58.476562 13.976562 L 57.695312 17.652344 L 23.988281 17.652344 L 24.816406 13.757812 C 24.867188 13.511719 25.085938 13.332031 25.332031 13.332031 Z M 60.4375 11.851562 C 59.828125 11.097656 58.925781 10.667969 57.953125 10.667969 L 25.332031 10.667969 C 23.832031 10.667969 22.515625 11.734375 22.203125 13.203125 L 14.769531 48.257812 C 14.566406 49.203125 14.800781 50.179688 15.414062 50.933594 C 16.023438 51.6875 16.929688 52.117188 17.898438 52.117188 L 50.519531 52.117188 C 52.019531 52.117188 53.335938 51.054688 53.648438 49.582031 L 61.085938 14.527344 C 61.285156 13.582031 61.050781 12.605469 60.4375 11.851562 Z M 60.4375 11.851562 "/>
</svg>
