<?xml version="1.0" encoding="UTF-8"?>
<svg xmlns="http://www.w3.org/2000/svg" xmlns:xlink="http://www.w3.org/1999/xlink" width="64" height="64" viewBox="0 0 64 64">
<path fill-rule="evenodd" fill="rgb(90.588236%, 8.235294%, 48.235294%)" fill-opacity="1" d="M 44 40 L 39.359375 40 L 34.511719 48.21875 L 27.921875 33.71875 L 24.671875 40 L 20 40 L 20 37.332031 L 23.046875 37.332031 L 28.078125 27.617188 L 34.820312 42.449219 L 37.835938 37.332031 L 44 37.332031 Z M 20.667969 44 L 29.261719 44 L 29.261719 46.667969 L 20.667969 46.667969 C 16.625 46.667969 13.332031 43.378906 13.332031 39.332031 L 13.332031 38 C 13.332031 33.957031 16.625 30.667969 20.667969 30.667969 L 22.667969 30.667969 L 22.667969 33.332031 L 20.667969 33.332031 C 18.09375 33.332031 16 35.425781 16 38 L 16 39.332031 C 16 41.90625 18.09375 44 20.667969 44 Z M 50.667969 38 L 50.667969 39.332031 C 50.667969 43.378906 47.375 46.667969 43.332031 46.667969 L 40.140625 46.667969 L 40.140625 44 L 43.332031 44 C 45.90625 44 48 41.90625 48 39.332031 L 48 38 C 48 35.425781 45.90625 33.332031 43.332031 33.332031 L 33.402344 33.332031 L 33.402344 30.667969 L 43.332031 30.667969 C 47.375 30.667969 50.667969 33.957031 50.667969 38 Z M 58.667969 42.046875 C 58.667969 42.386719 58.386719 42.667969 58.046875 42.667969 L 54.667969 42.667969 L 54.667969 49.832031 C 49.484375 54.746094 41.066406 57.664062 32 57.664062 C 22.933594 57.664062 14.515625 54.746094 9.332031 49.832031 L 9.332031 42.667969 L 5.953125 42.667969 C 5.613281 42.667969 5.332031 42.386719 5.332031 42.046875 L 5.332031 35.289062 C 5.332031 34.945312 5.613281 34.667969 5.953125 34.667969 L 9.964844 34.667969 L 10.21875 33.664062 C 13 22.769531 21.347656 16 32 16 C 43.636719 16 51.992188 25.082031 53.941406 33.628906 L 54.175781 34.667969 L 58.046875 34.667969 C 58.386719 34.667969 58.667969 34.945312 58.667969 35.289062 Z M 30 7.332031 C 30 6.230469 30.898438 5.332031 32 5.332031 C 33.101562 5.332031 34 6.230469 34 7.332031 C 34 8.4375 33.101562 9.332031 32 9.332031 C 30.898438 9.332031 30 8.4375 30 7.332031 Z M 58.046875 32 L 56.277344 32 C 53.75 22.894531 45.316406 14.015625 33.332031 13.394531 L 33.332031 11.78125 C 35.253906 11.203125 36.667969 9.441406 36.667969 7.332031 C 36.667969 4.761719 34.574219 2.667969 32 2.667969 C 29.425781 2.667969 27.332031 4.761719 27.332031 7.332031 C 27.332031 9.441406 28.746094 11.203125 30.667969 11.78125 L 30.667969 13.386719 C 19.707031 13.914062 11.125 20.90625 7.910156 32 L 5.953125 32 C 4.140625 32 2.667969 33.476562 2.667969 35.289062 L 2.667969 42.046875 C 2.667969 43.859375 4.140625 45.332031 5.953125 45.332031 L 6.667969 45.332031 L 6.667969 50.945312 L 7.058594 51.335938 C 12.773438 57.054688 21.863281 60.332031 32 60.332031 C 42.136719 60.332031 51.226562 57.054688 56.941406 51.335938 L 57.332031 50.945312 L 57.332031 45.332031 L 58.046875 45.332031 C 59.859375 45.332031 61.332031 43.859375 61.332031 42.046875 L 61.332031 35.289062 C 61.332031 33.476562 59.859375 32 58.046875 32 Z M 58.046875 32 "/>
</svg>
