<?xml version="1.0" encoding="UTF-8"?>
<svg xmlns="http://www.w3.org/2000/svg" xmlns:xlink="http://www.w3.org/1999/xlink" width="64" height="64" viewBox="0 0 64 64">
<path fill-rule="evenodd" fill="rgb(90.588236%, 8.235294%, 48.235294%)" fill-opacity="1" d="M 39.332031 22.667969 C 34.988281 22.667969 31.292969 25.457031 29.917969 29.332031 L 32.808594 29.332031 C 34.027344 26.964844 36.492188 25.332031 39.332031 25.332031 C 43.375 25.332031 46.667969 28.625 46.667969 32.667969 C 46.667969 36.710938 43.375 40 39.332031 40 C 37.0625 40 35.027344 38.960938 33.679688 37.332031 L 30.496094 37.332031 C 32.175781 40.5 35.503906 42.667969 39.332031 42.667969 C 44.847656 42.667969 49.332031 38.183594 49.332031 32.667969 C 49.332031 27.152344 44.847656 22.667969 39.332031 22.667969 Z M 2.667969 44 L 20 44 L 20 41.332031 L 2.667969 41.332031 Z M 2.667969 24 L 20 24 L 20 21.332031 L 2.667969 21.332031 Z M 2.667969 34.667969 L 38.667969 34.667969 L 38.667969 32 L 2.667969 32 Z M 58.457031 47.652344 L 51.757812 41.617188 C 51.199219 42.390625 50.574219 43.105469 49.886719 43.761719 L 56.550781 49.773438 C 57.128906 50.296875 58.035156 50.25 58.5625 49.664062 C 59.085938 49.082031 59.039062 48.179688 58.457031 47.652344 Z M 60.546875 51.453125 C 59.738281 52.347656 58.621094 52.800781 57.5 52.800781 C 56.523438 52.800781 55.546875 52.457031 54.765625 51.753906 L 47.777344 45.453125 C 45.355469 47.058594 42.453125 48 39.332031 48 C 32.507812 48 26.710938 43.511719 24.730469 37.332031 L 27.570312 37.332031 C 29.433594 42.011719 34 45.332031 39.332031 45.332031 C 46.316406 45.332031 52 39.652344 52 32.667969 C 52 25.683594 46.316406 20 39.332031 20 C 33.503906 20 28.59375 23.964844 27.125 29.332031 L 24.375 29.332031 C 25.902344 22.476562 32.023438 17.332031 39.332031 17.332031 C 47.789062 17.332031 54.667969 24.210938 54.667969 32.667969 C 54.667969 35.035156 54.109375 37.273438 53.144531 39.28125 L 60.242188 45.671875 C 61.914062 47.183594 62.050781 49.773438 60.546875 51.453125 Z M 2.667969 54.667969 L 28 54.667969 L 28 52 L 2.667969 52 Z M 2.667969 13.332031 L 30.667969 13.332031 L 30.667969 10.667969 L 2.667969 10.667969 Z M 2.667969 13.332031 "/>
</svg>
