<?xml version="1.0" encoding="UTF-8"?>
<svg xmlns="http://www.w3.org/2000/svg" xmlns:xlink="http://www.w3.org/1999/xlink" width="64" height="64" viewBox="0 0 64 64">
<path fill-rule="evenodd" fill="rgb(90.588236%, 8.235294%, 48.235294%)" fill-opacity="1" d="M 61.195312 4 C 61.195312 3.261719 60.597656 2.667969 59.863281 2.667969 L 4 2.667969 C 3.261719 2.667969 2.667969 3.261719 2.667969 4 L 2.667969 19.128906 L 5.335938 19.128906 L 5.335938 5.332031 L 58.527344 5.332031 L 58.527344 19.128906 L 61.195312 19.128906 Z M 5.335938 58.527344 L 58.527344 58.527344 L 58.527344 23.953125 L 5.335938 23.953125 Z M 59.863281 61.195312 L 4 61.195312 C 3.261719 61.195312 2.667969 60.597656 2.667969 59.863281 L 2.667969 22.621094 C 2.667969 21.882812 3.261719 21.289062 4 21.289062 L 59.863281 21.289062 C 60.597656 21.289062 61.195312 21.882812 61.195312 22.621094 L 61.195312 59.863281 C 61.195312 60.597656 60.597656 61.195312 59.863281 61.195312 Z M 59.863281 61.195312 "/>
</svg>
