<?xml version="1.0" encoding="UTF-8"?>
<svg xmlns="http://www.w3.org/2000/svg" xmlns:xlink="http://www.w3.org/1999/xlink" width="64" height="64" viewBox="0 0 64 64">
<path fill-rule="evenodd" fill="rgb(90.588236%, 8.235294%, 48.235294%)" fill-opacity="1" d="M 45.363281 50.667969 L 22.695312 50.667969 L 22.695312 53.332031 L 45.460938 53.332031 C 46.878906 53.332031 48.027344 52.183594 48.027344 50.769531 L 48.027344 46.667969 L 45.363281 46.667969 Z M 36.027344 6.328125 L 36.027344 14.667969 L 44.386719 14.667969 Z M 14.695312 29.332031 L 12.027344 29.332031 L 12.027344 5.230469 C 12.027344 3.816406 13.179688 2.667969 14.59375 2.667969 L 35.585938 2.667969 C 35.9375 2.667969 36.277344 2.808594 36.523438 3.054688 L 47.636719 14.144531 C 47.886719 14.394531 48.027344 14.734375 48.027344 15.089844 L 48.027344 20 L 45.363281 20 L 45.363281 17.332031 L 34.695312 17.332031 C 33.957031 17.332031 33.363281 16.734375 33.363281 16 L 33.363281 5.332031 L 14.695312 5.332031 Z M 60.191406 28.519531 L 57.808594 29.710938 C 58.386719 30.875 58.695312 32.152344 58.695312 33.414062 C 58.695312 37.78125 55.164062 41.332031 50.820312 41.332031 L 37.515625 41.332031 L 39.933594 38.914062 L 38.050781 37.03125 L 33.480469 41.601562 C 33.230469 41.847656 33.089844 42.1875 33.089844 42.542969 C 33.089844 42.894531 33.230469 43.234375 33.480469 43.484375 L 38.050781 48.054688 L 39.933594 46.167969 L 37.765625 44 L 50.820312 44 C 56.632812 44 61.363281 39.25 61.363281 33.414062 C 61.363281 31.742188 60.957031 30.050781 60.191406 28.519531 Z M 40.769531 22.667969 C 34.957031 22.667969 30.230469 27.414062 30.230469 33.253906 C 30.230469 34.921875 30.632812 36.617188 31.398438 38.148438 L 33.78125 36.957031 C 33.203125 35.792969 32.894531 34.511719 32.894531 33.253906 C 32.894531 28.886719 36.429688 25.332031 40.769531 25.332031 L 53.078125 25.332031 L 50.84375 27.570312 L 52.726562 29.453125 L 57.296875 24.886719 C 57.816406 24.367188 57.816406 23.519531 57.296875 23 L 52.726562 18.433594 L 50.84375 20.316406 L 53.191406 22.667969 Z M 37.40625 58.667969 L 21.363281 58.667969 L 21.363281 61.332031 L 37.40625 61.332031 C 38.851562 61.332031 40.027344 60.15625 40.027344 58.710938 L 40.027344 56 L 37.363281 56 Z M 5.316406 10.667969 L 9.363281 10.667969 L 9.363281 8 L 5.316406 8 C 3.871094 8 2.695312 9.175781 2.695312 10.621094 L 2.695312 32 L 5.363281 32 Z M 14.90625 42.15625 C 14.90625 41.171875 14.105469 40.371094 13.121094 40.371094 C 12.136719 40.371094 11.335938 41.171875 11.335938 42.15625 C 11.335938 43.140625 12.136719 43.941406 13.121094 43.941406 C 14.105469 43.941406 14.90625 43.140625 14.90625 42.15625 Z M 17.574219 42.15625 C 17.574219 44.613281 15.574219 46.609375 13.121094 46.609375 C 10.667969 46.609375 8.667969 44.613281 8.667969 42.15625 C 8.667969 39.703125 10.667969 37.707031 13.121094 37.707031 C 15.574219 37.707031 17.574219 39.703125 17.574219 42.15625 Z M 20.949219 42.175781 C 20.949219 41.808594 20.6875 41.488281 20.328125 41.417969 C 19.832031 41.316406 19.4375 40.949219 19.300781 40.464844 C 19.160156 39.953125 18.957031 39.464844 18.699219 39.011719 C 18.457031 38.589844 18.464844 38.066406 18.722656 37.652344 C 18.800781 37.523438 18.839844 37.390625 18.839844 37.253906 C 18.839844 36.691406 18.1875 36.277344 17.667969 36.597656 C 17.253906 36.851562 16.730469 36.859375 16.308594 36.617188 C 15.851562 36.359375 15.367188 36.15625 14.855469 36.015625 C 14.371094 35.882812 14 35.488281 13.902344 34.992188 C 13.832031 34.632812 13.507812 34.371094 13.140625 34.371094 C 12.773438 34.371094 12.453125 34.632812 12.382812 34.992188 C 12.28125 35.488281 11.914062 35.882812 11.429688 36.015625 C 10.917969 36.15625 10.433594 36.359375 9.976562 36.617188 C 9.550781 36.859375 9.03125 36.851562 8.617188 36.597656 C 8.09375 36.277344 7.445312 36.691406 7.445312 37.253906 C 7.445312 37.390625 7.484375 37.523438 7.558594 37.652344 C 7.816406 38.066406 7.824219 38.589844 7.585938 39.011719 C 7.324219 39.464844 7.121094 39.953125 6.980469 40.464844 C 6.847656 40.949219 6.449219 41.320312 5.957031 41.417969 C 5.597656 41.488281 5.332031 41.808594 5.332031 42.175781 C 5.332031 42.546875 5.597656 42.867188 5.957031 42.9375 C 6.449219 43.035156 6.847656 43.402344 6.980469 43.890625 C 7.121094 44.402344 7.324219 44.890625 7.585938 45.34375 C 7.824219 45.765625 7.816406 46.285156 7.558594 46.703125 C 7.484375 46.828125 7.445312 46.960938 7.445312 47.097656 C 7.445312 47.664062 8.089844 48.082031 8.617188 47.757812 C 8.832031 47.625 9.074219 47.558594 9.316406 47.558594 C 9.542969 47.558594 9.773438 47.617188 9.976562 47.734375 C 10.433594 47.996094 10.917969 48.199219 11.429688 48.335938 C 11.914062 48.472656 12.28125 48.867188 12.382812 49.363281 C 12.453125 49.722656 12.773438 49.984375 13.140625 49.984375 C 13.507812 49.984375 13.832031 49.722656 13.902344 49.363281 C 14 48.867188 14.371094 48.472656 14.855469 48.335938 C 15.367188 48.199219 15.851562 47.996094 16.308594 47.734375 C 16.730469 47.492188 17.253906 47.5 17.667969 47.757812 C 18.191406 48.078125 18.839844 47.664062 18.839844 47.097656 C 18.839844 46.960938 18.800781 46.828125 18.722656 46.703125 C 18.464844 46.285156 18.457031 45.765625 18.699219 45.339844 C 18.957031 44.890625 19.160156 44.402344 19.300781 43.890625 C 19.4375 43.402344 19.832031 43.035156 20.328125 42.9375 C 20.6875 42.867188 20.949219 42.546875 20.949219 42.175781 Z M 21.503906 47.097656 C 21.503906 48.996094 19.960938 50.542969 18.0625 50.542969 C 17.707031 50.542969 17.351562 50.484375 17.007812 50.375 C 16.761719 50.492188 16.507812 50.597656 16.246094 50.691406 C 15.6875 51.863281 14.488281 52.652344 13.140625 52.652344 C 11.796875 52.652344 10.597656 51.863281 10.035156 50.691406 C 9.777344 50.597656 9.519531 50.492188 9.273438 50.375 C 8.933594 50.484375 8.578125 50.542969 8.21875 50.542969 C 6.320312 50.542969 4.777344 48.996094 4.777344 47.097656 C 4.777344 46.742188 4.832031 46.386719 4.945312 46.046875 C 4.828125 45.796875 4.722656 45.542969 4.628906 45.285156 C 3.457031 44.722656 2.667969 43.523438 2.667969 42.175781 C 2.667969 40.832031 3.457031 39.628906 4.628906 39.070312 C 4.722656 38.8125 4.828125 38.558594 4.945312 38.308594 C 4.832031 37.96875 4.777344 37.613281 4.777344 37.253906 C 4.777344 35.355469 6.320312 33.8125 8.21875 33.8125 C 8.578125 33.8125 8.933594 33.871094 9.273438 33.980469 C 9.519531 33.863281 9.777344 33.757812 10.035156 33.664062 C 10.597656 32.492188 11.796875 31.703125 13.140625 31.703125 C 14.488281 31.703125 15.6875 32.492188 16.246094 33.664062 C 16.507812 33.757812 16.761719 33.863281 17.007812 33.980469 C 17.351562 33.871094 17.707031 33.8125 18.0625 33.8125 C 19.960938 33.8125 21.503906 35.355469 21.503906 37.253906 C 21.503906 37.613281 21.449219 37.96875 21.335938 38.308594 C 21.453125 38.554688 21.558594 38.8125 21.65625 39.070312 C 22.828125 39.632812 23.613281 40.832031 23.613281 42.175781 C 23.613281 43.523438 22.828125 44.722656 21.65625 45.285156 C 21.558594 45.542969 21.453125 45.796875 21.335938 46.046875 C 21.449219 46.386719 21.503906 46.742188 21.503906 47.097656 Z M 16.027344 52 L 18.695312 52 L 18.695312 60 C 18.695312 60.511719 18.398438 60.980469 17.941406 61.203125 C 17.757812 61.289062 17.558594 61.332031 17.363281 61.332031 C 17.0625 61.332031 16.769531 61.234375 16.527344 61.042969 L 12.695312 57.976562 L 8.863281 61.042969 C 8.460938 61.363281 7.914062 61.425781 7.449219 61.203125 C 6.988281 60.980469 6.695312 60.511719 6.695312 60 L 6.695312 52 L 9.363281 52 L 9.363281 57.226562 L 11.863281 55.226562 C 12.347656 54.835938 13.042969 54.835938 13.527344 55.226562 L 16.027344 57.226562 Z M 16.027344 52 "/>
</svg>
