<?xml version="1.0" encoding="UTF-8"?>
<svg xmlns="http://www.w3.org/2000/svg" xmlns:xlink="http://www.w3.org/1999/xlink" width="64" height="64" viewBox="0 0 64 64">
<path fill-rule="evenodd" fill="rgb(90.588236%, 8.235294%, 48.235294%)" fill-opacity="1" d="M 31.925781 2.667969 L 2.667969 19.386719 L 2.667969 61.386719 L 61.1875 61.386719 L 61.1875 19.386719 Z M 5.332031 20.933594 L 31.925781 5.734375 L 58.519531 20.933594 L 58.519531 58.722656 L 5.332031 58.722656 Z M 9.648438 56.734375 L 54.207031 56.734375 L 54.207031 21.484375 L 9.648438 21.484375 Z M 12.316406 54.066406 L 51.539062 54.066406 L 51.539062 24.152344 L 12.316406 24.152344 Z M 23.613281 33.460938 L 30.933594 33.460938 L 30.933594 26.140625 L 23.613281 26.140625 Z M 26.277344 30.792969 L 28.265625 30.792969 L 28.265625 28.808594 L 26.277344 28.808594 Z M 14.304688 33.460938 L 21.625 33.460938 L 21.625 26.140625 L 14.304688 26.140625 Z M 16.96875 30.792969 L 18.957031 30.792969 L 18.957031 28.808594 L 16.96875 28.808594 Z M 32.921875 42.769531 L 40.242188 42.769531 L 40.242188 35.449219 L 32.921875 35.449219 Z M 35.589844 40.101562 L 37.574219 40.101562 L 37.574219 38.117188 L 35.589844 38.117188 Z M 23.613281 42.769531 L 30.933594 42.769531 L 30.933594 35.449219 L 23.613281 35.449219 Z M 26.277344 40.101562 L 28.265625 40.101562 L 28.265625 38.117188 L 26.277344 38.117188 Z M 14.304688 42.769531 L 21.625 42.769531 L 21.625 35.449219 L 14.304688 35.449219 Z M 16.96875 40.101562 L 18.957031 40.101562 L 18.957031 38.117188 L 16.96875 38.117188 Z M 42.230469 52.078125 L 49.550781 52.078125 L 49.550781 44.757812 L 42.230469 44.757812 Z M 44.894531 49.410156 L 46.882812 49.410156 L 46.882812 47.425781 L 44.894531 47.425781 Z M 32.921875 52.078125 L 40.242188 52.078125 L 40.242188 44.757812 L 32.921875 44.757812 Z M 35.589844 49.410156 L 37.574219 49.410156 L 37.574219 47.425781 L 35.589844 47.425781 Z M 23.613281 52.078125 L 30.933594 52.078125 L 30.933594 44.757812 L 23.613281 44.757812 Z M 26.277344 49.410156 L 28.265625 49.410156 L 28.265625 47.425781 L 26.277344 47.425781 Z M 14.304688 52.078125 L 21.625 52.078125 L 21.625 44.757812 L 14.304688 44.757812 Z M 16.96875 49.410156 L 18.957031 49.410156 L 18.957031 47.425781 L 16.96875 47.425781 Z M 16.96875 49.410156 "/>
</svg>
