<?xml version="1.0" encoding="UTF-8"?>
<svg xmlns="http://www.w3.org/2000/svg" xmlns:xlink="http://www.w3.org/1999/xlink" width="64" height="64" viewBox="0 0 64 64">
<path fill-rule="evenodd" fill="rgb(90.588236%, 8.235294%, 48.235294%)" fill-opacity="1" d="M 47.453125 49.011719 C 47.453125 49.511719 47.859375 49.921875 48.359375 49.921875 C 48.601562 49.921875 48.832031 49.828125 49 49.65625 C 49.171875 49.484375 49.265625 49.253906 49.265625 49.011719 L 49.265625 49.007812 C 49.265625 48.769531 49.175781 48.539062 49.003906 48.371094 C 48.832031 48.199219 48.601562 48.101562 48.359375 48.101562 C 48.117188 48.101562 47.890625 48.195312 47.71875 48.367188 C 47.546875 48.539062 47.453125 48.769531 47.453125 49.011719 Z M 44.785156 49.011719 C 44.785156 48.054688 45.15625 47.15625 45.832031 46.480469 C 46.507812 45.808594 47.40625 45.4375 48.359375 45.4375 L 48.363281 45.4375 C 49.316406 45.4375 50.214844 45.808594 50.890625 46.484375 C 51.566406 47.164062 51.9375 48.058594 51.933594 49.015625 C 51.933594 49.96875 51.5625 50.867188 50.886719 51.542969 C 50.539062 51.886719 50.132812 52.152344 49.691406 52.328125 L 49.695312 56.058594 L 47.027344 56.058594 L 47.027344 52.324219 C 45.714844 51.792969 44.785156 50.511719 44.785156 49.011719 Z M 57.488281 43.699219 L 39.238281 43.691406 L 39.234375 58.449219 L 57.480469 58.460938 Z M 43.867188 41.027344 L 52.820312 41.03125 L 52.820312 37.738281 C 52.828125 35.042969 50.835938 32.847656 48.382812 32.839844 L 48.367188 32.839844 C 47.191406 32.839844 46.082031 33.332031 45.238281 34.222656 C 44.367188 35.140625 43.890625 36.367188 43.886719 37.679688 Z M 60.152344 42.367188 L 60.144531 59.792969 C 60.144531 60.53125 59.546875 61.125 58.8125 61.125 L 37.898438 61.117188 C 37.164062 61.117188 36.566406 60.519531 36.566406 59.785156 L 36.570312 42.359375 C 36.570312 42.003906 36.710938 41.664062 36.960938 41.414062 C 37.210938 41.164062 37.550781 41.023438 37.90625 41.023438 L 41.203125 41.027344 L 41.21875 37.667969 C 41.226562 35.679688 41.964844 33.800781 43.300781 32.390625 C 44.652344 30.960938 46.453125 30.171875 48.367188 30.171875 L 48.390625 30.171875 C 52.316406 30.1875 55.5 33.582031 55.484375 37.742188 L 55.484375 41.03125 L 58.820312 41.03125 C 59.175781 41.03125 59.515625 41.171875 59.761719 41.421875 C 60.015625 41.671875 60.152344 42.011719 60.152344 42.367188 Z M 19.300781 41.367188 L 28.597656 41.367188 L 28.597656 38.699219 L 19.300781 38.699219 Z M 19.300781 36.71875 L 28.597656 36.71875 L 28.597656 34.050781 L 19.300781 34.050781 Z M 19.300781 32.066406 L 28.597656 32.066406 L 28.597656 29.402344 L 19.300781 29.402344 Z M 17.207031 44.511719 L 30.8125 44.511719 L 30.8125 26.257812 L 17.207031 26.257812 Z M 33.480469 24.921875 L 33.480469 45.84375 C 33.480469 46.582031 32.882812 47.179688 32.144531 47.179688 L 15.875 47.179688 C 15.136719 47.179688 14.539062 46.582031 14.539062 45.84375 L 14.539062 24.921875 C 14.539062 24.1875 15.136719 23.589844 15.875 23.589844 L 32.144531 23.589844 C 32.882812 23.589844 33.480469 24.1875 33.480469 24.921875 Z M 7.921875 11.964844 L 40.023438 11.964844 L 35.292969 5.332031 L 12.648438 5.332031 Z M 4.148438 13.910156 C 3.917969 13.464844 3.957031 12.933594 4.246094 12.527344 L 10.875 3.226562 C 11.125 2.875 11.53125 2.667969 11.960938 2.667969 L 35.980469 2.667969 C 36.414062 2.667969 36.816406 2.875 37.066406 3.226562 L 43.695312 12.527344 C 43.984375 12.933594 44.023438 13.464844 43.792969 13.910156 C 43.566406 14.355469 43.109375 14.632812 42.609375 14.632812 L 5.332031 14.632812 C 4.835938 14.632812 4.375 14.355469 4.148438 13.910156 Z M 6.734375 52.648438 L 33.25 52.648438 L 33.25 55.316406 L 5.398438 55.316406 C 4.664062 55.316406 4.066406 54.71875 4.066406 53.980469 L 4.066406 17.949219 C 4.066406 17.210938 4.664062 16.617188 5.398438 16.617188 L 42.605469 16.617188 C 43.34375 16.617188 43.941406 17.210938 43.941406 17.949219 L 43.941406 29.570312 L 41.273438 29.570312 L 41.273438 19.28125 L 6.734375 19.28125 Z M 6.734375 52.648438 "/>
</svg>
