<?xml version="1.0" encoding="UTF-8"?>
<svg xmlns="http://www.w3.org/2000/svg" xmlns:xlink="http://www.w3.org/1999/xlink" width="64" height="64" viewBox="0 0 64 64">
<path fill-rule="evenodd" fill="rgb(90.588236%, 8.235294%, 48.235294%)" fill-opacity="1" d="M 32.035156 2.667969 L 26.476562 8.230469 L 28.359375 10.113281 L 32.035156 6.4375 L 37.953125 12.355469 L 39.839844 10.46875 Z M 40.992188 22.890625 L 43.660156 22.890625 L 43.660156 5.742188 L 40.992188 5.742188 Z M 45.566406 27.464844 L 48.230469 27.464844 L 48.230469 10.316406 L 45.566406 10.316406 Z M 14.886719 13.933594 L 32.035156 13.933594 L 32.035156 11.265625 L 14.886719 11.265625 Z M 50.136719 32.039062 L 52.804688 32.039062 L 52.804688 14.886719 L 50.136719 14.886719 Z M 10.3125 18.507812 L 27.460938 18.507812 L 27.460938 15.839844 L 10.3125 15.839844 Z M 5.738281 23.078125 L 22.886719 23.078125 L 22.886719 20.414062 L 5.738281 20.414062 Z M 2.667969 32.039062 L 8.226562 37.597656 L 10.113281 35.710938 L 6.4375 32.039062 L 12.351562 26.121094 L 10.46875 24.234375 Z M 53.957031 28.363281 L 57.636719 32.039062 L 51.71875 37.953125 L 53.601562 39.839844 L 61.40625 32.039062 L 55.84375 26.476562 Z M 11.265625 49.183594 L 13.933594 49.183594 L 13.933594 32.035156 L 11.265625 32.035156 Z M 15.839844 53.757812 L 18.507812 53.757812 L 18.507812 36.609375 L 15.839844 36.609375 Z M 40.039062 43.660156 L 57.1875 43.660156 L 57.1875 40.992188 L 40.039062 40.992188 Z M 20.414062 58.332031 L 23.078125 58.332031 L 23.078125 41.183594 L 20.414062 41.183594 Z M 35.464844 48.230469 L 52.613281 48.230469 L 52.613281 45.566406 L 35.464844 45.566406 Z M 30.890625 52.804688 L 48.042969 52.804688 L 48.042969 50.136719 L 30.890625 50.136719 Z M 24.230469 53.605469 L 32.035156 61.40625 L 37.597656 55.84375 L 35.710938 53.960938 L 32.035156 57.636719 L 26.117188 51.71875 Z M 24.230469 53.605469 "/>
</svg>
