<?xml version="1.0" encoding="UTF-8"?>
<svg xmlns="http://www.w3.org/2000/svg" xmlns:xlink="http://www.w3.org/1999/xlink" width="64" height="64" viewBox="0 0 64 64">
<path fill-rule="evenodd" fill="rgb(90.588236%, 8.235294%, 48.235294%)" fill-opacity="1" d="M 25.347656 46.25 L 25.335938 37.226562 C 24.0625 37.695312 22.410156 37.96875 20.457031 37.96875 C 18.753906 37.96875 16.402344 37.742188 14.644531 37.066406 L 14.667969 46.332031 C 14.734375 46.40625 15.375 46.929688 17.195312 47.234375 C 17.664062 47.316406 18.164062 47.375 18.6875 47.414062 C 18.898438 47.429688 19.113281 47.441406 19.332031 47.449219 C 19.773438 47.464844 20.226562 47.464844 20.667969 47.449219 C 20.886719 47.441406 21.101562 47.429688 21.3125 47.414062 C 21.835938 47.375 22.335938 47.316406 22.804688 47.234375 C 24.625 46.929688 25.265625 46.40625 25.347656 46.25 Z M 20 33.351562 C 17.308594 33.351562 15.707031 33.902344 15.019531 34.300781 C 15.6875 34.691406 17.597656 35.304688 20.457031 35.304688 C 23.261719 35.304688 24.679688 34.703125 25.1875 34.367188 C 24.695312 34.054688 23.039062 33.351562 20 33.351562 Z M 20 30.6875 C 23.980469 30.6875 28 31.859375 28 34.480469 L 28 46.332031 C 28 47.351562 27.382812 49.164062 23.25 49.867188 C 22.703125 49.957031 22.117188 50.03125 21.503906 50.074219 C 21.261719 50.089844 21.011719 50.105469 20.761719 50.113281 C 20.511719 50.121094 20.257812 50.125 20 50.125 C 19.742188 50.125 19.488281 50.121094 19.238281 50.113281 C 18.988281 50.105469 18.738281 50.089844 18.496094 50.074219 C 17.882812 50.03125 17.296875 49.957031 16.746094 49.867188 C 12.617188 49.164062 12 47.351562 12 46.332031 L 12 34.480469 C 12 31.859375 16.019531 30.6875 20 30.6875 Z M 53.332031 7.332031 C 53.332031 8.4375 54.230469 9.332031 55.332031 9.332031 C 56.4375 9.332031 57.332031 8.4375 57.332031 7.332031 C 57.332031 6.230469 56.4375 5.332031 55.332031 5.332031 C 54.230469 5.332031 53.332031 6.230469 53.332031 7.332031 Z M 40 30 C 40 28.898438 39.101562 28 38 28 C 36.898438 28 36 28.898438 36 30 C 36 31.101562 36.898438 32 38 32 C 39.101562 32 40 31.101562 40 30 Z M 22 16 C 23.101562 16 24 15.101562 24 14 C 24 12.898438 23.101562 12 22 12 C 20.898438 12 20 12.898438 20 14 C 20 15.101562 20.898438 16 22 16 Z M 50.667969 7.332031 C 50.667969 4.761719 52.761719 2.667969 55.332031 2.667969 C 57.90625 2.667969 60 4.761719 60 7.332031 C 60 9.90625 57.90625 12 55.332031 12 C 55.035156 12 54.742188 11.964844 54.460938 11.910156 L 42.28125 28.152344 C 42.527344 28.71875 42.667969 29.34375 42.667969 30 C 42.667969 32.574219 40.574219 34.667969 38 34.667969 C 35.425781 34.667969 33.332031 32.574219 33.332031 30 C 33.332031 29.28125 33.507812 28.609375 33.800781 28.003906 L 24 18.199219 C 23.390625 18.492188 22.71875 18.667969 22 18.667969 C 19.425781 18.667969 17.332031 16.574219 17.332031 14 C 17.332031 11.425781 19.425781 9.332031 22 9.332031 C 24.574219 9.332031 26.667969 11.425781 26.667969 14 C 26.667969 14.882812 26.40625 15.703125 25.976562 16.40625 L 35.589844 26.023438 C 36.296875 25.59375 37.117188 25.332031 38 25.332031 C 38.921875 25.332031 39.78125 25.609375 40.503906 26.074219 L 52.066406 10.660156 C 51.203125 9.8125 50.667969 8.632812 50.667969 7.332031 Z M 29.332031 58.667969 L 32 58.667969 L 32 54.667969 L 29.332031 54.667969 Z M 57.417969 52 L 57.398438 44 L 30.667969 44 L 30.667969 41.332031 L 57.394531 41.332031 L 57.332031 16 L 60 16 L 60 52.085938 C 60 53.507812 58.839844 54.667969 57.417969 54.667969 L 34.667969 54.667969 L 34.667969 58.667969 L 45.332031 58.667969 L 45.332031 61.332031 L 17.332031 61.332031 L 17.332031 58.667969 L 26.667969 58.667969 L 26.667969 54.667969 L 5.269531 54.667969 C 3.835938 54.667969 2.667969 53.5 2.667969 52.0625 L 2.667969 36 L 5.332031 36 L 5.332031 41.332031 L 9.332031 41.332031 L 9.332031 44 L 5.332031 44 L 5.332031 52.0625 Z M 5.332031 24 L 2.667969 24 L 2.667969 14.582031 C 2.667969 13.160156 3.824219 12 5.25 12 L 11.019531 12 C 12.125 6.902344 16.667969 3.074219 22.089844 3.074219 C 27.511719 3.074219 32.054688 6.902344 33.160156 12 L 45.332031 12 L 45.332031 14.667969 L 33.414062 14.667969 C 33.386719 15.847656 33.183594 17.007812 32.800781 18.117188 L 30.28125 17.246094 C 30.597656 16.335938 30.757812 15.378906 30.757812 14.40625 C 30.757812 9.628906 26.867188 5.738281 22.089844 5.738281 C 17.3125 5.738281 13.421875 9.628906 13.421875 14.40625 C 13.421875 19.183594 17.3125 23.074219 22.089844 23.074219 C 23.105469 23.074219 24.097656 22.898438 25.039062 22.558594 L 25.945312 25.066406 C 24.710938 25.511719 23.414062 25.738281 22.089844 25.738281 C 18.984375 25.738281 16.167969 24.480469 14.117188 22.449219 L 5 32.109375 L 3.0625 30.277344 L 12.449219 20.332031 C 11.425781 18.675781 10.816406 16.742188 10.769531 14.667969 L 5.25 14.667969 Z M 5.332031 24 "/>
</svg>
