<?xml version="1.0" encoding="UTF-8"?>
<svg xmlns="http://www.w3.org/2000/svg" xmlns:xlink="http://www.w3.org/1999/xlink" width="64" height="64" viewBox="0 0 64 64">
<path fill-rule="evenodd" fill="rgb(90.588236%, 8.235294%, 48.235294%)" fill-opacity="1" d="M 2.667969 20.46875 L 61.226562 20.46875 L 61.226562 2.667969 L 2.667969 2.667969 Z M 5.332031 17.804688 L 58.558594 17.804688 L 58.558594 5.332031 L 5.332031 5.332031 Z M 32.941406 40.269531 L 61.226562 40.269531 L 61.226562 22.460938 L 32.941406 22.460938 Z M 35.609375 37.601562 L 58.558594 37.601562 L 58.558594 25.128906 L 35.609375 25.128906 Z M 2.667969 40.269531 L 30.949219 40.269531 L 30.949219 22.460938 L 2.667969 22.460938 Z M 5.332031 37.601562 L 28.285156 37.601562 L 28.285156 25.128906 L 5.332031 25.128906 Z M 43.421875 60.0625 L 61.226562 60.0625 L 61.226562 42.257812 L 43.421875 42.257812 Z M 46.089844 57.394531 L 58.558594 57.394531 L 58.558594 44.925781 L 46.089844 44.925781 Z M 22.460938 60.0625 L 41.429688 60.0625 L 41.429688 42.257812 L 22.460938 42.257812 Z M 25.128906 57.394531 L 38.765625 57.394531 L 38.765625 44.925781 L 25.128906 44.925781 Z M 2.667969 60.0625 L 20.46875 60.0625 L 20.46875 42.257812 L 2.667969 42.257812 Z M 5.332031 57.394531 L 17.804688 57.394531 L 17.804688 44.925781 L 5.332031 44.925781 Z M 5.332031 57.394531 "/>
</svg>
