<?xml version="1.0" encoding="UTF-8"?>
<svg xmlns="http://www.w3.org/2000/svg" xmlns:xlink="http://www.w3.org/1999/xlink" width="64" height="64" viewBox="0 0 64 64">
<path fill-rule="evenodd" fill="rgb(90.588236%, 8.235294%, 48.235294%)" fill-opacity="1" d="M 34.683594 58.644531 C 33.214844 58.644531 32.019531 57.445312 32.019531 55.976562 C 32.019531 54.503906 33.214844 53.308594 34.683594 53.308594 C 36.15625 53.308594 37.351562 54.503906 37.351562 55.976562 C 37.351562 57.445312 36.15625 58.644531 34.683594 58.644531 Z M 18.683594 43.976562 C 17.214844 43.976562 16.019531 42.78125 16.019531 41.308594 C 16.019531 39.839844 17.214844 38.644531 18.683594 38.644531 C 20.15625 38.644531 21.351562 39.839844 21.351562 41.308594 C 21.351562 42.78125 20.15625 43.976562 18.683594 43.976562 Z M 49.351562 33.308594 C 50.824219 33.308594 52.019531 34.503906 52.019531 35.976562 C 52.019531 37.445312 50.824219 38.644531 49.351562 38.644531 C 47.882812 38.644531 46.683594 37.445312 46.683594 35.976562 C 46.683594 34.503906 47.882812 33.308594 49.351562 33.308594 Z M 47.800781 41.050781 C 48.296875 41.203125 48.808594 41.308594 49.351562 41.308594 C 52.292969 41.308594 54.683594 38.917969 54.683594 35.976562 C 54.683594 33.035156 52.292969 30.644531 49.351562 30.644531 C 46.410156 30.644531 44.019531 33.035156 44.019531 35.976562 C 44.019531 37.402344 44.589844 38.691406 45.503906 39.652344 L 36.449219 50.964844 C 35.894531 50.769531 35.308594 50.644531 34.683594 50.644531 C 33.941406 50.644531 33.230469 50.796875 32.585938 51.074219 L 23.691406 43.085938 C 23.890625 42.527344 24.019531 41.9375 24.019531 41.308594 C 24.019531 38.367188 21.625 35.976562 18.683594 35.976562 C 15.742188 35.976562 13.351562 38.367188 13.351562 41.308594 C 13.351562 41.84375 13.453125 42.347656 13.601562 42.832031 L 3.199219 50.921875 L 4.835938 53.03125 L 14.984375 45.136719 C 15.945312 46.066406 17.246094 46.644531 18.683594 46.644531 C 20.023438 46.644531 21.238281 46.128906 22.175781 45.308594 L 30.464844 52.753906 C 29.777344 53.652344 29.351562 54.761719 29.351562 55.976562 C 29.351562 58.917969 31.742188 61.308594 34.683594 61.308594 C 37.625 61.308594 40.019531 58.917969 40.019531 55.976562 C 40.019531 54.625 39.5 53.40625 38.667969 52.464844 Z M 61.347656 36.207031 C 61.289062 39.40625 59.980469 42.394531 57.667969 44.617188 C 55.414062 46.789062 52.46875 47.976562 49.355469 47.976562 C 49.277344 47.976562 49.203125 47.976562 49.121094 47.976562 C 48.699219 47.964844 48.273438 47.933594 47.863281 47.882812 L 48.1875 45.238281 C 48.511719 45.277344 48.839844 45.300781 49.171875 45.308594 C 51.65625 45.371094 54.019531 44.429688 55.820312 42.699219 C 57.617188 40.964844 58.636719 38.644531 58.683594 36.15625 C 58.730469 33.667969 57.804688 31.308594 56.074219 29.507812 C 54.339844 27.710938 52.019531 26.691406 49.53125 26.644531 C 47.113281 26.601562 44.683594 27.523438 42.882812 29.253906 C 41.085938 30.984375 40.066406 33.308594 40.019531 35.796875 C 39.988281 37.4375 40.390625 39.058594 41.183594 40.484375 L 38.851562 41.777344 C 37.832031 39.941406 37.316406 37.851562 37.355469 35.746094 C 37.414062 32.546875 38.722656 29.558594 41.035156 27.332031 C 43.34375 25.109375 46.355469 23.925781 49.582031 23.976562 C 52.78125 24.039062 55.769531 25.347656 57.992188 27.660156 C 60.21875 29.96875 61.410156 33.003906 61.347656 36.207031 Z M 33.847656 5.332031 C 36.375 5.332031 38.429688 7.347656 38.429688 9.828125 C 38.429688 12.304688 36.375 14.320312 33.847656 14.320312 C 31.324219 14.320312 29.269531 12.304688 29.269531 9.828125 C 29.269531 7.347656 31.324219 5.332031 33.847656 5.332031 Z M 33.832031 17.382812 C 35.425781 17.382812 36.988281 17.828125 38.351562 18.675781 C 39.648438 19.480469 40.734375 20.625 41.496094 21.984375 L 43.824219 20.683594 C 42.84375 18.929688 41.4375 17.453125 39.757812 16.410156 C 39.238281 16.085938 38.691406 15.820312 38.132812 15.589844 C 39.925781 14.285156 41.09375 12.191406 41.09375 9.828125 C 41.09375 5.878906 37.84375 2.667969 33.847656 2.667969 C 29.851562 2.667969 26.601562 5.878906 26.601562 9.828125 C 26.601562 12.183594 27.765625 14.273438 29.554688 15.578125 C 27.199219 16.558594 25.167969 18.320312 23.855469 20.65625 L 26.179688 21.960938 C 27.769531 19.136719 30.699219 17.382812 33.832031 17.382812 Z M 15.164062 22.714844 C 16.761719 22.714844 18.324219 23.160156 19.683594 24.007812 C 21.992188 25.441406 23.550781 27.90625 23.933594 30.644531 L 6.390625 30.644531 C 7.011719 26.164062 10.710938 22.714844 15.164062 22.714844 Z M 15.179688 10.667969 C 17.707031 10.667969 19.761719 12.679688 19.761719 15.160156 C 19.761719 17.636719 17.707031 19.652344 15.179688 19.652344 C 12.65625 19.652344 10.601562 17.636719 10.601562 15.160156 C 10.601562 12.679688 12.65625 10.667969 15.179688 10.667969 Z M 4.964844 33.308594 L 25.363281 33.308594 C 26.101562 33.308594 26.695312 32.710938 26.695312 31.976562 C 26.695312 27.808594 24.546875 23.886719 21.09375 21.742188 C 20.570312 21.421875 20.023438 21.15625 19.464844 20.921875 C 21.257812 19.617188 22.429688 17.523438 22.429688 15.160156 C 22.429688 11.210938 19.175781 8 15.179688 8 C 11.183594 8 7.933594 11.210938 7.933594 15.160156 C 7.933594 17.515625 9.097656 19.605469 10.882812 20.910156 C 6.640625 22.671875 3.632812 26.964844 3.632812 31.976562 C 3.632812 32.710938 4.230469 33.308594 4.964844 33.308594 Z M 4.964844 33.308594 "/>
</svg>
