<?xml version="1.0" encoding="UTF-8"?>
<svg xmlns="http://www.w3.org/2000/svg" xmlns:xlink="http://www.w3.org/1999/xlink" width="64" height="64" viewBox="0 0 64 64">
<path fill-rule="evenodd" fill="rgb(90.588236%, 8.235294%, 48.235294%)" fill-opacity="1" d="M 48.210938 20.898438 L 50.585938 22.109375 L 46.628906 29.886719 C 46.394531 30.347656 45.925781 30.617188 45.4375 30.617188 C 45.257812 30.617188 45.074219 30.578125 44.898438 30.5 L 36.640625 26.816406 L 37.726562 24.378906 L 42.886719 26.683594 C 40.902344 22.625 36.71875 19.898438 32.042969 19.898438 C 26.339844 19.898438 21.363281 23.957031 20.21875 29.550781 L 17.609375 29.015625 C 19.007812 22.1875 25.078125 17.230469 32.042969 17.230469 C 37.980469 17.230469 43.253906 20.832031 45.554688 26.121094 Z M 43.871094 34.375 L 46.480469 34.910156 C 45.089844 41.738281 39.015625 46.695312 32.046875 46.695312 C 26.558594 46.695312 21.691406 43.710938 19.15625 39.101562 L 18.164062 43.847656 L 15.554688 43.300781 L 17.34375 34.757812 C 17.488281 34.0625 18.167969 33.617188 18.851562 33.714844 L 27.785156 35.113281 L 27.371094 37.746094 L 20.960938 36.742188 C 22.832031 41.117188 27.136719 44.027344 32.046875 44.027344 C 37.753906 44.027344 42.730469 39.96875 43.871094 34.375 Z M 58.59375 36.109375 L 55.363281 35.925781 C 54.742188 35.894531 54.128906 36.324219 53.988281 36.964844 C 53.421875 39.460938 52.441406 41.828125 51.070312 44.003906 C 50.726562 44.554688 50.824219 45.273438 51.3125 45.707031 L 53.726562 47.863281 L 47.863281 53.726562 L 45.714844 51.320312 C 45.28125 50.832031 44.558594 50.734375 44.011719 51.078125 C 41.839844 52.453125 39.46875 53.433594 36.960938 54 C 36.328125 54.144531 35.886719 54.726562 35.925781 55.375 L 36.109375 58.59375 L 27.816406 58.59375 L 28.003906 55.375 C 28.039062 54.722656 27.601562 54.140625 26.964844 53.996094 C 24.46875 53.433594 22.097656 52.449219 19.921875 51.074219 C 19.371094 50.730469 18.648438 50.828125 18.214844 51.316406 L 16.066406 53.726562 L 10.203125 47.863281 L 12.613281 45.714844 C 13.097656 45.28125 13.199219 44.558594 12.851562 44.007812 C 11.480469 41.839844 10.503906 39.46875 9.9375 36.964844 C 9.792969 36.324219 9.175781 35.894531 8.5625 35.925781 L 5.335938 36.109375 L 5.335938 27.816406 L 8.570312 28 C 9.207031 28.03125 9.800781 27.601562 9.945312 26.964844 C 10.511719 24.472656 11.492188 22.105469 12.863281 19.933594 C 13.210938 19.382812 13.113281 18.660156 12.625 18.226562 L 10.199219 16.066406 L 16.066406 10.199219 L 18.226562 12.625 C 18.660156 13.109375 19.382812 13.207031 19.933594 12.863281 C 22.101562 11.496094 24.464844 10.515625 26.964844 9.953125 C 27.601562 9.808594 28.039062 9.226562 28.003906 8.578125 L 27.816406 5.332031 L 36.109375 5.332031 L 35.925781 8.578125 C 35.886719 9.230469 36.328125 9.8125 36.960938 9.957031 C 39.457031 10.519531 41.820312 11.5 43.992188 12.867188 C 44.539062 13.214844 45.261719 13.113281 45.695312 12.628906 L 47.863281 10.203125 L 53.726562 16.0625 L 51.304688 18.222656 C 50.820312 18.65625 50.71875 19.378906 51.066406 19.929688 C 52.4375 22.097656 53.417969 24.464844 53.984375 26.964844 C 54.128906 27.601562 54.742188 28.03125 55.359375 28 L 58.59375 27.816406 Z M 60.84375 25.4375 C 60.578125 25.1875 60.210938 25.050781 59.851562 25.074219 L 56.3125 25.277344 C 55.753906 23.25 54.949219 21.304688 53.90625 19.476562 L 56.554688 17.113281 C 56.828125 16.871094 56.988281 16.523438 57 16.15625 C 57.011719 15.792969 56.867188 15.4375 56.609375 15.175781 L 48.75 7.316406 C 48.492188 7.058594 48.121094 6.9375 47.769531 6.925781 C 47.402344 6.9375 47.058594 7.097656 46.8125 7.371094 L 44.441406 10.03125 C 42.613281 8.988281 40.675781 8.183594 38.648438 7.628906 L 38.851562 4.074219 C 38.871094 3.710938 38.742188 3.351562 38.488281 3.085938 C 38.238281 2.816406 37.886719 2.667969 37.519531 2.667969 L 26.40625 2.667969 C 26.039062 2.667969 25.6875 2.816406 25.4375 3.085938 C 25.183594 3.351562 25.054688 3.710938 25.074219 4.074219 L 25.277344 7.625 C 23.25 8.179688 21.308594 8.984375 19.480469 10.023438 L 17.117188 7.371094 C 16.871094 7.097656 16.523438 6.9375 16.15625 6.925781 C 15.78125 6.941406 15.4375 7.058594 15.179688 7.316406 L 7.316406 15.175781 C 7.058594 15.4375 6.917969 15.789062 6.925781 16.15625 C 6.9375 16.523438 7.097656 16.871094 7.371094 17.113281 L 10.027344 19.484375 C 8.980469 21.3125 8.175781 23.253906 7.621094 25.277344 L 4.074219 25.074219 C 3.71875 25.050781 3.351562 25.1875 3.085938 25.4375 C 2.816406 25.6875 2.667969 26.039062 2.667969 26.40625 L 2.667969 37.519531 C 2.667969 37.886719 2.816406 38.238281 3.085938 38.488281 C 3.351562 38.742188 3.71875 38.867188 4.074219 38.851562 L 7.609375 38.652344 C 8.164062 40.683594 8.96875 42.628906 10.011719 44.457031 L 7.371094 46.8125 C 7.097656 47.054688 6.9375 47.402344 6.925781 47.769531 C 6.917969 48.136719 7.058594 48.492188 7.316406 48.75 L 15.179688 56.609375 C 15.4375 56.867188 15.777344 56.988281 16.15625 57 C 16.523438 56.988281 16.871094 56.828125 17.117188 56.554688 L 19.46875 53.914062 C 21.304688 54.960938 23.25 55.765625 25.277344 56.324219 L 25.074219 59.851562 C 25.054688 60.214844 25.183594 60.574219 25.4375 60.839844 C 25.6875 61.109375 26.039062 61.257812 26.40625 61.257812 L 37.519531 61.257812 C 37.886719 61.257812 38.238281 61.109375 38.488281 60.839844 C 38.742188 60.574219 38.871094 60.214844 38.851562 59.851562 L 38.652344 56.328125 C 40.683594 55.769531 42.632812 54.964844 44.460938 53.917969 L 46.8125 56.554688 C 47.058594 56.828125 47.402344 56.988281 47.769531 57 C 48.125 56.992188 48.492188 56.867188 48.75 56.609375 L 56.609375 48.75 C 56.867188 48.492188 57.011719 48.136719 57 47.769531 C 56.988281 47.402344 56.828125 47.054688 56.554688 46.8125 L 53.910156 44.453125 C 54.957031 42.621094 55.757812 40.679688 56.3125 38.652344 L 59.851562 38.851562 C 60.207031 38.867188 60.578125 38.742188 60.84375 38.488281 C 61.109375 38.238281 61.261719 37.886719 61.261719 37.519531 L 61.261719 26.40625 C 61.261719 26.039062 61.109375 25.6875 60.84375 25.4375 Z M 60.84375 25.4375 "/>
</svg>
