<?xml version="1.0" encoding="UTF-8"?>
<svg xmlns="http://www.w3.org/2000/svg" xmlns:xlink="http://www.w3.org/1999/xlink" width="64" height="64" viewBox="0 0 64 64">
<path fill-rule="evenodd" fill="rgb(90.588236%, 8.235294%, 48.235294%)" fill-opacity="1" d="M 52 31.96875 C 52 27.929688 50.804688 24.039062 48.539062 20.71875 L 50.742188 19.21875 C 53.308594 22.984375 54.667969 27.394531 54.667969 31.96875 Z M 37 51.339844 L 37.664062 53.921875 C 35.824219 54.394531 33.917969 54.636719 32 54.636719 C 31.050781 54.636719 30.097656 54.578125 29.167969 54.460938 L 29.5 51.8125 C 31.984375 52.125 34.574219 51.964844 37 51.339844 Z M 12 31.96875 L 9.332031 31.96875 C 9.332031 27.191406 10.804688 22.621094 13.585938 18.75 L 15.75 20.308594 C 13.296875 23.71875 12 27.753906 12 31.96875 Z M 22.714844 14.296875 C 23.363281 14.128906 23.789062 13.511719 23.710938 12.847656 C 23.683594 12.621094 23.667969 12.394531 23.667969 12.160156 C 23.667969 10.140625 25.097656 7.894531 26.855469 7.144531 C 27.664062 6.800781 28.410156 6.664062 29.089844 6.664062 C 31.023438 6.664062 32.386719 7.777344 32.984375 8.375 C 33.640625 9.039062 34.179688 9.929688 34.539062 10.953125 C 34.703125 11.417969 35.109375 11.753906 35.597656 11.828125 C 36.09375 11.898438 36.578125 11.695312 36.871094 11.296875 C 37.253906 10.777344 37.839844 10.554688 38.394531 10.71875 C 39.109375 10.925781 39.585938 11.714844 39.691406 12.832031 C 39.648438 13.503906 40.117188 14.113281 40.796875 14.230469 C 41.996094 14.4375 44.011719 15.175781 44.011719 17.777344 C 44.011719 20.84375 41.324219 21.253906 40.902344 21.300781 L 23.699219 21.285156 C 21.992188 21.28125 20.273438 19.855469 20.09375 18.289062 C 20.074219 18.113281 20.0625 17.925781 20.0625 17.734375 C 20.0625 15.453125 21.503906 14.605469 22.714844 14.296875 Z M 23.695312 23.949219 L 41.011719 23.964844 C 42.972656 23.804688 46.679688 22.304688 46.679688 17.777344 C 46.679688 14.398438 44.53125 12.554688 42.238281 11.839844 C 41.859375 9.972656 40.742188 8.625 39.140625 8.160156 C 38.179688 7.878906 37.175781 7.972656 36.300781 8.394531 C 35.902344 7.6875 35.425781 7.050781 34.878906 6.5 C 32.402344 4.003906 29.011719 3.328125 25.8125 4.691406 C 23.097656 5.847656 21.042969 9.003906 21.003906 12.066406 C 18.722656 13.042969 17.394531 15.09375 17.394531 17.734375 C 17.394531 18.035156 17.410156 18.320312 17.445312 18.59375 C 17.777344 21.496094 20.640625 23.949219 23.695312 23.949219 Z M 24.207031 55.738281 C 23.910156 56.03125 23.453125 56.050781 23.179688 55.777344 L 18.261719 50.867188 C 18.636719 50.527344 18.988281 50.160156 19.300781 49.765625 L 24.246094 54.722656 C 24.515625 54.992188 24.496094 55.445312 24.207031 55.738281 Z M 5.332031 43.96875 C 5.332031 40.292969 8.324219 37.300781 12 37.300781 C 15.675781 37.300781 18.667969 40.292969 18.667969 43.96875 C 18.667969 47.644531 15.675781 50.636719 12 50.636719 C 8.324219 50.636719 5.332031 47.644531 5.332031 43.96875 Z M 20.679688 47.371094 C 21.097656 46.316406 21.332031 45.171875 21.332031 43.96875 C 21.332031 38.820312 17.144531 34.636719 12 34.636719 C 6.855469 34.636719 2.667969 38.820312 2.667969 43.96875 C 2.667969 49.117188 6.855469 53.300781 12 53.300781 C 13.4375 53.300781 14.789062 52.964844 16.007812 52.386719 L 21.296875 57.664062 C 21.945312 58.3125 22.796875 58.632812 23.65625 58.632812 C 24.535156 58.632812 25.414062 58.296875 26.089844 57.625 C 27.417969 56.296875 27.441406 54.148438 26.132812 52.839844 Z M 49.332031 51.96875 C 44.839844 51.96875 40 49.882812 40 45.300781 C 40 42.570312 41.265625 39.359375 44 37.886719 L 44 43.96875 C 44 44.703125 44.597656 45.300781 45.332031 45.300781 L 53.332031 45.300781 C 54.070312 45.300781 54.667969 44.703125 54.667969 43.96875 L 54.667969 37.886719 C 57.402344 39.359375 58.667969 42.570312 58.667969 45.300781 C 58.667969 49.882812 53.828125 51.96875 49.332031 51.96875 Z M 61.332031 45.300781 C 61.332031 40.109375 58.167969 35.738281 53.636719 34.671875 C 53.238281 34.578125 52.824219 34.671875 52.503906 34.921875 C 52.1875 35.175781 52 35.5625 52 35.96875 L 52 42.636719 L 46.667969 42.636719 L 46.667969 35.96875 C 46.667969 35.5625 46.480469 35.175781 46.160156 34.921875 C 45.84375 34.671875 45.425781 34.578125 45.027344 34.671875 C 40.496094 35.738281 37.332031 40.109375 37.332031 45.300781 C 37.332031 49.191406 39.949219 52.300781 44 53.75 L 44 58.636719 L 46.667969 58.636719 L 46.667969 54.425781 C 47.515625 54.5625 48.40625 54.636719 49.332031 54.636719 C 50.261719 54.636719 51.148438 54.5625 52 54.425781 L 52 58.636719 L 54.667969 58.636719 L 54.667969 53.75 C 58.71875 52.300781 61.332031 49.191406 61.332031 45.300781 Z M 61.332031 45.300781 "/>
</svg>
