<?xml version="1.0" encoding="UTF-8"?>
<svg xmlns="http://www.w3.org/2000/svg" xmlns:xlink="http://www.w3.org/1999/xlink" width="64" height="64" viewBox="0 0 64 64">
<path fill-rule="evenodd" fill="rgb(90.588236%, 8.235294%, 48.235294%)" fill-opacity="1" d="M 58.667969 42.636719 L 37.996094 42.625 L 37.988281 58.636719 L 58.660156 58.648438 Z M 42.640625 39.960938 L 53.960938 39.964844 L 53.960938 36.355469 C 53.96875 33.417969 51.449219 31.019531 48.34375 31.007812 L 48.324219 31.007812 C 45.207031 31.007812 42.667969 33.375 42.65625 36.289062 Z M 61.332031 41.300781 L 61.324219 59.980469 C 61.324219 60.71875 60.726562 61.3125 59.992188 61.3125 L 36.65625 61.304688 C 35.917969 61.304688 35.320312 60.707031 35.320312 59.972656 L 35.328125 41.292969 C 35.328125 40.941406 35.46875 40.601562 35.71875 40.351562 C 35.96875 40.101562 36.308594 39.960938 36.660156 39.960938 L 39.972656 39.960938 L 39.992188 36.28125 C 40.003906 31.898438 43.742188 28.34375 48.324219 28.34375 L 48.351562 28.34375 C 52.929688 28.359375 56.640625 31.953125 56.625 36.359375 L 56.628906 39.96875 L 60 39.96875 C 60.355469 39.96875 60.695312 40.109375 60.941406 40.359375 C 61.195312 40.609375 61.332031 40.949219 61.332031 41.300781 Z M 8.4375 35.5625 L 6.5625 37.457031 L 10.292969 41.152344 C 10.542969 41.398438 10.878906 41.535156 11.230469 41.535156 C 11.261719 41.535156 11.292969 41.535156 11.324219 41.53125 C 11.707031 41.503906 12.0625 41.316406 12.292969 41.007812 L 17.890625 33.621094 L 15.765625 32.011719 L 11.085938 38.183594 Z M 15.765625 19.570312 L 11.085938 25.746094 L 8.4375 23.121094 L 6.5625 25.019531 L 10.292969 28.710938 C 10.542969 28.957031 10.878906 29.097656 11.230469 29.097656 C 11.261719 29.097656 11.292969 29.09375 11.324219 29.09375 C 11.707031 29.066406 12.0625 28.875 12.292969 28.566406 L 17.890625 21.179688 Z M 15.765625 7.132812 L 11.085938 13.304688 L 8.4375 10.683594 L 6.5625 12.578125 L 10.292969 16.269531 C 10.542969 16.519531 10.878906 16.65625 11.230469 16.65625 C 11.261719 16.65625 11.292969 16.65625 11.324219 16.652344 C 11.707031 16.625 12.0625 16.433594 12.292969 16.128906 L 17.890625 8.742188 Z M 20.328125 39.15625 L 35.488281 39.15625 L 35.488281 36.488281 L 20.328125 36.488281 Z M 20.328125 27.492188 L 35.488281 27.492188 L 35.488281 24.824219 L 20.328125 24.824219 Z M 20.328125 14.664062 L 35.488281 14.664062 L 35.488281 11.996094 L 20.328125 11.996094 Z M 5.332031 45.820312 L 33.15625 45.820312 L 33.15625 48.484375 L 4 48.484375 C 3.261719 48.484375 2.667969 47.890625 2.667969 47.152344 L 2.667969 4 C 2.667969 3.261719 3.261719 2.667969 4 2.667969 L 38.988281 2.667969 C 39.722656 2.667969 40.320312 3.261719 40.320312 4 L 40.320312 31.992188 L 37.652344 31.992188 L 37.652344 5.332031 L 5.332031 5.332031 Z M 5.332031 45.820312 "/>
</svg>
