<?xml version="1.0" encoding="UTF-8"?>
<svg xmlns="http://www.w3.org/2000/svg" xmlns:xlink="http://www.w3.org/1999/xlink" width="64" height="64" viewBox="0 0 64 64">
<path fill-rule="evenodd" fill="rgb(90.588236%, 8.235294%, 48.235294%)" fill-opacity="1" d="M 58.714844 51.535156 L 5.332031 51.535156 L 5.332031 38.15625 L 18.289062 21.960938 L 31.285156 30.625 C 31.847656 30.996094 32.59375 30.894531 33.03125 30.386719 L 47.316406 13.90625 L 58.714844 24.265625 Z M 60.945312 22.691406 L 48.101562 11.011719 C 47.835938 10.769531 47.5 10.644531 47.125 10.671875 C 46.765625 10.691406 46.433594 10.855469 46.195312 11.125 L 31.785156 27.753906 L 18.75 19.0625 C 18.171875 18.679688 17.402344 18.800781 16.96875 19.339844 L 2.957031 36.855469 C 2.769531 37.09375 2.667969 37.386719 2.667969 37.6875 L 2.667969 52.867188 C 2.667969 53.605469 3.261719 54.203125 4 54.203125 L 60.046875 54.203125 C 60.785156 54.203125 61.382812 53.605469 61.382812 52.867188 L 61.382812 23.675781 C 61.382812 23.300781 61.222656 22.941406 60.945312 22.691406 Z M 60.945312 22.691406 "/>
</svg>
