<?xml version="1.0" encoding="UTF-8"?>
<svg xmlns="http://www.w3.org/2000/svg" xmlns:xlink="http://www.w3.org/1999/xlink" width="64" height="64" viewBox="0 0 64 64">
<path fill-rule="evenodd" fill="rgb(90.588236%, 8.235294%, 48.235294%)" fill-opacity="1" d="M 58.585938 35.320312 C 56.671875 48.671875 44.964844 59.128906 31.929688 59.128906 C 20.460938 59.128906 10.027344 51.03125 6.382812 39.988281 L 5.195312 43.550781 L 2.667969 42.707031 L 5.332031 34.707031 C 5.46875 34.292969 5.800781 33.976562 6.21875 33.851562 C 6.636719 33.730469 7.089844 33.816406 7.429688 34.089844 L 14.097656 39.421875 L 12.429688 41.503906 L 8.738281 38.550781 C 11.835938 48.839844 21.394531 56.460938 31.929688 56.460938 C 43.667969 56.460938 54.21875 47.007812 55.945312 34.941406 Z M 7.917969 29.984375 L 5.277344 29.609375 C 7.222656 15.996094 18.933594 5.332031 31.929688 5.332031 C 43.390625 5.332031 53.835938 13.625 57.488281 24.914062 L 58.667969 21.375 L 61.195312 22.21875 L 58.527344 30.21875 C 58.390625 30.632812 58.058594 30.953125 57.640625 31.074219 C 57.515625 31.113281 57.390625 31.128906 57.265625 31.128906 C 56.964844 31.128906 56.667969 31.03125 56.429688 30.835938 L 49.765625 25.503906 L 51.429688 23.421875 L 55.136719 26.386719 C 52.039062 15.832031 42.464844 8 31.929688 8 C 20.226562 8 9.679688 17.65625 7.917969 29.984375 Z M 26.597656 40 L 38.597656 40 L 38.597656 37.332031 L 26.597656 37.332031 Z M 26.597656 34.667969 L 38.597656 34.667969 L 38.597656 32 L 26.597656 32 Z M 26.597656 29.332031 L 38.597656 29.332031 L 38.597656 26.667969 L 26.597656 26.667969 Z M 43.335938 40.160156 L 44.875 41.621094 L 41.847656 44.496094 L 40.210938 42.941406 C 39.785156 42.539062 39.15625 42.460938 38.648438 42.738281 C 37.691406 43.269531 36.667969 43.671875 35.605469 43.941406 C 35.011719 44.089844 34.597656 44.621094 34.597656 45.234375 L 34.597656 48 L 30.597656 48 L 30.597656 45.71875 C 30.597656 45.121094 30.199219 44.597656 29.621094 44.433594 C 28.625 44.15625 27.667969 43.738281 26.765625 43.1875 C 26.230469 42.859375 25.539062 42.949219 25.101562 43.40625 L 23.640625 44.945312 L 20.765625 41.917969 L 22.324219 40.28125 C 22.722656 39.859375 22.804688 39.226562 22.523438 38.71875 C 21.992188 37.757812 21.589844 36.734375 21.324219 35.675781 C 21.175781 35.082031 20.640625 34.667969 20.03125 34.667969 L 17.265625 34.667969 L 17.265625 30.667969 L 19.546875 30.667969 C 20.144531 30.667969 20.667969 30.265625 20.832031 29.691406 C 21.105469 28.695312 21.523438 27.734375 22.074219 26.835938 C 22.40625 26.296875 22.316406 25.605469 21.855469 25.171875 L 20.320312 23.710938 L 23.34375 20.835938 L 24.984375 22.390625 C 25.40625 22.792969 26.039062 22.871094 26.546875 22.59375 C 27.503906 22.0625 28.527344 21.660156 29.589844 21.394531 C 30.179688 21.242188 30.597656 20.710938 30.597656 20.101562 L 30.597656 17.332031 L 34.597656 17.332031 L 34.597656 19.613281 C 34.597656 20.210938 34.996094 20.738281 35.570312 20.898438 C 36.566406 21.175781 37.527344 21.597656 38.429688 22.148438 C 38.964844 22.476562 39.660156 22.382812 40.09375 21.929688 L 41.554688 20.386719 L 44.429688 23.414062 L 42.871094 25.054688 C 42.46875 25.476562 42.390625 26.109375 42.671875 26.617188 C 43.203125 27.574219 43.605469 28.597656 43.871094 29.65625 C 44.019531 30.25 44.554688 30.667969 45.164062 30.667969 L 47.929688 30.667969 L 47.929688 34.667969 L 45.648438 34.667969 C 45.050781 34.667969 44.523438 35.066406 44.363281 35.644531 C 44.089844 36.636719 43.667969 37.597656 43.117188 38.496094 C 42.789062 39.035156 42.878906 39.726562 43.335938 40.160156 Z M 48.570312 28 L 46.167969 28 C 45.964844 27.386719 45.730469 26.789062 45.453125 26.207031 L 46.78125 24.808594 C 47.523438 24.023438 47.523438 22.800781 46.78125 22.019531 L 43.019531 18.058594 C 42.636719 17.660156 42.105469 17.429688 41.554688 17.429688 L 41.550781 17.429688 C 41 17.429688 40.464844 17.660156 40.085938 18.0625 L 38.871094 19.339844 C 38.347656 19.070312 37.8125 18.839844 37.265625 18.640625 L 37.265625 16.691406 C 37.265625 15.574219 36.355469 14.667969 35.238281 14.667969 L 29.953125 14.667969 C 28.839844 14.667969 27.929688 15.574219 27.929688 16.691406 L 27.929688 19.097656 C 27.320312 19.296875 26.71875 19.535156 26.136719 19.808594 L 24.738281 18.484375 C 23.953125 17.734375 22.730469 17.738281 21.949219 18.480469 L 17.992188 22.242188 C 17.589844 22.621094 17.363281 23.15625 17.363281 23.710938 C 17.363281 24.261719 17.589844 24.796875 17.992188 25.175781 L 19.269531 26.390625 C 19.003906 26.914062 18.769531 27.453125 18.570312 28 L 16.621094 28 C 15.503906 28 14.597656 28.90625 14.597656 30.023438 L 14.597656 35.308594 C 14.597656 36.425781 15.503906 37.332031 16.621094 37.332031 L 19.027344 37.332031 C 19.226562 37.945312 19.464844 38.542969 19.738281 39.125 L 18.410156 40.527344 C 17.667969 41.308594 17.667969 42.53125 18.410156 43.3125 L 22.171875 47.273438 C 22.554688 47.671875 23.089844 47.902344 23.640625 47.902344 L 23.644531 47.902344 C 24.195312 47.902344 24.726562 47.671875 25.109375 47.273438 L 26.324219 45.992188 C 26.84375 46.261719 27.382812 46.492188 27.929688 46.691406 L 27.929688 48.640625 C 27.929688 49.757812 28.839844 50.667969 29.953125 50.667969 L 35.238281 50.667969 C 36.355469 50.667969 37.265625 49.757812 37.265625 48.640625 L 37.265625 46.234375 C 37.878906 46.035156 38.476562 45.796875 39.058594 45.523438 L 40.453125 46.851562 C 41.238281 47.597656 42.464844 47.59375 43.242188 46.851562 L 47.203125 43.089844 C 47.605469 42.710938 47.832031 42.175781 47.832031 41.625 C 47.832031 41.070312 47.605469 40.535156 47.203125 40.15625 L 45.925781 38.941406 C 46.191406 38.417969 46.425781 37.878906 46.621094 37.332031 L 48.570312 37.332031 C 49.6875 37.332031 50.597656 36.425781 50.597656 35.308594 L 50.597656 30.023438 C 50.597656 28.90625 49.6875 28 48.570312 28 Z M 48.570312 28 "/>
</svg>
