<?xml version="1.0" encoding="UTF-8"?>
<svg xmlns="http://www.w3.org/2000/svg" xmlns:xlink="http://www.w3.org/1999/xlink" width="64" height="64" viewBox="0 0 64 64">
<path fill-rule="evenodd" fill="rgb(90.588236%, 8.235294%, 48.235294%)" fill-opacity="1" d="M 25.332031 24 L 38.667969 24 L 38.667969 21.332031 L 25.332031 21.332031 Z M 31.167969 18.375 L 24.5 13.042969 L 26.167969 10.957031 L 30.667969 14.558594 L 30.667969 2.667969 L 33.332031 2.667969 L 33.332031 14.558594 L 37.832031 10.957031 L 39.5 13.042969 L 32.832031 18.375 C 32.589844 18.570312 32.292969 18.667969 32 18.667969 C 31.707031 18.667969 31.410156 18.570312 31.167969 18.375 Z M 38.746094 41.566406 L 33.855469 33.242188 L 52.832031 23.113281 L 58.121094 32.152344 Z M 52 48.703125 C 50.078125 49.960938 41.539062 54.109375 33.332031 57.914062 L 33.332031 37.621094 L 37.074219 43.980469 C 37.320312 44.398438 37.765625 44.636719 38.222656 44.636719 C 38.421875 44.636719 38.617188 44.59375 38.808594 44.503906 L 52 38.09375 Z M 12 38 L 25.1875 44.5 C 25.378906 44.59375 25.578125 44.636719 25.777344 44.636719 C 26.234375 44.636719 26.679688 44.398438 26.925781 43.980469 L 30.667969 37.621094 L 30.667969 57.84375 L 12 48.523438 Z M 11.164062 23.109375 L 30.144531 33.242188 L 25.257812 41.558594 L 5.882812 32.015625 Z M 61.152344 32.046875 L 54.484375 20.660156 C 54.363281 20.449219 54.179688 20.308594 53.984375 20.195312 L 53.996094 20.175781 L 44.660156 14.84375 L 43.339844 17.15625 L 50.578125 21.292969 L 32 31.210938 L 13.570312 21.371094 L 21.929688 17.191406 L 20.738281 14.808594 L 10.070312 20.140625 L 10.082031 20.160156 C 9.859375 20.273438 9.65625 20.425781 9.519531 20.652344 L 2.851562 31.894531 C 2.664062 32.214844 2.617188 32.597656 2.722656 32.953125 C 2.828125 33.308594 3.078125 33.605469 3.410156 33.769531 L 9.332031 36.6875 L 9.332031 49.351562 C 9.332031 49.855469 9.617188 50.316406 10.070312 50.542969 L 31.40625 61.191406 L 31.410156 61.179688 C 31.597656 61.273438 31.796875 61.332031 32 61.332031 C 32.191406 61.332031 32.378906 61.292969 32.558594 61.210938 C 54.667969 51.03125 54.667969 50.339844 54.667969 49.289062 L 54.667969 36.796875 L 60.585938 33.921875 C 60.917969 33.757812 61.167969 33.464844 61.277344 33.109375 C 61.382812 32.753906 61.339844 32.371094 61.152344 32.046875 Z M 61.152344 32.046875 "/>
</svg>
