<?xml version="1.0" encoding="UTF-8"?>
<svg xmlns="http://www.w3.org/2000/svg" xmlns:xlink="http://www.w3.org/1999/xlink" width="64" height="64" viewBox="0 0 64 64">
<path fill-rule="evenodd" fill="rgb(90.588236%, 8.235294%, 48.235294%)" fill-opacity="1" d="M 14.667969 49.332031 L 34.667969 49.332031 L 34.667969 52 L 13.332031 52 C 12.597656 52 12 51.402344 12 50.667969 L 12 20 C 12 19.265625 12.597656 18.667969 13.332031 18.667969 L 40 18.667969 C 40.738281 18.667969 41.332031 19.265625 41.332031 20 L 41.332031 28 L 38.667969 28 L 38.667969 21.332031 L 14.667969 21.332031 Z M 18.003906 8 L 22.910156 8 C 23.464844 9.546875 24.929688 10.667969 26.667969 10.667969 C 28.402344 10.667969 29.871094 9.546875 30.421875 8 L 35.488281 8 L 36.988281 13.332031 L 16.503906 13.332031 Z M 26.667969 5.332031 C 27.402344 5.332031 28 5.933594 28 6.667969 C 28 7.402344 27.402344 8 26.667969 8 C 25.929688 8 25.332031 7.402344 25.332031 6.667969 C 25.332031 5.933594 25.929688 5.332031 26.667969 5.332031 Z M 14.742188 16 L 38.746094 16 C 39.164062 16 39.558594 15.804688 39.808594 15.472656 C 40.0625 15.136719 40.144531 14.707031 40.03125 14.304688 L 37.78125 6.304688 C 37.621094 5.730469 37.09375 5.332031 36.496094 5.332031 L 30.421875 5.332031 C 29.871094 3.785156 28.402344 2.667969 26.667969 2.667969 C 24.929688 2.667969 23.464844 3.785156 22.910156 5.332031 L 16.992188 5.332031 C 16.394531 5.332031 15.871094 5.730469 15.707031 6.304688 L 13.457031 14.304688 C 13.34375 14.707031 13.425781 15.136719 13.679688 15.472656 C 13.929688 15.804688 14.324219 16 14.742188 16 Z M 43.136719 10.667969 L 41.332031 10.667969 L 41.332031 8 L 43.136719 8 C 45.082031 8 46.667969 9.699219 46.667969 11.789062 L 46.667969 26.667969 L 44 26.667969 L 44 11.789062 C 44 11.179688 43.605469 10.667969 43.136719 10.667969 Z M 10.195312 54.667969 L 33.332031 54.667969 L 33.332031 57.332031 L 10.195312 57.332031 C 8.25 57.332031 6.667969 55.632812 6.667969 53.542969 L 6.667969 11.789062 C 6.667969 9.699219 8.25 8 10.195312 8 L 12 8 L 12 10.667969 L 10.195312 10.667969 C 9.730469 10.667969 9.332031 11.179688 9.332031 11.789062 L 9.332031 53.542969 C 9.332031 54.152344 9.730469 54.667969 10.195312 54.667969 Z M 52.628906 41.460938 C 52.433594 41.726562 52.347656 42.054688 52.382812 42.382812 L 52.566406 44.175781 L 50.917969 44.910156 C 50.617188 45.042969 50.375 45.285156 50.242188 45.585938 L 49.511719 47.234375 L 47.714844 47.046875 C 47.390625 47.011719 47.0625 47.101562 46.796875 47.292969 L 45.332031 48.351562 L 43.871094 47.292969 C 43.640625 47.128906 43.367188 47.039062 43.089844 47.039062 C 43.042969 47.039062 42.996094 47.042969 42.949219 47.046875 L 41.15625 47.234375 L 40.421875 45.585938 C 40.289062 45.285156 40.046875 45.042969 39.746094 44.910156 L 38.097656 44.175781 L 38.285156 42.382812 C 38.320312 42.054688 38.230469 41.726562 38.039062 41.460938 L 36.980469 40 L 38.039062 38.539062 C 38.230469 38.273438 38.320312 37.945312 38.285156 37.617188 L 38.097656 35.824219 L 39.746094 35.089844 C 40.050781 34.957031 40.289062 34.714844 40.425781 34.414062 L 41.15625 32.765625 L 42.949219 32.953125 C 43.273438 32.984375 43.605469 32.898438 43.871094 32.707031 L 45.332031 31.648438 L 46.796875 32.707031 C 47.0625 32.898438 47.390625 32.984375 47.714844 32.953125 L 49.511719 32.765625 L 50.242188 34.414062 C 50.378906 34.714844 50.617188 34.957031 50.921875 35.089844 L 52.566406 35.824219 L 52.382812 37.617188 C 52.347656 37.945312 52.433594 38.273438 52.628906 38.539062 L 53.6875 40 Z M 51.089844 56.066406 C 50.609375 55.910156 50.078125 56.035156 49.722656 56.390625 L 48.597656 57.519531 L 46.433594 50.847656 L 47.945312 49.753906 L 49.980469 49.964844 L 52.4375 56.519531 Z M 42.964844 57.078125 L 42.277344 56.390625 C 41.921875 56.035156 41.390625 55.910156 40.910156 56.066406 L 39.214844 56.632812 L 40.886719 49.945312 L 42.71875 49.753906 L 43.8125 50.542969 L 43.652344 50.527344 Z M 56.414062 39.21875 L 55.085938 37.386719 L 55.320312 35.136719 C 55.378906 34.5625 55.0625 34.015625 54.535156 33.78125 L 52.472656 32.863281 L 51.554688 30.796875 C 51.320312 30.269531 50.769531 29.957031 50.195312 30.011719 L 47.945312 30.246094 L 46.117188 28.921875 C 45.648438 28.582031 45.015625 28.582031 44.550781 28.921875 L 42.71875 30.246094 L 40.46875 30.011719 C 39.902344 29.957031 39.347656 30.269531 39.113281 30.796875 L 38.195312 32.863281 L 36.128906 33.78125 C 35.601562 34.015625 35.285156 34.5625 35.347656 35.136719 L 35.582031 37.386719 L 34.253906 39.21875 C 33.914062 39.683594 33.914062 40.316406 34.253906 40.78125 L 35.582031 42.613281 L 35.347656 44.863281 C 35.285156 45.4375 35.601562 45.984375 36.128906 46.21875 L 38.195312 47.136719 L 38.609375 48.070312 L 36.039062 58.34375 C 35.921875 58.816406 36.070312 59.316406 36.425781 59.644531 C 36.785156 59.976562 37.296875 60.085938 37.753906 59.933594 L 40.972656 58.859375 L 43.058594 60.941406 C 43.3125 61.199219 43.652344 61.332031 44 61.332031 C 44.148438 61.332031 44.300781 61.308594 44.445312 61.257812 C 44.929688 61.085938 45.273438 60.652344 45.324219 60.136719 L 45.648438 57.070312 L 46.730469 60.410156 C 46.875 60.851562 47.238281 61.1875 47.6875 61.296875 C 47.792969 61.320312 47.894531 61.332031 48 61.332031 C 48.347656 61.332031 48.691406 61.195312 48.941406 60.941406 L 51.027344 58.859375 L 54.246094 59.933594 C 54.734375 60.09375 55.269531 59.960938 55.625 59.59375 C 55.984375 59.222656 56.09375 58.679688 55.914062 58.199219 L 52.089844 47.996094 L 52.472656 47.136719 L 54.535156 46.21875 C 55.0625 45.984375 55.382812 45.4375 55.320312 44.863281 L 55.085938 42.613281 L 56.414062 40.78125 C 56.75 40.316406 56.75 39.683594 56.414062 39.21875 Z M 56.414062 39.21875 "/>
</svg>
