<?xml version="1.0" encoding="UTF-8"?>
<svg xmlns="http://www.w3.org/2000/svg" xmlns:xlink="http://www.w3.org/1999/xlink" width="64" height="64" viewBox="0 0 64 64">
<path fill-rule="evenodd" fill="rgb(90.588236%, 8.235294%, 48.235294%)" fill-opacity="1" d="M 33.636719 57.816406 L 33.636719 33.421875 L 55.273438 20.929688 L 55.273438 45.324219 Z M 9.332031 20.929688 L 30.96875 33.421875 L 30.96875 57.816406 L 9.332031 45.324219 Z M 32.304688 5.539062 L 54.449219 18.328125 L 32.304688 31.113281 L 10.15625 18.328125 Z M 57.273438 16.878906 L 32.96875 2.84375 C 32.558594 2.609375 32.050781 2.609375 31.636719 2.84375 L 7.332031 16.878906 C 6.921875 17.117188 6.667969 17.554688 6.667969 18.03125 L 6.667969 46.09375 C 6.667969 46.570312 6.921875 47.011719 7.332031 47.25 L 31.636719 61.28125 C 31.84375 61.398438 32.074219 61.457031 32.304688 61.457031 C 32.535156 61.457031 32.765625 61.398438 32.96875 61.28125 L 57.273438 47.25 C 57.6875 47.011719 57.941406 46.570312 57.941406 46.09375 L 57.941406 18.03125 C 57.941406 17.554688 57.6875 17.117188 57.273438 16.878906 Z M 57.273438 16.878906 "/>
</svg>
