<?xml version="1.0" encoding="UTF-8"?>
<svg xmlns="http://www.w3.org/2000/svg" xmlns:xlink="http://www.w3.org/1999/xlink" width="64" height="64" viewBox="0 0 64 64">
<path fill-rule="evenodd" fill="rgb(90.588236%, 8.235294%, 48.235294%)" fill-opacity="1" d="M 52.09375 15.875 L 44.910156 15.875 L 44.910156 13.207031 L 49.425781 13.207031 L 49.425781 7.519531 L 52.09375 7.519531 Z M 50.757812 5.332031 C 55.199219 5.332031 58.808594 8.945312 58.808594 13.382812 C 58.808594 17.824219 55.199219 21.433594 50.757812 21.433594 C 46.320312 21.433594 42.707031 17.824219 42.707031 13.382812 C 42.707031 8.945312 46.320312 5.332031 50.757812 5.332031 Z M 50.757812 24.101562 C 56.667969 24.101562 61.476562 19.292969 61.476562 13.382812 C 61.476562 7.472656 56.667969 2.667969 50.757812 2.667969 C 44.847656 2.667969 40.042969 7.472656 40.042969 13.382812 C 40.042969 19.292969 44.847656 24.101562 50.757812 24.101562 Z M 55.289062 54.277344 L 46.226562 54.277344 L 46.226562 28.207031 C 49.144531 29.085938 52.375 29.085938 55.289062 28.207031 Z M 56.074219 25.070312 C 52.734375 26.574219 48.785156 26.574219 45.441406 25.070312 C 45.03125 24.886719 44.550781 24.921875 44.167969 25.167969 C 43.789062 25.414062 43.558594 25.835938 43.558594 26.285156 L 43.558594 55.613281 C 43.558594 56.347656 44.15625 56.945312 44.894531 56.945312 L 56.621094 56.945312 C 57.359375 56.945312 57.957031 56.347656 57.957031 55.613281 L 57.957031 26.285156 C 57.957031 25.835938 57.726562 25.414062 57.347656 25.167969 C 56.96875 24.917969 56.488281 24.886719 56.074219 25.070312 Z M 2.667969 61.636719 L 61.316406 61.636719 L 61.316406 58.96875 L 2.667969 58.96875 Z M 27.457031 54.277344 L 36.519531 54.277344 L 36.519531 37.003906 L 27.457031 37.003906 Z M 26.125 56.945312 L 37.855469 56.945312 C 38.59375 56.945312 39.1875 56.347656 39.1875 55.613281 L 39.1875 35.671875 C 39.1875 34.933594 38.59375 34.335938 37.855469 34.335938 L 26.125 34.335938 C 25.390625 34.335938 24.792969 34.933594 24.792969 35.671875 L 24.792969 55.613281 C 24.792969 56.347656 25.390625 56.945312 26.125 56.945312 Z M 8.691406 54.277344 L 17.753906 54.277344 L 17.753906 31.140625 L 8.691406 31.140625 Z M 7.359375 56.945312 L 19.089844 56.945312 C 19.824219 56.945312 20.421875 56.347656 20.421875 55.613281 L 20.421875 29.804688 C 20.421875 29.066406 19.824219 28.472656 19.089844 28.472656 L 7.359375 28.472656 C 6.621094 28.472656 6.023438 29.066406 6.023438 29.804688 L 6.023438 55.613281 C 6.023438 56.347656 6.621094 56.945312 7.359375 56.945312 Z M 7.359375 56.945312 "/>
</svg>
