<?xml version="1.0" encoding="UTF-8"?>
<svg xmlns="http://www.w3.org/2000/svg" xmlns:xlink="http://www.w3.org/1999/xlink" width="64" height="64" viewBox="0 0 64 64">
<path fill-rule="evenodd" fill="rgb(90.588236%, 8.235294%, 48.235294%)" fill-opacity="1" d="M 26.820312 41.46875 L 46.632812 41.46875 L 46.632812 38.804688 L 26.820312 38.804688 Z M 26.820312 33.3125 L 51.296875 33.3125 L 51.296875 30.644531 L 26.820312 30.644531 Z M 26.820312 25.148438 L 37.3125 25.148438 L 37.3125 22.484375 L 26.820312 22.484375 Z M 10.667969 49.292969 L 11.664062 49.292969 L 11.664062 51.960938 L 9.332031 51.960938 C 8.597656 51.960938 8 51.367188 8 50.628906 L 8 4 C 8 3.261719 8.597656 2.667969 9.332031 2.667969 L 31.480469 2.667969 L 31.480469 5.332031 L 10.667969 5.332031 Z M 17.660156 53.957031 L 19.824219 53.957031 L 19.824219 56.625 L 16.328125 56.625 C 15.589844 56.625 14.992188 56.027344 14.992188 55.289062 L 14.992188 8.664062 C 14.992188 7.925781 15.589844 7.328125 16.328125 7.328125 L 37.3125 7.328125 L 37.3125 9.996094 L 17.660156 9.996094 Z M 24.65625 58.621094 L 24.65625 14.660156 L 41.804688 14.660156 L 41.804688 24.980469 C 41.804688 25.71875 42.402344 26.316406 43.136719 26.316406 L 53.460938 26.316406 L 53.460938 58.621094 Z M 44.472656 16.542969 L 51.574219 23.648438 L 44.472656 23.648438 Z M 55.738281 24.039062 L 44.082031 12.382812 C 43.832031 12.132812 43.492188 11.992188 43.136719 11.992188 L 23.320312 11.992188 C 22.585938 11.992188 21.988281 12.589844 21.988281 13.324219 L 21.988281 59.953125 C 21.988281 60.691406 22.585938 61.285156 23.320312 61.285156 L 54.792969 61.285156 C 55.53125 61.285156 56.128906 60.691406 56.128906 59.953125 L 56.128906 24.980469 C 56.128906 24.628906 55.988281 24.289062 55.738281 24.039062 Z M 55.738281 24.039062 "/>
</svg>
