<?xml version="1.0" encoding="UTF-8"?>
<svg xmlns="http://www.w3.org/2000/svg" xmlns:xlink="http://www.w3.org/1999/xlink" width="64" height="64" viewBox="0 0 64 64">
<path fill-rule="evenodd" fill="rgb(90.588236%, 8.235294%, 48.235294%)" fill-opacity="1" d="M 56.675781 51.570312 L 47.316406 60.925781 C 47.058594 61.1875 46.714844 61.320312 46.375 61.320312 C 46.035156 61.320312 45.691406 61.1875 45.429688 60.925781 L 36.074219 51.570312 L 37.960938 49.683594 L 45.039062 56.765625 L 45.039062 34.578125 C 45.039062 34.300781 44.890625 34.042969 44.632812 33.867188 L 32.335938 25.574219 L 20.042969 33.867188 C 19.789062 34.039062 19.632812 34.304688 19.632812 34.578125 L 19.632812 56.765625 L 26.714844 49.683594 L 28.601562 51.570312 L 19.242188 60.925781 C 18.980469 61.1875 18.640625 61.320312 18.300781 61.320312 C 17.960938 61.320312 17.617188 61.1875 17.359375 60.925781 L 8 51.570312 L 9.886719 49.683594 L 16.96875 56.765625 L 16.96875 34.578125 C 16.96875 33.417969 17.558594 32.324219 18.550781 31.65625 L 31.003906 23.257812 L 31.003906 2.667969 L 33.671875 2.667969 L 33.671875 23.257812 L 46.121094 31.65625 C 47.113281 32.324219 47.707031 33.417969 47.707031 34.578125 L 47.707031 56.765625 L 54.789062 49.683594 Z M 56.675781 51.570312 "/>
</svg>
