<?xml version="1.0" encoding="UTF-8"?>
<svg xmlns="http://www.w3.org/2000/svg" xmlns:xlink="http://www.w3.org/1999/xlink" width="72px" height="px" viewBox="0 0 72 72" version="1.1">
<g id="surface1">
<path style=" stroke:none;fill-rule:evenodd;fill:rgb(30.196078%,15.294118%,66.666667%);fill-opacity:1;" d="M 50.535156 51.5625 L 54.050781 51.5625 L 54.050781 48 L 50.535156 48 Z M 40.125 51.5625 L 43.6875 51.5625 L 43.6875 48 L 40.125 48 Z M 28.3125 51.5625 L 31.875 51.5625 L 31.875 48 L 28.3125 48 Z M 17.949219 51.5625 L 21.375 51.5625 L 21.375 48 L 17.949219 48 Z M 27 25.3125 L 45 25.3125 L 45 16.5 L 27 16.5 Z M 55.550781 45 L 53.25 45 L 53.25 39.9375 C 53.25 39.109375 52.578125 38.4375 51.75 38.4375 L 48 38.4375 L 48 33.375 C 48 32.546875 47.328125 31.875 46.5 31.875 L 37.5 31.875 L 37.5 28.3125 L 46.5 28.3125 C 47.328125 28.3125 48 27.640625 48 26.8125 L 48 15 C 48 14.171875 47.328125 13.5 46.5 13.5 L 25.5 13.5 C 24.671875 13.5 24 14.171875 24 15 L 24 26.8125 C 24 27.640625 24.671875 28.3125 25.5 28.3125 L 34.5 28.3125 L 34.5 31.875 L 25.5 31.875 C 24.671875 31.875 24 32.546875 24 33.375 L 24 38.4375 L 20.25 38.4375 C 19.421875 38.4375 18.75 39.109375 18.75 39.9375 L 18.75 45 L 16.449219 45 C 15.621094 45 14.949219 45.671875 14.949219 46.5 L 14.949219 53.0625 C 14.949219 53.890625 15.621094 54.5625 16.449219 54.5625 L 22.875 54.5625 C 23.703125 54.5625 24.375 53.890625 24.375 53.0625 L 24.375 46.5 C 24.375 45.671875 23.703125 45 22.875 45 L 21.75 45 L 21.75 41.4375 L 27.9375 41.4375 L 27.9375 45 L 26.8125 45 C 25.984375 45 25.3125 45.671875 25.3125 46.5 L 25.3125 53.0625 C 25.3125 53.890625 25.984375 54.5625 26.8125 54.5625 L 33.375 54.5625 C 34.203125 54.5625 34.875 53.890625 34.875 53.0625 L 34.875 46.5 C 34.875 45.671875 34.203125 45 33.375 45 L 30.9375 45 L 30.9375 39.9375 C 30.9375 39.109375 30.265625 38.4375 29.4375 38.4375 L 27 38.4375 L 27 34.875 L 45 34.875 L 45 38.4375 L 42.5625 38.4375 C 41.734375 38.4375 41.0625 39.109375 41.0625 39.9375 L 41.0625 45 L 38.625 45 C 37.796875 45 37.125 45.671875 37.125 46.5 L 37.125 53.0625 C 37.125 53.890625 37.796875 54.5625 38.625 54.5625 L 45.1875 54.5625 C 46.015625 54.5625 46.6875 53.890625 46.6875 53.0625 L 46.6875 46.5 C 46.6875 45.671875 46.015625 45 45.1875 45 L 44.0625 45 L 44.0625 41.4375 L 50.25 41.4375 L 50.25 45 L 49.035156 45 C 48.207031 45 47.535156 45.671875 47.535156 46.5 L 47.535156 53.0625 C 47.535156 53.890625 48.207031 54.5625 49.035156 54.5625 L 55.550781 54.5625 C 56.378906 54.5625 57.050781 53.890625 57.050781 53.0625 L 57.050781 46.5 C 57.050781 45.671875 56.378906 45 55.550781 45 Z M 36 66 C 19.457031 66 6 52.542969 6 36 C 6 19.457031 19.457031 6 36 6 C 52.542969 6 66 19.457031 66 36 C 66 52.542969 52.542969 66 36 66 Z M 36 3 C 17.804688 3 3 17.804688 3 36 C 3 54.195312 17.804688 69 36 69 C 54.195312 69 69 54.195312 69 36 C 69 17.804688 54.195312 3 36 3 Z M 36 3 "/>
</g>
</svg>
