<?xml version="1.0" encoding="UTF-8"?>
<svg xmlns="http://www.w3.org/2000/svg" xmlns:xlink="http://www.w3.org/1999/xlink" width="72px" height="px" viewBox="0 0 72 72" version="1.1">
<g id="surface1">
<path style=" stroke:none;fill-rule:evenodd;fill:rgb(69.019608%,3.137255%,30.196078%);fill-opacity:1;" d="M 38.863281 37.433594 L 41.726562 37.433594 L 41.726562 34.570312 L 38.863281 34.570312 Z M 34.566406 37.433594 L 37.429688 37.433594 L 37.429688 34.570312 L 34.566406 34.570312 Z M 30.273438 37.433594 L 33.136719 37.433594 L 33.136719 34.570312 L 30.273438 34.570312 Z M 55.976562 46.503906 L 46.09375 55.203125 L 46.09375 16.996094 L 55.976562 25.695312 Z M 46.414062 13.390625 C 46.109375 13.257812 44.785156 12.867188 43.863281 13.378906 L 43.09375 13.808594 L 43.09375 58.394531 L 43.863281 58.820312 C 44.207031 59.011719 44.605469 59.078125 44.988281 59.078125 C 45.632812 59.078125 46.222656 58.894531 46.414062 58.8125 L 46.636719 58.71875 L 57.847656 48.851562 C 58.542969 48.449219 58.976562 47.71875 58.976562 46.925781 L 58.976562 25.273438 C 58.976562 24.480469 58.542969 23.753906 57.847656 23.347656 L 46.636719 13.480469 Z M 25.910156 55.203125 L 16.023438 46.507812 L 16.023438 25.695312 L 25.910156 16.996094 Z M 25.582031 13.390625 L 25.359375 13.480469 L 14.148438 23.347656 C 13.457031 23.753906 13.023438 24.480469 13.023438 25.273438 L 13.023438 46.925781 C 13.023438 47.71875 13.457031 48.449219 14.148438 48.851562 L 25.359375 58.71875 L 25.582031 58.8125 C 25.773438 58.894531 26.367188 59.078125 27.007812 59.078125 C 27.390625 59.078125 27.789062 59.011719 28.132812 58.824219 L 28.910156 58.394531 L 28.910156 13.804688 L 28.132812 13.378906 C 27.214844 12.871094 25.886719 13.257812 25.582031 13.390625 Z M 66 48.425781 L 48.425781 66 L 23.574219 66 L 6 48.425781 L 6 23.574219 L 23.574219 6 L 48.425781 6 L 66 23.574219 Z M 49.667969 3 L 22.332031 3 L 3 22.332031 L 3 49.667969 L 22.332031 69 L 49.667969 69 L 69 49.667969 L 69 22.332031 Z M 49.667969 3 "/>
</g>
</svg>
