<?xml version="1.0" encoding="UTF-8"?>
<svg width="48px" height="48px" viewBox="0 0 48 48" version="1.1" xmlns="http://www.w3.org/2000/svg" xmlns:xlink="http://www.w3.org/1999/xlink">
    <title>Icon-Resource/General-Resource/Res_Camera_48_Dark</title>
    <g id="Icon-Resource/General-Resource/Res_Camera_48" stroke="none" stroke-width="1" fill="none" fill-rule="evenodd">
        <path d="M12,19 L8,19.053 L7.946,18 L12,17.946 L12,19 Z M14,17.946 C14,16.873 13.127,16 12.054,16 L7.946,16 C6.873,16 6,16.873 6,17.946 L6,19.053 C6,20.126 6.873,21 7.946,21 L12.054,21 C13.127,21 14,20.126 14,19.053 L14,17.946 Z M25.77,32.875 C22.057,32.875 19.035,29.854 19.035,26.141 C19.035,22.427 22.057,19.406 25.77,19.406 C29.482,19.406 32.504,22.427 32.504,26.141 C32.504,29.854 29.482,32.875 25.77,32.875 L25.77,32.875 Z M25.77,17.406 C20.953,17.406 17.035,21.325 17.035,26.141 C17.035,30.957 20.953,34.875 25.77,34.875 C30.586,34.875 34.504,30.957 34.504,26.141 C34.504,21.325 30.586,17.406 25.77,17.406 L25.77,17.406 Z M25.77,36.07 C20.294,36.07 15.84,31.616 15.84,26.141 C15.84,20.666 20.294,16.211 25.77,16.211 C31.245,16.211 35.699,20.666 35.699,26.141 C35.699,31.616 31.245,36.07 25.77,36.07 L25.77,36.07 Z M25.77,14.211 C19.191,14.211 13.84,19.563 13.84,26.141 C13.84,32.718 19.191,38.07 25.77,38.07 C32.348,38.07 37.699,32.718 37.699,26.141 C37.699,19.563 32.348,14.211 25.77,14.211 L25.77,14.211 Z M44,38.438 C44,39.299 43.3,40 42.439,40 L5.561,40 C4.7,40 4,39.299 4,38.438 L4,15.561 C4,14.7 4.7,14 5.561,14 L8,14 L14,14 L18.128,14 C18.602,14 19.01,13.667 19.106,13.204 L19.853,9.636 C19.93,9.267 20.26,9 20.637,9 L30.901,9 C31.278,9 31.609,9.268 31.687,9.637 L32.434,13.205 C32.53,13.667 32.938,14 33.412,14 L42.439,14 C43.3,14 44,14.7 44,15.561 L44,38.438 Z M9,11.269 C9,11.121 9.121,11 9.27,11 L12.73,11 C12.879,11 13,11.121 13,11.269 L13,12 L9,12 L9,11.269 Z M42.439,12 L34.225,12 L33.644,9.227 C33.373,7.937 32.22,7 30.901,7 L20.637,7 C19.317,7 18.164,7.937 17.896,9.228 L17.315,12 L15,12 L15,11.269 C15,10.018 13.981,9 12.73,9 L9.27,9 C8.019,9 7,10.018 7,11.269 L7,12 L5.561,12 C3.598,12 2,13.597 2,15.561 L2,38.438 C2,40.402 3.598,42 5.561,42 L42.439,42 C44.402,42 46,40.402 46,38.438 L46,15.561 C46,13.597 44.402,12 42.439,12 L42.439,12 Z" id="Fill-3" fill="#FFFFFF"></path>
    </g>
</svg>