<?xml version="1.0" encoding="UTF-8"?>
<svg xmlns="http://www.w3.org/2000/svg" xmlns:xlink="http://www.w3.org/1999/xlink" width="72px" height="px" viewBox="0 0 72 72" version="1.1">
<g id="surface1">
<path style=" stroke:none;fill-rule:evenodd;fill:rgb(13.72549%,18.431373%,23.921569%);fill-opacity:1;" d="M 18 28.5 L 12 28.578125 L 11.917969 27 L 18 26.917969 Z M 21 26.917969 C 21 25.308594 19.691406 24 18.082031 24 L 11.917969 24 C 10.308594 24 9 25.308594 9 26.917969 L 9 28.578125 C 9 30.1875 10.308594 31.5 11.917969 31.5 L 18.082031 31.5 C 19.691406 31.5 21 30.1875 21 28.578125 Z M 38.65625 49.3125 C 33.085938 49.3125 28.550781 44.78125 28.550781 39.210938 C 28.550781 33.640625 33.085938 29.109375 38.65625 29.109375 C 44.222656 29.109375 48.757812 33.640625 48.757812 39.210938 C 48.757812 44.78125 44.222656 49.3125 38.65625 49.3125 Z M 38.65625 26.109375 C 31.429688 26.109375 25.550781 31.988281 25.550781 39.210938 C 25.550781 46.433594 31.429688 52.3125 38.65625 52.3125 C 45.878906 52.3125 51.757812 46.433594 51.757812 39.210938 C 51.757812 31.988281 45.878906 26.109375 38.65625 26.109375 Z M 38.65625 54.105469 C 30.441406 54.105469 23.761719 47.425781 23.761719 39.210938 C 23.761719 31 30.441406 24.316406 38.65625 24.316406 C 46.867188 24.316406 53.546875 31 53.546875 39.210938 C 53.546875 47.425781 46.867188 54.105469 38.65625 54.105469 Z M 38.65625 21.316406 C 28.785156 21.316406 20.761719 29.34375 20.761719 39.210938 C 20.761719 49.078125 28.785156 57.105469 38.65625 57.105469 C 48.523438 57.105469 56.546875 49.078125 56.546875 39.210938 C 56.546875 29.34375 48.523438 21.316406 38.65625 21.316406 Z M 66 57.65625 C 66 58.949219 64.949219 60 63.660156 60 L 8.339844 60 C 7.050781 60 6 58.949219 6 57.65625 L 6 23.339844 C 6 22.050781 7.050781 21 8.339844 21 L 27.191406 21 C 27.902344 21 28.515625 20.5 28.660156 19.804688 L 29.78125 14.453125 C 29.894531 13.902344 30.390625 13.5 30.957031 13.5 L 46.351562 13.5 C 46.917969 13.5 47.414062 13.902344 47.53125 14.457031 L 48.652344 19.808594 C 48.796875 20.5 49.40625 21 50.117188 21 L 63.660156 21 C 64.949219 21 66 22.050781 66 23.339844 Z M 13.5 16.902344 C 13.5 16.679688 13.679688 16.5 13.90625 16.5 L 19.09375 16.5 C 19.320312 16.5 19.5 16.679688 19.5 16.902344 L 19.5 18 L 13.5 18 Z M 63.660156 18 L 51.335938 18 L 50.464844 13.839844 C 50.058594 11.90625 48.328125 10.5 46.351562 10.5 L 30.957031 10.5 C 28.976562 10.5 27.246094 11.90625 26.84375 13.84375 L 25.972656 18 L 22.5 18 L 22.5 16.902344 C 22.5 15.027344 20.972656 13.5 19.09375 13.5 L 13.90625 13.5 C 12.027344 13.5 10.5 15.027344 10.5 16.902344 L 10.5 18 L 8.339844 18 C 5.398438 18 3 20.394531 3 23.339844 L 3 57.65625 C 3 60.601562 5.398438 63 8.339844 63 L 63.660156 63 C 66.601562 63 69 60.601562 69 57.65625 L 69 23.339844 C 69 20.394531 66.601562 18 63.660156 18 Z M 63.660156 18 "/>
</g>
</svg>
