<?xml version="1.0" encoding="UTF-8"?>
<svg xmlns="http://www.w3.org/2000/svg" xmlns:xlink="http://www.w3.org/1999/xlink" width="72px" height="px" viewBox="0 0 72 72" version="1.1">
<g id="surface1">
<path style=" stroke:none;fill-rule:evenodd;fill:rgb(30.196078%,15.294118%,66.666667%);fill-opacity:1;" d="M 63.3125 37.058594 L 56.75 43.621094 L 54.628906 41.503906 L 58.628906 37.5 L 37.5 37.5 L 37.5 58.628906 L 41.503906 54.628906 L 43.625 56.746094 L 37.0625 63.308594 C 36.769531 63.601562 36.382812 63.75 36 63.75 C 35.617188 63.75 35.230469 63.601562 34.941406 63.308594 L 28.378906 56.746094 L 30.5 54.628906 L 34.5 58.628906 L 34.5 37.5 L 13.371094 37.5 L 17.375 41.503906 L 15.253906 43.621094 L 8.691406 37.058594 C 8.105469 36.472656 8.105469 35.527344 8.691406 34.941406 L 15.253906 28.375 L 17.375 30.496094 L 13.371094 34.5 L 34.5 34.5 L 34.5 13.371094 L 30.5 17.371094 L 28.378906 15.25 L 34.941406 8.6875 C 35.527344 8.101562 36.472656 8.101562 37.0625 8.6875 L 43.625 15.25 L 41.503906 17.371094 L 37.5 13.371094 L 37.5 34.5 L 58.628906 34.5 L 54.628906 30.496094 L 56.75 28.375 L 63.3125 34.941406 C 63.898438 35.527344 63.898438 36.472656 63.3125 37.058594 M 36 66 C 19.457031 66 6 52.542969 6 36 C 6 19.457031 19.457031 6 36 6 C 52.542969 6 66 19.457031 66 36 C 66 52.542969 52.542969 66 36 66 M 36 3 C 17.804688 3 3 17.804688 3 36 C 3 54.195312 17.804688 69 36 69 C 54.195312 69 69 54.195312 69 36 C 69 17.804688 54.195312 3 36 3 "/>
</g>
</svg>
