<?xml version="1.0" encoding="UTF-8"?>
<svg xmlns="http://www.w3.org/2000/svg" xmlns:xlink="http://www.w3.org/1999/xlink" width="72px" height="px" viewBox="0 0 72 72" version="1.1">
<g id="surface1">
<path style=" stroke:none;fill-rule:evenodd;fill:rgb(100%,100%,100%);fill-opacity:1;" d="M 63.449219 58.160156 L 63.449219 61.042969 C 63.449219 61.699219 62.917969 62.234375 62.257812 62.234375 L 46.144531 62.234375 C 45.484375 62.234375 44.953125 61.699219 44.953125 61.042969 L 44.953125 58.160156 C 44.953125 57.503906 45.484375 56.96875 46.144531 56.96875 L 62.257812 56.96875 C 62.917969 56.96875 63.449219 57.503906 63.449219 58.160156 Z M 65.695312 63.597656 C 65.695312 64.132812 65.261719 64.566406 64.730469 64.566406 L 6.96875 64.566406 C 6.433594 64.566406 6 64.132812 6 63.597656 L 6 55.515625 C 6 54.984375 6.433594 54.550781 6.96875 54.550781 L 64.730469 54.550781 C 65.261719 54.550781 65.695312 54.984375 65.695312 55.515625 Z M 64.730469 51.550781 L 6.96875 51.550781 C 4.78125 51.550781 3 53.328125 3 55.515625 L 3 63.597656 C 3 65.785156 4.78125 67.566406 6.96875 67.566406 L 64.730469 67.566406 C 66.917969 67.566406 68.695312 65.785156 68.695312 63.597656 L 68.695312 55.515625 C 68.695312 53.328125 66.917969 51.550781 64.730469 51.550781 Z M 11.25 40.816406 L 60.394531 40.816406 L 60.394531 11.253906 L 11.25 11.253906 Z M 61.261719 8.253906 L 10.386719 8.253906 C 9.210938 8.253906 8.25 9.207031 8.25 10.382812 L 8.25 41.683594 C 8.25 42.859375 9.210938 43.816406 10.386719 43.816406 L 61.261719 43.816406 C 62.4375 43.816406 63.394531 42.859375 63.394531 41.683594 L 63.394531 10.382812 C 63.394531 9.207031 62.4375 8.253906 61.261719 8.253906 Z M 65.695312 45.101562 C 65.695312 45.632812 65.261719 46.066406 64.730469 46.066406 L 6.96875 46.066406 C 6.433594 46.066406 6 45.632812 6 45.101562 L 6 6.964844 C 6 6.433594 6.433594 6 6.96875 6 L 64.730469 6 C 65.261719 6 65.695312 6.433594 65.695312 6.964844 Z M 64.730469 3 L 6.96875 3 C 4.78125 3 3 4.777344 3 6.964844 L 3 45.101562 C 3 47.289062 4.78125 49.066406 6.96875 49.066406 L 64.730469 49.066406 C 66.917969 49.066406 68.695312 47.289062 68.695312 45.101562 L 68.695312 6.964844 C 68.695312 4.777344 66.917969 3 64.730469 3 Z M 64.730469 3 "/>
</g>
</svg>
