<?xml version="1.0" encoding="UTF-8"?>
<svg width="80px" height="80px" viewBox="0 0 80 80" version="1.1" xmlns="http://www.w3.org/2000/svg" xmlns:xlink="http://www.w3.org/1999/xlink">
    <title>Icon-Architecture/64/Arch_CN-CloudWAN_64</title>
    <defs>
        <linearGradient x1="0%" y1="100%" x2="100%" y2="0%" id="linearGradient-1">
            <stop stop-color="#4D27A8" offset="0%"></stop>
            <stop stop-color="#A166FF" offset="100%"></stop>
        </linearGradient>
    </defs>
    <g id="Icon-Architecture/64/Arch_CN-CloudWAN_64" stroke="none" stroke-width="1" fill="none" fill-rule="evenodd">
        <g id="Rectangle" fill="url(#linearGradient-1)">
            <rect x="0" y="0" width="80" height="80"></rect>
        </g>
        <g id="Icon-Service/64/CN-CloudWAN_64" transform="translate(8.000000, 8.000000)" fill="#FFFFFF">
            <path d="M58,32 C58,29.794 56.206,28 54,28 C51.794,28 50,29.794 50,32 C50,34.206 51.794,36 54,36 C56.206,36 58,34.206 58,32 L58,32 Z M47.663,31 C47.485,28.19 46.578,25.577 45.11,23.357 C43.733,24.086 42.124,24.684 40.359,25.139 C40.737,26.95 40.959,28.924 41.016,31 L47.663,31 Z M47.663,33 L41.016,33 C40.964,34.924 40.764,36.755 40.434,38.454 C42.252,38.929 43.908,39.552 45.308,40.317 C46.656,38.169 47.493,35.676 47.663,33 L47.663,33 Z M44.138,41.967 C42.936,41.334 41.535,40.808 39.992,40.4 C39.275,43.062 38.221,45.293 36.936,46.909 C39.782,45.964 42.273,44.235 44.138,41.967 L44.138,41.967 Z M36,54 C36,51.794 34.206,50 32,50 C29.794,50 28,51.794 28,54 C28,56.206 29.794,58 32,58 C34.206,58 36,56.206 36,54 L36,54 Z M27.064,46.909 C25.779,45.293 24.725,43.062 24.008,40.399 C22.464,40.806 21.063,41.332 19.86,41.965 C21.726,44.234 24.218,45.963 27.064,46.909 L27.064,46.909 Z M23.566,38.454 C23.236,36.754 23.036,34.923 22.984,33 L16.337,33 C16.506,35.676 17.344,38.167 18.691,40.316 C20.091,39.551 21.748,38.928 23.566,38.454 L23.566,38.454 Z M16.337,31 L22.984,31 C23.041,28.924 23.263,26.95 23.641,25.139 C21.876,24.684 20.267,24.086 18.89,23.357 C17.422,25.577 16.515,28.19 16.337,31 L16.337,31 Z M20.124,21.74 C21.298,22.329 22.645,22.821 24.123,23.203 C24.835,20.717 25.844,18.625 27.064,17.091 C24.346,17.994 21.959,19.619 20.124,21.74 L20.124,21.74 Z M28,10 C28,12.206 29.794,14 32,14 C34.206,14 36,12.206 36,10 C36,7.794 34.206,6 32,6 C29.794,6 28,7.794 28,10 L28,10 Z M32,24.162 C34.057,24.162 36.053,23.973 37.916,23.633 C36.65,19.258 34.449,16.286 32,16.286 C29.551,16.286 27.35,19.258 26.084,23.633 C27.947,23.973 29.943,24.162 32,24.162 L32,24.162 Z M39.018,31 C38.96,29.087 38.744,27.257 38.395,25.574 C36.375,25.951 34.216,26.162 32,26.162 C29.784,26.162 27.625,25.951 25.605,25.574 C25.256,27.257 25.04,29.087 24.982,31 L39.018,31 Z M31.998,39.413 C29.901,39.413 27.867,39.609 25.973,39.962 C27.218,44.557 29.476,47.714 32,47.714 C34.524,47.714 36.782,44.558 38.027,39.963 C36.132,39.61 34.097,39.413 31.998,39.413 L31.998,39.413 Z M38.483,38.017 C38.784,36.45 38.965,34.757 39.018,33 L24.982,33 C25.035,34.757 25.216,36.449 25.517,38.017 C27.562,37.629 29.75,37.413 31.998,37.413 C34.248,37.413 36.438,37.629 38.483,38.017 L38.483,38.017 Z M36.936,17.091 C38.156,18.625 39.165,20.717 39.877,23.204 C41.355,22.821 42.702,22.329 43.876,21.74 C42.041,19.619 39.654,17.994 36.936,17.091 L36.936,17.091 Z M14,32 C14,29.794 12.206,28 10,28 C7.794,28 6,29.794 6,32 C6,34.206 7.794,36 10,36 C12.206,36 14,34.206 14,32 L14,32 Z M60,32 C60,35.309 57.309,38 54,38 C52.102,38 50.411,37.112 49.31,35.732 C47.851,42.508 42.508,47.851 35.733,49.311 C37.112,50.411 38,52.102 38,54 C38,57.309 35.309,60 32,60 C28.691,60 26,57.309 26,54 C26,52.102 26.888,50.411 28.267,49.311 C21.492,47.851 16.149,42.508 14.69,35.732 C13.589,37.112 11.898,38 10,38 C6.691,38 4,35.309 4,32 C4,28.691 6.691,26 10,26 C11.898,26 13.589,26.888 14.69,28.268 C16.149,21.492 21.492,16.149 28.267,14.689 C26.888,13.589 26,11.898 26,10 C26,6.691 28.691,4 32,4 C35.309,4 38,6.691 38,10 C38,11.898 37.112,13.589 35.733,14.689 C42.508,16.149 47.851,21.492 49.31,28.268 C50.411,26.888 52.102,26 54,26 C57.309,26 60,28.691 60,32 L60,32 Z M52.496,40.359 C50.249,45.848 45.849,50.248 40.359,52.496 C40.447,52.985 40.5,53.486 40.5,54 C40.5,54.205 40.484,54.406 40.469,54.607 C46.973,52.162 52.162,46.972 54.607,40.469 C54.406,40.484 54.205,40.5 54,40.5 C53.486,40.5 52.985,40.447 52.496,40.359 L52.496,40.359 Z M23.641,52.496 C18.151,50.248 13.751,45.848 11.504,40.359 C11.015,40.447 10.514,40.5 10,40.5 C9.795,40.5 9.594,40.484 9.393,40.469 C11.838,46.972 17.027,52.162 23.531,54.607 C23.516,54.406 23.5,54.205 23.5,54 C23.5,53.486 23.553,52.985 23.641,52.496 L23.641,52.496 Z M11.504,23.641 C13.751,18.152 18.151,13.752 23.641,11.504 C23.553,11.015 23.5,10.514 23.5,10 C23.5,9.795 23.516,9.594 23.531,9.393 C17.027,11.838 11.838,17.028 9.393,23.531 C9.594,23.516 9.795,23.5 10,23.5 C10.514,23.5 11.015,23.553 11.504,23.641 L11.504,23.641 Z M40.5,10 C40.5,9.795 40.484,9.594 40.469,9.393 C46.973,11.838 52.162,17.028 54.607,23.531 C54.406,23.516 54.205,23.5 54,23.5 C53.486,23.5 52.985,23.553 52.496,23.641 C50.249,18.152 45.849,13.752 40.359,11.504 C40.447,11.015 40.5,10.514 40.5,10 L40.5,10 Z" id="Fill-1"></path>
        </g>
    </g>
</svg>