<?xml version="1.0" encoding="UTF-8"?>
<svg xmlns="http://www.w3.org/2000/svg" xmlns:xlink="http://www.w3.org/1999/xlink" width="72px" height="px" viewBox="0 0 72 72" version="1.1">
<g id="surface1">
<path style=" stroke:none;fill-rule:evenodd;fill:rgb(100%,100%,100%);fill-opacity:1;" d="M 47.632812 64.960938 C 45.757812 65.277344 43.765625 65.515625 41.703125 65.664062 C 40.867188 65.726562 40.015625 65.769531 39.15625 65.804688 C 37.429688 65.863281 35.632812 65.863281 33.910156 65.804688 C 33.050781 65.769531 32.199219 65.726562 31.363281 65.664062 C 29.300781 65.515625 27.308594 65.277344 25.433594 64.960938 C 18.074219 63.710938 13.5 61.09375 13.5 58.132812 L 13.5 16.148438 C 17.996094 18.992188 26.609375 20.761719 36.535156 20.761719 C 46.449219 20.761719 54.953125 19.019531 59.46875 16.203125 L 59.46875 58.132812 C 59.46875 61.152344 55.042969 63.703125 47.632812 64.960938 M 36.535156 6 C 49.34375 6 57.714844 9.277344 59.203125 12.648438 C 56.703125 15.148438 48.691406 17.761719 36.535156 17.761719 C 24.390625 17.761719 16.242188 15.089844 13.808594 12.613281 L 13.757812 12.664062 C 15.234375 9.285156 23.648438 6 36.535156 6 M 36.535156 3 C 21.207031 3 10.5 7.40625 10.5 13.71875 L 10.5 58.132812 C 10.5 60.871094 12.375 65.789062 24.933594 67.921875 C 26.898438 68.25 28.992188 68.5 31.148438 68.65625 C 32.019531 68.71875 32.902344 68.765625 33.804688 68.800781 C 34.699219 68.832031 35.613281 68.847656 36.535156 68.847656 C 37.453125 68.847656 38.363281 68.832031 39.265625 68.800781 C 40.164062 68.765625 41.046875 68.71875 41.917969 68.65625 C 44.074219 68.5 46.167969 68.25 48.132812 67.921875 C 60.605469 65.804688 62.46875 60.878906 62.46875 58.132812 L 62.46875 13.71875 C 62.46875 7.40625 51.800781 3 36.535156 3 "/>
</g>
</svg>
