<?xml version="1.0" encoding="UTF-8"?>
<svg xmlns="http://www.w3.org/2000/svg" xmlns:xlink="http://www.w3.org/1999/xlink" width="72px" height="px" viewBox="0 0 72 72" version="1.1">
<g id="surface1">
<path style=" stroke:none;fill-rule:evenodd;fill:rgb(30.196078%,15.294118%,66.666667%);fill-opacity:1;" d="M 36.417969 3 L 8.667969 19.019531 L 10.167969 21.621094 L 34.917969 7.328125 L 34.917969 34.40625 L 10.992188 34.40625 L 17.226562 28.171875 L 15.109375 26.050781 L 4.5 36.65625 L 15.109375 47.261719 L 17.226562 45.140625 L 9.492188 37.40625 L 34.917969 37.40625 L 34.917969 64.488281 L 10.167969 50.199219 L 8.667969 52.796875 L 36.417969 68.820312 L 64.167969 52.796875 L 62.667969 50.199219 L 37.917969 64.488281 L 37.917969 37.40625 L 63 37.40625 L 56.101562 44.304688 L 58.222656 46.421875 L 68.828125 35.820312 L 58.222656 25.210938 L 56.101562 27.332031 L 63.175781 34.40625 L 37.917969 34.40625 L 37.917969 7.328125 L 62.667969 21.621094 L 64.167969 19.019531 Z M 36.417969 3 "/>
</g>
</svg>
