<?xml version="1.0" encoding="UTF-8"?>
<svg xmlns="http://www.w3.org/2000/svg" xmlns:xlink="http://www.w3.org/1999/xlink" width="72px" height="px" viewBox="0 0 72 72" version="1.1">
<g id="surface1">
<path style=" stroke:none;fill-rule:evenodd;fill:rgb(13.72549%,18.431373%,23.921569%);fill-opacity:1;" d="M 36.019531 66.042969 C 19.46875 66.042969 6 52.574219 6 36.019531 C 6 19.46875 19.46875 6 36.019531 6 C 52.574219 6 66.042969 19.46875 66.042969 36.019531 C 66.042969 52.574219 52.574219 66.042969 36.019531 66.042969 M 36.019531 3 C 17.8125 3 3 17.8125 3 36.019531 C 3 54.226562 17.8125 69.042969 36.019531 69.042969 C 54.230469 69.042969 69.042969 54.226562 69.042969 36.019531 C 69.042969 17.8125 54.230469 3 36.019531 3 M 36.019531 47.625 C 29.621094 47.625 24.417969 42.417969 24.417969 36.019531 C 24.417969 29.621094 29.621094 24.417969 36.019531 24.417969 C 42.421875 24.417969 47.625 29.621094 47.625 36.019531 C 47.625 42.417969 42.421875 47.625 36.019531 47.625 M 36.019531 21.417969 C 27.96875 21.417969 21.417969 27.96875 21.417969 36.019531 C 21.417969 44.074219 27.96875 50.625 36.019531 50.625 C 44.074219 50.625 50.625 44.074219 50.625 36.019531 C 50.625 27.96875 44.074219 21.417969 36.019531 21.417969 M 36.019531 41.253906 C 33.136719 41.253906 30.789062 38.90625 30.789062 36.019531 C 30.789062 33.136719 33.136719 30.785156 36.019531 30.785156 C 38.90625 30.785156 41.253906 33.136719 41.253906 36.019531 C 41.253906 38.90625 38.90625 41.253906 36.019531 41.253906 M 36.019531 27.785156 C 31.480469 27.785156 27.789062 31.480469 27.789062 36.019531 C 27.789062 40.558594 31.480469 44.253906 36.019531 44.253906 C 40.558594 44.253906 44.253906 40.558594 44.253906 36.019531 C 44.253906 31.480469 40.558594 27.785156 36.019531 27.785156 "/>
</g>
</svg>
