<?xml version="1.0" encoding="UTF-8"?>
<svg xmlns="http://www.w3.org/2000/svg" xmlns:xlink="http://www.w3.org/1999/xlink" width="72px" height="px" viewBox="0 0 72 72" version="1.1">
<g id="surface1">
<path style=" stroke:none;fill-rule:evenodd;fill:rgb(13.72549%,18.431373%,23.921569%);fill-opacity:1;" d="M 22.21875 57.105469 C 21.882812 57.457031 21.425781 57.65625 20.941406 57.664062 C 20.441406 57.644531 19.988281 57.492188 19.636719 57.15625 C 18.910156 56.457031 18.890625 55.300781 19.585938 54.574219 C 19.925781 54.222656 20.378906 54.023438 20.867188 54.011719 L 20.90625 54.011719 C 21.378906 54.011719 21.824219 54.195312 22.167969 54.523438 C 22.519531 54.863281 22.71875 55.316406 22.730469 55.804688 C 22.738281 56.292969 22.558594 56.753906 22.21875 57.105469 Z M 17.425781 52.496094 C 15.578125 54.414062 15.640625 57.472656 17.558594 59.320312 C 18.464844 60.191406 19.644531 60.664062 20.902344 60.664062 L 21 60.664062 C 22.289062 60.640625 23.488281 60.113281 24.382812 59.183594 C 25.277344 58.257812 25.753906 57.035156 25.730469 55.746094 C 25.703125 54.457031 25.179688 53.257812 24.25 52.363281 C 22.332031 50.515625 19.269531 50.578125 17.425781 52.496094 Z M 29.636719 61.242188 L 26.703125 60.652344 C 26.296875 60.574219 25.863281 60.664062 25.523438 60.914062 L 24.019531 62.015625 C 23.683594 62.261719 23.464844 62.636719 23.417969 63.050781 L 23.070312 66.007812 L 18.730469 66 L 18.386719 63.070312 C 18.339844 62.65625 18.125 62.28125 17.789062 62.035156 L 16.269531 60.910156 C 15.929688 60.660156 15.5 60.566406 15.082031 60.648438 L 12.175781 61.226562 L 10.839844 57.097656 L 13.5625 55.847656 C 13.945312 55.675781 14.234375 55.347656 14.363281 54.949219 L 14.933594 53.199219 C 15.0625 52.800781 15.023438 52.367188 14.816406 52.003906 L 13.351562 49.390625 L 16.867188 46.84375 L 18.878906 49.027344 C 19.160156 49.335938 19.515625 49.476562 19.988281 49.511719 L 21.878906 49.5 C 22.296875 49.496094 22.691406 49.324219 22.976562 49.015625 L 24.972656 46.847656 L 28.480469 49.402344 L 27.019531 52 C 26.816406 52.363281 26.773438 52.792969 26.898438 53.191406 L 27.464844 54.960938 C 27.59375 55.363281 27.882812 55.691406 28.265625 55.867188 L 30.980469 57.117188 Z M 33.445312 54.945312 L 30.121094 53.417969 L 29.957031 52.902344 L 31.75 49.710938 C 32.125 49.046875 31.9375 48.210938 31.324219 47.761719 L 25.660156 43.636719 C 25.042969 43.1875 24.1875 43.273438 23.671875 43.832031 L 21.210938 46.503906 L 20.632812 46.507812 L 18.167969 43.828125 C 17.652344 43.265625 16.796875 43.183594 16.183594 43.628906 L 10.507812 47.746094 C 9.890625 48.195312 9.707031 49.03125 10.082031 49.699219 L 11.878906 52.894531 L 11.714844 53.394531 L 8.375 54.929688 C 7.683594 55.246094 7.339844 56.03125 7.574219 56.753906 L 9.734375 63.425781 C 9.96875 64.148438 10.703125 64.582031 11.453125 64.433594 L 15.019531 63.71875 L 15.484375 64.0625 L 15.90625 67.675781 C 15.992188 68.429688 16.632812 69 17.394531 69 L 24.402344 69.007812 L 24.40625 69.007812 C 25.164062 69.007812 25.804688 68.4375 25.894531 67.679688 L 26.320312 64.050781 L 26.761719 63.726562 L 30.355469 64.449219 C 31.09375 64.601562 31.839844 64.164062 32.078125 63.441406 L 34.25 56.773438 C 34.484375 56.050781 34.140625 55.261719 33.445312 54.945312 Z M 55.214844 64.5 L 58.214844 64.5 L 58.214844 66.035156 C 58.214844 67.667969 56.882812 69 55.25 69 L 32.714844 69 L 32.714844 66 L 55.25 66 Z M 19.214844 42 L 16.214844 42 L 16.214844 11.960938 C 16.214844 10.328125 17.542969 9 19.175781 9 L 20.714844 9 L 20.714844 12 L 19.175781 12 Z M 29.714844 24 L 41.714844 24 L 41.714844 21 L 29.714844 21 Z M 29.714844 39 L 47.714844 39 L 47.714844 36 L 29.714844 36 Z M 29.714844 31.5 L 55.214844 31.5 L 55.214844 28.5 L 29.714844 28.5 Z M 50.714844 16.5 L 50.714844 7.644531 L 59.460938 16.5 Z M 63.78125 16.597656 L 50.777344 3.445312 C 50.5 3.160156 50.113281 3 49.710938 3 L 25.175781 3 C 23.542969 3 22.214844 4.328125 22.214844 5.960938 L 22.214844 40.5 L 25.214844 40.5 L 25.175781 6 L 47.714844 6 L 47.714844 18 C 47.714844 18.828125 48.382812 19.5 49.214844 19.5 L 61.214844 19.5 L 61.214844 18.269531 L 61.25 60 L 35.714844 60 L 35.714844 63 L 61.25 63 C 62.882812 63 64.214844 61.667969 64.214844 60.035156 L 64.214844 17.652344 C 64.214844 17.261719 64.058594 16.882812 63.78125 16.597656 Z M 63.78125 16.597656 "/>
</g>
</svg>
