<?xml version="1.0" encoding="UTF-8"?>
<svg width="48px" height="48px" viewBox="0 0 48 48" version="1.1" xmlns="http://www.w3.org/2000/svg" xmlns:xlink="http://www.w3.org/1999/xlink">
    <title>Icon-Resource/General-Resource/Res_Documents_48_Light</title>
    <g id="Icon-Resource/General-Resource/Res_Documents_48" stroke="none" stroke-width="1" fill="none" fill-rule="evenodd">
        <path d="M14.8136487,38.07 C14.5876487,38.304 14.2846487,38.437 13.9596487,38.444 C13.6266487,38.429 13.3256487,38.329 13.0916487,38.104 C12.6076487,37.639 12.5926487,36.867 13.0576487,36.383 C13.2836487,36.149 13.5856487,36.016 13.9116487,36.009 L13.9366487,36.009 C14.2516487,36.009 14.5506487,36.13 14.7796487,36.349 C15.0136487,36.575 15.1466487,36.878 15.1536487,37.203 C15.1596487,37.528 15.0396487,37.836 14.8136487,38.07 L14.8136487,38.07 Z M11.6166487,34.997 C10.3866487,36.276 10.4266487,38.316 11.7056487,39.546 C12.3086487,40.127 13.0976487,40.444 13.9336487,40.444 L13.9996487,40.444 C14.8586487,40.426 15.6596487,40.076 16.2546487,39.457 C16.8506487,38.838 17.1686487,38.023 17.1526487,37.164 C17.1356487,36.304 16.7856487,35.504 16.1666487,34.908 C14.8886487,33.678 12.8456487,33.718 11.6166487,34.997 L11.6166487,34.997 Z M19.7576487,40.829 L17.8026487,40.436 C17.5316487,40.383 17.2426487,40.444 17.0156487,40.61 L16.0136487,41.343 C15.7896487,41.508 15.6436487,41.758 15.6116487,42.034 L15.3796487,44.004 L12.4876487,44.001 L12.2586487,42.046 C12.2266487,41.771 12.0836487,41.522 11.8606487,41.358 L10.8466487,40.608 C10.6196487,40.439 10.3336487,40.377 10.0556487,40.431 L8.11764874,40.819 L7.22564874,38.066 L9.04264874,37.233 C9.29564874,37.117 9.48964874,36.899 9.57564874,36.634 L9.95664874,35.467 C10.0426487,35.201 10.0146487,34.911 9.87764874,34.668 L8.90064874,32.927 L11.2436487,31.228 L12.5846487,32.684 C12.7746487,32.891 13.0116487,32.984 13.3256487,33.008 L14.5866487,33 C14.8646487,32.998 15.1286487,32.882 15.3166487,32.677 L16.6486487,31.233 L18.9876487,32.935 L18.0136487,34.667 C17.8776487,34.909 17.8486487,35.196 17.9326487,35.461 L18.3086487,36.64 C18.3946487,36.908 18.5886487,37.128 18.8446487,37.246 L20.6546487,38.077 L19.7576487,40.829 Z M22.2976487,36.631 L20.0806487,35.612 L19.9706487,35.267 L21.1676487,33.14 C21.4156487,32.698 21.2926487,32.14 20.8836487,31.841 L17.1056487,29.091 C16.6956487,28.792 16.1256487,28.848 15.7816487,29.222 L14.1406487,31.003 L13.7556487,31.005 L12.1116487,29.219 C11.7676487,28.844 11.1966487,28.79 10.7896487,29.087 L7.00564874,31.832 C6.59464874,32.13 6.47264874,32.688 6.72064874,33.132 L7.91864874,35.264 L7.81064874,35.597 L5.58364874,36.619 C5.12264874,36.831 4.89264874,37.353 5.04864874,37.837 L6.48964874,42.283 C6.64564874,42.766 7.13564874,43.055 7.63664874,42.955 L10.0136487,42.479 L10.3226487,42.708 L10.6036487,45.116 C10.6626487,45.619 11.0886487,45.999 11.5956487,46 L16.2686487,46.005 L16.2696487,46.005 C16.7766487,46.005 17.2036487,45.625 17.2626487,45.121 L17.5466487,42.7 L17.8416487,42.484 L20.2376487,42.965 C20.7286487,43.068 21.2276487,42.776 21.3846487,42.294 L22.8326487,37.849 C22.9896487,37.367 22.7596487,36.842 22.2976487,36.631 L22.2976487,36.631 Z M36.8086487,43 L38.8086487,43 L38.8086487,44.024 C38.8086487,45.113 37.9216487,46 36.8336487,46 L21.8086487,46 L21.8086487,44 L36.8336487,44 L36.8086487,43 Z M12.8086487,28 L10.8086487,28 L10.8086487,7.975 C10.8086487,6.886 11.6956487,6 12.7846487,6 L13.8086487,6 L13.8086487,8 L12.7846487,8 L12.8086487,28 Z M19.8086487,16 L27.8086487,16 L27.8086487,14 L19.8086487,14 L19.8086487,16 Z M19.8086487,26 L31.8086487,26 L31.8086487,24 L19.8086487,24 L19.8086487,26 Z M19.8086487,21 L36.8086487,21 L36.8086487,19 L19.8086487,19 L19.8086487,21 Z M33.8086487,11 L33.8086487,5.097 L39.6416487,11 L33.8086487,11 Z M42.5196487,11.066 L33.8526487,2.297 C33.6656487,2.107 33.4096487,2 33.1416487,2 L16.7846487,2 C15.6956487,2 14.8086487,2.886 14.8086487,3.975 L14.8086487,27 L16.8086487,27 L16.7846487,4 L31.8086487,4 L31.8086487,12 C31.8086487,12.552 32.2556487,13 32.8086487,13 L40.8086487,13 L40.8086487,12.18 L40.8336487,40 L23.8086487,40 L23.8086487,42 L40.8336487,42 C41.9216487,42 42.8086487,41.113 42.8086487,40.024 L42.8086487,11.769 C42.8086487,11.507 42.7056487,11.254 42.5196487,11.066 L42.5196487,11.066 Z" id="Fill-9" fill="#232F3D"></path>
    </g>
</svg>