<?xml version="1.0" encoding="UTF-8"?>
<svg xmlns="http://www.w3.org/2000/svg" xmlns:xlink="http://www.w3.org/1999/xlink" width="72px" height="px" viewBox="0 0 72 72" version="1.1">
<g id="surface1">
<path style=" stroke:none;fill-rule:evenodd;fill:rgb(24.705882%,52.54902%,14.117647%);fill-opacity:1;" d="M 20.128906 6 L 50.820312 6 L 57.445312 14.808594 L 13.503906 14.808594 Z M 10.5 17.808594 L 60.449219 17.808594 C 61.019531 17.808594 61.535156 17.488281 61.789062 16.976562 C 62.046875 16.46875 61.988281 15.863281 61.648438 15.40625 L 52.769531 3.597656 C 52.484375 3.21875 52.039062 3 51.570312 3 L 19.378906 3 C 18.910156 3 18.464844 3.21875 18.179688 3.597656 L 9.300781 15.40625 C 8.960938 15.863281 8.90625 16.46875 9.160156 16.976562 C 9.410156 17.488281 9.933594 17.808594 10.5 17.808594 Z M 12.089844 65.976562 L 58.949219 65.976562 L 58.949219 23.054688 L 12.089844 23.054688 Z M 60.449219 20.054688 L 10.589844 20.054688 C 9.761719 20.054688 9.089844 20.726562 9.089844 21.554688 L 9.089844 67.476562 C 9.089844 68.308594 9.761719 68.976562 10.589844 68.976562 L 60.449219 68.976562 C 61.277344 68.976562 61.949219 68.308594 61.949219 67.476562 L 61.949219 21.554688 C 61.949219 20.726562 61.277344 20.054688 60.449219 20.054688 Z M 60.449219 20.054688 "/>
</g>
</svg>
