<?xml version="1.0" encoding="UTF-8"?>
<svg xmlns="http://www.w3.org/2000/svg" xmlns:xlink="http://www.w3.org/1999/xlink" width="72px" height="px" viewBox="0 0 72 72" version="1.1">
<g id="surface1">
<path style=" stroke:none;fill-rule:evenodd;fill:rgb(83.137255%,35.686275%,2.745098%);fill-opacity:1;" d="M 68.878906 34.621094 L 56.867188 34.621094 L 62.601562 28.886719 L 60.480469 26.765625 L 52.097656 35.152344 C 51.511719 35.738281 51.511719 36.6875 52.097656 37.273438 L 60.480469 45.65625 L 62.601562 43.535156 L 56.6875 37.621094 L 68.878906 37.621094 Z M 11.394531 26.765625 L 9.273438 28.886719 L 15.007812 34.621094 L 3 34.621094 L 3 37.621094 L 15.1875 37.621094 L 9.273438 43.535156 L 11.394531 45.65625 L 19.78125 37.273438 C 20.367188 36.6875 20.367188 35.738281 19.78125 35.152344 Z M 28.214844 43.847656 L 43.660156 43.847656 L 43.660156 28.398438 L 28.214844 28.398438 Z M 46.339844 26.714844 L 49.113281 26.714844 L 49.113281 29.714844 L 46.660156 29.714844 L 46.660156 31.988281 L 49.113281 31.988281 L 49.113281 34.988281 L 46.660156 34.988281 L 46.660156 37.257812 L 49.113281 37.257812 L 49.113281 40.257812 L 46.660156 40.257812 L 46.660156 42.527344 L 49.113281 42.527344 L 49.113281 45.527344 L 46.339844 45.527344 C 46.105469 45.945312 45.761719 46.289062 45.34375 46.519531 L 45.34375 49.296875 L 42.34375 49.296875 L 42.34375 46.84375 L 40.074219 46.84375 L 40.074219 49.296875 L 37.074219 49.296875 L 37.074219 46.84375 L 34.804688 46.84375 L 34.804688 49.296875 L 31.804688 49.296875 L 31.804688 46.84375 L 29.535156 46.84375 L 29.535156 49.296875 L 26.535156 49.296875 L 26.535156 46.519531 C 26.117188 46.289062 25.773438 45.945312 25.542969 45.527344 L 22.765625 45.527344 L 22.765625 42.527344 L 25.214844 42.527344 L 25.214844 40.257812 L 22.765625 40.257812 L 22.765625 37.257812 L 25.214844 37.257812 L 25.214844 34.988281 L 22.765625 34.988281 L 22.765625 31.988281 L 25.214844 31.988281 L 25.214844 29.714844 L 22.765625 29.714844 L 22.765625 26.714844 L 25.542969 26.714844 C 25.773438 26.296875 26.117188 25.953125 26.535156 25.722656 L 26.535156 22.949219 L 29.535156 22.949219 L 29.535156 25.398438 L 31.804688 25.398438 L 31.804688 22.949219 L 34.804688 22.949219 L 34.804688 25.398438 L 37.074219 25.398438 L 37.074219 22.949219 L 40.074219 22.949219 L 40.074219 25.398438 L 42.34375 25.398438 L 42.34375 22.949219 L 45.34375 22.949219 L 45.34375 25.722656 C 45.761719 25.953125 46.105469 26.296875 46.339844 26.714844 Z M 37.441406 64.121094 L 37.441406 51.933594 L 34.441406 51.933594 L 34.441406 64.125 L 28.613281 58.300781 L 26.492188 60.421875 L 34.875 68.804688 C 35.167969 69.097656 35.554688 69.246094 35.9375 69.246094 C 36.320312 69.246094 36.703125 69.097656 36.996094 68.804688 L 45.382812 60.421875 L 43.261719 58.300781 Z M 28.613281 13.945312 L 26.492188 11.824219 L 34.875 3.441406 C 35.464844 2.851562 36.410156 2.851562 36.996094 3.441406 L 45.382812 11.824219 L 43.261719 13.945312 L 37.441406 8.125 L 37.441406 20.3125 L 34.441406 20.3125 L 34.441406 8.117188 Z M 28.613281 13.945312 "/>
</g>
</svg>
