<?xml version="1.0" encoding="UTF-8"?>
<svg xmlns="http://www.w3.org/2000/svg" xmlns:xlink="http://www.w3.org/1999/xlink" width="72px" height="px" viewBox="0 0 72 72" version="1.1">
<g id="surface1">
<path style=" stroke:none;fill-rule:evenodd;fill:rgb(83.137255%,35.686275%,2.745098%);fill-opacity:1;" d="M 45.214844 56.589844 L 57.898438 56.589844 L 57.898438 39.984375 L 45.214844 39.984375 Z M 13.84375 56.589844 L 26.527344 56.589844 L 26.527344 39.984375 L 13.84375 39.984375 Z M 29.527344 56.589844 L 42.214844 56.589844 L 42.214844 39.984375 L 29.527344 39.984375 Z M 59.398438 36.984375 L 12.34375 36.984375 C 11.515625 36.984375 10.84375 37.65625 10.84375 38.484375 L 10.84375 58.089844 C 10.84375 58.917969 11.515625 59.589844 12.34375 59.589844 L 59.398438 59.589844 C 60.226562 59.589844 60.898438 58.917969 60.898438 58.089844 L 60.898438 38.484375 C 60.898438 37.65625 60.226562 36.984375 59.398438 36.984375 Z M 45.214844 29.140625 L 57.898438 29.140625 L 57.898438 16.457031 L 45.214844 16.457031 Z M 13.84375 29.140625 L 26.527344 29.140625 L 26.527344 16.457031 L 13.84375 16.457031 Z M 29.527344 29.140625 L 42.214844 29.140625 L 42.214844 16.457031 L 29.527344 16.457031 Z M 59.398438 13.457031 L 12.34375 13.457031 C 11.515625 13.457031 10.84375 14.128906 10.84375 14.957031 L 10.84375 30.640625 C 10.84375 31.46875 11.515625 32.140625 12.34375 32.140625 L 59.398438 32.140625 C 60.226562 32.140625 60.898438 31.46875 60.898438 30.640625 L 60.898438 14.957031 C 60.898438 14.128906 60.226562 13.457031 59.398438 13.457031 Z M 65.742188 59.070312 C 65.742188 62.746094 62.746094 65.742188 59.070312 65.742188 L 12.671875 65.742188 C 8.992188 65.742188 6 62.746094 6 59.070312 L 6 12.671875 C 6 8.992188 8.992188 6 12.671875 6 L 59.070312 6 C 62.746094 6 65.742188 8.992188 65.742188 12.671875 Z M 59.070312 3 L 12.671875 3 C 7.339844 3 3 7.339844 3 12.671875 L 3 59.070312 C 3 64.402344 7.339844 68.742188 12.671875 68.742188 L 59.070312 68.742188 C 64.402344 68.742188 68.742188 64.402344 68.742188 59.070312 L 68.742188 12.671875 C 68.742188 7.339844 64.402344 3 59.070312 3 Z M 59.070312 3 "/>
</g>
</svg>
