<?xml version="1.0" encoding="UTF-8"?>
<svg xmlns="http://www.w3.org/2000/svg" xmlns:xlink="http://www.w3.org/1999/xlink" width="72px" height="px" viewBox="0 0 72 72" version="1.1">
<g id="surface1">
<path style=" stroke:none;fill-rule:evenodd;fill:rgb(83.137255%,35.686275%,2.745098%);fill-opacity:1;" d="M 58.085938 50.601562 L 61.085938 50.601562 L 61.085938 21.746094 L 58.085938 21.746094 Z M 50.21875 50.601562 L 53.21875 50.601562 L 53.21875 21.746094 L 50.21875 21.746094 Z M 42.347656 50.601562 L 45.347656 50.601562 L 45.347656 21.746094 L 42.347656 21.746094 Z M 34.480469 50.601562 L 37.480469 50.601562 L 37.480469 21.746094 L 34.480469 21.746094 Z M 26.609375 50.601562 L 29.609375 50.601562 L 29.609375 21.746094 L 26.609375 21.746094 Z M 18.738281 50.601562 L 21.738281 50.601562 L 21.738281 21.746094 L 18.738281 21.746094 Z M 10.867188 50.601562 L 13.867188 50.601562 L 13.867188 21.746094 L 10.867188 21.746094 Z M 6 54.347656 L 65.957031 54.347656 L 65.957031 18 L 6 18 Z M 67.457031 15 L 4.5 15 C 3.671875 15 3 15.671875 3 16.5 L 3 55.847656 C 3 56.675781 3.671875 57.347656 4.5 57.347656 L 67.457031 57.347656 C 68.289062 57.347656 68.957031 56.675781 68.957031 55.847656 L 68.957031 16.5 C 68.957031 15.671875 68.289062 15 67.457031 15 Z M 67.457031 15 "/>
</g>
</svg>
