<?xml version="1.0" encoding="UTF-8"?>
<svg xmlns="http://www.w3.org/2000/svg" xmlns:xlink="http://www.w3.org/1999/xlink" width="72px" height="px" viewBox="0 0 72 72" version="1.1">
<g id="surface1">
<path style=" stroke:none;fill-rule:evenodd;fill:rgb(83.137255%,35.686275%,2.745098%);fill-opacity:1;" d="M 30.375 54.5625 L 54 54.5625 L 54 51.5625 L 30.375 51.5625 Z M 30.375 36.1875 L 54 36.1875 L 54 33.1875 L 30.375 33.1875 Z M 30.375 17.8125 L 54 17.8125 L 54 14.8125 L 30.375 14.8125 Z M 20.0625 55.5 L 24.9375 55.5 L 24.9375 50.625 L 20.0625 50.625 Z M 18.5625 58.5 L 26.4375 58.5 C 27.265625 58.5 27.9375 57.828125 27.9375 57 L 27.9375 49.125 C 27.9375 48.296875 27.265625 47.625 26.4375 47.625 L 18.5625 47.625 C 17.734375 47.625 17.0625 48.296875 17.0625 49.125 L 17.0625 57 C 17.0625 57.828125 17.734375 58.5 18.5625 58.5 Z M 20.0625 37.125 L 24.9375 37.125 L 24.9375 32.25 L 20.0625 32.25 Z M 18.5625 40.125 L 26.4375 40.125 C 27.265625 40.125 27.9375 39.453125 27.9375 38.625 L 27.9375 30.75 C 27.9375 29.921875 27.265625 29.25 26.4375 29.25 L 18.5625 29.25 C 17.734375 29.25 17.0625 29.921875 17.0625 30.75 L 17.0625 38.625 C 17.0625 39.453125 17.734375 40.125 18.5625 40.125 Z M 20.0625 18.75 L 24.9375 18.75 L 24.9375 13.875 L 20.0625 13.875 Z M 18.5625 21.75 L 26.4375 21.75 C 27.265625 21.75 27.9375 21.078125 27.9375 20.25 L 27.9375 12.375 C 27.9375 11.546875 27.265625 10.875 26.4375 10.875 L 18.5625 10.875 C 17.734375 10.875 17.0625 11.546875 17.0625 12.375 L 17.0625 20.25 C 17.0625 21.078125 17.734375 21.75 18.5625 21.75 Z M 13.5 66 L 57.75 66 L 57.75 6 L 13.5 6 Z M 59.25 3 L 12 3 C 11.171875 3 10.5 3.671875 10.5 4.5 L 10.5 67.5 C 10.5 68.328125 11.171875 69 12 69 L 59.25 69 C 60.078125 69 60.75 68.328125 60.75 67.5 L 60.75 4.5 C 60.75 3.671875 60.078125 3 59.25 3 Z M 59.25 3 "/>
</g>
</svg>
