<?xml version="1.0" encoding="UTF-8"?>
<svg xmlns="http://www.w3.org/2000/svg" xmlns:xlink="http://www.w3.org/1999/xlink" width="72px" height="px" viewBox="0 0 72 72" version="1.1">
<g id="surface1">
<path style=" stroke:none;fill-rule:evenodd;fill:rgb(100%,100%,100%);fill-opacity:1;" d="M 47.222656 35.300781 L 66 19.835938 L 66 50.945312 Z M 27.132812 37.242188 L 36 44.542969 L 44.867188 37.242188 L 63.539062 52.800781 L 8.464844 52.800781 Z M 24.777344 35.300781 L 6 50.949219 L 6 19.835938 Z M 36 40.65625 L 8.488281 18 L 63.511719 18 Z M 3 15.96875 L 3 54.828125 C 3 55.367188 3.433594 55.800781 3.96875 55.800781 L 68.03125 55.800781 C 68.566406 55.800781 69 55.367188 69 54.828125 L 69 15.96875 C 69 15.433594 68.566406 15 68.03125 15 L 3.96875 15 C 3.433594 15 3 15.433594 3 15.96875 Z M 3 15.96875 "/>
</g>
</svg>
