<?xml version="1.0" encoding="UTF-8"?>
<svg xmlns="http://www.w3.org/2000/svg" xmlns:xlink="http://www.w3.org/1999/xlink" width="72px" height="px" viewBox="0 0 72 72" version="1.1">
<g id="surface1">
<path style=" stroke:none;fill-rule:evenodd;fill:rgb(30.196078%,15.294118%,66.666667%);fill-opacity:1;" d="M 33.5625 38.441406 L 39.753906 38.441406 L 39.753906 32.25 L 33.5625 32.25 Z M 42.753906 38.441406 L 48.941406 38.441406 L 48.941406 32.25 L 42.753906 32.25 Z M 32.0625 41.441406 L 50.441406 41.441406 C 51.269531 41.441406 51.941406 40.769531 51.941406 39.941406 L 51.941406 30.75 C 51.941406 29.921875 51.269531 29.25 50.441406 29.25 L 32.0625 29.25 C 31.234375 29.25 30.5625 29.921875 30.5625 30.75 L 30.5625 39.941406 C 30.5625 40.769531 31.234375 41.441406 32.0625 41.441406 Z M 56.816406 43.691406 L 53.066406 43.691406 C 52.234375 43.691406 51.566406 44.359375 51.566406 45.191406 L 51.566406 47.628906 L 48.003906 47.628906 L 48.003906 45.191406 C 48.003906 44.359375 47.332031 43.691406 46.503906 43.691406 L 41.253906 43.691406 C 40.421875 43.691406 39.753906 44.359375 39.753906 45.191406 L 39.753906 47.628906 L 29.625 47.628906 L 29.625 45.191406 C 29.625 44.359375 28.953125 43.691406 28.125 43.691406 L 27 43.691406 L 27 27 L 56.816406 27 Z M 58.316406 24 L 25.5 24 C 24.671875 24 24 24.671875 24 25.5 L 24 45.191406 C 24 46.019531 24.671875 46.691406 25.5 46.691406 L 26.625 46.691406 L 26.625 49.128906 C 26.625 49.957031 27.296875 50.628906 28.125 50.628906 L 41.253906 50.628906 C 42.082031 50.628906 42.753906 49.957031 42.753906 49.128906 L 42.753906 46.691406 L 45.003906 46.691406 L 45.003906 49.128906 C 45.003906 49.957031 45.671875 50.628906 46.503906 50.628906 L 53.066406 50.628906 C 53.894531 50.628906 54.566406 49.957031 54.566406 49.128906 L 54.566406 46.691406 L 58.316406 46.691406 C 59.144531 46.691406 59.816406 46.019531 59.816406 45.191406 L 59.816406 25.5 C 59.816406 24.671875 59.144531 24 58.316406 24 Z M 21.75 22.875 L 21.75 51.753906 C 21.75 52.582031 21.078125 53.253906 20.25 53.253906 L 15.523438 53.253906 L 15.523438 50.253906 L 18.75 50.253906 L 18.75 24.375 L 15.523438 24.375 L 15.523438 21.375 L 20.25 21.375 C 21.078125 21.375 21.75 22.046875 21.75 22.875 Z M 36.003906 66.003906 C 19.457031 66.003906 6 52.546875 6 36 C 6 19.460938 19.457031 6 36.003906 6 C 52.546875 6 66.003906 19.460938 66.003906 36 C 66.003906 52.546875 52.546875 66.003906 36.003906 66.003906 Z M 36.003906 3 C 17.804688 3 3 17.804688 3 36 C 3 54.199219 17.804688 69.003906 36.003906 69.003906 C 54.199219 69.003906 69.003906 54.199219 69.003906 36 C 69.003906 17.804688 54.199219 3 36.003906 3 Z M 36.003906 3 "/>
</g>
</svg>
