<?xml version="1.0" encoding="UTF-8"?>
<svg xmlns="http://www.w3.org/2000/svg" xmlns:xlink="http://www.w3.org/1999/xlink" width="72px" height="px" viewBox="0 0 72 72" version="1.1">
<g id="surface1">
<path style=" stroke:none;fill-rule:evenodd;fill:rgb(100%,100%,100%);fill-opacity:1;" d="M 52.367188 54.019531 L 65.980469 54.019531 L 65.980469 48.421875 L 52.367188 48.421875 Z M 50.457031 57.019531 L 40.265625 57.019531 L 40.265625 61.632812 L 53.71875 61.632812 L 53.71875 57.019531 Z M 34.660156 54.019531 L 49.367188 54.019531 L 49.367188 48.425781 L 34.660156 48.425781 Z M 50.867188 45.421875 L 59.824219 45.421875 L 59.824219 39.492188 L 46.371094 39.492188 L 46.371094 45.421875 Z M 68.980469 46.921875 L 68.980469 55.519531 C 68.980469 56.347656 68.308594 57.019531 67.480469 57.019531 L 56.71875 57.019531 L 56.71875 63.132812 C 56.71875 63.960938 56.046875 64.632812 55.21875 64.632812 L 38.765625 64.632812 C 37.9375 64.632812 37.265625 63.960938 37.265625 63.132812 L 37.265625 57.019531 L 33.160156 57.019531 C 32.332031 57.019531 31.660156 56.347656 31.660156 55.519531 L 31.660156 46.921875 C 31.660156 46.09375 32.332031 45.421875 33.160156 45.421875 L 43.371094 45.421875 L 43.371094 37.992188 C 43.371094 37.164062 44.042969 36.492188 44.871094 36.492188 L 61.324219 36.492188 C 62.152344 36.492188 62.824219 37.164062 62.824219 37.992188 L 62.824219 45.421875 L 67.480469 45.421875 C 68.308594 45.421875 68.980469 46.09375 68.980469 46.921875 Z M 35.378906 37.054688 C 35.28125 37.667969 35.570312 38.277344 36.105469 38.589844 C 36.636719 38.90625 37.3125 38.855469 37.796875 38.46875 C 37.941406 38.355469 40.921875 35.914062 42.238281 29.9375 C 42.832031 30.707031 43.46875 31.769531 43.960938 33.203125 L 46.796875 32.222656 C 45.144531 27.4375 42.046875 25.710938 41.917969 25.636719 C 41.472656 25.398438 40.945312 25.394531 40.5 25.628906 C 40.058594 25.859375 39.761719 26.300781 39.710938 26.796875 C 39.523438 28.582031 39.167969 30.074219 38.746094 31.308594 C 38.128906 15.664062 24.554688 10.324219 24.402344 10.265625 C 23.703125 10.003906 22.917969 10.292969 22.554688 10.945312 C 22.195312 11.597656 22.371094 12.417969 22.96875 12.867188 C 27.144531 16.015625 29.050781 21.347656 28.207031 27.4375 L 27.851562 29.378906 C 27.335938 31.617188 26.484375 33.8125 25.277344 35.960938 L 24.234375 38.027344 C 19.144531 49.347656 23.449219 60.695312 23.636719 61.171875 C 23.863281 61.753906 24.417969 62.128906 25.035156 62.128906 C 25.074219 62.128906 25.109375 62.128906 25.152344 62.125 C 25.226562 62.121094 27.042969 61.972656 29.605469 61.371094 L 28.914062 58.449219 C 27.765625 58.722656 26.78125 58.890625 26.074219 58.992188 C 25.195312 56.027344 23.257812 47.511719 26.941406 39.320312 L 27.921875 37.375 C 29.238281 35.03125 30.199219 32.566406 30.789062 29.984375 L 31.167969 27.914062 C 31.667969 24.296875 31.34375 20.90625 30.261719 17.9375 C 33.730469 21.617188 36.902344 27.667969 35.378906 37.054688 Z M 18.613281 11.265625 C 17.890625 10.890625 16.796875 10.554688 15.746094 10.5 C 18.148438 13.578125 21.574219 20.078125 18.136719 29.527344 C 17.933594 30.082031 17.429688 30.464844 16.84375 30.511719 C 16.269531 30.574219 15.703125 30.257812 15.414062 29.746094 C 14.484375 28.078125 11.871094 24.300781 8.984375 22.820312 C 9.988281 26.472656 11.117188 33.105469 7.972656 37.882812 C 7.816406 38.117188 7.667969 38.355469 7.53125 38.59375 C 4.78125 43.277344 5.722656 49.019531 9.933594 53.214844 C 9.945312 53.226562 10.984375 54.234375 13.675781 55.789062 C 16.992188 57.703125 18.292969 58.265625 18.304688 58.269531 L 17.140625 61.035156 C 17.082031 61.011719 15.703125 60.421875 12.175781 58.386719 C 9.128906 56.628906 7.933594 55.460938 7.808594 55.335938 C 2.6875 50.226562 1.53125 42.886719 4.945312 37.074219 C 5.109375 36.792969 5.285156 36.511719 5.46875 36.230469 C 9.074219 30.757812 5.367188 21.363281 5.328125 21.269531 C 5.144531 20.808594 5.199219 20.28125 5.480469 19.871094 C 5.757812 19.457031 6.222656 19.210938 6.722656 19.210938 C 10.722656 19.210938 14.179688 22.824219 16.1875 25.496094 C 18.214844 16.019531 12.246094 11.03125 11.96875 10.804688 C 11.59375 10.5 11.382812 10.027344 11.414062 9.546875 C 11.445312 9.0625 11.703125 8.621094 12.117188 8.363281 C 14.4375 6.925781 17.828125 7.476562 19.996094 8.601562 Z M 18.613281 11.265625 "/>
</g>
</svg>
