<?xml version="1.0" encoding="UTF-8"?>
<svg width="80px" height="80px" viewBox="0 0 80 80" version="1.1" xmlns="http://www.w3.org/2000/svg" xmlns:xlink="http://www.w3.org/1999/xlink">
    <title>Icon-Architecture/64/Arch_Amazon-FSx-for-NetApp_Storage_64</title>
    <defs>
        <linearGradient x1="0%" y1="100%" x2="100%" y2="0%" id="linearGradient-1">
            <stop stop-color="#1B660F" offset="0%"></stop>
            <stop stop-color="#6CAE3E" offset="100%"></stop>
        </linearGradient>
    </defs>
    <g id="Icon-Architecture/64/Arch_Amazon-FSx-for-NetApp_Storage_64" stroke="none" stroke-width="1" fill="none" fill-rule="evenodd">
        <g id="Rectangle" fill="url(#linearGradient-1)">
            <rect x="0" y="0" width="80" height="80"></rect>
        </g>
        <g id="Icon-Service/64/Amazon-FSx-for-NetApp_64" transform="translate(8.000000, 8.000000)" fill="#FFFFFF">
            <path d="M46,44.932 L51.17,52.616 C51.415,52.98 51.868,53.142 52.292,53.015 C52.713,52.886 53,52.498 53,52.058 L53,40.07 L51,40.07 L51,48.78 L45.83,41.096 C45.584,40.731 45.13,40.568 44.708,40.698 C44.287,40.826 44,41.214 44,41.654 L44,53.07 L46,53.07 L46,44.932 Z M33.473,32.681 L34.459,34.073 L30.807,39.407 L28.617,39.407 L33.473,32.681 Z M36.577,31.243 L38.306,33.702 C37.972,34.398 37.713,35.128 37.552,35.888 L34.408,31.385 L35.513,29.854 L39.645,23.956 L41.804,23.956 L36.577,31.243 Z M33.446,30.077 L29.103,23.956 L31.382,23.956 L34.597,28.545 L33.446,30.077 Z M26.815,31.597 C27.413,32.332 27.712,33.252 27.712,34.357 C27.712,35.971 27.118,37.276 25.931,38.273 C24.744,39.27 23.18,39.769 21.241,39.769 C19.228,39.769 17.434,39.388 15.856,38.627 L15.856,37.24 C17.76,37.929 19.509,38.273 21.105,38.273 C22.609,38.273 23.81,37.92 24.708,37.213 C25.605,36.506 26.054,35.545 26.054,34.33 C26.054,33.587 25.809,32.953 25.319,32.427 C24.83,31.901 24.041,31.43 22.954,31.013 L19.799,29.789 C18.403,29.245 17.379,28.597 16.727,27.845 C16.074,27.093 15.748,26.164 15.748,25.058 C15.748,23.553 16.287,22.334 17.366,21.4 C18.444,20.467 19.863,20 21.621,20 C22.419,20 23.257,20.095 24.137,20.285 C25.016,20.476 25.845,20.743 26.625,21.087 L26.625,22.474 C24.776,21.822 23.135,21.495 21.703,21.495 C20.307,21.495 19.237,21.799 18.494,22.406 C17.751,23.014 17.379,23.879 17.379,25.003 C17.379,25.638 17.492,26.15 17.719,26.54 C17.946,26.93 18.317,27.283 18.834,27.6 C19.351,27.917 20.089,28.257 21.05,28.62 L23.96,29.735 C25.265,30.242 26.217,30.863 26.815,31.597 L26.815,31.597 Z M4,39.306 L5.604,39.306 L5.604,30.55 L13.191,30.55 L13.191,29.109 L5.604,29.109 L5.604,21.903 L14.578,21.903 L14.578,20.462 L4,20.462 L4,39.306 Z M55.708,46.767 L55.546,44.774 C55.841,44.746 58.478,44.419 58.478,41.579 C58.478,39.226 56.651,38.561 55.563,38.374 C55.05,38.286 54.696,37.823 54.734,37.315 C54.641,36.281 54.184,35.549 53.502,35.35 C52.954,35.189 52.379,35.402 52.007,35.906 C51.787,36.203 51.424,36.358 51.054,36.3 C50.688,36.245 50.382,35.993 50.259,35.644 C49.937,34.729 49.472,33.964 48.879,33.369 C48.158,32.646 46.18,31.093 43.394,32.273 C41.82,32.939 40.54,34.941 40.54,36.735 C40.54,36.942 40.553,37.146 40.576,37.347 C40.635,37.845 40.316,38.309 39.83,38.433 C38.728,38.714 37.414,39.482 37.414,41.544 C37.414,41.686 37.42,41.822 37.433,41.953 C37.58,43.522 39.004,44.754 40.675,44.755 L40.673,46.755 C37.981,46.753 35.684,44.724 35.44,42.138 C35.424,41.945 35.414,41.748 35.414,41.544 C35.414,39.297 36.567,37.558 38.54,36.755 L38.54,36.735 C38.54,34.125 40.291,31.415 42.614,30.431 C45.325,29.282 48.196,29.853 50.295,31.957 C50.794,32.457 51.222,33.037 51.576,33.691 C52.332,33.289 53.213,33.182 54.063,33.43 C55.415,33.826 56.351,34.979 56.649,36.577 C58.615,37.155 60.478,38.706 60.478,41.579 C60.478,45.377 57.357,46.634 55.708,46.767 L55.708,46.767 Z" id="Fill-5"></path>
        </g>
    </g>
</svg>