<?xml version="1.0" encoding="UTF-8"?>
<svg width="80px" height="80px" viewBox="0 0 80 80" version="1.1" xmlns="http://www.w3.org/2000/svg" xmlns:xlink="http://www.w3.org/1999/xlink">
    <title>Icon-Architecture/64/Arch_Amazon-FSx-for-WFS_64</title>
    <defs>
        <linearGradient x1="0%" y1="100%" x2="100%" y2="0%" id="linearGradient-1">
            <stop stop-color="#1B660F" offset="0%"></stop>
            <stop stop-color="#6CAE3E" offset="100%"></stop>
        </linearGradient>
    </defs>
    <g id="Icon-Architecture/64/Arch_Amazon-FSx-for-WFS_64" stroke="none" stroke-width="1" fill="none" fill-rule="evenodd">
        <g id="Rectangle" fill="url(#linearGradient-1)">
            <rect x="0" y="0" width="80" height="80"></rect>
        </g>
        <g id="Icon-Service/64/Amazon-FSx-for-WFS_64" transform="translate(8.000000, 8.000000)" fill="#FFFFFF">
            <path d="M45,44 L58.001,44 L58.001,43 L45,43 L45,44 Z M46,41 L57,41 L57,34 L46,34 L46,41 Z M60,42 L60,44 C60,45.103 59.103,46 58,46 L45,46 C43.897,46 43,45.103 43,44 L43,42 C43,41.448 43.447,41 44,41 L44,33 C44,32.448 44.447,32 45,32 L58,32 C58.553,32 59,32.448 59,33 L59,41 C59.553,41 60,41.448 60,42 L60,42 Z M46.413,22.675 L43.944,22.675 L39.22,29.669 L37.955,31.485 L42,37.494 L42,33.625 L40.436,31.316 L46.413,22.675 Z M31.333,41 L33.837,41 L38.014,34.674 L36.885,33.022 L31.333,41 Z M38.171,28.117 L34.494,22.675 L31.889,22.675 L36.855,29.935 L38.171,28.117 Z M26.827,29.546 L23.5,28.224 C22.4,27.793 21.556,27.391 20.965,27.014 C20.374,26.638 19.949,26.219 19.689,25.756 C19.431,25.294 19.301,24.687 19.301,23.934 C19.301,22.601 19.726,21.575 20.576,20.854 C21.426,20.134 22.649,19.774 24.246,19.774 C25.884,19.774 27.76,20.161 29.875,20.935 L29.875,19.29 C28.983,18.882 28.035,18.564 27.029,18.339 C26.023,18.113 25.064,18 24.152,18 C22.142,18 20.519,18.554 19.285,19.661 C18.052,20.769 17.436,22.214 17.436,23.999 C17.436,25.311 17.809,26.412 18.555,27.304 C19.301,28.197 20.473,28.965 22.069,29.61 L25.677,31.062 C26.92,31.556 27.822,32.115 28.382,32.738 C28.941,33.362 29.222,34.115 29.222,34.996 C29.222,36.437 28.709,37.576 27.683,38.415 C26.656,39.253 25.282,39.672 23.562,39.672 C21.737,39.672 19.736,39.264 17.56,38.447 L17.56,40.092 C19.363,40.995 21.416,41.446 23.717,41.446 C25.936,41.446 27.724,40.855 29.082,39.672 C30.439,38.49 31.119,36.942 31.119,35.028 C31.119,33.717 30.776,32.625 30.093,31.755 C29.408,30.884 28.32,30.148 26.827,29.546 L26.827,29.546 Z M4,18.548 L16.098,18.548 L16.098,20.257 L5.835,20.257 L5.835,28.804 L14.512,28.804 L14.512,30.513 L5.835,30.513 L5.835,40.898 L4,40.898 L4,18.548 Z" id="Amazon-FSx-for-WFS_Icon_64_Squid"></path>
        </g>
    </g>
</svg>