<?xml version="1.0" encoding="UTF-8"?>
<svg width="80px" height="80px" viewBox="0 0 80 80" version="1.1" xmlns="http://www.w3.org/2000/svg" xmlns:xlink="http://www.w3.org/1999/xlink">
    <title>Icon-Architecture/64/Arch_AWS-GameKit_64</title>
    <defs>
        <linearGradient x1="0%" y1="100%" x2="100%" y2="0%" id="linearGradient-1">
            <stop stop-color="#4D27A8" offset="0%"></stop>
            <stop stop-color="#A166FF" offset="100%"></stop>
        </linearGradient>
    </defs>
    <g id="Icon-Architecture/64/Arch_AWS-GameKit_64" stroke="none" stroke-width="1" fill="none" fill-rule="evenodd">
        <g id="Rectangle" fill="url(#linearGradient-1)">
            <rect x="0" y="0" width="80" height="80"></rect>
        </g>
        <g id="Icon-Service/64/AWS-GameKit_64" transform="translate(8.000000, 8.000000)" fill="#FFFFFF">
            <path d="M52,44.51 C52,43.682 52.672,43.01 53.5,43.01 C54.328,43.01 55,43.682 55,44.51 C55,45.338 54.328,46.01 53.5,46.01 C52.672,46.01 52,45.338 52,44.51 L52,44.51 Z M49,41.51 C49,40.682 49.672,40.01 50.5,40.01 C51.328,40.01 52,40.682 52,41.51 C52,42.338 51.328,43.01 50.5,43.01 C49.672,43.01 49,42.338 49,41.51 L49,41.51 Z M32,44.01 L30,44.01 L30,42.01 L32,42.01 L32,40.01 L34,40.01 L34,42.01 L36,42.01 L36,44.01 L34,44.01 L34,46.01 L32,46.01 L32,44.01 Z M58,54.01 C58,57.595 56.288,58.01 55,58.01 C52.64,58.01 50.25,53.72 48.586,50.234 C49.623,50.726 50.778,51.01 52,51.01 C54.39,51.01 56.532,49.951 58,48.284 L58,54.01 Z M30,58.01 C28.7,58.01 27.879,57.524 27.415,56.48 C27.001,55.549 27.001,54.471 27.001,54.01 L27,48.284 C28.468,49.951 30.61,51.01 33,51.01 C34.222,51.01 35.377,50.726 36.414,50.234 C34.75,53.72 32.36,58.01 30,58.01 L30,58.01 Z M33,37.01 C36.309,37.01 39,39.701 39,43.01 C39,46.318 36.309,49.01 33,49.01 C29.691,49.01 27,46.318 27,43.01 C27,39.701 29.691,37.01 33,37.01 L33,37.01 Z M44.589,46.01 L40.411,46.01 C40.788,45.082 41,44.071 41,43.01 C41,41.118 40.337,39.381 39.235,38.01 L45.765,38.01 C44.663,39.381 44,41.118 44,43.01 C44,44.071 44.212,45.082 44.589,46.01 L44.589,46.01 Z M58,43.01 L57.999,43.01 L57.999,43.029 C57.988,46.329 55.302,49.01 52,49.01 C48.691,49.01 46,46.318 46,43.01 C46,39.701 48.691,37.01 52,37.01 C55.309,37.01 58,39.701 58,43.01 L58,43.01 Z M60,43.01 C60,38.599 56.411,35.01 52,35.01 C50.599,35.01 49.282,35.374 48.136,36.01 L36.864,36.01 C35.718,35.374 34.401,35.01 33,35.01 C28.589,35.01 25,38.599 25,43.01 L25.001,54.01 C25.001,54.547 25.001,55.973 25.587,57.292 C26.138,58.532 27.352,60.01 30,60.01 C34.196,60.01 37.247,53.282 39.266,48.83 C39.396,48.544 39.52,48.269 39.639,48.01 L45.361,48.01 C45.48,48.269 45.604,48.544 45.734,48.83 C47.753,53.282 50.804,60.01 55,60.01 C56.503,60.01 60,59.425 60,54.01 L59.999,43.029 C59.999,43.023 60,43.016 60,43.01 L60,43.01 Z M12.713,18 L51.287,18 L57,22.486 L57,25 L49,25 L49,22 C49,21.447 48.553,21 48,21 L43,21 C42.447,21 42,21.447 42,22 L42,25 L22,25 L22,22 C22,21.447 21.553,21 21,21 L16,21 C15.447,21 15,21.447 15,22 L15,25 L6.999,25 L7,22.486 L12.713,18 Z M21,11.058 L21,11 L42.836,11 C42.941,11 42.995,11.06 43,11.074 L43,16 L21,16 L21,11.058 Z M44,30 L47,30 L47,23 L44,23 L44,30 Z M20,30 L17,30 L17,27 L17,25 L17,23 L20,23 L20,30 Z M7.999,43.685 L7.999,27 L15,27 L15,31 C15,31.552 15.447,32 16,32 L21,32 C21.553,32 22,31.552 22,31 L22,27 L42,27 L42,31 C42,31.552 42.447,32 43,32 L48,32 C48.553,32 49,31.552 49,31 L49,27 L56,27 L56,34 L58,34 L58,28.001 C58.553,28.001 59,27.553 59,27.001 L59,22 C59,21.692 58.859,21.403 58.617,21.213 L52.25,16.213 C52.074,16.075 51.856,16 51.633,16 L45,16 L45,11.074 C45,9.93 44.029,9 42.836,9 L20.634,9 C19.937,9 19.398,9.338 19.155,9.928 C19,10.303 19,10.687 19,11.074 L19,16 L12.367,16 C12.144,16 11.926,16.075 11.75,16.213 L5.383,21.213 C5.141,21.403 5,21.692 5,22 L5,27 C5,27.551 5.447,27.999 5.999,28 L5.999,43.685 C5.999,45.513 7.486,47 9.313,47 L22.999,47 L22.999,45 L9.313,45 C8.589,45 7.999,44.41 7.999,43.685 L7.999,43.685 Z" id="Fill-8"></path>
        </g>
    </g>
</svg>