<?xml version="1.0" encoding="UTF-8"?>
<svg width="80px" height="80px" viewBox="0 0 80 80" version="1.1" xmlns="http://www.w3.org/2000/svg" xmlns:xlink="http://www.w3.org/1999/xlink">
    <title>Icon-Architecture/64/Arch_Amazon-GameLift_64</title>
    <defs>
        <linearGradient x1="0%" y1="100%" x2="100%" y2="0%" id="linearGradient-1">
            <stop stop-color="#4D27A8" offset="0%"></stop>
            <stop stop-color="#A166FF" offset="100%"></stop>
        </linearGradient>
    </defs>
    <g id="Icon-Architecture/64/Arch_Amazon-GameLift_64" stroke="none" stroke-width="1" fill="none" fill-rule="evenodd">
        <g id="Rectangle" fill="url(#linearGradient-1)">
            <rect x="0" y="0" width="80" height="80"></rect>
        </g>
        <g id="Icon-Service/64/Amazon-GameLift_64" transform="translate(8.000000, 8.000000)" fill="#FFFFFF">
            <path d="M52,44.51 C52,43.682 52.672,43.01 53.5,43.01 C54.328,43.01 55,43.682 55,44.51 C55,45.338 54.328,46.01 53.5,46.01 C52.672,46.01 52,45.338 52,44.51 L52,44.51 Z M49,41.51 C49,40.682 49.672,40.01 50.5,40.01 C51.328,40.01 52,40.682 52,41.51 C52,42.338 51.328,43.01 50.5,43.01 C49.672,43.01 49,42.338 49,41.51 L49,41.51 Z M32,44.01 L30,44.01 L30,42.01 L32,42.01 L32,40.01 L34,40.01 L34,42.01 L36,42.01 L36,44.01 L34,44.01 L34,46.01 L32,46.01 L32,44.01 Z M58,54.01 C58,57.595 56.288,58.01 55,58.01 C52.64,58.01 50.25,53.72 48.586,50.234 C49.623,50.726 50.778,51.01 52,51.01 C54.39,51.01 56.532,49.951 58,48.284 L58,54.01 Z M30,58.01 C28.7,58.01 27.879,57.524 27.415,56.48 C27.001,55.549 27.001,54.471 27.001,54.01 L27,48.284 C28.468,49.951 30.61,51.01 33,51.01 C34.222,51.01 35.377,50.726 36.414,50.234 C34.75,53.72 32.36,58.01 30,58.01 L30,58.01 Z M33,37.01 C36.309,37.01 39,39.701 39,43.01 C39,46.318 36.309,49.01 33,49.01 C29.691,49.01 27,46.318 27,43.01 C27,39.701 29.691,37.01 33,37.01 L33,37.01 Z M44.589,46.01 L40.411,46.01 C40.788,45.082 41,44.071 41,43.01 C41,41.118 40.337,39.381 39.235,38.01 L45.765,38.01 C44.663,39.381 44,41.118 44,43.01 C44,44.071 44.212,45.082 44.589,46.01 L44.589,46.01 Z M58,43.01 L57.999,43.01 L57.999,43.029 C57.988,46.329 55.302,49.01 52,49.01 C48.691,49.01 46,46.318 46,43.01 C46,39.701 48.691,37.01 52,37.01 C55.309,37.01 58,39.701 58,43.01 L58,43.01 Z M60,43.01 C60,38.599 56.411,35.01 52,35.01 C50.599,35.01 49.282,35.374 48.136,36.01 L36.864,36.01 C35.718,35.374 34.401,35.01 33,35.01 C28.589,35.01 25,38.599 25,43.01 L25.001,54.01 C25.001,54.547 25.001,55.973 25.587,57.292 C26.138,58.532 27.352,60.01 30,60.01 C34.196,60.01 37.247,53.282 39.266,48.83 C39.396,48.544 39.52,48.269 39.639,48.01 L45.361,48.01 C45.48,48.269 45.604,48.544 45.734,48.83 C47.753,53.282 50.804,60.01 55,60.01 C56.503,60.01 60,59.425 60,54.01 L59.999,43.029 C59.999,43.023 60,43.016 60,43.01 L60,43.01 Z M11.498,41.116 C13.038,40.3 14.805,39.622 16.741,39.094 C17.81,42.467 19.321,45.242 21.131,47.149 C17.377,46.053 14.066,43.934 11.498,41.116 L11.498,41.116 Z M10.202,39.548 C7.764,36.294 6.256,32.32 6.051,28 L15.013,28 C15.083,31.3 15.5,34.401 16.197,37.174 C13.972,37.783 11.948,38.581 10.202,39.548 L10.202,39.548 Z M10.201,14.451 C11.949,15.42 13.972,16.218 16.197,16.827 C15.499,19.6 15.083,22.7 15.013,26 L6.051,26 C6.256,21.68 7.764,17.706 10.201,14.451 L10.201,14.451 Z M21.131,6.85 C19.321,8.758 17.809,11.533 16.74,14.907 C14.805,14.379 13.036,13.703 11.496,12.886 C14.064,10.067 17.375,7.946 21.131,6.85 L21.131,6.85 Z M27,6 C30.394,6 33.457,9.77 35.274,15.382 C32.692,15.921 29.897,16.222 27,16.222 C24.099,16.222 21.305,15.921 18.726,15.383 C20.542,9.77 23.606,6 27,6 L27,6 Z M42.502,12.883 C40.962,13.699 39.195,14.377 37.259,14.905 C36.19,11.532 34.679,8.758 32.869,6.85 C36.623,7.946 39.934,10.066 42.502,12.883 L42.502,12.883 Z M43.798,14.451 C46.236,17.705 47.744,21.679 47.949,26 L38.987,26 C38.917,22.699 38.5,19.599 37.803,16.825 C40.028,16.216 42.052,15.419 43.798,14.451 L43.798,14.451 Z M17.025,26 C17.099,22.896 17.502,19.943 18.176,17.307 C20.933,17.894 23.914,18.222 27,18.222 C30.081,18.222 33.064,17.894 35.824,17.306 C36.497,19.943 36.901,22.896 36.975,26 L17.025,26 Z M23,46.17 C21.273,44.532 19.786,41.892 18.726,38.617 C20.402,38.267 22.174,38.03 23.999,37.898 L23.999,35.894 C21.985,36.034 20.027,36.299 18.176,36.693 C17.503,34.057 17.099,31.103 17.025,28 L36.975,28 C36.926,30.088 36.715,32.098 36.385,34 L38.437,34 C38.744,32.098 38.943,30.096 38.987,28 L47.949,28 C47.85,30.096 47.438,32.109 46.767,34 L48.907,34 C49.615,31.791 50,29.44 50,27 C50,14.317 39.683,4 27,4 C14.317,4 4,14.317 4,27 C4,38.317 12.219,47.745 23,49.644 L23,46.17 Z" id="Fill-7"></path>
        </g>
    </g>
</svg>