<?xml version="1.0" encoding="UTF-8"?>
<svg xmlns="http://www.w3.org/2000/svg" xmlns:xlink="http://www.w3.org/1999/xlink" width="72px" height="px" viewBox="0 0 72 72" version="1.1">
<g id="surface1">
<path style=" stroke:none;fill-rule:evenodd;fill:rgb(100%,100%,100%);fill-opacity:1;" d="M 36.007812 47.722656 C 29.550781 47.722656 24.296875 42.464844 24.296875 36.007812 C 24.296875 29.550781 29.550781 24.296875 36.007812 24.296875 C 42.46875 24.296875 47.722656 29.550781 47.722656 36.007812 C 47.722656 42.464844 42.46875 47.722656 36.007812 47.722656 Z M 36.007812 21.296875 C 27.898438 21.296875 21.296875 27.894531 21.296875 36.007812 C 21.296875 44.121094 27.898438 50.722656 36.007812 50.722656 C 44.121094 50.722656 50.722656 44.121094 50.722656 36.007812 C 50.722656 27.894531 44.121094 21.296875 36.007812 21.296875 Z M 66.019531 41.625 L 60.726562 41.625 C 60.046875 41.625 59.449219 42.078125 59.277344 42.738281 C 58.71875 44.824219 57.835938 46.339844 56.804688 48.089844 C 56.460938 48.679688 56.558594 49.429688 57.042969 49.914062 L 60.78125 53.625 L 53.582031 60.78125 L 49.835938 57.054688 C 49.351562 56.574219 48.609375 56.480469 48.027344 56.820312 L 47.695312 57.011719 C 45.933594 58.03125 44.660156 58.769531 42.742188 59.273438 C 42.085938 59.449219 41.625 60.042969 41.625 60.722656 L 41.625 66.015625 L 30.394531 66.015625 L 30.394531 60.726562 C 30.394531 60.046875 29.9375 59.453125 29.28125 59.277344 C 27.21875 58.730469 25.730469 57.910156 23.855469 56.8125 C 23.269531 56.46875 22.519531 56.566406 22.035156 57.050781 L 18.328125 60.78125 L 11.183594 53.589844 L 14.90625 49.84375 C 15.382812 49.363281 15.476562 48.621094 15.140625 48.035156 L 14.976562 47.757812 C 13.945312 45.96875 13.199219 44.679688 12.6875 42.742188 C 12.515625 42.082031 11.917969 41.625 11.238281 41.625 L 6 41.625 L 6 30.394531 L 11.289062 30.394531 C 11.96875 30.394531 12.5625 29.933594 12.738281 29.277344 C 13.296875 27.175781 14.148438 25.625 15.203125 23.816406 C 15.546875 23.226562 15.453125 22.480469 14.96875 21.996094 L 11.230469 18.277344 L 18.421875 11.109375 L 22.167969 14.839844 C 22.648438 15.320312 23.390625 15.414062 23.976562 15.078125 L 24.242188 14.921875 C 26.039062 13.882812 27.335938 13.128906 29.277344 12.621094 C 29.933594 12.445312 30.394531 11.847656 30.394531 11.167969 L 30.394531 6 L 41.625 6 L 41.625 11.265625 C 41.625 11.945312 42.078125 12.539062 42.734375 12.714844 C 44.640625 13.222656 45.914062 13.976562 47.675781 15.015625 L 47.933594 15.167969 C 48.527344 15.519531 49.28125 15.421875 49.765625 14.929688 L 53.417969 11.226562 L 60.476562 18.378906 L 56.789062 22.113281 C 56.316406 22.59375 56.222656 23.332031 56.558594 23.914062 C 57.609375 25.746094 58.441406 27.195312 58.984375 29.273438 C 59.160156 29.933594 59.753906 30.394531 60.4375 30.394531 L 66.019531 30.394531 Z M 66.207031 27.394531 L 61.558594 27.394531 C 61.058594 25.894531 60.433594 24.671875 59.726562 23.410156 L 62.742188 20.355469 C 63.816406 19.265625 63.816406 17.496094 62.742188 16.402344 L 55.421875 8.984375 C 54.355469 7.902344 52.480469 7.902344 51.414062 8.984375 L 48.449219 11.992188 C 47.226562 11.28125 46.058594 10.652344 44.625 10.15625 L 44.625 5.8125 C 44.625 4.261719 43.363281 3 41.8125 3 L 30.207031 3 C 28.65625 3 27.394531 4.261719 27.394531 5.8125 L 27.394531 10.054688 C 25.921875 10.550781 24.722656 11.1875 23.472656 11.902344 L 20.410156 8.851562 C 19.3125 7.761719 17.535156 7.765625 16.4375 8.851562 L 8.980469 16.285156 C 8.445312 16.816406 8.152344 17.523438 8.152344 18.273438 C 8.152344 19.027344 8.445312 19.734375 8.980469 20.269531 L 12.035156 23.3125 C 11.316406 24.589844 10.675781 25.871094 10.171875 27.394531 L 5.8125 27.394531 C 4.261719 27.394531 3 28.65625 3 30.207031 L 3 41.8125 C 3 43.359375 4.261719 44.625 5.8125 44.625 L 10.121094 44.625 C 10.621094 46.097656 11.253906 47.289062 11.96875 48.542969 L 8.921875 51.609375 C 7.839844 52.699219 7.839844 54.480469 8.925781 55.570312 L 16.332031 63.03125 C 16.863281 63.566406 17.570312 63.859375 18.324219 63.859375 L 18.328125 63.859375 C 19.082031 63.859375 19.789062 63.566406 20.324219 63.03125 L 23.351562 59.984375 C 24.652344 60.71875 25.902344 61.347656 27.394531 61.84375 L 27.394531 66.203125 C 27.394531 67.753906 28.65625 69.015625 30.207031 69.015625 L 41.8125 69.015625 C 43.363281 69.015625 44.625 67.753906 44.625 66.203125 L 44.625 61.839844 C 46.097656 61.34375 47.285156 60.707031 48.535156 59.992188 L 51.601562 63.039062 C 52.691406 64.128906 54.472656 64.125 55.566406 63.039062 L 63.027344 55.621094 C 63.5625 55.089844 63.859375 54.378906 63.859375 53.625 C 63.859375 52.871094 63.5625 52.160156 63.03125 51.632812 L 59.980469 48.601562 C 60.679688 47.375 61.332031 46.128906 61.839844 44.625 L 66.207031 44.625 C 67.757812 44.625 69.019531 43.359375 69.019531 41.8125 L 69.019531 30.207031 C 69.019531 28.65625 67.757812 27.394531 66.207031 27.394531 Z M 66.207031 27.394531 "/>
</g>
</svg>
