<?xml version="1.0" encoding="UTF-8"?>
<svg xmlns="http://www.w3.org/2000/svg" xmlns:xlink="http://www.w3.org/1999/xlink" width="72px" height="px" viewBox="0 0 72 72" version="1.1">
<g id="surface1">
<path style=" stroke:none;fill-rule:evenodd;fill:rgb(30.196078%,15.294118%,66.666667%);fill-opacity:1;" d="M 26.933594 44 L 29.054688 46.121094 L 25.195312 49.980469 C 24.910156 50.261719 24.53125 50.417969 24.132812 50.417969 C 23.734375 50.417969 23.351562 50.261719 23.074219 49.980469 L 19.214844 46.121094 L 21.335938 44 L 22.5 45.164062 L 22.5 26.578125 L 21.210938 27.871094 L 19.089844 25.75 L 22.949219 21.890625 C 23.230469 21.609375 23.609375 21.449219 24.007812 21.449219 C 24.40625 21.449219 24.789062 21.609375 25.070312 21.890625 L 28.925781 25.75 L 26.804688 27.871094 L 25.5 26.5625 L 25.5 45.433594 Z M 20.804688 37.058594 L 16.945312 40.917969 L 14.824219 38.796875 L 16.121094 37.5 L 8.039062 37.5 L 8.039062 34.5 L 16.125 34.5 L 14.824219 33.199219 L 16.945312 31.078125 L 20.804688 34.9375 C 21.085938 35.21875 21.246094 35.597656 21.246094 35.996094 C 21.246094 36.394531 21.085938 36.777344 20.804688 37.058594 Z M 32.882812 38.796875 L 30.761719 40.917969 L 26.902344 37.058594 C 26.621094 36.777344 26.464844 36.394531 26.464844 35.996094 C 26.464844 35.597656 26.621094 35.21875 26.902344 34.9375 L 30.761719 31.078125 L 32.882812 33.199219 L 31.582031 34.5 L 39.539062 34.5 L 39.539062 37.5 L 31.585938 37.5 Z M 36 66 C 19.457031 66 6 52.542969 6 36 C 6 19.457031 19.457031 6 36 6 C 52.542969 6 66 19.457031 66 36 C 66 52.542969 52.542969 66 36 66 Z M 36 3 C 17.804688 3 3 17.804688 3 36 C 3 54.195312 17.804688 69 36 69 C 54.195312 69 69 54.195312 69 36 C 69 17.804688 54.195312 3 36 3 Z M 52.5 51.539062 L 55.5 51.539062 L 55.5 48.539062 L 52.5 48.539062 Z M 57 45.539062 L 51 45.539062 C 50.171875 45.539062 49.5 46.210938 49.5 47.039062 L 49.5 48.539062 L 34.5 48.539062 L 34.5 44.039062 L 31.5 44.039062 L 31.5 50.039062 C 31.5 50.867188 32.171875 51.539062 33 51.539062 L 49.5 51.539062 L 49.5 53.039062 C 49.5 53.867188 50.171875 54.539062 51 54.539062 L 57 54.539062 C 57.828125 54.539062 58.5 53.867188 58.5 53.039062 L 58.5 47.039062 C 58.5 46.210938 57.828125 45.539062 57 45.539062 Z M 52.5 37.5 L 55.5 37.5 L 55.5 34.5 L 52.5 34.5 Z M 57 31.5 L 51 31.5 C 50.171875 31.5 49.5 32.171875 49.5 33 L 49.5 34.5 L 43.5 34.5 L 43.5 37.5 L 49.5 37.5 L 49.5 39 C 49.5 39.828125 50.171875 40.5 51 40.5 L 57 40.5 C 57.828125 40.5 58.5 39.828125 58.5 39 L 58.5 33 C 58.5 32.171875 57.828125 31.5 57 31.5 Z M 52.5 23.039062 L 55.5 23.039062 L 55.5 20.039062 L 52.5 20.039062 Z M 57 17.039062 L 51 17.039062 C 50.171875 17.039062 49.5 17.710938 49.5 18.539062 L 49.5 20.039062 L 33 20.039062 C 32.171875 20.039062 31.5 20.710938 31.5 21.539062 L 31.5 27.539062 L 34.5 27.539062 L 34.5 23.039062 L 49.5 23.039062 L 49.5 24.539062 C 49.5 25.367188 50.171875 26.039062 51 26.039062 L 57 26.039062 C 57.828125 26.039062 58.5 25.367188 58.5 24.539062 L 58.5 18.539062 C 58.5 17.710938 57.828125 17.039062 57 17.039062 Z M 57 17.039062 "/>
</g>
</svg>
