<?xml version="1.0" encoding="UTF-8"?>
<svg xmlns="http://www.w3.org/2000/svg" xmlns:xlink="http://www.w3.org/1999/xlink" width="72px" height="px" viewBox="0 0 72 72" version="1.1">
<g id="surface1">
<path style=" stroke:none;fill-rule:evenodd;fill:rgb(30.196078%,15.294118%,66.666667%);fill-opacity:1;" d="M 31.960938 27.5625 C 35.515625 28.398438 40.019531 28.5 42 28.5 C 43.980469 28.5 48.484375 28.398438 52.042969 27.5625 L 43.5 44.644531 L 43.5 49.5 L 40.5 49.5 L 40.5 44.644531 Z M 42 22.5 C 47.925781 22.5 51.859375 23.339844 53.425781 24 C 51.859375 24.660156 47.925781 25.5 42 25.5 C 36.078125 25.5 32.144531 24.660156 30.574219 24 C 32.144531 23.339844 36.078125 22.5 42 22.5 Z M 46.5 52.5 L 46.5 45.355469 L 56.464844 25.429688 C 56.800781 25.011719 57 24.539062 57 24 C 57 19.824219 45.519531 19.5 42 19.5 C 38.484375 19.5 27 19.824219 27 24 C 27 24.539062 27.195312 25.011719 27.535156 25.429688 L 37.5 45.355469 L 37.5 52.5 Z M 6 3 L 13.5 3 L 13.5 6 L 9 6 L 9 66 L 13.5 66 L 13.5 69 L 6 69 Z M 24 63 L 60 63 L 60 60 L 24 60 Z M 24 57 L 60 57 L 60 54 L 24 54 Z M 24 18 L 60 18 L 60 15 L 24 15 Z M 24 12 L 60 12 L 60 9 L 24 9 Z M 19.5 66 L 63 66 L 63 6 L 19.5 6 Z M 16.5 69 L 66 69 L 66 3 L 16.5 3 Z M 16.5 69 "/>
</g>
</svg>
