<?xml version="1.0" encoding="UTF-8"?>
<svg xmlns="http://www.w3.org/2000/svg" xmlns:xlink="http://www.w3.org/1999/xlink" width="72px" height="px" viewBox="0 0 72 72" version="1.1">
<g id="surface1">
<path style=" stroke:none;fill-rule:evenodd;fill:rgb(30.196078%,15.294118%,66.666667%);fill-opacity:1;" d="M 51 66 C 48.402344 66 46.066406 64.332031 44.421875 61.6875 L 51 57.304688 L 57.574219 61.6875 C 55.933594 64.332031 53.59375 66 51 66 Z M 49.5 42.105469 L 49.5 54.699219 L 43.101562 58.964844 C 42.402344 57.042969 42 54.839844 42 52.5 C 42 46.4375 44.714844 42.734375 49.5 42.105469 Z M 51 36 C 52.351562 36 53.515625 37.433594 53.875 39.316406 C 52.925781 39.109375 51.957031 39 51 39 C 50.042969 39 49.074219 39.109375 48.125 39.316406 C 48.484375 37.433594 49.648438 36 51 36 Z M 60 52.5 C 60 54.839844 59.597656 57.042969 58.898438 58.964844 L 52.5 54.699219 L 52.5 42.105469 C 57.285156 42.734375 60 46.4375 60 52.5 Z M 69 45 L 66 45 C 66 47.875 64.273438 49.464844 62.875 50.285156 C 62.601562 47.671875 61.855469 45.574219 60.78125 43.941406 C 62.394531 42.777344 64.5 40.414062 64.5 36 L 61.5 36 C 61.5 39.425781 59.796875 41.019531 58.769531 41.675781 C 58.210938 41.207031 57.621094 40.804688 56.996094 40.464844 C 56.992188 38.949219 56.621094 37.535156 55.992188 36.355469 C 56.746094 35.636719 57.632812 34.484375 58.125 32.777344 C 59.21875 32.332031 60 31.257812 60 30 C 60 28.347656 58.65625 27 57 27 C 55.34375 27 54 28.347656 54 30 C 54 30.9375 54.441406 31.761719 55.113281 32.3125 C 54.816406 33.125 54.40625 33.703125 54.046875 34.074219 C 53.152344 33.40625 52.117188 33 51 33 C 49.882812 33 48.847656 33.40625 47.953125 34.074219 C 47.59375 33.703125 47.179688 33.125 46.886719 32.3125 C 47.558594 31.761719 48 30.9375 48 30 C 48 28.347656 46.65625 27 45 27 C 43.34375 27 42 28.347656 42 30 C 42 31.257812 42.777344 32.332031 43.875 32.777344 C 44.367188 34.484375 45.253906 35.636719 46.003906 36.355469 C 45.378906 37.535156 45.007812 38.949219 45.003906 40.464844 C 44.378906 40.804688 43.78125 41.210938 43.222656 41.6875 C 42.199219 41.03125 40.5 39.421875 40.5 36 L 37.5 36 C 37.5 40.414062 39.601562 42.777344 41.21875 43.941406 C 40.144531 45.574219 39.394531 47.671875 39.125 50.285156 C 37.726562 49.464844 36 47.875 36 45 L 33 45 C 33 49.910156 36.496094 52.566406 39.039062 53.59375 C 39.125 55.355469 39.40625 57.046875 39.863281 58.617188 C 38.234375 59.058594 33 60.777344 33 64.5 L 36 64.5 C 36 63.332031 38.878906 61.957031 40.863281 61.457031 L 40.773438 61.089844 C 42.882812 65.824219 46.671875 69 51 69 C 55.328125 69 59.113281 65.824219 61.226562 61.089844 L 61.136719 61.457031 C 63.121094 61.957031 66 63.332031 66 64.5 L 69 64.5 C 69 60.777344 63.765625 59.058594 62.136719 58.617188 C 62.59375 57.046875 62.875 55.355469 62.960938 53.59375 C 65.5 52.566406 69 49.910156 69 45 Z M 25.5 22.5 L 66 22.5 L 66 15 L 25.5 15 Z M 13.5 34.5 L 22.5 34.5 L 22.5 25.5 L 13.5 25.5 Z M 13.5 45 L 22.5 45 L 22.5 37.5 L 13.5 37.5 Z M 6 45 L 10.5 45 L 10.5 15 L 6 15 Z M 6 12 L 10.5 12 L 10.5 6 L 6 6 Z M 13.5 22.5 L 22.5 22.5 L 22.5 15 L 13.5 15 Z M 13.5 12 L 66 12 L 66 6 L 13.5 6 Z M 67.5 3 L 4.5 3 C 3.671875 3 3 3.671875 3 4.5 L 3 46.5 C 3 47.328125 3.671875 48 4.5 48 L 30 48 L 30 45 L 25.5 45 L 25.5 37.5 L 33 37.5 L 33 34.5 L 25.5 34.5 L 25.5 25.5 L 66 25.5 L 66 31.5 L 69 31.5 L 69 4.5 C 69 3.671875 68.328125 3 67.5 3 Z M 67.5 3 "/>
</g>
</svg>
