<?xml version="1.0" encoding="UTF-8"?>
<svg xmlns="http://www.w3.org/2000/svg" xmlns:xlink="http://www.w3.org/1999/xlink" width="72px" height="px" viewBox="0 0 72 72" version="1.1">
<g id="surface1">
<path style=" stroke:none;fill-rule:evenodd;fill:rgb(30.196078%,15.294118%,66.666667%);fill-opacity:1;" d="M 50.148438 52.765625 L 47.898438 52.765625 L 47.898438 26.253906 C 47.898438 25.664062 47.554688 25.128906 47.015625 24.886719 L 46.878906 24.824219 C 43.863281 23.460938 40.746094 22.054688 36.265625 22.054688 C 31.578125 22.054688 28.140625 23.566406 24.742188 25.253906 C 24.234375 25.507812 23.910156 26.027344 23.910156 26.597656 L 23.910156 52.765625 L 21.714844 52.765625 L 21.714844 24.46875 C 25.367188 21.5 30.628906 19.808594 36.28125 19.808594 C 41.53125 19.808594 46.539062 21.300781 50.148438 23.929688 Z M 36.28125 16.808594 C 29.640625 16.808594 23.425781 18.9375 19.222656 22.648438 C 18.898438 22.933594 18.714844 23.34375 18.714844 23.773438 L 18.714844 54.265625 C 18.714844 55.097656 19.386719 55.765625 20.214844 55.765625 L 25.410156 55.765625 C 26.238281 55.765625 26.910156 55.097656 26.910156 54.265625 L 26.910156 27.535156 C 29.789062 26.144531 32.578125 25.054688 36.265625 25.054688 C 39.765625 25.054688 42.3125 26.066406 44.898438 27.222656 L 44.898438 54.265625 C 44.898438 55.097656 45.570312 55.765625 46.398438 55.765625 L 51.648438 55.765625 C 52.476562 55.765625 53.148438 55.097656 53.148438 54.265625 L 53.148438 23.1875 C 53.148438 22.730469 52.9375 22.296875 52.578125 22.011719 C 48.417969 18.703125 42.476562 16.808594 36.28125 16.808594 Z M 35.929688 65.863281 C 19.429688 65.863281 6 52.433594 6 35.929688 C 6 19.425781 19.429688 6 35.929688 6 C 52.4375 6 65.863281 19.425781 65.863281 35.929688 C 65.863281 52.433594 52.4375 65.863281 35.929688 65.863281 Z M 35.929688 3 C 17.773438 3 3 17.773438 3 35.929688 C 3 54.089844 17.773438 68.863281 35.929688 68.863281 C 54.089844 68.863281 68.863281 54.089844 68.863281 35.929688 C 68.863281 17.773438 54.089844 3 35.929688 3 Z M 35.929688 3 "/>
</g>
</svg>
