<?xml version="1.0" encoding="UTF-8"?>
<svg xmlns="http://www.w3.org/2000/svg" xmlns:xlink="http://www.w3.org/1999/xlink" width="72px" height="px" viewBox="0 0 72 72" version="1.1">
<g id="surface1">
<path style=" stroke:none;fill-rule:evenodd;fill:rgb(100%,100%,100%);fill-opacity:1;" d="M 51.886719 44.683594 L 46.496094 50.070312 L 46.496094 32.640625 L 43.496094 32.640625 L 43.496094 49.90625 L 38.335938 44.660156 L 36.195312 46.765625 L 43.988281 54.683594 C 44.269531 54.96875 44.652344 55.128906 45.050781 55.132812 L 45.058594 55.132812 C 45.453125 55.132812 45.835938 54.972656 46.117188 54.691406 L 54.007812 46.804688 Z M 33.523438 41.585938 L 35.644531 39.464844 L 27.757812 31.578125 C 27.476562 31.296875 27.097656 31.140625 26.699219 31.140625 L 26.691406 31.140625 C 26.292969 31.140625 25.910156 31.300781 25.628906 31.585938 L 17.835938 39.503906 L 19.972656 41.609375 L 25.136719 36.363281 L 25.136719 56.332031 L 28.136719 56.332031 L 28.136719 36.195312 Z M 30.5 56.359375 L 41.101562 56.367188 L 41.101562 53.367188 L 30.503906 53.359375 Z M 69.039062 43.695312 C 69.039062 47.425781 67.90625 50.441406 65.675781 52.65625 C 61.996094 56.308594 56.664062 56.386719 56.242188 56.386719 L 56.226562 56.386719 L 49.082031 56.378906 L 49.085938 53.378906 L 56.238281 53.386719 C 56.296875 53.386719 60.734375 53.355469 63.578125 50.515625 C 65.210938 48.882812 66.039062 46.589844 66.039062 43.695312 C 66.039062 41.921875 65.550781 39.269531 61.34375 36.691406 C 59.132812 35.335938 57.0625 34.890625 56.277344 34.761719 C 55.480469 34.632812 54.933594 33.898438 55.027344 33.105469 C 54.761719 29.960938 53.289062 27.761719 50.972656 27.058594 C 48.96875 26.453125 46.828125 27.164062 45.503906 28.867188 C 45.175781 29.296875 44.644531 29.515625 44.09375 29.429688 C 43.554688 29.347656 43.105469 28.980469 42.914062 28.46875 C 41.988281 25.972656 40.648438 23.875 38.933594 22.234375 C 36.816406 20.214844 31.011719 15.863281 22.804688 19.175781 C 18.101562 21.078125 14.417969 26.535156 14.417969 31.601562 C 14.417969 32.167969 14.453125 32.734375 14.523438 33.285156 C 14.613281 34.011719 14.167969 34.695312 13.472656 34.910156 C 13.414062 34.925781 13.355469 34.941406 13.296875 34.949219 C 10.53125 35.648438 6 37.734375 6 43.949219 C 6 48.664062 8.699219 51.273438 10.960938 52.632812 C 11.734375 53.09375 12.628906 53.339844 13.542969 53.34375 L 22.773438 53.351562 L 22.769531 56.351562 L 13.542969 56.34375 C 12.082031 56.339844 10.65625 55.949219 9.417969 55.203125 C 7.023438 53.765625 3 50.394531 3 43.949219 C 3 38.375 6.125 34.128906 11.433594 32.367188 C 11.421875 32.113281 11.417969 31.859375 11.417969 31.601562 C 11.417969 25.296875 15.832031 18.757812 21.683594 16.394531 C 28.5 13.640625 35.726562 15.015625 41.007812 20.066406 C 42.554688 21.546875 43.84375 23.324219 44.84375 25.371094 C 46.851562 23.917969 49.40625 23.457031 51.84375 24.191406 C 55.125 25.183594 57.351562 28.085938 57.921875 32.039062 C 59.621094 32.464844 61.386719 33.199219 62.910156 34.132812 C 67.035156 36.65625 69.039062 39.785156 69.039062 43.695312 Z M 69.039062 43.695312 "/>
</g>
</svg>
