<svg id="Layer_1" data-name="Layer 1" xmlns="http://www.w3.org/2000/svg" xmlns:xlink="http://www.w3.org/1999/xlink" viewBox="0 0 80 80"><defs><style>.cls-1{fill:url(#linear-gradient);}.cls-2{fill:#fff;}</style><linearGradient id="linear-gradient" y1="79" x2="1" y2="80" gradientTransform="matrix(80, 0, 0, -80, 0, 6400)" gradientUnits="userSpaceOnUse"><stop offset="0" stop-color="#1b660f"/><stop offset="1" stop-color="#6cae3e"/></linearGradient></defs><g id="Icon-Architecture_64_Arch_AWS-IoT-TwinMaker_64" data-name="Icon-Architecture/64/Arch_AWS-IoT-TwinMaker_64"><g id="Rectangle"><rect class="cls-1" width="80" height="80"/></g></g><path class="cls-2" d="M67.98,38.87908c0-7.8706-5.99121-10.24463-8.80762-10.92334-.42773-3.812-2.38379-6.55176-5.31347-7.38867a6.31916,6.31916,0,0,0-5.88575,1.34424,17.27044,17.27044,0,0,0-3.415-5.2207,14.31211,14.31211,0,0,0-16.51954-3.38135c-4.96289,2.16553-8.70556,8.1372-8.70556,13.89062,0,.34375.01123.689.03271,1.03321C16.65479,29.152,12.02,31.75457,12.02,38.79314c0,.44874.02.88038.05762,1.29639A11.27537,11.27537,0,0,0,21.98,49.89806V66.98162a.99973.99973,0,0,0,1,1h22a.99942.99942,0,0,0,1-1v-7h4v-2h-4v-13a.99943.99943,0,0,0-1-1h-22a.99974.99974,0,0,0-1,1v2.8988a9.21769,9.21769,0,0,1-7.91016-7.972c-.03271-.35791-.0498-.729-.0498-1.11524,0-6.1206,4.0874-8.16943,6.58691-8.8496a.99956.99956,0,0,0,.8208-1.1001,14.29082,14.29082,0,0,1-.09472-1.64356c0-4.9248,3.29687-10.22119,7.50537-12.05761a12.33741,12.33741,0,0,1,14.28223,2.939,15.99371,15.99371,0,0,1,3.55175,6.0127,1.00038,1.00038,0,0,0,1.75879.25878,4.49274,4.49274,0,0,1,4.87793-1.86279c2.21973.63428,3.67969,2.92432,3.918,6.13526l-.001.00439a1.00073,1.00073,0,0,0,.81446,1.13135c2.38769.42285,7.93945,2.15771,7.93945,9.11816a8.59946,8.59946,0,0,1-7,8.92V43.98162h-2v4.999l-.001,1h.001v2.001h2v-2.1557C61.44324,49.30993,67.98,47.159,67.98,38.87908Zm-44,7.10254h20v20h-20Zm20-10h6v2h-6Zm-8,0h4v2h-3v3h-2v-4A1.00005,1.00005,0,0,1,35.98,35.98162Zm21,19h2v4a.99942.99942,0,0,1-1,1h-4v-2h3Zm0-14v-3h-3v-2h4a.99974.99974,0,0,1,1,1v4Z"/></svg>