<?xml version="1.0" encoding="UTF-8"?>
<svg xmlns="http://www.w3.org/2000/svg" xmlns:xlink="http://www.w3.org/1999/xlink" width="72px" height="px" viewBox="0 0 72 72" version="1.1">
<g id="surface1">
<path style=" stroke:none;fill-rule:evenodd;fill:rgb(83.137255%,35.686275%,2.745098%);fill-opacity:1;" d="M 36 66 C 19.457031 66 6 52.542969 6 36 C 6 19.457031 19.457031 6 36 6 C 52.542969 6 66 19.457031 66 36 C 66 52.542969 52.542969 66 36 66 Z M 36 3 C 17.804688 3 3 17.804688 3 36 C 3 54.195312 17.804688 69 36 69 C 54.195312 69 69 54.195312 69 36 C 69 17.804688 54.195312 3 36 3 Z M 25.847656 52.875 L 17.8125 52.875 L 27.332031 32.9375 L 31.351562 41.238281 Z M 28.671875 28.824219 C 28.417969 28.304688 27.894531 27.976562 27.320312 27.976562 L 27.316406 27.976562 C 26.738281 27.976562 26.214844 28.3125 25.96875 28.832031 L 14.082031 53.726562 C 13.859375 54.195312 13.894531 54.738281 14.167969 55.175781 C 14.441406 55.609375 14.921875 55.875 15.4375 55.875 L 26.796875 55.875 C 27.375 55.875 27.90625 55.539062 28.152344 55.015625 L 34.371094 41.871094 C 34.566406 41.464844 34.566406 40.984375 34.367188 40.578125 Z M 54.1875 52.875 L 46.007812 52.875 L 31.140625 20.929688 C 30.894531 20.402344 30.363281 20.0625 29.78125 20.0625 L 24.375 20.0625 L 24.382812 13.875 L 35.210938 13.875 L 50.007812 45.816406 C 50.253906 46.347656 50.785156 46.6875 51.367188 46.6875 L 54.1875 46.6875 Z M 55.6875 43.6875 L 52.328125 43.6875 L 37.53125 11.746094 C 37.285156 11.214844 36.753906 10.875 36.167969 10.875 L 22.882812 10.875 C 22.054688 10.875 21.386719 11.546875 21.382812 12.375 L 21.375 21.5625 C 21.375 21.960938 21.53125 22.339844 21.816406 22.621094 C 22.09375 22.90625 22.476562 23.0625 22.875 23.0625 L 28.824219 23.0625 L 43.695312 55.007812 C 43.941406 55.535156 44.46875 55.875 45.050781 55.875 L 55.6875 55.875 C 56.515625 55.875 57.1875 55.203125 57.1875 54.375 L 57.1875 45.1875 C 57.1875 44.359375 56.515625 43.6875 55.6875 43.6875 Z M 55.6875 43.6875 "/>
</g>
</svg>
