<?xml version="1.0" encoding="UTF-8"?>
<svg width="80px" height="80px" viewBox="0 0 80 80" version="1.1" xmlns="http://www.w3.org/2000/svg" xmlns:xlink="http://www.w3.org/1999/xlink">
    <title>Icon-Architecture/64/Arch_AWS-Mainframe-Modernization_64</title>
    <defs>
        <linearGradient x1="0%" y1="100%" x2="100%" y2="0%" id="linearGradient-1">
            <stop stop-color="#055F4E" offset="0%"></stop>
            <stop stop-color="#56C0A7" offset="100%"></stop>
        </linearGradient>
    </defs>
    <g id="Icon-Architecture/64/Arch_AWS-Mainframe-Modernization_64" stroke="none" stroke-width="1" fill="none" fill-rule="evenodd">
        <g id="Rectangle" fill="url(#linearGradient-1)">
            <rect x="0" y="0" width="80" height="80"></rect>
        </g>
        <g id="Icon-Service/64/AWS-Mainframe-Modernization_64" transform="translate(8.000000, 8.000000)" fill="#FFFFFF">
            <path d="M59.813,29.352 C59.813,29.679 59.799,30.004 59.772,30.324 C59.294,35.972 54.293,40.395 48.386,40.395 L48.386,38.395 C53.263,38.395 57.389,34.776 57.78,30.157 C57.801,29.893 57.813,29.623 57.813,29.352 C57.813,24.479 54.511,20.805 50.133,20.805 C49.581,20.805 49.133,20.357 49.133,19.805 C49.133,16.512 47.344,12.993 42.322,12.993 L41.455,12.993 C41.091,12.993 40.756,12.796 40.58,12.478 C38.349,8.453 34.134,6.05 29.303,6.05 C22.197,6.05 16.416,11.831 16.416,18.936 C16.416,19.489 15.968,19.936 15.416,19.936 C10.224,19.936 6,24.16 6,29.352 C6,38.167 14.145,38.422 15.074,38.422 L15.074,40.422 C7.424,40.422 4,34.862 4,29.352 C4,23.384 8.604,18.471 14.446,17.977 C14.942,10.214 21.417,4.05 29.303,4.05 C34.664,4.05 39.376,6.634 42.03,10.993 L42.322,10.993 C47.35,10.993 50.707,14.044 51.095,18.852 C56.128,19.345 59.813,23.694 59.813,29.352 L59.813,29.352 Z M45.187,49.52 L49.412,52.819 L40.228,59.993 L23.733,59.993 L14.55,52.819 L18.773,49.52 L20.003,51.097 L17.798,52.819 L24.422,57.993 L39.539,57.993 L46.162,52.819 L43.957,51.097 L45.187,49.52 Z M45.187,40.52 L49.412,43.819 L40.228,50.993 L23.733,50.993 L14.55,43.819 L18.773,40.52 L20.003,42.097 L17.798,43.819 L24.422,48.993 L39.539,48.993 L46.162,43.819 L43.957,42.097 L45.187,40.52 Z M24.004,27.993 L39.957,27.993 L46.998,33.493 L39.957,38.993 L24.004,38.993 L16.963,33.493 L24.004,27.993 Z M40.646,40.993 L50.246,33.493 L40.646,25.993 L23.315,25.993 L13.715,33.493 L23.315,40.993 L40.646,40.993 Z" id="Fill-1"></path>
        </g>
    </g>
</svg>