<?xml version="1.0" encoding="UTF-8"?>
<svg width="80px" height="80px" viewBox="0 0 80 80" version="1.1" xmlns="http://www.w3.org/2000/svg" xmlns:xlink="http://www.w3.org/1999/xlink">
    <title>Icon-Architecture/64/Arch_Amazon-MemoryDB-for-Redis_64</title>
    <defs>
        <linearGradient x1="0%" y1="100%" x2="100%" y2="0%" id="linearGradient-1">
            <stop stop-color="#2E27AD" offset="0%"></stop>
            <stop stop-color="#527FFF" offset="100%"></stop>
        </linearGradient>
    </defs>
    <g id="Icon-Architecture/64/Arch_Amazon-MemoryDB-for-Redis_64" stroke="none" stroke-width="1" fill="none" fill-rule="evenodd">
        <g id="Rectangle" fill="url(#linearGradient-1)">
            <rect x="0" y="0" width="80" height="80"></rect>
        </g>
        <g id="Icon-Service/64/Amazon-MemoryDB-for-Redis_64" transform="translate(8.000000, 8.000000)" fill="#FFFFFF">
            <path d="M22.979,17.248 C12.823,17.248 6,14.34 6,11.624 C6,8.909 12.823,6 22.979,6 C33.015,6 39.012,8.86 39.012,11.624 C39.012,14.389 33.015,17.248 22.979,17.248 L22.979,17.248 Z M38.409,32.731 C40.349,32.731 42.285,32.948 44.161,33.376 L44.606,31.426 C43.422,31.156 42.216,30.974 41,30.861 L41,11.955 L40.978,11.955 C40.987,11.844 41.012,11.737 41.012,11.624 C41.012,7.136 33.597,4 22.979,4 C13.548,4 4,6.619 4,11.624 C4,11.738 4.031,11.844 4.04,11.955 L4,11.955 L4,52.313 C4,55.193 7.13,57.518 12.814,58.859 L13.273,56.913 C8.788,55.853 6,54.091 6,52.313 L6,42.706 C7.295,43.751 9.198,44.639 11.648,45.319 L12.183,43.393 C8.312,42.317 6,40.713 6,39.101 L6,29.361 C9.073,31.896 15.256,33.271 21.417,33.526 L21.499,31.528 C11.797,31.126 6,28.242 6,25.687 L6,15.213 C9.284,17.869 16.152,19.248 22.979,19.248 C30.309,19.248 36.109,17.753 39,15.352 L39,30.748 C38.803,30.744 38.606,30.731 38.409,30.731 C28.06,30.731 18.612,36.43 13.75,45.602 L15.518,46.539 C20.031,38.022 28.802,32.731 38.409,32.731 L38.409,32.731 Z M51.637,36.374 C50.003,35.398 48.262,34.604 46.461,34.014 L47.084,32.113 C49.026,32.75 50.902,33.606 52.663,34.657 L51.637,36.374 Z M41.788,57.955 C41.613,56.831 41.149,55.804 40.469,54.953 L51.808,44.232 C55.43,47.748 57.681,52.761 57.938,57.955 L41.788,57.955 Z M35.471,54.541 C37.558,54.541 39.301,56.003 39.751,57.955 L31.192,57.955 C31.642,56.003 33.385,54.541 35.471,54.541 L35.471,54.541 Z M53.275,42.845 L56.95,39.371 L55.575,37.917 L38.988,53.6 C37.978,52.932 36.77,52.541 35.471,52.541 C32.278,52.541 29.632,54.894 29.155,57.955 L17.864,57.955 C18.379,47.191 27.169,38.596 37.901,38.596 C40.787,38.596 43.57,39.194 46.175,40.375 L47.001,38.554 C44.135,37.254 41.073,36.596 37.901,36.596 C25.737,36.596 15.84,46.626 15.84,58.955 L15.84,59.955 L59.962,59.955 L59.962,58.955 C59.962,52.909 57.474,46.956 53.275,42.845 L53.275,42.845 Z" id="Fill-1"></path>
        </g>
    </g>
</svg>