<?xml version="1.0" encoding="UTF-8"?>
<svg xmlns="http://www.w3.org/2000/svg" xmlns:xlink="http://www.w3.org/1999/xlink" width="72px" height="px" viewBox="0 0 72 72" version="1.1">
<g id="surface1">
<path style=" stroke:none;fill-rule:evenodd;fill:rgb(13.72549%,18.431373%,23.921569%);fill-opacity:1;" d="M 29.40625 9.164062 C 29.660156 9.164062 29.867188 9.371094 29.867188 9.625 C 29.867188 9.878906 29.660156 10.085938 29.40625 10.085938 C 29.148438 10.085938 28.941406 9.878906 28.941406 9.625 C 28.941406 9.371094 29.148438 9.164062 29.40625 9.164062 Z M 29.40625 12.335938 C 30.898438 12.335938 32.117188 11.121094 32.117188 9.625 C 32.117188 8.128906 30.898438 6.914062 29.40625 6.914062 C 27.910156 6.914062 26.691406 8.128906 26.691406 9.625 C 26.691406 11.121094 27.910156 12.335938 29.40625 12.335938 Z M 34.519531 11.101562 L 42.5625 11.101562 L 42.5625 8.101562 L 34.519531 8.101562 Z M 48.257812 65.738281 L 23.71875 65.738281 C 22.21875 65.738281 21 64.542969 21 63.074219 L 21 60.960938 L 50.980469 60.960938 L 50.980469 63.074219 C 50.980469 64.542969 49.757812 65.738281 48.257812 65.738281 Z M 21 16.203125 L 50.980469 16.203125 L 50.980469 57.960938 L 21 57.960938 Z M 24.96875 6 L 47.007812 6 C 49.195312 6 50.980469 7.75 50.980469 9.898438 L 50.980469 13.203125 L 21 13.203125 L 21 9.898438 C 21 7.75 22.78125 6 24.96875 6 Z M 47.03125 3 L 24.96875 3 C 21.125 3 18 6.097656 18 9.898438 L 18 63.074219 C 18 66.199219 20.566406 68.738281 23.71875 68.738281 L 48.257812 68.738281 C 51.414062 68.738281 53.980469 66.199219 53.980469 63.074219 L 53.980469 9.894531 C 53.980469 6.101562 50.863281 3.011719 47.03125 3 Z M 47.03125 3 "/>
</g>
</svg>
