<?xml version="1.0" encoding="UTF-8"?>
<svg xmlns="http://www.w3.org/2000/svg" xmlns:xlink="http://www.w3.org/1999/xlink" width="72px" height="px" viewBox="0 0 72 72" version="1.1">
<g id="surface1">
<path style=" stroke:none;fill-rule:evenodd;fill:rgb(30.196078%,15.294118%,66.666667%);fill-opacity:1;" d="M 43.550781 57.570312 L 45.199219 59.105469 L 35.996094 69 L 26.796875 59.105469 L 28.445312 57.570312 L 34.5 64.085938 L 34.5 40.65625 L 11.941406 29.082031 L 14.972656 37.4375 L 12.851562 38.203125 L 8.25 25.5 L 21.253906 21.832031 L 21.867188 23.996094 L 13.304688 26.410156 L 36 38.054688 L 58.6875 26.410156 L 50.132812 24 L 50.746094 21.832031 L 63.75 25.503906 L 59.148438 38.203125 L 57.027344 37.441406 L 60.0625 29.078125 L 37.5 40.65625 L 37.5 64.078125 Z M 62.25 57 C 60.179688 57 58.5 55.316406 58.5 53.25 C 58.5 51.183594 60.179688 49.5 62.25 49.5 C 64.320312 49.5 66 51.183594 66 53.25 C 66 55.316406 64.320312 57 62.25 57 Z M 62.25 46.5 C 61.476562 46.5 60.742188 46.65625 60.050781 46.898438 L 53.210938 35.953125 L 50.667969 37.542969 L 57.496094 48.464844 C 56.605469 49.351562 55.972656 50.480469 55.683594 51.742188 L 40.5 51.742188 L 40.5 54.742188 L 55.679688 54.742188 C 56.359375 57.746094 59.042969 60 62.25 60 C 65.972656 60 69 56.972656 69 53.25 C 69 49.527344 65.972656 46.5 62.25 46.5 Z M 9.75 57 C 7.679688 57 6 55.316406 6 53.25 C 6 51.183594 7.679688 49.5 9.75 49.5 C 11.820312 49.5 13.5 51.183594 13.5 53.25 C 13.5 55.316406 11.820312 57 9.75 57 Z M 31.5 54.742188 L 31.5 51.742188 L 16.316406 51.742188 C 16.027344 50.480469 15.394531 49.351562 14.503906 48.464844 L 21.332031 37.542969 L 18.789062 35.953125 L 11.949219 46.898438 C 11.253906 46.65625 10.523438 46.5 9.75 46.5 C 6.027344 46.5 3 49.527344 3 53.25 C 3 56.972656 6.027344 60 9.75 60 C 12.957031 60 15.640625 57.746094 16.320312 54.742188 Z M 36 7.5 C 38.070312 7.5 39.75 9.183594 39.75 11.25 C 39.75 13.316406 38.070312 15 36 15 C 33.929688 15 32.25 13.316406 32.25 11.25 C 32.25 9.183594 33.929688 7.5 36 7.5 Z M 26.179688 29.792969 L 33.804688 17.601562 C 34.496094 17.84375 35.226562 18 36 18 C 36.773438 18 37.503906 17.84375 38.199219 17.601562 L 45.820312 29.792969 L 48.363281 28.203125 L 40.753906 16.035156 C 41.984375 14.8125 42.75 13.117188 42.75 11.25 C 42.75 7.527344 39.722656 4.5 36 4.5 C 32.277344 4.5 29.25 7.527344 29.25 11.25 C 29.25 13.117188 30.015625 14.8125 31.246094 16.035156 L 23.636719 28.203125 Z M 26.179688 29.792969 "/>
</g>
</svg>
