<?xml version="1.0" encoding="UTF-8"?>
<svg xmlns="http://www.w3.org/2000/svg" xmlns:xlink="http://www.w3.org/1999/xlink" width="72px" height="px" viewBox="0 0 72 72" version="1.1">
<g id="surface1">
<path style=" stroke:none;fill-rule:evenodd;fill:rgb(30.196078%,15.294118%,66.666667%);fill-opacity:1;" d="M 20.4375 53.882812 L 20.4375 49.625 L 23.097656 51.753906 Z M 19.875 45.332031 C 19.425781 44.96875 18.804688 44.898438 18.289062 45.152344 C 17.769531 45.402344 17.4375 45.925781 17.4375 46.503906 L 17.4375 57.003906 C 17.4375 57.582031 17.769531 58.105469 18.289062 58.355469 C 18.496094 58.453125 18.71875 58.503906 18.9375 58.503906 C 19.273438 58.503906 19.605469 58.390625 19.875 58.175781 L 26.4375 52.925781 C 26.792969 52.640625 27 52.207031 27 51.753906 C 27 51.296875 26.792969 50.867188 26.4375 50.582031 Z M 55.878906 40.253906 L 55.878906 34.371094 L 58.820312 37.3125 Z M 62 36.253906 L 55.4375 29.691406 C 55.007812 29.261719 54.367188 29.132812 53.804688 29.367188 C 53.242188 29.597656 52.878906 30.144531 52.878906 30.75 L 52.878906 35.8125 L 41.4375 35.8125 L 41.4375 21.5625 C 41.4375 20.734375 40.769531 20.0625 39.9375 20.0625 L 28.398438 20.0625 L 28.398438 23.0625 L 38.4375 23.0625 L 38.4375 35.8125 L 28.125 35.8125 L 28.125 38.8125 L 38.4375 38.8125 L 38.4375 51.566406 L 28.398438 51.566406 L 28.398438 54.566406 L 39.9375 54.566406 C 40.769531 54.566406 41.4375 53.894531 41.4375 53.066406 L 41.4375 38.8125 L 52.878906 38.8125 L 52.878906 43.878906 C 52.878906 44.484375 53.242188 45.03125 53.804688 45.265625 C 53.988281 45.34375 54.183594 45.378906 54.378906 45.378906 C 54.765625 45.378906 55.152344 45.226562 55.4375 44.9375 L 62 38.375 C 62.585938 37.789062 62.585938 36.839844 62 36.253906 Z M 20.4375 39.445312 L 20.4375 35.183594 L 23.097656 37.3125 Z M 19.875 30.890625 C 19.425781 30.53125 18.804688 30.460938 18.289062 30.710938 C 17.769531 30.960938 17.4375 31.488281 17.4375 32.0625 L 17.4375 42.566406 C 17.4375 43.144531 17.769531 43.667969 18.289062 43.917969 C 18.496094 44.015625 18.71875 44.066406 18.9375 44.066406 C 19.273438 44.066406 19.605469 43.953125 19.875 43.738281 L 26.4375 38.484375 C 26.792969 38.199219 27 37.769531 27 37.3125 C 27 36.859375 26.792969 36.425781 26.4375 36.140625 Z M 20.4375 23.691406 L 20.4375 19.433594 L 23.097656 21.5625 Z M 19.875 15.140625 C 19.425781 14.78125 18.804688 14.710938 18.289062 14.960938 C 17.769531 15.210938 17.4375 15.738281 17.4375 16.3125 L 17.4375 26.8125 C 17.4375 27.390625 17.769531 27.914062 18.289062 28.164062 C 18.496094 28.265625 18.71875 28.3125 18.9375 28.3125 C 19.273438 28.3125 19.605469 28.203125 19.875 27.984375 L 26.4375 22.734375 C 26.792969 22.449219 27 22.019531 27 21.5625 C 27 21.109375 26.792969 20.675781 26.4375 20.390625 Z M 36 66.003906 C 19.457031 66.003906 6 52.542969 6 36 C 6 19.460938 19.457031 6 36 6 C 52.542969 6 66.003906 19.460938 66.003906 36 C 66.003906 52.542969 52.542969 66.003906 36 66.003906 Z M 36 3 C 17.804688 3 3 17.804688 3 36 C 3 54.199219 17.804688 69.003906 36 69.003906 C 54.199219 69.003906 69.003906 54.199219 69.003906 36 C 69.003906 17.804688 54.199219 3 36 3 Z M 36 3 "/>
</g>
</svg>
