<?xml version="1.0" encoding="UTF-8"?>
<svg xmlns="http://www.w3.org/2000/svg" xmlns:xlink="http://www.w3.org/1999/xlink" width="72px" height="px" viewBox="0 0 72 72" version="1.1">
<g id="surface1">
<path style=" stroke:none;fill-rule:evenodd;fill:rgb(30.196078%,15.294118%,66.666667%);fill-opacity:1;" d="M 36.003906 66.003906 C 19.457031 66.003906 6 52.542969 6 36 C 6 19.460938 19.457031 6 36.003906 6 C 52.542969 6 66.003906 19.460938 66.003906 36 C 66.003906 52.542969 52.542969 66.003906 36.003906 66.003906 Z M 36.003906 3 C 17.804688 3 3 17.804688 3 36 C 3 54.199219 17.804688 69.003906 36.003906 69.003906 C 54.199219 69.003906 69.003906 54.199219 69.003906 36 C 69.003906 17.804688 54.199219 3 36.003906 3 Z M 43.625 34.941406 C 44.210938 35.527344 44.210938 36.476562 43.625 37.0625 L 39.210938 41.480469 L 37.089844 39.359375 L 38.945312 37.5 L 28.125 37.5 L 28.125 34.5 L 38.945312 34.5 L 37.089844 32.644531 L 39.210938 30.523438 Z M 48.003906 52.878906 L 52.878906 52.878906 L 52.878906 48.003906 L 48.003906 48.003906 Z M 54.378906 45.003906 L 46.503906 45.003906 C 45.671875 45.003906 45.003906 45.671875 45.003906 46.503906 L 45.003906 54.378906 C 45.003906 55.207031 45.671875 55.878906 46.503906 55.878906 L 54.378906 55.878906 C 55.207031 55.878906 55.878906 55.207031 55.878906 54.378906 L 55.878906 46.503906 C 55.878906 45.671875 55.207031 45.003906 54.378906 45.003906 Z M 26.5 28.113281 L 37.441406 22.335938 L 35.089844 21.699219 L 35.875 18.804688 L 41.90625 20.4375 C 42.703125 20.65625 43.175781 21.476562 42.960938 22.277344 L 41.324219 28.308594 L 38.429688 27.523438 L 39.164062 24.820312 L 27.902344 30.765625 Z M 48.003906 24 L 52.878906 24 L 52.878906 19.125 L 48.003906 19.125 Z M 54.378906 16.125 L 46.503906 16.125 C 45.671875 16.125 45.003906 16.796875 45.003906 17.625 L 45.003906 25.5 C 45.003906 26.332031 45.671875 27 46.503906 27 L 54.378906 27 C 55.207031 27 55.878906 26.332031 55.878906 25.5 L 55.878906 17.625 C 55.878906 16.796875 55.207031 16.125 54.378906 16.125 Z M 12.519531 41.019531 L 22.554688 41.019531 L 22.554688 30.984375 L 12.519531 30.984375 Z M 24.054688 27.984375 L 11.019531 27.984375 C 10.1875 27.984375 9.519531 28.65625 9.519531 29.484375 L 9.519531 42.519531 C 9.519531 43.347656 10.1875 44.019531 11.019531 44.019531 L 24.054688 44.019531 C 24.882812 44.019531 25.554688 43.347656 25.554688 42.519531 L 25.554688 29.484375 C 25.554688 28.65625 24.882812 27.984375 24.054688 27.984375 Z M 42.960938 49.726562 C 43.175781 50.527344 42.703125 51.347656 41.90625 51.566406 L 35.875 53.199219 L 35.089844 50.304688 L 37.445312 49.667969 L 26.5 43.894531 L 27.902344 41.238281 L 39.164062 47.183594 L 38.429688 44.476562 L 41.324219 43.691406 Z M 48.003906 38.4375 L 52.878906 38.4375 L 52.878906 33.5625 L 48.003906 33.5625 Z M 54.378906 30.5625 L 46.503906 30.5625 C 45.671875 30.5625 45.003906 31.234375 45.003906 32.0625 L 45.003906 39.9375 C 45.003906 40.769531 45.671875 41.4375 46.503906 41.4375 L 54.378906 41.4375 C 55.207031 41.4375 55.878906 40.769531 55.878906 39.9375 L 55.878906 32.0625 C 55.878906 31.234375 55.207031 30.5625 54.378906 30.5625 Z M 54.378906 30.5625 "/>
</g>
</svg>
