<?xml version="1.0" encoding="UTF-8"?>
<svg width="80px" height="80px" viewBox="0 0 80 80" version="1.1" xmlns="http://www.w3.org/2000/svg" xmlns:xlink="http://www.w3.org/1999/xlink">
    <title>Icon-Architecture/64/Arch_AWS-Private-5G_64</title>
    <defs>
        <linearGradient x1="0%" y1="100%" x2="100%" y2="0%" id="linearGradient-1">
            <stop stop-color="#4D27A8" offset="0%"></stop>
            <stop stop-color="#A166FF" offset="100%"></stop>
        </linearGradient>
    </defs>
    <g id="Icon-Architecture/64/Arch_AWS-Private-5G_64" stroke="none" stroke-width="1" fill="none" fill-rule="evenodd">
        <g id="Rectangle" fill="url(#linearGradient-1)">
            <rect x="0" y="0" width="80" height="80"></rect>
        </g>
        <g id="Icon-Service/64/AWS-Private-5G_64" transform="translate(8.000000, 8.000000)" fill="#FFFFFF">
            <path d="M23.221,12.755 L14.224,5.918 L15.435,4.325 L24.432,11.162 L23.221,12.755 Z M40.179,12.73 L38.968,11.137 L47.964,4.3 L49.175,5.893 L40.179,12.73 Z M34,53.01 L37,53.01 L37,50.01 L34,50.01 L34,53.01 Z M27,53.01 L30,53.01 L30,50.01 L27,50.01 L27,53.01 Z M34,46.01 L37,46.01 L37,43.01 L34,43.01 L34,46.01 Z M27,46.01 L30,46.01 L30,43.01 L27,43.01 L27,46.01 Z M47.964,28.145 L38.968,21.308 L40.179,19.715 L49.175,26.552 L47.964,28.145 Z M42,18.01 L56,18.01 L56,16.01 L42,16.01 L42,18.01 Z M23.221,19.74 L24.432,21.333 L15.435,28.17 L14.224,26.577 L23.221,19.74 Z M9,18.01 L23,18.01 L23,16.01 L9,16.01 L9,18.01 Z M42,57.676 L42,50.56 C53.558,51.574 57.757,53.491 57.99,54.311 C57.526,55.344 51.978,56.98 42,57.676 L42,57.676 Z M40,57.802 C37.562,57.932 34.901,58.01 32,58.01 C29.1,58.01 26.439,57.932 24,57.802 L24,39.01 L40,39.01 L40,57.802 Z M22,48.586 C16.026,49.09 9.485,50.025 6.177,51.759 C7.659,39.865 18.065,30.775 31,30.323 L31,37.01 L22,37.01 L22,48.586 Z M22,57.677 C11.964,56.978 6.406,55.334 6.003,54.335 C6.207,53.524 10.406,51.598 22,50.598 L22,57.677 Z M28,16.01 C28,13.805 29.794,12.01 32,12.01 C34.206,12.01 36,13.805 36,16.01 C36,18.216 34.206,20.01 32,20.01 C29.794,20.01 28,18.216 28,16.01 L28,16.01 Z M57.706,51.688 C54.373,49.988 47.94,49.057 42,48.548 L42,37.01 L33,37.01 L33,30.324 C45.298,30.795 55.767,39.986 57.706,51.688 L57.706,51.688 Z M59.996,54.282 L59.999,54.281 C59.29,40.278 47.276,28.833 33,28.324 L33,21.92 C35.833,21.442 38,18.978 38,16.01 C38,12.702 35.309,10.01 32,10.01 C28.692,10.01 26,12.702 26,16.01 C26,18.978 28.167,21.442 31,21.92 L31,28.323 C16.159,28.807 4.384,39.9 4,53.983 L4.035,53.984 C4.013,54.098 4,54.214 4,54.332 C4,59.946 30.857,60.01 32,60.01 C33.144,60.01 60,59.946 60,54.332 C60,54.315 59.996,54.299 59.996,54.282 L59.996,54.282 Z" id="Fill-1"></path>
        </g>
    </g>
</svg>