<?xml version="1.0" encoding="UTF-8"?>
<svg width="80px" height="80px" viewBox="0 0 80 80" version="1.1" xmlns="http://www.w3.org/2000/svg" xmlns:xlink="http://www.w3.org/1999/xlink">
    <title>Icon-Architecture/64/Arch_AWS-Resilience-Hub_64</title>
    <defs>
        <linearGradient x1="0%" y1="100%" x2="100%" y2="0%" id="linearGradient-1">
            <stop stop-color="#B0084D" offset="0%"></stop>
            <stop stop-color="#FF4F8B" offset="100%"></stop>
        </linearGradient>
    </defs>
    <g id="Icon-Architecture/64/Arch_AWS-Resilience-Hub_64" stroke="none" stroke-width="1" fill="none" fill-rule="evenodd">
        <g id="Rectangle" fill="url(#linearGradient-1)">
            <rect x="0" y="0" width="80" height="80"></rect>
        </g>
        <g id="Icon-Service/64/AWS-Resilience-Hub_64" transform="translate(8.000000, 8.000000)" fill="#FFFFFF">
            <path d="M43,46.1184246 L48.729,46.1184246 C46.762,51.0214246 41.987,54.2854246 36.667,54.2854246 C29.499,54.2854246 23.667,48.4534246 23.667,41.2854246 C23.667,34.1164246 29.499,28.2854246 36.667,28.2854246 C43.381,28.2854246 49.071,33.5184246 49.622,40.2004246 L51.616,40.0364246 C50.979,32.3254246 44.413,26.2854246 36.667,26.2854246 C28.396,26.2854246 21.667,33.0144246 21.667,41.2854246 C21.667,49.5564246 28.396,56.2854246 36.667,56.2854246 C42.329,56.2854246 47.457,53.0814246 50,48.1444246 L50,52.9514246 L52,52.9514246 L52,44.1184246 L43,44.1184246 L43,46.1184246 Z M29.625,42.3374246 L28.375,43.8994246 L33.375,47.8994246 C33.56,48.0464246 33.78,48.1184246 34,48.1184246 C34.272,48.1184246 34.543,48.0074246 34.74,47.7914246 L44.74,36.7914246 L43.26,35.4454246 L33.892,45.7514246 L29.625,42.3374246 Z M60.0004452,34.2434246 C59.97,37.7064246 58.608,39.8904246 57.472,41.1134246 L56.007,39.7514246 C56.902,38.7884246 57.976,37.0474246 58,34.2264246 C58.039,29.6434246 55.33,26.9454246 49.72,25.9774246 C49.2,25.8884246 48.839,25.4104246 48.896,24.8864246 C49.261,21.4664246 47.446,19.4934246 45.627,18.7864246 C43.784,18.0724246 41.88,18.5764246 40.777,20.0744246 C40.557,20.3724246 40.196,20.5234246 39.824,20.4714246 C39.458,20.4164246 39.151,20.1634246 39.028,19.8134246 C38.163,17.3554246 36.432,15.2764246 35.132,13.9654246 C33.253,12.0724246 28.099,8.00242455 20.821,11.0974246 C16.614,12.8884246 13.318,18.0454246 13.318,22.8384246 C13.318,23.2784246 13.388,24.1604246 13.415,24.4624246 C13.458,24.9504246 13.143,25.3974246 12.668,25.5194246 C10.178,26.1604246 6,28.1334246 6,34.1514246 C6,34.4654246 6.012,34.7684246 6.035,35.0624246 C6.393,39.6474246 9.625,42.7264246 12.421,42.7264246 L17.931,42.7264246 L17.931,44.7264246 L12.421,44.7264246 C8.747,44.7264246 4.499,41.0924246 4.041,35.2194246 C4.014,34.8764246 4,34.5194246 4,34.1514246 C4,27.2604246 8.646,24.7174246 11.36,23.8204246 C11.338,23.4844246 11.318,23.1114246 11.318,22.8384246 C11.318,17.2114246 15.067,11.3724246 20.038,9.25742455 C25.866,6.77742455 32.039,8.01142455 36.552,12.5564246 C37.742,13.7574246 39.261,15.5474246 40.312,17.7124246 C41.968,16.4294246 44.229,16.0994246 46.351,16.9224246 C48.579,17.7874246 51.006,20.1834246 50.941,24.1774246 C58.457,25.7924246 60.031,30.5034246 60.0004452,34.2434246 L60.0004452,34.2434246 Z" id="Icon-Service/64/AWS-Resilience-Hub_64_Squid"></path>
        </g>
    </g>
</svg>