<?xml version="1.0" encoding="UTF-8"?>
<svg xmlns="http://www.w3.org/2000/svg" xmlns:xlink="http://www.w3.org/1999/xlink" width="72px" height="px" viewBox="0 0 72 72" version="1.1">
<g id="surface1">
<path style=" stroke:none;fill-rule:evenodd;fill:rgb(30.196078%,15.294118%,66.666667%);fill-opacity:1;" d="M 6 64.605469 L 65.914062 64.605469 L 65.914062 50.566406 L 6 50.566406 Z M 68.914062 49.066406 L 68.914062 66.105469 C 68.914062 66.933594 68.246094 67.605469 67.414062 67.605469 L 4.5 67.605469 C 3.671875 67.605469 3 66.933594 3 66.105469 L 3 49.066406 C 3 48.238281 3.671875 47.566406 4.5 47.566406 L 67.414062 47.566406 C 68.246094 47.566406 68.914062 48.238281 68.914062 49.066406 Z M 6 42.320312 L 65.914062 42.320312 L 65.914062 28.28125 L 6 28.28125 Z M 68.914062 26.78125 L 68.914062 43.824219 C 68.914062 44.652344 68.246094 45.324219 67.414062 45.324219 L 4.5 45.324219 C 3.671875 45.324219 3 44.652344 3 43.824219 L 3 26.78125 C 3 25.953125 3.671875 25.28125 4.5 25.28125 L 67.414062 25.28125 C 68.246094 25.28125 68.914062 25.953125 68.914062 26.78125 Z M 6 20.039062 L 65.914062 20.039062 L 65.914062 6 L 6 6 Z M 68.914062 4.5 L 68.914062 21.539062 C 68.914062 22.367188 68.246094 23.039062 67.414062 23.039062 L 4.5 23.039062 C 3.671875 23.039062 3 22.367188 3 21.539062 L 3 4.5 C 3 3.671875 3.671875 3 4.5 3 L 67.414062 3 C 68.246094 3 68.914062 3.671875 68.914062 4.5 Z M 59.097656 57.625 C 59.097656 58.910156 59.21875 59.839844 59.460938 60.417969 C 59.703125 60.996094 60.085938 61.28125 60.617188 61.28125 C 61.144531 61.28125 61.53125 60.996094 61.773438 60.417969 C 62.011719 59.839844 62.132812 58.910156 62.132812 57.625 C 62.132812 56.347656 62.011719 55.421875 61.773438 54.847656 C 61.53125 54.269531 61.144531 53.980469 60.617188 53.980469 C 60.085938 53.980469 59.703125 54.269531 59.460938 54.847656 C 59.21875 55.421875 59.097656 56.347656 59.097656 57.625 Z M 58.480469 61.136719 C 57.992188 60.332031 57.75 59.164062 57.75 57.625 C 57.75 56.085938 57.992188 54.917969 58.480469 54.117188 C 58.964844 53.320312 59.679688 52.917969 60.617188 52.917969 C 61.554688 52.917969 62.265625 53.320312 62.753906 54.117188 C 63.242188 54.917969 63.484375 56.085938 63.484375 57.625 C 63.484375 59.171875 63.242188 60.34375 62.753906 61.144531 C 62.265625 61.945312 61.554688 62.34375 60.617188 62.34375 C 59.679688 62.34375 58.964844 61.941406 58.480469 61.136719 Z M 55.660156 62.304688 C 55.910156 62.304688 56.113281 62.226562 56.265625 62.074219 C 56.417969 61.921875 56.496094 61.71875 56.496094 61.464844 C 56.496094 61.210938 56.417969 61.007812 56.265625 60.855469 C 56.113281 60.703125 55.910156 60.628906 55.660156 60.628906 C 55.410156 60.628906 55.207031 60.703125 55.054688 60.855469 C 54.902344 61.007812 54.824219 61.210938 54.824219 61.464844 C 54.824219 61.71875 54.902344 61.921875 55.054688 62.074219 C 55.207031 62.226562 55.410156 62.304688 55.660156 62.304688 Z M 53.375 61.085938 L 49.589844 61.085938 C 50.664062 59.773438 51.425781 58.804688 51.871094 58.167969 C 52.316406 57.535156 52.625 57.003906 52.789062 56.574219 C 52.957031 56.148438 53.042969 55.734375 53.042969 55.332031 C 53.042969 54.570312 52.84375 53.980469 52.441406 53.554688 C 52.042969 53.132812 51.488281 52.917969 50.773438 52.917969 C 50.363281 52.917969 49.964844 52.988281 49.574219 53.121094 C 49.1875 53.257812 48.78125 53.472656 48.363281 53.769531 L 48.363281 54.886719 C 49.246094 54.324219 49.972656 54.046875 50.550781 54.046875 C 51.304688 54.046875 51.679688 54.5 51.679688 55.410156 C 51.679688 55.820312 51.570312 56.253906 51.359375 56.707031 C 51.140625 57.160156 50.792969 57.730469 50.300781 58.417969 C 49.808594 59.101562 49.09375 60.027344 48.15625 61.191406 L 48.15625 62.171875 L 53.375 62.171875 Z M 45.746094 62.304688 C 45.996094 62.304688 46.199219 62.226562 46.351562 62.074219 C 46.503906 61.921875 46.582031 61.71875 46.582031 61.464844 C 46.582031 61.210938 46.503906 61.007812 46.351562 60.855469 C 46.199219 60.703125 45.996094 60.628906 45.746094 60.628906 C 45.496094 60.628906 45.292969 60.703125 45.140625 60.855469 C 44.988281 61.007812 44.910156 61.210938 44.910156 61.464844 C 44.910156 61.71875 44.988281 61.921875 45.140625 62.074219 C 45.292969 62.226562 45.496094 62.304688 45.746094 62.304688 Z M 39.382812 58.175781 C 39.382812 59.261719 39.503906 60.050781 39.753906 60.554688 C 40 61.058594 40.382812 61.308594 40.914062 61.308594 C 41.796875 61.308594 42.238281 60.691406 42.238281 59.460938 C 42.238281 58.890625 42.121094 58.457031 41.890625 58.15625 C 41.65625 57.855469 41.316406 57.703125 40.859375 57.703125 C 40.378906 57.703125 39.886719 57.824219 39.382812 58.070312 Z M 38.761719 61.261719 C 38.304688 60.542969 38.074219 59.429688 38.074219 57.925781 C 38.074219 56.308594 38.351562 55.070312 38.902344 54.210938 C 39.457031 53.347656 40.242188 52.917969 41.261719 52.917969 C 41.578125 52.917969 41.898438 52.957031 42.21875 53.035156 C 42.535156 53.117188 42.816406 53.21875 43.058594 53.351562 L 43.058594 54.308594 C 42.828125 54.203125 42.5625 54.117188 42.265625 54.054688 C 41.96875 53.988281 41.691406 53.953125 41.429688 53.953125 C 40.773438 53.953125 40.28125 54.214844 39.953125 54.734375 C 39.628906 55.253906 39.441406 56.082031 39.398438 57.21875 C 39.992188 56.871094 40.605469 56.695312 41.238281 56.695312 C 41.941406 56.695312 42.503906 56.941406 42.925781 57.429688 C 43.351562 57.917969 43.5625 58.570312 43.5625 59.382812 C 43.5625 60.289062 43.316406 61.011719 42.835938 61.542969 C 42.355469 62.074219 41.699219 62.34375 40.875 62.34375 C 39.925781 62.34375 39.222656 61.984375 38.761719 61.261719 Z M 33.953125 62.171875 L 35.277344 62.171875 L 35.277344 53.089844 L 34.066406 53.089844 L 31.878906 54.335938 L 31.878906 55.410156 L 33.953125 54.425781 Z M 29.066406 62.304688 C 29.316406 62.304688 29.519531 62.226562 29.671875 62.074219 C 29.824219 61.921875 29.902344 61.71875 29.902344 61.464844 C 29.902344 61.210938 29.824219 61.007812 29.671875 60.855469 C 29.519531 60.703125 29.316406 60.628906 29.066406 60.628906 C 28.816406 60.628906 28.613281 60.703125 28.460938 60.855469 C 28.308594 61.007812 28.230469 61.210938 28.230469 61.464844 C 28.230469 61.71875 28.308594 61.921875 28.460938 62.074219 C 28.613281 62.226562 28.816406 62.304688 29.066406 62.304688 Z M 26.78125 61.085938 L 22.996094 61.085938 C 24.070312 59.773438 24.835938 58.804688 25.277344 58.167969 C 25.726562 57.535156 26.03125 57.003906 26.199219 56.574219 C 26.367188 56.148438 26.449219 55.734375 26.449219 55.332031 C 26.449219 54.570312 26.25 53.980469 25.847656 53.554688 C 25.449219 53.132812 24.894531 52.917969 24.179688 52.917969 C 23.769531 52.917969 23.371094 52.988281 22.984375 53.121094 C 22.589844 53.257812 22.191406 53.472656 21.769531 53.769531 L 21.769531 54.886719 C 22.652344 54.324219 23.378906 54.046875 23.957031 54.046875 C 24.710938 54.046875 25.085938 54.5 25.085938 55.410156 C 25.085938 55.820312 24.976562 56.253906 24.765625 56.707031 C 24.550781 57.160156 24.199219 57.730469 23.707031 58.417969 C 23.214844 59.101562 22.5 60.027344 21.5625 61.191406 L 21.5625 62.171875 L 26.78125 62.171875 Z M 15.644531 62.171875 L 17.007812 62.171875 L 19.921875 54.058594 L 19.921875 53.089844 L 14.601562 53.089844 L 14.601562 54.175781 L 18.597656 54.175781 Z M 10.507812 62.171875 L 11.828125 62.171875 L 11.828125 53.089844 L 10.617188 53.089844 L 8.429688 54.335938 L 8.429688 55.410156 L 10.507812 54.425781 Z M 59.097656 34.855469 C 59.097656 36.140625 59.21875 37.074219 59.460938 37.648438 C 59.703125 38.222656 60.085938 38.511719 60.617188 38.511719 C 61.144531 38.511719 61.53125 38.222656 61.773438 37.648438 C 62.011719 37.074219 62.132812 36.140625 62.132812 34.855469 C 62.132812 33.582031 62.011719 32.652344 61.773438 32.078125 C 61.53125 31.5 61.144531 31.210938 60.617188 31.210938 C 60.085938 31.210938 59.703125 31.5 59.460938 32.078125 C 59.21875 32.652344 59.097656 33.582031 59.097656 34.855469 Z M 58.480469 38.371094 C 57.992188 37.566406 57.75 36.394531 57.75 34.855469 C 57.75 33.320312 57.992188 32.148438 58.480469 31.351562 C 58.964844 30.550781 59.679688 30.148438 60.617188 30.148438 C 61.554688 30.148438 62.265625 30.550781 62.753906 31.351562 C 63.242188 32.148438 63.484375 33.320312 63.484375 34.855469 C 63.484375 36.402344 63.242188 37.574219 62.753906 38.375 C 62.265625 39.175781 61.554688 39.574219 60.617188 39.574219 C 59.679688 39.574219 58.964844 39.175781 58.480469 38.371094 Z M 55.660156 39.535156 C 55.910156 39.535156 56.113281 39.460938 56.265625 39.304688 C 56.417969 39.152344 56.496094 38.949219 56.496094 38.695312 C 56.496094 38.445312 56.417969 38.242188 56.265625 38.085938 C 56.113281 37.933594 55.910156 37.859375 55.660156 37.859375 C 55.410156 37.859375 55.207031 37.933594 55.054688 38.085938 C 54.902344 38.242188 54.824219 38.445312 54.824219 38.695312 C 54.824219 38.949219 54.902344 39.152344 55.054688 39.304688 C 55.207031 39.460938 55.410156 39.535156 55.660156 39.535156 Z M 50.632812 39.40625 L 51.957031 39.40625 L 51.957031 30.320312 L 50.746094 30.320312 L 48.558594 31.566406 L 48.558594 32.640625 L 50.632812 31.65625 Z M 45.746094 39.535156 C 45.996094 39.535156 46.199219 39.460938 46.351562 39.304688 C 46.503906 39.152344 46.582031 38.949219 46.582031 38.695312 C 46.582031 38.445312 46.503906 38.242188 46.351562 38.085938 C 46.199219 37.933594 45.996094 37.859375 45.746094 37.859375 C 45.496094 37.859375 45.292969 37.933594 45.140625 38.085938 C 44.988281 38.242188 44.910156 38.445312 44.910156 38.695312 C 44.910156 38.949219 44.988281 39.152344 45.140625 39.304688 C 45.292969 39.460938 45.496094 39.535156 45.746094 39.535156 Z M 39.382812 35.40625 C 39.382812 36.492188 39.503906 37.285156 39.753906 37.785156 C 40 38.289062 40.382812 38.539062 40.914062 38.539062 C 41.796875 38.539062 42.238281 37.925781 42.238281 36.691406 C 42.238281 36.125 42.121094 35.691406 41.890625 35.386719 C 41.65625 35.085938 41.316406 34.933594 40.859375 34.933594 C 40.378906 34.933594 39.886719 35.058594 39.382812 35.300781 Z M 38.761719 38.496094 C 38.304688 37.773438 38.074219 36.660156 38.074219 35.15625 C 38.074219 33.542969 38.351562 32.300781 38.902344 31.441406 C 39.457031 30.582031 40.242188 30.148438 41.261719 30.148438 C 41.578125 30.148438 41.898438 30.191406 42.21875 30.269531 C 42.535156 30.347656 42.816406 30.453125 43.058594 30.582031 L 43.058594 31.539062 C 42.828125 31.433594 42.5625 31.351562 42.265625 31.285156 C 41.96875 31.21875 41.691406 31.1875 41.429688 31.1875 C 40.773438 31.1875 40.28125 31.445312 39.953125 31.964844 C 39.628906 32.484375 39.441406 33.316406 39.398438 34.449219 C 39.992188 34.101562 40.605469 33.925781 41.238281 33.925781 C 41.941406 33.925781 42.503906 34.171875 42.925781 34.660156 C 43.351562 35.148438 43.5625 35.800781 43.5625 36.613281 C 43.5625 37.519531 43.316406 38.242188 42.835938 38.773438 C 42.355469 39.308594 41.699219 39.574219 40.875 39.574219 C 39.925781 39.574219 39.222656 39.214844 38.761719 38.496094 Z M 33.953125 39.40625 L 35.277344 39.40625 L 35.277344 30.320312 L 34.066406 30.320312 L 31.878906 31.566406 L 31.878906 32.640625 L 33.953125 31.65625 Z M 29.066406 39.535156 C 29.316406 39.535156 29.519531 39.460938 29.671875 39.304688 C 29.824219 39.152344 29.902344 38.949219 29.902344 38.695312 C 29.902344 38.445312 29.824219 38.242188 29.671875 38.085938 C 29.519531 37.933594 29.316406 37.859375 29.066406 37.859375 C 28.816406 37.859375 28.613281 37.933594 28.460938 38.085938 C 28.308594 38.242188 28.230469 38.445312 28.230469 38.695312 C 28.230469 38.949219 28.308594 39.152344 28.460938 39.304688 C 28.613281 39.460938 28.816406 39.535156 29.066406 39.535156 Z M 26.78125 38.316406 L 22.996094 38.316406 C 24.070312 37.007812 24.835938 36.03125 25.277344 35.398438 C 25.726562 34.765625 26.03125 34.234375 26.199219 33.808594 C 26.367188 33.378906 26.449219 32.964844 26.449219 32.5625 C 26.449219 31.804688 26.25 31.210938 25.847656 30.785156 C 25.449219 30.363281 24.894531 30.148438 24.179688 30.148438 C 23.769531 30.148438 23.371094 30.21875 22.984375 30.355469 C 22.589844 30.488281 22.191406 30.703125 21.769531 31.003906 L 21.769531 32.117188 C 22.652344 31.558594 23.378906 31.277344 23.957031 31.277344 C 24.710938 31.277344 25.085938 31.734375 25.085938 32.640625 C 25.085938 33.050781 24.976562 33.484375 24.765625 33.9375 C 24.550781 34.394531 24.199219 34.964844 23.707031 35.648438 C 23.214844 36.335938 22.5 37.261719 21.5625 38.421875 L 21.5625 39.40625 L 26.78125 39.40625 Z M 15.644531 39.40625 L 17.007812 39.40625 L 19.921875 31.292969 L 19.921875 30.320312 L 14.601562 30.320312 L 14.601562 31.410156 L 18.597656 31.410156 Z M 10.507812 39.40625 L 11.828125 39.40625 L 11.828125 30.320312 L 10.617188 30.320312 L 8.429688 31.566406 L 8.429688 32.640625 L 10.507812 31.65625 Z M 59.097656 13.375 C 59.097656 14.660156 59.21875 15.589844 59.460938 16.167969 C 59.703125 16.746094 60.085938 17.03125 60.617188 17.03125 C 61.144531 17.03125 61.53125 16.746094 61.773438 16.167969 C 62.011719 15.589844 62.132812 14.660156 62.132812 13.375 C 62.132812 12.101562 62.011719 11.171875 61.773438 10.597656 C 61.53125 10.019531 61.144531 9.730469 60.617188 9.730469 C 60.085938 9.730469 59.703125 10.019531 59.460938 10.597656 C 59.21875 11.171875 59.097656 12.101562 59.097656 13.375 Z M 58.480469 16.886719 C 57.992188 16.085938 57.75 14.914062 57.75 13.375 C 57.75 11.839844 57.992188 10.667969 58.480469 9.871094 C 58.964844 9.070312 59.679688 8.671875 60.617188 8.671875 C 61.554688 8.671875 62.265625 9.070312 62.753906 9.871094 C 63.242188 10.667969 63.484375 11.839844 63.484375 13.375 C 63.484375 14.921875 63.242188 16.09375 62.753906 16.894531 C 62.265625 17.695312 61.554688 18.09375 60.617188 18.09375 C 59.679688 18.09375 58.964844 17.691406 58.480469 16.886719 Z M 55.660156 18.054688 C 55.910156 18.054688 56.113281 17.980469 56.265625 17.824219 C 56.417969 17.671875 56.496094 17.46875 56.496094 17.214844 C 56.496094 16.960938 56.417969 16.761719 56.265625 16.605469 C 56.113281 16.453125 55.910156 16.378906 55.660156 16.378906 C 55.410156 16.378906 55.207031 16.453125 55.054688 16.605469 C 54.902344 16.761719 54.824219 16.960938 54.824219 17.214844 C 54.824219 17.46875 54.902344 17.671875 55.054688 17.824219 C 55.207031 17.980469 55.410156 18.054688 55.660156 18.054688 Z M 49.1875 13.375 C 49.1875 14.660156 49.304688 15.589844 49.546875 16.167969 C 49.789062 16.746094 50.171875 17.03125 50.703125 17.03125 C 51.230469 17.03125 51.617188 16.746094 51.859375 16.167969 C 52.101562 15.589844 52.21875 14.660156 52.21875 13.375 C 52.21875 12.101562 52.101562 11.171875 51.859375 10.597656 C 51.617188 10.019531 51.230469 9.730469 50.703125 9.730469 C 50.171875 9.730469 49.789062 10.019531 49.546875 10.597656 C 49.304688 11.171875 49.1875 12.101562 49.1875 13.375 Z M 48.566406 16.886719 C 48.078125 16.085938 47.835938 14.914062 47.835938 13.375 C 47.835938 11.839844 48.078125 10.667969 48.566406 9.871094 C 49.054688 9.070312 49.765625 8.671875 50.703125 8.671875 C 51.640625 8.671875 52.351562 9.070312 52.839844 9.871094 C 53.328125 10.667969 53.570312 11.839844 53.570312 13.375 C 53.570312 14.921875 53.328125 16.09375 52.839844 16.894531 C 52.351562 17.695312 51.640625 18.09375 50.703125 18.09375 C 49.765625 18.09375 49.054688 17.691406 48.566406 16.886719 Z M 45.746094 18.054688 C 45.996094 18.054688 46.199219 17.980469 46.351562 17.824219 C 46.503906 17.671875 46.582031 17.46875 46.582031 17.214844 C 46.582031 16.960938 46.503906 16.761719 46.351562 16.605469 C 46.199219 16.453125 45.996094 16.378906 45.746094 16.378906 C 45.496094 16.378906 45.292969 16.453125 45.140625 16.605469 C 44.988281 16.761719 44.910156 16.960938 44.910156 17.214844 C 44.910156 17.46875 44.988281 17.671875 45.140625 17.824219 C 45.292969 17.980469 45.496094 18.054688 45.746094 18.054688 Z M 39.382812 13.925781 C 39.382812 15.011719 39.503906 15.804688 39.753906 16.304688 C 40 16.808594 40.382812 17.058594 40.914062 17.058594 C 41.796875 17.058594 42.238281 16.441406 42.238281 15.210938 C 42.238281 14.640625 42.121094 14.207031 41.890625 13.90625 C 41.65625 13.605469 41.316406 13.453125 40.859375 13.453125 C 40.378906 13.453125 39.886719 13.578125 39.382812 13.824219 Z M 38.761719 17.011719 C 38.304688 16.292969 38.074219 15.179688 38.074219 13.675781 C 38.074219 12.0625 38.351562 10.824219 38.902344 9.960938 C 39.457031 9.101562 40.242188 8.671875 41.261719 8.671875 C 41.578125 8.671875 41.898438 8.710938 42.21875 8.785156 C 42.535156 8.867188 42.816406 8.972656 43.058594 9.101562 L 43.058594 10.058594 C 42.828125 9.953125 42.5625 9.871094 42.265625 9.804688 C 41.96875 9.738281 41.691406 9.703125 41.429688 9.703125 C 40.773438 9.703125 40.28125 9.964844 39.953125 10.488281 C 39.628906 11.003906 39.441406 11.832031 39.398438 12.96875 C 39.992188 12.621094 40.605469 12.445312 41.238281 12.445312 C 41.941406 12.445312 42.503906 12.691406 42.925781 13.179688 C 43.351562 13.667969 43.5625 14.320312 43.5625 15.132812 C 43.5625 16.039062 43.316406 16.761719 42.835938 17.296875 C 42.355469 17.828125 41.699219 18.09375 40.875 18.09375 C 39.925781 18.09375 39.222656 17.734375 38.761719 17.011719 Z M 33.953125 17.925781 L 35.277344 17.925781 L 35.277344 8.839844 L 34.066406 8.839844 L 31.878906 10.085938 L 31.878906 11.160156 L 33.953125 10.175781 Z M 29.066406 18.054688 C 29.316406 18.054688 29.519531 17.980469 29.671875 17.824219 C 29.824219 17.671875 29.902344 17.46875 29.902344 17.214844 C 29.902344 16.960938 29.824219 16.761719 29.671875 16.605469 C 29.519531 16.453125 29.316406 16.378906 29.066406 16.378906 C 28.816406 16.378906 28.613281 16.453125 28.460938 16.605469 C 28.308594 16.761719 28.230469 16.960938 28.230469 17.214844 C 28.230469 17.46875 28.308594 17.671875 28.460938 17.824219 C 28.613281 17.980469 28.816406 18.054688 29.066406 18.054688 Z M 26.78125 16.835938 L 22.996094 16.835938 C 24.070312 15.523438 24.835938 14.554688 25.277344 13.921875 C 25.726562 13.285156 26.03125 12.757812 26.199219 12.328125 C 26.367188 11.898438 26.449219 11.484375 26.449219 11.082031 C 26.449219 10.324219 26.25 9.730469 25.847656 9.304688 C 25.449219 8.882812 24.894531 8.671875 24.179688 8.671875 C 23.769531 8.671875 23.371094 8.738281 22.984375 8.875 C 22.589844 9.007812 22.191406 9.226562 21.769531 9.523438 L 21.769531 10.636719 C 22.652344 10.078125 23.378906 9.796875 23.957031 9.796875 C 24.710938 9.796875 25.085938 10.253906 25.085938 11.160156 C 25.085938 11.574219 24.976562 12.003906 24.765625 12.457031 C 24.550781 12.910156 24.199219 13.484375 23.707031 14.167969 C 23.214844 14.855469 22.5 15.777344 21.5625 16.941406 L 21.5625 17.925781 L 26.78125 17.925781 Z M 15.644531 17.925781 L 17.007812 17.925781 L 19.921875 9.8125 L 19.921875 8.839844 L 14.601562 8.839844 L 14.601562 9.929688 L 18.597656 9.929688 Z M 10.507812 10.175781 L 8.429688 11.160156 L 8.429688 10.085938 L 10.617188 8.839844 L 11.828125 8.839844 L 11.828125 17.925781 L 10.507812 17.925781 Z M 10.507812 10.175781 "/>
</g>
</svg>
