<?xml version="1.0" encoding="UTF-8"?>
<svg xmlns="http://www.w3.org/2000/svg" xmlns:xlink="http://www.w3.org/1999/xlink" width="72px" height="px" viewBox="0 0 72 72" version="1.1">
<g id="surface1">
<path style=" stroke:none;fill-rule:evenodd;fill:rgb(24.705882%,52.54902%,14.117647%);fill-opacity:1;" d="M 60.753906 39.238281 L 61.089844 36.742188 C 63.769531 38.371094 64.59375 39.3125 64.835938 39.710938 C 64.125 39.925781 62.691406 39.738281 60.753906 39.238281 Z M 34.203125 30.167969 C 34.203125 30.085938 34.265625 30.023438 34.347656 30.023438 C 34.371094 30.023438 34.386719 30.039062 34.40625 30.046875 L 34.296875 30.269531 C 34.246094 30.253906 34.203125 30.222656 34.203125 30.167969 Z M 54.769531 61.195312 C 54.761719 61.265625 54.757812 61.332031 54.757812 61.398438 C 54.757812 61.628906 54.1875 62.511719 51.660156 63.511719 C 50.535156 63.957031 49.203125 64.355469 47.703125 64.699219 C 43.839844 65.59375 39.09375 66.085938 34.34375 66.085938 C 21.644531 66.085938 13.933594 62.832031 13.933594 61.398438 C 13.933594 61.332031 13.929688 61.265625 13.917969 61.195312 L 8.160156 18.425781 C 8.53125 18.644531 8.929688 18.847656 9.347656 19.050781 C 9.464844 19.105469 9.59375 19.160156 9.714844 19.21875 C 10.078125 19.382812 10.449219 19.546875 10.839844 19.699219 C 11.007812 19.765625 11.175781 19.832031 11.351562 19.898438 C 11.765625 20.054688 12.191406 20.203125 12.632812 20.347656 C 12.765625 20.390625 12.890625 20.4375 13.019531 20.476562 C 13.589844 20.65625 14.179688 20.824219 14.785156 20.988281 C 14.957031 21.03125 15.132812 21.074219 15.304688 21.117188 C 15.773438 21.238281 16.25 21.351562 16.738281 21.460938 C 16.949219 21.507812 17.15625 21.554688 17.371094 21.597656 C 17.917969 21.710938 18.476562 21.824219 19.046875 21.925781 C 19.167969 21.949219 19.289062 21.972656 19.414062 21.996094 C 20.101562 22.117188 20.804688 22.226562 21.515625 22.332031 C 21.71875 22.359375 21.921875 22.386719 22.125 22.414062 C 22.667969 22.488281 23.214844 22.558594 23.765625 22.621094 C 23.992188 22.648438 24.21875 22.675781 24.445312 22.699219 C 25.109375 22.769531 25.78125 22.835938 26.460938 22.894531 C 26.539062 22.898438 26.621094 22.90625 26.703125 22.914062 C 27.457031 22.976562 28.21875 23.023438 28.980469 23.070312 C 29.199219 23.082031 29.417969 23.089844 29.636719 23.101562 C 30.210938 23.128906 30.789062 23.152344 31.363281 23.171875 C 31.589844 23.179688 31.8125 23.1875 32.039062 23.191406 C 32.808594 23.210938 33.578125 23.222656 34.34375 23.222656 C 35.109375 23.222656 35.878906 23.210938 36.648438 23.191406 C 36.871094 23.1875 37.097656 23.179688 37.324219 23.171875 C 37.902344 23.152344 38.476562 23.128906 39.050781 23.101562 C 39.269531 23.089844 39.488281 23.082031 39.707031 23.070312 C 40.472656 23.023438 41.230469 22.976562 41.984375 22.914062 C 42.070312 22.90625 42.152344 22.898438 42.234375 22.894531 C 42.910156 22.835938 43.578125 22.769531 44.242188 22.699219 C 44.472656 22.675781 44.699219 22.648438 44.925781 22.621094 C 45.476562 22.558594 46.019531 22.488281 46.558594 22.414062 C 46.765625 22.386719 46.972656 22.359375 47.175781 22.332031 C 47.886719 22.226562 48.589844 22.117188 49.277344 21.996094 C 49.402344 21.972656 49.523438 21.949219 49.648438 21.925781 C 50.214844 21.824219 50.773438 21.710938 51.320312 21.597656 C 51.535156 21.554688 51.742188 21.507812 51.953125 21.460938 C 52.441406 21.351562 52.917969 21.234375 53.386719 21.117188 C 53.558594 21.074219 53.734375 21.03125 53.902344 20.988281 C 54.511719 20.824219 55.101562 20.65625 55.671875 20.476562 C 55.800781 20.4375 55.925781 20.394531 56.050781 20.347656 C 56.496094 20.207031 56.925781 20.054688 57.34375 19.894531 C 57.515625 19.832031 57.683594 19.769531 57.847656 19.703125 C 58.242188 19.546875 58.617188 19.382812 58.984375 19.214844 C 59.101562 19.160156 59.226562 19.105469 59.34375 19.050781 C 59.761719 18.851562 60.160156 18.644531 60.53125 18.425781 L 57.84375 38.386719 C 52.386719 36.636719 44.726562 33.460938 37.472656 30.011719 C 37.390625 28.351562 36.027344 27.023438 34.347656 27.023438 C 32.613281 27.023438 31.203125 28.433594 31.203125 30.167969 C 31.203125 31.898438 32.613281 33.308594 34.347656 33.308594 C 35.027344 33.308594 35.65625 33.085938 36.167969 32.714844 C 42.667969 35.832031 50.964844 39.511719 57.4375 41.382812 Z M 34.34375 6 C 49.972656 6 60.984375 10.84375 61.1875 13.53125 L 61.148438 13.84375 C 61.121094 13.9375 61.0625 14.03125 61.015625 14.128906 C 60.972656 14.207031 60.941406 14.28125 60.886719 14.359375 C 60.820312 14.453125 60.722656 14.546875 60.640625 14.640625 C 60.5625 14.722656 60.496094 14.808594 60.40625 14.890625 C 60.304688 14.980469 60.171875 15.078125 60.050781 15.167969 C 59.941406 15.257812 59.839844 15.34375 59.710938 15.429688 C 59.574219 15.519531 59.410156 15.613281 59.257812 15.707031 C 59.109375 15.796875 58.972656 15.886719 58.808594 15.972656 C 58.640625 16.0625 58.449219 16.152344 58.265625 16.242188 C 58.082031 16.332031 57.90625 16.421875 57.703125 16.511719 C 57.507812 16.597656 57.289062 16.683594 57.082031 16.769531 C 56.855469 16.859375 56.644531 16.953125 56.40625 17.042969 C 56.183594 17.125 55.933594 17.207031 55.699219 17.289062 C 55.441406 17.375 55.195312 17.464844 54.921875 17.554688 C 54.671875 17.632812 54.390625 17.710938 54.121094 17.789062 C 53.835938 17.871094 53.5625 17.957031 53.261719 18.039062 C 52.976562 18.117188 52.664062 18.1875 52.363281 18.265625 C 52.054688 18.339844 51.753906 18.421875 51.429688 18.496094 C 51.105469 18.570312 50.757812 18.636719 50.417969 18.707031 C 50.089844 18.773438 49.773438 18.847656 49.429688 18.910156 C 49.070312 18.980469 48.683594 19.042969 48.308594 19.105469 C 47.964844 19.164062 47.628906 19.226562 47.273438 19.28125 C 46.882812 19.34375 46.46875 19.398438 46.0625 19.453125 C 45.695312 19.5 45.339844 19.558594 44.960938 19.601562 C 44.523438 19.65625 44.058594 19.699219 43.605469 19.746094 C 43.238281 19.785156 42.882812 19.832031 42.507812 19.863281 C 42.003906 19.910156 41.476562 19.945312 40.957031 19.980469 C 40.609375 20.007812 40.273438 20.039062 39.914062 20.058594 C 39.347656 20.09375 38.75 20.113281 38.160156 20.140625 C 37.835938 20.152344 37.523438 20.171875 37.191406 20.179688 C 36.261719 20.207031 35.3125 20.222656 34.34375 20.222656 C 33.375 20.222656 32.425781 20.207031 31.496094 20.179688 C 31.164062 20.171875 30.84375 20.148438 30.515625 20.136719 C 29.929688 20.113281 29.339844 20.09375 28.773438 20.058594 C 28.398438 20.035156 28.039062 20.003906 27.671875 19.976562 C 27.171875 19.941406 26.664062 19.90625 26.179688 19.863281 C 25.800781 19.832031 25.449219 19.785156 25.082031 19.746094 C 24.625 19.699219 24.164062 19.65625 23.726562 19.601562 C 23.351562 19.558594 22.996094 19.503906 22.628906 19.453125 C 22.226562 19.398438 21.808594 19.34375 21.417969 19.28125 C 21.042969 19.226562 20.695312 19.160156 20.339844 19.097656 C 19.976562 19.035156 19.605469 18.976562 19.257812 18.910156 C 18.910156 18.84375 18.589844 18.773438 18.253906 18.703125 C 17.921875 18.632812 17.578125 18.566406 17.257812 18.492188 C 16.933594 18.421875 16.636719 18.339844 16.324219 18.265625 C 16.027344 18.1875 15.714844 18.117188 15.425781 18.039062 C 15.121094 17.957031 14.84375 17.871094 14.554688 17.785156 C 14.292969 17.710938 14.015625 17.632812 13.765625 17.554688 C 13.488281 17.464844 13.238281 17.375 12.980469 17.28125 C 12.75 17.203125 12.503906 17.125 12.285156 17.042969 C 12.042969 16.953125 11.832031 16.859375 11.605469 16.769531 C 11.398438 16.683594 11.179688 16.597656 10.988281 16.511719 C 10.785156 16.421875 10.609375 16.332031 10.425781 16.242188 C 10.242188 16.152344 10.046875 16.0625 9.882812 15.972656 C 9.71875 15.882812 9.582031 15.792969 9.429688 15.703125 C 9.277344 15.613281 9.113281 15.519531 8.980469 15.429688 C 8.851562 15.339844 8.746094 15.253906 8.632812 15.164062 C 8.515625 15.074219 8.386719 14.980469 8.289062 14.890625 C 8.191406 14.804688 8.125 14.71875 8.046875 14.636719 C 7.964844 14.542969 7.871094 14.449219 7.804688 14.359375 C 7.746094 14.277344 7.71875 14.199219 7.675781 14.121094 C 7.628906 14.027344 7.570312 13.933594 7.542969 13.84375 L 7.503906 13.53125 C 7.710938 10.839844 18.71875 6 34.34375 6 Z M 67.882812 39.386719 C 67.5625 37.660156 65.574219 35.832031 61.527344 33.519531 L 64.101562 14.394531 L 64.101562 14.386719 L 64.175781 13.800781 C 64.1875 13.734375 64.191406 13.671875 64.191406 13.605469 C 64.191406 7.355469 48.460938 3 34.34375 3 C 20.226562 3 4.5 7.355469 4.5 13.605469 C 4.5 13.671875 4.503906 13.738281 4.511719 13.804688 L 4.589844 14.390625 L 4.589844 14.394531 L 10.933594 61.511719 C 11.132812 67.027344 25.355469 69.085938 34.34375 69.085938 C 39.316406 69.085938 44.300781 68.566406 48.378906 67.625 C 50.023438 67.246094 51.496094 66.800781 52.761719 66.300781 C 56.011719 65.019531 57.691406 63.40625 57.753906 61.511719 L 60.367188 42.121094 C 61.796875 42.421875 63.09375 42.609375 64.171875 42.609375 C 65.625 42.609375 66.710938 42.300781 67.300781 41.597656 C 67.824219 40.972656 68.03125 40.1875 67.882812 39.386719 Z M 67.882812 39.386719 "/>
</g>
</svg>
