<?xml version="1.0" encoding="UTF-8"?>
<svg width="80px" height="80px" viewBox="0 0 80 80" version="1.1" xmlns="http://www.w3.org/2000/svg" xmlns:xlink="http://www.w3.org/1999/xlink">
    <title>Icon-Architecture/64/Arch_Amazon-SageMaker-Studio-Lab_64</title>
    <defs>
        <linearGradient x1="0%" y1="100%" x2="100%" y2="0%" id="linearGradient-1">
            <stop stop-color="#055F4E" offset="0%"></stop>
            <stop stop-color="#56C0A7" offset="100%"></stop>
        </linearGradient>
    </defs>
    <g id="Icon-Architecture/64/Arch_Amazon-SageMaker-Studio-Lab_64" stroke="none" stroke-width="1" fill="none" fill-rule="evenodd">
        <g id="Rectangle" fill="url(#linearGradient-1)">
            <rect x="0" y="0" width="80" height="80"></rect>
        </g>
        <g id="Icon-Service/64/Amazon-SageMaker-Studio-Lab_64" transform="translate(8.000000, 8.000000)" fill="#FFFFFF">
            <path d="M38.909,47.0456233 L58,47.0456233 L58,17.0456233 L38.909,17.0456233 L38.909,47.0456233 Z M33,47.0456233 L37,47.0456233 L37,17.0456233 L33,17.0456233 L33,22.0456233 L35,22.0456233 L35,24.0456233 L33,24.0456233 L33,31.0456233 L35,31.0456233 L35,33.0456233 L33,33.0456233 L33,40.0456233 L35,40.0456233 L35,42.0456233 L33,42.0456233 L33,47.0456233 Z M60,16.0456233 L60,48.0456233 C60,48.5976233 59.553,49.0456233 59,49.0456233 L32,49.0456233 C31.447,49.0456233 31,48.5976233 31,48.0456233 L31,42.0456233 L29,42.0456233 L29,40.0456233 L31,40.0456233 L31,33.0456233 L29,33.0456233 L29,31.0456233 L31,31.0456233 L31,24.0456233 L29,24.0456233 L29,22.0456233 L31,22.0456233 L31,16.0456233 C31,15.4936233 31.447,15.0456233 32,15.0456233 L59,15.0456233 C59.553,15.0456233 60,15.4936233 60,16.0456233 L60,16.0456233 Z M31,51.1366233 L33,51.1366233 L33,54.1616233 C33,54.5236233 32.804,54.8576233 32.487,55.0346233 L25.359,59.0176233 C25.208,59.1026233 25.04,59.1446233 24.872,59.1446233 C24.7,59.1446233 24.528,59.1006233 24.374,59.0116233 L10.502,51.0456233 C10.191,50.8676233 10,50.5366233 10,50.1786233 L10,41.6956233 L4.54,38.8636233 C4.208,38.6916233 4,38.3496233 4,37.9766233 L4,25.0456233 C4,24.6926233 4.186,24.3656233 4.49,24.1856233 L10,20.9196233 L10,11.9366233 C10,11.5706233 10.201,11.2326233 10.523,11.0586233 L23.495,4.02062332 C23.784,3.86562332 24.132,3.85862332 24.423,4.00762332 L32.45,8.07162332 C32.787,8.24162332 32.999,8.58662332 32.999,8.96262332 L33,12.9546233 L31,12.9546233 L31,9.57862332 L23.987,6.02862332 L22,7.10762332 L22,16.0456233 L20,16.0456233 L20,8.19262332 L12,12.5326233 L12,19.4886233 L18.987,23.8176233 L24,20.4586233 L24,15.0456233 L26,15.0456233 L26,20.9926233 C26,21.3256233 25.834,21.6376233 25.557,21.8226233 L20,25.5466233 L20,30.0456233 L25,30.0456233 L25,32.0456233 L19.303,32.0456233 L13.555,35.8776233 L12.445,34.2136233 L18,30.5106233 L18,25.5586233 L11.947,21.8086233 C11.872,22.0326233 11.719,22.2256233 11.51,22.3496233 L6,25.6156233 L6,30.3586233 L12.354,26.1226233 L13.464,27.7866233 L6,32.7626233 L6,37.3686233 L11.207,40.0686233 L16.407,36.2406233 L17.593,37.8506233 L12,41.9686233 L12,49.5996233 L18.584,53.3806233 L18.47,53.1976233 L21,51.6156233 L21,41.0456233 L23,41.0456233 L23,50.3656233 L26.47,48.1976233 L27.53,49.8936233 L20.339,54.3886233 L24.879,56.9956233 L31,53.5746233 L31,51.1366233 Z" id="Fill-4"></path>
        </g>
    </g>
</svg>