<?xml version="1.0" encoding="UTF-8"?>
<svg xmlns="http://www.w3.org/2000/svg" xmlns:xlink="http://www.w3.org/1999/xlink" width="72px" height="px" viewBox="0 0 72 72" version="1.1">
<g id="surface1">
<path style=" stroke:none;fill-rule:evenodd;fill:rgb(13.72549%,18.431373%,23.921569%);fill-opacity:1;" d="M 23.15625 32.28125 L 48.097656 32.28125 L 48.097656 29.28125 L 23.15625 29.28125 Z M 23.15625 25.792969 L 48.097656 25.792969 L 48.097656 22.792969 L 23.15625 22.792969 Z M 23.15625 19.144531 L 48.097656 19.144531 L 48.097656 16.144531 L 23.15625 16.144531 Z M 23.15625 12.742188 L 48.097656 12.742188 L 48.097656 9.742188 L 23.15625 9.742188 Z M 19.5 66.019531 L 51.75 66.019531 L 51.75 6 L 19.5 6 Z M 52.546875 3 L 18.703125 3 C 17.488281 3 16.5 3.988281 16.5 5.203125 L 16.5 66.816406 C 16.5 68.03125 17.488281 69.019531 18.703125 69.019531 L 52.546875 69.019531 C 53.761719 69.019531 54.75 68.03125 54.75 66.816406 L 54.75 5.203125 C 54.75 3.988281 53.761719 3 52.546875 3 Z M 52.546875 3 "/>
</g>
</svg>
