<?xml version="1.0" encoding="UTF-8"?>
<svg xmlns="http://www.w3.org/2000/svg" xmlns:xlink="http://www.w3.org/1999/xlink" width="72px" height="px" viewBox="0 0 72 72" version="1.1">
<g id="surface1">
<path style=" stroke:none;fill-rule:evenodd;fill:rgb(69.019608%,3.137255%,30.196078%);fill-opacity:1;" d="M 56.171875 33.390625 L 56.171875 39.332031 L 52.539062 36.308594 Z M 56.714844 43.679688 C 56.988281 43.910156 57.328125 44.027344 57.671875 44.027344 C 57.890625 44.027344 58.105469 43.980469 58.3125 43.886719 C 58.835938 43.636719 59.171875 43.109375 59.171875 42.527344 L 59.171875 30.265625 C 59.171875 29.6875 58.84375 29.160156 58.324219 28.914062 C 57.800781 28.660156 57.183594 28.734375 56.734375 29.09375 L 49.226562 35.121094 C 48.878906 35.402344 48.671875 35.828125 48.667969 36.277344 C 48.664062 36.730469 48.863281 37.15625 49.210938 37.445312 Z M 15.789062 33.460938 L 19.425781 36.484375 L 15.789062 39.402344 Z M 13.640625 43.878906 C 13.847656 43.980469 14.070312 44.027344 14.289062 44.027344 C 14.625 44.027344 14.957031 43.914062 15.230469 43.699219 L 22.738281 37.671875 C 23.089844 37.390625 23.292969 36.964844 23.296875 36.515625 C 23.300781 36.066406 23.101562 35.636719 22.757812 35.347656 L 15.25 29.109375 C 14.800781 28.738281 14.179688 28.660156 13.652344 28.90625 C 13.128906 29.152344 12.789062 29.683594 12.789062 30.265625 L 12.789062 42.527344 C 12.789062 43.105469 13.121094 43.628906 13.640625 43.878906 Z M 42.550781 51.039062 L 45.550781 51.039062 L 45.550781 22.121094 L 42.550781 22.121094 Z M 34.679688 51.039062 L 37.679688 51.039062 L 37.679688 22.121094 L 34.679688 22.121094 Z M 26.566406 51.039062 L 29.566406 51.039062 L 29.566406 22.121094 L 26.566406 22.121094 Z M 6 53.660156 L 65.964844 53.660156 L 65.964844 19.5 L 6 19.5 Z M 67.464844 16.5 L 4.5 16.5 C 3.671875 16.5 3 17.171875 3 18 L 3 55.160156 C 3 55.988281 3.671875 56.660156 4.5 56.660156 L 67.464844 56.660156 C 68.296875 56.660156 68.964844 55.988281 68.964844 55.160156 L 68.964844 18 C 68.964844 17.171875 68.296875 16.5 67.464844 16.5 Z M 67.464844 16.5 "/>
</g>
</svg>
