<?xml version="1.0" encoding="UTF-8"?>
<svg xmlns="http://www.w3.org/2000/svg" xmlns:xlink="http://www.w3.org/1999/xlink" width="72px" height="px" viewBox="0 0 72 72" version="1.1">
<g id="surface1">
<path style=" stroke:none;fill-rule:evenodd;fill:rgb(100%,100%,100%);fill-opacity:1;" d="M 42.957031 13.929688 C 42.957031 9.554688 46.578125 6 51.027344 6 C 55.476562 6 59.09375 9.554688 59.09375 13.929688 C 59.09375 18.300781 55.476562 21.859375 51.027344 21.859375 C 46.578125 21.859375 42.957031 18.300781 42.957031 13.929688 Z M 60.246094 24.5 C 59.273438 23.898438 58.25 23.398438 57.191406 23 C 60.148438 21.035156 62.09375 17.703125 62.09375 13.929688 C 62.09375 7.902344 57.128906 3 51.027344 3 C 44.925781 3 39.957031 7.902344 39.957031 13.929688 C 39.957031 17.695312 41.898438 21.019531 44.84375 22.988281 C 42.921875 23.710938 41.113281 24.773438 39.523438 26.136719 L 41.476562 28.414062 C 44.152344 26.121094 47.535156 24.859375 51 24.859375 C 53.703125 24.859375 56.351562 25.617188 58.664062 27.050781 C 62.773438 29.601562 65.46875 34.085938 65.929688 39 L 51 39 L 51 42 L 67.5 42 C 68.328125 42 69 41.328125 69 40.5 C 69 33.984375 65.644531 27.855469 60.246094 24.5 Z M 12.957031 13.929688 C 12.957031 9.554688 16.578125 6 21.027344 6 C 25.476562 6 29.09375 9.554688 29.09375 13.929688 C 29.09375 18.300781 25.476562 21.859375 21.027344 21.859375 C 16.578125 21.859375 12.957031 18.300781 12.957031 13.929688 Z M 21 39 L 6.070312 39 C 6.796875 31.074219 13.214844 24.859375 21 24.859375 C 23.703125 24.859375 26.351562 25.617188 28.664062 27.050781 C 29.3125 27.453125 29.9375 27.910156 30.523438 28.414062 L 32.476562 26.140625 C 31.777344 25.535156 31.027344 24.984375 30.246094 24.5 C 29.273438 23.898438 28.25 23.398438 27.191406 23 C 30.148438 21.035156 32.09375 17.703125 32.09375 13.929688 C 32.09375 7.902344 27.128906 3 21.027344 3 C 14.925781 3 9.957031 7.902344 9.957031 13.929688 C 9.957031 17.703125 11.90625 21.035156 14.859375 22.996094 C 7.953125 25.605469 3 32.457031 3 40.5 C 3 41.328125 3.671875 42 4.5 42 L 21 42 Z M 21.070312 66 C 21.796875 58.074219 28.214844 51.859375 36 51.859375 C 38.703125 51.859375 41.351562 52.617188 43.664062 54.050781 C 47.773438 56.601562 50.46875 61.085938 50.929688 66 Z M 27.957031 40.929688 C 27.957031 36.554688 31.578125 33 36.027344 33 C 40.476562 33 44.09375 36.554688 44.09375 40.929688 C 44.09375 45.300781 40.476562 48.859375 36.027344 48.859375 C 31.578125 48.859375 27.957031 45.300781 27.957031 40.929688 Z M 45.246094 51.5 C 44.273438 50.898438 43.25 50.398438 42.191406 50 C 45.148438 48.035156 47.09375 44.703125 47.09375 40.929688 C 47.09375 34.902344 42.128906 30 36.027344 30 C 29.925781 30 24.957031 34.902344 24.957031 40.929688 C 24.957031 44.703125 26.90625 48.035156 29.859375 49.996094 C 22.953125 52.605469 18 59.457031 18 67.5 C 18 68.328125 18.671875 69 19.5 69 L 52.5 69 C 53.328125 69 54 68.328125 54 67.5 C 54 60.984375 50.644531 54.855469 45.246094 51.5 Z M 45.246094 51.5 "/>
</g>
</svg>
