<?xml version="1.0" encoding="UTF-8"?>
<svg xmlns="http://www.w3.org/2000/svg" xmlns:xlink="http://www.w3.org/1999/xlink" width="72px" height="px" viewBox="0 0 72 72" version="1.1">
<g id="surface1">
<path style=" stroke:none;fill-rule:evenodd;fill:rgb(14.117647%,18.431373%,24.313725%);fill-opacity:1;" d="M 9.039062 66 C 9.785156 51.128906 21.59375 39.265625 36 39.265625 C 40.871094 39.265625 45.644531 40.636719 49.808594 43.234375 C 57.53125 48.050781 62.480469 56.675781 62.960938 66 Z M 21.289062 20.816406 C 21.289062 12.648438 27.886719 6 36 6 C 44.113281 6 50.710938 12.648438 50.710938 20.816406 C 50.710938 28.988281 44.113281 35.636719 36 35.636719 C 27.886719 35.636719 21.289062 28.988281 21.289062 20.816406 Z M 51.394531 40.6875 C 48.796875 39.066406 45.976562 37.890625 43.046875 37.15625 C 49.316406 34.410156 53.710938 28.125 53.710938 20.816406 C 53.710938 10.992188 45.765625 3 36 3 C 26.234375 3 18.289062 10.992188 18.289062 20.816406 C 18.289062 28.132812 22.695312 34.425781 28.976562 37.167969 C 15.816406 40.472656 6 52.800781 6 67.5 C 6 68.328125 6.671875 69 7.5 69 L 64.5 69 C 65.328125 69 66 68.328125 66 67.5 C 66 56.578125 60.402344 46.304688 51.394531 40.6875 Z M 51.394531 40.6875 "/>
</g>
</svg>
