<?xml version="1.0" encoding="UTF-8"?>
<svg xmlns="http://www.w3.org/2000/svg" xmlns:xlink="http://www.w3.org/1999/xlink" width="72px" height="px" viewBox="0 0 72 72" version="1.1">
<g id="surface1">
<path style=" stroke:none;fill-rule:evenodd;fill:rgb(30.196078%,15.294118%,66.666667%);fill-opacity:1;" d="M 36.003906 38.15625 C 36.984375 38.15625 37.78125 38.957031 37.78125 39.9375 C 37.78125 40.921875 36.984375 41.71875 36.003906 41.71875 C 35.019531 41.71875 34.21875 40.921875 34.21875 39.9375 C 34.21875 38.957031 35.019531 38.15625 36.003906 38.15625 Z M 34.503906 44.453125 L 34.503906 49.039062 L 37.503906 49.039062 L 37.503906 44.453125 C 39.402344 43.820312 40.785156 42.046875 40.785156 39.9375 C 40.785156 37.304688 38.640625 35.15625 36.003906 35.15625 C 33.367188 35.15625 31.21875 37.304688 31.21875 39.9375 C 31.21875 42.046875 32.601562 43.820312 34.503906 44.453125 Z M 36.003906 66.003906 C 19.457031 66.003906 6 52.542969 6 36.003906 C 6 19.457031 19.457031 6 36.003906 6 C 52.542969 6 66.003906 19.457031 66.003906 36.003906 C 66.003906 52.542969 52.542969 66.003906 36.003906 66.003906 Z M 36.003906 3 C 17.804688 3 3 17.804688 3 36.003906 C 3 54.199219 17.804688 69.003906 36.003906 69.003906 C 54.199219 69.003906 69.003906 54.199219 69.003906 36.003906 C 69.003906 17.804688 54.199219 3 36.003906 3 Z M 48.929688 51.566406 L 23.0625 51.554688 L 23.070312 32.25 L 48.941406 32.261719 Z M 29.632812 24.144531 C 29.636719 22.375 30.3125 20.71875 31.527344 19.476562 C 32.730469 18.25 34.320312 17.574219 36.011719 17.574219 L 36.035156 17.574219 C 37.722656 17.578125 39.308594 18.269531 40.496094 19.515625 C 41.699219 20.769531 42.359375 22.441406 42.351562 24.222656 L 42.351562 29.257812 L 29.609375 29.253906 Z M 50.441406 29.261719 L 45.351562 29.257812 L 45.351562 24.226562 C 45.359375 21.671875 44.40625 19.261719 42.664062 17.441406 C 40.90625 15.601562 38.554688 14.582031 36.042969 14.574219 L 36.011719 14.574219 C 33.507812 14.574219 31.160156 15.570312 29.386719 17.375 C 27.617188 19.179688 26.640625 21.582031 26.632812 24.132812 L 26.609375 29.253906 L 21.570312 29.253906 C 21.171875 29.253906 20.789062 29.410156 20.511719 29.691406 C 20.226562 29.972656 20.070312 30.351562 20.070312 30.753906 L 20.0625 53.054688 C 20.0625 53.878906 20.734375 54.554688 21.5625 54.554688 L 50.429688 54.566406 C 51.257812 54.566406 51.929688 53.894531 51.929688 53.066406 L 51.941406 30.761719 C 51.941406 30.367188 51.78125 29.984375 51.5 29.699219 C 51.21875 29.421875 50.839844 29.261719 50.441406 29.261719 Z M 50.441406 29.261719 "/>
</g>
</svg>
