<?xml version="1.0" encoding="UTF-8"?>
<svg xmlns="http://www.w3.org/2000/svg" xmlns:xlink="http://www.w3.org/1999/xlink" width="72px" height="px" viewBox="0 0 72 72" version="1.1">
<g id="surface1">
<path style=" stroke:none;fill-rule:evenodd;fill:rgb(30.196078%,15.294118%,66.666667%);fill-opacity:1;" d="M 65.390625 22.804688 C 65.394531 23.207031 65.238281 23.59375 64.957031 23.878906 L 58.402344 30.503906 L 56.269531 28.394531 L 60.199219 24.421875 L 11.214844 24.421875 L 15.1875 28.339844 L 13.082031 30.476562 L 6.445312 23.929688 C 6.160156 23.648438 6 23.265625 6 22.863281 C 6 22.460938 6.160156 22.078125 6.445312 21.796875 L 13.082031 15.25 L 15.1875 17.386719 L 11.09375 21.421875 L 60.273438 21.421875 L 56.136719 17.4375 L 58.21875 15.277344 L 64.929688 21.742188 C 65.222656 22.023438 65.386719 22.402344 65.390625 22.804688 Z M 24.714844 18.878906 L 21.714844 18.878906 L 21.714844 18.300781 C 21.742188 9.859375 28.304688 3 36.34375 3 C 44.4375 3.027344 50.953125 9.953125 50.921875 18.4375 L 50.921875 18.878906 L 47.921875 18.878906 L 47.921875 18.433594 C 47.945312 11.597656 42.773438 6.023438 36.390625 6 C 29.953125 6 24.734375 11.519531 24.714844 18.304688 Z M 34.203125 43.222656 C 34.746094 42.679688 35.472656 42.378906 36.246094 42.378906 L 36.25 42.378906 C 37.023438 42.378906 37.75 42.679688 38.300781 43.226562 C 38.847656 43.773438 39.148438 44.5 39.144531 45.273438 C 39.144531 46.050781 38.84375 46.777344 38.296875 47.328125 C 37.75 47.871094 37.023438 48.171875 36.25 48.171875 L 36.246094 48.171875 C 34.652344 48.171875 33.351562 46.871094 33.351562 45.273438 C 33.355469 44.5 33.65625 43.773438 34.203125 43.222656 Z M 34.75 50.957031 L 34.75 58.683594 L 37.75 58.683594 L 37.75 50.957031 C 38.746094 50.695312 39.667969 50.195312 40.414062 49.449219 C 41.53125 48.335938 42.144531 46.855469 42.144531 45.277344 C 42.148438 43.703125 41.535156 42.21875 40.421875 41.109375 C 39.308594 39.992188 37.828125 39.378906 36.25 39.378906 L 36.242188 39.378906 C 34.671875 39.378906 33.191406 39.988281 32.082031 41.101562 C 30.96875 42.214844 30.355469 43.695312 30.351562 45.273438 C 30.351562 48.003906 32.226562 50.285156 34.75 50.957031 Z M 55.742188 66.027344 L 16.738281 66.011719 L 16.75 36.199219 L 55.757812 36.214844 Z M 57.257812 33.214844 L 50.921875 33.214844 L 50.921875 26.824219 L 47.921875 26.824219 L 47.921875 33.210938 L 24.714844 33.203125 L 24.714844 26.824219 L 21.714844 26.824219 L 21.714844 33.203125 L 15.25 33.199219 C 14.855469 33.199219 14.472656 33.359375 14.191406 33.640625 C 13.910156 33.921875 13.75 34.300781 13.75 34.699219 L 13.738281 67.511719 C 13.738281 68.339844 14.410156 69.011719 15.238281 69.011719 L 57.242188 69.027344 C 58.070312 69.027344 58.742188 68.359375 58.742188 67.527344 L 58.757812 34.714844 C 58.757812 34.320312 58.601562 33.9375 58.316406 33.65625 C 58.039062 33.375 57.65625 33.214844 57.257812 33.214844 Z M 57.257812 33.214844 "/>
</g>
</svg>
