<?xml version="1.0" encoding="UTF-8"?>
<svg width="80px" height="80px" viewBox="0 0 80 80" version="1.1" xmlns="http://www.w3.org/2000/svg" xmlns:xlink="http://www.w3.org/1999/xlink">
    <title>Icon-Architecture/64/Arch_AWS-IoT-RoboRunner_64</title>
    <g id="Icon-Architecture/64/Arch_AWS-IoT-RoboRunner_64" stroke="none" stroke-width="1" fill="none" fill-rule="evenodd">
        <g id="Icon-Architecture-BG/64/Internet-of-Things" fill="#7AA116">
            <rect id="Rectangle" x="0" y="0" width="80" height="80"></rect>
        </g>
        <g id="Icon-Service/64/AWS-IoT-RoboRunner_64" transform="translate(12.000000, 12.000000)" fill="#FFFFFF">
            <path d="M50,2 C52.206,2 54,3.794 54,6 C54,8.206 52.206,10 50,10 C47.794,10 46,8.206 46,6 C46,3.794 47.794,2 50,2 L50,2 Z M50,12 C53.309,12 56,9.309 56,6 C56,2.691 53.309,0 50,0 C47.033,0 44.569,2.167 44.09,5 L32,5 L32,7 L44.09,7 C44.569,9.833 47.033,12 50,12 L50,12 Z M40.293,40.293 C46.956,33.629 46.956,22.371 40.293,15.707 L41.707,14.293 C49.137,21.723 49.137,34.277 41.707,41.707 L40.293,40.293 Z M15.707,15.707 C9.044,22.371 9.044,33.629 15.707,40.293 L14.293,41.707 C6.863,34.277 6.863,21.723 14.293,14.293 L15.707,15.707 Z M6,54 C3.794,54 2,52.206 2,50 C2,47.794 3.794,46 6,46 C8.206,46 10,47.794 10,50 C10,52.206 8.206,54 6,54 L6,54 Z M6,44 C2.691,44 0,46.691 0,50 C0,53.309 2.691,56 6,56 C8.967,56 11.431,53.833 11.91,51 L24,51 L24,49 L11.91,49 C11.431,46.167 8.967,44 6,44 L6,44 Z M50,54 C47.794,54 46,52.206 46,50 C46,47.794 47.794,46 50,46 C52.206,46 54,47.794 54,50 C54,52.206 52.206,54 50,54 L50,54 Z M18,28 C18,22.486 22.486,18 28,18 C33.514,18 38,22.486 38,28 C38,33.514 33.514,38 28,38 C22.486,38 18,33.514 18,28 L18,28 Z M6,10 C3.794,10 2,8.206 2,6 C2,3.794 3.794,2 6,2 C8.206,2 10,3.794 10,6 C10,8.206 8.206,10 6,10 L6,10 Z M50,44 C47.033,44 44.569,46.167 44.09,49 L29,49 L29,39.949 C35.15,39.438 40,34.279 40,28 C40,21.721 35.15,16.562 29,16.051 L29,6 C29,5.448 28.553,5 28,5 L11.91,5 C11.431,2.167 8.967,0 6,0 C2.691,0 0,2.691 0,6 C0,9.309 2.691,12 6,12 C8.967,12 11.431,9.833 11.91,7 L27,7 L27,16.051 C20.85,16.562 16,21.721 16,28 C16,34.279 20.85,39.438 27,39.949 L27,50 C27,50.552 27.447,51 28,51 L44.09,51 C44.569,53.833 47.033,56 50,56 C53.309,56 56,53.309 56,50 C56,46.691 53.309,44 50,44 L50,44 Z" id="Fill-7"></path>
        </g>
    </g>
</svg>