<?xml version="1.0" encoding="UTF-8"?>
<svg width="80px" height="80px" viewBox="0 0 80 80" version="1.1" xmlns="http://www.w3.org/2000/svg" xmlns:xlink="http://www.w3.org/1999/xlink">
    <title>Icon-Architecture/64/Arch_AWS-IoT-EduKit_64</title>
    <g id="Icon-Architecture/64/Arch_AWS-IoT-EduKit_64" stroke="none" stroke-width="1" fill="none" fill-rule="evenodd">
        <g id="Icon-Architecture-BG/64/Internet-of-Things" fill="#7AA116">
            <rect id="Rectangle" x="0" y="0" width="80" height="80"></rect>
        </g>
        <g id="Icon-Service/64/AWS-IoT-EduKit_64" transform="translate(12.000000, 12.000000)" fill="#FFFFFF">
            <path d="M14,44 C12.346,44 11,42.654 11,41 C11,39.346 12.346,38 14,38 C15.654,38 17,39.346 17,41 C17,42.654 15.654,44 14,44 L14,44 Z M22,30.263 L22,40 L18.899,40 C18.434,37.721 16.414,36 14,36 C11.243,36 9,38.243 9,41 C9,43.757 11.243,46 14,46 C16.414,46 18.434,44.279 18.899,42 L23,42 C23.553,42 24,41.552 24,41 L24,30.514 C23.322,30.448 22.656,30.363 22,30.263 L22,30.263 Z M44.989,19.277 C44.667,23.492 37.019,27 28,27 C18.986,27 11.341,23.495 11.011,19.283 L13.657,15.273 L27.684,19.949 C27.786,19.983 27.894,20 28,20 C28.106,20 28.214,19.983 28.316,19.949 L42.403,15.253 L44.989,19.277 Z M55.316,9.051 L28.316,0.051 C28.111,-0.017 27.889,-0.017 27.684,0.051 L17.963,3.291 L21.059,4.368 L28,2.054 L51.838,10 L28,17.946 L4.162,10 L14.781,6.461 L25.749,10.276 C25.917,11.081 26.808,11.643 28,11.643 C29.324,11.643 30.286,10.952 30.286,10 C30.286,9.048 29.324,8.357 28,8.357 C27.585,8.357 27.211,8.431 26.886,8.554 L5.328,1.056 C5.022,0.948 4.684,0.997 4.421,1.185 C4.156,1.373 4,1.676 4,2 L4,5.835 L6,5.168 L6,3.407 L11.685,5.384 L0.684,9.051 C0.275,9.187 0,9.569 0,10 C0,10.431 0.275,10.812 0.684,10.949 L4,12.054 L4,21.007 C2.927,22.22 2.75,25.212 2.75,25.25 C2.75,26.491 3.76,27.5 5,27.5 C6.24,27.5 7.25,26.491 7.25,25.25 C7.25,25.212 7.073,22.22 6,21.007 L6,12.721 L11.693,14.618 L9.165,18.449 C9.058,18.613 9,18.804 9,19 C9,24.607 17.346,29 28,29 C38.654,29 47,24.607 47,19 C47,18.808 46.945,18.621 46.841,18.459 L44.36,14.601 L55.316,10.949 C55.725,10.812 56,10.431 56,10 C56,9.569 55.725,9.187 55.316,9.051 L55.316,9.051 Z M28,54 C26.346,54 25,52.654 25,51 C25,49.346 26.346,48 28,48 C29.654,48 31,49.346 31,51 C31,52.654 29.654,54 28,54 L28,54 Z M29,46.101 L29,30.69 C28.666,30.698 28.337,30.717 28,30.717 C27.663,30.717 27.334,30.698 27,30.69 L27,46.101 C24.721,46.566 23,48.586 23,51 C23,53.757 25.243,56 28,56 C30.757,56 33,53.757 33,51 C33,48.586 31.279,46.566 29,46.101 L29,46.101 Z M42,44 C40.346,44 39,42.654 39,41 C39,39.346 40.346,38 42,38 C43.654,38 45,39.346 45,41 C45,42.654 43.654,44 42,44 L42,44 Z M42,36 C39.586,36 37.566,37.721 37.101,40 L34,40 L34,30.263 C33.344,30.363 32.678,30.448 32,30.514 L32,41 C32,41.552 32.447,42 33,42 L37.101,42 C37.566,44.279 39.586,46 42,46 C44.757,46 47,43.757 47,41 C47,38.243 44.757,36 42,36 L42,36 Z" id="Fill-1"></path>
        </g>
    </g>
</svg>