<?xml version="1.0" encoding="UTF-8"?>
<svg width="80px" height="80px" viewBox="0 0 80 80" version="1.1" xmlns="http://www.w3.org/2000/svg" xmlns:xlink="http://www.w3.org/1999/xlink">
    <title>Icon-Architecture/64/Arch_AWS-IoT-RoboRunner_64</title>
    <defs>
        <linearGradient x1="0%" y1="100%" x2="100%" y2="0%" id="linearGradient-1">
            <stop stop-color="#1B660F" offset="0%"></stop>
            <stop stop-color="#6CAE3E" offset="100%"></stop>
        </linearGradient>
    </defs>
    <g id="Icon-Architecture/64/Arch_AWS-IoT-RoboRunner_64" stroke="none" stroke-width="1" fill="none" fill-rule="evenodd">
        <g id="Rectangle" fill="url(#linearGradient-1)">
            <rect x="0" y="0" width="80" height="80"></rect>
        </g>
        <g id="Icon-Service/64/AWS-IoT-RoboRunner_64" transform="translate(8.000000, 8.000000)" fill="#FFFFFF">
            <path d="M54,6 C56.206,6 58,7.794 58,10 C58,12.206 56.206,14 54,14 C51.794,14 50,12.206 50,10 C50,7.794 51.794,6 54,6 L54,6 Z M54,16 C57.309,16 60,13.309 60,10 C60,6.691 57.309,4 54,4 C51.033,4 48.569,6.167 48.09,9 L36,9 L36,11 L48.09,11 C48.569,13.833 51.033,16 54,16 L54,16 Z M44.293,44.293 C50.956,37.629 50.956,26.371 44.293,19.707 L45.707,18.293 C53.137,25.723 53.137,38.277 45.707,45.707 L44.293,44.293 Z M19.707,19.707 C13.044,26.371 13.044,37.629 19.707,44.293 L18.293,45.707 C10.863,38.277 10.863,25.723 18.293,18.293 L19.707,19.707 Z M10,58 C7.794,58 6,56.206 6,54 C6,51.794 7.794,50 10,50 C12.206,50 14,51.794 14,54 C14,56.206 12.206,58 10,58 L10,58 Z M10,48 C6.691,48 4,50.691 4,54 C4,57.309 6.691,60 10,60 C12.967,60 15.431,57.833 15.91,55 L28,55 L28,53 L15.91,53 C15.431,50.167 12.967,48 10,48 L10,48 Z M54,58 C51.794,58 50,56.206 50,54 C50,51.794 51.794,50 54,50 C56.206,50 58,51.794 58,54 C58,56.206 56.206,58 54,58 L54,58 Z M22,32 C22,26.486 26.486,22 32,22 C37.514,22 42,26.486 42,32 C42,37.514 37.514,42 32,42 C26.486,42 22,37.514 22,32 L22,32 Z M10,14 C7.794,14 6,12.206 6,10 C6,7.794 7.794,6 10,6 C12.206,6 14,7.794 14,10 C14,12.206 12.206,14 10,14 L10,14 Z M54,48 C51.033,48 48.569,50.167 48.09,53 L33,53 L33,43.949 C39.15,43.438 44,38.279 44,32 C44,25.721 39.15,20.562 33,20.051 L33,10 C33,9.448 32.553,9 32,9 L15.91,9 C15.431,6.167 12.967,4 10,4 C6.691,4 4,6.691 4,10 C4,13.309 6.691,16 10,16 C12.967,16 15.431,13.833 15.91,11 L31,11 L31,20.051 C24.85,20.562 20,25.721 20,32 C20,38.279 24.85,43.438 31,43.949 L31,54 C31,54.552 31.447,55 32,55 L48.09,55 C48.569,57.833 51.033,60 54,60 C57.309,60 60,57.309 60,54 C60,50.691 57.309,48 54,48 L54,48 Z" id="Fill-7"></path>
        </g>
    </g>
</svg>