<?xml version="1.0" encoding="UTF-8"?>
<svg width="80px" height="80px" viewBox="0 0 80 80" version="1.1" xmlns="http://www.w3.org/2000/svg" xmlns:xlink="http://www.w3.org/1999/xlink">
    <title>Icon-Architecture/64/Arch_AWS-IoT-FleetWise_64</title>
    <defs>
        <linearGradient x1="0%" y1="100%" x2="100%" y2="0%" id="linearGradient-1">
            <stop stop-color="#1B660F" offset="0%"></stop>
            <stop stop-color="#6CAE3E" offset="100%"></stop>
        </linearGradient>
    </defs>
    <g id="Icon-Architecture/64/Arch_AWS-IoT-FleetWise_64" stroke="none" stroke-width="1" fill="none" fill-rule="evenodd">
        <g id="Rectangle" fill="url(#linearGradient-1)">
            <rect x="0" y="0" width="80" height="80"></rect>
        </g>
        <g id="Icon-Service/64/AWS-IoT-FleetWise_64" transform="translate(8.000000, 8.000000)" fill="#FFFFFF">
            <path d="M32,52.2895239 L32,46.5185239 C32,44.5725239 33.583,42.9895239 35.529,42.9895239 L39.819,42.9895239 C39.089,47.3145239 36.044,50.8535239 32,52.2895239 M26,52.8085239 L26,46.5185239 C26,43.4705239 23.52,40.9895239 20.471,40.9895239 L16,40.9895239 C16,40.3065239 16.071,39.6415239 16.181,38.9895239 L18.769,38.9885239 C20.82,38.9885239 22.773,38.0745239 23.993,36.5445239 C24.947,35.3465239 26.392,34.6595239 27.955,34.6595239 C29.518,34.6595239 30.962,35.3465239 31.917,36.5455239 C33.138,38.0755239 35.09,38.9885239 37.142,38.9895239 L39.819,38.9895239 C39.929,39.6415239 40,40.3065239 40,40.9895239 L35.529,40.9895239 C32.48,40.9895239 30,43.4705239 30,46.5185239 L30,52.8085239 C29.348,52.9185239 28.683,52.9895239 28,52.9895239 C27.317,52.9895239 26.652,52.9185239 26,52.8085239 M16.181,42.9895239 L20.471,42.9895239 C22.417,42.9895239 24,44.5725239 24,46.5185239 L24,52.2895239 C19.956,50.8535239 16.911,47.3145239 16.181,42.9895239 M28,28.9895239 C33.213,28.9895239 37.647,32.3365239 39.3,36.9895239 L37.142,36.9895239 C35.693,36.9885239 34.325,36.3565239 33.48,35.2985239 C32.144,33.6215239 30.13,32.6595239 27.955,32.6595239 C25.779,32.6595239 23.766,33.6215239 22.429,35.2985239 C21.585,36.3565239 20.217,36.9885239 18.769,36.9885239 L16.7,36.9895239 C18.353,32.3365239 22.787,28.9895239 28,28.9895239 M28,26.9895239 C20.28,26.9895239 14,33.2695239 14,40.9895239 C14,48.7095239 20.28,54.9895239 28,54.9895239 C35.72,54.9895239 42,48.7095239 42,40.9895239 C42,33.2695239 35.72,26.9895239 28,26.9895239 M49.897,38.9895239 L46.891,38.9825239 C45.885,29.4465239 37.798,21.9895239 28,21.9895239 C18.903,21.9895239 11.286,28.4195239 9.437,36.9715239 C7.575,35.3655239 6.294,32.9495239 6.05,30.3755239 C6.017,30.0305239 6,29.6705239 6,29.2975239 C6,26.5375239 8.045,22.6605239 11.885,22.5575239 C12.39,22.5445239 12.805,22.1575239 12.854,21.6555239 L12.956,20.6055239 C12.963,20.5335239 12.963,20.4605239 12.954,20.3885239 C12.891,19.8625239 12.858,19.3265239 12.858,18.7975239 C12.858,14.0205239 16.187,8.88152389 20.437,7.09652389 C27.794,4.00552389 33.009,8.06752389 34.908,9.95752389 C36.453,11.4955239 37.659,13.4595239 38.491,15.7955239 C38.615,16.1425239 38.92,16.3935239 39.285,16.4485239 C39.653,16.5065239 40.015,16.3525239 40.235,16.0565239 C41.451,14.4255239 43.425,13.7215239 45.273,14.2645239 C47.471,14.9115239 48.916,17.1195239 49.153,20.1815239 C49.072,20.7205239 49.437,21.2255239 49.975,21.3165239 C52.388,21.7275239 58,23.4125239 58,30.1595239 C58,38.2015239 50.147,38.9645239 49.897,38.9895239 M28,57.9895239 C18.626,57.9895239 11,50.3635239 11,40.9895239 C11,31.6155239 18.626,23.9895239 28,23.9895239 C37.374,23.9895239 45,31.6155239 45,40.9895239 C45,50.3635239 37.374,57.9895239 28,57.9895239 M51.097,19.5035239 C50.663,15.8495239 48.729,13.1975239 45.838,12.3465239 C43.709,11.7215239 41.474,12.2295239 39.782,13.6425239 C38.896,11.6605239 37.735,9.94952389 36.318,8.53952389 C31.769,4.01252389 25.543,2.78152389 19.662,5.25252389 C14.644,7.36052389 10.858,13.1835239 10.858,18.7975239 C10.858,19.3695239 10.891,19.9485239 10.955,20.5175239 L10.944,20.6335239 C6.631,21.2515239 4,25.4525239 4,29.2975239 C4,29.7375239 4.021,30.1595239 4.06,30.5655239 C4.396,34.1205239 6.294,37.3355239 9.089,39.2295239 C9.036,39.8095239 9,40.3955239 9,40.9895239 C9,51.4665239 17.523,59.9895239 28,59.9895239 C38.477,59.9895239 47,51.4665239 47,40.9895239 C47,40.9875239 47,40.9845239 47,40.9825239 L49.976,40.9865239 C50.076,40.9785239 60,40.0635239 60,30.1595239 C60,22.4725239 53.939,20.1625239 51.097,19.5035239" id="Fill-1"></path>
        </g>
    </g>
</svg>