<?xml version="1.0" encoding="UTF-8"?>
<svg width="80px" height="80px" viewBox="0 0 80 80" version="1.1" xmlns="http://www.w3.org/2000/svg" xmlns:xlink="http://www.w3.org/1999/xlink">
    <title>Icon-Architecture/64/Arch_AWS-IoT-ExpressLink_64</title>
    <defs>
        <linearGradient x1="0%" y1="100%" x2="100%" y2="0%" id="linearGradient-1">
            <stop stop-color="#1B660F" offset="0%"></stop>
            <stop stop-color="#6CAE3E" offset="100%"></stop>
        </linearGradient>
    </defs>
    <g id="Icon-Architecture/64/Arch_AWS-IoT-ExpressLink_64" stroke="none" stroke-width="1" fill="none" fill-rule="evenodd">
        <g id="Rectangle" fill="url(#linearGradient-1)">
            <rect x="0" y="0" width="80" height="80"></rect>
        </g>
        <g id="Icon-Service/64/AWS-IoT-ExpressLink_64" transform="translate(8.000000, 8.000000)" fill="#FFFFFF">
            <path d="M54.91,20.2794285 C53.572,19.4614285 52.013,18.8224285 50.527,18.4774285 C50.097,15.1084285 48.247,12.6354285 45.492,11.8004285 C43.385,11.1614285 41.156,11.6234285 39.47,12.9774285 C38.603,11.1244285 37.47,9.52342853 36.088,8.20442853 C31.645,3.96142853 25.567,2.81042853 19.833,5.12042853 C14.919,7.10142853 11.213,12.5834285 11.213,17.8714285 C11.213,18.1584285 11.222,18.4464285 11.239,18.7344285 C8.552,19.5844285 4,21.9794285 4,28.4374285 C4,34.2884285 6.721,36.7924285 8.343,37.7644285 C9.746,38.6054285 11.277,39.0144285 13.024,39.0144285 L15.058,39.0144285 L15.058,37.0144285 L13.024,37.0144285 C11.193,37.0144285 10.062,36.4634285 9.37,36.0484285 C7.833,35.1274285 6,33.0594285 6,28.4374285 C6,22.9074285 10.047,21.0644285 12.498,20.4554285 C12.965,20.3674285 13.312,19.9574285 13.312,19.4714285 C13.312,19.4214285 13.308,19.3714285 13.302,19.3214285 C13.242,18.8424285 13.213,18.3544285 13.213,17.8714285 C13.213,13.4274285 16.449,8.64042853 20.581,6.97442853 C25.565,4.96642853 30.848,5.96542853 34.707,9.65142853 C36.209,11.0854285 37.381,12.9164285 38.188,15.0934285 C38.314,15.4334285 38.615,15.6794285 38.974,15.7344285 C39.339,15.7894285 39.693,15.6454285 39.916,15.3594285 C41.123,13.8054285 43.084,13.1594285 44.912,13.7144285 C46.99,14.3444285 48.358,16.3774285 48.589,19.1634285 C48.51,19.7024285 48.877,20.2064285 49.417,20.2954285 C50.88,20.5344285 52.502,21.1504285 53.865,21.9854285 C57.594,24.2664285 58.024,26.6374285 58.024,28.2214285 C58.024,36.7394285 50.333,37.0074285 50.024,37.0144285 L48.024,37.0144285 L48.024,39.0144285 L50.041,39.0144285 C50.14,39.0124285 60.024,38.7284285 60.024,28.2214285 C60.024,24.9844285 58.351,22.3854285 54.91,20.2794285 L54.91,20.2794285 Z M43.024,25.8564285 C43.024,24.8414285 42.198,24.0144285 41.182,24.0144285 L40.024,24.0144285 L40.024,21.0144285 L38.024,21.0144285 L38.024,24.0144285 L35.024,24.0144285 L35.024,21.0144285 L33.024,21.0144285 L33.024,24.0144285 L30.024,24.0144285 L30.024,21.0144285 L28.024,21.0144285 L28.024,24.0144285 L25.024,24.0144285 L25.024,21.0144285 L23.024,21.0144285 L23.024,24.0144285 L21.868,24.0144285 C20.851,24.0144285 20.024,24.8414285 20.024,25.8574285 L20.024,27.0144285 L17.024,27.0144285 L17.024,29.0144285 L20.024,29.0144285 L20.024,32.0144285 L17.024,32.0144285 L17.024,34.0144285 L20.024,34.0144285 L20.024,37.0144285 L17.024,37.0144285 L17.024,39.0144285 L20.024,39.0144285 L20.024,42.0144285 L17.024,42.0144285 L17.024,44.0144285 L20.024,44.0144285 L20.024,45.1724285 C20.024,46.1874285 20.85,47.0144285 21.866,47.0144285 L25.024,47.0144285 L25.024,45.0144285 L22.024,45.0144285 L22.024,44.0144285 L22.024,42.0144285 L22.024,39.0144285 L22.024,37.0144285 L22.024,34.0144285 L22.024,32.0144285 L22.024,29.0144285 L22.024,27.0144285 L22.024,26.0144285 L41.024,26.0144285 L41.024,45.0144285 L33.024,45.0144285 L33.024,47.0144285 L41.181,47.0144285 C42.197,47.0144285 43.024,46.1874285 43.024,45.1714285 L43.024,44.0144285 L46.024,44.0144285 L46.024,42.0144285 L43.024,42.0144285 L43.024,39.0144285 L46.024,39.0144285 L46.024,37.0144285 L43.024,37.0144285 L43.024,34.0144285 L46.024,34.0144285 L46.024,32.0144285 L43.024,32.0144285 L43.024,29.0144285 L46.024,29.0144285 L46.024,27.0144285 L43.024,27.0144285 L43.024,25.8564285 Z M38.024,55.0144285 L40.024,55.0144285 L40.024,48.0144285 L38.024,48.0144285 L38.024,55.0144285 Z M33.024,59.0144285 L35.024,59.0144285 L35.024,51.0144285 L33.024,51.0144285 L33.024,59.0144285 Z M28.024,56.0144285 L30.024,56.0144285 L30.024,42.0144285 L28.024,42.0144285 L28.024,56.0144285 Z M23.024,60.0144285 L25.024,60.0144285 L25.024,50.0144285 L23.024,50.0144285 L23.024,60.0144285 Z" id="Fill-8"></path>
        </g>
    </g>
</svg>