<?xml version="1.0" encoding="UTF-8"?>
<svg width="80px" height="80px" viewBox="0 0 80 80" version="1.1" xmlns="http://www.w3.org/2000/svg" xmlns:xlink="http://www.w3.org/1999/xlink">
    <title>Icon-Architecture/64/Arch_AWS-IoT-EduKit_64</title>
    <defs>
        <linearGradient x1="0%" y1="100%" x2="100%" y2="0%" id="linearGradient-1">
            <stop stop-color="#1B660F" offset="0%"></stop>
            <stop stop-color="#6CAE3E" offset="100%"></stop>
        </linearGradient>
    </defs>
    <g id="Icon-Architecture/64/Arch_AWS-IoT-EduKit_64" stroke="none" stroke-width="1" fill="none" fill-rule="evenodd">
        <g id="Rectangle" fill="url(#linearGradient-1)">
            <rect x="0" y="0" width="80" height="80"></rect>
        </g>
        <g id="Icon-Service/64/AWS-IoT-EduKit_64" transform="translate(8.000000, 8.000000)" fill="#FFFFFF">
            <path d="M18,48 C16.346,48 15,46.654 15,45 C15,43.346 16.346,42 18,42 C19.654,42 21,43.346 21,45 C21,46.654 19.654,48 18,48 L18,48 Z M26,34.263 L26,44 L22.899,44 C22.434,41.721 20.414,40 18,40 C15.243,40 13,42.243 13,45 C13,47.757 15.243,50 18,50 C20.414,50 22.434,48.279 22.899,46 L27,46 C27.553,46 28,45.552 28,45 L28,34.514 C27.322,34.448 26.656,34.363 26,34.263 L26,34.263 Z M48.989,23.277 C48.667,27.492 41.019,31 32,31 C22.986,31 15.341,27.495 15.011,23.283 L17.657,19.273 L31.684,23.949 C31.786,23.983 31.894,24 32,24 C32.106,24 32.214,23.983 32.316,23.949 L46.403,19.253 L48.989,23.277 Z M59.316,13.051 L32.316,4.051 C32.111,3.983 31.889,3.983 31.684,4.051 L21.963,7.291 L25.059,8.368 L32,6.054 L55.838,14 L32,21.946 L8.162,14 L18.781,10.461 L29.749,14.276 C29.917,15.081 30.808,15.643 32,15.643 C33.324,15.643 34.286,14.952 34.286,14 C34.286,13.048 33.324,12.357 32,12.357 C31.585,12.357 31.211,12.431 30.886,12.554 L9.328,5.056 C9.022,4.948 8.684,4.997 8.421,5.185 C8.156,5.373 8,5.676 8,6 L8,9.835 L10,9.168 L10,7.407 L15.685,9.384 L4.684,13.051 C4.275,13.187 4,13.569 4,14 C4,14.431 4.275,14.812 4.684,14.949 L8,16.054 L8,25.007 C6.927,26.22 6.75,29.212 6.75,29.25 C6.75,30.491 7.76,31.5 9,31.5 C10.24,31.5 11.25,30.491 11.25,29.25 C11.25,29.212 11.073,26.22 10,25.007 L10,16.721 L15.693,18.618 L13.165,22.449 C13.058,22.613 13,22.804 13,23 C13,28.607 21.346,33 32,33 C42.654,33 51,28.607 51,23 C51,22.808 50.945,22.621 50.841,22.459 L48.36,18.601 L59.316,14.949 C59.725,14.812 60,14.431 60,14 C60,13.569 59.725,13.187 59.316,13.051 L59.316,13.051 Z M32,58 C30.346,58 29,56.654 29,55 C29,53.346 30.346,52 32,52 C33.654,52 35,53.346 35,55 C35,56.654 33.654,58 32,58 L32,58 Z M33,50.101 L33,34.69 C32.666,34.698 32.337,34.717 32,34.717 C31.663,34.717 31.334,34.698 31,34.69 L31,50.101 C28.721,50.566 27,52.586 27,55 C27,57.757 29.243,60 32,60 C34.757,60 37,57.757 37,55 C37,52.586 35.279,50.566 33,50.101 L33,50.101 Z M46,48 C44.346,48 43,46.654 43,45 C43,43.346 44.346,42 46,42 C47.654,42 49,43.346 49,45 C49,46.654 47.654,48 46,48 L46,48 Z M46,40 C43.586,40 41.566,41.721 41.101,44 L38,44 L38,34.263 C37.344,34.363 36.678,34.448 36,34.514 L36,45 C36,45.552 36.447,46 37,46 L41.101,46 C41.566,48.279 43.586,50 46,50 C48.757,50 51,47.757 51,45 C51,42.243 48.757,40 46,40 L46,40 Z" id="Fill-1"></path>
        </g>
    </g>
</svg>