<?xml version="1.0" encoding="UTF-8"?><svg version="1.1" width="48px" height="48px" viewBox="0 0 48.0 48.0" xmlns="http://www.w3.org/2000/svg" xmlns:xlink="http://www.w3.org/1999/xlink"><defs><clipPath id="i0"><path d="M37.379,23.1926689 C37.619,23.0026689 37.93,22.9326689 38.229,23.0036689 C41.627,23.8036689 44,27.0826689 44,30.9766689 C44,33.8926689 42.038,36.2266689 39,37.3126689 L39,40.9766689 L37,40.9766689 L37,37.8206689 C36.362,37.9206689 35.695,37.9766689 35,37.9766689 C34.305,37.9766689 33.638,37.9206689 33,37.8206689 L33,40.9766689 L31,40.9766689 L31,37.3126689 C27.962,36.2266689 26,33.8926689 26,30.9766689 C26,27.0826689 28.373,23.8036689 31.771,23.0036689 C32.068,22.9336689 32.382,23.0026689 32.621,23.1926689 C32.86,23.3826689 33,23.6706689 33,23.9766689 L33,28.9766689 L37,28.9766689 L37,23.9766689 C37,23.6706689 37.14,23.3826689 37.379,23.1926689 Z M7,22.9766689 C10.859,22.9766689 14,26.1166689 14,29.9766689 C14,30.8776689 13.823,31.7366689 13.511,32.5286689 L17.601,36.6296689 C18.58,37.6116689 18.564,39.2226689 17.566,40.2186689 C17.062,40.7226689 16.4,40.9756689 15.742,40.9756689 C15.099,40.9756689 14.459,40.7336689 13.974,40.2476689 L10.005,36.2886689 C9.093,36.7246689 8.077,36.9766689 7,36.9766689 C3.141,36.9766689 0,33.8366689 0,29.9766689 C0,26.1166689 3.141,22.9766689 7,22.9766689 Z M12.477,34.3236689 C12.24,34.6206689 11.978,34.8966689 11.697,35.1516689 L15.386,38.8326689 C15.59,39.0366689 15.933,39.0226689 16.154,38.8036689 C16.372,38.5846689 16.386,38.2436689 16.185,38.0416689 Z M25.751,35.5046689 L26.249,37.4406689 C24.869,37.7966689 23.439,37.9766689 22,37.9766689 C21.289,37.9766689 20.574,37.9326689 19.876,37.8446689 L20.124,35.8606689 C21.987,36.0936689 23.932,35.9726689 25.751,35.5046689 Z M39,25.4146689 L39,29.9766689 C39,30.5286689 38.553,30.9766689 38,30.9766689 L32,30.9766689 C31.447,30.9766689 31,30.5286689 31,29.9766689 L31,25.4146689 C28.948,26.5206689 28,28.9266689 28,30.9766689 C28,34.4126689 31.629,35.9766689 35,35.9766689 C38.371,35.9766689 42,34.4126689 42,30.9766689 C42,28.9266689 41.052,26.5206689 39,25.4146689 Z M7,24.9766689 C4.243,24.9766689 2,27.2196689 2,29.9766689 C2,32.7336689 4.243,34.9766689 7,34.9766689 C9.757,34.9766689 12,32.7336689 12,29.9766689 C12,27.2196689 9.757,24.9766689 7,24.9766689 Z M36.057,11.4136689 C37.982,14.2376689 39,17.5446689 39,20.9766689 L37,20.9766689 C37,17.9486689 36.103,15.0306689 34.404,12.5396689 L36.057,11.4136689 Z M8.188,11.0636689 L9.812,12.2306689 C7.973,14.7896689 7,17.8146689 7,20.9766689 L5,20.9766689 C5,17.3936689 6.103,13.9646689 8.188,11.0636689 Z M17.358,0.518668894 C19.76,-0.503331106 22.302,0.00366889354 24.158,1.87466889 C24.569,2.28866889 24.926,2.76466889 25.226,3.29666889 C25.883,2.98066889 26.634,2.90866889 27.355,3.11966889 C28.558,3.46966889 29.395,4.47966889 29.679,5.88066889 C31.399,6.41466889 33.01,7.79966889 33.01,10.3316689 C33.01,13.7286689 30.229,14.8526689 28.758,14.9736689 L15.772,14.9626689 C13.481,14.9606689 11.334,13.1206689 11.083,10.9456689 C11.059,10.7416689 11.046,10.5266689 11.046,10.3006689 C11.046,8.32166889 12.042,6.78266889 13.752,6.04966889 C13.782,3.75366889 15.322,1.38466889 17.358,0.518668894 Z M19.817,1.99766889 C19.309,1.99766889 18.748,2.10066889 18.142,2.35866889 C16.824,2.91966889 15.752,4.60566889 15.752,6.11866889 C15.752,6.29466889 15.763,6.46666889 15.782,6.63666889 C15.841,7.13366889 15.522,7.59766889 15.037,7.72166889 C14.129,7.95466889 13.046,8.59066889 13.046,10.3006689 C13.046,10.4456689 13.055,10.5836689 13.069,10.7156689 C13.205,11.8906689 14.494,12.9616689 15.774,12.9626689 L28.678,12.9766689 C28.993,12.9416689 31.01,12.6326689 31.01,10.3316689 C31.01,8.38066889 29.498,7.82866889 28.597,7.67266889 C28.088,7.58466889 27.736,7.12766889 27.769,6.62466889 C27.69,5.78466889 27.331,5.19566889 26.796,5.03966889 C26.379,4.91566889 25.939,5.08266889 25.652,5.47366889 C25.433,5.77266889 25.07,5.92366889 24.699,5.87066889 C24.333,5.81566889 24.026,5.56266889 23.903,5.21366889 C23.634,4.44766889 23.23,3.77966889 22.738,3.28266889 C22.291,2.83166889 21.267,1.99766889 19.817,1.99766889 Z"></path></clipPath></defs><g transform="translate(2.0 3.0)"><g clip-path="url(#i0)"><polygon points="0,-3.55271368e-15 44,-3.55271368e-15 44,40.9766689 0,40.9766689 0,-3.55271368e-15" stroke="none" fill="#B0084D"></polygon></g></g></svg>