<?xml version="1.0" encoding="UTF-8"?>
<svg xmlns="http://www.w3.org/2000/svg" xmlns:xlink="http://www.w3.org/1999/xlink" width="64" height="64" viewBox="0 0 64 64">
<path fill-rule="evenodd" fill="rgb(92.941177%, 44.313726%, 0%)" fill-opacity="1" d="M 9.554688 34.28125 L 14.28125 34.28125 L 14.28125 29.554688 L 9.554688 29.554688 Z M 14.582031 26.890625 L 9.253906 26.890625 C 7.949219 26.890625 6.890625 27.949219 6.890625 29.253906 L 6.890625 34.582031 C 6.890625 35.886719 7.949219 36.945312 9.253906 36.945312 L 14.582031 36.945312 C 15.886719 36.945312 16.945312 35.886719 16.945312 34.582031 L 16.945312 29.253906 C 16.945312 27.949219 15.886719 26.890625 14.582031 26.890625 Z M 49.675781 34.28125 L 54.402344 34.28125 L 54.402344 29.554688 L 49.675781 29.554688 Z M 49.375 36.945312 L 54.703125 36.945312 C 56.007812 36.945312 57.066406 35.886719 57.066406 34.582031 L 57.066406 29.253906 C 57.066406 27.949219 56.007812 26.890625 54.703125 26.890625 L 49.375 26.890625 C 48.070312 26.890625 47.011719 27.949219 47.011719 29.253906 L 47.011719 34.582031 C 47.011719 35.886719 48.070312 36.945312 49.375 36.945312 Z M 29.617188 34.28125 L 34.339844 34.28125 L 34.339844 29.554688 L 29.617188 29.554688 Z M 34.640625 26.890625 L 29.316406 26.890625 C 28.011719 26.890625 26.949219 27.949219 26.949219 29.253906 L 26.949219 34.582031 C 26.949219 35.886719 28.011719 36.945312 29.316406 36.945312 L 34.640625 36.945312 C 35.945312 36.945312 37.007812 35.886719 37.007812 34.582031 L 37.007812 29.253906 C 37.007812 27.949219 35.945312 26.890625 34.640625 26.890625 Z M 58.625 38.503906 L 45.871094 38.503906 C 45.769531 38.496094 45.585938 38.433594 45.453125 38.363281 L 45.453125 33.222656 L 38.5625 33.222656 L 38.5625 38.503906 L 25.808594 38.503906 C 25.707031 38.496094 25.527344 38.433594 25.394531 38.363281 L 25.394531 33.222656 L 18.503906 33.222656 L 18.503906 38.363281 C 18.371094 38.433594 18.1875 38.496094 18.09375 38.503906 L 5.332031 38.503906 L 5.332031 25.332031 L 18.183594 25.332031 C 18.234375 25.335938 18.324219 25.371094 18.394531 25.410156 L 18.394531 30.613281 L 25.5 30.613281 L 25.5 25.40625 C 25.574219 25.371094 25.65625 25.335938 25.703125 25.332031 L 38.5625 25.332031 L 38.5625 30.613281 L 45.5625 30.613281 L 45.5625 25.40625 C 45.632812 25.371094 45.71875 25.335938 45.761719 25.332031 L 58.625 25.332031 Z M 58.867188 22.667969 L 45.761719 22.667969 C 44.566406 22.667969 42.894531 23.605469 42.894531 25.128906 L 42.894531 27.945312 L 41.230469 27.945312 L 41.230469 25.128906 C 41.230469 23.773438 40.144531 22.667969 38.804688 22.667969 L 25.703125 22.667969 C 24.503906 22.667969 22.835938 23.605469 22.835938 25.128906 L 22.835938 27.945312 L 21.0625 27.945312 L 21.0625 25.128906 C 21.0625 23.605469 19.390625 22.667969 18.191406 22.667969 L 5.09375 22.667969 C 3.753906 22.667969 2.667969 23.773438 2.667969 25.128906 L 2.667969 38.707031 C 2.667969 40.0625 3.753906 41.167969 5.09375 41.167969 L 18.09375 41.167969 C 19.167969 41.167969 21.171875 40.324219 21.171875 38.707031 L 21.171875 35.890625 L 22.726562 35.890625 L 22.726562 38.707031 C 22.726562 40.324219 24.730469 41.167969 25.800781 41.167969 L 38.804688 41.167969 C 40.144531 41.167969 41.230469 40.0625 41.230469 38.707031 L 41.230469 35.890625 L 42.785156 35.890625 L 42.785156 38.707031 C 42.785156 40.324219 44.789062 41.167969 45.863281 41.167969 L 58.867188 41.167969 C 60.203125 41.167969 61.289062 40.0625 61.289062 38.707031 L 61.289062 25.128906 C 61.289062 23.773438 60.203125 22.667969 58.867188 22.667969 Z M 58.867188 22.667969 "/>
</svg>
