<?xml version="1.0" encoding="UTF-8"?>
<svg xmlns="http://www.w3.org/2000/svg" xmlns:xlink="http://www.w3.org/1999/xlink" width="64" height="64" viewBox="0 0 64 64">
<path fill-rule="evenodd" fill="rgb(78.823531%, 14.509805%, 81.960785%)" fill-opacity="1" d="M 37.230469 45.34375 C 41.21875 44.667969 42.667969 43.375 42.667969 42.667969 L 42.667969 39.359375 C 40.070312 40.582031 35.957031 41.074219 32 41.074219 C 28.042969 41.074219 23.929688 40.582031 21.332031 39.359375 L 21.332031 42.667969 C 21.332031 43.375 22.78125 44.667969 26.769531 45.34375 C 27.652344 45.496094 28.59375 45.605469 29.558594 45.675781 C 29.957031 45.707031 30.355469 45.726562 30.761719 45.738281 C 31.578125 45.769531 32.425781 45.769531 33.238281 45.738281 C 33.644531 45.726562 34.042969 45.707031 34.4375 45.675781 C 35.40625 45.605469 36.347656 45.496094 37.230469 45.34375 Z M 21.332031 36.125 C 21.492188 36.789062 24.789062 38.40625 32 38.40625 C 39.203125 38.40625 42.5 36.796875 42.667969 36.121094 L 42.667969 31.9375 C 40.015625 33.210938 35.8125 33.71875 32 33.71875 C 28.1875 33.71875 23.984375 33.210938 21.332031 31.9375 Z M 21.332031 28.675781 C 21.472656 29.347656 24.855469 31.054688 32 31.054688 C 39.144531 31.054688 42.527344 29.347656 42.667969 28.667969 L 42.667969 24.476562 C 40.105469 25.761719 36.046875 26.367188 32 26.367188 C 27.953125 26.367188 23.894531 25.761719 21.332031 24.476562 Z M 21.359375 21.207031 C 21.636719 21.945312 25.085938 23.699219 32 23.699219 C 38.910156 23.699219 42.359375 21.945312 42.640625 21.203125 C 42.378906 20.101562 38.742188 18.234375 32 18.234375 C 25.25 18.234375 21.613281 20.105469 21.359375 21.207031 Z M 37.675781 47.976562 C 36.707031 48.136719 35.683594 48.261719 34.628906 48.335938 C 34.207031 48.367188 33.773438 48.390625 33.332031 48.40625 C 32.894531 48.421875 32.449219 48.429688 32 48.429688 C 31.550781 48.429688 31.105469 48.421875 30.664062 48.40625 C 30.226562 48.390625 29.792969 48.367188 29.367188 48.335938 C 28.316406 48.261719 27.292969 48.136719 26.324219 47.976562 C 21.457031 47.148438 18.667969 45.214844 18.667969 42.667969 L 18.667969 21.332031 C 18.667969 21.296875 18.675781 21.265625 18.675781 21.230469 C 18.675781 21.203125 18.667969 21.175781 18.667969 21.148438 L 18.683594 21.148438 C 18.882812 17.855469 24.292969 15.570312 32 15.570312 C 39.707031 15.570312 45.117188 17.855469 45.316406 21.148438 L 45.332031 21.148438 C 45.332031 21.175781 45.324219 21.203125 45.324219 21.230469 C 45.324219 21.265625 45.332031 21.296875 45.332031 21.332031 L 45.332031 42.667969 C 45.332031 45.214844 42.542969 47.148438 37.675781 47.976562 Z M 60 2.667969 L 52 2.667969 L 52 5.332031 L 56.78125 5.332031 L 48.722656 13.390625 L 50.609375 15.277344 L 58.667969 7.21875 L 58.667969 12 L 61.332031 12 L 61.332031 4 C 61.332031 3.261719 60.738281 2.667969 60 2.667969 Z M 2.667969 26.667969 L 5.332031 26.667969 L 5.332031 17.332031 L 2.667969 17.332031 Z M 2.667969 44 L 5.332031 44 L 5.332031 34.667969 L 2.667969 34.667969 Z M 58.667969 29.332031 L 61.332031 29.332031 L 61.332031 20 L 58.667969 20 Z M 58.667969 46.667969 L 61.332031 46.667969 L 61.332031 37.332031 L 58.667969 37.332031 Z M 5.332031 5.332031 L 9.332031 5.332031 L 9.332031 2.667969 L 4 2.667969 C 3.261719 2.667969 2.667969 3.261719 2.667969 4 L 2.667969 9.332031 L 5.332031 9.332031 Z M 17.332031 5.332031 L 26.667969 5.332031 L 26.667969 2.667969 L 17.332031 2.667969 Z M 34.667969 5.332031 L 44 5.332031 L 44 2.667969 L 34.667969 2.667969 Z M 20 61.332031 L 29.332031 61.332031 L 29.332031 58.667969 L 20 58.667969 Z M 37.332031 61.332031 L 46.667969 61.332031 L 46.667969 58.667969 L 37.332031 58.667969 Z M 58.667969 58.664062 L 54.667969 58.667969 L 54.667969 61.332031 L 60 61.332031 C 60.738281 61.332031 61.332031 60.734375 61.332031 60 L 61.332031 54.667969 L 58.667969 54.667969 Z M 15.277344 50.609375 L 7.21875 58.667969 L 12 58.667969 L 12 61.332031 L 4 61.332031 C 3.261719 61.332031 2.667969 60.734375 2.667969 60 L 2.667969 52 L 5.332031 52 L 5.332031 56.78125 L 13.390625 48.722656 Z M 15.277344 50.609375 "/>
</svg>
