<?xml version="1.0" encoding="UTF-8"?>
<svg xmlns="http://www.w3.org/2000/svg" xmlns:xlink="http://www.w3.org/1999/xlink" width="64" height="64" viewBox="0 0 64 64">
<path fill-rule="evenodd" fill="rgb(78.823531%, 14.509805%, 81.960785%)" fill-opacity="1" d="M 40.242188 16.800781 C 40.242188 13.042969 43.296875 9.988281 47.054688 9.988281 C 50.808594 9.988281 53.863281 13.042969 53.863281 16.800781 C 53.863281 20.554688 50.808594 23.609375 47.054688 23.609375 C 43.296875 23.609375 40.242188 20.554688 40.242188 16.800781 Z M 37.574219 16.800781 C 37.574219 22.027344 41.828125 26.277344 47.054688 26.277344 C 52.28125 26.277344 56.53125 22.027344 56.53125 16.800781 C 56.53125 11.574219 52.28125 7.320312 47.054688 7.320312 C 41.828125 7.320312 37.574219 11.574219 37.574219 16.800781 Z M 5.335938 58.519531 L 28.265625 58.519531 L 28.265625 35.585938 L 5.335938 35.585938 Z M 2.667969 61.1875 L 30.933594 61.1875 L 30.933594 32.921875 L 2.667969 32.921875 Z M 35.585938 58.519531 L 58.519531 58.519531 L 58.519531 35.585938 L 35.585938 35.585938 Z M 32.921875 61.1875 L 61.1875 61.1875 L 61.1875 32.921875 L 32.921875 32.921875 Z M 5.332031 28.265625 L 28.265625 28.265625 L 28.265625 5.332031 L 5.332031 5.332031 Z M 2.667969 30.933594 L 30.929688 30.933594 L 30.929688 2.667969 L 2.667969 2.667969 Z M 35.585938 28.265625 L 58.519531 28.265625 L 58.519531 5.332031 L 35.585938 5.332031 Z M 32.921875 30.929688 L 61.1875 30.929688 L 61.1875 2.664062 L 32.921875 2.664062 Z M 32.921875 30.929688 "/>
</svg>
