<?xml version="1.0" encoding="UTF-8"?>
<svg xmlns="http://www.w3.org/2000/svg" xmlns:xlink="http://www.w3.org/1999/xlink" width="64" height="64" viewBox="0 0 64 64">
<path fill-rule="evenodd" fill="rgb(78.823531%, 14.509805%, 81.960785%)" fill-opacity="1" d="M 58.605469 55.476562 L 58.605469 51.851562 C 56.214844 53.101562 52.671875 53.679688 49.449219 53.679688 C 46.207031 53.679688 42.679688 53.101562 40.296875 51.851562 L 40.296875 55.476562 C 40.296875 56.550781 43.859375 58.605469 49.449219 58.605469 C 55.039062 58.605469 58.605469 56.550781 58.605469 55.476562 Z M 40.296875 32.554688 C 40.296875 33.375 43.410156 35.296875 49.449219 35.296875 C 55.492188 35.296875 58.605469 33.375 58.605469 32.554688 C 58.605469 31.730469 55.492188 29.808594 49.449219 29.808594 C 43.410156 29.808594 40.296875 31.730469 40.296875 32.554688 Z M 58.605469 36.09375 C 56.324219 37.328125 52.878906 37.964844 49.449219 37.964844 C 46.019531 37.964844 42.578125 37.328125 40.296875 36.09375 L 40.296875 40.441406 C 41.011719 41.53125 44.417969 42.9375 49.449219 42.9375 C 54.117188 42.9375 57.628906 41.699219 58.5625 40.53125 C 58.582031 40.507812 58.589844 40.488281 58.605469 40.464844 Z M 40.296875 48.519531 C 41.011719 49.609375 44.414062 51.015625 49.449219 51.015625 C 54.652344 51.015625 57.902344 49.566406 58.605469 48.523438 L 58.605469 43.757812 C 56.421875 44.910156 53.136719 45.605469 49.449219 45.605469 C 46.210938 45.605469 42.679688 45.023438 40.296875 43.777344 Z M 61.261719 32.453125 L 61.273438 32.453125 L 61.273438 55.476562 C 61.273438 58.726562 56.078125 61.273438 49.449219 61.273438 C 42.820312 61.273438 37.628906 58.726562 37.628906 55.476562 L 37.628906 32.453125 L 37.636719 32.453125 C 37.75 28.964844 43.632812 27.140625 49.449219 27.140625 C 55.269531 27.140625 61.152344 28.964844 61.261719 32.453125 Z M 36.5625 24.925781 C 36.398438 24.875 36.207031 24.847656 35.984375 24.847656 C 35.773438 24.847656 35.609375 24.917969 35.496094 25.054688 C 35.382812 25.191406 35.324219 25.386719 35.324219 25.648438 C 35.324219 25.867188 35.367188 26.042969 35.460938 26.171875 C 35.554688 26.300781 35.675781 26.367188 35.832031 26.367188 C 36.074219 26.367188 36.316406 26.246094 36.5625 26.011719 Z M 37.953125 27.285156 L 36.78125 27.285156 L 36.648438 26.777344 C 36.523438 26.964844 36.34375 27.125 36.109375 27.246094 C 35.871094 27.367188 35.632812 27.429688 35.390625 27.429688 C 34.933594 27.429688 34.574219 27.277344 34.308594 26.980469 C 34.042969 26.679688 33.910156 26.269531 33.910156 25.746094 C 33.910156 25.191406 34.074219 24.753906 34.398438 24.433594 C 34.71875 24.113281 35.160156 23.953125 35.710938 23.953125 C 35.9375 23.953125 36.222656 23.996094 36.5625 24.085938 L 36.5625 23.574219 C 36.5625 23.191406 36.511719 22.933594 36.410156 22.796875 C 36.3125 22.660156 36.128906 22.589844 35.855469 22.589844 C 35.410156 22.589844 34.871094 22.707031 34.230469 22.945312 L 34.230469 21.9375 C 34.445312 21.796875 34.722656 21.6875 35.070312 21.605469 C 35.414062 21.523438 35.769531 21.484375 36.128906 21.484375 C 36.769531 21.484375 37.234375 21.628906 37.519531 21.921875 C 37.808594 22.210938 37.953125 22.679688 37.953125 23.320312 Z M 31.84375 23.15625 C 32.164062 22.976562 32.496094 22.890625 32.851562 22.890625 C 33.035156 22.890625 33.230469 22.90625 33.4375 22.945312 L 33.4375 21.605469 C 33.316406 21.582031 33.199219 21.570312 33.082031 21.570312 C 32.839844 21.570312 32.609375 21.632812 32.390625 21.761719 C 32.175781 21.886719 31.957031 22.085938 31.734375 22.355469 L 31.570312 21.625 L 30.332031 21.625 L 30.332031 27.285156 L 31.84375 27.285156 Z M 26.214844 24.460938 C 26.214844 25.089844 26.273438 25.550781 26.398438 25.839844 C 26.515625 26.132812 26.714844 26.277344 26.988281 26.277344 C 27.257812 26.277344 27.457031 26.132812 27.578125 25.839844 C 27.699219 25.550781 27.757812 25.089844 27.757812 24.460938 C 27.757812 23.832031 27.699219 23.371094 27.578125 23.078125 C 27.457031 22.78125 27.257812 22.632812 26.988281 22.632812 C 26.714844 22.632812 26.515625 22.78125 26.398438 23.078125 C 26.273438 23.371094 26.214844 23.832031 26.214844 24.460938 Z M 25.296875 26.652344 C 24.902344 26.136719 24.699219 25.40625 24.699219 24.460938 C 24.699219 23.507812 24.902344 22.777344 25.296875 22.257812 C 25.695312 21.742188 26.257812 21.484375 26.988281 21.484375 C 27.714844 21.484375 28.277344 21.742188 28.675781 22.257812 C 29.074219 22.777344 29.273438 23.507812 29.273438 24.460938 C 29.273438 25.40625 29.074219 26.136719 28.675781 26.652344 C 28.277344 27.171875 27.714844 27.429688 26.988281 27.429688 C 26.257812 27.429688 25.695312 27.171875 25.296875 26.652344 Z M 22.667969 23.15625 C 22.988281 22.976562 23.320312 22.890625 23.675781 22.890625 C 23.859375 22.890625 24.054688 22.90625 24.257812 22.945312 L 24.257812 21.605469 C 24.140625 21.582031 24.023438 21.570312 23.90625 21.570312 C 23.664062 21.570312 23.433594 21.632812 23.214844 21.761719 C 23 21.886719 22.78125 22.085938 22.558594 22.355469 L 22.394531 21.625 L 21.15625 21.625 L 21.15625 27.285156 L 22.667969 27.285156 Z M 15.601562 21.625 L 15.601562 25.746094 C 15.601562 26.292969 15.710938 26.707031 15.921875 26.996094 C 16.136719 27.285156 16.449219 27.429688 16.859375 27.429688 C 17.382812 27.429688 17.929688 27.210938 18.496094 26.777344 L 18.617188 27.285156 L 19.855469 27.285156 L 19.855469 21.625 L 18.34375 21.625 L 18.34375 26.023438 C 18.097656 26.191406 17.867188 26.277344 17.644531 26.277344 C 17.453125 26.277344 17.320312 26.199219 17.238281 26.046875 C 17.15625 25.890625 17.117188 25.632812 17.117188 25.269531 L 17.117188 21.625 Z M 12.578125 24.351562 L 11.882812 21.171875 L 11.207031 24.351562 Z M 12.796875 19.613281 L 14.90625 27.285156 L 13.207031 27.285156 L 12.808594 25.457031 L 10.976562 25.457031 L 10.589844 27.285156 L 8.964844 27.285156 L 11.085938 19.613281 Z M 43.320312 16.214844 L 43.320312 12.0625 C 43.320312 11.523438 43.207031 11.113281 42.980469 10.832031 C 42.757812 10.550781 42.429688 10.410156 42.003906 10.410156 C 41.464844 10.410156 40.90625 10.628906 40.3125 11.066406 L 40.191406 10.554688 L 38.957031 10.554688 L 38.957031 16.214844 L 40.46875 16.214844 L 40.46875 11.828125 C 40.742188 11.652344 40.992188 11.5625 41.222656 11.5625 C 41.433594 11.5625 41.582031 11.636719 41.671875 11.785156 C 41.761719 11.933594 41.804688 12.167969 41.804688 12.492188 L 41.804688 16.214844 Z M 34.835938 13.390625 C 34.835938 14.015625 34.898438 14.476562 35.019531 14.769531 C 35.140625 15.058594 35.339844 15.207031 35.613281 15.207031 C 35.882812 15.207031 36.078125 15.058594 36.199219 14.769531 C 36.324219 14.476562 36.382812 14.015625 36.382812 13.390625 C 36.382812 12.761719 36.324219 12.300781 36.199219 12.007812 C 36.078125 11.710938 35.882812 11.5625 35.613281 11.5625 C 35.339844 11.5625 35.140625 11.710938 35.019531 12.007812 C 34.898438 12.300781 34.835938 12.761719 34.835938 13.390625 Z M 33.921875 15.582031 C 33.523438 15.066406 33.324219 14.335938 33.324219 13.390625 C 33.324219 12.4375 33.523438 11.703125 33.921875 11.1875 C 34.320312 10.667969 34.882812 10.410156 35.613281 10.410156 C 36.339844 10.410156 36.902344 10.667969 37.300781 11.1875 C 37.695312 11.703125 37.898438 12.4375 37.898438 13.390625 C 37.898438 14.335938 37.695312 15.066406 37.300781 15.582031 C 36.902344 16.097656 36.339844 16.355469 35.613281 16.355469 C 34.882812 16.355469 34.320312 16.097656 33.921875 15.582031 Z M 32.640625 15.050781 L 30.308594 15.050781 L 32.597656 11.628906 L 32.597656 10.554688 L 28.808594 10.554688 L 28.808594 11.71875 L 31.007812 11.71875 L 28.722656 15.140625 L 28.722656 16.214844 L 32.640625 16.214844 Z M 25.1875 14.574219 C 25.1875 14.796875 25.234375 14.972656 25.324219 15.101562 C 25.417969 15.230469 25.542969 15.292969 25.695312 15.292969 C 25.9375 15.292969 26.179688 15.175781 26.421875 14.941406 L 26.421875 13.855469 C 26.261719 13.804688 26.070312 13.777344 25.851562 13.777344 C 25.636719 13.777344 25.472656 13.84375 25.359375 13.984375 C 25.242188 14.117188 25.1875 14.316406 25.1875 14.574219 Z M 25.253906 16.355469 C 24.796875 16.355469 24.4375 16.207031 24.171875 15.910156 C 23.90625 15.609375 23.773438 15.199219 23.773438 14.671875 C 23.773438 14.121094 23.9375 13.683594 24.257812 13.363281 C 24.582031 13.042969 25.023438 12.878906 25.574219 12.878906 C 25.800781 12.878906 26.085938 12.925781 26.421875 13.011719 L 26.421875 12.503906 C 26.421875 12.121094 26.375 11.863281 26.277344 11.722656 C 26.175781 11.589844 25.992188 11.519531 25.71875 11.519531 C 25.277344 11.519531 24.734375 11.636719 24.09375 11.875 L 24.09375 10.867188 C 24.308594 10.726562 24.585938 10.613281 24.933594 10.535156 C 25.28125 10.453125 25.632812 10.410156 25.992188 10.410156 C 26.632812 10.410156 27.097656 10.558594 27.382812 10.847656 C 27.671875 11.140625 27.816406 11.605469 27.816406 12.25 L 27.816406 16.214844 L 26.644531 16.214844 L 26.511719 15.703125 C 26.386719 15.894531 26.207031 16.050781 25.972656 16.171875 C 25.734375 16.296875 25.496094 16.355469 25.253906 16.355469 Z M 21.0625 11.785156 C 21.148438 11.933594 21.191406 12.164062 21.191406 12.484375 L 21.191406 16.214844 L 22.703125 16.214844 L 22.703125 12.0625 C 22.703125 11.53125 22.59375 11.121094 22.371094 10.835938 C 22.152344 10.554688 21.835938 10.410156 21.421875 10.410156 C 20.90625 10.410156 20.347656 10.636719 19.742188 11.085938 C 19.53125 10.636719 19.160156 10.410156 18.636719 10.410156 C 18.125 10.410156 17.574219 10.628906 16.980469 11.066406 L 16.859375 10.554688 L 15.625 10.554688 L 15.625 16.214844 L 17.136719 16.214844 L 17.136719 11.828125 C 17.410156 11.652344 17.648438 11.5625 17.855469 11.5625 C 18.054688 11.5625 18.195312 11.636719 18.28125 11.785156 C 18.363281 11.933594 18.40625 12.164062 18.40625 12.484375 L 18.40625 16.214844 L 19.917969 16.214844 L 19.917969 11.949219 C 19.917969 11.90625 19.917969 11.867188 19.910156 11.828125 C 20.183594 11.652344 20.425781 11.5625 20.636719 11.5625 C 20.835938 11.5625 20.976562 11.636719 21.0625 11.785156 Z M 12.578125 13.277344 L 11.882812 10.101562 L 11.207031 13.277344 Z M 14.90625 16.214844 L 13.207031 16.214844 L 12.808594 14.386719 L 10.976562 14.386719 L 10.589844 16.214844 L 8.964844 16.214844 L 11.085938 8.542969 L 12.796875 8.542969 Z M 61.273438 10.347656 L 61.273438 27.308594 L 58.605469 27.308594 L 58.605469 10.347656 C 58.605469 7.585938 56.355469 5.332031 53.589844 5.332031 L 10.347656 5.332031 C 7.582031 5.332031 5.332031 7.585938 5.332031 10.347656 L 5.332031 53.589844 C 5.332031 56.355469 7.582031 58.605469 10.347656 58.605469 L 36.632812 58.605469 L 36.632812 61.273438 L 10.347656 61.273438 C 6.113281 61.273438 2.667969 57.828125 2.667969 53.589844 L 2.667969 10.347656 C 2.667969 6.113281 6.113281 2.667969 10.347656 2.667969 L 53.589844 2.667969 C 57.824219 2.667969 61.273438 6.113281 61.273438 10.347656 Z M 61.273438 10.347656 "/>
</svg>
