<?xml version="1.0" encoding="UTF-8"?>
<svg xmlns="http://www.w3.org/2000/svg" xmlns:xlink="http://www.w3.org/1999/xlink" width="64" height="64" viewBox="0 0 64 64">
<path fill-rule="evenodd" fill="rgb(78.823531%, 14.509805%, 81.960785%)" fill-opacity="1" d="M 58.011719 15.296875 C 58.011719 16.390625 58.90625 17.28125 60.011719 17.28125 C 60.746094 17.28125 61.34375 17.878906 61.34375 18.613281 L 61.34375 39.859375 C 61.34375 40.59375 60.746094 41.191406 60.011719 41.191406 L 49.636719 41.191406 L 49.636719 38.523438 L 54.527344 38.523438 L 54.527344 36.003906 L 49.636719 36.003906 L 49.636719 33.339844 L 55.863281 33.339844 C 56.597656 33.339844 57.195312 33.933594 57.195312 34.671875 L 57.195312 38.523438 L 58.675781 38.523438 L 58.675781 19.753906 C 56.75 19.179688 55.34375 17.398438 55.34375 15.296875 C 55.34375 13.191406 56.75 11.410156 58.675781 10.835938 L 58.675781 8 L 5.332031 8 L 5.332031 10.835938 C 7.257812 11.410156 8.667969 13.191406 8.667969 15.296875 C 8.667969 17.398438 7.257812 19.179688 5.332031 19.753906 L 5.332031 38.523438 L 6.816406 38.523438 L 6.816406 34.671875 C 6.816406 33.933594 7.414062 33.339844 8.148438 33.339844 L 14.371094 33.339844 L 14.371094 36.003906 L 9.480469 36.003906 L 9.480469 38.523438 L 14.371094 38.523438 L 14.371094 41.191406 L 4 41.191406 C 3.261719 41.191406 2.667969 40.59375 2.667969 39.859375 L 2.667969 18.613281 C 2.667969 17.878906 3.261719 17.28125 4 17.28125 C 5.105469 17.28125 6 16.390625 6 15.296875 C 6 14.199219 5.105469 13.308594 4 13.308594 C 3.261719 13.308594 2.667969 12.714844 2.667969 11.976562 L 2.667969 6.667969 C 2.667969 5.929688 3.261719 5.332031 4 5.332031 L 60.011719 5.332031 C 60.746094 5.332031 61.34375 5.929688 61.34375 6.667969 L 61.34375 11.976562 C 61.34375 12.714844 60.746094 13.308594 60.011719 13.308594 C 58.90625 13.308594 58.011719 14.199219 58.011719 15.296875 Z M 32.261719 44.074219 L 29.488281 44.074219 L 29.488281 38.824219 L 32.328125 38.824219 C 34.054688 38.824219 34.921875 39.699219 34.921875 41.449219 C 34.921875 43.199219 34.035156 44.074219 32.261719 44.074219 Z M 36.964844 44.027344 C 37.488281 43.285156 37.75 42.394531 37.75 41.359375 C 37.75 39.929688 37.28125 38.792969 36.347656 37.949219 C 35.410156 37.101562 34.167969 36.679688 32.617188 36.679688 L 26.703125 36.679688 L 26.703125 52.496094 L 29.488281 52.496094 L 29.488281 46.21875 L 32.273438 46.21875 L 35.96875 52.496094 L 38.753906 52.496094 L 34.667969 45.742188 C 35.671875 45.34375 36.4375 44.773438 36.964844 44.027344 Z M 13.632812 28.152344 L 15.410156 28.152344 L 15.410156 30.820312 L 12.296875 30.820312 C 11.5625 30.820312 10.964844 30.222656 10.964844 29.484375 L 10.964844 11.851562 C 10.964844 11.117188 11.5625 10.519531 12.296875 10.519531 L 18.523438 10.519531 C 19.257812 10.519531 19.855469 11.117188 19.855469 11.851562 L 19.855469 20.148438 L 17.1875 20.148438 L 17.1875 13.1875 L 13.632812 13.1875 Z M 50.378906 28.152344 L 50.378906 13.1875 L 46.824219 13.1875 L 46.824219 20.148438 L 44.15625 20.148438 L 44.15625 11.851562 C 44.15625 11.117188 44.753906 10.519531 45.488281 10.519531 L 51.714844 10.519531 C 52.449219 10.519531 53.046875 11.117188 53.046875 11.851562 L 53.046875 29.484375 C 53.046875 30.222656 52.449219 30.820312 51.714844 30.820312 L 49.636719 30.820312 L 49.636719 28.152344 Z M 40.007812 19.113281 L 40.007812 13.1875 L 35.414062 13.1875 L 35.414062 18.074219 L 32.746094 18.074219 L 32.746094 11.851562 C 32.746094 11.117188 33.34375 10.519531 34.082031 10.519531 L 41.339844 10.519531 C 42.078125 10.519531 42.675781 11.117188 42.675781 11.851562 L 42.675781 19.113281 Z M 28.597656 18.074219 L 28.597656 13.1875 L 24.003906 13.1875 L 24.003906 19.113281 L 21.335938 19.113281 L 21.335938 11.851562 C 21.335938 11.117188 21.933594 10.519531 22.671875 10.519531 L 29.929688 10.519531 C 30.667969 10.519531 31.265625 11.117188 31.265625 11.851562 L 31.265625 18.074219 Z M 42.308594 40.480469 C 43.5 40.101562 44.445312 39.691406 45.195312 39.257812 L 45.195312 44.957031 C 45.195312 45.421875 44.210938 46.417969 41.507812 47.269531 L 42.308594 49.8125 C 43.5 49.4375 44.445312 49.023438 45.195312 48.59375 L 45.195312 53.679688 C 45.195312 54.917969 40.1875 57.195312 32.007812 57.195312 C 23.824219 57.195312 18.816406 54.917969 18.816406 53.679688 L 18.816406 48.597656 C 19.574219 49.03125 20.527344 49.445312 21.738281 49.824219 L 22.535156 47.28125 C 19.808594 46.425781 18.816406 45.425781 18.816406 44.957031 L 18.816406 39.261719 C 19.574219 39.695312 20.527344 40.113281 21.738281 40.492188 L 22.535156 37.945312 C 19.808594 37.09375 18.816406 36.089844 18.816406 35.625 L 18.816406 29.90625 C 21.828125 31.652344 26.957031 32.476562 31.859375 32.476562 C 37.007812 32.476562 42.183594 31.570312 45.195312 29.820312 L 45.195312 35.625 C 45.195312 36.085938 44.210938 37.082031 41.507812 37.933594 Z M 31.859375 22.683594 C 40.109375 22.683594 45.160156 24.992188 45.160156 26.246094 C 45.160156 27.503906 40.109375 29.8125 31.859375 29.8125 C 23.433594 29.8125 18.839844 27.457031 18.839844 26.246094 C 18.839844 25.039062 23.433594 22.683594 31.859375 22.683594 Z M 47.84375 26.246094 C 47.84375 22.15625 39.792969 20.015625 31.859375 20.015625 C 24.304688 20.015625 16.164062 21.964844 16.164062 26.246094 L 16.164062 26.386719 L 16.152344 53.679688 C 16.152344 57.738281 24.128906 59.859375 32.007812 59.859375 C 39.886719 59.859375 47.859375 57.738281 47.859375 53.679688 L 47.84375 26.386719 Z M 47.84375 26.246094 "/>
</svg>
