<?xml version="1.0" encoding="UTF-8"?>
<svg xmlns="http://www.w3.org/2000/svg" xmlns:xlink="http://www.w3.org/1999/xlink" width="64" height="64" viewBox="0 0 64 64">
<path fill-rule="evenodd" fill="rgb(78.823531%, 14.509805%, 81.960785%)" fill-opacity="1" d="M 45.183594 9.71875 L 50.480469 9.71875 L 50.480469 10.894531 L 46.648438 10.894531 L 46.648438 14.183594 L 49.816406 14.183594 L 49.816406 15.363281 L 46.648438 15.363281 L 46.648438 18.996094 L 50.480469 18.996094 L 50.480469 20.175781 L 45.183594 20.175781 Z M 41.457031 9.71875 L 42.921875 9.71875 L 42.921875 20.175781 L 41.457031 20.175781 L 41.457031 15.421875 L 37.65625 15.421875 L 37.65625 20.175781 L 36.191406 20.175781 L 36.191406 9.71875 L 37.65625 9.71875 L 37.65625 14.230469 L 41.457031 14.230469 Z M 32.601562 19.042969 C 33.054688 19.042969 33.707031 18.917969 34.5625 18.664062 L 34.5625 19.855469 C 33.910156 20.167969 33.199219 20.324219 32.4375 20.324219 C 29.742188 20.324219 28.394531 18.546875 28.394531 14.984375 C 28.394531 13.226562 28.738281 11.886719 29.433594 10.96875 C 30.128906 10.054688 31.148438 9.597656 32.496094 9.597656 C 33.140625 9.597656 33.789062 9.734375 34.441406 10.007812 L 34.441406 11.199219 C 33.769531 10.988281 33.175781 10.882812 32.664062 10.882812 C 31.714844 10.882812 31.023438 11.191406 30.585938 11.808594 C 30.148438 12.425781 29.929688 13.421875 29.929688 14.789062 L 29.929688 15.152344 C 29.929688 16.519531 30.144531 17.507812 30.566406 18.121094 C 30.988281 18.734375 31.667969 19.042969 32.601562 19.042969 Z M 22.597656 16.238281 L 23.898438 11.121094 L 25.195312 16.238281 Z M 23.144531 9.71875 L 20.125 20.175781 L 21.617188 20.175781 L 22.328125 17.351562 L 25.480469 17.351562 L 26.207031 20.175781 L 27.746094 20.175781 L 24.726562 9.71875 Z M 17.53125 19.042969 C 17.984375 19.042969 18.636719 18.917969 19.492188 18.664062 L 19.492188 19.855469 C 18.835938 20.167969 18.128906 20.324219 17.363281 20.324219 C 14.667969 20.324219 13.324219 18.546875 13.324219 14.984375 C 13.324219 13.226562 13.667969 11.886719 14.363281 10.96875 C 15.054688 10.054688 16.078125 9.597656 17.425781 9.597656 C 18.066406 9.597656 18.71875 9.734375 19.371094 10.007812 L 19.371094 11.199219 C 18.695312 10.988281 18.105469 10.882812 17.589844 10.882812 C 16.644531 10.882812 15.953125 11.191406 15.515625 11.808594 C 15.078125 12.425781 14.859375 13.421875 14.859375 14.789062 L 14.859375 15.152344 C 14.859375 16.519531 15.070312 17.507812 15.492188 18.121094 C 15.917969 18.734375 16.59375 19.042969 17.53125 19.042969 Z M 58.371094 52.441406 C 58.371094 55.710938 55.710938 58.371094 52.441406 58.371094 L 11.265625 58.371094 C 7.992188 58.371094 5.332031 55.710938 5.332031 52.441406 L 5.332031 11.265625 C 5.332031 7.992188 7.992188 5.332031 11.265625 5.332031 L 52.441406 5.332031 C 55.710938 5.332031 58.371094 7.992188 58.371094 11.265625 Z M 52.441406 2.667969 L 11.265625 2.667969 C 6.523438 2.667969 2.667969 6.523438 2.667969 11.265625 L 2.667969 52.441406 C 2.667969 57.179688 6.523438 61.039062 11.265625 61.039062 L 52.441406 61.039062 C 57.179688 61.039062 61.039062 57.179688 61.039062 52.441406 L 61.039062 11.265625 C 61.039062 6.523438 57.179688 2.667969 52.441406 2.667969 Z M 52.441406 2.667969 "/>
</svg>
