<?xml version="1.0" encoding="UTF-8"?>
<svg xmlns="http://www.w3.org/2000/svg" xmlns:xlink="http://www.w3.org/1999/xlink" width="64" height="64" viewBox="0 0 64 64">
<path fill-rule="evenodd" fill="rgb(78.823531%, 14.509805%, 81.960785%)" fill-opacity="1" d="M 16.800781 23.613281 C 13.042969 23.613281 9.988281 20.554688 9.988281 16.800781 C 9.988281 13.042969 13.042969 9.988281 16.800781 9.988281 C 20.554688 9.988281 23.613281 13.042969 23.613281 16.800781 C 23.613281 20.554688 20.554688 23.613281 16.800781 23.613281 Z M 16.800781 7.320312 C 11.574219 7.320312 7.320312 11.574219 7.320312 16.800781 C 7.320312 22.027344 11.574219 26.277344 16.800781 26.277344 C 22.027344 26.277344 26.277344 22.027344 26.277344 16.800781 C 26.277344 11.574219 22.027344 7.320312 16.800781 7.320312 Z M 35.585938 58.519531 L 58.519531 58.519531 L 58.519531 35.585938 L 35.585938 35.585938 Z M 32.921875 61.1875 L 61.1875 61.1875 L 61.1875 32.921875 L 32.921875 32.921875 Z M 5.332031 58.519531 L 28.265625 58.519531 L 28.265625 35.585938 L 5.332031 35.585938 Z M 2.667969 61.1875 L 30.929688 61.1875 L 30.929688 32.921875 L 2.667969 32.921875 Z M 35.585938 28.265625 L 58.519531 28.265625 L 58.519531 5.332031 L 35.585938 5.332031 Z M 32.921875 30.933594 L 61.1875 30.933594 L 61.1875 2.667969 L 32.921875 2.667969 Z M 5.332031 28.265625 L 28.265625 28.265625 L 28.265625 5.332031 L 5.332031 5.332031 Z M 2.667969 30.933594 L 30.929688 30.933594 L 30.929688 2.667969 L 2.667969 2.667969 Z M 2.667969 30.933594 "/>
</svg>
