<?xml version="1.0" encoding="UTF-8"?>
<svg xmlns="http://www.w3.org/2000/svg" xmlns:xlink="http://www.w3.org/1999/xlink" width="64" height="64" viewBox="0 0 64 64">
<path fill-rule="evenodd" fill="rgb(78.823531%, 14.509805%, 81.960785%)" fill-opacity="1" d="M 49.339844 42.777344 C 43.21875 42.777344 40.0625 40.8125 40.0625 39.976562 L 40.0625 35.269531 C 42.367188 36.523438 45.863281 37.175781 49.339844 37.175781 C 52.820312 37.175781 56.3125 36.523438 58.617188 35.269531 L 58.617188 39.976562 C 58.617188 40.8125 55.460938 42.777344 49.339844 42.777344 Z M 49.339844 50.898438 C 43.21875 50.898438 40.0625 48.933594 40.0625 48.097656 L 40.0625 43.535156 C 42.367188 44.792969 45.863281 45.441406 49.339844 45.441406 C 52.820312 45.441406 56.3125 44.792969 58.617188 43.535156 L 58.617188 48.097656 C 58.617188 48.933594 55.460938 50.898438 49.339844 50.898438 Z M 49.339844 58.152344 C 43.21875 58.152344 40.0625 56.1875 40.0625 55.351562 L 40.0625 51.660156 C 42.367188 52.914062 45.863281 53.566406 49.339844 53.566406 C 52.820312 53.566406 56.3125 52.914062 58.617188 51.660156 L 58.617188 55.351562 C 58.617188 56.1875 55.460938 58.152344 49.339844 58.152344 Z M 49.339844 28.90625 C 55.460938 28.90625 58.617188 30.871094 58.617188 31.707031 C 58.617188 32.542969 55.460938 34.507812 49.339844 34.507812 C 43.21875 34.507812 40.0625 32.542969 40.0625 31.707031 C 40.0625 30.871094 43.21875 28.90625 49.339844 28.90625 Z M 49.339844 26.238281 C 43.40625 26.238281 37.398438 28.117188 37.398438 31.707031 L 37.398438 55.351562 C 37.398438 58.941406 43.40625 60.816406 49.339844 60.816406 C 55.277344 60.816406 61.285156 58.941406 61.285156 55.351562 L 61.285156 31.707031 C 61.285156 28.117188 55.277344 26.238281 49.339844 26.238281 Z M 10.332031 58.46875 L 36.550781 58.46875 L 36.550781 61.136719 L 10.332031 61.136719 C 6.105469 61.136719 2.667969 57.699219 2.667969 53.46875 L 2.667969 10.335938 C 2.667969 6.105469 6.105469 2.667969 10.332031 2.667969 L 53.472656 2.667969 C 57.699219 2.667969 61.136719 6.105469 61.136719 10.335938 L 61.136719 27.253906 L 58.472656 27.253906 L 58.472656 10.335938 C 58.472656 7.578125 56.226562 5.332031 53.472656 5.332031 L 10.332031 5.332031 C 7.578125 5.332031 5.332031 7.578125 5.332031 10.335938 L 5.332031 53.46875 C 5.332031 56.226562 7.578125 58.46875 10.332031 58.46875 Z M 54.171875 10.40625 L 54.171875 17.519531 L 57.101562 17.519531 L 57.101562 18.464844 L 53.042969 18.464844 L 53.042969 10.40625 Z M 48.441406 17.683594 C 47.8125 17.683594 47.339844 17.410156 47.023438 16.863281 C 46.703125 16.316406 46.542969 15.511719 46.542969 14.441406 C 46.542969 13.371094 46.703125 12.566406 47.023438 12.023438 C 47.339844 11.480469 47.8125 11.207031 48.441406 11.207031 C 49.066406 11.207031 49.539062 11.480469 49.859375 12.023438 C 50.175781 12.566406 50.335938 13.371094 50.335938 14.441406 C 50.335938 15.511719 50.175781 16.316406 49.859375 16.863281 C 49.539062 17.410156 49.066406 17.683594 48.441406 17.683594 Z M 50.925781 17.144531 C 51.300781 16.441406 51.484375 15.542969 51.484375 14.441406 C 51.484375 13.113281 51.21875 12.085938 50.683594 11.351562 C 50.148438 10.621094 49.402344 10.253906 48.441406 10.253906 C 47.480469 10.253906 46.730469 10.621094 46.195312 11.351562 C 45.660156 12.085938 45.394531 13.113281 45.394531 14.441406 C 45.394531 15.285156 45.503906 16.015625 45.726562 16.636719 C 45.945312 17.257812 46.273438 17.738281 46.707031 18.078125 C 47.140625 18.421875 47.664062 18.605469 48.277344 18.636719 C 48.71875 19.117188 49.203125 19.5 49.730469 19.789062 C 50.257812 20.074219 50.816406 20.257812 51.40625 20.335938 L 51.40625 19.347656 C 51 19.300781 50.632812 19.210938 50.300781 19.078125 C 49.96875 18.945312 49.644531 18.757812 49.335938 18.507812 C 50.023438 18.300781 50.554688 17.84375 50.925781 17.144531 Z M 42.796875 17.324219 C 43.03125 17.089844 43.148438 16.769531 43.148438 16.359375 C 43.148438 15.800781 42.839844 15.363281 42.222656 15.046875 L 41.394531 14.625 C 40.875 14.363281 40.5 14.0625 40.265625 13.71875 C 40.035156 13.378906 39.917969 12.960938 39.917969 12.464844 C 39.917969 11.804688 40.125 11.273438 40.535156 10.867188 C 40.945312 10.457031 41.484375 10.253906 42.148438 10.253906 C 42.667969 10.253906 43.25 10.394531 43.894531 10.671875 L 43.894531 11.582031 C 43.367188 11.339844 42.8125 11.21875 42.230469 11.21875 C 41.867188 11.21875 41.578125 11.328125 41.367188 11.539062 C 41.152344 11.753906 41.046875 12.042969 41.046875 12.40625 C 41.046875 12.691406 41.121094 12.9375 41.265625 13.136719 C 41.414062 13.339844 41.65625 13.53125 42 13.707031 L 42.824219 14.125 C 43.328125 14.382812 43.699219 14.683594 43.933594 15.03125 C 44.171875 15.382812 44.289062 15.800781 44.289062 16.289062 C 44.289062 16.996094 44.070312 17.5625 43.628906 17.992188 C 43.183594 18.421875 42.59375 18.636719 41.859375 18.636719 C 41.503906 18.636719 41.160156 18.597656 40.832031 18.515625 C 40.5 18.433594 40.21875 18.316406 39.976562 18.160156 L 39.976562 17.265625 C 40.613281 17.539062 41.226562 17.671875 41.824219 17.671875 C 42.234375 17.671875 42.558594 17.554688 42.796875 17.324219 Z M 36.097656 13.691406 C 36.296875 13.390625 36.574219 13.242188 36.929688 13.242188 C 37.25 13.242188 37.484375 13.359375 37.640625 13.597656 C 37.792969 13.835938 37.871094 14.199219 37.871094 14.695312 C 37.871094 14.75 37.867188 14.804688 37.867188 14.859375 C 37.863281 14.914062 37.859375 14.964844 37.859375 15.011719 L 35.765625 15.011719 C 35.792969 14.429688 35.902344 13.988281 36.097656 13.691406 Z M 38.734375 17.371094 C 38.199219 17.609375 37.707031 17.730469 37.265625 17.730469 C 36.75 17.730469 36.367188 17.574219 36.132812 17.265625 C 35.898438 16.957031 35.777344 16.453125 35.765625 15.753906 L 38.746094 15.753906 C 38.804688 15.460938 38.835938 15.136719 38.835938 14.789062 C 38.835938 14.007812 38.679688 13.414062 38.367188 13.011719 C 38.050781 12.609375 37.589844 12.40625 36.976562 12.40625 C 36.257812 12.40625 35.703125 12.671875 35.3125 13.207031 C 34.925781 13.742188 34.734375 14.511719 34.734375 15.511719 C 34.734375 16.554688 34.925781 17.335938 35.3125 17.847656 C 35.703125 18.359375 36.289062 18.613281 37.082031 18.613281 C 37.707031 18.613281 38.257812 18.46875 38.734375 18.171875 Z M 33.066406 12.703125 C 33.292969 12.582031 33.554688 12.523438 33.847656 12.523438 C 33.972656 12.523438 34.097656 12.535156 34.222656 12.558594 L 34.222656 13.570312 C 34.003906 13.539062 33.828125 13.523438 33.699219 13.523438 C 33.257812 13.523438 32.855469 13.664062 32.488281 13.953125 L 32.488281 18.464844 L 31.394531 18.464844 L 31.394531 12.570312 L 32.304688 12.570312 L 32.40625 13.277344 C 32.617188 13.015625 32.835938 12.824219 33.066406 12.703125 Z M 27.746094 17.453125 C 27.359375 17.453125 27.070312 17.28125 26.886719 16.945312 C 26.699219 16.609375 26.605469 16.089844 26.605469 15.394531 C 26.605469 14.679688 26.695312 14.15625 26.867188 13.816406 C 27.042969 13.480469 27.316406 13.3125 27.6875 13.3125 C 28.035156 13.3125 28.394531 13.453125 28.757812 13.730469 L 28.757812 17.007812 C 28.402344 17.304688 28.0625 17.453125 27.746094 17.453125 Z M 28.457031 19.648438 C 28.253906 19.945312 27.914062 20.089844 27.429688 20.089844 C 26.988281 20.089844 26.480469 19.96875 25.898438 19.730469 L 25.898438 20.566406 C 26.394531 20.855469 26.933594 20.996094 27.527344 20.996094 C 29.066406 20.996094 29.839844 20.039062 29.839844 18.125 L 29.839844 12.570312 L 28.929688 12.570312 L 28.851562 13.046875 C 28.402344 12.625 27.929688 12.417969 27.445312 12.417969 C 26.855469 12.417969 26.386719 12.6875 26.035156 13.230469 C 25.6875 13.773438 25.515625 14.507812 25.515625 15.429688 C 25.515625 16.011719 25.589844 16.519531 25.742188 16.957031 C 25.890625 17.394531 26.109375 17.738281 26.398438 17.980469 C 26.683594 18.222656 27.027344 18.347656 27.421875 18.347656 C 27.886719 18.347656 28.332031 18.148438 28.757812 17.753906 L 28.757812 18.183594 C 28.757812 18.867188 28.65625 19.355469 28.457031 19.648438 Z M 22.257812 16.914062 L 22.257812 13.453125 L 21.433594 13.453125 L 21.433594 12.730469 L 22.304688 12.59375 L 22.46875 10.917969 L 23.351562 10.917969 L 23.351562 12.570312 L 24.699219 12.570312 L 24.699219 13.453125 L 23.351562 13.453125 L 23.351562 16.835938 C 23.351562 17.128906 23.398438 17.335938 23.496094 17.457031 C 23.59375 17.578125 23.765625 17.636719 24.015625 17.636719 C 24.253906 17.636719 24.488281 17.597656 24.722656 17.519531 L 24.722656 18.324219 C 24.390625 18.464844 24.035156 18.53125 23.664062 18.53125 C 23.183594 18.53125 22.832031 18.402344 22.601562 18.136719 C 22.371094 17.875 22.257812 17.46875 22.257812 16.914062 Z M 19.8125 17.527344 C 19.96875 17.375 20.050781 17.160156 20.050781 16.882812 C 20.050781 16.546875 19.835938 16.277344 19.410156 16.066406 L 18.652344 15.695312 C 17.957031 15.355469 17.609375 14.820312 17.609375 14.09375 C 17.609375 13.597656 17.769531 13.191406 18.09375 12.882812 C 18.421875 12.574219 18.84375 12.417969 19.363281 12.417969 C 19.851562 12.417969 20.320312 12.542969 20.769531 12.789062 L 20.769531 13.578125 C 20.34375 13.378906 19.90625 13.277344 19.457031 13.277344 C 19.195312 13.277344 18.984375 13.347656 18.828125 13.488281 C 18.675781 13.625 18.597656 13.816406 18.597656 14.058594 C 18.597656 14.25 18.648438 14.414062 18.753906 14.546875 C 18.859375 14.675781 19.035156 14.804688 19.28125 14.929688 L 19.992188 15.277344 C 20.355469 15.457031 20.621094 15.667969 20.789062 15.914062 C 20.957031 16.164062 21.035156 16.46875 21.035156 16.835938 C 21.035156 17.371094 20.871094 17.800781 20.539062 18.125 C 20.203125 18.453125 19.757812 18.613281 19.203125 18.613281 C 18.601562 18.613281 18.0625 18.46875 17.574219 18.183594 L 17.574219 17.394531 C 18.179688 17.632812 18.703125 17.753906 19.144531 17.753906 C 19.429688 17.753906 19.652344 17.679688 19.8125 17.527344 Z M 15.308594 17.191406 C 15.113281 17.550781 14.8125 17.730469 14.410156 17.730469 C 14.007812 17.730469 13.707031 17.550781 13.515625 17.191406 C 13.320312 16.828125 13.226562 16.269531 13.226562 15.511719 C 13.226562 14.75 13.320312 14.191406 13.515625 13.835938 C 13.707031 13.480469 14.007812 13.300781 14.410156 13.300781 C 14.8125 13.300781 15.113281 13.480469 15.308594 13.835938 C 15.5 14.191406 15.597656 14.75 15.597656 15.511719 C 15.597656 16.269531 15.5 16.828125 15.308594 17.191406 Z M 14.410156 12.417969 C 13.675781 12.417969 13.113281 12.683594 12.71875 13.21875 C 12.328125 13.753906 12.132812 14.519531 12.132812 15.511719 C 12.132812 16.507812 12.328125 17.277344 12.71875 17.8125 C 13.113281 18.347656 13.675781 18.613281 14.410156 18.613281 C 15.148438 18.613281 15.710938 18.347656 16.101562 17.8125 C 16.492188 17.277344 16.691406 16.507812 16.691406 15.511719 C 16.691406 14.519531 16.492188 13.753906 16.101562 13.21875 C 15.710938 12.683594 15.148438 12.417969 14.410156 12.417969 Z M 9.800781 14.023438 C 9.59375 14.300781 9.3125 14.441406 8.949219 14.441406 L 7.796875 14.441406 L 7.796875 11.300781 L 8.949219 11.300781 C 9.3125 11.300781 9.59375 11.4375 9.800781 11.714844 C 10.007812 11.988281 10.109375 12.375 10.109375 12.871094 C 10.109375 13.359375 10.007812 13.742188 9.800781 14.023438 Z M 10.207031 10.71875 C 9.878906 10.511719 9.496094 10.40625 9.0625 10.40625 L 6.703125 10.40625 L 6.703125 18.464844 L 7.796875 18.464844 L 7.796875 15.335938 L 9.0625 15.335938 C 9.707031 15.335938 10.226562 15.109375 10.628906 14.660156 C 11.027344 14.210938 11.226562 13.613281 11.226562 12.871094 C 11.226562 12.390625 11.140625 11.964844 10.964844 11.59375 C 10.789062 11.21875 10.539062 10.929688 10.207031 10.71875 Z M 10.207031 10.71875 "/>
</svg>
