<?xml version="1.0" encoding="UTF-8"?>
<svg xmlns="http://www.w3.org/2000/svg" xmlns:xlink="http://www.w3.org/1999/xlink" width="64" height="64" viewBox="0 0 64 64">
<path fill-rule="evenodd" fill="rgb(78.823531%, 14.509805%, 81.960785%)" fill-opacity="1" d="M 58.617188 39.972656 L 58.617188 35.265625 C 56.3125 36.523438 52.820312 37.171875 49.339844 37.171875 C 45.863281 37.171875 42.367188 36.523438 40.0625 35.265625 L 40.0625 39.972656 C 40.0625 40.8125 43.21875 42.773438 49.339844 42.773438 C 55.460938 42.773438 58.617188 40.8125 58.617188 39.972656 Z M 58.617188 48.097656 L 58.617188 43.535156 C 56.3125 44.792969 52.820312 45.441406 49.339844 45.441406 C 45.863281 45.441406 42.367188 44.792969 40.0625 43.535156 L 40.0625 48.097656 C 40.0625 48.933594 43.21875 50.898438 49.339844 50.898438 C 55.460938 50.898438 58.617188 48.933594 58.617188 48.097656 Z M 58.617188 55.347656 L 58.617188 51.65625 C 56.3125 52.914062 52.820312 53.5625 49.339844 53.5625 C 45.863281 53.5625 42.367188 52.914062 40.0625 51.65625 L 40.0625 55.347656 C 40.0625 56.1875 43.21875 58.148438 49.339844 58.148438 C 55.460938 58.148438 58.617188 56.1875 58.617188 55.347656 Z M 40.0625 31.707031 C 40.0625 32.542969 43.21875 34.507812 49.339844 34.507812 C 55.460938 34.507812 58.617188 32.542969 58.617188 31.707031 C 58.617188 30.867188 55.460938 28.90625 49.339844 28.90625 C 43.21875 28.90625 40.0625 30.867188 40.0625 31.707031 Z M 61.285156 31.707031 L 61.285156 55.347656 C 61.285156 58.9375 55.277344 60.816406 49.339844 60.816406 C 43.40625 60.816406 37.394531 58.9375 37.394531 55.347656 L 37.394531 31.707031 C 37.394531 28.113281 43.40625 26.238281 49.339844 26.238281 C 55.277344 26.238281 61.285156 28.113281 61.285156 31.707031 Z M 5.332031 53.46875 L 5.332031 10.332031 C 5.332031 7.578125 7.578125 5.332031 10.332031 5.332031 L 53.46875 5.332031 C 56.226562 5.332031 58.46875 7.578125 58.46875 10.332031 L 58.46875 27.25 L 61.136719 27.25 L 61.136719 10.332031 C 61.136719 6.105469 57.699219 2.667969 53.46875 2.667969 L 10.332031 2.667969 C 6.105469 2.667969 2.667969 6.105469 2.667969 10.332031 L 2.667969 53.46875 C 2.667969 57.699219 6.105469 61.136719 10.332031 61.136719 L 36.550781 61.136719 L 36.550781 58.46875 L 10.332031 58.46875 C 7.578125 58.46875 5.332031 56.226562 5.332031 53.46875 Z M 46.636719 11.179688 L 46.636719 21.652344 L 52.320312 21.652344 L 52.320312 19.976562 L 48.753906 19.976562 L 48.753906 11.179688 Z M 42.679688 16.410156 C 42.679688 15.140625 42.511719 14.199219 42.179688 13.582031 C 41.847656 12.96875 41.335938 12.660156 40.652344 12.660156 C 39.96875 12.660156 39.460938 12.96875 39.125 13.582031 C 38.792969 14.199219 38.628906 15.140625 38.628906 16.410156 C 38.628906 17.648438 38.796875 18.585938 39.140625 19.21875 C 39.484375 19.855469 39.988281 20.171875 40.652344 20.171875 C 41.316406 20.171875 41.820312 19.855469 42.164062 19.21875 C 42.507812 18.585938 42.679688 17.648438 42.679688 16.410156 Z M 42.179688 21.625 C 42.492188 21.875 42.839844 22.070312 43.222656 22.210938 C 43.605469 22.351562 44.074219 22.457031 44.628906 22.515625 L 44.628906 24.238281 C 43.832031 24.117188 43.066406 23.847656 42.332031 23.4375 C 41.59375 23.023438 40.964844 22.503906 40.441406 21.878906 C 39.171875 21.828125 38.191406 21.328125 37.492188 20.375 C 36.800781 19.421875 36.449219 18.101562 36.449219 16.410156 C 36.449219 14.675781 36.816406 13.332031 37.554688 12.382812 C 38.289062 11.429688 39.320312 10.953125 40.652344 10.953125 C 41.980469 10.953125 43.015625 11.429688 43.75 12.382812 C 44.484375 13.332031 44.855469 14.675781 44.855469 16.410156 C 44.855469 17.757812 44.625 18.882812 44.167969 19.777344 C 43.707031 20.675781 43.042969 21.289062 42.179688 21.625 Z M 31.523438 20.1875 C 31.191406 20.1875 30.792969 20.140625 30.320312 20.042969 C 29.855469 19.945312 29.433594 19.832031 29.0625 19.6875 L 29.0625 21.277344 C 29.382812 21.457031 29.78125 21.605469 30.253906 21.714844 C 30.730469 21.824219 31.203125 21.878906 31.675781 21.878906 C 32.761719 21.878906 33.617188 21.601562 34.238281 21.042969 C 34.855469 20.480469 35.167969 19.722656 35.167969 18.765625 C 35.167969 18.273438 35.089844 17.851562 34.949219 17.503906 C 34.800781 17.15625 34.574219 16.84375 34.265625 16.558594 C 33.960938 16.277344 33.542969 15.996094 33.019531 15.714844 L 32.203125 15.273438 C 31.761719 15.035156 31.460938 14.8125 31.304688 14.609375 C 31.148438 14.410156 31.070312 14.152344 31.070312 13.839844 C 31.070312 13.46875 31.191406 13.175781 31.433594 12.964844 C 31.675781 12.75 32.007812 12.644531 32.429688 12.644531 C 33.054688 12.644531 33.777344 12.796875 34.59375 13.097656 L 34.59375 11.496094 C 33.808594 11.132812 33.015625 10.953125 32.21875 10.953125 C 31.585938 10.953125 31.023438 11.078125 30.535156 11.324219 C 30.042969 11.570312 29.660156 11.921875 29.375 12.382812 C 29.09375 12.839844 28.957031 13.375 28.957031 13.992188 C 28.957031 14.65625 29.117188 15.21875 29.4375 15.683594 C 29.761719 16.148438 30.296875 16.582031 31.039062 16.984375 L 31.855469 17.421875 C 32.269531 17.644531 32.566406 17.863281 32.742188 18.078125 C 32.917969 18.296875 33.007812 18.558594 33.007812 18.871094 C 33.007812 19.296875 32.878906 19.621094 32.628906 19.847656 C 32.375 20.074219 32.007812 20.1875 31.523438 20.1875 Z M 23.753906 23.089844 C 23.566406 23.289062 23.277344 23.390625 22.894531 23.390625 C 22.683594 23.390625 22.441406 23.371094 22.167969 23.332031 L 22.167969 24.722656 C 22.621094 24.875 23.066406 24.945312 23.5 24.945312 C 24.074219 24.945312 24.535156 24.78125 24.886719 24.449219 C 25.242188 24.117188 25.523438 23.578125 25.734375 22.832031 L 28.289062 13.929688 L 26.15625 13.929688 L 25.023438 19.613281 L 23.863281 13.929688 L 21.667969 13.929688 L 24.164062 21.804688 L 24.132812 22.074219 C 24.074219 22.550781 23.949219 22.886719 23.753906 23.089844 Z M 18.691406 21.652344 L 18.691406 14.308594 L 16.925781 19.070312 L 15.125 19.070312 L 13.371094 14.355469 L 13.371094 21.652344 L 11.480469 21.652344 L 11.480469 11.179688 L 13.902344 11.179688 L 16.0625 17.042969 L 18.222656 11.179688 L 20.582031 11.179688 L 20.582031 21.652344 Z M 18.691406 21.652344 "/>
</svg>
