<?xml version="1.0" encoding="UTF-8"?>
<svg xmlns="http://www.w3.org/2000/svg" xmlns:xlink="http://www.w3.org/1999/xlink" width="64" height="64" viewBox="0 0 64 64">
<path fill-rule="evenodd" fill="rgb(78.823531%, 14.509805%, 81.960785%)" fill-opacity="1" d="M 30.535156 15.78125 L 61.066406 15.78125 L 61.066406 2.667969 L 30.535156 2.667969 Z M 33.199219 13.113281 L 58.398438 13.113281 L 58.398438 5.332031 L 33.199219 5.332031 Z M 16.601562 15.78125 L 28.554688 15.78125 L 28.554688 2.667969 L 16.601562 2.667969 Z M 19.269531 13.113281 L 25.890625 13.113281 L 25.890625 5.332031 L 19.269531 5.332031 Z M 2.667969 15.78125 L 14.621094 15.78125 L 14.621094 2.667969 L 2.667969 2.667969 Z M 5.332031 13.113281 L 11.957031 13.113281 L 11.957031 5.332031 L 5.332031 5.332031 Z M 30.535156 30.878906 L 61.066406 30.878906 L 61.066406 17.761719 L 30.535156 17.761719 Z M 33.199219 28.210938 L 58.398438 28.210938 L 58.398438 20.425781 L 33.199219 20.425781 Z M 16.601562 30.878906 L 28.554688 30.878906 L 28.554688 17.761719 L 16.601562 17.761719 Z M 19.269531 28.210938 L 25.890625 28.210938 L 25.890625 20.425781 L 19.269531 20.425781 Z M 2.667969 30.878906 L 14.621094 30.878906 L 14.621094 17.761719 L 2.667969 17.761719 Z M 5.332031 28.210938 L 11.957031 28.210938 L 11.957031 20.425781 L 5.332031 20.425781 Z M 30.535156 45.96875 L 61.066406 45.96875 L 61.066406 32.855469 L 30.535156 32.855469 Z M 33.199219 43.304688 L 58.398438 43.304688 L 58.398438 35.519531 L 33.199219 35.519531 Z M 16.601562 45.96875 L 28.554688 45.96875 L 28.554688 32.855469 L 16.601562 32.855469 Z M 19.269531 43.304688 L 25.890625 43.304688 L 25.890625 35.519531 L 19.269531 35.519531 Z M 2.667969 45.96875 L 14.621094 45.96875 L 14.621094 32.855469 L 2.667969 32.855469 Z M 5.332031 43.304688 L 11.957031 43.304688 L 11.957031 35.519531 L 5.332031 35.519531 Z M 30.535156 61.066406 L 61.066406 61.066406 L 61.066406 47.949219 L 30.535156 47.949219 Z M 33.199219 58.398438 L 58.398438 58.398438 L 58.398438 50.613281 L 33.199219 50.613281 Z M 16.601562 61.066406 L 28.554688 61.066406 L 28.554688 47.949219 L 16.601562 47.949219 Z M 19.269531 58.398438 L 25.890625 58.398438 L 25.890625 50.613281 L 19.269531 50.613281 Z M 2.667969 61.066406 L 14.621094 61.066406 L 14.621094 47.949219 L 2.667969 47.949219 Z M 5.332031 58.398438 L 11.957031 58.398438 L 11.957031 50.613281 L 5.332031 50.613281 Z M 5.332031 58.398438 "/>
</svg>
