<?xml version="1.0" encoding="UTF-8"?>
<svg xmlns="http://www.w3.org/2000/svg" xmlns:xlink="http://www.w3.org/1999/xlink" width="64" height="64" viewBox="0 0 64 64">
<path fill-rule="evenodd" fill="rgb(78.823531%, 14.509805%, 81.960785%)" fill-opacity="1" d="M 2.667969 5.332031 L 61.332031 5.332031 L 61.332031 2.667969 L 2.667969 2.667969 Z M 2.667969 61.332031 L 61.332031 61.332031 L 61.332031 58.667969 L 2.667969 58.667969 Z M 41.183594 44.820312 L 51.480469 47.59375 L 58.417969 21.84375 L 48.117188 19.070312 Z M 52.421875 50.5625 C 52.308594 50.5625 52.191406 50.546875 52.078125 50.515625 L 39.203125 47.050781 C 38.859375 46.957031 38.570312 46.734375 38.394531 46.425781 C 38.214844 46.121094 38.167969 45.757812 38.261719 45.414062 L 45.890625 17.089844 C 45.980469 16.75 46.207031 16.457031 46.511719 16.28125 C 46.816406 16.105469 47.183594 16.058594 47.523438 16.148438 L 60.398438 19.617188 C 61.109375 19.808594 61.53125 20.539062 61.339844 21.253906 L 53.710938 49.574219 C 53.617188 49.917969 53.394531 50.207031 53.089844 50.386719 C 52.882812 50.5 52.65625 50.5625 52.421875 50.5625 Z M 22.667969 45.332031 L 33.332031 45.332031 L 33.332031 18.667969 L 22.667969 18.667969 Z M 34.667969 48 L 21.332031 48 C 20.597656 48 20 47.402344 20 46.667969 L 20 17.332031 C 20 16.597656 20.597656 16 21.332031 16 L 34.667969 16 C 35.402344 16 36 16.597656 36 17.332031 L 36 46.667969 C 36 47.402344 35.402344 48 34.667969 48 Z M 5.332031 45.332031 L 16 45.332031 L 16 18.667969 L 5.332031 18.667969 Z M 17.332031 48 L 4 48 C 3.261719 48 2.667969 47.402344 2.667969 46.667969 L 2.667969 17.332031 C 2.667969 16.597656 3.261719 16 4 16 L 17.332031 16 C 18.070312 16 18.667969 16.597656 18.667969 17.332031 L 18.667969 46.667969 C 18.667969 47.402344 18.070312 48 17.332031 48 Z M 17.332031 48 "/>
</svg>
