<?xml version="1.0" encoding="UTF-8"?>
<svg xmlns="http://www.w3.org/2000/svg" xmlns:xlink="http://www.w3.org/1999/xlink" width="64" height="64" viewBox="0 0 64 64">
<path fill-rule="evenodd" fill="rgb(78.823531%, 14.509805%, 81.960785%)" fill-opacity="1" d="M 37.773438 35.480469 L 35.367188 27.882812 L 37.480469 27.882812 L 38.605469 33.367188 L 39.699219 27.882812 L 41.753906 27.882812 L 39.289062 36.472656 C 39.085938 37.191406 38.8125 37.710938 38.472656 38.035156 C 38.132812 38.351562 37.6875 38.511719 37.132812 38.511719 C 36.714844 38.511719 36.285156 38.441406 35.847656 38.292969 L 35.847656 36.953125 C 36.109375 36.992188 36.34375 37.011719 36.546875 37.011719 C 36.914062 37.011719 37.195312 36.914062 37.378906 36.71875 C 37.5625 36.523438 37.6875 36.199219 37.746094 35.742188 Z M 32.667969 35.335938 L 31.460938 32.96875 L 30.421875 35.335938 L 28.453125 35.335938 L 30.539062 31.585938 L 28.484375 27.882812 L 30.628906 27.882812 L 31.722656 30.171875 L 32.726562 27.882812 L 34.695312 27.882812 L 32.636719 31.585938 L 34.8125 35.335938 Z M 24.980469 34.007812 C 25.34375 34.007812 25.601562 33.816406 25.761719 33.429688 C 25.921875 33.046875 26.003906 32.441406 26.003906 31.617188 C 26.003906 30.789062 25.921875 30.179688 25.761719 29.792969 C 25.601562 29.402344 25.34375 29.210938 24.980469 29.210938 C 24.621094 29.210938 24.363281 29.402344 24.203125 29.792969 C 24.039062 30.179688 23.960938 30.789062 23.960938 31.617188 C 23.960938 32.441406 24.039062 33.046875 24.203125 33.429688 C 24.363281 33.816406 24.621094 34.007812 24.980469 34.007812 Z M 24.980469 35.523438 C 24.019531 35.523438 23.273438 35.183594 22.75 34.503906 C 22.226562 33.824219 21.960938 32.859375 21.960938 31.617188 C 21.960938 30.359375 22.226562 29.394531 22.75 28.714844 C 23.273438 28.03125 24.019531 27.691406 24.980469 27.691406 C 25.945312 27.691406 26.6875 28.03125 27.214844 28.714844 C 27.738281 29.394531 28 30.359375 28 31.617188 C 28 32.859375 27.738281 33.824219 27.214844 34.503906 C 26.6875 35.183594 25.945312 35.523438 24.980469 35.523438 Z M 17.28125 35.335938 L 17.28125 27.882812 L 18.914062 27.882812 L 19.132812 28.84375 C 19.425781 28.484375 19.714844 28.222656 20.003906 28.058594 C 20.289062 27.890625 20.59375 27.808594 20.914062 27.808594 C 21.070312 27.808594 21.222656 27.824219 21.378906 27.851562 L 21.378906 29.617188 C 21.109375 29.566406 20.851562 29.542969 20.605469 29.542969 C 20.140625 29.542969 19.695312 29.660156 19.28125 29.894531 L 19.28125 35.335938 Z M 11.679688 30.066406 L 12.628906 30.066406 C 13.007812 30.066406 13.296875 29.929688 13.496094 29.648438 C 13.695312 29.363281 13.796875 28.953125 13.796875 28.40625 C 13.796875 27.863281 13.695312 27.449219 13.496094 27.167969 C 13.296875 26.882812 13.007812 26.742188 12.628906 26.742188 L 11.679688 26.742188 Z M 11.679688 31.585938 L 11.679688 35.335938 L 9.683594 35.335938 L 9.683594 25.226562 L 12.875 25.226562 C 13.773438 25.226562 14.484375 25.511719 15.015625 26.078125 C 15.542969 26.648438 15.808594 27.425781 15.808594 28.40625 C 15.808594 29.390625 15.542969 30.164062 15.015625 30.730469 C 14.484375 31.300781 13.773438 31.585938 12.875 31.585938 Z M 27.519531 15.660156 C 26.800781 15.269531 26.285156 14.851562 25.972656 14.402344 C 25.664062 13.957031 25.507812 13.410156 25.507812 12.769531 C 25.507812 12.175781 25.644531 11.660156 25.914062 11.21875 C 26.1875 10.773438 26.558594 10.433594 27.03125 10.195312 C 27.503906 9.957031 28.046875 9.839844 28.65625 9.839844 C 29.425781 9.839844 30.191406 10.011719 30.949219 10.363281 L 30.949219 11.910156 C 30.160156 11.617188 29.464844 11.472656 28.863281 11.472656 C 28.453125 11.472656 28.132812 11.574219 27.898438 11.777344 C 27.667969 11.984375 27.550781 12.265625 27.550781 12.625 C 27.550781 12.925781 27.625 13.175781 27.777344 13.367188 C 27.925781 13.5625 28.214844 13.777344 28.644531 14.007812 L 29.429688 14.433594 C 29.9375 14.707031 30.335938 14.976562 30.632812 15.25 C 30.929688 15.519531 31.148438 15.828125 31.289062 16.160156 C 31.429688 16.496094 31.503906 16.902344 31.503906 17.378906 C 31.503906 18.300781 31.203125 19.035156 30.605469 19.574219 C 30.007812 20.113281 29.183594 20.382812 28.132812 20.382812 C 27.675781 20.382812 27.21875 20.332031 26.761719 20.222656 C 26.304688 20.117188 25.921875 19.976562 25.609375 19.800781 L 25.609375 18.269531 C 25.96875 18.402344 26.375 18.519531 26.828125 18.613281 C 27.28125 18.707031 27.667969 18.75 27.988281 18.75 C 28.453125 18.75 28.808594 18.640625 29.050781 18.421875 C 29.296875 18.203125 29.414062 17.890625 29.414062 17.484375 C 29.414062 17.179688 29.332031 16.925781 29.160156 16.714844 C 28.992188 16.507812 28.707031 16.292969 28.308594 16.082031 Z M 19.5 11.617188 L 19.5 18.605469 L 20.359375 18.605469 C 20.992188 18.605469 21.464844 18.332031 21.773438 17.78125 C 22.085938 17.230469 22.242188 16.386719 22.242188 15.25 L 22.242188 14.957031 C 22.242188 13.8125 22.085938 12.964844 21.78125 12.425781 C 21.476562 11.886719 20.996094 11.617188 20.34375 11.617188 Z M 17.457031 20.164062 L 17.457031 10.058594 L 20.503906 10.058594 C 21.757812 10.058594 22.710938 10.484375 23.363281 11.339844 C 24.015625 12.195312 24.339844 13.453125 24.339844 15.105469 C 24.339844 16.765625 24.019531 18.027344 23.378906 18.882812 C 22.738281 19.734375 21.800781 20.164062 20.578125 20.164062 Z M 11.679688 14.898438 L 12.628906 14.898438 C 13.007812 14.898438 13.296875 14.757812 13.496094 14.476562 C 13.695312 14.195312 13.796875 13.78125 13.796875 13.234375 C 13.796875 12.691406 13.695312 12.28125 13.496094 11.996094 C 13.296875 11.714844 13.007812 11.574219 12.628906 11.574219 L 11.679688 11.574219 Z M 14.234375 20.164062 L 12.46875 16.414062 L 11.679688 16.414062 L 11.679688 20.164062 L 9.683594 20.164062 L 9.683594 10.058594 L 12.875 10.058594 C 13.773438 10.058594 14.484375 10.339844 15.015625 10.910156 C 15.542969 11.480469 15.808594 12.253906 15.808594 13.234375 C 15.808594 13.917969 15.675781 14.507812 15.414062 15.003906 C 15.152344 15.496094 14.777344 15.867188 14.292969 16.109375 L 16.332031 20.164062 Z M 10.191406 5 C 7.328125 5 5 7.328125 5 10.1875 L 5 53.484375 C 5 56.347656 7.328125 58.675781 10.191406 58.675781 L 53.484375 58.675781 C 56.347656 58.675781 58.675781 56.347656 58.675781 53.484375 L 58.675781 10.1875 C 58.675781 7.328125 56.347656 5 53.484375 5 Z M 53.484375 61.007812 L 10.191406 61.007812 C 6.042969 61.007812 2.667969 57.632812 2.667969 53.484375 L 2.667969 10.1875 C 2.667969 6.042969 6.042969 2.667969 10.191406 2.667969 L 53.484375 2.667969 C 57.632812 2.667969 61.007812 6.042969 61.007812 10.1875 L 61.007812 53.484375 C 61.007812 57.632812 57.632812 61.007812 53.484375 61.007812 Z M 53.484375 61.007812 "/>
</svg>
