<?xml version="1.0" encoding="UTF-8"?>
<svg xmlns="http://www.w3.org/2000/svg" xmlns:xlink="http://www.w3.org/1999/xlink" width="64" height="64" viewBox="0 0 64 64">
<path fill-rule="evenodd" fill="rgb(78.823531%, 14.509805%, 81.960785%)" fill-opacity="1" d="M 58.898438 39.992188 L 58.898438 34.980469 C 56.628906 36.3125 53.003906 37.003906 49.402344 37.003906 C 45.804688 37.003906 42.179688 36.3125 39.90625 34.980469 L 39.90625 39.992188 C 39.90625 41.003906 43.261719 42.976562 49.402344 42.976562 C 55.546875 42.976562 58.898438 41.003906 58.898438 39.992188 Z M 58.898438 48.152344 L 58.898438 43.289062 C 56.628906 44.625 53.003906 45.3125 49.402344 45.3125 C 45.804688 45.3125 42.179688 44.625 39.90625 43.289062 L 39.90625 48.152344 C 39.90625 49.167969 43.261719 51.140625 49.402344 51.140625 C 55.546875 51.140625 58.898438 49.167969 58.898438 48.152344 Z M 58.898438 55.445312 L 58.898438 51.453125 C 56.628906 52.789062 53.003906 53.476562 49.402344 53.476562 C 45.804688 53.476562 42.179688 52.789062 39.90625 51.453125 L 39.90625 55.445312 C 39.90625 56.457031 43.261719 58.429688 49.402344 58.429688 C 55.546875 58.429688 58.898438 56.457031 58.898438 55.445312 Z M 39.90625 31.679688 C 39.90625 32.695312 43.261719 34.667969 49.402344 34.667969 C 55.546875 34.667969 58.898438 32.695312 58.898438 31.679688 C 58.898438 30.667969 55.546875 28.691406 49.402344 28.691406 C 43.261719 28.691406 39.90625 30.667969 39.90625 31.679688 Z M 61.234375 31.679688 L 61.234375 55.445312 C 61.234375 58.9375 55.28125 60.765625 49.402344 60.765625 C 43.523438 60.765625 37.570312 58.9375 37.570312 55.445312 L 37.570312 31.679688 C 37.570312 28.183594 43.523438 26.355469 49.402344 26.355469 C 55.28125 26.355469 61.234375 28.183594 61.234375 31.679688 Z M 50.554688 15.726562 C 50.511719 16.070312 50.421875 16.320312 50.28125 16.46875 C 50.140625 16.617188 49.929688 16.6875 49.648438 16.6875 C 49.492188 16.6875 49.316406 16.675781 49.117188 16.644531 L 49.117188 17.664062 C 49.449219 17.777344 49.773438 17.832031 50.09375 17.832031 C 50.511719 17.832031 50.851562 17.710938 51.109375 17.464844 C 51.371094 17.222656 51.574219 16.828125 51.730469 16.28125 L 53.601562 9.75 L 52.039062 9.75 L 51.210938 13.917969 L 50.359375 9.75 L 48.753906 9.75 L 50.578125 15.523438 Z M 48.332031 15.414062 L 46.683594 12.566406 L 48.242188 9.75 L 46.75 9.75 L 45.984375 11.492188 L 45.152344 9.75 L 43.527344 9.75 L 45.089844 12.566406 L 43.503906 15.414062 L 45 15.414062 L 45.785156 13.617188 L 46.707031 15.414062 Z M 40.277344 13.96875 C 40.15625 13.675781 40.09375 13.214844 40.09375 12.585938 C 40.09375 11.960938 40.15625 11.496094 40.277344 11.199219 C 40.398438 10.90625 40.597656 10.757812 40.871094 10.757812 C 41.144531 10.757812 41.339844 10.90625 41.460938 11.199219 C 41.585938 11.496094 41.648438 11.960938 41.648438 12.585938 C 41.648438 13.214844 41.585938 13.675781 41.460938 13.96875 C 41.339844 14.257812 41.144531 14.40625 40.871094 14.40625 C 40.597656 14.40625 40.398438 14.257812 40.277344 13.96875 Z M 42.5625 14.78125 C 42.960938 14.265625 43.160156 13.53125 43.160156 12.585938 C 43.160156 11.632812 42.960938 10.898438 42.5625 10.382812 C 42.164062 9.863281 41.601562 9.605469 40.871094 9.605469 C 40.140625 9.605469 39.574219 9.863281 39.175781 10.382812 C 38.777344 10.898438 38.578125 11.632812 38.578125 12.585938 C 38.578125 13.53125 38.777344 14.265625 39.175781 14.78125 C 39.574219 15.300781 40.140625 15.558594 40.871094 15.558594 C 41.601562 15.558594 42.164062 15.300781 42.5625 14.78125 Z M 36.539062 15.414062 L 36.539062 11.28125 C 36.859375 11.101562 37.195312 11.011719 37.546875 11.011719 C 37.734375 11.011719 37.929688 11.03125 38.136719 11.070312 L 38.136719 9.726562 C 38.015625 9.703125 37.898438 9.691406 37.78125 9.691406 C 37.539062 9.691406 37.308594 9.753906 37.089844 9.882812 C 36.871094 10.007812 36.652344 10.207031 36.429688 10.480469 L 36.265625 9.75 L 35.027344 9.75 L 35.027344 15.414062 Z M 30.773438 8.886719 L 31.492188 8.886719 C 31.78125 8.886719 32 8.992188 32.152344 9.207031 C 32.304688 9.417969 32.378906 9.734375 32.378906 10.148438 C 32.378906 10.5625 32.304688 10.875 32.152344 11.089844 C 32 11.304688 31.78125 11.410156 31.492188 11.410156 L 30.773438 11.410156 Z M 31.679688 12.566406 C 32.359375 12.566406 32.902344 12.347656 33.304688 11.914062 C 33.707031 11.484375 33.90625 10.894531 33.90625 10.148438 C 33.90625 9.402344 33.707031 8.8125 33.304688 8.378906 C 32.902344 7.949219 32.359375 7.730469 31.679688 7.730469 L 29.257812 7.730469 L 29.257812 15.414062 L 30.773438 15.414062 L 30.773438 12.566406 Z M 23.355469 12.308594 C 23.65625 12.472656 23.875 12.632812 24.003906 12.792969 C 24.132812 12.953125 24.199219 13.144531 24.199219 13.375 C 24.199219 13.683594 24.105469 13.921875 23.921875 14.089844 C 23.734375 14.253906 23.46875 14.339844 23.113281 14.339844 C 22.871094 14.339844 22.574219 14.304688 22.230469 14.234375 C 21.890625 14.164062 21.582031 14.074219 21.308594 13.972656 L 21.308594 15.136719 C 21.542969 15.269531 21.835938 15.375 22.183594 15.460938 C 22.53125 15.539062 22.875 15.582031 23.222656 15.582031 C 24.019531 15.582031 24.648438 15.375 25.097656 14.964844 C 25.554688 14.554688 25.78125 14 25.78125 13.296875 C 25.78125 12.933594 25.726562 12.625 25.621094 12.371094 C 25.511719 12.117188 25.347656 11.886719 25.121094 11.679688 C 24.894531 11.472656 24.59375 11.265625 24.207031 11.058594 L 23.609375 10.734375 C 23.285156 10.558594 23.066406 10.398438 22.953125 10.246094 C 22.835938 10.097656 22.78125 9.910156 22.78125 9.683594 C 22.78125 9.410156 22.871094 9.195312 23.046875 9.039062 C 23.222656 8.886719 23.46875 8.804688 23.777344 8.804688 C 24.234375 8.804688 24.761719 8.917969 25.359375 9.136719 L 25.359375 7.964844 C 24.785156 7.699219 24.207031 7.566406 23.621094 7.566406 C 23.15625 7.566406 22.746094 7.65625 22.386719 7.835938 C 22.03125 8.019531 21.746094 8.277344 21.539062 8.613281 C 21.332031 8.949219 21.230469 9.34375 21.230469 9.792969 C 21.230469 10.28125 21.347656 10.695312 21.585938 11.035156 C 21.820312 11.375 22.210938 11.691406 22.757812 11.988281 Z M 17.3125 8.917969 C 17.804688 8.917969 18.167969 9.125 18.402344 9.53125 C 18.636719 9.945312 18.75 10.582031 18.75 11.457031 L 18.75 11.679688 C 18.75 12.542969 18.632812 13.183594 18.394531 13.601562 C 18.160156 14.019531 17.804688 14.230469 17.320312 14.230469 L 16.667969 14.230469 L 16.667969 8.917969 Z M 17.488281 15.414062 C 18.417969 15.414062 19.125 15.089844 19.613281 14.4375 C 20.101562 13.789062 20.34375 12.832031 20.34375 11.566406 C 20.34375 10.308594 20.097656 9.355469 19.601562 8.707031 C 19.109375 8.058594 18.382812 7.730469 17.433594 7.730469 L 15.117188 7.730469 L 15.117188 15.414062 Z M 10.734375 8.886719 L 11.453125 8.886719 C 11.742188 8.886719 11.960938 8.992188 12.113281 9.207031 C 12.265625 9.417969 12.339844 9.734375 12.339844 10.148438 C 12.339844 10.5625 12.265625 10.875 12.113281 11.089844 C 11.960938 11.304688 11.742188 11.410156 11.453125 11.410156 L 10.734375 11.410156 Z M 14.265625 15.414062 L 12.714844 12.332031 C 13.085938 12.148438 13.371094 11.867188 13.570312 11.492188 C 13.769531 11.113281 13.871094 10.667969 13.871094 10.148438 C 13.871094 9.402344 13.667969 8.8125 13.265625 8.378906 C 12.863281 7.949219 12.320312 7.730469 11.644531 7.730469 L 9.21875 7.730469 L 9.21875 15.414062 L 10.734375 15.414062 L 10.734375 12.566406 L 11.332031 12.566406 L 12.671875 15.414062 Z M 36.550781 61.085938 L 10.203125 61.085938 C 6.046875 61.085938 2.667969 57.707031 2.667969 53.554688 L 2.667969 10.199219 C 2.667969 6.046875 6.046875 2.667969 10.203125 2.667969 L 53.554688 2.667969 C 57.707031 2.667969 61.089844 6.046875 61.089844 10.199219 L 61.089844 27.203125 L 58.753906 27.203125 L 58.753906 10.199219 C 58.753906 7.335938 56.421875 5.003906 53.554688 5.003906 L 10.203125 5.003906 C 7.335938 5.003906 5.003906 7.335938 5.003906 10.199219 L 5.003906 53.554688 C 5.003906 56.417969 7.335938 58.75 10.203125 58.75 L 36.550781 58.75 Z M 36.550781 61.085938 "/>
</svg>
