<?xml version="1.0" encoding="UTF-8"?>
<svg xmlns="http://www.w3.org/2000/svg" xmlns:xlink="http://www.w3.org/1999/xlink" width="64" height="64" viewBox="0 0 64 64">
<path fill-rule="evenodd" fill="rgb(78.823531%, 14.509805%, 81.960785%)" fill-opacity="1" d="M 16.832031 54 C 15.316406 54 14.082031 52.765625 14.082031 51.25 C 14.082031 49.734375 15.316406 48.5 16.832031 48.5 C 18.351562 48.5 19.585938 49.734375 19.585938 51.25 C 19.585938 52.765625 18.351562 54 16.832031 54 Z M 16.832031 45.832031 C 13.847656 45.832031 11.417969 48.261719 11.417969 51.25 C 11.417969 54.238281 13.847656 56.667969 16.832031 56.667969 C 19.820312 56.667969 22.25 54.238281 22.25 51.25 C 22.25 48.261719 19.820312 45.832031 16.832031 45.832031 Z M 16.832031 34.167969 C 15.316406 34.167969 14.082031 32.933594 14.082031 31.417969 C 14.082031 29.898438 15.316406 28.667969 16.832031 28.667969 C 18.351562 28.667969 19.585938 29.898438 19.585938 31.417969 C 19.585938 32.933594 18.351562 34.167969 16.832031 34.167969 Z M 16.832031 26 C 13.847656 26 11.417969 28.429688 11.417969 31.417969 C 11.417969 34.402344 13.847656 36.832031 16.832031 36.832031 C 19.820312 36.832031 22.25 34.402344 22.25 31.417969 C 22.25 28.429688 19.820312 26 16.832031 26 Z M 16.832031 14.332031 C 15.316406 14.332031 14.082031 13.101562 14.082031 11.585938 C 14.082031 10.066406 15.316406 8.832031 16.832031 8.832031 C 18.351562 8.832031 19.585938 10.066406 19.585938 11.585938 C 19.585938 13.101562 18.351562 14.332031 16.832031 14.332031 Z M 16.832031 6.167969 C 13.847656 6.167969 11.417969 8.597656 11.417969 11.585938 C 11.417969 14.570312 13.847656 17 16.832031 17 C 19.820312 17 22.25 14.570312 22.25 11.585938 C 22.25 8.597656 19.820312 6.167969 16.832031 6.167969 Z M 35.667969 57.5 L 58.667969 57.5 L 58.667969 45 L 35.667969 45 Z M 33 60.167969 L 61.332031 60.167969 L 61.332031 42.332031 L 33 42.332031 Z M 35.667969 37.667969 L 58.667969 37.667969 L 58.667969 25.167969 L 35.667969 25.167969 Z M 33 40.332031 L 61.332031 40.332031 L 61.332031 22.5 L 33 22.5 Z M 35.667969 17.832031 L 58.667969 17.832031 L 58.667969 5.332031 L 35.667969 5.332031 Z M 33 20.5 L 61.332031 20.5 L 61.332031 2.667969 L 33 2.667969 Z M 5.332031 57.5 L 28.332031 57.5 L 28.332031 45 L 5.332031 45 Z M 2.667969 60.167969 L 31 60.167969 L 31 42.332031 L 2.667969 42.332031 Z M 5.332031 37.667969 L 28.332031 37.667969 L 28.332031 25.167969 L 5.332031 25.167969 Z M 2.667969 40.332031 L 31 40.332031 L 31 22.5 L 2.667969 22.5 Z M 5.332031 17.832031 L 28.332031 17.832031 L 28.332031 5.332031 L 5.332031 5.332031 Z M 2.667969 20.5 L 31 20.5 L 31 2.667969 L 2.667969 2.667969 Z M 2.667969 20.5 "/>
</svg>
