<?xml version="1.0" encoding="UTF-8"?>
<svg xmlns="http://www.w3.org/2000/svg" xmlns:xlink="http://www.w3.org/1999/xlink" width="64" height="64" viewBox="0 0 64 64">
<path fill-rule="evenodd" fill="rgb(78.823531%, 14.509805%, 81.960785%)" fill-opacity="1" d="M 57.929688 15.285156 C 57.929688 16.375 58.824219 17.265625 59.925781 17.265625 C 60.664062 17.265625 61.257812 17.859375 61.257812 18.597656 L 61.257812 39.808594 C 61.257812 40.546875 60.664062 41.140625 59.925781 41.140625 L 49.570312 41.140625 L 49.570312 38.476562 L 54.449219 38.476562 L 54.449219 35.964844 L 49.570312 35.964844 L 49.570312 33.296875 L 55.785156 33.296875 C 56.519531 33.296875 57.117188 33.894531 57.117188 34.628906 L 57.117188 38.476562 L 58.59375 38.476562 L 58.59375 19.738281 C 56.667969 19.164062 55.265625 17.382812 55.265625 15.285156 C 55.265625 13.183594 56.667969 11.402344 58.59375 10.832031 L 58.59375 8 L 5.332031 8 L 5.332031 10.832031 C 7.257812 11.402344 8.660156 13.183594 8.660156 15.285156 C 8.660156 17.382812 7.257812 19.164062 5.332031 19.738281 L 5.332031 38.476562 L 6.808594 38.476562 L 6.808594 34.628906 C 6.808594 33.894531 7.402344 33.296875 8.140625 33.296875 L 14.355469 33.296875 L 14.355469 35.964844 L 9.476562 35.964844 L 9.476562 38.476562 L 14.355469 38.476562 L 14.355469 41.140625 L 4 41.140625 C 3.261719 41.140625 2.667969 40.546875 2.667969 39.808594 L 2.667969 18.597656 C 2.667969 17.859375 3.261719 17.265625 4 17.265625 C 5.101562 17.265625 5.996094 16.375 5.996094 15.285156 C 5.996094 14.191406 5.101562 13.304688 4 13.304688 C 3.261719 13.304688 2.667969 12.707031 2.667969 11.96875 L 2.667969 6.667969 C 2.667969 5.929688 3.261719 5.332031 4 5.332031 L 59.925781 5.332031 C 60.664062 5.332031 61.257812 5.929688 61.257812 6.667969 L 61.257812 11.96875 C 61.257812 12.707031 60.664062 13.304688 59.925781 13.304688 C 58.824219 13.304688 57.929688 14.191406 57.929688 15.285156 Z M 36.789062 36.410156 L 39.796875 36.410156 L 39.796875 52.203125 L 37.246094 52.203125 L 37.246094 40.375 L 33.144531 48.238281 L 30.640625 48.238281 L 26.671875 40.421875 L 26.671875 52.203125 L 24.121094 52.203125 L 24.121094 36.410156 L 27.21875 36.410156 L 31.957031 45.820312 Z M 13.617188 28.117188 L 15.390625 28.117188 L 15.390625 30.785156 L 12.285156 30.785156 C 11.546875 30.785156 10.953125 30.1875 10.953125 29.453125 L 10.953125 11.84375 C 10.953125 11.109375 11.546875 10.511719 12.285156 10.511719 L 18.5 10.511719 C 19.234375 10.511719 19.832031 11.109375 19.832031 11.84375 L 19.832031 20.132812 L 17.164062 20.132812 L 17.164062 13.179688 L 13.617188 13.179688 Z M 50.308594 28.117188 L 50.308594 13.179688 L 46.761719 13.179688 L 46.761719 20.132812 L 44.09375 20.132812 L 44.09375 11.84375 C 44.09375 11.109375 44.691406 10.511719 45.425781 10.511719 L 51.640625 10.511719 C 52.378906 10.511719 52.972656 11.109375 52.972656 11.84375 L 52.972656 29.453125 C 52.972656 30.1875 52.378906 30.785156 51.640625 30.785156 L 49.570312 30.785156 L 49.570312 28.117188 Z M 39.949219 19.09375 L 39.949219 13.179688 L 35.367188 13.179688 L 35.367188 18.058594 L 32.699219 18.058594 L 32.699219 11.84375 C 32.699219 11.109375 33.296875 10.511719 34.035156 10.511719 L 41.285156 10.511719 C 42.019531 10.511719 42.617188 11.109375 42.617188 11.84375 L 42.617188 19.09375 Z M 28.558594 18.058594 L 28.558594 13.179688 L 23.976562 13.179688 L 23.976562 19.09375 L 21.308594 19.09375 L 21.308594 11.84375 C 21.308594 11.109375 21.902344 10.511719 22.640625 10.511719 L 29.890625 10.511719 C 30.628906 10.511719 31.226562 11.109375 31.226562 11.84375 L 31.226562 18.058594 Z M 42.253906 40.207031 C 43.441406 39.832031 44.382812 39.421875 45.128906 38.992188 L 45.128906 44.679688 C 45.128906 45.140625 44.148438 46.132812 41.449219 46.988281 L 42.253906 49.527344 C 43.441406 49.152344 44.382812 48.742188 45.128906 48.3125 L 45.128906 53.386719 C 45.128906 54.4375 40.648438 56.894531 31.964844 56.894531 C 23.277344 56.894531 18.796875 54.4375 18.796875 53.386719 L 18.796875 48.316406 C 19.554688 48.746094 20.503906 49.164062 21.710938 49.542969 L 22.507812 46.996094 C 19.785156 46.144531 18.796875 45.144531 18.796875 44.679688 L 18.796875 38.992188 C 19.554688 39.425781 20.503906 39.84375 21.710938 40.21875 L 22.507812 37.675781 C 19.785156 36.824219 18.796875 35.824219 18.796875 35.359375 L 18.796875 29.609375 C 21.800781 31.335938 26.910156 32.226562 31.992188 32.226562 C 37.042969 32.226562 42.117188 31.347656 45.128906 29.644531 L 45.128906 35.359375 C 45.128906 35.820312 44.148438 36.8125 41.449219 37.664062 Z M 31.992188 22.433594 C 40.191406 22.433594 45.207031 24.738281 45.207031 25.996094 C 45.207031 27.253906 40.191406 29.558594 31.992188 29.558594 C 23.792969 29.558594 18.773438 27.253906 18.773438 25.996094 C 18.773438 24.738281 23.792969 22.433594 31.992188 22.433594 Z M 31.992188 19.765625 C 24.097656 19.765625 16.128906 21.90625 16.128906 25.996094 C 16.128906 26.117188 16.128906 26.257812 16.128906 26.34375 L 16.128906 53.386719 C 16.128906 57.441406 24.097656 59.5625 31.964844 59.5625 C 39.832031 59.5625 47.820312 57.441406 47.820312 53.386719 L 47.820312 27.054688 C 47.828125 26.828125 47.820312 26.210938 47.820312 25.996094 C 47.820312 21.90625 39.882812 19.765625 31.992188 19.765625 Z M 31.992188 19.765625 "/>
</svg>
