<?xml version="1.0" encoding="UTF-8"?>
<svg xmlns="http://www.w3.org/2000/svg" xmlns:xlink="http://www.w3.org/1999/xlink" width="64" height="64" viewBox="0 0 64 64">
<path fill-rule="evenodd" fill="rgb(78.823531%, 14.509805%, 81.960785%)" fill-opacity="1" d="M 55.285156 50.539062 C 55.429688 50.886719 55.503906 51.308594 55.503906 51.804688 C 55.503906 52.761719 55.195312 53.519531 54.570312 54.082031 C 53.953125 54.640625 53.097656 54.921875 52.007812 54.921875 C 51.535156 54.921875 51.058594 54.867188 50.585938 54.753906 C 50.109375 54.644531 49.710938 54.496094 49.386719 54.316406 L 49.386719 52.726562 C 49.761719 52.867188 50.183594 52.988281 50.652344 53.082031 C 51.121094 53.179688 51.523438 53.226562 51.855469 53.226562 C 52.339844 53.226562 52.707031 53.113281 52.960938 52.886719 C 53.210938 52.65625 53.339844 52.332031 53.339844 51.910156 C 53.339844 51.597656 53.253906 51.332031 53.074219 51.113281 C 52.898438 50.898438 52.601562 50.679688 52.191406 50.457031 L 51.371094 50.015625 C 50.625 49.613281 50.089844 49.179688 49.769531 48.714844 C 49.445312 48.25 49.285156 47.6875 49.285156 47.023438 C 49.285156 46.40625 49.425781 45.867188 49.707031 45.410156 C 49.988281 44.949219 50.375 44.597656 50.863281 44.351562 C 51.355469 44.101562 51.917969 43.980469 52.550781 43.980469 C 53.347656 43.980469 54.140625 44.160156 54.929688 44.523438 L 54.929688 46.128906 C 54.109375 45.824219 53.390625 45.675781 52.761719 45.675781 C 52.339844 45.675781 52.007812 45.78125 51.765625 45.992188 C 51.523438 46.203125 51.402344 46.496094 51.402344 46.867188 C 51.402344 47.183594 51.480469 47.441406 51.636719 47.640625 C 51.792969 47.84375 52.09375 48.066406 52.535156 48.308594 L 53.351562 48.746094 C 53.878906 49.03125 54.292969 49.3125 54.601562 49.59375 C 54.914062 49.875 55.136719 50.191406 55.285156 50.539062 Z M 45.644531 48.792969 C 45.4375 49.085938 45.136719 49.230469 44.742188 49.230469 L 43.757812 49.230469 L 43.757812 45.78125 L 44.742188 45.78125 C 45.136719 45.78125 45.4375 45.925781 45.644531 46.21875 C 45.851562 46.511719 45.953125 46.941406 45.953125 47.507812 C 45.953125 48.070312 45.851562 48.5 45.644531 48.792969 Z M 45 44.207031 L 41.683594 44.207031 L 41.683594 54.695312 L 43.757812 54.695312 L 43.757812 50.804688 L 45 50.804688 C 45.925781 50.804688 46.667969 50.507812 47.214844 49.917969 C 47.765625 49.328125 48.042969 48.523438 48.042969 47.507812 C 48.042969 46.484375 47.765625 45.679688 47.214844 45.089844 C 46.667969 44.5 45.925781 44.207031 45 44.207031 Z M 37.207031 52.257812 C 36.863281 52.894531 36.359375 53.210938 35.695312 53.210938 C 35.027344 53.210938 34.523438 52.894531 34.179688 52.257812 C 33.835938 51.621094 33.664062 50.683594 33.664062 49.441406 C 33.664062 48.171875 33.832031 47.226562 34.164062 46.613281 C 34.496094 45.996094 35.007812 45.6875 35.695312 45.6875 C 36.378906 45.6875 36.886719 45.996094 37.222656 46.613281 C 37.554688 47.226562 37.71875 48.171875 37.71875 49.441406 C 37.71875 50.683594 37.550781 51.621094 37.207031 52.257812 Z M 35.695312 43.980469 C 34.363281 43.980469 33.328125 44.457031 32.589844 45.410156 C 31.851562 46.363281 31.484375 47.707031 31.484375 49.441406 C 31.484375 51.179688 31.851562 52.523438 32.589844 53.484375 C 33.328125 54.441406 34.363281 54.921875 35.695312 54.921875 C 37.027344 54.921875 38.058594 54.441406 38.792969 53.484375 C 39.53125 52.523438 39.898438 51.179688 39.898438 49.441406 C 39.898438 47.707031 39.53125 46.363281 38.792969 45.410156 C 38.058594 44.457031 37.027344 43.980469 35.695312 43.980469 Z M 27.519531 54.695312 L 29.640625 54.695312 L 29.640625 44.207031 L 27.519531 44.207031 Z M 23.398438 48.792969 C 23.191406 49.085938 22.890625 49.230469 22.496094 49.230469 L 21.511719 49.230469 L 21.511719 45.78125 L 22.496094 45.78125 C 22.890625 45.78125 23.191406 45.925781 23.398438 46.21875 C 23.601562 46.511719 23.707031 46.941406 23.707031 47.507812 C 23.707031 48.070312 23.601562 48.5 23.398438 48.792969 Z M 22.753906 44.207031 L 19.4375 44.207031 L 19.4375 54.695312 L 21.511719 54.695312 L 21.511719 50.804688 L 22.753906 50.804688 C 23.679688 50.804688 24.421875 50.507812 24.972656 49.917969 C 25.519531 49.328125 25.796875 48.523438 25.796875 47.507812 C 25.796875 46.484375 25.519531 45.679688 24.972656 45.089844 C 24.421875 44.5 23.679688 44.207031 22.753906 44.207031 Z M 58.542969 53.492188 C 58.542969 56.277344 56.277344 58.542969 53.492188 58.542969 L 10.382812 58.542969 C 7.597656 58.542969 5.332031 56.277344 5.332031 53.492188 L 5.332031 10.382812 C 5.332031 7.597656 7.597656 5.332031 10.382812 5.332031 L 53.492188 5.332031 C 56.277344 5.332031 58.542969 7.597656 58.542969 10.382812 Z M 53.492188 2.667969 L 10.382812 2.667969 C 6.128906 2.667969 2.667969 6.128906 2.667969 10.382812 L 2.667969 53.492188 C 2.667969 57.75 6.128906 61.210938 10.382812 61.210938 L 53.492188 61.210938 C 57.75 61.210938 61.210938 57.75 61.210938 53.492188 L 61.210938 10.382812 C 61.210938 6.128906 57.75 2.667969 53.492188 2.667969 Z M 53.492188 2.667969 "/>
</svg>
