<?xml version="1.0" encoding="UTF-8"?>
<svg xmlns="http://www.w3.org/2000/svg" xmlns:xlink="http://www.w3.org/1999/xlink" width="64" height="64" viewBox="0 0 64 64">
<path fill-rule="evenodd" fill="rgb(78.823531%, 14.509805%, 81.960785%)" fill-opacity="1" d="M 52.234375 17.386719 C 52.234375 16.738281 52.152344 16.273438 51.980469 15.988281 C 51.8125 15.707031 51.546875 15.566406 51.1875 15.566406 C 50.320312 15.566406 49.867188 16.3125 49.816406 17.800781 L 52.234375 17.800781 Z M 54.148438 19.351562 L 49.816406 19.351562 C 49.855469 20.21875 50.035156 20.832031 50.359375 21.191406 C 50.683594 21.550781 51.210938 21.734375 51.945312 21.734375 C 52.222656 21.734375 52.5625 21.6875 52.964844 21.597656 C 53.367188 21.507812 53.765625 21.390625 54.164062 21.246094 L 54.164062 22.886719 C 53.828125 23.105469 53.414062 23.273438 52.921875 23.390625 C 52.425781 23.511719 51.933594 23.574219 51.441406 23.574219 C 48.867188 23.574219 47.582031 21.960938 47.582031 18.738281 C 47.582031 17.164062 47.898438 15.960938 48.527344 15.132812 C 49.160156 14.300781 50.070312 13.886719 51.261719 13.886719 C 53.304688 13.886719 54.328125 15.136719 54.328125 17.636719 C 54.328125 18.265625 54.265625 18.835938 54.148438 19.351562 Z M 43.074219 9.992188 L 43.074219 20.992188 C 43.074219 21.824219 43.25 22.441406 43.605469 22.84375 C 43.960938 23.246094 44.496094 23.445312 45.21875 23.445312 C 45.75 23.445312 46.230469 23.355469 46.660156 23.175781 L 46.660156 21.515625 C 46.410156 21.550781 46.234375 21.570312 46.140625 21.570312 C 45.898438 21.570312 45.738281 21.507812 45.660156 21.382812 C 45.582031 21.257812 45.542969 21.035156 45.542969 20.722656 L 45.542969 9.992188 Z M 40.546875 23.347656 C 40.929688 23.246094 41.25 23.105469 41.503906 22.925781 L 41.503906 21.28125 C 40.914062 21.511719 40.371094 21.625 39.878906 21.625 C 39.253906 21.625 38.804688 21.410156 38.527344 20.976562 C 38.25 20.542969 38.113281 19.839844 38.113281 18.863281 L 38.113281 18.613281 C 38.113281 17.636719 38.253906 16.933594 38.539062 16.492188 C 38.816406 16.054688 39.285156 15.835938 39.933594 15.835938 C 40.402344 15.835938 40.914062 15.9375 41.46875 16.140625 L 41.46875 14.5 C 40.828125 14.140625 40.15625 13.960938 39.449219 13.960938 C 38.246094 13.960938 37.308594 14.378906 36.644531 15.214844 C 35.976562 16.050781 35.640625 17.230469 35.640625 18.757812 C 35.640625 20.308594 35.957031 21.488281 36.582031 22.292969 C 37.207031 23.097656 38.125 23.5 39.339844 23.5 C 39.761719 23.5 40.160156 23.449219 40.546875 23.347656 Z M 31.691406 19.496094 C 31.429688 19.414062 31.117188 19.371094 30.753906 19.371094 C 30.40625 19.371094 30.136719 19.480469 29.953125 19.703125 C 29.765625 19.925781 29.671875 20.246094 29.671875 20.667969 C 29.671875 21.03125 29.746094 21.316406 29.898438 21.523438 C 30.046875 21.734375 30.25 21.839844 30.503906 21.839844 C 30.898438 21.839844 31.296875 21.648438 31.691406 21.265625 Z M 31.691406 18.125 L 31.691406 17.296875 C 31.691406 16.671875 31.609375 16.246094 31.449219 16.023438 C 31.289062 15.800781 30.984375 15.691406 30.539062 15.691406 C 29.816406 15.691406 28.933594 15.882812 27.886719 16.265625 L 27.886719 14.628906 C 28.234375 14.398438 28.691406 14.21875 29.257812 14.085938 C 29.820312 13.953125 30.398438 13.886719 30.988281 13.886719 C 32.035156 13.886719 32.792969 14.125 33.261719 14.601562 C 33.730469 15.074219 33.964844 15.835938 33.964844 16.882812 L 33.964844 23.335938 L 32.050781 23.335938 L 31.835938 22.507812 C 31.632812 22.820312 31.335938 23.078125 30.953125 23.273438 C 30.566406 23.472656 30.179688 23.574219 29.78125 23.574219 C 29.035156 23.574219 28.445312 23.328125 28.011719 22.84375 C 27.582031 22.355469 27.363281 21.683594 27.363281 20.832031 C 27.363281 19.929688 27.628906 19.21875 28.15625 18.695312 C 28.6875 18.171875 29.402344 17.910156 30.304688 17.910156 C 30.675781 17.910156 31.140625 17.980469 31.691406 18.125 Z M 23.808594 15.3125 L 23.539062 14.121094 L 21.519531 14.121094 L 21.519531 23.335938 L 23.992188 23.335938 L 23.992188 16.609375 C 24.507812 16.320312 25.054688 16.179688 25.632812 16.179688 C 25.933594 16.179688 26.25 16.207031 26.589844 16.265625 L 26.589844 14.085938 C 26.398438 14.050781 26.203125 14.03125 26.011719 14.03125 C 25.613281 14.03125 25.238281 14.132812 24.882812 14.339844 C 24.53125 14.542969 24.171875 14.867188 23.808594 15.3125 Z M 16.957031 17.078125 C 16.957031 15.566406 16.757812 14.441406 16.363281 13.707031 C 15.964844 12.972656 15.359375 12.605469 14.539062 12.605469 C 13.722656 12.605469 13.117188 12.972656 12.71875 13.707031 C 12.320312 14.441406 12.125 15.566406 12.125 17.078125 C 12.125 18.558594 12.328125 19.675781 12.738281 20.433594 C 13.144531 21.191406 13.746094 21.570312 14.539062 21.570312 C 15.335938 21.570312 15.933594 21.191406 16.34375 20.433594 C 16.753906 19.675781 16.957031 18.558594 16.957031 17.078125 Z M 18.238281 12.273438 C 19.113281 13.410156 19.554688 15.011719 19.554688 17.078125 C 19.554688 19.148438 19.113281 20.753906 18.238281 21.894531 C 17.359375 23.039062 16.128906 23.609375 14.539062 23.609375 C 12.953125 23.609375 11.71875 23.039062 10.84375 21.894531 C 9.964844 20.753906 9.527344 19.148438 9.527344 17.078125 C 9.527344 15.011719 9.964844 13.410156 10.84375 12.273438 C 11.71875 11.136719 12.953125 10.570312 14.539062 10.570312 C 16.128906 10.570312 17.359375 11.136719 18.238281 12.273438 Z M 58.667969 40.003906 L 58.667969 35.292969 C 56.363281 36.550781 52.863281 37.203125 49.378906 37.203125 C 45.898438 37.203125 42.402344 36.550781 40.09375 35.292969 L 40.09375 40.003906 C 40.09375 40.84375 43.253906 42.808594 49.378906 42.808594 C 55.507812 42.808594 58.667969 40.84375 58.667969 40.003906 Z M 58.667969 48.132812 L 58.667969 43.566406 C 56.363281 44.824219 52.863281 45.476562 49.378906 45.476562 C 45.898438 45.476562 42.402344 44.824219 40.09375 43.566406 L 40.09375 48.132812 C 40.09375 48.972656 43.253906 50.941406 49.378906 50.941406 C 55.507812 50.941406 58.667969 48.972656 58.667969 48.132812 Z M 58.667969 55.394531 L 58.667969 51.699219 C 56.363281 52.957031 52.863281 53.605469 49.378906 53.605469 C 45.898438 53.605469 42.402344 52.957031 40.09375 51.699219 L 40.09375 55.394531 C 40.09375 56.234375 43.253906 58.199219 49.378906 58.199219 C 55.507812 58.199219 58.667969 56.234375 58.667969 55.394531 Z M 40.09375 31.730469 C 40.09375 32.570312 43.253906 34.535156 49.378906 34.535156 C 55.507812 34.535156 58.667969 32.570312 58.667969 31.730469 C 58.667969 30.890625 55.507812 28.925781 49.378906 28.925781 C 43.253906 28.925781 40.09375 30.890625 40.09375 31.730469 Z M 61.335938 31.730469 L 61.335938 55.394531 C 61.335938 58.988281 55.320312 60.867188 49.378906 60.867188 C 43.4375 60.867188 37.425781 58.988281 37.425781 55.394531 L 37.425781 31.730469 C 37.425781 28.136719 43.4375 26.257812 49.378906 26.257812 C 55.320312 26.257812 61.335938 28.136719 61.335938 31.730469 Z M 10.339844 58.519531 L 36.582031 58.519531 L 36.582031 61.1875 L 10.339844 61.1875 C 6.109375 61.1875 2.664062 57.746094 2.664062 53.515625 L 2.664062 10.339844 C 2.664062 6.109375 6.109375 2.667969 10.339844 2.667969 L 53.515625 2.667969 C 57.746094 2.667969 61.1875 6.109375 61.1875 10.339844 L 61.1875 27.273438 L 58.519531 27.273438 L 58.519531 10.339844 C 58.519531 7.578125 56.273438 5.332031 53.515625 5.332031 L 10.339844 5.332031 C 7.578125 5.332031 5.332031 7.578125 5.332031 10.339844 L 5.332031 53.515625 C 5.332031 56.273438 7.578125 58.519531 10.339844 58.519531 Z M 10.339844 58.519531 "/>
</svg>
