<?xml version="1.0" encoding="UTF-8"?>
<svg xmlns="http://www.w3.org/2000/svg" xmlns:xlink="http://www.w3.org/1999/xlink" width="64" height="64" viewBox="0 0 64 64">
<path fill-rule="evenodd" fill="rgb(78.823531%, 14.509805%, 81.960785%)" fill-opacity="1" d="M 50.917969 17.425781 C 45.472656 17.425781 42.667969 15.828125 42.667969 15.148438 L 42.667969 11.03125 C 44.800781 12.09375 47.925781 12.601562 50.917969 12.601562 C 54.15625 12.601562 56.832031 12.058594 58.667969 11.121094 L 58.667969 15.148438 C 58.667969 15.964844 56.078125 17.425781 50.917969 17.425781 Z M 50.917969 24.4375 C 45.472656 24.4375 42.667969 22.898438 42.667969 22.238281 L 42.667969 18.566406 C 44.769531 19.605469 47.851562 20.09375 50.917969 20.09375 C 54.183594 20.09375 56.847656 19.570312 58.667969 18.65625 L 58.667969 22.238281 C 58.667969 23.007812 56.003906 24.4375 50.917969 24.4375 Z M 50.917969 39.351562 C 56.003906 39.351562 58.667969 40.847656 58.667969 41.652344 C 58.667969 42.453125 56.003906 43.953125 50.917969 43.953125 C 45.472656 43.953125 42.667969 42.339844 42.667969 41.652344 C 42.667969 40.964844 45.472656 39.351562 50.917969 39.351562 Z M 50.917969 51.445312 C 45.472656 51.445312 42.667969 49.847656 42.667969 49.164062 L 42.667969 45.046875 C 44.800781 46.113281 47.925781 46.617188 50.917969 46.617188 C 54.15625 46.617188 56.832031 46.074219 58.667969 45.140625 L 58.667969 49.164062 C 58.667969 49.984375 56.078125 51.445312 50.917969 51.445312 Z M 50.917969 58.457031 C 45.472656 58.457031 42.667969 56.917969 42.667969 56.261719 L 42.667969 52.585938 C 44.769531 53.625 47.851562 54.113281 50.917969 54.113281 C 54.183594 54.113281 56.847656 53.589844 58.667969 52.675781 L 58.667969 56.261719 C 58.667969 57.027344 56.003906 58.457031 50.917969 58.457031 Z M 16.324219 40.28125 C 9.613281 40.28125 5.332031 38.351562 5.332031 37.023438 L 5.332031 31.484375 C 7.992188 33 12.25 33.714844 16.324219 33.714844 C 20.777344 33.714844 24.386719 32.929688 26.667969 31.59375 L 26.667969 37.023438 C 26.667969 38.386719 23.070312 40.28125 16.324219 40.28125 Z M 16.324219 49.242188 C 9.109375 49.242188 5.332031 47.15625 5.332031 46.035156 L 5.332031 40.726562 C 7.992188 42.234375 12.25 42.945312 16.324219 42.945312 C 20.777344 42.945312 24.386719 42.164062 26.667969 40.832031 L 26.667969 46.035156 C 26.667969 47.378906 23.070312 49.242188 16.324219 49.242188 Z M 5.332031 21.59375 C 7.992188 23.109375 12.25 23.824219 16.324219 23.824219 C 20.777344 23.824219 24.386719 23.039062 26.667969 21.703125 L 26.667969 27.765625 C 26.667969 29.144531 23.070312 31.046875 16.324219 31.046875 C 9.613281 31.046875 5.332031 29.105469 5.332031 27.765625 Z M 16.324219 14.59375 C 22.984375 14.59375 26.667969 16.535156 26.667969 17.875 C 26.667969 19.21875 22.984375 21.15625 16.324219 21.15625 C 9.109375 21.15625 5.332031 19.019531 5.332031 17.875 C 5.332031 16.730469 9.109375 14.59375 16.324219 14.59375 Z M 50.917969 5.332031 C 56.003906 5.332031 58.667969 6.832031 58.667969 7.632812 C 58.667969 8.4375 56.003906 9.933594 50.917969 9.933594 C 45.472656 9.933594 42.667969 8.320312 42.667969 7.632812 C 42.667969 6.945312 45.472656 5.332031 50.917969 5.332031 Z M 61.332031 7.632812 C 61.332031 4.664062 57.148438 2.667969 50.917969 2.667969 C 45.660156 2.667969 40 4.222656 40 7.632812 C 40 7.722656 40.019531 7.808594 40.027344 7.894531 L 40 7.894531 L 40 22.011719 L 29.332031 29.476562 L 29.332031 18.5625 L 29.261719 18.5625 C 29.308594 18.339844 29.332031 18.109375 29.332031 17.875 C 29.332031 14.316406 24.105469 11.925781 16.324219 11.925781 C 10.105469 11.925781 3.445312 13.59375 2.738281 17.230469 L 2.667969 17.230469 L 2.667969 46.035156 C 2.667969 50.070312 9.746094 51.910156 16.324219 51.910156 C 24.226562 51.910156 29.332031 49.605469 29.332031 46.035156 L 29.332031 34.601562 L 40 42.066406 L 40 56.261719 C 40 59.621094 45.484375 61.125 50.917969 61.125 C 57.246094 61.125 61.332031 59.214844 61.332031 56.261719 L 61.332031 41.230469 L 61.292969 41.230469 C 60.914062 38.496094 56.84375 36.683594 50.917969 36.683594 C 46.953125 36.683594 42.761719 37.570312 40.9375 39.46875 L 30.324219 32.039062 L 41.058594 24.523438 C 42.910156 26.289062 46.925781 27.105469 50.917969 27.105469 C 57.246094 27.105469 61.332031 25.195312 61.332031 22.238281 L 61.332031 7.894531 L 61.308594 7.894531 C 61.316406 7.808594 61.332031 7.722656 61.332031 7.632812 Z M 61.332031 7.632812 "/>
</svg>
