<?xml version="1.0" encoding="UTF-8"?>
<svg xmlns="http://www.w3.org/2000/svg" xmlns:xlink="http://www.w3.org/1999/xlink" width="64" height="64" viewBox="0 0 64 64">
<path fill-rule="evenodd" fill="rgb(78.823531%, 14.509805%, 81.960785%)" fill-opacity="1" d="M 34.710938 40 L 46.710938 40 L 46.710938 37.332031 L 34.710938 37.332031 Z M 27.21875 33.769531 C 25.417969 33.769531 24.519531 32.5 24.519531 29.960938 C 24.519531 28.707031 24.742188 27.777344 25.1875 27.171875 C 25.632812 26.570312 26.320312 26.265625 27.242188 26.265625 C 28.132812 26.265625 28.96875 26.539062 29.757812 27.082031 L 29.757812 32.886719 C 28.957031 33.476562 28.109375 33.769531 27.21875 33.769531 Z M 28.984375 38.089844 C 28.472656 38.609375 27.648438 38.871094 26.515625 38.871094 C 25.398438 38.871094 24.136719 38.632812 22.730469 38.167969 L 22.730469 40.070312 C 23.976562 40.691406 25.296875 41 26.691406 41 C 28.527344 41 29.945312 40.5 30.9375 39.503906 C 31.933594 38.507812 32.429688 37.09375 32.429688 35.265625 L 32.429688 24.519531 L 30.164062 24.519531 L 29.9375 25.5625 C 28.96875 24.644531 27.828125 24.179688 26.515625 24.179688 C 25.546875 24.179688 24.710938 24.429688 24 24.929688 C 23.289062 25.429688 22.746094 26.117188 22.367188 27.003906 C 21.988281 27.886719 21.800781 28.902344 21.800781 30.050781 C 21.800781 31.804688 22.21875 33.207031 23.058594 34.257812 C 23.898438 35.308594 25.019531 35.832031 26.425781 35.832031 C 27.664062 35.832031 28.773438 35.410156 29.757812 34.5625 L 29.757812 35.539062 C 29.757812 36.714844 29.5 37.566406 28.984375 38.089844 Z M 12.007812 27.152344 C 12.839844 26.574219 13.746094 26.289062 14.726562 26.289062 C 15.695312 26.289062 16.410156 26.609375 16.871094 27.253906 C 17.332031 27.894531 17.5625 28.882812 17.5625 30.210938 C 17.5625 31.554688 17.328125 32.558594 16.859375 33.214844 C 16.390625 33.871094 15.671875 34.199219 14.707031 34.199219 C 13.753906 34.199219 12.855469 33.90625 12.007812 33.316406 Z M 12.007812 35.0625 C 12.445312 35.453125 12.960938 35.761719 13.550781 35.980469 C 14.136719 36.199219 14.75 36.308594 15.386719 36.308594 C 16.382812 36.308594 17.25 36.042969 17.992188 35.515625 C 18.734375 34.984375 19.300781 34.257812 19.691406 33.328125 C 20.085938 32.398438 20.28125 31.328125 20.28125 30.121094 C 20.28125 28.308594 19.855469 26.863281 19 25.789062 C 18.148438 24.71875 17.003906 24.179688 15.566406 24.179688 C 14.871094 24.179688 14.203125 24.3125 13.5625 24.566406 C 12.917969 24.824219 12.332031 25.195312 11.804688 25.675781 L 11.554688 24.519531 L 9.332031 24.519531 L 9.332031 40.726562 L 12.007812 40.726562 Z M 42.710938 6.199219 L 49.171875 12 L 42.710938 12 Z M 52.933594 11.792969 L 43.144531 3.007812 C 42.902344 2.789062 42.582031 2.667969 42.253906 2.667969 L 10.710938 2.667969 C 9.972656 2.667969 9.378906 3.265625 9.378906 4 L 9.378906 20 L 12.042969 20 L 12.042969 5.332031 L 40.042969 5.332031 L 40.042969 13.332031 C 40.042969 14.070312 40.640625 14.667969 41.378906 14.667969 L 50.710938 14.667969 L 50.710938 58.667969 L 12.042969 58.667969 L 12.042969 45.332031 L 9.378906 45.332031 L 9.378906 60 C 9.378906 60.734375 9.972656 61.332031 10.710938 61.332031 L 52.042969 61.332031 C 52.78125 61.332031 53.378906 60.734375 53.378906 60 L 53.378906 12.785156 C 53.378906 12.40625 53.214844 12.046875 52.933594 11.792969 Z M 52.933594 11.792969 "/>
</svg>
