<?xml version="1.0" encoding="UTF-8"?>
<svg xmlns="http://www.w3.org/2000/svg" xmlns:xlink="http://www.w3.org/1999/xlink" width="64" height="64" viewBox="0 0 64 64">
<path fill-rule="evenodd" fill="rgb(78.823531%, 14.509805%, 81.960785%)" fill-opacity="1" d="M 56.625 12.757812 C 56.75 12.757812 56.875 12.773438 56.996094 12.792969 L 56.996094 14.203125 C 56.78125 14.164062 56.574219 14.144531 56.378906 14.144531 C 56.007812 14.144531 55.652344 14.238281 55.320312 14.425781 L 55.320312 18.765625 L 53.726562 18.765625 L 53.726562 12.820312 L 55.03125 12.820312 L 55.207031 13.585938 C 55.4375 13.300781 55.667969 13.089844 55.898438 12.957031 C 56.125 12.824219 56.371094 12.757812 56.625 12.757812 Z M 51.28125 15.191406 L 49.71875 15.191406 C 49.753906 14.230469 50.046875 13.75 50.605469 13.75 C 50.839844 13.75 51.011719 13.839844 51.117188 14.023438 C 51.226562 14.207031 51.28125 14.503906 51.28125 14.925781 Z M 52.632812 15.085938 C 52.632812 13.472656 51.972656 12.667969 50.652344 12.667969 C 49.882812 12.667969 49.296875 12.933594 48.886719 13.46875 C 48.480469 14.003906 48.277344 14.78125 48.277344 15.796875 C 48.277344 17.878906 49.105469 18.917969 50.769531 18.917969 C 51.085938 18.917969 51.40625 18.878906 51.722656 18.800781 C 52.042969 18.722656 52.308594 18.617188 52.527344 18.476562 L 52.527344 17.414062 C 52.269531 17.507812 52.011719 17.585938 51.753906 17.644531 C 51.492188 17.703125 51.273438 17.730469 51.09375 17.730469 C 50.621094 17.730469 50.28125 17.613281 50.070312 17.382812 C 49.863281 17.148438 49.746094 16.753906 49.71875 16.195312 L 52.515625 16.195312 C 52.59375 15.859375 52.632812 15.492188 52.632812 15.085938 Z M 46.171875 12.820312 L 47.8125 12.820312 L 46.03125 18.765625 L 44.53125 18.765625 L 42.738281 12.820312 L 44.425781 12.820312 L 45.285156 17.054688 Z M 41.816406 12.757812 C 41.941406 12.757812 42.066406 12.773438 42.191406 12.792969 L 42.191406 14.203125 C 41.972656 14.164062 41.765625 14.144531 41.574219 14.144531 C 41.199219 14.144531 40.847656 14.238281 40.515625 14.425781 L 40.515625 18.765625 L 38.917969 18.765625 L 38.917969 12.820312 L 40.222656 12.820312 L 40.398438 13.585938 C 40.632812 13.300781 40.859375 13.089844 41.089844 12.957031 C 41.320312 12.824219 41.5625 12.757812 41.816406 12.757812 Z M 36.472656 15.191406 L 34.914062 15.191406 C 34.945312 14.230469 35.238281 13.75 35.800781 13.75 C 36.03125 13.75 36.203125 13.839844 36.3125 14.023438 C 36.421875 14.207031 36.472656 14.503906 36.472656 14.925781 Z M 37.824219 15.085938 C 37.824219 13.472656 37.164062 12.667969 35.847656 12.667969 C 35.078125 12.667969 34.488281 12.933594 34.082031 13.46875 C 33.675781 14.003906 33.472656 14.78125 33.472656 15.796875 C 33.472656 17.878906 34.300781 18.917969 35.964844 18.917969 C 36.28125 18.917969 36.597656 18.878906 36.917969 18.800781 C 37.234375 18.722656 37.503906 18.617188 37.71875 18.476562 L 37.71875 17.414062 C 37.464844 17.507812 37.207031 17.585938 36.945312 17.644531 C 36.6875 17.703125 36.464844 17.730469 36.289062 17.730469 C 35.816406 17.730469 35.472656 17.613281 35.261719 17.382812 C 35.054688 17.148438 34.9375 16.753906 34.914062 16.195312 L 37.707031 16.195312 C 37.785156 15.859375 37.824219 15.492188 37.824219 15.085938 Z M 32.476562 15.570312 C 32.585938 15.839844 32.644531 16.164062 32.644531 16.542969 C 32.644531 17.28125 32.40625 17.863281 31.929688 18.296875 C 31.449219 18.726562 30.792969 18.941406 29.957031 18.941406 C 29.589844 18.941406 29.226562 18.898438 28.859375 18.8125 C 28.496094 18.726562 28.1875 18.617188 27.941406 18.476562 L 27.941406 17.253906 C 28.226562 17.363281 28.550781 17.453125 28.914062 17.527344 C 29.273438 17.601562 29.582031 17.636719 29.839844 17.636719 C 30.210938 17.636719 30.492188 17.550781 30.6875 17.375 C 30.882812 17.199219 30.980469 16.949219 30.980469 16.625 C 30.980469 16.382812 30.910156 16.179688 30.773438 16.011719 C 30.640625 15.847656 30.414062 15.675781 30.09375 15.507812 L 29.464844 15.167969 C 28.890625 14.859375 28.480469 14.527344 28.234375 14.167969 C 27.984375 13.8125 27.859375 13.375 27.859375 12.863281 C 27.859375 12.390625 27.96875 11.976562 28.1875 11.625 C 28.402344 11.269531 28.699219 11 29.074219 10.808594 C 29.453125 10.621094 29.882812 10.523438 30.375 10.523438 C 30.984375 10.523438 31.597656 10.664062 32.203125 10.945312 L 32.203125 12.175781 C 31.574219 11.945312 31.019531 11.828125 30.539062 11.828125 C 30.210938 11.828125 29.957031 11.910156 29.769531 12.074219 C 29.582031 12.238281 29.488281 12.460938 29.488281 12.746094 C 29.488281 12.988281 29.546875 13.1875 29.667969 13.339844 C 29.789062 13.496094 30.019531 13.667969 30.363281 13.855469 L 30.988281 14.191406 C 31.394531 14.410156 31.714844 14.625 31.953125 14.84375 C 32.1875 15.0625 32.363281 15.304688 32.476562 15.570312 Z M 22.132812 17.476562 L 24.878906 17.476562 L 24.878906 18.765625 L 20.503906 18.765625 L 20.503906 10.699219 L 22.132812 10.699219 Z M 17.058594 16.894531 C 16.792969 17.382812 16.40625 17.625 15.894531 17.625 C 15.378906 17.625 14.992188 17.382812 14.730469 16.894531 C 14.464844 16.402344 14.332031 15.683594 14.332031 14.726562 C 14.332031 13.75 14.460938 13.023438 14.714844 12.550781 C 14.972656 12.078125 15.367188 11.839844 15.894531 11.839844 C 16.421875 11.839844 16.8125 12.078125 17.070312 12.550781 C 17.324219 13.023438 17.453125 13.75 17.453125 14.726562 C 17.453125 15.683594 17.320312 16.402344 17.058594 16.894531 Z M 18.597656 17.324219 C 18.953125 16.632812 19.128906 15.765625 19.128906 14.726562 C 19.128906 13.390625 18.84375 12.359375 18.28125 11.625 C 17.710938 10.890625 16.917969 10.523438 15.894531 10.523438 C 14.867188 10.523438 14.074219 10.890625 13.503906 11.625 C 12.9375 12.359375 12.65625 13.390625 12.65625 14.726562 C 12.65625 16.03125 12.921875 17.050781 13.460938 17.78125 C 13.992188 18.515625 14.75 18.902344 15.730469 18.941406 C 16.132812 19.421875 16.617188 19.824219 17.183594 20.140625 C 17.75 20.457031 18.34375 20.664062 18.953125 20.757812 L 18.953125 19.429688 C 18.527344 19.382812 18.164062 19.304688 17.871094 19.195312 C 17.578125 19.089844 17.308594 18.9375 17.070312 18.742188 C 17.734375 18.488281 18.246094 18.015625 18.597656 17.324219 Z M 11.496094 15.570312 C 11.609375 15.839844 11.664062 16.164062 11.664062 16.542969 C 11.664062 17.28125 11.429688 17.863281 10.953125 18.296875 C 10.472656 18.726562 9.816406 18.941406 8.980469 18.941406 C 8.613281 18.941406 8.25 18.898438 7.882812 18.8125 C 7.519531 18.726562 7.210938 18.617188 6.964844 18.476562 L 6.964844 17.253906 C 7.25 17.363281 7.574219 17.453125 7.933594 17.527344 C 8.296875 17.601562 8.605469 17.636719 8.863281 17.636719 C 9.234375 17.636719 9.519531 17.550781 9.710938 17.375 C 9.90625 17.199219 10.003906 16.949219 10.003906 16.625 C 10.003906 16.382812 9.933594 16.179688 9.796875 16.011719 C 9.660156 15.847656 9.433594 15.675781 9.117188 15.507812 L 8.488281 15.167969 C 7.914062 14.859375 7.503906 14.527344 7.253906 14.167969 C 7.007812 13.8125 6.882812 13.375 6.882812 12.863281 C 6.882812 12.390625 6.992188 11.976562 7.207031 11.625 C 7.425781 11.269531 7.722656 11 8.097656 10.808594 C 8.476562 10.621094 8.910156 10.523438 9.398438 10.523438 C 10.011719 10.523438 10.621094 10.664062 11.226562 10.945312 L 11.226562 12.175781 C 10.59375 11.945312 10.039062 11.828125 9.5625 11.828125 C 9.234375 11.828125 8.980469 11.910156 8.792969 12.074219 C 8.605469 12.238281 8.511719 12.460938 8.511719 12.746094 C 8.511719 12.988281 8.570312 13.1875 8.691406 13.339844 C 8.8125 13.496094 9.042969 13.667969 9.382812 13.855469 L 10.011719 14.191406 C 10.417969 14.410156 10.738281 14.625 10.976562 14.84375 C 11.210938 15.0625 11.382812 15.304688 11.496094 15.570312 Z M 58.542969 53.488281 C 58.542969 56.277344 56.277344 58.542969 53.488281 58.542969 L 10.386719 58.542969 C 7.597656 58.542969 5.332031 56.277344 5.332031 53.488281 L 5.332031 10.386719 C 5.332031 7.601562 7.597656 5.332031 10.386719 5.332031 L 53.488281 5.332031 C 56.277344 5.332031 58.542969 7.601562 58.542969 10.386719 Z M 53.488281 2.667969 L 10.386719 2.667969 C 6.128906 2.667969 2.664062 6.128906 2.664062 10.386719 L 2.664062 53.488281 C 2.664062 57.746094 6.128906 61.210938 10.386719 61.210938 L 53.488281 61.210938 C 57.746094 61.210938 61.210938 57.746094 61.210938 53.488281 L 61.210938 10.386719 C 61.210938 6.128906 57.746094 2.667969 53.488281 2.667969 Z M 53.488281 2.667969 "/>
</svg>
