<?xml version="1.0" encoding="UTF-8"?>
<svg xmlns="http://www.w3.org/2000/svg" xmlns:xlink="http://www.w3.org/1999/xlink" width="64" height="64" viewBox="0 0 64 64">
<path fill-rule="evenodd" fill="rgb(78.823531%, 14.509805%, 81.960785%)" fill-opacity="1" d="M 53.796875 18.019531 C 53.796875 17.535156 53.6875 17.160156 53.46875 16.902344 C 53.25 16.636719 52.9375 16.507812 52.53125 16.507812 L 51.484375 16.507812 L 51.484375 19.503906 L 52.648438 19.503906 C 53.015625 19.503906 53.296875 19.375 53.5 19.125 C 53.695312 18.871094 53.796875 18.503906 53.796875 18.019531 Z M 51.484375 15.128906 L 52.300781 15.128906 C 52.636719 15.128906 52.902344 15.003906 53.101562 14.761719 C 53.292969 14.523438 53.390625 14.183594 53.390625 13.746094 C 53.390625 13.300781 53.304688 12.953125 53.136719 12.707031 C 52.964844 12.460938 52.730469 12.335938 52.429688 12.335938 L 51.484375 12.335938 Z M 54.160156 15.664062 C 54.691406 15.847656 55.097656 16.148438 55.375 16.566406 C 55.652344 16.980469 55.789062 17.5 55.789062 18.121094 C 55.789062 18.984375 55.507812 19.671875 54.945312 20.183594 C 54.382812 20.699219 53.628906 20.957031 52.691406 20.957031 L 49.566406 20.957031 L 49.566406 10.882812 L 52.605469 10.882812 C 53.40625 10.882812 54.066406 11.128906 54.582031 11.625 C 55.09375 12.117188 55.351562 12.761719 55.351562 13.558594 C 55.351562 14.0625 55.25 14.492188 55.046875 14.851562 C 54.84375 15.210938 54.546875 15.480469 54.160156 15.664062 Z M 45.761719 15.765625 C 45.761719 14.621094 45.605469 13.78125 45.300781 13.246094 C 44.996094 12.707031 44.519531 12.4375 43.871094 12.4375 L 43.027344 12.4375 L 43.027344 19.398438 L 43.882812 19.398438 C 44.511719 19.398438 44.984375 19.125 45.292969 18.578125 C 45.601562 18.03125 45.761719 17.191406 45.761719 16.058594 Z M 46.878906 12.160156 C 47.527344 13.015625 47.851562 14.265625 47.851562 15.910156 C 47.851562 17.566406 47.53125 18.824219 46.890625 19.675781 C 46.25 20.527344 45.324219 20.957031 44.101562 20.957031 L 40.992188 20.957031 L 40.992188 10.882812 L 44.027344 10.882812 C 45.277344 10.882812 46.226562 11.308594 46.878906 12.160156 Z M 37.34375 17.859375 C 37.128906 17.792969 36.878906 17.757812 36.585938 17.757812 C 36.304688 17.757812 36.089844 17.847656 35.941406 18.027344 C 35.789062 18.207031 35.714844 18.464844 35.714844 18.804688 C 35.714844 19.09375 35.773438 19.324219 35.894531 19.496094 C 36.015625 19.664062 36.179688 19.75 36.382812 19.75 C 36.703125 19.75 37.023438 19.59375 37.34375 19.285156 Z M 37.457031 20.285156 C 37.292969 20.539062 37.054688 20.746094 36.746094 20.90625 C 36.4375 21.066406 36.121094 21.144531 35.800781 21.144531 C 35.203125 21.144531 34.726562 20.949219 34.378906 20.554688 C 34.027344 20.164062 33.855469 19.625 33.855469 18.9375 C 33.855469 18.207031 34.066406 17.632812 34.492188 17.214844 C 34.917969 16.792969 35.496094 16.582031 36.222656 16.582031 C 36.523438 16.582031 36.898438 16.636719 37.34375 16.753906 L 37.34375 16.085938 C 37.34375 15.582031 37.277344 15.242188 37.148438 15.0625 C 37.015625 14.882812 36.769531 14.792969 36.414062 14.792969 C 35.832031 14.792969 35.117188 14.949219 34.273438 15.257812 L 34.273438 13.9375 C 34.554688 13.75 34.925781 13.605469 35.378906 13.5 C 35.835938 13.394531 36.300781 13.339844 36.777344 13.339844 C 37.617188 13.339844 38.230469 13.53125 38.605469 13.914062 C 38.984375 14.296875 39.171875 14.910156 39.171875 15.75 L 39.171875 20.957031 L 37.632812 20.957031 Z M 30.378906 20.957031 L 32.371094 20.957031 L 32.371094 13.527344 L 30.378906 13.527344 Z M 32.226562 10.410156 C 32.011719 10.214844 31.734375 10.113281 31.382812 10.113281 C 31.023438 10.113281 30.738281 10.214844 30.527344 10.410156 C 30.316406 10.609375 30.207031 10.878906 30.207031 11.21875 C 30.207031 11.558594 30.316406 11.824219 30.527344 12.023438 C 30.738281 12.222656 31.023438 12.324219 31.382812 12.324219 C 31.734375 12.324219 32.011719 12.222656 32.226562 12.023438 C 32.4375 11.824219 32.546875 11.558594 32.546875 11.21875 C 32.546875 10.878906 32.4375 10.609375 32.226562 10.410156 Z M 27.199219 14.488281 L 26.980469 13.527344 L 25.351562 13.527344 L 25.351562 20.957031 L 27.34375 20.957031 L 27.34375 15.535156 C 27.757812 15.300781 28.203125 15.183594 28.664062 15.183594 C 28.90625 15.183594 29.164062 15.210938 29.433594 15.257812 L 29.433594 13.5 C 29.28125 13.46875 29.125 13.457031 28.972656 13.457031 C 28.652344 13.457031 28.347656 13.539062 28.0625 13.703125 C 27.777344 13.867188 27.488281 14.128906 27.199219 14.488281 Z M 21.835938 17.859375 C 21.621094 17.792969 21.371094 17.757812 21.078125 17.757812 C 20.796875 17.757812 20.582031 17.847656 20.433594 18.027344 C 20.28125 18.207031 20.207031 18.464844 20.207031 18.804688 C 20.207031 19.09375 20.265625 19.324219 20.390625 19.496094 C 20.507812 19.664062 20.671875 19.75 20.875 19.75 C 21.195312 19.75 21.515625 19.59375 21.835938 19.285156 Z M 21.835938 16.753906 L 21.835938 16.085938 C 21.835938 15.582031 21.769531 15.242188 21.636719 15.0625 C 21.507812 14.882812 21.265625 14.792969 20.902344 14.792969 C 20.324219 14.792969 19.609375 14.949219 18.769531 15.257812 L 18.769531 13.9375 C 19.046875 13.75 19.417969 13.605469 19.875 13.5 C 20.328125 13.394531 20.792969 13.339844 21.269531 13.339844 C 22.109375 13.339844 22.722656 13.53125 23.097656 13.914062 C 23.480469 14.296875 23.664062 14.910156 23.664062 15.75 L 23.664062 20.957031 L 22.125 20.957031 L 21.949219 20.285156 C 21.785156 20.539062 21.546875 20.746094 21.238281 20.90625 C 20.929688 21.066406 20.613281 21.144531 20.292969 21.144531 C 19.691406 21.144531 19.21875 20.949219 18.871094 20.554688 C 18.519531 20.164062 18.347656 19.625 18.347656 18.9375 C 18.347656 18.207031 18.558594 17.632812 18.988281 17.214844 C 19.414062 16.792969 19.992188 16.582031 20.714844 16.582031 C 21.015625 16.582031 21.386719 16.636719 21.835938 16.753906 Z M 16.777344 20.957031 L 16.777344 10.882812 L 14.507812 10.882812 L 12.433594 16.523438 L 10.351562 10.882812 L 8.027344 10.882812 L 8.027344 20.957031 L 9.84375 20.957031 L 9.84375 13.9375 L 11.527344 18.46875 L 13.261719 18.46875 L 14.957031 13.890625 L 14.957031 20.957031 Z M 58.628906 39.980469 L 58.628906 35.273438 C 56.324219 36.53125 52.828125 37.179688 49.347656 37.179688 C 45.871094 37.179688 42.375 36.527344 40.070312 35.273438 L 40.070312 39.980469 C 40.070312 40.820312 43.226562 42.78125 49.347656 42.78125 C 55.472656 42.78125 58.628906 40.820312 58.628906 39.980469 Z M 58.628906 48.105469 L 58.628906 43.542969 C 56.324219 44.800781 52.828125 45.449219 49.347656 45.449219 C 45.871094 45.449219 42.375 44.800781 40.070312 43.542969 L 40.070312 48.105469 C 40.070312 48.941406 43.226562 50.90625 49.347656 50.90625 C 55.472656 50.90625 58.628906 48.941406 58.628906 48.105469 Z M 58.628906 55.359375 L 58.628906 51.667969 C 56.324219 52.921875 52.828125 53.574219 49.347656 53.574219 C 45.871094 53.574219 42.375 52.921875 40.070312 51.667969 L 40.070312 55.359375 C 40.070312 56.195312 43.226562 58.160156 49.347656 58.160156 C 55.472656 58.160156 58.628906 56.195312 58.628906 55.359375 Z M 40.070312 31.710938 C 40.070312 32.550781 43.226562 34.511719 49.347656 34.511719 C 55.472656 34.511719 58.628906 32.550781 58.628906 31.710938 C 58.628906 30.875 55.472656 28.910156 49.347656 28.910156 C 43.226562 28.910156 40.070312 30.875 40.070312 31.710938 Z M 61.292969 31.710938 L 61.292969 55.359375 C 61.292969 58.949219 55.285156 60.828125 49.347656 60.828125 C 43.414062 60.828125 37.402344 58.949219 37.402344 55.359375 L 37.402344 31.710938 C 37.402344 28.121094 43.414062 26.242188 49.347656 26.242188 C 55.285156 26.242188 61.292969 28.121094 61.292969 31.710938 Z M 10.335938 58.480469 L 36.558594 58.480469 L 36.558594 61.148438 L 10.335938 61.148438 C 6.105469 61.148438 2.667969 57.707031 2.667969 53.480469 L 2.667969 10.335938 C 2.667969 6.105469 6.105469 2.667969 10.335938 2.667969 L 53.480469 2.667969 C 57.707031 2.667969 61.148438 6.105469 61.148438 10.335938 L 61.148438 27.257812 L 58.480469 27.257812 L 58.480469 10.335938 C 58.480469 7.578125 56.238281 5.332031 53.480469 5.332031 L 10.335938 5.332031 C 7.578125 5.332031 5.332031 7.578125 5.332031 10.335938 L 5.332031 53.480469 C 5.332031 56.238281 7.578125 58.480469 10.335938 58.480469 Z M 10.335938 58.480469 "/>
</svg>
