<?xml version="1.0" encoding="UTF-8"?>
<svg xmlns="http://www.w3.org/2000/svg" xmlns:xlink="http://www.w3.org/1999/xlink" width="64" height="64" viewBox="0 0 64 64">
<path fill-rule="evenodd" fill="rgb(78.823531%, 14.509805%, 81.960785%)" fill-opacity="1" d="M 58.542969 53.085938 C 58.542969 56.097656 56.09375 58.546875 53.085938 58.546875 L 10.792969 58.546875 C 7.78125 58.546875 5.332031 56.097656 5.332031 53.085938 L 5.332031 10.792969 C 5.332031 7.78125 7.78125 5.332031 10.792969 5.332031 L 53.085938 5.332031 C 56.09375 5.332031 58.542969 7.78125 58.542969 10.792969 Z M 53.085938 2.667969 L 10.792969 2.667969 C 6.3125 2.667969 2.667969 6.3125 2.667969 10.792969 L 2.667969 53.085938 C 2.667969 57.566406 6.3125 61.210938 10.792969 61.210938 L 53.085938 61.210938 C 57.566406 61.210938 61.210938 57.566406 61.210938 53.085938 L 61.210938 10.792969 C 61.210938 6.3125 57.566406 2.667969 53.085938 2.667969 Z M 54.605469 19.355469 L 57.539062 19.355469 L 57.539062 20.296875 L 53.472656 20.296875 L 53.472656 12.230469 L 54.605469 12.230469 Z M 48.863281 19.515625 C 48.234375 19.515625 47.761719 19.242188 47.445312 18.695312 C 47.125 18.148438 46.964844 17.339844 46.964844 16.269531 C 46.964844 15.199219 47.125 14.390625 47.445312 13.847656 C 47.761719 13.304688 48.234375 13.035156 48.863281 13.035156 C 49.492188 13.035156 49.964844 13.304688 50.285156 13.847656 C 50.601562 14.390625 50.761719 15.199219 50.761719 16.269531 C 50.761719 17.339844 50.601562 18.148438 50.285156 18.695312 C 49.964844 19.242188 49.492188 19.515625 48.863281 19.515625 Z M 51.355469 18.976562 C 51.726562 18.273438 51.914062 17.371094 51.914062 16.269531 C 51.914062 14.941406 51.648438 13.910156 51.113281 13.175781 C 50.574219 12.445312 49.828125 12.078125 48.863281 12.078125 C 47.902344 12.078125 47.152344 12.445312 46.617188 13.175781 C 46.082031 13.910156 45.816406 14.941406 45.816406 16.269531 C 45.816406 17.113281 45.925781 17.847656 46.144531 18.46875 C 46.367188 19.089844 46.695312 19.570312 47.128906 19.914062 C 47.566406 20.253906 48.089844 20.441406 48.703125 20.472656 C 49.144531 20.953125 49.628906 21.335938 50.15625 21.625 C 50.683594 21.910156 51.242188 22.09375 51.832031 22.171875 L 51.832031 21.179688 C 51.429688 21.136719 51.0625 21.046875 50.726562 20.914062 C 50.394531 20.78125 50.070312 20.59375 49.761719 20.34375 C 50.453125 20.132812 50.984375 19.675781 51.355469 18.976562 Z M 44.351562 16.863281 C 44.589844 17.214844 44.707031 17.628906 44.707031 18.121094 C 44.707031 18.828125 44.488281 19.394531 44.046875 19.828125 C 43.601562 20.257812 43.011719 20.472656 42.277344 20.472656 C 41.917969 20.472656 41.574219 20.433594 41.246094 20.347656 C 40.914062 20.269531 40.628906 20.152344 40.390625 19.996094 L 40.390625 19.097656 C 41.023438 19.371094 41.644531 19.503906 42.238281 19.503906 C 42.652344 19.503906 42.976562 19.390625 43.210938 19.15625 C 43.449219 18.925781 43.566406 18.601562 43.566406 18.191406 C 43.566406 17.628906 43.257812 17.191406 42.636719 16.875 L 41.808594 16.457031 C 41.289062 16.191406 40.914062 15.890625 40.679688 15.546875 C 40.449219 15.207031 40.332031 14.785156 40.332031 14.289062 C 40.332031 13.628906 40.539062 13.097656 40.949219 12.6875 C 41.359375 12.28125 41.898438 12.078125 42.566406 12.078125 C 43.085938 12.078125 43.667969 12.21875 44.3125 12.5 L 44.3125 13.40625 C 43.785156 13.164062 43.230469 13.046875 42.648438 13.046875 C 42.285156 13.046875 41.996094 13.152344 41.78125 13.367188 C 41.566406 13.578125 41.460938 13.867188 41.460938 14.230469 C 41.460938 14.519531 41.535156 14.765625 41.683594 14.964844 C 41.828125 15.167969 42.074219 15.355469 42.414062 15.535156 L 43.242188 15.953125 C 43.746094 16.210938 44.117188 16.511719 44.351562 16.863281 Z M 38.277344 16.6875 C 38.273438 16.742188 38.269531 16.792969 38.269531 16.839844 L 36.175781 16.839844 C 36.199219 16.257812 36.308594 15.816406 36.507812 15.519531 C 36.707031 15.222656 36.984375 15.070312 37.339844 15.070312 C 37.65625 15.070312 37.894531 15.1875 38.050781 15.425781 C 38.203125 15.664062 38.28125 16.03125 38.28125 16.523438 C 38.28125 16.578125 38.28125 16.632812 38.277344 16.6875 Z M 37.386719 14.230469 C 36.664062 14.230469 36.109375 14.5 35.722656 15.035156 C 35.332031 15.570312 35.136719 16.339844 35.136719 17.339844 C 35.136719 18.386719 35.332031 19.167969 35.722656 19.679688 C 36.109375 20.191406 36.699219 20.449219 37.492188 20.449219 C 38.121094 20.449219 38.671875 20.300781 39.144531 20.003906 L 39.144531 19.203125 C 38.609375 19.445312 38.121094 19.5625 37.675781 19.5625 C 37.15625 19.5625 36.777344 19.410156 36.542969 19.097656 C 36.304688 18.789062 36.183594 18.28125 36.175781 17.585938 L 39.15625 17.585938 C 39.21875 17.289062 39.246094 16.96875 39.246094 16.617188 C 39.246094 15.835938 39.089844 15.242188 38.777344 14.835938 C 38.460938 14.433594 38 14.230469 37.386719 14.230469 Z M 34.253906 14.347656 C 34.378906 14.347656 34.503906 14.359375 34.628906 14.382812 L 34.628906 15.394531 C 34.410156 15.367188 34.234375 15.347656 34.101562 15.347656 C 33.660156 15.347656 33.257812 15.496094 32.890625 15.78125 L 32.890625 20.296875 L 31.796875 20.296875 L 31.796875 14.394531 L 32.707031 14.394531 L 32.8125 15.105469 C 33.019531 14.839844 33.238281 14.648438 33.46875 14.53125 C 33.699219 14.410156 33.960938 14.347656 34.253906 14.347656 Z M 29.15625 18.839844 C 28.796875 19.136719 28.460938 19.285156 28.144531 19.285156 C 27.753906 19.285156 27.464844 19.113281 27.28125 18.777344 C 27.097656 18.441406 27.003906 17.921875 27.003906 17.222656 C 27.003906 16.507812 27.089844 15.984375 27.265625 15.648438 C 27.4375 15.308594 27.714844 15.140625 28.085938 15.140625 C 28.433594 15.140625 28.792969 15.28125 29.15625 15.558594 Z M 29.25 14.871094 C 28.796875 14.453125 28.328125 14.242188 27.839844 14.242188 C 27.25 14.242188 26.78125 14.515625 26.433594 15.058594 C 26.082031 15.601562 25.90625 16.335938 25.90625 17.257812 C 25.90625 17.839844 25.984375 18.351562 26.132812 18.789062 C 26.285156 19.226562 26.503906 19.570312 26.792969 19.816406 C 27.078125 20.058594 27.421875 20.179688 27.816406 20.179688 C 28.28125 20.179688 28.730469 19.984375 29.15625 19.589844 L 29.15625 20.015625 C 29.15625 20.703125 29.054688 21.1875 28.851562 21.484375 C 28.652344 21.78125 28.308594 21.925781 27.828125 21.925781 C 27.386719 21.925781 26.875 21.808594 26.292969 21.566406 L 26.292969 22.402344 C 26.789062 22.691406 27.332031 22.835938 27.921875 22.835938 C 29.464844 22.835938 30.238281 21.878906 30.238281 19.957031 L 30.238281 14.394531 L 29.332031 14.394531 Z M 24.40625 19.46875 C 24.648438 19.46875 24.882812 19.433594 25.117188 19.355469 L 25.117188 20.15625 C 24.78125 20.296875 24.429688 20.367188 24.058594 20.367188 C 23.574219 20.367188 23.222656 20.234375 22.992188 19.972656 C 22.761719 19.707031 22.648438 19.300781 22.648438 18.75 L 22.648438 15.28125 L 21.824219 15.28125 L 21.824219 14.558594 L 22.695312 14.417969 L 22.855469 12.742188 L 23.742188 12.742188 L 23.742188 14.394531 L 25.09375 14.394531 L 25.09375 15.28125 L 23.742188 15.28125 L 23.742188 18.667969 C 23.742188 18.960938 23.792969 19.167969 23.890625 19.289062 C 23.984375 19.410156 24.15625 19.46875 24.40625 19.46875 Z M 21.175781 17.746094 C 21.34375 17.996094 21.425781 18.300781 21.425781 18.667969 C 21.425781 19.203125 21.257812 19.632812 20.925781 19.957031 C 20.59375 20.285156 20.144531 20.449219 19.585938 20.449219 C 18.988281 20.449219 18.445312 20.304688 17.957031 20.015625 L 17.957031 19.226562 C 18.5625 19.464844 19.085938 19.589844 19.527344 19.589844 C 19.816406 19.589844 20.039062 19.511719 20.199219 19.359375 C 20.355469 19.210938 20.4375 18.992188 20.4375 18.714844 C 20.4375 18.382812 20.222656 18.109375 19.796875 17.898438 L 19.039062 17.527344 C 18.339844 17.183594 17.992188 16.648438 17.992188 15.921875 C 17.992188 15.425781 18.15625 15.019531 18.480469 14.710938 C 18.808594 14.398438 19.230469 14.242188 19.75 14.242188 C 20.238281 14.242188 20.707031 14.367188 21.160156 14.617188 L 21.160156 15.40625 C 20.730469 15.207031 20.292969 15.105469 19.84375 15.105469 C 19.578125 15.105469 19.371094 15.175781 19.214844 15.316406 C 19.058594 15.453125 18.980469 15.644531 18.980469 15.886719 C 18.980469 16.078125 19.035156 16.242188 19.136719 16.375 C 19.242188 16.503906 19.421875 16.632812 19.667969 16.757812 L 20.378906 17.109375 C 20.742188 17.285156 21.007812 17.5 21.175781 17.746094 Z M 15.6875 19.023438 C 15.492188 19.382812 15.191406 19.5625 14.792969 19.5625 C 14.386719 19.5625 14.089844 19.382812 13.894531 19.023438 C 13.699219 18.664062 13.605469 18.101562 13.605469 17.339844 C 13.605469 16.578125 13.699219 16.019531 13.894531 15.664062 C 14.089844 15.308594 14.386719 15.128906 14.792969 15.128906 C 15.191406 15.128906 15.492188 15.308594 15.6875 15.664062 C 15.882812 16.019531 15.976562 16.578125 15.976562 17.339844 C 15.976562 18.101562 15.882812 18.664062 15.6875 19.023438 Z M 14.792969 14.242188 C 14.054688 14.242188 13.488281 14.511719 13.097656 15.046875 C 12.707031 15.582031 12.507812 16.347656 12.507812 17.339844 C 12.507812 18.339844 12.707031 19.109375 13.097656 19.644531 C 13.488281 20.179688 14.054688 20.449219 14.792969 20.449219 C 15.527344 20.449219 16.09375 20.179688 16.484375 19.644531 C 16.875 19.109375 17.070312 18.339844 17.070312 17.339844 C 17.070312 16.347656 16.875 15.582031 16.484375 15.046875 C 16.09375 14.511719 15.527344 14.242188 14.792969 14.242188 Z M 10.175781 15.851562 C 9.96875 16.128906 9.683594 16.269531 9.320312 16.269531 L 8.167969 16.269531 L 8.167969 13.125 L 9.320312 13.125 C 9.683594 13.125 9.96875 13.265625 10.175781 13.539062 C 10.382812 13.816406 10.484375 14.203125 10.484375 14.699219 C 10.484375 15.1875 10.382812 15.570312 10.175781 15.851562 Z M 10.582031 12.542969 C 10.253906 12.335938 9.871094 12.230469 9.4375 12.230469 L 7.070312 12.230469 L 7.070312 20.296875 L 8.167969 20.296875 L 8.167969 17.167969 L 9.4375 17.167969 C 10.078125 17.167969 10.601562 16.941406 11 16.492188 C 11.402344 16.039062 11.601562 15.445312 11.601562 14.699219 C 11.601562 14.21875 11.515625 13.789062 11.339844 13.417969 C 11.164062 13.046875 10.910156 12.753906 10.582031 12.542969 Z M 10.582031 12.542969 "/>
</svg>
