<?xml version="1.0" encoding="UTF-8"?>
<svg xmlns="http://www.w3.org/2000/svg" xmlns:xlink="http://www.w3.org/1999/xlink" width="64" height="64" viewBox="0 0 64 64">
<path fill-rule="evenodd" fill="rgb(78.823531%, 14.509805%, 81.960785%)" fill-opacity="1" d="M 58.34375 22.746094 L 48.734375 18.976562 L 47.324219 22.570312 L 56.921875 26.367188 Z M 55.949219 28.847656 L 46.351562 25.054688 L 39 43.777344 L 42.433594 45.121094 L 47.945312 31.707031 L 50.414062 32.722656 L 44.914062 46.097656 L 48.609375 47.546875 Z M 39.1875 57.136719 L 46.867188 49.726562 L 38.738281 46.535156 Z M 61.3125 22.480469 L 50.605469 49.761719 C 50.480469 50.078125 50.242188 50.308594 49.957031 50.453125 L 38.910156 61.117188 C 38.65625 61.359375 38.320312 61.488281 37.980469 61.488281 C 37.816406 61.488281 37.648438 61.457031 37.488281 61.394531 C 37 61.199219 36.671875 60.738281 36.652344 60.214844 L 36 44.980469 L 36.03125 44.976562 C 35.921875 44.675781 35.914062 44.34375 36.03125 44.042969 L 46.742188 16.761719 C 47.007812 16.074219 47.78125 15.738281 48.46875 16.007812 L 60.558594 20.753906 C 60.886719 20.882812 61.152344 21.136719 61.292969 21.460938 C 61.433594 21.785156 61.441406 22.152344 61.3125 22.480469 Z M 5.351562 10.882812 C 5.351562 13.550781 11.535156 16.429688 21.523438 16.429688 C 31.625 16.429688 38.667969 13.503906 38.667969 10.882812 C 38.667969 8.257812 31.625 5.332031 21.523438 5.332031 C 11.535156 5.332031 5.351562 8.214844 5.351562 10.882812 Z M 32.921875 57.328125 L 33.648438 59.894531 C 30.25 60.855469 26.117188 61.363281 21.695312 61.363281 C 10.3125 61.363281 2.667969 58.0625 2.667969 53.152344 L 2.667969 10.699219 L 2.703125 10.699219 C 2.890625 5.890625 10.398438 2.667969 21.523438 2.667969 C 31.253906 2.667969 41.085938 5.425781 41.3125 10.699219 L 41.332031 10.699219 L 41.332031 22.699219 L 38.667969 22.699219 L 38.667969 15.210938 C 35.050781 17.773438 28.257812 19.097656 21.523438 19.097656 C 14.210938 19.097656 8.472656 17.699219 5.332031 15.382812 L 5.332031 53.152344 C 5.332031 55.878906 11.453125 58.699219 21.695312 58.699219 C 25.875 58.699219 29.757812 58.222656 32.921875 57.328125 Z M 10.667969 30.699219 L 26.667969 30.699219 L 26.667969 28.03125 L 10.667969 28.03125 Z M 9.332031 36.03125 L 36 36.03125 L 36 33.367188 L 9.332031 33.367188 Z M 13.332031 41.367188 L 21.332031 41.367188 L 21.332031 38.699219 L 13.332031 38.699219 Z M 25.332031 41.367188 L 32 41.367188 L 32 38.699219 L 25.332031 38.699219 Z M 25.332031 41.367188 "/>
</svg>
