<?xml version="1.0" encoding="UTF-8"?>
<svg xmlns="http://www.w3.org/2000/svg" xmlns:xlink="http://www.w3.org/1999/xlink" width="64" height="64" viewBox="0 0 64 64">
<path fill-rule="evenodd" fill="rgb(78.823531%, 14.509805%, 81.960785%)" fill-opacity="1" d="M 58.617188 39.972656 L 58.617188 35.265625 C 56.3125 36.523438 52.820312 37.171875 49.339844 37.171875 C 45.863281 37.171875 42.367188 36.523438 40.0625 35.265625 L 40.0625 39.972656 C 40.0625 40.8125 43.21875 42.773438 49.339844 42.773438 C 55.460938 42.773438 58.617188 40.8125 58.617188 39.972656 Z M 58.617188 48.097656 L 58.617188 43.535156 C 56.3125 44.792969 52.820312 45.441406 49.339844 45.441406 C 45.863281 45.441406 42.367188 44.792969 40.0625 43.535156 L 40.0625 48.097656 C 40.0625 48.933594 43.21875 50.898438 49.339844 50.898438 C 55.460938 50.898438 58.617188 48.933594 58.617188 48.097656 Z M 58.617188 55.351562 L 58.617188 51.660156 C 56.3125 52.914062 52.820312 53.566406 49.339844 53.566406 C 45.863281 53.566406 42.367188 52.914062 40.0625 51.660156 L 40.0625 55.351562 C 40.0625 56.1875 43.21875 58.152344 49.339844 58.152344 C 55.460938 58.152344 58.617188 56.1875 58.617188 55.351562 Z M 40.0625 31.707031 C 40.0625 32.542969 43.21875 34.507812 49.339844 34.507812 C 55.460938 34.507812 58.617188 32.542969 58.617188 31.707031 C 58.617188 30.867188 55.460938 28.90625 49.339844 28.90625 C 43.21875 28.90625 40.0625 30.867188 40.0625 31.707031 Z M 61.285156 31.707031 L 61.285156 55.351562 C 61.285156 58.941406 55.277344 60.816406 49.339844 60.816406 C 43.40625 60.816406 37.398438 58.941406 37.398438 55.351562 L 37.398438 31.707031 C 37.398438 28.117188 43.40625 26.238281 49.339844 26.238281 C 55.277344 26.238281 61.285156 28.117188 61.285156 31.707031 Z M 5.332031 53.472656 L 5.332031 10.335938 C 5.332031 7.578125 7.578125 5.335938 10.332031 5.335938 L 53.472656 5.335938 C 56.226562 5.335938 58.472656 7.578125 58.472656 10.335938 L 58.472656 27.25 L 61.136719 27.25 L 61.136719 10.335938 C 61.136719 6.105469 57.699219 2.667969 53.472656 2.667969 L 10.332031 2.667969 C 6.105469 2.667969 2.667969 6.105469 2.667969 10.335938 L 2.667969 53.472656 C 2.667969 57.699219 6.105469 61.136719 10.332031 61.136719 L 36.550781 61.136719 L 36.550781 58.472656 L 10.332031 58.472656 C 7.578125 58.472656 5.332031 56.226562 5.332031 53.472656 Z M 55.136719 13.574219 L 54.960938 12.808594 L 53.660156 12.808594 L 53.660156 18.746094 L 55.253906 18.746094 L 55.253906 14.410156 C 55.585938 14.226562 55.9375 14.132812 56.3125 14.132812 C 56.503906 14.132812 56.710938 14.152344 56.925781 14.191406 L 56.925781 12.785156 C 56.804688 12.761719 56.679688 12.75 56.554688 12.75 C 56.300781 12.75 56.054688 12.816406 55.828125 12.945312 C 55.597656 13.078125 55.367188 13.289062 55.136719 13.574219 Z M 51.21875 14.910156 C 51.21875 14.492188 51.164062 14.191406 51.054688 14.011719 C 50.949219 13.828125 50.777344 13.738281 50.542969 13.738281 C 49.984375 13.738281 49.691406 14.21875 49.660156 15.179688 L 51.21875 15.179688 Z M 52.449219 16.179688 L 49.660156 16.179688 C 49.683594 16.738281 49.800781 17.132812 50.007812 17.363281 C 50.21875 17.597656 50.558594 17.714844 51.03125 17.714844 C 51.210938 17.714844 51.429688 17.683594 51.691406 17.625 C 51.949219 17.566406 52.207031 17.492188 52.460938 17.398438 L 52.460938 18.457031 C 52.246094 18.597656 51.976562 18.707031 51.660156 18.78125 C 51.34375 18.859375 51.023438 18.898438 50.707031 18.898438 C 49.046875 18.898438 48.21875 17.859375 48.21875 15.785156 C 48.21875 14.769531 48.421875 13.992188 48.828125 13.457031 C 49.238281 12.921875 49.820312 12.65625 50.589844 12.65625 C 51.90625 12.65625 52.566406 13.460938 52.566406 15.074219 C 52.566406 15.476562 52.527344 15.84375 52.449219 16.179688 Z M 44.371094 12.808594 L 42.6875 12.808594 L 44.476562 18.746094 L 45.976562 18.746094 L 47.753906 12.808594 L 46.117188 12.808594 L 45.230469 17.039062 Z M 40.347656 13.574219 L 40.175781 12.808594 L 38.871094 12.808594 L 38.871094 18.746094 L 40.464844 18.746094 L 40.464844 14.410156 C 40.796875 14.226562 41.152344 14.132812 41.523438 14.132812 C 41.71875 14.132812 41.921875 14.152344 42.140625 14.191406 L 42.140625 12.785156 C 42.015625 12.761719 41.890625 12.75 41.765625 12.75 C 41.511719 12.75 41.269531 12.816406 41.039062 12.945312 C 40.8125 13.078125 40.582031 13.289062 40.347656 13.574219 Z M 34.871094 15.179688 L 36.429688 15.179688 L 36.429688 14.910156 C 36.429688 14.492188 36.375 14.191406 36.265625 14.011719 C 36.160156 13.828125 35.988281 13.738281 35.757812 13.738281 C 35.199219 13.738281 34.90625 14.21875 34.871094 15.179688 Z M 37.675781 18.457031 C 37.457031 18.597656 37.191406 18.707031 36.871094 18.78125 C 36.554688 18.859375 36.238281 18.898438 35.921875 18.898438 C 34.261719 18.898438 33.429688 17.859375 33.429688 15.785156 C 33.429688 14.769531 33.636719 13.992188 34.039062 13.457031 C 34.449219 12.921875 35.035156 12.65625 35.804688 12.65625 C 37.121094 12.65625 37.78125 13.460938 37.78125 15.074219 C 37.78125 15.476562 37.742188 15.84375 37.664062 16.179688 L 34.871094 16.179688 C 34.898438 16.738281 35.015625 17.132812 35.222656 17.363281 C 35.429688 17.597656 35.769531 17.714844 36.246094 17.714844 C 36.421875 17.714844 36.640625 17.683594 36.902344 17.625 C 37.164062 17.566406 37.417969 17.492188 37.675781 17.398438 Z M 29.804688 17.621094 C 29.546875 17.621094 29.242188 17.582031 28.878906 17.507812 C 28.519531 17.4375 28.195312 17.34375 27.910156 17.234375 L 27.910156 18.457031 C 28.15625 18.597656 28.464844 18.707031 28.828125 18.792969 C 29.191406 18.878906 29.554688 18.921875 29.921875 18.921875 C 30.757812 18.921875 31.414062 18.707031 31.890625 18.277344 C 32.367188 17.847656 32.605469 17.261719 32.605469 16.527344 C 32.605469 16.148438 32.550781 15.824219 32.4375 15.558594 C 32.324219 15.289062 32.148438 15.046875 31.914062 14.828125 C 31.679688 14.613281 31.359375 14.394531 30.957031 14.179688 L 30.324219 13.839844 C 29.984375 13.65625 29.753906 13.484375 29.636719 13.328125 C 29.515625 13.175781 29.457031 12.976562 29.457031 12.738281 C 29.457031 12.449219 29.546875 12.226562 29.734375 12.0625 C 29.921875 11.898438 30.175781 11.820312 30.503906 11.820312 C 30.980469 11.820312 31.535156 11.933594 32.164062 12.167969 L 32.164062 10.933594 C 31.558594 10.65625 30.953125 10.515625 30.339844 10.515625 C 29.851562 10.515625 29.417969 10.613281 29.039062 10.800781 C 28.667969 10.992188 28.367188 11.261719 28.152344 11.617188 C 27.933594 11.96875 27.824219 12.378906 27.824219 12.855469 C 27.824219 13.363281 27.953125 13.800781 28.199219 14.15625 C 28.449219 14.511719 28.859375 14.84375 29.429688 15.15625 L 30.058594 15.492188 C 30.375 15.664062 30.601562 15.832031 30.742188 15.996094 C 30.875 16.164062 30.945312 16.367188 30.945312 16.609375 C 30.945312 16.933594 30.847656 17.183594 30.652344 17.359375 C 30.460938 17.53125 30.175781 17.621094 29.804688 17.621094 Z M 20.480469 10.691406 L 20.480469 18.746094 L 24.851562 18.746094 L 24.851562 17.457031 L 22.109375 17.457031 L 22.109375 10.691406 Z M 17.433594 14.714844 C 17.433594 13.738281 17.308594 13.011719 17.050781 12.539062 C 16.796875 12.066406 16.402344 11.832031 15.875 11.832031 C 15.351562 11.832031 14.960938 12.066406 14.703125 12.539062 C 14.445312 13.011719 14.316406 13.738281 14.316406 14.714844 C 14.316406 15.667969 14.449219 16.386719 14.710938 16.875 C 14.976562 17.363281 15.367188 17.609375 15.875 17.609375 C 16.390625 17.609375 16.777344 17.363281 17.039062 16.875 C 17.300781 16.386719 17.433594 15.667969 17.433594 14.714844 Z M 17.050781 18.722656 C 17.292969 18.917969 17.558594 19.070312 17.851562 19.175781 C 18.144531 19.285156 18.507812 19.363281 18.933594 19.410156 L 18.933594 20.734375 C 18.320312 20.640625 17.734375 20.4375 17.167969 20.121094 C 16.601562 19.800781 16.117188 19.402344 15.714844 18.921875 C 14.738281 18.882812 13.980469 18.496094 13.445312 17.765625 C 12.914062 17.03125 12.644531 16.015625 12.644531 14.714844 C 12.644531 13.378906 12.925781 12.347656 13.492188 11.617188 C 14.058594 10.882812 14.855469 10.515625 15.875 10.515625 C 16.902344 10.515625 17.695312 10.882812 18.257812 11.617188 C 18.824219 12.347656 19.109375 13.378906 19.109375 14.714844 C 19.109375 15.753906 18.933594 16.617188 18.578125 17.304688 C 18.226562 17.996094 17.71875 18.46875 17.050781 18.722656 Z M 9.703125 17.359375 C 9.898438 17.183594 9.992188 16.933594 9.992188 16.609375 C 9.992188 16.367188 9.925781 16.164062 9.792969 15.996094 C 9.652344 15.832031 9.425781 15.664062 9.109375 15.492188 L 8.480469 15.15625 C 7.910156 14.84375 7.496094 14.511719 7.25 14.15625 C 7.003906 13.800781 6.875 13.363281 6.875 12.855469 C 6.875 12.378906 6.984375 11.96875 7.203125 11.617188 C 7.421875 11.261719 7.71875 10.992188 8.089844 10.800781 C 8.46875 10.613281 8.902344 10.515625 9.390625 10.515625 C 10.003906 10.515625 10.609375 10.65625 11.214844 10.933594 L 11.214844 12.167969 C 10.585938 11.933594 10.03125 11.820312 9.554688 11.820312 C 9.226562 11.820312 8.972656 11.898438 8.785156 12.0625 C 8.597656 12.226562 8.507812 12.449219 8.507812 12.738281 C 8.507812 12.976562 8.566406 13.175781 8.6875 13.328125 C 8.804688 13.484375 9.035156 13.65625 9.375 13.839844 L 10.007812 14.179688 C 10.410156 14.394531 10.730469 14.613281 10.964844 14.828125 C 11.199219 15.046875 11.375 15.289062 11.488281 15.558594 C 11.601562 15.824219 11.65625 16.148438 11.65625 16.527344 C 11.65625 17.261719 11.417969 17.847656 10.941406 18.277344 C 10.464844 18.707031 9.808594 18.921875 8.972656 18.921875 C 8.605469 18.921875 8.242188 18.878906 7.875 18.792969 C 7.515625 18.707031 7.207031 18.597656 6.960938 18.457031 L 6.960938 17.234375 C 7.246094 17.34375 7.570312 17.4375 7.929688 17.507812 C 8.292969 17.582031 8.597656 17.621094 8.855469 17.621094 C 9.226562 17.621094 9.507812 17.53125 9.703125 17.359375 Z M 9.703125 17.359375 "/>
</svg>
