<?xml version="1.0" encoding="UTF-8"?>
<svg xmlns="http://www.w3.org/2000/svg" xmlns:xlink="http://www.w3.org/1999/xlink" width="64" height="64" viewBox="0 0 64 64">
<path fill-rule="evenodd" fill="rgb(78.823531%, 14.509805%, 81.960785%)" fill-opacity="1" d="M 28.320312 33.84375 C 27.988281 33.84375 27.585938 33.796875 27.117188 33.699219 C 26.648438 33.605469 26.226562 33.484375 25.855469 33.34375 L 25.855469 34.933594 C 26.175781 35.113281 26.574219 35.257812 27.046875 35.371094 C 27.523438 35.480469 27.996094 35.539062 28.46875 35.539062 C 29.5625 35.539062 30.414062 35.257812 31.035156 34.699219 C 31.65625 34.140625 31.964844 33.378906 31.964844 32.421875 C 31.964844 31.925781 31.890625 31.507812 31.746094 31.160156 C 31.597656 30.8125 31.371094 30.496094 31.066406 30.214844 C 30.757812 29.929688 30.34375 29.648438 29.816406 29.367188 L 29 28.925781 C 28.558594 28.6875 28.257812 28.464844 28.097656 28.261719 C 27.945312 28.058594 27.863281 27.800781 27.863281 27.488281 C 27.863281 27.117188 27.988281 26.824219 28.230469 26.613281 C 28.46875 26.402344 28.804688 26.292969 29.226562 26.292969 C 29.851562 26.292969 30.574219 26.445312 31.390625 26.75 L 31.390625 25.144531 C 30.605469 24.78125 29.8125 24.601562 29.015625 24.601562 C 28.378906 24.601562 27.816406 24.722656 27.328125 24.972656 C 26.839844 25.21875 26.453125 25.570312 26.171875 26.03125 C 25.890625 26.488281 25.746094 27.027344 25.746094 27.640625 C 25.746094 28.308594 25.90625 28.871094 26.230469 29.335938 C 26.554688 29.800781 27.089844 30.234375 27.835938 30.636719 L 28.652344 31.074219 C 29.066406 31.296875 29.359375 31.515625 29.535156 31.734375 C 29.710938 31.949219 29.800781 32.214844 29.800781 32.527344 C 29.800781 32.953125 29.675781 33.277344 29.421875 33.503906 C 29.171875 33.730469 28.804688 33.84375 28.320312 33.84375 Z M 22.359375 29.910156 C 22.359375 28.722656 22.199219 27.847656 21.882812 27.285156 C 21.566406 26.726562 21.070312 26.445312 20.394531 26.445312 L 19.515625 26.445312 L 19.515625 33.691406 L 20.40625 33.691406 C 21.0625 33.691406 21.550781 33.40625 21.875 32.839844 C 22.195312 32.265625 22.359375 31.390625 22.359375 30.214844 Z M 23.523438 26.160156 C 24.199219 27.046875 24.535156 28.347656 24.535156 30.0625 C 24.535156 31.785156 24.203125 33.09375 23.539062 33.980469 C 22.871094 34.867188 21.90625 35.3125 20.632812 35.3125 L 17.398438 35.3125 L 17.398438 24.828125 L 20.558594 24.828125 C 21.859375 24.828125 22.847656 25.273438 23.523438 26.160156 Z M 13.601562 28.125 C 13.601562 27.5625 13.496094 27.132812 13.292969 26.839844 C 13.082031 26.546875 12.785156 26.402344 12.390625 26.402344 L 11.40625 26.402344 L 11.40625 29.851562 L 12.390625 29.851562 C 12.785156 29.851562 13.082031 29.703125 13.292969 29.410156 C 13.496094 29.117188 13.601562 28.691406 13.601562 28.125 Z M 14.117188 31.105469 L 16.234375 35.3125 L 14.054688 35.3125 L 12.226562 31.421875 L 11.40625 31.421875 L 11.40625 35.3125 L 9.335938 35.3125 L 9.335938 24.828125 L 12.648438 24.828125 C 13.574219 24.828125 14.3125 25.121094 14.863281 25.714844 C 15.414062 26.300781 15.6875 27.105469 15.6875 28.125 C 15.6875 28.832031 15.550781 29.441406 15.28125 29.957031 C 15.007812 30.46875 14.621094 30.855469 14.117188 31.105469 Z M 55.457031 20.183594 L 55.457031 14.511719 C 55.457031 13.773438 55.304688 13.214844 54.996094 12.832031 C 54.6875 12.449219 54.242188 12.257812 53.65625 12.257812 C 52.921875 12.257812 52.148438 12.554688 51.34375 13.148438 L 51.175781 12.453125 L 49.480469 12.453125 L 49.480469 20.183594 L 51.554688 20.183594 L 51.554688 14.191406 C 51.925781 13.949219 52.269531 13.828125 52.582031 13.828125 C 52.875 13.828125 53.082031 13.929688 53.203125 14.132812 C 53.324219 14.335938 53.382812 14.65625 53.382812 15.101562 L 53.382812 20.183594 Z M 45.957031 16.328125 C 45.957031 15.46875 45.875 14.839844 45.707031 14.433594 C 45.542969 14.03125 45.269531 13.828125 44.898438 13.828125 C 44.527344 13.828125 44.253906 14.03125 44.089844 14.433594 C 43.921875 14.839844 43.839844 15.46875 43.839844 16.328125 C 43.839844 17.183594 43.921875 17.8125 44.089844 18.210938 C 44.253906 18.609375 44.527344 18.808594 44.898438 18.808594 C 45.269531 18.808594 45.542969 18.609375 45.707031 18.210938 C 45.875 17.8125 45.957031 17.183594 45.957031 16.328125 Z M 47.214844 13.316406 C 47.757812 14.019531 48.03125 15.023438 48.03125 16.328125 C 48.03125 17.617188 47.757812 18.613281 47.214844 19.320312 C 46.671875 20.027344 45.898438 20.378906 44.898438 20.378906 C 43.902344 20.378906 43.128906 20.027344 42.582031 19.320312 C 42.039062 18.613281 41.765625 17.617188 41.765625 16.328125 C 41.765625 15.023438 42.039062 14.019531 42.582031 13.316406 C 43.128906 12.609375 43.902344 12.257812 44.898438 12.257812 C 45.898438 12.257812 46.671875 12.609375 47.214844 13.316406 Z M 35.460938 20.183594 L 40.828125 20.183594 L 40.828125 18.59375 L 37.636719 18.59375 L 40.769531 13.921875 L 40.769531 12.453125 L 35.578125 12.453125 L 35.578125 14.042969 L 38.589844 14.042969 L 35.460938 18.714844 Z M 32.3125 18.445312 L 32.3125 16.960938 C 32.089844 16.890625 31.828125 16.855469 31.523438 16.855469 C 31.234375 16.855469 31.007812 16.949219 30.851562 17.136719 C 30.695312 17.320312 30.617188 17.59375 30.617188 17.945312 C 30.617188 18.246094 30.679688 18.488281 30.808594 18.664062 C 30.933594 18.839844 31.101562 18.925781 31.3125 18.925781 C 31.648438 18.925781 31.980469 18.765625 32.3125 18.445312 Z M 31.691406 20.132812 C 31.367188 20.296875 31.042969 20.378906 30.707031 20.378906 C 30.082031 20.378906 29.589844 20.175781 29.226562 19.765625 C 28.863281 19.359375 28.679688 18.796875 28.679688 18.082031 C 28.679688 17.324219 28.902344 16.726562 29.347656 16.289062 C 29.792969 15.847656 30.390625 15.628906 31.148438 15.628906 C 31.460938 15.628906 31.847656 15.691406 32.3125 15.8125 L 32.3125 15.117188 C 32.3125 14.589844 32.242188 14.234375 32.109375 14.050781 C 31.972656 13.863281 31.71875 13.769531 31.34375 13.769531 C 30.738281 13.769531 29.996094 13.929688 29.121094 14.253906 L 29.121094 12.875 C 29.414062 12.683594 29.796875 12.535156 30.269531 12.421875 C 30.742188 12.3125 31.230469 12.257812 31.722656 12.257812 C 32.597656 12.257812 33.234375 12.457031 33.628906 12.855469 C 34.023438 13.253906 34.21875 13.890625 34.21875 14.769531 L 34.21875 20.183594 L 32.617188 20.183594 L 32.433594 19.488281 C 32.261719 19.75 32.015625 19.964844 31.691406 20.132812 Z M 27.214844 20.183594 L 27.214844 14.511719 C 27.214844 13.785156 27.0625 13.226562 26.761719 12.839844 C 26.457031 12.449219 26.023438 12.257812 25.460938 12.257812 C 24.753906 12.257812 23.988281 12.5625 23.160156 13.179688 C 22.867188 12.5625 22.363281 12.257812 21.648438 12.257812 C 20.941406 12.257812 20.183594 12.554688 19.378906 13.148438 L 19.210938 12.453125 L 17.515625 12.453125 L 17.515625 20.183594 L 19.589844 20.183594 L 19.589844 14.191406 C 19.960938 13.949219 20.292969 13.828125 20.574219 13.828125 C 20.847656 13.828125 21.039062 13.929688 21.15625 14.132812 C 21.273438 14.335938 21.328125 14.652344 21.328125 15.085938 L 21.328125 20.183594 L 23.402344 20.183594 L 23.402344 14.359375 C 23.402344 14.296875 23.398438 14.242188 23.386719 14.191406 C 23.761719 13.949219 24.09375 13.828125 24.386719 13.828125 C 24.65625 13.828125 24.851562 13.929688 24.96875 14.132812 C 25.082031 14.335938 25.140625 14.652344 25.140625 15.085938 L 25.140625 20.183594 Z M 13.34375 16.175781 L 12.390625 11.832031 L 11.46875 16.175781 Z M 16.535156 20.183594 L 14.207031 20.183594 L 13.660156 17.6875 L 11.148438 17.6875 L 10.621094 20.183594 L 8.398438 20.183594 L 11.300781 9.699219 L 13.644531 9.699219 Z M 58.671875 40.007812 L 58.671875 35.292969 C 56.363281 36.550781 52.863281 37.203125 49.382812 37.203125 C 45.898438 37.203125 42.402344 36.550781 40.09375 35.292969 L 40.09375 40.007812 C 40.09375 40.847656 43.253906 42.8125 49.382812 42.8125 C 55.511719 42.8125 58.671875 40.847656 58.671875 40.007812 Z M 58.671875 48.136719 L 58.671875 43.570312 C 56.363281 44.828125 52.863281 45.480469 49.382812 45.480469 C 45.898438 45.480469 42.402344 44.828125 40.09375 43.570312 L 40.09375 48.136719 C 40.09375 48.976562 43.253906 50.941406 49.382812 50.941406 C 55.511719 50.941406 58.671875 48.976562 58.671875 48.136719 Z M 58.671875 55.398438 L 58.671875 51.699219 C 56.363281 52.957031 52.863281 53.609375 49.382812 53.609375 C 45.898438 53.609375 42.402344 52.957031 40.09375 51.699219 L 40.09375 55.398438 C 40.09375 56.234375 43.253906 58.203125 49.382812 58.203125 C 55.511719 58.203125 58.671875 56.234375 58.671875 55.398438 Z M 40.09375 31.730469 C 40.09375 32.570312 43.253906 34.535156 49.382812 34.535156 C 55.511719 34.535156 58.671875 32.570312 58.671875 31.730469 C 58.671875 30.894531 55.511719 28.925781 49.382812 28.925781 C 43.253906 28.925781 40.09375 30.894531 40.09375 31.730469 Z M 61.335938 31.730469 L 61.335938 55.398438 C 61.335938 58.988281 55.320312 60.867188 49.382812 60.867188 C 43.441406 60.867188 37.429688 58.988281 37.429688 55.398438 L 37.429688 31.730469 C 37.429688 28.140625 43.441406 26.261719 49.382812 26.261719 C 55.320312 26.261719 61.335938 28.140625 61.335938 31.730469 Z M 10.339844 58.523438 L 36.582031 58.523438 L 36.582031 61.1875 L 10.339844 61.1875 C 6.109375 61.1875 2.667969 57.746094 2.667969 53.515625 L 2.667969 10.339844 C 2.667969 6.109375 6.109375 2.667969 10.339844 2.667969 L 53.515625 2.667969 C 57.746094 2.667969 61.1875 6.109375 61.1875 10.339844 L 61.1875 27.273438 L 58.523438 27.273438 L 58.523438 10.339844 C 58.523438 7.578125 56.277344 5.332031 53.515625 5.332031 L 10.339844 5.332031 C 7.578125 5.332031 5.335938 7.578125 5.335938 10.339844 L 5.335938 53.515625 C 5.335938 56.277344 7.578125 58.523438 10.339844 58.523438 Z M 10.339844 58.523438 "/>
</svg>
