<?xml version="1.0" encoding="UTF-8"?>
<svg xmlns="http://www.w3.org/2000/svg" xmlns:xlink="http://www.w3.org/1999/xlink" width="64" height="64" viewBox="0 0 64 64">
<path fill-rule="evenodd" fill="rgb(78.823531%, 14.509805%, 81.960785%)" fill-opacity="1" d="M 47.800781 32.433594 L 42.742188 37.492188 L 40.859375 35.605469 L 46.859375 29.605469 C 47.378906 29.085938 48.222656 29.085938 48.742188 29.605469 L 54.742188 35.605469 L 52.859375 37.492188 Z M 40.859375 42.273438 L 46.859375 36.273438 C 47.378906 35.753906 48.222656 35.753906 48.742188 36.273438 L 54.742188 42.273438 L 52.859375 44.160156 L 47.800781 39.101562 L 42.742188 44.160156 Z M 37.082031 37.410156 L 33.246094 41.246094 L 31.359375 39.359375 L 32.890625 37.828125 L 21.355469 37.828125 L 21.355469 35.160156 L 32.945312 35.160156 L 31.359375 33.574219 L 33.246094 31.6875 L 37.082031 35.523438 C 37.332031 35.773438 37.472656 36.113281 37.472656 36.464844 C 37.472656 36.820312 37.332031 37.160156 37.082031 37.410156 Z M 47.707031 20.789062 C 41.503906 20.789062 37.339844 18.863281 37.339844 17.0625 C 37.339844 15.261719 41.503906 13.332031 47.707031 13.332031 C 54.535156 13.332031 58.726562 15.503906 58.726562 17.0625 C 58.726562 18.617188 54.535156 20.789062 47.707031 20.789062 Z M 61.394531 17.0625 C 61.394531 12.863281 54.507812 10.667969 47.707031 10.667969 C 39.910156 10.667969 34.671875 13.238281 34.671875 17.0625 C 34.671875 17.164062 34.691406 17.261719 34.699219 17.363281 L 34.691406 17.363281 L 34.691406 28.492188 L 37.355469 28.492188 L 37.355469 21.183594 C 39.640625 22.613281 43.253906 23.457031 47.707031 23.457031 C 51.875 23.457031 56.0625 22.628906 58.691406 21.023438 L 58.691406 48.070312 C 58.691406 49.578125 54.777344 51.765625 47.699219 51.765625 C 41.3125 51.765625 37.355469 49.847656 37.355469 48.070312 L 37.355469 44.492188 L 34.691406 44.492188 L 34.691406 48.070312 C 34.691406 51.875 39.917969 54.433594 47.699219 54.433594 C 54.277344 54.433594 61.355469 52.441406 61.355469 48.070312 L 61.355469 17.425781 C 61.367188 17.304688 61.394531 17.1875 61.394531 17.0625 Z M 16.347656 13.332031 C 22.546875 13.332031 26.710938 15.261719 26.710938 17.0625 C 26.710938 18.863281 22.546875 20.789062 16.347656 20.789062 C 9.523438 20.789062 5.332031 18.617188 5.332031 17.0625 C 5.332031 15.503906 9.523438 13.332031 16.347656 13.332031 Z M 26.691406 48.070312 C 26.691406 49.847656 22.734375 51.765625 16.347656 51.765625 C 9.269531 51.765625 5.355469 49.578125 5.355469 48.070312 L 5.355469 41.984375 C 8.027344 43.628906 12.347656 44.402344 16.472656 44.402344 L 16.472656 41.734375 C 9.613281 41.734375 5.402344 39.578125 5.402344 38.035156 L 5.355469 38.035156 L 5.355469 31.898438 C 8.027344 33.542969 12.347656 34.316406 16.472656 34.316406 L 16.472656 31.648438 C 9.613281 31.648438 5.402344 29.492188 5.402344 27.949219 L 5.355469 27.949219 L 5.355469 21.015625 C 7.980469 22.625 12.175781 23.457031 16.347656 23.457031 C 20.796875 23.457031 24.40625 22.617188 26.691406 21.183594 L 26.691406 28.492188 L 29.355469 28.492188 L 29.355469 17.445312 L 29.34375 17.445312 C 29.355469 17.316406 29.375 17.191406 29.375 17.0625 C 29.375 13.238281 24.140625 10.667969 16.347656 10.667969 C 9.546875 10.667969 2.667969 12.863281 2.667969 17.0625 C 2.667969 17.140625 2.683594 17.210938 2.691406 17.289062 L 2.691406 48.070312 C 2.691406 52.441406 9.769531 54.433594 16.347656 54.433594 C 24.128906 54.433594 29.355469 51.875 29.355469 48.070312 L 29.355469 44.492188 L 26.691406 44.492188 Z M 26.691406 48.070312 "/>
</svg>
