<?xml version="1.0" encoding="UTF-8"?>
<svg xmlns="http://www.w3.org/2000/svg" xmlns:xlink="http://www.w3.org/1999/xlink" width="64" height="64" viewBox="0 0 64 64">
<path fill-rule="evenodd" fill="rgb(78.823529%, 14.509804%, 81.960784%)" fill-opacity="1" d="M 31.859375 19.542969 C 24.492188 19.542969 16.605469 21.363281 16.054688 25.332031 L 16 25.332031 L 16 53.320312 C 16 57.410156 24.050781 59.550781 32.003906 59.550781 C 39.953125 59.550781 48 57.410156 48 53.320312 L 48 25.332031 L 47.945312 25.332031 C 47.375 21.535156 39.582031 19.542969 31.859375 19.542969 Z M 31.859375 22.210938 C 40.75 22.210938 45.332031 24.707031 45.332031 25.773438 C 45.332031 26.839844 40.75 29.339844 31.859375 29.339844 C 23.324219 29.339844 18.667969 26.984375 18.667969 25.773438 C 18.667969 24.566406 23.324219 22.210938 31.859375 22.210938 Z M 41.683594 40.019531 C 43.164062 39.617188 44.371094 39.148438 45.332031 38.621094 L 45.332031 44.484375 C 45.332031 44.71875 44.59375 45.796875 40.980469 46.78125 L 41.683594 49.355469 C 43.164062 48.953125 44.371094 48.484375 45.332031 47.957031 L 45.332031 53.320312 C 45.332031 54.574219 40.273438 56.882812 32.003906 56.882812 C 23.730469 56.882812 18.667969 54.574219 18.667969 53.320312 L 18.667969 47.96875 C 19.628906 48.496094 20.835938 48.964844 22.316406 49.367188 L 23.019531 46.796875 C 19.40625 45.808594 18.667969 44.722656 18.667969 44.484375 L 18.667969 38.632812 C 19.628906 39.160156 20.835938 39.628906 22.316406 40.03125 L 23.019531 37.460938 C 19.40625 36.472656 18.667969 35.386719 18.667969 35.152344 L 18.667969 29.429688 C 21.707031 31.175781 26.898438 32.003906 31.859375 32.003906 C 37.0625 32.003906 42.289062 31.097656 45.332031 29.351562 L 45.332031 35.152344 C 45.332031 35.386719 44.59375 36.460938 40.980469 37.449219 Z M 28.445312 18.667969 L 28.445312 13.332031 L 24.445312 13.332031 L 24.445312 18.667969 L 21.777344 18.667969 L 21.777344 12 C 21.777344 11.261719 22.375 10.667969 23.109375 10.667969 L 29.777344 10.667969 C 30.515625 10.667969 31.109375 11.261719 31.109375 12 L 31.109375 18.667969 Z M 39.554688 18.667969 L 39.554688 13.332031 L 35.554688 13.332031 L 35.554688 18.667969 L 32.890625 18.667969 L 32.890625 12 C 32.890625 11.261719 33.484375 10.667969 34.222656 10.667969 L 40.890625 10.667969 C 41.625 10.667969 42.222656 11.261719 42.222656 12 L 42.222656 18.667969 Z M 50.667969 28 L 50.667969 13.332031 L 46.667969 13.332031 L 46.667969 20 L 44 20 L 44 12 C 44 11.261719 44.597656 10.667969 45.332031 10.667969 L 52 10.667969 C 52.738281 10.667969 53.332031 11.261719 53.332031 12 L 53.332031 29.332031 C 53.332031 30.070312 52.738281 30.667969 52 30.667969 L 49.332031 30.667969 L 49.332031 28 Z M 13.332031 28 L 14.667969 28 L 14.667969 30.667969 L 12 30.667969 C 11.261719 30.667969 10.667969 30.070312 10.667969 29.332031 L 10.667969 12 C 10.667969 11.261719 11.261719 10.667969 12 10.667969 L 18.667969 10.667969 C 19.402344 10.667969 20 11.261719 20 12 L 20 20 L 17.332031 20 L 17.332031 13.332031 L 13.332031 13.332031 Z M 58 15.332031 C 58 16.4375 58.898438 17.332031 60 17.332031 C 60.738281 17.332031 61.332031 17.929688 61.332031 18.667969 L 61.332031 40 C 61.332031 40.738281 60.738281 41.332031 60 41.332031 L 49.332031 41.332031 L 49.332031 38.667969 L 54.667969 38.667969 L 54.667969 36 L 49.332031 36 L 49.332031 33.332031 L 56 33.332031 C 56.738281 33.332031 57.332031 33.929688 57.332031 34.667969 L 57.332031 38.667969 L 58.667969 38.667969 L 58.667969 19.804688 C 56.742188 19.230469 55.332031 17.441406 55.332031 15.332031 C 55.332031 13.222656 56.742188 11.433594 58.667969 10.859375 L 58.667969 8 L 5.332031 8 L 5.332031 10.859375 C 7.257812 11.433594 8.667969 13.222656 8.667969 15.332031 C 8.667969 17.441406 7.257812 19.230469 5.332031 19.804688 L 5.332031 38.667969 L 6.667969 38.667969 L 6.667969 34.667969 C 6.667969 33.929688 7.261719 33.332031 8 33.332031 L 14.667969 33.332031 L 14.667969 36 L 9.332031 36 L 9.332031 38.667969 L 14.667969 38.667969 L 14.667969 41.332031 L 4 41.332031 C 3.261719 41.332031 2.667969 40.738281 2.667969 40 L 2.667969 18.667969 C 2.667969 17.929688 3.261719 17.332031 4 17.332031 C 5.101562 17.332031 6 16.4375 6 15.332031 C 6 14.230469 5.101562 13.332031 4 13.332031 C 3.261719 13.332031 2.667969 12.738281 2.667969 12 L 2.667969 6.667969 C 2.667969 5.929688 3.261719 5.332031 4 5.332031 L 60 5.332031 C 60.738281 5.332031 61.332031 5.929688 61.332031 6.667969 L 61.332031 12 C 61.332031 12.738281 60.738281 13.332031 60 13.332031 C 58.898438 13.332031 58 14.230469 58 15.332031 Z M 39.332031 36.265625 L 39.332031 36.792969 L 33.765625 51.472656 C 33.765625 51.867188 33.359375 52 33.085938 52 L 30.914062 52 C 30.507812 52 30.371094 51.867188 30.234375 51.472656 L 24.667969 36.792969 L 24.667969 36.265625 C 24.667969 36 24.800781 36 25.074219 36 L 27.109375 36 C 27.382812 36 27.652344 36.132812 27.789062 36.398438 L 32 49.089844 L 36.210938 36.398438 C 36.210938 36.132812 36.480469 36 36.890625 36 L 38.925781 36 C 39.199219 36 39.332031 36 39.332031 36.265625 Z M 39.332031 36.265625 "/>
</svg>
