<?xml version="1.0" encoding="UTF-8"?>
<svg xmlns="http://www.w3.org/2000/svg" xmlns:xlink="http://www.w3.org/1999/xlink" width="64" height="64" viewBox="0 0 64 64">
<path fill-rule="evenodd" fill="rgb(78.823531%, 14.509805%, 81.960785%)" fill-opacity="1" d="M 50.921875 40.59375 C 45.476562 40.59375 42.667969 39.054688 42.667969 38.394531 L 42.667969 34.945312 C 44.929688 35.878906 47.96875 36.257812 50.617188 36.257812 C 54.027344 36.257812 56.792969 35.71875 58.667969 34.777344 L 58.667969 38.394531 C 58.667969 39.164062 56.003906 40.59375 50.921875 40.59375 Z M 50.921875 21.664062 C 56.078125 21.664062 58.667969 23.171875 58.667969 24.019531 C 58.667969 24.867188 56.078125 26.378906 50.921875 26.378906 C 45.476562 26.378906 42.667969 24.726562 42.667969 24.019531 C 42.667969 23.316406 45.476562 21.664062 50.921875 21.664062 Z M 42.667969 27.453125 C 44.800781 28.53125 47.925781 29.042969 50.921875 29.042969 C 54.15625 29.042969 56.835938 28.496094 58.667969 27.550781 L 58.667969 31.296875 C 58.660156 32.121094 55.972656 33.589844 50.617188 33.589844 C 46.820312 33.589844 43.921875 32.816406 42.667969 31.972656 Z M 16.324219 51.175781 C 9.183594 51.175781 5.335938 49.257812 5.335938 47.449219 L 5.335938 41.382812 C 8.117188 42.988281 12.675781 43.746094 17.023438 43.746094 C 21.785156 43.746094 25.617188 42.929688 28 41.519531 L 28 47.449219 C 28 49.011719 23.945312 51.175781 16.324219 51.175781 Z M 17.027344 12.933594 C 24.113281 12.933594 28.035156 14.984375 28.035156 16.398438 C 28.035156 16.421875 28.023438 16.441406 28.023438 16.460938 L 28 16.460938 L 28 16.59375 C 27.667969 17.996094 23.796875 19.867188 17.027344 19.867188 C 9.890625 19.867188 5.335938 17.8125 5.335938 16.398438 C 5.335938 14.988281 9.890625 12.933594 17.027344 12.933594 Z M 5.335938 26.6875 L 5.335938 20.15625 C 8.117188 21.769531 12.675781 22.53125 17.027344 22.53125 C 21.777344 22.53125 25.613281 21.695312 28 20.28125 L 28 26.878906 C 27.699219 28.234375 24.117188 30.148438 17.023438 30.148438 C 9.898438 30.148438 5.347656 28.101562 5.335938 26.6875 Z M 17.023438 32.816406 C 21.792969 32.816406 25.617188 31.992188 28 30.582031 L 28 37.839844 C 27.691406 39.183594 24.097656 41.078125 17.023438 41.078125 C 9.898438 41.078125 5.347656 39.050781 5.335938 37.648438 L 5.335938 30.441406 C 8.117188 32.054688 12.675781 32.816406 17.023438 32.816406 Z M 61.335938 31.292969 L 61.335938 24.460938 L 61.292969 24.460938 C 61.316406 24.316406 61.335938 24.171875 61.335938 24.019531 C 61.335938 21.015625 57.148438 18.996094 50.921875 18.996094 C 45.660156 18.996094 40 20.566406 40 24.019531 C 40 24.171875 40.023438 24.316406 40.046875 24.460938 L 40 24.460938 L 40 29.386719 L 30.667969 29.386719 L 30.667969 27.117188 C 30.671875 27.09375 30.679688 27.070312 30.679688 27.050781 L 30.667969 27.046875 L 30.667969 16.742188 C 30.679688 16.628906 30.699219 16.515625 30.699219 16.398438 C 30.699219 12.730469 25.207031 10.265625 17.027344 10.265625 C 10.113281 10.265625 2.667969 12.1875 2.667969 16.398438 C 2.667969 16.421875 2.671875 16.441406 2.675781 16.460938 L 2.667969 16.460938 L 2.667969 26.683594 C 2.667969 26.6875 2.667969 26.691406 2.667969 26.695312 L 2.667969 37.640625 C 2.667969 37.644531 2.667969 37.648438 2.667969 37.652344 L 2.667969 47.449219 C 2.667969 51.390625 7.898438 53.839844 16.324219 53.839844 C 24.902344 53.839844 30.667969 51.273438 30.667969 47.449219 L 30.667969 38.089844 C 30.667969 38.074219 30.671875 38.0625 30.675781 38.050781 L 30.667969 38.050781 L 30.667969 32.054688 L 40 32.054688 L 40 38.394531 C 40 41.757812 45.484375 43.261719 50.921875 43.261719 C 57.246094 43.261719 61.335938 41.351562 61.335938 38.394531 L 61.335938 31.308594 C 61.335938 31.300781 61.335938 31.296875 61.335938 31.292969 Z M 61.335938 31.292969 "/>
</svg>
