<?xml version="1.0" encoding="UTF-8"?>
<svg xmlns="http://www.w3.org/2000/svg" xmlns:xlink="http://www.w3.org/1999/xlink" width="64" height="64" viewBox="0 0 64 64">
<path fill-rule="evenodd" fill="rgb(78.823531%, 14.509805%, 81.960785%)" fill-opacity="1" d="M 53.582031 19.148438 C 53.382812 19.402344 53.097656 19.527344 52.730469 19.527344 L 51.5625 19.527344 L 51.5625 16.527344 L 52.613281 16.527344 C 53.019531 16.527344 53.335938 16.660156 53.554688 16.921875 C 53.773438 17.183594 53.882812 17.558594 53.882812 18.042969 C 53.882812 18.527344 53.78125 18.898438 53.582031 19.148438 Z M 51.5625 12.347656 L 52.511719 12.347656 C 52.8125 12.347656 53.050781 12.472656 53.21875 12.722656 C 53.386719 12.96875 53.472656 13.316406 53.472656 13.761719 C 53.472656 14.199219 53.375 14.539062 53.183594 14.78125 C 52.988281 15.023438 52.722656 15.144531 52.382812 15.144531 L 51.5625 15.144531 Z M 54.246094 15.683594 C 54.632812 15.5 54.929688 15.230469 55.132812 14.871094 C 55.335938 14.511719 55.441406 14.078125 55.441406 13.574219 C 55.441406 12.777344 55.179688 12.128906 54.667969 11.636719 C 54.152344 11.140625 53.492188 10.894531 52.6875 10.894531 L 49.644531 10.894531 L 49.644531 20.984375 L 52.773438 20.984375 C 53.714844 20.984375 54.46875 20.726562 55.03125 20.210938 C 55.59375 19.699219 55.875 19.007812 55.875 18.144531 C 55.875 17.523438 55.738281 17.003906 55.460938 16.585938 C 55.183594 16.167969 54.777344 15.871094 54.246094 15.683594 Z M 45.832031 16.078125 C 45.832031 17.214844 45.671875 18.054688 45.363281 18.605469 C 45.050781 19.152344 44.582031 19.425781 43.949219 19.425781 L 43.09375 19.425781 L 43.09375 12.453125 L 43.9375 12.453125 C 44.585938 12.453125 45.066406 12.722656 45.371094 13.261719 C 45.675781 13.796875 45.832031 14.640625 45.832031 15.785156 Z M 44.097656 10.894531 L 41.054688 10.894531 L 41.054688 20.984375 L 44.167969 20.984375 C 45.390625 20.984375 46.324219 20.558594 46.964844 19.703125 C 47.605469 18.847656 47.925781 17.589844 47.925781 15.933594 C 47.925781 14.28125 47.601562 13.03125 46.949219 12.175781 C 46.300781 11.320312 45.347656 10.894531 44.097656 10.894531 Z M 37.398438 19.308594 C 37.078125 19.621094 36.757812 19.777344 36.4375 19.777344 C 36.234375 19.777344 36.070312 19.691406 35.949219 19.519531 C 35.828125 19.351562 35.769531 19.121094 35.769531 18.828125 C 35.769531 18.488281 35.84375 18.230469 35.996094 18.050781 C 36.144531 17.871094 36.359375 17.78125 36.640625 17.78125 C 36.933594 17.78125 37.183594 17.816406 37.398438 17.882812 Z M 36.832031 13.355469 C 36.355469 13.355469 35.890625 13.40625 35.433594 13.511719 C 34.976562 13.621094 34.609375 13.765625 34.328125 13.953125 L 34.328125 15.277344 C 35.171875 14.964844 35.886719 14.8125 36.464844 14.8125 C 36.828125 14.8125 37.070312 14.898438 37.203125 15.078125 C 37.332031 15.257812 37.398438 15.601562 37.398438 16.105469 L 37.398438 16.777344 C 36.953125 16.660156 36.578125 16.601562 36.277344 16.601562 C 35.550781 16.601562 34.972656 16.8125 34.546875 17.234375 C 34.117188 17.65625 33.902344 18.234375 33.902344 18.960938 C 33.902344 19.648438 34.078125 20.1875 34.429688 20.585938 C 34.777344 20.976562 35.253906 21.171875 35.855469 21.171875 C 36.175781 21.171875 36.492188 21.09375 36.800781 20.933594 C 37.113281 20.773438 37.347656 20.566406 37.515625 20.316406 L 37.6875 20.984375 L 39.234375 20.984375 L 39.234375 15.773438 C 39.234375 14.925781 39.042969 14.3125 38.664062 13.929688 C 38.285156 13.546875 37.675781 13.355469 36.832031 13.355469 Z M 30.425781 20.984375 L 32.417969 20.984375 L 32.417969 13.542969 L 30.425781 13.542969 Z M 32.273438 10.421875 C 32.488281 10.621094 32.59375 10.890625 32.59375 11.230469 C 32.59375 11.570312 32.488281 11.839844 32.273438 12.039062 C 32.058594 12.234375 31.777344 12.335938 31.429688 12.335938 C 31.070312 12.335938 30.78125 12.234375 30.570312 12.039062 C 30.355469 11.839844 30.25 11.570312 30.25 11.230469 C 30.25 10.890625 30.355469 10.621094 30.570312 10.421875 C 30.78125 10.222656 31.070312 10.121094 31.429688 10.121094 C 31.777344 10.121094 32.058594 10.222656 32.273438 10.421875 Z M 29.011719 13.46875 C 29.167969 13.46875 29.324219 13.488281 29.480469 13.511719 L 29.480469 15.277344 C 29.207031 15.230469 28.949219 15.203125 28.707031 15.203125 C 28.242188 15.203125 27.796875 15.320312 27.382812 15.554688 L 27.382812 20.984375 L 25.386719 20.984375 L 25.386719 13.542969 L 27.019531 13.542969 L 27.234375 14.503906 C 27.527344 14.144531 27.816406 13.882812 28.105469 13.71875 C 28.386719 13.554688 28.691406 13.46875 29.011719 13.46875 Z M 21.863281 19.308594 C 21.546875 19.621094 21.222656 19.777344 20.902344 19.777344 C 20.699219 19.777344 20.539062 19.691406 20.414062 19.519531 C 20.292969 19.351562 20.234375 19.121094 20.234375 18.828125 C 20.234375 18.488281 20.308594 18.230469 20.460938 18.050781 C 20.609375 17.871094 20.828125 17.78125 21.109375 17.78125 C 21.398438 17.78125 21.652344 17.816406 21.863281 17.882812 Z M 21.296875 13.355469 C 20.820312 13.355469 20.355469 13.40625 19.898438 13.511719 C 19.445312 13.621094 19.074219 13.765625 18.792969 13.953125 L 18.792969 15.277344 C 19.636719 14.964844 20.351562 14.8125 20.933594 14.8125 C 21.292969 14.8125 21.539062 14.898438 21.667969 15.078125 C 21.800781 15.257812 21.863281 15.601562 21.863281 16.105469 L 21.863281 16.777344 C 21.417969 16.660156 21.046875 16.601562 20.742188 16.601562 C 20.015625 16.601562 19.4375 16.8125 19.011719 17.234375 C 18.582031 17.65625 18.371094 18.234375 18.371094 18.960938 C 18.371094 19.648438 18.542969 20.1875 18.894531 20.585938 C 19.242188 20.976562 19.71875 21.171875 20.320312 21.171875 C 20.640625 21.171875 20.957031 21.09375 21.269531 20.933594 C 21.578125 20.773438 21.816406 20.566406 21.980469 20.316406 L 22.15625 20.984375 L 23.699219 20.984375 L 23.699219 15.773438 C 23.699219 14.925781 23.507812 14.3125 23.128906 13.929688 C 22.753906 13.546875 22.140625 13.355469 21.296875 13.355469 Z M 14.527344 10.894531 L 16.796875 10.894531 L 16.796875 20.984375 L 14.976562 20.984375 L 14.976562 13.90625 L 13.273438 18.496094 L 11.542969 18.496094 L 9.851562 13.953125 L 9.851562 20.984375 L 8.035156 20.984375 L 8.035156 10.894531 L 10.363281 10.894531 L 12.445312 16.542969 Z M 58.574219 52.644531 C 58.574219 55.914062 55.914062 58.574219 52.644531 58.574219 L 11.265625 58.574219 C 7.996094 58.574219 5.332031 55.914062 5.332031 52.644531 L 5.332031 11.265625 C 5.332031 7.992188 7.996094 5.332031 11.265625 5.332031 L 52.644531 5.332031 C 55.914062 5.332031 58.574219 7.992188 58.574219 11.265625 Z M 52.644531 2.667969 L 11.265625 2.667969 C 6.523438 2.667969 2.667969 6.523438 2.667969 11.265625 L 2.667969 52.644531 C 2.667969 57.386719 6.523438 61.242188 11.265625 61.242188 L 52.644531 61.242188 C 57.386719 61.242188 61.242188 57.386719 61.242188 52.644531 L 61.242188 11.265625 C 61.242188 6.523438 57.386719 2.667969 52.644531 2.667969 Z M 52.644531 2.667969 "/>
</svg>
