<?xml version="1.0" encoding="UTF-8"?>
<svg xmlns="http://www.w3.org/2000/svg" xmlns:xlink="http://www.w3.org/1999/xlink" width="64" height="64" viewBox="0 0 64 64">
<path fill-rule="evenodd" fill="rgb(78.823531%, 14.509805%, 81.960785%)" fill-opacity="1" d="M 20.953125 50.277344 C 20.691406 50.535156 20.351562 50.667969 20.007812 50.667969 C 19.667969 50.667969 19.328125 50.535156 19.066406 50.277344 L 15.066406 46.277344 L 16.953125 44.390625 L 18.675781 46.113281 L 18.675781 33.886719 L 16.953125 35.609375 L 15.066406 33.722656 L 19.066406 29.722656 C 19.589844 29.203125 20.429688 29.203125 20.953125 29.722656 L 24.953125 33.722656 L 23.066406 35.609375 L 21.34375 33.886719 L 21.34375 46.113281 L 23.066406 44.390625 L 24.953125 46.277344 Z M 10.675781 39.21875 L 10.675781 51.449219 L 12.398438 49.722656 L 14.285156 51.609375 L 10.285156 55.609375 C 10.023438 55.871094 9.683594 56 9.34375 56 C 9 56 8.660156 55.871094 8.398438 55.609375 L 4.398438 51.609375 L 6.285156 49.722656 L 8.007812 51.449219 L 8.007812 39.21875 L 6.285156 40.941406 L 4.398438 39.058594 L 8.398438 35.058594 C 8.921875 34.535156 9.765625 34.535156 10.285156 35.058594 L 14.285156 39.058594 L 12.398438 40.941406 Z M 31.46875 53.332031 C 35.652344 53.332031 39.363281 52.886719 42.382812 52.179688 L 41.863281 54.710938 C 41.839844 54.8125 41.839844 54.914062 41.824219 55.019531 C 38.617188 55.664062 35.042969 56 31.46875 56 C 27.210938 56 23.449219 55.574219 20.316406 54.816406 L 22.578125 52.546875 C 25.109375 53.039062 28.089844 53.332031 31.46875 53.332031 Z M 31.46875 5.332031 C 42.789062 5.332031 50.675781 8.589844 50.675781 11.511719 C 50.675781 14.4375 42.789062 17.691406 31.46875 17.691406 C 20.273438 17.691406 13.34375 14.484375 13.34375 11.511719 C 13.34375 8.542969 20.273438 5.332031 31.46875 5.332031 Z M 13.34375 16.167969 C 16.746094 18.78125 23.195312 20.359375 31.46875 20.359375 C 39.089844 20.359375 46.761719 18.859375 50.675781 15.964844 L 50.675781 23.332031 L 53.34375 23.332031 L 53.34375 11.511719 C 53.34375 5.707031 42.339844 2.667969 31.46875 2.667969 C 19.03125 2.667969 10.675781 6.222656 10.675781 11.511719 L 10.675781 30.925781 L 13.34375 30.925781 Z M 47.003906 53.6875 L 49.765625 40.269531 C 49.847656 39.875 49.746094 39.46875 49.492188 39.15625 C 49.238281 38.847656 48.863281 38.667969 48.460938 38.667969 L 43.832031 38.667969 L 49.167969 28 L 56.652344 28 L 51.464844 36.648438 C 51.21875 37.058594 51.210938 37.570312 51.449219 37.992188 C 51.6875 38.40625 52.128906 38.667969 52.609375 38.667969 L 57.164062 38.667969 Z M 60.851562 36.707031 C 60.621094 36.273438 60.167969 36 59.675781 36 L 54.964844 36 L 60.152344 27.351562 C 60.398438 26.941406 60.40625 26.429688 60.167969 26.007812 C 59.933594 25.59375 59.488281 25.332031 59.007812 25.332031 L 48.34375 25.332031 C 47.835938 25.332031 47.375 25.617188 47.148438 26.070312 L 40.484375 39.402344 C 40.277344 39.816406 40.296875 40.308594 40.542969 40.703125 C 40.785156 41.09375 41.214844 41.332031 41.675781 41.332031 L 46.824219 41.332031 L 43.035156 59.730469 C 42.90625 60.355469 43.238281 60.980469 43.824219 61.226562 C 43.992188 61.300781 44.167969 61.332031 44.34375 61.332031 C 44.773438 61.332031 45.191406 61.121094 45.445312 60.746094 L 60.78125 38.082031 C 61.054688 37.671875 61.085938 37.144531 60.851562 36.707031 Z M 60.851562 36.707031 "/>
</svg>
