<?xml version="1.0" encoding="UTF-8"?>
<svg xmlns="http://www.w3.org/2000/svg" xmlns:xlink="http://www.w3.org/1999/xlink" width="64" height="64" viewBox="0 0 64 64">
<path fill-rule="evenodd" fill="rgb(78.823531%, 14.509805%, 81.960785%)" fill-opacity="1" d="M 32.046875 54.757812 C 22.175781 54.757812 16 52 16 49.445312 L 16 45.398438 C 18.074219 46.976562 21.300781 48.152344 25.332031 48.765625 L 25.332031 52.007812 L 28 52.007812 L 28 49.085938 C 29.289062 49.191406 30.640625 49.25 32.046875 49.25 C 33.417969 49.25 34.738281 49.199219 36 49.09375 L 36 54.59375 C 34.757812 54.699219 33.445312 54.757812 32.046875 54.757812 Z M 16 34.753906 L 16 30.011719 C 19.101562 32.191406 24.78125 33.507812 32.019531 33.507812 C 39.230469 33.507812 44.890625 32.207031 48 30.039062 L 48 34.753906 C 48 35.671875 45.789062 37.34375 39.691406 38.199219 C 38.382812 38.382812 37 38.519531 35.582031 38.601562 C 35.003906 38.636719 34.414062 38.664062 33.816406 38.679688 C 32.621094 38.71875 31.375 38.71875 30.183594 38.679688 C 29.585938 38.664062 28.996094 38.636719 28.417969 38.601562 C 27 38.519531 25.617188 38.382812 24.308594 38.199219 C 18.210938 37.34375 16 35.671875 16 34.753906 Z M 32 5.332031 C 42.503906 5.332031 48.003906 7.90625 48.003906 9.285156 L 48.003906 9.648438 C 48.003906 10.710938 43.089844 13.507812 32.074219 13.507812 C 21.0625 13.507812 16.007812 10.863281 16.007812 9.800781 L 16.007812 9.285156 C 16.007812 7.90625 21.496094 5.332031 32 5.332031 Z M 16 22.175781 C 19.417969 24.386719 25.71875 25.417969 31.992188 25.417969 C 38.273438 25.417969 44.585938 24.386719 48 22.167969 L 48.003906 25.597656 L 48.003906 25.796875 C 48.003906 28.222656 41.878906 30.84375 32.019531 30.84375 C 22.164062 30.84375 16.003906 28.222656 16.003906 25.796875 L 16 25.535156 Z M 16 13.140625 C 19.441406 15.207031 25.917969 16.175781 32.074219 16.175781 C 38.148438 16.175781 44.523438 15.230469 48 13.222656 L 48 18.199219 C 48 20.058594 42.25 22.75 31.992188 22.75 C 21.734375 22.75 16.007812 20.058594 16.007812 18.199219 L 16 17.984375 Z M 50.667969 49.445312 L 50.667969 49.34375 L 48 49.34375 L 48 49.683594 C 47.730469 51.53125 44.335938 53.4375 38.667969 54.292969 L 38.667969 48.777344 C 42.679688 48.179688 45.902344 47.027344 48 45.472656 L 48 46.675781 L 50.667969 46.675781 L 50.664062 41.265625 L 50.664062 40.90625 L 50.667969 40.007812 L 48 40.007812 L 48 41.160156 C 47.730469 43.136719 44.335938 45.175781 38.667969 46.089844 L 38.667969 44.007812 L 36 44.007812 L 36 46.410156 C 34.757812 46.519531 33.445312 46.585938 32.046875 46.585938 C 30.613281 46.585938 29.269531 46.515625 28 46.402344 L 28 41.246094 C 28.085938 41.25 28.171875 41.257812 28.257812 41.265625 C 28.863281 41.300781 29.476562 41.328125 30.101562 41.347656 C 30.726562 41.367188 31.359375 41.375 32 41.375 C 32.640625 41.375 33.273438 41.367188 33.898438 41.347656 C 34.519531 41.328125 35.136719 41.300781 35.738281 41.265625 C 37.226562 41.175781 38.683594 41.035156 40.0625 40.839844 C 46.898438 39.882812 50.667969 37.722656 50.667969 34.753906 L 50.667969 9.285156 C 50.667969 4.714844 41.292969 2.667969 32 2.667969 C 22.707031 2.667969 13.332031 4.714844 13.332031 9.285156 L 13.332031 34.753906 C 13.332031 37.722656 17.101562 39.882812 23.9375 40.839844 C 24.390625 40.902344 24.863281 40.953125 25.332031 41.007812 L 25.332031 46.070312 C 19.480469 45.109375 16.003906 42.949219 16.003906 40.90625 L 16.003906 40.007812 L 13.332031 40.007812 L 13.332031 60.007812 L 16 60.007812 L 16 53.800781 C 19.105469 56.0625 24.792969 57.425781 32.046875 57.425781 C 33.425781 57.425781 34.742188 57.375 36 57.28125 L 36 61.339844 L 38.667969 61.339844 L 38.667969 56.992188 C 42.703125 56.433594 45.914062 55.351562 48 53.875 L 48 60.007812 L 50.667969 60.007812 L 50.667969 49.796875 C 50.664062 49.679688 50.667969 49.628906 50.667969 49.507812 Z M 50.667969 49.445312 "/>
</svg>
