<?xml version="1.0" encoding="UTF-8"?>
<svg xmlns="http://www.w3.org/2000/svg" xmlns:xlink="http://www.w3.org/1999/xlink" width="64" height="64" viewBox="0 0 64 64">
<path fill-rule="evenodd" fill="rgb(78.823531%, 14.509805%, 81.960785%)" fill-opacity="1" d="M 17.808594 15.816406 L 61.238281 15.816406 L 61.238281 2.667969 L 17.808594 2.667969 Z M 20.472656 13.148438 L 58.570312 13.148438 L 58.570312 5.335938 L 20.472656 5.335938 Z M 2.667969 15.816406 L 15.816406 15.816406 L 15.816406 2.667969 L 2.667969 2.667969 Z M 5.332031 13.148438 L 13.148438 13.148438 L 13.148438 5.335938 L 5.332031 5.335938 Z M 17.808594 30.957031 L 61.238281 30.957031 L 61.238281 17.808594 L 17.808594 17.808594 Z M 20.472656 28.289062 L 58.570312 28.289062 L 58.570312 20.476562 L 20.472656 20.476562 Z M 2.667969 30.957031 L 15.816406 30.957031 L 15.816406 17.808594 L 2.667969 17.808594 Z M 5.332031 28.289062 L 13.148438 28.289062 L 13.148438 20.476562 L 5.332031 20.476562 Z M 17.808594 46.097656 L 61.238281 46.097656 L 61.238281 32.949219 L 17.808594 32.949219 Z M 20.472656 43.429688 L 58.570312 43.429688 L 58.570312 35.613281 L 20.472656 35.613281 Z M 2.667969 46.097656 L 15.816406 46.097656 L 15.816406 32.949219 L 2.667969 32.949219 Z M 5.332031 43.429688 L 13.148438 43.429688 L 13.148438 35.613281 L 5.332031 35.613281 Z M 17.808594 61.234375 L 61.238281 61.234375 L 61.238281 48.089844 L 17.808594 48.089844 Z M 20.472656 58.570312 L 58.570312 58.570312 L 58.570312 50.753906 L 20.472656 50.753906 Z M 2.667969 61.234375 L 15.816406 61.234375 L 15.816406 48.089844 L 2.667969 48.089844 Z M 5.332031 58.570312 L 13.148438 58.570312 L 13.148438 50.753906 L 5.332031 50.753906 Z M 5.332031 58.570312 "/>
</svg>
