<?xml version="1.0" encoding="UTF-8"?>
<svg xmlns="http://www.w3.org/2000/svg" xmlns:xlink="http://www.w3.org/1999/xlink" width="64" height="64" viewBox="0 0 64 64">
<path fill-rule="evenodd" fill="rgb(78.823531%, 14.509805%, 81.960785%)" fill-opacity="1" d="M 48.8125 21.164062 L 52.386719 21.164062 L 52.386719 22.839844 L 46.695312 22.839844 L 46.695312 12.355469 L 48.8125 12.355469 Z M 42.214844 20.40625 C 41.871094 21.039062 41.367188 21.359375 40.703125 21.359375 C 40.039062 21.359375 39.53125 21.039062 39.1875 20.40625 C 38.84375 19.769531 38.675781 18.832031 38.675781 17.589844 C 38.675781 16.320312 38.839844 15.375 39.175781 14.761719 C 39.507812 14.144531 40.015625 13.835938 40.703125 13.835938 C 41.386719 13.835938 41.898438 14.144531 42.230469 14.761719 C 42.5625 15.375 42.730469 16.320312 42.730469 17.589844 C 42.730469 18.832031 42.558594 19.769531 42.214844 20.40625 Z M 44.222656 20.96875 C 44.679688 20.066406 44.910156 18.941406 44.910156 17.589844 C 44.910156 15.855469 44.542969 14.511719 43.804688 13.558594 C 43.066406 12.605469 42.035156 12.128906 40.703125 12.128906 C 39.371094 12.128906 38.335938 12.605469 37.601562 13.558594 C 36.863281 14.511719 36.496094 15.855469 36.496094 17.589844 C 36.496094 19.285156 36.84375 20.609375 37.539062 21.5625 C 38.234375 22.515625 39.21875 23.015625 40.492188 23.070312 C 41.015625 23.695312 41.644531 24.214844 42.382812 24.628906 C 43.117188 25.042969 43.886719 25.308594 44.679688 25.429688 L 44.679688 23.703125 C 44.125 23.644531 43.660156 23.542969 43.273438 23.402344 C 42.890625 23.257812 42.542969 23.0625 42.230469 22.8125 C 43.097656 22.480469 43.761719 21.863281 44.222656 20.96875 Z M 34.988281 18.6875 C 35.136719 19.035156 35.210938 19.457031 35.210938 19.953125 C 35.210938 20.910156 34.898438 21.667969 34.277344 22.230469 C 33.65625 22.789062 32.800781 23.070312 31.714844 23.070312 C 31.238281 23.070312 30.765625 23.011719 30.289062 22.902344 C 29.816406 22.792969 29.417969 22.644531 29.09375 22.460938 L 29.09375 20.875 C 29.46875 21.015625 29.890625 21.136719 30.359375 21.230469 C 30.828125 21.324219 31.230469 21.375 31.5625 21.375 C 32.046875 21.375 32.414062 21.261719 32.667969 21.03125 C 32.917969 20.804688 33.046875 20.480469 33.046875 20.058594 C 33.046875 19.746094 32.957031 19.480469 32.78125 19.261719 C 32.605469 19.046875 32.308594 18.828125 31.894531 18.605469 L 31.078125 18.164062 C 30.332031 17.761719 29.796875 17.328125 29.472656 16.863281 C 29.152344 16.398438 28.988281 15.835938 28.988281 15.167969 C 28.988281 14.554688 29.128906 14.015625 29.414062 13.558594 C 29.695312 13.097656 30.082031 12.746094 30.570312 12.496094 C 31.0625 12.25 31.621094 12.128906 32.257812 12.128906 C 33.054688 12.128906 33.847656 12.308594 34.636719 12.671875 L 34.636719 14.277344 C 33.816406 13.972656 33.097656 13.820312 32.46875 13.820312 C 32.046875 13.820312 31.714844 13.929688 31.472656 14.140625 C 31.230469 14.351562 31.109375 14.644531 31.109375 15.015625 C 31.109375 15.332031 31.183594 15.585938 31.339844 15.789062 C 31.5 15.992188 31.796875 16.214844 32.242188 16.457031 L 33.0625 16.894531 C 33.585938 17.175781 34 17.460938 34.308594 17.742188 C 34.617188 18.023438 34.84375 18.339844 34.988281 18.6875 Z M 26.191406 15.109375 L 28.324219 15.109375 L 25.765625 24.023438 C 25.554688 24.769531 25.269531 25.308594 24.917969 25.640625 C 24.5625 25.976562 24.101562 26.140625 23.527344 26.140625 C 23.089844 26.140625 22.648438 26.066406 22.195312 25.914062 L 22.195312 24.523438 C 22.464844 24.5625 22.707031 24.582031 22.921875 24.582031 C 23.304688 24.582031 23.589844 24.480469 23.78125 24.28125 C 23.976562 24.078125 24.101562 23.738281 24.160156 23.265625 L 24.191406 22.992188 L 21.695312 15.109375 L 23.890625 15.109375 L 25.054688 20.796875 Z M 18.242188 12.355469 L 20.605469 12.355469 L 20.605469 22.839844 L 18.714844 22.839844 L 18.714844 15.488281 L 16.945312 20.253906 L 15.144531 20.253906 L 13.386719 15.53125 L 13.386719 22.839844 L 11.496094 22.839844 L 11.496094 12.355469 L 13.917969 12.355469 L 16.082031 18.226562 Z M 58.546875 53.496094 C 58.546875 56.28125 56.28125 58.546875 53.496094 58.546875 L 10.382812 58.546875 C 7.597656 58.546875 5.332031 56.28125 5.332031 53.496094 L 5.332031 10.382812 C 5.332031 7.597656 7.597656 5.332031 10.382812 5.332031 L 53.496094 5.332031 C 56.28125 5.332031 58.546875 7.597656 58.546875 10.382812 Z M 53.496094 2.667969 L 10.382812 2.667969 C 6.128906 2.667969 2.667969 6.128906 2.667969 10.382812 L 2.667969 53.496094 C 2.667969 57.75 6.128906 61.210938 10.382812 61.210938 L 53.496094 61.210938 C 57.75 61.210938 61.210938 57.75 61.210938 53.496094 L 61.210938 10.382812 C 61.210938 6.128906 57.75 2.667969 53.496094 2.667969 Z M 53.496094 2.667969 "/>
</svg>
