<?xml version="1.0" encoding="UTF-8"?>
<svg xmlns="http://www.w3.org/2000/svg" xmlns:xlink="http://www.w3.org/1999/xlink" width="64" height="64" viewBox="0 0 64 64">
<path fill-rule="evenodd" fill="rgb(78.823531%, 14.509805%, 81.960785%)" fill-opacity="1" d="M 31.757812 31.167969 C 31.902344 31.515625 31.976562 31.9375 31.976562 32.433594 C 31.976562 33.390625 31.667969 34.148438 31.046875 34.710938 C 30.425781 35.269531 29.570312 35.550781 28.480469 35.550781 C 28.007812 35.550781 27.53125 35.492188 27.058594 35.382812 C 26.582031 35.273438 26.183594 35.125 25.863281 34.945312 L 25.863281 33.355469 C 26.234375 33.496094 26.65625 33.613281 27.125 33.710938 C 27.59375 33.808594 27.996094 33.855469 28.332031 33.855469 C 28.8125 33.855469 29.179688 33.742188 29.433594 33.515625 C 29.6875 33.289062 29.8125 32.960938 29.8125 32.539062 C 29.8125 32.226562 29.722656 31.960938 29.546875 31.742188 C 29.371094 31.527344 29.074219 31.308594 28.664062 31.085938 L 27.84375 30.648438 C 27.097656 30.242188 26.5625 29.808594 26.238281 29.34375 C 25.917969 28.882812 25.753906 28.316406 25.753906 27.648438 C 25.753906 27.035156 25.898438 26.496094 26.179688 26.039062 C 26.460938 25.578125 26.847656 25.226562 27.339844 24.976562 C 27.828125 24.730469 28.390625 24.609375 29.023438 24.609375 C 29.820312 24.609375 30.617188 24.789062 31.402344 25.152344 L 31.402344 26.757812 C 30.582031 26.453125 29.863281 26.304688 29.238281 26.304688 C 28.8125 26.304688 28.480469 26.410156 28.238281 26.621094 C 27.996094 26.832031 27.875 27.125 27.875 27.5 C 27.875 27.8125 27.953125 28.066406 28.109375 28.269531 C 28.265625 28.472656 28.566406 28.695312 29.011719 28.9375 L 29.828125 29.375 C 30.351562 29.65625 30.769531 29.941406 31.074219 30.222656 C 31.382812 30.503906 31.613281 30.820312 31.757812 31.167969 Z M 22.367188 30.222656 C 22.367188 31.402344 22.203125 32.277344 21.882812 32.847656 C 21.558594 33.417969 21.070312 33.703125 20.414062 33.703125 L 19.519531 33.703125 L 19.519531 26.453125 L 20.398438 26.453125 C 21.074219 26.453125 21.570312 26.734375 21.890625 27.292969 C 22.207031 27.855469 22.367188 28.730469 22.367188 29.921875 Z M 20.566406 24.835938 L 17.402344 24.835938 L 17.402344 35.324219 L 20.640625 35.324219 C 21.910156 35.324219 22.878906 34.878906 23.546875 33.992188 C 24.214844 33.101562 24.546875 31.796875 24.546875 30.070312 C 24.546875 28.355469 24.207031 27.054688 23.53125 26.167969 C 22.855469 25.28125 21.867188 24.835938 20.566406 24.835938 Z M 13.292969 29.421875 C 13.085938 29.714844 12.785156 29.859375 12.394531 29.859375 L 11.410156 29.859375 L 11.410156 26.410156 L 12.394531 26.410156 C 12.785156 26.410156 13.085938 26.554688 13.292969 26.847656 C 13.5 27.140625 13.605469 27.570312 13.605469 28.132812 C 13.605469 28.699219 13.5 29.128906 13.292969 29.421875 Z M 15.285156 29.964844 C 15.558594 29.449219 15.691406 28.839844 15.691406 28.132812 C 15.691406 27.117188 15.417969 26.3125 14.867188 25.71875 C 14.316406 25.128906 13.578125 24.835938 12.652344 24.835938 L 9.335938 24.835938 L 9.335938 35.324219 L 11.410156 35.324219 L 11.410156 31.433594 L 12.226562 31.433594 L 14.058594 35.324219 L 16.238281 35.324219 L 14.117188 31.117188 C 14.621094 30.863281 15.011719 30.480469 15.285156 29.964844 Z M 55.015625 12.832031 C 55.324219 13.21875 55.480469 13.777344 55.480469 14.511719 L 55.480469 20.1875 L 53.40625 20.1875 L 53.40625 15.105469 C 53.40625 14.660156 53.34375 14.335938 53.222656 14.136719 C 53.101562 13.933594 52.894531 13.832031 52.601562 13.832031 C 52.289062 13.832031 51.949219 13.953125 51.574219 14.195312 L 51.574219 20.1875 L 49.5 20.1875 L 49.5 12.457031 L 51.195312 12.457031 L 51.363281 13.152344 C 52.171875 12.554688 52.941406 12.257812 53.679688 12.257812 C 54.261719 12.257812 54.707031 12.449219 55.015625 12.832031 Z M 45.726562 18.214844 C 45.558594 18.613281 45.289062 18.8125 44.914062 18.8125 C 44.542969 18.8125 44.273438 18.613281 44.105469 18.214844 C 43.941406 17.816406 43.855469 17.1875 43.855469 16.332031 C 43.855469 15.472656 43.941406 14.839844 44.105469 14.4375 C 44.273438 14.035156 44.542969 13.832031 44.914062 13.832031 C 45.289062 13.832031 45.558594 14.035156 45.726562 14.4375 C 45.894531 14.839844 45.972656 15.472656 45.972656 16.332031 C 45.972656 17.1875 45.894531 17.816406 45.726562 18.214844 Z M 44.914062 12.257812 C 43.917969 12.257812 43.144531 12.613281 42.597656 13.316406 C 42.054688 14.023438 41.785156 15.027344 41.785156 16.332031 C 41.785156 17.621094 42.054688 18.621094 42.597656 19.324219 C 43.144531 20.03125 43.917969 20.386719 44.914062 20.386719 C 45.914062 20.386719 46.6875 20.03125 47.230469 19.324219 C 47.777344 18.621094 48.046875 17.621094 48.046875 16.332031 C 48.046875 15.027344 47.777344 14.023438 47.230469 13.316406 C 46.6875 12.613281 45.914062 12.257812 44.914062 12.257812 Z M 37.652344 18.597656 L 40.84375 18.597656 L 40.84375 20.1875 L 35.472656 20.1875 L 35.472656 18.722656 L 38.605469 14.042969 L 35.59375 14.042969 L 35.59375 12.457031 L 40.785156 12.457031 L 40.785156 13.921875 Z M 32.324219 18.449219 C 31.988281 18.769531 31.660156 18.933594 31.324219 18.933594 C 31.113281 18.933594 30.945312 18.84375 30.816406 18.667969 C 30.691406 18.492188 30.628906 18.25 30.628906 17.949219 C 30.628906 17.597656 30.707031 17.328125 30.863281 17.140625 C 31.019531 16.953125 31.246094 16.863281 31.535156 16.863281 C 31.839844 16.863281 32.101562 16.894531 32.324219 16.964844 Z M 31.734375 12.257812 C 31.238281 12.257812 30.753906 12.3125 30.28125 12.425781 C 29.804688 12.535156 29.421875 12.6875 29.132812 12.878906 L 29.132812 14.257812 C 30.007812 13.933594 30.75 13.773438 31.355469 13.773438 C 31.730469 13.773438 31.984375 13.867188 32.121094 14.050781 C 32.253906 14.238281 32.324219 14.59375 32.324219 15.117188 L 32.324219 15.816406 C 31.859375 15.695312 31.46875 15.632812 31.15625 15.632812 C 30.402344 15.632812 29.800781 15.851562 29.355469 16.292969 C 28.914062 16.730469 28.691406 17.328125 28.691406 18.085938 C 28.691406 18.800781 28.871094 19.363281 29.238281 19.773438 C 29.597656 20.183594 30.09375 20.386719 30.71875 20.386719 C 31.054688 20.386719 31.378906 20.300781 31.703125 20.136719 C 32.027344 19.96875 32.273438 19.753906 32.445312 19.492188 L 32.625 20.1875 L 34.230469 20.1875 L 34.230469 14.769531 C 34.230469 13.894531 34.035156 13.253906 33.640625 12.855469 C 33.246094 12.457031 32.613281 12.257812 31.734375 12.257812 Z M 25.152344 20.1875 L 25.152344 15.089844 C 25.152344 14.65625 25.089844 14.335938 24.976562 14.136719 C 24.859375 13.933594 24.667969 13.832031 24.394531 13.832031 C 24.101562 13.832031 23.769531 13.953125 23.394531 14.195312 C 23.40625 14.246094 23.410156 14.300781 23.410156 14.363281 L 23.410156 20.1875 L 21.339844 20.1875 L 21.339844 15.089844 C 21.339844 14.65625 21.28125 14.335938 21.164062 14.136719 C 21.046875 13.933594 20.851562 13.832031 20.578125 13.832031 C 20.296875 13.832031 19.96875 13.953125 19.597656 14.195312 L 19.597656 20.1875 L 17.523438 20.1875 L 17.523438 12.457031 L 19.21875 12.457031 L 19.386719 13.152344 C 20.191406 12.554688 20.949219 12.257812 21.65625 12.257812 C 22.371094 12.257812 22.875 12.566406 23.167969 13.183594 C 23.996094 12.566406 24.761719 12.257812 25.46875 12.257812 C 26.03125 12.257812 26.46875 12.453125 26.769531 12.839844 C 27.070312 13.230469 27.226562 13.789062 27.226562 14.511719 L 27.226562 20.1875 Z M 11.46875 16.179688 L 12.394531 11.835938 L 13.347656 16.179688 Z M 11.304688 9.703125 L 8.398438 20.1875 L 10.625 20.1875 L 11.152344 17.691406 L 13.664062 17.691406 L 14.210938 20.1875 L 16.539062 20.1875 L 13.648438 9.703125 Z M 58.542969 52.613281 C 58.542969 55.882812 55.886719 58.542969 52.617188 58.542969 L 11.261719 58.542969 C 7.992188 58.542969 5.335938 55.882812 5.335938 52.613281 L 5.335938 11.261719 C 5.335938 7.992188 7.992188 5.332031 11.261719 5.332031 L 52.617188 5.332031 C 55.886719 5.332031 58.542969 7.992188 58.542969 11.261719 Z M 52.617188 2.667969 L 11.261719 2.667969 C 6.523438 2.667969 2.667969 6.523438 2.667969 11.261719 L 2.667969 52.613281 C 2.667969 57.355469 6.523438 61.210938 11.261719 61.210938 L 52.617188 61.210938 C 57.355469 61.210938 61.210938 57.355469 61.210938 52.613281 L 61.210938 11.261719 C 61.210938 6.523438 57.355469 2.667969 52.617188 2.667969 Z M 52.617188 2.667969 "/>
</svg>
