<?xml version="1.0" encoding="UTF-8"?>
<svg xmlns="http://www.w3.org/2000/svg" xmlns:xlink="http://www.w3.org/1999/xlink" width="64" height="64" viewBox="0 0 64 64">
<path fill-rule="evenodd" fill="rgb(78.823531%, 14.509805%, 81.960785%)" fill-opacity="1" d="M 45.667969 34.632812 C 45.347656 34.941406 45.027344 35.097656 44.707031 35.097656 C 44.503906 35.097656 44.339844 35.011719 44.21875 34.84375 C 44.097656 34.671875 44.039062 34.441406 44.039062 34.152344 C 44.039062 33.8125 44.113281 33.550781 44.261719 33.371094 C 44.414062 33.191406 44.628906 33.105469 44.914062 33.105469 C 45.203125 33.105469 45.453125 33.136719 45.667969 33.207031 Z M 45.101562 28.679688 C 44.625 28.679688 44.160156 28.734375 43.703125 28.839844 C 43.25 28.945312 42.878906 29.09375 42.597656 29.277344 L 42.597656 30.601562 C 43.441406 30.289062 44.152344 30.136719 44.734375 30.136719 C 45.09375 30.136719 45.339844 30.226562 45.472656 30.40625 C 45.601562 30.585938 45.667969 30.925781 45.667969 31.429688 L 45.667969 32.097656 C 45.222656 31.984375 44.847656 31.925781 44.546875 31.925781 C 43.820312 31.925781 43.242188 32.136719 42.816406 32.558594 C 42.386719 32.980469 42.175781 33.554688 42.175781 34.28125 C 42.175781 34.972656 42.351562 35.511719 42.699219 35.90625 C 43.050781 36.296875 43.527344 36.496094 44.125 36.496094 C 44.445312 36.496094 44.761719 36.414062 45.070312 36.253906 C 45.382812 36.09375 45.617188 35.886719 45.785156 35.636719 L 45.960938 36.304688 L 47.5 36.304688 L 47.5 31.09375 C 47.5 30.25 47.3125 29.636719 46.933594 29.253906 C 46.554688 28.871094 45.945312 28.679688 45.101562 28.679688 Z M 41.085938 28.796875 C 41.242188 28.796875 41.394531 28.8125 41.550781 28.839844 L 41.550781 30.601562 C 41.277344 30.550781 41.023438 30.527344 40.777344 30.527344 C 40.3125 30.527344 39.871094 30.644531 39.453125 30.878906 L 39.453125 36.304688 L 37.460938 36.304688 L 37.460938 28.867188 L 39.089844 28.867188 L 39.308594 29.828125 C 39.601562 29.472656 39.886719 29.207031 40.175781 29.042969 C 40.460938 28.878906 40.765625 28.796875 41.085938 28.796875 Z M 33.832031 34.40625 C 33.671875 34.789062 33.410156 34.980469 33.050781 34.980469 C 32.695312 34.980469 32.433594 34.789062 32.273438 34.40625 C 32.113281 34.023438 32.03125 33.417969 32.03125 32.59375 C 32.03125 31.769531 32.113281 31.164062 32.273438 30.773438 C 32.433594 30.386719 32.695312 30.191406 33.050781 30.191406 C 33.410156 30.191406 33.671875 30.386719 33.832031 30.773438 C 33.992188 31.164062 34.070312 31.769531 34.070312 32.59375 C 34.070312 33.417969 33.992188 34.023438 33.832031 34.40625 Z M 33.050781 28.679688 C 32.09375 28.679688 31.347656 29.019531 30.824219 29.699219 C 30.304688 30.378906 30.039062 31.34375 30.039062 32.59375 C 30.039062 33.835938 30.304688 34.796875 30.824219 35.476562 C 31.347656 36.15625 32.09375 36.496094 33.050781 36.496094 C 34.011719 36.496094 34.753906 36.15625 35.277344 35.476562 C 35.804688 34.796875 36.0625 33.835938 36.0625 32.59375 C 36.0625 31.34375 35.804688 30.378906 35.277344 29.699219 C 34.753906 29.019531 34.011719 28.679688 33.050781 28.679688 Z M 28.992188 28.796875 C 29.148438 28.796875 29.304688 28.8125 29.457031 28.839844 L 29.457031 30.601562 C 29.1875 30.550781 28.929688 30.527344 28.6875 30.527344 C 28.21875 30.527344 27.777344 30.644531 27.363281 30.878906 L 27.363281 36.304688 L 25.367188 36.304688 L 25.367188 28.867188 L 27 28.867188 L 27.21875 29.828125 C 27.507812 29.472656 27.796875 29.207031 28.082031 29.042969 C 28.367188 28.878906 28.671875 28.796875 28.992188 28.796875 Z M 21.65625 28.867188 L 23.652344 28.867188 L 23.652344 36.304688 L 22.023438 36.304688 L 21.863281 35.636719 C 21.113281 36.207031 20.394531 36.496094 19.707031 36.496094 C 19.164062 36.496094 18.753906 36.304688 18.472656 35.925781 C 18.191406 35.546875 18.050781 35 18.050781 34.28125 L 18.050781 28.867188 L 20.042969 28.867188 L 20.042969 33.660156 C 20.042969 34.132812 20.097656 34.472656 20.203125 34.675781 C 20.308594 34.878906 20.488281 34.980469 20.742188 34.980469 C 21.03125 34.980469 21.335938 34.867188 21.65625 34.644531 Z M 12.257812 32.449219 L 13.144531 28.273438 L 14.0625 32.449219 Z M 12.097656 26.222656 L 9.304688 36.304688 L 11.441406 36.304688 L 11.953125 33.902344 L 14.367188 33.902344 L 14.890625 36.304688 L 17.132812 36.304688 L 14.355469 26.222656 Z M 54.132812 14.097656 C 54.425781 14.46875 54.574219 15.003906 54.574219 15.714844 L 54.574219 21.171875 L 52.582031 21.171875 L 52.582031 16.28125 C 52.582031 15.855469 52.523438 15.546875 52.40625 15.351562 C 52.289062 15.15625 52.089844 15.058594 51.808594 15.058594 C 51.507812 15.058594 51.175781 15.175781 50.820312 15.40625 L 50.820312 21.171875 L 48.824219 21.171875 L 48.824219 13.734375 L 50.457031 13.734375 L 50.617188 14.40625 C 51.390625 13.832031 52.136719 13.546875 52.839844 13.546875 C 53.40625 13.546875 53.832031 13.730469 54.132812 14.097656 Z M 43.640625 15.640625 C 43.796875 15.253906 44.058594 15.058594 44.417969 15.058594 C 44.773438 15.058594 45.035156 15.253906 45.195312 15.640625 C 45.355469 16.03125 45.433594 16.636719 45.433594 17.460938 C 45.433594 18.285156 45.355469 18.890625 45.195312 19.273438 C 45.035156 19.65625 44.773438 19.847656 44.417969 19.847656 C 44.058594 19.847656 43.796875 19.65625 43.640625 19.273438 C 43.476562 18.890625 43.398438 18.285156 43.398438 17.460938 C 43.398438 16.636719 43.476562 16.03125 43.640625 15.640625 Z M 44.417969 21.359375 C 45.378906 21.359375 46.117188 21.019531 46.640625 20.34375 C 47.167969 19.664062 47.429688 18.703125 47.429688 17.460938 C 47.429688 16.207031 47.167969 15.242188 46.640625 14.566406 C 46.117188 13.886719 45.378906 13.546875 44.417969 13.546875 C 43.457031 13.546875 42.714844 13.886719 42.191406 14.566406 C 41.667969 15.242188 41.402344 16.207031 41.402344 17.460938 C 41.402344 18.703125 41.667969 19.664062 42.191406 20.34375 C 42.714844 21.019531 43.457031 21.359375 44.417969 21.359375 Z M 40.503906 21.171875 L 35.335938 21.171875 L 35.335938 19.761719 L 38.347656 15.261719 L 35.453125 15.261719 L 35.453125 13.734375 L 40.441406 13.734375 L 40.441406 15.148438 L 37.429688 19.644531 L 40.503906 19.644531 Z M 32.308594 19.496094 C 31.988281 19.808594 31.667969 19.964844 31.347656 19.964844 C 31.144531 19.964844 30.984375 19.878906 30.863281 19.707031 C 30.742188 19.539062 30.679688 19.308594 30.679688 19.019531 C 30.679688 18.679688 30.753906 18.417969 30.90625 18.238281 C 31.054688 18.058594 31.269531 17.96875 31.554688 17.96875 C 31.84375 17.96875 32.097656 18.003906 32.308594 18.070312 Z M 31.191406 16.789062 C 30.464844 16.789062 29.882812 17.003906 29.457031 17.421875 C 29.03125 17.84375 28.816406 18.421875 28.816406 19.148438 C 28.816406 19.835938 28.992188 20.378906 29.339844 20.769531 C 29.691406 21.164062 30.167969 21.359375 30.765625 21.359375 C 31.085938 21.359375 31.402344 21.28125 31.710938 21.121094 C 32.023438 20.960938 32.261719 20.753906 32.425781 20.5 L 32.601562 21.171875 L 34.144531 21.171875 L 34.144531 15.960938 C 34.144531 15.117188 33.953125 14.503906 33.578125 14.121094 C 33.195312 13.738281 32.585938 13.546875 31.742188 13.546875 C 31.265625 13.546875 30.800781 13.597656 30.347656 13.707031 C 29.890625 13.8125 29.523438 13.957031 29.238281 14.140625 L 29.238281 15.46875 C 30.085938 15.15625 30.796875 15 31.378906 15 C 31.738281 15 31.984375 15.089844 32.113281 15.269531 C 32.246094 15.449219 32.308594 15.792969 32.308594 16.296875 L 32.308594 16.964844 C 31.863281 16.851562 31.488281 16.789062 31.191406 16.789062 Z M 25.414062 16.269531 C 25.414062 15.851562 25.359375 15.546875 25.246094 15.351562 C 25.132812 15.15625 24.945312 15.058594 24.6875 15.058594 C 24.402344 15.058594 24.085938 15.175781 23.726562 15.40625 C 23.734375 15.457031 23.738281 15.511719 23.738281 15.570312 L 23.738281 21.171875 L 21.746094 21.171875 L 21.746094 16.269531 C 21.746094 15.851562 21.691406 15.546875 21.578125 15.351562 C 21.46875 15.15625 21.28125 15.058594 21.019531 15.058594 C 20.746094 15.058594 20.429688 15.175781 20.074219 15.40625 L 20.074219 21.171875 L 18.078125 21.171875 L 18.078125 13.734375 L 19.707031 13.734375 L 19.867188 14.40625 C 20.644531 13.832031 21.371094 13.546875 22.050781 13.546875 C 22.742188 13.546875 23.226562 13.839844 23.507812 14.433594 C 24.300781 13.839844 25.039062 13.546875 25.71875 13.546875 C 26.261719 13.546875 26.679688 13.734375 26.96875 14.105469 C 27.261719 14.480469 27.40625 15.015625 27.40625 15.714844 L 27.40625 21.171875 L 25.414062 21.171875 Z M 12.257812 17.316406 L 13.144531 13.136719 L 14.0625 17.316406 Z M 12.097656 11.085938 L 9.304688 21.171875 L 11.441406 21.171875 L 11.953125 18.769531 L 14.367188 18.769531 L 14.890625 21.171875 L 17.132812 21.171875 L 14.355469 11.085938 Z M 58.542969 52.613281 C 58.542969 55.886719 55.882812 58.546875 52.613281 58.546875 L 11.261719 58.546875 C 7.992188 58.546875 5.332031 55.886719 5.332031 52.613281 L 5.332031 11.265625 C 5.332031 7.992188 7.992188 5.332031 11.261719 5.332031 L 52.613281 5.332031 C 55.882812 5.332031 58.542969 7.992188 58.542969 11.265625 Z M 52.613281 2.667969 L 11.261719 2.667969 C 6.523438 2.667969 2.667969 6.523438 2.667969 11.265625 L 2.667969 52.613281 C 2.667969 57.355469 6.523438 61.214844 11.261719 61.214844 L 52.613281 61.214844 C 57.355469 61.214844 61.210938 57.355469 61.210938 52.613281 L 61.210938 11.265625 C 61.210938 6.523438 57.355469 2.667969 52.613281 2.667969 Z M 52.613281 2.667969 "/>
</svg>
