<?xml version="1.0" encoding="UTF-8"?>
<svg xmlns="http://www.w3.org/2000/svg" xmlns:xlink="http://www.w3.org/1999/xlink" width="64" height="64" viewBox="0 0 64 64">
<path fill-rule="evenodd" fill="rgb(78.823531%, 14.509805%, 81.960785%)" fill-opacity="1" d="M 8 46.667969 L 40 46.667969 L 40 44 L 8 44 Z M 2.667969 37.234375 L 22.667969 37.234375 L 22.667969 34.570312 L 2.667969 34.570312 Z M 29.332031 41.332031 L 29.332031 37.234375 L 25.445312 37.234375 L 25.445312 34.570312 L 29.332031 34.570312 L 29.332031 30.667969 L 32 30.667969 L 32 34.570312 L 36 34.570312 L 36 37.234375 L 32 37.234375 L 32 41.332031 Z M 45.867188 52.875 L 49.277344 39.976562 C 49.382812 39.574219 49.296875 39.148438 49.046875 38.820312 C 48.792969 38.492188 48.402344 38.300781 47.988281 38.300781 L 42.144531 38.300781 L 47.519531 26.667969 L 56.015625 26.667969 L 50.671875 35.296875 C 50.417969 35.710938 50.40625 36.226562 50.640625 36.648438 C 50.875 37.070312 51.324219 37.332031 51.804688 37.332031 L 57.121094 37.332031 Z M 60.921875 35.394531 C 60.695312 34.949219 60.234375 34.667969 59.734375 34.667969 L 54.199219 34.667969 L 59.542969 26.035156 C 59.796875 25.625 59.808594 25.105469 59.574219 24.683594 C 59.335938 24.261719 58.890625 24 58.40625 24 L 46.667969 24 C 46.148438 24 45.675781 24.300781 45.457031 24.773438 L 38.847656 39.074219 C 38.660156 39.488281 38.691406 39.96875 38.9375 40.351562 C 39.183594 40.734375 39.605469 40.964844 40.058594 40.964844 L 46.257812 40.964844 L 41.460938 59.113281 C 41.296875 59.734375 41.597656 60.382812 42.175781 60.660156 C 42.363281 60.746094 42.554688 60.789062 42.75 60.789062 C 43.164062 60.789062 43.570312 60.59375 43.828125 60.238281 L 60.8125 36.78125 C 61.109375 36.375 61.148438 35.839844 60.921875 35.394531 Z M 37.929688 53.445312 L 38.332031 56.082031 C 36.316406 56.386719 34.214844 56.542969 32.085938 56.542969 C 22.46875 56.542969 12.738281 53.828125 12.738281 48.632812 L 15.402344 48.632812 C 15.402344 50.824219 21.75 53.878906 32.085938 53.878906 C 34.082031 53.878906 36.046875 53.730469 37.929688 53.445312 Z M 14.710938 13.003906 C 14.710938 10.453125 21.953125 6.667969 31.953125 6.667969 C 42.351562 6.667969 49.332031 10.097656 49.332031 13.300781 C 49.332031 15.515625 42.582031 18.738281 32 18.738281 C 21.546875 18.738281 14.828125 15.59375 14.667969 13.378906 Z M 14.667969 17.496094 C 18.355469 20.054688 25.320312 21.402344 32 21.402344 C 38.679688 21.402344 45.644531 20.054688 49.332031 17.496094 L 49.332031 21.332031 L 52 21.332031 L 52 13.332031 L 51.996094 13.332031 C 51.996094 13.324219 52 13.3125 52 13.300781 C 52 7.910156 43.570312 4 31.953125 4 C 21.242188 4 12.179688 8.0625 12.046875 12.894531 L 12 13.300781 C 12 13.3125 12.003906 13.324219 12.003906 13.332031 L 12 13.332031 L 12 32 L 14.667969 32 Z M 14.667969 17.496094 "/>
</svg>
