<?xml version="1.0" encoding="UTF-8"?>
<svg xmlns="http://www.w3.org/2000/svg" xmlns:xlink="http://www.w3.org/1999/xlink" width="64" height="64" viewBox="0 0 64 64">
<path fill-rule="evenodd" fill="rgb(78.823531%, 14.509805%, 81.960785%)" fill-opacity="1" d="M 58.542969 52.613281 C 58.542969 55.886719 55.882812 58.546875 52.613281 58.546875 L 11.261719 58.546875 C 7.992188 58.546875 5.332031 55.886719 5.332031 52.613281 L 5.332031 11.265625 C 5.332031 7.992188 7.992188 5.332031 11.261719 5.332031 L 52.613281 5.332031 C 55.882812 5.332031 58.542969 7.992188 58.542969 11.265625 Z M 52.613281 2.667969 L 11.261719 2.667969 C 6.523438 2.667969 2.667969 6.523438 2.667969 11.265625 L 2.667969 52.613281 C 2.667969 57.355469 6.523438 61.210938 11.261719 61.210938 L 52.613281 61.210938 C 57.355469 61.210938 61.210938 57.355469 61.210938 52.613281 L 61.210938 11.265625 C 61.210938 6.523438 57.355469 2.667969 52.613281 2.667969 Z M 52.246094 17.816406 L 49.832031 17.816406 C 49.878906 16.324219 50.335938 15.578125 51.199219 15.578125 C 51.5625 15.578125 51.824219 15.71875 51.992188 16 C 52.160156 16.285156 52.246094 16.753906 52.246094 17.398438 Z M 54.339844 17.652344 C 54.339844 15.152344 53.316406 13.902344 51.273438 13.902344 C 50.082031 13.902344 49.171875 14.316406 48.539062 15.144531 C 47.910156 15.976562 47.59375 17.175781 47.59375 18.753906 C 47.59375 21.976562 48.878906 23.585938 51.453125 23.585938 C 51.945312 23.585938 52.4375 23.527344 52.933594 23.40625 C 53.425781 23.285156 53.839844 23.117188 54.175781 22.902344 L 54.175781 21.261719 C 53.78125 21.402344 53.378906 21.519531 52.976562 21.609375 C 52.574219 21.699219 52.234375 21.746094 51.957031 21.746094 C 51.222656 21.746094 50.695312 21.566406 50.371094 21.207031 C 50.046875 20.84375 49.867188 20.230469 49.832031 19.367188 L 54.160156 19.367188 C 54.277344 18.847656 54.339844 18.277344 54.339844 17.652344 Z M 46.152344 21.585938 C 46.246094 21.585938 46.421875 21.566406 46.675781 21.53125 L 46.675781 23.191406 C 46.242188 23.367188 45.761719 23.460938 45.230469 23.460938 C 44.511719 23.460938 43.972656 23.257812 43.617188 22.855469 C 43.261719 22.453125 43.085938 21.835938 43.085938 21.007812 L 43.085938 10.003906 L 45.554688 10.003906 L 45.554688 20.734375 C 45.554688 21.046875 45.59375 21.269531 45.671875 21.394531 C 45.75 21.519531 45.910156 21.585938 46.152344 21.585938 Z M 39.890625 21.636719 C 40.386719 21.636719 40.925781 21.523438 41.515625 21.296875 L 41.515625 22.9375 C 41.261719 23.117188 40.945312 23.257812 40.558594 23.359375 C 40.175781 23.460938 39.773438 23.515625 39.351562 23.515625 C 38.136719 23.515625 37.21875 23.109375 36.59375 22.308594 C 35.96875 21.5 35.652344 20.320312 35.652344 18.769531 C 35.652344 17.246094 35.988281 16.0625 36.65625 15.226562 C 37.320312 14.390625 38.257812 13.972656 39.460938 13.972656 C 40.167969 13.972656 40.84375 14.152344 41.480469 14.511719 L 41.480469 16.15625 C 40.925781 15.949219 40.414062 15.847656 39.945312 15.847656 C 39.296875 15.847656 38.832031 16.066406 38.550781 16.507812 C 38.265625 16.945312 38.125 17.652344 38.125 18.625 L 38.125 18.878906 C 38.125 19.851562 38.261719 20.554688 38.539062 20.988281 C 38.816406 21.421875 39.265625 21.636719 39.890625 21.636719 Z M 31.703125 21.277344 C 31.308594 21.664062 30.910156 21.855469 30.515625 21.855469 C 30.261719 21.855469 30.058594 21.75 29.910156 21.539062 C 29.757812 21.328125 29.683594 21.042969 29.683594 20.683594 C 29.683594 20.261719 29.777344 19.941406 29.964844 19.714844 C 30.148438 19.496094 30.417969 19.382812 30.765625 19.382812 C 31.128906 19.382812 31.441406 19.425781 31.703125 19.511719 Z M 31 13.902344 C 30.410156 13.902344 29.835938 13.96875 29.269531 14.097656 C 28.703125 14.230469 28.246094 14.410156 27.902344 14.640625 L 27.902344 16.28125 C 28.945312 15.894531 29.828125 15.703125 30.550781 15.703125 C 30.996094 15.703125 31.300781 15.816406 31.460938 16.039062 C 31.625 16.261719 31.703125 16.683594 31.703125 17.308594 L 31.703125 18.140625 C 31.152344 17.996094 30.6875 17.921875 30.316406 17.921875 C 29.414062 17.921875 28.699219 18.183594 28.167969 18.707031 C 27.640625 19.230469 27.375 19.941406 27.375 20.84375 C 27.375 21.699219 27.59375 22.367188 28.023438 22.855469 C 28.460938 23.339844 29.046875 23.585938 29.792969 23.585938 C 30.191406 23.585938 30.578125 23.488281 30.964844 23.289062 C 31.351562 23.089844 31.644531 22.835938 31.851562 22.519531 L 32.066406 23.351562 L 33.976562 23.351562 L 33.976562 16.894531 C 33.976562 15.847656 33.742188 15.089844 33.273438 14.613281 C 32.804688 14.136719 32.046875 13.902344 31 13.902344 Z M 26.023438 14.042969 C 26.214844 14.042969 26.410156 14.0625 26.601562 14.097656 L 26.601562 16.28125 C 26.261719 16.222656 25.945312 16.191406 25.644531 16.191406 C 25.070312 16.191406 24.519531 16.335938 24.003906 16.625 L 24.003906 23.351562 L 21.53125 23.351562 L 21.53125 14.136719 L 23.550781 14.136719 L 23.820312 15.324219 C 24.183594 14.878906 24.542969 14.554688 24.898438 14.351562 C 25.25 14.148438 25.628906 14.042969 26.023438 14.042969 Z M 16.355469 20.449219 C 15.949219 21.207031 15.347656 21.585938 14.550781 21.585938 C 13.757812 21.585938 13.15625 21.207031 12.75 20.449219 C 12.34375 19.691406 12.136719 18.570312 12.136719 17.09375 C 12.136719 15.578125 12.332031 14.453125 12.734375 13.71875 C 13.128906 12.988281 13.734375 12.621094 14.550781 12.621094 C 15.371094 12.621094 15.976562 12.988281 16.375 13.71875 C 16.769531 14.453125 16.96875 15.578125 16.96875 17.09375 C 16.96875 18.570312 16.765625 19.691406 16.355469 20.449219 Z M 14.550781 10.582031 C 12.964844 10.582031 11.734375 11.148438 10.855469 12.285156 C 9.976562 13.421875 9.539062 15.023438 9.539062 17.09375 C 9.539062 19.160156 9.976562 20.765625 10.855469 21.90625 C 11.734375 23.050781 12.964844 23.621094 14.550781 23.621094 C 16.140625 23.621094 17.371094 23.050781 18.25 21.90625 C 19.128906 20.765625 19.566406 19.160156 19.566406 17.09375 C 19.566406 15.023438 19.128906 13.421875 18.25 12.285156 C 17.371094 11.148438 16.140625 10.582031 14.550781 10.582031 Z M 14.550781 10.582031 "/>
</svg>
