<?xml version="1.0" encoding="UTF-8"?>
<svg xmlns="http://www.w3.org/2000/svg" xmlns:xlink="http://www.w3.org/1999/xlink" width="64" height="64" viewBox="0 0 64 64">
<path fill-rule="evenodd" fill="rgb(78.823531%, 14.509805%, 81.960785%)" fill-opacity="1" d="M 47.167969 54 C 45.648438 54 44.414062 52.765625 44.414062 51.25 C 44.414062 49.734375 45.648438 48.5 47.167969 48.5 C 48.683594 48.5 49.917969 49.734375 49.917969 51.25 C 49.917969 52.765625 48.683594 54 47.167969 54 Z M 47.167969 45.832031 C 44.179688 45.832031 41.75 48.261719 41.75 51.25 C 41.75 54.238281 44.179688 56.667969 47.167969 56.667969 C 50.152344 56.667969 52.582031 54.238281 52.582031 51.25 C 52.582031 48.261719 50.152344 45.832031 47.167969 45.832031 Z M 47.167969 34.167969 C 45.648438 34.167969 44.414062 32.933594 44.414062 31.417969 C 44.414062 29.898438 45.648438 28.667969 47.167969 28.667969 C 48.683594 28.667969 49.917969 29.898438 49.917969 31.417969 C 49.917969 32.933594 48.683594 34.167969 47.167969 34.167969 Z M 47.167969 26 C 44.179688 26 41.75 28.429688 41.75 31.417969 C 41.75 34.402344 44.179688 36.832031 47.167969 36.832031 C 50.152344 36.832031 52.582031 34.402344 52.582031 31.417969 C 52.582031 28.429688 50.152344 26 47.167969 26 Z M 47.167969 8.832031 C 48.683594 8.832031 49.917969 10.066406 49.917969 11.585938 C 49.917969 13.101562 48.683594 14.332031 47.167969 14.332031 C 45.648438 14.332031 44.414062 13.101562 44.414062 11.585938 C 44.414062 10.066406 45.648438 8.832031 47.167969 8.832031 Z M 47.167969 17 C 50.152344 17 52.582031 14.570312 52.582031 11.585938 C 52.582031 8.597656 50.152344 6.167969 47.167969 6.167969 C 44.179688 6.167969 41.75 8.597656 41.75 11.585938 C 41.75 14.570312 44.179688 17 47.167969 17 Z M 5.332031 57.5 L 28.332031 57.5 L 28.332031 45 L 5.332031 45 Z M 2.667969 60.167969 L 31 60.167969 L 31 42.332031 L 2.667969 42.332031 Z M 5.332031 37.667969 L 28.332031 37.667969 L 28.332031 25.167969 L 5.332031 25.167969 Z M 2.667969 40.332031 L 31 40.332031 L 31 22.5 L 2.667969 22.5 Z M 5.332031 17.832031 L 28.332031 17.832031 L 28.332031 5.332031 L 5.332031 5.332031 Z M 2.667969 20.5 L 31 20.5 L 31 2.667969 L 2.667969 2.667969 Z M 35.667969 57.5 L 58.667969 57.5 L 58.667969 45 L 35.667969 45 Z M 33 60.167969 L 61.332031 60.167969 L 61.332031 42.332031 L 33 42.332031 Z M 35.667969 37.667969 L 58.667969 37.667969 L 58.667969 25.167969 L 35.667969 25.167969 Z M 33 40.332031 L 61.332031 40.332031 L 61.332031 22.5 L 33 22.5 Z M 35.667969 17.832031 L 58.667969 17.832031 L 58.667969 5.332031 L 35.667969 5.332031 Z M 33 20.5 L 61.332031 20.5 L 61.332031 2.667969 L 33 2.667969 Z M 33 20.5 "/>
</svg>
