<?xml version="1.0" encoding="UTF-8"?>
<svg xmlns="http://www.w3.org/2000/svg" xmlns:xlink="http://www.w3.org/1999/xlink" width="64" height="64" viewBox="0 0 64 64">
<path fill-rule="evenodd" fill="rgb(54.901963%, 30.980393%, 100%)" fill-opacity="1" d="M 5.332031 44 L 5.332031 6.667969 L 32 6.667969 L 32 9.332031 L 9.332031 9.332031 L 9.332031 44 Z M 54.589844 45.519531 L 54.589844 48.1875 C 56.023438 48.1875 58.835938 49.601562 58.835938 52.875 C 58.835938 58.457031 53.71875 58.660156 53.140625 58.667969 L 28.835938 58.667969 C 24.417969 58.667969 21.332031 56.359375 21.332031 53.058594 L 21.332031 52.640625 C 21.332031 49.410156 24.859375 47.992188 27.023438 47.425781 C 27.066406 47.417969 27.113281 47.40625 27.15625 47.394531 C 27.777344 47.207031 28.175781 46.601562 28.097656 45.957031 C 28.074219 45.753906 28.085938 45.511719 28.09375 45.28125 C 28.101562 45.121094 28.105469 44.964844 28.105469 44.824219 C 28.105469 42.074219 30.261719 38.085938 33.144531 36.863281 C 36.371094 35.496094 39.070312 36.503906 40.765625 37.589844 L 42.203125 35.339844 C 39.039062 33.320312 35.457031 32.988281 32.105469 34.40625 C 28.492188 35.9375 25.4375 40.707031 25.4375 44.824219 L 25.433594 45.109375 C 22.625 46.007812 20.625 47.476562 19.554688 49.332031 L 12 49.332031 L 12 12 L 38.667969 12 L 38.667969 29.332031 L 41.332031 29.332031 L 41.332031 9.332031 L 34.667969 9.332031 L 34.667969 4 L 2.667969 4 L 2.667969 46.667969 L 9.332031 46.667969 L 9.332031 52 L 18.722656 52 C 18.707031 52.214844 18.667969 52.421875 18.667969 52.640625 L 18.667969 53.058594 C 18.667969 57.851562 22.945312 61.332031 28.835938 61.332031 L 53.140625 61.332031 C 56.035156 61.332031 61.5 59.566406 61.5 52.875 C 61.5 48.074219 57.488281 45.519531 54.589844 45.519531 Z M 50.59375 32 C 52.789062 32 54.386719 33.597656 54.386719 35.796875 C 54.386719 37.222656 52.421875 40.816406 50.59375 43.65625 C 48.761719 40.816406 46.796875 37.226562 46.796875 35.796875 C 46.796875 33.597656 48.394531 32 50.59375 32 Z M 50.59375 47.386719 C 51.027344 47.386719 51.4375 47.171875 51.683594 46.816406 C 52.582031 45.53125 57.054688 38.972656 57.054688 35.796875 C 57.054688 32.113281 54.277344 29.332031 50.59375 29.332031 C 46.910156 29.332031 44.128906 32.113281 44.128906 35.796875 C 44.128906 38.972656 48.601562 45.535156 49.5 46.816406 C 49.75 47.171875 50.15625 47.386719 50.59375 47.386719 Z M 50.59375 47.386719 "/>
</svg>
