<?xml version="1.0" encoding="UTF-8"?>
<svg xmlns="http://www.w3.org/2000/svg" xmlns:xlink="http://www.w3.org/1999/xlink" width="64" height="64" viewBox="0 0 64 64">
<path fill-rule="evenodd" fill="rgb(54.901963%, 30.980393%, 100%)" fill-opacity="1" d="M 29.835938 34.167969 L 35.335938 34.167969 L 35.335938 28.667969 L 29.835938 28.667969 Z M 38.003906 34.167969 L 43.503906 34.167969 L 43.503906 28.667969 L 38.003906 28.667969 Z M 28.5 36.835938 L 44.835938 36.835938 C 45.570312 36.835938 46.167969 36.238281 46.167969 35.503906 L 46.167969 27.335938 C 46.167969 26.597656 45.570312 26 44.835938 26 L 28.5 26 C 27.765625 26 27.167969 26.597656 27.167969 27.335938 L 27.167969 35.503906 C 27.167969 36.238281 27.765625 36.835938 28.5 36.835938 Z M 50.503906 38.835938 L 47.167969 38.835938 C 46.433594 38.835938 45.835938 39.433594 45.835938 40.167969 L 45.835938 42.335938 L 42.667969 42.335938 L 42.667969 40.167969 C 42.667969 39.433594 42.070312 38.835938 41.335938 38.835938 L 36.667969 38.835938 C 35.933594 38.835938 35.335938 39.433594 35.335938 40.167969 L 35.335938 42.335938 L 26.335938 42.335938 L 26.335938 40.167969 C 26.335938 39.433594 25.738281 38.835938 25 38.835938 L 24 38.835938 L 24 24 L 50.503906 24 Z M 51.835938 21.335938 L 22.667969 21.335938 C 21.929688 21.335938 21.335938 21.929688 21.335938 22.667969 L 21.335938 40.167969 C 21.335938 40.90625 21.929688 41.503906 22.667969 41.503906 L 23.667969 41.503906 L 23.667969 43.667969 C 23.667969 44.40625 24.265625 45.003906 25 45.003906 L 36.667969 45.003906 C 37.40625 45.003906 38.003906 44.40625 38.003906 43.667969 L 38.003906 41.503906 L 40.003906 41.503906 L 40.003906 43.667969 C 40.003906 44.40625 40.597656 45.003906 41.335938 45.003906 L 47.167969 45.003906 C 47.90625 45.003906 48.503906 44.40625 48.503906 43.667969 L 48.503906 41.503906 L 51.835938 41.503906 C 52.570312 41.503906 53.167969 40.90625 53.167969 40.167969 L 53.167969 22.667969 C 53.167969 21.929688 52.570312 21.335938 51.835938 21.335938 Z M 19.335938 20.335938 L 19.335938 46.003906 C 19.335938 46.738281 18.738281 47.335938 18 47.335938 L 13.800781 47.335938 L 13.800781 44.667969 L 16.667969 44.667969 L 16.667969 21.667969 L 13.800781 21.667969 L 13.800781 19 L 18 19 C 18.738281 19 19.335938 19.597656 19.335938 20.335938 Z M 32.003906 58.671875 C 17.296875 58.671875 5.332031 46.707031 5.332031 32 C 5.332031 17.296875 17.296875 5.332031 32.003906 5.332031 C 46.707031 5.332031 58.667969 17.296875 58.667969 32 C 58.667969 46.707031 46.707031 58.671875 32.003906 58.671875 Z M 32.003906 2.667969 C 15.828125 2.667969 2.667969 15.824219 2.667969 32 C 2.667969 48.175781 15.828125 61.335938 32.003906 61.335938 C 48.175781 61.335938 61.335938 48.175781 61.335938 32 C 61.335938 15.824219 48.175781 2.667969 32.003906 2.667969 Z M 32.003906 2.667969 "/>
</svg>
