<?xml version="1.0" encoding="UTF-8"?>
<svg xmlns="http://www.w3.org/2000/svg" xmlns:xlink="http://www.w3.org/1999/xlink" width="64" height="64" viewBox="0 0 64 64">
<path fill-rule="evenodd" fill="rgb(54.901963%, 30.980393%, 100%)" fill-opacity="1" d="M 5.332031 58.519531 L 5.332031 38.714844 C 10.355469 36.046875 15.710938 34.164062 21.285156 33.105469 L 21.285156 42.566406 L 42.566406 42.566406 L 42.566406 33.105469 C 48.140625 34.164062 53.496094 36.046875 58.519531 38.714844 L 58.519531 58.519531 Z M 23.949219 39.902344 L 39.902344 39.902344 L 39.902344 23.949219 L 23.949219 23.949219 Z M 58.519531 5.332031 L 58.519531 35.707031 C 53.472656 33.175781 48.121094 31.398438 42.566406 30.394531 L 42.566406 21.285156 L 21.285156 21.285156 L 21.285156 30.394531 C 15.730469 31.398438 10.378906 33.175781 5.332031 35.707031 L 5.332031 5.332031 Z M 2.667969 61.183594 L 61.183594 61.183594 L 61.183594 2.667969 L 2.667969 2.667969 Z M 2.667969 61.183594 "/>
</svg>
