<?xml version="1.0" encoding="UTF-8"?>
<svg xmlns="http://www.w3.org/2000/svg" xmlns:xlink="http://www.w3.org/1999/xlink" width="64" height="64" viewBox="0 0 64 64">
<path fill-rule="evenodd" fill="rgb(54.901963%, 30.980393%, 100%)" fill-opacity="1" d="M 43.5 47.167969 L 46.167969 47.167969 L 46.167969 16.832031 L 43.5 16.832031 Z M 17.832031 47.167969 L 20.5 47.167969 L 20.5 16.832031 L 17.832031 16.832031 Z M 52.832031 33.980469 L 50.457031 32 L 52.832031 30.019531 Z M 54.730469 25.964844 C 54.269531 25.746094 53.710938 25.816406 53.3125 26.148438 L 47.519531 30.976562 C 47.214844 31.230469 47.039062 31.605469 47.039062 32 C 47.039062 32.398438 47.214844 32.773438 47.519531 33.027344 L 53.3125 37.851562 C 53.558594 38.054688 53.863281 38.160156 54.167969 38.160156 C 54.359375 38.160156 54.550781 38.121094 54.730469 38.035156 C 55.199219 37.816406 55.5 37.34375 55.5 36.828125 L 55.5 27.171875 C 55.5 26.65625 55.199219 26.183594 54.730469 25.964844 Z M 11.167969 33.980469 L 11.167969 30.019531 L 13.542969 32 Z M 10.6875 26.148438 C 10.289062 25.820312 9.734375 25.746094 9.269531 25.964844 C 8.800781 26.183594 8.5 26.65625 8.5 27.171875 L 8.5 36.828125 C 8.5 37.34375 8.800781 37.816406 9.269531 38.035156 C 9.449219 38.121094 9.640625 38.160156 9.832031 38.160156 C 10.140625 38.160156 10.441406 38.054688 10.6875 37.851562 L 16.480469 33.027344 C 16.785156 32.773438 16.960938 32.398438 16.960938 32 C 16.960938 31.605469 16.785156 31.230469 16.480469 30.976562 Z M 32 58.667969 C 17.296875 58.667969 5.332031 46.707031 5.332031 32 C 5.332031 17.296875 17.296875 5.332031 32 5.332031 C 46.703125 5.332031 58.667969 17.296875 58.667969 32 C 58.667969 46.707031 46.703125 58.667969 32 58.667969 Z M 32 2.667969 C 15.824219 2.667969 2.667969 15.824219 2.667969 32 C 2.667969 48.175781 15.824219 61.335938 32 61.335938 C 48.175781 61.335938 61.332031 48.175781 61.332031 32 C 61.332031 15.824219 48.175781 2.667969 32 2.667969 Z M 37.660156 38.835938 L 26.332031 38.828125 L 26.335938 29.835938 L 37.667969 29.839844 Z M 29.839844 25.402344 C 29.839844 24.664062 30.089844 23.984375 30.535156 23.476562 C 30.941406 23.023438 31.464844 22.773438 32.007812 22.773438 L 32.015625 22.773438 C 33.203125 22.777344 34.164062 23.96875 34.160156 25.433594 L 34.15625 27.171875 L 29.832031 27.167969 Z M 39 27.171875 L 36.824219 27.171875 L 36.824219 25.4375 C 36.835938 22.507812 34.679688 20.113281 32.023438 20.105469 L 32.007812 20.105469 C 30.691406 20.105469 29.460938 20.675781 28.542969 21.707031 C 27.664062 22.699219 27.175781 24.007812 27.171875 25.390625 L 27.164062 27.167969 L 25.003906 27.167969 C 24.648438 27.167969 24.308594 27.308594 24.058594 27.558594 C 23.808594 27.808594 23.667969 28.148438 23.667969 28.5 L 23.667969 40.160156 C 23.667969 40.898438 24.261719 41.496094 25 41.496094 L 38.996094 41.5 C 39.347656 41.5 39.6875 41.363281 39.9375 41.109375 C 40.1875 40.863281 40.328125 40.523438 40.328125 40.167969 L 40.332031 28.507812 C 40.332031 28.152344 40.191406 27.8125 39.941406 27.5625 C 39.691406 27.3125 39.355469 27.171875 39 27.171875 Z M 39 27.171875 "/>
</svg>
