<?xml version="1.0" encoding="UTF-8"?>
<svg xmlns="http://www.w3.org/2000/svg" xmlns:xlink="http://www.w3.org/1999/xlink" width="64" height="64" viewBox="0 0 64 64">
<path fill-rule="evenodd" fill="rgb(54.901963%, 30.980393%, 100%)" fill-opacity="1" d="M 56 53.332031 C 56 54.804688 54.804688 56 53.332031 56 C 51.863281 56 50.667969 54.804688 50.667969 53.332031 C 50.667969 51.863281 51.863281 50.667969 53.332031 50.667969 C 54.804688 50.667969 56 51.863281 56 53.332031 M 13.332031 10.667969 C 13.332031 12.136719 12.136719 13.332031 10.667969 13.332031 C 9.195312 13.332031 8 12.136719 8 10.667969 C 8 9.195312 9.195312 8 10.667969 8 C 12.136719 8 13.332031 9.195312 13.332031 10.667969 M 53.332031 58.667969 C 50.390625 58.667969 48 56.273438 48 53.332031 C 48 50.390625 50.390625 48 53.332031 48 C 56.273438 48 58.667969 50.390625 58.667969 53.332031 C 58.667969 56.273438 56.273438 58.667969 53.332031 58.667969 M 32 26.667969 C 34.941406 26.667969 37.332031 29.058594 37.332031 32 C 37.332031 34.941406 34.941406 37.332031 32 37.332031 C 29.058594 37.332031 26.667969 34.941406 26.667969 32 C 26.667969 29.058594 29.058594 26.667969 32 26.667969 M 10.667969 16 C 7.726562 16 5.332031 13.609375 5.332031 10.667969 C 5.332031 7.726562 7.726562 5.332031 10.667969 5.332031 C 13.609375 5.332031 16 7.726562 16 10.667969 C 16 13.609375 13.609375 16 10.667969 16 M 53.332031 45.332031 C 49.378906 45.332031 46.089844 48.222656 45.453125 52 L 18.667969 52 C 13.519531 52 9.332031 47.8125 9.332031 42.667969 C 9.332031 37.519531 13.519531 33.332031 18.667969 33.332031 L 24.121094 33.332031 C 24.757812 37.109375 28.042969 40 32 40 C 35.957031 40 39.242188 37.109375 39.878906 33.332031 L 45.332031 33.332031 C 51.949219 33.332031 57.332031 27.949219 57.332031 21.332031 C 57.332031 14.71875 51.949219 9.332031 45.332031 9.332031 L 18.546875 9.332031 C 17.910156 5.554688 14.621094 2.667969 10.667969 2.667969 C 6.253906 2.667969 2.667969 6.253906 2.667969 10.667969 C 2.667969 15.078125 6.253906 18.667969 10.667969 18.667969 C 14.621094 18.667969 17.910156 15.777344 18.546875 12 L 45.332031 12 C 50.480469 12 54.667969 16.1875 54.667969 21.332031 C 54.667969 26.480469 50.480469 30.667969 45.332031 30.667969 L 39.878906 30.667969 C 39.242188 26.890625 35.957031 24 32 24 C 28.042969 24 24.757812 26.890625 24.121094 30.667969 L 18.667969 30.667969 C 12.050781 30.667969 6.667969 36.050781 6.667969 42.667969 C 6.667969 49.28125 12.050781 54.667969 18.667969 54.667969 L 45.453125 54.667969 C 46.089844 58.445312 49.378906 61.332031 53.332031 61.332031 C 57.746094 61.332031 61.332031 57.746094 61.332031 53.332031 C 61.332031 48.921875 57.746094 45.332031 53.332031 45.332031 "/>
</svg>
