<?xml version="1.0" encoding="UTF-8"?>
<svg xmlns="http://www.w3.org/2000/svg" xmlns:xlink="http://www.w3.org/1999/xlink" width="64" height="64" viewBox="0 0 64 64">
<path fill-rule="evenodd" fill="rgb(54.901963%, 30.980393%, 100%)" fill-opacity="1" d="M 27.492188 36.800781 L 29.378906 38.6875 L 35.195312 32.867188 C 35.71875 32.347656 35.71875 31.503906 35.195312 30.984375 L 29.378906 25.164062 L 27.492188 27.050781 L 31.035156 30.59375 L 8.652344 30.59375 L 8.652344 33.257812 L 31.035156 33.257812 Z M 58.519531 31.925781 C 58.519531 17.261719 46.589844 5.332031 31.925781 5.332031 C 17.261719 5.332031 5.332031 17.261719 5.332031 31.925781 C 5.332031 46.589844 17.261719 58.519531 31.925781 58.519531 C 46.589844 58.519531 58.519531 46.589844 58.519531 31.925781 Z M 61.1875 31.925781 C 61.1875 48.058594 48.0625 61.1875 31.925781 61.1875 C 15.792969 61.1875 2.667969 48.058594 2.667969 31.925781 C 2.667969 15.792969 15.792969 2.664062 31.925781 2.664062 C 48.0625 2.664062 61.1875 15.792969 61.1875 31.925781 Z M 21.285156 35.417969 L 21.285156 36.023438 C 21.285156 36.101562 21.289062 36.179688 21.304688 36.257812 C 21.390625 36.726562 23.460938 47.675781 31.925781 47.675781 C 40.390625 47.675781 42.464844 36.726562 42.546875 36.257812 C 42.5625 36.179688 42.570312 36.101562 42.570312 36.023438 L 42.570312 21.953125 C 42.570312 21.410156 42.238281 20.921875 41.734375 20.71875 L 32.421875 16.96875 C 32.105469 16.84375 31.746094 16.84375 31.429688 16.96875 L 22.121094 20.71875 C 21.613281 20.921875 21.285156 21.410156 21.285156 21.953125 L 21.285156 28.433594 L 23.949219 28.433594 L 23.949219 22.855469 L 31.925781 19.644531 L 39.902344 22.855469 L 39.902344 35.890625 C 39.6875 36.917969 37.796875 45.011719 31.925781 45.011719 C 26.058594 45.011719 24.167969 36.917969 23.949219 35.890625 L 23.949219 35.417969 Z M 47.222656 17.765625 L 47.222656 35.566406 C 47.222656 41.609375 44.023438 53.039062 31.925781 53.039062 C 25.628906 53.039062 20.976562 49.785156 18.472656 43.621094 C 17.140625 40.355469 16.769531 37.132812 16.667969 35.5 L 19.328125 35.332031 C 19.402344 36.515625 19.707031 39.59375 20.941406 42.617188 C 23.035156 47.765625 26.730469 50.375 31.925781 50.375 C 44.371094 50.375 44.554688 36.171875 44.554688 35.566406 L 44.554688 18.664062 L 31.925781 13.582031 L 19.296875 18.664062 L 19.296875 28.433594 L 16.628906 28.433594 L 16.628906 17.765625 C 16.628906 17.21875 16.960938 16.730469 17.464844 16.527344 L 31.429688 10.90625 C 31.746094 10.78125 32.105469 10.78125 32.421875 10.90625 L 46.386719 16.527344 C 46.890625 16.730469 47.222656 17.21875 47.222656 17.765625 Z M 47.222656 17.765625 "/>
</svg>
