<?xml version="1.0" encoding="UTF-8"?>
<svg xmlns="http://www.w3.org/2000/svg" xmlns:xlink="http://www.w3.org/1999/xlink" width="64" height="64" viewBox="0 0 64 64">
<path fill-rule="evenodd" fill="rgb(54.901963%, 30.980393%, 100%)" fill-opacity="1" d="M 49.332031 52.160156 L 56 52.160156 L 56 49.496094 L 49.332031 49.496094 Z M 42.667969 54.828125 C 42.699219 54.828125 42.730469 54.828125 42.761719 54.824219 C 43.148438 54.796875 43.5 54.605469 43.734375 54.292969 L 47.734375 48.960938 L 45.601562 47.363281 L 42.523438 51.464844 L 40.941406 49.886719 L 39.058594 51.769531 L 41.722656 54.4375 C 41.976562 54.6875 42.3125 54.828125 42.667969 54.828125 Z M 49.332031 42.828125 L 56 42.828125 L 56 40.160156 L 49.332031 40.160156 Z M 42.667969 45.496094 C 42.699219 45.496094 42.730469 45.492188 42.761719 45.492188 C 43.148438 45.464844 43.5 45.269531 43.734375 44.960938 L 47.734375 39.628906 L 45.601562 38.027344 L 42.523438 42.128906 L 40.941406 40.550781 L 39.058594 42.4375 L 41.722656 45.105469 C 41.976562 45.355469 42.3125 45.496094 42.667969 45.496094 Z M 37.332031 58.65625 L 58.667969 58.65625 L 58.667969 33.324219 L 37.332031 33.324219 Z M 61.332031 31.992188 L 61.332031 59.992188 C 61.332031 60.726562 60.738281 61.324219 60 61.324219 L 36 61.324219 C 35.261719 61.324219 34.667969 60.726562 34.667969 59.992188 L 34.667969 31.992188 C 34.667969 31.253906 35.261719 30.65625 36 30.65625 L 60 30.65625 C 60.738281 30.65625 61.332031 31.253906 61.332031 31.992188 Z M 26.667969 34.65625 C 27.007812 34.65625 27.347656 34.527344 27.609375 34.265625 L 31.609375 30.265625 L 29.722656 28.382812 L 28 30.105469 L 28 17.875 L 29.722656 19.601562 L 31.609375 17.714844 L 27.609375 13.714844 C 27.089844 13.191406 26.246094 13.191406 25.722656 13.714844 L 21.722656 17.714844 L 23.609375 19.601562 L 25.332031 17.875 L 25.332031 30.105469 L 23.609375 28.382812 L 21.722656 30.265625 L 25.722656 34.265625 C 25.984375 34.527344 26.324219 34.65625 26.667969 34.65625 Z M 19.609375 28.933594 L 23.609375 24.933594 C 24.128906 24.410156 24.128906 23.570312 23.609375 23.046875 L 19.609375 19.046875 L 17.722656 20.933594 L 19.449219 22.65625 L 14.667969 22.65625 L 14.667969 25.324219 L 19.449219 25.324219 L 17.722656 27.046875 Z M 33.886719 25.324219 L 38.667969 25.324219 L 38.667969 22.65625 L 33.886719 22.65625 L 35.609375 20.933594 L 33.722656 19.046875 L 29.722656 23.046875 C 29.203125 23.570312 29.203125 24.410156 29.722656 24.933594 L 33.722656 28.933594 L 35.609375 27.046875 Z M 16 38.65625 L 32 38.65625 L 32 41.324219 L 16 41.324219 C 15.320312 41.324219 14.71875 41.328125 14.179688 41.332031 C 13.753906 41.335938 13.363281 41.339844 12.996094 41.339844 C 11.03125 41.339844 9.851562 41.246094 8.527344 40.597656 C 5.824219 39.265625 2.667969 35.683594 2.667969 29.964844 C 2.667969 22.828125 7.375 20.09375 10.28125 19.085938 L 10.238281 18.367188 C 10.234375 12.367188 14.191406 6.21875 19.4375 3.992188 C 25.578125 1.378906 32.089844 2.675781 36.84375 7.460938 C 38.234375 8.863281 39.390625 10.542969 40.289062 12.476562 C 42.167969 11.074219 44.625 10.628906 46.910156 11.378906 C 49.925781 12.367188 51.820312 15.113281 52.09375 18.8125 C 55.4375 19.769531 60.003906 22.675781 61.292969 27.835938 L 58.707031 28.484375 C 57.445312 23.4375 52.390625 21.507812 50.550781 21.1875 C 49.835938 21.066406 49.351562 20.394531 49.457031 19.679688 C 49.460938 16.75 48.226562 14.617188 46.078125 13.910156 C 44.1875 13.289062 42.097656 13.976562 40.882812 15.621094 C 40.589844 16.019531 40.09375 16.222656 39.613281 16.152344 C 39.125 16.078125 38.714844 15.738281 38.550781 15.273438 C 37.714844 12.898438 36.503906 10.902344 34.953125 9.339844 C 33.050781 7.429688 27.835938 3.320312 20.480469 6.445312 C 16.230469 8.25 12.902344 13.453125 12.902344 18.289062 L 13.003906 19.976562 C 13.042969 20.613281 12.621094 21.1875 12.003906 21.347656 C 9.511719 21.988281 5.332031 23.957031 5.332031 29.964844 C 5.332031 34.460938 7.6875 37.210938 9.703125 38.203125 C 10.664062 38.675781 11.472656 38.6875 14.15625 38.667969 C 14.703125 38.664062 15.3125 38.65625 16 38.65625 Z M 16 38.65625 "/>
</svg>
