<?xml version="1.0" encoding="UTF-8"?>
<svg xmlns="http://www.w3.org/2000/svg" xmlns:xlink="http://www.w3.org/1999/xlink" width="64" height="64" viewBox="0 0 64 64">
<path fill-rule="evenodd" fill="rgb(54.901963%, 30.980393%, 100%)" fill-opacity="1" d="M 18.167969 47.894531 L 18.167969 44.109375 L 20.53125 46.003906 Z M 17.667969 40.292969 C 17.265625 39.972656 16.714844 39.910156 16.253906 40.132812 C 15.796875 40.355469 15.5 40.824219 15.5 41.335938 L 15.5 50.667969 C 15.5 51.183594 15.796875 51.648438 16.253906 51.871094 C 16.441406 51.960938 16.636719 52.003906 16.835938 52.003906 C 17.132812 52.003906 17.425781 51.902344 17.667969 51.710938 L 23.5 47.042969 C 23.816406 46.789062 24 46.40625 24 46.003906 C 24 45.597656 23.816406 45.214844 23.5 44.960938 Z M 49.667969 35.78125 L 49.667969 30.554688 L 52.285156 33.167969 Z M 55.113281 32.226562 L 49.277344 26.390625 C 48.898438 26.011719 48.324219 25.894531 47.824219 26.101562 C 47.324219 26.308594 47.003906 26.796875 47.003906 27.335938 L 47.003906 31.835938 L 36.835938 31.835938 L 36.835938 19.167969 C 36.835938 18.429688 36.238281 17.835938 35.5 17.835938 L 25.242188 17.835938 L 25.242188 20.5 L 34.167969 20.5 L 34.167969 31.835938 L 25 31.835938 L 25 34.5 L 34.167969 34.5 L 34.167969 45.835938 L 25.242188 45.835938 L 25.242188 48.503906 L 35.5 48.503906 C 36.238281 48.503906 36.835938 47.90625 36.835938 47.167969 L 36.835938 34.5 L 47.003906 34.5 L 47.003906 39.003906 C 47.003906 39.542969 47.328125 40.027344 47.824219 40.234375 C 47.988281 40.304688 48.164062 40.335938 48.335938 40.335938 C 48.683594 40.335938 49.023438 40.199219 49.277344 39.945312 L 55.113281 34.109375 C 55.632812 33.589844 55.632812 32.746094 55.113281 32.226562 Z M 18.167969 35.0625 L 18.167969 31.277344 L 20.53125 33.167969 Z M 17.667969 27.460938 C 17.265625 27.136719 16.714844 27.078125 16.253906 27.300781 C 15.796875 27.523438 15.5 27.988281 15.5 28.5 L 15.5 37.835938 C 15.5 38.347656 15.796875 38.816406 16.253906 39.039062 C 16.441406 39.125 16.636719 39.167969 16.835938 39.167969 C 17.132812 39.167969 17.425781 39.070312 17.667969 38.878906 L 23.5 34.210938 C 23.816406 33.957031 24 33.574219 24 33.167969 C 24 32.761719 23.816406 32.378906 23.5 32.125 Z M 18.167969 21.058594 L 18.167969 17.277344 L 20.53125 19.167969 Z M 17.667969 13.460938 C 17.265625 13.136719 16.714844 13.074219 16.253906 13.300781 C 15.796875 13.523438 15.5 13.988281 15.5 14.5 L 15.5 23.835938 C 15.5 24.347656 15.796875 24.8125 16.253906 25.035156 C 16.441406 25.125 16.636719 25.167969 16.835938 25.167969 C 17.132812 25.167969 17.425781 25.070312 17.667969 24.875 L 23.5 20.210938 C 23.816406 19.957031 24 19.574219 24 19.167969 C 24 18.761719 23.816406 18.378906 23.5 18.125 Z M 32 58.671875 C 17.296875 58.671875 5.332031 46.707031 5.332031 32 C 5.332031 17.296875 17.296875 5.332031 32 5.332031 C 46.707031 5.332031 58.671875 17.296875 58.671875 32 C 58.671875 46.707031 46.707031 58.671875 32 58.671875 Z M 32 2.667969 C 15.824219 2.667969 2.664062 15.824219 2.664062 32 C 2.664062 48.175781 15.824219 61.335938 32 61.335938 C 48.175781 61.335938 61.335938 48.175781 61.335938 32 C 61.335938 15.824219 48.175781 2.667969 32 2.667969 Z M 32 2.667969 "/>
</svg>
