<?xml version="1.0" encoding="UTF-8"?>
<svg xmlns="http://www.w3.org/2000/svg" xmlns:xlink="http://www.w3.org/1999/xlink" width="64" height="64" viewBox="0 0 64 64">
<path fill-rule="evenodd" fill="rgb(54.901963%, 30.980393%, 100%)" fill-opacity="1" d="M 22.914062 32.933594 L 28.398438 32.933594 L 28.398438 27.453125 L 22.914062 27.453125 Z M 31.066406 32.933594 L 36.550781 32.933594 L 36.550781 27.453125 L 31.066406 27.453125 Z M 21.582031 35.601562 L 37.882812 35.601562 C 38.617188 35.601562 39.214844 35.003906 39.214844 34.269531 L 39.214844 26.117188 C 39.214844 25.382812 38.617188 24.785156 37.882812 24.785156 L 21.582031 24.785156 C 20.84375 24.785156 20.25 25.382812 20.25 26.117188 L 20.25 34.269531 C 20.25 35.003906 20.84375 35.601562 21.582031 35.601562 Z M 17.09375 22.796875 L 43.535156 22.796875 L 43.535156 37.589844 L 40.210938 37.589844 C 39.472656 37.589844 38.878906 38.1875 38.878906 38.925781 L 38.878906 41.085938 L 35.722656 41.085938 L 35.722656 38.925781 C 35.722656 38.1875 35.125 37.589844 34.386719 37.589844 L 29.730469 37.589844 C 28.996094 37.589844 28.398438 38.1875 28.398438 38.925781 L 28.398438 41.085938 L 19.425781 41.085938 L 19.425781 38.925781 C 19.425781 38.1875 18.828125 37.589844 18.089844 37.589844 L 17.09375 37.589844 Z M 14.429688 21.460938 L 14.429688 38.925781 C 14.429688 39.660156 15.023438 40.257812 15.761719 40.257812 L 16.757812 40.257812 L 16.757812 42.417969 C 16.757812 43.15625 17.351562 43.75 18.089844 43.75 L 29.730469 43.75 C 30.46875 43.75 31.066406 43.15625 31.066406 42.417969 L 31.066406 40.257812 L 33.054688 40.257812 L 33.054688 42.417969 C 33.054688 43.15625 33.652344 43.75 34.386719 43.75 L 40.210938 43.75 C 40.945312 43.75 41.542969 43.15625 41.542969 42.417969 L 41.542969 40.257812 L 44.867188 40.257812 C 45.605469 40.257812 46.199219 39.660156 46.199219 38.925781 L 46.199219 21.460938 C 46.199219 20.726562 45.605469 20.128906 44.867188 20.128906 L 15.761719 20.128906 C 15.023438 20.128906 14.429688 20.726562 14.429688 21.460938 Z M 12.4375 19.132812 L 12.4375 44.746094 C 12.4375 45.484375 11.839844 46.078125 11.105469 46.078125 L 6.914062 46.078125 L 6.914062 43.410156 L 9.773438 43.410156 L 9.773438 20.464844 L 6.914062 20.464844 L 6.914062 17.796875 L 11.105469 17.796875 C 11.839844 17.796875 12.4375 18.394531 12.4375 19.132812 Z M 40.378906 55.878906 L 40.378906 49.402344 C 40.378906 48.664062 39.78125 48.070312 39.046875 48.070312 L 5.980469 48.070312 C 5.617188 48.070312 5.332031 47.796875 5.332031 47.460938 L 5.453125 16.421875 C 5.453125 16.078125 5.734375 15.808594 6.101562 15.808594 L 39.164062 15.808594 C 39.519531 15.808594 39.863281 15.667969 40.113281 15.414062 C 40.363281 15.160156 40.5 14.816406 40.496094 14.460938 L 40.425781 8.058594 L 58.335938 31.941406 Z M 61.066406 31.140625 L 40.113281 3.199219 C 39.769531 2.738281 39.164062 2.554688 38.617188 2.734375 C 38.070312 2.921875 37.707031 3.4375 37.714844 4.015625 L 37.816406 13.144531 L 6.101562 13.144531 C 4.273438 13.144531 2.785156 14.613281 2.785156 16.417969 L 2.667969 47.457031 C 2.667969 49.265625 4.15625 50.734375 5.980469 50.734375 L 37.714844 50.734375 L 37.714844 59.878906 C 37.714844 60.453125 38.078125 60.964844 38.625 61.144531 C 38.765625 61.191406 38.90625 61.214844 39.046875 61.214844 C 39.457031 61.214844 39.855469 61.019531 40.113281 60.679688 L 61.066406 32.738281 C 61.425781 32.265625 61.425781 31.613281 61.066406 31.140625 Z M 61.066406 31.140625 "/>
</svg>
