<?xml version="1.0" encoding="UTF-8"?>
<svg xmlns="http://www.w3.org/2000/svg" xmlns:xlink="http://www.w3.org/1999/xlink" width="64" height="64" viewBox="0 0 64 64">
<path fill-rule="evenodd" fill="rgb(54.901963%, 30.980393%, 100%)" fill-opacity="1" d="M 5.332031 58.667969 L 58.667969 58.667969 L 58.667969 5.332031 L 5.332031 5.332031 Z M 60 2.667969 L 4 2.667969 C 3.261719 2.667969 2.667969 3.261719 2.667969 4 L 2.667969 60 C 2.667969 60.738281 3.261719 61.332031 4 61.332031 L 60 61.332031 C 60.738281 61.332031 61.332031 60.738281 61.332031 60 L 61.332031 4 C 61.332031 3.261719 60.738281 2.667969 60 2.667969 Z M 11.324219 22.324219 C 11.835938 21.8125 12.503906 21.558594 13.171875 21.558594 C 13.84375 21.558594 14.511719 21.8125 15.019531 22.324219 C 16.039062 23.339844 16.039062 25 15.019531 26.015625 C 14.003906 27.035156 12.34375 27.035156 11.324219 26.015625 C 10.308594 25 10.308594 23.339844 11.324219 22.324219 Z M 15.019531 46.121094 C 14.003906 47.140625 12.34375 47.140625 11.324219 46.121094 C 10.308594 45.105469 10.308594 43.445312 11.324219 42.429688 C 11.835938 41.917969 12.503906 41.664062 13.171875 41.664062 C 13.84375 41.664062 14.511719 41.917969 15.019531 42.429688 C 16.039062 43.445312 16.039062 45.105469 15.019531 46.121094 Z M 30.238281 49.542969 C 30.75 49.03125 31.417969 48.777344 32.085938 48.777344 C 32.757812 48.777344 33.425781 49.03125 33.933594 49.542969 C 34.953125 50.558594 34.953125 52.21875 33.933594 53.234375 C 32.914062 54.253906 31.257812 54.253906 30.238281 53.234375 C 29.222656 52.21875 29.222656 50.558594 30.238281 49.542969 Z M 30.238281 30.753906 C 30.75 30.246094 31.417969 29.988281 32.085938 29.988281 C 32.757812 29.988281 33.425781 30.246094 33.933594 30.753906 C 34.953125 31.773438 34.953125 33.429688 33.933594 34.449219 C 32.914062 35.464844 31.257812 35.464844 30.238281 34.449219 C 29.222656 33.429688 29.222656 31.773438 30.238281 30.753906 Z M 30.238281 10.765625 C 30.75 10.257812 31.417969 10 32.085938 10 C 32.757812 10 33.425781 10.257812 33.933594 10.765625 C 34.953125 11.785156 34.953125 13.441406 33.933594 14.460938 C 32.914062 15.476562 31.257812 15.476562 30.238281 14.460938 C 29.222656 13.441406 29.222656 11.785156 30.238281 10.765625 Z M 48.980469 17.878906 C 49.488281 17.367188 50.15625 17.113281 50.828125 17.113281 C 51.496094 17.113281 52.164062 17.367188 52.675781 17.878906 C 53.691406 18.898438 53.691406 20.554688 52.675781 21.574219 C 51.65625 22.589844 49.996094 22.589844 48.980469 21.574219 C 47.960938 20.554688 47.960938 18.894531 48.980469 17.878906 Z M 48.980469 39.09375 C 49.488281 38.585938 50.160156 38.332031 50.828125 38.332031 C 51.496094 38.332031 52.164062 38.585938 52.675781 39.09375 C 53.691406 40.113281 53.691406 41.769531 52.675781 42.789062 C 51.65625 43.808594 49.996094 43.804688 48.980469 42.789062 C 47.960938 41.769531 47.960938 40.113281 48.980469 39.09375 Z M 9.441406 40.542969 C 7.382812 42.601562 7.382812 45.949219 9.441406 48.007812 C 10.46875 49.039062 11.820312 49.550781 13.171875 49.550781 C 14.523438 49.550781 15.878906 49.039062 16.90625 48.007812 C 17.148438 47.765625 17.355469 47.503906 17.539062 47.230469 L 26.816406 51.449219 C 26.832031 52.78125 27.339844 54.105469 28.355469 55.121094 C 29.382812 56.152344 30.734375 56.664062 32.085938 56.664062 C 33.4375 56.664062 34.792969 56.152344 35.820312 55.121094 C 36.878906 54.0625 37.382812 52.664062 37.351562 51.273438 L 47.371094 44.898438 C 48.363281 45.765625 49.585938 46.21875 50.828125 46.21875 C 52.179688 46.21875 53.53125 45.703125 54.558594 44.675781 C 56.617188 42.617188 56.617188 39.269531 54.558594 37.210938 C 52.5 35.152344 49.152344 35.152344 47.09375 37.210938 C 45.613281 38.691406 45.214844 40.839844 45.867188 42.695312 L 36.566406 48.613281 C 36.355469 48.277344 36.113281 47.949219 35.820312 47.65625 C 35.109375 46.945312 34.242188 46.5 33.332031 46.277344 L 33.332031 37.710938 C 34.242188 37.492188 35.109375 37.042969 35.820312 36.332031 C 37.183594 34.96875 37.625 33.042969 37.179688 31.296875 L 47.5 23.789062 C 48.46875 24.582031 49.640625 25.003906 50.828125 25.003906 C 52.179688 25.003906 53.53125 24.488281 54.558594 23.457031 C 56.617188 21.402344 56.617188 18.050781 54.558594 15.992188 C 52.5 13.933594 49.152344 13.933594 47.09375 15.992188 C 45.570312 17.519531 45.179688 19.753906 45.917969 21.644531 L 35.882812 28.945312 C 35.859375 28.921875 35.84375 28.890625 35.820312 28.867188 C 35.109375 28.160156 34.242188 27.710938 33.332031 27.488281 L 33.332031 17.722656 C 34.242188 17.503906 35.109375 17.054688 35.820312 16.34375 C 37.878906 14.285156 37.878906 10.9375 35.820312 8.878906 C 33.761719 6.820312 30.410156 6.820312 28.355469 8.878906 C 26.296875 10.9375 26.296875 14.285156 28.355469 16.34375 C 29.015625 17.007812 29.820312 17.433594 30.667969 17.671875 L 30.667969 27.542969 C 29.820312 27.777344 29.015625 28.203125 28.355469 28.867188 C 26.296875 30.925781 26.296875 34.273438 28.355469 36.332031 C 29.015625 36.996094 29.820312 37.421875 30.667969 37.660156 L 30.667969 46.328125 C 29.820312 46.566406 29.015625 46.992188 28.355469 47.65625 C 28 48.011719 27.730469 48.410156 27.496094 48.828125 L 18.410156 44.699219 C 18.527344 43.207031 18.042969 41.679688 16.90625 40.542969 C 16.261719 39.898438 15.484375 39.480469 14.667969 39.238281 L 14.667969 29.207031 C 15.484375 28.964844 16.261719 28.546875 16.90625 27.902344 C 18.964844 25.84375 18.964844 22.496094 16.90625 20.4375 C 14.847656 18.378906 11.496094 18.378906 9.441406 20.4375 C 7.382812 22.496094 7.382812 25.84375 9.441406 27.902344 C 10.167969 28.632812 11.0625 29.089844 12 29.300781 L 12 39.144531 C 11.0625 39.355469 10.167969 39.8125 9.441406 40.542969 Z M 9.441406 40.542969 "/>
</svg>
