<?xml version="1.0" encoding="UTF-8"?>
<svg xmlns="http://www.w3.org/2000/svg" xmlns:xlink="http://www.w3.org/1999/xlink" width="64" height="64" viewBox="0 0 64 64">
<path fill-rule="evenodd" fill="rgb(54.901963%, 30.980393%, 100%)" fill-opacity="1" d="M 57.105469 30.667969 L 57.105469 33.332031 L 39.082031 33.332031 L 42.597656 36.851562 L 40.714844 38.734375 L 34.921875 32.941406 C 34.398438 32.421875 34.398438 31.578125 34.921875 31.058594 L 40.714844 25.265625 L 42.597656 27.148438 L 39.082031 30.667969 Z M 29.082031 32.941406 L 23.289062 38.734375 L 21.402344 36.851562 L 24.917969 33.332031 L 6.898438 33.332031 L 6.898438 30.667969 L 24.917969 30.667969 L 21.402344 27.148438 L 23.289062 25.265625 L 29.082031 31.058594 C 29.601562 31.578125 29.601562 32.421875 29.082031 32.941406 Z M 36.851562 48.4375 L 38.734375 50.324219 L 32.941406 56.117188 C 32.683594 56.375 32.339844 56.507812 32 56.507812 C 31.660156 56.507812 31.316406 56.375 31.058594 56.117188 L 25.265625 50.324219 L 27.148438 48.4375 L 30.667969 51.953125 L 30.667969 12.433594 L 27.21875 16.453125 L 25.195312 14.71875 L 30.988281 7.960938 C 31.496094 7.371094 32.503906 7.371094 33.011719 7.960938 L 38.804688 14.71875 L 36.78125 16.453125 L 33.332031 12.433594 L 33.332031 51.953125 Z M 32 58.667969 C 17.296875 58.667969 5.332031 46.703125 5.332031 32 C 5.332031 17.296875 17.296875 5.332031 32 5.332031 C 46.703125 5.332031 58.667969 17.296875 58.667969 32 C 58.667969 46.703125 46.703125 58.667969 32 58.667969 Z M 32 2.667969 C 15.824219 2.667969 2.667969 15.824219 2.667969 32 C 2.667969 48.175781 15.824219 61.332031 32 61.332031 C 48.175781 61.332031 61.332031 48.175781 61.332031 32 C 61.332031 15.824219 48.175781 2.667969 32 2.667969 Z M 32 2.667969 "/>
</svg>
