<?xml version="1.0" encoding="UTF-8"?>
<svg xmlns="http://www.w3.org/2000/svg" xmlns:xlink="http://www.w3.org/1999/xlink" width="64" height="64" viewBox="0 0 64 64">
<path fill-rule="evenodd" fill="rgb(54.901963%, 30.980393%, 100%)" fill-opacity="1" d="M 41.507812 38.011719 L 43.394531 39.898438 L 32.90625 50.382812 C 32.648438 50.644531 32.304688 50.773438 31.964844 50.773438 C 31.621094 50.773438 31.28125 50.644531 31.019531 50.382812 L 20.535156 39.898438 L 22.421875 38.011719 L 30.628906 46.222656 L 30.628906 12.15625 L 33.296875 12.15625 L 33.296875 46.222656 Z M 31.964844 58.59375 C 17.28125 58.59375 5.332031 46.648438 5.332031 31.964844 C 5.332031 17.28125 17.28125 5.332031 31.964844 5.332031 C 46.648438 5.332031 58.59375 17.28125 58.59375 31.964844 C 58.59375 46.648438 46.648438 58.59375 31.964844 58.59375 Z M 31.964844 2.667969 C 15.808594 2.667969 2.667969 15.808594 2.667969 31.964844 C 2.667969 48.117188 15.808594 61.257812 31.964844 61.257812 C 48.117188 61.257812 61.261719 48.117188 61.261719 31.964844 C 61.261719 15.808594 48.117188 2.667969 31.964844 2.667969 Z M 31.964844 2.667969 "/>
</svg>
