<?xml version="1.0" encoding="UTF-8"?>
<svg xmlns="http://www.w3.org/2000/svg" xmlns:xlink="http://www.w3.org/1999/xlink" width="64" height="64" viewBox="0 0 64 64">
<path fill-rule="evenodd" fill="rgb(54.901963%, 30.980393%, 100%)" fill-opacity="1" d="M 56 34.667969 C 54.53125 34.667969 53.332031 33.46875 53.332031 32 C 53.332031 30.53125 54.53125 29.332031 56 29.332031 C 57.46875 29.332031 58.667969 30.53125 58.667969 32 C 58.667969 33.46875 57.46875 34.667969 56 34.667969 M 33.332031 49.265625 L 33.332031 41.226562 C 37.410156 40.636719 40.636719 37.410156 41.226562 33.332031 L 49.265625 33.332031 C 48.613281 41.828125 41.828125 48.613281 33.332031 49.265625 M 32 58.667969 C 30.53125 58.667969 29.332031 57.46875 29.332031 56 C 29.332031 54.53125 30.53125 53.332031 32 53.332031 C 33.46875 53.332031 34.667969 54.53125 34.667969 56 C 34.667969 57.46875 33.46875 58.667969 32 58.667969 M 14.734375 33.332031 L 22.773438 33.332031 C 23.363281 37.410156 26.589844 40.636719 30.667969 41.226562 L 30.667969 49.265625 C 22.171875 48.613281 15.386719 41.828125 14.734375 33.332031 M 30.667969 14.734375 L 30.667969 22.773438 C 26.589844 23.363281 23.363281 26.589844 22.773438 30.667969 L 14.734375 30.667969 C 15.386719 22.171875 22.171875 15.386719 30.667969 14.734375 M 32 5.332031 C 33.46875 5.332031 34.667969 6.53125 34.667969 8 C 34.667969 9.46875 33.46875 10.667969 32 10.667969 C 30.53125 10.667969 29.332031 9.46875 29.332031 8 C 29.332031 6.53125 30.53125 5.332031 32 5.332031 M 32 38.667969 C 28.324219 38.667969 25.332031 35.675781 25.332031 32 C 25.332031 28.324219 28.324219 25.332031 32 25.332031 C 35.675781 25.332031 38.667969 28.324219 38.667969 32 C 38.667969 35.675781 35.675781 38.667969 32 38.667969 M 49.265625 30.667969 L 41.226562 30.667969 C 40.636719 26.589844 37.410156 23.363281 33.332031 22.773438 L 33.332031 14.734375 C 41.828125 15.386719 48.613281 22.171875 49.265625 30.667969 M 8 34.667969 C 6.53125 34.667969 5.332031 33.46875 5.332031 32 C 5.332031 30.53125 6.53125 29.332031 8 29.332031 C 9.46875 29.332031 10.667969 30.53125 10.667969 32 C 10.667969 33.46875 9.46875 34.667969 8 34.667969 M 56 26.667969 C 54.242188 26.667969 52.699219 27.53125 51.726562 28.839844 C 50.371094 20.34375 43.65625 13.628906 35.160156 12.273438 C 36.46875 11.300781 37.332031 9.753906 37.332031 8 C 37.332031 5.058594 34.941406 2.667969 32 2.667969 C 29.058594 2.667969 26.667969 5.058594 26.667969 8 C 26.667969 9.753906 27.53125 11.300781 28.839844 12.273438 C 20.34375 13.628906 13.628906 20.34375 12.273438 28.839844 C 11.300781 27.53125 9.757812 26.667969 8 26.667969 C 5.058594 26.667969 2.667969 29.058594 2.667969 32 C 2.667969 34.941406 5.058594 37.332031 8 37.332031 C 9.757812 37.332031 11.300781 36.46875 12.273438 35.160156 C 13.628906 43.65625 20.34375 50.371094 28.839844 51.726562 C 27.53125 52.699219 26.667969 54.246094 26.667969 56 C 26.667969 58.941406 29.058594 61.332031 32 61.332031 C 34.941406 61.332031 37.332031 58.941406 37.332031 56 C 37.332031 54.246094 36.46875 52.699219 35.160156 51.726562 C 43.65625 50.371094 50.371094 43.65625 51.726562 35.160156 C 52.699219 36.46875 54.242188 37.332031 56 37.332031 C 58.941406 37.332031 61.332031 34.941406 61.332031 32 C 61.332031 29.058594 58.941406 26.667969 56 26.667969 "/>
</svg>
