<?xml version="1.0" encoding="UTF-8"?>
<svg xmlns="http://www.w3.org/2000/svg" xmlns:xlink="http://www.w3.org/1999/xlink" width="64" height="64" viewBox="0 0 64 64">
<path fill-rule="evenodd" fill="rgb(54.901963%, 30.980393%, 100%)" fill-opacity="1" d="M 44.597656 52.484375 C 38.511719 53.578125 33.378906 56.78125 31.445312 58.109375 C 29.515625 56.78125 24.378906 53.578125 18.292969 52.484375 C 15.253906 51.941406 5.332031 49.515625 5.332031 41.234375 C 5.332031 37.773438 6.644531 35.515625 8.03125 33.125 C 9.339844 30.871094 10.6875 28.546875 10.6875 25.359375 C 10.6875 20.578125 8.054688 17.136719 6.570312 15.578125 C 8.082031 13.742188 11.371094 9.730469 13.1875 7.402344 C 15.960938 9.921875 19.160156 11.292969 22.328125 11.292969 C 25.855469 11.292969 28.789062 9.90625 31.445312 6.949219 C 34.101562 9.90625 37.03125 11.292969 40.5625 11.292969 C 43.730469 11.292969 46.929688 9.921875 49.699219 7.402344 C 51.519531 9.726562 54.808594 13.742188 56.320312 15.578125 C 54.835938 17.136719 52.203125 20.578125 52.203125 25.359375 C 52.203125 28.546875 53.554688 30.871094 54.859375 33.125 C 56.246094 35.515625 57.558594 37.773438 57.558594 41.234375 C 57.558594 49.515625 47.636719 51.941406 44.597656 52.484375 M 57.167969 31.785156 C 55.933594 29.660156 54.867188 27.828125 54.867188 25.359375 C 54.867188 20.148438 58.9375 16.757812 58.976562 16.726562 L 60.023438 15.878906 L 59.167969 14.839844 C 59.101562 14.757812 52.441406 6.691406 50.917969 4.605469 L 49.96875 3.304688 L 48.867188 4.480469 C 46.367188 7.15625 43.417969 8.628906 40.5625 8.628906 C 37.414062 8.628906 34.929688 7.214844 32.503906 4.050781 L 31.445312 2.667969 L 30.386719 4.046875 C 27.960938 7.214844 25.476562 8.628906 22.328125 8.628906 C 19.472656 8.628906 16.523438 7.15625 14.019531 4.480469 L 12.917969 3.304688 L 11.96875 4.605469 C 10.449219 6.691406 3.792969 14.757812 3.726562 14.839844 L 2.867188 15.878906 L 3.914062 16.726562 C 3.957031 16.757812 8.019531 20.105469 8.019531 25.359375 C 8.019531 27.828125 6.957031 29.660156 5.726562 31.785156 C 4.292969 34.253906 2.667969 37.054688 2.667969 41.234375 C 2.667969 48.21875 8.332031 53.40625 17.824219 55.109375 C 24.761719 56.355469 30.574219 60.765625 30.632812 60.808594 L 31.449219 61.429688 L 32.257812 60.808594 C 32.316406 60.765625 38.128906 56.355469 45.070312 55.109375 C 54.558594 53.40625 60.226562 48.21875 60.226562 41.234375 C 60.226562 37.054688 58.601562 34.253906 57.167969 31.785156 "/>
</svg>
