<?xml version="1.0" encoding="UTF-8"?>
<svg xmlns="http://www.w3.org/2000/svg" xmlns:xlink="http://www.w3.org/1999/xlink" width="64" height="64" viewBox="0 0 64 64">
<path fill-rule="evenodd" fill="rgb(54.901963%, 30.980393%, 100%)" fill-opacity="1" d="M 37.96875 40.015625 C 36.867188 40.015625 35.96875 39.117188 35.96875 38.015625 C 35.96875 36.914062 36.867188 36.015625 37.96875 36.015625 C 39.074219 36.015625 39.96875 36.914062 39.96875 38.015625 C 39.96875 39.117188 39.074219 40.015625 37.96875 40.015625 Z M 26.636719 46.683594 L 26.636719 40.015625 L 33.773438 40.015625 C 34.230469 40.976562 35.007812 41.753906 35.96875 42.214844 L 35.96875 46.683594 Z M 37.96875 33.347656 C 35.625 33.347656 33.699219 35.09375 33.371094 37.347656 L 17.304688 37.347656 L 17.304688 30.683594 L 14.636719 30.683594 L 14.636719 40.015625 L 23.96875 40.015625 L 23.96875 49.347656 L 38.636719 49.347656 L 38.636719 42.613281 C 40.210938 42.386719 41.53125 41.378906 42.183594 39.988281 L 49.304688 39.988281 L 49.304688 37.320312 L 42.566406 37.320312 C 42.226562 35.078125 40.304688 33.347656 37.96875 33.347656 Z M 27.304688 28.015625 C 26.199219 28.015625 25.304688 27.117188 25.304688 26.015625 C 25.304688 24.914062 26.199219 24.015625 27.304688 24.015625 C 28.40625 24.015625 29.304688 24.914062 29.304688 26.015625 C 29.304688 27.117188 28.40625 28.015625 27.304688 28.015625 Z M 27.304688 21.347656 C 27.074219 21.347656 26.855469 21.386719 26.636719 21.417969 L 26.636719 17.347656 L 35.96875 17.347656 L 35.96875 24.015625 L 38.636719 24.015625 L 38.636719 14.683594 L 23.96875 14.683594 L 23.96875 22.757812 C 23.292969 23.453125 22.847656 24.355469 22.703125 25.359375 L 14.636719 25.359375 L 14.636719 28.023438 L 23.109375 28.023438 C 23.863281 29.589844 25.453125 30.683594 27.304688 30.683594 C 29.15625 30.683594 30.75 29.585938 31.5 28.015625 L 46.636719 28.015625 L 46.636719 34.683594 L 49.304688 34.683594 L 49.304688 25.347656 L 31.902344 25.347656 C 31.574219 23.09375 29.648438 21.347656 27.304688 21.347656 Z M 45.40625 52.597656 C 39.1875 53.710938 33.945312 56.988281 31.988281 58.335938 C 30.03125 56.988281 24.789062 53.710938 18.570312 52.597656 C 15.464844 52.035156 5.332031 49.558594 5.332031 41.09375 C 5.332031 37.558594 6.671875 35.25 8.089844 32.808594 C 9.417969 30.519531 10.792969 28.148438 10.792969 24.90625 C 10.792969 20.023438 8.09375 16.511719 6.585938 14.933594 C 8.125 13.0625 11.511719 8.933594 13.367188 6.554688 C 16.195312 9.132812 19.460938 10.535156 22.691406 10.535156 C 26.292969 10.535156 29.28125 9.117188 31.988281 6.089844 C 34.699219 9.117188 37.6875 10.535156 41.285156 10.535156 C 44.519531 10.535156 47.78125 9.132812 50.609375 6.554688 C 52.464844 8.933594 55.851562 13.0625 57.390625 14.933594 C 55.882812 16.511719 53.183594 20.023438 53.183594 24.90625 C 53.183594 28.148438 54.558594 30.519531 55.886719 32.808594 C 57.304688 35.25 58.644531 37.558594 58.644531 41.09375 C 58.644531 49.558594 48.511719 52.035156 45.40625 52.597656 Z M 58.195312 31.472656 C 56.9375 29.304688 55.851562 27.433594 55.851562 24.90625 C 55.851562 19.574219 60.007812 16.113281 60.046875 16.082031 C 60.324219 15.855469 60.5 15.53125 60.535156 15.175781 C 60.570312 14.824219 60.464844 14.46875 60.238281 14.195312 C 60.167969 14.113281 53.378906 5.882812 51.828125 3.757812 C 51.59375 3.4375 51.230469 3.238281 50.832031 3.210938 C 50.457031 3.183594 50.046875 3.339844 49.777344 3.632812 C 47.21875 6.363281 44.207031 7.867188 41.285156 7.867188 C 38.066406 7.867188 35.523438 6.425781 33.046875 3.1875 C 32.796875 2.859375 32.40625 2.667969 31.988281 2.667969 C 31.574219 2.667969 31.183594 2.859375 30.929688 3.1875 C 28.453125 6.425781 25.910156 7.867188 22.691406 7.867188 C 19.773438 7.867188 16.757812 6.363281 14.199219 3.632812 C 13.929688 3.339844 13.519531 3.183594 13.144531 3.210938 C 12.75 3.238281 12.382812 3.4375 12.148438 3.757812 C 10.597656 5.882812 3.808594 14.113281 3.738281 14.195312 C 3.515625 14.46875 3.410156 14.820312 3.441406 15.175781 C 3.476562 15.527344 3.652344 15.851562 3.925781 16.078125 C 3.96875 16.113281 8.128906 19.574219 8.128906 24.90625 C 8.128906 27.433594 7.039062 29.304688 5.78125 31.472656 C 4.320312 33.988281 2.664062 36.839844 2.664062 41.09375 C 2.664062 48.203125 8.4375 53.484375 18.101562 55.21875 C 25.183594 56.492188 31.117188 60.992188 31.179688 61.035156 C 31.417969 61.21875 31.703125 61.308594 31.988281 61.308594 C 32.273438 61.308594 32.5625 61.21875 32.800781 61.035156 C 32.859375 60.992188 38.792969 56.492188 45.878906 55.21875 C 55.542969 53.484375 61.3125 48.203125 61.3125 41.09375 C 61.3125 36.839844 59.65625 33.988281 58.195312 31.472656 Z M 58.195312 31.472656 "/>
</svg>
