<?xml version="1.0" encoding="UTF-8"?>
<svg xmlns="http://www.w3.org/2000/svg" xmlns:xlink="http://www.w3.org/1999/xlink" width="64" height="64" viewBox="0 0 64 64">
<path fill-rule="evenodd" fill="rgb(54.901963%, 30.980393%, 100%)" fill-opacity="1" d="M 48.472656 46.4375 C 48.039062 46 47.464844 45.785156 46.890625 45.785156 C 46.320312 45.785156 45.746094 46 45.308594 46.4375 C 44.4375 47.308594 44.4375 48.730469 45.308594 49.601562 C 46.183594 50.472656 47.601562 50.472656 48.472656 49.601562 C 49.347656 48.730469 49.347656 47.308594 48.472656 46.4375 M 35.539062 54.949219 L 35.464844 54.832031 C 35.371094 54.695312 35.269531 54.566406 35.152344 54.449219 C 34.628906 53.925781 33.9375 53.660156 33.246094 53.660156 C 32.558594 53.660156 31.867188 53.925781 31.34375 54.449219 C 30.292969 55.5 30.292969 57.207031 31.34375 58.257812 C 32.390625 59.304688 34.101562 59.304688 35.152344 58.257812 C 36.050781 57.359375 36.171875 55.988281 35.539062 54.949219 M 31.34375 42.691406 C 32.269531 43.617188 33.773438 43.617188 34.703125 42.691406 C 35.628906 41.765625 35.628906 40.257812 34.703125 39.332031 C 34.238281 38.867188 33.628906 38.636719 33.023438 38.636719 C 32.414062 38.636719 31.804688 38.867188 31.34375 39.332031 C 30.417969 40.257812 30.417969 41.765625 31.34375 42.691406 M 31.34375 27.117188 C 32.371094 28.140625 34.039062 28.140625 35.070312 27.117188 C 36.09375 26.089844 36.09375 24.417969 35.070312 23.390625 C 34.554688 22.878906 33.878906 22.621094 33.207031 22.621094 C 32.53125 22.621094 31.855469 22.878906 31.34375 23.390625 C 30.316406 24.417969 30.316406 26.089844 31.34375 27.117188 M 44.679688 30.503906 C 44.679688 31.074219 44.902344 31.617188 45.308594 32.023438 C 46.148438 32.859375 47.511719 32.859375 48.351562 32.023438 C 49.1875 31.183594 49.191406 29.820312 48.351562 28.980469 C 47.945312 28.574219 47.40625 28.351562 46.832031 28.351562 C 46.253906 28.351562 45.714844 28.574219 45.308594 28.980469 C 44.902344 29.386719 44.679688 29.925781 44.679688 30.503906 M 18.921875 52.363281 C 19.386719 51.898438 19.644531 51.28125 19.644531 50.625 C 19.644531 49.96875 19.386719 49.351562 18.921875 48.886719 C 18.441406 48.40625 17.8125 48.167969 17.183594 48.167969 C 16.554688 48.167969 15.921875 48.40625 15.445312 48.886719 C 14.484375 49.84375 14.484375 51.40625 15.445312 52.363281 C 16.402344 53.324219 17.964844 53.320312 18.921875 52.363281 M 15.445312 35.707031 C 16.3125 36.574219 17.726562 36.574219 18.59375 35.707031 C 19.011719 35.285156 19.246094 34.726562 19.246094 34.132812 C 19.246094 33.535156 19.011719 32.976562 18.59375 32.558594 C 18.171875 32.136719 17.613281 31.90625 17.019531 31.90625 C 16.421875 31.90625 15.863281 32.136719 15.445312 32.558594 C 14.574219 33.425781 14.574219 34.835938 15.445312 35.707031 M 50.359375 44.550781 C 52.273438 46.464844 52.273438 49.574219 50.359375 51.488281 C 49.402344 52.445312 48.148438 52.921875 46.890625 52.921875 C 45.785156 52.921875 44.691406 52.527344 43.789062 51.785156 L 38.445312 55.117188 C 38.859375 56.863281 38.402344 58.78125 37.039062 60.140625 C 35.992188 61.1875 34.621094 61.710938 33.246094 61.710938 C 31.875 61.710938 30.503906 61.1875 29.457031 60.140625 C 28.605469 59.292969 28.121094 58.226562 27.964844 57.117188 L 21.035156 53.96875 C 20.957031 54.0625 20.894531 54.164062 20.808594 54.25 C 19.808594 55.25 18.496094 55.746094 17.183594 55.746094 C 15.871094 55.746094 14.558594 55.25 13.558594 54.25 C 11.558594 52.25 11.558594 49 13.558594 47 C 14.253906 46.304688 15.105469 45.867188 15.996094 45.65625 L 15.996094 38.910156 C 15.078125 38.71875 14.234375 38.269531 13.558594 37.589844 C 12.632812 36.667969 12.125 35.4375 12.125 34.132812 C 12.125 32.824219 12.632812 31.59375 13.558594 30.671875 C 15.40625 28.824219 18.628906 28.824219 20.476562 30.671875 C 21.402344 31.597656 21.910156 32.824219 21.910156 34.132812 C 21.910156 35.4375 21.402344 36.667969 20.476562 37.589844 C 19.957031 38.109375 19.335938 38.484375 18.664062 38.722656 L 18.664062 45.742188 C 19.445312 45.976562 20.191406 46.382812 20.808594 47 C 21.777344 47.96875 22.308594 49.257812 22.308594 50.625 C 22.308594 50.949219 22.273438 51.265625 22.214844 51.578125 L 28.28125 54.335938 C 28.542969 53.6875 28.933594 53.085938 29.457031 52.5625 C 30.183594 51.839844 31.066406 51.382812 31.996094 51.160156 L 31.996094 45.941406 C 31.066406 45.746094 30.175781 45.296875 29.457031 44.574219 C 27.492188 42.609375 27.492188 39.410156 29.457031 37.445312 C 30.175781 36.726562 31.066406 36.273438 31.996094 36.082031 L 31.996094 30.398438 C 31.066406 30.179688 30.179688 29.726562 29.457031 29.003906 C 27.390625 26.9375 27.390625 23.574219 29.457031 21.507812 C 31.523438 19.4375 34.886719 19.4375 36.953125 21.507812 C 39.019531 23.574219 39.019531 26.933594 36.953125 29.003906 C 36.296875 29.660156 35.5 30.085938 34.664062 30.324219 L 34.664062 36.265625 C 35.15625 36.433594 35.625 36.6875 36.058594 37.015625 L 42.335938 32.203125 C 42.128906 31.664062 42.011719 31.09375 42.011719 30.503906 C 42.011719 29.214844 42.515625 28.003906 43.425781 27.097656 C 45.242188 25.277344 48.417969 25.273438 50.238281 27.097656 C 52.113281 28.972656 52.113281 32.027344 50.238281 33.910156 C 49.296875 34.847656 48.0625 35.316406 46.828125 35.316406 C 45.808594 35.316406 44.792969 34.972656 43.941406 34.328125 L 37.695312 39.117188 C 38.429688 40.9375 38.058594 43.101562 36.585938 44.574219 C 36.027344 45.136719 35.363281 45.515625 34.664062 45.757812 L 34.664062 51.210938 C 35.53125 51.445312 36.355469 51.882812 37.039062 52.5625 C 37.097656 52.625 37.136719 52.691406 37.191406 52.753906 L 42.269531 49.59375 C 41.6875 47.878906 42.0625 45.914062 43.425781 44.550781 C 45.335938 42.640625 48.449219 42.640625 50.359375 44.550781 M 61.328125 30.050781 C 61.328125 38.480469 54.332031 41.21875 50.632812 41.488281 L 50.535156 40.15625 L 50.433594 38.828125 C 50.769531 38.800781 58.660156 38.085938 58.660156 30.050781 C 58.660156 23.3125 52.984375 21.609375 50.546875 21.1875 C 49.832031 21.066406 49.347656 20.394531 49.453125 19.679688 C 49.457031 16.75 48.222656 14.617188 46.070312 13.910156 C 44.171875 13.289062 42.089844 13.976562 40.878906 15.621094 C 40.585938 16.019531 40.105469 16.214844 39.609375 16.152344 C 39.121094 16.078125 38.710938 15.742188 38.546875 15.277344 C 37.710938 12.898438 36.5 10.902344 34.949219 9.339844 C 33.046875 7.429688 27.828125 3.320312 20.476562 6.445312 C 16.230469 8.25 12.902344 13.453125 12.902344 18.285156 L 13.003906 19.976562 C 13.039062 20.613281 12.621094 21.1875 12.003906 21.347656 C 9.511719 21.984375 5.335938 23.953125 5.335938 29.964844 C 5.335938 34.484375 7.777344 36.972656 9.828125 38.269531 L 8.40625 40.523438 C 6.261719 39.171875 2.667969 36 2.667969 29.964844 C 2.667969 22.828125 7.375 20.089844 10.28125 19.082031 L 10.238281 18.363281 C 10.234375 12.363281 14.191406 6.21875 19.433594 3.992188 C 25.574219 1.378906 32.082031 2.679688 36.839844 7.460938 C 38.230469 8.859375 39.386719 10.542969 40.285156 12.476562 C 42.160156 11.074219 44.617188 10.625 46.902344 11.375 C 49.914062 12.363281 51.804688 15.101562 52.085938 18.789062 C 56.734375 19.941406 61.328125 23.40625 61.328125 30.050781 "/>
</svg>
