<?xml version="1.0" encoding="UTF-8"?>
<svg xmlns="http://www.w3.org/2000/svg" xmlns:xlink="http://www.w3.org/1999/xlink" width="64" height="64" viewBox="0 0 64 64">
<path fill-rule="evenodd" fill="rgb(54.901963%, 30.980393%, 100%)" fill-opacity="1" d="M 23.941406 39.109375 L 25.824219 40.996094 L 22.394531 44.425781 C 22.144531 44.675781 21.804688 44.816406 21.453125 44.816406 C 21.097656 44.816406 20.757812 44.675781 20.507812 44.425781 L 17.078125 40.996094 L 18.964844 39.109375 L 20 40.144531 L 20 23.625 L 18.851562 24.773438 L 16.96875 22.886719 L 20.398438 19.457031 C 20.648438 19.207031 20.988281 19.066406 21.339844 19.066406 C 21.695312 19.066406 22.035156 19.207031 22.285156 19.457031 L 25.714844 22.886719 L 23.828125 24.773438 L 22.667969 23.609375 L 22.667969 40.382812 Z M 18.492188 32.941406 L 15.0625 36.371094 L 13.175781 34.484375 L 14.328125 33.332031 L 7.148438 33.332031 L 7.148438 30.667969 L 14.332031 30.667969 L 13.175781 29.511719 L 15.0625 27.625 L 18.492188 31.054688 C 18.742188 31.304688 18.882812 31.644531 18.882812 31.996094 C 18.882812 32.351562 18.742188 32.691406 18.492188 32.941406 Z M 29.230469 34.484375 L 27.34375 36.371094 L 23.910156 32.941406 C 23.664062 32.691406 23.523438 32.351562 23.523438 31.996094 C 23.523438 31.644531 23.664062 31.304688 23.910156 31.054688 L 27.34375 27.625 L 29.230469 29.511719 L 28.074219 30.667969 L 35.148438 30.667969 L 35.148438 33.332031 L 28.078125 33.332031 Z M 32 58.667969 C 17.296875 58.667969 5.332031 46.703125 5.332031 32 C 5.332031 17.296875 17.296875 5.332031 32 5.332031 C 46.703125 5.332031 58.667969 17.296875 58.667969 32 C 58.667969 46.703125 46.703125 58.667969 32 58.667969 Z M 32 2.667969 C 15.824219 2.667969 2.667969 15.824219 2.667969 32 C 2.667969 48.175781 15.824219 61.332031 32 61.332031 C 48.175781 61.332031 61.332031 48.175781 61.332031 32 C 61.332031 15.824219 48.175781 2.667969 32 2.667969 Z M 46.667969 45.8125 L 49.332031 45.8125 L 49.332031 43.148438 L 46.667969 43.148438 Z M 50.667969 40.480469 L 45.332031 40.480469 C 44.597656 40.480469 44 41.078125 44 41.8125 L 44 43.148438 L 30.667969 43.148438 L 30.667969 39.148438 L 28 39.148438 L 28 44.480469 C 28 45.214844 28.597656 45.8125 29.332031 45.8125 L 44 45.8125 L 44 47.148438 C 44 47.882812 44.597656 48.480469 45.332031 48.480469 L 50.667969 48.480469 C 51.402344 48.480469 52 47.882812 52 47.148438 L 52 41.8125 C 52 41.078125 51.402344 40.480469 50.667969 40.480469 Z M 46.667969 33.332031 L 49.332031 33.332031 L 49.332031 30.667969 L 46.667969 30.667969 Z M 50.667969 28 L 45.332031 28 C 44.597656 28 44 28.597656 44 29.332031 L 44 30.667969 L 38.667969 30.667969 L 38.667969 33.332031 L 44 33.332031 L 44 34.667969 C 44 35.402344 44.597656 36 45.332031 36 L 50.667969 36 C 51.402344 36 52 35.402344 52 34.667969 L 52 29.332031 C 52 28.597656 51.402344 28 50.667969 28 Z M 46.667969 20.480469 L 49.332031 20.480469 L 49.332031 17.8125 L 46.667969 17.8125 Z M 50.667969 15.148438 L 45.332031 15.148438 C 44.597656 15.148438 44 15.742188 44 16.480469 L 44 17.8125 L 29.332031 17.8125 C 28.597656 17.8125 28 18.410156 28 19.148438 L 28 24.480469 L 30.667969 24.480469 L 30.667969 20.480469 L 44 20.480469 L 44 21.8125 C 44 22.550781 44.597656 23.148438 45.332031 23.148438 L 50.667969 23.148438 C 51.402344 23.148438 52 22.550781 52 21.8125 L 52 16.480469 C 52 15.742188 51.402344 15.148438 50.667969 15.148438 Z M 50.667969 15.148438 "/>
</svg>
