<?xml version="1.0" encoding="UTF-8"?>
<svg xmlns="http://www.w3.org/2000/svg" xmlns:xlink="http://www.w3.org/1999/xlink" width="64" height="64" viewBox="0 0 64 64">
<path fill-rule="evenodd" fill="rgb(54.901963%, 30.980393%, 100%)" fill-opacity="1" d="M 35.992188 56.027344 C 33.957031 57.113281 32.511719 58.117188 31.992188 58.496094 C 31.746094 58.320312 31.285156 57.992188 30.660156 57.589844 L 30.660156 50.59375 L 35.992188 50.59375 Z M 21.324219 53.296875 C 20.535156 53.070312 19.71875 52.878906 18.882812 52.726562 C 17.035156 52.394531 15.355469 51.914062 13.851562 51.316406 L 21.324219 43.761719 Z M 6.265625 44.910156 C 5.652344 43.617188 5.332031 42.207031 5.332031 40.699219 C 5.332031 37.03125 6.75 34.589844 8.121094 32.226562 C 8.691406 31.246094 9.242188 30.277344 9.683594 29.261719 L 21.324219 29.261719 L 21.324219 30.796875 Z M 6.203125 15.539062 C 7.277344 14.234375 12.246094 8.195312 13.929688 5.964844 C 16.160156 8.25 18.730469 9.671875 21.324219 10.113281 L 21.324219 19.929688 L 9.402344 19.929688 C 8.3125 17.636719 6.792969 16.089844 6.203125 15.539062 Z M 30.660156 6.941406 C 31.109375 6.492188 31.554688 6.011719 31.992188 5.464844 C 33.253906 7.046875 34.574219 8.210938 35.992188 9.003906 L 35.992188 26.59375 L 30.660156 26.59375 Z M 58.550781 39.121094 C 58.609375 39.625 58.652344 40.144531 58.652344 40.699219 C 58.652344 46.707031 53.585938 51.203125 45.101562 52.726562 C 42.765625 53.148438 40.574219 53.902344 38.660156 54.734375 L 38.660156 49.261719 C 38.660156 48.527344 38.0625 47.929688 37.324219 47.929688 L 29.324219 47.929688 C 28.589844 47.929688 27.992188 48.527344 27.992188 49.261719 L 27.992188 56.027344 C 26.832031 55.40625 25.480469 54.765625 23.992188 54.191406 L 23.992188 40.519531 C 23.992188 39.980469 23.664062 39.492188 23.167969 39.285156 C 22.664062 39.082031 22.089844 39.199219 21.710938 39.582031 L 11.308594 50.089844 C 9.878906 49.253906 8.683594 48.277344 7.746094 47.171875 L 23.570312 32.347656 C 23.839844 32.097656 23.992188 31.742188 23.992188 31.375 L 23.992188 27.929688 C 23.992188 27.191406 23.394531 26.59375 22.660156 26.59375 L 10.472656 26.59375 C 10.546875 26.113281 10.601562 25.617188 10.601562 25.089844 C 10.601562 24.207031 10.492188 23.378906 10.320312 22.59375 L 22.660156 22.59375 C 23.394531 22.59375 23.992188 21.996094 23.992188 21.261719 L 23.992188 10.21875 C 25.421875 10.097656 26.746094 9.703125 27.992188 9.003906 L 27.992188 27.929688 C 27.992188 28.664062 28.589844 29.261719 29.324219 29.261719 L 37.324219 29.261719 C 38.0625 29.261719 38.660156 28.664062 38.660156 27.929688 L 38.660156 10.023438 C 39.398438 10.1875 40.160156 10.273438 40.957031 10.273438 C 44.121094 10.273438 47.335938 8.75 50.054688 5.964844 C 51.738281 8.195312 56.707031 14.234375 57.78125 15.539062 C 57.445312 15.839844 56.820312 16.460938 56.148438 17.339844 C 56.972656 17.714844 57.746094 18.183594 58.457031 18.730469 C 59.136719 17.878906 59.703125 17.398438 59.710938 17.386719 C 60.191406 17 60.503906 16.425781 60.566406 15.804688 C 60.625 15.191406 60.4375 14.566406 60.042969 14.089844 C 59.203125 13.074219 53.320312 5.925781 51.96875 4.074219 C 51.558594 3.507812 50.925781 3.164062 50.242188 3.121094 C 49.542969 3.066406 48.867188 3.335938 48.382812 3.855469 C 46.117188 6.273438 43.480469 7.609375 40.957031 7.609375 C 38.175781 7.609375 36.046875 6.382812 33.84375 3.503906 C 32.984375 2.386719 31 2.386719 30.136719 3.503906 C 27.9375 6.382812 25.808594 7.609375 23.023438 7.609375 C 20.503906 7.609375 17.867188 6.273438 15.601562 3.855469 C 15.105469 3.324219 14.421875 3.054688 13.753906 3.117188 C 13.058594 3.164062 12.425781 3.507812 12.015625 4.074219 C 10.664062 5.925781 4.78125 13.074219 3.941406 14.089844 C 3.546875 14.5625 3.359375 15.191406 3.417969 15.804688 C 3.480469 16.417969 3.789062 16.996094 4.261719 17.378906 C 4.296875 17.410156 7.933594 20.496094 7.933594 25.089844 C 7.933594 27.238281 7 28.851562 5.8125 30.890625 C 4.410156 33.308594 2.667969 36.3125 2.667969 40.699219 C 2.667969 48.101562 8.554688 53.582031 18.410156 55.355469 C 24.957031 56.527344 30.519531 60.71875 30.566406 60.757812 C 30.972656 61.070312 31.476562 61.242188 31.992188 61.242188 C 32.503906 61.242188 33.007812 61.074219 33.410156 60.765625 C 33.464844 60.722656 39.03125 56.527344 45.570312 55.355469 C 55.429688 53.582031 61.316406 48.101562 61.316406 40.699219 C 61.316406 38.773438 60.96875 37.121094 60.476562 35.664062 C 59.875 36.832031 59.21875 38.003906 58.550781 39.121094 Z M 30.660156 41.261719 L 35.992188 41.261719 L 35.992188 35.929688 L 30.660156 35.929688 Z M 37.324219 33.261719 L 29.324219 33.261719 C 28.589844 33.261719 27.992188 33.859375 27.992188 34.59375 L 27.992188 42.59375 C 27.992188 43.332031 28.589844 43.929688 29.324219 43.929688 L 37.324219 43.929688 C 38.0625 43.929688 38.660156 43.332031 38.660156 42.59375 L 38.660156 34.59375 C 38.660156 33.859375 38.0625 33.261719 37.324219 33.261719 Z M 51.78125 25.300781 C 50.453125 25.300781 49.375 26.382812 49.375 27.707031 C 49.375 29.035156 50.453125 30.113281 51.78125 30.113281 C 53.105469 30.113281 54.1875 29.035156 54.1875 27.707031 C 54.1875 26.382812 53.105469 25.300781 51.78125 25.300781 Z M 51.78125 32.78125 C 48.984375 32.78125 46.707031 30.503906 46.707031 27.707031 C 46.707031 24.910156 48.984375 22.636719 51.78125 22.636719 C 54.574219 22.636719 56.851562 24.910156 56.851562 27.707031 C 56.851562 30.503906 54.574219 32.78125 51.78125 32.78125 Z M 51.367188 20.972656 C 47.523438 20.972656 44.398438 24.097656 44.398438 27.941406 C 44.398438 30.886719 48.746094 37.804688 51.367188 41.601562 C 53.992188 37.804688 58.339844 30.886719 58.339844 27.941406 C 58.339844 24.097656 55.210938 20.972656 51.367188 20.972656 Z M 51.367188 45.242188 C 50.941406 45.242188 50.542969 45.039062 50.292969 44.695312 C 49.414062 43.496094 41.730469 32.820312 41.730469 27.941406 C 41.730469 22.628906 46.054688 18.304688 51.367188 18.304688 C 56.683594 18.304688 61.007812 22.628906 61.007812 27.941406 C 61.007812 32.820312 53.320312 43.496094 52.445312 44.695312 C 52.191406 45.039062 51.792969 45.242188 51.367188 45.242188 Z M 51.367188 45.242188 "/>
</svg>
