<?xml version="1.0" encoding="UTF-8"?>
<svg xmlns="http://www.w3.org/2000/svg" xmlns:xlink="http://www.w3.org/1999/xlink" width="64" height="64" viewBox="0 0 64 64">
<path fill-rule="evenodd" fill="rgb(54.901963%, 30.980393%, 100%)" fill-opacity="1" d="M 22.667969 33.285156 L 41.335938 33.285156 L 41.335938 30.621094 L 22.667969 30.621094 Z M 22.667969 41.285156 L 41.335938 41.285156 L 41.335938 38.621094 L 22.667969 38.621094 Z M 22.667969 25.285156 L 41.335938 25.285156 L 41.335938 22.621094 L 22.667969 22.621094 Z M 21.335938 46.621094 L 42.667969 46.621094 L 42.667969 17.285156 L 21.335938 17.285156 Z M 44.003906 14.621094 L 20.003906 14.621094 C 19.265625 14.621094 18.667969 15.214844 18.667969 15.953125 L 18.667969 47.953125 C 18.667969 48.6875 19.265625 49.285156 20.003906 49.285156 L 44.003906 49.285156 C 44.738281 49.285156 45.335938 48.6875 45.335938 47.953125 L 45.335938 15.953125 C 45.335938 15.214844 44.738281 14.621094 44.003906 14.621094 Z M 45.40625 52.566406 C 39.1875 53.683594 33.945312 56.960938 31.988281 58.308594 C 30.03125 56.960938 24.789062 53.683594 18.570312 52.566406 C 15.464844 52.011719 5.332031 49.53125 5.332031 41.066406 C 5.332031 37.527344 6.671875 35.222656 8.089844 32.78125 C 9.417969 30.488281 10.792969 28.121094 10.792969 24.878906 C 10.792969 19.992188 8.09375 16.484375 6.585938 14.90625 C 8.125 13.035156 11.511719 8.902344 13.367188 6.527344 C 16.195312 9.105469 19.457031 10.507812 22.691406 10.507812 C 26.289062 10.507812 29.277344 9.085938 31.988281 6.0625 C 34.699219 9.085938 37.6875 10.507812 41.285156 10.507812 C 44.519531 10.507812 47.78125 9.105469 50.609375 6.527344 C 52.464844 8.902344 55.851562 13.035156 57.390625 14.90625 C 55.882812 16.484375 53.183594 19.992188 53.183594 24.878906 C 53.183594 28.121094 54.558594 30.488281 55.890625 32.78125 C 57.304688 35.222656 58.644531 37.527344 58.644531 41.066406 C 58.644531 49.53125 48.511719 52.011719 45.40625 52.566406 Z M 58.195312 31.441406 C 56.9375 29.273438 55.851562 27.402344 55.851562 24.878906 C 55.851562 19.546875 60.007812 16.085938 60.046875 16.050781 C 60.324219 15.828125 60.5 15.503906 60.535156 15.148438 C 60.570312 14.792969 60.464844 14.441406 60.238281 14.164062 C 60.167969 14.082031 53.378906 5.855469 51.828125 3.730469 C 51.59375 3.40625 51.226562 3.207031 50.832031 3.183594 C 50.4375 3.160156 50.046875 3.3125 49.777344 3.601562 C 47.222656 6.335938 44.207031 7.839844 41.285156 7.839844 C 38.066406 7.839844 35.523438 6.398438 33.046875 3.160156 C 32.542969 2.503906 31.433594 2.503906 30.929688 3.160156 C 28.453125 6.398438 25.910156 7.839844 22.691406 7.839844 C 19.769531 7.839844 16.753906 6.335938 14.199219 3.601562 C 13.929688 3.3125 13.515625 3.152344 13.144531 3.183594 C 12.75 3.207031 12.382812 3.40625 12.148438 3.730469 C 10.597656 5.855469 3.808594 14.082031 3.738281 14.164062 C 3.515625 14.4375 3.410156 14.792969 3.441406 15.144531 C 3.476562 15.5 3.652344 15.824219 3.925781 16.050781 C 3.96875 16.085938 8.128906 19.546875 8.128906 24.878906 C 8.128906 27.402344 7.039062 29.273438 5.78125 31.441406 C 4.320312 33.960938 2.667969 36.8125 2.667969 41.066406 C 2.667969 48.175781 8.4375 53.457031 18.101562 55.191406 C 25.183594 56.464844 31.117188 60.960938 31.175781 61.007812 C 31.414062 61.191406 31.703125 61.28125 31.988281 61.28125 C 32.273438 61.28125 32.5625 61.191406 32.800781 61.007812 C 32.859375 60.960938 38.792969 56.464844 45.878906 55.191406 C 55.542969 53.457031 61.3125 48.175781 61.3125 41.066406 C 61.3125 36.8125 59.65625 33.960938 58.195312 31.441406 Z M 58.195312 31.441406 "/>
</svg>
