<?xml version="1.0" encoding="UTF-8"?>
<svg xmlns="http://www.w3.org/2000/svg" xmlns:xlink="http://www.w3.org/1999/xlink" width="64" height="64" viewBox="0 0 64 64">
<path fill-rule="evenodd" fill="rgb(54.901963%, 30.980393%, 100%)" fill-opacity="1" d="M 45.40625 52.59375 C 39.1875 53.710938 33.945312 56.988281 31.988281 58.335938 C 30.03125 56.988281 24.789062 53.710938 18.570312 52.59375 C 16.066406 52.144531 8.988281 50.4375 6.347656 45.347656 L 21.953125 45.347656 C 22.289062 48.339844 24.804688 50.679688 27.882812 50.679688 C 30.964844 50.679688 33.480469 48.339844 33.816406 45.347656 L 57.628906 45.347656 C 54.992188 50.4375 47.914062 52.144531 45.40625 52.59375 Z M 31.21875 44.679688 C 31.21875 46.519531 29.722656 48.015625 27.882812 48.015625 C 26.046875 48.015625 24.550781 46.519531 24.550781 44.679688 C 24.550781 42.84375 26.046875 41.347656 27.882812 41.347656 C 29.722656 41.347656 31.21875 42.84375 31.21875 44.679688 Z M 7.039062 34.679688 L 37.953125 34.679688 C 38.289062 37.671875 40.804688 40.015625 43.882812 40.015625 C 46.964844 40.015625 49.480469 37.671875 49.816406 34.679688 L 56.941406 34.679688 C 57.902344 36.511719 58.644531 38.460938 58.644531 41.09375 C 58.644531 41.648438 58.597656 42.175781 58.511719 42.679688 L 33.515625 42.679688 C 32.6875 40.359375 30.488281 38.679688 27.882812 38.679688 C 25.28125 38.679688 23.082031 40.359375 22.253906 42.679688 L 5.464844 42.679688 C 5.382812 42.175781 5.332031 41.648438 5.332031 41.09375 C 5.332031 38.460938 6.074219 36.511719 7.039062 34.679688 Z M 6.585938 14.933594 C 8.125 13.0625 11.511719 8.929688 13.367188 6.554688 C 16.195312 9.132812 19.460938 10.535156 22.691406 10.535156 C 26.292969 10.535156 29.28125 9.117188 31.988281 6.09375 C 34.699219 9.117188 37.6875 10.535156 41.285156 10.535156 C 44.519531 10.535156 47.78125 9.132812 50.609375 6.554688 C 52.464844 8.929688 55.851562 13.0625 57.390625 14.933594 C 56.28125 16.09375 54.53125 18.3125 53.683594 21.347656 L 30.847656 21.347656 C 30.019531 19.023438 27.824219 17.347656 25.21875 17.347656 C 22.613281 17.347656 20.414062 19.023438 19.585938 21.347656 L 10.296875 21.347656 C 9.445312 18.3125 7.695312 16.09375 6.585938 14.933594 Z M 21.882812 23.347656 C 21.882812 21.511719 23.378906 20.015625 25.21875 20.015625 C 27.054688 20.015625 28.550781 21.511719 28.550781 23.347656 C 28.550781 25.1875 27.054688 26.679688 25.21875 26.679688 C 23.378906 26.679688 21.882812 25.1875 21.882812 23.347656 Z M 47.21875 34.015625 C 47.21875 35.851562 45.722656 37.347656 43.882812 37.347656 C 42.046875 37.347656 40.550781 35.851562 40.550781 34.015625 C 40.550781 32.175781 42.046875 30.679688 43.882812 30.679688 C 45.722656 30.679688 47.21875 32.175781 47.21875 34.015625 Z M 49.515625 32.015625 C 48.6875 29.691406 46.488281 28.015625 43.882812 28.015625 C 41.28125 28.015625 39.082031 29.691406 38.253906 32.015625 L 8.546875 32.015625 C 9.714844 29.960938 10.792969 27.777344 10.792969 24.90625 C 10.792969 24.597656 10.753906 24.3125 10.734375 24.015625 L 19.285156 24.015625 C 19.621094 27.007812 22.136719 29.347656 25.21875 29.347656 C 28.296875 29.347656 30.8125 27.007812 31.148438 24.015625 L 53.242188 24.015625 C 53.222656 24.3125 53.183594 24.597656 53.183594 24.90625 C 53.183594 27.777344 54.261719 29.960938 55.429688 32.015625 Z M 58.195312 31.46875 C 56.9375 29.300781 55.851562 27.429688 55.851562 24.90625 C 55.851562 19.574219 60.007812 16.113281 60.046875 16.078125 C 60.324219 15.855469 60.5 15.53125 60.535156 15.175781 C 60.570312 14.824219 60.464844 14.46875 60.238281 14.195312 C 60.167969 14.113281 53.378906 5.882812 51.828125 3.757812 C 51.59375 3.4375 51.230469 3.234375 50.832031 3.210938 C 50.457031 3.183594 50.046875 3.339844 49.777344 3.632812 C 47.222656 6.363281 44.207031 7.871094 41.285156 7.871094 C 38.066406 7.871094 35.523438 6.425781 33.046875 3.1875 C 32.796875 2.859375 32.40625 2.667969 31.988281 2.667969 C 31.574219 2.667969 31.183594 2.859375 30.929688 3.1875 C 28.453125 6.425781 25.910156 7.871094 22.691406 7.871094 C 19.773438 7.871094 16.757812 6.363281 14.199219 3.632812 C 13.929688 3.339844 13.519531 3.183594 13.144531 3.210938 C 12.75 3.234375 12.382812 3.4375 12.148438 3.757812 C 10.597656 5.882812 3.808594 14.113281 3.738281 14.195312 C 3.515625 14.46875 3.410156 14.820312 3.441406 15.175781 C 3.476562 15.527344 3.652344 15.851562 3.925781 16.078125 C 3.96875 16.113281 8.128906 19.574219 8.128906 24.90625 C 8.128906 27.429688 7.039062 29.300781 5.78125 31.46875 C 4.324219 33.988281 2.667969 36.839844 2.667969 41.09375 C 2.667969 48.203125 8.4375 53.484375 18.101562 55.21875 C 25.183594 56.492188 31.117188 60.988281 31.179688 61.035156 C 31.417969 61.21875 31.703125 61.3125 31.988281 61.3125 C 32.277344 61.3125 32.5625 61.21875 32.800781 61.035156 C 32.859375 60.988281 38.792969 56.492188 45.878906 55.21875 C 55.542969 53.484375 61.3125 48.203125 61.3125 41.09375 C 61.3125 36.839844 59.65625 33.988281 58.195312 31.46875 Z M 58.195312 31.46875 "/>
</svg>
