<?xml version="1.0" encoding="UTF-8"?>
<svg xmlns="http://www.w3.org/2000/svg" xmlns:xlink="http://www.w3.org/1999/xlink" width="64" height="64" viewBox="0 0 64 64">
<path fill-rule="evenodd" fill="rgb(54.901963%, 30.980393%, 100%)" fill-opacity="1" d="M 58.644531 41.09375 C 58.644531 37.558594 57.304688 35.25 55.890625 32.808594 C 54.558594 30.515625 53.183594 28.148438 53.183594 24.90625 C 53.183594 20.019531 55.882812 16.511719 57.390625 14.933594 C 55.851562 13.0625 52.464844 8.929688 50.609375 6.554688 C 47.78125 9.132812 44.515625 10.535156 41.285156 10.535156 C 37.683594 10.535156 34.699219 9.117188 31.988281 6.09375 C 29.28125 9.117188 26.289062 10.535156 22.691406 10.535156 C 19.457031 10.535156 16.195312 9.132812 13.367188 6.554688 C 11.511719 8.929688 8.125 13.0625 6.585938 14.933594 C 8.09375 16.511719 10.792969 20.019531 10.792969 24.90625 C 10.792969 28.148438 9.417969 30.515625 8.089844 32.808594 C 6.671875 35.25 5.332031 37.558594 5.332031 41.09375 C 5.332031 49.558594 15.464844 52.039062 18.570312 52.59375 C 24.789062 53.710938 30.03125 56.988281 31.988281 58.335938 C 33.945312 56.988281 39.1875 53.710938 45.40625 52.59375 C 48.511719 52.039062 58.644531 49.558594 58.644531 41.09375 Z M 61.3125 41.09375 C 61.3125 48.203125 55.542969 53.484375 45.878906 55.21875 C 38.792969 56.492188 32.859375 60.988281 32.800781 61.035156 C 32.5625 61.21875 32.277344 61.3125 31.988281 61.3125 C 31.703125 61.3125 31.414062 61.21875 31.175781 61.035156 C 31.117188 60.988281 25.183594 56.492188 18.101562 55.21875 C 8.4375 53.484375 2.667969 48.203125 2.667969 41.09375 C 2.667969 36.839844 4.320312 33.988281 5.78125 31.46875 C 7.039062 29.300781 8.125 27.429688 8.125 24.90625 C 8.125 19.574219 3.96875 16.113281 3.925781 16.078125 C 3.652344 15.851562 3.476562 15.527344 3.441406 15.175781 C 3.40625 14.820312 3.511719 14.46875 3.738281 14.195312 C 3.808594 14.113281 10.597656 5.882812 12.148438 3.757812 C 12.382812 3.4375 12.746094 3.234375 13.144531 3.210938 C 13.519531 3.183594 13.929688 3.339844 14.199219 3.632812 C 16.757812 6.363281 19.773438 7.871094 22.691406 7.871094 C 25.910156 7.871094 28.453125 6.425781 30.929688 3.1875 C 31.183594 2.859375 31.574219 2.667969 31.988281 2.667969 C 32.402344 2.667969 32.792969 2.859375 33.046875 3.1875 C 35.523438 6.425781 38.0625 7.871094 41.285156 7.871094 C 44.207031 7.871094 47.222656 6.363281 49.777344 3.632812 C 50.046875 3.339844 50.453125 3.183594 50.832031 3.210938 C 51.226562 3.234375 51.59375 3.4375 51.828125 3.757812 C 53.378906 5.882812 60.167969 14.113281 60.238281 14.195312 C 60.464844 14.46875 60.570312 14.824219 60.535156 15.175781 C 60.5 15.53125 60.324219 15.855469 60.046875 16.078125 C 60.007812 16.113281 55.847656 19.574219 55.847656 24.90625 C 55.847656 27.429688 56.9375 29.300781 58.195312 31.46875 C 59.65625 33.988281 61.3125 36.839844 61.3125 41.09375 Z M 46.53125 21.828125 L 48.414062 23.710938 L 29.105469 43.023438 C 28.84375 43.285156 28.503906 43.414062 28.160156 43.414062 C 27.820312 43.414062 27.480469 43.285156 27.21875 43.023438 L 19.375 35.183594 L 21.261719 33.296875 L 28.160156 40.199219 Z M 46.53125 21.828125 "/>
</svg>
