<?xml version="1.0" encoding="UTF-8"?>
<svg xmlns="http://www.w3.org/2000/svg" xmlns:xlink="http://www.w3.org/1999/xlink" width="64" height="64" viewBox="0 0 64 64">
<path fill-rule="evenodd" fill="rgb(54.901963%, 30.980393%, 100%)" fill-opacity="1" d="M 37.332031 51.746094 L 37.332031 58.453125 C 47.972656 56.539062 56.542969 47.972656 58.453125 37.332031 L 51.746094 37.332031 C 50.035156 44.425781 44.425781 50.035156 37.332031 51.746094 Z M 36 61.332031 C 35.675781 61.332031 35.359375 61.214844 35.113281 60.996094 C 34.828125 60.742188 34.667969 60.378906 34.667969 60 L 34.667969 50.664062 C 34.667969 50.019531 35.128906 49.46875 35.761719 49.351562 C 42.648438 48.109375 48.109375 42.648438 49.355469 35.761719 C 49.46875 35.125 50.023438 34.664062 50.667969 34.664062 L 60 34.664062 C 60.382812 34.664062 60.742188 34.828125 60.996094 35.113281 C 61.25 35.398438 61.367188 35.777344 61.324219 36.15625 C 59.777344 49.1875 49.191406 59.773438 36.15625 61.324219 C 36.105469 61.328125 36.050781 61.332031 36 61.332031 Z M 5.546875 37.332031 C 7.457031 47.972656 16.023438 56.539062 26.667969 58.453125 L 26.667969 51.746094 C 19.574219 50.035156 13.964844 44.425781 12.25 37.332031 Z M 28 61.332031 C 27.949219 61.332031 27.894531 61.328125 27.84375 61.324219 C 14.808594 59.773438 4.222656 49.1875 2.675781 36.15625 C 2.632812 35.777344 2.75 35.398438 3.003906 35.113281 C 3.253906 34.828125 3.617188 34.664062 4 34.664062 L 13.332031 34.664062 C 13.976562 34.664062 14.53125 35.125 14.644531 35.761719 C 15.890625 42.648438 21.351562 48.109375 28.238281 49.351562 C 28.871094 49.46875 29.332031 50.019531 29.332031 50.664062 L 29.332031 60 C 29.332031 60.378906 29.171875 60.742188 28.886719 60.996094 C 28.640625 61.214844 28.324219 61.332031 28 61.332031 Z M 51.746094 26.664062 L 58.453125 26.664062 C 56.542969 16.023438 47.972656 7.457031 37.332031 5.546875 L 37.332031 12.25 C 44.425781 13.960938 50.035156 19.570312 51.746094 26.664062 Z M 60 29.332031 L 50.667969 29.332031 C 50.023438 29.332031 49.46875 28.871094 49.355469 28.234375 C 48.109375 21.347656 42.648438 15.886719 35.761719 14.644531 C 35.128906 14.53125 34.667969 13.976562 34.667969 13.332031 L 34.667969 4 C 34.667969 3.617188 34.828125 3.253906 35.113281 3 C 35.398438 2.75 35.773438 2.632812 36.15625 2.675781 C 49.191406 4.222656 59.777344 14.808594 61.324219 27.839844 C 61.367188 28.21875 61.25 28.597656 60.996094 28.882812 C 60.742188 29.167969 60.382812 29.332031 60 29.332031 Z M 5.546875 26.664062 L 12.25 26.664062 C 13.964844 19.570312 19.574219 13.960938 26.667969 12.25 L 26.667969 5.546875 C 16.023438 7.457031 7.457031 16.023438 5.546875 26.664062 Z M 13.332031 29.332031 L 4 29.332031 C 3.617188 29.332031 3.253906 29.167969 3.003906 28.882812 C 2.75 28.597656 2.632812 28.21875 2.675781 27.839844 C 4.222656 14.808594 14.808594 4.222656 27.84375 2.675781 C 28.21875 2.632812 28.601562 2.746094 28.886719 3 C 29.171875 3.253906 29.332031 3.617188 29.332031 4 L 29.332031 13.332031 C 29.332031 13.976562 28.871094 14.53125 28.238281 14.644531 C 21.351562 15.886719 15.890625 21.347656 14.644531 28.234375 C 14.53125 28.871094 13.976562 29.332031 13.332031 29.332031 Z M 13.332031 29.332031 "/>
</svg>
