<?xml version="1.0" encoding="UTF-8"?>
<svg xmlns="http://www.w3.org/2000/svg" xmlns:xlink="http://www.w3.org/1999/xlink" width="64" height="64" viewBox="0 0 64 64">
<path fill-rule="evenodd" fill="rgb(54.901963%, 30.980393%, 100%)" fill-opacity="1" d="M 58.125 20.273438 C 58.128906 20.628906 57.992188 20.972656 57.738281 21.226562 L 51.914062 27.113281 L 50.019531 25.238281 L 53.507812 21.710938 L 9.96875 21.710938 L 13.5 25.191406 L 11.628906 27.089844 L 5.730469 21.273438 C 5.476562 21.019531 5.332031 20.679688 5.332031 20.324219 C 5.332031 19.96875 5.476562 19.625 5.730469 19.375 L 11.628906 13.554688 L 13.5 15.453125 L 9.863281 19.042969 L 53.578125 19.042969 L 49.898438 15.5 L 51.75 13.578125 L 57.714844 19.328125 C 57.972656 19.574219 58.121094 19.914062 58.125 20.273438 Z M 21.96875 16.78125 L 19.300781 16.78125 L 19.300781 16.265625 C 19.328125 8.765625 25.160156 2.667969 32.304688 2.667969 C 39.5 2.691406 45.289062 8.847656 45.265625 16.390625 L 45.265625 16.78125 L 42.597656 16.78125 L 42.597656 16.382812 C 42.617188 10.308594 38.019531 5.355469 32.347656 5.332031 C 26.625 5.332031 21.988281 10.238281 21.96875 16.273438 Z M 30.402344 38.421875 C 30.886719 37.9375 31.53125 37.667969 32.21875 37.667969 L 32.222656 37.667969 C 32.910156 37.667969 33.558594 37.9375 34.042969 38.425781 C 34.53125 38.910156 34.796875 39.554688 34.796875 40.242188 C 34.796875 40.933594 34.527344 41.582031 34.042969 42.066406 C 33.554688 42.550781 32.910156 42.820312 32.222656 42.820312 L 32.21875 42.820312 C 30.800781 42.820312 29.644531 41.664062 29.644531 40.242188 C 29.648438 39.554688 29.914062 38.90625 30.402344 38.421875 Z M 30.886719 45.292969 L 30.886719 52.164062 L 33.554688 52.164062 L 33.554688 45.292969 C 34.441406 45.0625 35.257812 44.617188 35.925781 43.953125 C 36.914062 42.964844 37.460938 41.648438 37.460938 40.246094 C 37.464844 38.847656 36.921875 37.53125 35.929688 36.539062 C 34.941406 35.546875 33.625 35.003906 32.222656 35.003906 L 32.214844 35.003906 C 30.820312 35.003906 29.503906 35.546875 28.515625 36.535156 C 27.527344 37.523438 26.980469 38.839844 26.980469 40.242188 C 26.980469 42.671875 28.644531 44.699219 30.886719 45.292969 Z M 49.550781 58.691406 L 14.878906 58.675781 L 14.890625 32.179688 L 49.5625 32.191406 Z M 50.894531 29.527344 L 45.265625 29.523438 L 45.265625 23.84375 L 42.597656 23.84375 L 42.597656 29.519531 L 21.96875 29.515625 L 21.96875 23.84375 L 19.300781 23.84375 L 19.300781 29.515625 L 13.554688 29.511719 C 13.203125 29.511719 12.863281 29.652344 12.613281 29.902344 C 12.363281 30.152344 12.222656 30.492188 12.222656 30.84375 L 12.214844 60.011719 C 12.214844 60.746094 12.808594 61.34375 13.546875 61.34375 L 50.882812 61.359375 C 51.617188 61.359375 52.214844 60.761719 52.214844 60.027344 L 52.230469 30.859375 C 52.230469 30.507812 52.089844 30.167969 51.839844 29.917969 C 51.589844 29.667969 51.25 29.527344 50.894531 29.527344 Z M 50.894531 29.527344 "/>
</svg>
