<?xml version="1.0" encoding="UTF-8"?>
<svg xmlns="http://www.w3.org/2000/svg" xmlns:xlink="http://www.w3.org/1999/xlink" width="64" height="64" viewBox="0 0 64 64">
<path fill-rule="evenodd" fill="rgb(54.901963%, 30.980393%, 100%)" fill-opacity="1" d="M 48 42.722656 C 47.390625 43.332031 46.402344 43.332031 45.792969 42.722656 C 45.183594 42.113281 45.183594 41.125 45.792969 40.515625 C 46.402344 39.90625 47.390625 39.90625 48 40.515625 C 48.609375 41.125 48.609375 42.117188 48 42.722656 M 33.582031 50.644531 C 32.742188 51.484375 31.371094 51.484375 30.527344 50.644531 C 29.683594 49.800781 29.683594 48.429688 30.527344 47.585938 C 31.371094 46.742188 32.738281 46.746094 33.582031 47.585938 C 33.992188 47.992188 34.214844 48.535156 34.214844 49.113281 C 34.214844 49.691406 33.992188 50.234375 33.582031 50.644531 M 30.527344 30.945312 C 30.949219 30.523438 31.5 30.3125 32.054688 30.3125 C 32.609375 30.3125 33.160156 30.523438 33.582031 30.945312 C 34.425781 31.789062 34.425781 33.160156 33.582031 34.003906 C 32.738281 34.847656 31.371094 34.847656 30.527344 34.003906 C 29.683594 33.160156 29.683594 31.789062 30.527344 30.945312 M 30.527344 13.242188 C 30.949219 12.820312 31.5 12.609375 32.054688 12.609375 C 32.609375 12.609375 33.160156 12.820312 33.582031 13.242188 C 34.425781 14.085938 34.425781 15.457031 33.582031 16.296875 C 32.738281 17.140625 31.371094 17.140625 30.527344 16.296875 C 29.683594 15.457031 29.683594 14.085938 30.527344 13.242188 M 45.792969 21.785156 C 46.085938 21.492188 46.476562 21.34375 46.863281 21.34375 C 47.253906 21.34375 47.640625 21.492188 47.9375 21.785156 C 48.527344 22.378906 48.527344 23.339844 47.9375 23.929688 C 47.34375 24.523438 46.382812 24.523438 45.792969 23.933594 C 45.503906 23.644531 45.347656 23.265625 45.347656 22.859375 C 45.347656 22.453125 45.503906 22.074219 45.792969 21.785156 M 18.140625 43.890625 C 17.570312 44.464844 16.566406 44.464844 15.988281 43.890625 C 15.394531 43.296875 15.394531 42.332031 15.988281 41.738281 C 16.285156 41.441406 16.675781 41.292969 17.066406 41.292969 C 17.457031 41.292969 17.847656 41.441406 18.144531 41.738281 C 18.429688 42.023438 18.589844 42.40625 18.589844 42.8125 C 18.589844 43.21875 18.429688 43.601562 18.140625 43.890625 M 16.222656 24.746094 C 16.5 24.46875 16.863281 24.332031 17.226562 24.332031 C 17.589844 24.332031 17.953125 24.46875 18.230469 24.746094 C 18.78125 25.300781 18.78125 26.199219 18.230469 26.753906 C 17.675781 27.304688 16.777344 27.304688 16.222656 26.753906 C 15.671875 26.199219 15.671875 25.300781 16.222656 24.746094 M 49.886719 38.628906 C 48.238281 36.980469 45.554688 36.980469 43.90625 38.628906 C 42.832031 39.703125 42.472656 41.214844 42.796875 42.597656 L 36.113281 46.507812 C 35.925781 46.21875 35.714844 45.949219 35.46875 45.699219 C 34.855469 45.089844 34.113281 44.695312 33.332031 44.480469 L 33.332031 37.105469 C 34.113281 36.890625 34.855469 36.5 35.46875 35.886719 C 36.683594 34.675781 37.101562 32.972656 36.75 31.410156 L 44.34375 26.175781 C 45.089844 26.742188 45.972656 27.039062 46.863281 27.039062 C 47.9375 27.039062 49.007812 26.632812 49.824219 25.816406 C 51.453125 24.183594 51.453125 21.53125 49.824219 19.902344 C 48.242188 18.320312 45.488281 18.320312 43.90625 19.902344 C 43.117188 20.691406 42.679688 21.742188 42.679688 22.859375 C 42.679688 23.242188 42.75 23.609375 42.847656 23.96875 L 35.464844 29.058594 C 34.855469 28.445312 34.113281 28.054688 33.332031 27.839844 L 33.332031 19.402344 C 34.113281 19.1875 34.855469 18.796875 35.46875 18.183594 C 37.351562 16.300781 37.351562 13.238281 35.46875 11.355469 C 33.585938 9.472656 30.523438 9.472656 28.640625 11.355469 C 26.757812 13.238281 26.757812 16.300781 28.640625 18.183594 C 29.222656 18.765625 29.925781 19.148438 30.667969 19.371094 L 30.667969 27.875 C 29.925781 28.09375 29.222656 28.476562 28.640625 29.058594 C 26.757812 30.941406 26.757812 34.003906 28.640625 35.886719 C 29.222656 36.472656 29.925781 36.851562 30.667969 37.074219 L 30.667969 44.515625 C 29.925781 44.734375 29.222656 45.117188 28.640625 45.699219 C 28.375 45.964844 28.160156 46.257812 27.96875 46.5625 L 21.230469 43.085938 C 21.234375 42.996094 21.257812 42.90625 21.257812 42.8125 C 21.257812 41.695312 20.820312 40.640625 20.027344 39.851562 C 19.628906 39.449219 19.160156 39.148438 18.667969 38.945312 L 18.667969 29.5625 C 19.195312 29.363281 19.691406 29.0625 20.113281 28.636719 C 21.707031 27.046875 21.707031 24.453125 20.113281 22.863281 C 18.523438 21.265625 15.929688 21.265625 14.339844 22.863281 C 12.746094 24.453125 12.746094 27.046875 14.339844 28.636719 C 14.816406 29.117188 15.394531 29.433594 16 29.625 L 16 38.78125 C 15.304688 38.964844 14.644531 39.308594 14.105469 39.851562 C 13.3125 40.640625 12.878906 41.695312 12.878906 42.8125 C 12.878906 43.933594 13.3125 44.984375 14.105469 45.777344 C 14.894531 46.566406 15.945312 47.003906 17.066406 47.003906 C 18.1875 47.003906 19.238281 46.566406 20.027344 45.777344 C 20.097656 45.710938 20.144531 45.628906 20.207031 45.558594 L 27.234375 49.183594 C 27.253906 50.398438 27.714844 51.605469 28.640625 52.53125 C 29.582031 53.46875 30.816406 53.941406 32.054688 53.941406 C 33.289062 53.941406 34.527344 53.46875 35.46875 52.53125 C 36.371094 51.625 36.871094 50.425781 36.878906 49.148438 L 44.210938 44.859375 C 44.988281 45.503906 45.9375 45.84375 46.894531 45.84375 C 47.976562 45.84375 49.0625 45.433594 49.886719 44.609375 C 51.53125 42.960938 51.53125 40.277344 49.886719 38.628906 M 32 58.667969 C 17.296875 58.667969 5.332031 46.703125 5.332031 32 C 5.332031 17.296875 17.296875 5.332031 32 5.332031 C 46.703125 5.332031 58.667969 17.296875 58.667969 32 C 58.667969 46.703125 46.703125 58.667969 32 58.667969 M 32 2.667969 C 15.824219 2.667969 2.667969 15.824219 2.667969 32 C 2.667969 48.175781 15.824219 61.332031 32 61.332031 C 48.175781 61.332031 61.332031 48.175781 61.332031 32 C 61.332031 15.824219 48.175781 2.667969 32 2.667969 "/>
</svg>
