<?xml version="1.0" encoding="UTF-8"?>
<svg xmlns="http://www.w3.org/2000/svg" xmlns:xlink="http://www.w3.org/1999/xlink" width="64" height="64" viewBox="0 0 64 64">
<path fill-rule="evenodd" fill="rgb(54.901963%, 30.980393%, 100%)" fill-opacity="1" d="M 56 34.667969 C 54.53125 34.667969 53.332031 33.46875 53.332031 32 C 53.332031 30.53125 54.53125 29.332031 56 29.332031 C 57.46875 29.332031 58.667969 30.53125 58.667969 32 C 58.667969 33.46875 57.46875 34.667969 56 34.667969 Z M 17.332031 34.667969 L 46.667969 34.667969 L 46.667969 29.332031 L 17.332031 29.332031 Z M 8 34.667969 C 6.53125 34.667969 5.332031 33.46875 5.332031 32 C 5.332031 30.53125 6.53125 29.332031 8 29.332031 C 9.46875 29.332031 10.667969 30.53125 10.667969 32 C 10.667969 33.46875 9.46875 34.667969 8 34.667969 Z M 56 26.667969 C 53.519531 26.667969 51.453125 28.375 50.855469 30.667969 L 49.332031 30.667969 L 49.332031 28 C 49.332031 27.265625 48.738281 26.667969 48 26.667969 L 16 26.667969 C 15.261719 26.667969 14.667969 27.265625 14.667969 28 L 14.667969 30.667969 L 13.144531 30.667969 C 12.546875 28.375 10.480469 26.667969 8 26.667969 C 5.058594 26.667969 2.667969 29.058594 2.667969 32 C 2.667969 34.941406 5.058594 37.332031 8 37.332031 C 10.480469 37.332031 12.546875 35.625 13.144531 33.332031 L 14.667969 33.332031 L 14.667969 36 C 14.667969 36.734375 15.261719 37.332031 16 37.332031 L 48 37.332031 C 48.738281 37.332031 49.332031 36.734375 49.332031 36 L 49.332031 33.332031 L 50.855469 33.332031 C 51.453125 35.625 53.519531 37.332031 56 37.332031 C 58.941406 37.332031 61.332031 34.941406 61.332031 32 C 61.332031 29.058594 58.941406 26.667969 56 26.667969 Z M 17.332031 22.667969 L 46.667969 22.667969 L 46.667969 17.332031 L 17.332031 17.332031 Z M 29.332031 8 C 29.332031 6.53125 30.53125 5.332031 32 5.332031 C 33.46875 5.332031 34.667969 6.53125 34.667969 8 C 34.667969 9.46875 33.46875 10.667969 32 10.667969 C 30.53125 10.667969 29.332031 9.46875 29.332031 8 Z M 16 25.332031 L 48 25.332031 C 48.738281 25.332031 49.332031 24.734375 49.332031 24 L 49.332031 16 C 49.332031 15.265625 48.738281 14.667969 48 14.667969 L 33.332031 14.667969 L 33.332031 13.144531 C 35.628906 12.546875 37.332031 10.476562 37.332031 8 C 37.332031 5.058594 34.941406 2.667969 32 2.667969 C 29.058594 2.667969 26.667969 5.058594 26.667969 8 C 26.667969 10.476562 28.371094 12.546875 30.667969 13.144531 L 30.667969 14.667969 L 16 14.667969 C 15.261719 14.667969 14.667969 15.265625 14.667969 16 L 14.667969 24 C 14.667969 24.734375 15.261719 25.332031 16 25.332031 Z M 17.332031 46.667969 L 46.667969 46.667969 L 46.667969 41.332031 L 17.332031 41.332031 Z M 34.667969 56 C 34.667969 57.46875 33.46875 58.667969 32 58.667969 C 30.53125 58.667969 29.332031 57.46875 29.332031 56 C 29.332031 54.53125 30.53125 53.332031 32 53.332031 C 33.46875 53.332031 34.667969 54.53125 34.667969 56 Z M 48 38.667969 L 16 38.667969 C 15.261719 38.667969 14.667969 39.265625 14.667969 40 L 14.667969 48 C 14.667969 48.734375 15.261719 49.332031 16 49.332031 L 30.667969 49.332031 L 30.667969 50.855469 C 28.371094 51.453125 26.667969 53.523438 26.667969 56 C 26.667969 58.941406 29.058594 61.332031 32 61.332031 C 34.941406 61.332031 37.332031 58.941406 37.332031 56 C 37.332031 53.523438 35.628906 51.453125 33.332031 50.855469 L 33.332031 49.332031 L 48 49.332031 C 48.738281 49.332031 49.332031 48.734375 49.332031 48 L 49.332031 40 C 49.332031 39.265625 48.738281 38.667969 48 38.667969 Z M 48 38.667969 "/>
</svg>
