<?xml version="1.0" encoding="UTF-8"?>
<svg xmlns="http://www.w3.org/2000/svg" xmlns:xlink="http://www.w3.org/1999/xlink" width="64" height="64" viewBox="0 0 64 64">
<path fill-rule="evenodd" fill="rgb(54.901963%, 30.980393%, 100%)" fill-opacity="1" d="M 42.535156 44.675781 C 41.351562 44.675781 40.390625 43.714844 40.390625 42.535156 C 40.390625 41.351562 41.351562 40.390625 42.535156 40.390625 C 43.714844 40.390625 44.675781 41.351562 44.675781 42.535156 C 44.675781 43.714844 43.714844 44.675781 42.535156 44.675781 Z M 42.535156 37.726562 C 39.882812 37.726562 37.726562 39.882812 37.726562 42.535156 C 37.726562 45.1875 39.882812 47.34375 42.535156 47.34375 C 45.183594 47.34375 47.34375 45.1875 47.34375 42.535156 C 47.34375 39.882812 45.183594 37.726562 42.535156 37.726562 Z M 21.042969 32.136719 C 19.863281 32.136719 18.898438 31.175781 18.898438 29.996094 C 18.898438 28.8125 19.863281 27.851562 21.042969 27.851562 C 22.226562 27.851562 23.183594 28.8125 23.183594 29.996094 C 23.183594 31.175781 22.226562 32.136719 21.042969 32.136719 Z M 21.042969 25.183594 C 18.390625 25.183594 16.234375 27.34375 16.234375 29.996094 C 16.234375 32.648438 18.390625 34.804688 21.042969 34.804688 C 23.695312 34.804688 25.851562 32.648438 25.851562 29.996094 C 25.851562 27.34375 23.695312 25.183594 21.042969 25.183594 Z M 34.371094 14.222656 C 35.554688 14.222656 36.515625 15.183594 36.515625 16.363281 C 36.515625 17.546875 35.554688 18.507812 34.371094 18.507812 C 33.191406 18.507812 32.230469 17.546875 32.230469 16.363281 C 32.230469 15.183594 33.191406 14.222656 34.371094 14.222656 Z M 34.371094 21.171875 C 37.023438 21.171875 39.179688 19.015625 39.179688 16.363281 C 39.179688 13.710938 37.023438 11.554688 34.371094 11.554688 C 31.722656 11.554688 29.5625 13.710938 29.5625 16.363281 C 29.5625 19.015625 31.722656 21.171875 34.371094 21.171875 Z M 25.136719 25.488281 L 22.898438 24.035156 C 24.695312 21.269531 26.234375 19.4375 28.21875 17.707031 L 29.96875 19.71875 C 28.1875 21.273438 26.785156 22.945312 25.136719 25.488281 Z M 38.9375 37.5625 L 37.097656 39.492188 C 33.660156 36.214844 30.234375 34.0625 26.308594 32.714844 L 27.171875 30.191406 C 31.476562 31.671875 35.214844 34.011719 38.9375 37.5625 Z M 39.03125 20.160156 C 42.339844 25.203125 44.199219 30.734375 44.5625 36.609375 L 41.902344 36.777344 C 41.566406 31.371094 39.851562 26.273438 36.800781 21.621094 Z M 58.667969 36.152344 L 55.429688 35.96875 C 54.8125 35.925781 54.195312 36.371094 54.054688 37.007812 C 53.488281 39.507812 52.507812 41.878906 51.132812 44.058594 C 50.785156 44.609375 50.890625 45.328125 51.375 45.761719 L 53.792969 47.921875 L 47.921875 53.792969 L 46.882812 52.628906 C 47.589844 50.046875 46.335938 47.453125 46.273438 47.332031 L 43.886719 48.519531 C 43.894531 48.535156 44.453125 49.710938 44.449219 50.988281 C 44.316406 51.019531 44.183594 51.066406 44.0625 51.144531 C 43.371094 51.578125 42.65625 51.960938 41.925781 52.316406 C 42.394531 51.175781 42.808594 50.015625 43.144531 48.863281 L 40.582031 48.121094 C 40.035156 50.007812 39.265625 51.929688 38.363281 53.699219 C 37.914062 53.832031 37.464844 53.964844 37.003906 54.066406 C 36.371094 54.210938 35.929688 54.792969 35.96875 55.445312 L 36.152344 58.667969 L 27.84375 58.667969 L 28.03125 55.441406 C 28.066406 54.789062 27.628906 54.207031 26.996094 54.066406 C 25.292969 53.679688 23.65625 53.085938 22.09375 52.324219 C 20.652344 48.617188 19.820312 44.644531 19.820312 41.335938 C 19.820312 39.859375 20.078125 38.625 20.378906 37.195312 L 20.601562 36.117188 L 17.984375 35.601562 L 17.769531 36.648438 C 17.449219 38.15625 17.152344 39.582031 17.152344 41.335938 C 17.152344 44.285156 17.746094 47.699219 18.808594 51.019531 C 18.59375 51.09375 18.394531 51.203125 18.234375 51.378906 L 16.078125 53.792969 L 10.207031 47.921875 L 12.621094 45.765625 C 13.105469 45.332031 13.207031 44.613281 12.859375 44.0625 C 11.488281 41.886719 10.507812 39.515625 9.941406 37.007812 C 9.796875 36.371094 9.179688 35.925781 8.566406 35.96875 L 5.332031 36.152344 L 5.332031 27.847656 L 8.574219 28.03125 C 9.179688 28.0625 9.804688 27.628906 9.949219 26.996094 C 10.515625 24.496094 11.5 22.128906 12.875 19.953125 C 13.222656 19.402344 13.121094 18.679688 12.632812 18.246094 L 10.207031 16.082031 L 16.078125 10.207031 L 18.246094 12.632812 C 18.679688 13.121094 19.402344 13.21875 19.949219 12.875 C 21.429688 11.945312 23 11.207031 24.636719 10.644531 C 25.902344 11.308594 27.617188 12.285156 29.152344 13.449219 L 30.765625 11.324219 C 29.796875 10.589844 28.773438 9.933594 27.816406 9.363281 C 27.957031 9.136719 28.046875 8.871094 28.03125 8.582031 L 27.84375 5.332031 L 36.152344 5.332031 L 35.96875 8.585938 C 35.929688 9.234375 36.371094 9.816406 37.003906 9.960938 C 38.082031 10.207031 39.128906 10.542969 40.15625 10.9375 C 39.996094 11 39.828125 11.0625 39.671875 11.121094 C 39.304688 11.261719 38.941406 11.398438 38.59375 11.527344 L 39.5 14.035156 C 39.863281 13.902344 40.238281 13.761719 40.625 13.613281 C 41.617188 13.234375 42.636719 12.851562 43.59375 12.621094 C 43.742188 12.707031 43.894531 12.785156 44.042969 12.878906 C 44.59375 13.222656 45.316406 13.125 45.75 12.636719 L 47.917969 10.207031 L 53.792969 16.082031 L 51.371094 18.242188 C 50.882812 18.675781 50.78125 19.398438 51.128906 19.949219 C 52.503906 22.125 53.484375 24.492188 54.050781 26.996094 C 54.191406 27.628906 54.8125 28.0625 55.425781 28.03125 L 58.667969 27.847656 Z M 60.914062 25.464844 C 60.648438 25.214844 60.285156 25.085938 59.925781 25.105469 L 56.378906 25.308594 C 55.820312 23.277344 55.011719 21.332031 53.96875 19.5 L 56.621094 17.128906 C 56.894531 16.886719 57.058594 16.539062 57.066406 16.175781 C 57.078125 15.808594 56.9375 15.453125 56.675781 15.191406 L 48.808594 7.324219 C 48.546875 7.0625 48.191406 6.925781 47.828125 6.933594 C 47.457031 6.945312 47.113281 7.105469 46.871094 7.378906 L 44.496094 10.039062 C 42.664062 8.996094 40.722656 8.191406 38.691406 7.636719 L 38.894531 4.074219 C 38.914062 3.710938 38.785156 3.351562 38.535156 3.085938 C 38.28125 2.816406 37.933594 2.667969 37.5625 2.667969 L 26.433594 2.667969 C 26.066406 2.667969 25.71875 2.816406 25.464844 3.085938 C 25.214844 3.351562 25.082031 3.710938 25.105469 4.074219 L 25.304688 7.632812 C 23.277344 8.1875 21.332031 8.992188 19.5 10.035156 L 17.128906 7.378906 C 16.886719 7.105469 16.539062 6.945312 16.171875 6.933594 C 15.816406 6.929688 15.449219 7.0625 15.191406 7.324219 L 7.324219 15.191406 C 7.0625 15.453125 6.921875 15.808594 6.933594 16.175781 C 6.941406 16.539062 7.105469 16.886719 7.378906 17.128906 L 10.035156 19.503906 C 8.988281 21.335938 8.179688 23.277344 7.625 25.308594 L 4.074219 25.105469 C 3.707031 25.085938 3.347656 25.214844 3.085938 25.464844 C 2.816406 25.71875 2.667969 26.066406 2.667969 26.433594 L 2.667969 37.566406 C 2.667969 37.933594 2.816406 38.28125 3.085938 38.535156 C 3.347656 38.785156 3.710938 38.921875 4.074219 38.898438 L 7.617188 38.695312 C 8.171875 40.730469 8.976562 42.679688 10.019531 44.511719 L 7.378906 46.871094 C 7.105469 47.113281 6.941406 47.460938 6.933594 47.828125 C 6.921875 48.191406 7.0625 48.546875 7.324219 48.808594 L 15.191406 56.675781 C 15.449219 56.9375 15.8125 57.089844 16.171875 57.066406 C 16.539062 57.058594 16.886719 56.894531 17.128906 56.621094 L 19.488281 53.980469 C 21.324219 55.023438 23.273438 55.835938 25.304688 56.390625 L 25.105469 59.925781 C 25.082031 60.289062 25.214844 60.648438 25.464844 60.914062 C 25.71875 61.183594 26.066406 61.332031 26.433594 61.332031 L 37.5625 61.332031 C 37.933594 61.332031 38.28125 61.183594 38.535156 60.914062 C 38.785156 60.648438 38.914062 60.289062 38.894531 59.925781 L 38.691406 56.394531 C 40.730469 55.835938 42.679688 55.03125 44.511719 53.984375 L 46.871094 56.621094 C 47.113281 56.894531 47.457031 57.058594 47.828125 57.066406 C 48.195312 57.09375 48.546875 56.9375 48.808594 56.675781 L 56.675781 48.808594 C 56.9375 48.546875 57.078125 48.191406 57.066406 47.828125 C 57.058594 47.460938 56.894531 47.113281 56.621094 46.871094 L 53.972656 44.507812 C 55.019531 42.671875 55.824219 40.726562 56.378906 38.695312 L 59.925781 38.898438 C 60.285156 38.917969 60.648438 38.785156 60.914062 38.535156 C 61.179688 38.28125 61.332031 37.933594 61.332031 37.566406 L 61.332031 26.433594 C 61.332031 26.066406 61.179688 25.71875 60.914062 25.464844 Z M 60.914062 25.464844 "/>
</svg>
