<?xml version="1.0" encoding="UTF-8"?>
<svg xmlns="http://www.w3.org/2000/svg" xmlns:xlink="http://www.w3.org/1999/xlink" width="64" height="64" viewBox="0 0 64 64">
<path fill-rule="evenodd" fill="rgb(54.901963%, 30.980393%, 100%)" fill-opacity="1" d="M 32.003906 58.667969 C 17.296875 58.667969 5.332031 46.707031 5.332031 32 C 5.332031 17.296875 17.296875 5.332031 32.003906 5.332031 C 46.707031 5.332031 58.671875 17.296875 58.671875 32 C 58.671875 46.707031 46.707031 58.667969 32.003906 58.667969 Z M 32.003906 2.667969 C 15.824219 2.667969 2.664062 15.824219 2.664062 32 C 2.664062 48.175781 15.824219 61.335938 32.003906 61.335938 C 48.179688 61.335938 61.335938 48.175781 61.335938 32 C 61.335938 15.824219 48.179688 2.667969 32.003906 2.667969 Z M 36.085938 36.3125 C 36.613281 36.3125 37.042969 36.734375 37.042969 37.253906 C 37.042969 37.769531 36.613281 38.1875 36.085938 38.1875 C 35.558594 38.1875 35.125 37.769531 35.125 37.253906 C 35.125 36.734375 35.558594 36.3125 36.085938 36.3125 Z M 26.75 33.523438 C 26.222656 33.523438 25.792969 33.101562 25.792969 32.585938 C 25.792969 32.066406 26.222656 31.648438 26.75 31.648438 C 27.28125 31.648438 27.710938 32.066406 27.710938 32.585938 C 27.710938 33.101562 27.28125 33.523438 26.75 33.523438 Z M 36.085938 27.035156 C 36.574219 27.035156 36.96875 27.429688 36.96875 27.917969 C 36.96875 28.40625 36.574219 28.800781 36.085938 28.800781 C 35.597656 28.800781 35.199219 28.40625 35.199219 27.917969 C 35.199219 27.429688 35.597656 27.035156 36.085938 27.035156 Z M 30.347656 32.289062 L 33.757812 30.578125 C 34.382812 31.125 35.191406 31.46875 36.085938 31.46875 C 38.042969 31.46875 39.636719 29.875 39.636719 27.917969 C 39.636719 25.960938 38.042969 24.367188 36.085938 24.367188 C 34.128906 24.367188 32.535156 25.960938 32.535156 27.917969 C 32.535156 28.011719 32.554688 28.101562 32.5625 28.195312 L 29.152344 29.902344 C 28.511719 29.335938 27.675781 28.980469 26.75 28.980469 C 24.75 28.980469 23.125 30.597656 23.125 32.585938 C 23.125 34.570312 24.75 36.1875 26.75 36.1875 C 27.792969 36.1875 28.726562 35.746094 29.386719 35.042969 L 32.507812 36.777344 C 32.484375 36.933594 32.460938 37.089844 32.460938 37.253906 C 32.460938 39.238281 34.085938 40.855469 36.085938 40.855469 C 38.085938 40.855469 39.710938 39.238281 39.710938 37.253906 C 39.710938 35.265625 38.085938 33.648438 36.085938 33.648438 C 35.226562 33.648438 34.445312 33.957031 33.820312 34.457031 L 30.375 32.542969 C 30.371094 32.457031 30.355469 32.375 30.347656 32.289062 Z M 32.585938 42.335938 C 27.207031 42.335938 22.835938 38.011719 22.835938 32.695312 C 22.835938 27.378906 27.207031 23.050781 32.585938 23.050781 C 37.960938 23.050781 42.335938 27.378906 42.335938 32.695312 C 42.335938 38.011719 37.960938 42.335938 32.585938 42.335938 Z M 32.585938 20.386719 C 25.738281 20.386719 20.167969 25.90625 20.167969 32.695312 C 20.167969 39.480469 25.738281 45 32.585938 45 C 39.429688 45 45.003906 39.480469 45.003906 32.695312 C 45.003906 25.90625 39.429688 20.386719 32.585938 20.386719 Z M 19.335938 49.335938 L 19.335938 13.503906 L 38.835938 13.5 L 38.835938 19.167969 C 38.835938 19.902344 39.429688 20.5 40.167969 20.5 L 45.835938 20.5 L 45.835938 49.335938 Z M 41.503906 15.386719 L 43.949219 17.832031 L 41.503906 17.832031 Z M 48.113281 18.222656 L 41.113281 11.222656 C 40.855469 10.96875 40.515625 10.84375 40.167969 10.84375 L 40.167969 10.832031 L 18 10.835938 C 17.261719 10.835938 16.667969 11.433594 16.667969 12.171875 L 16.667969 50.667969 C 16.667969 51.40625 17.261719 52.003906 18 52.003906 L 47.167969 52.003906 C 47.90625 52.003906 48.503906 51.40625 48.503906 50.667969 L 48.503906 19.167969 L 48.488281 19.167969 C 48.488281 18.820312 48.367188 18.480469 48.113281 18.222656 Z M 48.113281 18.222656 "/>
</svg>
