<?xml version="1.0" encoding="UTF-8"?>
<svg xmlns="http://www.w3.org/2000/svg" xmlns:xlink="http://www.w3.org/1999/xlink" width="64" height="64" viewBox="0 0 64 64">
<path fill-rule="evenodd" fill="rgb(54.901963%, 30.980393%, 100%)" fill-opacity="1" d="M 13.453125 35.886719 C 13.976562 36.410156 13.976562 37.253906 13.453125 37.773438 C 13.195312 38.035156 12.851562 38.164062 12.511719 38.164062 C 12.167969 38.164062 11.828125 38.035156 11.570312 37.773438 L 7.921875 34.125 C 7.398438 33.605469 7.398438 32.761719 7.921875 32.242188 L 11.570312 28.59375 C 12.089844 28.070312 12.933594 28.070312 13.453125 28.59375 C 13.976562 29.113281 13.976562 29.957031 13.453125 30.476562 L 12.082031 31.851562 L 18.589844 31.851562 L 18.589844 34.515625 L 12.082031 34.515625 Z M 56.011719 34.125 L 52.363281 37.773438 C 52.101562 38.035156 51.761719 38.164062 51.421875 38.164062 C 51.082031 38.164062 50.738281 38.035156 50.480469 37.773438 C 49.957031 37.253906 49.957031 36.410156 50.480469 35.886719 L 51.851562 34.515625 L 50.203125 34.515625 L 50.203125 31.851562 L 51.851562 31.851562 L 50.480469 30.476562 C 49.957031 29.957031 49.957031 29.113281 50.480469 28.59375 C 51 28.070312 51.84375 28.070312 52.363281 28.59375 L 56.011719 32.242188 C 56.535156 32.761719 56.535156 33.605469 56.011719 34.125 Z M 45.34375 34.515625 L 48.988281 34.515625 L 48.988281 31.851562 L 45.34375 31.851562 Z M 40.277344 18.851562 L 37.699219 21.433594 L 35.8125 19.546875 L 38.390625 16.96875 Z M 34.28125 25.886719 L 36.945312 25.886719 L 36.945312 22.238281 L 34.28125 22.238281 Z M 34.28125 30.75 L 36.945312 30.75 L 36.945312 27.101562 L 34.28125 27.101562 Z M 34.28125 35.613281 L 36.945312 35.613281 L 36.945312 31.96875 L 34.28125 31.96875 Z M 34.28125 40.480469 L 36.945312 40.480469 L 36.945312 36.832031 L 34.28125 36.832031 Z M 34.28125 45.339844 L 36.945312 45.339844 L 36.945312 41.695312 L 34.28125 41.695312 Z M 34.28125 50.207031 L 36.945312 50.207031 L 36.945312 46.558594 L 34.28125 46.558594 Z M 41.578125 16.277344 L 34.421875 16.277344 L 34.421875 13.609375 L 44.242188 13.609375 L 44.242188 23.457031 L 41.578125 23.457031 Z M 24.242188 16.277344 L 29.652344 21.6875 L 29.652344 50.207031 L 26.984375 50.207031 L 26.984375 22.792969 L 22.378906 18.1875 L 22.378906 23.457031 L 19.710938 23.457031 L 19.710938 13.609375 L 29.535156 13.609375 L 29.535156 16.277344 Z M 45.222656 39.261719 L 47.890625 39.261719 L 47.890625 47.890625 L 39.261719 47.890625 L 39.261719 45.226562 L 43.339844 45.226562 L 40.75 42.636719 L 42.636719 40.753906 L 45.222656 43.339844 Z M 47.480469 26.847656 L 45.597656 24.960938 L 49.261719 21.296875 L 51.148438 23.183594 Z M 40.75 29.808594 L 44.363281 26.195312 L 46.25 28.082031 L 42.636719 31.691406 Z M 40.359375 35.613281 L 43.027344 35.613281 L 43.027344 32.039062 L 40.359375 32.039062 Z M 40.359375 40.480469 L 43.027344 40.480469 L 43.027344 36.9375 L 40.359375 36.9375 Z M 20.59375 45.226562 L 24.667969 45.226562 L 24.667969 47.890625 L 16.039062 47.890625 L 16.039062 39.261719 L 18.707031 39.261719 L 18.707031 43.339844 L 20.90625 41.144531 L 20.90625 31.304688 L 12.785156 23.183594 L 14.667969 21.296875 L 23.574219 30.199219 L 23.574219 42.246094 Z M 31.964844 58.601562 C 17.28125 58.601562 5.332031 46.652344 5.332031 31.96875 C 5.332031 17.28125 17.28125 5.332031 31.964844 5.332031 C 46.652344 5.332031 58.597656 17.28125 58.597656 31.96875 C 58.597656 46.652344 46.652344 58.601562 31.964844 58.601562 Z M 31.964844 2.667969 C 15.808594 2.667969 2.664062 15.8125 2.664062 31.96875 C 2.664062 48.125 15.808594 61.265625 31.964844 61.265625 C 48.121094 61.265625 61.265625 48.125 61.265625 31.96875 C 61.265625 15.8125 48.121094 2.667969 31.964844 2.667969 Z M 31.964844 2.667969 "/>
</svg>
