<?xml version="1.0" encoding="UTF-8"?>
<svg xmlns="http://www.w3.org/2000/svg" xmlns:xlink="http://www.w3.org/1999/xlink" width="64" height="64" viewBox="0 0 64 64">
<path fill-rule="evenodd" fill="rgb(54.901963%, 30.980393%, 100%)" fill-opacity="1" d="M 56.277344 32.941406 L 50.445312 38.777344 L 48.558594 36.890625 L 52.117188 33.332031 L 33.332031 33.332031 L 33.332031 52.113281 L 36.890625 48.558594 L 38.777344 50.441406 L 32.941406 56.277344 C 32.683594 56.535156 32.339844 56.667969 32 56.667969 C 31.660156 56.667969 31.316406 56.535156 31.058594 56.277344 L 25.222656 50.441406 L 27.109375 48.558594 L 30.667969 52.113281 L 30.667969 33.332031 L 11.886719 33.332031 L 15.445312 36.890625 L 13.558594 38.777344 L 7.726562 32.941406 C 7.203125 32.421875 7.203125 31.578125 7.726562 31.058594 L 13.558594 25.222656 L 15.445312 27.109375 L 11.886719 30.667969 L 30.667969 30.667969 L 30.667969 11.882812 L 27.109375 15.441406 L 25.222656 13.554688 L 31.058594 7.722656 C 31.578125 7.203125 32.421875 7.203125 32.941406 7.722656 L 38.777344 13.554688 L 36.890625 15.441406 L 33.332031 11.882812 L 33.332031 30.667969 L 52.117188 30.667969 L 48.558594 27.109375 L 50.445312 25.222656 L 56.277344 31.058594 C 56.796875 31.578125 56.796875 32.421875 56.277344 32.941406 M 32 58.667969 C 17.296875 58.667969 5.332031 46.703125 5.332031 32 C 5.332031 17.296875 17.296875 5.332031 32 5.332031 C 46.703125 5.332031 58.667969 17.296875 58.667969 32 C 58.667969 46.703125 46.703125 58.667969 32 58.667969 M 32 2.667969 C 15.824219 2.667969 2.667969 15.824219 2.667969 32 C 2.667969 48.175781 15.824219 61.332031 32 61.332031 C 48.175781 61.332031 61.332031 48.175781 61.332031 32 C 61.332031 15.824219 48.175781 2.667969 32 2.667969 "/>
</svg>
