<?xml version="1.0" encoding="UTF-8"?>
<svg xmlns="http://www.w3.org/2000/svg" xmlns:xlink="http://www.w3.org/1999/xlink" width="64" height="64" viewBox="0 0 64 64">
<path fill-rule="evenodd" fill="rgb(54.901963%, 30.980393%, 100%)" fill-opacity="1" d="M 31.757812 47.386719 C 27.765625 47.386719 24.105469 45.371094 21.957031 42 C 20.265625 39.339844 20.238281 35.902344 21.886719 33.027344 L 21.933594 32.945312 C 23.839844 30.046875 23.441406 26.167969 22.851562 23.625 C 24.386719 24.742188 25.734375 26.722656 26.21875 27.582031 C 26.46875 28.039062 26.96875 28.308594 27.488281 28.265625 C 28.007812 28.222656 28.457031 27.882812 28.632812 27.394531 C 30.367188 22.636719 29.558594 19.027344 28.355469 16.632812 C 30.464844 17.5 33.058594 18.996094 34.914062 21.503906 C 37.109375 24.46875 37.867188 28.296875 37.167969 32.875 C 37.085938 33.417969 37.34375 33.957031 37.820312 34.230469 C 38.292969 34.503906 38.890625 34.460938 39.316406 34.117188 C 39.410156 34.046875 41.210938 32.574219 42.171875 29.066406 C 42.789062 30.082031 43.363281 31.660156 43.363281 33.996094 C 43.363281 38.996094 41.855469 47.386719 31.757812 47.386719 M 41.960938 25.117188 C 41.570312 24.90625 41.101562 24.90625 40.710938 25.113281 C 40.316406 25.320312 40.054688 25.710938 40.007812 26.152344 C 39.976562 26.4375 39.941406 26.707031 39.898438 26.964844 C 39.519531 24.3125 38.5625 21.949219 37.042969 19.894531 C 32.710938 14.058594 25.378906 12.949219 25.066406 12.90625 C 24.484375 12.816406 23.902344 13.144531 23.660156 13.691406 C 23.421875 14.238281 23.578125 14.882812 24.042969 15.261719 C 24.210938 15.402344 27.644531 18.289062 26.828125 23.785156 C 25.433594 22.078125 23.304688 20.15625 20.820312 20.15625 C 20.378906 20.15625 19.960938 20.375 19.714844 20.742188 C 19.464844 21.109375 19.417969 21.574219 19.582031 21.988281 C 20.253906 23.660156 21.589844 28.621094 19.710938 31.472656 C 19.695312 31.492188 19.628906 31.601562 19.617188 31.621094 L 19.582031 31.683594 C 19.578125 31.691406 19.574219 31.695312 19.570312 31.699219 C 17.429688 35.4375 17.484375 39.933594 19.710938 43.433594 C 22.34375 47.578125 26.847656 50.050781 31.757812 50.050781 C 45 50.050781 46.03125 37.761719 46.03125 33.996094 C 46.03125 27.371094 42.128906 25.207031 41.960938 25.117188 M 45.847656 51.644531 C 39.753906 52.738281 34.558594 55.71875 32.019531 57.386719 C 29.484375 55.71875 24.285156 52.738281 18.191406 51.644531 C 15.175781 51.101562 5.332031 48.71875 5.332031 40.796875 C 5.332031 37.421875 6.59375 35.25 8.054688 32.734375 C 9.457031 30.316406 11.050781 27.574219 11.050781 23.855469 C 11.050781 19.066406 8.800781 15.472656 7.03125 13.382812 C 8.695312 11.351562 11.027344 8.496094 12.703125 6.386719 C 15.652344 8.742188 19.011719 10.027344 22.289062 10.027344 C 25.996094 10.027344 29.191406 8.679688 32.019531 5.914062 C 34.847656 8.679688 38.046875 10.027344 41.75 10.027344 C 45.03125 10.027344 48.390625 8.742188 51.339844 6.386719 C 53.089844 8.59375 55.507812 11.550781 57.007812 13.382812 C 55.238281 15.472656 52.992188 19.066406 52.992188 23.855469 C 52.992188 27.578125 54.585938 30.316406 55.992188 32.738281 C 57.449219 35.253906 58.707031 37.421875 58.707031 40.796875 C 58.707031 48.71875 48.867188 51.101562 45.847656 51.644531 M 58.292969 31.394531 C 56.9375 29.0625 55.660156 26.859375 55.660156 23.855469 C 55.660156 19.242188 58.207031 15.917969 59.730469 14.351562 C 60.199219 13.863281 60.230469 13.101562 59.800781 12.578125 C 58.285156 10.738281 54.554688 6.1875 52.574219 3.648438 C 52.34375 3.355469 52.003906 3.171875 51.632812 3.140625 C 51.261719 3.105469 50.894531 3.238281 50.617188 3.492188 C 47.917969 5.984375 44.769531 7.359375 41.75 7.359375 C 38.367188 7.359375 35.589844 6.003906 33.019531 3.09375 C 32.511719 2.523438 31.527344 2.523438 31.019531 3.09375 C 28.449219 6.003906 25.675781 7.359375 22.289062 7.359375 C 19.273438 7.359375 16.121094 5.984375 13.421875 3.492188 C 13.148438 3.238281 12.78125 3.105469 12.40625 3.140625 C 12.035156 3.171875 11.695312 3.355469 11.464844 3.648438 C 9.621094 6.011719 6.148438 10.257812 4.238281 12.578125 C 3.808594 13.101562 3.839844 13.863281 4.3125 14.351562 C 5.832031 15.917969 8.382812 19.242188 8.382812 23.855469 C 8.382812 26.859375 7.101562 29.0625 5.746094 31.398438 C 4.230469 34.007812 2.667969 36.703125 2.667969 40.796875 C 2.667969 50.785156 14.1875 53.632812 17.71875 54.269531 C 23.992188 55.394531 29.28125 58.714844 31.261719 60.089844 C 31.488281 60.246094 31.753906 60.328125 32.019531 60.328125 C 32.285156 60.328125 32.550781 60.246094 32.78125 60.089844 C 34.761719 58.714844 40.046875 55.394531 46.320312 54.269531 C 49.851562 53.632812 61.375 50.785156 61.375 40.796875 C 61.375 36.707031 59.808594 34.007812 58.292969 31.394531 "/>
</svg>
