<?xml version="1.0" encoding="UTF-8"?>
<svg xmlns="http://www.w3.org/2000/svg" xmlns:xlink="http://www.w3.org/1999/xlink" width="64" height="64" viewBox="0 0 64 64">
<path fill-rule="evenodd" fill="rgb(54.901963%, 30.980393%, 100%)" fill-opacity="1" d="M 43.96875 42.683594 C 41.765625 42.683594 39.96875 40.886719 39.96875 38.683594 C 39.96875 36.476562 41.765625 34.683594 43.96875 34.683594 C 46.175781 34.683594 47.96875 36.476562 47.96875 38.683594 C 47.96875 40.886719 46.175781 42.683594 43.96875 42.683594 M 27.96875 22.683594 C 27.96875 20.476562 29.765625 18.683594 31.96875 18.683594 C 34.175781 18.683594 35.96875 20.476562 35.96875 22.683594 C 35.96875 24.886719 34.175781 26.683594 31.96875 26.683594 C 29.765625 26.683594 27.96875 24.886719 27.96875 22.683594 M 19.96875 42.683594 C 17.765625 42.683594 15.96875 40.886719 15.96875 38.683594 C 15.96875 36.476562 17.765625 34.683594 19.96875 34.683594 C 22.175781 34.683594 23.96875 36.476562 23.96875 38.683594 C 23.96875 40.886719 22.175781 42.683594 19.96875 42.683594 M 43.96875 32.015625 C 42.972656 32.015625 42.035156 32.253906 41.183594 32.644531 L 36.957031 27.0625 C 37.988281 25.886719 38.636719 24.367188 38.636719 22.683594 C 38.636719 19.007812 35.648438 16.015625 31.96875 16.015625 C 28.292969 16.015625 25.304688 19.007812 25.304688 22.683594 C 25.304688 24.273438 25.886719 25.714844 26.820312 26.863281 L 22.527344 32.53125 C 21.738281 32.203125 20.875 32.015625 19.96875 32.015625 C 16.292969 32.015625 13.304688 35.007812 13.304688 38.683594 C 13.304688 42.359375 16.292969 45.347656 19.96875 45.347656 C 23.648438 45.347656 26.636719 42.359375 26.636719 38.683594 C 26.636719 36.875 25.90625 35.234375 24.730469 34.03125 L 28.882812 28.554688 C 29.8125 29.046875 30.851562 29.347656 31.96875 29.347656 C 33 29.347656 33.960938 29.097656 34.832031 28.675781 L 39.042969 34.234375 C 37.972656 35.414062 37.304688 36.964844 37.304688 38.683594 C 37.304688 42.359375 40.292969 45.347656 43.96875 45.347656 C 47.648438 45.347656 50.636719 42.359375 50.636719 38.683594 C 50.636719 35.007812 47.648438 32.015625 43.96875 32.015625 M 45.40625 52.597656 C 39.1875 53.710938 33.945312 56.988281 31.992188 58.335938 C 30.035156 56.988281 24.789062 53.710938 18.570312 52.597656 C 15.464844 52.039062 5.332031 49.558594 5.332031 41.09375 C 5.332031 37.558594 6.671875 35.253906 8.089844 32.8125 C 9.421875 30.519531 10.792969 28.148438 10.792969 24.90625 C 10.792969 20.023438 8.09375 16.511719 6.589844 14.933594 C 8.125 13.0625 11.511719 8.933594 13.371094 6.554688 C 16.199219 9.132812 19.460938 10.535156 22.691406 10.535156 C 26.292969 10.535156 29.28125 9.117188 31.992188 6.09375 C 34.699219 9.117188 37.6875 10.535156 41.285156 10.535156 C 44.519531 10.535156 47.78125 9.132812 50.609375 6.554688 C 52.464844 8.933594 55.851562 13.0625 57.390625 14.933594 C 55.886719 16.511719 53.183594 20.023438 53.183594 24.90625 C 53.183594 28.148438 54.558594 30.519531 55.890625 32.8125 C 57.308594 35.253906 58.644531 37.558594 58.644531 41.09375 C 58.644531 49.558594 48.511719 52.039062 45.40625 52.597656 M 58.195312 31.472656 C 56.9375 29.304688 55.851562 27.433594 55.851562 24.90625 C 55.851562 19.574219 60.007812 16.113281 60.050781 16.082031 C 60.324219 15.855469 60.5 15.53125 60.539062 15.175781 C 60.570312 14.824219 60.464844 14.46875 60.238281 14.195312 C 60.167969 14.113281 53.378906 5.882812 51.828125 3.757812 C 51.597656 3.4375 51.230469 3.238281 50.832031 3.210938 C 50.457031 3.183594 50.050781 3.339844 49.777344 3.632812 C 47.222656 6.367188 44.207031 7.871094 41.285156 7.871094 C 38.066406 7.871094 35.523438 6.425781 33.050781 3.1875 C 32.796875 2.859375 32.40625 2.667969 31.992188 2.667969 C 31.574219 2.667969 31.183594 2.859375 30.933594 3.1875 C 28.453125 6.425781 25.910156 7.871094 22.691406 7.871094 C 19.773438 7.871094 16.757812 6.367188 14.203125 3.632812 C 13.929688 3.339844 13.519531 3.183594 13.148438 3.210938 C 12.75 3.238281 12.382812 3.4375 12.152344 3.757812 C 10.601562 5.882812 3.808594 14.113281 3.738281 14.195312 C 3.515625 14.46875 3.410156 14.820312 3.441406 15.175781 C 3.480469 15.527344 3.652344 15.851562 3.929688 16.078125 C 3.96875 16.113281 8.128906 19.574219 8.128906 24.90625 C 8.128906 27.433594 7.042969 29.304688 5.78125 31.472656 C 4.324219 33.988281 2.667969 36.839844 2.667969 41.09375 C 2.667969 48.203125 8.4375 53.484375 18.101562 55.21875 C 25.183594 56.492188 31.117188 60.992188 31.179688 61.035156 C 31.417969 61.21875 31.703125 61.3125 31.992188 61.3125 C 32.277344 61.3125 32.5625 61.21875 32.800781 61.035156 C 32.863281 60.992188 38.792969 56.492188 45.878906 55.21875 C 55.542969 53.484375 61.3125 48.203125 61.3125 41.09375 C 61.3125 36.839844 59.65625 33.988281 58.195312 31.472656 "/>
</svg>
