<?xml version="1.0" encoding="UTF-8"?>
<svg xmlns="http://www.w3.org/2000/svg" xmlns:xlink="http://www.w3.org/1999/xlink" width="64" height="64" viewBox="0 0 64 64">
<path fill-rule="evenodd" fill="rgb(54.901963%, 30.980393%, 100%)" fill-opacity="1" d="M 38.601562 25.398438 C 40.363281 27.164062 41.332031 29.507812 41.332031 32 C 41.332031 34.492188 40.363281 36.835938 38.601562 38.597656 L 40.484375 40.484375 C 42.753906 38.21875 44 35.207031 44 32 C 44 28.792969 42.753906 25.78125 40.484375 23.515625 Z M 33.332031 50.960938 L 33.332031 40.667969 L 30.667969 40.667969 L 30.667969 50.964844 L 25.285156 45.171875 L 23.820312 46.539062 L 31.996094 55.332031 L 40.175781 46.539062 L 38.714844 45.171875 Z M 58.667969 32 C 58.667969 17.296875 46.703125 5.332031 32 5.332031 C 17.292969 5.332031 5.332031 17.296875 5.332031 32 C 5.332031 46.703125 17.292969 58.667969 32 58.667969 C 46.703125 58.667969 58.667969 46.703125 58.667969 32 Z M 61.332031 32 C 61.332031 48.175781 48.175781 61.332031 32 61.332031 C 15.824219 61.332031 2.667969 48.175781 2.667969 32 C 2.667969 15.824219 15.824219 2.667969 32 2.667969 C 48.175781 2.667969 61.332031 15.824219 61.332031 32 Z M 46.140625 17.855469 L 44.257812 19.742188 C 47.53125 23.015625 49.332031 27.371094 49.332031 32 C 49.332031 36.628906 47.53125 40.984375 44.257812 44.257812 L 46.140625 46.140625 C 49.917969 42.363281 52 37.339844 52 32 C 52 26.65625 49.917969 21.632812 46.140625 17.855469 Z M 22.667969 32 C 22.667969 29.507812 23.636719 27.164062 25.398438 25.398438 L 23.515625 23.515625 C 21.246094 25.78125 20 28.792969 20 32 C 20 35.207031 21.246094 38.21875 23.515625 40.484375 L 25.398438 38.597656 C 23.636719 36.835938 22.667969 34.492188 22.667969 32 Z M 32 29.332031 C 30.53125 29.332031 29.332031 30.53125 29.332031 32 C 29.332031 33.46875 30.53125 34.667969 32 34.667969 C 33.46875 34.667969 34.667969 33.46875 34.667969 32 C 34.667969 30.53125 33.46875 29.332031 32 29.332031 Z M 32 26.667969 C 34.941406 26.667969 37.332031 29.058594 37.332031 32 C 37.332031 34.941406 34.941406 37.332031 32 37.332031 C 29.058594 37.332031 26.667969 34.941406 26.667969 32 C 26.667969 29.058594 29.058594 26.667969 32 26.667969 Z M 30.667969 13.035156 L 30.667969 23.332031 L 33.332031 23.332031 L 33.332031 13.039062 L 38.714844 18.828125 L 40.175781 17.460938 L 31.996094 8.667969 L 23.820312 17.460938 L 25.285156 18.828125 Z M 19.742188 19.742188 C 16.46875 23.015625 14.667969 27.371094 14.667969 32 C 14.667969 36.628906 16.46875 40.984375 19.742188 44.257812 L 17.855469 46.140625 C 14.078125 42.363281 12 37.339844 12 32 C 12 26.65625 14.078125 21.632812 17.855469 17.855469 Z M 19.742188 19.742188 "/>
</svg>
