<?xml version="1.0" encoding="UTF-8"?>
<svg xmlns="http://www.w3.org/2000/svg" xmlns:xlink="http://www.w3.org/1999/xlink" width="64" height="64" viewBox="0 0 64 64">
<path fill-rule="evenodd" fill="rgb(54.901963%, 30.980393%, 100%)" fill-opacity="1" d="M 32 58.667969 C 17.296875 58.667969 5.332031 46.703125 5.332031 32 C 5.332031 17.296875 17.296875 5.332031 32 5.332031 C 46.703125 5.332031 58.667969 17.296875 58.667969 32 C 58.667969 46.703125 46.703125 58.667969 32 58.667969 M 32 2.667969 C 15.824219 2.667969 2.667969 15.824219 2.667969 32 C 2.667969 48.175781 15.824219 61.332031 32 61.332031 C 48.175781 61.332031 61.332031 48.175781 61.332031 32 C 61.332031 15.824219 48.175781 2.667969 32 2.667969 M 48 36 C 45.792969 36 44 34.207031 44 32 C 44 29.792969 45.792969 28 48 28 C 50.207031 28 52 29.792969 52 32 C 52 34.207031 50.207031 36 48 36 M 16 36 C 13.792969 36 12 34.207031 12 32 C 12 29.792969 13.792969 28 16 28 C 18.207031 28 20 29.792969 20 32 C 20 34.207031 18.207031 36 16 36 M 48 25.332031 C 44.78125 25.332031 42.089844 27.628906 41.46875 30.667969 L 22.53125 30.667969 C 21.910156 27.628906 19.21875 25.332031 16 25.332031 C 12.324219 25.332031 9.332031 28.324219 9.332031 32 C 9.332031 35.675781 12.324219 38.667969 16 38.667969 C 19.21875 38.667969 21.910156 36.371094 22.53125 33.332031 L 41.46875 33.332031 C 42.089844 36.371094 44.78125 38.667969 48 38.667969 C 51.675781 38.667969 54.667969 35.675781 54.667969 32 C 54.667969 28.324219 51.675781 25.332031 48 25.332031 "/>
</svg>
