<?xml version="1.0" encoding="UTF-8"?>
<svg xmlns="http://www.w3.org/2000/svg" xmlns:xlink="http://www.w3.org/1999/xlink" width="64" height="64" viewBox="0 0 64 64">
<path fill-rule="evenodd" fill="rgb(54.901963%, 30.980393%, 100%)" fill-opacity="1" d="M 44.921875 45.832031 L 48.046875 45.832031 L 48.046875 42.667969 L 44.921875 42.667969 Z M 35.667969 45.832031 L 38.835938 45.832031 L 38.835938 42.667969 L 35.667969 42.667969 Z M 25.167969 45.832031 L 28.335938 45.832031 L 28.335938 42.667969 L 25.167969 42.667969 Z M 15.953125 45.832031 L 19 45.832031 L 19 42.667969 L 15.953125 42.667969 Z M 24 22.5 L 40 22.5 L 40 14.667969 L 24 14.667969 Z M 49.378906 40 L 47.335938 40 L 47.335938 35.5 C 47.335938 34.761719 46.738281 34.167969 46 34.167969 L 42.667969 34.167969 L 42.667969 29.667969 C 42.667969 28.929688 42.070312 28.332031 41.335938 28.332031 L 33.335938 28.332031 L 33.335938 25.167969 L 41.335938 25.167969 C 42.070312 25.167969 42.667969 24.570312 42.667969 23.832031 L 42.667969 13.332031 C 42.667969 12.597656 42.070312 12 41.335938 12 L 22.667969 12 C 21.929688 12 21.335938 12.597656 21.335938 13.332031 L 21.335938 23.832031 C 21.335938 24.570312 21.929688 25.167969 22.667969 25.167969 L 30.667969 25.167969 L 30.667969 28.332031 L 22.667969 28.332031 C 21.929688 28.332031 21.335938 28.929688 21.335938 29.667969 L 21.335938 34.167969 L 18 34.167969 C 17.265625 34.167969 16.667969 34.761719 16.667969 35.5 L 16.667969 40 L 14.621094 40 C 13.882812 40 13.285156 40.597656 13.285156 41.332031 L 13.285156 47.167969 C 13.285156 47.902344 13.882812 48.5 14.621094 48.5 L 20.335938 48.5 C 21.070312 48.5 21.667969 47.902344 21.667969 47.167969 L 21.667969 41.332031 C 21.667969 40.597656 21.070312 40 20.335938 40 L 19.335938 40 L 19.335938 36.832031 L 24.835938 36.832031 L 24.835938 40 L 23.835938 40 C 23.097656 40 22.5 40.597656 22.5 41.332031 L 22.5 47.167969 C 22.5 47.902344 23.097656 48.5 23.835938 48.5 L 29.667969 48.5 C 30.402344 48.5 31 47.902344 31 47.167969 L 31 41.332031 C 31 40.597656 30.402344 40 29.667969 40 L 27.5 40 L 27.5 35.5 C 27.5 34.761719 26.902344 34.167969 26.167969 34.167969 L 24 34.167969 L 24 31 L 40 31 L 40 34.167969 L 37.835938 34.167969 C 37.097656 34.167969 36.5 34.761719 36.5 35.5 L 36.5 40 L 34.335938 40 C 33.597656 40 33 40.597656 33 41.332031 L 33 47.167969 C 33 47.902344 33.597656 48.5 34.335938 48.5 L 40.167969 48.5 C 40.902344 48.5 41.5 47.902344 41.5 47.167969 L 41.5 41.332031 C 41.5 40.597656 40.902344 40 40.167969 40 L 39.167969 40 L 39.167969 36.832031 L 44.667969 36.832031 L 44.667969 40 L 43.585938 40 C 42.847656 40 42.253906 40.597656 42.253906 41.332031 L 42.253906 47.167969 C 42.253906 47.902344 42.847656 48.5 43.585938 48.5 L 49.378906 48.5 C 50.117188 48.5 50.714844 47.902344 50.714844 47.167969 L 50.714844 41.332031 C 50.714844 40.597656 50.117188 40 49.378906 40 Z M 32 58.667969 C 17.296875 58.667969 5.332031 46.703125 5.332031 32 C 5.332031 17.296875 17.296875 5.332031 32 5.332031 C 46.707031 5.332031 58.667969 17.296875 58.667969 32 C 58.667969 46.703125 46.707031 58.667969 32 58.667969 Z M 32 2.667969 C 15.824219 2.667969 2.667969 15.824219 2.667969 32 C 2.667969 48.175781 15.824219 61.332031 32 61.332031 C 48.175781 61.332031 61.335938 48.175781 61.335938 32 C 61.335938 15.824219 48.175781 2.667969 32 2.667969 Z M 32 2.667969 "/>
</svg>
