<?xml version="1.0" encoding="UTF-8"?>
<svg xmlns="http://www.w3.org/2000/svg" xmlns:xlink="http://www.w3.org/1999/xlink" width="64" height="64" viewBox="0 0 64 64">
<path fill-rule="evenodd" fill="rgb(54.901963%, 30.980393%, 100%)" fill-opacity="1" d="M 21.277344 36.890625 L 23.164062 38.777344 L 21.277344 40.664062 L 19.390625 38.777344 Z M 25.136719 40.753906 L 29.085938 44.699219 L 27.199219 46.585938 L 23.25 42.636719 Z M 38.867188 40.753906 L 40.753906 42.636719 L 36.804688 46.585938 L 34.917969 44.699219 Z M 42.726562 36.890625 L 44.613281 38.777344 L 42.726562 40.664062 L 40.839844 38.777344 Z M 33.335938 47.066406 L 34.828125 48.558594 L 32.945312 50.445312 C 32.683594 50.707031 32.34375 50.835938 32 50.835938 C 31.660156 50.835938 31.320312 50.707031 31.058594 50.445312 L 29.171875 48.558594 L 30.667969 47.066406 L 30.667969 45.667969 L 33.335938 45.667969 Z M 30.667969 21.949219 L 33.335938 21.949219 L 33.335938 17.207031 L 30.667969 17.207031 Z M 30.667969 29.066406 L 33.335938 29.066406 L 33.335938 24.320312 L 30.667969 24.320312 Z M 30.667969 36.183594 L 33.335938 36.183594 L 33.335938 31.4375 L 30.667969 31.4375 Z M 30.667969 43.296875 L 33.335938 43.296875 L 33.335938 38.554688 L 30.667969 38.554688 Z M 30.667969 14.832031 L 33.335938 14.832031 L 33.335938 12.167969 L 30.667969 12.167969 Z M 32 58.667969 C 17.296875 58.667969 5.332031 46.707031 5.332031 32 C 5.332031 17.296875 17.296875 5.332031 32 5.332031 C 46.707031 5.332031 58.667969 17.296875 58.667969 32 C 58.667969 46.707031 46.707031 58.667969 32 58.667969 Z M 32 2.667969 C 15.824219 2.667969 2.667969 15.824219 2.667969 32 C 2.667969 48.175781 15.824219 61.335938 32 61.335938 C 48.175781 61.335938 61.335938 48.175781 61.335938 32 C 61.335938 15.824219 48.175781 2.667969 32 2.667969 Z M 32 2.667969 "/>
</svg>
