<?xml version="1.0" encoding="UTF-8"?>
<svg xmlns="http://www.w3.org/2000/svg" xmlns:xlink="http://www.w3.org/1999/xlink" width="64" height="64" viewBox="0 0 64 64">
<path fill-rule="evenodd" fill="rgb(54.901963%, 30.980393%, 100%)" fill-opacity="1" d="M 53.332031 34.636719 L 48.664062 32.675781 L 48.664062 51.835938 C 53.207031 50.863281 53.332031 45.574219 53.332031 45.328125 Z M 46 51.898438 L 46 32.675781 L 41.332031 34.636719 L 41.332031 45.339844 C 41.34375 45.953125 41.578125 51.117188 46 51.898438 Z M 46.816406 29.441406 C 47.144531 29.300781 47.515625 29.304688 47.847656 29.441406 L 55.183594 32.519531 C 55.679688 32.726562 56 33.210938 56 33.75 L 56 45.339844 C 55.96875 48.574219 54.082031 54.671875 47.160156 54.671875 C 40.523438 54.671875 38.703125 48.574219 38.667969 45.351562 L 38.667969 33.75 C 38.667969 33.210938 38.988281 32.726562 39.484375 32.519531 Z M 58.667969 30.390625 L 47.324219 25.457031 L 36 30.222656 L 36 44.03125 C 36 44.121094 35.949219 50.679688 39.742188 54.523438 C 41.582031 56.390625 44.078125 57.339844 47.160156 57.339844 C 58.410156 57.339844 58.660156 44.566406 58.667969 44.023438 Z M 61.332031 29.515625 L 61.332031 44.03125 C 61.296875 49.5625 58.289062 60.003906 47.160156 60.003906 C 43.332031 60.003906 40.191406 58.785156 37.832031 56.382812 C 33.253906 51.730469 33.328125 44.324219 33.332031 44.011719 L 33.332031 29.339844 C 33.332031 28.800781 33.65625 28.316406 34.148438 28.109375 L 46.816406 22.777344 C 47.152344 22.632812 47.53125 22.636719 47.863281 22.78125 L 60.53125 28.292969 C 61.019531 28.503906 61.332031 28.984375 61.332031 29.515625 Z M 14.667969 40.003906 L 29.332031 40.003906 L 29.332031 42.671875 L 14.667969 42.671875 C 8.289062 42.671875 3.027344 37.976562 2.691406 31.984375 C 2.667969 31.75 2.667969 31.464844 2.667969 31.179688 C 2.667969 24.113281 7.539062 21.382812 10.558594 20.371094 C 10.535156 20.082031 10.519531 19.789062 10.519531 19.5 C 10.519531 13.386719 14.210938 7.601562 19.496094 5.4375 C 26.105469 2.734375 33.648438 3.914062 38.261719 8.378906 C 39.625 9.710938 40.804688 11.460938 41.789062 13.609375 C 43.066406 12.5625 44.523438 12.003906 46.03125 12.003906 C 49.644531 12.003906 53.707031 15.0625 54.535156 20.082031 C 57.425781 20.457031 59.914062 22.183594 61.195312 24.777344 L 58.804688 25.957031 C 57.785156 23.898438 55.742188 22.671875 53.332031 22.671875 C 52.628906 22.671875 52.042969 22.121094 52.003906 21.417969 C 51.742188 17.015625 48.367188 14.671875 46.03125 14.671875 C 44.734375 14.671875 43.441406 15.433594 42.394531 16.808594 C 42.101562 17.199219 41.621094 17.398438 41.136719 17.324219 C 40.652344 17.25 40.25 16.921875 40.082031 16.464844 C 39.101562 13.792969 37.863281 11.71875 36.402344 10.292969 C 32.542969 6.554688 26.152344 5.59375 20.503906 7.90625 C 15.699219 9.875 13.1875 15.226562 13.1875 19.5 C 13.1875 20.035156 13.261719 20.671875 13.324219 21.179688 C 13.402344 21.847656 12.972656 22.46875 12.320312 22.632812 C 9.710938 23.277344 5.332031 25.25 5.332031 31.179688 C 5.332031 31.378906 5.332031 31.578125 5.351562 31.78125 C 5.613281 36.414062 9.703125 40.003906 14.667969 40.003906 Z M 14.667969 40.003906 "/>
</svg>
