<?xml version="1.0" encoding="UTF-8"?>
<svg xmlns="http://www.w3.org/2000/svg" xmlns:xlink="http://www.w3.org/1999/xlink" width="64" height="64" viewBox="0 0 64 64">
<path fill-rule="evenodd" fill="rgb(54.901963%, 30.980393%, 100%)" fill-opacity="1" d="M 57.65625 47.917969 C 56.871094 48.703125 55.59375 48.703125 54.808594 47.917969 C 54.425781 47.535156 54.21875 47.03125 54.21875 46.492188 C 54.21875 45.953125 54.425781 45.449219 54.808594 45.070312 C 55.199219 44.675781 55.714844 44.480469 56.230469 44.480469 C 56.746094 44.480469 57.261719 44.675781 57.65625 45.070312 C 58.441406 45.855469 58.441406 47.132812 57.65625 47.917969 Z M 41.277344 56.777344 C 40.519531 57.539062 39.191406 57.542969 38.429688 56.777344 C 37.644531 55.992188 37.644531 54.714844 38.429688 53.929688 C 38.820312 53.539062 39.339844 53.339844 39.855469 53.339844 C 40.371094 53.339844 40.886719 53.539062 41.277344 53.929688 C 42.0625 54.714844 42.0625 55.992188 41.277344 56.777344 Z M 28.441406 49.328125 C 28.335938 48.257812 27.886719 47.261719 27.117188 46.492188 C 26.613281 45.984375 25.996094 45.640625 25.332031 45.425781 L 25.332031 37.152344 C 25.984375 36.925781 26.597656 36.574219 27.117188 36.054688 C 28.945312 34.230469 28.945312 31.261719 27.117188 29.433594 C 25.292969 27.609375 22.324219 27.613281 20.5 29.433594 C 18.675781 31.261719 18.675781 34.230469 20.5 36.054688 C 21.121094 36.675781 21.875 37.066406 22.667969 37.265625 L 22.667969 45.316406 C 21.863281 45.507812 21.101562 45.886719 20.5 46.492188 C 19.726562 47.261719 19.28125 48.261719 19.175781 49.332031 L 12 49.332031 L 12 12 L 38.667969 12 L 38.667969 17.988281 C 37.878906 18.183594 37.136719 18.558594 36.542969 19.152344 C 35.660156 20.035156 35.171875 21.210938 35.171875 22.460938 C 35.171875 23.710938 35.660156 24.886719 36.542969 25.769531 C 37.140625 26.363281 37.871094 26.761719 38.667969 26.96875 L 38.667969 34.910156 C 37.890625 35.113281 37.152344 35.5 36.542969 36.105469 C 34.71875 37.933594 34.71875 40.902344 36.542969 42.726562 C 37.140625 43.324219 37.871094 43.71875 38.667969 43.925781 L 38.667969 50.847656 C 37.890625 51.050781 37.152344 51.4375 36.542969 52.042969 C 36.324219 52.261719 36.136719 52.5 35.96875 52.746094 Z M 25.234375 34.167969 C 24.445312 34.953125 23.171875 34.953125 22.386719 34.167969 C 21.601562 33.382812 21.601562 32.105469 22.386719 31.320312 C 22.777344 30.929688 23.296875 30.730469 23.808594 30.730469 C 24.324219 30.730469 24.839844 30.929688 25.234375 31.320312 C 26.019531 32.105469 26.019531 33.382812 25.234375 34.167969 Z M 25.234375 51.222656 C 24.476562 51.984375 23.148438 51.988281 22.386719 51.222656 C 22.003906 50.84375 21.796875 50.339844 21.796875 49.800781 C 21.796875 49.261719 22.003906 48.757812 22.386719 48.375 C 22.765625 47.996094 23.269531 47.785156 23.808594 47.785156 C 24.347656 47.785156 24.851562 47.996094 25.234375 48.375 C 25.613281 48.757812 25.824219 49.261719 25.824219 49.800781 C 25.824219 50.339844 25.613281 50.84375 25.234375 51.222656 Z M 5.332031 44 L 5.332031 6.667969 L 32 6.667969 L 32 9.335938 L 9.332031 9.335938 L 9.332031 44 Z M 41.277344 23.882812 C 40.519531 24.644531 39.191406 24.644531 38.429688 23.882812 C 38.050781 23.503906 37.839844 23 37.839844 22.460938 C 37.839844 21.921875 38.050781 21.417969 38.429688 21.035156 C 38.808594 20.65625 39.316406 20.445312 39.851562 20.445312 C 40.390625 20.445312 40.898438 20.65625 41.277344 21.035156 C 41.65625 21.417969 41.867188 21.921875 41.867188 22.460938 C 41.867188 23 41.65625 23.503906 41.277344 23.882812 Z M 41.277344 40.839844 C 40.519531 41.601562 39.191406 41.601562 38.429688 40.839844 C 37.644531 40.054688 37.644531 38.777344 38.429688 37.992188 C 38.820312 37.601562 39.339844 37.402344 39.855469 37.402344 C 40.371094 37.402344 40.886719 37.601562 41.277344 37.992188 C 42.0625 38.777344 42.0625 40.054688 41.277344 40.839844 Z M 54.808594 27.070312 C 55.199219 26.679688 55.714844 26.480469 56.230469 26.480469 C 56.746094 26.480469 57.261719 26.679688 57.65625 27.070312 C 58.441406 27.855469 58.441406 29.132812 57.65625 29.917969 C 56.871094 30.703125 55.59375 30.703125 54.808594 29.917969 C 54.023438 29.132812 54.023438 27.855469 54.808594 27.070312 Z M 59.542969 43.183594 C 57.714844 41.359375 54.746094 41.359375 52.921875 43.183594 C 52.039062 44.066406 51.550781 45.242188 51.550781 46.492188 C 51.550781 46.976562 51.644531 47.441406 51.785156 47.890625 L 43.847656 52.941406 C 43.65625 52.625 43.4375 52.320312 43.164062 52.042969 C 42.632812 51.511719 42 51.15625 41.332031 50.933594 L 41.332031 43.839844 C 42.011719 43.613281 42.640625 43.246094 43.164062 42.726562 C 44.257812 41.632812 44.683594 40.125 44.464844 38.699219 L 53.402344 32.199219 C 54.238281 32.835938 55.230469 33.171875 56.230469 33.171875 C 57.429688 33.171875 58.628906 32.714844 59.542969 31.804688 C 61.367188 29.980469 61.367188 27.011719 59.542969 25.183594 C 57.714844 23.359375 54.746094 23.359375 52.921875 25.183594 C 51.609375 26.496094 51.257812 28.398438 51.832031 30.042969 L 43.285156 36.257812 C 43.242188 36.210938 43.210938 36.152344 43.164062 36.105469 C 42.632812 35.574219 42 35.21875 41.332031 34.996094 L 41.332031 26.882812 C 42.011719 26.65625 42.640625 26.292969 43.164062 25.769531 C 44.046875 24.886719 44.535156 23.710938 44.535156 22.460938 C 44.535156 21.210938 44.046875 20.035156 43.164062 19.152344 C 42.644531 18.632812 42.011719 18.285156 41.332031 18.070312 L 41.332031 9.335938 L 34.667969 9.335938 L 34.667969 4 L 2.667969 4 L 2.667969 46.667969 L 9.332031 46.667969 L 9.332031 52 L 19.699219 52 C 19.917969 52.398438 20.167969 52.78125 20.5 53.109375 C 21.382812 53.992188 22.558594 54.480469 23.808594 54.480469 C 25.058594 54.480469 26.234375 53.992188 27.117188 53.109375 C 27.445312 52.785156 27.695312 52.40625 27.910156 52.011719 L 35.179688 55.316406 C 35.167969 56.527344 35.621094 57.742188 36.542969 58.664062 C 37.425781 59.546875 38.601562 60.035156 39.851562 60.035156 C 41.105469 60.035156 42.28125 59.546875 43.164062 58.664062 C 43.988281 57.835938 44.421875 56.773438 44.5 55.691406 L 53.285156 50.097656 C 54.144531 50.800781 55.179688 51.171875 56.230469 51.171875 C 57.429688 51.171875 58.628906 50.714844 59.542969 49.800781 C 61.367188 47.976562 61.367188 45.007812 59.542969 43.183594 Z M 59.542969 43.183594 "/>
</svg>
