<?xml version="1.0" encoding="UTF-8"?>
<svg xmlns="http://www.w3.org/2000/svg" xmlns:xlink="http://www.w3.org/1999/xlink" width="64" height="64" viewBox="0 0 64 64">
<path fill-rule="evenodd" fill="rgb(54.901963%, 30.980393%, 100%)" fill-opacity="1" d="M 32.371094 2.667969 L 7.707031 16.90625 L 9.039062 19.21875 L 31.039062 6.515625 L 31.039062 30.585938 L 9.769531 30.585938 L 15.3125 25.042969 L 13.429688 23.15625 L 4 32.582031 L 13.429688 42.007812 L 15.3125 40.125 L 8.4375 33.25 L 31.039062 33.25 L 31.039062 57.324219 L 9.039062 44.621094 L 7.707031 46.929688 L 32.371094 61.171875 L 57.039062 46.929688 L 55.707031 44.621094 L 33.707031 57.324219 L 33.707031 33.25 L 56 33.25 L 49.871094 39.382812 L 51.753906 41.265625 L 61.179688 31.839844 L 51.753906 22.410156 L 49.871094 24.296875 L 56.15625 30.585938 L 33.707031 30.585938 L 33.707031 6.515625 L 55.707031 19.21875 L 57.039062 16.90625 Z M 32.371094 2.667969 "/>
</svg>
