<?xml version="1.0" encoding="UTF-8"?>
<svg xmlns="http://www.w3.org/2000/svg" xmlns:xlink="http://www.w3.org/1999/xlink" width="64" height="64" viewBox="0 0 64 64">
<path fill-rule="evenodd" fill="rgb(54.901963%, 30.980393%, 100%)" fill-opacity="1" d="M 32.003906 58.671875 C 17.296875 58.671875 5.332031 46.707031 5.332031 32 C 5.332031 17.296875 17.296875 5.332031 32.003906 5.332031 C 46.707031 5.332031 58.671875 17.296875 58.671875 32 C 58.671875 46.707031 46.707031 58.671875 32.003906 58.671875 Z M 32.003906 2.667969 C 15.824219 2.667969 2.664062 15.824219 2.664062 32 C 2.664062 48.175781 15.824219 61.335938 32.003906 61.335938 C 48.179688 61.335938 61.335938 48.175781 61.335938 32 C 61.335938 15.824219 48.179688 2.667969 32.003906 2.667969 Z M 38.777344 31.058594 C 39.300781 31.578125 39.300781 32.421875 38.777344 32.945312 L 34.855469 36.871094 L 32.96875 34.988281 L 34.621094 33.335938 L 25 33.335938 L 25 30.667969 L 34.621094 30.667969 L 32.96875 29.015625 L 34.855469 27.128906 Z M 42.667969 47.003906 L 47.003906 47.003906 L 47.003906 42.667969 L 42.667969 42.667969 Z M 48.335938 40.003906 L 41.335938 40.003906 C 40.597656 40.003906 40.003906 40.597656 40.003906 41.335938 L 40.003906 48.335938 C 40.003906 49.074219 40.597656 49.667969 41.335938 49.667969 L 48.335938 49.667969 C 49.074219 49.667969 49.667969 49.074219 49.667969 48.335938 L 49.667969 41.335938 C 49.667969 40.597656 49.074219 40.003906 48.335938 40.003906 Z M 23.554688 24.988281 L 33.28125 19.855469 L 31.191406 19.289062 L 31.890625 16.714844 L 37.25 18.167969 C 37.960938 18.359375 38.378906 19.089844 38.1875 19.800781 L 36.734375 25.164062 L 34.160156 24.464844 L 34.8125 22.0625 L 24.800781 27.347656 Z M 42.667969 21.335938 L 47.003906 21.335938 L 47.003906 17 L 42.667969 17 Z M 48.335938 14.335938 L 41.335938 14.335938 C 40.597656 14.335938 40.003906 14.929688 40.003906 15.667969 L 40.003906 22.667969 C 40.003906 23.40625 40.597656 24 41.335938 24 L 48.335938 24 C 49.074219 24 49.667969 23.40625 49.667969 22.667969 L 49.667969 15.667969 C 49.667969 14.929688 49.074219 14.335938 48.335938 14.335938 Z M 11.128906 36.460938 L 20.046875 36.460938 L 20.046875 27.542969 L 11.128906 27.542969 Z M 21.378906 24.875 L 9.792969 24.875 C 9.058594 24.875 8.460938 25.472656 8.460938 26.207031 L 8.460938 37.796875 C 8.460938 38.53125 9.058594 39.128906 9.792969 39.128906 L 21.378906 39.128906 C 22.117188 39.128906 22.714844 38.53125 22.714844 37.796875 L 22.714844 26.207031 C 22.714844 25.472656 22.117188 24.875 21.378906 24.875 Z M 38.1875 44.199219 C 38.378906 44.910156 37.960938 45.640625 37.25 45.835938 L 31.890625 47.289062 L 31.191406 44.714844 L 33.285156 44.148438 L 23.554688 39.015625 L 24.800781 36.65625 L 34.8125 41.941406 L 34.160156 39.535156 L 36.734375 38.839844 Z M 42.667969 34.167969 L 47.003906 34.167969 L 47.003906 29.835938 L 42.667969 29.835938 Z M 48.335938 27.167969 L 41.335938 27.167969 C 40.597656 27.167969 40.003906 27.765625 40.003906 28.5 L 40.003906 35.5 C 40.003906 36.238281 40.597656 36.835938 41.335938 36.835938 L 48.335938 36.835938 C 49.074219 36.835938 49.667969 36.238281 49.667969 35.5 L 49.667969 28.5 C 49.667969 27.765625 49.074219 27.167969 48.335938 27.167969 Z M 48.335938 27.167969 "/>
</svg>
