<?xml version="1.0" encoding="UTF-8"?>
<svg xmlns="http://www.w3.org/2000/svg" xmlns:xlink="http://www.w3.org/1999/xlink" width="64" height="64" viewBox="0 0 64 64">
<path fill-rule="evenodd" fill="rgb(54.901963%, 30.980393%, 100%)" fill-opacity="1" d="M 5.332031 57.425781 L 58.59375 57.425781 L 58.59375 44.949219 L 5.332031 44.949219 Z M 61.257812 43.613281 L 61.257812 58.761719 C 61.257812 59.496094 60.664062 60.09375 59.925781 60.09375 L 4 60.09375 C 3.261719 60.09375 2.667969 59.496094 2.667969 58.761719 L 2.667969 43.613281 C 2.667969 42.878906 3.261719 42.28125 4 42.28125 L 59.925781 42.28125 C 60.664062 42.28125 61.257812 42.878906 61.257812 43.613281 Z M 5.332031 37.617188 L 58.59375 37.617188 L 58.59375 25.140625 L 5.332031 25.140625 Z M 61.257812 23.808594 L 61.257812 38.953125 C 61.257812 39.6875 60.664062 40.285156 59.925781 40.285156 L 4 40.285156 C 3.261719 40.285156 2.667969 39.6875 2.667969 38.953125 L 2.667969 23.808594 C 2.667969 23.070312 3.261719 22.472656 4 22.472656 L 59.925781 22.472656 C 60.664062 22.472656 61.257812 23.070312 61.257812 23.808594 Z M 5.332031 17.8125 L 58.59375 17.8125 L 58.59375 5.332031 L 5.332031 5.332031 Z M 61.257812 4 L 61.257812 19.144531 C 61.257812 19.882812 60.664062 20.480469 59.925781 20.480469 L 4 20.480469 C 3.261719 20.480469 2.667969 19.882812 2.667969 19.144531 L 2.667969 4 C 2.667969 3.261719 3.261719 2.667969 4 2.667969 L 59.925781 2.667969 C 60.664062 2.667969 61.257812 3.261719 61.257812 4 Z M 52.53125 51.222656 C 52.53125 52.363281 52.636719 53.191406 52.851562 53.703125 C 53.066406 54.21875 53.410156 54.472656 53.882812 54.472656 C 54.351562 54.472656 54.691406 54.21875 54.90625 53.703125 C 55.121094 53.191406 55.230469 52.363281 55.230469 51.222656 C 55.230469 50.089844 55.121094 49.265625 54.90625 48.753906 C 54.691406 48.238281 54.351562 47.984375 53.882812 47.984375 C 53.410156 47.984375 53.066406 48.238281 52.851562 48.753906 C 52.636719 49.265625 52.53125 50.089844 52.53125 51.222656 Z M 51.980469 54.34375 C 51.546875 53.628906 51.332031 52.589844 51.332031 51.222656 C 51.332031 49.855469 51.546875 48.816406 51.980469 48.105469 C 52.414062 47.394531 53.046875 47.039062 53.882812 47.039062 C 54.714844 47.039062 55.347656 47.394531 55.78125 48.105469 C 56.214844 48.816406 56.429688 49.855469 56.429688 51.222656 C 56.429688 52.597656 56.214844 53.640625 55.78125 54.347656 C 55.347656 55.0625 54.714844 55.414062 53.882812 55.414062 C 53.046875 55.414062 52.414062 55.058594 51.980469 54.34375 Z M 49.476562 55.382812 C 49.699219 55.382812 49.878906 55.3125 50.011719 55.175781 C 50.148438 55.042969 50.21875 54.863281 50.21875 54.636719 C 50.21875 54.410156 50.148438 54.230469 50.011719 54.09375 C 49.878906 53.957031 49.699219 53.890625 49.476562 53.890625 C 49.253906 53.890625 49.070312 53.957031 48.9375 54.09375 C 48.800781 54.230469 48.734375 54.410156 48.734375 54.636719 C 48.734375 54.863281 48.800781 55.042969 48.9375 55.175781 C 49.070312 55.3125 49.253906 55.382812 49.476562 55.382812 Z M 47.445312 54.296875 L 44.078125 54.296875 C 45.035156 53.132812 45.714844 52.269531 46.109375 51.707031 C 46.503906 51.144531 46.777344 50.671875 46.925781 50.289062 C 47.074219 49.910156 47.148438 49.542969 47.148438 49.183594 C 47.148438 48.507812 46.96875 47.980469 46.613281 47.605469 C 46.261719 47.226562 45.765625 47.039062 45.132812 47.039062 C 44.769531 47.039062 44.414062 47.101562 44.066406 47.21875 C 43.722656 47.339844 43.363281 47.53125 42.992188 47.796875 L 42.992188 48.789062 C 43.773438 48.289062 44.421875 48.042969 44.933594 48.042969 C 45.601562 48.042969 45.9375 48.445312 45.9375 49.253906 C 45.9375 49.617188 45.839844 50.003906 45.652344 50.40625 C 45.460938 50.8125 45.148438 51.316406 44.710938 51.925781 C 44.273438 52.535156 43.636719 53.355469 42.804688 54.390625 L 42.804688 55.265625 L 47.445312 55.265625 Z M 40.664062 55.382812 C 40.886719 55.382812 41.066406 55.3125 41.203125 55.175781 C 41.335938 55.042969 41.40625 54.863281 41.40625 54.636719 C 41.40625 54.410156 41.335938 54.230469 41.203125 54.09375 C 41.066406 53.957031 40.886719 53.890625 40.664062 53.890625 C 40.441406 53.890625 40.261719 53.957031 40.125 54.09375 C 39.988281 54.230469 39.921875 54.410156 39.921875 54.636719 C 39.921875 54.863281 39.988281 55.042969 40.125 55.175781 C 40.261719 55.3125 40.441406 55.382812 40.664062 55.382812 Z M 35.007812 51.710938 C 35.007812 52.675781 35.117188 53.378906 35.335938 53.828125 C 35.554688 54.273438 35.898438 54.496094 36.367188 54.496094 C 37.152344 54.496094 37.546875 53.949219 37.546875 52.851562 C 37.546875 52.347656 37.441406 51.960938 37.234375 51.691406 C 37.03125 51.425781 36.722656 51.289062 36.320312 51.289062 C 35.890625 51.289062 35.453125 51.398438 35.007812 51.617188 Z M 34.457031 54.453125 C 34.046875 53.816406 33.84375 52.828125 33.84375 51.492188 C 33.84375 50.054688 34.089844 48.953125 34.582031 48.1875 C 35.070312 47.421875 35.769531 47.039062 36.675781 47.039062 C 36.957031 47.039062 37.242188 47.074219 37.527344 47.144531 C 37.8125 47.214844 38.058594 47.308594 38.273438 47.425781 L 38.273438 48.273438 C 38.066406 48.179688 37.832031 48.105469 37.570312 48.046875 C 37.304688 47.988281 37.058594 47.957031 36.828125 47.957031 C 36.242188 47.957031 35.804688 48.191406 35.515625 48.652344 C 35.226562 49.117188 35.058594 49.851562 35.019531 50.863281 C 35.546875 50.550781 36.09375 50.394531 36.65625 50.394531 C 37.28125 50.394531 37.78125 50.613281 38.15625 51.046875 C 38.535156 51.484375 38.722656 52.0625 38.722656 52.785156 C 38.722656 53.59375 38.503906 54.230469 38.078125 54.707031 C 37.648438 55.179688 37.066406 55.414062 36.332031 55.414062 C 35.492188 55.414062 34.867188 55.097656 34.457031 54.453125 Z M 30.179688 55.265625 L 31.355469 55.265625 L 31.355469 47.191406 L 30.28125 47.191406 L 28.335938 48.296875 L 28.335938 49.253906 L 30.179688 48.378906 Z M 25.835938 55.382812 C 26.058594 55.382812 26.238281 55.3125 26.375 55.175781 C 26.511719 55.042969 26.578125 54.863281 26.578125 54.636719 C 26.578125 54.410156 26.511719 54.230469 26.375 54.09375 C 26.238281 53.957031 26.058594 53.890625 25.835938 53.890625 C 25.613281 53.890625 25.433594 53.957031 25.296875 54.09375 C 25.164062 54.230469 25.09375 54.410156 25.09375 54.636719 C 25.09375 54.863281 25.164062 55.042969 25.296875 55.175781 C 25.433594 55.3125 25.613281 55.382812 25.835938 55.382812 Z M 23.808594 54.296875 L 20.441406 54.296875 C 21.398438 53.132812 22.074219 52.269531 22.46875 51.707031 C 22.867188 51.144531 23.136719 50.671875 23.285156 50.289062 C 23.4375 49.910156 23.511719 49.542969 23.511719 49.183594 C 23.511719 48.507812 23.332031 47.980469 22.976562 47.605469 C 22.621094 47.226562 22.128906 47.039062 21.496094 47.039062 C 21.128906 47.039062 20.777344 47.101562 20.429688 47.21875 C 20.082031 47.339844 19.722656 47.53125 19.351562 47.796875 L 19.351562 48.789062 C 20.132812 48.289062 20.78125 48.042969 21.292969 48.042969 C 21.964844 48.042969 22.296875 48.445312 22.296875 49.253906 C 22.296875 49.617188 22.203125 50.003906 22.011719 50.40625 C 21.824219 50.8125 21.507812 51.316406 21.070312 51.925781 C 20.632812 52.535156 20 53.355469 19.167969 54.390625 L 19.167969 55.265625 L 23.808594 55.265625 Z M 13.90625 55.265625 L 15.117188 55.265625 L 17.707031 48.054688 L 17.707031 47.191406 L 12.980469 47.191406 L 12.980469 48.15625 L 16.53125 48.15625 Z M 9.339844 55.265625 L 10.515625 55.265625 L 10.515625 47.191406 L 9.4375 47.191406 L 7.496094 48.296875 L 7.496094 49.253906 L 9.339844 48.378906 Z M 52.53125 30.984375 C 52.53125 32.125 52.636719 32.953125 52.851562 33.464844 C 53.066406 33.976562 53.410156 34.234375 53.882812 34.234375 C 54.351562 34.234375 54.691406 33.976562 54.90625 33.464844 C 55.121094 32.953125 55.230469 32.125 55.230469 30.984375 C 55.230469 29.847656 55.121094 29.023438 54.90625 28.511719 C 54.691406 28 54.351562 27.742188 53.882812 27.742188 C 53.410156 27.742188 53.066406 28 52.851562 28.511719 C 52.636719 29.023438 52.53125 29.847656 52.53125 30.984375 Z M 51.980469 34.105469 C 51.546875 33.390625 51.332031 32.351562 51.332031 30.984375 C 51.332031 29.617188 51.546875 28.578125 51.980469 27.867188 C 52.414062 27.15625 53.046875 26.800781 53.882812 26.800781 C 54.714844 26.800781 55.347656 27.15625 55.78125 27.867188 C 56.214844 28.578125 56.429688 29.617188 56.429688 30.984375 C 56.429688 32.355469 56.214844 33.398438 55.78125 34.113281 C 55.347656 34.824219 54.714844 35.175781 53.882812 35.175781 C 53.046875 35.175781 52.414062 34.820312 51.980469 34.105469 Z M 49.476562 35.144531 C 49.699219 35.144531 49.878906 35.074219 50.011719 34.9375 C 50.148438 34.800781 50.21875 34.621094 50.21875 34.398438 C 50.21875 34.171875 50.148438 33.992188 50.011719 33.855469 C 49.878906 33.71875 49.699219 33.652344 49.476562 33.652344 C 49.253906 33.652344 49.070312 33.71875 48.9375 33.855469 C 48.800781 33.992188 48.734375 34.171875 48.734375 34.398438 C 48.734375 34.621094 48.800781 34.800781 48.9375 34.9375 C 49.070312 35.074219 49.253906 35.144531 49.476562 35.144531 Z M 45.007812 35.027344 L 46.183594 35.027344 L 46.183594 26.953125 L 45.105469 26.953125 L 43.164062 28.058594 L 43.164062 29.011719 L 45.007812 28.140625 Z M 40.664062 35.144531 C 40.886719 35.144531 41.066406 35.074219 41.203125 34.9375 C 41.335938 34.800781 41.40625 34.621094 41.40625 34.398438 C 41.40625 34.171875 41.335938 33.992188 41.203125 33.855469 C 41.066406 33.71875 40.886719 33.652344 40.664062 33.652344 C 40.441406 33.652344 40.261719 33.71875 40.125 33.855469 C 39.988281 33.992188 39.921875 34.171875 39.921875 34.398438 C 39.921875 34.621094 39.988281 34.800781 40.125 34.9375 C 40.261719 35.074219 40.441406 35.144531 40.664062 35.144531 Z M 35.007812 31.472656 C 35.007812 32.4375 35.117188 33.140625 35.335938 33.589844 C 35.554688 34.035156 35.898438 34.257812 36.367188 34.257812 C 37.152344 34.257812 37.546875 33.710938 37.546875 32.617188 C 37.546875 32.109375 37.441406 31.722656 37.234375 31.453125 C 37.03125 31.1875 36.722656 31.054688 36.320312 31.054688 C 35.890625 31.054688 35.453125 31.164062 35.007812 31.378906 Z M 34.457031 34.21875 C 34.046875 33.574219 33.84375 32.589844 33.84375 31.25 C 33.84375 29.816406 34.089844 28.714844 34.582031 27.949219 C 35.070312 27.183594 35.769531 26.800781 36.675781 26.800781 C 36.957031 26.800781 37.242188 26.835938 37.527344 26.90625 C 37.8125 26.976562 38.058594 27.066406 38.273438 27.183594 L 38.273438 28.035156 C 38.066406 27.941406 37.832031 27.867188 37.570312 27.808594 C 37.304688 27.75 37.058594 27.722656 36.828125 27.722656 C 36.242188 27.722656 35.804688 27.953125 35.515625 28.414062 C 35.226562 28.875 35.058594 29.613281 35.019531 30.621094 C 35.546875 30.3125 36.09375 30.15625 36.65625 30.15625 C 37.28125 30.15625 37.78125 30.375 38.15625 30.808594 C 38.535156 31.242188 38.722656 31.824219 38.722656 32.546875 C 38.722656 33.351562 38.503906 33.992188 38.078125 34.464844 C 37.648438 34.941406 37.066406 35.175781 36.332031 35.175781 C 35.492188 35.175781 34.867188 34.855469 34.457031 34.21875 Z M 30.179688 35.027344 L 31.355469 35.027344 L 31.355469 26.953125 L 30.28125 26.953125 L 28.335938 28.058594 L 28.335938 29.011719 L 30.179688 28.140625 Z M 25.835938 35.144531 C 26.058594 35.144531 26.238281 35.074219 26.375 34.9375 C 26.511719 34.800781 26.578125 34.621094 26.578125 34.398438 C 26.578125 34.171875 26.511719 33.992188 26.375 33.855469 C 26.238281 33.71875 26.058594 33.652344 25.835938 33.652344 C 25.613281 33.652344 25.433594 33.71875 25.296875 33.855469 C 25.164062 33.992188 25.09375 34.171875 25.09375 34.398438 C 25.09375 34.621094 25.164062 34.800781 25.296875 34.9375 C 25.433594 35.074219 25.613281 35.144531 25.835938 35.144531 Z M 23.808594 34.058594 L 20.441406 34.058594 C 21.398438 32.894531 22.074219 32.03125 22.46875 31.464844 C 22.867188 30.902344 23.136719 30.433594 23.285156 30.050781 C 23.4375 29.671875 23.511719 29.300781 23.511719 28.945312 C 23.511719 28.269531 23.332031 27.742188 22.976562 27.367188 C 22.621094 26.988281 22.128906 26.800781 21.496094 26.800781 C 21.128906 26.800781 20.777344 26.859375 20.429688 26.980469 C 20.082031 27.101562 19.722656 27.292969 19.351562 27.558594 L 19.351562 28.546875 C 20.132812 28.050781 20.78125 27.800781 21.292969 27.800781 C 21.964844 27.800781 22.296875 28.207031 22.296875 29.011719 C 22.296875 29.378906 22.203125 29.765625 22.011719 30.167969 C 21.824219 30.570312 21.507812 31.078125 21.070312 31.6875 C 20.632812 32.296875 20 33.121094 19.167969 34.152344 L 19.167969 35.027344 L 23.808594 35.027344 Z M 13.90625 35.027344 L 15.117188 35.027344 L 17.707031 27.816406 L 17.707031 26.953125 L 12.980469 26.953125 L 12.980469 27.917969 L 16.53125 27.917969 Z M 9.339844 35.027344 L 10.515625 35.027344 L 10.515625 26.953125 L 9.4375 26.953125 L 7.496094 28.058594 L 7.496094 29.011719 L 9.339844 28.140625 Z M 52.53125 11.890625 C 52.53125 13.03125 52.636719 13.859375 52.851562 14.371094 C 53.066406 14.882812 53.410156 15.140625 53.882812 15.140625 C 54.351562 15.140625 54.691406 14.882812 54.90625 14.371094 C 55.121094 13.859375 55.230469 13.03125 55.230469 11.890625 C 55.230469 10.757812 55.121094 9.933594 54.90625 9.421875 C 54.691406 8.90625 54.351562 8.652344 53.882812 8.652344 C 53.410156 8.652344 53.066406 8.90625 52.851562 9.421875 C 52.636719 9.933594 52.53125 10.757812 52.53125 11.890625 Z M 51.980469 15.011719 C 51.546875 14.296875 51.332031 13.257812 51.332031 11.890625 C 51.332031 10.523438 51.546875 9.484375 51.980469 8.773438 C 52.414062 8.0625 53.046875 7.707031 53.882812 7.707031 C 54.714844 7.707031 55.347656 8.0625 55.78125 8.773438 C 56.214844 9.484375 56.429688 10.523438 56.429688 11.890625 C 56.429688 13.265625 56.214844 14.308594 55.78125 15.015625 C 55.347656 15.730469 54.714844 16.085938 53.882812 16.085938 C 53.046875 16.085938 52.414062 15.726562 51.980469 15.011719 Z M 49.476562 16.050781 C 49.699219 16.050781 49.878906 15.980469 50.011719 15.84375 C 50.148438 15.710938 50.21875 15.527344 50.21875 15.300781 C 50.21875 15.078125 50.148438 14.898438 50.011719 14.761719 C 49.878906 14.625 49.699219 14.558594 49.476562 14.558594 C 49.253906 14.558594 49.070312 14.625 48.9375 14.761719 C 48.800781 14.898438 48.734375 15.078125 48.734375 15.300781 C 48.734375 15.527344 48.800781 15.710938 48.9375 15.84375 C 49.070312 15.980469 49.253906 16.050781 49.476562 16.050781 Z M 43.722656 11.890625 C 43.722656 13.03125 43.828125 13.859375 44.042969 14.371094 C 44.257812 14.882812 44.597656 15.140625 45.066406 15.140625 C 45.539062 15.140625 45.882812 14.882812 46.097656 14.371094 C 46.3125 13.859375 46.417969 13.03125 46.417969 11.890625 C 46.417969 10.757812 46.3125 9.933594 46.097656 9.421875 C 45.882812 8.90625 45.539062 8.652344 45.066406 8.652344 C 44.597656 8.652344 44.257812 8.90625 44.042969 9.421875 C 43.828125 9.933594 43.722656 10.757812 43.722656 11.890625 Z M 43.167969 15.011719 C 42.734375 14.296875 42.519531 13.257812 42.519531 11.890625 C 42.519531 10.523438 42.734375 9.484375 43.167969 8.773438 C 43.605469 8.0625 44.234375 7.707031 45.066406 7.707031 C 45.902344 7.707031 46.535156 8.0625 46.96875 8.773438 C 47.402344 9.484375 47.617188 10.523438 47.617188 11.890625 C 47.617188 13.265625 47.402344 14.308594 46.96875 15.015625 C 46.535156 15.730469 45.902344 16.085938 45.066406 16.085938 C 44.234375 16.085938 43.605469 15.726562 43.167969 15.011719 Z M 40.664062 16.050781 C 40.886719 16.050781 41.066406 15.980469 41.203125 15.84375 C 41.335938 15.710938 41.40625 15.527344 41.40625 15.300781 C 41.40625 15.078125 41.335938 14.898438 41.203125 14.761719 C 41.066406 14.625 40.886719 14.558594 40.664062 14.558594 C 40.441406 14.558594 40.261719 14.625 40.125 14.761719 C 39.988281 14.898438 39.921875 15.078125 39.921875 15.300781 C 39.921875 15.527344 39.988281 15.710938 40.125 15.84375 C 40.261719 15.980469 40.441406 16.050781 40.664062 16.050781 Z M 35.007812 12.378906 C 35.007812 13.34375 35.117188 14.046875 35.335938 14.496094 C 35.554688 14.941406 35.898438 15.164062 36.367188 15.164062 C 37.152344 15.164062 37.546875 14.617188 37.546875 13.519531 C 37.546875 13.015625 37.441406 12.628906 37.234375 12.363281 C 37.03125 12.09375 36.722656 11.957031 36.320312 11.957031 C 35.890625 11.957031 35.453125 12.066406 35.007812 12.285156 Z M 34.457031 15.121094 C 34.046875 14.480469 33.84375 13.492188 33.84375 12.15625 C 33.84375 10.722656 34.089844 9.621094 34.582031 8.851562 C 35.070312 8.089844 35.769531 7.707031 36.675781 7.707031 C 36.957031 7.707031 37.242188 7.742188 37.527344 7.8125 C 37.8125 7.882812 38.058594 7.976562 38.273438 8.089844 L 38.273438 8.941406 C 38.066406 8.847656 37.832031 8.773438 37.570312 8.714844 C 37.304688 8.65625 37.058594 8.625 36.828125 8.625 C 36.242188 8.625 35.804688 8.855469 35.515625 9.320312 C 35.226562 9.78125 35.058594 10.519531 35.019531 11.527344 C 35.546875 11.21875 36.09375 11.0625 36.65625 11.0625 C 37.28125 11.0625 37.78125 11.28125 38.15625 11.714844 C 38.535156 12.148438 38.722656 12.730469 38.722656 13.453125 C 38.722656 14.257812 38.503906 14.898438 38.078125 15.375 C 37.648438 15.847656 37.066406 16.085938 36.332031 16.085938 C 35.492188 16.085938 34.867188 15.765625 34.457031 15.121094 Z M 30.179688 15.933594 L 31.355469 15.933594 L 31.355469 7.855469 L 30.28125 7.855469 L 28.335938 8.964844 L 28.335938 9.921875 L 30.179688 9.046875 Z M 25.835938 16.050781 C 26.058594 16.050781 26.238281 15.980469 26.375 15.84375 C 26.511719 15.710938 26.578125 15.527344 26.578125 15.300781 C 26.578125 15.078125 26.511719 14.898438 26.375 14.761719 C 26.238281 14.625 26.058594 14.558594 25.835938 14.558594 C 25.613281 14.558594 25.433594 14.625 25.296875 14.761719 C 25.164062 14.898438 25.09375 15.078125 25.09375 15.300781 C 25.09375 15.527344 25.164062 15.710938 25.296875 15.84375 C 25.433594 15.980469 25.613281 16.050781 25.835938 16.050781 Z M 23.808594 14.964844 L 20.441406 14.964844 C 21.398438 13.800781 22.074219 12.9375 22.46875 12.375 C 22.867188 11.8125 23.136719 11.339844 23.285156 10.957031 C 23.4375 10.574219 23.511719 10.207031 23.511719 9.847656 C 23.511719 9.175781 23.332031 8.648438 22.976562 8.273438 C 22.621094 7.894531 22.128906 7.707031 21.496094 7.707031 C 21.128906 7.707031 20.777344 7.765625 20.429688 7.886719 C 20.082031 8.007812 19.722656 8.199219 19.351562 8.464844 L 19.351562 9.453125 C 20.132812 8.957031 20.78125 8.710938 21.292969 8.710938 C 21.964844 8.710938 22.296875 9.113281 22.296875 9.921875 C 22.296875 10.285156 22.203125 10.671875 22.011719 11.074219 C 21.824219 11.476562 21.507812 11.984375 21.070312 12.59375 C 20.632812 13.203125 20 14.023438 19.167969 15.058594 L 19.167969 15.933594 L 23.808594 15.933594 Z M 13.90625 15.933594 L 15.117188 15.933594 L 17.707031 8.722656 L 17.707031 7.855469 L 12.980469 7.855469 L 12.980469 8.824219 L 16.53125 8.824219 Z M 9.339844 9.046875 L 7.496094 9.921875 L 7.496094 8.964844 L 9.4375 7.855469 L 10.515625 7.855469 L 10.515625 15.933594 L 9.339844 15.933594 Z M 9.339844 9.046875 "/>
</svg>
