<?xml version="1.0" encoding="UTF-8"?>
<svg xmlns="http://www.w3.org/2000/svg" xmlns:xlink="http://www.w3.org/1999/xlink" width="64" height="64" viewBox="0 0 64 64">
<path fill-rule="evenodd" fill="rgb(54.901963%, 30.980393%, 100%)" fill-opacity="1" d="M 56.695312 45.136719 C 55.410156 46.421875 53.167969 46.421875 51.886719 45.136719 C 50.558594 43.808594 50.558594 41.652344 51.886719 40.324219 C 52.546875 39.664062 53.417969 39.332031 54.289062 39.332031 C 55.160156 39.332031 56.03125 39.664062 56.695312 40.324219 C 57.335938 40.964844 57.691406 41.824219 57.691406 42.730469 C 57.691406 43.640625 57.335938 44.496094 56.695312 45.136719 M 33.726562 57.671875 C 32.402344 58.996094 30.242188 58.996094 28.917969 57.671875 C 28.273438 57.03125 27.921875 56.175781 27.921875 55.265625 C 27.921875 54.355469 28.273438 53.503906 28.917969 52.863281 C 29.558594 52.21875 30.414062 51.867188 31.320312 51.867188 C 32.230469 51.867188 33.085938 52.21875 33.726562 52.863281 C 35.054688 54.1875 35.054688 56.34375 33.726562 57.671875 M 28.917969 30.316406 C 29.578125 29.652344 30.449219 29.320312 31.320312 29.320312 C 32.191406 29.320312 33.0625 29.652344 33.726562 30.316406 C 35.054688 31.644531 35.054688 33.800781 33.726562 35.125 C 32.445312 36.410156 30.199219 36.410156 28.917969 35.125 C 27.589844 33.800781 27.589844 31.644531 28.917969 30.316406 M 27.921875 8.734375 C 27.921875 7.828125 28.273438 6.972656 28.917969 6.332031 C 29.558594 5.6875 30.414062 5.332031 31.320312 5.332031 C 32.230469 5.332031 33.085938 5.6875 33.726562 6.332031 C 35.054688 7.65625 35.054688 9.816406 33.726562 11.140625 C 32.402344 12.464844 30.242188 12.46875 28.917969 11.140625 C 28.273438 10.5 27.921875 9.644531 27.921875 8.734375 M 7.660156 49.136719 C 6.332031 47.808594 6.332031 45.652344 7.660156 44.324219 C 8.324219 43.664062 9.195312 43.332031 10.066406 43.332031 C 10.9375 43.332031 11.808594 43.664062 12.472656 44.324219 C 13.429688 45.285156 13.683594 46.675781 13.257812 47.878906 L 13.054688 48.316406 C 12.902344 48.609375 12.71875 48.890625 12.472656 49.136719 C 11.148438 50.460938 8.988281 50.460938 7.660156 49.136719 M 7.660156 20.199219 C 8.324219 19.535156 9.195312 19.207031 10.066406 19.207031 C 10.9375 19.207031 11.808594 19.535156 12.472656 20.199219 C 13.796875 21.523438 13.796875 23.683594 12.472656 25.007812 C 11.148438 26.332031 8.988281 26.335938 7.660156 25.007812 C 6.332031 23.683594 6.332031 21.523438 7.660156 20.199219 M 51.886719 14.867188 C 52.546875 14.203125 53.417969 13.871094 54.289062 13.871094 C 55.160156 13.871094 56.03125 14.203125 56.695312 14.867188 C 58.023438 16.191406 58.023438 18.347656 56.695312 19.675781 C 55.410156 20.960938 53.167969 20.960938 51.886719 19.675781 C 50.558594 18.347656 50.558594 16.191406 51.886719 14.867188 M 58.582031 38.441406 C 56.214844 36.070312 52.363281 36.070312 50 38.441406 C 48.242188 40.199219 47.796875 42.773438 48.648438 44.953125 L 36.714844 52.546875 C 36.433594 51.984375 36.082031 51.445312 35.613281 50.976562 C 34.796875 50.160156 33.785156 49.621094 32.6875 49.367188 L 32.6875 38.621094 C 33.785156 38.367188 34.796875 37.828125 35.613281 37.011719 C 37.148438 35.476562 37.667969 33.316406 37.210938 31.339844 L 50.304688 21.816406 C 51.414062 22.785156 52.804688 23.339844 54.289062 23.339844 C 55.910156 23.339844 57.4375 22.707031 58.582031 21.5625 C 60.945312 19.195312 60.945312 15.34375 58.582031 12.980469 C 56.214844 10.613281 52.363281 10.613281 50 12.980469 C 48.195312 14.785156 47.777344 17.449219 48.726562 19.664062 L 36.007812 28.914062 C 35.878906 28.753906 35.765625 28.582031 35.613281 28.429688 C 34.777344 27.597656 33.761719 27.074219 32.6875 26.828125 L 32.6875 14.628906 C 33.761719 14.382812 34.78125 13.859375 35.613281 13.027344 C 37.976562 10.660156 37.976562 6.8125 35.613281 4.445312 C 34.46875 3.296875 32.941406 2.667969 31.320312 2.667969 C 29.699219 2.667969 28.175781 3.296875 27.03125 4.445312 C 25.886719 5.589844 25.253906 7.113281 25.253906 8.734375 C 25.253906 10.355469 25.886719 11.882812 27.03125 13.027344 C 27.882812 13.878906 28.925781 14.40625 30.023438 14.648438 L 30.023438 26.808594 C 28.925781 27.046875 27.882812 27.578125 27.03125 28.429688 C 24.664062 30.796875 24.664062 34.648438 27.03125 37.011719 C 27.863281 37.84375 28.898438 38.394531 30.023438 38.640625 L 30.023438 49.347656 C 28.898438 49.59375 27.863281 50.144531 27.03125 50.976562 C 26.613281 51.390625 26.292969 51.867188 26.019531 52.371094 L 16.027344 47.824219 C 16.371094 45.929688 15.816406 43.902344 14.355469 42.441406 C 13.503906 41.585938 12.453125 41.054688 11.355469 40.816406 L 11.355469 28.519531 C 12.453125 28.28125 13.503906 27.75 14.355469 26.894531 C 16.722656 24.53125 16.722656 20.679688 14.355469 18.3125 C 11.988281 15.949219 8.140625 15.949219 5.773438 18.3125 C 3.410156 20.679688 3.410156 24.53125 5.773438 26.894531 C 6.605469 27.726562 7.621094 28.246094 8.6875 28.496094 L 8.6875 40.839844 C 7.621094 41.089844 6.605469 41.609375 5.773438 42.441406 C 3.410156 44.804688 3.410156 48.65625 5.773438 51.019531 C 6.957031 52.207031 8.511719 52.796875 10.066406 52.796875 C 11.617188 52.796875 13.171875 52.207031 14.355469 51.019531 C 14.589844 50.789062 14.78125 50.53125 14.96875 50.269531 L 25.28125 54.960938 C 25.277344 55.0625 25.253906 55.164062 25.253906 55.265625 C 25.253906 56.886719 25.886719 58.410156 27.03125 59.558594 C 28.214844 60.738281 29.765625 61.332031 31.320312 61.332031 C 32.875 61.332031 34.429688 60.738281 35.613281 59.558594 C 36.792969 58.378906 37.382812 56.832031 37.386719 55.28125 L 50.160156 47.152344 C 51.285156 48.207031 52.738281 48.796875 54.289062 48.796875 C 55.910156 48.796875 57.4375 48.167969 58.582031 47.019531 C 59.726562 45.878906 60.359375 44.351562 60.359375 42.730469 C 60.359375 41.109375 59.726562 39.585938 58.582031 38.441406 "/>
</svg>
