<?xml version="1.0" encoding="UTF-8"?>
<svg xmlns="http://www.w3.org/2000/svg" xmlns:xlink="http://www.w3.org/1999/xlink" width="64" height="64" viewBox="0 0 64 64">
<path fill-rule="evenodd" fill="rgb(54.901963%, 30.980393%, 100%)" fill-opacity="1" d="M 32.003906 33.917969 C 32.875 33.917969 33.585938 34.628906 33.585938 35.5 C 33.585938 36.375 32.875 37.085938 32.003906 37.085938 C 31.128906 37.085938 30.417969 36.375 30.417969 35.5 C 30.417969 34.628906 31.128906 33.917969 32.003906 33.917969 Z M 30.667969 39.515625 L 30.667969 43.589844 L 33.335938 43.589844 L 33.335938 39.515625 C 35.023438 38.953125 36.253906 37.375 36.253906 35.5 C 36.253906 33.15625 34.347656 31.25 32.003906 31.25 C 29.65625 31.25 27.75 33.15625 27.75 35.5 C 27.75 37.375 28.980469 38.953125 30.667969 39.515625 Z M 32.003906 58.667969 C 17.296875 58.667969 5.332031 46.707031 5.332031 32.003906 C 5.332031 17.296875 17.296875 5.335938 32.003906 5.335938 C 46.707031 5.335938 58.671875 17.296875 58.671875 32.003906 C 58.671875 46.707031 46.707031 58.667969 32.003906 58.667969 Z M 32.003906 2.667969 C 15.824219 2.667969 2.664062 15.824219 2.664062 32.003906 C 2.664062 48.175781 15.824219 61.335938 32.003906 61.335938 C 48.179688 61.335938 61.335938 48.175781 61.335938 32.003906 C 61.335938 15.824219 48.179688 2.667969 32.003906 2.667969 Z M 43.492188 45.835938 L 20.5 45.824219 L 20.507812 28.667969 L 43.503906 28.675781 Z M 26.339844 21.460938 C 26.34375 19.890625 26.941406 18.417969 28.027344 17.3125 C 29.09375 16.222656 30.507812 15.621094 32.011719 15.621094 L 32.03125 15.621094 C 33.53125 15.625 34.9375 16.238281 35.996094 17.347656 C 37.066406 18.464844 37.652344 19.949219 37.644531 21.53125 L 37.644531 26.007812 L 26.316406 26.003906 Z M 44.835938 26.011719 L 40.3125 26.007812 L 40.3125 21.535156 C 40.320312 19.265625 39.472656 17.121094 37.925781 15.503906 C 36.363281 13.867188 34.269531 12.960938 32.035156 12.957031 L 32.011719 12.957031 C 29.785156 12.957031 27.695312 13.839844 26.121094 15.445312 C 24.550781 17.050781 23.679688 19.183594 23.671875 21.453125 L 23.652344 26.003906 L 19.175781 26.003906 C 18.820312 26.003906 18.480469 26.140625 18.230469 26.390625 C 17.980469 26.640625 17.839844 26.980469 17.839844 27.335938 L 17.835938 47.160156 C 17.835938 47.894531 18.429688 48.492188 19.167969 48.492188 L 44.824219 48.503906 C 45.5625 48.503906 46.160156 47.90625 46.160156 47.167969 L 46.167969 27.34375 C 46.167969 26.992188 46.027344 26.652344 45.777344 26.402344 C 45.527344 26.152344 45.191406 26.011719 44.835938 26.011719 Z M 44.835938 26.011719 "/>
</svg>
