<?xml version="1.0" encoding="UTF-8"?>
<svg xmlns="http://www.w3.org/2000/svg" xmlns:xlink="http://www.w3.org/1999/xlink" width="64" height="64" viewBox="0 0 64 64">
<path fill-rule="evenodd" fill="rgb(54.901963%, 30.980393%, 100%)" fill-opacity="1" d="M 34.773438 49.738281 C 34.773438 49.066406 34.515625 48.441406 34.042969 47.96875 C 33.570312 47.496094 32.945312 47.238281 32.273438 47.238281 C 31.605469 47.238281 30.980469 47.496094 30.507812 47.96875 C 30.035156 48.441406 29.777344 49.066406 29.777344 49.738281 C 29.777344 50.40625 30.035156 51.03125 30.507812 51.503906 C 31.453125 52.449219 33.101562 52.445312 34.042969 51.503906 C 34.515625 51.03125 34.773438 50.40625 34.773438 49.738281 Z M 30.507812 33.253906 C 31.453125 34.199219 33.101562 34.195312 34.042969 33.253906 C 34.515625 32.78125 34.773438 32.152344 34.773438 31.484375 C 34.773438 30.816406 34.515625 30.191406 34.042969 29.71875 C 33.570312 29.246094 32.941406 28.984375 32.273438 28.984375 C 31.609375 28.984375 30.980469 29.246094 30.507812 29.71875 C 30.035156 30.191406 29.777344 30.816406 29.777344 31.484375 C 29.777344 32.152344 30.035156 32.78125 30.507812 33.253906 Z M 30.507812 13.835938 C 31.453125 14.78125 33.101562 14.777344 34.042969 13.835938 C 34.515625 13.363281 34.773438 12.738281 34.773438 12.066406 C 34.773438 11.398438 34.515625 10.769531 34.042969 10.300781 C 33.570312 9.828125 32.945312 9.570312 32.273438 9.570312 C 31.605469 9.570312 30.980469 9.828125 30.507812 10.300781 C 30.035156 10.769531 29.777344 11.398438 29.777344 12.066406 C 29.777344 12.738281 30.035156 13.363281 30.507812 13.835938 Z M 16.402344 42.824219 C 16.402344 42.15625 16.140625 41.53125 15.671875 41.058594 C 15.183594 40.570312 14.542969 40.328125 13.902344 40.328125 C 13.261719 40.328125 12.621094 40.570312 12.136719 41.058594 C 11.160156 42.035156 11.160156 43.621094 12.136719 44.59375 C 13.109375 45.566406 14.695312 45.566406 15.671875 44.59375 C 16.140625 44.121094 16.402344 43.492188 16.402344 42.824219 Z M 11.402344 23.296875 C 11.402344 23.964844 11.664062 24.59375 12.136719 25.0625 C 13.109375 26.039062 14.695312 26.039062 15.671875 25.0625 C 16.140625 24.59375 16.402344 23.964844 16.402344 23.296875 C 16.402344 22.628906 16.140625 22 15.671875 21.527344 C 15.183594 21.042969 14.542969 20.796875 13.902344 20.796875 C 13.261719 20.796875 12.621094 21.042969 12.136719 21.527344 C 11.664062 22 11.402344 22.628906 11.402344 23.296875 Z M 47.980469 18.980469 C 47.980469 19.648438 48.242188 20.273438 48.710938 20.746094 C 49.6875 21.71875 51.273438 21.71875 52.25 20.746094 C 52.71875 20.273438 52.980469 19.648438 52.980469 18.980469 C 52.980469 18.3125 52.71875 17.683594 52.25 17.210938 C 51.761719 16.722656 51.121094 16.480469 50.480469 16.480469 C 49.839844 16.480469 49.199219 16.722656 48.710938 17.210938 C 48.242188 17.683594 47.980469 18.308594 47.980469 18.980469 Z M 48.710938 41.355469 C 49.691406 42.332031 51.273438 42.332031 52.25 41.355469 C 53.222656 40.378906 53.222656 38.796875 52.25 37.820312 C 51.273438 36.847656 49.6875 36.847656 48.710938 37.820312 C 47.738281 38.796875 47.738281 40.378906 48.710938 41.355469 Z M 37.429688 49.644531 C 37.453125 51 36.957031 52.359375 35.929688 53.390625 C 34.921875 54.398438 33.597656 54.898438 32.273438 54.898438 C 30.953125 54.898438 29.628906 54.398438 28.621094 53.390625 C 27.636719 52.402344 27.140625 51.113281 27.121094 49.820312 L 18.15625 45.746094 C 17.976562 46.003906 17.785156 46.25 17.554688 46.480469 C 16.546875 47.488281 15.226562 47.988281 13.902344 47.988281 C 12.582031 47.988281 11.257812 47.488281 10.25 46.480469 C 8.234375 44.464844 8.234375 41.1875 10.25 39.171875 C 10.761719 38.65625 11.363281 38.28125 12 38.027344 L 12 28.09375 C 11.363281 27.84375 10.761719 27.464844 10.25 26.949219 C 8.234375 24.933594 8.234375 21.65625 10.25 19.644531 C 12.265625 17.628906 15.539062 17.628906 17.554688 19.644531 C 19.570312 21.65625 19.570312 24.933594 17.554688 26.949219 C 16.742188 27.761719 15.722656 28.230469 14.667969 28.386719 L 14.667969 37.738281 C 15.722656 37.894531 16.742188 38.363281 17.554688 39.171875 C 18.660156 40.28125 19.136719 41.765625 19.03125 43.214844 L 27.800781 47.199219 C 28.023438 46.804688 28.285156 46.421875 28.621094 46.082031 C 29.214844 45.488281 29.921875 45.09375 30.667969 44.851562 L 30.667969 36.371094 C 29.921875 36.128906 29.214844 35.730469 28.621094 35.140625 C 26.609375 33.125 26.609375 29.847656 28.621094 27.832031 C 29.199219 27.253906 29.910156 26.871094 30.667969 26.632812 L 30.667969 16.953125 C 29.921875 16.707031 29.214844 16.3125 28.621094 15.722656 C 26.609375 13.707031 26.609375 10.429688 28.621094 8.414062 C 30.636719 6.398438 33.917969 6.402344 35.929688 8.414062 C 37.941406 10.429688 37.941406 13.707031 35.929688 15.722656 C 35.191406 16.457031 34.285156 16.917969 33.332031 17.117188 L 33.332031 26.476562 C 34.296875 26.667969 35.210938 27.117188 35.929688 27.832031 C 35.945312 27.847656 35.953125 27.867188 35.96875 27.882812 L 45.667969 20.832031 C 44.957031 18.984375 45.339844 16.8125 46.828125 15.324219 C 48.84375 13.3125 52.117188 13.3125 54.136719 15.324219 C 56.148438 17.339844 56.148438 20.617188 54.136719 22.632812 C 53.125 23.636719 51.804688 24.140625 50.480469 24.140625 C 49.332031 24.140625 48.191406 23.738281 47.25 22.976562 L 37.265625 30.234375 C 37.691406 31.9375 37.257812 33.8125 35.929688 35.140625 C 35.191406 35.875 34.285156 36.335938 33.332031 36.535156 L 33.332031 44.6875 C 34.285156 44.882812 35.191406 45.347656 35.929688 46.082031 C 36.207031 46.363281 36.4375 46.667969 36.640625 46.988281 L 45.617188 41.273438 C 44.996094 39.464844 45.386719 37.375 46.828125 35.933594 C 48.839844 33.921875 52.117188 33.921875 54.136719 35.933594 C 56.148438 37.949219 56.148438 41.226562 54.136719 43.242188 C 53.128906 44.25 51.804688 44.753906 50.480469 44.753906 C 49.277344 44.753906 48.085938 44.3125 47.121094 43.480469 Z M 18.667969 57.929688 L 5.332031 51.871094 L 5.332031 12.476562 L 18.667969 6.113281 L 18.667969 13.570312 L 21.332031 13.570312 L 21.332031 4 C 21.332031 3.542969 21.097656 3.117188 20.710938 2.871094 C 20.324219 2.628906 19.839844 2.597656 19.425781 2.796875 L 3.425781 10.433594 C 2.960938 10.652344 2.667969 11.121094 2.667969 11.636719 L 2.667969 52.726562 C 2.667969 53.25 2.972656 53.726562 3.449219 53.941406 L 19.449219 61.210938 C 19.625 61.292969 19.8125 61.332031 20 61.332031 C 20.253906 61.332031 20.503906 61.261719 20.722656 61.121094 C 21.101562 60.875 21.332031 60.453125 21.332031 60 L 21.332031 50.902344 L 18.667969 50.902344 Z M 61.332031 11.871094 L 61.332031 52.964844 C 61.332031 53.488281 61.027344 53.960938 60.550781 54.175781 L 44.550781 61.449219 C 44.375 61.53125 44.1875 61.570312 44 61.570312 C 43.746094 61.570312 43.496094 61.496094 43.277344 61.355469 C 42.898438 61.109375 42.667969 60.6875 42.667969 60.234375 L 42.667969 50.902344 L 45.332031 50.902344 L 45.332031 58.164062 L 58.667969 52.105469 L 58.667969 12.710938 L 45.332031 6.347656 L 45.332031 13.570312 L 42.667969 13.570312 L 42.667969 4.234375 C 42.667969 3.777344 42.902344 3.351562 43.289062 3.109375 C 43.675781 2.863281 44.160156 2.835938 44.574219 3.03125 L 60.574219 10.667969 C 61.039062 10.890625 61.332031 11.359375 61.332031 11.871094 Z M 61.332031 11.871094 "/>
</svg>
