<?xml version="1.0" encoding="UTF-8"?>
<svg xmlns="http://www.w3.org/2000/svg" xmlns:xlink="http://www.w3.org/1999/xlink" width="64" height="64" viewBox="0 0 64 64">
<path fill-rule="evenodd" fill="rgb(54.901963%, 30.980393%, 100%)" fill-opacity="1" d="M 44.574219 46.902344 L 42.578125 46.902344 L 42.578125 23.335938 C 42.578125 22.8125 42.269531 22.335938 41.792969 22.121094 L 41.667969 22.066406 C 38.992188 20.855469 36.21875 19.605469 32.234375 19.605469 C 28.070312 19.605469 25.015625 20.949219 21.992188 22.449219 C 21.539062 22.675781 21.253906 23.136719 21.253906 23.644531 L 21.253906 46.902344 L 19.304688 46.902344 L 19.304688 21.75 C 22.546875 19.109375 27.226562 17.605469 32.25 17.605469 C 36.917969 17.605469 41.367188 18.9375 44.574219 21.269531 Z M 32.25 14.941406 C 26.347656 14.941406 20.824219 16.832031 17.085938 20.132812 C 16.800781 20.386719 16.636719 20.75 16.636719 21.132812 L 16.636719 48.238281 C 16.636719 48.972656 17.230469 49.570312 17.96875 49.570312 L 22.585938 49.570312 C 23.324219 49.570312 23.921875 48.972656 23.921875 48.238281 L 23.921875 24.472656 C 26.480469 23.238281 28.957031 22.269531 32.234375 22.269531 C 35.347656 22.269531 37.613281 23.171875 39.910156 24.199219 L 39.910156 48.238281 C 39.910156 48.972656 40.507812 49.570312 41.246094 49.570312 L 45.910156 49.570312 C 46.644531 49.570312 47.242188 48.972656 47.242188 48.238281 L 47.242188 20.609375 C 47.242188 20.203125 47.054688 19.820312 46.738281 19.566406 C 43.039062 16.625 37.757812 14.941406 32.25 14.941406 Z M 31.9375 58.546875 C 17.269531 58.546875 5.332031 46.609375 5.332031 31.9375 C 5.332031 17.269531 17.269531 5.332031 31.9375 5.332031 C 46.609375 5.332031 58.546875 17.269531 58.546875 31.9375 C 58.546875 46.609375 46.609375 58.546875 31.9375 58.546875 Z M 31.9375 2.667969 C 15.796875 2.667969 2.664062 15.796875 2.664062 31.9375 C 2.664062 48.082031 15.796875 61.210938 31.9375 61.210938 C 48.082031 61.210938 61.210938 48.082031 61.210938 31.9375 C 61.210938 15.796875 48.082031 2.667969 31.9375 2.667969 Z M 31.9375 2.667969 "/>
</svg>
