<?xml version="1.0" encoding="UTF-8"?>
<svg xmlns="http://www.w3.org/2000/svg" xmlns:xlink="http://www.w3.org/1999/xlink" width="64" height="64" viewBox="0 0 64 64">
<path fill-rule="evenodd" fill="rgb(54.901963%, 30.980393%, 100%)" fill-opacity="1" d="M 56.277344 32.945312 L 50.441406 38.777344 L 48.558594 36.890625 L 52.113281 33.335938 L 9.832031 33.335938 L 9.832031 30.667969 L 52.113281 30.667969 L 48.558594 27.109375 L 50.441406 25.222656 L 56.277344 31.058594 C 56.796875 31.578125 56.796875 32.421875 56.277344 32.945312 Z M 22.667969 45 L 40.167969 45 L 40.167969 42.335938 L 22.667969 42.335938 Z M 22.667969 39.167969 L 40.167969 39.167969 L 40.167969 36.5 L 22.667969 36.5 Z M 22.667969 27.5 L 40.167969 27.5 L 40.167969 24.832031 L 22.667969 24.832031 Z M 22.667969 21.667969 L 40.167969 21.667969 L 40.167969 19 L 22.667969 19 Z M 42.332031 35.5 L 45 35.5 L 45 49.5 C 45 50.238281 44.402344 50.835938 43.667969 50.835938 L 19.167969 50.835938 C 18.429688 50.835938 17.832031 50.238281 17.832031 49.5 L 17.832031 35.5 L 20.5 35.5 L 20.5 48.167969 L 42.332031 48.167969 Z M 20.5 28.5 L 17.832031 28.5 L 17.832031 14.5 C 17.832031 13.761719 18.429688 13.167969 19.167969 13.167969 L 43.667969 13.167969 C 44.402344 13.167969 45 13.761719 45 14.5 L 45 28.5 L 42.332031 28.5 L 42.332031 15.832031 L 20.5 15.832031 Z M 32 58.667969 C 17.296875 58.667969 5.332031 46.707031 5.332031 32 C 5.332031 17.296875 17.296875 5.332031 32 5.332031 C 46.703125 5.332031 58.667969 17.296875 58.667969 32 C 58.667969 46.707031 46.703125 58.667969 32 58.667969 Z M 32 2.667969 C 15.824219 2.667969 2.667969 15.824219 2.667969 32 C 2.667969 48.175781 15.824219 61.335938 32 61.335938 C 48.175781 61.335938 61.332031 48.175781 61.332031 32 C 61.332031 15.824219 48.175781 2.667969 32 2.667969 Z M 32 2.667969 "/>
</svg>
