<?xml version="1.0" encoding="UTF-8"?>
<svg xmlns="http://www.w3.org/2000/svg" xmlns:xlink="http://www.w3.org/1999/xlink" width="64" height="64" viewBox="0 0 64 64">
<path fill-rule="evenodd" fill="rgb(54.901963%, 30.980393%, 100%)" fill-opacity="1" d="M 40.808594 34.183594 C 40.808594 33.671875 40.808594 32.3125 38.582031 31.859375 C 37.988281 31.738281 37.550781 31.234375 37.515625 30.628906 C 37.464844 29.753906 37.105469 29.210938 36.574219 29.210938 C 36.332031 29.210938 36.097656 29.335938 35.929688 29.554688 C 35.636719 29.945312 35.15625 30.144531 34.667969 30.074219 C 34.183594 30 33.777344 29.667969 33.613281 29.210938 C 33.351562 28.488281 32.96875 27.867188 32.507812 27.414062 C 32.085938 26.996094 31.121094 26.226562 29.753906 26.226562 C 29.273438 26.226562 28.746094 26.320312 28.171875 26.558594 C 26.945312 27.070312 25.945312 28.609375 25.945312 29.988281 C 25.945312 30.148438 25.957031 30.304688 25.972656 30.460938 C 26.054688 31.128906 25.625 31.746094 24.976562 31.910156 C 23.796875 32.210938 23.195312 32.960938 23.195312 34.148438 L 23.203125 34.34375 C 23.261719 35.449219 24.558594 36.460938 25.917969 36.460938 L 38.4375 36.460938 C 40.808594 36.460938 40.808594 34.746094 40.808594 34.183594 Z M 43.472656 34.183594 C 43.472656 37.757812 40.902344 39.074219 38.636719 39.128906 C 38.613281 39.128906 38.589844 39.128906 38.566406 39.128906 L 25.917969 39.128906 C 23.140625 39.128906 20.679688 37 20.539062 34.480469 C 20.535156 34.363281 20.53125 34.261719 20.53125 34.148438 C 20.53125 32.101562 21.542969 30.5 23.285156 29.691406 C 23.414062 27.347656 25.03125 24.980469 27.144531 24.097656 C 29.707031 23.035156 32.410156 23.5625 34.382812 25.519531 C 34.753906 25.882812 35.085938 26.296875 35.375 26.757812 C 37.039062 26.132812 39.410156 26.878906 40.039062 29.496094 C 42.234375 30.242188 43.472656 31.914062 43.472656 34.183594 Z M 58.667969 32 C 58.667969 17.296875 46.707031 5.332031 32.003906 5.332031 C 17.296875 5.332031 5.335938 17.296875 5.335938 32 C 5.335938 46.707031 17.296875 58.667969 32.003906 58.667969 C 46.707031 58.667969 58.667969 46.707031 58.667969 32 Z M 61.335938 32 C 61.335938 48.175781 48.175781 61.335938 32.003906 61.335938 C 15.824219 61.335938 2.667969 48.175781 2.667969 32 C 2.667969 15.824219 15.824219 2.667969 32.003906 2.667969 C 48.175781 2.667969 61.335938 15.824219 61.335938 32 Z M 15.566406 27.152344 L 13.679688 25.265625 L 7.886719 31.058594 C 7.636719 31.308594 7.496094 31.648438 7.496094 32 C 7.496094 32.355469 7.636719 32.695312 7.886719 32.945312 L 13.679688 38.738281 L 15.566406 36.851562 L 12.046875 33.335938 L 18.652344 33.335938 L 18.652344 30.667969 L 12.046875 30.667969 Z M 56.117188 31.058594 L 50.324219 25.265625 L 48.4375 27.152344 L 51.957031 30.667969 L 45.3125 30.667969 L 45.3125 33.335938 L 51.957031 33.335938 L 48.4375 36.851562 L 50.324219 38.738281 L 56.117188 32.945312 C 56.367188 32.695312 56.507812 32.355469 56.507812 32 C 56.507812 31.648438 56.367188 31.308594 56.117188 31.058594 Z M 33.335938 51.957031 L 33.335938 41.300781 L 30.667969 41.300781 L 30.667969 51.957031 L 27.152344 48.4375 L 25.265625 50.324219 L 31.058594 56.117188 C 31.308594 56.367188 31.648438 56.507812 32.003906 56.507812 C 32.355469 56.507812 32.695312 56.367188 32.945312 56.117188 L 38.738281 50.324219 L 36.851562 48.4375 Z M 27.152344 15.5625 L 25.265625 13.679688 L 31.058594 7.886719 C 31.578125 7.363281 32.421875 7.363281 32.945312 7.886719 L 38.738281 13.679688 L 36.851562 15.5625 L 33.335938 12.046875 L 33.335938 21.699219 L 30.667969 21.699219 L 30.667969 12.046875 Z M 27.152344 15.5625 "/>
</svg>
