<?xml version="1.0" encoding="UTF-8"?>
<svg xmlns="http://www.w3.org/2000/svg" xmlns:xlink="http://www.w3.org/1999/xlink" width="64" height="64" viewBox="0 0 64 64">
<path fill-rule="evenodd" fill="rgb(90.588236%, 8.235294%, 48.235294%)" fill-opacity="1" d="M 20 21.332031 L 25.226562 21.332031 L 25.226562 18.667969 L 21.226562 18.667969 L 21.226562 14.667969 L 18.667969 14.667969 L 18.667969 20 C 18.667969 20.734375 19.261719 21.332031 20 21.332031 Z M 7.058594 32.390625 L 8.941406 34.277344 L 12.941406 30.277344 L 11.058594 28.390625 Z M 11.609375 11.058594 L 7.609375 7.058594 L 5.722656 8.941406 L 9.722656 12.941406 Z M 21.226562 8 L 21.332031 8 L 21.332031 2.667969 L 18.667969 2.667969 L 18.667969 8 Z M 34.277344 8.941406 L 32.390625 7.058594 L 28.390625 11.058594 L 30.277344 12.941406 Z M 11.894531 20 C 11.894531 24.410156 15.480469 28 19.894531 28 C 24.304688 28 27.894531 24.410156 27.894531 20 C 27.894531 15.589844 24.304688 12 19.894531 12 C 15.480469 12 11.894531 15.589844 11.894531 20 Z M 9.226562 20 C 9.226562 14.117188 14.011719 9.332031 19.894531 9.332031 C 25.773438 9.332031 30.558594 14.117188 30.558594 20 C 30.558594 25.882812 25.773438 30.667969 19.894531 30.667969 C 14.011719 30.667969 9.226562 25.882812 9.226562 20 Z M 24 50.667969 L 29.332031 50.667969 L 29.332031 48 L 24 48 Z M 24 44 L 29.332031 44 L 29.332031 41.332031 L 24 41.332031 Z M 24 37.332031 L 29.332031 37.332031 L 29.332031 34.667969 L 24 34.667969 Z M 48 50.667969 L 53.332031 50.667969 L 53.332031 48 L 48 48 Z M 48 44 L 53.332031 44 L 53.332031 41.332031 L 48 41.332031 Z M 48 37.332031 L 53.332031 37.332031 L 53.332031 34.667969 L 48 34.667969 Z M 36 50.667969 L 41.332031 50.667969 L 41.332031 48 L 36 48 Z M 36 44 L 41.332031 44 L 41.332031 41.332031 L 36 41.332031 Z M 36 37.332031 L 41.332031 37.332031 L 41.332031 34.667969 L 36 34.667969 Z M 60 16 L 56 16 L 56 13.332031 L 53.332031 13.332031 L 53.332031 16 L 47.894531 16 L 47.894531 13.332031 L 45.332031 13.332031 L 45.332031 16 L 39.894531 16 L 39.894531 13.332031 L 37.332031 13.332031 L 37.332031 16 L 33.332031 16 L 33.332031 18.667969 L 37.332031 18.667969 L 37.332031 21.332031 L 39.894531 21.332031 L 39.894531 18.667969 L 45.332031 18.667969 L 45.332031 21.332031 L 47.894531 21.332031 L 47.894531 18.667969 L 53.332031 18.667969 L 53.332031 21.332031 L 55.894531 21.332031 L 55.894531 18.667969 L 58.667969 18.667969 L 58.667969 24 L 33.332031 24 L 33.332031 26.667969 L 58.667969 26.667969 L 58.667969 57.332031 L 18.667969 57.332031 L 18.667969 34.667969 L 16 34.667969 L 16 58.667969 C 16 59.402344 16.597656 60 17.332031 60 L 60 60 C 60.738281 60 61.332031 59.402344 61.332031 58.667969 L 61.332031 17.332031 C 61.332031 16.597656 60.738281 16 60 16 Z M 2.667969 22.667969 L 7.96875 22.667969 L 7.96875 20 L 2.667969 20 Z M 2.667969 22.667969 "/>
</svg>
