<?xml version="1.0" encoding="UTF-8"?>
<svg xmlns="http://www.w3.org/2000/svg" xmlns:xlink="http://www.w3.org/1999/xlink" width="64" height="64" viewBox="0 0 64 64">
<path fill-rule="evenodd" fill="rgb(90.588236%, 8.235294%, 48.235294%)" fill-opacity="1" d="M 48.667969 5.332031 L 51.332031 5.332031 L 51.332031 2.667969 L 48.667969 2.667969 Z M 44 2.667969 L 46 2.667969 L 46 5.332031 L 45.332031 5.332031 L 45.332031 6 L 42.667969 6 L 42.667969 4 C 42.667969 3.265625 43.261719 2.667969 44 2.667969 Z M 42.667969 46 L 45.332031 46 L 45.332031 42 L 42.667969 42 Z M 42.667969 54 L 45.332031 54 L 45.332031 50 L 42.667969 50 Z M 42.667969 38 L 45.332031 38 L 45.332031 34 L 42.667969 34 Z M 42.667969 14 L 45.332031 14 L 45.332031 10 L 42.667969 10 Z M 42.667969 22 L 45.332031 22 L 45.332031 18 L 42.667969 18 Z M 42.667969 30 L 45.332031 30 L 45.332031 26 L 42.667969 26 Z M 45.332031 58.667969 L 46 58.667969 L 46 61.332031 L 44 61.332031 C 43.261719 61.332031 42.667969 60.738281 42.667969 60 L 42.667969 58 L 45.332031 58 Z M 48.667969 61.332031 L 51.332031 61.332031 L 51.332031 58.667969 L 48.667969 58.667969 Z M 54.667969 58 L 57.332031 58 L 57.332031 60 C 57.332031 60.738281 56.738281 61.332031 56 61.332031 L 54 61.332031 L 54 58.667969 L 54.667969 58.667969 Z M 54.667969 54 L 57.332031 54 L 57.332031 50 L 54.667969 50 Z M 54.667969 46 L 57.332031 46 L 57.332031 42 L 54.667969 42 Z M 54.667969 22 L 57.332031 22 L 57.332031 18 L 54.667969 18 Z M 54.667969 14 L 57.332031 14 L 57.332031 10 L 54.667969 10 Z M 54.667969 38 L 57.332031 38 L 57.332031 34 L 54.667969 34 Z M 54.667969 30 L 57.332031 30 L 57.332031 26 L 54.667969 26 Z M 57.332031 4 L 57.332031 6 L 54.667969 6 L 54.667969 5.332031 L 54 5.332031 L 54 2.667969 L 56 2.667969 C 56.738281 2.667969 57.332031 3.265625 57.332031 4 Z M 31.332031 5.332031 L 34 5.332031 L 34 2.667969 L 31.332031 2.667969 Z M 26.667969 2.667969 L 28.667969 2.667969 L 28.667969 5.332031 L 28 5.332031 L 28 6 L 25.332031 6 L 25.332031 4 C 25.332031 3.265625 25.929688 2.667969 26.667969 2.667969 Z M 25.332031 14 L 28 14 L 28 10 L 25.332031 10 Z M 25.332031 46 L 28 46 L 28 42 L 25.332031 42 Z M 25.332031 38 L 28 38 L 28 34 L 25.332031 34 Z M 25.332031 30 L 28 30 L 28 26 L 25.332031 26 Z M 25.332031 54 L 28 54 L 28 50 L 25.332031 50 Z M 25.332031 22 L 28 22 L 28 18 L 25.332031 18 Z M 28 58.667969 L 28.667969 58.667969 L 28.667969 61.332031 L 26.667969 61.332031 C 25.929688 61.332031 25.332031 60.738281 25.332031 60 L 25.332031 58 L 28 58 Z M 31.332031 61.332031 L 34 61.332031 L 34 58.667969 L 31.332031 58.667969 Z M 37.332031 58 L 40 58 L 40 60 C 40 60.738281 39.402344 61.332031 38.667969 61.332031 L 36.667969 61.332031 L 36.667969 58.667969 L 37.332031 58.667969 Z M 37.332031 14 L 40 14 L 40 10 L 37.332031 10 Z M 37.332031 22 L 40 22 L 40 18 L 37.332031 18 Z M 37.332031 30 L 40 30 L 40 26 L 37.332031 26 Z M 37.332031 54 L 40 54 L 40 50 L 37.332031 50 Z M 37.332031 38 L 40 38 L 40 34 L 37.332031 34 Z M 37.332031 46 L 40 46 L 40 42 L 37.332031 42 Z M 40 4 L 40 6 L 37.332031 6 L 37.332031 5.332031 L 36.667969 5.332031 L 36.667969 2.667969 L 38.667969 2.667969 C 39.402344 2.667969 40 3.265625 40 4 Z M 9.332031 58.667969 L 20 58.667969 L 20 5.332031 L 9.332031 5.332031 Z M 21.332031 2.667969 L 8 2.667969 C 7.261719 2.667969 6.667969 3.265625 6.667969 4 L 6.667969 60 C 6.667969 60.738281 7.261719 61.332031 8 61.332031 L 21.332031 61.332031 C 22.070312 61.332031 22.667969 60.738281 22.667969 60 L 22.667969 4 C 22.667969 3.265625 22.070312 2.667969 21.332031 2.667969 Z M 21.332031 2.667969 "/>
</svg>
