<?xml version="1.0" encoding="UTF-8"?>
<svg xmlns="http://www.w3.org/2000/svg" xmlns:xlink="http://www.w3.org/1999/xlink" width="64" height="64" viewBox="0 0 64 64">
<path fill-rule="evenodd" fill="rgb(90.588236%, 8.235294%, 48.235294%)" fill-opacity="1" d="M 58.667969 51.332031 L 61.332031 51.332031 L 61.332031 48.667969 L 58.667969 48.667969 Z M 61.332031 44 L 61.332031 46 L 58.667969 46 L 58.667969 45.332031 L 58 45.332031 L 58 42.667969 L 60 42.667969 C 60.738281 42.667969 61.332031 43.261719 61.332031 44 Z M 18 45.332031 L 22 45.332031 L 22 42.667969 L 18 42.667969 Z M 50 45.332031 L 54 45.332031 L 54 42.667969 L 50 42.667969 Z M 26 45.332031 L 30 45.332031 L 30 42.667969 L 26 42.667969 Z M 10 45.332031 L 14 45.332031 L 14 42.667969 L 10 42.667969 Z M 42 45.332031 L 46 45.332031 L 46 42.667969 L 42 42.667969 Z M 34 45.332031 L 38 45.332031 L 38 42.667969 L 34 42.667969 Z M 4 42.667969 L 6 42.667969 L 6 45.332031 L 5.332031 45.332031 L 5.332031 46 L 2.667969 46 L 2.667969 44 C 2.667969 43.261719 3.261719 42.667969 4 42.667969 Z M 2.667969 51.332031 L 5.332031 51.332031 L 5.332031 48.667969 L 2.667969 48.667969 Z M 5.332031 54.667969 L 6 54.667969 L 6 57.332031 L 4 57.332031 C 3.261719 57.332031 2.667969 56.738281 2.667969 56 L 2.667969 54 L 5.332031 54 Z M 26 57.332031 L 30 57.332031 L 30 54.667969 L 26 54.667969 Z M 42 57.332031 L 46 57.332031 L 46 54.667969 L 42 54.667969 Z M 50 57.332031 L 54 57.332031 L 54 54.667969 L 50 54.667969 Z M 10 57.332031 L 14 57.332031 L 14 54.667969 L 10 54.667969 Z M 34 57.332031 L 38 57.332031 L 38 54.667969 L 34 54.667969 Z M 18 57.332031 L 22 57.332031 L 22 54.667969 L 18 54.667969 Z M 58.667969 54 L 61.332031 54 L 61.332031 56 C 61.332031 56.738281 60.738281 57.332031 60 57.332031 L 58 57.332031 L 58 54.667969 L 58.667969 54.667969 Z M 58.667969 34 L 61.332031 34 L 61.332031 31.332031 L 58.667969 31.332031 Z M 61.332031 26.667969 L 61.332031 28.667969 L 58.667969 28.667969 L 58.667969 28 L 58 28 L 58 25.332031 L 60 25.332031 C 60.738281 25.332031 61.332031 25.929688 61.332031 26.667969 Z M 42 28 L 46 28 L 46 25.332031 L 42 25.332031 Z M 10 28 L 14 28 L 14 25.332031 L 10 25.332031 Z M 50 28 L 54 28 L 54 25.332031 L 50 25.332031 Z M 18 28 L 22 28 L 22 25.332031 L 18 25.332031 Z M 26 28 L 30 28 L 30 25.332031 L 26 25.332031 Z M 34 28 L 38 28 L 38 25.332031 L 34 25.332031 Z M 4 25.332031 L 6 25.332031 L 6 28 L 5.332031 28 L 5.332031 28.667969 L 2.667969 28.667969 L 2.667969 26.667969 C 2.667969 25.929688 3.261719 25.332031 4 25.332031 Z M 2.667969 34 L 5.332031 34 L 5.332031 31.332031 L 2.667969 31.332031 Z M 5.332031 37.332031 L 6 37.332031 L 6 40 L 4 40 C 3.261719 40 2.667969 39.402344 2.667969 38.667969 L 2.667969 36.667969 L 5.332031 36.667969 Z M 26 40 L 30 40 L 30 37.332031 L 26 37.332031 Z M 42 40 L 46 40 L 46 37.332031 L 42 37.332031 Z M 10 40 L 14 40 L 14 37.332031 L 10 37.332031 Z M 18 40 L 22 40 L 22 37.332031 L 18 37.332031 Z M 50 40 L 54 40 L 54 37.332031 L 50 37.332031 Z M 34 40 L 38 40 L 38 37.332031 L 34 37.332031 Z M 58.667969 36.667969 L 61.332031 36.667969 L 61.332031 38.667969 C 61.332031 39.402344 60.738281 40 60 40 L 58 40 L 58 37.332031 L 58.667969 37.332031 Z M 5.332031 20 L 58.667969 20 L 58.667969 9.332031 L 5.332031 9.332031 Z M 60 6.667969 L 4 6.667969 C 3.261719 6.667969 2.667969 7.261719 2.667969 8 L 2.667969 21.332031 C 2.667969 22.070312 3.261719 22.667969 4 22.667969 L 60 22.667969 C 60.738281 22.667969 61.332031 22.070312 61.332031 21.332031 L 61.332031 8 C 61.332031 7.261719 60.738281 6.667969 60 6.667969 Z M 60 6.667969 "/>
</svg>
