<?xml version="1.0" encoding="UTF-8"?>
<svg xmlns="http://www.w3.org/2000/svg" xmlns:xlink="http://www.w3.org/1999/xlink" width="64" height="64" viewBox="0 0 64 64">
<path fill-rule="evenodd" fill="rgb(90.588236%, 8.235294%, 48.235294%)" fill-opacity="1" d="M 24.042969 49.332031 L 34.710938 49.332031 L 34.710938 52 L 24.042969 52 C 18.164062 52 13.378906 47.214844 13.378906 41.332031 C 13.378906 35.453125 18.164062 30.667969 24.042969 30.667969 L 40.042969 30.667969 C 44.457031 30.667969 48.042969 27.078125 48.042969 22.667969 C 48.042969 18.253906 44.457031 14.667969 40.042969 14.667969 L 29.378906 14.667969 L 29.378906 12 L 40.042969 12 C 45.925781 12 50.710938 16.785156 50.710938 22.667969 C 50.710938 28.546875 45.925781 33.332031 40.042969 33.332031 L 24.042969 33.332031 C 19.632812 33.332031 16.042969 36.921875 16.042969 41.332031 C 16.042969 45.746094 19.632812 49.332031 24.042969 49.332031 Z M 53.894531 58.667969 L 44.773438 58.667969 L 40.203125 50.667969 L 44.773438 42.667969 L 53.894531 42.667969 L 58.464844 50.667969 Z M 61.15625 50.003906 L 55.824219 40.671875 C 55.585938 40.257812 55.144531 40 54.667969 40 L 44 40 C 43.519531 40 43.078125 40.257812 42.84375 40.671875 L 37.507812 50.003906 C 37.273438 50.414062 37.273438 50.917969 37.507812 51.328125 L 42.84375 60.660156 C 43.078125 61.078125 43.519531 61.332031 44 61.332031 L 54.667969 61.332031 C 55.144531 61.332031 55.585938 61.078125 55.824219 60.660156 L 61.15625 51.328125 C 61.390625 50.917969 61.390625 50.414062 61.15625 50.003906 Z M 10.105469 21.332031 L 5.535156 13.332031 L 10.105469 5.332031 L 19.226562 5.332031 L 23.796875 13.332031 L 19.226562 21.332031 Z M 21.15625 23.328125 L 26.492188 13.996094 C 26.726562 13.585938 26.726562 13.082031 26.492188 12.671875 L 21.15625 3.339844 C 20.921875 2.921875 20.476562 2.667969 20 2.667969 L 9.332031 2.667969 C 8.855469 2.667969 8.410156 2.921875 8.175781 3.339844 L 2.84375 12.671875 C 2.609375 13.082031 2.609375 13.585938 2.84375 13.996094 L 8.175781 23.328125 C 8.410156 23.742188 8.855469 24 9.332031 24 L 20 24 C 20.476562 24 20.921875 23.742188 21.15625 23.328125 Z M 21.15625 23.328125 "/>
</svg>
