<?xml version="1.0" encoding="UTF-8"?>
<svg xmlns="http://www.w3.org/2000/svg" xmlns:xlink="http://www.w3.org/1999/xlink" width="64" height="64" viewBox="0 0 64 64">
<path fill-rule="evenodd" fill="rgb(90.588236%, 8.235294%, 48.235294%)" fill-opacity="1" d="M 58.289062 30.375 L 56.578125 28.3125 L 55.105469 29.53125 L 56.816406 31.597656 Z M 35.796875 49.023438 L 34.085938 46.960938 L 30.738281 49.734375 L 30.101562 52.003906 L 32.449219 51.796875 Z M 36.136719 45.257812 L 37.847656 47.324219 L 54.765625 33.296875 L 53.054688 31.234375 Z M 61.019531 31.578125 L 33.832031 54.117188 C 33.621094 54.289062 33.367188 54.394531 33.09375 54.417969 L 28.410156 54.828125 C 28.375 54.832031 28.335938 54.832031 28.296875 54.832031 C 27.902344 54.832031 27.523438 54.65625 27.269531 54.351562 C 26.988281 54.015625 26.894531 53.5625 27.011719 53.140625 L 28.28125 48.613281 C 28.355469 48.351562 28.503906 48.121094 28.714844 47.945312 L 55.902344 25.40625 C 56.175781 25.179688 56.527344 25.074219 56.875 25.105469 C 57.230469 25.136719 57.554688 25.308594 57.777344 25.582031 L 61.191406 29.699219 C 61.664062 30.269531 61.585938 31.109375 61.019531 31.578125 Z M 41.464844 9.214844 L 39.011719 8.167969 L 35.5625 16.253906 L 38.015625 17.300781 Z M 52.105469 18.226562 L 50.503906 16.09375 L 43.429688 21.40625 L 45.03125 23.539062 Z M 17.953125 57.539062 L 20.40625 58.585938 L 23.855469 50.5 L 21.402344 49.453125 Z M 7.316406 48.523438 L 8.914062 50.660156 L 15.992188 45.347656 L 14.390625 43.214844 Z M 11.472656 34.339844 L 2.667969 35.453125 L 3.003906 38.101562 L 11.808594 36.984375 Z M 13.441406 25.203125 L 5.265625 21.820312 L 4.246094 24.28125 L 12.421875 27.664062 Z M 19.777344 18.25 L 14.421875 11.277344 L 12.308594 12.902344 L 17.660156 19.875 Z M 28.773438 15.363281 L 27.675781 6.667969 L 25.03125 7.003906 L 26.128906 15.699219 Z M 22.28125 44.167969 L 16.003906 33.296875 C 15.765625 32.882812 15.765625 32.375 16.003906 31.960938 L 22.28125 21.09375 C 22.519531 20.679688 22.957031 20.425781 23.433594 20.425781 L 35.984375 20.425781 C 36.460938 20.425781 36.902344 20.679688 37.140625 21.09375 L 43.417969 31.960938 L 41.105469 33.296875 L 35.214844 23.09375 L 24.207031 23.09375 L 18.699219 32.628906 L 24.207031 42.167969 L 29.378906 42.167969 L 29.378906 44.832031 L 23.433594 44.832031 C 22.957031 44.832031 22.519531 44.578125 22.28125 44.167969 Z M 22.28125 44.167969 "/>
</svg>
