<?xml version="1.0" encoding="UTF-8"?>
<svg xmlns="http://www.w3.org/2000/svg" xmlns:xlink="http://www.w3.org/1999/xlink" width="64" height="64" viewBox="0 0 64 64">
<path fill-rule="evenodd" fill="rgb(90.588236%, 8.235294%, 48.235294%)" fill-opacity="1" d="M 34.546875 33.273438 L 37.089844 33.273438 L 37.089844 30.726562 L 34.546875 30.726562 Z M 30.726562 33.273438 L 33.273438 33.273438 L 33.273438 30.726562 L 30.726562 30.726562 Z M 26.910156 33.273438 L 29.453125 33.273438 L 29.453125 30.726562 L 26.910156 30.726562 Z M 49.757812 41.335938 L 40.96875 49.070312 L 40.96875 15.109375 L 49.757812 22.839844 Z M 41.257812 11.902344 C 40.988281 11.785156 39.808594 11.4375 38.988281 11.894531 L 38.304688 12.273438 L 38.304688 51.90625 L 38.988281 52.285156 C 39.292969 52.453125 39.648438 52.511719 39.992188 52.511719 C 40.5625 52.511719 41.089844 52.351562 41.257812 52.277344 L 41.457031 52.195312 L 51.421875 43.425781 C 52.039062 43.066406 52.425781 42.417969 52.425781 41.710938 L 52.425781 22.464844 C 52.425781 21.761719 52.039062 21.113281 51.421875 20.753906 L 41.457031 11.984375 Z M 23.03125 49.070312 L 14.242188 41.339844 L 14.242188 22.839844 L 23.03125 15.109375 Z M 22.738281 11.902344 L 22.542969 11.984375 L 12.574219 20.753906 C 11.960938 21.113281 11.574219 21.761719 11.574219 22.464844 L 11.574219 41.710938 C 11.574219 42.414062 11.960938 43.066406 12.578125 43.425781 L 22.542969 52.195312 L 22.738281 52.277344 C 22.910156 52.351562 23.4375 52.511719 24.007812 52.511719 C 24.347656 52.511719 24.703125 52.453125 25.007812 52.285156 L 25.699219 51.90625 L 25.699219 12.273438 L 25.007812 11.890625 C 24.191406 11.441406 23.011719 11.785156 22.738281 11.902344 Z M 58.667969 43.046875 L 43.046875 58.667969 L 20.953125 58.667969 L 5.332031 43.046875 L 5.332031 20.953125 L 20.953125 5.332031 L 43.046875 5.332031 L 58.667969 20.953125 Z M 44.148438 2.667969 L 19.847656 2.667969 L 2.667969 19.851562 L 2.667969 44.148438 L 19.847656 61.332031 L 44.148438 61.332031 L 61.332031 44.148438 L 61.332031 19.851562 Z M 44.148438 2.667969 "/>
</svg>
