<?xml version="1.0" encoding="UTF-8"?>
<svg xmlns="http://www.w3.org/2000/svg" xmlns:xlink="http://www.w3.org/1999/xlink" width="64" height="64" viewBox="0 0 64 64">
<path fill-rule="evenodd" fill="rgb(90.588236%, 8.235294%, 48.235294%)" fill-opacity="1" d="M 49.933594 29.679688 L 49.933594 34.960938 L 46.703125 32.277344 Z M 50.414062 38.828125 C 50.65625 39.03125 50.960938 39.136719 51.265625 39.136719 C 51.457031 39.136719 51.652344 39.09375 51.832031 39.007812 C 52.296875 38.789062 52.597656 38.320312 52.597656 37.800781 L 52.597656 26.902344 C 52.597656 26.386719 52.304688 25.921875 51.84375 25.699219 C 51.378906 25.476562 50.832031 25.542969 50.429688 25.863281 L 43.757812 31.21875 C 43.445312 31.46875 43.265625 31.847656 43.261719 32.246094 C 43.257812 32.648438 43.433594 33.027344 43.742188 33.285156 Z M 14.035156 29.742188 L 17.269531 32.429688 L 14.035156 35.023438 Z M 12.125 39.003906 C 12.308594 39.09375 12.507812 39.136719 12.703125 39.136719 C 13 39.136719 13.296875 39.035156 13.539062 38.84375 L 20.210938 33.488281 C 20.523438 33.234375 20.707031 32.859375 20.710938 32.457031 C 20.714844 32.058594 20.535156 31.675781 20.226562 31.421875 L 13.554688 25.875 C 13.15625 25.546875 12.605469 25.476562 12.136719 25.695312 C 11.667969 25.914062 11.371094 26.382812 11.371094 26.902344 L 11.371094 37.800781 C 11.371094 38.316406 11.664062 38.78125 12.125 39.003906 Z M 37.824219 45.371094 L 40.492188 45.371094 L 40.492188 19.664062 L 37.824219 19.664062 Z M 30.828125 45.371094 L 33.496094 45.371094 L 33.496094 19.664062 L 30.828125 19.664062 Z M 23.613281 45.371094 L 26.28125 45.371094 L 26.28125 19.664062 L 23.613281 19.664062 Z M 5.332031 47.699219 L 58.636719 47.699219 L 58.636719 17.335938 L 5.332031 17.335938 Z M 59.96875 14.667969 L 4 14.667969 C 3.261719 14.667969 2.667969 15.265625 2.667969 16 L 2.667969 49.03125 C 2.667969 49.765625 3.261719 50.363281 4 50.363281 L 59.96875 50.363281 C 60.707031 50.363281 61.300781 49.765625 61.300781 49.03125 L 61.300781 16 C 61.300781 15.265625 60.707031 14.667969 59.96875 14.667969 Z M 59.96875 14.667969 "/>
</svg>
