<?xml version="1.0" encoding="UTF-8"?>
<svg xmlns="http://www.w3.org/2000/svg" xmlns:xlink="http://www.w3.org/1999/xlink" width="64" height="64" viewBox="0 0 64 64">
<path fill-rule="evenodd" fill="rgb(90.588236%, 8.235294%, 48.235294%)" fill-opacity="1" d="M 41.445312 27.835938 L 33.363281 32.445312 L 33.3125 41.746094 L 41.394531 37.140625 Z M 22.476562 37.09375 L 30.644531 41.871094 L 30.699219 32.320312 L 22.53125 27.546875 Z M 23.808594 25.203125 L 32.136719 30.074219 L 40.355469 25.386719 L 32.027344 20.515625 Z M 32.625 45.207031 C 32.421875 45.324219 32.195312 45.382812 31.964844 45.382812 C 31.785156 45.382812 31.609375 45.332031 31.441406 45.261719 L 20.46875 39.007812 C 20.054688 38.769531 19.804688 38.328125 19.804688 37.851562 L 19.878906 25.222656 C 19.878906 24.789062 20.101562 24.394531 20.449219 24.148438 L 31.375 17.820312 C 31.789062 17.585938 32.296875 17.585938 32.710938 17.828125 L 43.492188 24.402344 C 43.886719 24.648438 44.128906 25.074219 44.125 25.542969 L 44.058594 37.925781 C 44.054688 38.398438 43.796875 38.839844 43.382812 39.074219 Z M 44.605469 5.367188 L 42.152344 4.320312 L 38.414062 13.089844 L 40.867188 14.136719 Z M 56.175781 15.09375 L 54.574219 12.960938 L 46.90625 18.71875 L 48.507812 20.851562 Z M 51.722656 30.449219 L 61.265625 29.242188 L 60.929688 26.59375 L 51.386719 27.804688 Z M 49.644531 40.363281 L 58.507812 44.03125 L 59.523438 41.566406 L 50.664062 37.898438 Z M 42.824219 47.929688 L 48.628906 55.488281 L 50.742188 53.863281 L 44.9375 46.308594 Z M 33.089844 51.117188 L 34.285156 60.542969 L 36.929688 60.207031 L 35.738281 50.78125 Z M 19.328125 57.839844 L 21.78125 58.886719 L 25.519531 50.121094 L 23.066406 49.074219 Z M 7.757812 48.117188 L 9.359375 50.25 L 17.027344 44.488281 L 15.425781 42.355469 Z M 12.210938 32.761719 L 2.667969 33.96875 L 3.003906 36.613281 L 12.546875 35.40625 Z M 14.289062 22.847656 L 5.425781 19.179688 L 4.40625 21.644531 L 13.269531 25.308594 Z M 15.304688 7.71875 L 13.191406 9.34375 L 18.996094 16.902344 L 21.109375 15.277344 Z M 28.195312 12.425781 L 27.003906 3.003906 L 29.648438 2.667969 L 30.839844 12.089844 Z M 28.195312 12.425781 "/>
</svg>
