<?xml version="1.0" encoding="UTF-8"?>
<svg xmlns="http://www.w3.org/2000/svg" xmlns:xlink="http://www.w3.org/1999/xlink" width="64" height="64" viewBox="0 0 64 64">
<path fill-rule="evenodd" fill="rgb(90.588236%, 8.235294%, 48.235294%)" fill-opacity="1" d="M 50.667969 47.925781 L 46 50.617188 L 41.332031 47.925781 L 41.332031 42.535156 L 46 39.839844 L 50.667969 42.535156 Z M 52.667969 40.609375 L 46.667969 37.148438 C 46.253906 36.90625 45.746094 36.90625 45.332031 37.148438 L 39.332031 40.609375 C 38.921875 40.847656 38.667969 41.289062 38.667969 41.765625 L 38.667969 48.691406 C 38.667969 49.171875 38.921875 49.609375 39.332031 49.847656 L 45.332031 53.3125 C 45.539062 53.433594 45.769531 53.492188 46 53.492188 C 46.230469 53.492188 46.460938 53.433594 46.667969 53.3125 L 52.667969 49.847656 C 53.078125 49.609375 53.332031 49.171875 53.332031 48.691406 L 53.332031 41.765625 C 53.332031 41.289062 53.078125 40.847656 52.667969 40.609375 Z M 22.667969 47.925781 L 18 50.617188 L 13.332031 47.925781 L 13.332031 42.535156 L 18 39.839844 L 22.667969 42.535156 Z M 24.667969 40.609375 L 18.667969 37.148438 C 18.253906 36.90625 17.746094 36.90625 17.332031 37.148438 L 11.332031 40.609375 C 10.921875 40.847656 10.667969 41.289062 10.667969 41.765625 L 10.667969 48.691406 C 10.667969 49.171875 10.921875 49.609375 11.332031 49.847656 L 17.332031 53.3125 C 17.539062 53.433594 17.769531 53.492188 18 53.492188 C 18.230469 53.492188 18.460938 53.433594 18.667969 53.3125 L 24.667969 49.847656 C 25.078125 49.609375 25.332031 49.171875 25.332031 48.691406 L 25.332031 41.765625 C 25.332031 41.289062 25.078125 40.847656 24.667969 40.609375 Z M 41.332031 14.535156 L 46 11.839844 L 50.667969 14.535156 L 50.667969 19.925781 L 46 22.617188 L 41.332031 19.925781 Z M 39.332031 21.847656 L 45.332031 25.3125 C 45.539062 25.433594 45.769531 25.492188 46 25.492188 C 46.230469 25.492188 46.460938 25.433594 46.667969 25.3125 L 52.667969 21.847656 C 53.078125 21.609375 53.332031 21.171875 53.332031 20.691406 L 53.332031 13.765625 C 53.332031 13.289062 53.078125 12.847656 52.667969 12.609375 L 46.667969 9.148438 C 46.253906 8.90625 45.746094 8.90625 45.332031 9.148438 L 39.332031 12.609375 C 38.921875 12.847656 38.667969 13.289062 38.667969 13.765625 L 38.667969 20.691406 C 38.667969 21.171875 38.921875 21.609375 39.332031 21.847656 Z M 13.332031 14.535156 L 18 11.839844 L 22.667969 14.535156 L 22.667969 19.925781 L 18 22.617188 L 13.332031 19.925781 Z M 11.332031 21.847656 L 17.332031 25.3125 C 17.539062 25.433594 17.769531 25.492188 18 25.492188 C 18.230469 25.492188 18.460938 25.433594 18.667969 25.3125 L 24.667969 21.847656 C 25.078125 21.609375 25.332031 21.171875 25.332031 20.691406 L 25.332031 13.765625 C 25.332031 13.289062 25.078125 12.847656 24.667969 12.609375 L 18.667969 9.148438 C 18.253906 8.90625 17.746094 8.90625 17.332031 9.148438 L 11.332031 12.609375 C 10.921875 12.847656 10.667969 13.289062 10.667969 13.765625 L 10.667969 20.691406 C 10.667969 21.171875 10.921875 21.609375 11.332031 21.847656 Z M 33.332031 58.667969 L 58.667969 58.667969 L 58.667969 33.332031 L 33.332031 33.332031 Z M 5.332031 58.667969 L 30.667969 58.667969 L 30.667969 33.332031 L 5.332031 33.332031 Z M 5.332031 30.667969 L 30.667969 30.667969 L 30.667969 5.332031 L 5.332031 5.332031 Z M 33.332031 30.667969 L 58.667969 30.667969 L 58.667969 5.332031 L 33.332031 5.332031 Z M 60 2.667969 L 4 2.667969 C 3.261719 2.667969 2.667969 3.261719 2.667969 4 L 2.667969 60 C 2.667969 60.734375 3.261719 61.332031 4 61.332031 L 60 61.332031 C 60.738281 61.332031 61.332031 60.734375 61.332031 60 L 61.332031 4 C 61.332031 3.261719 60.738281 2.667969 60 2.667969 Z M 60 2.667969 "/>
</svg>
