<?xml version="1.0" encoding="UTF-8"?>
<svg xmlns="http://www.w3.org/2000/svg" xmlns:xlink="http://www.w3.org/1999/xlink" width="64" height="64" viewBox="0 0 64 64">
<path fill-rule="evenodd" fill="rgb(90.588236%, 8.235294%, 48.235294%)" fill-opacity="1" d="M 9.4375 45.007812 C 8.617188 43.605469 7.929688 42.121094 7.390625 40.589844 L 9.90625 39.707031 C 10.390625 41.074219 11.003906 42.40625 11.738281 43.660156 Z M 9.484375 25.921875 L 6.921875 25.195312 C 7.492188 23.171875 8.316406 21.222656 9.371094 19.402344 L 11.679688 20.734375 C 10.738281 22.367188 10 24.113281 9.484375 25.921875 Z M 22.113281 11.3125 L 21.023438 8.882812 C 27.59375 5.929688 35.300781 5.929688 41.878906 8.882812 L 40.789062 11.3125 C 34.898438 8.671875 27.996094 8.671875 22.113281 11.3125 Z M 51.222656 20.734375 L 53.53125 19.402344 C 54.585938 21.226562 55.410156 23.175781 55.980469 25.195312 L 53.414062 25.921875 C 52.902344 24.113281 52.167969 22.367188 51.222656 20.734375 Z M 52.992188 39.707031 L 55.507812 40.589844 C 54.988281 42.074219 54.320312 43.523438 53.53125 44.894531 L 51.222656 43.558594 C 51.929688 42.332031 52.523438 41.035156 52.992188 39.707031 Z M 40.789062 52.980469 L 41.878906 55.414062 C 38.589844 56.890625 35.082031 57.636719 31.449219 57.636719 C 27.816406 57.636719 24.308594 56.890625 21.023438 55.414062 L 22.113281 52.980469 C 27.996094 55.621094 34.902344 55.621094 40.789062 52.980469 Z M 15.332031 53.480469 C 13.496094 53.480469 12 51.984375 12 50.148438 C 12 48.308594 13.496094 46.8125 15.332031 46.8125 C 17.171875 46.8125 18.667969 48.308594 18.667969 50.148438 C 18.667969 51.984375 17.171875 53.480469 15.332031 53.480469 Z M 15.332031 44.148438 C 12.023438 44.148438 9.332031 46.839844 9.332031 50.148438 C 9.332031 53.457031 12.023438 56.148438 15.332031 56.148438 C 18.640625 56.148438 21.332031 53.457031 21.332031 50.148438 C 21.332031 46.839844 18.640625 44.148438 15.332031 44.148438 Z M 47.332031 53.480469 C 45.496094 53.480469 44 51.984375 44 50.148438 C 44 48.308594 45.496094 46.8125 47.332031 46.8125 C 49.171875 46.8125 50.667969 48.308594 50.667969 50.148438 C 50.667969 51.984375 49.171875 53.480469 47.332031 53.480469 Z M 47.332031 44.148438 C 44.023438 44.148438 41.332031 46.839844 41.332031 50.148438 C 41.332031 53.457031 44.023438 56.148438 47.332031 56.148438 C 50.640625 56.148438 53.332031 53.457031 53.332031 50.148438 C 53.332031 46.839844 50.640625 44.148438 47.332031 44.148438 Z M 5.332031 32.8125 C 5.332031 30.976562 6.828125 29.480469 8.667969 29.480469 C 10.503906 29.480469 12 30.976562 12 32.8125 C 12 34.652344 10.503906 36.148438 8.667969 36.148438 C 6.828125 36.148438 5.332031 34.652344 5.332031 32.8125 Z M 14.597656 33.480469 L 18.847656 33.480469 L 17.558594 35.40625 L 19.773438 36.890625 L 22.441406 32.90625 C 22.742188 32.460938 22.742188 31.875 22.445312 31.429688 L 19.777344 27.410156 L 17.554688 28.882812 L 18.835938 30.8125 L 14.296875 30.8125 C 13.46875 28.492188 11.269531 26.8125 8.667969 26.8125 C 5.355469 26.8125 2.667969 29.503906 2.667969 32.8125 C 2.667969 36.121094 5.355469 38.8125 8.667969 38.8125 C 11.746094 38.8125 14.261719 36.472656 14.597656 33.480469 Z M 55.332031 36.148438 C 53.496094 36.148438 52 34.652344 52 32.8125 C 52 30.976562 53.496094 29.480469 55.332031 29.480469 C 57.171875 29.480469 58.667969 30.976562 58.667969 32.8125 C 58.667969 34.652344 57.171875 36.148438 55.332031 36.148438 Z M 55.332031 26.8125 C 52.023438 26.8125 49.332031 29.503906 49.332031 32.8125 C 49.332031 36.121094 52.023438 38.8125 55.332031 38.8125 C 58.640625 38.8125 61.332031 36.121094 61.332031 32.8125 C 61.332031 29.503906 58.640625 26.8125 55.332031 26.8125 Z M 15.332031 10.8125 C 17.171875 10.8125 18.667969 12.308594 18.667969 14.148438 C 18.667969 15.984375 17.171875 17.480469 15.332031 17.480469 C 13.496094 17.480469 12 15.984375 12 14.148438 C 12 12.308594 13.496094 10.8125 15.332031 10.8125 Z M 15.332031 20.148438 C 18.640625 20.148438 21.332031 17.457031 21.332031 14.148438 C 21.332031 10.839844 18.640625 8.148438 15.332031 8.148438 C 12.023438 8.148438 9.332031 10.839844 9.332031 14.148438 C 9.332031 17.457031 12.023438 20.148438 15.332031 20.148438 Z M 47.332031 10.8125 C 49.171875 10.8125 50.667969 12.308594 50.667969 14.148438 C 50.667969 15.984375 49.171875 17.480469 47.332031 17.480469 C 45.496094 17.480469 44 15.984375 44 14.148438 C 44 12.308594 45.496094 10.8125 47.332031 10.8125 Z M 47.332031 20.148438 C 50.640625 20.148438 53.332031 17.457031 53.332031 14.148438 C 53.332031 10.839844 50.640625 8.148438 47.332031 8.148438 C 44.023438 8.148438 41.332031 10.839844 41.332031 14.148438 C 41.332031 17.457031 44.023438 20.148438 47.332031 20.148438 Z M 42.890625 35.40625 L 44.175781 33.480469 L 41.332031 33.480469 L 41.332031 30.816406 L 44.175781 30.816406 L 42.890625 28.886719 L 45.109375 27.40625 L 47.777344 31.40625 C 48.074219 31.855469 48.074219 32.4375 47.777344 32.886719 L 45.109375 36.886719 Z M 37.589844 37.753906 C 35.839844 37.164062 33.921875 36.871094 32.003906 36.871094 C 30.082031 36.871094 28.164062 37.164062 26.414062 37.753906 C 26.996094 36.054688 27.308594 34.152344 27.308594 32.148438 C 27.308594 30.144531 26.996094 28.238281 26.414062 26.542969 C 29.910156 27.71875 34.09375 27.71875 37.589844 26.542969 C 37.007812 28.238281 36.699219 30.144531 36.699219 32.148438 C 36.699219 34.152344 37.007812 36.054688 37.589844 37.753906 Z M 42.289062 23.746094 C 42.546875 23.488281 42.679688 23.148438 42.679688 22.804688 C 42.679688 22.464844 42.546875 22.121094 42.289062 21.863281 C 41.765625 21.339844 40.921875 21.339844 40.402344 21.863281 C 36.476562 25.785156 27.527344 25.785156 23.601562 21.863281 C 23.082031 21.339844 22.238281 21.339844 21.71875 21.863281 C 21.457031 22.121094 21.328125 22.464844 21.328125 22.804688 C 21.328125 23.148438 21.457031 23.488281 21.71875 23.746094 C 23.546875 25.578125 24.640625 28.71875 24.640625 32.148438 C 24.640625 35.574219 23.546875 38.714844 21.71875 40.546875 C 21.457031 40.808594 21.328125 41.148438 21.328125 41.488281 C 21.328125 41.832031 21.457031 42.171875 21.71875 42.433594 C 22.238281 42.953125 23.082031 42.953125 23.601562 42.433594 C 27.527344 38.507812 36.476562 38.507812 40.402344 42.433594 C 40.664062 42.691406 41.003906 42.824219 41.34375 42.824219 C 41.6875 42.824219 42.027344 42.691406 42.289062 42.433594 C 42.546875 42.171875 42.679688 41.832031 42.679688 41.488281 C 42.679688 41.148438 42.546875 40.808594 42.289062 40.546875 C 40.457031 38.714844 39.363281 35.574219 39.363281 32.148438 C 39.363281 28.71875 40.457031 25.578125 42.289062 23.746094 Z M 42.289062 23.746094 "/>
</svg>
