<?xml version="1.0" encoding="UTF-8"?>
<svg xmlns="http://www.w3.org/2000/svg" xmlns:xlink="http://www.w3.org/1999/xlink" width="64" height="64" viewBox="0 0 64 64">
<path fill-rule="evenodd" fill="rgb(90.588236%, 8.235294%, 48.235294%)" fill-opacity="1" d="M 37.59375 22.667969 L 37.59375 14.8125 L 36.335938 14.8125 L 33.808594 19.628906 L 31.269531 14.8125 L 29.976562 14.8125 L 29.976562 22.667969 L 31.042969 22.667969 L 31.042969 16.480469 L 33.261719 20.660156 L 34.316406 20.660156 L 36.527344 16.488281 L 36.527344 22.667969 Z M 40.84375 19.707031 L 43.484375 19.707031 L 42.160156 15.855469 Z M 40.550781 20.582031 L 39.847656 22.667969 L 38.65625 22.667969 L 41.558594 14.8125 L 42.804688 14.8125 L 45.707031 22.667969 L 44.503906 22.667969 L 43.78125 20.582031 Z M 28.503906 15.742188 L 28.503906 14.8125 L 23.617188 14.8125 L 23.617188 22.667969 L 28.503906 22.667969 L 28.503906 21.738281 L 24.773438 21.738281 L 24.773438 19.085938 L 27.902344 19.085938 L 27.902344 18.15625 L 24.773438 18.15625 L 24.773438 15.742188 Z M 46.816406 22.667969 L 47.972656 22.667969 L 47.972656 14.8125 L 46.816406 14.8125 Z M 49.921875 14.8125 L 49.921875 22.667969 L 54.785156 22.667969 L 54.785156 21.714844 L 51.078125 21.714844 L 51.078125 14.8125 Z M 5.332031 10.667969 C 5.332031 13.609375 7.726562 16 10.667969 16 C 13.609375 16 16 13.609375 16 10.667969 C 16 7.726562 13.609375 5.332031 10.667969 5.332031 C 7.726562 5.332031 5.332031 7.726562 5.332031 10.667969 Z M 2.667969 10.667969 C 2.667969 6.253906 6.253906 2.667969 10.667969 2.667969 C 15.078125 2.667969 18.667969 6.253906 18.667969 10.667969 C 18.667969 15.078125 15.078125 18.667969 10.667969 18.667969 C 6.253906 18.667969 2.667969 15.078125 2.667969 10.667969 Z M 58.667969 55.332031 L 61.332031 55.332031 L 61.332031 52.667969 L 58.667969 52.667969 Z M 60 46.667969 L 58 46.667969 L 58 49.332031 L 58.667969 49.332031 L 58.667969 50 L 61.332031 50 L 61.332031 48 C 61.332031 47.261719 60.734375 46.667969 60 46.667969 Z M 42 49.332031 L 46 49.332031 L 46 46.667969 L 42 46.667969 Z M 34 49.332031 L 38 49.332031 L 38 46.667969 L 34 46.667969 Z M 50 49.332031 L 54 49.332031 L 54 46.667969 L 50 46.667969 Z M 18 49.332031 L 22 49.332031 L 22 46.667969 L 18 46.667969 Z M 26 49.332031 L 30 49.332031 L 30 46.667969 L 26 46.667969 Z M 10 49.332031 L 14 49.332031 L 14 46.667969 L 10 46.667969 Z M 2.667969 48 L 2.667969 50 L 5.332031 50 L 5.332031 49.332031 L 6 49.332031 L 6 46.667969 L 4 46.667969 C 3.261719 46.667969 2.667969 47.261719 2.667969 48 Z M 2.667969 55.332031 L 5.332031 55.332031 L 5.332031 52.667969 L 2.667969 52.667969 Z M 5.332031 58 L 2.667969 58 L 2.667969 60 C 2.667969 60.738281 3.261719 61.332031 4 61.332031 L 6 61.332031 L 6 58.667969 L 5.332031 58.667969 Z M 50 61.332031 L 54 61.332031 L 54 58.667969 L 50 58.667969 Z M 34 61.332031 L 38 61.332031 L 38 58.667969 L 34 58.667969 Z M 18 61.332031 L 22 61.332031 L 22 58.667969 L 18 58.667969 Z M 10 61.332031 L 14 61.332031 L 14 58.667969 L 10 58.667969 Z M 42 61.332031 L 46 61.332031 L 46 58.667969 L 42 58.667969 Z M 26 61.332031 L 30 61.332031 L 30 58.667969 L 26 58.667969 Z M 58.667969 58.667969 L 58 58.667969 L 58 61.332031 L 60 61.332031 C 60.734375 61.332031 61.332031 60.738281 61.332031 60 L 61.332031 58 L 58.667969 58 Z M 58.667969 38 L 61.332031 38 L 61.332031 35.332031 L 58.667969 35.332031 Z M 60 29.332031 L 58 29.332031 L 58 32 L 58.667969 32 L 58.667969 32.667969 L 61.332031 32.667969 L 61.332031 30.667969 C 61.332031 29.929688 60.734375 29.332031 60 29.332031 Z M 42 32 L 46 32 L 46 29.332031 L 42 29.332031 Z M 26 32 L 30 32 L 30 29.332031 L 26 29.332031 Z M 10 32 L 14 32 L 14 29.332031 L 10 29.332031 Z M 34 32 L 38 32 L 38 29.332031 L 34 29.332031 Z M 18 32 L 22 32 L 22 29.332031 L 18 29.332031 Z M 50 32 L 54 32 L 54 29.332031 L 50 29.332031 Z M 2.667969 30.667969 L 2.667969 32.667969 L 5.332031 32.667969 L 5.332031 32 L 6 32 L 6 29.332031 L 4 29.332031 C 3.261719 29.332031 2.667969 29.929688 2.667969 30.667969 Z M 2.667969 38 L 5.332031 38 L 5.332031 35.332031 L 2.667969 35.332031 Z M 5.332031 40.667969 L 2.667969 40.667969 L 2.667969 42.667969 C 2.667969 43.402344 3.261719 44 4 44 L 6 44 L 6 41.332031 L 5.332031 41.332031 Z M 10 44 L 14 44 L 14 41.332031 L 10 41.332031 Z M 26 44 L 30 44 L 30 41.332031 L 26 41.332031 Z M 18 44 L 22 44 L 22 41.332031 L 18 41.332031 Z M 50 44 L 54 44 L 54 41.332031 L 50 41.332031 Z M 42 44 L 46 44 L 46 41.332031 L 42 41.332031 Z M 34 44 L 38 44 L 38 41.332031 L 34 41.332031 Z M 58.667969 41.332031 L 58 41.332031 L 58 44 L 60 44 C 60.734375 44 61.332031 43.402344 61.332031 42.667969 L 61.332031 40.667969 L 58.667969 40.667969 Z M 61.332031 12 L 61.332031 25.332031 C 61.332031 26.070312 60.734375 26.667969 60 26.667969 L 4 26.667969 C 3.261719 26.667969 2.667969 26.070312 2.667969 25.332031 L 2.667969 20 L 5.332031 20 L 5.332031 24 L 58.667969 24 L 58.667969 13.332031 L 21.332031 13.332031 L 21.332031 10.667969 L 60 10.667969 C 60.734375 10.667969 61.332031 11.261719 61.332031 12 Z M 61.332031 12 "/>
</svg>
