<?xml version="1.0" encoding="UTF-8"?>
<svg xmlns="http://www.w3.org/2000/svg" xmlns:xlink="http://www.w3.org/1999/xlink" width="64" height="64" viewBox="0 0 64 64">
<path fill-rule="evenodd" fill="rgb(90.588236%, 8.235294%, 48.235294%)" fill-opacity="1" d="M 40.773438 14.105469 L 38.320312 13.058594 L 42.050781 4.316406 L 44.503906 5.363281 Z M 48.394531 20.808594 L 46.792969 18.675781 L 54.441406 12.929688 L 56.042969 15.0625 Z M 51.261719 27.734375 L 60.78125 26.53125 L 61.117188 29.175781 L 51.597656 30.382812 Z M 50.542969 37.804688 L 59.382812 41.464844 L 58.363281 43.925781 L 49.523438 40.269531 Z M 44.832031 46.191406 L 50.625 53.734375 L 48.507812 55.355469 L 42.71875 47.816406 Z M 35.65625 50.660156 L 36.847656 60.0625 L 34.199219 60.394531 L 33.011719 50.992188 Z M 23.011719 48.953125 L 25.464844 50 L 21.734375 58.746094 L 19.28125 57.699219 Z M 15.390625 42.253906 L 16.992188 44.386719 L 9.34375 50.128906 L 7.742188 47.996094 Z M 12.523438 35.324219 L 3.003906 36.53125 L 2.667969 33.886719 L 12.1875 32.679688 Z M 13.242188 25.253906 L 4.402344 21.597656 L 5.421875 19.132812 L 14.261719 22.792969 Z M 18.953125 16.867188 L 13.160156 9.328125 L 15.277344 7.703125 L 21.066406 15.242188 Z M 28.128906 12.402344 L 26.9375 3 L 29.585938 2.667969 L 30.773438 12.066406 Z M 37.386719 41.332031 L 25.839844 41.332031 L 20.0625 31.332031 L 25.839844 21.332031 L 37.386719 21.332031 L 43.160156 31.332031 Z M 45.851562 30.664062 L 39.308594 19.332031 C 39.070312 18.917969 38.632812 18.664062 38.15625 18.664062 L 25.070312 18.664062 C 24.59375 18.664062 24.152344 18.917969 23.914062 19.332031 L 17.371094 30.664062 C 17.132812 31.078125 17.132812 31.585938 17.371094 32 L 23.914062 43.332031 C 24.152344 43.746094 24.59375 44 25.070312 44 L 38.15625 44 C 38.632812 44 39.070312 43.746094 39.308594 43.332031 L 45.851562 32 C 46.089844 31.585938 46.089844 31.078125 45.851562 30.664062 Z M 45.851562 30.664062 "/>
</svg>
