<?xml version="1.0" encoding="UTF-8"?>
<svg xmlns="http://www.w3.org/2000/svg" xmlns:xlink="http://www.w3.org/1999/xlink" width="64" height="64" viewBox="0 0 64 64">
<path fill-rule="evenodd" fill="rgb(90.588236%, 8.235294%, 48.235294%)" fill-opacity="1" d="M 25.332031 36.332031 L 25.332031 28.632812 L 32 24.785156 L 38.667969 28.632812 L 38.667969 36.332031 L 32 40.179688 Z M 32 43.054688 C 32.230469 43.054688 32.460938 42.996094 32.667969 42.875 L 40.667969 38.257812 C 41.078125 38.019531 41.332031 37.578125 41.332031 37.101562 L 41.332031 27.867188 C 41.332031 27.390625 41.078125 26.949219 40.667969 26.710938 L 32.667969 22.089844 C 32.253906 21.851562 31.746094 21.851562 31.332031 22.089844 L 23.332031 26.710938 C 22.921875 26.949219 22.667969 27.390625 22.667969 27.867188 L 22.667969 37.101562 C 22.667969 37.578125 22.921875 38.019531 23.332031 38.257812 L 31.332031 42.875 C 31.539062 42.996094 31.769531 43.054688 32 43.054688 Z M 43.609375 23.609375 L 41.722656 21.722656 L 49.722656 13.722656 L 51.609375 15.609375 Z M 20.390625 41.722656 L 22.277344 43.609375 L 14.277344 51.609375 L 12.390625 49.722656 Z M 21.722656 23.609375 L 13.722656 15.609375 L 15.609375 13.722656 L 23.609375 21.722656 Z M 43.609375 41.722656 L 51.609375 49.722656 L 49.722656 51.609375 L 41.722656 43.609375 Z M 45.332031 34.667969 L 53.332031 34.667969 L 53.332031 32 L 45.332031 32 Z M 10.667969 34.667969 L 18.667969 34.667969 L 18.667969 32 L 10.667969 32 Z M 30.667969 17.332031 L 33.332031 17.332031 L 33.332031 9.332031 L 30.667969 9.332031 Z M 30.667969 54.667969 L 33.332031 54.667969 L 33.332031 48 L 30.667969 48 Z M 5.332031 58.667969 L 58.667969 58.667969 L 58.667969 5.332031 L 5.332031 5.332031 Z M 61.332031 4 C 61.332031 3.265625 60.738281 2.667969 60 2.667969 L 4 2.667969 C 3.261719 2.667969 2.667969 3.265625 2.667969 4 L 2.667969 60 C 2.667969 60.734375 3.261719 61.332031 4 61.332031 L 60 61.332031 C 60.738281 61.332031 61.332031 60.734375 61.332031 60 Z M 61.332031 4 "/>
</svg>
