<?xml version="1.0" encoding="UTF-8"?>
<svg xmlns="http://www.w3.org/2000/svg" xmlns:xlink="http://www.w3.org/1999/xlink" width="64" height="64" viewBox="0 0 64 64">
<path fill-rule="evenodd" fill="rgb(90.588236%, 8.235294%, 48.235294%)" fill-opacity="1" d="M 31.804688 48.789062 L 32.847656 57.039062 L 30.203125 57.375 L 29.160156 49.125 Z M 20.394531 47.25 L 22.847656 48.296875 L 19.574219 55.96875 L 17.121094 54.925781 Z M 39.824219 44.789062 L 44.90625 51.40625 L 42.792969 53.03125 L 37.710938 46.414062 Z M 13.757812 41.300781 L 15.359375 43.433594 L 8.644531 48.476562 L 7.042969 46.34375 Z M 34.296875 21.023438 C 34.769531 21.023438 35.210938 21.277344 35.449219 21.691406 L 37.460938 25.179688 L 35.152344 26.511719 L 33.523438 23.691406 L 23.273438 23.691406 L 18.144531 32.570312 L 23.273438 41.449219 L 33.523438 41.449219 L 36.191406 36.832031 L 38.5 38.164062 L 35.449219 43.449219 C 35.210938 43.859375 34.769531 44.113281 34.296875 44.113281 L 22.503906 44.113281 C 22.027344 44.113281 21.585938 43.859375 21.347656 43.449219 L 15.453125 33.234375 C 15.214844 32.824219 15.214844 32.316406 15.453125 31.902344 L 21.347656 21.691406 C 21.585938 21.277344 22.027344 21.023438 22.503906 21.023438 Z M 52.808594 23.035156 L 60.722656 30.945312 C 61.242188 31.464844 61.242188 32.308594 60.722656 32.832031 L 52.808594 40.742188 L 50.925781 38.855469 L 56.558594 33.222656 L 27.617188 33.222656 L 27.617188 30.554688 L 56.558594 30.554688 L 50.925781 24.917969 Z M 11.023438 32.867188 L 11.359375 35.515625 L 3.003906 36.570312 L 2.667969 33.925781 Z M 5.167969 20.992188 L 12.925781 24.203125 L 11.90625 26.664062 L 4.148438 23.453125 Z M 48.03125 15.566406 L 49.632812 17.699219 L 42.917969 22.742188 L 41.316406 20.609375 Z M 13.882812 11.011719 L 18.964844 17.628906 L 16.851562 19.253906 L 11.769531 12.636719 Z M 37.101562 8.070312 L 39.554688 9.117188 L 36.28125 16.792969 L 33.828125 15.746094 Z M 26.472656 6.667969 L 27.519531 14.917969 L 24.871094 15.253906 L 23.828125 7.003906 Z M 26.472656 6.667969 "/>
</svg>
