<?xml version="1.0" encoding="UTF-8"?>
<svg xmlns="http://www.w3.org/2000/svg" xmlns:xlink="http://www.w3.org/1999/xlink" width="64" height="64" viewBox="0 0 64 64">
<path fill-rule="evenodd" fill="rgb(90.588236%, 8.235294%, 48.235294%)" fill-opacity="1" d="M 14.667969 52 L 49.335938 52 L 49.335938 49.335938 L 14.667969 49.335938 Z M 47.839844 16.011719 L 45.539062 14.664062 L 40.726562 22.878906 L 43.027344 24.226562 Z M 56.757812 24.792969 L 48.429688 29.53125 L 49.75 31.847656 L 58.074219 27.109375 Z M 52.003906 38.660156 L 52 41.328125 L 61.332031 41.335938 L 61.335938 38.667969 Z M 2.667969 41.335938 L 12 41.34375 L 12.003906 38.675781 L 2.667969 38.667969 Z M 7.273438 24.75 L 5.949219 27.0625 L 14.269531 31.816406 L 15.589844 29.5 Z M 23.308594 22.863281 L 18.507812 14.640625 L 16.203125 15.984375 L 21 24.207031 Z M 33.335938 12.003906 L 30.667969 12 L 30.660156 21.332031 L 33.324219 21.335938 Z M 17.460938 36.261719 L 24.152344 24.667969 C 24.390625 24.257812 24.832031 24 25.308594 24 L 38.695312 24 C 39.171875 24 39.609375 24.257812 39.847656 24.667969 L 46.542969 36.261719 C 46.78125 36.671875 46.78125 37.179688 46.542969 37.59375 L 41.429688 46.449219 L 39.117188 45.117188 L 43.847656 36.929688 L 37.925781 26.667969 L 26.078125 26.667969 L 20.152344 36.929688 L 24.882812 45.117188 L 22.574219 46.449219 L 17.460938 37.59375 C 17.222656 37.179688 17.222656 36.671875 17.460938 36.261719 Z M 17.460938 36.261719 "/>
</svg>
